<?xml version="1.0" encoding="utf-8" standalone="no"?>
<!DOCTYPE svg PUBLIC "-//W3C//DTD SVG 1.1//EN"
  "http://www.w3.org/Graphics/SVG/1.1/DTD/svg11.dtd">
<svg xmlns:xlink="http://www.w3.org/1999/xlink" width="460.8pt" height="345.6pt" viewBox="0 0 460.8 345.6" xmlns="http://www.w3.org/2000/svg" version="1.1">
 <metadata>
  <rdf:RDF xmlns:dc="http://purl.org/dc/elements/1.1/" xmlns:cc="http://creativecommons.org/ns#" xmlns:rdf="http://www.w3.org/1999/02/22-rdf-syntax-ns#">
   <cc:Work>
    <dc:type rdf:resource="http://purl.org/dc/dcmitype/StillImage"/>
    <dc:date>2022-12-15T13:43:47.373227</dc:date>
    <dc:format>image/svg+xml</dc:format>
    <dc:creator>
     <cc:Agent>
      <dc:title>Matplotlib v3.6.0, https://matplotlib.org/</dc:title>
     </cc:Agent>
    </dc:creator>
   </cc:Work>
  </rdf:RDF>
 </metadata>
 <defs>
  <style type="text/css">*{stroke-linejoin: round; stroke-linecap: butt}</style>
 </defs>
 <g id="figure_1">
  <g id="patch_1">
   <path d="M 0 345.6 
L 460.8 345.6 
L 460.8 0 
L 0 0 
z
" style="fill: #ffffff"/>
  </g>
  <g id="axes_1">
   <g id="patch_2">
    <path d="M 57.6 307.584 
L 414.72 307.584 
L 414.72 41.472 
L 57.6 41.472 
z
" style="fill: #ffffff"/>
   </g>
   <g id="patch_3">
    <path d="M 73.832727 307.584 
L 75.606796 307.584 
L 75.606796 307.502735 
L 73.832727 307.502735 
z
" clip-path="url(#p80c9bea98a)" style="fill: #1f77b4; fill-opacity: 0.75; stroke: #000000; stroke-width: 0.177407; stroke-linejoin: miter"/>
   </g>
   <g id="patch_4">
    <path d="M 75.606796 307.584 
L 77.380864 307.584 
L 77.380864 307.584 
L 75.606796 307.584 
z
" clip-path="url(#p80c9bea98a)" style="fill: #1f77b4; fill-opacity: 0.75; stroke: #000000; stroke-width: 0.177407; stroke-linejoin: miter"/>
   </g>
   <g id="patch_5">
    <path d="M 77.380864 307.584 
L 79.154933 307.584 
L 79.154933 307.584 
L 77.380864 307.584 
z
" clip-path="url(#p80c9bea98a)" style="fill: #1f77b4; fill-opacity: 0.75; stroke: #000000; stroke-width: 0.177407; stroke-linejoin: miter"/>
   </g>
   <g id="patch_6">
    <path d="M 79.154933 307.584 
L 80.929001 307.584 
L 80.929001 307.584 
L 79.154933 307.584 
z
" clip-path="url(#p80c9bea98a)" style="fill: #1f77b4; fill-opacity: 0.75; stroke: #000000; stroke-width: 0.177407; stroke-linejoin: miter"/>
   </g>
   <g id="patch_7">
    <path d="M 80.929001 307.584 
L 82.70307 307.584 
L 82.70307 307.584 
L 80.929001 307.584 
z
" clip-path="url(#p80c9bea98a)" style="fill: #1f77b4; fill-opacity: 0.75; stroke: #000000; stroke-width: 0.177407; stroke-linejoin: miter"/>
   </g>
   <g id="patch_8">
    <path d="M 82.70307 307.584 
L 84.477139 307.584 
L 84.477139 307.584 
L 82.70307 307.584 
z
" clip-path="url(#p80c9bea98a)" style="fill: #1f77b4; fill-opacity: 0.75; stroke: #000000; stroke-width: 0.177407; stroke-linejoin: miter"/>
   </g>
   <g id="patch_9">
    <path d="M 84.477139 307.584 
L 86.251207 307.584 
L 86.251207 307.502735 
L 84.477139 307.502735 
z
" clip-path="url(#p80c9bea98a)" style="fill: #1f77b4; fill-opacity: 0.75; stroke: #000000; stroke-width: 0.177407; stroke-linejoin: miter"/>
   </g>
   <g id="patch_10">
    <path d="M 86.251207 307.584 
L 88.025276 307.584 
L 88.025276 307.584 
L 86.251207 307.584 
z
" clip-path="url(#p80c9bea98a)" style="fill: #1f77b4; fill-opacity: 0.75; stroke: #000000; stroke-width: 0.177407; stroke-linejoin: miter"/>
   </g>
   <g id="patch_11">
    <path d="M 88.025276 307.584 
L 89.799344 307.584 
L 89.799344 307.584 
L 88.025276 307.584 
z
" clip-path="url(#p80c9bea98a)" style="fill: #1f77b4; fill-opacity: 0.75; stroke: #000000; stroke-width: 0.177407; stroke-linejoin: miter"/>
   </g>
   <g id="patch_12">
    <path d="M 89.799344 307.584 
L 91.573413 307.584 
L 91.573413 307.584 
L 89.799344 307.584 
z
" clip-path="url(#p80c9bea98a)" style="fill: #1f77b4; fill-opacity: 0.75; stroke: #000000; stroke-width: 0.177407; stroke-linejoin: miter"/>
   </g>
   <g id="patch_13">
    <path d="M 91.573413 307.584 
L 93.347481 307.584 
L 93.347481 307.584 
L 91.573413 307.584 
z
" clip-path="url(#p80c9bea98a)" style="fill: #1f77b4; fill-opacity: 0.75; stroke: #000000; stroke-width: 0.177407; stroke-linejoin: miter"/>
   </g>
   <g id="patch_14">
    <path d="M 93.347481 307.584 
L 95.12155 307.584 
L 95.12155 307.584 
L 93.347481 307.584 
z
" clip-path="url(#p80c9bea98a)" style="fill: #1f77b4; fill-opacity: 0.75; stroke: #000000; stroke-width: 0.177407; stroke-linejoin: miter"/>
   </g>
   <g id="patch_15">
    <path d="M 95.12155 307.584 
L 96.895618 307.584 
L 96.895618 307.584 
L 95.12155 307.584 
z
" clip-path="url(#p80c9bea98a)" style="fill: #1f77b4; fill-opacity: 0.75; stroke: #000000; stroke-width: 0.177407; stroke-linejoin: miter"/>
   </g>
   <g id="patch_16">
    <path d="M 96.895618 307.584 
L 98.669687 307.584 
L 98.669687 307.529823 
L 96.895618 307.529823 
z
" clip-path="url(#p80c9bea98a)" style="fill: #1f77b4; fill-opacity: 0.75; stroke: #000000; stroke-width: 0.177407; stroke-linejoin: miter"/>
   </g>
   <g id="patch_17">
    <path d="M 98.669687 307.584 
L 100.443756 307.584 
L 100.443756 307.584 
L 98.669687 307.584 
z
" clip-path="url(#p80c9bea98a)" style="fill: #1f77b4; fill-opacity: 0.75; stroke: #000000; stroke-width: 0.177407; stroke-linejoin: miter"/>
   </g>
   <g id="patch_18">
    <path d="M 100.443756 307.584 
L 102.217824 307.584 
L 102.217824 307.584 
L 100.443756 307.584 
z
" clip-path="url(#p80c9bea98a)" style="fill: #1f77b4; fill-opacity: 0.75; stroke: #000000; stroke-width: 0.177407; stroke-linejoin: miter"/>
   </g>
   <g id="patch_19">
    <path d="M 102.217824 307.584 
L 103.991893 307.584 
L 103.991893 307.584 
L 102.217824 307.584 
z
" clip-path="url(#p80c9bea98a)" style="fill: #1f77b4; fill-opacity: 0.75; stroke: #000000; stroke-width: 0.177407; stroke-linejoin: miter"/>
   </g>
   <g id="patch_20">
    <path d="M 103.991893 307.584 
L 105.765961 307.584 
L 105.765961 307.584 
L 103.991893 307.584 
z
" clip-path="url(#p80c9bea98a)" style="fill: #1f77b4; fill-opacity: 0.75; stroke: #000000; stroke-width: 0.177407; stroke-linejoin: miter"/>
   </g>
   <g id="patch_21">
    <path d="M 105.765961 307.584 
L 107.54003 307.584 
L 107.54003 307.584 
L 105.765961 307.584 
z
" clip-path="url(#p80c9bea98a)" style="fill: #1f77b4; fill-opacity: 0.75; stroke: #000000; stroke-width: 0.177407; stroke-linejoin: miter"/>
   </g>
   <g id="patch_22">
    <path d="M 107.54003 307.584 
L 109.314098 307.584 
L 109.314098 307.584 
L 107.54003 307.584 
z
" clip-path="url(#p80c9bea98a)" style="fill: #1f77b4; fill-opacity: 0.75; stroke: #000000; stroke-width: 0.177407; stroke-linejoin: miter"/>
   </g>
   <g id="patch_23">
    <path d="M 109.314098 307.584 
L 111.088167 307.584 
L 111.088167 307.584 
L 109.314098 307.584 
z
" clip-path="url(#p80c9bea98a)" style="fill: #1f77b4; fill-opacity: 0.75; stroke: #000000; stroke-width: 0.177407; stroke-linejoin: miter"/>
   </g>
   <g id="patch_24">
    <path d="M 111.088167 307.584 
L 112.862235 307.584 
L 112.862235 307.584 
L 111.088167 307.584 
z
" clip-path="url(#p80c9bea98a)" style="fill: #1f77b4; fill-opacity: 0.75; stroke: #000000; stroke-width: 0.177407; stroke-linejoin: miter"/>
   </g>
   <g id="patch_25">
    <path d="M 112.862235 307.584 
L 114.636304 307.584 
L 114.636304 307.584 
L 112.862235 307.584 
z
" clip-path="url(#p80c9bea98a)" style="fill: #1f77b4; fill-opacity: 0.75; stroke: #000000; stroke-width: 0.177407; stroke-linejoin: miter"/>
   </g>
   <g id="patch_26">
    <path d="M 114.636304 307.584 
L 116.410373 307.584 
L 116.410373 304.929327 
L 114.636304 304.929327 
z
" clip-path="url(#p80c9bea98a)" style="fill: #1f77b4; fill-opacity: 0.75; stroke: #000000; stroke-width: 0.177407; stroke-linejoin: miter"/>
   </g>
   <g id="patch_27">
    <path d="M 116.410373 307.584 
L 118.184441 307.584 
L 118.184441 307.584 
L 116.410373 307.584 
z
" clip-path="url(#p80c9bea98a)" style="fill: #1f77b4; fill-opacity: 0.75; stroke: #000000; stroke-width: 0.177407; stroke-linejoin: miter"/>
   </g>
   <g id="patch_28">
    <path d="M 118.184441 307.584 
L 119.95851 307.584 
L 119.95851 307.584 
L 118.184441 307.584 
z
" clip-path="url(#p80c9bea98a)" style="fill: #1f77b4; fill-opacity: 0.75; stroke: #000000; stroke-width: 0.177407; stroke-linejoin: miter"/>
   </g>
   <g id="patch_29">
    <path d="M 119.95851 307.584 
L 121.732578 307.584 
L 121.732578 307.584 
L 119.95851 307.584 
z
" clip-path="url(#p80c9bea98a)" style="fill: #1f77b4; fill-opacity: 0.75; stroke: #000000; stroke-width: 0.177407; stroke-linejoin: miter"/>
   </g>
   <g id="patch_30">
    <path d="M 121.732578 307.584 
L 123.506647 307.584 
L 123.506647 307.584 
L 121.732578 307.584 
z
" clip-path="url(#p80c9bea98a)" style="fill: #1f77b4; fill-opacity: 0.75; stroke: #000000; stroke-width: 0.177407; stroke-linejoin: miter"/>
   </g>
   <g id="patch_31">
    <path d="M 123.506647 307.584 
L 125.280715 307.584 
L 125.280715 292.089378 
L 123.506647 292.089378 
z
" clip-path="url(#p80c9bea98a)" style="fill: #1f77b4; fill-opacity: 0.75; stroke: #000000; stroke-width: 0.177407; stroke-linejoin: miter"/>
   </g>
   <g id="patch_32">
    <path d="M 125.280715 307.584 
L 127.054784 307.584 
L 127.054784 307.584 
L 125.280715 307.584 
z
" clip-path="url(#p80c9bea98a)" style="fill: #1f77b4; fill-opacity: 0.75; stroke: #000000; stroke-width: 0.177407; stroke-linejoin: miter"/>
   </g>
   <g id="patch_33">
    <path d="M 127.054784 307.584 
L 128.828852 307.584 
L 128.828852 307.584 
L 127.054784 307.584 
z
" clip-path="url(#p80c9bea98a)" style="fill: #1f77b4; fill-opacity: 0.75; stroke: #000000; stroke-width: 0.177407; stroke-linejoin: miter"/>
   </g>
   <g id="patch_34">
    <path d="M 128.828852 307.584 
L 130.602921 307.584 
L 130.602921 307.584 
L 128.828852 307.584 
z
" clip-path="url(#p80c9bea98a)" style="fill: #1f77b4; fill-opacity: 0.75; stroke: #000000; stroke-width: 0.177407; stroke-linejoin: miter"/>
   </g>
   <g id="patch_35">
    <path d="M 130.602921 307.584 
L 132.37699 307.584 
L 132.37699 273.696287 
L 130.602921 273.696287 
z
" clip-path="url(#p80c9bea98a)" style="fill: #1f77b4; fill-opacity: 0.75; stroke: #000000; stroke-width: 0.177407; stroke-linejoin: miter"/>
   </g>
   <g id="patch_36">
    <path d="M 132.37699 307.584 
L 134.151058 307.584 
L 134.151058 307.584 
L 132.37699 307.584 
z
" clip-path="url(#p80c9bea98a)" style="fill: #1f77b4; fill-opacity: 0.75; stroke: #000000; stroke-width: 0.177407; stroke-linejoin: miter"/>
   </g>
   <g id="patch_37">
    <path d="M 134.151058 307.584 
L 135.925127 307.584 
L 135.925127 307.584 
L 134.151058 307.584 
z
" clip-path="url(#p80c9bea98a)" style="fill: #1f77b4; fill-opacity: 0.75; stroke: #000000; stroke-width: 0.177407; stroke-linejoin: miter"/>
   </g>
   <g id="patch_38">
    <path d="M 135.925127 307.584 
L 137.699195 307.584 
L 137.699195 307.584 
L 135.925127 307.584 
z
" clip-path="url(#p80c9bea98a)" style="fill: #1f77b4; fill-opacity: 0.75; stroke: #000000; stroke-width: 0.177407; stroke-linejoin: miter"/>
   </g>
   <g id="patch_39">
    <path d="M 137.699195 307.584 
L 139.473264 307.584 
L 139.473264 307.584 
L 137.699195 307.584 
z
" clip-path="url(#p80c9bea98a)" style="fill: #1f77b4; fill-opacity: 0.75; stroke: #000000; stroke-width: 0.177407; stroke-linejoin: miter"/>
   </g>
   <g id="patch_40">
    <path d="M 139.473264 307.584 
L 141.247332 307.584 
L 141.247332 307.584 
L 139.473264 307.584 
z
" clip-path="url(#p80c9bea98a)" style="fill: #1f77b4; fill-opacity: 0.75; stroke: #000000; stroke-width: 0.177407; stroke-linejoin: miter"/>
   </g>
   <g id="patch_41">
    <path d="M 141.247332 307.584 
L 143.021401 307.584 
L 143.021401 307.584 
L 141.247332 307.584 
z
" clip-path="url(#p80c9bea98a)" style="fill: #1f77b4; fill-opacity: 0.75; stroke: #000000; stroke-width: 0.177407; stroke-linejoin: miter"/>
   </g>
   <g id="patch_42">
    <path d="M 143.021401 307.584 
L 144.795469 307.584 
L 144.795469 307.584 
L 143.021401 307.584 
z
" clip-path="url(#p80c9bea98a)" style="fill: #1f77b4; fill-opacity: 0.75; stroke: #000000; stroke-width: 0.177407; stroke-linejoin: miter"/>
   </g>
   <g id="patch_43">
    <path d="M 144.795469 307.584 
L 146.569538 307.584 
L 146.569538 307.584 
L 144.795469 307.584 
z
" clip-path="url(#p80c9bea98a)" style="fill: #1f77b4; fill-opacity: 0.75; stroke: #000000; stroke-width: 0.177407; stroke-linejoin: miter"/>
   </g>
   <g id="patch_44">
    <path d="M 146.569538 307.584 
L 148.343607 307.584 
L 148.343607 307.584 
L 146.569538 307.584 
z
" clip-path="url(#p80c9bea98a)" style="fill: #1f77b4; fill-opacity: 0.75; stroke: #000000; stroke-width: 0.177407; stroke-linejoin: miter"/>
   </g>
   <g id="patch_45">
    <path d="M 148.343607 307.584 
L 150.117675 307.584 
L 150.117675 307.584 
L 148.343607 307.584 
z
" clip-path="url(#p80c9bea98a)" style="fill: #1f77b4; fill-opacity: 0.75; stroke: #000000; stroke-width: 0.177407; stroke-linejoin: miter"/>
   </g>
   <g id="patch_46">
    <path d="M 150.117675 307.584 
L 151.891744 307.584 
L 151.891744 195.085462 
L 150.117675 195.085462 
z
" clip-path="url(#p80c9bea98a)" style="fill: #1f77b4; fill-opacity: 0.75; stroke: #000000; stroke-width: 0.177407; stroke-linejoin: miter"/>
   </g>
   <g id="patch_47">
    <path d="M 151.891744 307.584 
L 153.665812 307.584 
L 153.665812 307.584 
L 151.891744 307.584 
z
" clip-path="url(#p80c9bea98a)" style="fill: #1f77b4; fill-opacity: 0.75; stroke: #000000; stroke-width: 0.177407; stroke-linejoin: miter"/>
   </g>
   <g id="patch_48">
    <path d="M 153.665812 307.584 
L 155.439881 307.584 
L 155.439881 307.584 
L 153.665812 307.584 
z
" clip-path="url(#p80c9bea98a)" style="fill: #1f77b4; fill-opacity: 0.75; stroke: #000000; stroke-width: 0.177407; stroke-linejoin: miter"/>
   </g>
   <g id="patch_49">
    <path d="M 155.439881 307.584 
L 157.213949 307.584 
L 157.213949 121.702717 
L 155.439881 121.702717 
z
" clip-path="url(#p80c9bea98a)" style="fill: #1f77b4; fill-opacity: 0.75; stroke: #000000; stroke-width: 0.177407; stroke-linejoin: miter"/>
   </g>
   <g id="patch_50">
    <path d="M 157.213949 307.584 
L 158.988018 307.584 
L 158.988018 307.584 
L 157.213949 307.584 
z
" clip-path="url(#p80c9bea98a)" style="fill: #1f77b4; fill-opacity: 0.75; stroke: #000000; stroke-width: 0.177407; stroke-linejoin: miter"/>
   </g>
   <g id="patch_51">
    <path d="M 158.988018 307.584 
L 160.762086 307.584 
L 160.762086 307.584 
L 158.988018 307.584 
z
" clip-path="url(#p80c9bea98a)" style="fill: #1f77b4; fill-opacity: 0.75; stroke: #000000; stroke-width: 0.177407; stroke-linejoin: miter"/>
   </g>
   <g id="patch_52">
    <path d="M 160.762086 307.584 
L 162.536155 307.584 
L 162.536155 268.793269 
L 160.762086 268.793269 
z
" clip-path="url(#p80c9bea98a)" style="fill: #1f77b4; fill-opacity: 0.75; stroke: #000000; stroke-width: 0.177407; stroke-linejoin: miter"/>
   </g>
   <g id="patch_53">
    <path d="M 162.536155 307.584 
L 164.310224 307.584 
L 164.310224 307.584 
L 162.536155 307.584 
z
" clip-path="url(#p80c9bea98a)" style="fill: #1f77b4; fill-opacity: 0.75; stroke: #000000; stroke-width: 0.177407; stroke-linejoin: miter"/>
   </g>
   <g id="patch_54">
    <path d="M 164.310224 307.584 
L 166.084292 307.584 
L 166.084292 307.584 
L 164.310224 307.584 
z
" clip-path="url(#p80c9bea98a)" style="fill: #1f77b4; fill-opacity: 0.75; stroke: #000000; stroke-width: 0.177407; stroke-linejoin: miter"/>
   </g>
   <g id="patch_55">
    <path d="M 166.084292 307.584 
L 167.858361 307.584 
L 167.858361 307.584 
L 166.084292 307.584 
z
" clip-path="url(#p80c9bea98a)" style="fill: #1f77b4; fill-opacity: 0.75; stroke: #000000; stroke-width: 0.177407; stroke-linejoin: miter"/>
   </g>
   <g id="patch_56">
    <path d="M 167.858361 307.584 
L 169.632429 307.584 
L 169.632429 307.584 
L 167.858361 307.584 
z
" clip-path="url(#p80c9bea98a)" style="fill: #1f77b4; fill-opacity: 0.75; stroke: #000000; stroke-width: 0.177407; stroke-linejoin: miter"/>
   </g>
   <g id="patch_57">
    <path d="M 169.632429 307.584 
L 171.406498 307.584 
L 171.406498 151.743863 
L 169.632429 151.743863 
z
" clip-path="url(#p80c9bea98a)" style="fill: #1f77b4; fill-opacity: 0.75; stroke: #000000; stroke-width: 0.177407; stroke-linejoin: miter"/>
   </g>
   <g id="patch_58">
    <path d="M 171.406498 307.584 
L 173.180566 307.584 
L 173.180566 307.584 
L 171.406498 307.584 
z
" clip-path="url(#p80c9bea98a)" style="fill: #1f77b4; fill-opacity: 0.75; stroke: #000000; stroke-width: 0.177407; stroke-linejoin: miter"/>
   </g>
   <g id="patch_59">
    <path d="M 173.180566 307.584 
L 174.954635 307.584 
L 174.954635 307.584 
L 173.180566 307.584 
z
" clip-path="url(#p80c9bea98a)" style="fill: #1f77b4; fill-opacity: 0.75; stroke: #000000; stroke-width: 0.177407; stroke-linejoin: miter"/>
   </g>
   <g id="patch_60">
    <path d="M 174.954635 307.584 
L 176.728703 307.584 
L 176.728703 54.144 
L 174.954635 54.144 
z
" clip-path="url(#p80c9bea98a)" style="fill: #1f77b4; fill-opacity: 0.75; stroke: #000000; stroke-width: 0.177407; stroke-linejoin: miter"/>
   </g>
   <g id="patch_61">
    <path d="M 176.728703 307.584 
L 178.502772 307.584 
L 178.502772 307.584 
L 176.728703 307.584 
z
" clip-path="url(#p80c9bea98a)" style="fill: #1f77b4; fill-opacity: 0.75; stroke: #000000; stroke-width: 0.177407; stroke-linejoin: miter"/>
   </g>
   <g id="patch_62">
    <path d="M 178.502772 307.584 
L 180.276841 307.584 
L 180.276841 166.9676 
L 178.502772 166.9676 
z
" clip-path="url(#p80c9bea98a)" style="fill: #1f77b4; fill-opacity: 0.75; stroke: #000000; stroke-width: 0.177407; stroke-linejoin: miter"/>
   </g>
   <g id="patch_63">
    <path d="M 180.276841 307.584 
L 182.050909 307.584 
L 182.050909 307.584 
L 180.276841 307.584 
z
" clip-path="url(#p80c9bea98a)" style="fill: #1f77b4; fill-opacity: 0.75; stroke: #000000; stroke-width: 0.177407; stroke-linejoin: miter"/>
   </g>
   <g id="patch_64">
    <path d="M 182.050909 307.584 
L 183.824978 307.584 
L 183.824978 307.584 
L 182.050909 307.584 
z
" clip-path="url(#p80c9bea98a)" style="fill: #1f77b4; fill-opacity: 0.75; stroke: #000000; stroke-width: 0.177407; stroke-linejoin: miter"/>
   </g>
   <g id="patch_65">
    <path d="M 183.824978 307.584 
L 185.599046 307.584 
L 185.599046 307.584 
L 183.824978 307.584 
z
" clip-path="url(#p80c9bea98a)" style="fill: #1f77b4; fill-opacity: 0.75; stroke: #000000; stroke-width: 0.177407; stroke-linejoin: miter"/>
   </g>
   <g id="patch_66">
    <path d="M 185.599046 307.584 
L 187.373115 307.584 
L 187.373115 307.584 
L 185.599046 307.584 
z
" clip-path="url(#p80c9bea98a)" style="fill: #1f77b4; fill-opacity: 0.75; stroke: #000000; stroke-width: 0.177407; stroke-linejoin: miter"/>
   </g>
   <g id="patch_67">
    <path d="M 187.373115 307.584 
L 189.147183 307.584 
L 189.147183 259.529002 
L 187.373115 259.529002 
z
" clip-path="url(#p80c9bea98a)" style="fill: #1f77b4; fill-opacity: 0.75; stroke: #000000; stroke-width: 0.177407; stroke-linejoin: miter"/>
   </g>
   <g id="patch_68">
    <path d="M 189.147183 307.584 
L 190.921252 307.584 
L 190.921252 307.584 
L 189.147183 307.584 
z
" clip-path="url(#p80c9bea98a)" style="fill: #1f77b4; fill-opacity: 0.75; stroke: #000000; stroke-width: 0.177407; stroke-linejoin: miter"/>
   </g>
   <g id="patch_69">
    <path d="M 190.921252 307.584 
L 192.69532 307.584 
L 192.69532 173.902256 
L 190.921252 173.902256 
z
" clip-path="url(#p80c9bea98a)" style="fill: #1f77b4; fill-opacity: 0.75; stroke: #000000; stroke-width: 0.177407; stroke-linejoin: miter"/>
   </g>
   <g id="patch_70">
    <path d="M 192.69532 307.584 
L 194.469389 307.584 
L 194.469389 307.584 
L 192.69532 307.584 
z
" clip-path="url(#p80c9bea98a)" style="fill: #1f77b4; fill-opacity: 0.75; stroke: #000000; stroke-width: 0.177407; stroke-linejoin: miter"/>
   </g>
   <g id="patch_71">
    <path d="M 194.469389 307.584 
L 196.243458 307.584 
L 196.243458 213.911969 
L 194.469389 213.911969 
z
" clip-path="url(#p80c9bea98a)" style="fill: #1f77b4; fill-opacity: 0.75; stroke: #000000; stroke-width: 0.177407; stroke-linejoin: miter"/>
   </g>
   <g id="patch_72">
    <path d="M 196.243458 307.584 
L 198.017526 307.584 
L 198.017526 307.584 
L 196.243458 307.584 
z
" clip-path="url(#p80c9bea98a)" style="fill: #1f77b4; fill-opacity: 0.75; stroke: #000000; stroke-width: 0.177407; stroke-linejoin: miter"/>
   </g>
   <g id="patch_73">
    <path d="M 198.017526 307.584 
L 199.791595 307.584 
L 199.791595 307.584 
L 198.017526 307.584 
z
" clip-path="url(#p80c9bea98a)" style="fill: #1f77b4; fill-opacity: 0.75; stroke: #000000; stroke-width: 0.177407; stroke-linejoin: miter"/>
   </g>
   <g id="patch_74">
    <path d="M 199.791595 307.584 
L 201.565663 307.584 
L 201.565663 307.584 
L 199.791595 307.584 
z
" clip-path="url(#p80c9bea98a)" style="fill: #1f77b4; fill-opacity: 0.75; stroke: #000000; stroke-width: 0.177407; stroke-linejoin: miter"/>
   </g>
   <g id="patch_75">
    <path d="M 201.565663 307.584 
L 203.339732 307.584 
L 203.339732 306.906788 
L 201.565663 306.906788 
z
" clip-path="url(#p80c9bea98a)" style="fill: #1f77b4; fill-opacity: 0.75; stroke: #000000; stroke-width: 0.177407; stroke-linejoin: miter"/>
   </g>
   <g id="patch_76">
    <path d="M 203.339732 307.584 
L 205.1138 307.584 
L 205.1138 241.650593 
L 203.339732 241.650593 
z
" clip-path="url(#p80c9bea98a)" style="fill: #1f77b4; fill-opacity: 0.75; stroke: #000000; stroke-width: 0.177407; stroke-linejoin: miter"/>
   </g>
   <g id="patch_77">
    <path d="M 205.1138 307.584 
L 206.887869 307.584 
L 206.887869 307.584 
L 205.1138 307.584 
z
" clip-path="url(#p80c9bea98a)" style="fill: #1f77b4; fill-opacity: 0.75; stroke: #000000; stroke-width: 0.177407; stroke-linejoin: miter"/>
   </g>
   <g id="patch_78">
    <path d="M 206.887869 307.584 
L 208.661937 307.584 
L 208.661937 276.730199 
L 206.887869 276.730199 
z
" clip-path="url(#p80c9bea98a)" style="fill: #1f77b4; fill-opacity: 0.75; stroke: #000000; stroke-width: 0.177407; stroke-linejoin: miter"/>
   </g>
   <g id="patch_79">
    <path d="M 208.661937 307.584 
L 210.436006 307.584 
L 210.436006 307.584 
L 208.661937 307.584 
z
" clip-path="url(#p80c9bea98a)" style="fill: #1f77b4; fill-opacity: 0.75; stroke: #000000; stroke-width: 0.177407; stroke-linejoin: miter"/>
   </g>
   <g id="patch_80">
    <path d="M 210.436006 307.584 
L 212.210075 307.584 
L 212.210075 305.389832 
L 210.436006 305.389832 
z
" clip-path="url(#p80c9bea98a)" style="fill: #1f77b4; fill-opacity: 0.75; stroke: #000000; stroke-width: 0.177407; stroke-linejoin: miter"/>
   </g>
   <g id="patch_81">
    <path d="M 212.210075 307.584 
L 213.984143 307.584 
L 213.984143 307.584 
L 212.210075 307.584 
z
" clip-path="url(#p80c9bea98a)" style="fill: #1f77b4; fill-opacity: 0.75; stroke: #000000; stroke-width: 0.177407; stroke-linejoin: miter"/>
   </g>
   <g id="patch_82">
    <path d="M 213.984143 307.584 
L 215.758212 307.584 
L 215.758212 307.584 
L 213.984143 307.584 
z
" clip-path="url(#p80c9bea98a)" style="fill: #1f77b4; fill-opacity: 0.75; stroke: #000000; stroke-width: 0.177407; stroke-linejoin: miter"/>
   </g>
   <g id="patch_83">
    <path d="M 215.758212 307.584 
L 217.53228 307.584 
L 217.53228 278.572217 
L 215.758212 278.572217 
z
" clip-path="url(#p80c9bea98a)" style="fill: #1f77b4; fill-opacity: 0.75; stroke: #000000; stroke-width: 0.177407; stroke-linejoin: miter"/>
   </g>
   <g id="patch_84">
    <path d="M 217.53228 307.584 
L 219.306349 307.584 
L 219.306349 307.584 
L 217.53228 307.584 
z
" clip-path="url(#p80c9bea98a)" style="fill: #1f77b4; fill-opacity: 0.75; stroke: #000000; stroke-width: 0.177407; stroke-linejoin: miter"/>
   </g>
   <g id="patch_85">
    <path d="M 219.306349 307.584 
L 221.080417 307.584 
L 221.080417 288.08028 
L 219.306349 288.08028 
z
" clip-path="url(#p80c9bea98a)" style="fill: #1f77b4; fill-opacity: 0.75; stroke: #000000; stroke-width: 0.177407; stroke-linejoin: miter"/>
   </g>
   <g id="patch_86">
    <path d="M 221.080417 307.584 
L 222.854486 307.584 
L 222.854486 303.358194 
L 221.080417 303.358194 
z
" clip-path="url(#p80c9bea98a)" style="fill: #1f77b4; fill-opacity: 0.75; stroke: #000000; stroke-width: 0.177407; stroke-linejoin: miter"/>
   </g>
   <g id="patch_87">
    <path d="M 222.854486 307.584 
L 224.628554 307.584 
L 224.628554 307.584 
L 222.854486 307.584 
z
" clip-path="url(#p80c9bea98a)" style="fill: #1f77b4; fill-opacity: 0.75; stroke: #000000; stroke-width: 0.177407; stroke-linejoin: miter"/>
   </g>
   <g id="patch_88">
    <path d="M 224.628554 307.584 
L 226.402623 307.584 
L 226.402623 307.584 
L 224.628554 307.584 
z
" clip-path="url(#p80c9bea98a)" style="fill: #1f77b4; fill-opacity: 0.75; stroke: #000000; stroke-width: 0.177407; stroke-linejoin: miter"/>
   </g>
   <g id="patch_89">
    <path d="M 226.402623 307.584 
L 228.176692 307.584 
L 228.176692 298.536441 
L 226.402623 298.536441 
z
" clip-path="url(#p80c9bea98a)" style="fill: #1f77b4; fill-opacity: 0.75; stroke: #000000; stroke-width: 0.177407; stroke-linejoin: miter"/>
   </g>
   <g id="patch_90">
    <path d="M 228.176692 307.584 
L 229.95076 307.584 
L 229.95076 292.522794 
L 228.176692 292.522794 
z
" clip-path="url(#p80c9bea98a)" style="fill: #1f77b4; fill-opacity: 0.75; stroke: #000000; stroke-width: 0.177407; stroke-linejoin: miter"/>
   </g>
   <g id="patch_91">
    <path d="M 229.95076 307.584 
L 231.724829 307.584 
L 231.724829 307.584 
L 229.95076 307.584 
z
" clip-path="url(#p80c9bea98a)" style="fill: #1f77b4; fill-opacity: 0.75; stroke: #000000; stroke-width: 0.177407; stroke-linejoin: miter"/>
   </g>
   <g id="patch_92">
    <path d="M 231.724829 307.584 
L 233.498897 307.584 
L 233.498897 304.739708 
L 231.724829 304.739708 
z
" clip-path="url(#p80c9bea98a)" style="fill: #1f77b4; fill-opacity: 0.75; stroke: #000000; stroke-width: 0.177407; stroke-linejoin: miter"/>
   </g>
   <g id="patch_93">
    <path d="M 233.498897 307.584 
L 235.272966 307.584 
L 235.272966 307.584 
L 233.498897 307.584 
z
" clip-path="url(#p80c9bea98a)" style="fill: #1f77b4; fill-opacity: 0.75; stroke: #000000; stroke-width: 0.177407; stroke-linejoin: miter"/>
   </g>
   <g id="patch_94">
    <path d="M 235.272966 307.584 
L 237.047034 307.584 
L 237.047034 305.471097 
L 235.272966 305.471097 
z
" clip-path="url(#p80c9bea98a)" style="fill: #1f77b4; fill-opacity: 0.75; stroke: #000000; stroke-width: 0.177407; stroke-linejoin: miter"/>
   </g>
   <g id="patch_95">
    <path d="M 237.047034 307.584 
L 238.821103 307.584 
L 238.821103 307.584 
L 237.047034 307.584 
z
" clip-path="url(#p80c9bea98a)" style="fill: #1f77b4; fill-opacity: 0.75; stroke: #000000; stroke-width: 0.177407; stroke-linejoin: miter"/>
   </g>
   <g id="patch_96">
    <path d="M 238.821103 307.584 
L 240.595171 307.584 
L 240.595171 292.766591 
L 238.821103 292.766591 
z
" clip-path="url(#p80c9bea98a)" style="fill: #1f77b4; fill-opacity: 0.75; stroke: #000000; stroke-width: 0.177407; stroke-linejoin: miter"/>
   </g>
   <g id="patch_97">
    <path d="M 240.595171 307.584 
L 242.36924 307.584 
L 242.36924 306.473372 
L 240.595171 306.473372 
z
" clip-path="url(#p80c9bea98a)" style="fill: #1f77b4; fill-opacity: 0.75; stroke: #000000; stroke-width: 0.177407; stroke-linejoin: miter"/>
   </g>
   <g id="patch_98">
    <path d="M 242.36924 307.584 
L 244.143308 307.584 
L 244.143308 307.584 
L 242.36924 307.584 
z
" clip-path="url(#p80c9bea98a)" style="fill: #1f77b4; fill-opacity: 0.75; stroke: #000000; stroke-width: 0.177407; stroke-linejoin: miter"/>
   </g>
   <g id="patch_99">
    <path d="M 244.143308 307.584 
L 245.917377 307.584 
L 245.917377 306.825522 
L 244.143308 306.825522 
z
" clip-path="url(#p80c9bea98a)" style="fill: #1f77b4; fill-opacity: 0.75; stroke: #000000; stroke-width: 0.177407; stroke-linejoin: miter"/>
   </g>
   <g id="patch_100">
    <path d="M 245.917377 307.584 
L 247.691446 307.584 
L 247.691446 283.58359 
L 245.917377 283.58359 
z
" clip-path="url(#p80c9bea98a)" style="fill: #1f77b4; fill-opacity: 0.75; stroke: #000000; stroke-width: 0.177407; stroke-linejoin: miter"/>
   </g>
   <g id="patch_101">
    <path d="M 247.691446 307.584 
L 249.465514 307.584 
L 249.465514 307.584 
L 247.691446 307.584 
z
" clip-path="url(#p80c9bea98a)" style="fill: #1f77b4; fill-opacity: 0.75; stroke: #000000; stroke-width: 0.177407; stroke-linejoin: miter"/>
   </g>
   <g id="patch_102">
    <path d="M 249.465514 307.584 
L 251.239583 307.584 
L 251.239583 302.626805 
L 249.465514 302.626805 
z
" clip-path="url(#p80c9bea98a)" style="fill: #1f77b4; fill-opacity: 0.75; stroke: #000000; stroke-width: 0.177407; stroke-linejoin: miter"/>
   </g>
   <g id="patch_103">
    <path d="M 251.239583 307.584 
L 253.013651 307.584 
L 253.013651 307.584 
L 251.239583 307.584 
z
" clip-path="url(#p80c9bea98a)" style="fill: #1f77b4; fill-opacity: 0.75; stroke: #000000; stroke-width: 0.177407; stroke-linejoin: miter"/>
   </g>
   <g id="patch_104">
    <path d="M 253.013651 307.584 
L 254.78772 307.584 
L 254.78772 304.956416 
L 253.013651 304.956416 
z
" clip-path="url(#p80c9bea98a)" style="fill: #1f77b4; fill-opacity: 0.75; stroke: #000000; stroke-width: 0.177407; stroke-linejoin: miter"/>
   </g>
   <g id="patch_105">
    <path d="M 254.78772 307.584 
L 256.561788 307.584 
L 256.561788 291.547608 
L 254.78772 291.547608 
z
" clip-path="url(#p80c9bea98a)" style="fill: #1f77b4; fill-opacity: 0.75; stroke: #000000; stroke-width: 0.177407; stroke-linejoin: miter"/>
   </g>
   <g id="patch_106">
    <path d="M 256.561788 307.584 
L 258.335857 307.584 
L 258.335857 295.610883 
L 256.561788 295.610883 
z
" clip-path="url(#p80c9bea98a)" style="fill: #1f77b4; fill-opacity: 0.75; stroke: #000000; stroke-width: 0.177407; stroke-linejoin: miter"/>
   </g>
   <g id="patch_107">
    <path d="M 258.335857 307.584 
L 260.109925 307.584 
L 260.109925 307.584 
L 258.335857 307.584 
z
" clip-path="url(#p80c9bea98a)" style="fill: #1f77b4; fill-opacity: 0.75; stroke: #000000; stroke-width: 0.177407; stroke-linejoin: miter"/>
   </g>
   <g id="patch_108">
    <path d="M 260.109925 307.584 
L 261.883994 307.584 
L 261.883994 306.960965 
L 260.109925 306.960965 
z
" clip-path="url(#p80c9bea98a)" style="fill: #1f77b4; fill-opacity: 0.75; stroke: #000000; stroke-width: 0.177407; stroke-linejoin: miter"/>
   </g>
   <g id="patch_109">
    <path d="M 261.883994 307.584 
L 263.658063 307.584 
L 263.658063 303.24984 
L 261.883994 303.24984 
z
" clip-path="url(#p80c9bea98a)" style="fill: #1f77b4; fill-opacity: 0.75; stroke: #000000; stroke-width: 0.177407; stroke-linejoin: miter"/>
   </g>
   <g id="patch_110">
    <path d="M 263.658063 307.584 
L 265.432131 307.584 
L 265.432131 301.353645 
L 263.658063 301.353645 
z
" clip-path="url(#p80c9bea98a)" style="fill: #1f77b4; fill-opacity: 0.75; stroke: #000000; stroke-width: 0.177407; stroke-linejoin: miter"/>
   </g>
   <g id="patch_111">
    <path d="M 265.432131 307.584 
L 267.2062 307.584 
L 267.2062 307.584 
L 265.432131 307.584 
z
" clip-path="url(#p80c9bea98a)" style="fill: #1f77b4; fill-opacity: 0.75; stroke: #000000; stroke-width: 0.177407; stroke-linejoin: miter"/>
   </g>
   <g id="patch_112">
    <path d="M 267.2062 307.584 
L 268.980268 307.584 
L 268.980268 306.012867 
L 267.2062 306.012867 
z
" clip-path="url(#p80c9bea98a)" style="fill: #1f77b4; fill-opacity: 0.75; stroke: #000000; stroke-width: 0.177407; stroke-linejoin: miter"/>
   </g>
   <g id="patch_113">
    <path d="M 268.980268 307.584 
L 270.754337 307.584 
L 270.754337 304.197938 
L 268.980268 304.197938 
z
" clip-path="url(#p80c9bea98a)" style="fill: #1f77b4; fill-opacity: 0.75; stroke: #000000; stroke-width: 0.177407; stroke-linejoin: miter"/>
   </g>
   <g id="patch_114">
    <path d="M 270.754337 307.584 
L 272.528405 307.584 
L 272.528405 307.475646 
L 270.754337 307.475646 
z
" clip-path="url(#p80c9bea98a)" style="fill: #1f77b4; fill-opacity: 0.75; stroke: #000000; stroke-width: 0.177407; stroke-linejoin: miter"/>
   </g>
   <g id="patch_115">
    <path d="M 272.528405 307.584 
L 274.302474 307.584 
L 274.302474 307.584 
L 272.528405 307.584 
z
" clip-path="url(#p80c9bea98a)" style="fill: #1f77b4; fill-opacity: 0.75; stroke: #000000; stroke-width: 0.177407; stroke-linejoin: miter"/>
   </g>
   <g id="patch_116">
    <path d="M 274.302474 307.584 
L 276.076542 307.584 
L 276.076542 306.879699 
L 274.302474 306.879699 
z
" clip-path="url(#p80c9bea98a)" style="fill: #1f77b4; fill-opacity: 0.75; stroke: #000000; stroke-width: 0.177407; stroke-linejoin: miter"/>
   </g>
   <g id="patch_117">
    <path d="M 276.076542 307.584 
L 277.850611 307.584 
L 277.850611 306.202487 
L 276.076542 306.202487 
z
" clip-path="url(#p80c9bea98a)" style="fill: #1f77b4; fill-opacity: 0.75; stroke: #000000; stroke-width: 0.177407; stroke-linejoin: miter"/>
   </g>
   <g id="patch_118">
    <path d="M 277.850611 307.584 
L 279.62468 307.584 
L 279.62468 306.988053 
L 277.850611 306.988053 
z
" clip-path="url(#p80c9bea98a)" style="fill: #1f77b4; fill-opacity: 0.75; stroke: #000000; stroke-width: 0.177407; stroke-linejoin: miter"/>
   </g>
   <g id="patch_119">
    <path d="M 279.62468 307.584 
L 281.398748 307.584 
L 281.398748 307.177673 
L 279.62468 307.177673 
z
" clip-path="url(#p80c9bea98a)" style="fill: #1f77b4; fill-opacity: 0.75; stroke: #000000; stroke-width: 0.177407; stroke-linejoin: miter"/>
   </g>
   <g id="patch_120">
    <path d="M 281.398748 307.584 
L 283.172817 307.584 
L 283.172817 307.096407 
L 281.398748 307.096407 
z
" clip-path="url(#p80c9bea98a)" style="fill: #1f77b4; fill-opacity: 0.75; stroke: #000000; stroke-width: 0.177407; stroke-linejoin: miter"/>
   </g>
   <g id="patch_121">
    <path d="M 283.172817 307.584 
L 284.946885 307.584 
L 284.946885 307.23185 
L 283.172817 307.23185 
z
" clip-path="url(#p80c9bea98a)" style="fill: #1f77b4; fill-opacity: 0.75; stroke: #000000; stroke-width: 0.177407; stroke-linejoin: miter"/>
   </g>
   <g id="patch_122">
    <path d="M 284.946885 307.584 
L 286.720954 307.584 
L 286.720954 307.529823 
L 284.946885 307.529823 
z
" clip-path="url(#p80c9bea98a)" style="fill: #1f77b4; fill-opacity: 0.75; stroke: #000000; stroke-width: 0.177407; stroke-linejoin: miter"/>
   </g>
   <g id="patch_123">
    <path d="M 286.720954 307.584 
L 288.495022 307.584 
L 288.495022 306.988053 
L 286.720954 306.988053 
z
" clip-path="url(#p80c9bea98a)" style="fill: #1f77b4; fill-opacity: 0.75; stroke: #000000; stroke-width: 0.177407; stroke-linejoin: miter"/>
   </g>
   <g id="patch_124">
    <path d="M 288.495022 307.584 
L 290.269091 307.584 
L 290.269091 307.367292 
L 288.495022 307.367292 
z
" clip-path="url(#p80c9bea98a)" style="fill: #1f77b4; fill-opacity: 0.75; stroke: #000000; stroke-width: 0.177407; stroke-linejoin: miter"/>
   </g>
   <g id="patch_125">
    <path d="M 290.269091 307.584 
L 292.043159 307.584 
L 292.043159 307.584 
L 290.269091 307.584 
z
" clip-path="url(#p80c9bea98a)" style="fill: #1f77b4; fill-opacity: 0.75; stroke: #000000; stroke-width: 0.177407; stroke-linejoin: miter"/>
   </g>
   <g id="patch_126">
    <path d="M 292.043159 307.584 
L 293.817228 307.584 
L 293.817228 307.04223 
L 292.043159 307.04223 
z
" clip-path="url(#p80c9bea98a)" style="fill: #1f77b4; fill-opacity: 0.75; stroke: #000000; stroke-width: 0.177407; stroke-linejoin: miter"/>
   </g>
   <g id="patch_127">
    <path d="M 293.817228 307.584 
L 295.591297 307.584 
L 295.591297 307.475646 
L 293.817228 307.475646 
z
" clip-path="url(#p80c9bea98a)" style="fill: #1f77b4; fill-opacity: 0.75; stroke: #000000; stroke-width: 0.177407; stroke-linejoin: miter"/>
   </g>
   <g id="patch_128">
    <path d="M 295.591297 307.584 
L 297.365365 307.584 
L 297.365365 307.584 
L 295.591297 307.584 
z
" clip-path="url(#p80c9bea98a)" style="fill: #1f77b4; fill-opacity: 0.75; stroke: #000000; stroke-width: 0.177407; stroke-linejoin: miter"/>
   </g>
   <g id="patch_129">
    <path d="M 297.365365 307.584 
L 299.139434 307.584 
L 299.139434 307.096407 
L 297.365365 307.096407 
z
" clip-path="url(#p80c9bea98a)" style="fill: #1f77b4; fill-opacity: 0.75; stroke: #000000; stroke-width: 0.177407; stroke-linejoin: miter"/>
   </g>
   <g id="patch_130">
    <path d="M 299.139434 307.584 
L 300.913502 307.584 
L 300.913502 307.529823 
L 299.139434 307.529823 
z
" clip-path="url(#p80c9bea98a)" style="fill: #1f77b4; fill-opacity: 0.75; stroke: #000000; stroke-width: 0.177407; stroke-linejoin: miter"/>
   </g>
   <g id="patch_131">
    <path d="M 300.913502 307.584 
L 302.687571 307.584 
L 302.687571 307.475646 
L 300.913502 307.475646 
z
" clip-path="url(#p80c9bea98a)" style="fill: #1f77b4; fill-opacity: 0.75; stroke: #000000; stroke-width: 0.177407; stroke-linejoin: miter"/>
   </g>
   <g id="patch_132">
    <path d="M 302.687571 307.584 
L 304.461639 307.584 
L 304.461639 307.23185 
L 302.687571 307.23185 
z
" clip-path="url(#p80c9bea98a)" style="fill: #1f77b4; fill-opacity: 0.75; stroke: #000000; stroke-width: 0.177407; stroke-linejoin: miter"/>
   </g>
   <g id="patch_133">
    <path d="M 304.461639 307.584 
L 306.235708 307.584 
L 306.235708 307.584 
L 304.461639 307.584 
z
" clip-path="url(#p80c9bea98a)" style="fill: #1f77b4; fill-opacity: 0.75; stroke: #000000; stroke-width: 0.177407; stroke-linejoin: miter"/>
   </g>
   <g id="patch_134">
    <path d="M 306.235708 307.584 
L 308.009776 307.584 
L 308.009776 307.258938 
L 306.235708 307.258938 
z
" clip-path="url(#p80c9bea98a)" style="fill: #1f77b4; fill-opacity: 0.75; stroke: #000000; stroke-width: 0.177407; stroke-linejoin: miter"/>
   </g>
   <g id="patch_135">
    <path d="M 308.009776 307.584 
L 309.783845 307.584 
L 309.783845 307.584 
L 308.009776 307.584 
z
" clip-path="url(#p80c9bea98a)" style="fill: #1f77b4; fill-opacity: 0.75; stroke: #000000; stroke-width: 0.177407; stroke-linejoin: miter"/>
   </g>
   <g id="patch_136">
    <path d="M 309.783845 307.584 
L 311.557914 307.584 
L 311.557914 307.313115 
L 309.783845 307.313115 
z
" clip-path="url(#p80c9bea98a)" style="fill: #1f77b4; fill-opacity: 0.75; stroke: #000000; stroke-width: 0.177407; stroke-linejoin: miter"/>
   </g>
   <g id="patch_137">
    <path d="M 311.557914 307.584 
L 313.331982 307.584 
L 313.331982 307.502735 
L 311.557914 307.502735 
z
" clip-path="url(#p80c9bea98a)" style="fill: #1f77b4; fill-opacity: 0.75; stroke: #000000; stroke-width: 0.177407; stroke-linejoin: miter"/>
   </g>
   <g id="patch_138">
    <path d="M 313.331982 307.584 
L 315.106051 307.584 
L 315.106051 307.584 
L 313.331982 307.584 
z
" clip-path="url(#p80c9bea98a)" style="fill: #1f77b4; fill-opacity: 0.75; stroke: #000000; stroke-width: 0.177407; stroke-linejoin: miter"/>
   </g>
   <g id="patch_139">
    <path d="M 315.106051 307.584 
L 316.880119 307.584 
L 316.880119 307.448558 
L 315.106051 307.448558 
z
" clip-path="url(#p80c9bea98a)" style="fill: #1f77b4; fill-opacity: 0.75; stroke: #000000; stroke-width: 0.177407; stroke-linejoin: miter"/>
   </g>
   <g id="patch_140">
    <path d="M 316.880119 307.584 
L 318.654188 307.584 
L 318.654188 307.584 
L 316.880119 307.584 
z
" clip-path="url(#p80c9bea98a)" style="fill: #1f77b4; fill-opacity: 0.75; stroke: #000000; stroke-width: 0.177407; stroke-linejoin: miter"/>
   </g>
   <g id="patch_141">
    <path d="M 318.654188 307.584 
L 320.428256 307.584 
L 320.428256 307.421469 
L 318.654188 307.421469 
z
" clip-path="url(#p80c9bea98a)" style="fill: #1f77b4; fill-opacity: 0.75; stroke: #000000; stroke-width: 0.177407; stroke-linejoin: miter"/>
   </g>
   <g id="patch_142">
    <path d="M 320.428256 307.584 
L 322.202325 307.584 
L 322.202325 307.584 
L 320.428256 307.584 
z
" clip-path="url(#p80c9bea98a)" style="fill: #1f77b4; fill-opacity: 0.75; stroke: #000000; stroke-width: 0.177407; stroke-linejoin: miter"/>
   </g>
   <g id="patch_143">
    <path d="M 322.202325 307.584 
L 323.976393 307.584 
L 323.976393 307.367292 
L 322.202325 307.367292 
z
" clip-path="url(#p80c9bea98a)" style="fill: #1f77b4; fill-opacity: 0.75; stroke: #000000; stroke-width: 0.177407; stroke-linejoin: miter"/>
   </g>
   <g id="patch_144">
    <path d="M 323.976393 307.584 
L 325.750462 307.584 
L 325.750462 307.584 
L 323.976393 307.584 
z
" clip-path="url(#p80c9bea98a)" style="fill: #1f77b4; fill-opacity: 0.75; stroke: #000000; stroke-width: 0.177407; stroke-linejoin: miter"/>
   </g>
   <g id="patch_145">
    <path d="M 325.750462 307.584 
L 327.524531 307.584 
L 327.524531 307.502735 
L 325.750462 307.502735 
z
" clip-path="url(#p80c9bea98a)" style="fill: #1f77b4; fill-opacity: 0.75; stroke: #000000; stroke-width: 0.177407; stroke-linejoin: miter"/>
   </g>
   <g id="patch_146">
    <path d="M 327.524531 307.584 
L 329.298599 307.584 
L 329.298599 307.475646 
L 327.524531 307.475646 
z
" clip-path="url(#p80c9bea98a)" style="fill: #1f77b4; fill-opacity: 0.75; stroke: #000000; stroke-width: 0.177407; stroke-linejoin: miter"/>
   </g>
   <g id="patch_147">
    <path d="M 329.298599 307.584 
L 331.072668 307.584 
L 331.072668 307.529823 
L 329.298599 307.529823 
z
" clip-path="url(#p80c9bea98a)" style="fill: #1f77b4; fill-opacity: 0.75; stroke: #000000; stroke-width: 0.177407; stroke-linejoin: miter"/>
   </g>
   <g id="patch_148">
    <path d="M 331.072668 307.584 
L 332.846736 307.584 
L 332.846736 307.529823 
L 331.072668 307.529823 
z
" clip-path="url(#p80c9bea98a)" style="fill: #1f77b4; fill-opacity: 0.75; stroke: #000000; stroke-width: 0.177407; stroke-linejoin: miter"/>
   </g>
   <g id="patch_149">
    <path d="M 332.846736 307.584 
L 334.620805 307.584 
L 334.620805 307.475646 
L 332.846736 307.475646 
z
" clip-path="url(#p80c9bea98a)" style="fill: #1f77b4; fill-opacity: 0.75; stroke: #000000; stroke-width: 0.177407; stroke-linejoin: miter"/>
   </g>
   <g id="patch_150">
    <path d="M 334.620805 307.584 
L 336.394873 307.584 
L 336.394873 307.584 
L 334.620805 307.584 
z
" clip-path="url(#p80c9bea98a)" style="fill: #1f77b4; fill-opacity: 0.75; stroke: #000000; stroke-width: 0.177407; stroke-linejoin: miter"/>
   </g>
   <g id="patch_151">
    <path d="M 336.394873 307.584 
L 338.168942 307.584 
L 338.168942 307.502735 
L 336.394873 307.502735 
z
" clip-path="url(#p80c9bea98a)" style="fill: #1f77b4; fill-opacity: 0.75; stroke: #000000; stroke-width: 0.177407; stroke-linejoin: miter"/>
   </g>
   <g id="patch_152">
    <path d="M 338.168942 307.584 
L 339.94301 307.584 
L 339.94301 307.584 
L 338.168942 307.584 
z
" clip-path="url(#p80c9bea98a)" style="fill: #1f77b4; fill-opacity: 0.75; stroke: #000000; stroke-width: 0.177407; stroke-linejoin: miter"/>
   </g>
   <g id="patch_153">
    <path d="M 339.94301 307.584 
L 341.717079 307.584 
L 341.717079 307.529823 
L 339.94301 307.529823 
z
" clip-path="url(#p80c9bea98a)" style="fill: #1f77b4; fill-opacity: 0.75; stroke: #000000; stroke-width: 0.177407; stroke-linejoin: miter"/>
   </g>
   <g id="patch_154">
    <path d="M 341.717079 307.584 
L 343.491148 307.584 
L 343.491148 307.556912 
L 341.717079 307.556912 
z
" clip-path="url(#p80c9bea98a)" style="fill: #1f77b4; fill-opacity: 0.75; stroke: #000000; stroke-width: 0.177407; stroke-linejoin: miter"/>
   </g>
   <g id="patch_155">
    <path d="M 343.491148 307.584 
L 345.265216 307.584 
L 345.265216 307.556912 
L 343.491148 307.556912 
z
" clip-path="url(#p80c9bea98a)" style="fill: #1f77b4; fill-opacity: 0.75; stroke: #000000; stroke-width: 0.177407; stroke-linejoin: miter"/>
   </g>
   <g id="patch_156">
    <path d="M 345.265216 307.584 
L 347.039285 307.584 
L 347.039285 307.584 
L 345.265216 307.584 
z
" clip-path="url(#p80c9bea98a)" style="fill: #1f77b4; fill-opacity: 0.75; stroke: #000000; stroke-width: 0.177407; stroke-linejoin: miter"/>
   </g>
   <g id="patch_157">
    <path d="M 347.039285 307.584 
L 348.813353 307.584 
L 348.813353 307.584 
L 347.039285 307.584 
z
" clip-path="url(#p80c9bea98a)" style="fill: #1f77b4; fill-opacity: 0.75; stroke: #000000; stroke-width: 0.177407; stroke-linejoin: miter"/>
   </g>
   <g id="patch_158">
    <path d="M 348.813353 307.584 
L 350.587422 307.584 
L 350.587422 307.556912 
L 348.813353 307.556912 
z
" clip-path="url(#p80c9bea98a)" style="fill: #1f77b4; fill-opacity: 0.75; stroke: #000000; stroke-width: 0.177407; stroke-linejoin: miter"/>
   </g>
   <g id="patch_159">
    <path d="M 350.587422 307.584 
L 352.36149 307.584 
L 352.36149 307.556912 
L 350.587422 307.556912 
z
" clip-path="url(#p80c9bea98a)" style="fill: #1f77b4; fill-opacity: 0.75; stroke: #000000; stroke-width: 0.177407; stroke-linejoin: miter"/>
   </g>
   <g id="patch_160">
    <path d="M 352.36149 307.584 
L 354.135559 307.584 
L 354.135559 307.584 
L 352.36149 307.584 
z
" clip-path="url(#p80c9bea98a)" style="fill: #1f77b4; fill-opacity: 0.75; stroke: #000000; stroke-width: 0.177407; stroke-linejoin: miter"/>
   </g>
   <g id="patch_161">
    <path d="M 354.135559 307.584 
L 355.909627 307.584 
L 355.909627 307.529823 
L 354.135559 307.529823 
z
" clip-path="url(#p80c9bea98a)" style="fill: #1f77b4; fill-opacity: 0.75; stroke: #000000; stroke-width: 0.177407; stroke-linejoin: miter"/>
   </g>
   <g id="patch_162">
    <path d="M 355.909627 307.584 
L 357.683696 307.584 
L 357.683696 307.584 
L 355.909627 307.584 
z
" clip-path="url(#p80c9bea98a)" style="fill: #1f77b4; fill-opacity: 0.75; stroke: #000000; stroke-width: 0.177407; stroke-linejoin: miter"/>
   </g>
   <g id="patch_163">
    <path d="M 357.683696 307.584 
L 359.457765 307.584 
L 359.457765 307.556912 
L 357.683696 307.556912 
z
" clip-path="url(#p80c9bea98a)" style="fill: #1f77b4; fill-opacity: 0.75; stroke: #000000; stroke-width: 0.177407; stroke-linejoin: miter"/>
   </g>
   <g id="patch_164">
    <path d="M 359.457765 307.584 
L 361.231833 307.584 
L 361.231833 307.584 
L 359.457765 307.584 
z
" clip-path="url(#p80c9bea98a)" style="fill: #1f77b4; fill-opacity: 0.75; stroke: #000000; stroke-width: 0.177407; stroke-linejoin: miter"/>
   </g>
   <g id="patch_165">
    <path d="M 361.231833 307.584 
L 363.005902 307.584 
L 363.005902 307.556912 
L 361.231833 307.556912 
z
" clip-path="url(#p80c9bea98a)" style="fill: #1f77b4; fill-opacity: 0.75; stroke: #000000; stroke-width: 0.177407; stroke-linejoin: miter"/>
   </g>
   <g id="patch_166">
    <path d="M 363.005902 307.584 
L 364.77997 307.584 
L 364.77997 307.584 
L 363.005902 307.584 
z
" clip-path="url(#p80c9bea98a)" style="fill: #1f77b4; fill-opacity: 0.75; stroke: #000000; stroke-width: 0.177407; stroke-linejoin: miter"/>
   </g>
   <g id="patch_167">
    <path d="M 364.77997 307.584 
L 366.554039 307.584 
L 366.554039 307.502735 
L 364.77997 307.502735 
z
" clip-path="url(#p80c9bea98a)" style="fill: #1f77b4; fill-opacity: 0.75; stroke: #000000; stroke-width: 0.177407; stroke-linejoin: miter"/>
   </g>
   <g id="patch_168">
    <path d="M 366.554039 307.584 
L 368.328107 307.584 
L 368.328107 307.529823 
L 366.554039 307.529823 
z
" clip-path="url(#p80c9bea98a)" style="fill: #1f77b4; fill-opacity: 0.75; stroke: #000000; stroke-width: 0.177407; stroke-linejoin: miter"/>
   </g>
   <g id="patch_169">
    <path d="M 368.328107 307.584 
L 370.102176 307.584 
L 370.102176 307.556912 
L 368.328107 307.556912 
z
" clip-path="url(#p80c9bea98a)" style="fill: #1f77b4; fill-opacity: 0.75; stroke: #000000; stroke-width: 0.177407; stroke-linejoin: miter"/>
   </g>
   <g id="patch_170">
    <path d="M 370.102176 307.584 
L 371.876244 307.584 
L 371.876244 307.584 
L 370.102176 307.584 
z
" clip-path="url(#p80c9bea98a)" style="fill: #1f77b4; fill-opacity: 0.75; stroke: #000000; stroke-width: 0.177407; stroke-linejoin: miter"/>
   </g>
   <g id="patch_171">
    <path d="M 371.876244 307.584 
L 373.650313 307.584 
L 373.650313 307.584 
L 371.876244 307.584 
z
" clip-path="url(#p80c9bea98a)" style="fill: #1f77b4; fill-opacity: 0.75; stroke: #000000; stroke-width: 0.177407; stroke-linejoin: miter"/>
   </g>
   <g id="patch_172">
    <path d="M 373.650313 307.584 
L 375.424382 307.584 
L 375.424382 307.584 
L 373.650313 307.584 
z
" clip-path="url(#p80c9bea98a)" style="fill: #1f77b4; fill-opacity: 0.75; stroke: #000000; stroke-width: 0.177407; stroke-linejoin: miter"/>
   </g>
   <g id="patch_173">
    <path d="M 375.424382 307.584 
L 377.19845 307.584 
L 377.19845 307.556912 
L 375.424382 307.556912 
z
" clip-path="url(#p80c9bea98a)" style="fill: #1f77b4; fill-opacity: 0.75; stroke: #000000; stroke-width: 0.177407; stroke-linejoin: miter"/>
   </g>
   <g id="patch_174">
    <path d="M 377.19845 307.584 
L 378.972519 307.584 
L 378.972519 307.584 
L 377.19845 307.584 
z
" clip-path="url(#p80c9bea98a)" style="fill: #1f77b4; fill-opacity: 0.75; stroke: #000000; stroke-width: 0.177407; stroke-linejoin: miter"/>
   </g>
   <g id="patch_175">
    <path d="M 378.972519 307.584 
L 380.746587 307.584 
L 380.746587 307.556912 
L 378.972519 307.556912 
z
" clip-path="url(#p80c9bea98a)" style="fill: #1f77b4; fill-opacity: 0.75; stroke: #000000; stroke-width: 0.177407; stroke-linejoin: miter"/>
   </g>
   <g id="patch_176">
    <path d="M 380.746587 307.584 
L 382.520656 307.584 
L 382.520656 307.556912 
L 380.746587 307.556912 
z
" clip-path="url(#p80c9bea98a)" style="fill: #1f77b4; fill-opacity: 0.75; stroke: #000000; stroke-width: 0.177407; stroke-linejoin: miter"/>
   </g>
   <g id="patch_177">
    <path d="M 382.520656 307.584 
L 384.294724 307.584 
L 384.294724 307.556912 
L 382.520656 307.556912 
z
" clip-path="url(#p80c9bea98a)" style="fill: #1f77b4; fill-opacity: 0.75; stroke: #000000; stroke-width: 0.177407; stroke-linejoin: miter"/>
   </g>
   <g id="patch_178">
    <path d="M 384.294724 307.584 
L 386.068793 307.584 
L 386.068793 307.556912 
L 384.294724 307.556912 
z
" clip-path="url(#p80c9bea98a)" style="fill: #1f77b4; fill-opacity: 0.75; stroke: #000000; stroke-width: 0.177407; stroke-linejoin: miter"/>
   </g>
   <g id="patch_179">
    <path d="M 386.068793 307.584 
L 387.842861 307.584 
L 387.842861 307.584 
L 386.068793 307.584 
z
" clip-path="url(#p80c9bea98a)" style="fill: #1f77b4; fill-opacity: 0.75; stroke: #000000; stroke-width: 0.177407; stroke-linejoin: miter"/>
   </g>
   <g id="patch_180">
    <path d="M 387.842861 307.584 
L 389.61693 307.584 
L 389.61693 307.584 
L 387.842861 307.584 
z
" clip-path="url(#p80c9bea98a)" style="fill: #1f77b4; fill-opacity: 0.75; stroke: #000000; stroke-width: 0.177407; stroke-linejoin: miter"/>
   </g>
   <g id="patch_181">
    <path d="M 389.61693 307.584 
L 391.390999 307.584 
L 391.390999 307.584 
L 389.61693 307.584 
z
" clip-path="url(#p80c9bea98a)" style="fill: #1f77b4; fill-opacity: 0.75; stroke: #000000; stroke-width: 0.177407; stroke-linejoin: miter"/>
   </g>
   <g id="patch_182">
    <path d="M 391.390999 307.584 
L 393.165067 307.584 
L 393.165067 307.584 
L 391.390999 307.584 
z
" clip-path="url(#p80c9bea98a)" style="fill: #1f77b4; fill-opacity: 0.75; stroke: #000000; stroke-width: 0.177407; stroke-linejoin: miter"/>
   </g>
   <g id="patch_183">
    <path d="M 393.165067 307.584 
L 394.939136 307.584 
L 394.939136 307.584 
L 393.165067 307.584 
z
" clip-path="url(#p80c9bea98a)" style="fill: #1f77b4; fill-opacity: 0.75; stroke: #000000; stroke-width: 0.177407; stroke-linejoin: miter"/>
   </g>
   <g id="patch_184">
    <path d="M 394.939136 307.584 
L 396.713204 307.584 
L 396.713204 307.584 
L 394.939136 307.584 
z
" clip-path="url(#p80c9bea98a)" style="fill: #1f77b4; fill-opacity: 0.75; stroke: #000000; stroke-width: 0.177407; stroke-linejoin: miter"/>
   </g>
   <g id="patch_185">
    <path d="M 396.713204 307.584 
L 398.487273 307.584 
L 398.487273 307.556912 
L 396.713204 307.556912 
z
" clip-path="url(#p80c9bea98a)" style="fill: #1f77b4; fill-opacity: 0.75; stroke: #000000; stroke-width: 0.177407; stroke-linejoin: miter"/>
   </g>
   <g id="matplotlib.axis_1">
    <g id="xtick_1">
     <g id="line2d_1">
      <defs>
       <path id="mb99694e203" d="M 0 0 
L 0 3.5 
" style="stroke: #000000; stroke-width: 0.8"/>
      </defs>
      <g>
       <use xlink:href="#mb99694e203" x="239.06161" y="307.584" style="stroke: #000000; stroke-width: 0.8"/>
      </g>
     </g>
     <g id="text_1">
      <!-- $\mathdefault{10^{-5}}$ -->
      <g transform="translate(227.31161 322.182437) scale(0.1 -0.1)">
       <defs>
        <path id="DejaVuSans-31" d="M 794 531 
L 1825 531 
L 1825 4091 
L 703 3866 
L 703 4441 
L 1819 4666 
L 2450 4666 
L 2450 531 
L 3481 531 
L 3481 0 
L 794 0 
L 794 531 
z
" transform="scale(0.015625)"/>
        <path id="DejaVuSans-30" d="M 2034 4250 
Q 1547 4250 1301 3770 
Q 1056 3291 1056 2328 
Q 1056 1369 1301 889 
Q 1547 409 2034 409 
Q 2525 409 2770 889 
Q 3016 1369 3016 2328 
Q 3016 3291 2770 3770 
Q 2525 4250 2034 4250 
z
M 2034 4750 
Q 2819 4750 3233 4129 
Q 3647 3509 3647 2328 
Q 3647 1150 3233 529 
Q 2819 -91 2034 -91 
Q 1250 -91 836 529 
Q 422 1150 422 2328 
Q 422 3509 836 4129 
Q 1250 4750 2034 4750 
z
" transform="scale(0.015625)"/>
        <path id="DejaVuSans-2212" d="M 678 2272 
L 4684 2272 
L 4684 1741 
L 678 1741 
L 678 2272 
z
" transform="scale(0.015625)"/>
        <path id="DejaVuSans-35" d="M 691 4666 
L 3169 4666 
L 3169 4134 
L 1269 4134 
L 1269 2991 
Q 1406 3038 1543 3061 
Q 1681 3084 1819 3084 
Q 2600 3084 3056 2656 
Q 3513 2228 3513 1497 
Q 3513 744 3044 326 
Q 2575 -91 1722 -91 
Q 1428 -91 1123 -41 
Q 819 9 494 109 
L 494 744 
Q 775 591 1075 516 
Q 1375 441 1709 441 
Q 2250 441 2565 725 
Q 2881 1009 2881 1497 
Q 2881 1984 2565 2268 
Q 2250 2553 1709 2553 
Q 1456 2553 1204 2497 
Q 953 2441 691 2322 
L 691 4666 
z
" transform="scale(0.015625)"/>
       </defs>
       <use xlink:href="#DejaVuSans-31" transform="translate(0 0.684375)"/>
       <use xlink:href="#DejaVuSans-30" transform="translate(63.623047 0.684375)"/>
       <use xlink:href="#DejaVuSans-2212" transform="translate(128.203125 38.965625) scale(0.7)"/>
       <use xlink:href="#DejaVuSans-35" transform="translate(186.855469 38.965625) scale(0.7)"/>
      </g>
     </g>
    </g>
    <g id="xtick_2">
     <g id="line2d_2">
      <defs>
       <path id="mcc5bc637db" d="M 0 0 
L 0 2 
" style="stroke: #000000; stroke-width: 0.6"/>
      </defs>
      <g>
       <use xlink:href="#mcc5bc637db" x="90.533193" y="307.584" style="stroke: #000000; stroke-width: 0.6"/>
      </g>
     </g>
    </g>
    <g id="xtick_3">
     <g id="line2d_3">
      <g>
       <use xlink:href="#mcc5bc637db" x="127.951903" y="307.584" style="stroke: #000000; stroke-width: 0.6"/>
      </g>
     </g>
    </g>
    <g id="xtick_4">
     <g id="line2d_4">
      <g>
       <use xlink:href="#mcc5bc637db" x="154.5009" y="307.584" style="stroke: #000000; stroke-width: 0.6"/>
      </g>
     </g>
    </g>
    <g id="xtick_5">
     <g id="line2d_5">
      <g>
       <use xlink:href="#mcc5bc637db" x="175.093902" y="307.584" style="stroke: #000000; stroke-width: 0.6"/>
      </g>
     </g>
    </g>
    <g id="xtick_6">
     <g id="line2d_6">
      <g>
       <use xlink:href="#mcc5bc637db" x="191.91961" y="307.584" style="stroke: #000000; stroke-width: 0.6"/>
      </g>
     </g>
    </g>
    <g id="xtick_7">
     <g id="line2d_7">
      <g>
       <use xlink:href="#mcc5bc637db" x="206.145544" y="307.584" style="stroke: #000000; stroke-width: 0.6"/>
      </g>
     </g>
    </g>
    <g id="xtick_8">
     <g id="line2d_8">
      <g>
       <use xlink:href="#mcc5bc637db" x="218.468608" y="307.584" style="stroke: #000000; stroke-width: 0.6"/>
      </g>
     </g>
    </g>
    <g id="xtick_9">
     <g id="line2d_9">
      <g>
       <use xlink:href="#mcc5bc637db" x="229.33832" y="307.584" style="stroke: #000000; stroke-width: 0.6"/>
      </g>
     </g>
    </g>
    <g id="xtick_10">
     <g id="line2d_10">
      <g>
       <use xlink:href="#mcc5bc637db" x="303.029317" y="307.584" style="stroke: #000000; stroke-width: 0.6"/>
      </g>
     </g>
    </g>
    <g id="xtick_11">
     <g id="line2d_11">
      <g>
       <use xlink:href="#mcc5bc637db" x="340.448027" y="307.584" style="stroke: #000000; stroke-width: 0.6"/>
      </g>
     </g>
    </g>
    <g id="xtick_12">
     <g id="line2d_12">
      <g>
       <use xlink:href="#mcc5bc637db" x="366.997024" y="307.584" style="stroke: #000000; stroke-width: 0.6"/>
      </g>
     </g>
    </g>
    <g id="xtick_13">
     <g id="line2d_13">
      <g>
       <use xlink:href="#mcc5bc637db" x="387.590027" y="307.584" style="stroke: #000000; stroke-width: 0.6"/>
      </g>
     </g>
    </g>
    <g id="xtick_14">
     <g id="line2d_14">
      <g>
       <use xlink:href="#mcc5bc637db" x="404.415734" y="307.584" style="stroke: #000000; stroke-width: 0.6"/>
      </g>
     </g>
    </g>
    <g id="text_2">
     <!-- Time (seconds) -->
     <g transform="translate(197.998281 335.860562) scale(0.1 -0.1)">
      <defs>
       <path id="DejaVuSans-54" d="M -19 4666 
L 3928 4666 
L 3928 4134 
L 2272 4134 
L 2272 0 
L 1638 0 
L 1638 4134 
L -19 4134 
L -19 4666 
z
" transform="scale(0.015625)"/>
       <path id="DejaVuSans-69" d="M 603 3500 
L 1178 3500 
L 1178 0 
L 603 0 
L 603 3500 
z
M 603 4863 
L 1178 4863 
L 1178 4134 
L 603 4134 
L 603 4863 
z
" transform="scale(0.015625)"/>
       <path id="DejaVuSans-6d" d="M 3328 2828 
Q 3544 3216 3844 3400 
Q 4144 3584 4550 3584 
Q 5097 3584 5394 3201 
Q 5691 2819 5691 2113 
L 5691 0 
L 5113 0 
L 5113 2094 
Q 5113 2597 4934 2840 
Q 4756 3084 4391 3084 
Q 3944 3084 3684 2787 
Q 3425 2491 3425 1978 
L 3425 0 
L 2847 0 
L 2847 2094 
Q 2847 2600 2669 2842 
Q 2491 3084 2119 3084 
Q 1678 3084 1418 2786 
Q 1159 2488 1159 1978 
L 1159 0 
L 581 0 
L 581 3500 
L 1159 3500 
L 1159 2956 
Q 1356 3278 1631 3431 
Q 1906 3584 2284 3584 
Q 2666 3584 2933 3390 
Q 3200 3197 3328 2828 
z
" transform="scale(0.015625)"/>
       <path id="DejaVuSans-65" d="M 3597 1894 
L 3597 1613 
L 953 1613 
Q 991 1019 1311 708 
Q 1631 397 2203 397 
Q 2534 397 2845 478 
Q 3156 559 3463 722 
L 3463 178 
Q 3153 47 2828 -22 
Q 2503 -91 2169 -91 
Q 1331 -91 842 396 
Q 353 884 353 1716 
Q 353 2575 817 3079 
Q 1281 3584 2069 3584 
Q 2775 3584 3186 3129 
Q 3597 2675 3597 1894 
z
M 3022 2063 
Q 3016 2534 2758 2815 
Q 2500 3097 2075 3097 
Q 1594 3097 1305 2825 
Q 1016 2553 972 2059 
L 3022 2063 
z
" transform="scale(0.015625)"/>
       <path id="DejaVuSans-20" transform="scale(0.015625)"/>
       <path id="DejaVuSans-28" d="M 1984 4856 
Q 1566 4138 1362 3434 
Q 1159 2731 1159 2009 
Q 1159 1288 1364 580 
Q 1569 -128 1984 -844 
L 1484 -844 
Q 1016 -109 783 600 
Q 550 1309 550 2009 
Q 550 2706 781 3412 
Q 1013 4119 1484 4856 
L 1984 4856 
z
" transform="scale(0.015625)"/>
       <path id="DejaVuSans-73" d="M 2834 3397 
L 2834 2853 
Q 2591 2978 2328 3040 
Q 2066 3103 1784 3103 
Q 1356 3103 1142 2972 
Q 928 2841 928 2578 
Q 928 2378 1081 2264 
Q 1234 2150 1697 2047 
L 1894 2003 
Q 2506 1872 2764 1633 
Q 3022 1394 3022 966 
Q 3022 478 2636 193 
Q 2250 -91 1575 -91 
Q 1294 -91 989 -36 
Q 684 19 347 128 
L 347 722 
Q 666 556 975 473 
Q 1284 391 1588 391 
Q 1994 391 2212 530 
Q 2431 669 2431 922 
Q 2431 1156 2273 1281 
Q 2116 1406 1581 1522 
L 1381 1569 
Q 847 1681 609 1914 
Q 372 2147 372 2553 
Q 372 3047 722 3315 
Q 1072 3584 1716 3584 
Q 2034 3584 2315 3537 
Q 2597 3491 2834 3397 
z
" transform="scale(0.015625)"/>
       <path id="DejaVuSans-63" d="M 3122 3366 
L 3122 2828 
Q 2878 2963 2633 3030 
Q 2388 3097 2138 3097 
Q 1578 3097 1268 2742 
Q 959 2388 959 1747 
Q 959 1106 1268 751 
Q 1578 397 2138 397 
Q 2388 397 2633 464 
Q 2878 531 3122 666 
L 3122 134 
Q 2881 22 2623 -34 
Q 2366 -91 2075 -91 
Q 1284 -91 818 406 
Q 353 903 353 1747 
Q 353 2603 823 3093 
Q 1294 3584 2113 3584 
Q 2378 3584 2631 3529 
Q 2884 3475 3122 3366 
z
" transform="scale(0.015625)"/>
       <path id="DejaVuSans-6f" d="M 1959 3097 
Q 1497 3097 1228 2736 
Q 959 2375 959 1747 
Q 959 1119 1226 758 
Q 1494 397 1959 397 
Q 2419 397 2687 759 
Q 2956 1122 2956 1747 
Q 2956 2369 2687 2733 
Q 2419 3097 1959 3097 
z
M 1959 3584 
Q 2709 3584 3137 3096 
Q 3566 2609 3566 1747 
Q 3566 888 3137 398 
Q 2709 -91 1959 -91 
Q 1206 -91 779 398 
Q 353 888 353 1747 
Q 353 2609 779 3096 
Q 1206 3584 1959 3584 
z
" transform="scale(0.015625)"/>
       <path id="DejaVuSans-6e" d="M 3513 2113 
L 3513 0 
L 2938 0 
L 2938 2094 
Q 2938 2591 2744 2837 
Q 2550 3084 2163 3084 
Q 1697 3084 1428 2787 
Q 1159 2491 1159 1978 
L 1159 0 
L 581 0 
L 581 3500 
L 1159 3500 
L 1159 2956 
Q 1366 3272 1645 3428 
Q 1925 3584 2291 3584 
Q 2894 3584 3203 3211 
Q 3513 2838 3513 2113 
z
" transform="scale(0.015625)"/>
       <path id="DejaVuSans-64" d="M 2906 2969 
L 2906 4863 
L 3481 4863 
L 3481 0 
L 2906 0 
L 2906 525 
Q 2725 213 2448 61 
Q 2172 -91 1784 -91 
Q 1150 -91 751 415 
Q 353 922 353 1747 
Q 353 2572 751 3078 
Q 1150 3584 1784 3584 
Q 2172 3584 2448 3432 
Q 2725 3281 2906 2969 
z
M 947 1747 
Q 947 1113 1208 752 
Q 1469 391 1925 391 
Q 2381 391 2643 752 
Q 2906 1113 2906 1747 
Q 2906 2381 2643 2742 
Q 2381 3103 1925 3103 
Q 1469 3103 1208 2742 
Q 947 2381 947 1747 
z
" transform="scale(0.015625)"/>
       <path id="DejaVuSans-29" d="M 513 4856 
L 1013 4856 
Q 1481 4119 1714 3412 
Q 1947 2706 1947 2009 
Q 1947 1309 1714 600 
Q 1481 -109 1013 -844 
L 513 -844 
Q 928 -128 1133 580 
Q 1338 1288 1338 2009 
Q 1338 2731 1133 3434 
Q 928 4138 513 4856 
z
" transform="scale(0.015625)"/>
      </defs>
      <use xlink:href="#DejaVuSans-54"/>
      <use xlink:href="#DejaVuSans-69" x="57.958984"/>
      <use xlink:href="#DejaVuSans-6d" x="85.742188"/>
      <use xlink:href="#DejaVuSans-65" x="183.154297"/>
      <use xlink:href="#DejaVuSans-20" x="244.677734"/>
      <use xlink:href="#DejaVuSans-28" x="276.464844"/>
      <use xlink:href="#DejaVuSans-73" x="315.478516"/>
      <use xlink:href="#DejaVuSans-65" x="367.578125"/>
      <use xlink:href="#DejaVuSans-63" x="429.101562"/>
      <use xlink:href="#DejaVuSans-6f" x="484.082031"/>
      <use xlink:href="#DejaVuSans-6e" x="545.263672"/>
      <use xlink:href="#DejaVuSans-64" x="608.642578"/>
      <use xlink:href="#DejaVuSans-73" x="672.119141"/>
      <use xlink:href="#DejaVuSans-29" x="724.21875"/>
     </g>
    </g>
   </g>
   <g id="matplotlib.axis_2">
    <g id="ytick_1">
     <g id="line2d_15">
      <defs>
       <path id="m3be8dfbea4" d="M 0 0 
L -3.5 0 
" style="stroke: #000000; stroke-width: 0.8"/>
      </defs>
      <g>
       <use xlink:href="#m3be8dfbea4" x="57.6" y="307.584" style="stroke: #000000; stroke-width: 0.8"/>
      </g>
     </g>
     <g id="text_3">
      <!-- 0 -->
      <g transform="translate(44.2375 311.383219) scale(0.1 -0.1)">
       <use xlink:href="#DejaVuSans-30"/>
      </g>
     </g>
    </g>
    <g id="ytick_2">
     <g id="line2d_16">
      <g>
       <use xlink:href="#m3be8dfbea4" x="57.6" y="253.407001" style="stroke: #000000; stroke-width: 0.8"/>
      </g>
     </g>
     <g id="text_4">
      <!-- 2000 -->
      <g transform="translate(25.15 257.20622) scale(0.1 -0.1)">
       <defs>
        <path id="DejaVuSans-32" d="M 1228 531 
L 3431 531 
L 3431 0 
L 469 0 
L 469 531 
Q 828 903 1448 1529 
Q 2069 2156 2228 2338 
Q 2531 2678 2651 2914 
Q 2772 3150 2772 3378 
Q 2772 3750 2511 3984 
Q 2250 4219 1831 4219 
Q 1534 4219 1204 4116 
Q 875 4013 500 3803 
L 500 4441 
Q 881 4594 1212 4672 
Q 1544 4750 1819 4750 
Q 2544 4750 2975 4387 
Q 3406 4025 3406 3419 
Q 3406 3131 3298 2873 
Q 3191 2616 2906 2266 
Q 2828 2175 2409 1742 
Q 1991 1309 1228 531 
z
" transform="scale(0.015625)"/>
       </defs>
       <use xlink:href="#DejaVuSans-32"/>
       <use xlink:href="#DejaVuSans-30" x="63.623047"/>
       <use xlink:href="#DejaVuSans-30" x="127.246094"/>
       <use xlink:href="#DejaVuSans-30" x="190.869141"/>
      </g>
     </g>
    </g>
    <g id="ytick_3">
     <g id="line2d_17">
      <g>
       <use xlink:href="#m3be8dfbea4" x="57.6" y="199.230003" style="stroke: #000000; stroke-width: 0.8"/>
      </g>
     </g>
     <g id="text_5">
      <!-- 4000 -->
      <g transform="translate(25.15 203.029221) scale(0.1 -0.1)">
       <defs>
        <path id="DejaVuSans-34" d="M 2419 4116 
L 825 1625 
L 2419 1625 
L 2419 4116 
z
M 2253 4666 
L 3047 4666 
L 3047 1625 
L 3713 1625 
L 3713 1100 
L 3047 1100 
L 3047 0 
L 2419 0 
L 2419 1100 
L 313 1100 
L 313 1709 
L 2253 4666 
z
" transform="scale(0.015625)"/>
       </defs>
       <use xlink:href="#DejaVuSans-34"/>
       <use xlink:href="#DejaVuSans-30" x="63.623047"/>
       <use xlink:href="#DejaVuSans-30" x="127.246094"/>
       <use xlink:href="#DejaVuSans-30" x="190.869141"/>
      </g>
     </g>
    </g>
    <g id="ytick_4">
     <g id="line2d_18">
      <g>
       <use xlink:href="#m3be8dfbea4" x="57.6" y="145.053004" style="stroke: #000000; stroke-width: 0.8"/>
      </g>
     </g>
     <g id="text_6">
      <!-- 6000 -->
      <g transform="translate(25.15 148.852223) scale(0.1 -0.1)">
       <defs>
        <path id="DejaVuSans-36" d="M 2113 2584 
Q 1688 2584 1439 2293 
Q 1191 2003 1191 1497 
Q 1191 994 1439 701 
Q 1688 409 2113 409 
Q 2538 409 2786 701 
Q 3034 994 3034 1497 
Q 3034 2003 2786 2293 
Q 2538 2584 2113 2584 
z
M 3366 4563 
L 3366 3988 
Q 3128 4100 2886 4159 
Q 2644 4219 2406 4219 
Q 1781 4219 1451 3797 
Q 1122 3375 1075 2522 
Q 1259 2794 1537 2939 
Q 1816 3084 2150 3084 
Q 2853 3084 3261 2657 
Q 3669 2231 3669 1497 
Q 3669 778 3244 343 
Q 2819 -91 2113 -91 
Q 1303 -91 875 529 
Q 447 1150 447 2328 
Q 447 3434 972 4092 
Q 1497 4750 2381 4750 
Q 2619 4750 2861 4703 
Q 3103 4656 3366 4563 
z
" transform="scale(0.015625)"/>
       </defs>
       <use xlink:href="#DejaVuSans-36"/>
       <use xlink:href="#DejaVuSans-30" x="63.623047"/>
       <use xlink:href="#DejaVuSans-30" x="127.246094"/>
       <use xlink:href="#DejaVuSans-30" x="190.869141"/>
      </g>
     </g>
    </g>
    <g id="ytick_5">
     <g id="line2d_19">
      <g>
       <use xlink:href="#m3be8dfbea4" x="57.6" y="90.876005" style="stroke: #000000; stroke-width: 0.8"/>
      </g>
     </g>
     <g id="text_7">
      <!-- 8000 -->
      <g transform="translate(25.15 94.675224) scale(0.1 -0.1)">
       <defs>
        <path id="DejaVuSans-38" d="M 2034 2216 
Q 1584 2216 1326 1975 
Q 1069 1734 1069 1313 
Q 1069 891 1326 650 
Q 1584 409 2034 409 
Q 2484 409 2743 651 
Q 3003 894 3003 1313 
Q 3003 1734 2745 1975 
Q 2488 2216 2034 2216 
z
M 1403 2484 
Q 997 2584 770 2862 
Q 544 3141 544 3541 
Q 544 4100 942 4425 
Q 1341 4750 2034 4750 
Q 2731 4750 3128 4425 
Q 3525 4100 3525 3541 
Q 3525 3141 3298 2862 
Q 3072 2584 2669 2484 
Q 3125 2378 3379 2068 
Q 3634 1759 3634 1313 
Q 3634 634 3220 271 
Q 2806 -91 2034 -91 
Q 1263 -91 848 271 
Q 434 634 434 1313 
Q 434 1759 690 2068 
Q 947 2378 1403 2484 
z
M 1172 3481 
Q 1172 3119 1398 2916 
Q 1625 2713 2034 2713 
Q 2441 2713 2670 2916 
Q 2900 3119 2900 3481 
Q 2900 3844 2670 4047 
Q 2441 4250 2034 4250 
Q 1625 4250 1398 4047 
Q 1172 3844 1172 3481 
z
" transform="scale(0.015625)"/>
       </defs>
       <use xlink:href="#DejaVuSans-38"/>
       <use xlink:href="#DejaVuSans-30" x="63.623047"/>
       <use xlink:href="#DejaVuSans-30" x="127.246094"/>
       <use xlink:href="#DejaVuSans-30" x="190.869141"/>
      </g>
     </g>
    </g>
    <g id="text_8">
     <!-- Count -->
     <g transform="translate(19.070312 189.376437) rotate(-90) scale(0.1 -0.1)">
      <defs>
       <path id="DejaVuSans-43" d="M 4122 4306 
L 4122 3641 
Q 3803 3938 3442 4084 
Q 3081 4231 2675 4231 
Q 1875 4231 1450 3742 
Q 1025 3253 1025 2328 
Q 1025 1406 1450 917 
Q 1875 428 2675 428 
Q 3081 428 3442 575 
Q 3803 722 4122 1019 
L 4122 359 
Q 3791 134 3420 21 
Q 3050 -91 2638 -91 
Q 1578 -91 968 557 
Q 359 1206 359 2328 
Q 359 3453 968 4101 
Q 1578 4750 2638 4750 
Q 3056 4750 3426 4639 
Q 3797 4528 4122 4306 
z
" transform="scale(0.015625)"/>
       <path id="DejaVuSans-75" d="M 544 1381 
L 544 3500 
L 1119 3500 
L 1119 1403 
Q 1119 906 1312 657 
Q 1506 409 1894 409 
Q 2359 409 2629 706 
Q 2900 1003 2900 1516 
L 2900 3500 
L 3475 3500 
L 3475 0 
L 2900 0 
L 2900 538 
Q 2691 219 2414 64 
Q 2138 -91 1772 -91 
Q 1169 -91 856 284 
Q 544 659 544 1381 
z
M 1991 3584 
L 1991 3584 
z
" transform="scale(0.015625)"/>
       <path id="DejaVuSans-74" d="M 1172 4494 
L 1172 3500 
L 2356 3500 
L 2356 3053 
L 1172 3053 
L 1172 1153 
Q 1172 725 1289 603 
Q 1406 481 1766 481 
L 2356 481 
L 2356 0 
L 1766 0 
Q 1100 0 847 248 
Q 594 497 594 1153 
L 594 3053 
L 172 3053 
L 172 3500 
L 594 3500 
L 594 4494 
L 1172 4494 
z
" transform="scale(0.015625)"/>
      </defs>
      <use xlink:href="#DejaVuSans-43"/>
      <use xlink:href="#DejaVuSans-6f" x="69.824219"/>
      <use xlink:href="#DejaVuSans-75" x="131.005859"/>
      <use xlink:href="#DejaVuSans-6e" x="194.384766"/>
      <use xlink:href="#DejaVuSans-74" x="257.763672"/>
     </g>
    </g>
   </g>
   <g id="patch_186">
    <path d="M 57.6 307.584 
L 57.6 41.472 
" style="fill: none; stroke: #000000; stroke-width: 0.8; stroke-linejoin: miter; stroke-linecap: square"/>
   </g>
   <g id="patch_187">
    <path d="M 414.72 307.584 
L 414.72 41.472 
" style="fill: none; stroke: #000000; stroke-width: 0.8; stroke-linejoin: miter; stroke-linecap: square"/>
   </g>
   <g id="patch_188">
    <path d="M 57.6 307.584 
L 414.72 307.584 
" style="fill: none; stroke: #000000; stroke-width: 0.8; stroke-linejoin: miter; stroke-linecap: square"/>
   </g>
   <g id="patch_189">
    <path d="M 57.6 41.472 
L 414.72 41.472 
" style="fill: none; stroke: #000000; stroke-width: 0.8; stroke-linejoin: miter; stroke-linecap: square"/>
   </g>
   <g id="text_9">
    <!-- Bioregistry URI Parsing Benchmark -->
    <g transform="translate(131.589375 22.034625) scale(0.12 -0.12)">
     <defs>
      <path id="DejaVuSans-42" d="M 1259 2228 
L 1259 519 
L 2272 519 
Q 2781 519 3026 730 
Q 3272 941 3272 1375 
Q 3272 1813 3026 2020 
Q 2781 2228 2272 2228 
L 1259 2228 
z
M 1259 4147 
L 1259 2741 
L 2194 2741 
Q 2656 2741 2882 2914 
Q 3109 3088 3109 3444 
Q 3109 3797 2882 3972 
Q 2656 4147 2194 4147 
L 1259 4147 
z
M 628 4666 
L 2241 4666 
Q 2963 4666 3353 4366 
Q 3744 4066 3744 3513 
Q 3744 3084 3544 2831 
Q 3344 2578 2956 2516 
Q 3422 2416 3680 2098 
Q 3938 1781 3938 1306 
Q 3938 681 3513 340 
Q 3088 0 2303 0 
L 628 0 
L 628 4666 
z
" transform="scale(0.015625)"/>
      <path id="DejaVuSans-72" d="M 2631 2963 
Q 2534 3019 2420 3045 
Q 2306 3072 2169 3072 
Q 1681 3072 1420 2755 
Q 1159 2438 1159 1844 
L 1159 0 
L 581 0 
L 581 3500 
L 1159 3500 
L 1159 2956 
Q 1341 3275 1631 3429 
Q 1922 3584 2338 3584 
Q 2397 3584 2469 3576 
Q 2541 3569 2628 3553 
L 2631 2963 
z
" transform="scale(0.015625)"/>
      <path id="DejaVuSans-67" d="M 2906 1791 
Q 2906 2416 2648 2759 
Q 2391 3103 1925 3103 
Q 1463 3103 1205 2759 
Q 947 2416 947 1791 
Q 947 1169 1205 825 
Q 1463 481 1925 481 
Q 2391 481 2648 825 
Q 2906 1169 2906 1791 
z
M 3481 434 
Q 3481 -459 3084 -895 
Q 2688 -1331 1869 -1331 
Q 1566 -1331 1297 -1286 
Q 1028 -1241 775 -1147 
L 775 -588 
Q 1028 -725 1275 -790 
Q 1522 -856 1778 -856 
Q 2344 -856 2625 -561 
Q 2906 -266 2906 331 
L 2906 616 
Q 2728 306 2450 153 
Q 2172 0 1784 0 
Q 1141 0 747 490 
Q 353 981 353 1791 
Q 353 2603 747 3093 
Q 1141 3584 1784 3584 
Q 2172 3584 2450 3431 
Q 2728 3278 2906 2969 
L 2906 3500 
L 3481 3500 
L 3481 434 
z
" transform="scale(0.015625)"/>
      <path id="DejaVuSans-79" d="M 2059 -325 
Q 1816 -950 1584 -1140 
Q 1353 -1331 966 -1331 
L 506 -1331 
L 506 -850 
L 844 -850 
Q 1081 -850 1212 -737 
Q 1344 -625 1503 -206 
L 1606 56 
L 191 3500 
L 800 3500 
L 1894 763 
L 2988 3500 
L 3597 3500 
L 2059 -325 
z
" transform="scale(0.015625)"/>
      <path id="DejaVuSans-55" d="M 556 4666 
L 1191 4666 
L 1191 1831 
Q 1191 1081 1462 751 
Q 1734 422 2344 422 
Q 2950 422 3222 751 
Q 3494 1081 3494 1831 
L 3494 4666 
L 4128 4666 
L 4128 1753 
Q 4128 841 3676 375 
Q 3225 -91 2344 -91 
Q 1459 -91 1007 375 
Q 556 841 556 1753 
L 556 4666 
z
" transform="scale(0.015625)"/>
      <path id="DejaVuSans-52" d="M 2841 2188 
Q 3044 2119 3236 1894 
Q 3428 1669 3622 1275 
L 4263 0 
L 3584 0 
L 2988 1197 
Q 2756 1666 2539 1819 
Q 2322 1972 1947 1972 
L 1259 1972 
L 1259 0 
L 628 0 
L 628 4666 
L 2053 4666 
Q 2853 4666 3247 4331 
Q 3641 3997 3641 3322 
Q 3641 2881 3436 2590 
Q 3231 2300 2841 2188 
z
M 1259 4147 
L 1259 2491 
L 2053 2491 
Q 2509 2491 2742 2702 
Q 2975 2913 2975 3322 
Q 2975 3731 2742 3939 
Q 2509 4147 2053 4147 
L 1259 4147 
z
" transform="scale(0.015625)"/>
      <path id="DejaVuSans-49" d="M 628 4666 
L 1259 4666 
L 1259 0 
L 628 0 
L 628 4666 
z
" transform="scale(0.015625)"/>
      <path id="DejaVuSans-50" d="M 1259 4147 
L 1259 2394 
L 2053 2394 
Q 2494 2394 2734 2622 
Q 2975 2850 2975 3272 
Q 2975 3691 2734 3919 
Q 2494 4147 2053 4147 
L 1259 4147 
z
M 628 4666 
L 2053 4666 
Q 2838 4666 3239 4311 
Q 3641 3956 3641 3272 
Q 3641 2581 3239 2228 
Q 2838 1875 2053 1875 
L 1259 1875 
L 1259 0 
L 628 0 
L 628 4666 
z
" transform="scale(0.015625)"/>
      <path id="DejaVuSans-61" d="M 2194 1759 
Q 1497 1759 1228 1600 
Q 959 1441 959 1056 
Q 959 750 1161 570 
Q 1363 391 1709 391 
Q 2188 391 2477 730 
Q 2766 1069 2766 1631 
L 2766 1759 
L 2194 1759 
z
M 3341 1997 
L 3341 0 
L 2766 0 
L 2766 531 
Q 2569 213 2275 61 
Q 1981 -91 1556 -91 
Q 1019 -91 701 211 
Q 384 513 384 1019 
Q 384 1609 779 1909 
Q 1175 2209 1959 2209 
L 2766 2209 
L 2766 2266 
Q 2766 2663 2505 2880 
Q 2244 3097 1772 3097 
Q 1472 3097 1187 3025 
Q 903 2953 641 2809 
L 641 3341 
Q 956 3463 1253 3523 
Q 1550 3584 1831 3584 
Q 2591 3584 2966 3190 
Q 3341 2797 3341 1997 
z
" transform="scale(0.015625)"/>
      <path id="DejaVuSans-68" d="M 3513 2113 
L 3513 0 
L 2938 0 
L 2938 2094 
Q 2938 2591 2744 2837 
Q 2550 3084 2163 3084 
Q 1697 3084 1428 2787 
Q 1159 2491 1159 1978 
L 1159 0 
L 581 0 
L 581 4863 
L 1159 4863 
L 1159 2956 
Q 1366 3272 1645 3428 
Q 1925 3584 2291 3584 
Q 2894 3584 3203 3211 
Q 3513 2838 3513 2113 
z
" transform="scale(0.015625)"/>
      <path id="DejaVuSans-6b" d="M 581 4863 
L 1159 4863 
L 1159 1991 
L 2875 3500 
L 3609 3500 
L 1753 1863 
L 3688 0 
L 2938 0 
L 1159 1709 
L 1159 0 
L 581 0 
L 581 4863 
z
" transform="scale(0.015625)"/>
     </defs>
     <use xlink:href="#DejaVuSans-42"/>
     <use xlink:href="#DejaVuSans-69" x="68.603516"/>
     <use xlink:href="#DejaVuSans-6f" x="96.386719"/>
     <use xlink:href="#DejaVuSans-72" x="157.568359"/>
     <use xlink:href="#DejaVuSans-65" x="196.431641"/>
     <use xlink:href="#DejaVuSans-67" x="257.955078"/>
     <use xlink:href="#DejaVuSans-69" x="321.431641"/>
     <use xlink:href="#DejaVuSans-73" x="349.214844"/>
     <use xlink:href="#DejaVuSans-74" x="401.314453"/>
     <use xlink:href="#DejaVuSans-72" x="440.523438"/>
     <use xlink:href="#DejaVuSans-79" x="481.636719"/>
     <use xlink:href="#DejaVuSans-20" x="540.816406"/>
     <use xlink:href="#DejaVuSans-55" x="572.603516"/>
     <use xlink:href="#DejaVuSans-52" x="645.796875"/>
     <use xlink:href="#DejaVuSans-49" x="715.279297"/>
     <use xlink:href="#DejaVuSans-20" x="744.771484"/>
     <use xlink:href="#DejaVuSans-50" x="776.558594"/>
     <use xlink:href="#DejaVuSans-61" x="832.361328"/>
     <use xlink:href="#DejaVuSans-72" x="893.640625"/>
     <use xlink:href="#DejaVuSans-73" x="934.753906"/>
     <use xlink:href="#DejaVuSans-69" x="986.853516"/>
     <use xlink:href="#DejaVuSans-6e" x="1014.636719"/>
     <use xlink:href="#DejaVuSans-67" x="1078.015625"/>
     <use xlink:href="#DejaVuSans-20" x="1141.492188"/>
     <use xlink:href="#DejaVuSans-42" x="1173.279297"/>
     <use xlink:href="#DejaVuSans-65" x="1241.882812"/>
     <use xlink:href="#DejaVuSans-6e" x="1303.40625"/>
     <use xlink:href="#DejaVuSans-63" x="1366.785156"/>
     <use xlink:href="#DejaVuSans-68" x="1421.765625"/>
     <use xlink:href="#DejaVuSans-6d" x="1485.144531"/>
     <use xlink:href="#DejaVuSans-61" x="1582.556641"/>
     <use xlink:href="#DejaVuSans-72" x="1643.835938"/>
     <use xlink:href="#DejaVuSans-6b" x="1684.949219"/>
    </g>
    <!-- Average: 175,550 URI/s -->
    <g transform="translate(165.396563 35.472) scale(0.12 -0.12)">
     <defs>
      <path id="DejaVuSans-41" d="M 2188 4044 
L 1331 1722 
L 3047 1722 
L 2188 4044 
z
M 1831 4666 
L 2547 4666 
L 4325 0 
L 3669 0 
L 3244 1197 
L 1141 1197 
L 716 0 
L 50 0 
L 1831 4666 
z
" transform="scale(0.015625)"/>
      <path id="DejaVuSans-76" d="M 191 3500 
L 800 3500 
L 1894 563 
L 2988 3500 
L 3597 3500 
L 2284 0 
L 1503 0 
L 191 3500 
z
" transform="scale(0.015625)"/>
      <path id="DejaVuSans-3a" d="M 750 794 
L 1409 794 
L 1409 0 
L 750 0 
L 750 794 
z
M 750 3309 
L 1409 3309 
L 1409 2516 
L 750 2516 
L 750 3309 
z
" transform="scale(0.015625)"/>
      <path id="DejaVuSans-37" d="M 525 4666 
L 3525 4666 
L 3525 4397 
L 1831 0 
L 1172 0 
L 2766 4134 
L 525 4134 
L 525 4666 
z
" transform="scale(0.015625)"/>
      <path id="DejaVuSans-2c" d="M 750 794 
L 1409 794 
L 1409 256 
L 897 -744 
L 494 -744 
L 750 256 
L 750 794 
z
" transform="scale(0.015625)"/>
      <path id="DejaVuSans-2f" d="M 1625 4666 
L 2156 4666 
L 531 -594 
L 0 -594 
L 1625 4666 
z
" transform="scale(0.015625)"/>
     </defs>
     <use xlink:href="#DejaVuSans-41"/>
     <use xlink:href="#DejaVuSans-76" x="62.533203"/>
     <use xlink:href="#DejaVuSans-65" x="121.712891"/>
     <use xlink:href="#DejaVuSans-72" x="183.236328"/>
     <use xlink:href="#DejaVuSans-61" x="224.349609"/>
     <use xlink:href="#DejaVuSans-67" x="285.628906"/>
     <use xlink:href="#DejaVuSans-65" x="349.105469"/>
     <use xlink:href="#DejaVuSans-3a" x="410.628906"/>
     <use xlink:href="#DejaVuSans-20" x="444.320312"/>
     <use xlink:href="#DejaVuSans-31" x="476.107422"/>
     <use xlink:href="#DejaVuSans-37" x="539.730469"/>
     <use xlink:href="#DejaVuSans-35" x="603.353516"/>
     <use xlink:href="#DejaVuSans-2c" x="666.976562"/>
     <use xlink:href="#DejaVuSans-35" x="698.763672"/>
     <use xlink:href="#DejaVuSans-35" x="762.386719"/>
     <use xlink:href="#DejaVuSans-30" x="826.009766"/>
     <use xlink:href="#DejaVuSans-20" x="889.632812"/>
     <use xlink:href="#DejaVuSans-55" x="921.419922"/>
     <use xlink:href="#DejaVuSans-52" x="994.613281"/>
     <use xlink:href="#DejaVuSans-49" x="1064.095703"/>
     <use xlink:href="#DejaVuSans-2f" x="1093.587891"/>
     <use xlink:href="#DejaVuSans-73" x="1127.279297"/>
    </g>
   </g>
  </g>
 </g>
 <defs>
  <clipPath id="p80c9bea98a">
   <rect x="57.6" y="41.472" width="357.12" height="266.112"/>
  </clipPath>
 </defs>
</svg>
