<?xml version="1.0" encoding="UTF-8"?>
<!-- Generator: Adobe Illustrator 16.0.0, SVG Export Plug-In . SVG Version: 6.00 Build 0)  -->
<!DOCTYPE svg PUBLIC "-//W3C//DTD SVG 1.1//EN" "http://www.w3.org/Graphics/SVG/1.1/DTD/svg11.dtd">
<svg version="1.1" id="Layer_1" xmlns="http://www.w3.org/2000/svg" xmlns:xlink="http://www.w3.org/1999/xlink" x="0px" y="0px" width="470.228470952" height="212.662580378" viewBox="0 0 725.02 327.893" enable-background="new 0 0 725.02 327.893" xml:space="preserve">
<g id="XMLID_11_">
	<path id="XMLID_66_" fill="#F04E3E" d="M369.279,122.44c-4.646,0-8.664-1.693-11.739-4.771c-4.396-4.394-4.333-9.354-4.333-17.956   c0-8.599-0.062-13.561,4.333-17.954c3.075-3.077,7.093-4.773,11.739-4.773c7.584,0,13.404,4.111,15.497,11.738   c0.275,1.007-0.482,2.012-1.527,2.012h-3.785c-0.676,0-1.241-0.458-1.45-1.1c-1.275-3.921-4.187-6.558-8.733-6.558   c-2.638,0-5.021,1.003-6.593,2.699c-2.196,2.385-2.698,4.958-2.698,13.937s0.502,11.553,2.698,13.938   c1.571,1.696,3.956,2.699,6.593,2.699c4.548,0,7.511-2.636,8.796-6.558c0.21-0.643,0.774-1.101,1.451-1.101h3.731   c1.043,0,1.802,1.001,1.529,2.009C382.721,118.33,376.747,122.44,369.279,122.44z"/>
	<path id="XMLID_64_" fill="#F04E3E" d="M416.679,120.488V102.54h-18.144v17.947c0,0.871-0.706,1.577-1.576,1.577h-3.628   c-0.87,0-1.576-0.706-1.576-1.577V78.94c0-0.871,0.706-1.575,1.576-1.575h3.628c0.87,0,1.576,0.705,1.576,1.575v17.509h18.144   V78.94c0-0.871,0.706-1.575,1.576-1.575h3.628c0.87,0,1.576,0.705,1.576,1.575v41.549c0,0.87-0.706,1.576-1.576,1.576h-3.628   C417.385,122.065,416.679,121.359,416.679,120.488z"/>
	<path id="XMLID_61_" fill="#F04E3E" d="M459.191,121l-2.713-7.914h-17.641l-2.71,7.913c-0.218,0.638-0.817,1.065-1.491,1.065H430.8   c-1.096,0-1.856-1.09-1.479-2.119l15.229-41.548c0.229-0.621,0.818-1.033,1.479-1.033h3.26c0.661,0,1.253,0.412,1.479,1.033   L466,119.946c0.378,1.029-0.384,2.119-1.479,2.119h-3.839C460.009,122.065,459.41,121.637,459.191,121z M447.818,87.472   l-6.972,19.84h13.75L447.818,87.472z"/>
	<path id="XMLID_59_" fill="#F04E3E" d="M498.832,121.354l-20.188-30.742v29.878c0,0.87-0.705,1.576-1.575,1.576h-3.628   c-0.87,0-1.576-0.706-1.576-1.576V78.94c0-0.871,0.706-1.575,1.576-1.575h3.789c0.529,0,1.024,0.267,1.315,0.709l20.188,30.681   V78.94c0-0.871,0.706-1.575,1.575-1.575h3.629c0.869,0,1.575,0.705,1.575,1.575v41.549c0,0.87-0.706,1.576-1.575,1.576h-3.788   C499.618,122.065,499.123,121.797,498.832,121.354z"/>
	<path id="XMLID_57_" fill="#F04E3E" d="M353.27,184.911v-3.809c0-0.298,0.084-0.589,0.243-0.841l20.413-32.387h-18.199   c-0.869,0-1.575-0.706-1.575-1.576v-2.938c0-0.87,0.706-1.575,1.575-1.575h24.597c0.871,0,1.576,0.706,1.576,1.575v3.494   c0,0.296-0.083,0.587-0.241,0.838l-20.539,32.702h19.204c0.871,0,1.576,0.706,1.576,1.576v2.938c0,0.87-0.705,1.575-1.576,1.575   h-25.477C353.975,186.487,353.27,185.781,353.27,184.911z"/>
	<path id="XMLID_55_" fill="#F04E3E" d="M403.678,186.862c-9.104,0-16.01-6.215-16.01-15.442v-28.056   c0-0.871,0.706-1.576,1.576-1.576h3.628c0.87,0,1.576,0.706,1.576,1.576v27.742c0,5.965,3.641,9.668,9.229,9.668   c5.587,0,9.289-3.703,9.289-9.668v-27.742c0-0.871,0.706-1.576,1.577-1.576h3.629c0.871,0,1.576,0.706,1.576,1.576v28.056   C419.75,180.647,412.78,186.862,403.678,186.862z"/>
	<path id="XMLID_53_" fill="#F04E3E" d="M441.528,186.862c-4.646,0-8.664-1.692-11.739-4.771c-4.396-4.394-4.333-9.354-4.333-17.956   c0-8.599-0.062-13.56,4.333-17.954c3.075-3.077,7.093-4.772,11.739-4.772c7.584,0,13.403,4.11,15.496,11.737   c0.275,1.007-0.482,2.013-1.526,2.013h-3.786c-0.676,0-1.241-0.458-1.45-1.101c-1.275-3.921-4.187-6.558-8.732-6.558   c-2.639,0-5.021,1.003-6.594,2.7c-2.195,2.384-2.698,4.958-2.698,13.936c0,8.979,0.503,11.554,2.698,13.938   c1.571,1.695,3.955,2.699,6.594,2.699c4.547,0,7.51-2.637,8.795-6.559c0.211-0.642,0.774-1.101,1.451-1.101h5.699   C455.968,182.029,449.626,186.862,441.528,186.862z"/>
	<path id="XMLID_51_" fill="#F04E3E" d="M490.42,185.691l-12.104-21.24l-7.533,9.04v11.421c0,0.87-0.705,1.575-1.576,1.575h-3.627   c-0.871,0-1.576-0.705-1.576-1.575v-41.549c0-0.87,0.705-1.575,1.576-1.575h3.627c0.871,0,1.576,0.706,1.576,1.575v20.9   l17.796-21.895c0.3-0.368,0.749-0.582,1.224-0.582h4.186c1.334,0,2.063,1.554,1.214,2.582l-12.363,14.934l14.609,24.809   c0.619,1.052-0.14,2.376-1.358,2.376h-4.299C491.224,186.487,490.701,186.183,490.42,185.691z"/>
	<path id="XMLID_48_" fill="#F04E3E" d="M504.059,184.911v-41.549c0-0.87,0.705-1.575,1.576-1.575h25.411   c0.871,0,1.576,0.706,1.576,1.575v2.938c0,0.871-0.705,1.576-1.576,1.576h-20.208v13.06h17.008c0.871,0,1.576,0.706,1.576,1.576   v2.875c0,0.871-0.705,1.576-1.576,1.576h-17.008v13.435h20.208c0.871,0,1.576,0.706,1.576,1.576v2.938   c0,0.87-0.705,1.576-1.576,1.576h-25.411C504.764,186.487,504.059,185.781,504.059,184.911z"/>
	<path id="XMLID_44_" fill="#F04E3E" d="M563.761,185.616l-8.982-17.964h-8.475v17.259c0,0.87-0.706,1.575-1.577,1.575H541.1   c-0.871,0-1.575-0.705-1.575-1.575v-41.549c0-0.87,0.704-1.575,1.575-1.575h15.752c8.475,0,13.873,5.461,13.873,13.057   c0,6.405-3.894,10.485-8.915,11.866l9.097,17.473c0.547,1.05-0.215,2.305-1.397,2.305h-4.337   C564.574,186.487,564.029,186.149,563.761,185.616z M556.349,147.875h-10.045v14h10.045c4.521,0,7.597-2.574,7.597-6.968   C563.945,150.513,560.87,147.875,556.349,147.875z"/>
	<path id="XMLID_10_" fill="#F04E3E" d="M596.215,186.487h-16.504c-0.871,0-1.576-0.705-1.576-1.575v-41.549   c0-0.87,0.705-1.575,1.576-1.575h15.813c8.286,0,13.497,4.708,13.497,12.241c0,4.833-3.015,8.288-6.026,9.479   c3.453,1.381,6.718,4.708,6.718,10.36C609.713,182.091,604.126,186.487,596.215,186.487z M594.959,147.875h-10.045v12.807h10.045   c4.331,0,7.283-2.259,7.283-6.401C602.243,150.135,599.291,147.875,594.959,147.875z M595.587,166.772h-10.673v13.625h10.673   c4.709,0,7.346-2.89,7.346-6.845C602.933,169.599,600.296,166.772,595.587,166.772z"/>
	<path id="XMLID_38_" fill="#F04E3E" d="M615.991,184.911v-41.549c0-0.87,0.706-1.575,1.576-1.575h25.411   c0.87,0,1.576,0.706,1.576,1.575v2.938c0,0.871-0.706,1.576-1.576,1.576h-20.207v13.06h17.007c0.871,0,1.575,0.706,1.575,1.576   v2.875c0,0.871-0.704,1.576-1.575,1.576h-17.007v13.435h20.207c0.87,0,1.576,0.706,1.576,1.576v2.938   c0,0.87-0.706,1.576-1.576,1.576h-25.411C616.697,186.487,615.991,185.781,615.991,184.911z"/>
	<path id="XMLID_35_" fill="#F04E3E" d="M675.573,185.616l-8.981-17.964h-8.477v17.259c0,0.87-0.706,1.575-1.576,1.575h-3.628   c-0.87,0-1.576-0.705-1.576-1.575v-41.549c0-0.87,0.706-1.575,1.576-1.575h15.752c8.474,0,13.873,5.461,13.873,13.057   c0,6.405-3.892,10.485-8.914,11.866l9.096,17.473c0.546,1.05-0.215,2.305-1.397,2.305h-4.337   C676.385,186.487,675.839,186.149,675.573,185.616z M668.16,147.875h-10.045v14h10.045c4.521,0,7.596-2.574,7.596-6.968   C675.755,150.513,672.68,147.875,668.16,147.875z"/>
	<path id="XMLID_33_" fill="#F04E3E" d="M716.691,181.778c-3.392,3.578-7.6,5.084-12.308,5.084c-4.646,0-8.664-1.692-11.739-4.771   c-4.396-4.394-4.333-9.354-4.333-17.956c0-8.599-0.062-13.56,4.333-17.954c3.075-3.077,6.969-4.772,11.739-4.772   c8.646,0,14.002,5.17,15.831,11.889c0.271,1-0.497,1.986-1.533,1.986h-3.681c-0.667,0-1.285-0.414-1.484-1.051   c-1.335-4.256-4.479-6.733-9.133-6.733c-2.637,0-5.021,1.065-6.593,2.762c-2.196,2.384-2.699,4.896-2.699,13.873   c0,8.979,0.503,11.554,2.699,13.938c1.571,1.695,3.956,2.699,6.593,2.699c2.952,0,5.526-1.129,7.283-3.138   c1.633-1.884,2.261-4.146,2.261-7.033v-2.511h-7.968c-0.87,0-1.576-0.706-1.576-1.577v-2.622c0-0.871,0.706-1.577,1.576-1.577   h13.172c0.871,0,1.576,0.706,1.576,1.577v5.267C720.708,174.933,719.641,178.638,716.691,181.778z"/>
	<path id="XMLID_31_" fill="#797D82" d="M356.096,249.331v-41.549c0-0.87,0.706-1.576,1.577-1.576h3.627   c0.871,0,1.576,0.706,1.576,1.576v41.549c0,0.87-0.706,1.576-1.576,1.576h-3.627C356.802,250.907,356.096,250.201,356.096,249.331z   "/>
	<path id="XMLID_29_" fill="#797D82" d="M400.265,250.196l-20.188-30.742v29.878c0,0.87-0.705,1.576-1.576,1.576h-3.627   c-0.871,0-1.576-0.706-1.576-1.576v-41.549c0-0.87,0.705-1.576,1.576-1.576h3.788c0.53,0,1.025,0.267,1.316,0.71l20.188,30.681   v-29.813c0-0.87,0.705-1.576,1.576-1.576h3.627c0.871,0,1.576,0.706,1.576,1.576v41.549c0,0.87-0.705,1.576-1.576,1.576h-3.787   C401.052,250.907,400.557,250.639,400.265,250.196z"/>
	<path id="XMLID_27_" fill="#797D82" d="M417.37,249.331v-41.549c0-0.87,0.706-1.576,1.576-1.576h3.628   c0.87,0,1.576,0.706,1.576,1.576v41.549c0,0.87-0.706,1.576-1.576,1.576h-3.628C418.076,250.907,417.37,250.201,417.37,249.331z"/>
	<path id="XMLID_25_" fill="#797D82" d="M449.7,212.297v37.033c0,0.87-0.706,1.576-1.577,1.576h-3.627   c-0.871,0-1.576-0.706-1.576-1.576v-37.033h-12.305v-4.516c0-0.87,0.706-1.576,1.576-1.576h28.237c0.871,0,1.576,0.706,1.576,1.576   v4.516H449.7z"/>
	<path id="XMLID_23_" fill="#797D82" d="M469.726,249.331v-41.549c0-0.87,0.706-1.576,1.577-1.576h3.627   c0.871,0,1.576,0.706,1.576,1.576v41.549c0,0.87-0.705,1.576-1.576,1.576h-3.627C470.432,250.907,469.726,250.201,469.726,249.331z   "/>
	<path id="XMLID_20_" fill="#797D82" d="M513.497,249.841l-2.712-7.912h-17.642l-2.71,7.912c-0.219,0.637-0.816,1.065-1.49,1.065   h-3.838c-1.097,0-1.856-1.092-1.479-2.119l15.229-41.548c0.228-0.621,0.817-1.034,1.479-1.034h3.26   c0.661,0,1.252,0.413,1.479,1.034l15.23,41.548c0.377,1.027-0.384,2.119-1.479,2.119h-3.838   C514.314,250.907,513.715,250.478,513.497,249.841z M502.123,216.315l-6.97,19.838h13.75L502.123,216.315z"/>
	<path id="XMLID_18_" fill="#797D82" d="M536.274,212.297v37.033c0,0.87-0.706,1.576-1.576,1.576h-3.628   c-0.87,0-1.576-0.706-1.576-1.576v-37.033h-10.729c-0.871,0-1.576-0.706-1.576-1.576v-2.938c0-0.87,0.705-1.576,1.576-1.576h28.237   c0.871,0,1.577,0.706,1.577,1.576v2.938c0,0.87-0.706,1.576-1.577,1.576H536.274z"/>
	<path id="XMLID_16_" fill="#797D82" d="M555.045,249.331v-41.549c0-0.87,0.705-1.576,1.576-1.576h3.627   c0.871,0,1.576,0.706,1.576,1.576v41.549c0,0.87-0.705,1.576-1.576,1.576h-3.627C555.75,250.907,555.045,250.201,555.045,249.331z"/>
	<path id="XMLID_14_" fill="#797D82" d="M585.548,250.907h-2.995c-0.681,0-1.284-0.438-1.497-1.085l-13.654-41.549   c-0.335-1.02,0.425-2.067,1.497-2.067h3.701c0.688,0,1.295,0.444,1.502,1.101l9.947,31.421l9.949-31.421   c0.207-0.655,0.814-1.101,1.503-1.101h3.817c1.074,0,1.835,1.053,1.496,2.071l-13.771,41.549   C586.831,250.471,586.229,250.907,585.548,250.907z"/>
	<path id="XMLID_12_" fill="#797D82" d="M606.399,249.331v-41.549c0-0.87,0.704-1.576,1.575-1.576h25.411   c0.87,0,1.576,0.706,1.576,1.576v2.938c0,0.87-0.706,1.576-1.576,1.576h-20.208v13.058h17.008c0.871,0,1.576,0.706,1.576,1.576   v2.874c0,0.871-0.705,1.577-1.576,1.577h-17.008v13.435h20.208c0.87,0,1.576,0.706,1.576,1.576v2.938   c0,0.87-0.706,1.576-1.576,1.576h-25.411C607.104,250.907,606.399,250.201,606.399,249.331z"/>
</g>
<g>
	<path id="XMLID_2_" fill="#F04E3E" d="M177.792,225.083c-6.447,4.402-11.182,13.136-9.744,21.51   c0.907,5.281,3.323,9.457,8.421,12.245c4.895,2.676,10.33,2.691,15.304,0.051c6.261-3.328,10.438-10.012,11.172-17.88l0.027-0.232   l1.507-15.132c0.454-5.169,3.215-9.855,7.516-12.76l8.028-6.066c0.593-0.447,1.437,0.017,1.376,0.758l-3.055,34.998   c-1.256,13.018-8.467,24.22-19.308,29.98c-4.479,2.382-9.256,3.64-14.038,3.774c-5.449,0.152-10.91-1.15-15.957-3.911   c-9.621-5.26-16.098-14.291-17.061-24.772c-1.143-12.465,3.684-25.679,16.035-34.563l38.015-25.842   c0.73-0.497,1.172-1.333,1.136-2.216c-0.092-2.271-1.502-4.439-2.605-5.261c-7.574-5.635-22.89,4.113-32.088,8.862l-19.055,10.194   c-1.341,0.693-2.782-0.745-2.089-2.088l35.706-68.799h-18.214c-3.827,0-6.801-3.335-6.368-7.138l0.89-7.767   c0.05-0.435,0.417-0.763,0.855-0.763h44.564l-0.014,0.034l1.53-0.015c0.585-0.005,0.965,0.609,0.697,1.128   c-4.141,7.982-29.08,56.542-29.08,56.542c9.109-5.21,21.521-7.908,29.181-4.406c6.47,2.958,9.519,8.097,10.857,13.169   l84.536-53.857c0.966-0.614,1.421-1.798,1.101-2.896c-18.264-62.587-76.318-108.207-144.94-107.617   C81.516,15.044,15.233,81.166,14.351,162.281c-0.91,83.591,66.747,151.602,150.206,151.27   c80.425-0.32,148.406-68.07,148.992-148.493c0.062-8.427-0.577-16.692-1.855-24.746c-0.193-1.22-1.589-1.833-2.631-1.169   L177.792,225.083z M142.92,186.919c-7.789,3.217-16.459,4.688-24.157,4.89c-0.313,0.008-0.626,0.015-0.938,0.019   c-12.694,0.11-24.442-4.275-33.168-12.412c-8.615-8.032-13.838-19.185-14.704-31.412c-0.977-13.771,3.624-26.911,12.957-37.018   c9.201-9.965,22.255-15.728,35.814-15.848c9.32-0.081,18.42,2.494,26.316,7.369l4.229,2.692l-2.728,23.146   c-0.052,0.375-0.37,0.653-0.748,0.657l-7.46,0.065c-3.728,0.033-6.662-2.991-6.34-6.704c0.391-4.516,1.141-9.213,1.141-9.213   c-4.362-1.897-9.456-2.885-14.276-2.842c-9.52,0.083-18.319,3.994-24.779,10.989c-6.456,6.99-9.637,16.115-8.961,25.659   c1.273,17.96,14.973,30.109,33.247,29.729c17.179-0.356,28.839-5.646,39.063-13.629c0.559-0.437,1.316,0.19,0.989,0.818   l-8.772,16.89C148.203,183.549,145.815,185.722,142.92,186.919z"/>
</g>
</svg>