<svg id="Ebene_1" data-name="Ebene 1" xmlns="http://www.w3.org/2000/svg" viewBox="0 0 120.29 138.9">
    <defs>
        <style>.cls-1{fill:#006ab3;}.cls-2{fill:#fff;}</style>
    </defs>
    <title>GND_RGB_Wabe</title>
    <path id="Blau" class="cls-1" d="M120.29,34.72v69.45L60.14,138.9,0,104.17V34.72L60.14,0Z"/>
    <path id="GND" class="cls-2"
          d="M45.33,50.41H54l7.65,14c.73,1.37,1.36,2.57,1.9,3.62l1.22,2.4c.29.56,1,2,2.13,4.29l0,.1-.4-24.43H75V88.49H66.32l-6.6-12c-.83-1.47-1.51-2.68-2-3.61s-1-1.78-1.35-2.54S55.58,68.79,55.2,68s-.94-1.93-1.68-3.48l.25,23.95H45.33Zm-6.74,7.71V50.41h-13a31.6,31.6,0,0,0-4,.35,14.65,14.65,0,0,0-4.32,1.43,12.92,12.92,0,0,0-4.33,3.64,17.44,17.44,0,0,0-3.1,6.61A29.19,29.19,0,0,0,9,69.77a26.89,26.89,0,0,0,1.15,8A15.39,15.39,0,0,0,13.69,84,12.19,12.19,0,0,0,17,86.5a15.7,15.7,0,0,0,3.71,1.32,23.92,23.92,0,0,0,3.49.51c1.08.07,2.35.12,3.82.16H38.59V67.88H30.25V80.45H26.92a15.52,15.52,0,0,1-4.65-.59A6.38,6.38,0,0,1,19,77.05a9.83,9.83,0,0,1-1.39-3.45,22.82,22.82,0,0,1-.35-4.2,16.58,16.58,0,0,1,1-6.21,7.53,7.53,0,0,1,2.49-3.4,7.72,7.72,0,0,1,3.16-1.37,24.69,24.69,0,0,1,3.89-.35h2.54ZM103.08,69.5a22.82,22.82,0,0,0-.35-4.2,9.88,9.88,0,0,0-1.39-3.46A6.42,6.42,0,0,0,98,59a15.38,15.38,0,0,0-4.64-.6H90V80.83h2.53a24.83,24.83,0,0,0,3.9-.35,7.88,7.88,0,0,0,3.16-1.38,7.5,7.5,0,0,0,2.49-3.39,16.58,16.58,0,0,0,1-6.21m8.25-.37a29.25,29.25,0,0,1-.84,7.33,17.44,17.44,0,0,1-3.1,6.61,12.92,12.92,0,0,1-4.33,3.64,15,15,0,0,1-4.32,1.43,31.6,31.6,0,0,1-4,.35h-13V50.41H92.25c1.47,0,2.74.09,3.82.16a23.92,23.92,0,0,1,3.49.51,15.7,15.7,0,0,1,3.71,1.32,12.51,12.51,0,0,1,3.33,2.48,15.49,15.49,0,0,1,3.58,6.26,26.84,26.84,0,0,1,1.15,8"/>
</svg>
