<svg version="1.1" xmlns="http://www.w3.org/2000/svg" viewBox="0 0 410.31 128.62"><path class="words" d="m346.89 123.04 7.54-16.72c1.48-3.29 1.96-4.01 3.52-4.41v-1.12l-7.89.01v1.12c2.61.56 2.89 1.88 1.69 4.69l-3.03 7.26-3.78-8.53c-.8-1.88-.69-2.96 2.08-3.29v-1.24l-10.54.02v1.24c1.24.32 1.72.84 2.81 3.08l6.72 14.41-1.12 2.41c-.64 1.4-1.24 2.45-1.92 3.05-.48-1.64-1.41-2.52-2.85-2.52-1.44 0-2.68.97-2.68 2.85 0 1.88 1.53 3.28 3.33 3.28 2.56-.02 4.16-1.3 6.12-5.59m-10.71-5.03-.6-1.28c-1.08.48-2.04.72-2.88.73-1.88 0-2.37-.96-2.37-2.28l-.02-12.06 5.09-.01v-2.28l-5.09.01-.01-3.73h-.72l-7.2 4.74v1.28l2.93-.01.02 13.1c0 2.6 1.49 4 4.41 4 2.28 0 4.52-.77 6.44-2.21m-15.22.58c-2.49-.36-2.85-.88-2.85-3.08l-.03-15.35h-1.96l-5.88 3.86v.88l2.85-.01.02 10.62c0 2.2-.4 2.73-2.84 3.09v1.24l10.7-.02-.01-1.23zm-5.73-21.42c1.68 0 3.04-1.37 3.04-3.09 0-1.52-1.17-2.76-2.73-2.76-1.76 0-3.08 1.37-3.08 3.05 0 1.56 1.16 2.8 2.77 2.8m-6.99 16.8c-.01-3.73-3.09-4.88-5.98-5.8-2.85-.92-4.81-1.51-4.81-3.6 0-1.12.84-2.17 2.48-2.17 2.04 0 3.85 1.24 6.02 3.68l1.04-.48-1.53-4.97h-.64l-.72.6a9.43 9.43 0 0 0-3.77-.75c-4.25.01-7.01 2.46-7 6.14.01 3.73 3.09 4.8 5.98 5.76 2.85.96 4.81 1.51 4.81 3.64 0 1.32-1 2.33-2.92 2.33-2.68 0-4.73-1.75-7.18-4.88l-1.08.4 1.57 6.25h.68l1.16-.84c1.32.64 2.81 1 4.45.99 4.09 0 7.45-2.41 7.44-6.3m-20.86 4.68c-2.61-.4-2.97-.96-2.97-3.44l-.01-8.26c.8-1.44 1.56-2.49 2.36-3.21 0 1.56 1.09 2.56 2.45 2.56s2.68-1.09 2.68-3.17c0-1.76-1.01-2.84-2.77-2.84-1.96 0-3.48 1.65-4.92 3.98l-.01-4.05h-1.76l-5.8 3.82v.88h2.76l.02 10.66c0 2.2-.36 2.77-2.64 3.09v1.24l10.62-.02-.01-1.24zm-25.11-10.85c-.01-3.25 1.35-5.17 4-5.18 1.84 0 3.01 1.32 3.49 3.92l-7.45 2.58c-.04-.44-.04-.88-.04-1.32m12.56 8.51-1.08-.84a6.097 6.097 0 0 1-4.6 2.09c-3.69.01-5.78-2.79-6.54-6.44l12.01-4.03c-.25-4.25-3.38-6.57-7.34-6.56-5.57.01-9.65 4.51-9.64 10.08.01 5.53 3.54 9.73 9.75 9.72 3.8 0 6.08-1.69 7.44-4.02m-21.01-9.82c1.48-3.29 1.96-4.01 3.52-4.41v-1.12l-7.89.01v1.12c2.61.56 2.89 1.88 1.69 4.69l-3.03 7.26-3.78-8.53c-.8-1.88-.69-2.96 2.08-3.29v-1.24l-10.54.02v1.24c1.24.32 1.76.84 2.81 3.08l6.88 14.85h2.08l6.18-13.68zm-18.29 12.26c-2.49-.36-2.85-.88-2.85-3.08l-.03-15.35h-1.96l-5.88 3.86v.88l2.84-.01.02 10.62c0 2.2-.4 2.73-2.84 3.09V120l10.7-.02v-1.23zm-5.73-21.43c1.68 0 3.04-1.37 3.04-3.09 0-1.52-1.17-2.76-2.73-2.76-1.76 0-3.08 1.37-3.08 3.05 0 1.56 1.16 2.8 2.77 2.8m-20.2 21.47c-2.28-.32-2.65-.88-2.65-3.08l-.02-9.26c2-1.81 3.64-2.69 5.08-2.69 1.96 0 2.53 1 2.53 2.8l.02 9.14c0 2.2-.36 2.77-2.64 3.09v1.24l10.3-.02v-1.24c-2.28-.32-2.65-.88-2.65-3.08l-.02-9.58c-.01-3.21-1.37-5.49-5.42-5.48-2.48 0-4.93 1.53-7.33 3.58l-.01-3.85h-1.84l-5.8 3.82v.88h2.76l.02 10.66c0 2.2-.36 2.77-2.64 3.09v1.24l10.3-.02.01-1.24zm-43.72-23.48.02 12.02c.01 7.77 4.07 13.18 14.29 13.16 10.22-.02 14.26-5.44 14.24-13.05l-.02-9.66c-.01-4.69 1.31-5.89 3.59-6.54V90l-9.7.02v1.24c2.29.64 3.61 1.84 3.62 6.53l.02 9.66c.01 6.77-3.55 9.9-10.28 9.92-6.69.01-10.3-3.11-10.32-9.88l-.02-12.18c-.01-3.05.88-3.57 3.4-3.93v-1.32l-12.18.02v1.32c2.53.34 3.34.86 3.34 3.91"></path><path class="words" d="M397.69 72.43c-2.28-.32-2.65-.88-2.65-3.08l-.02-9.26c2-1.81 3.64-2.69 5.08-2.69 1.96 0 2.53 1 2.53 2.8l.02 9.14c0 2.2-.36 2.77-2.64 3.09v1.24l10.3-.02v-1.24c-2.28-.32-2.65-.88-2.65-3.08l-.02-9.58c-.01-3.21-1.37-5.49-5.42-5.48-2.48 0-4.93 1.53-7.33 3.58V54h-1.84l-5.8 3.82v.88h2.76l.02 10.66c0 2.2-.36 2.77-2.64 3.09v1.24l10.3-.02v-1.24zm-15.95.03c-2.61-.4-2.97-.96-2.97-3.44l-.01-8.26c.8-1.44 1.56-2.49 2.36-3.21 0 1.56 1.09 2.56 2.45 2.56s2.68-1.09 2.68-3.17c0-1.76-1.01-2.84-2.77-2.84-1.96 0-3.48 1.65-4.92 3.98l-.01-4.05h-1.76l-5.8 3.82v.88h2.76l.02 10.66c0 2.2-.36 2.77-2.64 3.09v1.24l10.62-.02-.01-1.24zm-25.1-10.85c-.01-3.25 1.35-5.17 4-5.18 1.84 0 3.01 1.32 3.49 3.92l-7.45 2.58c-.04-.44-.04-.88-.04-1.32m12.55 8.51-1.08-.84a6.097 6.097 0 0 1-4.6 2.09c-3.69.01-5.78-2.79-6.54-6.44l12.01-4.03c-.25-4.25-3.38-6.57-7.34-6.56-5.57.01-9.65 4.51-9.64 10.08.01 5.53 3.54 9.73 9.75 9.72 3.8-.01 6.09-1.69 7.44-4.02m-18.51 1.84-.6-1.28c-1.08.48-2.04.72-2.88.73-1.88 0-2.37-.96-2.37-2.28l-.02-12.06 5.09-.01v-2.28l-5.09.01-.01-3.73h-.72l-7.2 4.74v1.28l2.93-.01.02 13.1c0 2.6 1.49 4 4.41 4 2.28 0 4.52-.77 6.44-2.21m-15.15-4.06c-.01-3.73-3.09-4.88-5.98-5.8-2.85-.92-4.81-1.51-4.81-3.6 0-1.12.84-2.17 2.48-2.17 2.04 0 3.85 1.24 6.02 3.68l1.04-.48-1.53-4.97h-.64l-.72.6a9.43 9.43 0 0 0-3.77-.75c-4.25.01-7.01 2.46-7 6.14.01 3.73 3.09 4.8 5.98 5.76 2.85.96 4.81 1.51 4.81 3.64 0 1.32-1 2.33-2.92 2.33-2.68 0-4.73-1.75-7.18-4.88l-1.08.4 1.57 6.25h.68l1.16-.84c1.32.64 2.81 1 4.45.99 4.09-.01 7.45-2.42 7.44-6.3m-30.85.81c0-2.04.92-3.01 5.6-4.3l.01 5.81c-1.12.88-2.12 1.29-3.12 1.29-1.57 0-2.49-.84-2.49-2.8m8.82 5.36c1.72 0 3.56-.81 4.77-1.65l-.36-1.12c-1.96.36-2.68.08-2.69-1.24l-.02-10.7c-.01-3.21-1.41-4.93-5.94-4.92-5.09.01-8.81 2.74-8.81 5.31 0 1.24.85 2.28 2.29 2.28 1.64 0 2.44-1.09 2.68-2.17.24-1.24-.16-2.16-.77-2.68 1-.48 2-.72 3.04-.73 1.72 0 2.57.6 2.57 2.16l.01 4.01c-7.17 1.78-10.45 3.34-10.45 7.15.01 2.93 1.89 4.48 4.86 4.48 1.88 0 4.05-.81 5.89-2.25.29 1.31 1.21 2.07 2.93 2.07m-28.43-12.34c-.01-3.25 1.35-5.17 4-5.18 1.84 0 3.01 1.32 3.49 3.92l-7.45 2.58c-.04-.44-.04-.88-.04-1.32m12.56 8.52-1.08-.84a6.097 6.097 0 0 1-4.6 2.09c-3.69.01-5.78-2.79-6.54-6.44l12.01-4.03c-.25-4.25-3.38-6.57-7.34-6.56-5.57.01-9.65 4.51-9.64 10.08.01 5.53 3.54 9.73 9.75 9.72 3.8-.01 6.08-1.7 7.44-4.02m-31.89 2.42c-2.28-.32-2.65-.88-2.65-3.08l-.02-9.3c1.92-1.77 3.4-2.65 5.08-2.65 1.96 0 2.53 1 2.53 2.8l.02 9.14c0 2.2-.36 2.77-2.64 3.09v1.24l10.3-.02v-1.24c-2.28-.32-2.65-.88-2.65-3.08l-.02-9.58c-.01-3.21-1.37-5.49-5.42-5.48-2.44 0-4.85 1.45-7.21 3.46l-.03-15.87h-1.48l-6.44 4.22v.88l2.93-.01.04 22.4c0 2.2-.36 2.77-2.64 3.09v1.24l10.3-.02v-1.23zm-11.51-.54-.6-1.28c-1.08.48-2.04.72-2.88.73-1.88 0-2.37-.96-2.37-2.28l-.02-12.06 5.09-.01v-2.28l-5.09.01-.01-3.73h-.72l-7.2 4.74v1.28l2.93-.01.02 13.1c0 2.6 1.49 4 4.41 4 2.28 0 4.52-.77 6.44-2.21m-19.63.59c-2.61-.4-2.97-.96-2.97-3.44l-.01-8.26c.8-1.44 1.56-2.49 2.36-3.21 0 1.56 1.09 2.56 2.45 2.56s2.68-1.09 2.68-3.17c0-1.76-1.01-2.84-2.77-2.84-1.96 0-3.48 1.65-4.92 3.98l-.01-4.05h-1.76l-5.8 3.82v.88h2.76l.02 10.66c0 2.2-.36 2.77-2.64 3.09v1.24l10.62-.02-.01-1.24zm-28.95-10.25c-.01-3.61 1.55-5.89 4.84-5.9 4.25-.01 5.5 5.2 5.51 9.97.01 3.61-1.55 5.89-4.84 5.9-4.25.01-5.5-5.2-5.51-9.97M221 64.25c-.01-5.25-3.54-9.65-9.99-9.64-6.49.01-10.37 4.71-10.36 10.16.01 5.25 3.54 9.65 9.99 9.64 6.49-.01 10.37-4.71 10.36-10.16m-26.15-12.5c-.01-4.69 1.31-5.89 3.59-6.54v-1.24l-9.7.02v1.24c2.29.64 3.61 1.84 3.62 6.53l.02 14.11-20.47-20.6c-1.12-1.12-1.56-1.24-2.29-1.24l-7.57.01v1.24c1.64.16 2.61.8 4.49 2.6.6.56 1.16 1.24 1.17 2.36l.03 16.07c.01 4.69-1.31 5.89-3.59 6.54v1.24l9.7-.02v-1.24c-2.29-.64-3.61-1.84-3.62-6.53l-.03-15.15 23.04 23.08h1.64l-.03-22.48z"></path><path class="st0" d="M137.55 34.23c0-19.6 6.59-26.03 19.76-31.01V0h-43.23v3.21c13.18 4.98 19.76 11.41 19.76 31.01v57.53L42.42 4.34C38.24.48 37.12 0 34.39 0H0v3.21c7.55.8 12.05 2.89 22.98 13.5l4.18 4.02v65.56c0 19.6-6.59 26.03-19.76 31.01v3.21h43.23v-3.21c-13.18-4.98-19.76-11.41-19.76-31.01V23.78l103.48 97.54h3.21V34.23z"></path></svg>