<svg xmlns="http://www.w3.org/2000/svg" version="1.1"
     viewBox="14.17 22.37 341.17 47.52">  <!-- Generator: Adobe Illustrator 29.5.1, SVG Export Plug-In . SVG Version: 2.1.0 Build 141)  -->
    <g id="Schutzraum">
        <rect y="0" width="369.485" height="90.709" fill="none"></rect>
        <rect y="0" width="369.485" height="90.709" fill="none"></rect>
        <rect y="0" width="369.485" height="90.709" fill="none"></rect>
        <rect y="0" width="369.485" height="90.709" fill="none"></rect>
        <rect y="0" width="369.485" height="90.709" fill="none"></rect>
    </g>
    <g id="Logo">
        <g>
            <path d="M294.668,67.852h4.345v-9.113h2.323c1.75,0,2.505,1.026,2.565,2.716l.12,4.135c.03.844.121,1.658.543,2.263h4.707v-.181c-.813-.424-.935-1.6-.965-3.862-.06-4.557-.513-6.188-3.47-6.579v-.06c2.443-.514,3.591-2.444,3.591-5.311,0-3.682-2.173-5.553-5.734-5.553h-8.025v21.546ZM299.013,49.505h2.052c1.961,0,3.019.996,3.019,2.987,0,2.323-1.179,3.228-3.261,3.228h-1.81v-6.216Z"
                  fill="#8ebae5"></path>
            <path d="M230.604,46.307v15.027c0,5.764,3.349,6.941,6.88,6.941s6.88-1.448,6.88-6.941v-15.027h-4.345v15.027c0,2.143-.514,3.742-2.535,3.742s-2.535-1.6-2.535-3.742v-15.027h-4.345Z"
                  fill="#8ebae5"></path>
        </g>
        <polygon
                points="245.428 46.307 245.428 67.851 249.411 67.851 249.411 52.764 249.471 52.764 254.782 67.851 259.731 67.851 259.731 46.307 255.748 46.307 255.748 61.062 255.688 61.062 250.437 46.307 245.428 46.307"
                fill="#8ebae5"></polygon>
        <rect x="260.848" y="46.307" width="4.346" height="21.544" fill="#8ebae5"></rect>
        <polygon
                points="265.492 46.307 270.439 67.851 276.022 67.851 280.971 46.307 276.475 46.307 273.276 62.24 273.186 62.24 270.139 46.307 265.492 46.307"
                fill="#8ebae5"></polygon>
        <polygon
                points="281.358 46.307 281.358 67.851 293.7 67.851 293.7 64.292 285.703 64.292 285.703 58.498 292.946 58.498 292.946 54.936 285.703 54.936 285.703 49.868 293.398 49.868 293.398 46.307 281.358 46.307"
                fill="#8ebae5"></polygon>
        <path d="M308.788,61.123v.875c0,3.984,1.931,6.277,6.85,6.277,4.707,0,7.483-2.052,7.483-6.609,0-2.625-.845-4.284-4.104-5.703l-3.349-1.447c-1.841-.785-2.233-1.6-2.233-2.928,0-1.267.514-2.505,2.475-2.505,1.659,0,2.353,1.177,2.353,3.199h4.164v-.605c0-4.134-2.807-5.792-6.669-5.792-4.103,0-6.668,2.142-6.668,6.335,0,3.592,1.78,5.191,5.643,6.519,2.866.996,3.862,1.72,3.862,3.682,0,1.811-1.268,2.655-2.595,2.655-2.294,0-2.867-1.297-2.867-3.319v-.634h-4.345Z"
              fill="#8ebae5"></path>
        <rect x="323.689" y="46.307" width="4.345" height="21.544" fill="#8ebae5"></rect>
        <polygon
                points="350.603 46.307 347.586 54.634 347.525 54.634 344.689 46.307 328.603 46.307 328.603 49.868 333.31 49.868 333.31 67.851 337.657 67.851 337.657 49.868 341.322 49.868 345.383 59.373 345.383 67.851 349.728 67.851 349.728 59.373 355.311 46.307 350.603 46.307"
                fill="#8ebae5"></polygon>
        <g>
            <path d="M192.433,44.347h-7.199v-21.641h11.807c3.202,0,5.963,2.072,6.864,4.82.834,2.546.121,5.312-1.762,7.281.25.678.494,1.209.726,1.818.522,1.205,1.001,2.41,1.523,3.6l1.714,4.122h-7.302s-.058-.174-.115-.247c-.29-.638-.553-1.321-.843-1.959l-1.756-4.166c-.697-1.684-1.393-3.275-2.09-4.958.869-.024,1.518.139,2.358-.247.59-.29,1.483-1.011,1.507-2.394-.023-.685-.213-1.204-.666-1.744-.455-.502-1.113-.874-1.97-.886,0,0-2.799,0-2.798,0v16.601Z"
                  fill="#00549f"></path>
            <path d="M267.639,22.706v21.641h-7.2v-8.824h-5.041v8.824c-1.306,0-2.714-.014-4.02,0h-3.181v-16.633h-5.036v16.633h-7.199v-16.633h-5.079v16.633h-7.417c-1.292-3.12-2.656-6.27-3.919-9.376-.145-.653-.29-1.307-.479-1.945v11.321h-7.432c-1.474-3.425-2.888-6.782-4.357-10.258-.509-1.204-.926-2.184-1.452-3.436l-.071-.164-1.144-2.685-1.638-3.835c-.145-.435-.376-.828-.522-1.263h7.415c1.524,3.701,3.062,7.359,4.659,11.002l.044.087c-.058-.421-.189-.958-.262-1.364v-6.459c.014-1.031,0-2.207,0-3.266h7.431c.095.236.146.363.219.552.87,2.046,1.698,4.078,2.569,6.11l1.945,4.427c-.044-.465-.146-.914-.204-1.364v-9.725h29.131v7.809h5.041v-7.809h7.2Z"
                  fill="#00549f"></path>
        </g>
        <path d="M288.523,36.192l2.092-9.73h.061l2.092,9.73h-4.244ZM274.097,36.192l2.091-9.73h.06l2.093,9.73h-4.243ZM293.344,22.704h-5.396l-4.516,17.059-4.517-17.059h-5.396l-5.729,21.643h4.548l1-4.577h5.761l.999,4.577h6.668l1-4.577h5.76l1,4.577h4.547l-5.728-21.643Z"
              fill="#8ebae5"></path>
        <path d="M312.072,30.088c0-3.138-.452-7.695-6.67-7.695-6.517,0-7.333,4.647-7.333,11.195s.816,11.195,7.333,11.195c5.703,0,6.851-4.013,6.851-8.66h-4.345c0,4.647-1.147,5.462-2.717,5.462-1.871,0-2.775-1.177-2.775-7.695,0-6.095.513-8.298,2.716-8.298,1.961,0,2.595,1.358,2.595,4.496h4.346Z"
              fill="#8ebae5"></path>
        <polygon
                points="313.111 44.347 317.476 44.347 317.476 34.739 322.567 34.739 322.567 44.347 326.933 44.347 326.933 22.706 322.567 22.706 322.567 30.981 317.476 30.981 317.476 22.706 313.111 22.706 313.111 44.347"
                fill="#8ebae5"></polygon>
        <polygon
                points="327.878 22.702 327.878 44.347 340.278 44.347 340.278 40.77 332.244 40.77 332.244 34.949 339.52 34.949 339.52 31.372 332.244 31.372 332.244 26.279 339.975 26.279 339.975 22.702 327.878 22.702"
                fill="#8ebae5"></polygon>
        <polygon
                points="340.926 22.706 340.926 44.347 344.927 44.347 344.927 29.192 344.987 29.192 350.322 44.347 355.293 44.347 355.293 22.706 351.292 22.706 351.292 37.527 351.231 37.527 345.957 22.706 340.926 22.706"
                fill="#8ebae5"></polygon>
        <rect x="170.56" y="22.676" width="1" height="45.355" fill="#00549f"></rect>
        <g>
            <path d="M154.156,64.731v-.21c0-.127.012-.253.035-.38.023-.127.062-.242.115-.345.053-.104.125-.188.215-.25.09-.064.205-.095.345-.095s.255.027.345.085c.09.057.16.14.21.25.05.109.085.242.105.399.02.157.033.338.04.545h-1.41ZM156.886,65.551v-.31c0-.413-.027-.788-.08-1.125-.053-.338-.153-.623-.3-.86-.147-.237-.348-.42-.605-.55-.257-.13-.585-.195-.985-.195-.467,0-.84.077-1.12.23-.28.152-.495.359-.645.619-.15.261-.25.558-.3.891-.05.333-.075.68-.075,1.04,0,.333.015.672.045,1.015.03.343.112.653.245.93.133.277.34.503.62.676.28.173.67.26,1.17.26.66,0,1.143-.168,1.45-.505.307-.337.473-.818.5-1.445h-1.24c-.04.34-.113.593-.22.76s-.277.25-.51.25c-.127,0-.233-.034-.32-.104-.087-.07-.157-.163-.21-.28-.053-.117-.092-.25-.115-.399-.023-.15-.035-.306-.035-.466v-.43h2.73ZM150.547,68.032h1.38v-5.381h-1.38v5.381ZM150.547,61.992h1.38v-1.181h-1.38v1.181ZM142.891,68.032h1.38v-3.54c0-.32.065-.554.195-.7.13-.148.305-.22.525-.22.193,0,.332.06.415.18.083.12.125.293.125.52v3.761h1.38v-3.54c0-.32.065-.554.195-.7.13-.148.305-.22.525-.22.193,0,.332.06.415.18s.125.293.125.52v3.761h1.38v-3.91c0-.521-.108-.918-.325-1.195-.217-.277-.555-.415-1.015-.415-.327,0-.608.072-.845.215-.237.144-.408.358-.515.646h-.02c-.073-.28-.218-.493-.435-.641-.217-.146-.485-.22-.805-.22-.3,0-.558.053-.775.16-.217.106-.412.283-.585.53h-.02v-.551h-1.32v5.381ZM139.359,64.731v-.21c0-.127.012-.253.035-.38.024-.127.062-.242.115-.345.054-.104.125-.188.215-.25.09-.064.205-.095.345-.095s.255.027.345.085c.09.057.16.14.21.25.05.109.085.242.105.399.02.157.034.338.04.545h-1.41ZM142.089,65.551v-.31c0-.413-.026-.788-.08-1.125-.053-.338-.153-.623-.3-.86-.146-.237-.348-.42-.605-.55-.256-.13-.585-.195-.985-.195-.466,0-.84.077-1.12.23-.28.152-.495.359-.645.619-.15.261-.25.558-.3.891-.05.333-.075.68-.075,1.04,0,.333.015.672.045,1.015.03.343.112.653.245.93.134.277.34.503.62.676.28.173.67.26,1.17.26.66,0,1.144-.168,1.45-.505.307-.337.474-.818.5-1.445h-1.24c-.04.34-.113.593-.22.76-.106.167-.276.25-.51.25-.126,0-.233-.034-.32-.104-.086-.07-.156-.163-.21-.28-.053-.117-.091-.25-.115-.399-.023-.15-.035-.306-.035-.466v-.43h2.73ZM133.092,68.032h1.38v-3.57c0-.593.243-.89.73-.89.207,0,.357.055.45.164.094.11.14.306.14.586v3.71h1.38v-3.99c0-.54-.118-.931-.355-1.17-.236-.24-.575-.36-1.015-.36-.606,0-1.043.23-1.31.691h-.02v-2.311h-1.38v7.141ZM132.209,63.301c0-.26-.018-.538-.055-.835-.036-.297-.128-.573-.275-.83-.146-.257-.368-.468-.665-.635-.296-.167-.701-.25-1.215-.25-.54,0-.97.092-1.29.274-.32.184-.565.439-.735.766-.17.327-.28.718-.33,1.175-.05.457-.075.955-.075,1.495s.025,1.038.075,1.495c.05.457.16.848.33,1.175.17.327.415.582.735.765.32.184.75.275,1.29.275.474,0,.859-.077,1.155-.23.297-.152.527-.361.69-.625.164-.263.275-.567.335-.915.06-.347.09-.713.09-1.1h-1.44c0,.387-.023.698-.07.934-.046.237-.11.421-.19.551-.08.13-.175.217-.285.26-.11.043-.228.064-.355.064-.153,0-.288-.031-.405-.095-.116-.062-.213-.186-.29-.37-.076-.183-.133-.441-.17-.774-.036-.333-.055-.771-.055-1.311,0-.507.014-.935.04-1.285.027-.35.074-.633.14-.85.067-.217.159-.373.275-.47.117-.098.265-.145.445-.145.327,0,.552.118.675.355.124.236.185.615.185,1.135h1.44ZM121.829,64.731v-.21c0-.127.012-.253.035-.38.024-.127.062-.242.115-.345.054-.104.125-.188.215-.25.09-.064.205-.095.345-.095s.255.027.345.085c.09.057.16.14.21.25.05.109.085.242.105.399.02.157.034.338.04.545h-1.41ZM124.559,65.551v-.31c0-.413-.026-.788-.08-1.125-.053-.338-.153-.623-.3-.86-.146-.237-.348-.42-.605-.55-.256-.13-.585-.195-.985-.195-.466,0-.84.077-1.12.23-.28.152-.495.359-.645.619-.15.261-.25.558-.3.891-.05.333-.075.68-.075,1.04,0,.333.015.672.045,1.015.03.343.112.653.245.93.134.277.34.503.62.676.28.173.67.26,1.17.26.66,0,1.144-.168,1.45-.505.307-.337.474-.818.5-1.445h-1.24c-.04.34-.113.593-.22.76-.106.167-.276.25-.51.25-.126,0-.233-.034-.32-.104-.086-.07-.156-.163-.21-.28-.053-.117-.091-.25-.115-.399-.023-.15-.035-.306-.035-.466v-.43h2.73ZM115.562,68.032h1.38v-3.57c0-.593.244-.89.73-.89.207,0,.357.055.45.164.094.11.14.306.14.586v3.71h1.38v-3.99c0-.54-.118-.931-.355-1.17-.236-.24-.575-.36-1.015-.36-.606,0-1.043.23-1.31.691h-.02v-2.311h-1.38v7.141ZM114.773,64.591c0-.64-.162-1.147-.485-1.519-.324-.373-.805-.561-1.446-.561-.319,0-.613.043-.879.13-.267.087-.497.238-.69.455-.194.217-.344.507-.45.87-.107.363-.16.822-.16,1.375,0,.54.043.992.13,1.356.086.362.215.652.385.869.17.218.383.372.64.466.256.093.558.14.905.14.733,0,1.258-.19,1.574-.57.317-.38.476-.923.476-1.63h-1.321c0,.44-.053.76-.159.96-.107.2-.277.3-.511.3-.153,0-.278-.034-.375-.104-.096-.07-.171-.183-.224-.335-.054-.153-.091-.349-.11-.585-.02-.237-.03-.522-.03-.855,0-.307.01-.577.03-.81.019-.233.056-.425.11-.575.053-.15.131-.263.235-.34.103-.077.241-.115.415-.115.126,0,.231.032.315.095.083.063.146.147.19.25.043.104.073.221.09.351.016.13.024.258.024.385h1.321ZM106.101,66.271v.19c0,.26.03.495.09.705.06.21.165.39.315.54.15.149.351.265.605.345.253.08.576.12.97.12.286,0,.553-.035.8-.105.246-.069.458-.175.635-.314.176-.141.315-.317.415-.53s.15-.46.15-.74c0-.406-.09-.728-.27-.965-.18-.237-.487-.428-.92-.575l-.83-.279c-.234-.073-.392-.163-.475-.271-.084-.106-.125-.227-.125-.359,0-.193.065-.339.195-.436.13-.097.281-.144.455-.144.226,0,.385.064.475.194.09.13.135.335.135.615h1.24v-.22c0-.487-.15-.863-.45-1.13-.3-.268-.764-.4-1.39-.4-.354,0-.655.043-.905.13s-.455.203-.615.351c-.16.147-.277.317-.35.515-.074.197-.11.405-.11.625,0,.38.096.692.29.935.193.243.48.433.86.565l.97.35c.133.054.25.125.35.216.1.09.15.222.15.394,0,.213-.064.373-.19.481-.127.106-.297.159-.51.159-.234,0-.412-.071-.535-.215-.124-.143-.185-.332-.185-.564v-.181h-1.24ZM103.909,68.032h1.38v-5.381h-1.38v5.381ZM103.909,61.992h1.38v-1.181h-1.38v1.181ZM98.828,68.032h1.38v-3.57c0-.593.243-.89.73-.89.206,0,.356.055.45.164.093.11.14.306.14.586v3.71h1.38v-3.99c0-.54-.119-.931-.355-1.17-.237-.24-.575-.36-1.015-.36-.3,0-.567.062-.8.186-.234.122-.424.317-.57.585h-.02v-.631h-1.32v5.381ZM96.502,66.401c0,.153-.027.282-.08.386-.054.103-.122.188-.205.255-.084.066-.175.115-.275.145-.1.03-.197.045-.29.045-.187,0-.32-.072-.4-.22-.08-.147-.12-.323-.12-.53,0-.239.06-.43.18-.569.12-.141.32-.24.6-.301.086-.02.183-.052.29-.095.106-.043.206-.102.3-.175v1.06ZM95.222,64.301v-.15c0-.213.053-.383.16-.51.106-.127.266-.189.48-.189.233,0,.398.058.495.175.096.117.145.277.145.484,0,.181-.04.317-.12.41-.08.094-.224.167-.43.221l-.78.21c-.24.066-.445.142-.615.229-.17.087-.31.195-.42.325-.11.13-.192.287-.245.47-.054.184-.08.402-.08.655,0,.18.023.362.07.545.046.183.12.348.22.495.1.146.233.267.4.36.166.093.37.14.61.14.333,0,.605-.047.815-.14.21-.094.395-.28.555-.561h.02c.02.093.041.189.065.285.023.097.058.188.105.275h1.32c-.067-.16-.112-.311-.135-.45-.024-.141-.035-.337-.035-.59v-2.83c0-.24-.025-.462-.075-.665-.05-.203-.145-.378-.285-.525-.14-.146-.339-.26-.595-.34-.257-.08-.589-.12-.995-.12-.26,0-.505.028-.735.085s-.43.15-.6.28-.305.302-.405.515-.15.474-.15.78v.13h1.24ZM91.674,62.651v.601h-.02c-.134-.28-.304-.474-.51-.58-.207-.107-.407-.16-.6-.16-.374,0-.672.083-.895.25-.224.167-.394.382-.51.646-.117.263-.194.558-.23.885-.037.327-.055.646-.055.96,0,.979.138,1.678.415,2.095.276.417.688.625,1.235.625.22,0,.431-.06.635-.18.203-.12.375-.28.515-.48h.02v.71c0,.28-.057.513-.17.695-.114.183-.31.275-.59.275-.087,0-.169-.014-.245-.04-.077-.027-.149-.064-.215-.11-.14-.1-.21-.237-.21-.41h-1.32c0,.46.158.815.475,1.065.316.25.768.375,1.355.375.806,0,1.381-.172,1.725-.516.343-.343.515-.875.515-1.595v-5.11h-1.32ZM90.259,64.596c.016-.25.051-.45.105-.6.053-.15.126-.258.22-.325.093-.067.216-.1.37-.1.273,0,.461.137.565.409.103.273.155.737.155,1.391,0,.227-.012.435-.035.625-.024.189-.064.352-.12.484-.057.134-.134.238-.23.315-.097.077-.219.115-.365.115-.147,0-.265-.038-.355-.115-.09-.077-.16-.18-.21-.311-.05-.13-.084-.277-.1-.444-.017-.167-.025-.343-.025-.53,0-.36.008-.665.025-.915M85.519,68.032h1.38v-3.23c0-.18.03-.332.09-.455.06-.123.14-.223.24-.3.1-.077.21-.132.33-.165.12-.033.24-.05.36-.05.073,0,.145.002.215.005.07.003.142.008.215.015v-1.319c-.04-.008-.082-.013-.125-.016-.043-.003-.085-.005-.125-.005-.287,0-.53.078-.73.235-.2.156-.37.364-.51.625h-.02v-.721h-1.32v5.381ZM81.874,64.581c.013-.233.045-.433.095-.601s.123-.297.22-.39c.097-.093.232-.14.405-.14.28,0,.473.146.58.439.107.293.16.777.16,1.45s-.053,1.157-.16,1.45c-.107.293-.3.439-.58.439-.173,0-.308-.047-.405-.14-.097-.093-.17-.223-.22-.39s-.082-.367-.095-.601c-.013-.232-.02-.486-.02-.76s.007-.527.02-.76M80.574,66.581c.067.353.18.649.34.89.16.24.377.418.65.535.273.117.617.172,1.03.165.393,0,.725-.062.995-.186.27-.122.488-.303.655-.539.167-.237.287-.532.36-.886.073-.353.11-.76.11-1.22,0-.467-.033-.878-.1-1.235-.067-.356-.18-.654-.34-.895-.16-.24-.377-.418-.65-.535-.273-.117-.617-.172-1.03-.165-.393,0-.725.062-.995.186-.27.122-.488.303-.655.539-.167.237-.287.532-.36.886-.073.353-.11.76-.11,1.22,0,.473.033.887.1,1.24M75.577,68.032h1.38v-3.57c0-.593.243-.89.73-.89.207,0,.357.055.45.164.093.11.14.306.14.586v3.71h1.38v-3.99c0-.54-.118-.931-.355-1.17-.237-.24-.575-.36-1.015-.36-.3,0-.567.062-.8.186-.233.122-.423.317-.57.585h-.02v-.631h-1.32v5.381ZM69.394,68.032h1.5l.33-1.511h1.9l.33,1.511h1.5l-1.89-7.141h-1.78l-1.89,7.141ZM72.164,62.131h.02l.69,3.21h-1.4l.69-3.21Z"
                  fill="#00549f"></path>
            <path d="M109.333,56.693h1.38v-3.23c0-.18.03-.331.09-.455.06-.123.14-.223.24-.3.1-.076.21-.131.33-.165.12-.033.24-.05.36-.05.074,0,.145.002.215.005.07.004.142.009.215.015v-1.319c-.04-.007-.081-.012-.125-.016-.043-.003-.085-.005-.125-.005-.286,0-.53.079-.73.235-.2.157-.37.365-.51.625h-.02v-.721h-1.32v5.381ZM104.893,50.543h1.12v-1.18h-1.12v1.18ZM106.613,50.543h1.12v-1.18h-1.12v1.18ZM107.033,56.693h1.32v-5.381h-1.38v3.57c0,.594-.243.891-.73.891-.206,0-.356-.056-.45-.165-.093-.11-.14-.306-.14-.585v-3.711h-1.38v3.99c0,.54.119.931.355,1.17.237.24.575.36,1.015.36.3,0,.567-.06.8-.184.234-.123.424-.318.57-.586h.02v.631ZM101.503,56.693h1.38v-4.44h.8v-.94h-.8v-.47c0-.152.04-.263.12-.33.08-.065.216-.1.41-.1h.13c.06,0,.106.004.14.01v-.98c-.254-.02-.5-.03-.74-.03-.22,0-.42.021-.6.064-.18.045-.332.115-.455.216-.124.1-.219.233-.285.399-.067.167-.1.37-.1.61v.609h-.7v.94h.7v4.44ZM96.143,51.312h-.7v.94h.7v3.08c0,.274.016.5.05.68.033.181.095.325.185.436.09.109.218.188.385.234.166.048.386.07.66.07.16,0,.311-.006.455-.02.143-.014.291-.026.445-.04v-.96c-.047.007-.097.012-.15.015-.054.004-.107.005-.16.005-.2,0-.332-.045-.395-.135-.064-.09-.095-.241-.095-.455v-2.91h.8v-.94h-.8v-1.539h-1.38v1.539ZM93.507,56.693h1.32v-5.381h-1.38v3.57c0,.594-.244.891-.73.891-.207,0-.357-.056-.45-.165-.094-.11-.14-.306-.14-.585v-3.711h-1.38v3.99c0,.54.118.931.355,1.17.236.24.575.36,1.015.36.3,0,.566-.06.8-.184.233-.123.423-.318.57-.586h.02v.631ZM87.976,51.312h-.7v.94h.7v3.08c0,.274.016.5.05.68.033.181.095.325.185.436.09.109.218.188.385.234.166.048.386.07.66.07.16,0,.311-.006.455-.02.143-.014.291-.026.445-.04v-.96c-.047.007-.097.012-.15.015-.054.004-.107.005-.16.005-.2,0-.332-.045-.395-.135-.064-.09-.095-.241-.095-.455v-2.91h.8v-.94h-.8v-1.539h-1.38v1.539ZM85.254,56.693h1.38v-5.381h-1.38v5.381ZM85.254,50.653h1.38v-1.181h-1.38v1.181ZM82.414,51.312h-.7v.94h.7v3.08c0,.274.017.5.05.68.033.181.095.325.185.436.09.109.218.188.385.234.167.048.387.07.66.07.16,0,.312-.006.455-.02.143-.014.292-.026.445-.04v-.96c-.047.007-.097.012-.15.015-.053.004-.107.005-.16.005-.2,0-.332-.045-.395-.135-.063-.09-.095-.241-.095-.455v-2.91h.8v-.94h-.8v-1.539h-1.38v1.539ZM77.31,54.932v.191c0,.26.03.495.09.705.06.21.165.39.315.54.15.149.352.265.605.345.253.08.577.12.97.12.287,0,.553-.035.8-.105.247-.069.458-.175.635-.314.177-.14.315-.316.415-.53.1-.213.15-.46.15-.74,0-.405-.09-.728-.27-.965-.18-.235-.487-.428-.92-.575l-.83-.279c-.233-.073-.392-.163-.475-.271-.083-.105-.125-.225-.125-.359,0-.193.065-.338.195-.436.13-.096.282-.145.455-.145.227,0,.385.064.475.194.09.13.135.335.135.615h1.24v-.22c0-.486-.15-.863-.45-1.13-.3-.267-.763-.4-1.39-.4-.353,0-.655.044-.905.13-.25.087-.455.204-.615.351-.16.147-.277.318-.35.515-.073.197-.11.405-.11.625,0,.38.097.692.29.935.193.244.48.433.86.565l.97.35c.133.055.25.125.35.216.1.09.15.222.15.395,0,.214-.063.374-.19.48-.127.106-.297.159-.51.159-.233,0-.412-.07-.535-.215-.123-.142-.185-.331-.185-.564v-.181h-1.24ZM72.464,56.693h1.38v-3.57c0-.593.243-.89.73-.89.207,0,.357.055.45.165.093.109.14.305.14.585v3.71h1.38v-3.99c0-.54-.118-.93-.355-1.17-.237-.24-.575-.36-1.015-.36-.3,0-.567.062-.8.185-.233.124-.423.318-.57.585h-.02v-.631h-1.32v5.381ZM71.404,49.552h-1.44v7.141h1.44v-7.141Z"
                  fill="#00549f"></path>
            <path d="M59.384,56.954c-.152,2.864-.792,5.102-1.918,6.716-1.127,1.615-2.741,2.421-4.843,2.421-1.158,0-2.201-.251-3.129-.753-.93-.503-1.714-1.325-2.353-2.467-.64-1.143-1.135-2.627-1.485-4.455-.35-1.827-.525-4.066-.525-6.715s.175-4.89.525-6.716c.35-1.828.845-3.312,1.485-4.455.639-1.142,1.423-1.964,2.353-2.467.928-.502,1.971-.753,3.129-.753,2.102,0,3.701.708,4.797,2.124,1.096,1.416,1.645,3.237,1.645,5.459h2.924c0-1.339-.176-2.619-.526-3.837-.35-1.218-.906-2.284-1.667-3.198-.762-.914-1.736-1.645-2.924-2.193-1.188-.548-2.604-.822-4.249-.822-3.351,0-5.924,1.347-7.721,4.043-1.797,2.695-2.695,6.967-2.695,12.815s.898,10.119,2.695,12.814c1.797,2.696,4.37,4.043,7.721,4.043,2.954,0,5.254-.988,6.899-2.969,1.644-1.979,2.573-4.857,2.786-8.635h-2.924ZM26.167,56.041l5.025-18.366h.091l5.026,18.366h-10.142ZM19.771,68.009h3.106l2.65-9.502h11.421l2.65,9.502h3.107l-9.64-32.619h-3.655l-9.639,32.619ZM14.175,68.009h2.924v-32.619h-2.924v32.619Z"
                  fill="#00549f"></path>
        </g>
    </g>
</svg>