<?xml version="1.0" encoding="utf-8" standalone="no"?>
<!DOCTYPE svg PUBLIC "-//W3C//DTD SVG 1.1//EN"
  "http://www.w3.org/Graphics/SVG/1.1/DTD/svg11.dtd">
<svg height="576pt" version="1.1" viewBox="0 0 702 576" width="702pt" xmlns="http://www.w3.org/2000/svg" xmlns:xlink="http://www.w3.org/1999/xlink">
 <metadata>
  <rdf:RDF xmlns:cc="http://creativecommons.org/ns#" xmlns:dc="http://purl.org/dc/elements/1.1/" xmlns:rdf="http://www.w3.org/1999/02/22-rdf-syntax-ns#">
   <cc:Work>
    <dc:type rdf:resource="http://purl.org/dc/dcmitype/StillImage"/>
    <dc:date>2021-08-04T00:47:04.838108</dc:date>
    <dc:format>image/svg+xml</dc:format>
    <dc:creator>
     <cc:Agent>
      <dc:title>Matplotlib v3.4.2, https://matplotlib.org/</dc:title>
     </cc:Agent>
    </dc:creator>
   </cc:Work>
  </rdf:RDF>
 </metadata>
 <defs>
  <style type="text/css">*{stroke-linecap:butt;stroke-linejoin:round;}</style>
 </defs>
 <g id="figure_1">
  <g id="patch_1">
   <path d="M 0 576 
L 702 576 
L 702 0 
L 0 0 
z
" style="fill:#ffffff;"/>
  </g>
  <g id="axes_1">
   <g id="patch_2">
    <path clip-path="url(#pd522bfb1cc)" d="M 164.650356 82.17892 
C 163.460971 84.502587 161.891469 86.611165 160.006845 88.417336 
C 158.122221 90.223508 155.948854 91.701991 153.576745 92.791562 
C 151.204636 93.881132 148.666988 94.566538 146.068888 94.819397 
C 143.470788 95.072256 140.8486 94.889028 138.310914 94.277301 
C 135.773227 93.665574 133.355561 92.633911 131.158034 91.225032 
C 128.960507 89.816154 127.013877 88.049782 125.398757 85.999062 
C 123.783637 83.948343 122.522633 81.64198 121.667965 79.175484 
C 120.813297 76.708987 120.376928 74.116879 120.376928 71.506503 
C 120.376928 68.896127 120.813297 66.30402 121.667965 63.837523 
C 122.522633 61.371026 123.783637 59.064664 125.398757 57.013944 
C 127.013877 54.963225 128.960507 53.196852 131.158034 51.787974 
C 133.355561 50.379096 135.773227 49.347433 138.310914 48.735706 
C 140.8486 48.123979 143.470788 47.940751 146.068888 48.19361 
C 148.666988 48.446468 151.204636 49.131875 153.576745 50.221445 
C 155.948854 51.311015 158.122221 52.789499 160.006845 54.595671 
C 161.891469 56.401842 163.460971 58.51042 164.650356 60.834087 
C 163.34242 54.652508 160.909201 48.763701 157.472242 43.461822 
C 154.035283 38.159942 149.652781 33.534764 144.543648 29.817322 
C 139.434515 26.09988 133.685262 23.35312 127.583073 21.714247 
C 121.480884 20.075373 115.129085 19.572137 108.844958 20.229676 
C 102.56083 20.887214 96.450781 22.694393 90.820016 25.560942 
C 85.189251 28.42749 80.133114 32.30487 75.904166 36.9994 
C 71.675218 41.69393 68.345066 47.12612 66.080057 53.024624 
C 63.815048 58.923128 62.653534 65.188069 62.653534 71.506503 
C 62.653534 77.824938 63.815048 84.089879 66.080057 89.988383 
C 68.345066 95.886886 71.675218 101.319077 75.904166 106.013607 
C 80.133114 110.708137 85.189251 114.585517 90.820016 117.452065 
C 96.450781 120.318614 102.56083 122.125793 108.844958 122.783331 
C 115.129085 123.44087 121.480884 122.937633 127.583073 121.29876 
C 133.685262 119.659887 139.434515 116.913127 144.543648 113.195685 
C 149.652781 109.478243 154.035283 104.853065 157.472242 99.551185 
C 160.909201 94.249306 163.34242 88.360499 164.650356 82.17892 
" style="fill:#c0c0c0;opacity:0.4;"/>
   </g>
   <g id="patch_3">
    <path clip-path="url(#pd522bfb1cc)" d="M 164.650356 60.834087 
C 165.392799 64.343026 165.767062 67.919879 165.767062 71.506503 
C 165.767062 75.093127 165.392799 78.669981 164.650356 82.17892 
C 166.341162 78.875642 167.223016 75.217362 167.223016 71.506503 
C 167.223016 67.795645 166.341162 64.137365 164.650356 60.834087 
" style="fill:#a6cee3;opacity:0.4;"/>
   </g>
   <g id="patch_4">
    <path clip-path="url(#pd522bfb1cc)" d="M 164.650356 82.17892 
C 165.392799 78.669981 165.767062 75.093127 165.767062 71.506503 
C 165.767062 67.919879 165.392799 64.343026 164.650356 60.834087 
C 163.460971 58.51042 161.891469 56.401842 160.006845 54.595671 
C 158.122221 52.789499 155.948854 51.311015 153.576745 50.221445 
C 151.204636 49.131875 148.666988 48.446468 146.068888 48.19361 
C 143.470788 47.940751 140.8486 48.123979 138.310914 48.735706 
C 135.773227 49.347433 133.355561 50.379096 131.158034 51.787974 
C 128.960507 53.196852 127.013877 54.963225 125.398757 57.013944 
C 123.783637 59.064664 122.522633 61.371026 121.667965 63.837523 
C 120.813297 66.30402 120.376928 68.896127 120.376928 71.506503 
C 120.376928 74.116879 120.813297 76.708987 121.667965 79.175484 
C 122.522633 81.64198 123.783637 83.948343 125.398757 85.999062 
C 127.013877 88.049782 128.960507 89.816154 131.158034 91.225032 
C 133.355561 92.633911 135.773227 93.665574 138.310914 94.277301 
C 140.8486 94.889028 143.470788 95.072256 146.068888 94.819397 
C 148.666988 94.566538 151.204636 93.881132 153.576745 92.791562 
C 155.948854 91.701991 158.122221 90.223508 160.006845 88.417336 
C 161.891469 86.611165 163.460971 84.502587 164.650356 82.17892 
" style="fill:#fbffff;opacity:0.4;"/>
   </g>
   <g id="text_1">
    <!-- 945 -->
    <g style="fill:#262626;" transform="translate(81.971481 74.265878)scale(0.1 -0.1)">
     <defs>
      <path d="M 703 97 
L 703 672 
Q 941 559 1184 500 
Q 1428 441 1663 441 
Q 2288 441 2617 861 
Q 2947 1281 2994 2138 
Q 2813 1869 2534 1725 
Q 2256 1581 1919 1581 
Q 1219 1581 811 2004 
Q 403 2428 403 3163 
Q 403 3881 828 4315 
Q 1253 4750 1959 4750 
Q 2769 4750 3195 4129 
Q 3622 3509 3622 2328 
Q 3622 1225 3098 567 
Q 2575 -91 1691 -91 
Q 1453 -91 1209 -44 
Q 966 3 703 97 
z
M 1959 2075 
Q 2384 2075 2632 2365 
Q 2881 2656 2881 3163 
Q 2881 3666 2632 3958 
Q 2384 4250 1959 4250 
Q 1534 4250 1286 3958 
Q 1038 3666 1038 3163 
Q 1038 2656 1286 2365 
Q 1534 2075 1959 2075 
z
" id="DejaVuSans-39" transform="scale(0.015625)"/>
      <path d="M 2419 4116 
L 825 1625 
L 2419 1625 
L 2419 4116 
z
M 2253 4666 
L 3047 4666 
L 3047 1625 
L 3713 1625 
L 3713 1100 
L 3047 1100 
L 3047 0 
L 2419 0 
L 2419 1100 
L 313 1100 
L 313 1709 
L 2253 4666 
z
" id="DejaVuSans-34" transform="scale(0.015625)"/>
      <path d="M 691 4666 
L 3169 4666 
L 3169 4134 
L 1269 4134 
L 1269 2991 
Q 1406 3038 1543 3061 
Q 1681 3084 1819 3084 
Q 2600 3084 3056 2656 
Q 3513 2228 3513 1497 
Q 3513 744 3044 326 
Q 2575 -91 1722 -91 
Q 1428 -91 1123 -41 
Q 819 9 494 109 
L 494 744 
Q 775 591 1075 516 
Q 1375 441 1709 441 
Q 2250 441 2565 725 
Q 2881 1009 2881 1497 
Q 2881 1984 2565 2268 
Q 2250 2553 1709 2553 
Q 1456 2553 1204 2497 
Q 953 2441 691 2322 
L 691 4666 
z
" id="DejaVuSans-35" transform="scale(0.015625)"/>
     </defs>
     <use xlink:href="#DejaVuSans-39"/>
     <use x="63.623047" xlink:href="#DejaVuSans-34"/>
     <use x="127.246094" xlink:href="#DejaVuSans-35"/>
    </g>
   </g>
   <g id="text_2">
    <!-- 3 -->
    <g style="fill:#262626;" transform="translate(163.313789 74.265878)scale(0.1 -0.1)">
     <defs>
      <path d="M 2597 2516 
Q 3050 2419 3304 2112 
Q 3559 1806 3559 1356 
Q 3559 666 3084 287 
Q 2609 -91 1734 -91 
Q 1441 -91 1130 -33 
Q 819 25 488 141 
L 488 750 
Q 750 597 1062 519 
Q 1375 441 1716 441 
Q 2309 441 2620 675 
Q 2931 909 2931 1356 
Q 2931 1769 2642 2001 
Q 2353 2234 1838 2234 
L 1294 2234 
L 1294 2753 
L 1863 2753 
Q 2328 2753 2575 2939 
Q 2822 3125 2822 3475 
Q 2822 3834 2567 4026 
Q 2313 4219 1838 4219 
Q 1578 4219 1281 4162 
Q 984 4106 628 3988 
L 628 4550 
Q 988 4650 1302 4700 
Q 1616 4750 1894 4750 
Q 2613 4750 3031 4423 
Q 3450 4097 3450 3541 
Q 3450 3153 3228 2886 
Q 3006 2619 2597 2516 
z
" id="DejaVuSans-33" transform="scale(0.015625)"/>
     </defs>
     <use xlink:href="#DejaVuSans-33"/>
    </g>
   </g>
   <g id="text_3">
    <!-- 242 -->
    <g style="fill:#262626;" transform="translate(133.528245 74.265878)scale(0.1 -0.1)">
     <defs>
      <path d="M 1228 531 
L 3431 531 
L 3431 0 
L 469 0 
L 469 531 
Q 828 903 1448 1529 
Q 2069 2156 2228 2338 
Q 2531 2678 2651 2914 
Q 2772 3150 2772 3378 
Q 2772 3750 2511 3984 
Q 2250 4219 1831 4219 
Q 1534 4219 1204 4116 
Q 875 4013 500 3803 
L 500 4441 
Q 881 4594 1212 4672 
Q 1544 4750 1819 4750 
Q 2544 4750 2975 4387 
Q 3406 4025 3406 3419 
Q 3406 3131 3298 2873 
Q 3191 2616 2906 2266 
Q 2828 2175 2409 1742 
Q 1991 1309 1228 531 
z
" id="DejaVuSans-32" transform="scale(0.015625)"/>
     </defs>
     <use xlink:href="#DejaVuSans-32"/>
     <use x="63.623047" xlink:href="#DejaVuSans-34"/>
     <use x="127.246094" xlink:href="#DejaVuSans-32"/>
    </g>
   </g>
   <g id="text_4">
    <!-- Bioregistry -->
    <g style="fill:#262626;" transform="translate(49.310923 135.930383)scale(0.12 -0.12)">
     <defs>
      <path d="M 1259 2228 
L 1259 519 
L 2272 519 
Q 2781 519 3026 730 
Q 3272 941 3272 1375 
Q 3272 1813 3026 2020 
Q 2781 2228 2272 2228 
L 1259 2228 
z
M 1259 4147 
L 1259 2741 
L 2194 2741 
Q 2656 2741 2882 2914 
Q 3109 3088 3109 3444 
Q 3109 3797 2882 3972 
Q 2656 4147 2194 4147 
L 1259 4147 
z
M 628 4666 
L 2241 4666 
Q 2963 4666 3353 4366 
Q 3744 4066 3744 3513 
Q 3744 3084 3544 2831 
Q 3344 2578 2956 2516 
Q 3422 2416 3680 2098 
Q 3938 1781 3938 1306 
Q 3938 681 3513 340 
Q 3088 0 2303 0 
L 628 0 
L 628 4666 
z
" id="DejaVuSans-42" transform="scale(0.015625)"/>
      <path d="M 603 3500 
L 1178 3500 
L 1178 0 
L 603 0 
L 603 3500 
z
M 603 4863 
L 1178 4863 
L 1178 4134 
L 603 4134 
L 603 4863 
z
" id="DejaVuSans-69" transform="scale(0.015625)"/>
      <path d="M 1959 3097 
Q 1497 3097 1228 2736 
Q 959 2375 959 1747 
Q 959 1119 1226 758 
Q 1494 397 1959 397 
Q 2419 397 2687 759 
Q 2956 1122 2956 1747 
Q 2956 2369 2687 2733 
Q 2419 3097 1959 3097 
z
M 1959 3584 
Q 2709 3584 3137 3096 
Q 3566 2609 3566 1747 
Q 3566 888 3137 398 
Q 2709 -91 1959 -91 
Q 1206 -91 779 398 
Q 353 888 353 1747 
Q 353 2609 779 3096 
Q 1206 3584 1959 3584 
z
" id="DejaVuSans-6f" transform="scale(0.015625)"/>
      <path d="M 2631 2963 
Q 2534 3019 2420 3045 
Q 2306 3072 2169 3072 
Q 1681 3072 1420 2755 
Q 1159 2438 1159 1844 
L 1159 0 
L 581 0 
L 581 3500 
L 1159 3500 
L 1159 2956 
Q 1341 3275 1631 3429 
Q 1922 3584 2338 3584 
Q 2397 3584 2469 3576 
Q 2541 3569 2628 3553 
L 2631 2963 
z
" id="DejaVuSans-72" transform="scale(0.015625)"/>
      <path d="M 3597 1894 
L 3597 1613 
L 953 1613 
Q 991 1019 1311 708 
Q 1631 397 2203 397 
Q 2534 397 2845 478 
Q 3156 559 3463 722 
L 3463 178 
Q 3153 47 2828 -22 
Q 2503 -91 2169 -91 
Q 1331 -91 842 396 
Q 353 884 353 1716 
Q 353 2575 817 3079 
Q 1281 3584 2069 3584 
Q 2775 3584 3186 3129 
Q 3597 2675 3597 1894 
z
M 3022 2063 
Q 3016 2534 2758 2815 
Q 2500 3097 2075 3097 
Q 1594 3097 1305 2825 
Q 1016 2553 972 2059 
L 3022 2063 
z
" id="DejaVuSans-65" transform="scale(0.015625)"/>
      <path d="M 2906 1791 
Q 2906 2416 2648 2759 
Q 2391 3103 1925 3103 
Q 1463 3103 1205 2759 
Q 947 2416 947 1791 
Q 947 1169 1205 825 
Q 1463 481 1925 481 
Q 2391 481 2648 825 
Q 2906 1169 2906 1791 
z
M 3481 434 
Q 3481 -459 3084 -895 
Q 2688 -1331 1869 -1331 
Q 1566 -1331 1297 -1286 
Q 1028 -1241 775 -1147 
L 775 -588 
Q 1028 -725 1275 -790 
Q 1522 -856 1778 -856 
Q 2344 -856 2625 -561 
Q 2906 -266 2906 331 
L 2906 616 
Q 2728 306 2450 153 
Q 2172 0 1784 0 
Q 1141 0 747 490 
Q 353 981 353 1791 
Q 353 2603 747 3093 
Q 1141 3584 1784 3584 
Q 2172 3584 2450 3431 
Q 2728 3278 2906 2969 
L 2906 3500 
L 3481 3500 
L 3481 434 
z
" id="DejaVuSans-67" transform="scale(0.015625)"/>
      <path d="M 2834 3397 
L 2834 2853 
Q 2591 2978 2328 3040 
Q 2066 3103 1784 3103 
Q 1356 3103 1142 2972 
Q 928 2841 928 2578 
Q 928 2378 1081 2264 
Q 1234 2150 1697 2047 
L 1894 2003 
Q 2506 1872 2764 1633 
Q 3022 1394 3022 966 
Q 3022 478 2636 193 
Q 2250 -91 1575 -91 
Q 1294 -91 989 -36 
Q 684 19 347 128 
L 347 722 
Q 666 556 975 473 
Q 1284 391 1588 391 
Q 1994 391 2212 530 
Q 2431 669 2431 922 
Q 2431 1156 2273 1281 
Q 2116 1406 1581 1522 
L 1381 1569 
Q 847 1681 609 1914 
Q 372 2147 372 2553 
Q 372 3047 722 3315 
Q 1072 3584 1716 3584 
Q 2034 3584 2315 3537 
Q 2597 3491 2834 3397 
z
" id="DejaVuSans-73" transform="scale(0.015625)"/>
      <path d="M 1172 4494 
L 1172 3500 
L 2356 3500 
L 2356 3053 
L 1172 3053 
L 1172 1153 
Q 1172 725 1289 603 
Q 1406 481 1766 481 
L 2356 481 
L 2356 0 
L 1766 0 
Q 1100 0 847 248 
Q 594 497 594 1153 
L 594 3053 
L 172 3053 
L 172 3500 
L 594 3500 
L 594 4494 
L 1172 4494 
z
" id="DejaVuSans-74" transform="scale(0.015625)"/>
      <path d="M 2059 -325 
Q 1816 -950 1584 -1140 
Q 1353 -1331 966 -1331 
L 506 -1331 
L 506 -850 
L 844 -850 
Q 1081 -850 1212 -737 
Q 1344 -625 1503 -206 
L 1606 56 
L 191 3500 
L 800 3500 
L 1894 763 
L 2988 3500 
L 3597 3500 
L 2059 -325 
z
" id="DejaVuSans-79" transform="scale(0.015625)"/>
     </defs>
     <use xlink:href="#DejaVuSans-42"/>
     <use x="68.603516" xlink:href="#DejaVuSans-69"/>
     <use x="96.386719" xlink:href="#DejaVuSans-6f"/>
     <use x="157.568359" xlink:href="#DejaVuSans-72"/>
     <use x="196.431641" xlink:href="#DejaVuSans-65"/>
     <use x="257.955078" xlink:href="#DejaVuSans-67"/>
     <use x="321.431641" xlink:href="#DejaVuSans-69"/>
     <use x="349.214844" xlink:href="#DejaVuSans-73"/>
     <use x="401.314453" xlink:href="#DejaVuSans-74"/>
     <use x="440.523438" xlink:href="#DejaVuSans-72"/>
     <use x="481.636719" xlink:href="#DejaVuSans-79"/>
    </g>
   </g>
   <g id="text_5">
    <!-- OBO -->
    <g style="fill:#262626;" transform="translate(143.799972 107.796663)scale(0.12 -0.12)">
     <defs>
      <path d="M 2522 4238 
Q 1834 4238 1429 3725 
Q 1025 3213 1025 2328 
Q 1025 1447 1429 934 
Q 1834 422 2522 422 
Q 3209 422 3611 934 
Q 4013 1447 4013 2328 
Q 4013 3213 3611 3725 
Q 3209 4238 2522 4238 
z
M 2522 4750 
Q 3503 4750 4090 4092 
Q 4678 3434 4678 2328 
Q 4678 1225 4090 567 
Q 3503 -91 2522 -91 
Q 1538 -91 948 565 
Q 359 1222 359 2328 
Q 359 3434 948 4092 
Q 1538 4750 2522 4750 
z
" id="DejaVuSans-4f" transform="scale(0.015625)"/>
     </defs>
     <use xlink:href="#DejaVuSans-4f"/>
     <use x="78.710938" xlink:href="#DejaVuSans-42"/>
     <use x="145.564453" xlink:href="#DejaVuSans-4f"/>
    </g>
   </g>
  </g>
  <g id="axes_2">
   <g id="patch_5">
    <path clip-path="url(#p86ca9e0211)" d="M 391.144138 81.130812 
C 390.044919 83.679924 388.517069 86.02198 386.626999 88.055177 
C 384.736929 90.088374 382.512427 91.782819 380.050187 93.06486 
C 377.587947 94.346901 374.924169 95.197689 372.17464 95.580242 
C 369.425111 95.962794 366.630256 95.871488 363.911559 95.310291 
C 361.192862 94.749094 358.590294 93.726258 356.216982 92.286242 
C 353.843671 90.846226 351.734507 89.010202 349.981173 86.857977 
C 348.227838 84.705752 346.85611 82.268969 345.925613 79.653547 
C 344.995117 77.038125 344.519532 74.282518 344.519532 71.506503 
C 344.519532 68.730489 344.995117 65.974882 345.925613 63.35946 
C 346.85611 60.744038 348.227838 58.307255 349.981173 56.15503 
C 351.734507 54.002805 353.843671 52.166781 356.216982 50.726765 
C 358.590294 49.286749 361.192862 48.263913 363.911559 47.702716 
C 366.630256 47.141519 369.425111 47.050213 372.17464 47.432765 
C 374.924169 47.815318 377.587947 48.666106 380.050187 49.948147 
C 382.512427 51.230187 384.736929 52.924633 386.626999 54.95783 
C 388.517069 56.991027 390.044919 59.333083 391.144138 61.882195 
C 389.956261 55.630261 387.621119 49.651935 384.256999 44.250044 
C 380.892878 38.848153 376.557556 34.115474 371.470635 30.291737 
C 366.383714 26.468 360.632561 23.618876 354.508496 21.888686 
C 348.384431 20.158495 341.992633 19.576955 335.656875 20.17352 
C 329.321116 20.770086 323.150211 22.534513 317.456742 25.377425 
C 311.763274 28.220337 306.645026 32.092908 302.361259 36.798976 
C 298.077493 41.505043 294.70178 46.963782 292.405115 52.898684 
C 290.10845 58.833586 288.930278 65.142721 288.930278 71.506503 
C 288.930278 77.870286 290.10845 84.179421 292.405115 90.114323 
C 294.70178 96.049225 298.077493 101.507964 302.361259 106.214031 
C 306.645026 110.920099 311.763274 114.79267 317.456742 117.635582 
C 323.150211 120.478494 329.321116 122.242921 335.656875 122.839486 
C 341.992633 123.436052 348.384431 122.854511 354.508496 121.124321 
C 360.632561 119.394131 366.383714 116.545007 371.470635 112.72127 
C 376.557556 108.897532 380.892878 104.164853 384.256999 98.762963 
C 387.621119 93.361072 389.956261 87.382746 391.144138 81.130812 
" style="fill:#c0c0c0;opacity:0.4;"/>
   </g>
   <g id="patch_6">
    <path clip-path="url(#p86ca9e0211)" d="M 391.144138 61.882195 
C 391.746945 65.054835 392.050349 68.277104 392.050349 71.506503 
C 392.050349 74.735903 391.746945 77.958172 391.144138 81.130812 
C 392.454728 78.091527 393.1308 74.816322 393.1308 71.506503 
C 393.1308 68.196684 392.454728 64.92148 391.144138 61.882195 
" style="fill:#1f78b4;opacity:0.4;"/>
   </g>
   <g id="patch_7">
    <path clip-path="url(#p86ca9e0211)" d="M 391.144138 81.130812 
C 391.746945 77.958172 392.050349 74.735903 392.050349 71.506503 
C 392.050349 68.277104 391.746945 65.054835 391.144138 61.882195 
C 390.044919 59.333083 388.517069 56.991027 386.626999 54.95783 
C 384.736929 52.924633 382.512427 51.230187 380.050187 49.948147 
C 377.587947 48.666106 374.924169 47.815318 372.17464 47.432765 
C 369.425111 47.050213 366.630256 47.141519 363.911559 47.702716 
C 361.192862 48.263913 358.590294 49.286749 356.216982 50.726765 
C 353.843671 52.166781 351.734507 54.002805 349.981173 56.15503 
C 348.227838 58.307255 346.85611 60.744038 345.925613 63.35946 
C 344.995117 65.974882 344.519532 68.730489 344.519532 71.506503 
C 344.519532 74.282518 344.995117 77.038125 345.925613 79.653547 
C 346.85611 82.268969 348.227838 84.705752 349.981173 86.857977 
C 351.734507 89.010202 353.843671 90.846226 356.216982 92.286242 
C 358.590294 93.726258 361.192862 94.749094 363.911559 95.310291 
C 366.630256 95.871488 369.425111 95.962794 372.17464 95.580242 
C 374.924169 95.197689 377.587947 94.346901 380.050187 93.06486 
C 382.512427 91.782819 384.736929 90.088374 386.626999 88.055177 
C 388.517069 86.02198 390.044919 83.679924 391.144138 81.130812 
" style="fill:#9cdaff;opacity:0.4;"/>
   </g>
   <g id="text_6">
    <!-- 926 -->
    <g style="fill:#262626;" transform="translate(307.181155 74.265878)scale(0.1 -0.1)">
     <defs>
      <path d="M 2113 2584 
Q 1688 2584 1439 2293 
Q 1191 2003 1191 1497 
Q 1191 994 1439 701 
Q 1688 409 2113 409 
Q 2538 409 2786 701 
Q 3034 994 3034 1497 
Q 3034 2003 2786 2293 
Q 2538 2584 2113 2584 
z
M 3366 4563 
L 3366 3988 
Q 3128 4100 2886 4159 
Q 2644 4219 2406 4219 
Q 1781 4219 1451 3797 
Q 1122 3375 1075 2522 
Q 1259 2794 1537 2939 
Q 1816 3084 2150 3084 
Q 2853 3084 3261 2657 
Q 3669 2231 3669 1497 
Q 3669 778 3244 343 
Q 2819 -91 2113 -91 
Q 1303 -91 875 529 
Q 447 1150 447 2328 
Q 447 3434 972 4092 
Q 1497 4750 2381 4750 
Q 2619 4750 2861 4703 
Q 3103 4656 3366 4563 
z
" id="DejaVuSans-36" transform="scale(0.015625)"/>
     </defs>
     <use xlink:href="#DejaVuSans-39"/>
     <use x="63.623047" xlink:href="#DejaVuSans-32"/>
     <use x="127.246094" xlink:href="#DejaVuSans-36"/>
    </g>
   </g>
   <g id="text_7">
    <!-- 2 -->
    <g style="fill:#262626;" transform="translate(389.409325 74.265878)scale(0.1 -0.1)">
     <use xlink:href="#DejaVuSans-32"/>
    </g>
   </g>
   <g id="text_8">
    <!-- 262 -->
    <g style="fill:#262626;" transform="translate(358.741191 74.265878)scale(0.1 -0.1)">
     <use xlink:href="#DejaVuSans-32"/>
     <use x="63.623047" xlink:href="#DejaVuSans-36"/>
     <use x="127.246094" xlink:href="#DejaVuSans-32"/>
    </g>
   </g>
   <g id="text_9">
    <!-- Bioregistry -->
    <g style="fill:#262626;" transform="translate(275.590939 135.977948)scale(0.12 -0.12)">
     <use xlink:href="#DejaVuSans-42"/>
     <use x="68.603516" xlink:href="#DejaVuSans-69"/>
     <use x="96.386719" xlink:href="#DejaVuSans-6f"/>
     <use x="157.568359" xlink:href="#DejaVuSans-72"/>
     <use x="196.431641" xlink:href="#DejaVuSans-65"/>
     <use x="257.955078" xlink:href="#DejaVuSans-67"/>
     <use x="321.431641" xlink:href="#DejaVuSans-69"/>
     <use x="349.214844" xlink:href="#DejaVuSans-73"/>
     <use x="401.314453" xlink:href="#DejaVuSans-74"/>
     <use x="440.523438" xlink:href="#DejaVuSans-72"/>
     <use x="481.636719" xlink:href="#DejaVuSans-79"/>
    </g>
   </g>
   <g id="text_10">
    <!-- OLS -->
    <g style="fill:#262626;" transform="translate(368.825166 108.723546)scale(0.12 -0.12)">
     <defs>
      <path d="M 628 4666 
L 1259 4666 
L 1259 531 
L 3531 531 
L 3531 0 
L 628 0 
L 628 4666 
z
" id="DejaVuSans-4c" transform="scale(0.015625)"/>
      <path d="M 3425 4513 
L 3425 3897 
Q 3066 4069 2747 4153 
Q 2428 4238 2131 4238 
Q 1616 4238 1336 4038 
Q 1056 3838 1056 3469 
Q 1056 3159 1242 3001 
Q 1428 2844 1947 2747 
L 2328 2669 
Q 3034 2534 3370 2195 
Q 3706 1856 3706 1288 
Q 3706 609 3251 259 
Q 2797 -91 1919 -91 
Q 1588 -91 1214 -16 
Q 841 59 441 206 
L 441 856 
Q 825 641 1194 531 
Q 1563 422 1919 422 
Q 2459 422 2753 634 
Q 3047 847 3047 1241 
Q 3047 1584 2836 1778 
Q 2625 1972 2144 2069 
L 1759 2144 
Q 1053 2284 737 2584 
Q 422 2884 422 3419 
Q 422 4038 858 4394 
Q 1294 4750 2059 4750 
Q 2388 4750 2728 4690 
Q 3069 4631 3425 4513 
z
" id="DejaVuSans-53" transform="scale(0.015625)"/>
     </defs>
     <use xlink:href="#DejaVuSans-4f"/>
     <use x="78.710938" xlink:href="#DejaVuSans-4c"/>
     <use x="134.423828" xlink:href="#DejaVuSans-53"/>
    </g>
   </g>
  </g>
  <g id="axes_3">
   <g id="patch_8">
    <path clip-path="url(#p3685cec25f)" d="M 613.911514 91.725661 
C 611.699054 95.578526 608.869128 99.042254 605.534762 101.978502 
C 602.200396 104.914751 598.406582 107.2839 594.304845 108.991327 
C 590.203108 110.698754 585.848794 111.721419 581.415814 112.018477 
C 576.982835 112.315535 572.531005 111.882979 568.238131 110.738083 
C 563.945258 109.593187 559.869265 107.751401 556.172948 105.286286 
C 552.476631 102.82117 549.209866 99.765988 546.503127 96.242763 
C 543.796389 92.719538 541.686199 88.775809 540.256839 84.56909 
C 538.827479 80.362372 538.098237 75.949425 538.098237 71.506503 
C 538.098237 67.063582 538.827479 62.650635 540.256839 58.443916 
C 541.686199 54.237198 543.796389 50.293469 546.503127 46.770244 
C 549.209866 43.247019 552.476631 40.191836 556.172948 37.726721 
C 559.869265 35.261606 563.945258 33.419819 568.238131 32.274924 
C 572.531005 31.130028 576.982835 30.697471 581.415814 30.99453 
C 585.848794 31.291588 590.203108 32.314253 594.304845 34.02168 
C 598.406582 35.729107 602.200396 38.098256 605.534762 41.034504 
C 608.869128 43.970753 611.699054 47.434481 613.911514 51.287346 
C 611.598767 45.863311 608.372439 40.876079 604.373184 36.543075 
C 600.373929 32.210071 595.660722 28.595191 590.439041 25.85603 
C 585.21736 23.116868 579.564205 21.293818 573.726032 20.466356 
C 567.887858 19.638894 561.950758 19.819224 556.173566 20.999482 
C 550.396374 22.179741 544.864282 24.342524 539.818468 27.393543 
C 534.772653 30.444562 530.287524 34.338826 526.558614 38.90656 
C 522.829704 43.474293 519.912001 48.648139 517.932705 54.202538 
C 515.953409 59.756937 514.941708 65.609982 514.941708 71.506503 
C 514.941708 77.403024 515.953409 83.256069 517.932705 88.810468 
C 519.912001 94.364868 522.829704 99.538714 526.558614 104.106447 
C 530.287524 108.674181 534.772653 112.568444 539.818468 115.619464 
C 544.864282 118.670483 550.396374 120.833266 556.173566 122.013525 
C 561.950758 123.193783 567.887858 123.374112 573.726032 122.546651 
C 579.564205 121.719189 585.21736 119.896139 590.439041 117.156977 
C 595.660722 114.417815 600.373929 110.802935 604.373184 106.469932 
C 608.372439 102.136928 611.598767 97.149696 613.911514 91.725661 
" style="fill:#c0c0c0;opacity:0.4;"/>
   </g>
   <g id="patch_9">
    <path clip-path="url(#p3685cec25f)" d="M 613.911514 51.287346 
C 616.637092 57.679586 618.042211 64.557439 618.042211 71.506503 
C 618.042211 78.455568 616.637092 85.333421 613.911514 91.725661 
C 617.444431 85.573297 619.303898 78.601084 619.303898 71.506503 
C 619.303898 64.411923 617.444431 57.439709 613.911514 51.287346 
" style="fill:#b2df8a;opacity:0.4;"/>
   </g>
   <g id="patch_10">
    <path clip-path="url(#p3685cec25f)" d="M 613.911514 91.725661 
C 616.637092 85.333421 618.042211 78.455568 618.042211 71.506503 
C 618.042211 64.557439 616.637092 57.679586 613.911514 51.287346 
C 611.699054 47.434481 608.869128 43.970753 605.534762 41.034504 
C 602.200396 38.098256 598.406582 35.729107 594.304845 34.02168 
C 590.203108 32.314253 585.848794 31.291588 581.415814 30.99453 
C 576.982835 30.697471 572.531005 31.130028 568.238131 32.274924 
C 563.945258 33.419819 559.869265 35.261606 556.172948 37.726721 
C 552.476631 40.191836 549.209866 43.247019 546.503127 46.770244 
C 543.796389 50.293469 541.686199 54.237198 540.256839 58.443916 
C 538.827479 62.650635 538.098237 67.063582 538.098237 71.506503 
C 538.098237 75.949425 538.827479 80.362372 540.256839 84.56909 
C 541.686199 88.775809 543.796389 92.719538 546.503127 96.242763 
C 549.209866 99.765988 552.476631 102.82117 556.172948 105.286286 
C 559.869265 107.751401 563.945258 109.593187 568.238131 110.738083 
C 572.531005 111.882979 576.982835 112.315535 581.415814 112.018477 
C 585.848794 111.721419 590.203108 110.698754 594.304845 108.991327 
C 598.406582 107.2839 602.200396 104.914751 605.534762 101.978502 
C 608.869128 99.042254 611.699054 95.578526 613.911514 91.725661 
" style="fill:#ffffe7;opacity:0.4;"/>
   </g>
   <g id="text_11">
    <!-- 456 -->
    <g style="fill:#262626;" transform="translate(516.976222 74.265878)scale(0.1 -0.1)">
     <use xlink:href="#DejaVuSans-34"/>
     <use x="63.623047" xlink:href="#DejaVuSans-35"/>
     <use x="127.246094" xlink:href="#DejaVuSans-36"/>
    </g>
   </g>
   <g id="text_12">
    <!-- 5 -->
    <g style="fill:#262626;" transform="translate(615.491805 74.265878)scale(0.1 -0.1)">
     <use xlink:href="#DejaVuSans-35"/>
    </g>
   </g>
   <g id="text_13">
    <!-- 732 -->
    <g style="fill:#262626;" transform="translate(568.526474 74.265878)scale(0.1 -0.1)">
     <defs>
      <path d="M 525 4666 
L 3525 4666 
L 3525 4397 
L 1831 0 
L 1172 0 
L 2766 4134 
L 525 4134 
L 525 4666 
z
" id="DejaVuSans-37" transform="scale(0.015625)"/>
     </defs>
     <use xlink:href="#DejaVuSans-37"/>
     <use x="63.623047" xlink:href="#DejaVuSans-33"/>
     <use x="127.246094" xlink:href="#DejaVuSans-32"/>
    </g>
   </g>
   <g id="text_14">
    <!-- Bioregistry -->
    <g style="fill:#262626;" transform="translate(501.592585 136.782534)scale(0.12 -0.12)">
     <use xlink:href="#DejaVuSans-42"/>
     <use x="68.603516" xlink:href="#DejaVuSans-69"/>
     <use x="96.386719" xlink:href="#DejaVuSans-6f"/>
     <use x="157.568359" xlink:href="#DejaVuSans-72"/>
     <use x="196.431641" xlink:href="#DejaVuSans-65"/>
     <use x="257.955078" xlink:href="#DejaVuSans-67"/>
     <use x="321.431641" xlink:href="#DejaVuSans-69"/>
     <use x="349.214844" xlink:href="#DejaVuSans-73"/>
     <use x="401.314453" xlink:href="#DejaVuSans-74"/>
     <use x="440.523438" xlink:href="#DejaVuSans-72"/>
     <use x="481.636719" xlink:href="#DejaVuSans-79"/>
    </g>
   </g>
   <g id="text_15">
    <!-- MIRIAM -->
    <g style="fill:#262626;" transform="translate(578.701067 125.835113)scale(0.12 -0.12)">
     <defs>
      <path d="M 628 4666 
L 1569 4666 
L 2759 1491 
L 3956 4666 
L 4897 4666 
L 4897 0 
L 4281 0 
L 4281 4097 
L 3078 897 
L 2444 897 
L 1241 4097 
L 1241 0 
L 628 0 
L 628 4666 
z
" id="DejaVuSans-4d" transform="scale(0.015625)"/>
      <path d="M 628 4666 
L 1259 4666 
L 1259 0 
L 628 0 
L 628 4666 
z
" id="DejaVuSans-49" transform="scale(0.015625)"/>
      <path d="M 2841 2188 
Q 3044 2119 3236 1894 
Q 3428 1669 3622 1275 
L 4263 0 
L 3584 0 
L 2988 1197 
Q 2756 1666 2539 1819 
Q 2322 1972 1947 1972 
L 1259 1972 
L 1259 0 
L 628 0 
L 628 4666 
L 2053 4666 
Q 2853 4666 3247 4331 
Q 3641 3997 3641 3322 
Q 3641 2881 3436 2590 
Q 3231 2300 2841 2188 
z
M 1259 4147 
L 1259 2491 
L 2053 2491 
Q 2509 2491 2742 2702 
Q 2975 2913 2975 3322 
Q 2975 3731 2742 3939 
Q 2509 4147 2053 4147 
L 1259 4147 
z
" id="DejaVuSans-52" transform="scale(0.015625)"/>
      <path d="M 2188 4044 
L 1331 1722 
L 3047 1722 
L 2188 4044 
z
M 1831 4666 
L 2547 4666 
L 4325 0 
L 3669 0 
L 3244 1197 
L 1141 1197 
L 716 0 
L 50 0 
L 1831 4666 
z
" id="DejaVuSans-41" transform="scale(0.015625)"/>
     </defs>
     <use xlink:href="#DejaVuSans-4d"/>
     <use x="86.279297" xlink:href="#DejaVuSans-49"/>
     <use x="115.771484" xlink:href="#DejaVuSans-52"/>
     <use x="185.253906" xlink:href="#DejaVuSans-49"/>
     <use x="214.746094" xlink:href="#DejaVuSans-41"/>
     <use x="283.154297" xlink:href="#DejaVuSans-4d"/>
    </g>
   </g>
  </g>
  <g id="axes_4">
   <g id="patch_11">
    <path clip-path="url(#pae70bbcee6)" d="M 146.295227 230.096056 
C 143.797128 228.017027 141.78685 225.413538 140.407375 222.470765 
C 139.027901 219.527992 138.31273 216.3174 138.31273 213.067344 
C 138.31273 209.817289 139.027901 206.606696 140.407375 203.663924 
C 141.78685 200.721151 143.797128 198.117662 146.295227 196.038632 
C 144.302737 190.415676 141.338729 185.185811 137.538337 180.587477 
C 133.737944 175.989143 129.159816 172.093303 124.012677 169.077574 
C 118.865538 166.061846 113.22882 163.972769 107.359512 162.905588 
C 101.490204 161.838407 95.47888 161.809591 89.599611 162.820454 
C 83.720342 163.831317 78.063854 165.866259 72.88804 168.832503 
C 67.712227 171.798748 63.096959 175.650519 59.252657 180.212207 
C 55.408356 184.773895 52.394345 189.975104 50.34804 195.5787 
C 48.301735 201.182297 47.254715 207.101806 47.254715 213.067344 
C 47.254715 219.032883 48.301735 224.952392 50.34804 230.555988 
C 52.394345 236.159584 55.408356 241.360794 59.252657 245.922482 
C 63.096959 250.48417 67.712227 254.335941 72.88804 257.302185 
C 78.063854 260.268429 83.720342 262.303372 89.599611 263.314235 
C 95.47888 264.325098 101.490204 264.296282 107.359512 263.229101 
C 113.22882 262.16192 118.865538 260.072843 124.012677 257.057114 
C 129.159816 254.041386 133.737944 250.145545 137.538337 245.547212 
C 141.338729 240.948878 144.302737 235.719013 146.295227 230.096056 
" style="fill:#c0c0c0;opacity:0.4;"/>
   </g>
   <g id="patch_12">
    <path clip-path="url(#pae70bbcee6)" d="M 146.295227 196.038632 
C 148.232893 201.506875 149.223089 207.265945 149.223089 213.067344 
C 149.223089 218.868744 148.232893 224.627813 146.295227 230.096056 
C 149.530553 232.78864 153.467207 234.50424 157.642038 235.041015 
C 161.816869 235.57779 166.059472 234.91383 169.870703 233.127252 
C 173.681934 231.340673 176.906227 228.504398 179.164244 224.952117 
C 181.422261 221.399835 182.621835 217.276542 182.621835 213.067344 
C 182.621835 208.858147 181.422261 204.734854 179.164244 201.182572 
C 176.906227 197.630291 173.681934 194.794016 169.870703 193.007437 
C 166.059472 191.220858 161.816869 190.556899 157.642038 191.093674 
C 153.467207 191.630449 149.530553 193.346049 146.295227 196.038632 
" style="fill:#33a02c;opacity:0.4;"/>
   </g>
   <g id="patch_13">
    <path clip-path="url(#pae70bbcee6)" d="M 146.295227 230.096056 
C 148.232893 224.627813 149.223089 218.868744 149.223089 213.067344 
C 149.223089 207.265945 148.232893 201.506875 146.295227 196.038632 
C 143.797128 198.117662 141.78685 200.721151 140.407375 203.663924 
C 139.027901 206.606696 138.31273 209.817289 138.31273 213.067344 
C 138.31273 216.3174 139.027901 219.527992 140.407375 222.470765 
C 141.78685 225.413538 143.797128 228.017027 146.295227 230.096056 
" style="fill:#aaf6a5;opacity:0.4;"/>
   </g>
   <g id="text_16">
    <!-- 1144 -->
    <g style="fill:#262626;" transform="translate(80.058722 215.826719)scale(0.1 -0.1)">
     <defs>
      <path d="M 794 531 
L 1825 531 
L 1825 4091 
L 703 3866 
L 703 4441 
L 1819 4666 
L 2450 4666 
L 2450 531 
L 3481 531 
L 3481 0 
L 794 0 
L 794 531 
z
" id="DejaVuSans-31" transform="scale(0.015625)"/>
     </defs>
     <use xlink:href="#DejaVuSans-31"/>
     <use x="63.623047" xlink:href="#DejaVuSans-31"/>
     <use x="127.246094" xlink:href="#DejaVuSans-34"/>
     <use x="190.869141" xlink:href="#DejaVuSans-34"/>
    </g>
   </g>
   <g id="text_17">
    <!-- 186 -->
    <g style="fill:#262626;" transform="translate(156.378712 215.826719)scale(0.1 -0.1)">
     <defs>
      <path d="M 2034 2216 
Q 1584 2216 1326 1975 
Q 1069 1734 1069 1313 
Q 1069 891 1326 650 
Q 1584 409 2034 409 
Q 2484 409 2743 651 
Q 3003 894 3003 1313 
Q 3003 1734 2745 1975 
Q 2488 2216 2034 2216 
z
M 1403 2484 
Q 997 2584 770 2862 
Q 544 3141 544 3541 
Q 544 4100 942 4425 
Q 1341 4750 2034 4750 
Q 2731 4750 3128 4425 
Q 3525 4100 3525 3541 
Q 3525 3141 3298 2862 
Q 3072 2584 2669 2484 
Q 3125 2378 3379 2068 
Q 3634 1759 3634 1313 
Q 3634 634 3220 271 
Q 2806 -91 2034 -91 
Q 1263 -91 848 271 
Q 434 634 434 1313 
Q 434 1759 690 2068 
Q 947 2378 1403 2484 
z
M 1172 3481 
Q 1172 3119 1398 2916 
Q 1625 2713 2034 2713 
Q 2441 2713 2670 2916 
Q 2900 3119 2900 3481 
Q 2900 3844 2670 4047 
Q 2441 4250 2034 4250 
Q 1625 4250 1398 4047 
Q 1172 3844 1172 3481 
z
" id="DejaVuSans-38" transform="scale(0.015625)"/>
     </defs>
     <use xlink:href="#DejaVuSans-31"/>
     <use x="63.623047" xlink:href="#DejaVuSans-38"/>
     <use x="127.246094" xlink:href="#DejaVuSans-36"/>
    </g>
   </g>
   <g id="text_18">
    <!-- 37 -->
    <g style="fill:#262626;" transform="translate(137.40541 215.826719)scale(0.1 -0.1)">
     <use xlink:href="#DejaVuSans-33"/>
     <use x="63.623047" xlink:href="#DejaVuSans-37"/>
    </g>
   </g>
   <g id="text_19">
    <!-- Bioregistry -->
    <g style="fill:#262626;" transform="translate(33.339527 276.826594)scale(0.12 -0.12)">
     <use xlink:href="#DejaVuSans-42"/>
     <use x="68.603516" xlink:href="#DejaVuSans-69"/>
     <use x="96.386719" xlink:href="#DejaVuSans-6f"/>
     <use x="157.568359" xlink:href="#DejaVuSans-72"/>
     <use x="196.431641" xlink:href="#DejaVuSans-65"/>
     <use x="257.955078" xlink:href="#DejaVuSans-67"/>
     <use x="321.431641" xlink:href="#DejaVuSans-69"/>
     <use x="349.214844" xlink:href="#DejaVuSans-73"/>
     <use x="401.314453" xlink:href="#DejaVuSans-74"/>
     <use x="440.523438" xlink:href="#DejaVuSans-72"/>
     <use x="481.636719" xlink:href="#DejaVuSans-79"/>
    </g>
   </g>
   <g id="text_20">
    <!-- Wikidata -->
    <g style="fill:#262626;" transform="translate(160.467282 247.996959)scale(0.12 -0.12)">
     <defs>
      <path d="M 213 4666 
L 850 4666 
L 1831 722 
L 2809 4666 
L 3519 4666 
L 4500 722 
L 5478 4666 
L 6119 4666 
L 4947 0 
L 4153 0 
L 3169 4050 
L 2175 0 
L 1381 0 
L 213 4666 
z
" id="DejaVuSans-57" transform="scale(0.015625)"/>
      <path d="M 581 4863 
L 1159 4863 
L 1159 1991 
L 2875 3500 
L 3609 3500 
L 1753 1863 
L 3688 0 
L 2938 0 
L 1159 1709 
L 1159 0 
L 581 0 
L 581 4863 
z
" id="DejaVuSans-6b" transform="scale(0.015625)"/>
      <path d="M 2906 2969 
L 2906 4863 
L 3481 4863 
L 3481 0 
L 2906 0 
L 2906 525 
Q 2725 213 2448 61 
Q 2172 -91 1784 -91 
Q 1150 -91 751 415 
Q 353 922 353 1747 
Q 353 2572 751 3078 
Q 1150 3584 1784 3584 
Q 2172 3584 2448 3432 
Q 2725 3281 2906 2969 
z
M 947 1747 
Q 947 1113 1208 752 
Q 1469 391 1925 391 
Q 2381 391 2643 752 
Q 2906 1113 2906 1747 
Q 2906 2381 2643 2742 
Q 2381 3103 1925 3103 
Q 1469 3103 1208 2742 
Q 947 2381 947 1747 
z
" id="DejaVuSans-64" transform="scale(0.015625)"/>
      <path d="M 2194 1759 
Q 1497 1759 1228 1600 
Q 959 1441 959 1056 
Q 959 750 1161 570 
Q 1363 391 1709 391 
Q 2188 391 2477 730 
Q 2766 1069 2766 1631 
L 2766 1759 
L 2194 1759 
z
M 3341 1997 
L 3341 0 
L 2766 0 
L 2766 531 
Q 2569 213 2275 61 
Q 1981 -91 1556 -91 
Q 1019 -91 701 211 
Q 384 513 384 1019 
Q 384 1609 779 1909 
Q 1175 2209 1959 2209 
L 2766 2209 
L 2766 2266 
Q 2766 2663 2505 2880 
Q 2244 3097 1772 3097 
Q 1472 3097 1187 3025 
Q 903 2953 641 2809 
L 641 3341 
Q 956 3463 1253 3523 
Q 1550 3584 1831 3584 
Q 2591 3584 2966 3190 
Q 3341 2797 3341 1997 
z
" id="DejaVuSans-61" transform="scale(0.015625)"/>
     </defs>
     <use xlink:href="#DejaVuSans-57"/>
     <use x="96.626953" xlink:href="#DejaVuSans-69"/>
     <use x="124.410156" xlink:href="#DejaVuSans-6b"/>
     <use x="182.320312" xlink:href="#DejaVuSans-69"/>
     <use x="210.103516" xlink:href="#DejaVuSans-64"/>
     <use x="273.580078" xlink:href="#DejaVuSans-61"/>
     <use x="334.859375" xlink:href="#DejaVuSans-74"/>
     <use x="374.068359" xlink:href="#DejaVuSans-61"/>
    </g>
   </g>
  </g>
  <g id="axes_5">
   <g id="patch_14">
    <path clip-path="url(#p0c08f0a492)" d="M 385.873484 236.466548 
C 383.430263 239.743123 380.488864 242.616911 377.156369 244.98329 
C 373.823874 247.34967 370.141221 249.179573 366.242475 250.406381 
C 362.34373 251.63319 358.276786 252.241833 354.1897 252.210155 
C 350.102614 252.178476 346.045593 251.506864 342.166333 250.219768 
C 338.287073 248.932673 334.633227 247.045905 331.337814 244.628153 
C 328.0424 242.210401 325.145901 239.291364 322.753763 235.97731 
C 320.361626 232.663257 318.503234 228.994897 317.246245 225.105777 
C 315.989255 221.216658 315.349108 217.154553 315.349108 213.067344 
C 315.349108 208.980136 315.989255 204.918031 317.246245 201.028912 
C 318.503234 197.139792 320.361626 193.471432 322.753763 190.157378 
C 325.145901 186.843325 328.0424 183.924288 331.337814 181.506536 
C 334.633227 179.088784 338.287073 177.202016 342.166333 175.91492 
C 346.045593 174.627825 350.102614 173.956213 354.1897 173.924534 
C 358.276786 173.892855 362.34373 174.501499 366.242475 175.728307 
C 370.141221 176.955116 373.823874 178.785019 377.156369 181.151398 
C 380.488864 183.517778 383.430263 186.391565 385.873484 189.66814 
C 383.264019 184.547674 379.816294 179.8996 375.673271 175.916655 
C 371.530249 171.93371 366.749996 168.671718 361.530732 166.26594 
C 356.311468 163.860163 350.726343 162.344319 345.00695 161.781263 
C 339.287557 161.218208 333.514057 161.615834 327.925855 162.957652 
C 322.337652 164.29947 317.013069 166.566674 312.172894 169.665253 
C 307.332719 172.763832 303.04479 176.650357 299.486912 181.163669 
C 295.929033 185.676981 293.15107 190.753823 291.268214 196.18368 
C 289.385358 201.613536 288.423998 207.320303 288.423998 213.067344 
C 288.423998 218.814386 289.385358 224.521153 291.268214 229.951009 
C 293.15107 235.380865 295.929033 240.457708 299.486912 244.97102 
C 303.04479 249.484332 307.332719 253.370856 312.172894 256.469435 
C 317.013069 259.568014 322.337652 261.835219 327.925855 263.177037 
C 333.514057 264.518855 339.287557 264.916481 345.00695 264.353425 
C 350.726343 263.79037 356.311468 262.274526 361.530732 259.868748 
C 366.749996 257.462971 371.530249 254.200979 375.673271 250.218034 
C 379.816294 246.235089 383.264019 241.587015 385.873484 236.466548 
" style="fill:#c0c0c0;opacity:0.4;"/>
   </g>
   <g id="patch_15">
    <path clip-path="url(#p0c08f0a492)" d="M 385.873484 189.66814 
C 389.566503 196.914827 391.492013 204.933904 391.492013 213.067344 
C 391.492013 221.200785 389.566503 229.219862 385.873484 236.466548 
C 390.913266 229.707759 393.63708 221.498278 393.63708 213.067344 
C 393.63708 204.636411 390.913266 196.42693 385.873484 189.66814 
" style="fill:#fb9a99;opacity:0.4;"/>
   </g>
   <g id="patch_16">
    <path clip-path="url(#p0c08f0a492)" d="M 385.873484 236.466548 
C 389.566503 229.219862 391.492013 221.200785 391.492013 213.067344 
C 391.492013 204.933904 389.566503 196.914827 385.873484 189.66814 
C 383.430263 186.391565 380.488864 183.517778 377.156369 181.151398 
C 373.823874 178.785019 370.141221 176.955116 366.242475 175.728307 
C 362.34373 174.501499 358.276786 173.892855 354.1897 173.924534 
C 350.102614 173.956213 346.045593 174.627825 342.166333 175.91492 
C 338.287073 177.202016 334.633227 179.088784 331.337814 181.506536 
C 328.0424 183.924288 325.145901 186.843325 322.753763 190.157378 
C 320.361626 193.471432 318.503234 197.139792 317.246245 201.028912 
C 315.989255 204.918031 315.349108 208.980136 315.349108 213.067344 
C 315.349108 217.154553 315.989255 221.216658 317.246245 225.105777 
C 318.503234 228.994897 320.361626 232.663257 322.753763 235.97731 
C 325.145901 239.291364 328.0424 242.210401 331.337814 244.628153 
C 334.633227 247.045905 338.287073 248.932673 342.166333 250.219768 
C 346.045593 251.506864 350.102614 252.178476 354.1897 252.210155 
C 358.276786 252.241833 362.34373 251.63319 366.242475 250.406381 
C 370.141221 249.179573 373.823874 247.34967 377.156369 244.98329 
C 380.488864 242.616911 383.430263 239.743123 385.873484 236.466548 
" style="fill:#fff2f2;opacity:0.4;"/>
   </g>
   <g id="text_21">
    <!-- 513 -->
    <g style="fill:#262626;" transform="translate(292.342803 215.826719)scale(0.1 -0.1)">
     <use xlink:href="#DejaVuSans-35"/>
     <use x="63.623047" xlink:href="#DejaVuSans-31"/>
     <use x="127.246094" xlink:href="#DejaVuSans-33"/>
    </g>
   </g>
   <g id="text_22">
    <!-- 10 -->
    <g style="fill:#262626;" transform="translate(386.202047 215.826719)scale(0.1 -0.1)">
     <defs>
      <path d="M 2034 4250 
Q 1547 4250 1301 3770 
Q 1056 3291 1056 2328 
Q 1056 1369 1301 889 
Q 1547 409 2034 409 
Q 2525 409 2770 889 
Q 3016 1369 3016 2328 
Q 3016 3291 2770 3770 
Q 2525 4250 2034 4250 
z
M 2034 4750 
Q 2819 4750 3233 4129 
Q 3647 3509 3647 2328 
Q 3647 1150 3233 529 
Q 2819 -91 2034 -91 
Q 1250 -91 836 529 
Q 422 1150 422 2328 
Q 422 3509 836 4129 
Q 1250 4750 2034 4750 
z
" id="DejaVuSans-30" transform="scale(0.015625)"/>
     </defs>
     <use xlink:href="#DejaVuSans-31"/>
     <use x="63.623047" xlink:href="#DejaVuSans-30"/>
    </g>
   </g>
   <g id="text_23">
    <!-- 676 -->
    <g style="fill:#262626;" transform="translate(343.876811 215.826719)scale(0.1 -0.1)">
     <use xlink:href="#DejaVuSans-36"/>
     <use x="63.623047" xlink:href="#DejaVuSans-37"/>
     <use x="127.246094" xlink:href="#DejaVuSans-36"/>
    </g>
   </g>
   <g id="text_24">
    <!-- Bioregistry -->
    <g style="fill:#262626;" transform="translate(275.058631 278.253377)scale(0.12 -0.12)">
     <use xlink:href="#DejaVuSans-42"/>
     <use x="68.603516" xlink:href="#DejaVuSans-69"/>
     <use x="96.386719" xlink:href="#DejaVuSans-6f"/>
     <use x="157.568359" xlink:href="#DejaVuSans-72"/>
     <use x="196.431641" xlink:href="#DejaVuSans-65"/>
     <use x="257.955078" xlink:href="#DejaVuSans-67"/>
     <use x="321.431641" xlink:href="#DejaVuSans-69"/>
     <use x="349.214844" xlink:href="#DejaVuSans-73"/>
     <use x="401.314453" xlink:href="#DejaVuSans-74"/>
     <use x="440.523438" xlink:href="#DejaVuSans-72"/>
     <use x="481.636719" xlink:href="#DejaVuSans-79"/>
    </g>
   </g>
   <g id="text_25">
    <!-- N2T -->
    <g style="fill:#262626;" transform="translate(354.493094 265.863355)scale(0.12 -0.12)">
     <defs>
      <path d="M 628 4666 
L 1478 4666 
L 3547 763 
L 3547 4666 
L 4159 4666 
L 4159 0 
L 3309 0 
L 1241 3903 
L 1241 0 
L 628 0 
L 628 4666 
z
" id="DejaVuSans-4e" transform="scale(0.015625)"/>
      <path d="M -19 4666 
L 3928 4666 
L 3928 4134 
L 2272 4134 
L 2272 0 
L 1638 0 
L 1638 4134 
L -19 4134 
L -19 4666 
z
" id="DejaVuSans-54" transform="scale(0.015625)"/>
     </defs>
     <use xlink:href="#DejaVuSans-4e"/>
     <use x="74.804688" xlink:href="#DejaVuSans-32"/>
     <use x="138.427734" xlink:href="#DejaVuSans-54"/>
    </g>
   </g>
  </g>
  <g id="axes_6">
   <g id="patch_17">
    <path clip-path="url(#pf6017c3795)" d="M 602.024363 236.796671 
C 596.218769 236.104902 590.864195 233.306039 586.982254 228.934083 
C 583.100313 224.562126 580.954655 218.914007 580.954655 213.067344 
C 580.954655 207.220682 583.100313 201.572562 586.982254 197.200606 
C 590.864195 192.82865 596.218769 190.029786 602.024363 189.338018 
C 599.388823 184.301449 595.93251 179.738971 591.797596 175.838256 
C 587.662681 171.937541 582.906648 168.752818 577.725133 166.415086 
C 572.543617 164.077355 567.008652 162.619114 561.347912 162.100347 
C 555.687172 161.58158 549.979353 162.0095 544.459241 163.366503 
C 538.939129 164.723507 533.683464 166.990729 528.908434 170.07491 
C 524.133403 173.159092 519.905388 177.017356 516.398305 181.490997 
C 512.891222 185.964638 510.153826 190.991463 508.298718 196.364699 
C 506.443609 201.737935 505.496577 207.382884 505.496577 213.067344 
C 505.496577 218.751805 506.443609 224.396753 508.298718 229.769989 
C 510.153826 235.143225 512.891222 240.170051 516.398305 244.643692 
C 519.905388 249.117333 524.133403 252.975597 528.908434 256.059778 
C 533.683464 259.14396 538.939129 261.411182 544.459241 262.768186 
C 549.979353 264.125189 555.687172 264.553108 561.347912 264.034342 
C 567.008652 263.515575 572.543617 262.057334 577.725133 259.719603 
C 582.906648 257.381871 587.662681 254.197147 591.797596 250.296433 
C 595.93251 246.395718 599.388823 241.833239 602.024363 236.796671 
" style="fill:#c0c0c0;opacity:0.4;"/>
   </g>
   <g id="patch_18">
    <path clip-path="url(#pf6017c3795)" d="M 602.024363 189.338018 
C 605.85602 196.660391 607.857719 204.80304 607.857719 213.067344 
C 607.857719 221.331649 605.85602 229.474298 602.024363 236.796671 
C 605.377407 237.196204 608.777369 236.880541 611.999548 235.870543 
C 615.221727 234.860545 618.19354 233.178963 620.71858 230.936933 
C 623.243621 228.694902 625.265011 225.942927 626.649158 222.862883 
C 628.033305 219.782839 628.74903 216.444108 628.74903 213.067344 
C 628.74903 209.690581 628.033305 206.35185 626.649158 203.271806 
C 625.265011 200.191762 623.243621 197.439787 620.71858 195.197756 
C 618.19354 192.955726 615.221727 191.274144 611.999548 190.264146 
C 608.777369 189.254148 605.377407 188.938484 602.024363 189.338018 
" style="fill:#e31a1c;opacity:0.4;"/>
   </g>
   <g id="patch_19">
    <path clip-path="url(#pf6017c3795)" d="M 602.024363 236.796671 
C 605.85602 229.474298 607.857719 221.331649 607.857719 213.067344 
C 607.857719 204.80304 605.85602 196.660391 602.024363 189.338018 
C 596.218769 190.029786 590.864195 192.82865 586.982254 197.200606 
C 583.100313 201.572562 580.954655 207.220682 580.954655 213.067344 
C 580.954655 218.914007 583.100313 224.562126 586.982254 228.934083 
C 590.864195 233.306039 596.218769 236.104902 602.024363 236.796671 
" style="fill:#ff999a;opacity:0.4;"/>
   </g>
   <g id="text_26">
    <!-- 1051 -->
    <g style="fill:#262626;" transform="translate(530.500616 215.826719)scale(0.1 -0.1)">
     <use xlink:href="#DejaVuSans-31"/>
     <use x="63.623047" xlink:href="#DejaVuSans-30"/>
     <use x="127.246094" xlink:href="#DejaVuSans-35"/>
     <use x="190.869141" xlink:href="#DejaVuSans-31"/>
    </g>
   </g>
   <g id="text_27">
    <!-- 122 -->
    <g style="fill:#262626;" transform="translate(608.759624 215.826719)scale(0.1 -0.1)">
     <use xlink:href="#DejaVuSans-31"/>
     <use x="63.623047" xlink:href="#DejaVuSans-32"/>
     <use x="127.246094" xlink:href="#DejaVuSans-32"/>
    </g>
   </g>
   <g id="text_28">
    <!-- 137 -->
    <g style="fill:#262626;" transform="translate(584.862437 215.826719)scale(0.1 -0.1)">
     <use xlink:href="#DejaVuSans-31"/>
     <use x="63.623047" xlink:href="#DejaVuSans-33"/>
     <use x="127.246094" xlink:href="#DejaVuSans-37"/>
    </g>
   </g>
   <g id="text_29">
    <!-- Bioregistry -->
    <g style="fill:#262626;" transform="translate(491.777773 277.119928)scale(0.12 -0.12)">
     <use xlink:href="#DejaVuSans-42"/>
     <use x="68.603516" xlink:href="#DejaVuSans-69"/>
     <use x="96.386719" xlink:href="#DejaVuSans-6f"/>
     <use x="157.568359" xlink:href="#DejaVuSans-72"/>
     <use x="196.431641" xlink:href="#DejaVuSans-65"/>
     <use x="257.955078" xlink:href="#DejaVuSans-67"/>
     <use x="321.431641" xlink:href="#DejaVuSans-69"/>
     <use x="349.214844" xlink:href="#DejaVuSans-73"/>
     <use x="401.314453" xlink:href="#DejaVuSans-74"/>
     <use x="440.523438" xlink:href="#DejaVuSans-72"/>
     <use x="481.636719" xlink:href="#DejaVuSans-79"/>
    </g>
   </g>
   <g id="text_30">
    <!-- GO -->
    <g style="fill:#262626;" transform="translate(604.851842 249.836545)scale(0.12 -0.12)">
     <defs>
      <path d="M 3809 666 
L 3809 1919 
L 2778 1919 
L 2778 2438 
L 4434 2438 
L 4434 434 
Q 4069 175 3628 42 
Q 3188 -91 2688 -91 
Q 1594 -91 976 548 
Q 359 1188 359 2328 
Q 359 3472 976 4111 
Q 1594 4750 2688 4750 
Q 3144 4750 3555 4637 
Q 3966 4525 4313 4306 
L 4313 3634 
Q 3963 3931 3569 4081 
Q 3175 4231 2741 4231 
Q 1884 4231 1454 3753 
Q 1025 3275 1025 2328 
Q 1025 1384 1454 906 
Q 1884 428 2741 428 
Q 3075 428 3337 486 
Q 3600 544 3809 666 
z
" id="DejaVuSans-47" transform="scale(0.015625)"/>
     </defs>
     <use xlink:href="#DejaVuSans-47"/>
     <use x="77.490234" xlink:href="#DejaVuSans-4f"/>
    </g>
   </g>
  </g>
  <g id="axes_7">
   <g id="patch_20">
    <path clip-path="url(#paf5a0ba29f)" d="M 123.58547 391.427326 
C 117.325762 387.541191 112.159932 382.121359 108.578498 375.682468 
C 104.997065 369.243576 103.117092 361.996088 103.117092 354.628185 
C 103.117092 347.260283 104.997065 340.012794 108.578498 333.573903 
C 112.159932 327.135011 117.325762 321.715179 123.58547 317.829045 
C 116.449711 311.310997 107.569803 307.007103 98.03246 305.444067 
C 88.495117 303.88103 78.705939 305.125324 69.862915 309.024673 
C 61.01989 312.924023 53.499093 319.312597 48.220909 327.408569 
C 42.942726 335.504542 40.131624 344.963611 40.131624 354.628185 
C 40.131624 364.29276 42.942726 373.751828 48.220909 381.847801 
C 53.499093 389.943774 61.01989 396.332348 69.862915 400.231697 
C 78.705939 404.131047 88.495117 405.375341 98.03246 403.812304 
C 107.569803 402.249268 116.449711 397.945373 123.58547 391.427326 
" style="fill:#c0c0c0;opacity:0.4;"/>
   </g>
   <g id="patch_21">
    <path clip-path="url(#paf5a0ba29f)" d="M 123.58547 317.829045 
C 128.697984 322.49899 132.781644 328.183518 135.575387 334.519225 
C 138.369129 340.854932 139.812125 347.703867 139.812125 354.628185 
C 139.812125 361.552504 138.369129 368.401438 135.575387 374.737145 
C 132.781644 381.072852 128.697984 386.757381 123.58547 391.427326 
C 130.144367 395.499202 137.67416 397.74445 145.391997 397.929638 
C 153.109834 398.114827 160.738647 396.233307 167.485292 392.480696 
C 174.231936 388.728085 179.854209 383.2391 183.767579 376.584414 
C 187.680948 369.929728 189.744926 362.348244 189.744926 354.628185 
C 189.744926 346.908127 187.680948 339.326642 183.767579 332.671957 
C 179.854209 326.017271 174.231936 320.528286 167.485292 316.775674 
C 160.738647 313.023063 153.109834 311.141544 145.391997 311.326732 
C 137.67416 311.511921 130.144367 313.757169 123.58547 317.829045 
" style="fill:#fdbf6f;opacity:0.4;"/>
   </g>
   <g id="patch_22">
    <path clip-path="url(#paf5a0ba29f)" d="M 123.58547 391.427326 
C 128.697984 386.757381 132.781644 381.072852 135.575387 374.737145 
C 138.369129 368.401438 139.812125 361.552504 139.812125 354.628185 
C 139.812125 347.703867 138.369129 340.854932 135.575387 334.519225 
C 132.781644 328.183518 128.697984 322.49899 123.58547 317.829045 
C 117.325762 321.715179 112.159932 327.135011 108.578498 333.573903 
C 104.997065 340.012794 103.117092 347.260283 103.117092 354.628185 
C 103.117092 361.996088 104.997065 369.243576 108.578498 375.682468 
C 112.159932 382.121359 117.325762 387.541191 123.58547 391.427326 
" style="fill:#ffffd4;opacity:0.4;"/>
   </g>
   <g id="text_31">
    <!-- 901 -->
    <g style="fill:#262626;" transform="translate(62.080608 357.38756)scale(0.1 -0.1)">
     <use xlink:href="#DejaVuSans-39"/>
     <use x="63.623047" xlink:href="#DejaVuSans-30"/>
     <use x="127.246094" xlink:href="#DejaVuSans-31"/>
    </g>
   </g>
   <g id="text_32">
    <!-- 610 -->
    <g style="fill:#262626;" transform="translate(155.234776 357.38756)scale(0.1 -0.1)">
     <use xlink:href="#DejaVuSans-36"/>
     <use x="63.623047" xlink:href="#DejaVuSans-31"/>
     <use x="127.246094" xlink:href="#DejaVuSans-30"/>
    </g>
   </g>
   <g id="text_33">
    <!-- 288 -->
    <g style="fill:#262626;" transform="translate(111.920859 357.38756)scale(0.1 -0.1)">
     <use xlink:href="#DejaVuSans-32"/>
     <use x="63.623047" xlink:href="#DejaVuSans-38"/>
     <use x="127.246094" xlink:href="#DejaVuSans-38"/>
    </g>
   </g>
   <g id="text_34">
    <!-- Bioregistry -->
    <g style="fill:#262626;" transform="translate(25.0725 418.244269)scale(0.12 -0.12)">
     <use xlink:href="#DejaVuSans-42"/>
     <use x="68.603516" xlink:href="#DejaVuSans-69"/>
     <use x="96.386719" xlink:href="#DejaVuSans-6f"/>
     <use x="157.568359" xlink:href="#DejaVuSans-72"/>
     <use x="196.431641" xlink:href="#DejaVuSans-65"/>
     <use x="257.955078" xlink:href="#DejaVuSans-67"/>
     <use x="321.431641" xlink:href="#DejaVuSans-69"/>
     <use x="349.214844" xlink:href="#DejaVuSans-73"/>
     <use x="401.314453" xlink:href="#DejaVuSans-74"/>
     <use x="440.523438" xlink:href="#DejaVuSans-72"/>
     <use x="481.636719" xlink:href="#DejaVuSans-79"/>
    </g>
   </g>
   <g id="text_35">
    <!-- BioPortal -->
    <g style="fill:#262626;" transform="translate(146.431009 411.717935)scale(0.12 -0.12)">
     <defs>
      <path d="M 1259 4147 
L 1259 2394 
L 2053 2394 
Q 2494 2394 2734 2622 
Q 2975 2850 2975 3272 
Q 2975 3691 2734 3919 
Q 2494 4147 2053 4147 
L 1259 4147 
z
M 628 4666 
L 2053 4666 
Q 2838 4666 3239 4311 
Q 3641 3956 3641 3272 
Q 3641 2581 3239 2228 
Q 2838 1875 2053 1875 
L 1259 1875 
L 1259 0 
L 628 0 
L 628 4666 
z
" id="DejaVuSans-50" transform="scale(0.015625)"/>
      <path d="M 603 4863 
L 1178 4863 
L 1178 0 
L 603 0 
L 603 4863 
z
" id="DejaVuSans-6c" transform="scale(0.015625)"/>
     </defs>
     <use xlink:href="#DejaVuSans-42"/>
     <use x="68.603516" xlink:href="#DejaVuSans-69"/>
     <use x="96.386719" xlink:href="#DejaVuSans-6f"/>
     <use x="157.568359" xlink:href="#DejaVuSans-50"/>
     <use x="214.246094" xlink:href="#DejaVuSans-6f"/>
     <use x="275.427734" xlink:href="#DejaVuSans-72"/>
     <use x="316.541016" xlink:href="#DejaVuSans-74"/>
     <use x="355.75" xlink:href="#DejaVuSans-61"/>
     <use x="417.029297" xlink:href="#DejaVuSans-6c"/>
    </g>
   </g>
  </g>
  <g id="axes_8">
   <g id="patch_23">
    <path clip-path="url(#p06a17c40dd)" d="M 359.645964 399.81088 
C 353.057021 400.957416 346.296336 400.648907 339.839199 398.907044 
C 333.382062 397.16518 327.383419 394.03176 322.264988 389.727068 
C 317.146556 385.422377 313.031159 380.049711 310.208117 373.986779 
C 307.385074 367.923847 305.922129 361.316138 305.922129 354.628185 
C 305.922129 347.940233 307.385074 341.332523 310.208117 335.269591 
C 313.031159 329.20666 317.146556 323.833994 322.264988 319.529302 
C 327.383419 315.224611 333.382062 312.091191 339.839199 310.349327 
C 346.296336 308.607464 353.057021 308.298955 359.645964 309.44549 
C 351.847446 305.294991 343.105599 303.233369 334.274333 303.462005 
C 325.443067 303.690641 316.819608 306.20184 309.246301 310.750306 
C 301.672993 315.298772 295.404725 321.731422 291.053785 329.41991 
C 286.702845 337.108398 284.415669 345.79396 284.415669 354.628185 
C 284.415669 363.46241 286.702845 372.147972 291.053785 379.836461 
C 295.404725 387.524949 301.672993 393.957599 309.246301 398.506065 
C 316.819608 403.054531 325.443067 405.56573 334.274333 405.794365 
C 343.105599 406.023001 351.847446 403.961379 359.645964 399.81088 
" style="fill:#c0c0c0;opacity:0.4;"/>
   </g>
   <g id="patch_24">
    <path clip-path="url(#p06a17c40dd)" d="M 359.645964 309.44549 
C 367.841031 313.807039 374.697121 320.317088 379.476873 328.275493 
C 384.256625 336.233897 386.782318 345.344746 386.782318 354.628185 
C 386.782318 363.911624 384.256625 373.022473 379.476873 380.980878 
C 374.697121 388.939283 367.841031 395.449331 359.645964 399.81088 
C 370.283451 397.959862 379.932964 392.410394 386.882652 384.146967 
C 393.83234 375.883539 397.645409 365.425518 397.645409 354.628185 
C 397.645409 343.830853 393.83234 333.372831 386.882652 325.109404 
C 379.932964 316.845977 370.283451 311.296509 359.645964 309.44549 
" style="fill:#ff7f00;opacity:0.4;"/>
   </g>
   <g id="patch_25">
    <path clip-path="url(#p06a17c40dd)" d="M 359.645964 399.81088 
C 367.841031 395.449331 374.697121 388.939283 379.476873 380.980878 
C 384.256625 373.022473 386.782318 363.911624 386.782318 354.628185 
C 386.782318 345.344746 384.256625 336.233897 379.476873 328.275493 
C 374.697121 320.317088 367.841031 313.807039 359.645964 309.44549 
C 353.057021 308.298955 346.296336 308.607464 339.839199 310.349327 
C 333.382062 312.091191 327.383419 315.224611 322.264988 319.529302 
C 317.146556 323.833994 313.031159 329.20666 310.208117 335.269591 
C 307.385074 341.332523 305.922129 347.940233 305.922129 354.628185 
C 305.922129 361.316138 307.385074 367.923847 310.208117 373.986779 
C 313.031159 380.049711 317.146556 385.422377 322.264988 389.727068 
C 327.383419 394.03176 333.382062 397.16518 339.839199 398.907044 
C 346.296336 400.648907 353.057021 400.957416 359.645964 399.81088 
" style="fill:#ffdf86;opacity:0.4;"/>
   </g>
   <g id="text_36">
    <!-- 355 -->
    <g style="fill:#262626;" transform="translate(285.625149 357.38756)scale(0.1 -0.1)">
     <use xlink:href="#DejaVuSans-33"/>
     <use x="63.623047" xlink:href="#DejaVuSans-35"/>
     <use x="127.246094" xlink:href="#DejaVuSans-35"/>
    </g>
   </g>
   <g id="text_37">
    <!-- 121 -->
    <g style="fill:#262626;" transform="translate(382.670114 357.38756)scale(0.1 -0.1)">
     <use xlink:href="#DejaVuSans-31"/>
     <use x="63.623047" xlink:href="#DejaVuSans-32"/>
     <use x="127.246094" xlink:href="#DejaVuSans-31"/>
    </g>
   </g>
   <g id="text_38">
    <!-- 832 -->
    <g style="fill:#262626;" transform="translate(336.808473 357.38756)scale(0.1 -0.1)">
     <use xlink:href="#DejaVuSans-38"/>
     <use x="63.623047" xlink:href="#DejaVuSans-33"/>
     <use x="127.246094" xlink:href="#DejaVuSans-32"/>
    </g>
   </g>
   <g id="text_39">
    <!-- Bioregistry -->
    <g style="fill:#262626;" transform="translate(270.699619 419.781883)scale(0.12 -0.12)">
     <use xlink:href="#DejaVuSans-42"/>
     <use x="68.603516" xlink:href="#DejaVuSans-69"/>
     <use x="96.386719" xlink:href="#DejaVuSans-6f"/>
     <use x="157.568359" xlink:href="#DejaVuSans-72"/>
     <use x="196.431641" xlink:href="#DejaVuSans-65"/>
     <use x="257.955078" xlink:href="#DejaVuSans-67"/>
     <use x="321.431641" xlink:href="#DejaVuSans-69"/>
     <use x="349.214844" xlink:href="#DejaVuSans-73"/>
     <use x="401.314453" xlink:href="#DejaVuSans-74"/>
     <use x="440.523438" xlink:href="#DejaVuSans-72"/>
     <use x="481.636719" xlink:href="#DejaVuSans-79"/>
    </g>
   </g>
   <g id="text_40">
    <!-- Prefix Commons -->
    <g style="fill:#262626;" transform="translate(351.783769 414.460199)scale(0.12 -0.12)">
     <defs>
      <path d="M 2375 4863 
L 2375 4384 
L 1825 4384 
Q 1516 4384 1395 4259 
Q 1275 4134 1275 3809 
L 1275 3500 
L 2222 3500 
L 2222 3053 
L 1275 3053 
L 1275 0 
L 697 0 
L 697 3053 
L 147 3053 
L 147 3500 
L 697 3500 
L 697 3744 
Q 697 4328 969 4595 
Q 1241 4863 1831 4863 
L 2375 4863 
z
" id="DejaVuSans-66" transform="scale(0.015625)"/>
      <path d="M 3513 3500 
L 2247 1797 
L 3578 0 
L 2900 0 
L 1881 1375 
L 863 0 
L 184 0 
L 1544 1831 
L 300 3500 
L 978 3500 
L 1906 2253 
L 2834 3500 
L 3513 3500 
z
" id="DejaVuSans-78" transform="scale(0.015625)"/>
      <path id="DejaVuSans-20" transform="scale(0.015625)"/>
      <path d="M 4122 4306 
L 4122 3641 
Q 3803 3938 3442 4084 
Q 3081 4231 2675 4231 
Q 1875 4231 1450 3742 
Q 1025 3253 1025 2328 
Q 1025 1406 1450 917 
Q 1875 428 2675 428 
Q 3081 428 3442 575 
Q 3803 722 4122 1019 
L 4122 359 
Q 3791 134 3420 21 
Q 3050 -91 2638 -91 
Q 1578 -91 968 557 
Q 359 1206 359 2328 
Q 359 3453 968 4101 
Q 1578 4750 2638 4750 
Q 3056 4750 3426 4639 
Q 3797 4528 4122 4306 
z
" id="DejaVuSans-43" transform="scale(0.015625)"/>
      <path d="M 3328 2828 
Q 3544 3216 3844 3400 
Q 4144 3584 4550 3584 
Q 5097 3584 5394 3201 
Q 5691 2819 5691 2113 
L 5691 0 
L 5113 0 
L 5113 2094 
Q 5113 2597 4934 2840 
Q 4756 3084 4391 3084 
Q 3944 3084 3684 2787 
Q 3425 2491 3425 1978 
L 3425 0 
L 2847 0 
L 2847 2094 
Q 2847 2600 2669 2842 
Q 2491 3084 2119 3084 
Q 1678 3084 1418 2786 
Q 1159 2488 1159 1978 
L 1159 0 
L 581 0 
L 581 3500 
L 1159 3500 
L 1159 2956 
Q 1356 3278 1631 3431 
Q 1906 3584 2284 3584 
Q 2666 3584 2933 3390 
Q 3200 3197 3328 2828 
z
" id="DejaVuSans-6d" transform="scale(0.015625)"/>
      <path d="M 3513 2113 
L 3513 0 
L 2938 0 
L 2938 2094 
Q 2938 2591 2744 2837 
Q 2550 3084 2163 3084 
Q 1697 3084 1428 2787 
Q 1159 2491 1159 1978 
L 1159 0 
L 581 0 
L 581 3500 
L 1159 3500 
L 1159 2956 
Q 1366 3272 1645 3428 
Q 1925 3584 2291 3584 
Q 2894 3584 3203 3211 
Q 3513 2838 3513 2113 
z
" id="DejaVuSans-6e" transform="scale(0.015625)"/>
     </defs>
     <use xlink:href="#DejaVuSans-50"/>
     <use x="58.552734" xlink:href="#DejaVuSans-72"/>
     <use x="97.416016" xlink:href="#DejaVuSans-65"/>
     <use x="158.939453" xlink:href="#DejaVuSans-66"/>
     <use x="194.144531" xlink:href="#DejaVuSans-69"/>
     <use x="221.927734" xlink:href="#DejaVuSans-78"/>
     <use x="281.107422" xlink:href="#DejaVuSans-20"/>
     <use x="312.894531" xlink:href="#DejaVuSans-43"/>
     <use x="382.71875" xlink:href="#DejaVuSans-6f"/>
     <use x="443.900391" xlink:href="#DejaVuSans-6d"/>
     <use x="541.3125" xlink:href="#DejaVuSans-6d"/>
     <use x="638.724609" xlink:href="#DejaVuSans-6f"/>
     <use x="699.90625" xlink:href="#DejaVuSans-6e"/>
     <use x="763.285156" xlink:href="#DejaVuSans-73"/>
    </g>
   </g>
  </g>
  <g id="axes_9">
   <g id="patch_26">
    <path clip-path="url(#p94eda72887)" d="M 609.706548 369.8343 
C 605.703205 369.791627 601.874348 368.169682 599.058523 365.323683 
C 596.242699 362.477683 594.661657 358.631756 594.661657 354.628185 
C 594.661657 350.624615 596.242699 346.778687 599.058523 343.932688 
C 601.874348 341.086689 605.703205 339.464744 609.706548 339.422071 
C 607.901572 333.591695 605.072827 328.128998 601.352987 323.290195 
C 597.633148 318.451392 593.081295 314.313337 587.910925 311.070116 
C 582.740554 307.826894 577.033784 305.530018 571.058279 304.287216 
C 565.082774 303.044415 558.93344 302.875427 552.898699 303.788179 
C 546.863958 304.700932 541.039657 306.680927 535.698972 309.635298 
C 530.358288 312.589668 525.586044 316.471492 521.606072 321.098699 
C 517.626101 325.725906 514.501614 331.025004 512.37916 336.747452 
C 510.256705 342.469899 509.169993 348.524808 509.169993 354.628185 
C 509.169993 360.731563 510.256705 366.786472 512.37916 372.508919 
C 514.501614 378.231366 517.626101 383.530465 521.606072 388.157672 
C 525.586044 392.784879 530.358288 396.666702 535.698972 399.621073 
C 541.039657 402.575444 546.863958 404.555439 552.898699 405.468191 
C 558.93344 406.380943 565.082774 406.211956 571.058279 404.969154 
C 577.033784 403.726353 582.740554 401.429476 587.910925 398.186255 
C 593.081295 394.943034 597.633148 390.804978 601.352987 385.966175 
C 605.072827 381.127373 607.901572 375.664675 609.706548 369.8343 
" style="fill:#c0c0c0;opacity:0.4;"/>
   </g>
   <g id="patch_27">
    <path clip-path="url(#p94eda72887)" d="M 609.706548 339.422071 
C 611.231145 344.346777 612.006467 349.472885 612.006467 354.628185 
C 612.006467 359.783486 611.231145 364.909594 609.706548 369.8343 
C 611.717034 369.85573 613.711951 369.478223 615.575595 368.723674 
C 617.439239 367.969125 619.134867 366.852409 620.564133 365.438297 
C 621.993398 364.024186 623.128123 362.340556 623.902494 360.485061 
C 624.676864 358.629566 625.075613 356.638785 625.075613 354.628185 
C 625.075613 352.617585 624.676864 350.626805 623.902494 348.771309 
C 623.128123 346.915814 621.993398 345.232185 620.564133 343.818073 
C 619.134867 342.403962 617.439239 341.287246 615.575595 340.532697 
C 613.711951 339.778148 611.717034 339.40064 609.706548 339.422071 
" style="fill:#cab2d6;opacity:0.4;"/>
   </g>
   <g id="patch_28">
    <path clip-path="url(#p94eda72887)" d="M 609.706548 369.8343 
C 611.231145 364.909594 612.006467 359.783486 612.006467 354.628185 
C 612.006467 349.472885 611.231145 344.346777 609.706548 339.422071 
C 605.703205 339.464744 601.874348 341.086689 599.058523 343.932688 
C 596.242699 346.778687 594.661657 350.624615 594.661657 354.628185 
C 594.661657 358.631756 596.242699 362.477683 599.058523 365.323683 
C 601.874348 368.169682 605.703205 369.791627 609.706548 369.8343 
" style="fill:#ffffff;opacity:0.4;"/>
   </g>
   <g id="text_41">
    <!-- 1131 -->
    <g style="fill:#262626;" transform="translate(539.190825 357.38756)scale(0.1 -0.1)">
     <use xlink:href="#DejaVuSans-31"/>
     <use x="63.623047" xlink:href="#DejaVuSans-31"/>
     <use x="127.246094" xlink:href="#DejaVuSans-33"/>
     <use x="190.869141" xlink:href="#DejaVuSans-31"/>
    </g>
   </g>
   <g id="text_42">
    <!-- 46 -->
    <g style="fill:#262626;" transform="translate(612.17854 357.38756)scale(0.1 -0.1)">
     <use xlink:href="#DejaVuSans-34"/>
     <use x="63.623047" xlink:href="#DejaVuSans-36"/>
    </g>
   </g>
   <g id="text_43">
    <!-- 58 -->
    <g style="fill:#262626;" transform="translate(596.971562 357.38756)scale(0.1 -0.1)">
     <use xlink:href="#DejaVuSans-35"/>
     <use x="63.623047" xlink:href="#DejaVuSans-38"/>
    </g>
   </g>
   <g id="text_44">
    <!-- Bioregistry -->
    <g style="fill:#262626;" transform="translate(495.688855 418.495808)scale(0.12 -0.12)">
     <use xlink:href="#DejaVuSans-42"/>
     <use x="68.603516" xlink:href="#DejaVuSans-69"/>
     <use x="96.386719" xlink:href="#DejaVuSans-6f"/>
     <use x="157.568359" xlink:href="#DejaVuSans-72"/>
     <use x="196.431641" xlink:href="#DejaVuSans-65"/>
     <use x="257.955078" xlink:href="#DejaVuSans-67"/>
     <use x="321.431641" xlink:href="#DejaVuSans-69"/>
     <use x="349.214844" xlink:href="#DejaVuSans-73"/>
     <use x="401.314453" xlink:href="#DejaVuSans-74"/>
     <use x="440.523438" xlink:href="#DejaVuSans-72"/>
     <use x="481.636719" xlink:href="#DejaVuSans-79"/>
    </g>
   </g>
   <g id="text_45">
    <!-- Biolink -->
    <g style="fill:#262626;" transform="translate(609.868635 382.284549)scale(0.12 -0.12)">
     <use xlink:href="#DejaVuSans-42"/>
     <use x="68.603516" xlink:href="#DejaVuSans-69"/>
     <use x="96.386719" xlink:href="#DejaVuSans-6f"/>
     <use x="157.568359" xlink:href="#DejaVuSans-6c"/>
     <use x="185.351562" xlink:href="#DejaVuSans-69"/>
     <use x="213.134766" xlink:href="#DejaVuSans-6e"/>
     <use x="276.513672" xlink:href="#DejaVuSans-6b"/>
    </g>
   </g>
  </g>
  <g id="axes_10">
   <g id="patch_29">
    <path clip-path="url(#p4877220b63)" d="M 156.358435 512.843047 
C 152.029173 512.713698 147.916503 510.901208 144.899965 507.793196 
C 141.883427 504.685184 140.194568 500.52022 140.194568 496.189026 
C 140.194568 491.857833 141.883427 487.692868 144.899965 484.584856 
C 147.916503 481.476845 152.029173 479.664354 156.358435 479.535005 
C 154.402452 473.825515 151.455823 468.505001 147.653889 463.817843 
C 143.851956 459.130684 139.253833 455.14976 134.070719 452.057919 
C 128.887605 448.966078 123.20009 446.811394 117.269409 445.692835 
C 111.338728 444.574275 105.257095 444.509233 99.303847 445.500694 
C 93.3506 446.492156 87.618303 448.524705 82.370248 451.504986 
C 77.122193 454.485266 72.43998 458.366938 68.53867 462.97171 
C 64.63736 467.576483 61.577612 472.832759 59.499965 478.49911 
C 57.422318 484.165461 56.359077 490.153784 56.359077 496.189026 
C 56.359077 502.224269 57.422318 508.212591 59.499965 513.878943 
C 61.577612 519.545294 64.63736 524.80157 68.53867 529.406342 
C 72.43998 534.011115 77.122193 537.892787 82.370248 540.873067 
C 87.618303 543.853347 93.3506 545.885897 99.303847 546.877358 
C 105.257095 547.86882 111.338728 547.803777 117.269409 546.685218 
C 123.20009 545.566658 128.887605 543.411974 134.070719 540.320133 
C 139.253833 537.228292 143.851956 533.247368 147.653889 528.56021 
C 151.455823 523.873052 154.402452 518.552538 156.358435 512.843047 
" style="fill:#c0c0c0;opacity:0.4;"/>
   </g>
   <g id="patch_30">
    <path clip-path="url(#p4877220b63)" d="M 156.358435 479.535005 
C 158.194822 484.895396 159.132017 490.522801 159.132017 496.189026 
C 159.132017 501.855251 158.194822 507.482656 156.358435 512.843047 
C 158.587279 512.90964 160.806979 512.528124 162.885678 511.721162 
C 164.964378 510.914199 166.860085 509.698092 168.46019 508.145081 
C 170.060295 506.59207 171.332474 504.733526 172.201155 502.679854 
C 173.069837 500.626181 173.517473 498.418865 173.517473 496.189026 
C 173.517473 493.959188 173.069837 491.751872 172.201155 489.698199 
C 171.332474 487.644526 170.060295 485.785983 168.46019 484.232971 
C 166.860085 482.67996 164.964378 481.463853 162.885678 480.656891 
C 160.806979 479.849929 158.587279 479.468412 156.358435 479.535005 
" style="fill:#6a3d9a;opacity:0.4;"/>
   </g>
   <g id="patch_31">
    <path clip-path="url(#p4877220b63)" d="M 156.358435 512.843047 
C 158.194822 507.482656 159.132017 501.855251 159.132017 496.189026 
C 159.132017 490.522801 158.194822 484.895396 156.358435 479.535005 
C 152.029173 479.664354 147.916503 481.476845 144.899965 484.584856 
C 141.883427 487.692868 140.194568 491.857833 140.194568 496.189026 
C 140.194568 500.52022 141.883427 504.685184 144.899965 507.793196 
C 147.916503 510.901208 152.029173 512.713698 156.358435 512.843047 
" style="fill:#d1b1f2;opacity:0.4;"/>
   </g>
   <g id="text_46">
    <!-- 1120 -->
    <g style="fill:#262626;" transform="translate(85.551822 498.948401)scale(0.1 -0.1)">
     <use xlink:href="#DejaVuSans-31"/>
     <use x="63.623047" xlink:href="#DejaVuSans-31"/>
     <use x="127.246094" xlink:href="#DejaVuSans-32"/>
     <use x="190.869141" xlink:href="#DejaVuSans-30"/>
    </g>
   </g>
   <g id="text_47">
    <!-- 56 -->
    <g style="fill:#262626;" transform="translate(159.962245 498.948401)scale(0.1 -0.1)">
     <use xlink:href="#DejaVuSans-35"/>
     <use x="63.623047" xlink:href="#DejaVuSans-36"/>
    </g>
   </g>
   <g id="text_48">
    <!-- 69 -->
    <g style="fill:#262626;" transform="translate(143.300792 498.948401)scale(0.1 -0.1)">
     <use xlink:href="#DejaVuSans-36"/>
     <use x="63.623047" xlink:href="#DejaVuSans-39"/>
    </g>
   </g>
   <g id="text_49">
    <!-- Bioregistry -->
    <g style="fill:#262626;" transform="translate(42.846172 560.096017)scale(0.12 -0.12)">
     <use xlink:href="#DejaVuSans-42"/>
     <use x="68.603516" xlink:href="#DejaVuSans-69"/>
     <use x="96.386719" xlink:href="#DejaVuSans-6f"/>
     <use x="157.568359" xlink:href="#DejaVuSans-72"/>
     <use x="196.431641" xlink:href="#DejaVuSans-65"/>
     <use x="257.955078" xlink:href="#DejaVuSans-67"/>
     <use x="321.431641" xlink:href="#DejaVuSans-69"/>
     <use x="349.214844" xlink:href="#DejaVuSans-73"/>
     <use x="401.314453" xlink:href="#DejaVuSans-74"/>
     <use x="440.523438" xlink:href="#DejaVuSans-72"/>
     <use x="481.636719" xlink:href="#DejaVuSans-79"/>
    </g>
   </g>
   <g id="text_50">
    <!-- NCBI -->
    <g style="fill:#262626;" transform="translate(156.85602 525.371)scale(0.12 -0.12)">
     <use xlink:href="#DejaVuSans-4e"/>
     <use x="74.804688" xlink:href="#DejaVuSans-43"/>
     <use x="144.628906" xlink:href="#DejaVuSans-42"/>
     <use x="213.232422" xlink:href="#DejaVuSans-49"/>
    </g>
   </g>
  </g>
  <g id="axes_11">
   <g id="patch_32">
    <path clip-path="url(#p5e1d0414e7)" d="M 379.018739 516.029291 
C 374.201516 515.402428 369.773685 513.042092 366.567956 509.392175 
C 363.362227 505.742257 361.593 501.046865 361.593 496.189026 
C 361.593 491.331188 363.362227 486.635795 366.567956 482.985878 
C 369.773685 479.33596 374.201516 476.975624 379.018739 476.348761 
C 376.744522 470.928533 373.555192 465.939467 369.590376 461.599978 
C 365.62556 457.260489 360.943971 453.634841 355.750564 450.881759 
C 350.557157 448.128677 344.928842 446.288932 339.112017 445.443066 
C 333.295193 444.5972 327.376002 444.757739 321.613578 445.917655 
C 315.851154 447.077572 310.330833 449.219688 305.294289 452.250225 
C 300.257744 455.280761 295.779562 459.15484 292.055791 463.702857 
C 288.33202 468.250875 285.417805 473.40548 283.440728 478.941011 
C 281.463651 484.476541 280.45299 490.311022 280.45299 496.189026 
C 280.45299 502.067031 281.463651 507.901511 283.440728 513.437042 
C 285.417805 518.972573 288.33202 524.127178 292.055791 528.675195 
C 295.779562 533.223213 300.257744 537.097291 305.294289 540.127828 
C 310.330833 543.158365 315.851154 545.300481 321.613578 546.460397 
C 327.376002 547.620313 333.295193 547.780853 339.112017 546.934987 
C 344.928842 546.089121 350.557157 544.249376 355.750564 541.496294 
C 360.943971 538.743212 365.62556 535.117563 369.590376 530.778074 
C 373.555192 526.438585 376.744522 521.449519 379.018739 516.029291 
" style="fill:#c0c0c0;opacity:0.4;"/>
   </g>
   <g id="patch_33">
    <path clip-path="url(#p5e1d0414e7)" d="M 379.018739 476.348761 
C 381.654665 482.631064 383.012379 489.376139 383.012379 496.189026 
C 383.012379 503.001913 381.654665 509.746989 379.018739 516.029291 
C 381.840309 516.396461 384.708013 516.15754 387.429924 515.328518 
C 390.151834 514.499497 392.665842 513.099292 394.803692 511.221614 
C 396.941542 509.343937 398.654452 507.031633 399.827782 504.439458 
C 401.001112 501.847283 401.608088 499.034386 401.608088 496.189026 
C 401.608088 493.343666 401.001112 490.530769 399.827782 487.938594 
C 398.654452 485.346419 396.941542 483.034115 394.803692 481.156438 
C 392.665842 479.278761 390.151834 477.878556 387.429924 477.049534 
C 384.708013 476.220513 381.840309 475.981592 379.018739 476.348761 
" style="fill:#ffff99;opacity:0.4;"/>
   </g>
   <g id="patch_34">
    <path clip-path="url(#p5e1d0414e7)" d="M 379.018739 516.029291 
C 381.654665 509.746989 383.012379 503.001913 383.012379 496.189026 
C 383.012379 489.376139 381.654665 482.631064 379.018739 476.348761 
C 374.201516 476.975624 369.773685 479.33596 366.567956 482.985878 
C 363.362227 486.635795 361.593 491.331188 361.593 496.189026 
C 361.593 501.046865 363.362227 505.742257 366.567956 509.392175 
C 369.773685 513.042092 374.201516 515.402428 379.018739 516.029291 
" style="fill:#fffff2;opacity:0.4;"/>
   </g>
   <g id="text_51">
    <!-- 1098 -->
    <g style="fill:#262626;" transform="translate(308.297995 498.948401)scale(0.1 -0.1)">
     <use xlink:href="#DejaVuSans-31"/>
     <use x="63.623047" xlink:href="#DejaVuSans-30"/>
     <use x="127.246094" xlink:href="#DejaVuSans-39"/>
     <use x="190.869141" xlink:href="#DejaVuSans-38"/>
    </g>
   </g>
   <g id="text_52">
    <!-- 90 -->
    <g style="fill:#262626;" transform="translate(385.947733 498.948401)scale(0.1 -0.1)">
     <use xlink:href="#DejaVuSans-39"/>
     <use x="63.623047" xlink:href="#DejaVuSans-30"/>
    </g>
   </g>
   <g id="text_53">
    <!-- 91 -->
    <g style="fill:#262626;" transform="translate(365.940189 498.948401)scale(0.1 -0.1)">
     <use xlink:href="#DejaVuSans-39"/>
     <use x="63.623047" xlink:href="#DejaVuSans-31"/>
    </g>
   </g>
   <g id="text_54">
    <!-- Bioregistry -->
    <g style="fill:#262626;" transform="translate(266.833309 560.151208)scale(0.12 -0.12)">
     <use xlink:href="#DejaVuSans-42"/>
     <use x="68.603516" xlink:href="#DejaVuSans-69"/>
     <use x="96.386719" xlink:href="#DejaVuSans-6f"/>
     <use x="157.568359" xlink:href="#DejaVuSans-72"/>
     <use x="196.431641" xlink:href="#DejaVuSans-65"/>
     <use x="257.955078" xlink:href="#DejaVuSans-67"/>
     <use x="321.431641" xlink:href="#DejaVuSans-69"/>
     <use x="349.214844" xlink:href="#DejaVuSans-73"/>
     <use x="401.314453" xlink:href="#DejaVuSans-74"/>
     <use x="440.523438" xlink:href="#DejaVuSans-72"/>
     <use x="481.636719" xlink:href="#DejaVuSans-79"/>
    </g>
   </g>
   <g id="text_55">
    <!-- UniProt -->
    <g style="fill:#262626;" transform="translate(381.600544 528.879058)scale(0.12 -0.12)">
     <defs>
      <path d="M 556 4666 
L 1191 4666 
L 1191 1831 
Q 1191 1081 1462 751 
Q 1734 422 2344 422 
Q 2950 422 3222 751 
Q 3494 1081 3494 1831 
L 3494 4666 
L 4128 4666 
L 4128 1753 
Q 4128 841 3676 375 
Q 3225 -91 2344 -91 
Q 1459 -91 1007 375 
Q 556 841 556 1753 
L 556 4666 
z
" id="DejaVuSans-55" transform="scale(0.015625)"/>
     </defs>
     <use xlink:href="#DejaVuSans-55"/>
     <use x="73.193359" xlink:href="#DejaVuSans-6e"/>
     <use x="136.572266" xlink:href="#DejaVuSans-69"/>
     <use x="164.355469" xlink:href="#DejaVuSans-50"/>
     <use x="222.908203" xlink:href="#DejaVuSans-72"/>
     <use x="261.771484" xlink:href="#DejaVuSans-6f"/>
     <use x="322.953125" xlink:href="#DejaVuSans-74"/>
    </g>
   </g>
  </g>
  <g id="axes_12">
   <g id="patch_35">
    <path clip-path="url(#p01d02401b9)" d="M 607.749175 511.500019 
C 604.272623 510.718606 601.16378 508.77593 598.937503 505.993717 
C 596.711225 503.211503 595.497591 499.752314 595.497591 496.189026 
C 595.497591 492.625738 596.711225 489.166549 598.937503 486.384336 
C 601.16378 483.602122 604.272623 481.659446 607.749175 480.878033 
C 605.933347 475.063732 603.09758 469.618549 599.374651 464.797437 
C 595.651722 459.976324 591.100656 455.855719 585.934541 452.628555 
C 580.768427 449.401391 575.069171 447.118834 569.103622 445.887756 
C 563.138072 444.656678 557.000812 444.496599 550.979197 445.415012 
C 544.957583 446.333426 539.147084 448.315772 533.819759 451.269233 
C 528.492433 454.222694 523.732744 458.100444 519.763548 462.720921 
C 515.794351 467.341398 512.678578 472.631346 510.562113 478.343079 
C 508.445648 484.054813 507.362048 490.097776 507.362048 496.189026 
C 507.362048 502.280276 508.445648 508.323239 510.562113 514.034973 
C 512.678578 519.746707 515.794351 525.036654 519.763548 529.657131 
C 523.732744 534.277608 528.492433 538.155359 533.819759 541.10882 
C 539.147084 544.062281 544.957583 546.044627 550.979197 546.96304 
C 557.000812 547.881454 563.138072 547.721374 569.103622 546.490296 
C 575.069171 545.259219 580.768427 542.976661 585.934541 539.749497 
C 591.100656 536.522333 595.651722 532.401728 599.374651 527.580616 
C 603.09758 522.759503 605.933347 517.31432 607.749175 511.500019 
" style="fill:#c0c0c0;opacity:0.4;"/>
   </g>
   <g id="patch_36">
    <path clip-path="url(#p01d02401b9)" d="M 607.749175 480.878033 
C 609.297029 485.834277 610.0844 490.996705 610.0844 496.189026 
C 610.0844 501.381347 609.297029 506.543776 607.749175 511.500019 
C 610.04499 512.016042 612.427741 512.009147 614.720531 511.479845 
C 617.013321 510.950544 619.157972 509.912268 620.995266 508.442099 
C 622.832559 506.971929 624.315874 505.107171 625.33509 502.986264 
C 626.354305 500.865358 626.883559 498.542119 626.883559 496.189026 
C 626.883559 493.835933 626.354305 491.512695 625.33509 489.391788 
C 624.315874 487.270881 622.832559 485.406123 620.995266 483.935954 
C 619.157972 482.465784 617.013321 481.427508 614.720531 480.898207 
C 612.427741 480.368906 610.04499 480.362011 607.749175 480.878033 
" style="fill:#b15928;opacity:0.4;"/>
   </g>
   <g id="patch_37">
    <path clip-path="url(#p01d02401b9)" d="M 607.749175 511.500019 
C 609.297029 506.543776 610.0844 501.381347 610.0844 496.189026 
C 610.0844 490.996705 609.297029 485.834277 607.749175 480.878033 
C 604.272623 481.659446 601.16378 483.602122 598.937503 486.384336 
C 596.711225 489.166549 595.497591 492.625738 595.497591 496.189026 
C 595.497591 499.752314 596.711225 503.211503 598.937503 505.993717 
C 601.16378 508.77593 604.272623 510.718606 607.749175 511.500019 
" style="fill:#ffc5a2;opacity:0.4;"/>
   </g>
   <g id="text_56">
    <!-- 1142 -->
    <g style="fill:#262626;" transform="translate(538.704819 498.948401)scale(0.1 -0.1)">
     <use xlink:href="#DejaVuSans-31"/>
     <use x="63.623047" xlink:href="#DejaVuSans-31"/>
     <use x="127.246094" xlink:href="#DejaVuSans-34"/>
     <use x="190.869141" xlink:href="#DejaVuSans-32"/>
    </g>
   </g>
   <g id="text_57">
    <!-- 64 -->
    <g style="fill:#262626;" transform="translate(612.121479 498.948401)scale(0.1 -0.1)">
     <use xlink:href="#DejaVuSans-36"/>
     <use x="63.623047" xlink:href="#DejaVuSans-34"/>
    </g>
   </g>
   <g id="text_58">
    <!-- 47 -->
    <g style="fill:#262626;" transform="translate(596.428496 498.948401)scale(0.1 -0.1)">
     <use xlink:href="#DejaVuSans-34"/>
     <use x="63.623047" xlink:href="#DejaVuSans-37"/>
    </g>
   </g>
   <g id="text_59">
    <!-- Bioregistry -->
    <g style="fill:#262626;" transform="translate(493.823849 560.021036)scale(0.12 -0.12)">
     <use xlink:href="#DejaVuSans-42"/>
     <use x="68.603516" xlink:href="#DejaVuSans-69"/>
     <use x="96.386719" xlink:href="#DejaVuSans-6f"/>
     <use x="157.568359" xlink:href="#DejaVuSans-72"/>
     <use x="196.431641" xlink:href="#DejaVuSans-65"/>
     <use x="257.955078" xlink:href="#DejaVuSans-67"/>
     <use x="321.431641" xlink:href="#DejaVuSans-69"/>
     <use x="349.214844" xlink:href="#DejaVuSans-73"/>
     <use x="401.314453" xlink:href="#DejaVuSans-74"/>
     <use x="440.523438" xlink:href="#DejaVuSans-72"/>
     <use x="481.636719" xlink:href="#DejaVuSans-79"/>
    </g>
   </g>
   <g id="text_60">
    <!-- Cellosaurus -->
    <g style="fill:#262626;" transform="translate(611.190575 524.352843)scale(0.12 -0.12)">
     <defs>
      <path d="M 544 1381 
L 544 3500 
L 1119 3500 
L 1119 1403 
Q 1119 906 1312 657 
Q 1506 409 1894 409 
Q 2359 409 2629 706 
Q 2900 1003 2900 1516 
L 2900 3500 
L 3475 3500 
L 3475 0 
L 2900 0 
L 2900 538 
Q 2691 219 2414 64 
Q 2138 -91 1772 -91 
Q 1169 -91 856 284 
Q 544 659 544 1381 
z
M 1991 3584 
L 1991 3584 
z
" id="DejaVuSans-75" transform="scale(0.015625)"/>
     </defs>
     <use xlink:href="#DejaVuSans-43"/>
     <use x="69.824219" xlink:href="#DejaVuSans-65"/>
     <use x="131.347656" xlink:href="#DejaVuSans-6c"/>
     <use x="159.130859" xlink:href="#DejaVuSans-6c"/>
     <use x="186.914062" xlink:href="#DejaVuSans-6f"/>
     <use x="248.095703" xlink:href="#DejaVuSans-73"/>
     <use x="300.195312" xlink:href="#DejaVuSans-61"/>
     <use x="361.474609" xlink:href="#DejaVuSans-75"/>
     <use x="424.853516" xlink:href="#DejaVuSans-72"/>
     <use x="465.966797" xlink:href="#DejaVuSans-75"/>
     <use x="529.345703" xlink:href="#DejaVuSans-73"/>
    </g>
   </g>
  </g>
  <g id="text_61">
   <!-- https://github.com/bioregistry/bioregistry (2021-08-04) -->
   <g style="fill:#808080;opacity:0.5;" transform="translate(240.830625 574.33625)scale(0.08 -0.08)">
    <defs>
     <path d="M 3513 2113 
L 3513 0 
L 2938 0 
L 2938 2094 
Q 2938 2591 2744 2837 
Q 2550 3084 2163 3084 
Q 1697 3084 1428 2787 
Q 1159 2491 1159 1978 
L 1159 0 
L 581 0 
L 581 4863 
L 1159 4863 
L 1159 2956 
Q 1366 3272 1645 3428 
Q 1925 3584 2291 3584 
Q 2894 3584 3203 3211 
Q 3513 2838 3513 2113 
z
" id="DejaVuSans-68" transform="scale(0.015625)"/>
     <path d="M 1159 525 
L 1159 -1331 
L 581 -1331 
L 581 3500 
L 1159 3500 
L 1159 2969 
Q 1341 3281 1617 3432 
Q 1894 3584 2278 3584 
Q 2916 3584 3314 3078 
Q 3713 2572 3713 1747 
Q 3713 922 3314 415 
Q 2916 -91 2278 -91 
Q 1894 -91 1617 61 
Q 1341 213 1159 525 
z
M 3116 1747 
Q 3116 2381 2855 2742 
Q 2594 3103 2138 3103 
Q 1681 3103 1420 2742 
Q 1159 2381 1159 1747 
Q 1159 1113 1420 752 
Q 1681 391 2138 391 
Q 2594 391 2855 752 
Q 3116 1113 3116 1747 
z
" id="DejaVuSans-70" transform="scale(0.015625)"/>
     <path d="M 750 794 
L 1409 794 
L 1409 0 
L 750 0 
L 750 794 
z
M 750 3309 
L 1409 3309 
L 1409 2516 
L 750 2516 
L 750 3309 
z
" id="DejaVuSans-3a" transform="scale(0.015625)"/>
     <path d="M 1625 4666 
L 2156 4666 
L 531 -594 
L 0 -594 
L 1625 4666 
z
" id="DejaVuSans-2f" transform="scale(0.015625)"/>
     <path d="M 3116 1747 
Q 3116 2381 2855 2742 
Q 2594 3103 2138 3103 
Q 1681 3103 1420 2742 
Q 1159 2381 1159 1747 
Q 1159 1113 1420 752 
Q 1681 391 2138 391 
Q 2594 391 2855 752 
Q 3116 1113 3116 1747 
z
M 1159 2969 
Q 1341 3281 1617 3432 
Q 1894 3584 2278 3584 
Q 2916 3584 3314 3078 
Q 3713 2572 3713 1747 
Q 3713 922 3314 415 
Q 2916 -91 2278 -91 
Q 1894 -91 1617 61 
Q 1341 213 1159 525 
L 1159 0 
L 581 0 
L 581 4863 
L 1159 4863 
L 1159 2969 
z
" id="DejaVuSans-62" transform="scale(0.015625)"/>
     <path d="M 684 794 
L 1344 794 
L 1344 0 
L 684 0 
L 684 794 
z
" id="DejaVuSans-2e" transform="scale(0.015625)"/>
     <path d="M 3122 3366 
L 3122 2828 
Q 2878 2963 2633 3030 
Q 2388 3097 2138 3097 
Q 1578 3097 1268 2742 
Q 959 2388 959 1747 
Q 959 1106 1268 751 
Q 1578 397 2138 397 
Q 2388 397 2633 464 
Q 2878 531 3122 666 
L 3122 134 
Q 2881 22 2623 -34 
Q 2366 -91 2075 -91 
Q 1284 -91 818 406 
Q 353 903 353 1747 
Q 353 2603 823 3093 
Q 1294 3584 2113 3584 
Q 2378 3584 2631 3529 
Q 2884 3475 3122 3366 
z
" id="DejaVuSans-63" transform="scale(0.015625)"/>
     <path d="M 1984 4856 
Q 1566 4138 1362 3434 
Q 1159 2731 1159 2009 
Q 1159 1288 1364 580 
Q 1569 -128 1984 -844 
L 1484 -844 
Q 1016 -109 783 600 
Q 550 1309 550 2009 
Q 550 2706 781 3412 
Q 1013 4119 1484 4856 
L 1984 4856 
z
" id="DejaVuSans-28" transform="scale(0.015625)"/>
     <path d="M 313 2009 
L 1997 2009 
L 1997 1497 
L 313 1497 
L 313 2009 
z
" id="DejaVuSans-2d" transform="scale(0.015625)"/>
     <path d="M 513 4856 
L 1013 4856 
Q 1481 4119 1714 3412 
Q 1947 2706 1947 2009 
Q 1947 1309 1714 600 
Q 1481 -109 1013 -844 
L 513 -844 
Q 928 -128 1133 580 
Q 1338 1288 1338 2009 
Q 1338 2731 1133 3434 
Q 928 4138 513 4856 
z
" id="DejaVuSans-29" transform="scale(0.015625)"/>
    </defs>
    <use xlink:href="#DejaVuSans-68"/>
    <use x="63.378906" xlink:href="#DejaVuSans-74"/>
    <use x="102.587891" xlink:href="#DejaVuSans-74"/>
    <use x="141.796875" xlink:href="#DejaVuSans-70"/>
    <use x="205.273438" xlink:href="#DejaVuSans-73"/>
    <use x="257.373047" xlink:href="#DejaVuSans-3a"/>
    <use x="291.064453" xlink:href="#DejaVuSans-2f"/>
    <use x="324.755859" xlink:href="#DejaVuSans-2f"/>
    <use x="358.447266" xlink:href="#DejaVuSans-67"/>
    <use x="421.923828" xlink:href="#DejaVuSans-69"/>
    <use x="449.707031" xlink:href="#DejaVuSans-74"/>
    <use x="488.916016" xlink:href="#DejaVuSans-68"/>
    <use x="552.294922" xlink:href="#DejaVuSans-75"/>
    <use x="615.673828" xlink:href="#DejaVuSans-62"/>
    <use x="679.150391" xlink:href="#DejaVuSans-2e"/>
    <use x="710.9375" xlink:href="#DejaVuSans-63"/>
    <use x="765.917969" xlink:href="#DejaVuSans-6f"/>
    <use x="827.099609" xlink:href="#DejaVuSans-6d"/>
    <use x="924.511719" xlink:href="#DejaVuSans-2f"/>
    <use x="958.203125" xlink:href="#DejaVuSans-62"/>
    <use x="1021.679688" xlink:href="#DejaVuSans-69"/>
    <use x="1049.462891" xlink:href="#DejaVuSans-6f"/>
    <use x="1110.644531" xlink:href="#DejaVuSans-72"/>
    <use x="1149.507812" xlink:href="#DejaVuSans-65"/>
    <use x="1211.03125" xlink:href="#DejaVuSans-67"/>
    <use x="1274.507812" xlink:href="#DejaVuSans-69"/>
    <use x="1302.291016" xlink:href="#DejaVuSans-73"/>
    <use x="1354.390625" xlink:href="#DejaVuSans-74"/>
    <use x="1393.599609" xlink:href="#DejaVuSans-72"/>
    <use x="1434.712891" xlink:href="#DejaVuSans-79"/>
    <use x="1493.892578" xlink:href="#DejaVuSans-2f"/>
    <use x="1527.583984" xlink:href="#DejaVuSans-62"/>
    <use x="1591.060547" xlink:href="#DejaVuSans-69"/>
    <use x="1618.84375" xlink:href="#DejaVuSans-6f"/>
    <use x="1680.025391" xlink:href="#DejaVuSans-72"/>
    <use x="1718.888672" xlink:href="#DejaVuSans-65"/>
    <use x="1780.412109" xlink:href="#DejaVuSans-67"/>
    <use x="1843.888672" xlink:href="#DejaVuSans-69"/>
    <use x="1871.671875" xlink:href="#DejaVuSans-73"/>
    <use x="1923.771484" xlink:href="#DejaVuSans-74"/>
    <use x="1962.980469" xlink:href="#DejaVuSans-72"/>
    <use x="2004.09375" xlink:href="#DejaVuSans-79"/>
    <use x="2063.273438" xlink:href="#DejaVuSans-20"/>
    <use x="2095.060547" xlink:href="#DejaVuSans-28"/>
    <use x="2134.074219" xlink:href="#DejaVuSans-32"/>
    <use x="2197.697266" xlink:href="#DejaVuSans-30"/>
    <use x="2261.320312" xlink:href="#DejaVuSans-32"/>
    <use x="2324.943359" xlink:href="#DejaVuSans-31"/>
    <use x="2388.566406" xlink:href="#DejaVuSans-2d"/>
    <use x="2424.650391" xlink:href="#DejaVuSans-30"/>
    <use x="2488.273438" xlink:href="#DejaVuSans-38"/>
    <use x="2551.896484" xlink:href="#DejaVuSans-2d"/>
    <use x="2587.980469" xlink:href="#DejaVuSans-30"/>
    <use x="2651.603516" xlink:href="#DejaVuSans-34"/>
    <use x="2715.226562" xlink:href="#DejaVuSans-29"/>
   </g>
  </g>
 </g>
 <defs>
  <clipPath id="pd522bfb1cc">
   <rect height="121.413007" width="122.868961" x="53.503795" y="10.8"/>
  </clipPath>
  <clipPath id="p86ca9e0211">
   <rect height="121.413007" width="122.493458" x="279.78381" y="10.8"/>
  </clipPath>
  <clipPath id="p3685cec25f">
   <rect height="121.413007" width="122.674694" x="505.785456" y="10.8"/>
  </clipPath>
  <clipPath id="pae70bbcee6">
   <rect height="121.413007" width="154.811752" x="37.532399" y="152.360841"/>
  </clipPath>
  <clipPath id="p0c08f0a492">
   <rect height="121.413007" width="123.558074" x="279.251502" y="152.360841"/>
  </clipPath>
  <clipPath id="pf6017c3795">
   <rect height="121.413007" width="142.304317" x="495.970644" y="152.360841"/>
  </clipPath>
  <clipPath id="paf5a0ba29f">
   <rect height="121.413007" width="171.345808" x="29.265371" y="293.921682"/>
  </clipPath>
  <clipPath id="p06a17c40dd">
   <rect height="121.413007" width="132.276098" x="274.89249" y="293.921682"/>
  </clipPath>
  <clipPath id="p94eda72887">
   <rect height="121.413007" width="134.482154" x="499.881726" y="293.921682"/>
  </clipPath>
  <clipPath id="p4877220b63">
   <rect height="121.413007" width="135.798463" x="47.039044" y="435.482523"/>
  </clipPath>
  <clipPath id="p5e1d0414e7">
   <rect height="121.413007" width="140.008716" x="271.026181" y="435.482523"/>
  </clipPath>
  <clipPath id="p01d02401b9">
   <rect height="121.413007" width="138.212165" x="498.01672" y="435.482523"/>
  </clipPath>
 </defs>
</svg>
