<?xml version="1.0" encoding="utf-8" standalone="no"?>
<!DOCTYPE svg PUBLIC "-//W3C//DTD SVG 1.1//EN"
  "http://www.w3.org/Graphics/SVG/1.1/DTD/svg11.dtd">
<svg height="720pt" version="1.1" viewBox="0 0 702 720" width="702pt" xmlns="http://www.w3.org/2000/svg" xmlns:xlink="http://www.w3.org/1999/xlink">
 <metadata>
  <rdf:RDF xmlns:cc="http://creativecommons.org/ns#" xmlns:dc="http://purl.org/dc/elements/1.1/" xmlns:rdf="http://www.w3.org/1999/02/22-rdf-syntax-ns#">
   <cc:Work>
    <dc:type rdf:resource="http://purl.org/dc/dcmitype/StillImage"/>
    <dc:date>2021-09-30T16:20:35.891456</dc:date>
    <dc:format>image/svg+xml</dc:format>
    <dc:creator>
     <cc:Agent>
      <dc:title>Matplotlib v3.4.2, https://matplotlib.org/</dc:title>
     </cc:Agent>
    </dc:creator>
   </cc:Work>
  </rdf:RDF>
 </metadata>
 <defs>
  <style type="text/css">*{stroke-linecap:butt;stroke-linejoin:round;}</style>
 </defs>
 <g id="figure_1">
  <g id="patch_1">
   <path d="M 0 720 
L 702 720 
L 702 0 
L 0 0 
z
" style="fill:#ffffff;"/>
  </g>
  <g id="axes_1">
   <g id="patch_2">
    <path clip-path="url(#pb4bb470443)" d="M 168.386413 83.660868 
C 167.172849 86.032073 165.571383 88.183811 163.648336 90.026972 
C 161.72529 91.870132 159.50758 93.378917 157.087048 94.490842 
C 154.666517 95.602768 152.077045 96.30227 149.42587 96.56038 
C 146.774695 96.818491 144.098926 96.631597 141.509375 96.007438 
C 138.919823 95.383279 136.452736 94.330592 134.210283 92.892972 
C 131.967829 91.455352 129.981397 89.652921 128.333251 87.560324 
C 126.685104 85.467726 125.398313 83.114253 124.526167 80.597367 
C 123.654021 78.080482 123.208728 75.435415 123.208728 72.771705 
C 123.208728 70.107995 123.654021 67.462928 124.526167 64.946042 
C 125.398313 62.429157 126.685104 60.075684 128.333251 57.983086 
C 129.981397 55.890489 131.967829 54.088058 134.210283 52.650438 
C 136.452736 51.212818 138.919823 50.160131 141.509375 49.535972 
C 144.098926 48.911813 146.774695 48.724919 149.42587 48.98303 
C 152.077045 49.24114 154.666517 49.940642 157.087048 51.052567 
C 159.50758 52.164493 161.72529 53.673277 163.648336 55.516438 
C 165.571383 57.359599 167.172849 59.511337 168.386413 61.882542 
C 167.051863 55.571744 164.568459 49.559718 161.060258 44.146796 
C 157.552058 38.733874 153.078469 34.011717 147.862972 30.216223 
C 142.647474 26.420729 136.778385 23.61617 130.548898 21.942647 
C 124.31941 20.269124 117.835013 19.754978 111.419635 20.425892 
C 105.004258 21.096806 98.766537 22.941419 93.018081 25.867583 
C 87.269624 28.793747 82.107774 32.751912 77.790393 37.544345 
C 73.473013 42.336778 70.07321 47.882326 67.760825 53.903959 
C 65.448439 59.925592 64.262627 66.321341 64.262627 72.771705 
C 64.262627 79.222069 65.448439 85.617818 67.760825 91.639451 
C 70.07321 97.661084 73.473013 103.206632 77.790393 107.999065 
C 82.107774 112.791498 87.269624 116.749662 93.018081 119.675827 
C 98.766537 122.601991 105.004258 124.446604 111.419635 125.117518 
C 117.835013 125.788432 124.31941 125.274285 130.548898 123.600763 
C 136.778385 121.92724 142.647474 119.12268 147.862972 115.327186 
C 153.078469 111.531692 157.552058 106.809536 161.060258 101.396614 
C 164.568459 95.983692 167.051863 89.971666 168.386413 83.660868 
" style="fill:#c0c0c0;opacity:0.4;"/>
   </g>
   <g id="patch_3">
    <path clip-path="url(#pb4bb470443)" d="M 168.386413 61.882542 
C 169.143532 65.462796 169.525191 69.112272 169.525191 72.771705 
C 169.525191 76.431138 169.143532 80.080614 168.386413 83.660868 
C 170.111368 80.290446 171.011025 76.557892 171.011025 72.771705 
C 171.011025 68.985518 170.111368 65.252963 168.386413 61.882542 
" style="fill:#a6cee3;opacity:0.4;"/>
   </g>
   <g id="patch_4">
    <path clip-path="url(#pb4bb470443)" d="M 168.386413 83.660868 
C 169.143532 80.080614 169.525191 76.431138 169.525191 72.771705 
C 169.525191 69.112272 169.143532 65.462796 168.386413 61.882542 
C 167.172849 59.511337 165.571383 57.359599 163.648336 55.516438 
C 161.72529 53.673277 159.50758 52.164493 157.087048 51.052567 
C 154.666517 49.940642 152.077045 49.24114 149.42587 48.98303 
C 146.774695 48.724919 144.098926 48.911813 141.509375 49.535972 
C 138.919823 50.160131 136.452736 51.212818 134.210283 52.650438 
C 131.967829 54.088058 129.981397 55.890489 128.333251 57.983086 
C 126.685104 60.075684 125.398313 62.429157 124.526167 64.946042 
C 123.654021 67.462928 123.208728 70.107995 123.208728 72.771705 
C 123.208728 75.435415 123.654021 78.080482 124.526167 80.597367 
C 125.398313 83.114253 126.685104 85.467726 128.333251 87.560324 
C 129.981397 89.652921 131.967829 91.455352 134.210283 92.892972 
C 136.452736 94.330592 138.919823 95.383279 141.509375 96.007438 
C 144.098926 96.631597 146.774695 96.818491 149.42587 96.56038 
C 152.077045 96.30227 154.666517 95.602768 157.087048 94.490842 
C 159.50758 93.378917 161.72529 91.870132 163.648336 90.026972 
C 165.571383 88.183811 167.172849 86.032073 168.386413 83.660868 
" style="fill:#fbffff;opacity:0.4;"/>
   </g>
   <g id="text_1">
    <!-- 946 -->
    <g style="fill:#262626;" transform="translate(85.394271 75.356861)scale(0.1 -0.1)">
     <defs>
      <path d="M 350 1059 
L 891 1109 
Q 959 728 1153 556 
Q 1347 384 1650 384 
Q 1909 384 2104 503 
Q 2300 622 2425 820 
Q 2550 1019 2634 1356 
Q 2719 1694 2719 2044 
Q 2719 2081 2716 2156 
Q 2547 1888 2255 1720 
Q 1963 1553 1622 1553 
Q 1053 1553 659 1965 
Q 266 2378 266 3053 
Q 266 3750 677 4175 
Q 1088 4600 1706 4600 
Q 2153 4600 2523 4359 
Q 2894 4119 3086 3673 
Q 3278 3228 3278 2384 
Q 3278 1506 3087 986 
Q 2897 466 2520 194 
Q 2144 -78 1638 -78 
Q 1100 -78 759 220 
Q 419 519 350 1059 
z
M 2653 3081 
Q 2653 3566 2395 3850 
Q 2138 4134 1775 4134 
Q 1400 4134 1122 3828 
Q 844 3522 844 3034 
Q 844 2597 1108 2323 
Q 1372 2050 1759 2050 
Q 2150 2050 2401 2323 
Q 2653 2597 2653 3081 
z
" id="ArialMT-39" transform="scale(0.015625)"/>
      <path d="M 2069 0 
L 2069 1097 
L 81 1097 
L 81 1613 
L 2172 4581 
L 2631 4581 
L 2631 1613 
L 3250 1613 
L 3250 1097 
L 2631 1097 
L 2631 0 
L 2069 0 
z
M 2069 1613 
L 2069 3678 
L 634 1613 
L 2069 1613 
z
" id="ArialMT-34" transform="scale(0.015625)"/>
      <path d="M 3184 3459 
L 2625 3416 
Q 2550 3747 2413 3897 
Q 2184 4138 1850 4138 
Q 1581 4138 1378 3988 
Q 1113 3794 959 3422 
Q 806 3050 800 2363 
Q 1003 2672 1297 2822 
Q 1591 2972 1913 2972 
Q 2475 2972 2870 2558 
Q 3266 2144 3266 1488 
Q 3266 1056 3080 686 
Q 2894 316 2569 119 
Q 2244 -78 1831 -78 
Q 1128 -78 684 439 
Q 241 956 241 2144 
Q 241 3472 731 4075 
Q 1159 4600 1884 4600 
Q 2425 4600 2770 4297 
Q 3116 3994 3184 3459 
z
M 888 1484 
Q 888 1194 1011 928 
Q 1134 663 1356 523 
Q 1578 384 1822 384 
Q 2178 384 2434 671 
Q 2691 959 2691 1453 
Q 2691 1928 2437 2201 
Q 2184 2475 1800 2475 
Q 1419 2475 1153 2201 
Q 888 1928 888 1484 
z
" id="ArialMT-36" transform="scale(0.015625)"/>
     </defs>
     <use xlink:href="#ArialMT-39"/>
     <use x="55.615234" xlink:href="#ArialMT-34"/>
     <use x="111.230469" xlink:href="#ArialMT-36"/>
    </g>
   </g>
   <g id="text_2">
    <!-- 3 -->
    <g style="fill:#262626;" transform="translate(167.487639 75.356861)scale(0.1 -0.1)">
     <defs>
      <path d="M 269 1209 
L 831 1284 
Q 928 806 1161 595 
Q 1394 384 1728 384 
Q 2125 384 2398 659 
Q 2672 934 2672 1341 
Q 2672 1728 2419 1979 
Q 2166 2231 1775 2231 
Q 1616 2231 1378 2169 
L 1441 2663 
Q 1497 2656 1531 2656 
Q 1891 2656 2178 2843 
Q 2466 3031 2466 3422 
Q 2466 3731 2256 3934 
Q 2047 4138 1716 4138 
Q 1388 4138 1169 3931 
Q 950 3725 888 3313 
L 325 3413 
Q 428 3978 793 4289 
Q 1159 4600 1703 4600 
Q 2078 4600 2393 4439 
Q 2709 4278 2876 4000 
Q 3044 3722 3044 3409 
Q 3044 3113 2884 2869 
Q 2725 2625 2413 2481 
Q 2819 2388 3044 2092 
Q 3269 1797 3269 1353 
Q 3269 753 2831 336 
Q 2394 -81 1725 -81 
Q 1122 -81 723 278 
Q 325 638 269 1209 
z
" id="ArialMT-33" transform="scale(0.015625)"/>
     </defs>
     <use xlink:href="#ArialMT-33"/>
    </g>
   </g>
   <g id="text_3">
    <!-- 242 -->
    <g style="fill:#262626;" transform="translate(138.025553 75.356861)scale(0.1 -0.1)">
     <defs>
      <path d="M 3222 541 
L 3222 0 
L 194 0 
Q 188 203 259 391 
Q 375 700 629 1000 
Q 884 1300 1366 1694 
Q 2113 2306 2375 2664 
Q 2638 3022 2638 3341 
Q 2638 3675 2398 3904 
Q 2159 4134 1775 4134 
Q 1369 4134 1125 3890 
Q 881 3647 878 3216 
L 300 3275 
Q 359 3922 746 4261 
Q 1134 4600 1788 4600 
Q 2447 4600 2831 4234 
Q 3216 3869 3216 3328 
Q 3216 3053 3103 2787 
Q 2991 2522 2730 2228 
Q 2469 1934 1863 1422 
Q 1356 997 1212 845 
Q 1069 694 975 541 
L 3222 541 
z
" id="ArialMT-32" transform="scale(0.015625)"/>
     </defs>
     <use xlink:href="#ArialMT-32"/>
     <use x="55.615234" xlink:href="#ArialMT-34"/>
     <use x="111.230469" xlink:href="#ArialMT-32"/>
    </g>
   </g>
   <g id="text_4">
    <!-- Bioregistry -->
    <g style="fill:#262626;" transform="translate(60.212659 137.818983)scale(0.12 -0.12)">
     <defs>
      <path d="M 469 0 
L 469 4581 
L 2188 4581 
Q 2713 4581 3030 4442 
Q 3347 4303 3526 4014 
Q 3706 3725 3706 3409 
Q 3706 3116 3547 2856 
Q 3388 2597 3066 2438 
Q 3481 2316 3704 2022 
Q 3928 1728 3928 1328 
Q 3928 1006 3792 729 
Q 3656 453 3456 303 
Q 3256 153 2954 76 
Q 2653 0 2216 0 
L 469 0 
z
M 1075 2656 
L 2066 2656 
Q 2469 2656 2644 2709 
Q 2875 2778 2992 2937 
Q 3109 3097 3109 3338 
Q 3109 3566 3000 3739 
Q 2891 3913 2687 3977 
Q 2484 4041 1991 4041 
L 1075 4041 
L 1075 2656 
z
M 1075 541 
L 2216 541 
Q 2509 541 2628 563 
Q 2838 600 2978 687 
Q 3119 775 3209 942 
Q 3300 1109 3300 1328 
Q 3300 1584 3169 1773 
Q 3038 1963 2805 2039 
Q 2572 2116 2134 2116 
L 1075 2116 
L 1075 541 
z
" id="ArialMT-42" transform="scale(0.015625)"/>
      <path d="M 425 3934 
L 425 4581 
L 988 4581 
L 988 3934 
L 425 3934 
z
M 425 0 
L 425 3319 
L 988 3319 
L 988 0 
L 425 0 
z
" id="ArialMT-69" transform="scale(0.015625)"/>
      <path d="M 213 1659 
Q 213 2581 725 3025 
Q 1153 3394 1769 3394 
Q 2453 3394 2887 2945 
Q 3322 2497 3322 1706 
Q 3322 1066 3130 698 
Q 2938 331 2570 128 
Q 2203 -75 1769 -75 
Q 1072 -75 642 372 
Q 213 819 213 1659 
z
M 791 1659 
Q 791 1022 1069 705 
Q 1347 388 1769 388 
Q 2188 388 2466 706 
Q 2744 1025 2744 1678 
Q 2744 2294 2464 2611 
Q 2184 2928 1769 2928 
Q 1347 2928 1069 2612 
Q 791 2297 791 1659 
z
" id="ArialMT-6f" transform="scale(0.015625)"/>
      <path d="M 416 0 
L 416 3319 
L 922 3319 
L 922 2816 
Q 1116 3169 1280 3281 
Q 1444 3394 1641 3394 
Q 1925 3394 2219 3213 
L 2025 2691 
Q 1819 2813 1613 2813 
Q 1428 2813 1281 2702 
Q 1134 2591 1072 2394 
Q 978 2094 978 1738 
L 978 0 
L 416 0 
z
" id="ArialMT-72" transform="scale(0.015625)"/>
      <path d="M 2694 1069 
L 3275 997 
Q 3138 488 2766 206 
Q 2394 -75 1816 -75 
Q 1088 -75 661 373 
Q 234 822 234 1631 
Q 234 2469 665 2931 
Q 1097 3394 1784 3394 
Q 2450 3394 2872 2941 
Q 3294 2488 3294 1666 
Q 3294 1616 3291 1516 
L 816 1516 
Q 847 969 1125 678 
Q 1403 388 1819 388 
Q 2128 388 2347 550 
Q 2566 713 2694 1069 
z
M 847 1978 
L 2700 1978 
Q 2663 2397 2488 2606 
Q 2219 2931 1791 2931 
Q 1403 2931 1139 2672 
Q 875 2413 847 1978 
z
" id="ArialMT-65" transform="scale(0.015625)"/>
      <path d="M 319 -275 
L 866 -356 
Q 900 -609 1056 -725 
Q 1266 -881 1628 -881 
Q 2019 -881 2231 -725 
Q 2444 -569 2519 -288 
Q 2563 -116 2559 434 
Q 2191 0 1641 0 
Q 956 0 581 494 
Q 206 988 206 1678 
Q 206 2153 378 2554 
Q 550 2956 876 3175 
Q 1203 3394 1644 3394 
Q 2231 3394 2613 2919 
L 2613 3319 
L 3131 3319 
L 3131 450 
Q 3131 -325 2973 -648 
Q 2816 -972 2473 -1159 
Q 2131 -1347 1631 -1347 
Q 1038 -1347 672 -1080 
Q 306 -813 319 -275 
z
M 784 1719 
Q 784 1066 1043 766 
Q 1303 466 1694 466 
Q 2081 466 2343 764 
Q 2606 1063 2606 1700 
Q 2606 2309 2336 2618 
Q 2066 2928 1684 2928 
Q 1309 2928 1046 2623 
Q 784 2319 784 1719 
z
" id="ArialMT-67" transform="scale(0.015625)"/>
      <path d="M 197 991 
L 753 1078 
Q 800 744 1014 566 
Q 1228 388 1613 388 
Q 2000 388 2187 545 
Q 2375 703 2375 916 
Q 2375 1106 2209 1216 
Q 2094 1291 1634 1406 
Q 1016 1563 777 1677 
Q 538 1791 414 1992 
Q 291 2194 291 2438 
Q 291 2659 392 2848 
Q 494 3038 669 3163 
Q 800 3259 1026 3326 
Q 1253 3394 1513 3394 
Q 1903 3394 2198 3281 
Q 2494 3169 2634 2976 
Q 2775 2784 2828 2463 
L 2278 2388 
Q 2241 2644 2061 2787 
Q 1881 2931 1553 2931 
Q 1166 2931 1000 2803 
Q 834 2675 834 2503 
Q 834 2394 903 2306 
Q 972 2216 1119 2156 
Q 1203 2125 1616 2013 
Q 2213 1853 2448 1751 
Q 2684 1650 2818 1456 
Q 2953 1263 2953 975 
Q 2953 694 2789 445 
Q 2625 197 2315 61 
Q 2006 -75 1616 -75 
Q 969 -75 630 194 
Q 291 463 197 991 
z
" id="ArialMT-73" transform="scale(0.015625)"/>
      <path d="M 1650 503 
L 1731 6 
Q 1494 -44 1306 -44 
Q 1000 -44 831 53 
Q 663 150 594 308 
Q 525 466 525 972 
L 525 2881 
L 113 2881 
L 113 3319 
L 525 3319 
L 525 4141 
L 1084 4478 
L 1084 3319 
L 1650 3319 
L 1650 2881 
L 1084 2881 
L 1084 941 
Q 1084 700 1114 631 
Q 1144 563 1211 522 
Q 1278 481 1403 481 
Q 1497 481 1650 503 
z
" id="ArialMT-74" transform="scale(0.015625)"/>
      <path d="M 397 -1278 
L 334 -750 
Q 519 -800 656 -800 
Q 844 -800 956 -737 
Q 1069 -675 1141 -563 
Q 1194 -478 1313 -144 
Q 1328 -97 1363 -6 
L 103 3319 
L 709 3319 
L 1400 1397 
Q 1534 1031 1641 628 
Q 1738 1016 1872 1384 
L 2581 3319 
L 3144 3319 
L 1881 -56 
Q 1678 -603 1566 -809 
Q 1416 -1088 1222 -1217 
Q 1028 -1347 759 -1347 
Q 597 -1347 397 -1278 
z
" id="ArialMT-79" transform="scale(0.015625)"/>
     </defs>
     <use xlink:href="#ArialMT-42"/>
     <use x="66.699219" xlink:href="#ArialMT-69"/>
     <use x="88.916016" xlink:href="#ArialMT-6f"/>
     <use x="144.53125" xlink:href="#ArialMT-72"/>
     <use x="177.832031" xlink:href="#ArialMT-65"/>
     <use x="233.447266" xlink:href="#ArialMT-67"/>
     <use x="289.0625" xlink:href="#ArialMT-69"/>
     <use x="311.279297" xlink:href="#ArialMT-73"/>
     <use x="361.279297" xlink:href="#ArialMT-74"/>
     <use x="389.0625" xlink:href="#ArialMT-72"/>
     <use x="422.363281" xlink:href="#ArialMT-79"/>
    </g>
   </g>
   <g id="text_5">
    <!-- OBO -->
    <g style="fill:#262626;" transform="translate(147.109876 109.08885)scale(0.12 -0.12)">
     <defs>
      <path d="M 309 2231 
Q 309 3372 921 4017 
Q 1534 4663 2503 4663 
Q 3138 4663 3647 4359 
Q 4156 4056 4423 3514 
Q 4691 2972 4691 2284 
Q 4691 1588 4409 1038 
Q 4128 488 3612 205 
Q 3097 -78 2500 -78 
Q 1853 -78 1343 234 
Q 834 547 571 1087 
Q 309 1628 309 2231 
z
M 934 2222 
Q 934 1394 1379 917 
Q 1825 441 2497 441 
Q 3181 441 3623 922 
Q 4066 1403 4066 2288 
Q 4066 2847 3877 3264 
Q 3688 3681 3323 3911 
Q 2959 4141 2506 4141 
Q 1863 4141 1398 3698 
Q 934 3256 934 2222 
z
" id="ArialMT-4f" transform="scale(0.015625)"/>
     </defs>
     <use xlink:href="#ArialMT-4f"/>
     <use x="77.783203" xlink:href="#ArialMT-42"/>
     <use x="144.482422" xlink:href="#ArialMT-4f"/>
    </g>
   </g>
  </g>
  <g id="axes_2">
   <g id="patch_5">
    <path clip-path="url(#p9c2dee8657)" d="M 393.268086 82.603202 
C 392.145061 85.209984 390.583646 87.605178 388.651728 89.684646 
C 386.71981 91.764114 384.445799 93.497276 381.928566 94.808776 
C 379.411332 96.120276 376.687895 96.990828 373.876663 97.382581 
C 371.065431 97.774335 368.207747 97.681529 365.427857 97.108199 
C 362.647967 96.534869 359.986752 95.489445 357.559917 94.017383 
C 355.133083 92.54532 352.976317 90.668265 351.183392 88.467829 
C 349.390468 86.267394 347.987751 83.775937 347.036229 81.101782 
C 346.084708 78.427628 345.598375 75.610102 345.598375 72.771705 
C 345.598375 69.933308 346.084708 67.115782 347.036229 64.441628 
C 347.987751 61.767473 349.390468 59.276016 351.183392 57.07558 
C 352.976317 54.875145 355.133083 52.99809 357.559917 51.526027 
C 359.986752 50.053964 362.647967 49.008541 365.427857 48.435211 
C 368.207747 47.861881 371.065431 47.769075 373.876663 48.160829 
C 376.687895 48.552582 379.411332 49.423134 381.928566 50.734634 
C 384.445799 52.046134 386.71981 53.779295 388.651728 55.858763 
C 390.583646 57.938231 392.145061 60.333426 393.268086 62.940208 
C 392.054689 56.558407 389.670254 50.45604 386.235554 44.94219 
C 382.800853 39.42834 378.374871 34.597698 373.181784 30.694936 
C 367.988697 26.792174 362.117686 23.884314 355.866118 22.11864 
C 349.614549 20.352967 343.089783 19.759801 336.622299 20.369186 
C 330.154814 20.978572 323.855678 22.780044 318.043942 25.682359 
C 312.232205 28.584673 307.007675 32.537987 302.634972 37.342067 
C 298.262269 42.146146 294.816487 47.718489 292.472156 53.776856 
C 290.127824 59.835224 288.925201 66.275575 288.925201 72.771705 
C 288.925201 79.267835 290.127824 85.708186 292.472156 91.766553 
C 294.816487 97.824921 298.262269 103.397264 302.634972 108.201343 
C 307.007675 113.005423 312.232205 116.958737 318.043942 119.861051 
C 323.855678 122.763366 330.154814 124.564838 336.622299 125.174224 
C 343.089783 125.783609 349.614549 125.190443 355.866118 123.424769 
C 362.117686 121.659095 367.988697 118.751236 373.181784 114.848474 
C 378.374871 110.945712 382.800853 106.11507 386.235554 100.60122 
C 389.670254 95.08737 392.054689 88.985003 393.268086 82.603202 
" style="fill:#c0c0c0;opacity:0.4;"/>
   </g>
   <g id="patch_6">
    <path clip-path="url(#p9c2dee8657)" d="M 393.268086 62.940208 
C 393.884289 66.181098 394.194439 69.472754 394.194439 72.771705 
C 394.194439 76.070655 393.884289 79.362312 393.268086 82.603202 
C 394.605751 79.498192 395.295754 76.152597 395.295754 72.771705 
C 395.295754 69.390812 394.605751 66.045217 393.268086 62.940208 
" style="fill:#1f78b4;opacity:0.4;"/>
   </g>
   <g id="patch_7">
    <path clip-path="url(#p9c2dee8657)" d="M 393.268086 82.603202 
C 393.884289 79.362312 394.194439 76.070655 394.194439 72.771705 
C 394.194439 69.472754 393.884289 66.181098 393.268086 62.940208 
C 392.145061 60.333426 390.583646 57.938231 388.651728 55.858763 
C 386.71981 53.779295 384.445799 52.046134 381.928566 50.734634 
C 379.411332 49.423134 376.687895 48.552582 373.876663 48.160829 
C 371.065431 47.769075 368.207747 47.861881 365.427857 48.435211 
C 362.647967 49.008541 359.986752 50.053964 357.559917 51.526027 
C 355.133083 52.99809 352.976317 54.875145 351.183392 57.07558 
C 349.390468 59.276016 347.987751 61.767473 347.036229 64.441628 
C 346.084708 67.115782 345.598375 69.933308 345.598375 72.771705 
C 345.598375 75.610102 346.084708 78.427628 347.036229 81.101782 
C 347.987751 83.775937 349.390468 86.267394 351.183392 88.467829 
C 352.976317 90.668265 355.133083 92.54532 357.559917 94.017383 
C 359.986752 95.489445 362.647967 96.534869 365.427857 97.108199 
C 368.207747 97.681529 371.065431 97.774335 373.876663 97.382581 
C 376.687895 96.990828 379.411332 96.120276 381.928566 94.808776 
C 384.445799 93.497276 386.71981 91.764114 388.651728 89.684646 
C 390.583646 87.605178 392.145061 85.209984 393.268086 82.603202 
" style="fill:#9cdaff;opacity:0.4;"/>
   </g>
   <g id="text_6">
    <!-- 926 -->
    <g style="fill:#262626;" transform="translate(308.920382 75.356861)scale(0.1 -0.1)">
     <use xlink:href="#ArialMT-39"/>
     <use x="55.615234" xlink:href="#ArialMT-32"/>
     <use x="111.230469" xlink:href="#ArialMT-36"/>
    </g>
   </g>
   <g id="text_7">
    <!-- 2 -->
    <g style="fill:#262626;" transform="translate(391.964627 75.356861)scale(0.1 -0.1)">
     <use xlink:href="#ArialMT-32"/>
    </g>
   </g>
   <g id="text_8">
    <!-- 263 -->
    <g style="fill:#262626;" transform="translate(361.555 75.356861)scale(0.1 -0.1)">
     <use xlink:href="#ArialMT-32"/>
     <use x="55.615234" xlink:href="#ArialMT-36"/>
     <use x="111.230469" xlink:href="#ArialMT-33"/>
    </g>
   </g>
   <g id="text_9">
    <!-- Bioregistry -->
    <g style="fill:#262626;" transform="translate(284.87857 137.869864)scale(0.12 -0.12)">
     <use xlink:href="#ArialMT-42"/>
     <use x="66.699219" xlink:href="#ArialMT-69"/>
     <use x="88.916016" xlink:href="#ArialMT-6f"/>
     <use x="144.53125" xlink:href="#ArialMT-72"/>
     <use x="177.832031" xlink:href="#ArialMT-65"/>
     <use x="233.447266" xlink:href="#ArialMT-67"/>
     <use x="289.0625" xlink:href="#ArialMT-69"/>
     <use x="311.279297" xlink:href="#ArialMT-73"/>
     <use x="361.279297" xlink:href="#ArialMT-74"/>
     <use x="389.0625" xlink:href="#ArialMT-72"/>
     <use x="422.363281" xlink:href="#ArialMT-79"/>
    </g>
   </g>
   <g id="text_10">
    <!-- OLS -->
    <g style="fill:#262626;" transform="translate(370.447064 110.083935)scale(0.12 -0.12)">
     <defs>
      <path d="M 469 0 
L 469 4581 
L 1075 4581 
L 1075 541 
L 3331 541 
L 3331 0 
L 469 0 
z
" id="ArialMT-4c" transform="scale(0.015625)"/>
      <path d="M 288 1472 
L 859 1522 
Q 900 1178 1048 958 
Q 1197 738 1509 602 
Q 1822 466 2213 466 
Q 2559 466 2825 569 
Q 3091 672 3220 851 
Q 3350 1031 3350 1244 
Q 3350 1459 3225 1620 
Q 3100 1781 2813 1891 
Q 2628 1963 1997 2114 
Q 1366 2266 1113 2400 
Q 784 2572 623 2826 
Q 463 3081 463 3397 
Q 463 3744 659 4045 
Q 856 4347 1234 4503 
Q 1613 4659 2075 4659 
Q 2584 4659 2973 4495 
Q 3363 4331 3572 4012 
Q 3781 3694 3797 3291 
L 3216 3247 
Q 3169 3681 2898 3903 
Q 2628 4125 2100 4125 
Q 1550 4125 1298 3923 
Q 1047 3722 1047 3438 
Q 1047 3191 1225 3031 
Q 1400 2872 2139 2705 
Q 2878 2538 3153 2413 
Q 3553 2228 3743 1945 
Q 3934 1663 3934 1294 
Q 3934 928 3725 604 
Q 3516 281 3123 101 
Q 2731 -78 2241 -78 
Q 1619 -78 1198 103 
Q 778 284 539 648 
Q 300 1013 288 1472 
z
" id="ArialMT-53" transform="scale(0.015625)"/>
     </defs>
     <use xlink:href="#ArialMT-4f"/>
     <use x="77.783203" xlink:href="#ArialMT-4c"/>
     <use x="133.398438" xlink:href="#ArialMT-53"/>
    </g>
   </g>
  </g>
  <g id="axes_3">
   <g id="patch_8">
    <path clip-path="url(#p49f39ba287)" d="M 606.6333 104.440053 
C 600.556182 109.732836 593.082086 113.166121 585.107459 114.32812 
C 577.132832 115.490119 568.989778 114.33244 561.654978 110.993935 
C 554.320177 107.655431 548.099088 102.275133 543.73787 95.498357 
C 539.376653 88.721581 537.05693 80.830546 537.05693 72.771705 
C 537.05693 64.712864 539.376653 56.821829 543.73787 50.045053 
C 548.099088 43.268277 554.320177 37.887979 561.654978 34.549474 
C 568.989778 31.21097 577.132832 30.053291 585.107459 31.21529 
C 593.082086 32.377289 600.556182 35.810574 606.6333 41.103356 
C 603.334499 36.733475 599.373067 32.905745 594.892543 29.758864 
C 590.412019 26.611983 585.467182 24.184424 580.237205 22.564148 
C 575.007228 20.943871 569.556052 20.150687 564.081198 20.213335 
C 558.606344 20.275983 553.174746 21.193698 547.983215 22.933227 
C 542.791684 24.672756 537.903691 27.212831 533.49635 30.461415 
C 529.089008 33.709999 525.216202 37.627375 522.018261 42.071599 
C 518.820319 46.515822 516.336339 51.432559 514.656326 56.643654 
C 512.976313 61.854749 512.120808 67.296492 512.120808 72.771705 
C 512.120808 78.246918 512.976313 83.688661 514.656326 88.899756 
C 516.336339 94.110851 518.820319 99.027588 522.018261 103.471811 
C 525.216202 107.916035 529.089008 111.83341 533.49635 115.081994 
C 537.903691 118.330578 542.791684 120.870654 547.983215 122.610183 
C 553.174746 124.349712 558.606344 125.267427 564.081198 125.330075 
C 569.556052 125.392723 575.007228 124.599539 580.237205 122.979262 
C 585.467182 121.358986 590.412019 118.931426 594.892543 115.784545 
C 599.373067 112.637665 603.334499 108.809935 606.6333 104.440053 
" style="fill:#c0c0c0;opacity:0.4;"/>
   </g>
   <g id="patch_9">
    <path clip-path="url(#p49f39ba287)" d="M 606.6333 41.103356 
C 613.51805 50.223502 617.24443 61.344683 617.24443 72.771705 
C 617.24443 84.198727 613.51805 95.319908 606.6333 104.440053 
C 611.159269 100.498224 614.788051 95.631552 617.274421 90.168918 
C 619.760791 84.706283 621.047451 78.773572 621.047451 72.771705 
C 621.047451 66.769837 619.760791 60.837127 617.274421 55.374492 
C 614.788051 49.911858 611.159269 45.045186 606.6333 41.103356 
" style="fill:#b2df8a;opacity:0.4;"/>
   </g>
   <g id="patch_10">
    <path clip-path="url(#p49f39ba287)" d="M 606.6333 104.440053 
C 613.51805 95.319908 617.24443 84.198727 617.24443 72.771705 
C 617.24443 61.344683 613.51805 50.223502 606.6333 41.103356 
C 600.556182 35.810574 593.082086 32.377289 585.107459 31.21529 
C 577.132832 30.053291 568.989778 31.21097 561.654978 34.549474 
C 554.320177 37.887979 548.099088 43.268277 543.73787 50.045053 
C 539.376653 56.821829 537.05693 64.712864 537.05693 72.771705 
C 537.05693 80.830546 539.376653 88.721581 543.73787 95.498357 
C 548.099088 102.275133 554.320177 107.655431 561.654978 110.993935 
C 568.989778 114.33244 577.132832 115.490119 585.107459 114.32812 
C 593.082086 113.166121 600.556182 109.732836 606.6333 104.440053 
" style="fill:#ffffe7;opacity:0.4;"/>
   </g>
   <g id="text_11">
    <!-- 454 -->
    <g style="fill:#262626;" transform="translate(516.247462 75.356861)scale(0.1 -0.1)">
     <defs>
      <path d="M 266 1200 
L 856 1250 
Q 922 819 1161 601 
Q 1400 384 1738 384 
Q 2144 384 2425 690 
Q 2706 997 2706 1503 
Q 2706 1984 2436 2262 
Q 2166 2541 1728 2541 
Q 1456 2541 1237 2417 
Q 1019 2294 894 2097 
L 366 2166 
L 809 4519 
L 3088 4519 
L 3088 3981 
L 1259 3981 
L 1013 2750 
Q 1425 3038 1878 3038 
Q 2478 3038 2890 2622 
Q 3303 2206 3303 1553 
Q 3303 931 2941 478 
Q 2500 -78 1738 -78 
Q 1113 -78 717 272 
Q 322 622 266 1200 
z
" id="ArialMT-35" transform="scale(0.015625)"/>
     </defs>
     <use xlink:href="#ArialMT-34"/>
     <use x="55.615234" xlink:href="#ArialMT-35"/>
     <use x="111.230469" xlink:href="#ArialMT-34"/>
    </g>
   </g>
   <g id="text_12">
    <!-- 24 -->
    <g style="fill:#262626;" transform="translate(613.585003 75.356861)scale(0.1 -0.1)">
     <use xlink:href="#ArialMT-32"/>
     <use x="55.615234" xlink:href="#ArialMT-34"/>
    </g>
   </g>
   <g id="text_13">
    <!-- 735 -->
    <g style="fill:#262626;" transform="translate(568.809273 75.356861)scale(0.1 -0.1)">
     <defs>
      <path d="M 303 3981 
L 303 4522 
L 3269 4522 
L 3269 4084 
Q 2831 3619 2401 2847 
Q 1972 2075 1738 1259 
Q 1569 684 1522 0 
L 944 0 
Q 953 541 1156 1306 
Q 1359 2072 1739 2783 
Q 2119 3494 2547 3981 
L 303 3981 
z
" id="ArialMT-37" transform="scale(0.015625)"/>
     </defs>
     <use xlink:href="#ArialMT-37"/>
     <use x="55.615234" xlink:href="#ArialMT-33"/>
     <use x="111.230469" xlink:href="#ArialMT-35"/>
    </g>
   </g>
   <g id="text_14">
    <!-- Bioregistry -->
    <g style="fill:#262626;" transform="translate(508.001369 138.650744)scale(0.12 -0.12)">
     <use xlink:href="#ArialMT-42"/>
     <use x="66.699219" xlink:href="#ArialMT-69"/>
     <use x="88.916016" xlink:href="#ArialMT-6f"/>
     <use x="144.53125" xlink:href="#ArialMT-72"/>
     <use x="177.832031" xlink:href="#ArialMT-65"/>
     <use x="233.447266" xlink:href="#ArialMT-67"/>
     <use x="289.0625" xlink:href="#ArialMT-69"/>
     <use x="311.279297" xlink:href="#ArialMT-73"/>
     <use x="361.279297" xlink:href="#ArialMT-74"/>
     <use x="389.0625" xlink:href="#ArialMT-72"/>
     <use x="422.363281" xlink:href="#ArialMT-79"/>
    </g>
   </g>
   <g id="text_15">
    <!-- MIRIAM -->
    <g style="fill:#262626;" transform="translate(579.05219 128.084194)scale(0.12 -0.12)">
     <defs>
      <path d="M 475 0 
L 475 4581 
L 1388 4581 
L 2472 1338 
Q 2622 884 2691 659 
Q 2769 909 2934 1394 
L 4031 4581 
L 4847 4581 
L 4847 0 
L 4263 0 
L 4263 3834 
L 2931 0 
L 2384 0 
L 1059 3900 
L 1059 0 
L 475 0 
z
" id="ArialMT-4d" transform="scale(0.015625)"/>
      <path d="M 597 0 
L 597 4581 
L 1203 4581 
L 1203 0 
L 597 0 
z
" id="ArialMT-49" transform="scale(0.015625)"/>
      <path d="M 503 0 
L 503 4581 
L 2534 4581 
Q 3147 4581 3465 4457 
Q 3784 4334 3975 4021 
Q 4166 3709 4166 3331 
Q 4166 2844 3850 2509 
Q 3534 2175 2875 2084 
Q 3116 1969 3241 1856 
Q 3506 1613 3744 1247 
L 4541 0 
L 3778 0 
L 3172 953 
Q 2906 1366 2734 1584 
Q 2563 1803 2427 1890 
Q 2291 1978 2150 2013 
Q 2047 2034 1813 2034 
L 1109 2034 
L 1109 0 
L 503 0 
z
M 1109 2559 
L 2413 2559 
Q 2828 2559 3062 2645 
Q 3297 2731 3419 2920 
Q 3541 3109 3541 3331 
Q 3541 3656 3305 3865 
Q 3069 4075 2559 4075 
L 1109 4075 
L 1109 2559 
z
" id="ArialMT-52" transform="scale(0.015625)"/>
      <path d="M -9 0 
L 1750 4581 
L 2403 4581 
L 4278 0 
L 3588 0 
L 3053 1388 
L 1138 1388 
L 634 0 
L -9 0 
z
M 1313 1881 
L 2866 1881 
L 2388 3150 
Q 2169 3728 2063 4100 
Q 1975 3659 1816 3225 
L 1313 1881 
z
" id="ArialMT-41" transform="scale(0.015625)"/>
     </defs>
     <use xlink:href="#ArialMT-4d"/>
     <use x="83.300781" xlink:href="#ArialMT-49"/>
     <use x="111.083984" xlink:href="#ArialMT-52"/>
     <use x="183.300781" xlink:href="#ArialMT-49"/>
     <use x="211.083984" xlink:href="#ArialMT-41"/>
     <use x="277.783203" xlink:href="#ArialMT-4d"/>
    </g>
   </g>
  </g>
  <g id="axes_4">
   <g id="patch_11">
    <path clip-path="url(#p2445891449)" d="M 149.474734 232.175429 
C 146.935058 230.039636 144.893061 227.373916 143.492308 224.365685 
C 142.091555 221.357454 141.365661 218.078903 141.365661 214.760536 
C 141.365661 211.442168 142.091555 208.163617 143.492308 205.155386 
C 144.893061 202.147155 146.935058 199.481435 149.474734 197.345643 
C 147.437568 191.609304 144.409572 186.27466 140.52873 181.58481 
C 136.647887 176.89496 131.974057 172.922241 126.720225 169.847687 
C 121.466393 166.773134 115.713595 164.644169 109.723983 163.557808 
C 103.734371 162.471447 97.600331 162.444447 91.601388 163.478038 
C 85.602444 164.511629 79.831127 166.589869 74.550433 169.618053 
C 69.269739 172.646237 64.561118 176.577658 60.63914 181.233163 
C 56.717163 185.888667 53.642322 191.196448 51.554737 196.914631 
C 49.467152 202.632814 48.399022 208.673202 48.399022 214.760536 
C 48.399022 220.847869 49.467152 226.888257 51.554737 232.60644 
C 53.642322 238.324623 56.717163 243.632404 60.63914 248.287908 
C 64.561118 252.943413 69.269739 256.874834 74.550433 259.903018 
C 79.831127 262.931202 85.602444 265.009442 91.601388 266.043033 
C 97.600331 267.076624 103.734371 267.049624 109.723983 265.963263 
C 115.713595 264.876902 121.466393 262.747937 126.720225 259.673384 
C 131.974057 256.59883 136.647887 252.626111 140.52873 247.936261 
C 144.409572 243.246411 147.437568 237.911768 149.474734 232.175429 
" style="fill:#c0c0c0;opacity:0.4;"/>
   </g>
   <g id="patch_12">
    <path clip-path="url(#p2445891449)" d="M 149.474734 197.345643 
C 151.460418 202.937015 152.475243 208.827039 152.475243 214.760536 
C 152.475243 220.694032 151.460418 226.584056 149.474734 232.175429 
C 152.79103 234.964335 156.835962 236.748783 161.131532 237.317901 
C 165.427101 237.887019 169.797163 237.217469 173.725294 235.388373 
C 177.653426 233.559277 180.978551 230.645639 183.307729 226.991773 
C 185.636908 223.337907 186.874629 219.093642 186.874629 214.760536 
C 186.874629 210.427429 185.636908 206.183165 183.307729 202.529298 
C 180.978551 198.875432 177.653426 195.961794 173.725294 194.132698 
C 169.797163 192.303603 165.427101 191.634052 161.131532 192.20317 
C 156.835962 192.772288 152.79103 194.556736 149.474734 197.345643 
" style="fill:#33a02c;opacity:0.4;"/>
   </g>
   <g id="patch_13">
    <path clip-path="url(#p2445891449)" d="M 149.474734 232.175429 
C 151.460418 226.584056 152.475243 220.694032 152.475243 214.760536 
C 152.475243 208.827039 151.460418 202.937015 149.474734 197.345643 
C 146.935058 199.481435 144.893061 202.147155 143.492308 205.155386 
C 142.091555 208.163617 141.365661 211.442168 141.365661 214.760536 
C 141.365661 218.078903 142.091555 221.357454 143.492308 224.365685 
C 144.893061 227.373916 146.935058 230.039636 149.474734 232.175429 
" style="fill:#aaf6a5;opacity:0.4;"/>
   </g>
   <g id="text_16">
    <!-- 1145 -->
    <g style="fill:#262626;" transform="translate(84.129217 217.345692)scale(0.1 -0.1)">
     <defs>
      <path d="M 2384 0 
L 1822 0 
L 1822 3584 
Q 1619 3391 1289 3197 
Q 959 3003 697 2906 
L 697 3450 
Q 1169 3672 1522 3987 
Q 1875 4303 2022 4600 
L 2384 4600 
L 2384 0 
z
" id="ArialMT-31" transform="scale(0.015625)"/>
     </defs>
     <use xlink:href="#ArialMT-31"/>
     <use x="48.240234" xlink:href="#ArialMT-31"/>
     <use x="103.855469" xlink:href="#ArialMT-34"/>
     <use x="159.470703" xlink:href="#ArialMT-35"/>
    </g>
   </g>
   <g id="text_17">
    <!-- 189 -->
    <g style="fill:#262626;" transform="translate(161.33353 217.345692)scale(0.1 -0.1)">
     <defs>
      <path d="M 1131 2484 
Q 781 2613 612 2850 
Q 444 3088 444 3419 
Q 444 3919 803 4259 
Q 1163 4600 1759 4600 
Q 2359 4600 2725 4251 
Q 3091 3903 3091 3403 
Q 3091 3084 2923 2848 
Q 2756 2613 2416 2484 
Q 2838 2347 3058 2040 
Q 3278 1734 3278 1309 
Q 3278 722 2862 322 
Q 2447 -78 1769 -78 
Q 1091 -78 675 323 
Q 259 725 259 1325 
Q 259 1772 486 2073 
Q 713 2375 1131 2484 
z
M 1019 3438 
Q 1019 3113 1228 2906 
Q 1438 2700 1772 2700 
Q 2097 2700 2305 2904 
Q 2513 3109 2513 3406 
Q 2513 3716 2298 3927 
Q 2084 4138 1766 4138 
Q 1444 4138 1231 3931 
Q 1019 3725 1019 3438 
z
M 838 1322 
Q 838 1081 952 856 
Q 1066 631 1291 507 
Q 1516 384 1775 384 
Q 2178 384 2440 643 
Q 2703 903 2703 1303 
Q 2703 1709 2433 1975 
Q 2163 2241 1756 2241 
Q 1359 2241 1098 1978 
Q 838 1716 838 1322 
z
" id="ArialMT-38" transform="scale(0.015625)"/>
     </defs>
     <use xlink:href="#ArialMT-31"/>
     <use x="55.615234" xlink:href="#ArialMT-38"/>
     <use x="111.230469" xlink:href="#ArialMT-39"/>
    </g>
   </g>
   <g id="text_18">
    <!-- 37 -->
    <g style="fill:#262626;" transform="translate(141.359514 217.345692)scale(0.1 -0.1)">
     <use xlink:href="#ArialMT-33"/>
     <use x="55.615234" xlink:href="#ArialMT-37"/>
    </g>
   </g>
   <g id="text_19">
    <!-- Bioregistry -->
    <g style="fill:#262626;" transform="translate(43.755882 279.12765)scale(0.12 -0.12)">
     <use xlink:href="#ArialMT-42"/>
     <use x="66.699219" xlink:href="#ArialMT-69"/>
     <use x="88.916016" xlink:href="#ArialMT-6f"/>
     <use x="144.53125" xlink:href="#ArialMT-72"/>
     <use x="177.832031" xlink:href="#ArialMT-65"/>
     <use x="233.447266" xlink:href="#ArialMT-67"/>
     <use x="289.0625" xlink:href="#ArialMT-69"/>
     <use x="311.279297" xlink:href="#ArialMT-73"/>
     <use x="361.279297" xlink:href="#ArialMT-74"/>
     <use x="389.0625" xlink:href="#ArialMT-72"/>
     <use x="422.363281" xlink:href="#ArialMT-79"/>
    </g>
   </g>
   <g id="text_20">
    <!-- Wikidata -->
    <g style="fill:#262626;" transform="translate(164.120145 249.844025)scale(0.12 -0.12)">
     <defs>
      <path d="M 1294 0 
L 78 4581 
L 700 4581 
L 1397 1578 
Q 1509 1106 1591 641 
Q 1766 1375 1797 1488 
L 2669 4581 
L 3400 4581 
L 4056 2263 
Q 4303 1400 4413 641 
Q 4500 1075 4641 1638 
L 5359 4581 
L 5969 4581 
L 4713 0 
L 4128 0 
L 3163 3491 
Q 3041 3928 3019 4028 
Q 2947 3713 2884 3491 
L 1913 0 
L 1294 0 
z
" id="ArialMT-57" transform="scale(0.015625)"/>
      <path d="M 425 0 
L 425 4581 
L 988 4581 
L 988 1969 
L 2319 3319 
L 3047 3319 
L 1778 2088 
L 3175 0 
L 2481 0 
L 1384 1697 
L 988 1316 
L 988 0 
L 425 0 
z
" id="ArialMT-6b" transform="scale(0.015625)"/>
      <path d="M 2575 0 
L 2575 419 
Q 2259 -75 1647 -75 
Q 1250 -75 917 144 
Q 584 363 401 755 
Q 219 1147 219 1656 
Q 219 2153 384 2558 
Q 550 2963 881 3178 
Q 1213 3394 1622 3394 
Q 1922 3394 2156 3267 
Q 2391 3141 2538 2938 
L 2538 4581 
L 3097 4581 
L 3097 0 
L 2575 0 
z
M 797 1656 
Q 797 1019 1065 703 
Q 1334 388 1700 388 
Q 2069 388 2326 689 
Q 2584 991 2584 1609 
Q 2584 2291 2321 2609 
Q 2059 2928 1675 2928 
Q 1300 2928 1048 2622 
Q 797 2316 797 1656 
z
" id="ArialMT-64" transform="scale(0.015625)"/>
      <path d="M 2588 409 
Q 2275 144 1986 34 
Q 1697 -75 1366 -75 
Q 819 -75 525 192 
Q 231 459 231 875 
Q 231 1119 342 1320 
Q 453 1522 633 1644 
Q 813 1766 1038 1828 
Q 1203 1872 1538 1913 
Q 2219 1994 2541 2106 
Q 2544 2222 2544 2253 
Q 2544 2597 2384 2738 
Q 2169 2928 1744 2928 
Q 1347 2928 1158 2789 
Q 969 2650 878 2297 
L 328 2372 
Q 403 2725 575 2942 
Q 747 3159 1072 3276 
Q 1397 3394 1825 3394 
Q 2250 3394 2515 3294 
Q 2781 3194 2906 3042 
Q 3031 2891 3081 2659 
Q 3109 2516 3109 2141 
L 3109 1391 
Q 3109 606 3145 398 
Q 3181 191 3288 0 
L 2700 0 
Q 2613 175 2588 409 
z
M 2541 1666 
Q 2234 1541 1622 1453 
Q 1275 1403 1131 1340 
Q 988 1278 909 1158 
Q 831 1038 831 891 
Q 831 666 1001 516 
Q 1172 366 1500 366 
Q 1825 366 2078 508 
Q 2331 650 2450 897 
Q 2541 1088 2541 1459 
L 2541 1666 
z
" id="ArialMT-61" transform="scale(0.015625)"/>
     </defs>
     <use xlink:href="#ArialMT-57"/>
     <use x="94.384766" xlink:href="#ArialMT-69"/>
     <use x="116.601562" xlink:href="#ArialMT-6b"/>
     <use x="166.601562" xlink:href="#ArialMT-69"/>
     <use x="188.818359" xlink:href="#ArialMT-64"/>
     <use x="244.433594" xlink:href="#ArialMT-61"/>
     <use x="300.048828" xlink:href="#ArialMT-74"/>
     <use x="327.832031" xlink:href="#ArialMT-61"/>
    </g>
   </g>
  </g>
  <g id="axes_5">
   <g id="patch_14">
    <path clip-path="url(#p5f46ef428e)" d="M 387.897206 238.62949 
C 385.404689 241.973895 382.403625 244.907331 379.003289 247.322988 
C 375.602953 249.738644 371.845123 251.60684 367.866632 252.85955 
C 363.88814 254.112261 359.737867 254.734094 355.566935 254.702408 
C 351.396003 254.670722 347.255657 253.985905 343.296657 252.672895 
C 339.337656 251.359884 335.608644 249.434811 332.245402 246.967772 
C 328.882159 244.500734 325.926009 241.522041 323.484591 238.140154 
C 321.043173 234.758267 319.146484 231.014738 317.863586 227.045878 
C 316.580689 223.077017 315.927345 218.931588 315.927345 214.760536 
C 315.927345 210.589483 316.580689 206.444054 317.863586 202.475194 
C 319.146484 198.506333 321.043173 194.762804 323.484591 191.380917 
C 325.926009 187.999031 328.882159 185.020337 332.245402 182.553299 
C 335.608644 180.08626 339.337656 178.161187 343.296657 176.848177 
C 347.255657 175.535166 351.396003 174.850349 355.566935 174.818663 
C 359.737867 174.786977 363.88814 175.40881 367.866632 176.661521 
C 371.845123 177.914231 375.602953 179.782427 379.003289 182.198083 
C 382.403625 184.61374 385.404689 187.547176 387.897206 190.891581 
C 385.234971 185.662623 381.716577 180.91572 377.487959 176.847763 
C 373.259341 172.779806 368.379783 169.447825 363.051678 166.990025 
C 357.723573 164.532224 352.021619 162.983062 346.182321 162.406793 
C 340.343023 161.830524 334.448246 162.235227 328.742492 163.604117 
C 323.036738 164.973007 317.6 167.286892 312.657782 170.449798 
C 307.715564 173.612703 303.337155 177.580285 299.70416 182.187979 
C 296.071165 186.795672 293.234519 191.978878 291.311879 197.522608 
C 289.389239 203.066338 288.40756 208.892871 288.40756 214.760536 
C 288.40756 220.6282 289.389239 226.454733 291.311879 231.998463 
C 293.234519 237.542193 296.071165 242.725399 299.70416 247.333092 
C 303.337155 251.940786 307.715564 255.908368 312.657782 259.071273 
C 317.6 262.234179 323.036738 264.548064 328.742492 265.916954 
C 334.448246 267.285844 340.343023 267.690547 346.182321 267.114278 
C 352.021619 266.538009 357.723573 264.988847 363.051678 262.531046 
C 368.379783 260.073246 373.259341 256.741266 377.487959 252.673308 
C 381.716577 248.605351 385.234971 243.858448 387.897206 238.62949 
" style="fill:#c0c0c0;opacity:0.4;"/>
   </g>
   <g id="patch_15">
    <path clip-path="url(#p5f46ef428e)" d="M 387.897206 190.891581 
C 391.661278 198.284683 393.623701 206.46438 393.623701 214.760536 
C 393.623701 223.056692 391.661278 231.236388 387.897206 238.62949 
C 393.036153 231.734165 395.813395 223.360204 395.813395 214.760536 
C 395.813395 206.160867 393.036153 197.786906 387.897206 190.891581 
" style="fill:#fb9a99;opacity:0.4;"/>
   </g>
   <g id="patch_16">
    <path clip-path="url(#p5f46ef428e)" d="M 387.897206 238.62949 
C 391.661278 231.236388 393.623701 223.056692 393.623701 214.760536 
C 393.623701 206.46438 391.661278 198.284683 387.897206 190.891581 
C 385.404689 187.547176 382.403625 184.61374 379.003289 182.198083 
C 375.602953 179.782427 371.845123 177.914231 367.866632 176.661521 
C 363.88814 175.40881 359.737867 174.786977 355.566935 174.818663 
C 351.396003 174.850349 347.255657 175.535166 343.296657 176.848177 
C 339.337656 178.161187 335.608644 180.08626 332.245402 182.553299 
C 328.882159 185.020337 325.926009 187.999031 323.484591 191.380917 
C 321.043173 194.762804 319.146484 198.506333 317.863586 202.475194 
C 316.580689 206.444054 315.927345 210.589483 315.927345 214.760536 
C 315.927345 218.931588 316.580689 223.077017 317.863586 227.045878 
C 319.146484 231.014738 321.043173 234.758267 323.484591 238.140154 
C 325.926009 241.522041 328.882159 244.500734 332.245402 246.967772 
C 335.608644 249.434811 339.337656 251.359884 343.296657 252.672895 
C 347.255657 253.985905 351.396003 254.670722 355.566935 254.702408 
C 359.737867 254.734094 363.88814 254.112261 367.866632 252.85955 
C 371.845123 251.60684 375.602953 249.738644 379.003289 247.322988 
C 382.403625 244.907331 385.404689 241.973895 387.897206 238.62949 
" style="fill:#fff2f2;opacity:0.4;"/>
   </g>
   <g id="text_21">
    <!-- 514 -->
    <g style="fill:#262626;" transform="translate(293.826047 217.345692)scale(0.1 -0.1)">
     <use xlink:href="#ArialMT-35"/>
     <use x="55.615234" xlink:href="#ArialMT-31"/>
     <use x="111.230469" xlink:href="#ArialMT-34"/>
    </g>
   </g>
   <g id="text_22">
    <!-- 10 -->
    <g style="fill:#262626;" transform="translate(389.157611 217.345692)scale(0.1 -0.1)">
     <defs>
      <path d="M 266 2259 
Q 266 3072 433 3567 
Q 600 4063 929 4331 
Q 1259 4600 1759 4600 
Q 2128 4600 2406 4451 
Q 2684 4303 2865 4023 
Q 3047 3744 3150 3342 
Q 3253 2941 3253 2259 
Q 3253 1453 3087 958 
Q 2922 463 2592 192 
Q 2263 -78 1759 -78 
Q 1097 -78 719 397 
Q 266 969 266 2259 
z
M 844 2259 
Q 844 1131 1108 757 
Q 1372 384 1759 384 
Q 2147 384 2411 759 
Q 2675 1134 2675 2259 
Q 2675 3391 2411 3762 
Q 2147 4134 1753 4134 
Q 1366 4134 1134 3806 
Q 844 3388 844 2259 
z
" id="ArialMT-30" transform="scale(0.015625)"/>
     </defs>
     <use xlink:href="#ArialMT-31"/>
     <use x="55.615234" xlink:href="#ArialMT-30"/>
    </g>
   </g>
   <g id="text_23">
    <!-- 676 -->
    <g style="fill:#262626;" transform="translate(346.434117 217.345692)scale(0.1 -0.1)">
     <use xlink:href="#ArialMT-36"/>
     <use x="55.615234" xlink:href="#ArialMT-37"/>
     <use x="111.230469" xlink:href="#ArialMT-36"/>
    </g>
   </g>
   <g id="text_24">
    <!-- Bioregistry -->
    <g style="fill:#262626;" transform="translate(284.334381 280.585536)scale(0.12 -0.12)">
     <use xlink:href="#ArialMT-42"/>
     <use x="66.699219" xlink:href="#ArialMT-69"/>
     <use x="88.916016" xlink:href="#ArialMT-6f"/>
     <use x="144.53125" xlink:href="#ArialMT-72"/>
     <use x="177.832031" xlink:href="#ArialMT-65"/>
     <use x="233.447266" xlink:href="#ArialMT-67"/>
     <use x="289.0625" xlink:href="#ArialMT-69"/>
     <use x="311.279297" xlink:href="#ArialMT-73"/>
     <use x="361.279297" xlink:href="#ArialMT-74"/>
     <use x="389.0625" xlink:href="#ArialMT-72"/>
     <use x="422.363281" xlink:href="#ArialMT-79"/>
    </g>
   </g>
   <g id="text_25">
    <!-- N2T -->
    <g style="fill:#262626;" transform="translate(355.87037 267.92049)scale(0.12 -0.12)">
     <defs>
      <path d="M 488 0 
L 488 4581 
L 1109 4581 
L 3516 984 
L 3516 4581 
L 4097 4581 
L 4097 0 
L 3475 0 
L 1069 3600 
L 1069 0 
L 488 0 
z
" id="ArialMT-4e" transform="scale(0.015625)"/>
      <path d="M 1659 0 
L 1659 4041 
L 150 4041 
L 150 4581 
L 3781 4581 
L 3781 4041 
L 2266 4041 
L 2266 0 
L 1659 0 
z
" id="ArialMT-54" transform="scale(0.015625)"/>
     </defs>
     <use xlink:href="#ArialMT-4e"/>
     <use x="72.216797" xlink:href="#ArialMT-32"/>
     <use x="127.832031" xlink:href="#ArialMT-54"/>
    </g>
   </g>
  </g>
  <g id="axes_6">
   <g id="patch_17">
    <path clip-path="url(#p9b77994153)" d="M 602.232034 238.964781 
C 596.309615 238.260003 590.847029 235.405472 586.886706 230.94592 
C 582.926384 226.486369 580.737355 220.724742 580.737355 214.760536 
C 580.737355 208.796329 582.926384 203.034702 586.886706 198.575151 
C 590.847029 194.1156 596.309615 191.261068 602.232034 190.55629 
C 599.543309 185.412696 596.016217 180.752881 591.795888 176.768584 
C 587.575558 172.784288 582.720682 169.530917 577.431022 167.142339 
C 572.141363 164.75376 566.490482 163.263192 560.710897 162.731966 
C 554.931313 162.20074 549.103398 162.636244 543.466956 164.020559 
C 537.830515 165.404873 532.463929 167.718747 527.58802 170.86697 
C 522.712111 174.015193 518.394685 177.953986 514.813392 182.521276 
C 511.232099 187.088567 508.436743 192.220841 506.542345 197.706919 
C 504.647947 203.192998 503.680852 208.956589 503.680852 214.760536 
C 503.680852 220.564483 504.647947 226.328073 506.542345 231.814152 
C 508.436743 237.30023 511.232099 242.432504 514.813392 246.999795 
C 518.394685 251.567086 522.712111 255.505878 527.58802 258.654101 
C 532.463929 261.802324 537.830515 264.116198 543.466956 265.500512 
C 549.103398 266.884827 554.931313 267.320331 560.710897 266.789105 
C 566.490482 266.257879 572.141363 264.767311 577.431022 262.378733 
C 582.720682 259.990154 587.575558 256.736783 591.795888 252.752487 
C 596.016217 248.76819 599.543309 244.108375 602.232034 238.964781 
" style="fill:#c0c0c0;opacity:0.4;"/>
   </g>
   <g id="patch_18">
    <path clip-path="url(#p9b77994153)" d="M 602.232034 190.55629 
C 606.136855 198.026306 608.176615 206.331493 608.176615 214.760536 
C 608.176615 223.189578 606.136855 231.494765 602.232034 238.964781 
C 605.651877 239.371748 609.11946 239.049343 612.405654 238.018869 
C 615.691848 236.988395 618.722641 235.27306 621.297766 232.98621 
C 623.87289 230.69936 625.934349 227.8925 627.345926 224.751099 
C 628.757503 221.609698 629.487407 218.204508 629.487407 214.760536 
C 629.487407 211.316563 628.757503 207.911373 627.345926 204.769972 
C 625.934349 201.628571 623.87289 198.821711 621.297766 196.534861 
C 618.722641 194.248011 615.691848 192.532677 612.405654 191.502202 
C 609.11946 190.471728 605.651877 190.149323 602.232034 190.55629 
" style="fill:#e31a1c;opacity:0.4;"/>
   </g>
   <g id="patch_19">
    <path clip-path="url(#p9b77994153)" d="M 602.232034 238.964781 
C 606.136855 231.494765 608.176615 223.189578 608.176615 214.760536 
C 608.176615 206.331493 606.136855 198.026306 602.232034 190.55629 
C 596.309615 191.261068 590.847029 194.1156 586.886706 198.575151 
C 582.926384 203.034702 580.737355 208.796329 580.737355 214.760536 
C 580.737355 220.724742 582.926384 226.486369 586.886706 230.94592 
C 590.847029 235.405472 596.309615 238.260003 602.232034 238.964781 
" style="fill:#ff999a;opacity:0.4;"/>
   </g>
   <g id="text_26">
    <!-- 1053 -->
    <g style="fill:#262626;" transform="translate(531.087228 217.345692)scale(0.1 -0.1)">
     <use xlink:href="#ArialMT-31"/>
     <use x="55.615234" xlink:href="#ArialMT-30"/>
     <use x="111.230469" xlink:href="#ArialMT-35"/>
     <use x="166.845703" xlink:href="#ArialMT-33"/>
    </g>
   </g>
   <g id="text_27">
    <!-- 122 -->
    <g style="fill:#262626;" transform="translate(610.490605 217.345692)scale(0.1 -0.1)">
     <use xlink:href="#ArialMT-31"/>
     <use x="55.615234" xlink:href="#ArialMT-32"/>
     <use x="111.230469" xlink:href="#ArialMT-32"/>
    </g>
   </g>
   <g id="text_28">
    <!-- 137 -->
    <g style="fill:#262626;" transform="translate(586.115579 217.345692)scale(0.1 -0.1)">
     <use xlink:href="#ArialMT-31"/>
     <use x="55.615234" xlink:href="#ArialMT-33"/>
     <use x="111.230469" xlink:href="#ArialMT-37"/>
    </g>
   </g>
   <g id="text_29">
    <!-- Bioregistry -->
    <g style="fill:#262626;" transform="translate(499.247483 279.428937)scale(0.12 -0.12)">
     <use xlink:href="#ArialMT-42"/>
     <use x="66.699219" xlink:href="#ArialMT-69"/>
     <use x="88.916016" xlink:href="#ArialMT-6f"/>
     <use x="144.53125" xlink:href="#ArialMT-72"/>
     <use x="177.832031" xlink:href="#ArialMT-65"/>
     <use x="233.447266" xlink:href="#ArialMT-67"/>
     <use x="289.0625" xlink:href="#ArialMT-69"/>
     <use x="311.279297" xlink:href="#ArialMT-73"/>
     <use x="361.279297" xlink:href="#ArialMT-74"/>
     <use x="389.0625" xlink:href="#ArialMT-72"/>
     <use x="422.363281" xlink:href="#ArialMT-79"/>
    </g>
   </g>
   <g id="text_30">
    <!-- GO -->
    <g style="fill:#262626;" transform="translate(605.112381 251.556082)scale(0.12 -0.12)">
     <defs>
      <path d="M 2638 1797 
L 2638 2334 
L 4578 2338 
L 4578 638 
Q 4131 281 3656 101 
Q 3181 -78 2681 -78 
Q 2006 -78 1454 211 
Q 903 500 622 1047 
Q 341 1594 341 2269 
Q 341 2938 620 3517 
Q 900 4097 1425 4378 
Q 1950 4659 2634 4659 
Q 3131 4659 3532 4498 
Q 3934 4338 4162 4050 
Q 4391 3763 4509 3300 
L 3963 3150 
Q 3859 3500 3706 3700 
Q 3553 3900 3268 4020 
Q 2984 4141 2638 4141 
Q 2222 4141 1919 4014 
Q 1616 3888 1430 3681 
Q 1244 3475 1141 3228 
Q 966 2803 966 2306 
Q 966 1694 1177 1281 
Q 1388 869 1791 669 
Q 2194 469 2647 469 
Q 3041 469 3416 620 
Q 3791 772 3984 944 
L 3984 1797 
L 2638 1797 
z
" id="ArialMT-47" transform="scale(0.015625)"/>
     </defs>
     <use xlink:href="#ArialMT-47"/>
     <use x="77.783203" xlink:href="#ArialMT-4f"/>
    </g>
   </g>
  </g>
  <g id="axes_7">
   <g id="patch_20">
    <path clip-path="url(#p8dd73611fc)" d="M 125.64606 394.447832 
C 119.320729 390.39997 114.114736 384.824498 110.509398 378.236894 
C 106.90406 371.64929 105.01402 364.259026 105.01402 356.749366 
C 105.01402 349.239706 106.90406 341.849443 110.509398 335.261838 
C 114.114736 328.674234 119.320729 323.098762 125.64606 319.0509 
C 118.352426 312.457239 109.299636 308.11983 99.590738 306.567169 
C 89.881839 305.014508 79.927856 306.312328 70.941642 310.302492 
C 61.955427 314.292657 54.317411 320.806245 48.958255 329.049601 
C 43.599099 337.292957 40.745683 346.9171 40.745683 356.749366 
C 40.745683 366.581633 43.599099 376.205776 48.958255 384.449132 
C 54.317411 392.692487 61.955427 399.206075 70.941642 403.19624 
C 79.927856 407.186405 89.881839 408.484224 99.590738 406.931563 
C 109.299636 405.378902 118.352426 401.041493 125.64606 394.447832 
" style="fill:#c0c0c0;opacity:0.4;"/>
   </g>
   <g id="patch_21">
    <path clip-path="url(#p8dd73611fc)" d="M 125.64606 319.0509 
C 130.91623 323.81529 135.129225 329.632298 138.012404 336.125478 
C 140.895582 342.618658 142.385377 349.644853 142.385377 356.749366 
C 142.385377 363.853879 140.895582 370.880074 138.012404 377.373254 
C 135.129225 383.866434 130.91623 389.683442 125.64606 394.447832 
C 132.409006 398.775744 140.213579 401.205084 148.238081 401.480082 
C 156.262584 401.75508 164.215157 399.865735 171.258522 396.010962 
C 178.301888 392.15619 184.179871 386.476194 188.273615 379.568985 
C 192.367358 372.661777 194.527969 364.778579 194.527969 356.749366 
C 194.527969 348.720153 192.367358 340.836955 188.273615 333.929747 
C 184.179871 327.022539 178.301888 321.342542 171.258522 317.48777 
C 164.215157 313.632998 156.262584 311.743652 148.238081 312.01865 
C 140.213579 312.293648 132.409006 314.722989 125.64606 319.0509 
" style="fill:#fdbf6f;opacity:0.4;"/>
   </g>
   <g id="patch_22">
    <path clip-path="url(#p8dd73611fc)" d="M 125.64606 394.447832 
C 130.91623 389.683442 135.129225 383.866434 138.012404 377.373254 
C 140.895582 370.880074 142.385377 363.853879 142.385377 356.749366 
C 142.385377 349.644853 140.895582 342.618658 138.012404 336.125478 
C 135.129225 329.632298 130.91623 323.81529 125.64606 319.0509 
C 119.320729 323.098762 114.114736 328.674234 110.509398 335.261838 
C 106.90406 341.849443 105.01402 349.239706 105.01402 356.749366 
C 105.01402 364.259026 106.90406 371.64929 110.509398 378.236894 
C 114.114736 384.824498 119.320729 390.39997 125.64606 394.447832 
" style="fill:#ffffd4;opacity:0.4;"/>
   </g>
   <g id="text_31">
    <!-- 901 -->
    <g style="fill:#262626;" transform="translate(64.538445 359.334522)scale(0.1 -0.1)">
     <use xlink:href="#ArialMT-39"/>
     <use x="55.615234" xlink:href="#ArialMT-30"/>
     <use x="111.230469" xlink:href="#ArialMT-31"/>
    </g>
   </g>
   <g id="text_32">
    <!-- 634 -->
    <g style="fill:#262626;" transform="translate(160.115267 359.334522)scale(0.1 -0.1)">
     <use xlink:href="#ArialMT-36"/>
     <use x="55.615234" xlink:href="#ArialMT-33"/>
     <use x="111.230469" xlink:href="#ArialMT-34"/>
    </g>
   </g>
   <g id="text_33">
    <!-- 289 -->
    <g style="fill:#262626;" transform="translate(115.358292 359.334522)scale(0.1 -0.1)">
     <use xlink:href="#ArialMT-32"/>
     <use x="55.615234" xlink:href="#ArialMT-38"/>
     <use x="111.230469" xlink:href="#ArialMT-39"/>
    </g>
   </g>
   <g id="text_34">
    <!-- Bioregistry -->
    <g style="fill:#262626;" transform="translate(34.88428 420.937429)scale(0.12 -0.12)">
     <use xlink:href="#ArialMT-42"/>
     <use x="66.699219" xlink:href="#ArialMT-69"/>
     <use x="88.916016" xlink:href="#ArialMT-6f"/>
     <use x="144.53125" xlink:href="#ArialMT-72"/>
     <use x="177.832031" xlink:href="#ArialMT-65"/>
     <use x="233.447266" xlink:href="#ArialMT-67"/>
     <use x="289.0625" xlink:href="#ArialMT-69"/>
     <use x="311.279297" xlink:href="#ArialMT-73"/>
     <use x="361.279297" xlink:href="#ArialMT-74"/>
     <use x="389.0625" xlink:href="#ArialMT-72"/>
     <use x="422.363281" xlink:href="#ArialMT-79"/>
    </g>
   </g>
   <g id="text_35">
    <!-- BioPortal -->
    <g style="fill:#262626;" transform="translate(149.770994 414.874557)scale(0.12 -0.12)">
     <defs>
      <path d="M 494 0 
L 494 4581 
L 2222 4581 
Q 2678 4581 2919 4538 
Q 3256 4481 3484 4323 
Q 3713 4166 3852 3881 
Q 3991 3597 3991 3256 
Q 3991 2672 3619 2267 
Q 3247 1863 2275 1863 
L 1100 1863 
L 1100 0 
L 494 0 
z
M 1100 2403 
L 2284 2403 
Q 2872 2403 3119 2622 
Q 3366 2841 3366 3238 
Q 3366 3525 3220 3729 
Q 3075 3934 2838 4000 
Q 2684 4041 2272 4041 
L 1100 4041 
L 1100 2403 
z
" id="ArialMT-50" transform="scale(0.015625)"/>
      <path d="M 409 0 
L 409 4581 
L 972 4581 
L 972 0 
L 409 0 
z
" id="ArialMT-6c" transform="scale(0.015625)"/>
     </defs>
     <use xlink:href="#ArialMT-42"/>
     <use x="66.699219" xlink:href="#ArialMT-69"/>
     <use x="88.916016" xlink:href="#ArialMT-6f"/>
     <use x="144.53125" xlink:href="#ArialMT-50"/>
     <use x="211.230469" xlink:href="#ArialMT-6f"/>
     <use x="266.845703" xlink:href="#ArialMT-72"/>
     <use x="300.146484" xlink:href="#ArialMT-74"/>
     <use x="327.929688" xlink:href="#ArialMT-61"/>
     <use x="383.544922" xlink:href="#ArialMT-6c"/>
    </g>
   </g>
  </g>
  <g id="axes_8">
   <g id="patch_23">
    <path clip-path="url(#pd544b7552c)" d="M 361.159926 402.849454 
C 354.434716 404.02413 347.533209 403.713063 340.940945 401.938138 
C 334.348681 400.163212 328.223967 396.967052 322.997694 392.574515 
C 317.771421 388.181978 313.569094 382.698547 310.686358 376.509998 
C 307.803622 370.321449 306.309703 363.576394 306.309703 356.749366 
C 306.309703 349.922338 307.803622 343.177283 310.686358 336.988734 
C 313.569094 330.800185 317.771421 325.316755 322.997694 320.924218 
C 328.223967 316.531681 334.348681 313.33552 340.940945 311.560594 
C 347.533209 309.785669 354.434716 309.474602 361.159926 310.649278 
C 353.199164 306.402216 344.272396 304.288743 335.252427 304.515499 
C 326.232458 304.742256 317.423162 307.301604 309.685859 311.943306 
C 301.948555 316.585008 295.543907 323.152689 291.098121 331.004201 
C 286.652335 338.855714 284.315186 347.726547 284.315186 356.749366 
C 284.315186 365.772185 286.652335 374.643018 291.098121 382.494531 
C 295.543907 390.346044 301.948555 396.913724 309.685859 401.555426 
C 317.423162 406.197128 326.232458 408.756476 335.252427 408.983233 
C 344.272396 409.20999 353.199164 407.096516 361.159926 402.849454 
" style="fill:#c0c0c0;opacity:0.4;"/>
   </g>
   <g id="patch_24">
    <path clip-path="url(#pd544b7552c)" d="M 361.159926 310.649278 
C 369.51357 315.105942 376.500836 321.750511 381.371616 329.869669 
C 386.242397 337.988827 388.815926 347.28125 388.815926 356.749366 
C 388.815926 366.217482 386.242397 375.509906 381.371616 383.629063 
C 376.500836 391.748221 369.51357 398.39279 361.159926 402.849454 
C 372.008339 400.954589 381.847298 395.289891 388.932885 386.859408 
C 396.018471 378.428925 399.905769 367.762022 399.905769 356.749366 
C 399.905769 345.73671 396.018471 335.069807 388.932885 326.639324 
C 381.847298 318.208841 372.008339 312.544144 361.159926 310.649278 
" style="fill:#ff7f00;opacity:0.4;"/>
   </g>
   <g id="patch_25">
    <path clip-path="url(#pd544b7552c)" d="M 361.159926 402.849454 
C 369.51357 398.39279 376.500836 391.748221 381.371616 383.629063 
C 386.242397 375.509906 388.815926 366.217482 388.815926 356.749366 
C 388.815926 347.28125 386.242397 337.988827 381.371616 329.869669 
C 376.500836 321.750511 369.51357 315.105942 361.159926 310.649278 
C 354.434716 309.474602 347.533209 309.785669 340.940945 311.560594 
C 334.348681 313.33552 328.223967 316.531681 322.997694 320.924218 
C 317.771421 325.316755 313.569094 330.800185 310.686358 336.988734 
C 307.803622 343.177283 306.309703 349.922338 306.309703 356.749366 
C 306.309703 363.576394 307.803622 370.321449 310.686358 376.509998 
C 313.569094 382.698547 317.771421 388.181978 322.997694 392.574515 
C 328.223967 396.967052 334.348681 400.163212 340.940945 401.938138 
C 347.533209 403.713063 354.434716 404.02413 361.159926 402.849454 
" style="fill:#ffdf86;opacity:0.4;"/>
   </g>
   <g id="text_36">
    <!-- 356 -->
    <g style="fill:#262626;" transform="translate(286.971038 359.334522)scale(0.1 -0.1)">
     <use xlink:href="#ArialMT-33"/>
     <use x="55.615234" xlink:href="#ArialMT-35"/>
     <use x="111.230469" xlink:href="#ArialMT-36"/>
    </g>
   </g>
   <g id="text_37">
    <!-- 121 -->
    <g style="fill:#262626;" transform="translate(386.019441 359.334522)scale(0.1 -0.1)">
     <use xlink:href="#ArialMT-31"/>
     <use x="55.615234" xlink:href="#ArialMT-32"/>
     <use x="111.230469" xlink:href="#ArialMT-31"/>
    </g>
   </g>
   <g id="text_38">
    <!-- 832 -->
    <g style="fill:#262626;" transform="translate(339.221408 359.334522)scale(0.1 -0.1)">
     <use xlink:href="#ArialMT-38"/>
     <use x="55.615234" xlink:href="#ArialMT-33"/>
     <use x="111.230469" xlink:href="#ArialMT-32"/>
    </g>
   </g>
   <g id="text_39">
    <!-- Bioregistry -->
    <g style="fill:#262626;" transform="translate(279.884306 422.541531)scale(0.12 -0.12)">
     <use xlink:href="#ArialMT-42"/>
     <use x="66.699219" xlink:href="#ArialMT-69"/>
     <use x="88.916016" xlink:href="#ArialMT-6f"/>
     <use x="144.53125" xlink:href="#ArialMT-72"/>
     <use x="177.832031" xlink:href="#ArialMT-65"/>
     <use x="233.447266" xlink:href="#ArialMT-67"/>
     <use x="289.0625" xlink:href="#ArialMT-69"/>
     <use x="311.279297" xlink:href="#ArialMT-73"/>
     <use x="361.279297" xlink:href="#ArialMT-74"/>
     <use x="389.0625" xlink:href="#ArialMT-72"/>
     <use x="422.363281" xlink:href="#ArialMT-79"/>
    </g>
   </g>
   <g id="text_40">
    <!-- Prefix Commons -->
    <g style="fill:#262626;" transform="translate(353.107736 417.089194)scale(0.12 -0.12)">
     <defs>
      <path d="M 556 0 
L 556 2881 
L 59 2881 
L 59 3319 
L 556 3319 
L 556 3672 
Q 556 4006 616 4169 
Q 697 4388 901 4523 
Q 1106 4659 1475 4659 
Q 1713 4659 2000 4603 
L 1916 4113 
Q 1741 4144 1584 4144 
Q 1328 4144 1222 4034 
Q 1116 3925 1116 3625 
L 1116 3319 
L 1763 3319 
L 1763 2881 
L 1116 2881 
L 1116 0 
L 556 0 
z
" id="ArialMT-66" transform="scale(0.015625)"/>
      <path d="M 47 0 
L 1259 1725 
L 138 3319 
L 841 3319 
L 1350 2541 
Q 1494 2319 1581 2169 
Q 1719 2375 1834 2534 
L 2394 3319 
L 3066 3319 
L 1919 1756 
L 3153 0 
L 2463 0 
L 1781 1031 
L 1600 1309 
L 728 0 
L 47 0 
z
" id="ArialMT-78" transform="scale(0.015625)"/>
      <path id="ArialMT-20" transform="scale(0.015625)"/>
      <path d="M 3763 1606 
L 4369 1453 
Q 4178 706 3683 314 
Q 3188 -78 2472 -78 
Q 1731 -78 1267 223 
Q 803 525 561 1097 
Q 319 1669 319 2325 
Q 319 3041 592 3573 
Q 866 4106 1370 4382 
Q 1875 4659 2481 4659 
Q 3169 4659 3637 4309 
Q 4106 3959 4291 3325 
L 3694 3184 
Q 3534 3684 3231 3912 
Q 2928 4141 2469 4141 
Q 1941 4141 1586 3887 
Q 1231 3634 1087 3207 
Q 944 2781 944 2328 
Q 944 1744 1114 1308 
Q 1284 872 1643 656 
Q 2003 441 2422 441 
Q 2931 441 3284 734 
Q 3638 1028 3763 1606 
z
" id="ArialMT-43" transform="scale(0.015625)"/>
      <path d="M 422 0 
L 422 3319 
L 925 3319 
L 925 2853 
Q 1081 3097 1340 3245 
Q 1600 3394 1931 3394 
Q 2300 3394 2536 3241 
Q 2772 3088 2869 2813 
Q 3263 3394 3894 3394 
Q 4388 3394 4653 3120 
Q 4919 2847 4919 2278 
L 4919 0 
L 4359 0 
L 4359 2091 
Q 4359 2428 4304 2576 
Q 4250 2725 4106 2815 
Q 3963 2906 3769 2906 
Q 3419 2906 3187 2673 
Q 2956 2441 2956 1928 
L 2956 0 
L 2394 0 
L 2394 2156 
Q 2394 2531 2256 2718 
Q 2119 2906 1806 2906 
Q 1569 2906 1367 2781 
Q 1166 2656 1075 2415 
Q 984 2175 984 1722 
L 984 0 
L 422 0 
z
" id="ArialMT-6d" transform="scale(0.015625)"/>
      <path d="M 422 0 
L 422 3319 
L 928 3319 
L 928 2847 
Q 1294 3394 1984 3394 
Q 2284 3394 2536 3286 
Q 2788 3178 2913 3003 
Q 3038 2828 3088 2588 
Q 3119 2431 3119 2041 
L 3119 0 
L 2556 0 
L 2556 2019 
Q 2556 2363 2490 2533 
Q 2425 2703 2258 2804 
Q 2091 2906 1866 2906 
Q 1506 2906 1245 2678 
Q 984 2450 984 1813 
L 984 0 
L 422 0 
z
" id="ArialMT-6e" transform="scale(0.015625)"/>
     </defs>
     <use xlink:href="#ArialMT-50"/>
     <use x="66.699219" xlink:href="#ArialMT-72"/>
     <use x="100" xlink:href="#ArialMT-65"/>
     <use x="155.615234" xlink:href="#ArialMT-66"/>
     <use x="183.398438" xlink:href="#ArialMT-69"/>
     <use x="205.615234" xlink:href="#ArialMT-78"/>
     <use x="255.615234" xlink:href="#ArialMT-20"/>
     <use x="283.398438" xlink:href="#ArialMT-43"/>
     <use x="355.615234" xlink:href="#ArialMT-6f"/>
     <use x="411.230469" xlink:href="#ArialMT-6d"/>
     <use x="494.53125" xlink:href="#ArialMT-6d"/>
     <use x="577.832031" xlink:href="#ArialMT-6f"/>
     <use x="633.447266" xlink:href="#ArialMT-6e"/>
     <use x="689.0625" xlink:href="#ArialMT-73"/>
    </g>
   </g>
  </g>
  <g id="axes_9">
   <g id="patch_26">
    <path clip-path="url(#p103a9cd208)" d="M 610.2916 372.550092 
C 608.16021 372.640644 606.032369 372.299006 604.036451 371.545789 
C 602.040534 370.792572 600.217501 369.643234 598.677339 368.167117 
C 597.137177 366.690999 595.911494 364.918395 595.074236 362.956248 
C 594.236978 360.994101 593.805328 358.882679 593.805328 356.749366 
C 593.805328 354.616053 594.236978 352.504632 595.074236 350.542484 
C 595.911494 348.580337 597.137177 346.807734 598.677339 345.331616 
C 600.217501 343.855498 602.040534 342.70616 604.036451 341.952943 
C 606.032369 341.199727 608.16021 340.858088 610.2916 340.94864 
C 608.419695 335.017801 605.508662 329.466523 601.694512 324.554176 
C 597.880363 319.64183 593.22344 315.446133 587.941327 312.163121 
C 582.659215 308.880108 576.835481 306.561719 570.742226 305.316277 
C 564.648971 304.070834 558.382596 303.91804 552.235883 304.865036 
C 546.08917 305.812031 540.159364 307.843832 534.723525 310.865509 
C 529.287685 313.887185 524.43181 317.850931 520.382779 322.571549 
C 516.333749 327.292167 513.155622 332.694973 510.996889 338.527533 
C 508.838157 344.360093 507.732972 350.530131 507.732972 356.749366 
C 507.732972 362.968601 508.838157 369.138639 510.996889 374.971199 
C 513.155622 380.803759 516.333749 386.206566 520.382779 390.927184 
C 524.43181 395.647802 529.287685 399.611547 534.723525 402.633224 
C 540.159364 405.6549 546.08917 407.686702 552.235883 408.633697 
C 558.382596 409.580692 564.648971 409.427899 570.742226 408.182456 
C 576.835481 406.937013 582.659215 404.618624 587.941327 401.335612 
C 593.22344 398.052599 597.880363 393.856902 601.694512 388.944556 
C 605.508662 384.03221 608.419695 378.480931 610.2916 372.550092 
" style="fill:#c0c0c0;opacity:0.4;"/>
   </g>
   <g id="patch_27">
    <path clip-path="url(#p103a9cd208)" d="M 610.2916 340.94864 
C 611.904964 346.060334 612.725943 351.389109 612.725943 356.749366 
C 612.725943 362.109623 611.904964 367.438398 610.2916 372.550092 
C 614.364697 372.377047 618.217189 370.635592 621.038058 367.692334 
C 623.858926 364.749076 625.435287 360.826138 625.435287 356.749366 
C 625.435287 352.672594 623.858926 348.749656 621.038058 345.806398 
C 618.217189 342.86314 614.364697 341.121686 610.2916 340.94864 
" style="fill:#cab2d6;opacity:0.4;"/>
   </g>
   <g id="patch_28">
    <path clip-path="url(#p103a9cd208)" d="M 610.2916 372.550092 
C 611.904964 367.438398 612.725943 362.109623 612.725943 356.749366 
C 612.725943 351.389109 611.904964 346.060334 610.2916 340.94864 
C 608.16021 340.858088 606.032369 341.199727 604.036451 341.952943 
C 602.040534 342.70616 600.217501 343.855498 598.677339 345.331616 
C 597.137177 346.807734 595.911494 348.580337 595.074236 350.542484 
C 594.236978 352.504632 593.805328 354.616053 593.805328 356.749366 
C 593.805328 358.882679 594.236978 360.994101 595.074236 362.956248 
C 595.911494 364.918395 597.137177 366.690999 598.677339 368.167117 
C 600.217501 369.643234 602.040534 370.792572 604.036451 371.545789 
C 606.032369 372.299006 608.16021 372.640644 610.2916 372.550092 
" style="fill:#ffffff;opacity:0.4;"/>
   </g>
   <g id="text_41">
    <!-- 1126 -->
    <g style="fill:#262626;" transform="translate(540.016025 359.334522)scale(0.1 -0.1)">
     <use xlink:href="#ArialMT-31"/>
     <use x="48.240234" xlink:href="#ArialMT-31"/>
     <use x="103.855469" xlink:href="#ArialMT-32"/>
     <use x="159.470703" xlink:href="#ArialMT-36"/>
    </g>
   </g>
   <g id="text_42">
    <!-- 44 -->
    <g style="fill:#262626;" transform="translate(613.519677 359.334522)scale(0.1 -0.1)">
     <use xlink:href="#ArialMT-34"/>
     <use x="55.615234" xlink:href="#ArialMT-34"/>
    </g>
   </g>
   <g id="text_43">
    <!-- 64 -->
    <g style="fill:#262626;" transform="translate(597.704698 359.334522)scale(0.1 -0.1)">
     <use xlink:href="#ArialMT-36"/>
     <use x="55.615234" xlink:href="#ArialMT-34"/>
    </g>
   </g>
   <g id="text_44">
    <!-- Bioregistry -->
    <g style="fill:#262626;" transform="translate(503.548208 421.2508)scale(0.12 -0.12)">
     <use xlink:href="#ArialMT-42"/>
     <use x="66.699219" xlink:href="#ArialMT-69"/>
     <use x="88.916016" xlink:href="#ArialMT-6f"/>
     <use x="144.53125" xlink:href="#ArialMT-72"/>
     <use x="177.832031" xlink:href="#ArialMT-65"/>
     <use x="233.447266" xlink:href="#ArialMT-67"/>
     <use x="289.0625" xlink:href="#ArialMT-69"/>
     <use x="311.279297" xlink:href="#ArialMT-73"/>
     <use x="361.279297" xlink:href="#ArialMT-74"/>
     <use x="389.0625" xlink:href="#ArialMT-72"/>
     <use x="422.363281" xlink:href="#ArialMT-79"/>
    </g>
   </g>
   <g id="text_45">
    <!-- Biolink -->
    <g style="fill:#262626;" transform="translate(609.620307 384.569294)scale(0.12 -0.12)">
     <use xlink:href="#ArialMT-42"/>
     <use x="66.699219" xlink:href="#ArialMT-69"/>
     <use x="88.916016" xlink:href="#ArialMT-6f"/>
     <use x="144.53125" xlink:href="#ArialMT-6c"/>
     <use x="166.748047" xlink:href="#ArialMT-69"/>
     <use x="188.964844" xlink:href="#ArialMT-6e"/>
     <use x="244.580078" xlink:href="#ArialMT-6b"/>
    </g>
   </g>
  </g>
  <g id="axes_10">
   <g id="patch_29">
    <path clip-path="url(#p0a51590c81)" d="M 159.92568 515.732239 
C 155.507883 515.600464 151.311035 513.751062 148.232733 510.579571 
C 145.154432 507.408081 143.43098 503.157958 143.43098 498.738197 
C 143.43098 494.318435 145.154432 490.068313 148.232733 486.896822 
C 151.311035 483.725332 155.507883 481.87593 159.92568 481.744155 
C 157.92966 475.915069 154.922184 470.482966 151.041404 465.697375 
C 147.160623 460.911784 142.466885 456.847121 137.175802 453.690102 
C 131.884718 450.533082 126.078565 448.332799 120.024056 447.190322 
C 113.969546 446.047846 107.760828 445.980943 101.683105 446.992687 
C 95.605383 448.00443 89.753165 450.079088 84.39528 453.121358 
C 79.037395 456.163627 74.257158 460.126202 70.274155 464.827056 
C 66.291152 469.527909 63.16732 474.893944 61.046153 480.678664 
C 58.924987 486.463385 57.839472 492.576838 57.839472 498.738197 
C 57.839472 504.899555 58.924987 511.013009 61.046153 516.797729 
C 63.16732 522.58245 66.291152 527.948484 70.274155 532.649338 
C 74.257158 537.350192 79.037395 541.312766 84.39528 544.355036 
C 89.753165 547.397306 95.605383 549.471963 101.683105 550.483707 
C 107.760828 551.495451 113.969546 551.428548 120.024056 550.286071 
C 126.078565 549.143595 131.884718 546.943311 137.175802 543.786292 
C 142.466885 540.629273 147.160623 536.56461 151.041404 531.779019 
C 154.922184 526.993428 157.92966 521.561324 159.92568 515.732239 
" style="fill:#c0c0c0;opacity:0.4;"/>
   </g>
   <g id="patch_30">
    <path clip-path="url(#p0a51590c81)" d="M 159.92568 481.744155 
C 161.798741 487.214159 162.754636 492.956389 162.754636 498.738197 
C 162.754636 504.520004 161.798741 510.262235 159.92568 515.732239 
C 162.199958 515.800076 164.464885 515.410685 166.585925 514.587195 
C 168.706964 513.763705 170.641273 512.522751 172.273954 510.938043 
C 173.906635 509.353336 175.204709 507.456886 176.091071 505.361342 
C 176.977434 503.265797 177.43418 501.013487 177.43418 498.738197 
C 177.43418 496.462907 176.977434 494.210597 176.091071 492.115052 
C 175.204709 490.019507 173.906635 488.123058 172.273954 486.53835 
C 170.641273 484.953643 168.706964 483.712688 166.585925 482.889198 
C 164.464885 482.065709 162.199958 481.676318 159.92568 481.744155 
" style="fill:#6a3d9a;opacity:0.4;"/>
   </g>
   <g id="patch_31">
    <path clip-path="url(#p0a51590c81)" d="M 159.92568 515.732239 
C 161.798741 510.262235 162.754636 504.520004 162.754636 498.738197 
C 162.754636 492.956389 161.798741 487.214159 159.92568 481.744155 
C 155.507883 481.87593 151.311035 483.725332 148.232733 486.896822 
C 145.154432 490.068313 143.43098 494.318435 143.43098 498.738197 
C 143.43098 503.157958 145.154432 507.408081 148.232733 510.579571 
C 151.311035 513.751062 155.507883 515.600464 159.92568 515.732239 
" style="fill:#d1b1f2;opacity:0.4;"/>
   </g>
   <g id="text_46">
    <!-- 1121 -->
    <g style="fill:#262626;" transform="translate(89.882101 501.323353)scale(0.1 -0.1)">
     <use xlink:href="#ArialMT-31"/>
     <use x="48.240234" xlink:href="#ArialMT-31"/>
     <use x="103.855469" xlink:href="#ArialMT-32"/>
     <use x="159.470703" xlink:href="#ArialMT-31"/>
    </g>
   </g>
   <g id="text_47">
    <!-- 56 -->
    <g style="fill:#262626;" transform="translate(164.533471 501.323353)scale(0.1 -0.1)">
     <use xlink:href="#ArialMT-35"/>
     <use x="55.615234" xlink:href="#ArialMT-36"/>
    </g>
   </g>
   <g id="text_48">
    <!-- 69 -->
    <g style="fill:#262626;" transform="translate(147.531871 501.323353)scale(0.1 -0.1)">
     <use xlink:href="#ArialMT-36"/>
     <use x="55.615234" xlink:href="#ArialMT-39"/>
    </g>
   </g>
   <g id="text_49">
    <!-- Bioregistry -->
    <g style="fill:#262626;" transform="translate(53.615804 563.258113)scale(0.12 -0.12)">
     <use xlink:href="#ArialMT-42"/>
     <use x="66.699219" xlink:href="#ArialMT-69"/>
     <use x="88.916016" xlink:href="#ArialMT-6f"/>
     <use x="144.53125" xlink:href="#ArialMT-72"/>
     <use x="177.832031" xlink:href="#ArialMT-65"/>
     <use x="233.447266" xlink:href="#ArialMT-67"/>
     <use x="289.0625" xlink:href="#ArialMT-69"/>
     <use x="311.279297" xlink:href="#ArialMT-73"/>
     <use x="361.279297" xlink:href="#ArialMT-74"/>
     <use x="389.0625" xlink:href="#ArialMT-72"/>
     <use x="422.363281" xlink:href="#ArialMT-79"/>
    </g>
   </g>
   <g id="text_50">
    <!-- NCBI -->
    <g style="fill:#262626;" transform="translate(160.43258 527.802131)scale(0.12 -0.12)">
     <use xlink:href="#ArialMT-4e"/>
     <use x="72.216797" xlink:href="#ArialMT-43"/>
     <use x="144.433594" xlink:href="#ArialMT-42"/>
     <use x="211.132812" xlink:href="#ArialMT-49"/>
    </g>
   </g>
  </g>
  <g id="axes_11">
   <g id="patch_32">
    <path clip-path="url(#p8a77b36e43)" d="M 380.980468 519.006266 
C 376.029976 518.40447 371.467513 516.009299 368.160822 512.276295 
C 364.854131 508.54329 363.027036 503.725133 363.027036 498.738197 
C 363.027036 493.751261 364.854131 488.933104 368.160822 485.200099 
C 371.467513 481.467094 376.029976 479.071923 380.980468 478.470127 
C 378.657442 472.937744 375.400472 467.845697 371.352116 463.416868 
C 367.30376 458.988038 362.523958 455.287999 357.221923 452.478703 
C 351.919888 449.669406 346.174123 447.792446 340.236121 446.929979 
C 334.298119 446.067511 328.255798 446.232304 322.373633 447.417147 
C 316.491468 448.601989 310.85655 450.789337 305.71552 453.88345 
C 300.574491 456.977563 296.003468 460.932629 292.202528 465.575534 
C 288.401587 470.21844 285.427005 475.480441 283.40898 481.131219 
C 281.390956 486.781997 280.359367 492.737887 280.359367 498.738197 
C 280.359367 504.738507 281.390956 510.694396 283.40898 516.345174 
C 285.427005 521.995953 288.401587 527.257954 292.202528 531.900859 
C 296.003468 536.543765 300.574491 540.498831 305.71552 543.592944 
C 310.85655 546.687057 316.491468 548.874405 322.373633 550.059247 
C 328.255798 551.244089 334.298119 551.408883 340.236121 550.546415 
C 346.174123 549.683947 351.919888 547.806988 357.221923 544.997691 
C 362.523958 542.188394 367.30376 538.488356 371.352116 534.059526 
C 375.400472 529.630697 378.657442 524.53865 380.980468 519.006266 
" style="fill:#c0c0c0;opacity:0.4;"/>
   </g>
   <g id="patch_33">
    <path clip-path="url(#p8a77b36e43)" d="M 380.980468 478.470127 
C 383.675067 484.887426 385.063058 491.778126 385.063058 498.738197 
C 385.063058 505.698268 383.675067 512.588967 380.980468 519.006266 
C 383.848476 519.354909 386.758091 519.090864 389.516485 518.231629 
C 392.274879 517.372393 394.819739 515.937379 396.98241 514.021687 
C 399.145081 512.105995 400.876709 509.752902 402.062532 507.118354 
C 403.248356 504.483806 403.861588 501.627318 403.861588 498.738197 
C 403.861588 495.849076 403.248356 492.992587 402.062532 490.358039 
C 400.876709 487.723491 399.145081 485.370398 396.98241 483.454707 
C 394.819739 481.539015 392.274879 480.104 389.516485 479.244765 
C 386.758091 478.38553 383.848476 478.121484 380.980468 478.470127 
" style="fill:#ffff99;opacity:0.4;"/>
   </g>
   <g id="patch_34">
    <path clip-path="url(#p8a77b36e43)" d="M 380.980468 519.006266 
C 383.675067 512.588967 385.063058 505.698268 385.063058 498.738197 
C 385.063058 491.778126 383.675067 484.887426 380.980468 478.470127 
C 376.029976 479.071923 371.467513 481.467094 368.160822 485.200099 
C 364.854131 488.933104 363.027036 493.751261 363.027036 498.738197 
C 363.027036 503.725133 364.854131 508.54329 368.160822 512.276295 
C 371.467513 516.009299 376.029976 518.40447 380.980468 519.006266 
" style="fill:#fffff2;opacity:0.4;"/>
   </g>
   <g id="text_51">
    <!-- 1098 -->
    <g style="fill:#262626;" transform="translate(310.571326 501.323353)scale(0.1 -0.1)">
     <use xlink:href="#ArialMT-31"/>
     <use x="55.615234" xlink:href="#ArialMT-30"/>
     <use x="111.230469" xlink:href="#ArialMT-39"/>
     <use x="166.845703" xlink:href="#ArialMT-38"/>
    </g>
   </g>
   <g id="text_52">
    <!-- 89 -->
    <g style="fill:#262626;" transform="translate(388.901386 501.323353)scale(0.1 -0.1)">
     <use xlink:href="#ArialMT-38"/>
     <use x="55.615234" xlink:href="#ArialMT-39"/>
    </g>
   </g>
   <g id="text_53">
    <!-- 92 -->
    <g style="fill:#262626;" transform="translate(368.484109 501.323353)scale(0.1 -0.1)">
     <use xlink:href="#ArialMT-39"/>
     <use x="55.615234" xlink:href="#ArialMT-32"/>
    </g>
   </g>
   <g id="text_54">
    <!-- Bioregistry -->
    <g style="fill:#262626;" transform="translate(276.029962 563.317873)scale(0.12 -0.12)">
     <use xlink:href="#ArialMT-42"/>
     <use x="66.699219" xlink:href="#ArialMT-69"/>
     <use x="88.916016" xlink:href="#ArialMT-6f"/>
     <use x="144.53125" xlink:href="#ArialMT-72"/>
     <use x="177.832031" xlink:href="#ArialMT-65"/>
     <use x="233.447266" xlink:href="#ArialMT-67"/>
     <use x="289.0625" xlink:href="#ArialMT-69"/>
     <use x="311.279297" xlink:href="#ArialMT-73"/>
     <use x="361.279297" xlink:href="#ArialMT-74"/>
     <use x="389.0625" xlink:href="#ArialMT-72"/>
     <use x="422.363281" xlink:href="#ArialMT-79"/>
    </g>
   </g>
   <g id="text_55">
    <!-- UniProt -->
    <g style="fill:#262626;" transform="translate(383.444312 531.383304)scale(0.12 -0.12)">
     <defs>
      <path d="M 3500 4581 
L 4106 4581 
L 4106 1934 
Q 4106 1244 3950 837 
Q 3794 431 3386 176 
Q 2978 -78 2316 -78 
Q 1672 -78 1262 144 
Q 853 366 678 786 
Q 503 1206 503 1934 
L 503 4581 
L 1109 4581 
L 1109 1938 
Q 1109 1341 1220 1058 
Q 1331 775 1601 622 
Q 1872 469 2263 469 
Q 2931 469 3215 772 
Q 3500 1075 3500 1938 
L 3500 4581 
z
" id="ArialMT-55" transform="scale(0.015625)"/>
     </defs>
     <use xlink:href="#ArialMT-55"/>
     <use x="72.216797" xlink:href="#ArialMT-6e"/>
     <use x="127.832031" xlink:href="#ArialMT-69"/>
     <use x="150.048828" xlink:href="#ArialMT-50"/>
     <use x="216.748047" xlink:href="#ArialMT-72"/>
     <use x="250.048828" xlink:href="#ArialMT-6f"/>
     <use x="305.664062" xlink:href="#ArialMT-74"/>
    </g>
   </g>
  </g>
  <g id="axes_12">
   <g id="patch_35">
    <path clip-path="url(#p49a4cd8541)" d="M 608.062782 514.361922 
C 604.515107 513.564682 601.342625 511.582378 599.070763 508.743321 
C 596.798902 505.904265 595.560412 502.374348 595.560412 498.738197 
C 595.560412 495.102045 596.798902 491.572129 599.070763 488.733072 
C 601.342625 485.894016 604.515107 483.911712 608.062782 483.114471 
C 606.209781 477.178466 603.315439 471.619175 599.515286 466.696918 
C 595.715134 461.774661 591.069426 457.567485 585.795703 454.272395 
C 580.52198 450.977305 574.703862 448.646548 568.613787 447.389264 
C 562.523713 446.131979 556.258246 445.968103 550.110773 446.905309 
C 543.963301 447.842515 538.031297 449.865942 532.592534 452.880843 
C 527.15377 455.895743 522.294484 459.854312 518.242216 464.571185 
C 514.189947 469.288059 511.00895 474.688446 508.848176 480.519469 
C 506.687403 486.350492 505.581115 492.519694 505.581115 498.738197 
C 505.581115 504.956699 506.687403 511.125901 508.848176 516.956925 
C 511.00895 522.787948 514.189947 528.188335 518.242216 532.905209 
C 522.294484 537.622082 527.15377 541.580651 532.592534 544.595551 
C 538.031297 547.610451 543.963301 549.633879 550.110773 550.571085 
C 556.258246 551.50829 562.523713 551.344414 568.613787 550.08713 
C 574.703862 548.829846 580.52198 546.499088 585.795703 543.203998 
C 591.069426 539.908908 595.715134 535.701732 599.515286 530.779475 
C 603.315439 525.857218 606.209781 520.297928 608.062782 514.361922 
" style="fill:#c0c0c0;opacity:0.4;"/>
   </g>
   <g id="patch_36">
    <path clip-path="url(#p49a4cd8541)" d="M 608.062782 483.114471 
C 609.64158 488.172076 610.44468 493.439898 610.44468 498.738197 
C 610.44468 504.036495 609.64158 509.304318 608.062782 514.361922 
C 610.405434 514.888368 612.83677 514.881242 615.176296 514.341073 
C 617.515822 513.800905 619.704176 512.741399 621.578902 511.241211 
C 623.453629 509.741023 624.96716 507.838218 626.007135 505.674052 
C 627.047111 503.509886 627.587144 501.139272 627.587144 498.738197 
C 627.587144 496.337121 627.047111 493.966508 626.007135 491.802342 
C 624.96716 489.638176 623.453629 487.73537 621.578902 486.235182 
C 619.704176 484.734994 617.515822 483.675489 615.176296 483.13532 
C 612.83677 482.595152 610.405434 482.588026 608.062782 483.114471 
" style="fill:#b15928;opacity:0.4;"/>
   </g>
   <g id="patch_37">
    <path clip-path="url(#p49a4cd8541)" d="M 608.062782 514.361922 
C 609.64158 509.304318 610.44468 504.036495 610.44468 498.738197 
C 610.44468 493.439898 609.64158 488.172076 608.062782 483.114471 
C 604.515107 483.911712 601.342625 485.894016 599.070763 488.733072 
C 596.798902 491.572129 595.560412 495.102045 595.560412 498.738197 
C 595.560412 502.374348 596.798902 505.904265 599.070763 508.743321 
C 601.342625 511.582378 604.515107 513.564682 608.062782 514.361922 
" style="fill:#ffc5a2;opacity:0.4;"/>
   </g>
   <g id="text_56">
    <!-- 1143 -->
    <g style="fill:#262626;" transform="translate(539.817638 501.323353)scale(0.1 -0.1)">
     <use xlink:href="#ArialMT-31"/>
     <use x="48.240234" xlink:href="#ArialMT-31"/>
     <use x="103.855469" xlink:href="#ArialMT-34"/>
     <use x="159.470703" xlink:href="#ArialMT-33"/>
    </g>
   </g>
   <g id="text_57">
    <!-- 64 -->
    <g style="fill:#262626;" transform="translate(613.454974 501.323353)scale(0.1 -0.1)">
     <use xlink:href="#ArialMT-36"/>
     <use x="55.615234" xlink:href="#ArialMT-34"/>
    </g>
   </g>
   <g id="text_58">
    <!-- 47 -->
    <g style="fill:#262626;" transform="translate(597.441608 501.323353)scale(0.1 -0.1)">
     <use xlink:href="#ArialMT-34"/>
     <use x="55.615234" xlink:href="#ArialMT-37"/>
    </g>
   </g>
   <g id="text_59">
    <!-- Bioregistry -->
    <g style="fill:#262626;" transform="translate(501.331647 563.181612)scale(0.12 -0.12)">
     <use xlink:href="#ArialMT-42"/>
     <use x="66.699219" xlink:href="#ArialMT-69"/>
     <use x="88.916016" xlink:href="#ArialMT-6f"/>
     <use x="144.53125" xlink:href="#ArialMT-72"/>
     <use x="177.832031" xlink:href="#ArialMT-65"/>
     <use x="233.447266" xlink:href="#ArialMT-67"/>
     <use x="289.0625" xlink:href="#ArialMT-69"/>
     <use x="311.279297" xlink:href="#ArialMT-73"/>
     <use x="361.279297" xlink:href="#ArialMT-74"/>
     <use x="389.0625" xlink:href="#ArialMT-72"/>
     <use x="422.363281" xlink:href="#ArialMT-79"/>
    </g>
   </g>
   <g id="text_60">
    <!-- Cellosaurus -->
    <g style="fill:#262626;" transform="translate(611.573778 526.763195)scale(0.12 -0.12)">
     <defs>
      <path d="M 2597 0 
L 2597 488 
Q 2209 -75 1544 -75 
Q 1250 -75 995 37 
Q 741 150 617 320 
Q 494 491 444 738 
Q 409 903 409 1263 
L 409 3319 
L 972 3319 
L 972 1478 
Q 972 1038 1006 884 
Q 1059 663 1231 536 
Q 1403 409 1656 409 
Q 1909 409 2131 539 
Q 2353 669 2445 892 
Q 2538 1116 2538 1541 
L 2538 3319 
L 3100 3319 
L 3100 0 
L 2597 0 
z
" id="ArialMT-75" transform="scale(0.015625)"/>
     </defs>
     <use xlink:href="#ArialMT-43"/>
     <use x="72.216797" xlink:href="#ArialMT-65"/>
     <use x="127.832031" xlink:href="#ArialMT-6c"/>
     <use x="150.048828" xlink:href="#ArialMT-6c"/>
     <use x="172.265625" xlink:href="#ArialMT-6f"/>
     <use x="227.880859" xlink:href="#ArialMT-73"/>
     <use x="277.880859" xlink:href="#ArialMT-61"/>
     <use x="333.496094" xlink:href="#ArialMT-75"/>
     <use x="389.111328" xlink:href="#ArialMT-72"/>
     <use x="422.412109" xlink:href="#ArialMT-75"/>
     <use x="478.027344" xlink:href="#ArialMT-73"/>
    </g>
   </g>
  </g>
  <g id="axes_13">
   <g id="patch_38">
    <path clip-path="url(#pe888dc7b7f)" d="M 162.160222 661.038302 
C 158.622009 663.00802 154.629766 664.01944 150.580509 663.971979 
C 146.531252 663.924519 142.563812 662.819804 139.072739 660.767696 
C 135.581666 658.715589 132.686654 655.786446 130.675603 652.271562 
C 128.664552 648.756678 127.606412 644.776563 127.606412 640.727027 
C 127.606412 636.677492 128.664552 632.697377 130.675603 629.182493 
C 132.686654 625.667609 135.581666 622.738466 139.072739 620.686358 
C 142.563812 618.634251 146.531252 617.529536 150.580509 617.482076 
C 154.629766 617.434615 158.622009 618.446035 162.160222 620.415753 
C 159.831752 614.86143 156.565412 609.748644 152.504229 605.301276 
C 148.443047 600.853908 143.647178 597.137835 138.326625 594.315778 
C 133.006073 591.493721 127.239648 589.60748 121.279853 588.739653 
C 115.320058 587.871825 109.255172 588.035264 103.350766 589.222814 
C 97.44636 590.410364 91.789893 592.604434 86.629054 595.708949 
C 81.468214 598.813464 76.879445 602.782438 73.063682 607.442078 
C 69.24792 612.101717 66.261684 617.383001 64.235737 623.054669 
C 62.209791 628.726337 61.174143 634.70438 61.174143 640.727027 
C 61.174143 646.749675 62.209791 652.727717 64.235737 658.399386 
C 66.261684 664.071054 69.24792 669.352338 73.063682 674.011977 
C 76.879445 678.671616 81.468214 682.640591 86.629054 685.745106 
C 91.789893 688.849621 97.44636 691.043691 103.350766 692.231241 
C 109.255172 693.418791 115.320058 693.58223 121.279853 692.714402 
C 127.239648 691.846575 133.006073 689.960334 138.326625 687.138277 
C 143.647178 684.316219 148.443047 680.600146 152.504229 676.152779 
C 156.565412 671.705411 159.831752 666.592625 162.160222 661.038302 
" style="fill:#c0c0c0;opacity:0.4;"/>
   </g>
   <g id="patch_39">
    <path clip-path="url(#pe888dc7b7f)" d="M 162.160222 620.415753 
C 164.85662 626.847731 166.245417 633.752724 166.245417 640.727027 
C 166.245417 647.701331 164.85662 654.606323 162.160222 661.038302 
C 165.779141 659.023654 168.794713 656.077953 170.893629 652.507248 
C 172.992545 648.936544 174.099509 644.868933 174.099509 640.727027 
C 174.099509 636.585122 172.992545 632.517511 170.893629 628.946806 
C 168.794713 625.376102 165.779141 622.430401 162.160222 620.415753 
" style="fill:#a6cee3;opacity:0.4;"/>
   </g>
   <g id="patch_40">
    <path clip-path="url(#pe888dc7b7f)" d="M 162.160222 661.038302 
C 164.85662 654.606323 166.245417 647.701331 166.245417 640.727027 
C 166.245417 633.752724 164.85662 626.847731 162.160222 620.415753 
C 158.622009 618.446035 154.629766 617.434615 150.580509 617.482076 
C 146.531252 617.529536 142.563812 618.634251 139.072739 620.686358 
C 135.581666 622.738466 132.686654 625.667609 130.675603 629.182493 
C 128.664552 632.697377 127.606412 636.677492 127.606412 640.727027 
C 127.606412 644.776563 128.664552 648.756678 130.675603 652.271562 
C 132.686654 655.786446 135.581666 658.715589 139.072739 660.767696 
C 142.563812 662.819804 146.531252 663.924519 150.580509 663.971979 
C 154.629766 664.01944 158.622009 663.00802 162.160222 661.038302 
" style="fill:#fbffff;opacity:0.4;"/>
   </g>
   <g id="text_61">
    <!-- 989 -->
    <g style="fill:#262626;" transform="translate(86.048871 643.312184)scale(0.1 -0.1)">
     <use xlink:href="#ArialMT-39"/>
     <use x="55.615234" xlink:href="#ArialMT-38"/>
     <use x="111.230469" xlink:href="#ArialMT-39"/>
    </g>
   </g>
   <g id="text_62">
    <!-- 32 -->
    <g style="fill:#262626;" transform="translate(164.611525 643.312184)scale(0.1 -0.1)">
     <use xlink:href="#ArialMT-33"/>
     <use x="55.615234" xlink:href="#ArialMT-32"/>
    </g>
   </g>
   <g id="text_63">
    <!-- 201 -->
    <g style="fill:#262626;" transform="translate(138.584508 643.312184)scale(0.1 -0.1)">
     <use xlink:href="#ArialMT-32"/>
     <use x="55.615234" xlink:href="#ArialMT-30"/>
     <use x="111.230469" xlink:href="#ArialMT-31"/>
    </g>
   </g>
   <g id="text_64">
    <!-- Bioregistry -->
    <g style="fill:#262626;" transform="translate(57.02853 705.641149)scale(0.12 -0.12)">
     <use xlink:href="#ArialMT-42"/>
     <use x="66.699219" xlink:href="#ArialMT-69"/>
     <use x="88.916016" xlink:href="#ArialMT-6f"/>
     <use x="144.53125" xlink:href="#ArialMT-72"/>
     <use x="177.832031" xlink:href="#ArialMT-65"/>
     <use x="233.447266" xlink:href="#ArialMT-67"/>
     <use x="289.0625" xlink:href="#ArialMT-69"/>
     <use x="311.279297" xlink:href="#ArialMT-73"/>
     <use x="361.279297" xlink:href="#ArialMT-74"/>
     <use x="389.0625" xlink:href="#ArialMT-72"/>
     <use x="422.363281" xlink:href="#ArialMT-79"/>
    </g>
   </g>
   <g id="text_65">
    <!-- OntoBee -->
    <g style="fill:#262626;" transform="translate(150.85296 676.35206)scale(0.12 -0.12)">
     <use xlink:href="#ArialMT-4f"/>
     <use x="77.783203" xlink:href="#ArialMT-6e"/>
     <use x="133.398438" xlink:href="#ArialMT-74"/>
     <use x="161.181641" xlink:href="#ArialMT-6f"/>
     <use x="216.796875" xlink:href="#ArialMT-42"/>
     <use x="283.496094" xlink:href="#ArialMT-65"/>
     <use x="339.111328" xlink:href="#ArialMT-65"/>
    </g>
   </g>
  </g>
  <g id="axes_14"/>
  <g id="axes_15"/>
  <g id="text_66">
   <!-- https://github.com/biopragmatics/bioregistry (2021-09-30) -->
   <g style="fill:#808080;opacity:0.5;" transform="translate(249.625 718.31625)scale(0.08 -0.08)">
    <defs>
     <path d="M 422 0 
L 422 4581 
L 984 4581 
L 984 2938 
Q 1378 3394 1978 3394 
Q 2347 3394 2619 3248 
Q 2891 3103 3008 2847 
Q 3125 2591 3125 2103 
L 3125 0 
L 2563 0 
L 2563 2103 
Q 2563 2525 2380 2717 
Q 2197 2909 1863 2909 
Q 1613 2909 1392 2779 
Q 1172 2650 1078 2428 
Q 984 2206 984 1816 
L 984 0 
L 422 0 
z
" id="ArialMT-68" transform="scale(0.015625)"/>
     <path d="M 422 -1272 
L 422 3319 
L 934 3319 
L 934 2888 
Q 1116 3141 1344 3267 
Q 1572 3394 1897 3394 
Q 2322 3394 2647 3175 
Q 2972 2956 3137 2557 
Q 3303 2159 3303 1684 
Q 3303 1175 3120 767 
Q 2938 359 2589 142 
Q 2241 -75 1856 -75 
Q 1575 -75 1351 44 
Q 1128 163 984 344 
L 984 -1272 
L 422 -1272 
z
M 931 1641 
Q 931 1000 1190 694 
Q 1450 388 1819 388 
Q 2194 388 2461 705 
Q 2728 1022 2728 1688 
Q 2728 2322 2467 2637 
Q 2206 2953 1844 2953 
Q 1484 2953 1207 2617 
Q 931 2281 931 1641 
z
" id="ArialMT-70" transform="scale(0.015625)"/>
     <path d="M 578 2678 
L 578 3319 
L 1219 3319 
L 1219 2678 
L 578 2678 
z
M 578 0 
L 578 641 
L 1219 641 
L 1219 0 
L 578 0 
z
" id="ArialMT-3a" transform="scale(0.015625)"/>
     <path d="M 0 -78 
L 1328 4659 
L 1778 4659 
L 453 -78 
L 0 -78 
z
" id="ArialMT-2f" transform="scale(0.015625)"/>
     <path d="M 941 0 
L 419 0 
L 419 4581 
L 981 4581 
L 981 2947 
Q 1338 3394 1891 3394 
Q 2197 3394 2470 3270 
Q 2744 3147 2920 2923 
Q 3097 2700 3197 2384 
Q 3297 2069 3297 1709 
Q 3297 856 2875 390 
Q 2453 -75 1863 -75 
Q 1275 -75 941 416 
L 941 0 
z
M 934 1684 
Q 934 1088 1097 822 
Q 1363 388 1816 388 
Q 2184 388 2453 708 
Q 2722 1028 2722 1663 
Q 2722 2313 2464 2622 
Q 2206 2931 1841 2931 
Q 1472 2931 1203 2611 
Q 934 2291 934 1684 
z
" id="ArialMT-62" transform="scale(0.015625)"/>
     <path d="M 581 0 
L 581 641 
L 1222 641 
L 1222 0 
L 581 0 
z
" id="ArialMT-2e" transform="scale(0.015625)"/>
     <path d="M 2588 1216 
L 3141 1144 
Q 3050 572 2676 248 
Q 2303 -75 1759 -75 
Q 1078 -75 664 370 
Q 250 816 250 1647 
Q 250 2184 428 2587 
Q 606 2991 970 3192 
Q 1334 3394 1763 3394 
Q 2303 3394 2647 3120 
Q 2991 2847 3088 2344 
L 2541 2259 
Q 2463 2594 2264 2762 
Q 2066 2931 1784 2931 
Q 1359 2931 1093 2626 
Q 828 2322 828 1663 
Q 828 994 1084 691 
Q 1341 388 1753 388 
Q 2084 388 2306 591 
Q 2528 794 2588 1216 
z
" id="ArialMT-63" transform="scale(0.015625)"/>
     <path d="M 1497 -1347 
Q 1031 -759 709 28 
Q 388 816 388 1659 
Q 388 2403 628 3084 
Q 909 3875 1497 4659 
L 1900 4659 
Q 1522 4009 1400 3731 
Q 1209 3300 1100 2831 
Q 966 2247 966 1656 
Q 966 153 1900 -1347 
L 1497 -1347 
z
" id="ArialMT-28" transform="scale(0.015625)"/>
     <path d="M 203 1375 
L 203 1941 
L 1931 1941 
L 1931 1375 
L 203 1375 
z
" id="ArialMT-2d" transform="scale(0.015625)"/>
     <path d="M 791 -1347 
L 388 -1347 
Q 1322 153 1322 1656 
Q 1322 2244 1188 2822 
Q 1081 3291 891 3722 
Q 769 4003 388 4659 
L 791 4659 
Q 1378 3875 1659 3084 
Q 1900 2403 1900 1659 
Q 1900 816 1576 28 
Q 1253 -759 791 -1347 
z
" id="ArialMT-29" transform="scale(0.015625)"/>
    </defs>
    <use xlink:href="#ArialMT-68"/>
    <use x="55.615234" xlink:href="#ArialMT-74"/>
    <use x="83.398438" xlink:href="#ArialMT-74"/>
    <use x="111.181641" xlink:href="#ArialMT-70"/>
    <use x="166.796875" xlink:href="#ArialMT-73"/>
    <use x="216.796875" xlink:href="#ArialMT-3a"/>
    <use x="244.580078" xlink:href="#ArialMT-2f"/>
    <use x="272.363281" xlink:href="#ArialMT-2f"/>
    <use x="300.146484" xlink:href="#ArialMT-67"/>
    <use x="355.761719" xlink:href="#ArialMT-69"/>
    <use x="377.978516" xlink:href="#ArialMT-74"/>
    <use x="405.761719" xlink:href="#ArialMT-68"/>
    <use x="461.376953" xlink:href="#ArialMT-75"/>
    <use x="516.992188" xlink:href="#ArialMT-62"/>
    <use x="572.607422" xlink:href="#ArialMT-2e"/>
    <use x="600.390625" xlink:href="#ArialMT-63"/>
    <use x="650.390625" xlink:href="#ArialMT-6f"/>
    <use x="706.005859" xlink:href="#ArialMT-6d"/>
    <use x="789.306641" xlink:href="#ArialMT-2f"/>
    <use x="817.089844" xlink:href="#ArialMT-62"/>
    <use x="872.705078" xlink:href="#ArialMT-69"/>
    <use x="894.921875" xlink:href="#ArialMT-6f"/>
    <use x="950.537109" xlink:href="#ArialMT-70"/>
    <use x="1006.152344" xlink:href="#ArialMT-72"/>
    <use x="1039.453125" xlink:href="#ArialMT-61"/>
    <use x="1095.068359" xlink:href="#ArialMT-67"/>
    <use x="1150.683594" xlink:href="#ArialMT-6d"/>
    <use x="1233.984375" xlink:href="#ArialMT-61"/>
    <use x="1289.599609" xlink:href="#ArialMT-74"/>
    <use x="1317.382812" xlink:href="#ArialMT-69"/>
    <use x="1339.599609" xlink:href="#ArialMT-63"/>
    <use x="1389.599609" xlink:href="#ArialMT-73"/>
    <use x="1439.599609" xlink:href="#ArialMT-2f"/>
    <use x="1467.382812" xlink:href="#ArialMT-62"/>
    <use x="1522.998047" xlink:href="#ArialMT-69"/>
    <use x="1545.214844" xlink:href="#ArialMT-6f"/>
    <use x="1600.830078" xlink:href="#ArialMT-72"/>
    <use x="1634.130859" xlink:href="#ArialMT-65"/>
    <use x="1689.746094" xlink:href="#ArialMT-67"/>
    <use x="1745.361328" xlink:href="#ArialMT-69"/>
    <use x="1767.578125" xlink:href="#ArialMT-73"/>
    <use x="1817.578125" xlink:href="#ArialMT-74"/>
    <use x="1845.361328" xlink:href="#ArialMT-72"/>
    <use x="1878.662109" xlink:href="#ArialMT-79"/>
    <use x="1928.662109" xlink:href="#ArialMT-20"/>
    <use x="1956.445312" xlink:href="#ArialMT-28"/>
    <use x="1989.746094" xlink:href="#ArialMT-32"/>
    <use x="2045.361328" xlink:href="#ArialMT-30"/>
    <use x="2100.976562" xlink:href="#ArialMT-32"/>
    <use x="2156.591797" xlink:href="#ArialMT-31"/>
    <use x="2212.207031" xlink:href="#ArialMT-2d"/>
    <use x="2245.507812" xlink:href="#ArialMT-30"/>
    <use x="2301.123047" xlink:href="#ArialMT-39"/>
    <use x="2356.738281" xlink:href="#ArialMT-2d"/>
    <use x="2390.039062" xlink:href="#ArialMT-33"/>
    <use x="2445.654297" xlink:href="#ArialMT-30"/>
    <use x="2501.269531" xlink:href="#ArialMT-29"/>
   </g>
  </g>
 </g>
 <defs>
  <clipPath id="pb4bb470443">
   <rect height="123.94341" width="125.429243" x="54.922204" y="10.8"/>
  </clipPath>
  <clipPath id="p9c2dee8657">
   <rect height="123.94341" width="125.044725" x="279.588115" y="10.8"/>
  </clipPath>
  <clipPath id="p49f39ba287">
   <rect height="123.94341" width="127.746431" x="502.710914" y="10.8"/>
  </clipPath>
  <clipPath id="p2445891449">
   <rect height="123.94341" width="158.342797" x="38.465427" y="152.788831"/>
  </clipPath>
  <clipPath id="p5f46ef428e">
   <rect height="123.94341" width="126.133103" x="279.043926" y="152.788831"/>
  </clipPath>
  <clipPath id="p9b77994153">
   <rect height="123.94341" width="145.254202" x="493.957028" y="152.788831"/>
  </clipPath>
  <clipPath id="p8dd73611fc">
   <rect height="123.94341" width="176.086002" x="29.593825" y="294.777661"/>
  </clipPath>
  <clipPath id="pd544b7552c">
   <rect height="123.94341" width="135.033253" x="274.593851" y="294.777661"/>
  </clipPath>
  <clipPath id="p103a9cd208">
   <rect height="123.94341" width="136.652753" x="498.257753" y="294.777661"/>
  </clipPath>
  <clipPath id="p0a51590c81">
   <rect height="123.94341" width="138.622953" x="48.325349" y="436.766492"/>
  </clipPath>
  <clipPath id="p8a77b36e43">
   <rect height="123.94341" width="142.74194" x="270.739507" y="436.766492"/>
  </clipPath>
  <clipPath id="p49a4cd8541">
   <rect height="123.94341" width="141.085874" x="496.041192" y="436.766492"/>
  </clipPath>
  <clipPath id="pe888dc7b7f">
   <rect height="123.94341" width="131.797501" x="51.738075" y="578.755323"/>
  </clipPath>
 </defs>
</svg>
