<?xml version="1.0" encoding="utf-8" standalone="no"?>
<!DOCTYPE svg PUBLIC "-//W3C//DTD SVG 1.1//EN"
  "http://www.w3.org/Graphics/SVG/1.1/DTD/svg11.dtd">
<svg height="576pt" version="1.1" viewBox="0 0 702 576" width="702pt" xmlns="http://www.w3.org/2000/svg" xmlns:xlink="http://www.w3.org/1999/xlink">
 <metadata>
  <rdf:RDF xmlns:cc="http://creativecommons.org/ns#" xmlns:dc="http://purl.org/dc/elements/1.1/" xmlns:rdf="http://www.w3.org/1999/02/22-rdf-syntax-ns#">
   <cc:Work>
    <dc:type rdf:resource="http://purl.org/dc/dcmitype/StillImage"/>
    <dc:date>2021-06-13T00:48:37.939753</dc:date>
    <dc:format>image/svg+xml</dc:format>
    <dc:creator>
     <cc:Agent>
      <dc:title>Matplotlib v3.4.2, https://matplotlib.org/</dc:title>
     </cc:Agent>
    </dc:creator>
   </cc:Work>
  </rdf:RDF>
 </metadata>
 <defs>
  <style type="text/css">*{stroke-linecap:butt;stroke-linejoin:round;}</style>
 </defs>
 <g id="figure_1">
  <g id="patch_1">
   <path d="M 0 576 
L 702 576 
L 702 0 
L 0 0 
z
" style="fill:#ffffff;"/>
  </g>
  <g id="axes_1">
   <g id="patch_2">
    <path clip-path="url(#p19df344519)" d="M 168.758814 82.33714 
C 167.551317 84.686991 165.959677 86.818684 164.049728 88.644046 
C 162.139779 90.469408 159.938223 91.96292 157.53612 93.062808 
C 155.134017 94.162696 152.56495 94.853583 149.935181 95.106891 
C 147.305412 95.3602 144.651706 95.17239 142.083825 94.551229 
C 139.515945 93.930068 137.06979 92.88424 134.846539 91.457002 
C 132.623288 90.029765 130.654023 88.241072 129.020196 86.164907 
C 127.386369 84.088742 126.110822 81.754131 125.246315 79.257637 
C 124.381808 76.761144 123.940426 74.137671 123.940426 71.49573 
C 123.940426 68.85379 124.381808 66.230316 125.246315 63.733823 
C 126.110822 61.23733 127.386369 58.902719 129.020196 56.826554 
C 130.654023 54.750389 132.623288 52.961696 134.846539 51.534458 
C 137.06979 50.107221 139.515945 49.061393 142.083825 48.440232 
C 144.651706 47.819071 147.305412 47.63126 149.935181 47.884569 
C 152.56495 48.137878 155.134017 48.828765 157.53612 49.928653 
C 159.938223 51.028541 162.139779 52.522053 164.049728 54.347415 
C 165.959677 56.172777 167.551317 58.30447 168.758814 60.654321 
C 167.431711 54.485519 164.983129 48.612498 161.535097 43.327955 
C 158.087066 38.043411 153.697833 33.436617 148.586145 29.737161 
C 143.474458 26.037705 137.726668 23.308083 131.629229 21.684332 
C 125.531791 20.060581 119.187708 19.57013 112.913153 20.237423 
C 106.638598 20.904716 100.539567 22.71848 94.920018 25.588322 
C 89.300469 28.458164 84.255334 32.335603 80.036048 37.027399 
C 75.816762 41.719195 72.494602 47.146089 70.235136 53.03762 
C 67.975669 58.929151 66.817065 65.185792 66.817065 71.49573 
C 66.817065 77.805669 67.975669 84.06231 70.235136 89.953841 
C 72.494602 95.845371 75.816762 101.272265 80.036048 105.964061 
C 84.255334 110.655858 89.300469 114.533297 94.920018 117.403139 
C 100.539567 120.272981 106.638598 122.086744 112.913153 122.754038 
C 119.187708 123.421331 125.531791 122.93088 131.629229 121.307129 
C 137.726668 119.683378 143.474458 116.953756 148.586145 113.2543 
C 153.697833 109.554844 158.087066 104.94805 161.535097 99.663506 
C 164.983129 94.378962 167.431711 88.505942 168.758814 82.33714 
" style="fill:#c0c0c0;opacity:0.4;"/>
   </g>
   <g id="patch_3">
    <path clip-path="url(#p19df344519)" d="M 168.758814 60.654321 
C 169.5253 64.217199 169.911787 67.851338 169.911787 71.49573 
C 169.911787 75.140123 169.5253 78.774262 168.758814 82.33714 
C 170.482206 78.983329 171.381312 75.266424 171.381312 71.49573 
C 171.381312 67.725037 170.482206 64.008132 168.758814 60.654321 
" style="fill:#a6cee3;opacity:0.4;"/>
   </g>
   <g id="patch_4">
    <path clip-path="url(#p19df344519)" d="M 168.758814 82.33714 
C 169.5253 78.774262 169.911787 75.140123 169.911787 71.49573 
C 169.911787 67.851338 169.5253 64.217199 168.758814 60.654321 
C 167.551317 58.30447 165.959677 56.172777 164.049728 54.347415 
C 162.139779 52.522053 159.938223 51.028541 157.53612 49.928653 
C 155.134017 48.828765 152.56495 48.137878 149.935181 47.884569 
C 147.305412 47.63126 144.651706 47.819071 142.083825 48.440232 
C 139.515945 49.061393 137.06979 50.107221 134.846539 51.534458 
C 132.623288 52.961696 130.654023 54.750389 129.020196 56.826554 
C 127.386369 58.902719 126.110822 61.23733 125.246315 63.733823 
C 124.381808 66.230316 123.940426 68.85379 123.940426 71.49573 
C 123.940426 74.137671 124.381808 76.761144 125.246315 79.257637 
C 126.110822 81.754131 127.386369 84.088742 129.020196 86.164907 
C 130.654023 88.241072 132.623288 90.029765 134.846539 91.457002 
C 137.06979 92.88424 139.515945 93.930068 142.083825 94.551229 
C 144.651706 95.17239 147.305412 95.3602 149.935181 95.106891 
C 152.56495 94.853583 155.134017 94.162696 157.53612 93.062808 
C 159.938223 91.96292 162.139779 90.469408 164.049728 88.644046 
C 165.959677 86.818684 167.551317 84.686991 168.758814 82.33714 
" style="fill:#fbffff;opacity:0.4;"/>
   </g>
   <g id="text_1">
    <!-- 915 -->
    <g style="fill:#262626;" transform="translate(85.834995 74.255105)scale(0.1 -0.1)">
     <defs>
      <path d="M 703 97 
L 703 672 
Q 941 559 1184 500 
Q 1428 441 1663 441 
Q 2288 441 2617 861 
Q 2947 1281 2994 2138 
Q 2813 1869 2534 1725 
Q 2256 1581 1919 1581 
Q 1219 1581 811 2004 
Q 403 2428 403 3163 
Q 403 3881 828 4315 
Q 1253 4750 1959 4750 
Q 2769 4750 3195 4129 
Q 3622 3509 3622 2328 
Q 3622 1225 3098 567 
Q 2575 -91 1691 -91 
Q 1453 -91 1209 -44 
Q 966 3 703 97 
z
M 1959 2075 
Q 2384 2075 2632 2365 
Q 2881 2656 2881 3163 
Q 2881 3666 2632 3958 
Q 2384 4250 1959 4250 
Q 1534 4250 1286 3958 
Q 1038 3666 1038 3163 
Q 1038 2656 1286 2365 
Q 1534 2075 1959 2075 
z
" id="DejaVuSans-39" transform="scale(0.015625)"/>
      <path d="M 794 531 
L 1825 531 
L 1825 4091 
L 703 3866 
L 703 4441 
L 1819 4666 
L 2450 4666 
L 2450 531 
L 3481 531 
L 3481 0 
L 794 0 
L 794 531 
z
" id="DejaVuSans-31" transform="scale(0.015625)"/>
      <path d="M 691 4666 
L 3169 4666 
L 3169 4134 
L 1269 4134 
L 1269 2991 
Q 1406 3038 1543 3061 
Q 1681 3084 1819 3084 
Q 2600 3084 3056 2656 
Q 3513 2228 3513 1497 
Q 3513 744 3044 326 
Q 2575 -91 1722 -91 
Q 1428 -91 1123 -41 
Q 819 9 494 109 
L 494 744 
Q 775 591 1075 516 
Q 1375 441 1709 441 
Q 2250 441 2565 725 
Q 2881 1009 2881 1497 
Q 2881 1984 2565 2268 
Q 2250 2553 1709 2553 
Q 1456 2553 1204 2497 
Q 953 2441 691 2322 
L 691 4666 
z
" id="DejaVuSans-35" transform="scale(0.015625)"/>
     </defs>
     <use xlink:href="#DejaVuSans-39"/>
     <use x="63.623047" xlink:href="#DejaVuSans-31"/>
     <use x="127.246094" xlink:href="#DejaVuSans-35"/>
    </g>
   </g>
   <g id="text_2">
    <!-- 3 -->
    <g style="fill:#262626;" transform="translate(167.4653 74.255105)scale(0.1 -0.1)">
     <defs>
      <path d="M 2597 2516 
Q 3050 2419 3304 2112 
Q 3559 1806 3559 1356 
Q 3559 666 3084 287 
Q 2609 -91 1734 -91 
Q 1441 -91 1130 -33 
Q 819 25 488 141 
L 488 750 
Q 750 597 1062 519 
Q 1375 441 1716 441 
Q 2309 441 2620 675 
Q 2931 909 2931 1356 
Q 2931 1769 2642 2001 
Q 2353 2234 1838 2234 
L 1294 2234 
L 1294 2753 
L 1863 2753 
Q 2328 2753 2575 2939 
Q 2822 3125 2822 3475 
Q 2822 3834 2567 4026 
Q 2313 4219 1838 4219 
Q 1578 4219 1281 4162 
Q 984 4106 628 3988 
L 628 4550 
Q 988 4650 1302 4700 
Q 1616 4750 1894 4750 
Q 2613 4750 3031 4423 
Q 3450 4097 3450 3541 
Q 3450 3153 3228 2886 
Q 3006 2619 2597 2516 
z
" id="DejaVuSans-33" transform="scale(0.015625)"/>
     </defs>
     <use xlink:href="#DejaVuSans-33"/>
    </g>
   </g>
   <g id="text_3">
    <!-- 242 -->
    <g style="fill:#262626;" transform="translate(137.382356 74.255105)scale(0.1 -0.1)">
     <defs>
      <path d="M 1228 531 
L 3431 531 
L 3431 0 
L 469 0 
L 469 531 
Q 828 903 1448 1529 
Q 2069 2156 2228 2338 
Q 2531 2678 2651 2914 
Q 2772 3150 2772 3378 
Q 2772 3750 2511 3984 
Q 2250 4219 1831 4219 
Q 1534 4219 1204 4116 
Q 875 4013 500 3803 
L 500 4441 
Q 881 4594 1212 4672 
Q 1544 4750 1819 4750 
Q 2544 4750 2975 4387 
Q 3406 4025 3406 3419 
Q 3406 3131 3298 2873 
Q 3191 2616 2906 2266 
Q 2828 2175 2409 1742 
Q 1991 1309 1228 531 
z
" id="DejaVuSans-32" transform="scale(0.015625)"/>
      <path d="M 2419 4116 
L 825 1625 
L 2419 1625 
L 2419 4116 
z
M 2253 4666 
L 3047 4666 
L 3047 1625 
L 3713 1625 
L 3713 1100 
L 3047 1100 
L 3047 0 
L 2419 0 
L 2419 1100 
L 313 1100 
L 313 1709 
L 2253 4666 
z
" id="DejaVuSans-34" transform="scale(0.015625)"/>
     </defs>
     <use xlink:href="#DejaVuSans-32"/>
     <use x="63.623047" xlink:href="#DejaVuSans-34"/>
     <use x="127.246094" xlink:href="#DejaVuSans-32"/>
    </g>
   </g>
   <g id="text_4">
    <!-- Bioregistry -->
    <g style="fill:#262626;" transform="translate(53.465051 135.924607)scale(0.12 -0.12)">
     <defs>
      <path d="M 1259 2228 
L 1259 519 
L 2272 519 
Q 2781 519 3026 730 
Q 3272 941 3272 1375 
Q 3272 1813 3026 2020 
Q 2781 2228 2272 2228 
L 1259 2228 
z
M 1259 4147 
L 1259 2741 
L 2194 2741 
Q 2656 2741 2882 2914 
Q 3109 3088 3109 3444 
Q 3109 3797 2882 3972 
Q 2656 4147 2194 4147 
L 1259 4147 
z
M 628 4666 
L 2241 4666 
Q 2963 4666 3353 4366 
Q 3744 4066 3744 3513 
Q 3744 3084 3544 2831 
Q 3344 2578 2956 2516 
Q 3422 2416 3680 2098 
Q 3938 1781 3938 1306 
Q 3938 681 3513 340 
Q 3088 0 2303 0 
L 628 0 
L 628 4666 
z
" id="DejaVuSans-42" transform="scale(0.015625)"/>
      <path d="M 603 3500 
L 1178 3500 
L 1178 0 
L 603 0 
L 603 3500 
z
M 603 4863 
L 1178 4863 
L 1178 4134 
L 603 4134 
L 603 4863 
z
" id="DejaVuSans-69" transform="scale(0.015625)"/>
      <path d="M 1959 3097 
Q 1497 3097 1228 2736 
Q 959 2375 959 1747 
Q 959 1119 1226 758 
Q 1494 397 1959 397 
Q 2419 397 2687 759 
Q 2956 1122 2956 1747 
Q 2956 2369 2687 2733 
Q 2419 3097 1959 3097 
z
M 1959 3584 
Q 2709 3584 3137 3096 
Q 3566 2609 3566 1747 
Q 3566 888 3137 398 
Q 2709 -91 1959 -91 
Q 1206 -91 779 398 
Q 353 888 353 1747 
Q 353 2609 779 3096 
Q 1206 3584 1959 3584 
z
" id="DejaVuSans-6f" transform="scale(0.015625)"/>
      <path d="M 2631 2963 
Q 2534 3019 2420 3045 
Q 2306 3072 2169 3072 
Q 1681 3072 1420 2755 
Q 1159 2438 1159 1844 
L 1159 0 
L 581 0 
L 581 3500 
L 1159 3500 
L 1159 2956 
Q 1341 3275 1631 3429 
Q 1922 3584 2338 3584 
Q 2397 3584 2469 3576 
Q 2541 3569 2628 3553 
L 2631 2963 
z
" id="DejaVuSans-72" transform="scale(0.015625)"/>
      <path d="M 3597 1894 
L 3597 1613 
L 953 1613 
Q 991 1019 1311 708 
Q 1631 397 2203 397 
Q 2534 397 2845 478 
Q 3156 559 3463 722 
L 3463 178 
Q 3153 47 2828 -22 
Q 2503 -91 2169 -91 
Q 1331 -91 842 396 
Q 353 884 353 1716 
Q 353 2575 817 3079 
Q 1281 3584 2069 3584 
Q 2775 3584 3186 3129 
Q 3597 2675 3597 1894 
z
M 3022 2063 
Q 3016 2534 2758 2815 
Q 2500 3097 2075 3097 
Q 1594 3097 1305 2825 
Q 1016 2553 972 2059 
L 3022 2063 
z
" id="DejaVuSans-65" transform="scale(0.015625)"/>
      <path d="M 2906 1791 
Q 2906 2416 2648 2759 
Q 2391 3103 1925 3103 
Q 1463 3103 1205 2759 
Q 947 2416 947 1791 
Q 947 1169 1205 825 
Q 1463 481 1925 481 
Q 2391 481 2648 825 
Q 2906 1169 2906 1791 
z
M 3481 434 
Q 3481 -459 3084 -895 
Q 2688 -1331 1869 -1331 
Q 1566 -1331 1297 -1286 
Q 1028 -1241 775 -1147 
L 775 -588 
Q 1028 -725 1275 -790 
Q 1522 -856 1778 -856 
Q 2344 -856 2625 -561 
Q 2906 -266 2906 331 
L 2906 616 
Q 2728 306 2450 153 
Q 2172 0 1784 0 
Q 1141 0 747 490 
Q 353 981 353 1791 
Q 353 2603 747 3093 
Q 1141 3584 1784 3584 
Q 2172 3584 2450 3431 
Q 2728 3278 2906 2969 
L 2906 3500 
L 3481 3500 
L 3481 434 
z
" id="DejaVuSans-67" transform="scale(0.015625)"/>
      <path d="M 2834 3397 
L 2834 2853 
Q 2591 2978 2328 3040 
Q 2066 3103 1784 3103 
Q 1356 3103 1142 2972 
Q 928 2841 928 2578 
Q 928 2378 1081 2264 
Q 1234 2150 1697 2047 
L 1894 2003 
Q 2506 1872 2764 1633 
Q 3022 1394 3022 966 
Q 3022 478 2636 193 
Q 2250 -91 1575 -91 
Q 1294 -91 989 -36 
Q 684 19 347 128 
L 347 722 
Q 666 556 975 473 
Q 1284 391 1588 391 
Q 1994 391 2212 530 
Q 2431 669 2431 922 
Q 2431 1156 2273 1281 
Q 2116 1406 1581 1522 
L 1381 1569 
Q 847 1681 609 1914 
Q 372 2147 372 2553 
Q 372 3047 722 3315 
Q 1072 3584 1716 3584 
Q 2034 3584 2315 3537 
Q 2597 3491 2834 3397 
z
" id="DejaVuSans-73" transform="scale(0.015625)"/>
      <path d="M 1172 4494 
L 1172 3500 
L 2356 3500 
L 2356 3053 
L 1172 3053 
L 1172 1153 
Q 1172 725 1289 603 
Q 1406 481 1766 481 
L 2356 481 
L 2356 0 
L 1766 0 
Q 1100 0 847 248 
Q 594 497 594 1153 
L 594 3053 
L 172 3053 
L 172 3500 
L 594 3500 
L 594 4494 
L 1172 4494 
z
" id="DejaVuSans-74" transform="scale(0.015625)"/>
      <path d="M 2059 -325 
Q 1816 -950 1584 -1140 
Q 1353 -1331 966 -1331 
L 506 -1331 
L 506 -850 
L 844 -850 
Q 1081 -850 1212 -737 
Q 1344 -625 1503 -206 
L 1606 56 
L 191 3500 
L 800 3500 
L 1894 763 
L 2988 3500 
L 3597 3500 
L 2059 -325 
z
" id="DejaVuSans-79" transform="scale(0.015625)"/>
     </defs>
     <use xlink:href="#DejaVuSans-42"/>
     <use x="68.603516" xlink:href="#DejaVuSans-69"/>
     <use x="96.386719" xlink:href="#DejaVuSans-6f"/>
     <use x="157.568359" xlink:href="#DejaVuSans-72"/>
     <use x="196.431641" xlink:href="#DejaVuSans-65"/>
     <use x="257.955078" xlink:href="#DejaVuSans-67"/>
     <use x="321.431641" xlink:href="#DejaVuSans-69"/>
     <use x="349.214844" xlink:href="#DejaVuSans-73"/>
     <use x="401.314453" xlink:href="#DejaVuSans-74"/>
     <use x="440.523438" xlink:href="#DejaVuSans-72"/>
     <use x="481.636719" xlink:href="#DejaVuSans-79"/>
    </g>
   </g>
   <g id="text_5">
    <!-- OBO -->
    <g style="fill:#262626;" transform="translate(147.660869 108.097689)scale(0.12 -0.12)">
     <defs>
      <path d="M 2522 4238 
Q 1834 4238 1429 3725 
Q 1025 3213 1025 2328 
Q 1025 1447 1429 934 
Q 1834 422 2522 422 
Q 3209 422 3611 934 
Q 4013 1447 4013 2328 
Q 4013 3213 3611 3725 
Q 3209 4238 2522 4238 
z
M 2522 4750 
Q 3503 4750 4090 4092 
Q 4678 3434 4678 2328 
Q 4678 1225 4090 567 
Q 3503 -91 2522 -91 
Q 1538 -91 948 565 
Q 359 1222 359 2328 
Q 359 3434 948 4092 
Q 1538 4750 2522 4750 
z
" id="DejaVuSans-4f" transform="scale(0.015625)"/>
     </defs>
     <use xlink:href="#DejaVuSans-4f"/>
     <use x="78.710938" xlink:href="#DejaVuSans-42"/>
     <use x="145.564453" xlink:href="#DejaVuSans-4f"/>
    </g>
   </g>
  </g>
  <g id="axes_2">
   <g id="patch_5">
    <path clip-path="url(#p62d69f86fd)" d="M 404.833127 72.423757 
C 404.712731 75.616544 403.97216 78.755603 402.652797 81.665528 
C 401.333434 84.575453 399.46032 87.201015 397.13812 89.395501 
C 394.815921 91.589988 392.088711 93.311749 389.108883 94.464575 
C 386.129055 95.617401 382.953165 96.179412 379.758676 96.119203 
C 376.564188 96.058994 373.411731 95.377709 370.47746 94.113416 
C 367.543189 92.849123 364.882796 91.025818 362.644939 88.745384 
C 360.407081 86.464951 358.634233 83.770671 357.425459 80.813096 
C 356.216685 77.855522 355.594926 74.690786 355.594926 71.49573 
C 355.594926 68.300674 356.216685 65.135939 357.425459 62.178364 
C 358.634233 59.22079 360.407081 56.52651 362.644939 54.246076 
C 364.882796 51.965643 367.543189 50.142338 370.47746 48.878045 
C 373.411731 47.613752 376.564188 46.932466 379.758676 46.872258 
C 382.953165 46.812049 386.129055 47.37406 389.108883 48.526886 
C 392.088711 49.679712 394.815921 51.401473 397.13812 53.595959 
C 399.46032 55.790446 401.333434 58.416008 402.652797 61.325933 
C 403.97216 64.235858 404.712731 67.374917 404.833127 70.567703 
C 404.711962 63.837374 403.273878 57.195464 400.600245 51.017787 
C 397.926612 44.84011 394.068825 39.245422 389.245168 34.550282 
C 384.42151 29.855142 378.724709 26.149807 372.477101 23.643933 
C 366.229493 21.138059 359.551178 19.879818 352.820031 19.940402 
C 346.088885 20.000987 339.4343 21.379234 333.23281 23.997158 
C 327.03132 26.615082 321.402136 30.422358 316.663772 35.203563 
C 311.925408 39.984767 308.168951 45.647989 305.606948 51.87279 
C 303.044945 58.097591 301.726647 64.764311 301.726647 71.49573 
C 301.726647 78.22715 303.044945 84.893869 305.606948 91.118671 
C 308.168951 97.343472 311.925408 103.006694 316.663772 107.787898 
C 321.402136 112.569102 327.03132 116.376379 333.23281 118.994303 
C 339.4343 121.612227 346.088885 122.990474 352.820031 123.051058 
C 359.551178 123.111643 366.229493 121.853402 372.477101 119.347528 
C 378.724709 116.841654 384.42151 113.136319 389.245168 108.441179 
C 394.068825 103.746039 397.926612 98.151351 400.600245 91.973673 
C 403.273878 85.795996 404.711962 79.154086 404.833127 72.423757 
" style="fill:#c0c0c0;opacity:0.4;"/>
   </g>
   <g id="patch_6">
    <path clip-path="url(#p62d69f86fd)" d="M 404.833127 70.567703 
C 404.838696 70.877014 404.84148 71.186369 404.84148 71.49573 
C 404.84148 71.805091 404.838696 72.114446 404.833127 72.423757 
C 404.844787 72.114552 404.850618 71.805155 404.850618 71.49573 
C 404.850618 71.186306 404.844787 70.876908 404.833127 70.567703 
" style="fill:#1f78b4;opacity:0.4;"/>
   </g>
   <g id="patch_7">
    <path clip-path="url(#p62d69f86fd)" d="M 404.833127 72.423757 
C 404.838696 72.114446 404.84148 71.805091 404.84148 71.49573 
C 404.84148 71.186369 404.838696 70.877014 404.833127 70.567703 
C 404.712731 67.374917 403.97216 64.235858 402.652797 61.325933 
C 401.333434 58.416008 399.46032 55.790446 397.13812 53.595959 
C 394.815921 51.401473 392.088711 49.679712 389.108883 48.526886 
C 386.129055 47.37406 382.953165 46.812049 379.758676 46.872258 
C 376.564188 46.932466 373.411731 47.613752 370.47746 48.878045 
C 367.543189 50.142338 364.882796 51.965643 362.644939 54.246076 
C 360.407081 56.52651 358.634233 59.22079 357.425459 62.178364 
C 356.216685 65.135939 355.594926 68.300674 355.594926 71.49573 
C 355.594926 74.690786 356.216685 77.855522 357.425459 80.813096 
C 358.634233 83.770671 360.407081 86.464951 362.644939 88.745384 
C 364.882796 91.025818 367.543189 92.849123 370.47746 94.113416 
C 373.411731 95.377709 376.564188 96.058994 379.758676 96.119203 
C 382.953165 96.179412 386.129055 95.617401 389.108883 94.464575 
C 392.088711 93.311749 394.815921 91.589988 397.13812 89.395501 
C 399.46032 87.201015 401.333434 84.575453 402.652797 81.665528 
C 403.97216 78.755603 404.712731 75.616544 404.833127 72.423757 
" style="fill:#9cdaff;opacity:0.4;"/>
   </g>
   <g id="text_6">
    <!-- 893 -->
    <g style="fill:#262626;" transform="translate(319.117037 74.255105)scale(0.1 -0.1)">
     <defs>
      <path d="M 2034 2216 
Q 1584 2216 1326 1975 
Q 1069 1734 1069 1313 
Q 1069 891 1326 650 
Q 1584 409 2034 409 
Q 2484 409 2743 651 
Q 3003 894 3003 1313 
Q 3003 1734 2745 1975 
Q 2488 2216 2034 2216 
z
M 1403 2484 
Q 997 2584 770 2862 
Q 544 3141 544 3541 
Q 544 4100 942 4425 
Q 1341 4750 2034 4750 
Q 2731 4750 3128 4425 
Q 3525 4100 3525 3541 
Q 3525 3141 3298 2862 
Q 3072 2584 2669 2484 
Q 3125 2378 3379 2068 
Q 3634 1759 3634 1313 
Q 3634 634 3220 271 
Q 2806 -91 2034 -91 
Q 1263 -91 848 271 
Q 434 634 434 1313 
Q 434 1759 690 2068 
Q 947 2378 1403 2484 
z
M 1172 3481 
Q 1172 3119 1398 2916 
Q 1625 2713 2034 2713 
Q 2441 2713 2670 2916 
Q 2900 3119 2900 3481 
Q 2900 3844 2670 4047 
Q 2441 4250 2034 4250 
Q 1625 4250 1398 4047 
Q 1172 3844 1172 3481 
z
" id="DejaVuSans-38" transform="scale(0.015625)"/>
     </defs>
     <use xlink:href="#DejaVuSans-38"/>
     <use x="63.623047" xlink:href="#DejaVuSans-39"/>
     <use x="127.246094" xlink:href="#DejaVuSans-33"/>
    </g>
   </g>
   <g id="text_7">
    <!-- 0 -->
    <g style="fill:#262626;" transform="translate(401.664799 74.255105)scale(0.1 -0.1)">
     <defs>
      <path d="M 2034 4250 
Q 1547 4250 1301 3770 
Q 1056 3291 1056 2328 
Q 1056 1369 1301 889 
Q 1547 409 2034 409 
Q 2525 409 2770 889 
Q 3016 1369 3016 2328 
Q 3016 3291 2770 3770 
Q 2525 4250 2034 4250 
z
M 2034 4750 
Q 2819 4750 3233 4129 
Q 3647 3509 3647 2328 
Q 3647 1150 3233 529 
Q 2819 -91 2034 -91 
Q 1250 -91 836 529 
Q 422 1150 422 2328 
Q 422 3509 836 4129 
Q 1250 4750 2034 4750 
z
" id="DejaVuSans-30" transform="scale(0.015625)"/>
     </defs>
     <use xlink:href="#DejaVuSans-30"/>
    </g>
   </g>
   <g id="text_8">
    <!-- 264 -->
    <g style="fill:#262626;" transform="translate(370.674453 74.255105)scale(0.1 -0.1)">
     <defs>
      <path d="M 2113 2584 
Q 1688 2584 1439 2293 
Q 1191 2003 1191 1497 
Q 1191 994 1439 701 
Q 1688 409 2113 409 
Q 2538 409 2786 701 
Q 3034 994 3034 1497 
Q 3034 2003 2786 2293 
Q 2538 2584 2113 2584 
z
M 3366 4563 
L 3366 3988 
Q 3128 4100 2886 4159 
Q 2644 4219 2406 4219 
Q 1781 4219 1451 3797 
Q 1122 3375 1075 2522 
Q 1259 2794 1537 2939 
Q 1816 3084 2150 3084 
Q 2853 3084 3261 2657 
Q 3669 2231 3669 1497 
Q 3669 778 3244 343 
Q 2819 -91 2113 -91 
Q 1303 -91 875 529 
Q 447 1150 447 2328 
Q 447 3434 972 4092 
Q 1497 4750 2381 4750 
Q 2619 4750 2861 4703 
Q 3103 4656 3366 4563 
z
" id="DejaVuSans-36" transform="scale(0.015625)"/>
     </defs>
     <use xlink:href="#DejaVuSans-32"/>
     <use x="63.623047" xlink:href="#DejaVuSans-36"/>
     <use x="127.246094" xlink:href="#DejaVuSans-34"/>
    </g>
   </g>
   <g id="text_9">
    <!-- Bioregistry -->
    <g style="fill:#262626;" transform="translate(288.384689 135.980535)scale(0.12 -0.12)">
     <use xlink:href="#DejaVuSans-42"/>
     <use x="68.603516" xlink:href="#DejaVuSans-69"/>
     <use x="96.386719" xlink:href="#DejaVuSans-6f"/>
     <use x="157.568359" xlink:href="#DejaVuSans-72"/>
     <use x="196.431641" xlink:href="#DejaVuSans-65"/>
     <use x="257.955078" xlink:href="#DejaVuSans-67"/>
     <use x="321.431641" xlink:href="#DejaVuSans-69"/>
     <use x="349.214844" xlink:href="#DejaVuSans-73"/>
     <use x="401.314453" xlink:href="#DejaVuSans-74"/>
     <use x="440.523438" xlink:href="#DejaVuSans-72"/>
     <use x="481.636719" xlink:href="#DejaVuSans-79"/>
    </g>
   </g>
   <g id="text_10">
    <!-- OLS -->
    <g style="fill:#262626;" transform="translate(380.222772 109.050964)scale(0.12 -0.12)">
     <defs>
      <path d="M 628 4666 
L 1259 4666 
L 1259 531 
L 3531 531 
L 3531 0 
L 628 0 
L 628 4666 
z
" id="DejaVuSans-4c" transform="scale(0.015625)"/>
      <path d="M 3425 4513 
L 3425 3897 
Q 3066 4069 2747 4153 
Q 2428 4238 2131 4238 
Q 1616 4238 1336 4038 
Q 1056 3838 1056 3469 
Q 1056 3159 1242 3001 
Q 1428 2844 1947 2747 
L 2328 2669 
Q 3034 2534 3370 2195 
Q 3706 1856 3706 1288 
Q 3706 609 3251 259 
Q 2797 -91 1919 -91 
Q 1588 -91 1214 -16 
Q 841 59 441 206 
L 441 856 
Q 825 641 1194 531 
Q 1563 422 1919 422 
Q 2459 422 2753 634 
Q 3047 847 3047 1241 
Q 3047 1584 2836 1778 
Q 2625 1972 2144 2069 
L 1759 2144 
Q 1053 2284 737 2584 
Q 422 2884 422 3419 
Q 422 4038 858 4394 
Q 1294 4750 2059 4750 
Q 2388 4750 2728 4690 
Q 3069 4631 3425 4513 
z
" id="DejaVuSans-53" transform="scale(0.015625)"/>
     </defs>
     <use xlink:href="#DejaVuSans-4f"/>
     <use x="78.710938" xlink:href="#DejaVuSans-4c"/>
     <use x="134.423828" xlink:href="#DejaVuSans-53"/>
    </g>
   </g>
  </g>
  <g id="axes_3">
   <g id="patch_8">
    <path clip-path="url(#pe5af4ed49e)" d="M 637.243846 84.149167 
C 635.748913 88.760906 633.448465 93.071439 630.449402 96.880452 
C 627.45034 100.689466 623.79985 103.937031 619.667573 106.472233 
C 615.535295 109.007434 610.986247 110.790383 606.231822 111.738225 
C 601.477397 112.686068 596.592401 112.783891 591.803841 112.027149 
C 587.015282 111.270406 582.398501 109.671005 578.168041 107.30327 
C 573.937581 104.935534 570.160004 101.836718 567.010854 98.150823 
C 563.861705 94.464928 561.390531 90.249949 559.712169 85.701756 
C 558.033807 81.153562 557.174663 76.343716 557.174663 71.49573 
C 557.174663 66.647745 558.033807 61.837898 559.712169 57.289705 
C 561.390531 52.741512 563.861705 48.526532 567.010854 44.840638 
C 570.160004 41.154743 573.937581 38.055927 578.168041 35.688191 
C 582.398501 33.320456 587.015282 31.721054 591.803841 30.964312 
C 596.592401 30.20757 601.477397 30.305393 606.231822 31.253235 
C 610.986247 32.201078 615.535295 33.984027 619.667573 36.519228 
C 623.79985 39.054429 627.45034 42.301994 630.449402 46.111008 
C 633.448465 49.920022 635.748913 54.230554 637.243846 58.842294 
C 635.714107 52.800304 633.1013 47.085498 629.532482 41.975775 
C 625.963663 36.866052 621.497635 32.445604 616.351572 28.929388 
C 611.205509 25.413173 605.464201 22.859126 599.406838 21.391447 
C 593.349474 19.923767 587.07586 19.566638 580.891071 20.337424 
C 574.706281 21.10821 568.71222 22.994213 563.200368 25.903719 
C 557.688517 28.813225 552.749691 32.698295 548.624057 37.370006 
C 544.498424 42.041717 541.253959 47.423094 539.048436 53.252451 
C 536.842912 59.081807 535.712669 65.263096 535.712669 71.49573 
C 535.712669 77.728365 536.842912 83.909653 539.048436 89.73901 
C 541.253959 95.568367 544.498424 100.949744 548.624057 105.621455 
C 552.749691 110.293165 557.688517 114.178236 563.200368 117.087742 
C 568.71222 119.997248 574.706281 121.88325 580.891071 122.654037 
C 587.07586 123.424823 593.349474 123.067693 599.406838 121.600014 
C 605.464201 120.132334 611.205509 117.578287 616.351572 114.062072 
C 621.497635 110.545857 625.963663 106.125409 629.532482 101.015686 
C 633.1013 95.905963 635.714107 90.191156 637.243846 84.149167 
" style="fill:#c0c0c0;opacity:0.4;"/>
   </g>
   <g id="patch_9">
    <path clip-path="url(#pe5af4ed49e)" d="M 637.243846 58.842294 
C 638.291091 62.978582 638.820795 67.228928 638.820795 71.49573 
C 638.820795 75.762533 638.291091 80.012879 637.243846 84.149167 
C 638.568705 80.062089 639.243485 75.792178 639.243485 71.49573 
C 639.243485 67.199283 638.568705 62.929371 637.243846 58.842294 
" style="fill:#b2df8a;opacity:0.4;"/>
   </g>
   <g id="patch_10">
    <path clip-path="url(#pe5af4ed49e)" d="M 637.243846 84.149167 
C 638.291091 80.012879 638.820795 75.762533 638.820795 71.49573 
C 638.820795 67.228928 638.291091 62.978582 637.243846 58.842294 
C 635.748913 54.230554 633.448465 49.920022 630.449402 46.111008 
C 627.45034 42.301994 623.79985 39.054429 619.667573 36.519228 
C 615.535295 33.984027 610.986247 32.201078 606.231822 31.253235 
C 601.477397 30.305393 596.592401 30.20757 591.803841 30.964312 
C 587.015282 31.721054 582.398501 33.320456 578.168041 35.688191 
C 573.937581 38.055927 570.160004 41.154743 567.010854 44.840638 
C 563.861705 48.526532 561.390531 52.741512 559.712169 57.289705 
C 558.033807 61.837898 557.174663 66.647745 557.174663 71.49573 
C 557.174663 76.343716 558.033807 81.153562 559.712169 85.701756 
C 561.390531 90.249949 563.861705 94.464928 567.010854 98.150823 
C 570.160004 101.836718 573.937581 104.935534 578.168041 107.30327 
C 582.398501 109.671005 587.015282 111.270406 591.803841 112.027149 
C 596.592401 112.783891 601.477397 112.686068 606.231822 111.738225 
C 610.986247 110.790383 615.535295 109.007434 619.667573 106.472233 
C 623.79985 103.937031 627.45034 100.689466 630.449402 96.880452 
C 633.448465 93.071439 635.748913 88.760906 637.243846 84.149167 
" style="fill:#ffffe7;opacity:0.4;"/>
   </g>
   <g id="text_11">
    <!-- 425 -->
    <g style="fill:#262626;" transform="translate(536.899916 74.255105)scale(0.1 -0.1)">
     <use xlink:href="#DejaVuSans-34"/>
     <use x="63.623047" xlink:href="#DejaVuSans-32"/>
     <use x="127.246094" xlink:href="#DejaVuSans-35"/>
    </g>
   </g>
   <g id="text_12">
    <!-- 1 -->
    <g style="fill:#262626;" transform="translate(635.85089 74.255105)scale(0.1 -0.1)">
     <use xlink:href="#DejaVuSans-31"/>
    </g>
   </g>
   <g id="text_13">
    <!-- 732 -->
    <g style="fill:#262626;" transform="translate(588.453979 74.255105)scale(0.1 -0.1)">
     <defs>
      <path d="M 525 4666 
L 3525 4666 
L 3525 4397 
L 1831 0 
L 1172 0 
L 2766 4134 
L 525 4134 
L 525 4666 
z
" id="DejaVuSans-37" transform="scale(0.015625)"/>
     </defs>
     <use xlink:href="#DejaVuSans-37"/>
     <use x="63.623047" xlink:href="#DejaVuSans-33"/>
     <use x="127.246094" xlink:href="#DejaVuSans-32"/>
    </g>
   </g>
   <g id="text_14">
    <!-- Bioregistry -->
    <g style="fill:#262626;" transform="translate(522.367357 136.797342)scale(0.12 -0.12)">
     <use xlink:href="#DejaVuSans-42"/>
     <use x="68.603516" xlink:href="#DejaVuSans-69"/>
     <use x="96.386719" xlink:href="#DejaVuSans-6f"/>
     <use x="157.568359" xlink:href="#DejaVuSans-72"/>
     <use x="196.431641" xlink:href="#DejaVuSans-65"/>
     <use x="257.955078" xlink:href="#DejaVuSans-67"/>
     <use x="321.431641" xlink:href="#DejaVuSans-69"/>
     <use x="349.214844" xlink:href="#DejaVuSans-73"/>
     <use x="401.314453" xlink:href="#DejaVuSans-74"/>
     <use x="440.523438" xlink:href="#DejaVuSans-72"/>
     <use x="481.636719" xlink:href="#DejaVuSans-79"/>
    </g>
   </g>
   <g id="text_15">
    <!-- MIRIAM -->
    <g style="fill:#262626;" transform="translate(598.209074 126.27769)scale(0.12 -0.12)">
     <defs>
      <path d="M 628 4666 
L 1569 4666 
L 2759 1491 
L 3956 4666 
L 4897 4666 
L 4897 0 
L 4281 0 
L 4281 4097 
L 3078 897 
L 2444 897 
L 1241 4097 
L 1241 0 
L 628 0 
L 628 4666 
z
" id="DejaVuSans-4d" transform="scale(0.015625)"/>
      <path d="M 628 4666 
L 1259 4666 
L 1259 0 
L 628 0 
L 628 4666 
z
" id="DejaVuSans-49" transform="scale(0.015625)"/>
      <path d="M 2841 2188 
Q 3044 2119 3236 1894 
Q 3428 1669 3622 1275 
L 4263 0 
L 3584 0 
L 2988 1197 
Q 2756 1666 2539 1819 
Q 2322 1972 1947 1972 
L 1259 1972 
L 1259 0 
L 628 0 
L 628 4666 
L 2053 4666 
Q 2853 4666 3247 4331 
Q 3641 3997 3641 3322 
Q 3641 2881 3436 2590 
Q 3231 2300 2841 2188 
z
M 1259 4147 
L 1259 2491 
L 2053 2491 
Q 2509 2491 2742 2702 
Q 2975 2913 2975 3322 
Q 2975 3731 2742 3939 
Q 2509 4147 2053 4147 
L 1259 4147 
z
" id="DejaVuSans-52" transform="scale(0.015625)"/>
      <path d="M 2188 4044 
L 1331 1722 
L 3047 1722 
L 2188 4044 
z
M 1831 4666 
L 2547 4666 
L 4325 0 
L 3669 0 
L 3244 1197 
L 1141 1197 
L 716 0 
L 50 0 
L 1831 4666 
z
" id="DejaVuSans-41" transform="scale(0.015625)"/>
     </defs>
     <use xlink:href="#DejaVuSans-4d"/>
     <use x="86.279297" xlink:href="#DejaVuSans-49"/>
     <use x="115.771484" xlink:href="#DejaVuSans-52"/>
     <use x="185.253906" xlink:href="#DejaVuSans-49"/>
     <use x="214.746094" xlink:href="#DejaVuSans-41"/>
     <use x="283.154297" xlink:href="#DejaVuSans-4d"/>
    </g>
   </g>
  </g>
  <g id="axes_4">
   <g id="patch_11">
    <path clip-path="url(#p1247414920)" d="M 150.149914 230.293475 
C 147.625969 228.187469 145.595323 225.552384 144.201994 222.575104 
C 142.808664 219.597825 142.086386 216.35044 142.086386 213.063259 
C 142.086386 209.776077 142.808664 206.528692 144.201994 203.551413 
C 145.595323 200.574133 147.625969 197.939048 150.149914 195.833042 
C 148.137005 190.230269 145.157769 185.023327 141.347615 180.448878 
C 137.537461 175.874428 132.955003 172.002842 127.80852 169.010089 
C 122.662037 166.017335 117.0307 163.949453 111.17046 162.90043 
C 105.31022 161.851408 99.311228 161.837382 93.446147 162.85899 
C 87.581066 163.880598 81.94012 165.922125 76.779699 168.890781 
C 71.619278 171.859436 67.018767 175.709552 63.187264 180.266135 
C 59.355761 184.822718 56.352209 190.015672 54.313123 195.60897 
C 52.274037 201.202269 51.230786 207.109868 51.230786 213.063259 
C 51.230786 219.016649 52.274037 224.924248 54.313123 230.517547 
C 56.352209 236.110845 59.355761 241.303799 63.187264 245.860382 
C 67.018767 250.416965 71.619278 254.267081 76.779699 257.235736 
C 81.94012 260.204392 87.581066 262.245919 93.446147 263.267527 
C 99.311228 264.289136 105.31022 264.27511 111.17046 263.226087 
C 117.0307 262.177064 122.662037 260.109182 127.80852 257.116428 
C 132.955003 254.123675 137.537461 250.252089 141.347615 245.677639 
C 145.157769 241.10319 148.137005 235.896248 150.149914 230.293475 
" style="fill:#c0c0c0;opacity:0.4;"/>
   </g>
   <g id="patch_12">
    <path clip-path="url(#p1247414920)" d="M 150.149914 195.833042 
C 152.135765 201.3605 153.151157 207.189895 153.151157 213.063259 
C 153.151157 218.936622 152.135765 224.766017 150.149914 230.293475 
C 153.425397 233.026573 157.413301 234.769817 161.64393 235.31789 
C 165.87456 235.865962 170.175031 235.196466 174.038835 233.388254 
C 177.902638 231.580042 181.171881 228.707006 183.46151 225.107533 
C 185.75114 221.50806 186.967591 217.329241 186.967591 213.063259 
C 186.967591 208.797276 185.75114 204.618457 183.46151 201.018984 
C 181.171881 197.419511 177.902638 194.546475 174.038835 192.738263 
C 170.175031 190.930051 165.87456 190.260555 161.64393 190.808627 
C 157.413301 191.3567 153.425397 193.099945 150.149914 195.833042 
" style="fill:#33a02c;opacity:0.4;"/>
   </g>
   <g id="patch_13">
    <path clip-path="url(#p1247414920)" d="M 150.149914 230.293475 
C 152.135765 224.766017 153.151157 218.936622 153.151157 213.063259 
C 153.151157 207.189895 152.135765 201.3605 150.149914 195.833042 
C 147.625969 197.939048 145.595323 200.574133 144.201994 203.551413 
C 142.808664 206.528692 142.086386 209.776077 142.086386 213.063259 
C 142.086386 216.35044 142.808664 219.597825 144.201994 222.575104 
C 145.595323 225.552384 147.625969 228.187469 150.149914 230.293475 
" style="fill:#aaf6a5;opacity:0.4;"/>
   </g>
   <g id="text_16">
    <!-- 1113 -->
    <g style="fill:#262626;" transform="translate(83.933586 215.822634)scale(0.1 -0.1)">
     <use xlink:href="#DejaVuSans-31"/>
     <use x="63.623047" xlink:href="#DejaVuSans-31"/>
     <use x="127.246094" xlink:href="#DejaVuSans-31"/>
     <use x="190.869141" xlink:href="#DejaVuSans-33"/>
    </g>
   </g>
   <g id="text_17">
    <!-- 186 -->
    <g style="fill:#262626;" transform="translate(160.515624 215.822634)scale(0.1 -0.1)">
     <use xlink:href="#DejaVuSans-31"/>
     <use x="63.623047" xlink:href="#DejaVuSans-38"/>
     <use x="127.246094" xlink:href="#DejaVuSans-36"/>
    </g>
   </g>
   <g id="text_18">
    <!-- 37 -->
    <g style="fill:#262626;" transform="translate(141.256272 215.822634)scale(0.1 -0.1)">
     <use xlink:href="#DejaVuSans-33"/>
     <use x="63.623047" xlink:href="#DejaVuSans-37"/>
    </g>
   </g>
   <g id="text_19">
    <!-- Bioregistry -->
    <g style="fill:#262626;" transform="translate(37.291597 276.811609)scale(0.12 -0.12)">
     <use xlink:href="#DejaVuSans-42"/>
     <use x="68.603516" xlink:href="#DejaVuSans-69"/>
     <use x="96.386719" xlink:href="#DejaVuSans-6f"/>
     <use x="157.568359" xlink:href="#DejaVuSans-72"/>
     <use x="196.431641" xlink:href="#DejaVuSans-65"/>
     <use x="257.955078" xlink:href="#DejaVuSans-67"/>
     <use x="321.431641" xlink:href="#DejaVuSans-69"/>
     <use x="349.214844" xlink:href="#DejaVuSans-73"/>
     <use x="401.314453" xlink:href="#DejaVuSans-74"/>
     <use x="440.523438" xlink:href="#DejaVuSans-72"/>
     <use x="481.636719" xlink:href="#DejaVuSans-79"/>
    </g>
   </g>
   <g id="text_20">
    <!-- Wikidata -->
    <g style="fill:#262626;" transform="translate(164.526989 248.292026)scale(0.12 -0.12)">
     <defs>
      <path d="M 213 4666 
L 850 4666 
L 1831 722 
L 2809 4666 
L 3519 4666 
L 4500 722 
L 5478 4666 
L 6119 4666 
L 4947 0 
L 4153 0 
L 3169 4050 
L 2175 0 
L 1381 0 
L 213 4666 
z
" id="DejaVuSans-57" transform="scale(0.015625)"/>
      <path d="M 581 4863 
L 1159 4863 
L 1159 1991 
L 2875 3500 
L 3609 3500 
L 1753 1863 
L 3688 0 
L 2938 0 
L 1159 1709 
L 1159 0 
L 581 0 
L 581 4863 
z
" id="DejaVuSans-6b" transform="scale(0.015625)"/>
      <path d="M 2906 2969 
L 2906 4863 
L 3481 4863 
L 3481 0 
L 2906 0 
L 2906 525 
Q 2725 213 2448 61 
Q 2172 -91 1784 -91 
Q 1150 -91 751 415 
Q 353 922 353 1747 
Q 353 2572 751 3078 
Q 1150 3584 1784 3584 
Q 2172 3584 2448 3432 
Q 2725 3281 2906 2969 
z
M 947 1747 
Q 947 1113 1208 752 
Q 1469 391 1925 391 
Q 2381 391 2643 752 
Q 2906 1113 2906 1747 
Q 2906 2381 2643 2742 
Q 2381 3103 1925 3103 
Q 1469 3103 1208 2742 
Q 947 2381 947 1747 
z
" id="DejaVuSans-64" transform="scale(0.015625)"/>
      <path d="M 2194 1759 
Q 1497 1759 1228 1600 
Q 959 1441 959 1056 
Q 959 750 1161 570 
Q 1363 391 1709 391 
Q 2188 391 2477 730 
Q 2766 1069 2766 1631 
L 2766 1759 
L 2194 1759 
z
M 3341 1997 
L 3341 0 
L 2766 0 
L 2766 531 
Q 2569 213 2275 61 
Q 1981 -91 1556 -91 
Q 1019 -91 701 211 
Q 384 513 384 1019 
Q 384 1609 779 1909 
Q 1175 2209 1959 2209 
L 2766 2209 
L 2766 2266 
Q 2766 2663 2505 2880 
Q 2244 3097 1772 3097 
Q 1472 3097 1187 3025 
Q 903 2953 641 2809 
L 641 3341 
Q 956 3463 1253 3523 
Q 1550 3584 1831 3584 
Q 2591 3584 2966 3190 
Q 3341 2797 3341 1997 
z
" id="DejaVuSans-61" transform="scale(0.015625)"/>
     </defs>
     <use xlink:href="#DejaVuSans-57"/>
     <use x="96.626953" xlink:href="#DejaVuSans-69"/>
     <use x="124.410156" xlink:href="#DejaVuSans-6b"/>
     <use x="182.320312" xlink:href="#DejaVuSans-69"/>
     <use x="210.103516" xlink:href="#DejaVuSans-64"/>
     <use x="273.580078" xlink:href="#DejaVuSans-61"/>
     <use x="334.859375" xlink:href="#DejaVuSans-74"/>
     <use x="374.068359" xlink:href="#DejaVuSans-61"/>
    </g>
   </g>
  </g>
  <g id="axes_5">
   <g id="patch_14">
    <path clip-path="url(#pac3b14818e)" d="M 397.829682 237.022824 
C 395.335994 240.311784 392.344056 243.191362 388.962098 245.557393 
C 385.580141 247.923424 381.84944 249.747029 377.904951 250.962243 
C 373.960462 252.177457 369.850327 252.769446 365.723226 252.716798 
C 361.596124 252.66415 357.502428 251.967506 353.590222 250.652066 
C 349.678016 249.336627 345.995049 247.418447 342.674547 244.966915 
C 339.354046 242.515383 336.436538 239.560419 334.027561 236.208917 
C 331.618583 232.857415 329.747538 229.15028 328.482109 225.221612 
C 327.216679 221.292945 326.57231 217.190696 326.57231 213.063259 
C 326.57231 208.935821 327.216679 204.833572 328.482109 200.904905 
C 329.747538 196.976237 331.618583 193.269102 334.027561 189.9176 
C 336.436538 186.566098 339.354046 183.611135 342.674547 181.159602 
C 345.995049 178.70807 349.678016 176.78989 353.590222 175.474451 
C 357.502428 174.159011 361.596124 173.462367 365.723226 173.409719 
C 369.850327 173.357071 373.960462 173.949061 377.904951 175.164274 
C 381.84944 176.379488 385.580141 178.203094 388.962098 180.569124 
C 392.344056 182.935155 395.335994 185.814733 397.829682 189.103693 
C 395.170134 184.040442 391.686009 179.455165 387.520456 175.536253 
C 383.354903 171.617342 378.565763 168.419212 373.349804 166.073264 
C 368.133845 163.727316 362.563493 162.266124 356.867615 161.749723 
C 351.171736 161.233322 345.429421 161.668883 339.8766 163.03851 
C 334.323779 164.408137 329.037555 166.692812 324.235122 169.798666 
C 319.432688 172.904521 315.180728 176.788428 311.653939 181.290812 
C 308.12715 185.793196 305.374505 190.851539 303.509097 196.258013 
C 301.64369 201.664487 300.691424 207.344019 300.691424 213.063259 
C 300.691424 218.782498 301.64369 224.46203 303.509097 229.868504 
C 305.374505 235.274978 308.12715 240.333321 311.653939 244.835705 
C 315.180728 249.338089 319.432688 253.221996 324.235122 256.327851 
C 329.037555 259.433705 334.323779 261.71838 339.8766 263.088007 
C 345.429421 264.457634 351.171736 264.893195 356.867615 264.376794 
C 362.563493 263.860394 368.133845 262.399202 373.349804 260.053253 
C 378.565763 257.707305 383.354903 254.509176 387.520456 250.590264 
C 391.686009 246.671352 395.170134 242.086075 397.829682 237.022824 
" style="fill:#c0c0c0;opacity:0.4;"/>
   </g>
   <g id="patch_15">
    <path clip-path="url(#pac3b14818e)" d="M 397.829682 189.103693 
C 401.711124 196.493191 403.739411 204.716386 403.739411 213.063259 
C 403.739411 221.410131 401.711124 229.633326 397.829682 237.022824 
C 403.055749 230.130091 405.885842 221.713204 405.885842 213.063259 
C 405.885842 204.413314 403.055749 195.996426 397.829682 189.103693 
" style="fill:#fb9a99;opacity:0.4;"/>
   </g>
   <g id="patch_16">
    <path clip-path="url(#pac3b14818e)" d="M 397.829682 237.022824 
C 401.711124 229.633326 403.739411 221.410131 403.739411 213.063259 
C 403.739411 204.716386 401.711124 196.493191 397.829682 189.103693 
C 395.335994 185.814733 392.344056 182.935155 388.962098 180.569124 
C 385.580141 178.203094 381.84944 176.379488 377.904951 175.164274 
C 373.960462 173.949061 369.850327 173.357071 365.723226 173.409719 
C 361.596124 173.462367 357.502428 174.159011 353.590222 175.474451 
C 349.678016 176.78989 345.995049 178.70807 342.674547 181.159602 
C 339.354046 183.611135 336.436538 186.566098 334.027561 189.9176 
C 331.618583 193.269102 329.747538 196.976237 328.482109 200.904905 
C 327.216679 204.833572 326.57231 208.935821 326.57231 213.063259 
C 326.57231 217.190696 327.216679 221.292945 328.482109 225.221612 
C 329.747538 229.15028 331.618583 232.857415 334.027561 236.208917 
C 336.436538 239.560419 339.354046 242.515383 342.674547 244.966915 
C 345.995049 247.418447 349.678016 249.336627 353.590222 250.652066 
C 357.502428 251.967506 361.596124 252.66415 365.723226 252.716798 
C 369.850327 252.769446 373.960462 252.177457 377.904951 250.962243 
C 381.84944 249.747029 385.580141 247.923424 388.962098 245.557393 
C 392.344056 243.191362 395.335994 240.311784 397.829682 237.022824 
" style="fill:#fff2f2;opacity:0.4;"/>
   </g>
   <g id="text_21">
    <!-- 482 -->
    <g style="fill:#262626;" transform="translate(304.088117 215.822634)scale(0.1 -0.1)">
     <use xlink:href="#DejaVuSans-34"/>
     <use x="63.623047" xlink:href="#DejaVuSans-38"/>
     <use x="127.246094" xlink:href="#DejaVuSans-32"/>
    </g>
   </g>
   <g id="text_22">
    <!-- 10 -->
    <g style="fill:#262626;" transform="translate(398.450126 215.822634)scale(0.1 -0.1)">
     <use xlink:href="#DejaVuSans-31"/>
     <use x="63.623047" xlink:href="#DejaVuSans-30"/>
    </g>
   </g>
   <g id="text_23">
    <!-- 676 -->
    <g style="fill:#262626;" transform="translate(355.61211 215.822634)scale(0.1 -0.1)">
     <use xlink:href="#DejaVuSans-36"/>
     <use x="63.623047" xlink:href="#DejaVuSans-37"/>
     <use x="127.246094" xlink:href="#DejaVuSans-36"/>
    </g>
   </g>
   <g id="text_24">
    <!-- Bioregistry -->
    <g style="fill:#262626;" transform="translate(287.316042 278.264415)scale(0.12 -0.12)">
     <use xlink:href="#DejaVuSans-42"/>
     <use x="68.603516" xlink:href="#DejaVuSans-69"/>
     <use x="96.386719" xlink:href="#DejaVuSans-6f"/>
     <use x="157.568359" xlink:href="#DejaVuSans-72"/>
     <use x="196.431641" xlink:href="#DejaVuSans-65"/>
     <use x="257.955078" xlink:href="#DejaVuSans-67"/>
     <use x="321.431641" xlink:href="#DejaVuSans-69"/>
     <use x="349.214844" xlink:href="#DejaVuSans-73"/>
     <use x="401.314453" xlink:href="#DejaVuSans-74"/>
     <use x="440.523438" xlink:href="#DejaVuSans-72"/>
     <use x="481.636719" xlink:href="#DejaVuSans-79"/>
    </g>
   </g>
   <g id="text_25">
    <!-- N2T -->
    <g style="fill:#262626;" transform="translate(366.229076 266.397187)scale(0.12 -0.12)">
     <defs>
      <path d="M 628 4666 
L 1478 4666 
L 3547 763 
L 3547 4666 
L 4159 4666 
L 4159 0 
L 3309 0 
L 1241 3903 
L 1241 0 
L 628 0 
L 628 4666 
z
" id="DejaVuSans-4e" transform="scale(0.015625)"/>
      <path d="M -19 4666 
L 3928 4666 
L 3928 4134 
L 2272 4134 
L 2272 0 
L 1638 0 
L 1638 4134 
L -19 4134 
L -19 4666 
z
" id="DejaVuSans-54" transform="scale(0.015625)"/>
     </defs>
     <use xlink:href="#DejaVuSans-4e"/>
     <use x="74.804688" xlink:href="#DejaVuSans-32"/>
     <use x="138.427734" xlink:href="#DejaVuSans-54"/>
    </g>
   </g>
  </g>
  <g id="axes_6">
   <g id="patch_17">
    <path clip-path="url(#pa3d54b3d6a)" d="M 622.023495 237.019907 
C 616.20588 236.264203 610.85814 233.41466 606.986293 229.007332 
C 603.114445 224.600005 600.977523 218.929751 600.977523 213.063259 
C 600.977523 207.196766 603.114445 201.526512 606.986293 197.119185 
C 610.85814 192.711857 616.20588 189.862314 622.023495 189.10661 
C 619.367984 184.096084 615.897758 179.561779 611.755005 175.689479 
C 607.612251 171.81718 602.854333 168.660504 597.676196 166.348792 
C 592.49806 164.037079 586.971405 162.602339 581.322677 162.103358 
C 575.673949 161.604376 569.981364 162.048062 564.478164 163.416236 
C 558.974963 164.78441 553.73735 167.058128 548.979925 170.144228 
C 544.222499 173.230328 540.011136 177.086078 536.518388 181.553496 
C 533.02564 186.020914 530.299871 191.038141 528.452763 196.399606 
C 526.605655 201.761071 525.662785 207.392534 525.662785 213.063259 
C 525.662785 218.733983 526.605655 224.365446 528.452763 229.726911 
C 530.299871 235.088376 533.02564 240.105603 536.518388 244.573021 
C 540.011136 249.040439 544.222499 252.896189 548.979925 255.982289 
C 553.73735 259.06839 558.974963 261.342107 564.478164 262.710281 
C 569.981364 264.078456 575.673949 264.522141 581.322677 264.02316 
C 586.971405 263.524178 592.49806 262.089438 597.676196 259.777725 
C 602.854333 257.466013 607.612251 254.309338 611.755005 250.437038 
C 615.897758 246.564738 619.367984 242.030433 622.023495 237.019907 
" style="fill:#c0c0c0;opacity:0.4;"/>
   </g>
   <g id="patch_18">
    <path clip-path="url(#pa3d54b3d6a)" d="M 622.023495 189.10661 
C 625.934391 196.485846 627.97946 204.711718 627.97946 213.063259 
C 627.97946 221.414799 625.934391 229.640671 622.023495 237.019907 
C 625.430017 237.462412 628.892068 237.173283 632.178002 236.171864 
C 635.463937 235.170446 638.498796 233.479584 641.07952 231.212412 
C 643.660244 228.94524 645.72796 226.153477 647.144319 223.02392 
C 648.560678 219.894362 649.29337 216.498401 649.29337 213.063259 
C 649.29337 209.628116 648.560678 206.232155 647.144319 203.102597 
C 645.72796 199.97304 643.660244 197.181277 641.07952 194.914105 
C 638.498796 192.646933 635.463937 190.956071 632.178002 189.954653 
C 628.892068 188.953235 625.430017 188.664105 622.023495 189.10661 
" style="fill:#e31a1c;opacity:0.4;"/>
   </g>
   <g id="patch_19">
    <path clip-path="url(#pa3d54b3d6a)" d="M 622.023495 237.019907 
C 625.934391 229.640671 627.97946 221.414799 627.97946 213.063259 
C 627.97946 204.711718 625.934391 196.485846 622.023495 189.10661 
C 616.20588 189.862314 610.85814 192.711857 606.986293 197.119185 
C 603.114445 201.526512 600.977523 207.196766 600.977523 213.063259 
C 600.977523 218.929751 603.114445 224.600005 606.986293 229.007332 
C 610.85814 233.41466 616.20588 236.264203 622.023495 237.019907 
" style="fill:#ff999a;opacity:0.4;"/>
   </g>
   <g id="text_26">
    <!-- 1022 -->
    <g style="fill:#262626;" transform="translate(550.595154 215.822634)scale(0.1 -0.1)">
     <use xlink:href="#DejaVuSans-31"/>
     <use x="63.623047" xlink:href="#DejaVuSans-30"/>
     <use x="127.246094" xlink:href="#DejaVuSans-32"/>
     <use x="190.869141" xlink:href="#DejaVuSans-32"/>
    </g>
   </g>
   <g id="text_27">
    <!-- 123 -->
    <g style="fill:#262626;" transform="translate(629.092665 215.822634)scale(0.1 -0.1)">
     <use xlink:href="#DejaVuSans-31"/>
     <use x="63.623047" xlink:href="#DejaVuSans-32"/>
     <use x="127.246094" xlink:href="#DejaVuSans-33"/>
    </g>
   </g>
   <g id="text_28">
    <!-- 135 -->
    <g style="fill:#262626;" transform="translate(604.934742 215.822634)scale(0.1 -0.1)">
     <use xlink:href="#DejaVuSans-31"/>
     <use x="63.623047" xlink:href="#DejaVuSans-33"/>
     <use x="127.246094" xlink:href="#DejaVuSans-35"/>
    </g>
   </g>
   <g id="text_29">
    <!-- Bioregistry -->
    <g style="fill:#262626;" transform="translate(511.921747 277.105534)scale(0.12 -0.12)">
     <use xlink:href="#DejaVuSans-42"/>
     <use x="68.603516" xlink:href="#DejaVuSans-69"/>
     <use x="96.386719" xlink:href="#DejaVuSans-6f"/>
     <use x="157.568359" xlink:href="#DejaVuSans-72"/>
     <use x="196.431641" xlink:href="#DejaVuSans-65"/>
     <use x="257.955078" xlink:href="#DejaVuSans-67"/>
     <use x="321.431641" xlink:href="#DejaVuSans-69"/>
     <use x="349.214844" xlink:href="#DejaVuSans-73"/>
     <use x="401.314453" xlink:href="#DejaVuSans-74"/>
     <use x="440.523438" xlink:href="#DejaVuSans-72"/>
     <use x="481.636719" xlink:href="#DejaVuSans-79"/>
    </g>
   </g>
   <g id="text_30">
    <!-- GO -->
    <g style="fill:#262626;" transform="translate(625.135446 250.10512)scale(0.12 -0.12)">
     <defs>
      <path d="M 3809 666 
L 3809 1919 
L 2778 1919 
L 2778 2438 
L 4434 2438 
L 4434 434 
Q 4069 175 3628 42 
Q 3188 -91 2688 -91 
Q 1594 -91 976 548 
Q 359 1188 359 2328 
Q 359 3472 976 4111 
Q 1594 4750 2688 4750 
Q 3144 4750 3555 4637 
Q 3966 4525 4313 4306 
L 4313 3634 
Q 3963 3931 3569 4081 
Q 3175 4231 2741 4231 
Q 1884 4231 1454 3753 
Q 1025 3275 1025 2328 
Q 1025 1384 1454 906 
Q 1884 428 2741 428 
Q 3075 428 3337 486 
Q 3600 544 3809 666 
z
" id="DejaVuSans-47" transform="scale(0.015625)"/>
     </defs>
     <use xlink:href="#DejaVuSans-47"/>
     <use x="77.490234" xlink:href="#DejaVuSans-4f"/>
    </g>
   </g>
  </g>
  <g id="axes_7">
   <g id="patch_20">
    <path clip-path="url(#p43cc8e0109)" d="M 127.538143 391.652189 
C 121.219582 387.758843 116.001715 382.311941 112.383226 375.832058 
C 108.764737 369.352174 106.864697 362.052535 106.864697 354.630787 
C 106.864697 347.209038 108.764737 339.909399 112.383226 333.429516 
C 116.001715 326.949632 121.219582 321.50273 127.538143 317.609385 
C 120.381139 311.162488 111.505912 306.927235 101.992233 305.418892 
C 92.478555 303.91055 82.728546 305.192871 73.928405 309.109847 
C 65.128264 313.026824 57.649954 319.412893 52.403294 327.49112 
C 47.156634 335.569346 44.36339 344.99828 44.36339 354.630787 
C 44.36339 364.263293 47.156634 373.692227 52.403294 381.770454 
C 57.649954 389.84868 65.128264 396.23475 73.928405 400.151727 
C 82.728546 404.068703 92.478555 405.351024 101.992233 403.842681 
C 111.505912 402.334338 120.381139 398.099086 127.538143 391.652189 
" style="fill:#c0c0c0;opacity:0.4;"/>
   </g>
   <g id="patch_21">
    <path clip-path="url(#p43cc8e0109)" d="M 127.538143 317.609385 
C 132.724827 322.281454 136.872255 327.991775 139.71089 334.369242 
C 142.549525 340.746708 144.016511 347.650105 144.016511 354.630787 
C 144.016511 361.611469 142.549525 368.514866 139.71089 374.892332 
C 136.872255 381.269798 132.724827 386.98012 127.538143 391.652189 
C 134.126117 395.711541 141.679762 397.939762 149.416179 398.105908 
C 157.152595 398.272053 164.794938 396.370178 171.551113 392.597403 
C 178.307289 388.824628 183.93553 383.31596 187.852497 376.642346 
C 191.769463 369.968733 193.834988 362.368987 193.834988 354.630787 
C 193.834988 346.892586 191.769463 339.292841 187.852497 332.619227 
C 183.93553 325.945614 178.307289 320.436946 171.551113 316.66417 
C 164.794938 312.891395 157.152595 310.98952 149.416179 311.155666 
C 141.679762 311.321812 134.126117 313.550033 127.538143 317.609385 
" style="fill:#fdbf6f;opacity:0.4;"/>
   </g>
   <g id="patch_22">
    <path clip-path="url(#p43cc8e0109)" d="M 127.538143 391.652189 
C 132.724827 386.98012 136.872255 381.269798 139.71089 374.892332 
C 142.549525 368.514866 144.016511 361.611469 144.016511 354.630787 
C 144.016511 347.650105 142.549525 340.746708 139.71089 334.369242 
C 136.872255 327.991775 132.724827 322.281454 127.538143 317.609385 
C 121.219582 321.50273 116.001715 326.949632 112.383226 333.429516 
C 108.764737 339.909399 106.864697 347.209038 106.864697 354.630787 
C 106.864697 362.052535 108.764737 369.352174 112.383226 375.832058 
C 116.001715 382.311941 121.219582 387.758843 127.538143 391.652189 
" style="fill:#ffffd4;opacity:0.4;"/>
   </g>
   <g id="text_31">
    <!-- 872 -->
    <g style="fill:#262626;" transform="translate(66.070293 357.390162)scale(0.1 -0.1)">
     <use xlink:href="#DejaVuSans-38"/>
     <use x="63.623047" xlink:href="#DejaVuSans-37"/>
     <use x="127.246094" xlink:href="#DejaVuSans-32"/>
    </g>
   </g>
   <g id="text_32">
    <!-- 596 -->
    <g style="fill:#262626;" transform="translate(159.381999 357.390162)scale(0.1 -0.1)">
     <use xlink:href="#DejaVuSans-35"/>
     <use x="63.623047" xlink:href="#DejaVuSans-39"/>
     <use x="127.246094" xlink:href="#DejaVuSans-36"/>
    </g>
   </g>
   <g id="text_33">
    <!-- 286 -->
    <g style="fill:#262626;" transform="translate(115.896854 357.390162)scale(0.1 -0.1)">
     <use xlink:href="#DejaVuSans-32"/>
     <use x="63.623047" xlink:href="#DejaVuSans-38"/>
     <use x="127.246094" xlink:href="#DejaVuSans-36"/>
    </g>
   </g>
   <g id="text_34">
    <!-- Bioregistry -->
    <g style="fill:#262626;" transform="translate(29.290575 418.241058)scale(0.12 -0.12)">
     <use xlink:href="#DejaVuSans-42"/>
     <use x="68.603516" xlink:href="#DejaVuSans-69"/>
     <use x="96.386719" xlink:href="#DejaVuSans-6f"/>
     <use x="157.568359" xlink:href="#DejaVuSans-72"/>
     <use x="196.431641" xlink:href="#DejaVuSans-65"/>
     <use x="257.955078" xlink:href="#DejaVuSans-67"/>
     <use x="321.431641" xlink:href="#DejaVuSans-69"/>
     <use x="349.214844" xlink:href="#DejaVuSans-73"/>
     <use x="401.314453" xlink:href="#DejaVuSans-74"/>
     <use x="440.523438" xlink:href="#DejaVuSans-72"/>
     <use x="481.636719" xlink:href="#DejaVuSans-79"/>
    </g>
   </g>
   <g id="text_35">
    <!-- BioPortal -->
    <g style="fill:#262626;" transform="translate(150.349842 411.899642)scale(0.12 -0.12)">
     <defs>
      <path d="M 1259 4147 
L 1259 2394 
L 2053 2394 
Q 2494 2394 2734 2622 
Q 2975 2850 2975 3272 
Q 2975 3691 2734 3919 
Q 2494 4147 2053 4147 
L 1259 4147 
z
M 628 4666 
L 2053 4666 
Q 2838 4666 3239 4311 
Q 3641 3956 3641 3272 
Q 3641 2581 3239 2228 
Q 2838 1875 2053 1875 
L 1259 1875 
L 1259 0 
L 628 0 
L 628 4666 
z
" id="DejaVuSans-50" transform="scale(0.015625)"/>
      <path d="M 603 4863 
L 1178 4863 
L 1178 0 
L 603 0 
L 603 4863 
z
" id="DejaVuSans-6c" transform="scale(0.015625)"/>
     </defs>
     <use xlink:href="#DejaVuSans-42"/>
     <use x="68.603516" xlink:href="#DejaVuSans-69"/>
     <use x="96.386719" xlink:href="#DejaVuSans-6f"/>
     <use x="157.568359" xlink:href="#DejaVuSans-50"/>
     <use x="214.246094" xlink:href="#DejaVuSans-6f"/>
     <use x="275.427734" xlink:href="#DejaVuSans-72"/>
     <use x="316.541016" xlink:href="#DejaVuSans-74"/>
     <use x="355.75" xlink:href="#DejaVuSans-61"/>
     <use x="417.029297" xlink:href="#DejaVuSans-6c"/>
    </g>
   </g>
  </g>
  <g id="axes_8">
   <g id="patch_23">
    <path clip-path="url(#pe1a6cfef5f)" d="M 370.346537 400.569578 
C 363.738135 401.560484 356.993065 401.113871 350.573005 399.260308 
C 344.152945 397.406746 338.207793 394.189511 333.144475 389.828815 
C 328.081157 385.468118 324.017894 380.065773 321.232803 373.991555 
C 318.447712 367.917336 317.00582 361.313067 317.00582 354.630787 
C 317.00582 347.948507 318.447712 341.344237 321.232803 335.270019 
C 324.017894 329.1958 328.081157 323.793456 333.144475 319.432759 
C 338.207793 315.072062 344.152945 311.854828 350.573005 310.001265 
C 356.993065 308.147703 363.738135 307.70109 370.346537 308.691995 
C 362.547131 304.868817 353.901062 303.094133 345.226253 303.53583 
C 336.551443 303.977528 328.130346 306.621225 320.759602 311.216827 
C 313.388858 315.812428 307.30846 322.2103 303.093617 329.805201 
C 298.878774 337.400102 296.666721 345.944739 296.666721 354.630787 
C 296.666721 363.316834 298.878774 371.861472 303.093617 379.456373 
C 307.30846 387.051273 313.388858 393.449145 320.759602 398.044747 
C 328.130346 402.640348 336.551443 405.284045 345.226253 405.725743 
C 353.901062 406.167441 362.547131 404.392757 370.346537 400.569578 
" style="fill:#c0c0c0;opacity:0.4;"/>
   </g>
   <g id="patch_24">
    <path clip-path="url(#pe1a6cfef5f)" d="M 370.346537 308.691995 
C 378.938606 312.903729 386.17917 319.442678 391.241828 327.562521 
C 396.304487 335.682363 398.989015 345.061964 398.989015 354.630787 
C 398.989015 364.199609 396.304487 373.57921 391.241828 381.699053 
C 386.17917 389.818896 378.938606 396.357844 370.346537 400.569578 
C 381.347018 398.920096 391.397303 393.372997 398.65621 384.944494 
C 405.915116 376.51599 409.910544 365.754248 409.910544 354.630787 
C 409.910544 343.507325 405.915116 332.745584 398.65621 324.31708 
C 391.397303 315.888577 381.347018 310.341478 370.346537 308.691995 
" style="fill:#ff7f00;opacity:0.4;"/>
   </g>
   <g id="patch_25">
    <path clip-path="url(#pe1a6cfef5f)" d="M 370.346537 400.569578 
C 378.938606 396.357844 386.17917 389.818896 391.241828 381.699053 
C 396.304487 373.57921 398.989015 364.199609 398.989015 354.630787 
C 398.989015 345.061964 396.304487 335.682363 391.241828 327.562521 
C 386.17917 319.442678 378.938606 312.903729 370.346537 308.691995 
C 363.738135 307.70109 356.993065 308.147703 350.573005 310.001265 
C 344.152945 311.854828 338.207793 315.072062 333.144475 319.432759 
C 328.081157 323.793456 324.017894 329.1958 321.232803 335.270019 
C 318.447712 341.344237 317.00582 347.948507 317.00582 354.630787 
C 317.00582 361.313067 318.447712 367.917336 321.232803 373.991555 
C 324.017894 380.065773 328.081157 385.468118 333.144475 389.828815 
C 338.207793 394.189511 344.152945 397.406746 350.573005 399.260308 
C 356.993065 401.113871 363.738135 401.560484 370.346537 400.569578 
" style="fill:#ffdf86;opacity:0.4;"/>
   </g>
   <g id="text_36">
    <!-- 325 -->
    <g style="fill:#262626;" transform="translate(297.29252 357.390162)scale(0.1 -0.1)">
     <use xlink:href="#DejaVuSans-33"/>
     <use x="63.623047" xlink:href="#DejaVuSans-32"/>
     <use x="127.246094" xlink:href="#DejaVuSans-35"/>
    </g>
   </g>
   <g id="text_37">
    <!-- 122 -->
    <g style="fill:#262626;" transform="translate(394.90603 357.390162)scale(0.1 -0.1)">
     <use xlink:href="#DejaVuSans-31"/>
     <use x="63.623047" xlink:href="#DejaVuSans-32"/>
     <use x="127.246094" xlink:href="#DejaVuSans-32"/>
    </g>
   </g>
   <g id="text_38">
    <!-- 831 -->
    <g style="fill:#262626;" transform="translate(348.453667 357.390162)scale(0.1 -0.1)">
     <use xlink:href="#DejaVuSans-38"/>
     <use x="63.623047" xlink:href="#DejaVuSans-33"/>
     <use x="127.246094" xlink:href="#DejaVuSans-31"/>
    </g>
   </g>
   <g id="text_39">
    <!-- Bioregistry -->
    <g style="fill:#262626;" transform="translate(282.928493 419.790734)scale(0.12 -0.12)">
     <use xlink:href="#DejaVuSans-42"/>
     <use x="68.603516" xlink:href="#DejaVuSans-69"/>
     <use x="96.386719" xlink:href="#DejaVuSans-6f"/>
     <use x="157.568359" xlink:href="#DejaVuSans-72"/>
     <use x="196.431641" xlink:href="#DejaVuSans-65"/>
     <use x="257.955078" xlink:href="#DejaVuSans-67"/>
     <use x="321.431641" xlink:href="#DejaVuSans-69"/>
     <use x="349.214844" xlink:href="#DejaVuSans-73"/>
     <use x="401.314453" xlink:href="#DejaVuSans-74"/>
     <use x="440.523438" xlink:href="#DejaVuSans-72"/>
     <use x="481.636719" xlink:href="#DejaVuSans-79"/>
    </g>
   </g>
   <g id="text_40">
    <!-- Prefix Commons -->
    <g style="fill:#262626;" transform="translate(363.458182 415.08195)scale(0.12 -0.12)">
     <defs>
      <path d="M 2375 4863 
L 2375 4384 
L 1825 4384 
Q 1516 4384 1395 4259 
Q 1275 4134 1275 3809 
L 1275 3500 
L 2222 3500 
L 2222 3053 
L 1275 3053 
L 1275 0 
L 697 0 
L 697 3053 
L 147 3053 
L 147 3500 
L 697 3500 
L 697 3744 
Q 697 4328 969 4595 
Q 1241 4863 1831 4863 
L 2375 4863 
z
" id="DejaVuSans-66" transform="scale(0.015625)"/>
      <path d="M 3513 3500 
L 2247 1797 
L 3578 0 
L 2900 0 
L 1881 1375 
L 863 0 
L 184 0 
L 1544 1831 
L 300 3500 
L 978 3500 
L 1906 2253 
L 2834 3500 
L 3513 3500 
z
" id="DejaVuSans-78" transform="scale(0.015625)"/>
      <path id="DejaVuSans-20" transform="scale(0.015625)"/>
      <path d="M 4122 4306 
L 4122 3641 
Q 3803 3938 3442 4084 
Q 3081 4231 2675 4231 
Q 1875 4231 1450 3742 
Q 1025 3253 1025 2328 
Q 1025 1406 1450 917 
Q 1875 428 2675 428 
Q 3081 428 3442 575 
Q 3803 722 4122 1019 
L 4122 359 
Q 3791 134 3420 21 
Q 3050 -91 2638 -91 
Q 1578 -91 968 557 
Q 359 1206 359 2328 
Q 359 3453 968 4101 
Q 1578 4750 2638 4750 
Q 3056 4750 3426 4639 
Q 3797 4528 4122 4306 
z
" id="DejaVuSans-43" transform="scale(0.015625)"/>
      <path d="M 3328 2828 
Q 3544 3216 3844 3400 
Q 4144 3584 4550 3584 
Q 5097 3584 5394 3201 
Q 5691 2819 5691 2113 
L 5691 0 
L 5113 0 
L 5113 2094 
Q 5113 2597 4934 2840 
Q 4756 3084 4391 3084 
Q 3944 3084 3684 2787 
Q 3425 2491 3425 1978 
L 3425 0 
L 2847 0 
L 2847 2094 
Q 2847 2600 2669 2842 
Q 2491 3084 2119 3084 
Q 1678 3084 1418 2786 
Q 1159 2488 1159 1978 
L 1159 0 
L 581 0 
L 581 3500 
L 1159 3500 
L 1159 2956 
Q 1356 3278 1631 3431 
Q 1906 3584 2284 3584 
Q 2666 3584 2933 3390 
Q 3200 3197 3328 2828 
z
" id="DejaVuSans-6d" transform="scale(0.015625)"/>
      <path d="M 3513 2113 
L 3513 0 
L 2938 0 
L 2938 2094 
Q 2938 2591 2744 2837 
Q 2550 3084 2163 3084 
Q 1697 3084 1428 2787 
Q 1159 2491 1159 1978 
L 1159 0 
L 581 0 
L 581 3500 
L 1159 3500 
L 1159 2956 
Q 1366 3272 1645 3428 
Q 1925 3584 2291 3584 
Q 2894 3584 3203 3211 
Q 3513 2838 3513 2113 
z
" id="DejaVuSans-6e" transform="scale(0.015625)"/>
     </defs>
     <use xlink:href="#DejaVuSans-50"/>
     <use x="58.552734" xlink:href="#DejaVuSans-72"/>
     <use x="97.416016" xlink:href="#DejaVuSans-65"/>
     <use x="158.939453" xlink:href="#DejaVuSans-66"/>
     <use x="194.144531" xlink:href="#DejaVuSans-69"/>
     <use x="221.927734" xlink:href="#DejaVuSans-78"/>
     <use x="281.107422" xlink:href="#DejaVuSans-20"/>
     <use x="312.894531" xlink:href="#DejaVuSans-43"/>
     <use x="382.71875" xlink:href="#DejaVuSans-6f"/>
     <use x="443.900391" xlink:href="#DejaVuSans-6d"/>
     <use x="541.3125" xlink:href="#DejaVuSans-6d"/>
     <use x="638.724609" xlink:href="#DejaVuSans-6f"/>
     <use x="699.90625" xlink:href="#DejaVuSans-6e"/>
     <use x="763.285156" xlink:href="#DejaVuSans-73"/>
    </g>
   </g>
  </g>
  <g id="axes_9">
   <g id="patch_26">
    <path clip-path="url(#pcb470dee72)" d="M 629.914425 369.646445 
C 626.048422 369.475144 622.394097 367.817251 619.718987 365.020983 
C 617.043878 362.224715 615.549373 358.500583 615.549373 354.630787 
C 615.549373 350.760991 617.043878 347.036858 619.718987 344.240591 
C 622.394097 341.444323 626.048422 339.78643 629.914425 339.615128 
C 628.129662 333.77158 625.317263 328.292768 621.609489 323.436346 
C 617.901714 318.579924 613.35761 314.423231 608.190875 311.161747 
C 603.02414 307.900263 597.317055 305.585927 591.338009 304.327576 
C 585.358964 303.069226 579.203176 302.8869 573.160136 303.789173 
C 567.117096 304.691447 561.283041 306.663951 555.932331 309.613923 
C 550.581621 312.563895 545.799469 316.444357 541.810765 321.072821 
C 537.822061 325.701284 534.690328 331.004039 532.562841 336.731712 
C 530.435355 342.459385 529.345997 348.52076 529.345997 354.630787 
C 529.345997 360.740814 530.435355 366.802189 532.562841 372.529862 
C 534.690328 378.257534 537.822061 383.56029 541.810765 388.188753 
C 545.799469 392.817217 550.581621 396.697678 555.932331 399.647651 
C 561.283041 402.597623 567.117096 404.570127 573.160136 405.4724 
C 579.203176 406.374674 585.358964 406.192348 591.338009 404.933997 
C 597.317055 403.675647 603.02414 401.361311 608.190875 398.099826 
C 613.35761 394.838342 617.901714 390.68165 621.609489 385.825228 
C 625.317263 380.968805 628.129662 375.489993 629.914425 369.646445 
" style="fill:#c0c0c0;opacity:0.4;"/>
   </g>
   <g id="patch_27">
    <path clip-path="url(#pcb470dee72)" d="M 629.914425 339.615128 
C 631.400813 344.481757 632.156381 349.542229 632.156381 354.630787 
C 632.156381 359.719345 631.400813 364.779817 629.914425 369.646445 
C 631.942218 369.736296 633.967356 369.414458 635.867389 368.700389 
C 637.767422 367.986321 639.503265 366.894711 640.969961 365.491565 
C 642.436658 364.088419 643.604037 362.402598 644.401513 360.536037 
C 645.198988 358.669476 645.610157 356.660569 645.610157 354.630787 
C 645.610157 352.601004 645.198988 350.592098 644.401513 348.725537 
C 643.604037 346.858976 642.436658 345.173155 640.969961 343.770009 
C 639.503265 342.366862 637.767422 341.275253 635.867389 340.561184 
C 633.967356 339.847116 631.942218 339.525277 629.914425 339.615128 
" style="fill:#cab2d6;opacity:0.4;"/>
   </g>
   <g id="patch_28">
    <path clip-path="url(#pcb470dee72)" d="M 629.914425 369.646445 
C 631.400813 364.779817 632.156381 359.719345 632.156381 354.630787 
C 632.156381 349.542229 631.400813 344.481757 629.914425 339.615128 
C 626.048422 339.78643 622.394097 341.444323 619.718987 344.240591 
C 617.043878 347.036858 615.549373 350.760991 615.549373 354.630787 
C 615.549373 358.500583 617.043878 362.224715 619.718987 365.020983 
C 622.394097 367.817251 626.048422 369.475144 629.914425 369.646445 
" style="fill:#ffffff;opacity:0.4;"/>
   </g>
   <g id="text_41">
    <!-- 1105 -->
    <g style="fill:#262626;" transform="translate(559.722685 357.390162)scale(0.1 -0.1)">
     <use xlink:href="#DejaVuSans-31"/>
     <use x="63.623047" xlink:href="#DejaVuSans-31"/>
     <use x="127.246094" xlink:href="#DejaVuSans-30"/>
     <use x="190.869141" xlink:href="#DejaVuSans-35"/>
    </g>
   </g>
   <g id="text_42">
    <!-- 46 -->
    <g style="fill:#262626;" transform="translate(632.520769 357.390162)scale(0.1 -0.1)">
     <use xlink:href="#DejaVuSans-34"/>
     <use x="63.623047" xlink:href="#DejaVuSans-36"/>
    </g>
   </g>
   <g id="text_43">
    <!-- 53 -->
    <g style="fill:#262626;" transform="translate(617.490377 357.390162)scale(0.1 -0.1)">
     <use xlink:href="#DejaVuSans-35"/>
     <use x="63.623047" xlink:href="#DejaVuSans-33"/>
    </g>
   </g>
   <g id="text_44">
    <!-- Bioregistry -->
    <g style="fill:#262626;" transform="translate(515.851814 418.475883)scale(0.12 -0.12)">
     <use xlink:href="#DejaVuSans-42"/>
     <use x="68.603516" xlink:href="#DejaVuSans-69"/>
     <use x="96.386719" xlink:href="#DejaVuSans-6f"/>
     <use x="157.568359" xlink:href="#DejaVuSans-72"/>
     <use x="196.431641" xlink:href="#DejaVuSans-65"/>
     <use x="257.955078" xlink:href="#DejaVuSans-67"/>
     <use x="321.431641" xlink:href="#DejaVuSans-69"/>
     <use x="349.214844" xlink:href="#DejaVuSans-73"/>
     <use x="401.314453" xlink:href="#DejaVuSans-74"/>
     <use x="440.523438" xlink:href="#DejaVuSans-72"/>
     <use x="481.636719" xlink:href="#DejaVuSans-79"/>
    </g>
   </g>
   <g id="text_45">
    <!-- Biolink -->
    <g style="fill:#262626;" transform="translate(630.579765 382.101083)scale(0.12 -0.12)">
     <use xlink:href="#DejaVuSans-42"/>
     <use x="68.603516" xlink:href="#DejaVuSans-69"/>
     <use x="96.386719" xlink:href="#DejaVuSans-6f"/>
     <use x="157.568359" xlink:href="#DejaVuSans-6c"/>
     <use x="185.351562" xlink:href="#DejaVuSans-69"/>
     <use x="213.134766" xlink:href="#DejaVuSans-6e"/>
     <use x="276.513672" xlink:href="#DejaVuSans-6b"/>
    </g>
   </g>
  </g>
  <g id="axes_10">
   <g id="patch_29">
    <path clip-path="url(#pab95f2bcb6)" d="M 160.342802 513.068413 
C 155.961949 512.930631 151.802547 511.091686 148.752388 507.944087 
C 145.702228 504.796488 143.994945 500.581333 143.994945 496.198315 
C 143.994945 491.815297 145.702228 487.600142 148.752388 484.452543 
C 151.802547 481.304944 155.961949 479.465999 160.342802 479.328217 
C 158.364658 473.638461 155.401094 468.340723 151.587796 463.677557 
C 147.774497 459.014391 143.170561 455.058065 137.986777 451.989718 
C 132.802993 448.921372 127.119699 446.788557 121.1971 445.688924 
C 115.274501 444.589291 109.204386 444.539881 103.264672 445.542958 
C 97.324957 446.546034 91.607697 448.586051 86.374652 451.569606 
C 81.141606 454.553162 76.473878 458.434018 72.585175 463.034492 
C 68.696472 467.634966 65.647062 472.883759 63.57656 478.54056 
C 61.506057 484.19736 60.446552 490.174498 60.446552 496.198315 
C 60.446552 502.222132 61.506057 508.19927 63.57656 513.856071 
C 65.647062 519.512871 68.696472 524.761664 72.585175 529.362138 
C 76.473878 533.962612 81.141606 537.843468 86.374652 540.827024 
C 91.607697 543.810579 97.324957 545.850596 103.264672 546.853672 
C 109.204386 547.856749 115.274501 547.807339 121.1971 546.707706 
C 127.119699 545.608073 132.802993 543.475258 137.986777 540.406912 
C 143.170561 537.338565 147.774497 533.38224 151.587796 528.719073 
C 155.401094 524.055907 158.364658 518.758169 160.342802 513.068413 
" style="fill:#c0c0c0;opacity:0.4;"/>
   </g>
   <g id="patch_30">
    <path clip-path="url(#pab95f2bcb6)" d="M 160.342802 479.328217 
C 162.228732 484.752738 163.19176 490.455305 163.19176 496.198315 
C 163.19176 501.941325 162.228732 507.643892 160.342802 513.068413 
C 162.602795 513.139493 164.8542 512.755714 166.963016 511.93992 
C 169.071832 511.124126 170.995374 509.892829 172.619157 508.319313 
C 174.24294 506.745796 175.534097 504.861911 176.41578 502.779783 
C 177.297462 500.697654 177.751825 498.459426 177.751825 496.198315 
C 177.751825 493.937204 177.297462 491.698976 176.41578 489.616847 
C 175.534097 487.534719 174.24294 485.650834 172.619157 484.077318 
C 170.995374 482.503801 169.071832 481.272504 166.963016 480.45671 
C 164.8542 479.640916 162.602795 479.257137 160.342802 479.328217 
" style="fill:#6a3d9a;opacity:0.4;"/>
   </g>
   <g id="patch_31">
    <path clip-path="url(#pab95f2bcb6)" d="M 160.342802 513.068413 
C 162.228732 507.643892 163.19176 501.941325 163.19176 496.198315 
C 163.19176 490.455305 162.228732 484.752738 160.342802 479.328217 
C 155.961949 479.465999 151.802547 481.304944 148.752388 484.452543 
C 145.702228 487.600142 143.994945 491.815297 143.994945 496.198315 
C 143.994945 500.581333 145.702228 504.796488 148.752388 507.944087 
C 151.802547 511.091686 155.961949 512.930631 160.342802 513.068413 
" style="fill:#d1b1f2;opacity:0.4;"/>
   </g>
   <g id="text_46">
    <!-- 1089 -->
    <g style="fill:#262626;" transform="translate(89.495749 498.95769)scale(0.1 -0.1)">
     <use xlink:href="#DejaVuSans-31"/>
     <use x="63.623047" xlink:href="#DejaVuSans-30"/>
     <use x="127.246094" xlink:href="#DejaVuSans-38"/>
     <use x="190.869141" xlink:href="#DejaVuSans-39"/>
    </g>
   </g>
   <g id="text_47">
    <!-- 56 -->
    <g style="fill:#262626;" transform="translate(164.109292 498.95769)scale(0.1 -0.1)">
     <use xlink:href="#DejaVuSans-35"/>
     <use x="63.623047" xlink:href="#DejaVuSans-36"/>
    </g>
   </g>
   <g id="text_48">
    <!-- 69 -->
    <g style="fill:#262626;" transform="translate(147.230852 498.95769)scale(0.1 -0.1)">
     <use xlink:href="#DejaVuSans-36"/>
     <use x="63.623047" xlink:href="#DejaVuSans-39"/>
    </g>
   </g>
   <g id="text_49">
    <!-- Bioregistry -->
    <g style="fill:#262626;" transform="translate(46.919781 560.101596)scale(0.12 -0.12)">
     <use xlink:href="#DejaVuSans-42"/>
     <use x="68.603516" xlink:href="#DejaVuSans-69"/>
     <use x="96.386719" xlink:href="#DejaVuSans-6f"/>
     <use x="157.568359" xlink:href="#DejaVuSans-72"/>
     <use x="196.431641" xlink:href="#DejaVuSans-65"/>
     <use x="257.955078" xlink:href="#DejaVuSans-67"/>
     <use x="321.431641" xlink:href="#DejaVuSans-69"/>
     <use x="349.214844" xlink:href="#DejaVuSans-73"/>
     <use x="401.314453" xlink:href="#DejaVuSans-74"/>
     <use x="440.523438" xlink:href="#DejaVuSans-72"/>
     <use x="481.636719" xlink:href="#DejaVuSans-79"/>
    </g>
   </g>
   <g id="text_50">
    <!-- NCBI -->
    <g style="fill:#262626;" transform="translate(160.873385 525.607432)scale(0.12 -0.12)">
     <use xlink:href="#DejaVuSans-4e"/>
     <use x="74.804688" xlink:href="#DejaVuSans-43"/>
     <use x="144.628906" xlink:href="#DejaVuSans-42"/>
     <use x="213.232422" xlink:href="#DejaVuSans-49"/>
    </g>
   </g>
  </g>
  <g id="axes_11">
   <g id="patch_32">
    <path clip-path="url(#p0faa521fdd)" d="M 390.959434 516.266813 
C 386.122114 515.586912 381.690023 513.180431 378.485284 509.493755 
C 375.280545 505.807079 373.514368 501.083183 373.514368 496.198315 
C 373.514368 491.313447 375.280545 486.589551 378.485284 482.902875 
C 381.690023 479.216199 386.122114 476.809718 390.959434 476.129817 
C 388.663263 470.732995 385.457802 465.770068 381.482876 461.457522 
C 377.50795 457.144976 372.822208 453.546442 367.630045 450.818891 
C 362.437883 448.09134 356.815908 446.275017 351.009358 445.449149 
C 345.202807 444.623282 339.297354 444.800057 333.550599 445.971763 
C 327.803844 447.143469 322.300579 449.292818 317.28086 452.326054 
C 312.261142 455.359289 307.799035 459.231656 304.08918 463.77424 
C 300.379326 468.316824 297.476461 473.462599 295.507211 478.987103 
C 293.537961 484.511607 292.531383 490.333327 292.531383 496.198315 
C 292.531383 502.063303 293.537961 507.885023 295.507211 513.409527 
C 297.476461 518.934031 300.379326 524.079806 304.08918 528.62239 
C 307.799035 533.164974 312.261142 537.037341 317.28086 540.070576 
C 322.300579 543.103812 327.803844 545.253161 333.550599 546.424867 
C 339.297354 547.596573 345.202807 547.773348 351.009358 546.947481 
C 356.815908 546.121613 362.437883 544.30529 367.630045 541.577739 
C 372.822208 538.850188 377.50795 535.251654 381.482876 530.939108 
C 385.457802 526.626562 388.663263 521.663635 390.959434 516.266813 
" style="fill:#c0c0c0;opacity:0.4;"/>
   </g>
   <g id="patch_33">
    <path clip-path="url(#p0faa521fdd)" d="M 390.959434 476.129817 
C 393.659433 482.47578 395.051201 489.301849 395.051201 496.198315 
C 395.051201 503.094781 393.659433 509.92085 390.959434 516.266813 
C 393.830774 516.670389 396.755569 516.453071 399.535735 515.629575 
C 402.315901 514.80608 404.887226 513.395428 407.075566 511.493157 
C 409.263906 509.590885 411.018717 507.24093 412.221155 504.602444 
C 413.423592 501.963957 414.045883 499.097878 414.045883 496.198315 
C 414.045883 493.298752 413.423592 490.432673 412.221155 487.794186 
C 411.018717 485.1557 409.263906 482.805745 407.075566 480.903473 
C 404.887226 479.001202 402.315901 477.59055 399.535735 476.767055 
C 396.755569 475.943559 393.830774 475.726241 390.959434 476.129817 
" style="fill:#ffff99;opacity:0.4;"/>
   </g>
   <g id="patch_34">
    <path clip-path="url(#p0faa521fdd)" d="M 390.959434 516.266813 
C 393.659433 509.92085 395.051201 503.094781 395.051201 496.198315 
C 395.051201 489.301849 393.659433 482.47578 390.959434 476.129817 
C 386.122114 476.809718 381.690023 479.216199 378.485284 482.902875 
C 375.280545 486.589551 373.514368 491.313447 373.514368 496.198315 
C 373.514368 501.083183 375.280545 505.807079 378.485284 509.493755 
C 381.690023 513.180431 386.122114 515.586912 390.959434 516.266813 
" style="fill:#fffff2;opacity:0.4;"/>
   </g>
   <g id="text_51">
    <!-- 1068 -->
    <g style="fill:#262626;" transform="translate(320.297876 498.95769)scale(0.1 -0.1)">
     <use xlink:href="#DejaVuSans-31"/>
     <use x="63.623047" xlink:href="#DejaVuSans-30"/>
     <use x="127.246094" xlink:href="#DejaVuSans-36"/>
     <use x="190.869141" xlink:href="#DejaVuSans-38"/>
    </g>
   </g>
   <g id="text_52">
    <!-- 91 -->
    <g style="fill:#262626;" transform="translate(398.186042 498.95769)scale(0.1 -0.1)">
     <use xlink:href="#DejaVuSans-39"/>
     <use x="63.623047" xlink:href="#DejaVuSans-31"/>
    </g>
   </g>
   <g id="text_53">
    <!-- 90 -->
    <g style="fill:#262626;" transform="translate(377.920285 498.95769)scale(0.1 -0.1)">
     <use xlink:href="#DejaVuSans-39"/>
     <use x="63.623047" xlink:href="#DejaVuSans-30"/>
    </g>
   </g>
   <g id="text_54">
    <!-- Bioregistry -->
    <g style="fill:#262626;" transform="translate(278.891917 560.152632)scale(0.12 -0.12)">
     <use xlink:href="#DejaVuSans-42"/>
     <use x="68.603516" xlink:href="#DejaVuSans-69"/>
     <use x="96.386719" xlink:href="#DejaVuSans-6f"/>
     <use x="157.568359" xlink:href="#DejaVuSans-72"/>
     <use x="196.431641" xlink:href="#DejaVuSans-65"/>
     <use x="257.955078" xlink:href="#DejaVuSans-67"/>
     <use x="321.431641" xlink:href="#DejaVuSans-69"/>
     <use x="349.214844" xlink:href="#DejaVuSans-73"/>
     <use x="401.314453" xlink:href="#DejaVuSans-74"/>
     <use x="440.523438" xlink:href="#DejaVuSans-72"/>
     <use x="481.636719" xlink:href="#DejaVuSans-79"/>
    </g>
   </g>
   <g id="text_55">
    <!-- UniProt -->
    <g style="fill:#262626;" transform="translate(393.780126 529.158481)scale(0.12 -0.12)">
     <defs>
      <path d="M 556 4666 
L 1191 4666 
L 1191 1831 
Q 1191 1081 1462 751 
Q 1734 422 2344 422 
Q 2950 422 3222 751 
Q 3494 1081 3494 1831 
L 3494 4666 
L 4128 4666 
L 4128 1753 
Q 4128 841 3676 375 
Q 3225 -91 2344 -91 
Q 1459 -91 1007 375 
Q 556 841 556 1753 
L 556 4666 
z
" id="DejaVuSans-55" transform="scale(0.015625)"/>
     </defs>
     <use xlink:href="#DejaVuSans-55"/>
     <use x="73.193359" xlink:href="#DejaVuSans-6e"/>
     <use x="136.572266" xlink:href="#DejaVuSans-69"/>
     <use x="164.355469" xlink:href="#DejaVuSans-50"/>
     <use x="222.908203" xlink:href="#DejaVuSans-72"/>
     <use x="261.771484" xlink:href="#DejaVuSans-6f"/>
     <use x="322.953125" xlink:href="#DejaVuSans-74"/>
    </g>
   </g>
  </g>
  <g id="axes_12"/>
  <g id="text_56">
   <!-- https://github.com/bioregistry/bioregistry (2021-06-13) -->
   <g style="fill:#808080;opacity:0.5;" transform="translate(240.830625 574.33625)scale(0.08 -0.08)">
    <defs>
     <path d="M 3513 2113 
L 3513 0 
L 2938 0 
L 2938 2094 
Q 2938 2591 2744 2837 
Q 2550 3084 2163 3084 
Q 1697 3084 1428 2787 
Q 1159 2491 1159 1978 
L 1159 0 
L 581 0 
L 581 4863 
L 1159 4863 
L 1159 2956 
Q 1366 3272 1645 3428 
Q 1925 3584 2291 3584 
Q 2894 3584 3203 3211 
Q 3513 2838 3513 2113 
z
" id="DejaVuSans-68" transform="scale(0.015625)"/>
     <path d="M 1159 525 
L 1159 -1331 
L 581 -1331 
L 581 3500 
L 1159 3500 
L 1159 2969 
Q 1341 3281 1617 3432 
Q 1894 3584 2278 3584 
Q 2916 3584 3314 3078 
Q 3713 2572 3713 1747 
Q 3713 922 3314 415 
Q 2916 -91 2278 -91 
Q 1894 -91 1617 61 
Q 1341 213 1159 525 
z
M 3116 1747 
Q 3116 2381 2855 2742 
Q 2594 3103 2138 3103 
Q 1681 3103 1420 2742 
Q 1159 2381 1159 1747 
Q 1159 1113 1420 752 
Q 1681 391 2138 391 
Q 2594 391 2855 752 
Q 3116 1113 3116 1747 
z
" id="DejaVuSans-70" transform="scale(0.015625)"/>
     <path d="M 750 794 
L 1409 794 
L 1409 0 
L 750 0 
L 750 794 
z
M 750 3309 
L 1409 3309 
L 1409 2516 
L 750 2516 
L 750 3309 
z
" id="DejaVuSans-3a" transform="scale(0.015625)"/>
     <path d="M 1625 4666 
L 2156 4666 
L 531 -594 
L 0 -594 
L 1625 4666 
z
" id="DejaVuSans-2f" transform="scale(0.015625)"/>
     <path d="M 544 1381 
L 544 3500 
L 1119 3500 
L 1119 1403 
Q 1119 906 1312 657 
Q 1506 409 1894 409 
Q 2359 409 2629 706 
Q 2900 1003 2900 1516 
L 2900 3500 
L 3475 3500 
L 3475 0 
L 2900 0 
L 2900 538 
Q 2691 219 2414 64 
Q 2138 -91 1772 -91 
Q 1169 -91 856 284 
Q 544 659 544 1381 
z
M 1991 3584 
L 1991 3584 
z
" id="DejaVuSans-75" transform="scale(0.015625)"/>
     <path d="M 3116 1747 
Q 3116 2381 2855 2742 
Q 2594 3103 2138 3103 
Q 1681 3103 1420 2742 
Q 1159 2381 1159 1747 
Q 1159 1113 1420 752 
Q 1681 391 2138 391 
Q 2594 391 2855 752 
Q 3116 1113 3116 1747 
z
M 1159 2969 
Q 1341 3281 1617 3432 
Q 1894 3584 2278 3584 
Q 2916 3584 3314 3078 
Q 3713 2572 3713 1747 
Q 3713 922 3314 415 
Q 2916 -91 2278 -91 
Q 1894 -91 1617 61 
Q 1341 213 1159 525 
L 1159 0 
L 581 0 
L 581 4863 
L 1159 4863 
L 1159 2969 
z
" id="DejaVuSans-62" transform="scale(0.015625)"/>
     <path d="M 684 794 
L 1344 794 
L 1344 0 
L 684 0 
L 684 794 
z
" id="DejaVuSans-2e" transform="scale(0.015625)"/>
     <path d="M 3122 3366 
L 3122 2828 
Q 2878 2963 2633 3030 
Q 2388 3097 2138 3097 
Q 1578 3097 1268 2742 
Q 959 2388 959 1747 
Q 959 1106 1268 751 
Q 1578 397 2138 397 
Q 2388 397 2633 464 
Q 2878 531 3122 666 
L 3122 134 
Q 2881 22 2623 -34 
Q 2366 -91 2075 -91 
Q 1284 -91 818 406 
Q 353 903 353 1747 
Q 353 2603 823 3093 
Q 1294 3584 2113 3584 
Q 2378 3584 2631 3529 
Q 2884 3475 3122 3366 
z
" id="DejaVuSans-63" transform="scale(0.015625)"/>
     <path d="M 1984 4856 
Q 1566 4138 1362 3434 
Q 1159 2731 1159 2009 
Q 1159 1288 1364 580 
Q 1569 -128 1984 -844 
L 1484 -844 
Q 1016 -109 783 600 
Q 550 1309 550 2009 
Q 550 2706 781 3412 
Q 1013 4119 1484 4856 
L 1984 4856 
z
" id="DejaVuSans-28" transform="scale(0.015625)"/>
     <path d="M 313 2009 
L 1997 2009 
L 1997 1497 
L 313 1497 
L 313 2009 
z
" id="DejaVuSans-2d" transform="scale(0.015625)"/>
     <path d="M 513 4856 
L 1013 4856 
Q 1481 4119 1714 3412 
Q 1947 2706 1947 2009 
Q 1947 1309 1714 600 
Q 1481 -109 1013 -844 
L 513 -844 
Q 928 -128 1133 580 
Q 1338 1288 1338 2009 
Q 1338 2731 1133 3434 
Q 928 4138 513 4856 
z
" id="DejaVuSans-29" transform="scale(0.015625)"/>
    </defs>
    <use xlink:href="#DejaVuSans-68"/>
    <use x="63.378906" xlink:href="#DejaVuSans-74"/>
    <use x="102.587891" xlink:href="#DejaVuSans-74"/>
    <use x="141.796875" xlink:href="#DejaVuSans-70"/>
    <use x="205.273438" xlink:href="#DejaVuSans-73"/>
    <use x="257.373047" xlink:href="#DejaVuSans-3a"/>
    <use x="291.064453" xlink:href="#DejaVuSans-2f"/>
    <use x="324.755859" xlink:href="#DejaVuSans-2f"/>
    <use x="358.447266" xlink:href="#DejaVuSans-67"/>
    <use x="421.923828" xlink:href="#DejaVuSans-69"/>
    <use x="449.707031" xlink:href="#DejaVuSans-74"/>
    <use x="488.916016" xlink:href="#DejaVuSans-68"/>
    <use x="552.294922" xlink:href="#DejaVuSans-75"/>
    <use x="615.673828" xlink:href="#DejaVuSans-62"/>
    <use x="679.150391" xlink:href="#DejaVuSans-2e"/>
    <use x="710.9375" xlink:href="#DejaVuSans-63"/>
    <use x="765.917969" xlink:href="#DejaVuSans-6f"/>
    <use x="827.099609" xlink:href="#DejaVuSans-6d"/>
    <use x="924.511719" xlink:href="#DejaVuSans-2f"/>
    <use x="958.203125" xlink:href="#DejaVuSans-62"/>
    <use x="1021.679688" xlink:href="#DejaVuSans-69"/>
    <use x="1049.462891" xlink:href="#DejaVuSans-6f"/>
    <use x="1110.644531" xlink:href="#DejaVuSans-72"/>
    <use x="1149.507812" xlink:href="#DejaVuSans-65"/>
    <use x="1211.03125" xlink:href="#DejaVuSans-67"/>
    <use x="1274.507812" xlink:href="#DejaVuSans-69"/>
    <use x="1302.291016" xlink:href="#DejaVuSans-73"/>
    <use x="1354.390625" xlink:href="#DejaVuSans-74"/>
    <use x="1393.599609" xlink:href="#DejaVuSans-72"/>
    <use x="1434.712891" xlink:href="#DejaVuSans-79"/>
    <use x="1493.892578" xlink:href="#DejaVuSans-2f"/>
    <use x="1527.583984" xlink:href="#DejaVuSans-62"/>
    <use x="1591.060547" xlink:href="#DejaVuSans-69"/>
    <use x="1618.84375" xlink:href="#DejaVuSans-6f"/>
    <use x="1680.025391" xlink:href="#DejaVuSans-72"/>
    <use x="1718.888672" xlink:href="#DejaVuSans-65"/>
    <use x="1780.412109" xlink:href="#DejaVuSans-67"/>
    <use x="1843.888672" xlink:href="#DejaVuSans-69"/>
    <use x="1871.671875" xlink:href="#DejaVuSans-73"/>
    <use x="1923.771484" xlink:href="#DejaVuSans-74"/>
    <use x="1962.980469" xlink:href="#DejaVuSans-72"/>
    <use x="2004.09375" xlink:href="#DejaVuSans-79"/>
    <use x="2063.273438" xlink:href="#DejaVuSans-20"/>
    <use x="2095.060547" xlink:href="#DejaVuSans-28"/>
    <use x="2134.074219" xlink:href="#DejaVuSans-32"/>
    <use x="2197.697266" xlink:href="#DejaVuSans-30"/>
    <use x="2261.320312" xlink:href="#DejaVuSans-32"/>
    <use x="2324.943359" xlink:href="#DejaVuSans-31"/>
    <use x="2388.566406" xlink:href="#DejaVuSans-2d"/>
    <use x="2424.650391" xlink:href="#DejaVuSans-30"/>
    <use x="2488.273438" xlink:href="#DejaVuSans-36"/>
    <use x="2551.896484" xlink:href="#DejaVuSans-2d"/>
    <use x="2587.980469" xlink:href="#DejaVuSans-31"/>
    <use x="2651.603516" xlink:href="#DejaVuSans-33"/>
    <use x="2715.226562" xlink:href="#DejaVuSans-29"/>
   </g>
  </g>
 </g>
 <defs>
  <clipPath id="p19df344519">
   <rect height="121.391461" width="122.860986" x="57.668696" y="10.8"/>
  </clipPath>
  <clipPath id="p62d69f86fd">
   <rect height="121.391461" width="121.400599" x="292.588333" y="10.8"/>
  </clipPath>
  <clipPath id="pe5af4ed49e">
   <rect height="121.391461" width="121.814151" x="526.571002" y="10.8"/>
  </clipPath>
  <clipPath id="p1247414920">
   <rect height="121.391461" width="155.207895" x="41.495241" y="152.367528"/>
  </clipPath>
  <clipPath id="pac3b14818e">
   <rect height="121.391461" width="123.537892" x="291.519687" y="152.367528"/>
  </clipPath>
  <clipPath id="pa3d54b3d6a">
   <rect height="121.391461" width="142.70537" x="516.125392" y="152.367528"/>
  </clipPath>
  <clipPath id="p43cc8e0109">
   <rect height="121.391461" width="171.209937" x="33.49422" y="293.935056"/>
  </clipPath>
  <clipPath id="pe1a6cfef5f">
   <rect height="121.391461" width="132.31299" x="287.132138" y="293.935056"/>
  </clipPath>
  <clipPath id="pcb470dee72">
   <rect height="121.391461" width="134.845237" x="520.055459" y="293.935056"/>
  </clipPath>
  <clipPath id="pab95f2bcb6">
   <rect height="121.391461" width="135.951526" x="51.123425" y="435.502585"/>
  </clipPath>
  <clipPath id="p0faa521fdd">
   <rect height="121.391461" width="140.386143" x="283.095561" y="435.502585"/>
  </clipPath>
 </defs>
</svg>
