<?xml version="1.0" encoding="utf-8" standalone="no"?>
<!DOCTYPE svg PUBLIC "-//W3C//DTD SVG 1.1//EN"
  "http://www.w3.org/Graphics/SVG/1.1/DTD/svg11.dtd">
<svg height="576pt" version="1.1" viewBox="0 0 702 576" width="702pt" xmlns="http://www.w3.org/2000/svg" xmlns:xlink="http://www.w3.org/1999/xlink">
 <metadata>
  <rdf:RDF xmlns:cc="http://creativecommons.org/ns#" xmlns:dc="http://purl.org/dc/elements/1.1/" xmlns:rdf="http://www.w3.org/1999/02/22-rdf-syntax-ns#">
   <cc:Work>
    <dc:type rdf:resource="http://purl.org/dc/dcmitype/StillImage"/>
    <dc:date>2021-08-22T00:46:13.283594</dc:date>
    <dc:format>image/svg+xml</dc:format>
    <dc:creator>
     <cc:Agent>
      <dc:title>Matplotlib v3.4.3, https://matplotlib.org/</dc:title>
     </cc:Agent>
    </dc:creator>
   </cc:Work>
  </rdf:RDF>
 </metadata>
 <defs>
  <style type="text/css">*{stroke-linecap:butt;stroke-linejoin:round;}</style>
 </defs>
 <g id="figure_1">
  <g id="patch_1">
   <path d="M 0 576 
L 702 576 
L 702 0 
L 0 0 
z
" style="fill:#ffffff;"/>
  </g>
  <g id="axes_1">
   <g id="patch_2">
    <path clip-path="url(#p13cf98421a)" d="M 164.826392 82.185078 
C 163.636904 84.508945 162.067266 86.617706 160.18248 88.424033 
C 158.297693 90.23036 156.124138 91.708971 153.751825 92.798636 
C 151.379512 93.8883 148.841645 94.573765 146.24332 94.826646 
C 143.644996 95.079527 141.022582 94.896283 138.484676 94.284503 
C 135.946771 93.672724 133.528896 92.640971 131.331179 91.231971 
C 129.133463 89.822972 127.186665 88.056447 125.571406 86.00555 
C 123.956146 83.954654 122.695034 81.648092 121.840292 79.181383 
C 120.98555 76.714673 120.549144 74.122342 120.549144 71.511741 
C 120.549144 68.90114 120.98555 66.308809 121.840292 63.842099 
C 122.695034 61.37539 123.956146 59.068828 125.571406 57.017932 
C 127.186665 54.967035 129.133463 53.20051 131.331179 51.791511 
C 133.528896 50.382511 135.946771 49.350758 138.484676 48.738979 
C 141.022582 48.127199 143.644996 47.943955 146.24332 48.196836 
C 148.841645 48.449717 151.379512 49.135182 153.751825 50.224846 
C 156.124138 51.314511 158.297693 52.793122 160.18248 54.599449 
C 162.067266 56.405776 163.636904 58.514537 164.826392 60.838404 
C 163.518343 54.656292 161.084913 48.766977 157.647658 43.46464 
C 154.210402 38.162303 149.827522 33.536725 144.717948 29.818963 
C 139.608375 26.1012 133.858626 23.354203 127.75591 21.715188 
C 121.653195 20.076174 115.300848 19.572894 109.016178 20.230489 
C 102.731509 20.888084 96.620932 22.695419 90.989682 25.562215 
C 85.358431 28.429011 80.301857 32.306725 76.072544 37.001661 
C 71.843232 41.696596 68.512793 47.129255 66.247588 53.028267 
C 63.982384 58.92728 62.820769 65.192761 62.820769 71.511741 
C 62.820769 77.830721 63.982384 84.096202 66.247588 89.995215 
C 68.512793 95.894227 71.843232 101.326886 76.072544 106.021822 
C 80.301857 110.716757 85.358431 114.594471 90.989682 117.461267 
C 96.620932 120.328063 102.731509 122.135398 109.016178 122.792993 
C 115.300848 123.450588 121.653195 122.947308 127.75591 121.308294 
C 133.858626 119.669279 139.608375 116.922282 144.717948 113.204519 
C 149.827522 109.486757 154.210402 104.861179 157.647658 99.558842 
C 161.084913 94.256505 163.518343 88.36719 164.826392 82.185078 
" style="fill:#c0c0c0;opacity:0.4;"/>
   </g>
   <g id="patch_3">
    <path clip-path="url(#p13cf98421a)" d="M 164.826392 60.838404 
C 165.568898 64.347645 165.943194 67.924808 165.943194 71.511741 
C 165.943194 75.098674 165.568898 78.675837 164.826392 82.185078 
C 166.517344 78.881516 167.399274 75.222919 167.399274 71.511741 
C 167.399274 67.800563 166.517344 64.141966 164.826392 60.838404 
" style="fill:#a6cee3;opacity:0.4;"/>
   </g>
   <g id="patch_4">
    <path clip-path="url(#p13cf98421a)" d="M 164.826392 82.185078 
C 165.568898 78.675837 165.943194 75.098674 165.943194 71.511741 
C 165.943194 67.924808 165.568898 64.347645 164.826392 60.838404 
C 163.636904 58.514537 162.067266 56.405776 160.18248 54.599449 
C 158.297693 52.793122 156.124138 51.314511 153.751825 50.224846 
C 151.379512 49.135182 148.841645 48.449717 146.24332 48.196836 
C 143.644996 47.943955 141.022582 48.127199 138.484676 48.738979 
C 135.946771 49.350758 133.528896 50.382511 131.331179 51.791511 
C 129.133463 53.20051 127.186665 54.967035 125.571406 57.017932 
C 123.956146 59.068828 122.695034 61.37539 121.840292 63.842099 
C 120.98555 66.308809 120.549144 68.90114 120.549144 71.511741 
C 120.549144 74.122342 120.98555 76.714673 121.840292 79.181383 
C 122.695034 81.648092 123.956146 83.954654 125.571406 86.00555 
C 127.186665 88.056447 129.133463 89.822972 131.331179 91.231971 
C 133.528896 92.640971 135.946771 93.672724 138.484676 94.284503 
C 141.022582 94.896283 143.644996 95.079527 146.24332 94.826646 
C 148.841645 94.573765 151.379512 93.8883 153.751825 92.798636 
C 156.124138 91.708971 158.297693 90.23036 160.18248 88.424033 
C 162.067266 86.617706 163.636904 84.508945 164.826392 82.185078 
" style="fill:#fbffff;opacity:0.4;"/>
   </g>
   <g id="text_1">
    <!-- 945 -->
    <g style="fill:#262626;" transform="translate(82.141206 74.271116)scale(0.1 -0.1)">
     <defs>
      <path d="M 703 97 
L 703 672 
Q 941 559 1184 500 
Q 1428 441 1663 441 
Q 2288 441 2617 861 
Q 2947 1281 2994 2138 
Q 2813 1869 2534 1725 
Q 2256 1581 1919 1581 
Q 1219 1581 811 2004 
Q 403 2428 403 3163 
Q 403 3881 828 4315 
Q 1253 4750 1959 4750 
Q 2769 4750 3195 4129 
Q 3622 3509 3622 2328 
Q 3622 1225 3098 567 
Q 2575 -91 1691 -91 
Q 1453 -91 1209 -44 
Q 966 3 703 97 
z
M 1959 2075 
Q 2384 2075 2632 2365 
Q 2881 2656 2881 3163 
Q 2881 3666 2632 3958 
Q 2384 4250 1959 4250 
Q 1534 4250 1286 3958 
Q 1038 3666 1038 3163 
Q 1038 2656 1286 2365 
Q 1534 2075 1959 2075 
z
" id="DejaVuSans-39" transform="scale(0.015625)"/>
      <path d="M 2419 4116 
L 825 1625 
L 2419 1625 
L 2419 4116 
z
M 2253 4666 
L 3047 4666 
L 3047 1625 
L 3713 1625 
L 3713 1100 
L 3047 1100 
L 3047 0 
L 2419 0 
L 2419 1100 
L 313 1100 
L 313 1709 
L 2253 4666 
z
" id="DejaVuSans-34" transform="scale(0.015625)"/>
      <path d="M 691 4666 
L 3169 4666 
L 3169 4134 
L 1269 4134 
L 1269 2991 
Q 1406 3038 1543 3061 
Q 1681 3084 1819 3084 
Q 2600 3084 3056 2656 
Q 3513 2228 3513 1497 
Q 3513 744 3044 326 
Q 2575 -91 1722 -91 
Q 1428 -91 1123 -41 
Q 819 9 494 109 
L 494 744 
Q 775 591 1075 516 
Q 1375 441 1709 441 
Q 2250 441 2565 725 
Q 2881 1009 2881 1497 
Q 2881 1984 2565 2268 
Q 2250 2553 1709 2553 
Q 1456 2553 1204 2497 
Q 953 2441 691 2322 
L 691 4666 
z
" id="DejaVuSans-35" transform="scale(0.015625)"/>
     </defs>
     <use xlink:href="#DejaVuSans-39"/>
     <use x="63.623047" xlink:href="#DejaVuSans-34"/>
     <use x="127.246094" xlink:href="#DejaVuSans-35"/>
    </g>
   </g>
   <g id="text_2">
    <!-- 3 -->
    <g style="fill:#262626;" transform="translate(163.489984 74.271116)scale(0.1 -0.1)">
     <defs>
      <path d="M 2597 2516 
Q 3050 2419 3304 2112 
Q 3559 1806 3559 1356 
Q 3559 666 3084 287 
Q 2609 -91 1734 -91 
Q 1441 -91 1130 -33 
Q 819 25 488 141 
L 488 750 
Q 750 597 1062 519 
Q 1375 441 1716 441 
Q 2309 441 2620 675 
Q 2931 909 2931 1356 
Q 2931 1769 2642 2001 
Q 2353 2234 1838 2234 
L 1294 2234 
L 1294 2753 
L 1863 2753 
Q 2328 2753 2575 2939 
Q 2822 3125 2822 3475 
Q 2822 3834 2567 4026 
Q 2313 4219 1838 4219 
Q 1578 4219 1281 4162 
Q 984 4106 628 3988 
L 628 4550 
Q 988 4650 1302 4700 
Q 1616 4750 1894 4750 
Q 2613 4750 3031 4423 
Q 3450 4097 3450 3541 
Q 3450 3153 3228 2886 
Q 3006 2619 2597 2516 
z
" id="DejaVuSans-33" transform="scale(0.015625)"/>
     </defs>
     <use xlink:href="#DejaVuSans-33"/>
    </g>
   </g>
   <g id="text_3">
    <!-- 242 -->
    <g style="fill:#262626;" transform="translate(133.702419 74.271116)scale(0.1 -0.1)">
     <defs>
      <path d="M 1228 531 
L 3431 531 
L 3431 0 
L 469 0 
L 469 531 
Q 828 903 1448 1529 
Q 2069 2156 2228 2338 
Q 2531 2678 2651 2914 
Q 2772 3150 2772 3378 
Q 2772 3750 2511 3984 
Q 2250 4219 1831 4219 
Q 1534 4219 1204 4116 
Q 875 4013 500 3803 
L 500 4441 
Q 881 4594 1212 4672 
Q 1544 4750 1819 4750 
Q 2544 4750 2975 4387 
Q 3406 4025 3406 3419 
Q 3406 3131 3298 2873 
Q 3191 2616 2906 2266 
Q 2828 2175 2409 1742 
Q 1991 1309 1228 531 
z
" id="DejaVuSans-32" transform="scale(0.015625)"/>
     </defs>
     <use xlink:href="#DejaVuSans-32"/>
     <use x="63.623047" xlink:href="#DejaVuSans-34"/>
     <use x="127.246094" xlink:href="#DejaVuSans-32"/>
    </g>
   </g>
   <g id="text_4">
    <!-- Bioregistry -->
    <g style="fill:#262626;" transform="translate(49.482607 135.940392)scale(0.12 -0.12)">
     <defs>
      <path d="M 1259 2228 
L 1259 519 
L 2272 519 
Q 2781 519 3026 730 
Q 3272 941 3272 1375 
Q 3272 1813 3026 2020 
Q 2781 2228 2272 2228 
L 1259 2228 
z
M 1259 4147 
L 1259 2741 
L 2194 2741 
Q 2656 2741 2882 2914 
Q 3109 3088 3109 3444 
Q 3109 3797 2882 3972 
Q 2656 4147 2194 4147 
L 1259 4147 
z
M 628 4666 
L 2241 4666 
Q 2963 4666 3353 4366 
Q 3744 4066 3744 3513 
Q 3744 3084 3544 2831 
Q 3344 2578 2956 2516 
Q 3422 2416 3680 2098 
Q 3938 1781 3938 1306 
Q 3938 681 3513 340 
Q 3088 0 2303 0 
L 628 0 
L 628 4666 
z
" id="DejaVuSans-42" transform="scale(0.015625)"/>
      <path d="M 603 3500 
L 1178 3500 
L 1178 0 
L 603 0 
L 603 3500 
z
M 603 4863 
L 1178 4863 
L 1178 4134 
L 603 4134 
L 603 4863 
z
" id="DejaVuSans-69" transform="scale(0.015625)"/>
      <path d="M 1959 3097 
Q 1497 3097 1228 2736 
Q 959 2375 959 1747 
Q 959 1119 1226 758 
Q 1494 397 1959 397 
Q 2419 397 2687 759 
Q 2956 1122 2956 1747 
Q 2956 2369 2687 2733 
Q 2419 3097 1959 3097 
z
M 1959 3584 
Q 2709 3584 3137 3096 
Q 3566 2609 3566 1747 
Q 3566 888 3137 398 
Q 2709 -91 1959 -91 
Q 1206 -91 779 398 
Q 353 888 353 1747 
Q 353 2609 779 3096 
Q 1206 3584 1959 3584 
z
" id="DejaVuSans-6f" transform="scale(0.015625)"/>
      <path d="M 2631 2963 
Q 2534 3019 2420 3045 
Q 2306 3072 2169 3072 
Q 1681 3072 1420 2755 
Q 1159 2438 1159 1844 
L 1159 0 
L 581 0 
L 581 3500 
L 1159 3500 
L 1159 2956 
Q 1341 3275 1631 3429 
Q 1922 3584 2338 3584 
Q 2397 3584 2469 3576 
Q 2541 3569 2628 3553 
L 2631 2963 
z
" id="DejaVuSans-72" transform="scale(0.015625)"/>
      <path d="M 3597 1894 
L 3597 1613 
L 953 1613 
Q 991 1019 1311 708 
Q 1631 397 2203 397 
Q 2534 397 2845 478 
Q 3156 559 3463 722 
L 3463 178 
Q 3153 47 2828 -22 
Q 2503 -91 2169 -91 
Q 1331 -91 842 396 
Q 353 884 353 1716 
Q 353 2575 817 3079 
Q 1281 3584 2069 3584 
Q 2775 3584 3186 3129 
Q 3597 2675 3597 1894 
z
M 3022 2063 
Q 3016 2534 2758 2815 
Q 2500 3097 2075 3097 
Q 1594 3097 1305 2825 
Q 1016 2553 972 2059 
L 3022 2063 
z
" id="DejaVuSans-65" transform="scale(0.015625)"/>
      <path d="M 2906 1791 
Q 2906 2416 2648 2759 
Q 2391 3103 1925 3103 
Q 1463 3103 1205 2759 
Q 947 2416 947 1791 
Q 947 1169 1205 825 
Q 1463 481 1925 481 
Q 2391 481 2648 825 
Q 2906 1169 2906 1791 
z
M 3481 434 
Q 3481 -459 3084 -895 
Q 2688 -1331 1869 -1331 
Q 1566 -1331 1297 -1286 
Q 1028 -1241 775 -1147 
L 775 -588 
Q 1028 -725 1275 -790 
Q 1522 -856 1778 -856 
Q 2344 -856 2625 -561 
Q 2906 -266 2906 331 
L 2906 616 
Q 2728 306 2450 153 
Q 2172 0 1784 0 
Q 1141 0 747 490 
Q 353 981 353 1791 
Q 353 2603 747 3093 
Q 1141 3584 1784 3584 
Q 2172 3584 2450 3431 
Q 2728 3278 2906 2969 
L 2906 3500 
L 3481 3500 
L 3481 434 
z
" id="DejaVuSans-67" transform="scale(0.015625)"/>
      <path d="M 2834 3397 
L 2834 2853 
Q 2591 2978 2328 3040 
Q 2066 3103 1784 3103 
Q 1356 3103 1142 2972 
Q 928 2841 928 2578 
Q 928 2378 1081 2264 
Q 1234 2150 1697 2047 
L 1894 2003 
Q 2506 1872 2764 1633 
Q 3022 1394 3022 966 
Q 3022 478 2636 193 
Q 2250 -91 1575 -91 
Q 1294 -91 989 -36 
Q 684 19 347 128 
L 347 722 
Q 666 556 975 473 
Q 1284 391 1588 391 
Q 1994 391 2212 530 
Q 2431 669 2431 922 
Q 2431 1156 2273 1281 
Q 2116 1406 1581 1522 
L 1381 1569 
Q 847 1681 609 1914 
Q 372 2147 372 2553 
Q 372 3047 722 3315 
Q 1072 3584 1716 3584 
Q 2034 3584 2315 3537 
Q 2597 3491 2834 3397 
z
" id="DejaVuSans-73" transform="scale(0.015625)"/>
      <path d="M 1172 4494 
L 1172 3500 
L 2356 3500 
L 2356 3053 
L 1172 3053 
L 1172 1153 
Q 1172 725 1289 603 
Q 1406 481 1766 481 
L 2356 481 
L 2356 0 
L 1766 0 
Q 1100 0 847 248 
Q 594 497 594 1153 
L 594 3053 
L 172 3053 
L 172 3500 
L 594 3500 
L 594 4494 
L 1172 4494 
z
" id="DejaVuSans-74" transform="scale(0.015625)"/>
      <path d="M 2059 -325 
Q 1816 -950 1584 -1140 
Q 1353 -1331 966 -1331 
L 506 -1331 
L 506 -850 
L 844 -850 
Q 1081 -850 1212 -737 
Q 1344 -625 1503 -206 
L 1606 56 
L 191 3500 
L 800 3500 
L 1894 763 
L 2988 3500 
L 3597 3500 
L 2059 -325 
z
" id="DejaVuSans-79" transform="scale(0.015625)"/>
     </defs>
     <use xlink:href="#DejaVuSans-42"/>
     <use x="68.603516" xlink:href="#DejaVuSans-69"/>
     <use x="96.386719" xlink:href="#DejaVuSans-6f"/>
     <use x="157.568359" xlink:href="#DejaVuSans-72"/>
     <use x="196.431641" xlink:href="#DejaVuSans-65"/>
     <use x="257.955078" xlink:href="#DejaVuSans-67"/>
     <use x="321.431641" xlink:href="#DejaVuSans-69"/>
     <use x="349.214844" xlink:href="#DejaVuSans-73"/>
     <use x="401.314453" xlink:href="#DejaVuSans-74"/>
     <use x="440.523438" xlink:href="#DejaVuSans-72"/>
     <use x="481.636719" xlink:href="#DejaVuSans-79"/>
    </g>
   </g>
   <g id="text_5">
    <!-- OBO -->
    <g style="fill:#262626;" transform="translate(143.974209 107.804245)scale(0.12 -0.12)">
     <defs>
      <path d="M 2522 4238 
Q 1834 4238 1429 3725 
Q 1025 3213 1025 2328 
Q 1025 1447 1429 934 
Q 1834 422 2522 422 
Q 3209 422 3611 934 
Q 4013 1447 4013 2328 
Q 4013 3213 3611 3725 
Q 3209 4238 2522 4238 
z
M 2522 4750 
Q 3503 4750 4090 4092 
Q 4678 3434 4678 2328 
Q 4678 1225 4090 567 
Q 3503 -91 2522 -91 
Q 1538 -91 948 565 
Q 359 1222 359 2328 
Q 359 3434 948 4092 
Q 1538 4750 2522 4750 
z
" id="DejaVuSans-4f" transform="scale(0.015625)"/>
     </defs>
     <use xlink:href="#DejaVuSans-4f"/>
     <use x="78.710938" xlink:href="#DejaVuSans-42"/>
     <use x="145.564453" xlink:href="#DejaVuSans-4f"/>
    </g>
   </g>
  </g>
  <g id="axes_2">
   <g id="patch_5">
    <path clip-path="url(#p9cdfaf530f)" d="M 391.21682 81.148486 
C 390.116061 83.703245 388.585669 86.050617 386.692181 88.088547 
C 384.798692 90.126477 382.569951 91.824997 380.102856 93.110261 
C 377.635761 94.395524 374.966592 95.248631 372.211395 95.632491 
C 369.456198 96.016351 366.655489 95.925319 363.931034 95.363353 
C 361.206579 94.801388 358.598442 93.776752 356.220017 92.333993 
C 353.841591 90.891235 351.727852 89.051571 349.970699 86.894983 
C 348.213545 84.738396 346.838816 82.296598 345.90628 79.675751 
C 344.973745 77.054905 344.497116 74.29355 344.497116 71.511741 
C 344.497116 68.729932 344.973745 65.968577 345.90628 63.347731 
C 346.838816 60.726884 348.213545 58.285086 349.970699 56.128499 
C 351.727852 53.971911 353.841591 52.132247 356.220017 50.689489 
C 358.598442 49.24673 361.206579 48.222094 363.931034 47.660129 
C 366.655489 47.098163 369.456198 47.007131 372.211395 47.390991 
C 374.966592 47.774851 377.635761 48.627958 380.102856 49.913221 
C 382.569951 51.198485 384.798692 52.897005 386.692181 54.934935 
C 388.585669 56.972865 390.116061 59.320237 391.21682 61.874996 
C 390.027501 55.623282 387.691059 49.645416 384.325827 44.244156 
C 380.960596 38.842895 376.624363 34.11099 371.536743 30.288095 
C 366.449123 26.465201 360.697481 23.616963 354.573118 21.887635 
C 348.448755 20.158308 342.056838 19.577587 335.721095 20.174883 
C 329.385352 20.77218 323.214581 22.537237 317.52131 25.380662 
C 311.828039 28.224087 306.710032 32.097051 302.4265 36.803403 
C 298.142967 41.509755 294.767465 46.968677 292.470952 52.903694 
C 290.174438 58.83871 288.996348 65.147906 288.996348 71.511741 
C 288.996348 77.875576 290.174438 84.184772 292.470952 90.119788 
C 294.767465 96.054805 298.142967 101.513727 302.4265 106.220079 
C 306.710032 110.926431 311.828039 114.799395 317.52131 117.64282 
C 323.214581 120.486245 329.385352 122.251302 335.721095 122.848599 
C 342.056838 123.445895 348.448755 122.865174 354.573118 121.135847 
C 360.697481 119.406519 366.449123 116.558281 371.536743 112.735387 
C 376.624363 108.912492 380.960596 104.180587 384.325827 98.779326 
C 387.691059 93.378066 390.027501 87.4002 391.21682 81.148486 
" style="fill:#c0c0c0;opacity:0.4;"/>
   </g>
   <g id="patch_6">
    <path clip-path="url(#p9cdfaf530f)" d="M 391.21682 61.874996 
C 391.821144 65.051648 392.125316 68.278116 392.125316 71.511741 
C 392.125316 74.745366 391.821144 77.971834 391.21682 81.148486 
C 392.528145 78.105025 393.204565 74.825686 393.204565 71.511741 
C 393.204565 68.197796 392.528145 64.918457 391.21682 61.874996 
" style="fill:#1f78b4;opacity:0.4;"/>
   </g>
   <g id="patch_7">
    <path clip-path="url(#p9cdfaf530f)" d="M 391.21682 81.148486 
C 391.821144 77.971834 392.125316 74.745366 392.125316 71.511741 
C 392.125316 68.278116 391.821144 65.051648 391.21682 61.874996 
C 390.116061 59.320237 388.585669 56.972865 386.692181 54.934935 
C 384.798692 52.897005 382.569951 51.198485 380.102856 49.913221 
C 377.635761 48.627958 374.966592 47.774851 372.211395 47.390991 
C 369.456198 47.007131 366.655489 47.098163 363.931034 47.660129 
C 361.206579 48.222094 358.598442 49.24673 356.220017 50.689489 
C 353.841591 52.132247 351.727852 53.971911 349.970699 56.128499 
C 348.213545 58.285086 346.838816 60.726884 345.90628 63.347731 
C 344.973745 65.968577 344.497116 68.729932 344.497116 71.511741 
C 344.497116 74.29355 344.973745 77.054905 345.90628 79.675751 
C 346.838816 82.296598 348.213545 84.738396 349.970699 86.894983 
C 351.727852 89.051571 353.841591 90.891235 356.220017 92.333993 
C 358.598442 93.776752 361.206579 94.801388 363.931034 95.363353 
C 366.655489 95.925319 369.456198 96.016351 372.211395 95.632491 
C 374.966592 95.248631 377.635761 94.395524 380.102856 93.110261 
C 382.569951 91.824997 384.798692 90.126477 386.692181 88.088547 
C 388.585669 86.050617 390.116061 83.703245 391.21682 81.148486 
" style="fill:#9cdaff;opacity:0.4;"/>
   </g>
   <g id="text_6">
    <!-- 925 -->
    <g style="fill:#262626;" transform="translate(307.202982 74.271116)scale(0.1 -0.1)">
     <use xlink:href="#DejaVuSans-39"/>
     <use x="63.623047" xlink:href="#DejaVuSans-32"/>
     <use x="127.246094" xlink:href="#DejaVuSans-35"/>
    </g>
   </g>
   <g id="text_7">
    <!-- 2 -->
    <g style="fill:#262626;" transform="translate(389.483691 74.271116)scale(0.1 -0.1)">
     <use xlink:href="#DejaVuSans-32"/>
    </g>
   </g>
   <g id="text_8">
    <!-- 263 -->
    <g style="fill:#262626;" transform="translate(358.767466 74.271116)scale(0.1 -0.1)">
     <defs>
      <path d="M 2113 2584 
Q 1688 2584 1439 2293 
Q 1191 2003 1191 1497 
Q 1191 994 1439 701 
Q 1688 409 2113 409 
Q 2538 409 2786 701 
Q 3034 994 3034 1497 
Q 3034 2003 2786 2293 
Q 2538 2584 2113 2584 
z
M 3366 4563 
L 3366 3988 
Q 3128 4100 2886 4159 
Q 2644 4219 2406 4219 
Q 1781 4219 1451 3797 
Q 1122 3375 1075 2522 
Q 1259 2794 1537 2939 
Q 1816 3084 2150 3084 
Q 2853 3084 3261 2657 
Q 3669 2231 3669 1497 
Q 3669 778 3244 343 
Q 2819 -91 2113 -91 
Q 1303 -91 875 529 
Q 447 1150 447 2328 
Q 447 3434 972 4092 
Q 1497 4750 2381 4750 
Q 2619 4750 2861 4703 
Q 3103 4656 3366 4563 
z
" id="DejaVuSans-36" transform="scale(0.015625)"/>
     </defs>
     <use xlink:href="#DejaVuSans-32"/>
     <use x="63.623047" xlink:href="#DejaVuSans-36"/>
     <use x="127.246094" xlink:href="#DejaVuSans-33"/>
    </g>
   </g>
   <g id="text_9">
    <!-- Bioregistry -->
    <g style="fill:#262626;" transform="translate(275.661457 135.990261)scale(0.12 -0.12)">
     <use xlink:href="#DejaVuSans-42"/>
     <use x="68.603516" xlink:href="#DejaVuSans-69"/>
     <use x="96.386719" xlink:href="#DejaVuSans-6f"/>
     <use x="157.568359" xlink:href="#DejaVuSans-72"/>
     <use x="196.431641" xlink:href="#DejaVuSans-65"/>
     <use x="257.955078" xlink:href="#DejaVuSans-67"/>
     <use x="321.431641" xlink:href="#DejaVuSans-69"/>
     <use x="349.214844" xlink:href="#DejaVuSans-73"/>
     <use x="401.314453" xlink:href="#DejaVuSans-74"/>
     <use x="440.523438" xlink:href="#DejaVuSans-72"/>
     <use x="481.636719" xlink:href="#DejaVuSans-79"/>
    </g>
   </g>
   <g id="text_10">
    <!-- OLS -->
    <g style="fill:#262626;" transform="translate(368.850841 108.779501)scale(0.12 -0.12)">
     <defs>
      <path d="M 628 4666 
L 1259 4666 
L 1259 531 
L 3531 531 
L 3531 0 
L 628 0 
L 628 4666 
z
" id="DejaVuSans-4c" transform="scale(0.015625)"/>
      <path d="M 3425 4513 
L 3425 3897 
Q 3066 4069 2747 4153 
Q 2428 4238 2131 4238 
Q 1616 4238 1336 4038 
Q 1056 3838 1056 3469 
Q 1056 3159 1242 3001 
Q 1428 2844 1947 2747 
L 2328 2669 
Q 3034 2534 3370 2195 
Q 3706 1856 3706 1288 
Q 3706 609 3251 259 
Q 2797 -91 1919 -91 
Q 1588 -91 1214 -16 
Q 841 59 441 206 
L 441 856 
Q 825 641 1194 531 
Q 1563 422 1919 422 
Q 2459 422 2753 634 
Q 3047 847 3047 1241 
Q 3047 1584 2836 1778 
Q 2625 1972 2144 2069 
L 1759 2144 
Q 1053 2284 737 2584 
Q 422 2884 422 3419 
Q 422 4038 858 4394 
Q 1294 4750 2059 4750 
Q 2388 4750 2728 4690 
Q 3069 4631 3425 4513 
z
" id="DejaVuSans-53" transform="scale(0.015625)"/>
     </defs>
     <use xlink:href="#DejaVuSans-4f"/>
     <use x="78.710938" xlink:href="#DejaVuSans-4c"/>
     <use x="134.423828" xlink:href="#DejaVuSans-53"/>
    </g>
   </g>
  </g>
  <g id="axes_3">
   <g id="patch_8">
    <path clip-path="url(#p8a3e9c1917)" d="M 609.267248 99.093823 
C 606.501224 102.127411 603.294542 104.727736 599.754974 106.807402 
C 596.215407 108.887068 592.383057 110.422513 588.386726 111.362132 
C 584.390395 112.301752 580.27536 112.634901 576.179924 112.350381 
C 572.084488 112.065862 568.055051 111.166898 564.227038 109.683703 
C 560.399026 108.200508 556.815808 106.149887 553.597813 103.600757 
C 550.379819 101.051628 547.563507 98.032873 545.243531 94.645948 
C 542.923555 91.259023 541.1262 87.542302 539.911873 83.620701 
C 538.697546 79.699099 538.080005 75.617048 538.080005 71.511741 
C 538.080005 67.406434 538.697546 63.324383 539.911873 59.402781 
C 541.1262 55.48118 542.923555 51.764459 545.243531 48.377534 
C 547.563507 44.990609 550.379819 41.971854 553.597813 39.422725 
C 556.815808 36.873595 560.399026 34.822974 564.227038 33.339779 
C 568.055051 31.856584 572.084488 30.95762 576.179924 30.673101 
C 580.27536 30.388581 584.390395 30.72173 588.386726 31.66135 
C 592.383057 32.600969 596.215407 34.136414 599.754974 36.21608 
C 603.294542 38.295746 606.501224 40.896071 609.267248 43.929659 
C 606.299607 39.247486 602.595667 35.074798 598.298512 31.572785 
C 594.001356 28.070772 589.167039 25.285116 583.98231 23.323427 
C 578.79758 21.361739 573.330071 20.249606 567.790991 20.029991 
C 562.25191 19.810377 556.713514 20.486144 551.389749 22.03119 
C 546.065984 23.576235 541.026296 25.970404 536.465368 29.12121 
C 531.90444 32.272015 527.881767 36.138357 524.552744 40.570879 
C 521.223721 45.0034 518.631774 49.944281 516.877029 55.202657 
C 515.122285 60.461032 514.227632 65.968309 514.227632 71.511741 
C 514.227632 77.055173 515.122285 82.56245 516.877029 87.820825 
C 518.631774 93.079201 521.223721 98.020082 524.552744 102.452604 
C 527.881767 106.885125 531.90444 110.751467 536.465368 113.902273 
C 541.026296 117.053078 546.065984 119.447247 551.389749 120.992292 
C 556.713514 122.537338 562.25191 123.213106 567.790991 122.993491 
C 573.330071 122.773876 578.79758 121.661743 583.98231 119.700055 
C 589.167039 117.738366 594.001356 114.95271 598.298512 111.450697 
C 602.595667 107.948684 606.299607 103.775996 609.267248 99.093823 
" style="fill:#c0c0c0;opacity:0.4;"/>
   </g>
   <g id="patch_9">
    <path clip-path="url(#p8a3e9c1917)" d="M 609.267248 43.929659 
C 614.495368 52.178286 617.272028 61.745827 617.272028 71.511741 
C 617.272028 81.277655 614.495368 90.845196 609.267248 99.093823 
C 616.14076 91.555417 619.954152 81.713345 619.954152 71.511741 
C 619.954152 61.310137 616.14076 51.468065 609.267248 43.929659 
" style="fill:#b2df8a;opacity:0.4;"/>
   </g>
   <g id="patch_10">
    <path clip-path="url(#p8a3e9c1917)" d="M 609.267248 99.093823 
C 614.495368 90.845196 617.272028 81.277655 617.272028 71.511741 
C 617.272028 61.745827 614.495368 52.178286 609.267248 43.929659 
C 606.501224 40.896071 603.294542 38.295746 599.754974 36.21608 
C 596.215407 34.136414 592.383057 32.600969 588.386726 31.66135 
C 584.390395 30.72173 580.27536 30.388581 576.179924 30.673101 
C 572.084488 30.95762 568.055051 31.856584 564.227038 33.339779 
C 560.399026 34.822974 556.815808 36.873595 553.597813 39.422725 
C 550.379819 41.971854 547.563507 44.990609 545.243531 48.377534 
C 542.923555 51.764459 541.1262 55.48118 539.911873 59.402781 
C 538.697546 63.324383 538.080005 67.406434 538.080005 71.511741 
C 538.080005 75.617048 538.697546 79.699099 539.911873 83.620701 
C 541.1262 87.542302 542.923555 91.259023 545.243531 94.645948 
C 547.563507 98.032873 550.379819 101.051628 553.597813 103.600757 
C 556.815808 106.149887 560.399026 108.200508 564.227038 109.683703 
C 568.055051 111.166898 572.084488 112.065862 576.179924 112.350381 
C 580.27536 112.634901 584.390395 112.301752 588.386726 111.362132 
C 592.383057 110.422513 596.215407 108.887068 599.754974 106.807402 
C 603.294542 104.727736 606.501224 102.127411 609.267248 99.093823 
" style="fill:#ffffe7;opacity:0.4;"/>
   </g>
   <g id="text_11">
    <!-- 453 -->
    <g style="fill:#262626;" transform="translate(516.610068 74.271116)scale(0.1 -0.1)">
     <use xlink:href="#DejaVuSans-34"/>
     <use x="63.623047" xlink:href="#DejaVuSans-35"/>
     <use x="127.246094" xlink:href="#DejaVuSans-33"/>
    </g>
   </g>
   <g id="text_12">
    <!-- 15 -->
    <g style="fill:#262626;" transform="translate(612.25059 74.271116)scale(0.1 -0.1)">
     <defs>
      <path d="M 794 531 
L 1825 531 
L 1825 4091 
L 703 3866 
L 703 4441 
L 1819 4666 
L 2450 4666 
L 2450 531 
L 3481 531 
L 3481 0 
L 794 0 
L 794 531 
z
" id="DejaVuSans-31" transform="scale(0.015625)"/>
     </defs>
     <use xlink:href="#DejaVuSans-31"/>
     <use x="63.623047" xlink:href="#DejaVuSans-35"/>
    </g>
   </g>
   <g id="text_13">
    <!-- 735 -->
    <g style="fill:#262626;" transform="translate(568.132266 74.271116)scale(0.1 -0.1)">
     <defs>
      <path d="M 525 4666 
L 3525 4666 
L 3525 4397 
L 1831 0 
L 1172 0 
L 2766 4134 
L 525 4134 
L 525 4666 
z
" id="DejaVuSans-37" transform="scale(0.015625)"/>
     </defs>
     <use xlink:href="#DejaVuSans-37"/>
     <use x="63.623047" xlink:href="#DejaVuSans-33"/>
     <use x="127.246094" xlink:href="#DejaVuSans-35"/>
    </g>
   </g>
   <g id="text_14">
    <!-- Bioregistry -->
    <g style="fill:#262626;" transform="translate(500.850455 136.775028)scale(0.12 -0.12)">
     <use xlink:href="#DejaVuSans-42"/>
     <use x="68.603516" xlink:href="#DejaVuSans-69"/>
     <use x="96.386719" xlink:href="#DejaVuSans-6f"/>
     <use x="157.568359" xlink:href="#DejaVuSans-72"/>
     <use x="196.431641" xlink:href="#DejaVuSans-65"/>
     <use x="257.955078" xlink:href="#DejaVuSans-67"/>
     <use x="321.431641" xlink:href="#DejaVuSans-69"/>
     <use x="349.214844" xlink:href="#DejaVuSans-73"/>
     <use x="401.314453" xlink:href="#DejaVuSans-74"/>
     <use x="440.523438" xlink:href="#DejaVuSans-72"/>
     <use x="481.636719" xlink:href="#DejaVuSans-79"/>
    </g>
   </g>
   <g id="text_15">
    <!-- MIRIAM -->
    <g style="fill:#262626;" transform="translate(579.017078 126.189903)scale(0.12 -0.12)">
     <defs>
      <path d="M 628 4666 
L 1569 4666 
L 2759 1491 
L 3956 4666 
L 4897 4666 
L 4897 0 
L 4281 0 
L 4281 4097 
L 3078 897 
L 2444 897 
L 1241 4097 
L 1241 0 
L 628 0 
L 628 4666 
z
" id="DejaVuSans-4d" transform="scale(0.015625)"/>
      <path d="M 628 4666 
L 1259 4666 
L 1259 0 
L 628 0 
L 628 4666 
z
" id="DejaVuSans-49" transform="scale(0.015625)"/>
      <path d="M 2841 2188 
Q 3044 2119 3236 1894 
Q 3428 1669 3622 1275 
L 4263 0 
L 3584 0 
L 2988 1197 
Q 2756 1666 2539 1819 
Q 2322 1972 1947 1972 
L 1259 1972 
L 1259 0 
L 628 0 
L 628 4666 
L 2053 4666 
Q 2853 4666 3247 4331 
Q 3641 3997 3641 3322 
Q 3641 2881 3436 2590 
Q 3231 2300 2841 2188 
z
M 1259 4147 
L 1259 2491 
L 2053 2491 
Q 2509 2491 2742 2702 
Q 2975 2913 2975 3322 
Q 2975 3731 2742 3939 
Q 2509 4147 2053 4147 
L 1259 4147 
z
" id="DejaVuSans-52" transform="scale(0.015625)"/>
      <path d="M 2188 4044 
L 1331 1722 
L 3047 1722 
L 2188 4044 
z
M 1831 4666 
L 2547 4666 
L 4325 0 
L 3669 0 
L 3244 1197 
L 1141 1197 
L 716 0 
L 50 0 
L 1831 4666 
z
" id="DejaVuSans-41" transform="scale(0.015625)"/>
     </defs>
     <use xlink:href="#DejaVuSans-4d"/>
     <use x="86.279297" xlink:href="#DejaVuSans-49"/>
     <use x="115.771484" xlink:href="#DejaVuSans-52"/>
     <use x="185.253906" xlink:href="#DejaVuSans-49"/>
     <use x="214.746094" xlink:href="#DejaVuSans-41"/>
     <use x="283.154297" xlink:href="#DejaVuSans-4d"/>
    </g>
   </g>
  </g>
  <g id="axes_4">
   <g id="patch_11">
    <path clip-path="url(#p66bc9a3333)" d="M 146.469678 230.099271 
C 143.971364 228.020062 141.960912 225.416349 140.581319 222.473322 
C 139.201726 219.530296 138.486493 216.319426 138.486493 213.06909 
C 138.486493 209.818754 139.201726 206.607885 140.581319 203.664858 
C 141.960912 200.721832 143.971364 198.118118 146.469678 196.038909 
C 144.477017 190.415467 141.512753 185.185151 137.712033 180.586421 
C 133.911313 175.98769 129.332789 172.091513 124.185206 169.075525 
C 119.037624 166.059536 113.400419 163.970279 107.530604 162.903006 
C 101.66079 161.835733 95.648948 161.806915 89.769171 162.817865 
C 83.889395 163.828815 78.232419 165.863933 73.056159 168.830433 
C 67.879898 171.796933 63.264233 175.649037 59.419599 180.211118 
C 55.574966 184.7732 52.560695 189.974858 50.514214 195.578937 
C 48.467732 201.183017 47.420622 207.103037 47.420622 213.06909 
C 47.420622 219.035144 48.467732 224.955163 50.514214 230.559243 
C 52.560695 236.163323 55.574966 241.364981 59.419599 245.927062 
C 63.264233 250.489144 67.879898 254.341247 73.056159 257.307748 
C 78.232419 260.274248 83.889395 262.309366 89.769171 263.320316 
C 95.648948 264.331266 101.66079 264.302448 107.530604 263.235175 
C 113.400419 262.167902 119.037624 260.078644 124.185206 257.062656 
C 129.332789 254.046667 133.911313 250.15049 137.712033 245.55176 
C 141.512753 240.95303 144.477017 235.722713 146.469678 230.099271 
" style="fill:#c0c0c0;opacity:0.4;"/>
   </g>
   <g id="patch_12">
    <path clip-path="url(#p66bc9a3333)" d="M 146.469678 196.038909 
C 148.407512 201.507624 149.397794 207.26719 149.397794 213.06909 
C 149.397794 218.87099 148.407512 224.630557 146.469678 230.099271 
C 149.705284 232.792087 153.642277 234.507835 157.817469 235.044656 
C 161.99266 235.581478 166.235629 234.917461 170.047189 233.130728 
C 173.858749 231.343995 177.08332 228.507476 179.341532 224.954888 
C 181.599744 221.4023 182.799421 217.278651 182.799421 213.06909 
C 182.799421 208.859529 181.599744 204.735881 179.341532 201.183293 
C 177.08332 197.630705 173.858749 194.794185 170.047189 193.007452 
C 166.235629 191.220719 161.99266 190.556703 157.817469 191.093524 
C 153.642277 191.630345 149.705284 193.346093 146.469678 196.038909 
" style="fill:#33a02c;opacity:0.4;"/>
   </g>
   <g id="patch_13">
    <path clip-path="url(#p66bc9a3333)" d="M 146.469678 230.099271 
C 148.407512 224.630557 149.397794 218.87099 149.397794 213.06909 
C 149.397794 207.26719 148.407512 201.507624 146.469678 196.038909 
C 143.971364 198.118118 141.960912 200.721832 140.581319 203.664858 
C 139.201726 206.607885 138.486493 209.818754 138.486493 213.06909 
C 138.486493 216.319426 139.201726 219.530296 140.581319 222.473322 
C 141.960912 225.416349 143.971364 228.020062 146.469678 230.099271 
" style="fill:#aaf6a5;opacity:0.4;"/>
   </g>
   <g id="text_16">
    <!-- 1144 -->
    <g style="fill:#262626;" transform="translate(80.228557 215.828465)scale(0.1 -0.1)">
     <use xlink:href="#DejaVuSans-31"/>
     <use x="63.623047" xlink:href="#DejaVuSans-31"/>
     <use x="127.246094" xlink:href="#DejaVuSans-34"/>
     <use x="190.869141" xlink:href="#DejaVuSans-34"/>
    </g>
   </g>
   <g id="text_17">
    <!-- 186 -->
    <g style="fill:#262626;" transform="translate(156.554857 215.828465)scale(0.1 -0.1)">
     <defs>
      <path d="M 2034 2216 
Q 1584 2216 1326 1975 
Q 1069 1734 1069 1313 
Q 1069 891 1326 650 
Q 1584 409 2034 409 
Q 2484 409 2743 651 
Q 3003 894 3003 1313 
Q 3003 1734 2745 1975 
Q 2488 2216 2034 2216 
z
M 1403 2484 
Q 997 2584 770 2862 
Q 544 3141 544 3541 
Q 544 4100 942 4425 
Q 1341 4750 2034 4750 
Q 2731 4750 3128 4425 
Q 3525 4100 3525 3541 
Q 3525 3141 3298 2862 
Q 3072 2584 2669 2484 
Q 3125 2378 3379 2068 
Q 3634 1759 3634 1313 
Q 3634 634 3220 271 
Q 2806 -91 2034 -91 
Q 1263 -91 848 271 
Q 434 634 434 1313 
Q 434 1759 690 2068 
Q 947 2378 1403 2484 
z
M 1172 3481 
Q 1172 3119 1398 2916 
Q 1625 2713 2034 2713 
Q 2441 2713 2670 2916 
Q 2900 3119 2900 3481 
Q 2900 3844 2670 4047 
Q 2441 4250 2034 4250 
Q 1625 4250 1398 4047 
Q 1172 3844 1172 3481 
z
" id="DejaVuSans-38" transform="scale(0.015625)"/>
     </defs>
     <use xlink:href="#DejaVuSans-31"/>
     <use x="63.623047" xlink:href="#DejaVuSans-38"/>
     <use x="127.246094" xlink:href="#DejaVuSans-36"/>
    </g>
   </g>
   <g id="text_18">
    <!-- 37 -->
    <g style="fill:#262626;" transform="translate(137.579643 215.828465)scale(0.1 -0.1)">
     <use xlink:href="#DejaVuSans-33"/>
     <use x="63.623047" xlink:href="#DejaVuSans-37"/>
    </g>
   </g>
   <g id="text_19">
    <!-- Bioregistry -->
    <g style="fill:#262626;" transform="translate(33.509833 276.833054)scale(0.12 -0.12)">
     <use xlink:href="#DejaVuSans-42"/>
     <use x="68.603516" xlink:href="#DejaVuSans-69"/>
     <use x="96.386719" xlink:href="#DejaVuSans-6f"/>
     <use x="157.568359" xlink:href="#DejaVuSans-72"/>
     <use x="196.431641" xlink:href="#DejaVuSans-65"/>
     <use x="257.955078" xlink:href="#DejaVuSans-67"/>
     <use x="321.431641" xlink:href="#DejaVuSans-69"/>
     <use x="349.214844" xlink:href="#DejaVuSans-73"/>
     <use x="401.314453" xlink:href="#DejaVuSans-74"/>
     <use x="440.523438" xlink:href="#DejaVuSans-72"/>
     <use x="481.636719" xlink:href="#DejaVuSans-79"/>
    </g>
   </g>
   <g id="text_20">
    <!-- Wikidata -->
    <g style="fill:#262626;" transform="translate(160.642957 248.000932)scale(0.12 -0.12)">
     <defs>
      <path d="M 213 4666 
L 850 4666 
L 1831 722 
L 2809 4666 
L 3519 4666 
L 4500 722 
L 5478 4666 
L 6119 4666 
L 4947 0 
L 4153 0 
L 3169 4050 
L 2175 0 
L 1381 0 
L 213 4666 
z
" id="DejaVuSans-57" transform="scale(0.015625)"/>
      <path d="M 581 4863 
L 1159 4863 
L 1159 1991 
L 2875 3500 
L 3609 3500 
L 1753 1863 
L 3688 0 
L 2938 0 
L 1159 1709 
L 1159 0 
L 581 0 
L 581 4863 
z
" id="DejaVuSans-6b" transform="scale(0.015625)"/>
      <path d="M 2906 2969 
L 2906 4863 
L 3481 4863 
L 3481 0 
L 2906 0 
L 2906 525 
Q 2725 213 2448 61 
Q 2172 -91 1784 -91 
Q 1150 -91 751 415 
Q 353 922 353 1747 
Q 353 2572 751 3078 
Q 1150 3584 1784 3584 
Q 2172 3584 2448 3432 
Q 2725 3281 2906 2969 
z
M 947 1747 
Q 947 1113 1208 752 
Q 1469 391 1925 391 
Q 2381 391 2643 752 
Q 2906 1113 2906 1747 
Q 2906 2381 2643 2742 
Q 2381 3103 1925 3103 
Q 1469 3103 1208 2742 
Q 947 2381 947 1747 
z
" id="DejaVuSans-64" transform="scale(0.015625)"/>
      <path d="M 2194 1759 
Q 1497 1759 1228 1600 
Q 959 1441 959 1056 
Q 959 750 1161 570 
Q 1363 391 1709 391 
Q 2188 391 2477 730 
Q 2766 1069 2766 1631 
L 2766 1759 
L 2194 1759 
z
M 3341 1997 
L 3341 0 
L 2766 0 
L 2766 531 
Q 2569 213 2275 61 
Q 1981 -91 1556 -91 
Q 1019 -91 701 211 
Q 384 513 384 1019 
Q 384 1609 779 1909 
Q 1175 2209 1959 2209 
L 2766 2209 
L 2766 2266 
Q 2766 2663 2505 2880 
Q 2244 3097 1772 3097 
Q 1472 3097 1187 3025 
Q 903 2953 641 2809 
L 641 3341 
Q 956 3463 1253 3523 
Q 1550 3584 1831 3584 
Q 2591 3584 2966 3190 
Q 3341 2797 3341 1997 
z
" id="DejaVuSans-61" transform="scale(0.015625)"/>
     </defs>
     <use xlink:href="#DejaVuSans-57"/>
     <use x="96.626953" xlink:href="#DejaVuSans-69"/>
     <use x="124.410156" xlink:href="#DejaVuSans-6b"/>
     <use x="182.320312" xlink:href="#DejaVuSans-69"/>
     <use x="210.103516" xlink:href="#DejaVuSans-64"/>
     <use x="273.580078" xlink:href="#DejaVuSans-61"/>
     <use x="334.859375" xlink:href="#DejaVuSans-74"/>
     <use x="374.068359" xlink:href="#DejaVuSans-61"/>
    </g>
   </g>
  </g>
  <g id="axes_5">
   <g id="patch_14">
    <path clip-path="url(#p32827c7b98)" d="M 385.947271 236.470313 
C 383.503839 239.747171 380.562186 242.621206 377.229404 244.98779 
C 373.896621 247.354374 370.21365 249.184435 366.314568 250.411349 
C 362.415486 251.638263 358.348191 252.246959 354.260753 252.215278 
C 350.173314 252.183596 346.115943 251.511926 342.236348 250.22472 
C 338.356754 248.937513 334.702592 247.050583 331.406895 244.632622 
C 328.111197 242.214661 325.214448 239.295372 322.822104 235.981033 
C 320.42976 232.666693 318.571208 228.998017 317.31411 225.108562 
C 316.057012 221.219107 315.41681 217.156651 315.41681 213.06909 
C 315.41681 208.981529 316.057012 204.919074 317.31411 201.029619 
C 318.571208 197.140164 320.42976 193.471487 322.822104 190.157148 
C 325.214448 186.842808 328.111197 183.92352 331.406895 181.505559 
C 334.702592 179.087598 338.356754 177.200667 342.236348 175.913461 
C 346.115943 174.626254 350.173314 173.954584 354.260753 173.922903 
C 358.348191 173.891221 362.415486 174.499917 366.314568 175.726832 
C 370.21365 176.953746 373.896621 178.783807 377.229404 181.150391 
C 380.562186 183.516974 383.503839 186.39101 385.947271 189.667867 
C 383.337581 184.546959 379.889558 179.898484 375.746178 175.915195 
C 371.602798 171.931907 366.822133 168.669633 361.602418 166.263648 
C 356.382704 163.857663 350.797097 162.341688 345.077211 161.778584 
C 339.357324 161.215481 333.583327 161.61314 327.994642 162.955074 
C 322.405957 164.297008 317.080914 166.564408 312.240321 169.663255 
C 307.399729 172.762101 303.111431 176.648961 299.553245 181.162662 
C 295.995059 185.676364 293.216857 190.753644 291.333838 196.183969 
C 289.45082 201.614293 288.489377 207.321553 288.489377 213.06909 
C 288.489377 218.816628 289.45082 224.523887 291.333838 229.954212 
C 293.216857 235.384536 295.995059 240.461817 299.553245 244.975518 
C 303.111431 249.48922 307.399729 253.37608 312.240321 256.474926 
C 317.080914 259.573772 322.405957 261.841172 327.994642 263.183106 
C 333.583327 264.52504 339.357324 264.9227 345.077211 264.359596 
C 350.797097 263.796492 356.382704 262.280517 361.602418 259.874532 
C 366.822133 257.468547 371.602798 254.206274 375.746178 250.222985 
C 379.889558 246.239697 383.337581 241.591221 385.947271 236.470313 
" style="fill:#c0c0c0;opacity:0.4;"/>
   </g>
   <g id="patch_15">
    <path clip-path="url(#p32827c7b98)" d="M 385.947271 189.667867 
C 389.640608 196.915179 391.566285 204.934948 391.566285 213.06909 
C 391.566285 221.203232 389.640608 229.223001 385.947271 236.470313 
C 390.987487 229.71094 393.711537 221.500751 393.711537 213.06909 
C 393.711537 204.637429 390.987487 196.42724 385.947271 189.667867 
" style="fill:#fb9a99;opacity:0.4;"/>
   </g>
   <g id="patch_16">
    <path clip-path="url(#p32827c7b98)" d="M 385.947271 236.470313 
C 389.640608 229.223001 391.566285 221.203232 391.566285 213.06909 
C 391.566285 204.934948 389.640608 196.915179 385.947271 189.667867 
C 383.503839 186.39101 380.562186 183.516974 377.229404 181.150391 
C 373.896621 178.783807 370.21365 176.953746 366.314568 175.726832 
C 362.415486 174.499917 358.348191 173.891221 354.260753 173.922903 
C 350.173314 173.954584 346.115943 174.626254 342.236348 175.913461 
C 338.356754 177.200667 334.702592 179.087598 331.406895 181.505559 
C 328.111197 183.92352 325.214448 186.842808 322.822104 190.157148 
C 320.42976 193.471487 318.571208 197.140164 317.31411 201.029619 
C 316.057012 204.919074 315.41681 208.981529 315.41681 213.06909 
C 315.41681 217.156651 316.057012 221.219107 317.31411 225.108562 
C 318.571208 228.998017 320.42976 232.666693 322.822104 235.981033 
C 325.214448 239.295372 328.111197 242.214661 331.406895 244.632622 
C 334.702592 247.050583 338.356754 248.937513 342.236348 250.22472 
C 346.115943 251.511926 350.173314 252.183596 354.260753 252.215278 
C 358.348191 252.246959 362.415486 251.638263 366.314568 250.411349 
C 370.21365 249.184435 373.896621 247.354374 377.229404 244.98779 
C 380.562186 242.621206 383.503839 239.747171 385.947271 236.470313 
" style="fill:#fff2f2;opacity:0.4;"/>
   </g>
   <g id="text_21">
    <!-- 513 -->
    <g style="fill:#262626;" transform="translate(292.409343 215.828465)scale(0.1 -0.1)">
     <use xlink:href="#DejaVuSans-35"/>
     <use x="63.623047" xlink:href="#DejaVuSans-31"/>
     <use x="127.246094" xlink:href="#DejaVuSans-33"/>
    </g>
   </g>
   <g id="text_22">
    <!-- 10 -->
    <g style="fill:#262626;" transform="translate(386.276411 215.828465)scale(0.1 -0.1)">
     <defs>
      <path d="M 2034 4250 
Q 1547 4250 1301 3770 
Q 1056 3291 1056 2328 
Q 1056 1369 1301 889 
Q 1547 409 2034 409 
Q 2525 409 2770 889 
Q 3016 1369 3016 2328 
Q 3016 3291 2770 3770 
Q 2525 4250 2034 4250 
z
M 2034 4750 
Q 2819 4750 3233 4129 
Q 3647 3509 3647 2328 
Q 3647 1150 3233 529 
Q 2819 -91 2034 -91 
Q 1250 -91 836 529 
Q 422 1150 422 2328 
Q 422 3509 836 4129 
Q 1250 4750 2034 4750 
z
" id="DejaVuSans-30" transform="scale(0.015625)"/>
     </defs>
     <use xlink:href="#DejaVuSans-31"/>
     <use x="63.623047" xlink:href="#DejaVuSans-30"/>
    </g>
   </g>
   <g id="text_23">
    <!-- 676 -->
    <g style="fill:#262626;" transform="translate(343.947797 215.828465)scale(0.1 -0.1)">
     <use xlink:href="#DejaVuSans-36"/>
     <use x="63.623047" xlink:href="#DejaVuSans-37"/>
     <use x="127.246094" xlink:href="#DejaVuSans-36"/>
    </g>
   </g>
   <g id="text_24">
    <!-- Bioregistry -->
    <g style="fill:#262626;" transform="translate(275.128456 278.25996)scale(0.12 -0.12)">
     <use xlink:href="#DejaVuSans-42"/>
     <use x="68.603516" xlink:href="#DejaVuSans-69"/>
     <use x="96.386719" xlink:href="#DejaVuSans-6f"/>
     <use x="157.568359" xlink:href="#DejaVuSans-72"/>
     <use x="196.431641" xlink:href="#DejaVuSans-65"/>
     <use x="257.955078" xlink:href="#DejaVuSans-67"/>
     <use x="321.431641" xlink:href="#DejaVuSans-69"/>
     <use x="349.214844" xlink:href="#DejaVuSans-73"/>
     <use x="401.314453" xlink:href="#DejaVuSans-74"/>
     <use x="440.523438" xlink:href="#DejaVuSans-72"/>
     <use x="481.636719" xlink:href="#DejaVuSans-79"/>
    </g>
   </g>
   <g id="text_25">
    <!-- N2T -->
    <g style="fill:#262626;" transform="translate(354.564173 265.868869)scale(0.12 -0.12)">
     <defs>
      <path d="M 628 4666 
L 1478 4666 
L 3547 763 
L 3547 4666 
L 4159 4666 
L 4159 0 
L 3309 0 
L 1241 3903 
L 1241 0 
L 628 0 
L 628 4666 
z
" id="DejaVuSans-4e" transform="scale(0.015625)"/>
      <path d="M -19 4666 
L 3928 4666 
L 3928 4134 
L 2272 4134 
L 2272 0 
L 1638 0 
L 1638 4134 
L -19 4134 
L -19 4666 
z
" id="DejaVuSans-54" transform="scale(0.015625)"/>
     </defs>
     <use xlink:href="#DejaVuSans-4e"/>
     <use x="74.804688" xlink:href="#DejaVuSans-32"/>
     <use x="138.427734" xlink:href="#DejaVuSans-54"/>
    </g>
   </g>
  </g>
  <g id="axes_6">
   <g id="patch_17">
    <path clip-path="url(#p177230418e)" d="M 601.995463 236.800464 
C 596.189368 236.108636 590.834332 233.309531 586.952056 228.937197 
C 583.06978 224.564864 580.923937 218.916257 580.923937 213.06909 
C 580.923937 207.221923 583.06978 201.573316 586.952056 197.200983 
C 590.834332 192.82865 596.189368 190.029545 601.995463 189.337717 
C 599.359696 184.300713 595.903085 179.737841 591.767813 175.83679 
C 587.632542 171.935739 582.876099 168.75074 577.694136 166.412807 
C 572.512174 164.074874 566.97673 162.616507 561.315502 162.097696 
C 555.654274 161.578884 549.945963 162.00684 544.425375 163.363961 
C 538.904786 164.721081 533.648668 166.9885 528.873225 170.072947 
C 524.097783 173.157395 519.869403 177.015992 516.362018 181.490019 
C 512.854632 185.964046 510.117 190.991305 508.261731 196.365004 
C 506.406462 201.738704 505.459349 207.384139 505.459349 213.06909 
C 505.459349 218.754041 506.406462 224.399477 508.261731 229.773176 
C 510.117 235.146876 512.854632 240.174135 516.362018 244.648162 
C 519.869403 249.122189 524.097783 252.980786 528.873225 256.065233 
C 533.648668 259.149681 538.904786 261.417099 544.425375 262.774219 
C 549.945963 264.13134 555.654274 264.559296 561.315502 264.040485 
C 566.97673 263.521673 572.512174 262.063307 577.694136 259.725373 
C 582.876099 257.38744 587.632542 254.202442 591.767813 250.30139 
C 595.903085 246.400339 599.359696 241.837467 601.995463 236.800464 
" style="fill:#c0c0c0;opacity:0.4;"/>
   </g>
   <g id="patch_18">
    <path clip-path="url(#p177230418e)" d="M 601.995463 189.337717 
C 605.82745 196.660721 607.829322 204.804072 607.829322 213.06909 
C 607.829322 221.334108 605.82745 229.47746 601.995463 236.800464 
C 605.348797 237.200032 608.749052 236.884341 611.971509 235.874256 
C 615.193966 234.864171 618.166035 233.182444 620.691293 230.94022 
C 623.216552 228.697996 625.238117 225.945783 626.622383 222.865474 
C 628.006649 219.785164 628.722435 216.446145 628.722435 213.06909 
C 628.722435 209.692035 628.006649 206.353016 626.622383 203.272707 
C 625.238117 200.192397 623.216552 197.440184 620.691293 195.19796 
C 618.166035 192.955736 615.193966 191.27401 611.971509 190.263924 
C 608.749052 189.253839 605.348797 188.938149 601.995463 189.337717 
" style="fill:#e31a1c;opacity:0.4;"/>
   </g>
   <g id="patch_19">
    <path clip-path="url(#p177230418e)" d="M 601.995463 236.800464 
C 605.82745 229.47746 607.829322 221.334108 607.829322 213.06909 
C 607.829322 204.804072 605.82745 196.660721 601.995463 189.337717 
C 596.189368 190.029545 590.834332 192.82865 586.952056 197.200983 
C 583.06978 201.573316 580.923937 207.221923 580.923937 213.06909 
C 580.923937 218.916257 583.06978 224.564864 586.952056 228.937197 
C 590.834332 233.309531 596.189368 236.108636 601.995463 236.800464 
" style="fill:#ff999a;opacity:0.4;"/>
   </g>
   <g id="text_26">
    <!-- 1051 -->
    <g style="fill:#262626;" transform="translate(530.466643 215.828465)scale(0.1 -0.1)">
     <use xlink:href="#DejaVuSans-31"/>
     <use x="63.623047" xlink:href="#DejaVuSans-30"/>
     <use x="127.246094" xlink:href="#DejaVuSans-35"/>
     <use x="190.869141" xlink:href="#DejaVuSans-31"/>
    </g>
   </g>
   <g id="text_27">
    <!-- 122 -->
    <g style="fill:#262626;" transform="translate(608.732129 215.828465)scale(0.1 -0.1)">
     <use xlink:href="#DejaVuSans-31"/>
     <use x="63.623047" xlink:href="#DejaVuSans-32"/>
     <use x="127.246094" xlink:href="#DejaVuSans-32"/>
    </g>
   </g>
   <g id="text_28">
    <!-- 137 -->
    <g style="fill:#262626;" transform="translate(584.83288 215.828465)scale(0.1 -0.1)">
     <use xlink:href="#DejaVuSans-31"/>
     <use x="63.623047" xlink:href="#DejaVuSans-33"/>
     <use x="127.246094" xlink:href="#DejaVuSans-37"/>
    </g>
   </g>
   <g id="text_29">
    <!-- Bioregistry -->
    <g style="fill:#262626;" transform="translate(491.74496 277.126414)scale(0.12 -0.12)">
     <use xlink:href="#DejaVuSans-42"/>
     <use x="68.603516" xlink:href="#DejaVuSans-69"/>
     <use x="96.386719" xlink:href="#DejaVuSans-6f"/>
     <use x="157.568359" xlink:href="#DejaVuSans-72"/>
     <use x="196.431641" xlink:href="#DejaVuSans-65"/>
     <use x="257.955078" xlink:href="#DejaVuSans-67"/>
     <use x="321.431641" xlink:href="#DejaVuSans-69"/>
     <use x="349.214844" xlink:href="#DejaVuSans-73"/>
     <use x="401.314453" xlink:href="#DejaVuSans-74"/>
     <use x="440.523438" xlink:href="#DejaVuSans-72"/>
     <use x="481.636719" xlink:href="#DejaVuSans-79"/>
    </g>
   </g>
   <g id="text_30">
    <!-- GO -->
    <g style="fill:#262626;" transform="translate(604.823186 249.840676)scale(0.12 -0.12)">
     <defs>
      <path d="M 3809 666 
L 3809 1919 
L 2778 1919 
L 2778 2438 
L 4434 2438 
L 4434 434 
Q 4069 175 3628 42 
Q 3188 -91 2688 -91 
Q 1594 -91 976 548 
Q 359 1188 359 2328 
Q 359 3472 976 4111 
Q 1594 4750 2688 4750 
Q 3144 4750 3555 4637 
Q 3966 4525 4313 4306 
L 4313 3634 
Q 3963 3931 3569 4081 
Q 3175 4231 2741 4231 
Q 1884 4231 1454 3753 
Q 1025 3275 1025 2328 
Q 1025 1384 1454 906 
Q 1884 428 2741 428 
Q 3075 428 3337 486 
Q 3600 544 3809 666 
z
" id="DejaVuSans-47" transform="scale(0.015625)"/>
     </defs>
     <use xlink:href="#DejaVuSans-47"/>
     <use x="77.490234" xlink:href="#DejaVuSans-4f"/>
    </g>
   </g>
  </g>
  <g id="axes_7">
   <g id="patch_20">
    <path clip-path="url(#p5793d74ef3)" d="M 123.522602 391.45935 
C 117.284176 387.54887 112.140308 382.116835 108.57534 375.674723 
C 105.010372 369.232611 103.139823 361.98917 103.139823 354.626439 
C 103.139823 347.263709 105.010372 340.020268 108.57534 333.578156 
C 112.140308 327.136044 117.284176 321.704009 123.522602 317.793529 
C 116.384342 311.290098 107.507138 306.999903 97.976183 305.447397 
C 88.445229 303.894892 78.665393 305.146025 69.832211 309.047853 
C 60.99903 312.949681 53.48773 319.336457 48.21653 327.427428 
C 42.945331 335.5184 40.13815 344.969869 40.13815 354.626439 
C 40.13815 364.28301 42.945331 373.734479 48.21653 381.825451 
C 53.48773 389.916422 60.99903 396.303198 69.832211 400.205026 
C 78.665393 404.106854 88.445229 405.357987 97.976183 403.805482 
C 107.507138 402.252976 116.384342 397.96278 123.522602 391.45935 
" style="fill:#c0c0c0;opacity:0.4;"/>
   </g>
   <g id="patch_21">
    <path clip-path="url(#p5793d74ef3)" d="M 123.522602 317.793529 
C 128.647825 322.462949 132.742465 328.15112 135.543951 334.493286 
C 138.345438 340.835451 139.792581 347.693086 139.792581 354.626439 
C 139.792581 361.559793 138.345438 368.417427 135.543951 374.759593 
C 132.742465 381.101759 128.647825 386.78993 123.522602 391.45935 
C 130.101053 395.582971 137.665666 397.869875 145.426823 398.081347 
C 153.18798 398.292818 160.865901 396.421235 167.659142 392.661958 
C 174.452382 388.902681 180.116054 383.391227 184.058966 376.7029 
C 188.001878 370.014573 190.081893 362.390477 190.081893 354.626439 
C 190.081893 346.862402 188.001878 339.238306 184.058966 332.549979 
C 180.116054 325.861652 174.452382 320.350198 167.659142 316.590921 
C 160.865901 312.831644 153.18798 310.960061 145.426823 311.171532 
C 137.665666 311.383004 130.101053 313.669908 123.522602 317.793529 
" style="fill:#fdbf6f;opacity:0.4;"/>
   </g>
   <g id="patch_22">
    <path clip-path="url(#p5793d74ef3)" d="M 123.522602 391.45935 
C 128.647825 386.78993 132.742465 381.101759 135.543951 374.759593 
C 138.345438 368.417427 139.792581 361.559793 139.792581 354.626439 
C 139.792581 347.693086 138.345438 340.835451 135.543951 334.493286 
C 132.742465 328.15112 128.647825 322.462949 123.522602 317.793529 
C 117.284176 321.704009 112.140308 327.136044 108.57534 333.578156 
C 105.010372 340.020268 103.139823 347.263709 103.139823 354.626439 
C 103.139823 361.98917 105.010372 369.232611 108.57534 375.674723 
C 112.140308 382.116835 117.284176 387.54887 123.522602 391.45935 
" style="fill:#ffffd4;opacity:0.4;"/>
   </g>
   <g id="text_31">
    <!-- 901 -->
    <g style="fill:#262626;" transform="translate(62.095236 357.385814)scale(0.1 -0.1)">
     <use xlink:href="#DejaVuSans-39"/>
     <use x="63.623047" xlink:href="#DejaVuSans-30"/>
     <use x="127.246094" xlink:href="#DejaVuSans-31"/>
    </g>
   </g>
   <g id="text_32">
    <!-- 617 -->
    <g style="fill:#262626;" transform="translate(155.393487 357.385814)scale(0.1 -0.1)">
     <use xlink:href="#DejaVuSans-36"/>
     <use x="63.623047" xlink:href="#DejaVuSans-31"/>
     <use x="127.246094" xlink:href="#DejaVuSans-37"/>
    </g>
   </g>
   <g id="text_33">
    <!-- 288 -->
    <g style="fill:#262626;" transform="translate(111.922452 357.385814)scale(0.1 -0.1)">
     <use xlink:href="#DejaVuSans-32"/>
     <use x="63.623047" xlink:href="#DejaVuSans-38"/>
     <use x="127.246094" xlink:href="#DejaVuSans-38"/>
    </g>
   </g>
   <g id="text_34">
    <!-- Bioregistry -->
    <g style="fill:#262626;" transform="translate(25.06599 418.236693)scale(0.12 -0.12)">
     <use xlink:href="#DejaVuSans-42"/>
     <use x="68.603516" xlink:href="#DejaVuSans-69"/>
     <use x="96.386719" xlink:href="#DejaVuSans-6f"/>
     <use x="157.568359" xlink:href="#DejaVuSans-72"/>
     <use x="196.431641" xlink:href="#DejaVuSans-65"/>
     <use x="257.955078" xlink:href="#DejaVuSans-67"/>
     <use x="321.431641" xlink:href="#DejaVuSans-69"/>
     <use x="349.214844" xlink:href="#DejaVuSans-73"/>
     <use x="401.314453" xlink:href="#DejaVuSans-74"/>
     <use x="440.523438" xlink:href="#DejaVuSans-72"/>
     <use x="481.636719" xlink:href="#DejaVuSans-79"/>
    </g>
   </g>
   <g id="text_35">
    <!-- BioPortal -->
    <g style="fill:#262626;" transform="translate(146.610858 411.880512)scale(0.12 -0.12)">
     <defs>
      <path d="M 1259 4147 
L 1259 2394 
L 2053 2394 
Q 2494 2394 2734 2622 
Q 2975 2850 2975 3272 
Q 2975 3691 2734 3919 
Q 2494 4147 2053 4147 
L 1259 4147 
z
M 628 4666 
L 2053 4666 
Q 2838 4666 3239 4311 
Q 3641 3956 3641 3272 
Q 3641 2581 3239 2228 
Q 2838 1875 2053 1875 
L 1259 1875 
L 1259 0 
L 628 0 
L 628 4666 
z
" id="DejaVuSans-50" transform="scale(0.015625)"/>
      <path d="M 603 4863 
L 1178 4863 
L 1178 0 
L 603 0 
L 603 4863 
z
" id="DejaVuSans-6c" transform="scale(0.015625)"/>
     </defs>
     <use xlink:href="#DejaVuSans-42"/>
     <use x="68.603516" xlink:href="#DejaVuSans-69"/>
     <use x="96.386719" xlink:href="#DejaVuSans-6f"/>
     <use x="157.568359" xlink:href="#DejaVuSans-50"/>
     <use x="214.246094" xlink:href="#DejaVuSans-6f"/>
     <use x="275.427734" xlink:href="#DejaVuSans-72"/>
     <use x="316.541016" xlink:href="#DejaVuSans-74"/>
     <use x="355.75" xlink:href="#DejaVuSans-61"/>
     <use x="417.029297" xlink:href="#DejaVuSans-6c"/>
    </g>
   </g>
  </g>
  <g id="axes_8">
   <g id="patch_23">
    <path clip-path="url(#pe06787cf96)" d="M 359.717488 399.813033 
C 353.127976 400.959667 346.366708 400.651132 339.909014 398.909118 
C 333.45132 397.167104 327.45216 394.033414 322.333286 389.728351 
C 317.214413 385.423288 313.098661 380.050158 310.275375 373.986704 
C 307.452089 367.923249 305.989017 361.314969 305.989017 354.626439 
C 305.989017 347.93791 307.452089 341.32963 310.275375 335.266175 
C 313.098661 329.20272 317.214413 323.829591 322.333286 319.524528 
C 327.45216 315.219465 333.45132 312.085775 339.909014 310.343761 
C 346.366708 308.601747 353.127976 308.293212 359.717488 309.439846 
C 351.918296 305.288989 343.175696 303.227189 334.343668 303.455845 
C 325.51164 303.6845 316.887437 306.195916 309.313476 310.744774 
C 301.739515 315.293633 295.470706 321.726838 291.119391 329.415989 
C 286.768076 337.105141 284.480702 345.791452 284.480702 354.626439 
C 284.480702 363.461427 286.768076 372.147738 291.119391 379.83689 
C 295.470706 387.526041 301.739515 393.959246 309.313476 398.508105 
C 316.887437 403.056963 325.51164 405.568378 334.343668 405.797034 
C 343.175696 406.02569 351.918296 403.96389 359.717488 399.813033 
" style="fill:#c0c0c0;opacity:0.4;"/>
   </g>
   <g id="patch_24">
    <path clip-path="url(#pe06787cf96)" d="M 359.717488 309.439846 
C 367.913262 313.801772 374.769943 320.312382 379.550108 328.271473 
C 384.330272 336.230564 386.856183 345.3422 386.856183 354.626439 
C 386.856183 363.910679 384.330272 373.022314 379.550108 380.981406 
C 374.769943 388.940497 367.913262 395.451107 359.717488 399.813033 
C 370.355892 397.961855 380.006238 392.411907 386.956526 384.147767 
C 393.906814 375.883627 397.720211 365.424704 397.720211 354.626439 
C 397.720211 343.828175 393.906814 333.369251 386.956526 325.105111 
C 380.006238 316.840971 370.355892 311.291024 359.717488 309.439846 
" style="fill:#ff7f00;opacity:0.4;"/>
   </g>
   <g id="patch_25">
    <path clip-path="url(#pe06787cf96)" d="M 359.717488 399.813033 
C 367.913262 395.451107 374.769943 388.940497 379.550108 380.981406 
C 384.330272 373.022314 386.856183 363.910679 386.856183 354.626439 
C 386.856183 345.3422 384.330272 336.230564 379.550108 328.271473 
C 374.769943 320.312382 367.913262 313.801772 359.717488 309.439846 
C 353.127976 308.293212 346.366708 308.601747 339.909014 310.343761 
C 333.45132 312.085775 327.45216 315.219465 322.333286 319.524528 
C 317.214413 323.829591 313.098661 329.20272 310.275375 335.266175 
C 307.452089 341.32963 305.989017 347.93791 305.989017 354.626439 
C 305.989017 361.314969 307.452089 367.923249 310.275375 373.986704 
C 313.098661 380.050158 317.214413 385.423288 322.333286 389.728351 
C 327.45216 394.033414 333.45132 397.167104 339.909014 398.909118 
C 346.366708 400.651132 353.127976 400.959667 359.717488 399.813033 
" style="fill:#ffdf86;opacity:0.4;"/>
   </g>
   <g id="text_36">
    <!-- 355 -->
    <g style="fill:#262626;" transform="translate(285.69111 357.385814)scale(0.1 -0.1)">
     <use xlink:href="#DejaVuSans-33"/>
     <use x="63.623047" xlink:href="#DejaVuSans-35"/>
     <use x="127.246094" xlink:href="#DejaVuSans-35"/>
    </g>
   </g>
   <g id="text_37">
    <!-- 121 -->
    <g style="fill:#262626;" transform="translate(382.744447 357.385814)scale(0.1 -0.1)">
     <use xlink:href="#DejaVuSans-31"/>
     <use x="63.623047" xlink:href="#DejaVuSans-32"/>
     <use x="127.246094" xlink:href="#DejaVuSans-31"/>
    </g>
   </g>
   <g id="text_38">
    <!-- 832 -->
    <g style="fill:#262626;" transform="translate(336.87885 357.385814)scale(0.1 -0.1)">
     <use xlink:href="#DejaVuSans-38"/>
     <use x="63.623047" xlink:href="#DejaVuSans-33"/>
     <use x="127.246094" xlink:href="#DejaVuSans-32"/>
    </g>
   </g>
   <g id="text_39">
    <!-- Bioregistry -->
    <g style="fill:#262626;" transform="translate(270.769067 419.784972)scale(0.12 -0.12)">
     <use xlink:href="#DejaVuSans-42"/>
     <use x="68.603516" xlink:href="#DejaVuSans-69"/>
     <use x="96.386719" xlink:href="#DejaVuSans-6f"/>
     <use x="157.568359" xlink:href="#DejaVuSans-72"/>
     <use x="196.431641" xlink:href="#DejaVuSans-65"/>
     <use x="257.955078" xlink:href="#DejaVuSans-67"/>
     <use x="321.431641" xlink:href="#DejaVuSans-69"/>
     <use x="349.214844" xlink:href="#DejaVuSans-73"/>
     <use x="401.314453" xlink:href="#DejaVuSans-74"/>
     <use x="440.523438" xlink:href="#DejaVuSans-72"/>
     <use x="481.636719" xlink:href="#DejaVuSans-79"/>
    </g>
   </g>
   <g id="text_40">
    <!-- Prefix Commons -->
    <g style="fill:#262626;" transform="translate(351.854614 414.462828)scale(0.12 -0.12)">
     <defs>
      <path d="M 2375 4863 
L 2375 4384 
L 1825 4384 
Q 1516 4384 1395 4259 
Q 1275 4134 1275 3809 
L 1275 3500 
L 2222 3500 
L 2222 3053 
L 1275 3053 
L 1275 0 
L 697 0 
L 697 3053 
L 147 3053 
L 147 3500 
L 697 3500 
L 697 3744 
Q 697 4328 969 4595 
Q 1241 4863 1831 4863 
L 2375 4863 
z
" id="DejaVuSans-66" transform="scale(0.015625)"/>
      <path d="M 3513 3500 
L 2247 1797 
L 3578 0 
L 2900 0 
L 1881 1375 
L 863 0 
L 184 0 
L 1544 1831 
L 300 3500 
L 978 3500 
L 1906 2253 
L 2834 3500 
L 3513 3500 
z
" id="DejaVuSans-78" transform="scale(0.015625)"/>
      <path id="DejaVuSans-20" transform="scale(0.015625)"/>
      <path d="M 4122 4306 
L 4122 3641 
Q 3803 3938 3442 4084 
Q 3081 4231 2675 4231 
Q 1875 4231 1450 3742 
Q 1025 3253 1025 2328 
Q 1025 1406 1450 917 
Q 1875 428 2675 428 
Q 3081 428 3442 575 
Q 3803 722 4122 1019 
L 4122 359 
Q 3791 134 3420 21 
Q 3050 -91 2638 -91 
Q 1578 -91 968 557 
Q 359 1206 359 2328 
Q 359 3453 968 4101 
Q 1578 4750 2638 4750 
Q 3056 4750 3426 4639 
Q 3797 4528 4122 4306 
z
" id="DejaVuSans-43" transform="scale(0.015625)"/>
      <path d="M 3328 2828 
Q 3544 3216 3844 3400 
Q 4144 3584 4550 3584 
Q 5097 3584 5394 3201 
Q 5691 2819 5691 2113 
L 5691 0 
L 5113 0 
L 5113 2094 
Q 5113 2597 4934 2840 
Q 4756 3084 4391 3084 
Q 3944 3084 3684 2787 
Q 3425 2491 3425 1978 
L 3425 0 
L 2847 0 
L 2847 2094 
Q 2847 2600 2669 2842 
Q 2491 3084 2119 3084 
Q 1678 3084 1418 2786 
Q 1159 2488 1159 1978 
L 1159 0 
L 581 0 
L 581 3500 
L 1159 3500 
L 1159 2956 
Q 1356 3278 1631 3431 
Q 1906 3584 2284 3584 
Q 2666 3584 2933 3390 
Q 3200 3197 3328 2828 
z
" id="DejaVuSans-6d" transform="scale(0.015625)"/>
      <path d="M 3513 2113 
L 3513 0 
L 2938 0 
L 2938 2094 
Q 2938 2591 2744 2837 
Q 2550 3084 2163 3084 
Q 1697 3084 1428 2787 
Q 1159 2491 1159 1978 
L 1159 0 
L 581 0 
L 581 3500 
L 1159 3500 
L 1159 2956 
Q 1366 3272 1645 3428 
Q 1925 3584 2291 3584 
Q 2894 3584 3203 3211 
Q 3513 2838 3513 2113 
z
" id="DejaVuSans-6e" transform="scale(0.015625)"/>
     </defs>
     <use xlink:href="#DejaVuSans-50"/>
     <use x="58.552734" xlink:href="#DejaVuSans-72"/>
     <use x="97.416016" xlink:href="#DejaVuSans-65"/>
     <use x="158.939453" xlink:href="#DejaVuSans-66"/>
     <use x="194.144531" xlink:href="#DejaVuSans-69"/>
     <use x="221.927734" xlink:href="#DejaVuSans-78"/>
     <use x="281.107422" xlink:href="#DejaVuSans-20"/>
     <use x="312.894531" xlink:href="#DejaVuSans-43"/>
     <use x="382.71875" xlink:href="#DejaVuSans-6f"/>
     <use x="443.900391" xlink:href="#DejaVuSans-6d"/>
     <use x="541.3125" xlink:href="#DejaVuSans-6d"/>
     <use x="638.724609" xlink:href="#DejaVuSans-6f"/>
     <use x="699.90625" xlink:href="#DejaVuSans-6e"/>
     <use x="763.285156" xlink:href="#DejaVuSans-73"/>
    </g>
   </g>
  </g>
  <g id="axes_9">
   <g id="patch_26">
    <path clip-path="url(#pd55a901c50)" d="M 609.915813 369.761907 
C 607.910891 369.789225 605.920379 369.417898 604.060158 368.669546 
C 602.199936 367.921193 600.506816 366.810623 599.079365 365.402489 
C 597.651915 363.994355 596.518381 362.316523 595.744754 360.466669 
C 594.971128 358.616815 594.572717 356.631547 594.572717 354.626439 
C 594.572717 352.621332 594.971128 350.636064 595.744754 348.78621 
C 596.518381 346.936356 597.651915 345.258524 599.079365 343.85039 
C 600.506816 342.442256 602.199936 341.331686 604.060158 340.583333 
C 605.920379 339.83498 607.910891 339.463654 609.915813 339.490971 
C 608.118268 333.653562 605.295104 328.182783 601.578875 323.3355 
C 597.862646 318.488216 593.312438 314.341497 588.141892 311.09004 
C 582.971346 307.838583 577.262672 305.534084 571.283904 304.284744 
C 565.305136 303.035405 559.151333 302.861089 553.11143 303.76998 
C 547.071526 304.678872 541.241554 306.65652 535.895241 309.610071 
C 530.548929 312.563622 525.77128 316.446114 521.786617 321.075258 
C 517.801953 325.704402 514.673628 331.006595 512.548523 336.732889 
C 510.423418 342.459184 509.335321 348.518533 509.335321 354.626439 
C 509.335321 360.734346 510.423418 366.793695 512.548523 372.51999 
C 514.673628 378.246284 517.801953 383.548477 521.786617 388.177621 
C 525.77128 392.806765 530.548929 396.689257 535.895241 399.642808 
C 541.241554 402.596358 547.071526 404.574007 553.11143 405.482899 
C 559.151333 406.39179 565.305136 406.217474 571.283904 404.968135 
C 577.262672 403.718795 582.971346 401.414296 588.141892 398.162839 
C 593.312438 394.911382 597.862646 390.764663 601.578875 385.917379 
C 605.295104 381.070096 608.118268 375.599317 609.915813 369.761907 
" style="fill:#c0c0c0;opacity:0.4;"/>
   </g>
   <g id="patch_27">
    <path clip-path="url(#pd55a901c50)" d="M 609.915813 339.490971 
C 611.425703 344.394241 612.193415 349.49596 612.193415 354.626439 
C 612.193415 359.756919 611.425703 364.858638 609.915813 369.761907 
C 613.8928 369.707721 617.692448 368.088173 620.48564 365.256664 
C 623.278831 362.425156 624.846463 358.603795 624.846463 354.626439 
C 624.846463 350.649083 623.278831 346.827723 620.48564 343.996215 
C 617.692448 341.164706 613.8928 339.545158 609.915813 339.490971 
" style="fill:#cab2d6;opacity:0.4;"/>
   </g>
   <g id="patch_28">
    <path clip-path="url(#pd55a901c50)" d="M 609.915813 369.761907 
C 611.425703 364.858638 612.193415 359.756919 612.193415 354.626439 
C 612.193415 349.49596 611.425703 344.394241 609.915813 339.490971 
C 607.910891 339.463654 605.920379 339.83498 604.060158 340.583333 
C 602.199936 341.331686 600.506816 342.442256 599.079365 343.85039 
C 597.651915 345.258524 596.518381 346.936356 595.744754 348.78621 
C 594.971128 350.636064 594.572717 352.621332 594.572717 354.626439 
C 594.572717 356.631547 594.971128 358.616815 595.744754 360.466669 
C 596.518381 362.316523 597.651915 363.994355 599.079365 365.402489 
C 600.506816 366.810623 602.199936 367.921193 604.060158 368.669546 
C 605.920379 369.417898 607.910891 369.789225 609.915813 369.761907 
" style="fill:#ffffff;opacity:0.4;"/>
   </g>
   <g id="text_41">
    <!-- 1130 -->
    <g style="fill:#262626;" transform="translate(539.229019 357.385814)scale(0.1 -0.1)">
     <use xlink:href="#DejaVuSans-31"/>
     <use x="63.623047" xlink:href="#DejaVuSans-31"/>
     <use x="127.246094" xlink:href="#DejaVuSans-33"/>
     <use x="190.869141" xlink:href="#DejaVuSans-30"/>
    </g>
   </g>
   <g id="text_42">
    <!-- 44 -->
    <g style="fill:#262626;" transform="translate(612.157439 357.385814)scale(0.1 -0.1)">
     <use xlink:href="#DejaVuSans-34"/>
     <use x="63.623047" xlink:href="#DejaVuSans-34"/>
    </g>
   </g>
   <g id="text_43">
    <!-- 59 -->
    <g style="fill:#262626;" transform="translate(597.020566 357.385814)scale(0.1 -0.1)">
     <use xlink:href="#DejaVuSans-35"/>
     <use x="63.623047" xlink:href="#DejaVuSans-39"/>
    </g>
   </g>
   <g id="text_44">
    <!-- Bioregistry -->
    <g style="fill:#262626;" transform="translate(495.864993 418.501908)scale(0.12 -0.12)">
     <use xlink:href="#DejaVuSans-42"/>
     <use x="68.603516" xlink:href="#DejaVuSans-69"/>
     <use x="96.386719" xlink:href="#DejaVuSans-6f"/>
     <use x="157.568359" xlink:href="#DejaVuSans-72"/>
     <use x="196.431641" xlink:href="#DejaVuSans-65"/>
     <use x="257.955078" xlink:href="#DejaVuSans-67"/>
     <use x="321.431641" xlink:href="#DejaVuSans-69"/>
     <use x="349.214844" xlink:href="#DejaVuSans-73"/>
     <use x="401.314453" xlink:href="#DejaVuSans-74"/>
     <use x="440.523438" xlink:href="#DejaVuSans-72"/>
     <use x="481.636719" xlink:href="#DejaVuSans-79"/>
    </g>
   </g>
   <g id="text_45">
    <!-- Biolink -->
    <g style="fill:#262626;" transform="translate(609.70959 382.209733)scale(0.12 -0.12)">
     <use xlink:href="#DejaVuSans-42"/>
     <use x="68.603516" xlink:href="#DejaVuSans-69"/>
     <use x="96.386719" xlink:href="#DejaVuSans-6f"/>
     <use x="157.568359" xlink:href="#DejaVuSans-6c"/>
     <use x="185.351562" xlink:href="#DejaVuSans-69"/>
     <use x="213.134766" xlink:href="#DejaVuSans-6e"/>
     <use x="276.513672" xlink:href="#DejaVuSans-6b"/>
    </g>
   </g>
  </g>
  <g id="axes_10">
   <g id="patch_29">
    <path clip-path="url(#p4e93ee2604)" d="M 156.533755 512.839246 
C 152.20412 512.709887 148.091095 510.897239 145.074297 507.78896 
C 142.057498 504.68068 140.368493 500.515356 140.368493 496.183789 
C 140.368493 491.852221 142.057498 487.686897 145.074297 484.578618 
C 148.091095 481.470338 152.20412 479.657691 156.533755 479.528331 
C 154.577603 473.818348 151.63072 468.497375 147.828458 463.809812 
C 144.026197 459.12225 139.427677 455.140982 134.244116 452.048874 
C 129.060555 448.956766 123.372549 446.801896 117.441356 445.683241 
C 111.510164 444.564585 105.428006 444.499536 99.474245 445.491083 
C 93.520484 446.48263 87.787692 448.515356 82.539184 451.495893 
C 77.290676 454.47643 72.60806 458.358437 68.706413 462.963607 
C 64.804766 467.568777 61.744755 472.825506 59.666929 478.492346 
C 57.589103 484.159186 56.525769 490.148026 56.525769 496.183789 
C 56.525769 502.219552 57.589103 508.208391 59.666929 513.875231 
C 61.744755 519.542071 64.804766 524.798801 68.706413 529.40397 
C 72.60806 534.00914 77.290676 537.891147 82.539184 540.871684 
C 87.787692 543.852222 93.520484 545.884947 99.474245 546.876494 
C 105.428006 547.868041 111.510164 547.802993 117.441356 546.684337 
C 123.372549 545.565681 129.060555 543.410811 134.244116 540.318703 
C 139.427677 537.226596 144.026197 533.245328 147.828458 528.557765 
C 151.63072 523.870202 154.577603 518.54923 156.533755 512.839246 
" style="fill:#c0c0c0;opacity:0.4;"/>
   </g>
   <g id="patch_30">
    <path clip-path="url(#p4e93ee2604)" d="M 156.533755 479.528331 
C 158.3703 484.889184 159.307576 490.517075 159.307576 496.183789 
C 159.307576 501.850502 158.3703 507.478393 156.533755 512.839246 
C 158.762791 512.905845 160.982683 512.524296 163.061561 511.717264 
C 165.14044 510.910232 167.036311 509.69402 168.636554 508.140875 
C 170.236797 506.58773 171.509086 504.729026 172.377842 502.675176 
C 173.246599 500.621326 173.694273 498.41382 173.694273 496.183789 
C 173.694273 493.953758 173.246599 491.746251 172.377842 489.692401 
C 171.509086 487.638551 170.236797 485.779848 168.636554 484.226702 
C 167.036311 482.673557 165.14044 481.457345 163.061561 480.650313 
C 160.982683 479.843281 158.762791 479.461732 156.533755 479.528331 
" style="fill:#6a3d9a;opacity:0.4;"/>
   </g>
   <g id="patch_31">
    <path clip-path="url(#p4e93ee2604)" d="M 156.533755 512.839246 
C 158.3703 507.478393 159.307576 501.850502 159.307576 496.183789 
C 159.307576 490.517075 158.3703 484.889184 156.533755 479.528331 
C 152.20412 479.657691 148.091095 481.470338 145.074297 484.578618 
C 142.057498 487.686897 140.368493 491.852221 140.368493 496.183789 
C 140.368493 500.515356 142.057498 504.68068 145.074297 507.78896 
C 148.091095 510.897239 152.20412 512.709887 156.533755 512.839246 
" style="fill:#d1b1f2;opacity:0.4;"/>
   </g>
   <g id="text_46">
    <!-- 1120 -->
    <g style="fill:#262626;" transform="translate(85.722131 498.943164)scale(0.1 -0.1)">
     <use xlink:href="#DejaVuSans-31"/>
     <use x="63.623047" xlink:href="#DejaVuSans-31"/>
     <use x="127.246094" xlink:href="#DejaVuSans-32"/>
     <use x="190.869141" xlink:href="#DejaVuSans-30"/>
    </g>
   </g>
   <g id="text_47">
    <!-- 56 -->
    <g style="fill:#262626;" transform="translate(160.138425 498.943164)scale(0.1 -0.1)">
     <use xlink:href="#DejaVuSans-35"/>
     <use x="63.623047" xlink:href="#DejaVuSans-36"/>
    </g>
   </g>
   <g id="text_48">
    <!-- 69 -->
    <g style="fill:#262626;" transform="translate(143.475535 498.943164)scale(0.1 -0.1)">
     <use xlink:href="#DejaVuSans-36"/>
     <use x="63.623047" xlink:href="#DejaVuSans-39"/>
    </g>
   </g>
   <g id="text_49">
    <!-- Bioregistry -->
    <g style="fill:#262626;" transform="translate(43.017298 560.095507)scale(0.12 -0.12)">
     <use xlink:href="#DejaVuSans-42"/>
     <use x="68.603516" xlink:href="#DejaVuSans-69"/>
     <use x="96.386719" xlink:href="#DejaVuSans-6f"/>
     <use x="157.568359" xlink:href="#DejaVuSans-72"/>
     <use x="196.431641" xlink:href="#DejaVuSans-65"/>
     <use x="257.955078" xlink:href="#DejaVuSans-67"/>
     <use x="321.431641" xlink:href="#DejaVuSans-69"/>
     <use x="349.214844" xlink:href="#DejaVuSans-73"/>
     <use x="401.314453" xlink:href="#DejaVuSans-74"/>
     <use x="440.523438" xlink:href="#DejaVuSans-72"/>
     <use x="481.636719" xlink:href="#DejaVuSans-79"/>
    </g>
   </g>
   <g id="text_50">
    <!-- NCBI -->
    <g style="fill:#262626;" transform="translate(157.031383 525.367494)scale(0.12 -0.12)">
     <use xlink:href="#DejaVuSans-4e"/>
     <use x="74.804688" xlink:href="#DejaVuSans-43"/>
     <use x="144.628906" xlink:href="#DejaVuSans-42"/>
     <use x="213.232422" xlink:href="#DejaVuSans-49"/>
    </g>
   </g>
  </g>
  <g id="axes_11">
   <g id="patch_32">
    <path clip-path="url(#pe146e73494)" d="M 379.091934 516.025765 
C 374.274295 515.398848 369.846082 513.038309 366.640077 509.388076 
C 363.434071 505.737844 361.664691 501.042046 361.664691 496.183789 
C 361.664691 491.325531 363.434071 486.629734 366.640077 482.979501 
C 369.846082 479.329269 374.274295 476.968729 379.091934 476.341812 
C 376.81752 470.921116 373.627916 465.93162 369.662758 461.591756 
C 365.697599 457.251893 361.015607 453.625932 355.821752 450.872612 
C 350.627897 448.119293 344.999096 446.279389 339.181769 445.43345 
C 333.364443 444.587511 327.444741 444.748064 321.68182 445.90808 
C 315.918899 447.068097 310.398102 449.210398 305.361123 452.241196 
C 300.324144 455.271994 295.845575 459.146407 292.121483 463.694817 
C 288.397391 468.243227 285.482925 473.398277 283.505677 478.934285 
C 281.528429 484.470293 280.517681 490.305277 280.517681 496.183789 
C 280.517681 502.0623 281.528429 507.897284 283.505677 513.433292 
C 285.482925 518.969301 288.397391 524.124351 292.121483 528.672761 
C 295.845575 533.221171 300.324144 537.095583 305.361123 540.126381 
C 310.398102 543.15718 315.918899 545.299481 321.68182 546.459497 
C 327.444741 547.619513 333.364443 547.780066 339.181769 546.934127 
C 344.999096 546.088188 350.627897 544.248285 355.821752 541.494965 
C 361.015607 538.741646 365.697599 535.115684 369.662758 530.775821 
C 373.627916 526.435957 376.81752 521.446461 379.091934 516.025765 
" style="fill:#c0c0c0;opacity:0.4;"/>
   </g>
   <g id="patch_33">
    <path clip-path="url(#pe146e73494)" d="M 379.091934 476.341812 
C 381.728087 482.624657 383.085918 489.370314 383.085918 496.183789 
C 383.085918 502.997264 381.728087 509.742921 379.091934 516.025765 
C 381.913748 516.392967 384.781699 516.154025 387.503845 515.324932 
C 390.22599 514.495839 392.740215 513.095513 394.878249 511.217674 
C 397.016283 509.339835 398.729341 507.027331 399.902772 504.434932 
C 401.076203 501.842534 401.683232 499.029394 401.683232 496.183789 
C 401.683232 493.338183 401.076203 490.525043 399.902772 487.932645 
C 398.729341 485.340246 397.016283 483.027743 394.878249 481.149904 
C 392.740215 479.272064 390.22599 477.871738 387.503845 477.042645 
C 384.781699 476.213552 381.913748 475.974611 379.091934 476.341812 
" style="fill:#ffff99;opacity:0.4;"/>
   </g>
   <g id="patch_34">
    <path clip-path="url(#pe146e73494)" d="M 379.091934 516.025765 
C 381.728087 509.742921 383.085918 502.997264 383.085918 496.183789 
C 383.085918 489.370314 381.728087 482.624657 379.091934 476.341812 
C 374.274295 476.968729 369.846082 479.329269 366.640077 482.979501 
C 363.434071 486.629734 361.664691 491.325531 361.664691 496.183789 
C 361.664691 501.042046 363.434071 505.737844 366.640077 509.388076 
C 369.846082 513.038309 374.274295 515.398848 379.091934 516.025765 
" style="fill:#fffff2;opacity:0.4;"/>
   </g>
   <g id="text_51">
    <!-- 1098 -->
    <g style="fill:#262626;" transform="translate(308.366186 498.943164)scale(0.1 -0.1)">
     <use xlink:href="#DejaVuSans-31"/>
     <use x="63.623047" xlink:href="#DejaVuSans-30"/>
     <use x="127.246094" xlink:href="#DejaVuSans-39"/>
     <use x="190.869141" xlink:href="#DejaVuSans-38"/>
    </g>
   </g>
   <g id="text_52">
    <!-- 90 -->
    <g style="fill:#262626;" transform="translate(386.022075 498.943164)scale(0.1 -0.1)">
     <use xlink:href="#DejaVuSans-39"/>
     <use x="63.623047" xlink:href="#DejaVuSans-30"/>
    </g>
   </g>
   <g id="text_53">
    <!-- 91 -->
    <g style="fill:#262626;" transform="translate(366.012805 498.943164)scale(0.1 -0.1)">
     <use xlink:href="#DejaVuSans-39"/>
     <use x="63.623047" xlink:href="#DejaVuSans-31"/>
    </g>
   </g>
   <g id="text_54">
    <!-- Bioregistry -->
    <g style="fill:#262626;" transform="translate(266.902425 560.150702)scale(0.12 -0.12)">
     <use xlink:href="#DejaVuSans-42"/>
     <use x="68.603516" xlink:href="#DejaVuSans-69"/>
     <use x="96.386719" xlink:href="#DejaVuSans-6f"/>
     <use x="157.568359" xlink:href="#DejaVuSans-72"/>
     <use x="196.431641" xlink:href="#DejaVuSans-65"/>
     <use x="257.955078" xlink:href="#DejaVuSans-67"/>
     <use x="321.431641" xlink:href="#DejaVuSans-69"/>
     <use x="349.214844" xlink:href="#DejaVuSans-73"/>
     <use x="401.314453" xlink:href="#DejaVuSans-74"/>
     <use x="440.523438" xlink:href="#DejaVuSans-72"/>
     <use x="481.636719" xlink:href="#DejaVuSans-79"/>
    </g>
   </g>
   <g id="text_55">
    <!-- UniProt -->
    <g style="fill:#262626;" transform="translate(381.673962 528.875854)scale(0.12 -0.12)">
     <defs>
      <path d="M 556 4666 
L 1191 4666 
L 1191 1831 
Q 1191 1081 1462 751 
Q 1734 422 2344 422 
Q 2950 422 3222 751 
Q 3494 1081 3494 1831 
L 3494 4666 
L 4128 4666 
L 4128 1753 
Q 4128 841 3676 375 
Q 3225 -91 2344 -91 
Q 1459 -91 1007 375 
Q 556 841 556 1753 
L 556 4666 
z
" id="DejaVuSans-55" transform="scale(0.015625)"/>
     </defs>
     <use xlink:href="#DejaVuSans-55"/>
     <use x="73.193359" xlink:href="#DejaVuSans-6e"/>
     <use x="136.572266" xlink:href="#DejaVuSans-69"/>
     <use x="164.355469" xlink:href="#DejaVuSans-50"/>
     <use x="222.908203" xlink:href="#DejaVuSans-72"/>
     <use x="261.771484" xlink:href="#DejaVuSans-6f"/>
     <use x="322.953125" xlink:href="#DejaVuSans-74"/>
    </g>
   </g>
  </g>
  <g id="axes_12">
   <g id="patch_35">
    <path clip-path="url(#pd17c044e4c)" d="M 607.720769 511.496103 
C 604.243917 510.714622 601.134806 508.771778 598.908336 505.989325 
C 596.681867 503.206872 595.468128 499.747384 595.468128 496.183789 
C 595.468128 492.620193 596.681867 489.160706 598.908336 486.378252 
C 601.134806 483.595799 604.243917 481.652955 607.720769 480.871475 
C 605.904784 475.056672 603.068773 469.611019 599.345523 464.789491 
C 595.622272 459.967962 591.070813 455.847002 585.904253 452.619559 
C 580.737693 449.392117 575.037945 447.109363 569.071881 445.878179 
C 563.105817 444.646995 556.968028 444.486901 550.945893 445.405394 
C 544.923759 446.323887 539.112759 448.306404 533.784974 451.26012 
C 528.457189 454.213835 523.697089 458.09192 519.72755 462.712796 
C 515.758011 467.333672 512.641969 472.624075 510.525322 478.336302 
C 508.408674 484.048529 507.32498 490.092013 507.32498 496.183789 
C 507.32498 502.275564 508.408674 508.319048 510.525322 514.031275 
C 512.641969 519.743502 515.758011 525.033906 519.72755 529.654781 
C 523.697089 534.275657 528.457189 538.153742 533.784974 541.107458 
C 539.112759 544.061174 544.923759 546.04369 550.945893 546.962183 
C 556.968028 547.880676 563.105817 547.720583 569.071881 546.489399 
C 575.037945 545.258215 580.737693 542.97546 585.904253 539.748018 
C 591.070813 536.520575 595.622272 532.399615 599.345523 527.578086 
C 603.068773 522.756558 605.904784 517.310905 607.720769 511.496103 
" style="fill:#c0c0c0;opacity:0.4;"/>
   </g>
   <g id="patch_36">
    <path clip-path="url(#pd17c044e4c)" d="M 607.720769 480.871475 
C 609.268757 485.828146 610.056196 490.99102 610.056196 496.183789 
C 610.056196 501.376558 609.268757 506.539432 607.720769 511.496103 
C 610.016782 512.01217 612.399738 512.005274 614.692726 511.475927 
C 616.985714 510.94658 619.13055 509.908215 620.968002 508.437918 
C 622.805454 506.967622 624.288897 505.102703 625.308201 502.981613 
C 626.327504 500.860523 626.856804 498.537085 626.856804 496.183789 
C 626.856804 493.830493 626.327504 491.507054 625.308201 489.385964 
C 624.288897 487.264874 622.805454 485.399955 620.968002 483.929659 
C 619.13055 482.459363 616.985714 481.420997 614.692726 480.89165 
C 612.399738 480.362303 610.016782 480.355408 607.720769 480.871475 
" style="fill:#b15928;opacity:0.4;"/>
   </g>
   <g id="patch_37">
    <path clip-path="url(#pd17c044e4c)" d="M 607.720769 511.496103 
C 609.268757 506.539432 610.056196 501.376558 610.056196 496.183789 
C 610.056196 490.99102 609.268757 485.828146 607.720769 480.871475 
C 604.243917 481.652955 601.134806 483.595799 598.908336 486.378252 
C 596.681867 489.160706 595.468128 492.620193 595.468128 496.183789 
C 595.468128 499.747384 596.681867 503.206872 598.908336 505.989325 
C 601.134806 508.771778 604.243917 510.714622 607.720769 511.496103 
" style="fill:#ffc5a2;opacity:0.4;"/>
   </g>
   <g id="text_56">
    <!-- 1142 -->
    <g style="fill:#262626;" transform="translate(538.671554 498.943164)scale(0.1 -0.1)">
     <use xlink:href="#DejaVuSans-31"/>
     <use x="63.623047" xlink:href="#DejaVuSans-31"/>
     <use x="127.246094" xlink:href="#DejaVuSans-34"/>
     <use x="190.869141" xlink:href="#DejaVuSans-32"/>
    </g>
   </g>
   <g id="text_57">
    <!-- 64 -->
    <g style="fill:#262626;" transform="translate(612.094 498.943164)scale(0.1 -0.1)">
     <use xlink:href="#DejaVuSans-36"/>
     <use x="63.623047" xlink:href="#DejaVuSans-34"/>
    </g>
   </g>
   <g id="text_58">
    <!-- 47 -->
    <g style="fill:#262626;" transform="translate(596.399662 498.943164)scale(0.1 -0.1)">
     <use xlink:href="#DejaVuSans-34"/>
     <use x="63.623047" xlink:href="#DejaVuSans-37"/>
    </g>
   </g>
   <g id="text_59">
    <!-- Bioregistry -->
    <g style="fill:#262626;" transform="translate(493.791213 560.020519)scale(0.12 -0.12)">
     <use xlink:href="#DejaVuSans-42"/>
     <use x="68.603516" xlink:href="#DejaVuSans-69"/>
     <use x="96.386719" xlink:href="#DejaVuSans-6f"/>
     <use x="157.568359" xlink:href="#DejaVuSans-72"/>
     <use x="196.431641" xlink:href="#DejaVuSans-65"/>
     <use x="257.955078" xlink:href="#DejaVuSans-67"/>
     <use x="321.431641" xlink:href="#DejaVuSans-69"/>
     <use x="349.214844" xlink:href="#DejaVuSans-73"/>
     <use x="401.314453" xlink:href="#DejaVuSans-74"/>
     <use x="440.523438" xlink:href="#DejaVuSans-72"/>
     <use x="481.636719" xlink:href="#DejaVuSans-79"/>
    </g>
   </g>
   <g id="text_60">
    <!-- Cellosaurus -->
    <g style="fill:#262626;" transform="translate(611.162466 524.349249)scale(0.12 -0.12)">
     <defs>
      <path d="M 544 1381 
L 544 3500 
L 1119 3500 
L 1119 1403 
Q 1119 906 1312 657 
Q 1506 409 1894 409 
Q 2359 409 2629 706 
Q 2900 1003 2900 1516 
L 2900 3500 
L 3475 3500 
L 3475 0 
L 2900 0 
L 2900 538 
Q 2691 219 2414 64 
Q 2138 -91 1772 -91 
Q 1169 -91 856 284 
Q 544 659 544 1381 
z
M 1991 3584 
L 1991 3584 
z
" id="DejaVuSans-75" transform="scale(0.015625)"/>
     </defs>
     <use xlink:href="#DejaVuSans-43"/>
     <use x="69.824219" xlink:href="#DejaVuSans-65"/>
     <use x="131.347656" xlink:href="#DejaVuSans-6c"/>
     <use x="159.130859" xlink:href="#DejaVuSans-6c"/>
     <use x="186.914062" xlink:href="#DejaVuSans-6f"/>
     <use x="248.095703" xlink:href="#DejaVuSans-73"/>
     <use x="300.195312" xlink:href="#DejaVuSans-61"/>
     <use x="361.474609" xlink:href="#DejaVuSans-75"/>
     <use x="424.853516" xlink:href="#DejaVuSans-72"/>
     <use x="465.966797" xlink:href="#DejaVuSans-75"/>
     <use x="529.345703" xlink:href="#DejaVuSans-73"/>
    </g>
   </g>
  </g>
  <g id="text_61">
   <!-- https://github.com/bioregistry/bioregistry (2021-08-22) -->
   <g style="fill:#808080;opacity:0.5;" transform="translate(240.830625 574.33625)scale(0.08 -0.08)">
    <defs>
     <path d="M 3513 2113 
L 3513 0 
L 2938 0 
L 2938 2094 
Q 2938 2591 2744 2837 
Q 2550 3084 2163 3084 
Q 1697 3084 1428 2787 
Q 1159 2491 1159 1978 
L 1159 0 
L 581 0 
L 581 4863 
L 1159 4863 
L 1159 2956 
Q 1366 3272 1645 3428 
Q 1925 3584 2291 3584 
Q 2894 3584 3203 3211 
Q 3513 2838 3513 2113 
z
" id="DejaVuSans-68" transform="scale(0.015625)"/>
     <path d="M 1159 525 
L 1159 -1331 
L 581 -1331 
L 581 3500 
L 1159 3500 
L 1159 2969 
Q 1341 3281 1617 3432 
Q 1894 3584 2278 3584 
Q 2916 3584 3314 3078 
Q 3713 2572 3713 1747 
Q 3713 922 3314 415 
Q 2916 -91 2278 -91 
Q 1894 -91 1617 61 
Q 1341 213 1159 525 
z
M 3116 1747 
Q 3116 2381 2855 2742 
Q 2594 3103 2138 3103 
Q 1681 3103 1420 2742 
Q 1159 2381 1159 1747 
Q 1159 1113 1420 752 
Q 1681 391 2138 391 
Q 2594 391 2855 752 
Q 3116 1113 3116 1747 
z
" id="DejaVuSans-70" transform="scale(0.015625)"/>
     <path d="M 750 794 
L 1409 794 
L 1409 0 
L 750 0 
L 750 794 
z
M 750 3309 
L 1409 3309 
L 1409 2516 
L 750 2516 
L 750 3309 
z
" id="DejaVuSans-3a" transform="scale(0.015625)"/>
     <path d="M 1625 4666 
L 2156 4666 
L 531 -594 
L 0 -594 
L 1625 4666 
z
" id="DejaVuSans-2f" transform="scale(0.015625)"/>
     <path d="M 3116 1747 
Q 3116 2381 2855 2742 
Q 2594 3103 2138 3103 
Q 1681 3103 1420 2742 
Q 1159 2381 1159 1747 
Q 1159 1113 1420 752 
Q 1681 391 2138 391 
Q 2594 391 2855 752 
Q 3116 1113 3116 1747 
z
M 1159 2969 
Q 1341 3281 1617 3432 
Q 1894 3584 2278 3584 
Q 2916 3584 3314 3078 
Q 3713 2572 3713 1747 
Q 3713 922 3314 415 
Q 2916 -91 2278 -91 
Q 1894 -91 1617 61 
Q 1341 213 1159 525 
L 1159 0 
L 581 0 
L 581 4863 
L 1159 4863 
L 1159 2969 
z
" id="DejaVuSans-62" transform="scale(0.015625)"/>
     <path d="M 684 794 
L 1344 794 
L 1344 0 
L 684 0 
L 684 794 
z
" id="DejaVuSans-2e" transform="scale(0.015625)"/>
     <path d="M 3122 3366 
L 3122 2828 
Q 2878 2963 2633 3030 
Q 2388 3097 2138 3097 
Q 1578 3097 1268 2742 
Q 959 2388 959 1747 
Q 959 1106 1268 751 
Q 1578 397 2138 397 
Q 2388 397 2633 464 
Q 2878 531 3122 666 
L 3122 134 
Q 2881 22 2623 -34 
Q 2366 -91 2075 -91 
Q 1284 -91 818 406 
Q 353 903 353 1747 
Q 353 2603 823 3093 
Q 1294 3584 2113 3584 
Q 2378 3584 2631 3529 
Q 2884 3475 3122 3366 
z
" id="DejaVuSans-63" transform="scale(0.015625)"/>
     <path d="M 1984 4856 
Q 1566 4138 1362 3434 
Q 1159 2731 1159 2009 
Q 1159 1288 1364 580 
Q 1569 -128 1984 -844 
L 1484 -844 
Q 1016 -109 783 600 
Q 550 1309 550 2009 
Q 550 2706 781 3412 
Q 1013 4119 1484 4856 
L 1984 4856 
z
" id="DejaVuSans-28" transform="scale(0.015625)"/>
     <path d="M 313 2009 
L 1997 2009 
L 1997 1497 
L 313 1497 
L 313 2009 
z
" id="DejaVuSans-2d" transform="scale(0.015625)"/>
     <path d="M 513 4856 
L 1013 4856 
Q 1481 4119 1714 3412 
Q 1947 2706 1947 2009 
Q 1947 1309 1714 600 
Q 1481 -109 1013 -844 
L 513 -844 
Q 928 -128 1133 580 
Q 1338 1288 1338 2009 
Q 1338 2731 1133 3434 
Q 928 4138 513 4856 
z
" id="DejaVuSans-29" transform="scale(0.015625)"/>
    </defs>
    <use xlink:href="#DejaVuSans-68"/>
    <use x="63.378906" xlink:href="#DejaVuSans-74"/>
    <use x="102.587891" xlink:href="#DejaVuSans-74"/>
    <use x="141.796875" xlink:href="#DejaVuSans-70"/>
    <use x="205.273438" xlink:href="#DejaVuSans-73"/>
    <use x="257.373047" xlink:href="#DejaVuSans-3a"/>
    <use x="291.064453" xlink:href="#DejaVuSans-2f"/>
    <use x="324.755859" xlink:href="#DejaVuSans-2f"/>
    <use x="358.447266" xlink:href="#DejaVuSans-67"/>
    <use x="421.923828" xlink:href="#DejaVuSans-69"/>
    <use x="449.707031" xlink:href="#DejaVuSans-74"/>
    <use x="488.916016" xlink:href="#DejaVuSans-68"/>
    <use x="552.294922" xlink:href="#DejaVuSans-75"/>
    <use x="615.673828" xlink:href="#DejaVuSans-62"/>
    <use x="679.150391" xlink:href="#DejaVuSans-2e"/>
    <use x="710.9375" xlink:href="#DejaVuSans-63"/>
    <use x="765.917969" xlink:href="#DejaVuSans-6f"/>
    <use x="827.099609" xlink:href="#DejaVuSans-6d"/>
    <use x="924.511719" xlink:href="#DejaVuSans-2f"/>
    <use x="958.203125" xlink:href="#DejaVuSans-62"/>
    <use x="1021.679688" xlink:href="#DejaVuSans-69"/>
    <use x="1049.462891" xlink:href="#DejaVuSans-6f"/>
    <use x="1110.644531" xlink:href="#DejaVuSans-72"/>
    <use x="1149.507812" xlink:href="#DejaVuSans-65"/>
    <use x="1211.03125" xlink:href="#DejaVuSans-67"/>
    <use x="1274.507812" xlink:href="#DejaVuSans-69"/>
    <use x="1302.291016" xlink:href="#DejaVuSans-73"/>
    <use x="1354.390625" xlink:href="#DejaVuSans-74"/>
    <use x="1393.599609" xlink:href="#DejaVuSans-72"/>
    <use x="1434.712891" xlink:href="#DejaVuSans-79"/>
    <use x="1493.892578" xlink:href="#DejaVuSans-2f"/>
    <use x="1527.583984" xlink:href="#DejaVuSans-62"/>
    <use x="1591.060547" xlink:href="#DejaVuSans-69"/>
    <use x="1618.84375" xlink:href="#DejaVuSans-6f"/>
    <use x="1680.025391" xlink:href="#DejaVuSans-72"/>
    <use x="1718.888672" xlink:href="#DejaVuSans-65"/>
    <use x="1780.412109" xlink:href="#DejaVuSans-67"/>
    <use x="1843.888672" xlink:href="#DejaVuSans-69"/>
    <use x="1871.671875" xlink:href="#DejaVuSans-73"/>
    <use x="1923.771484" xlink:href="#DejaVuSans-74"/>
    <use x="1962.980469" xlink:href="#DejaVuSans-72"/>
    <use x="2004.09375" xlink:href="#DejaVuSans-79"/>
    <use x="2063.273438" xlink:href="#DejaVuSans-20"/>
    <use x="2095.060547" xlink:href="#DejaVuSans-28"/>
    <use x="2134.074219" xlink:href="#DejaVuSans-32"/>
    <use x="2197.697266" xlink:href="#DejaVuSans-30"/>
    <use x="2261.320312" xlink:href="#DejaVuSans-32"/>
    <use x="2324.943359" xlink:href="#DejaVuSans-31"/>
    <use x="2388.566406" xlink:href="#DejaVuSans-2d"/>
    <use x="2424.650391" xlink:href="#DejaVuSans-30"/>
    <use x="2488.273438" xlink:href="#DejaVuSans-38"/>
    <use x="2551.896484" xlink:href="#DejaVuSans-2d"/>
    <use x="2587.980469" xlink:href="#DejaVuSans-32"/>
    <use x="2651.603516" xlink:href="#DejaVuSans-32"/>
    <use x="2715.226562" xlink:href="#DejaVuSans-29"/>
   </g>
  </g>
 </g>
 <defs>
  <clipPath id="p13cf98421a">
   <rect height="121.423482" width="122.879561" x="53.670241" y="10.8"/>
  </clipPath>
  <clipPath id="p9cdfaf530f">
   <rect height="121.423482" width="122.502731" x="279.849091" y="10.8"/>
  </clipPath>
  <clipPath id="p8a3e9c1917">
   <rect height="121.423482" width="124.105606" x="505.038089" y="10.8"/>
  </clipPath>
  <clipPath id="p66bc9a3333">
   <rect height="121.423482" width="154.825109" x="37.697467" y="152.357349"/>
  </clipPath>
  <clipPath id="p32827c7b98">
   <rect height="121.423482" width="123.568734" x="279.31609" y="152.357349"/>
  </clipPath>
  <clipPath id="p177230418e">
   <rect height="121.423482" width="142.316595" x="495.932594" y="152.357349"/>
  </clipPath>
  <clipPath id="p5793d74ef3">
   <rect height="121.423482" width="171.712794" x="29.253624" y="293.914698"/>
  </clipPath>
  <clipPath id="pe06787cf96">
   <rect height="121.423482" width="132.28751" x="274.956701" y="293.914698"/>
  </clipPath>
  <clipPath id="pd55a901c50">
   <rect height="121.423482" width="134.07653" x="500.052627" y="293.914698"/>
  </clipPath>
  <clipPath id="p4e93ee2604">
   <rect height="121.423482" width="135.810179" x="47.204932" y="435.472048"/>
  </clipPath>
  <clipPath id="pe146e73494">
   <rect height="121.423482" width="140.020796" x="271.090059" y="435.472048"/>
  </clipPath>
  <clipPath id="pd17c044e4c">
   <rect height="121.423482" width="138.22409" x="497.978847" y="435.472048"/>
  </clipPath>
 </defs>
</svg>
