<?xml version="1.0" encoding="utf-8" standalone="no"?>
<!DOCTYPE svg PUBLIC "-//W3C//DTD SVG 1.1//EN"
  "http://www.w3.org/Graphics/SVG/1.1/DTD/svg11.dtd">
<svg height="576pt" version="1.1" viewBox="0 0 702 576" width="702pt" xmlns="http://www.w3.org/2000/svg" xmlns:xlink="http://www.w3.org/1999/xlink">
 <metadata>
  <rdf:RDF xmlns:cc="http://creativecommons.org/ns#" xmlns:dc="http://purl.org/dc/elements/1.1/" xmlns:rdf="http://www.w3.org/1999/02/22-rdf-syntax-ns#">
   <cc:Work>
    <dc:type rdf:resource="http://purl.org/dc/dcmitype/StillImage"/>
    <dc:date>2021-07-12T22:53:39.815708</dc:date>
    <dc:format>image/svg+xml</dc:format>
    <dc:creator>
     <cc:Agent>
      <dc:title>Matplotlib v3.4.2, https://matplotlib.org/</dc:title>
     </cc:Agent>
    </dc:creator>
   </cc:Work>
  </rdf:RDF>
 </metadata>
 <defs>
  <style type="text/css">*{stroke-linecap:butt;stroke-linejoin:round;}</style>
 </defs>
 <g id="figure_1">
  <g id="patch_1">
   <path d="M 0 576 
L 702 576 
L 702 0 
L 0 0 
z
" style="fill:#ffffff;"/>
  </g>
  <g id="axes_1">
   <g id="patch_2">
    <path clip-path="url(#pe28be79b7b)" d="M 171.417819 83.513765 
C 170.196827 85.89365 168.586678 88.052853 166.654001 89.902023 
C 164.721324 91.751192 162.493153 93.264465 160.061693 94.379217 
C 157.630234 95.493969 155.029495 96.194609 152.3671 96.452143 
C 149.704706 96.709677 147.017895 96.520502 144.417853 95.892448 
C 141.817811 95.264394 139.340906 94.206245 137.089636 92.761789 
C 134.838367 91.317333 132.844221 89.506774 131.189722 87.405037 
C 129.535222 85.303299 128.243511 82.939781 127.36804 80.412288 
C 126.49257 77.884795 126.045586 75.22868 126.045586 72.553859 
C 126.045586 69.879038 126.49257 67.222923 127.36804 64.69543 
C 128.243511 62.167937 129.535222 59.804419 131.189722 57.702681 
C 132.844221 55.600944 134.838367 53.790385 137.089636 52.345929 
C 139.340906 50.901473 141.817811 49.843324 144.417853 49.21527 
C 147.017895 48.587216 149.704706 48.398041 152.3671 48.655575 
C 155.029495 48.913109 157.630234 49.613749 160.061693 50.728501 
C 162.493153 51.843254 164.721324 53.356526 166.654001 55.205696 
C 168.586678 57.054865 170.196827 59.214069 171.417819 61.593953 
C 170.075578 55.31278 167.590818 49.331285 164.087489 43.947846 
C 160.584159 38.564407 156.121498 33.870052 150.922119 30.098953 
C 145.722739 26.327854 139.874558 23.543776 133.669303 21.8856 
C 127.464048 20.227424 121.006645 19.723187 114.619211 20.398043 
C 108.231778 21.072899 102.02232 22.915436 96.300587 25.833742 
C 90.578854 28.752049 85.441596 32.696778 81.145077 37.471154 
C 76.848559 42.245529 73.465429 47.768821 71.164452 53.765507 
C 68.863475 59.762192 67.683557 66.130874 67.683557 72.553859 
C 67.683557 78.976844 68.863475 85.345526 71.164452 91.342211 
C 73.465429 97.338897 76.848559 102.862189 81.145077 107.636564 
C 85.441596 112.41094 90.578854 116.355669 96.300587 119.273976 
C 102.02232 122.192282 108.231778 124.034819 114.619211 124.709675 
C 121.006645 125.384531 127.464048 124.880294 133.669303 123.222118 
C 139.874558 121.563942 145.722739 118.779864 150.922119 115.008765 
C 156.121498 111.237666 160.584159 106.543311 164.087489 101.159872 
C 167.590818 95.776433 170.075578 89.794938 171.417819 83.513765 
" style="fill:#c0c0c0;opacity:0.4;"/>
   </g>
   <g id="patch_3">
    <path clip-path="url(#pe28be79b7b)" d="M 171.417819 61.593953 
C 172.187644 65.196442 172.575773 68.870035 172.575773 72.553859 
C 172.575773 76.237683 172.187644 79.911276 171.417819 83.513765 
C 173.15766 80.122568 174.065243 76.365324 174.065243 72.553859 
C 174.065243 68.742394 173.15766 64.98515 171.417819 61.593953 
" style="fill:#a6cee3;opacity:0.4;"/>
   </g>
   <g id="patch_4">
    <path clip-path="url(#pe28be79b7b)" d="M 171.417819 83.513765 
C 172.187644 79.911276 172.575773 76.237683 172.575773 72.553859 
C 172.575773 68.870035 172.187644 65.196442 171.417819 61.593953 
C 170.196827 59.214069 168.586678 57.054865 166.654001 55.205696 
C 164.721324 53.356526 162.493153 51.843254 160.061693 50.728501 
C 157.630234 49.613749 155.029495 48.913109 152.3671 48.655575 
C 149.704706 48.398041 147.017895 48.587216 144.417853 49.21527 
C 141.817811 49.843324 139.340906 50.901473 137.089636 52.345929 
C 134.838367 53.790385 132.844221 55.600944 131.189722 57.702681 
C 129.535222 59.804419 128.243511 62.167937 127.36804 64.69543 
C 126.49257 67.222923 126.045586 69.879038 126.045586 72.553859 
C 126.045586 75.22868 126.49257 77.884795 127.36804 80.412288 
C 128.243511 82.939781 129.535222 85.303299 131.189722 87.405037 
C 132.844221 89.506774 134.838367 91.317333 137.089636 92.761789 
C 139.340906 94.206245 141.817811 95.264394 144.417853 95.892448 
C 147.017895 96.520502 149.704706 96.709677 152.3671 96.452143 
C 155.029495 96.194609 157.630234 95.493969 160.061693 94.379217 
C 162.493153 93.264465 164.721324 91.751192 166.654001 89.902023 
C 168.586678 88.052853 170.196827 85.89365 171.417819 83.513765 
" style="fill:#fbffff;opacity:0.4;"/>
   </g>
   <g id="text_1">
    <!-- 927 -->
    <g style="fill:#262626;" transform="translate(88.523165 75.139015)scale(0.1 -0.1)">
     <defs>
      <path d="M 350 1059 
L 891 1109 
Q 959 728 1153 556 
Q 1347 384 1650 384 
Q 1909 384 2104 503 
Q 2300 622 2425 820 
Q 2550 1019 2634 1356 
Q 2719 1694 2719 2044 
Q 2719 2081 2716 2156 
Q 2547 1888 2255 1720 
Q 1963 1553 1622 1553 
Q 1053 1553 659 1965 
Q 266 2378 266 3053 
Q 266 3750 677 4175 
Q 1088 4600 1706 4600 
Q 2153 4600 2523 4359 
Q 2894 4119 3086 3673 
Q 3278 3228 3278 2384 
Q 3278 1506 3087 986 
Q 2897 466 2520 194 
Q 2144 -78 1638 -78 
Q 1100 -78 759 220 
Q 419 519 350 1059 
z
M 2653 3081 
Q 2653 3566 2395 3850 
Q 2138 4134 1775 4134 
Q 1400 4134 1122 3828 
Q 844 3522 844 3034 
Q 844 2597 1108 2323 
Q 1372 2050 1759 2050 
Q 2150 2050 2401 2323 
Q 2653 2597 2653 3081 
z
" id="ArialMT-39" transform="scale(0.015625)"/>
      <path d="M 3222 541 
L 3222 0 
L 194 0 
Q 188 203 259 391 
Q 375 700 629 1000 
Q 884 1300 1366 1694 
Q 2113 2306 2375 2664 
Q 2638 3022 2638 3341 
Q 2638 3675 2398 3904 
Q 2159 4134 1775 4134 
Q 1369 4134 1125 3890 
Q 881 3647 878 3216 
L 300 3275 
Q 359 3922 746 4261 
Q 1134 4600 1788 4600 
Q 2447 4600 2831 4234 
Q 3216 3869 3216 3328 
Q 3216 3053 3103 2787 
Q 2991 2522 2730 2228 
Q 2469 1934 1863 1422 
Q 1356 997 1212 845 
Q 1069 694 975 541 
L 3222 541 
z
" id="ArialMT-32" transform="scale(0.015625)"/>
      <path d="M 303 3981 
L 303 4522 
L 3269 4522 
L 3269 4084 
Q 2831 3619 2401 2847 
Q 1972 2075 1738 1259 
Q 1569 684 1522 0 
L 944 0 
Q 953 541 1156 1306 
Q 1359 2072 1739 2783 
Q 2119 3494 2547 3981 
L 303 3981 
z
" id="ArialMT-37" transform="scale(0.015625)"/>
     </defs>
     <use xlink:href="#ArialMT-39"/>
     <use x="55.615234" xlink:href="#ArialMT-32"/>
     <use x="111.230469" xlink:href="#ArialMT-37"/>
    </g>
   </g>
   <g id="text_2">
    <!-- 3 -->
    <g style="fill:#262626;" transform="translate(170.540039 75.139015)scale(0.1 -0.1)">
     <defs>
      <path d="M 269 1209 
L 831 1284 
Q 928 806 1161 595 
Q 1394 384 1728 384 
Q 2125 384 2398 659 
Q 2672 934 2672 1341 
Q 2672 1728 2419 1979 
Q 2166 2231 1775 2231 
Q 1616 2231 1378 2169 
L 1441 2663 
Q 1497 2656 1531 2656 
Q 1891 2656 2178 2843 
Q 2466 3031 2466 3422 
Q 2466 3731 2256 3934 
Q 2047 4138 1716 4138 
Q 1388 4138 1169 3931 
Q 950 3725 888 3313 
L 325 3413 
Q 428 3978 793 4289 
Q 1159 4600 1703 4600 
Q 2078 4600 2393 4439 
Q 2709 4278 2876 4000 
Q 3044 3722 3044 3409 
Q 3044 3113 2884 2869 
Q 2725 2625 2413 2481 
Q 2819 2388 3044 2092 
Q 3269 1797 3269 1353 
Q 3269 753 2831 336 
Q 2394 -81 1725 -81 
Q 1122 -81 723 278 
Q 325 638 269 1209 
z
" id="ArialMT-33" transform="scale(0.015625)"/>
     </defs>
     <use xlink:href="#ArialMT-33"/>
    </g>
   </g>
   <g id="text_3">
    <!-- 242 -->
    <g style="fill:#262626;" transform="translate(140.969273 75.139015)scale(0.1 -0.1)">
     <defs>
      <path d="M 2069 0 
L 2069 1097 
L 81 1097 
L 81 1613 
L 2172 4581 
L 2631 4581 
L 2631 1613 
L 3250 1613 
L 3250 1097 
L 2631 1097 
L 2631 0 
L 2069 0 
z
M 2069 1613 
L 2069 3678 
L 634 1613 
L 2069 1613 
z
" id="ArialMT-34" transform="scale(0.015625)"/>
     </defs>
     <use xlink:href="#ArialMT-32"/>
     <use x="55.615234" xlink:href="#ArialMT-34"/>
     <use x="111.230469" xlink:href="#ArialMT-32"/>
    </g>
   </g>
   <g id="text_4">
    <!-- Bioregistry -->
    <g style="fill:#262626;" transform="translate(63.448415 137.412139)scale(0.12 -0.12)">
     <defs>
      <path d="M 469 0 
L 469 4581 
L 2188 4581 
Q 2713 4581 3030 4442 
Q 3347 4303 3526 4014 
Q 3706 3725 3706 3409 
Q 3706 3116 3547 2856 
Q 3388 2597 3066 2438 
Q 3481 2316 3704 2022 
Q 3928 1728 3928 1328 
Q 3928 1006 3792 729 
Q 3656 453 3456 303 
Q 3256 153 2954 76 
Q 2653 0 2216 0 
L 469 0 
z
M 1075 2656 
L 2066 2656 
Q 2469 2656 2644 2709 
Q 2875 2778 2992 2937 
Q 3109 3097 3109 3338 
Q 3109 3566 3000 3739 
Q 2891 3913 2687 3977 
Q 2484 4041 1991 4041 
L 1075 4041 
L 1075 2656 
z
M 1075 541 
L 2216 541 
Q 2509 541 2628 563 
Q 2838 600 2978 687 
Q 3119 775 3209 942 
Q 3300 1109 3300 1328 
Q 3300 1584 3169 1773 
Q 3038 1963 2805 2039 
Q 2572 2116 2134 2116 
L 1075 2116 
L 1075 541 
z
" id="ArialMT-42" transform="scale(0.015625)"/>
      <path d="M 425 3934 
L 425 4581 
L 988 4581 
L 988 3934 
L 425 3934 
z
M 425 0 
L 425 3319 
L 988 3319 
L 988 0 
L 425 0 
z
" id="ArialMT-69" transform="scale(0.015625)"/>
      <path d="M 213 1659 
Q 213 2581 725 3025 
Q 1153 3394 1769 3394 
Q 2453 3394 2887 2945 
Q 3322 2497 3322 1706 
Q 3322 1066 3130 698 
Q 2938 331 2570 128 
Q 2203 -75 1769 -75 
Q 1072 -75 642 372 
Q 213 819 213 1659 
z
M 791 1659 
Q 791 1022 1069 705 
Q 1347 388 1769 388 
Q 2188 388 2466 706 
Q 2744 1025 2744 1678 
Q 2744 2294 2464 2611 
Q 2184 2928 1769 2928 
Q 1347 2928 1069 2612 
Q 791 2297 791 1659 
z
" id="ArialMT-6f" transform="scale(0.015625)"/>
      <path d="M 416 0 
L 416 3319 
L 922 3319 
L 922 2816 
Q 1116 3169 1280 3281 
Q 1444 3394 1641 3394 
Q 1925 3394 2219 3213 
L 2025 2691 
Q 1819 2813 1613 2813 
Q 1428 2813 1281 2702 
Q 1134 2591 1072 2394 
Q 978 2094 978 1738 
L 978 0 
L 416 0 
z
" id="ArialMT-72" transform="scale(0.015625)"/>
      <path d="M 2694 1069 
L 3275 997 
Q 3138 488 2766 206 
Q 2394 -75 1816 -75 
Q 1088 -75 661 373 
Q 234 822 234 1631 
Q 234 2469 665 2931 
Q 1097 3394 1784 3394 
Q 2450 3394 2872 2941 
Q 3294 2488 3294 1666 
Q 3294 1616 3291 1516 
L 816 1516 
Q 847 969 1125 678 
Q 1403 388 1819 388 
Q 2128 388 2347 550 
Q 2566 713 2694 1069 
z
M 847 1978 
L 2700 1978 
Q 2663 2397 2488 2606 
Q 2219 2931 1791 2931 
Q 1403 2931 1139 2672 
Q 875 2413 847 1978 
z
" id="ArialMT-65" transform="scale(0.015625)"/>
      <path d="M 319 -275 
L 866 -356 
Q 900 -609 1056 -725 
Q 1266 -881 1628 -881 
Q 2019 -881 2231 -725 
Q 2444 -569 2519 -288 
Q 2563 -116 2559 434 
Q 2191 0 1641 0 
Q 956 0 581 494 
Q 206 988 206 1678 
Q 206 2153 378 2554 
Q 550 2956 876 3175 
Q 1203 3394 1644 3394 
Q 2231 3394 2613 2919 
L 2613 3319 
L 3131 3319 
L 3131 450 
Q 3131 -325 2973 -648 
Q 2816 -972 2473 -1159 
Q 2131 -1347 1631 -1347 
Q 1038 -1347 672 -1080 
Q 306 -813 319 -275 
z
M 784 1719 
Q 784 1066 1043 766 
Q 1303 466 1694 466 
Q 2081 466 2343 764 
Q 2606 1063 2606 1700 
Q 2606 2309 2336 2618 
Q 2066 2928 1684 2928 
Q 1309 2928 1046 2623 
Q 784 2319 784 1719 
z
" id="ArialMT-67" transform="scale(0.015625)"/>
      <path d="M 197 991 
L 753 1078 
Q 800 744 1014 566 
Q 1228 388 1613 388 
Q 2000 388 2187 545 
Q 2375 703 2375 916 
Q 2375 1106 2209 1216 
Q 2094 1291 1634 1406 
Q 1016 1563 777 1677 
Q 538 1791 414 1992 
Q 291 2194 291 2438 
Q 291 2659 392 2848 
Q 494 3038 669 3163 
Q 800 3259 1026 3326 
Q 1253 3394 1513 3394 
Q 1903 3394 2198 3281 
Q 2494 3169 2634 2976 
Q 2775 2784 2828 2463 
L 2278 2388 
Q 2241 2644 2061 2787 
Q 1881 2931 1553 2931 
Q 1166 2931 1000 2803 
Q 834 2675 834 2503 
Q 834 2394 903 2306 
Q 972 2216 1119 2156 
Q 1203 2125 1616 2013 
Q 2213 1853 2448 1751 
Q 2684 1650 2818 1456 
Q 2953 1263 2953 975 
Q 2953 694 2789 445 
Q 2625 197 2315 61 
Q 2006 -75 1616 -75 
Q 969 -75 630 194 
Q 291 463 197 991 
z
" id="ArialMT-73" transform="scale(0.015625)"/>
      <path d="M 1650 503 
L 1731 6 
Q 1494 -44 1306 -44 
Q 1000 -44 831 53 
Q 663 150 594 308 
Q 525 466 525 972 
L 525 2881 
L 113 2881 
L 113 3319 
L 525 3319 
L 525 4141 
L 1084 4478 
L 1084 3319 
L 1650 3319 
L 1650 2881 
L 1084 2881 
L 1084 941 
Q 1084 700 1114 631 
Q 1144 563 1211 522 
Q 1278 481 1403 481 
Q 1497 481 1650 503 
z
" id="ArialMT-74" transform="scale(0.015625)"/>
      <path d="M 397 -1278 
L 334 -750 
Q 519 -800 656 -800 
Q 844 -800 956 -737 
Q 1069 -675 1141 -563 
Q 1194 -478 1313 -144 
Q 1328 -97 1363 -6 
L 103 3319 
L 709 3319 
L 1400 1397 
Q 1534 1031 1641 628 
Q 1738 1016 1872 1384 
L 2581 3319 
L 3144 3319 
L 1881 -56 
Q 1678 -603 1566 -809 
Q 1416 -1088 1222 -1217 
Q 1028 -1347 759 -1347 
Q 597 -1347 397 -1278 
z
" id="ArialMT-79" transform="scale(0.015625)"/>
     </defs>
     <use xlink:href="#ArialMT-42"/>
     <use x="66.699219" xlink:href="#ArialMT-69"/>
     <use x="88.916016" xlink:href="#ArialMT-6f"/>
     <use x="144.53125" xlink:href="#ArialMT-72"/>
     <use x="177.832031" xlink:href="#ArialMT-65"/>
     <use x="233.447266" xlink:href="#ArialMT-67"/>
     <use x="289.0625" xlink:href="#ArialMT-69"/>
     <use x="311.279297" xlink:href="#ArialMT-73"/>
     <use x="361.279297" xlink:href="#ArialMT-74"/>
     <use x="389.0625" xlink:href="#ArialMT-72"/>
     <use x="422.363281" xlink:href="#ArialMT-79"/>
    </g>
   </g>
   <g id="text_5">
    <!-- OBO -->
    <g style="fill:#262626;" transform="translate(150.055415 108.975859)scale(0.12 -0.12)">
     <defs>
      <path d="M 309 2231 
Q 309 3372 921 4017 
Q 1534 4663 2503 4663 
Q 3138 4663 3647 4359 
Q 4156 4056 4423 3514 
Q 4691 2972 4691 2284 
Q 4691 1588 4409 1038 
Q 4128 488 3612 205 
Q 3097 -78 2500 -78 
Q 1853 -78 1343 234 
Q 834 547 571 1087 
Q 309 1628 309 2231 
z
M 934 2222 
Q 934 1394 1379 917 
Q 1825 441 2497 441 
Q 3181 441 3623 922 
Q 4066 1403 4066 2288 
Q 4066 2847 3877 3264 
Q 3688 3681 3323 3911 
Q 2959 4141 2506 4141 
Q 1863 4141 1398 3698 
Q 934 3256 934 2222 
z
" id="ArialMT-4f" transform="scale(0.015625)"/>
     </defs>
     <use xlink:href="#ArialMT-4f"/>
     <use x="77.783203" xlink:href="#ArialMT-42"/>
     <use x="144.482422" xlink:href="#ArialMT-4f"/>
    </g>
   </g>
  </g>
  <g id="axes_2">
   <g id="patch_5">
    <path clip-path="url(#p53ab79e4ae)" d="M 403.443177 73.493042 
C 403.321334 76.723381 402.572024 79.899355 401.237118 82.843495 
C 399.902212 85.787635 398.007045 88.444064 395.657516 90.664346 
C 393.307987 92.884627 390.548689 94.626622 387.533805 95.792989 
C 384.518921 96.959357 381.305674 97.52796 378.073612 97.467028 
C 374.84155 97.406096 371.652017 96.716784 368.683238 95.437609 
C 365.714459 94.158435 363.022779 92.313676 360.758606 90.006415 
C 358.494432 87.699154 356.700737 84.973181 355.477749 81.980818 
C 354.25476 78.988454 353.625691 75.786495 353.625691 72.553859 
C 353.625691 69.321223 354.25476 66.119264 355.477749 63.126901 
C 356.700737 60.134538 358.494432 57.408564 360.758606 55.101303 
C 363.022779 52.794042 365.714459 50.949283 368.683238 49.670109 
C 371.652017 48.390935 374.84155 47.701622 378.073612 47.64069 
C 381.305674 47.579758 384.518921 48.148362 387.533805 49.314729 
C 390.548689 50.481097 393.307987 52.223091 395.657516 54.443372 
C 398.007045 56.663654 399.902212 59.320083 401.237118 62.264223 
C 402.572024 65.208364 403.321334 68.384337 403.443177 71.614676 
C 403.320552 64.766792 401.857958 58.008748 399.138157 51.722951 
C 396.418356 45.437155 392.493635 39.744448 387.586077 34.966956 
C 382.678519 30.189465 376.882469 26.419033 370.525901 23.869014 
C 364.169333 21.318996 357.374448 20.038412 350.525741 20.099727 
C 343.677033 20.161042 336.906166 21.563077 330.596273 24.226496 
C 324.286379 26.889914 318.558765 30.763515 313.73753 35.628106 
C 308.916296 40.492697 305.094127 46.25476 302.487303 52.588245 
C 299.88048 58.921729 298.539117 65.704877 298.539117 72.553859 
C 298.539117 79.402841 299.88048 86.185989 302.487303 92.519473 
C 305.094127 98.852958 308.916296 104.615021 313.73753 109.479612 
C 318.558765 114.344203 324.286379 118.217804 330.596273 120.881222 
C 336.906166 123.544641 343.677033 124.946676 350.525741 125.007991 
C 357.374448 125.069306 364.169333 123.788722 370.525901 121.238704 
C 376.882469 118.688685 382.678519 114.918253 387.586077 110.140762 
C 392.493635 105.36327 396.418356 99.670563 399.138157 93.384767 
C 401.857958 87.098971 403.320552 80.340926 403.443177 73.493042 
" style="fill:#c0c0c0;opacity:0.4;"/>
   </g>
   <g id="patch_6">
    <path clip-path="url(#p53ab79e4ae)" d="M 403.443177 71.614676 
C 403.448782 71.927706 403.451585 72.240779 403.451585 72.553859 
C 403.451585 72.866939 403.448782 73.180012 403.443177 73.493042 
C 403.45498 73.18012 403.460883 72.867003 403.460883 72.553859 
C 403.460883 72.240715 403.45498 71.927598 403.443177 71.614676 
" style="fill:#1f78b4;opacity:0.4;"/>
   </g>
   <g id="patch_7">
    <path clip-path="url(#p53ab79e4ae)" d="M 403.443177 73.493042 
C 403.448782 73.180012 403.451585 72.866939 403.451585 72.553859 
C 403.451585 72.240779 403.448782 71.927706 403.443177 71.614676 
C 403.321334 68.384337 402.572024 65.208364 401.237118 62.264223 
C 399.902212 59.320083 398.007045 56.663654 395.657516 54.443372 
C 393.307987 52.223091 390.548689 50.481097 387.533805 49.314729 
C 384.518921 48.148362 381.305674 47.579758 378.073612 47.64069 
C 374.84155 47.701622 371.652017 48.390935 368.683238 49.670109 
C 365.714459 50.949283 363.022779 52.794042 360.758606 55.101303 
C 358.494432 57.408564 356.700737 60.134538 355.477749 63.126901 
C 354.25476 66.119264 353.625691 69.321223 353.625691 72.553859 
C 353.625691 75.786495 354.25476 78.988454 355.477749 81.980818 
C 356.700737 84.973181 358.494432 87.699154 360.758606 90.006415 
C 363.022779 92.313676 365.714459 94.158435 368.683238 95.437609 
C 371.652017 96.716784 374.84155 97.406096 378.073612 97.467028 
C 381.305674 97.52796 384.518921 96.959357 387.533805 95.792989 
C 390.548689 94.626622 393.307987 92.884627 395.657516 90.664346 
C 398.007045 88.444064 399.902212 85.787635 401.237118 82.843495 
C 402.572024 79.899355 403.321334 76.723381 403.443177 73.493042 
" style="fill:#9cdaff;opacity:0.4;"/>
   </g>
   <g id="text_6">
    <!-- 906 -->
    <g style="fill:#262626;" transform="translate(317.740998 75.139015)scale(0.1 -0.1)">
     <defs>
      <path d="M 266 2259 
Q 266 3072 433 3567 
Q 600 4063 929 4331 
Q 1259 4600 1759 4600 
Q 2128 4600 2406 4451 
Q 2684 4303 2865 4023 
Q 3047 3744 3150 3342 
Q 3253 2941 3253 2259 
Q 3253 1453 3087 958 
Q 2922 463 2592 192 
Q 2263 -78 1759 -78 
Q 1097 -78 719 397 
Q 266 969 266 2259 
z
M 844 2259 
Q 844 1131 1108 757 
Q 1372 384 1759 384 
Q 2147 384 2411 759 
Q 2675 1134 2675 2259 
Q 2675 3391 2411 3762 
Q 2147 4134 1753 4134 
Q 1366 4134 1134 3806 
Q 844 3388 844 2259 
z
" id="ArialMT-30" transform="scale(0.015625)"/>
      <path d="M 3184 3459 
L 2625 3416 
Q 2550 3747 2413 3897 
Q 2184 4138 1850 4138 
Q 1581 4138 1378 3988 
Q 1113 3794 959 3422 
Q 806 3050 800 2363 
Q 1003 2672 1297 2822 
Q 1591 2972 1913 2972 
Q 2475 2972 2870 2558 
Q 3266 2144 3266 1488 
Q 3266 1056 3080 686 
Q 2894 316 2569 119 
Q 2244 -78 1831 -78 
Q 1128 -78 684 439 
Q 241 956 241 2144 
Q 241 3472 731 4075 
Q 1159 4600 1884 4600 
Q 2425 4600 2770 4297 
Q 3116 3994 3184 3459 
z
M 888 1484 
Q 888 1194 1011 928 
Q 1134 663 1356 523 
Q 1578 384 1822 384 
Q 2178 384 2434 671 
Q 2691 959 2691 1453 
Q 2691 1928 2437 2201 
Q 2184 2475 1800 2475 
Q 1419 2475 1153 2201 
Q 888 1928 888 1484 
z
" id="ArialMT-36" transform="scale(0.015625)"/>
     </defs>
     <use xlink:href="#ArialMT-39"/>
     <use x="55.615234" xlink:href="#ArialMT-30"/>
     <use x="111.230469" xlink:href="#ArialMT-36"/>
    </g>
   </g>
   <g id="text_7">
    <!-- 0 -->
    <g style="fill:#262626;" transform="translate(400.675765 75.139015)scale(0.1 -0.1)">
     <use xlink:href="#ArialMT-30"/>
    </g>
   </g>
   <g id="text_8">
    <!-- 264 -->
    <g style="fill:#262626;" transform="translate(370.197232 75.139015)scale(0.1 -0.1)">
     <use xlink:href="#ArialMT-32"/>
     <use x="55.615234" xlink:href="#ArialMT-36"/>
     <use x="111.230469" xlink:href="#ArialMT-34"/>
    </g>
   </g>
   <g id="text_9">
    <!-- Bioregistry -->
    <g style="fill:#262626;" transform="translate(294.314101 137.468159)scale(0.12 -0.12)">
     <use xlink:href="#ArialMT-42"/>
     <use x="66.699219" xlink:href="#ArialMT-69"/>
     <use x="88.916016" xlink:href="#ArialMT-6f"/>
     <use x="144.53125" xlink:href="#ArialMT-72"/>
     <use x="177.832031" xlink:href="#ArialMT-65"/>
     <use x="233.447266" xlink:href="#ArialMT-67"/>
     <use x="289.0625" xlink:href="#ArialMT-69"/>
     <use x="311.279297" xlink:href="#ArialMT-73"/>
     <use x="361.279297" xlink:href="#ArialMT-74"/>
     <use x="389.0625" xlink:href="#ArialMT-72"/>
     <use x="422.363281" xlink:href="#ArialMT-79"/>
    </g>
   </g>
   <g id="text_10">
    <!-- OLS -->
    <g style="fill:#262626;" transform="translate(378.543287 109.929521)scale(0.12 -0.12)">
     <defs>
      <path d="M 469 0 
L 469 4581 
L 1075 4581 
L 1075 541 
L 3331 541 
L 3331 0 
L 469 0 
z
" id="ArialMT-4c" transform="scale(0.015625)"/>
      <path d="M 288 1472 
L 859 1522 
Q 900 1178 1048 958 
Q 1197 738 1509 602 
Q 1822 466 2213 466 
Q 2559 466 2825 569 
Q 3091 672 3220 851 
Q 3350 1031 3350 1244 
Q 3350 1459 3225 1620 
Q 3100 1781 2813 1891 
Q 2628 1963 1997 2114 
Q 1366 2266 1113 2400 
Q 784 2572 623 2826 
Q 463 3081 463 3397 
Q 463 3744 659 4045 
Q 856 4347 1234 4503 
Q 1613 4659 2075 4659 
Q 2584 4659 2973 4495 
Q 3363 4331 3572 4012 
Q 3781 3694 3797 3291 
L 3216 3247 
Q 3169 3681 2898 3903 
Q 2628 4125 2100 4125 
Q 1550 4125 1298 3923 
Q 1047 3722 1047 3438 
Q 1047 3191 1225 3031 
Q 1400 2872 2139 2705 
Q 2878 2538 3153 2413 
Q 3553 2228 3743 1945 
Q 3934 1663 3934 1294 
Q 3934 928 3725 604 
Q 3516 281 3123 101 
Q 2731 -78 2241 -78 
Q 1619 -78 1198 103 
Q 778 284 539 648 
Q 300 1013 288 1472 
z
" id="ArialMT-53" transform="scale(0.015625)"/>
     </defs>
     <use xlink:href="#ArialMT-4f"/>
     <use x="77.783203" xlink:href="#ArialMT-4c"/>
     <use x="133.398438" xlink:href="#ArialMT-53"/>
    </g>
   </g>
  </g>
  <g id="axes_3">
   <g id="patch_8">
    <path clip-path="url(#pe1f32bb43c)" d="M 628.58288 93.445099 
C 626.300908 97.37704 623.390041 100.908654 619.966137 103.899378 
C 616.542232 106.890103 612.651326 109.299726 608.44828 111.032343 
C 604.245234 112.764959 599.786561 113.797273 595.249721 114.088197 
C 590.712881 114.379121 586.158874 113.924744 581.768955 112.743149 
C 577.379036 111.561555 573.212229 109.668631 569.434379 107.139718 
C 565.656529 104.610804 562.31843 101.479904 559.552943 97.871631 
C 556.787456 94.263358 554.631763 90.226227 553.171665 85.92092 
C 551.711567 81.615613 550.966694 77.100017 550.966694 72.553859 
C 550.966694 68.007701 551.711567 63.492105 553.171665 59.186798 
C 554.631763 54.881491 556.787456 50.84436 559.552943 47.236087 
C 562.31843 43.627814 565.656529 40.496914 569.434379 37.968001 
C 573.212229 35.439087 577.379036 33.546163 581.768955 32.364569 
C 586.158874 31.182974 590.712881 30.728597 595.249721 31.019521 
C 599.786561 31.310445 604.245234 32.342759 608.44828 34.075375 
C 612.651326 35.807992 616.542232 38.217616 619.966137 41.20834 
C 623.390041 44.199064 626.300908 47.730678 628.58288 51.662619 
C 626.199144 46.174499 622.893586 41.134628 618.809617 36.761659 
C 614.725648 32.38869 609.923194 28.746789 604.610607 25.993958 
C 599.29802 23.241127 593.553254 21.41776 587.625542 20.602963 
C 581.69783 19.788165 575.674154 19.993893 569.815845 21.211221 
C 563.957537 22.428549 558.35056 24.639615 553.238169 27.748492 
C 548.125778 30.85737 543.58299 34.818441 539.806892 39.459857 
C 536.030793 44.101273 533.076793 49.354927 531.073048 54.992894 
C 529.069303 60.63086 528.045216 66.57041 528.045216 72.553859 
C 528.045216 78.537308 529.069303 84.476858 531.073048 90.114824 
C 533.076793 95.752791 536.030793 101.006446 539.806892 105.647861 
C 543.58299 110.289277 548.125778 114.250348 553.238169 117.359226 
C 558.35056 120.468103 563.957537 122.679169 569.815845 123.896497 
C 575.674154 125.113825 581.69783 125.319553 587.625542 124.504756 
C 593.553254 123.689958 599.29802 121.866591 604.610607 119.11376 
C 609.923194 116.360929 614.725648 112.719028 618.809617 108.346059 
C 622.893586 103.97309 626.199144 98.93322 628.58288 93.445099 
" style="fill:#c0c0c0;opacity:0.4;"/>
   </g>
   <g id="patch_9">
    <path clip-path="url(#pe1f32bb43c)" d="M 628.58288 51.662619 
C 631.446283 58.255082 632.923979 65.366394 632.923979 72.553859 
C 632.923979 79.741324 631.446283 86.852636 628.58288 93.445099 
C 632.265794 87.099274 634.205985 79.890981 634.205985 72.553859 
C 634.205985 65.216737 632.265794 58.008444 628.58288 51.662619 
" style="fill:#b2df8a;opacity:0.4;"/>
   </g>
   <g id="patch_10">
    <path clip-path="url(#pe1f32bb43c)" d="M 628.58288 93.445099 
C 631.446283 86.852636 632.923979 79.741324 632.923979 72.553859 
C 632.923979 65.366394 631.446283 58.255082 628.58288 51.662619 
C 626.300908 47.730678 623.390041 44.199064 619.966137 41.20834 
C 616.542232 38.217616 612.651326 35.807992 608.44828 34.075375 
C 604.245234 32.342759 599.786561 31.310445 595.249721 31.019521 
C 590.712881 30.728597 586.158874 31.182974 581.768955 32.364569 
C 577.379036 33.546163 573.212229 35.439087 569.434379 37.968001 
C 565.656529 40.496914 562.31843 43.627814 559.552943 47.236087 
C 556.787456 50.84436 554.631763 54.881491 553.171665 59.186798 
C 551.711567 63.492105 550.966694 68.007701 550.966694 72.553859 
C 550.966694 77.100017 551.711567 81.615613 553.171665 85.92092 
C 554.631763 90.226227 556.787456 94.263358 559.552943 97.871631 
C 562.31843 101.479904 565.656529 104.610804 569.434379 107.139718 
C 573.212229 109.668631 577.379036 111.561555 581.768955 112.743149 
C 586.158874 113.924744 590.712881 114.379121 595.249721 114.088197 
C 599.786561 113.797273 604.245234 112.764959 608.44828 111.032343 
C 612.651326 109.299726 616.542232 106.890103 619.966137 103.899378 
C 623.390041 100.908654 626.300908 97.37704 628.58288 93.445099 
" style="fill:#ffffe7;opacity:0.4;"/>
   </g>
   <g id="text_11">
    <!-- 438 -->
    <g style="fill:#262626;" transform="translate(531.164549 75.139015)scale(0.1 -0.1)">
     <defs>
      <path d="M 1131 2484 
Q 781 2613 612 2850 
Q 444 3088 444 3419 
Q 444 3919 803 4259 
Q 1163 4600 1759 4600 
Q 2359 4600 2725 4251 
Q 3091 3903 3091 3403 
Q 3091 3084 2923 2848 
Q 2756 2613 2416 2484 
Q 2838 2347 3058 2040 
Q 3278 1734 3278 1309 
Q 3278 722 2862 322 
Q 2447 -78 1769 -78 
Q 1091 -78 675 323 
Q 259 725 259 1325 
Q 259 1772 486 2073 
Q 713 2375 1131 2484 
z
M 1019 3438 
Q 1019 3113 1228 2906 
Q 1438 2700 1772 2700 
Q 2097 2700 2305 2904 
Q 2513 3109 2513 3406 
Q 2513 3716 2298 3927 
Q 2084 4138 1766 4138 
Q 1444 4138 1231 3931 
Q 1019 3725 1019 3438 
z
M 838 1322 
Q 838 1081 952 856 
Q 1066 631 1291 507 
Q 1516 384 1775 384 
Q 2178 384 2440 643 
Q 2703 903 2703 1303 
Q 2703 1709 2433 1975 
Q 2163 2241 1756 2241 
Q 1359 2241 1098 1978 
Q 838 1716 838 1322 
z
" id="ArialMT-38" transform="scale(0.015625)"/>
     </defs>
     <use xlink:href="#ArialMT-34"/>
     <use x="55.615234" xlink:href="#ArialMT-33"/>
     <use x="111.230469" xlink:href="#ArialMT-38"/>
    </g>
   </g>
   <g id="text_12">
    <!-- 5 -->
    <g style="fill:#262626;" transform="translate(630.784513 75.139015)scale(0.1 -0.1)">
     <defs>
      <path d="M 266 1200 
L 856 1250 
Q 922 819 1161 601 
Q 1400 384 1738 384 
Q 2144 384 2425 690 
Q 2706 997 2706 1503 
Q 2706 1984 2436 2262 
Q 2166 2541 1728 2541 
Q 1456 2541 1237 2417 
Q 1019 2294 894 2097 
L 366 2166 
L 809 4519 
L 3088 4519 
L 3088 3981 
L 1259 3981 
L 1013 2750 
Q 1425 3038 1878 3038 
Q 2478 3038 2890 2622 
Q 3303 2206 3303 1553 
Q 3303 931 2941 478 
Q 2500 -78 1738 -78 
Q 1113 -78 717 272 
Q 322 622 266 1200 
z
" id="ArialMT-35" transform="scale(0.015625)"/>
     </defs>
     <use xlink:href="#ArialMT-35"/>
    </g>
   </g>
   <g id="text_13">
    <!-- 732 -->
    <g style="fill:#262626;" transform="translate(583.60393 75.139015)scale(0.1 -0.1)">
     <use xlink:href="#ArialMT-37"/>
     <use x="55.615234" xlink:href="#ArialMT-33"/>
     <use x="111.230469" xlink:href="#ArialMT-32"/>
    </g>
   </g>
   <g id="text_14">
    <!-- Bioregistry -->
    <g style="fill:#262626;" transform="translate(523.803347 138.285567)scale(0.12 -0.12)">
     <use xlink:href="#ArialMT-42"/>
     <use x="66.699219" xlink:href="#ArialMT-69"/>
     <use x="88.916016" xlink:href="#ArialMT-6f"/>
     <use x="144.53125" xlink:href="#ArialMT-72"/>
     <use x="177.832031" xlink:href="#ArialMT-65"/>
     <use x="233.447266" xlink:href="#ArialMT-67"/>
     <use x="289.0625" xlink:href="#ArialMT-69"/>
     <use x="311.279297" xlink:href="#ArialMT-73"/>
     <use x="361.279297" xlink:href="#ArialMT-74"/>
     <use x="389.0625" xlink:href="#ArialMT-72"/>
     <use x="422.363281" xlink:href="#ArialMT-79"/>
    </g>
   </g>
   <g id="text_15">
    <!-- MIRIAM -->
    <g style="fill:#262626;" transform="translate(592.586339 127.465831)scale(0.12 -0.12)">
     <defs>
      <path d="M 475 0 
L 475 4581 
L 1388 4581 
L 2472 1338 
Q 2622 884 2691 659 
Q 2769 909 2934 1394 
L 4031 4581 
L 4847 4581 
L 4847 0 
L 4263 0 
L 4263 3834 
L 2931 0 
L 2384 0 
L 1059 3900 
L 1059 0 
L 475 0 
z
" id="ArialMT-4d" transform="scale(0.015625)"/>
      <path d="M 597 0 
L 597 4581 
L 1203 4581 
L 1203 0 
L 597 0 
z
" id="ArialMT-49" transform="scale(0.015625)"/>
      <path d="M 503 0 
L 503 4581 
L 2534 4581 
Q 3147 4581 3465 4457 
Q 3784 4334 3975 4021 
Q 4166 3709 4166 3331 
Q 4166 2844 3850 2509 
Q 3534 2175 2875 2084 
Q 3116 1969 3241 1856 
Q 3506 1613 3744 1247 
L 4541 0 
L 3778 0 
L 3172 953 
Q 2906 1366 2734 1584 
Q 2563 1803 2427 1890 
Q 2291 1978 2150 2013 
Q 2047 2034 1813 2034 
L 1109 2034 
L 1109 0 
L 503 0 
z
M 1109 2559 
L 2413 2559 
Q 2828 2559 3062 2645 
Q 3297 2731 3419 2920 
Q 3541 3109 3541 3331 
Q 3541 3656 3305 3865 
Q 3069 4075 2559 4075 
L 1109 4075 
L 1109 2559 
z
" id="ArialMT-52" transform="scale(0.015625)"/>
      <path d="M -9 0 
L 1750 4581 
L 2403 4581 
L 4278 0 
L 3588 0 
L 3053 1388 
L 1138 1388 
L 634 0 
L -9 0 
z
M 1313 1881 
L 2866 1881 
L 2388 3150 
Q 2169 3728 2063 4100 
Q 1975 3659 1816 3225 
L 1313 1881 
z
" id="ArialMT-41" transform="scale(0.015625)"/>
     </defs>
     <use xlink:href="#ArialMT-4d"/>
     <use x="83.300781" xlink:href="#ArialMT-49"/>
     <use x="111.083984" xlink:href="#ArialMT-52"/>
     <use x="183.300781" xlink:href="#ArialMT-49"/>
     <use x="211.083984" xlink:href="#ArialMT-41"/>
     <use x="277.783203" xlink:href="#ArialMT-4d"/>
    </g>
   </g>
  </g>
  <g id="axes_4">
   <g id="patch_11">
    <path clip-path="url(#pf3283935d7)" d="M 152.657668 231.547409 
C 150.097784 229.421339 148.037439 226.757189 146.623511 223.744883 
C 145.209582 220.732577 144.476488 217.445437 144.476488 214.117799 
C 144.476488 210.79016 145.209582 207.50302 146.623511 204.490714 
C 148.037439 201.478408 150.097784 198.814258 152.657668 196.688188 
C 150.619903 190.977953 147.596427 185.669072 143.724868 181.003207 
C 139.85331 176.337341 135.193319 172.386379 129.957019 169.330167 
C 124.720719 166.273956 118.988787 164.159583 113.022141 163.083295 
C 107.055494 162.007007 100.946062 161.985387 94.971948 163.019419 
C 88.997834 164.053451 83.25108 166.127204 77.993282 169.146279 
C 72.735483 172.165355 68.047646 176.083237 64.143162 180.721585 
C 60.238678 185.359933 57.177704 190.647282 55.099576 196.342952 
C 53.021448 202.038621 51.958184 208.054857 51.958184 214.117799 
C 51.958184 220.18074 53.021448 226.196976 55.099576 231.892645 
C 57.177704 237.588315 60.238678 242.875664 64.143162 247.514012 
C 68.047646 252.15236 72.735483 256.070242 77.993282 259.089318 
C 83.25108 262.108393 88.997834 264.182146 94.971948 265.216178 
C 100.946062 266.25021 107.055494 266.22859 113.022141 265.152302 
C 118.988787 264.076014 124.720719 261.961641 129.957019 258.90543 
C 135.193319 255.849218 139.85331 251.898256 143.724868 247.23239 
C 147.596427 242.566525 150.619903 237.257644 152.657668 231.547409 
" style="fill:#c0c0c0;opacity:0.4;"/>
   </g>
   <g id="patch_12">
    <path clip-path="url(#pf3283935d7)" d="M 152.657668 196.688188 
C 154.654007 202.282337 155.674479 208.178112 155.674479 214.117799 
C 155.674479 220.057485 154.654007 225.95326 152.657668 231.547409 
C 155.967664 234.296473 159.993266 236.046599 164.261275 236.592063 
C 168.529283 237.137527 172.865647 236.456085 176.760636 234.62784 
C 180.655626 232.799594 183.950403 229.899101 186.257673 226.267306 
C 188.564943 222.635512 189.790616 218.420522 189.790616 214.117799 
C 189.790616 209.815075 188.564943 205.600085 186.257673 201.968291 
C 183.950403 198.336496 180.655626 195.436003 176.760636 193.607757 
C 172.865647 191.779512 168.529283 191.09807 164.261275 191.643534 
C 159.993266 192.188998 155.967664 193.939124 152.657668 196.688188 
" style="fill:#33a02c;opacity:0.4;"/>
   </g>
   <g id="patch_13">
    <path clip-path="url(#pf3283935d7)" d="M 152.657668 231.547409 
C 154.654007 225.95326 155.674479 220.057485 155.674479 214.117799 
C 155.674479 208.178112 154.654007 202.282337 152.657668 196.688188 
C 150.097784 198.814258 148.037439 201.478408 146.623511 204.490714 
C 145.209582 207.50302 144.476488 210.79016 144.476488 214.117799 
C 144.476488 217.445437 145.209582 220.732577 146.623511 223.744883 
C 148.037439 226.757189 150.097784 229.421339 152.657668 231.547409 
" style="fill:#aaf6a5;opacity:0.4;"/>
   </g>
   <g id="text_16">
    <!-- 1126 -->
    <g style="fill:#262626;" transform="translate(87.464211 216.702955)scale(0.1 -0.1)">
     <defs>
      <path d="M 2384 0 
L 1822 0 
L 1822 3584 
Q 1619 3391 1289 3197 
Q 959 3003 697 2906 
L 697 3450 
Q 1169 3672 1522 3987 
Q 1875 4303 2022 4600 
L 2384 4600 
L 2384 0 
z
" id="ArialMT-31" transform="scale(0.015625)"/>
     </defs>
     <use xlink:href="#ArialMT-31"/>
     <use x="48.240234" xlink:href="#ArialMT-31"/>
     <use x="103.855469" xlink:href="#ArialMT-32"/>
     <use x="159.470703" xlink:href="#ArialMT-36"/>
    </g>
   </g>
   <g id="text_17">
    <!-- 185 -->
    <g style="fill:#262626;" transform="translate(164.391141 216.702955)scale(0.1 -0.1)">
     <use xlink:href="#ArialMT-31"/>
     <use x="55.615234" xlink:href="#ArialMT-38"/>
     <use x="111.230469" xlink:href="#ArialMT-35"/>
    </g>
   </g>
   <g id="text_18">
    <!-- 37 -->
    <g style="fill:#262626;" transform="translate(144.514546 216.702955)scale(0.1 -0.1)">
     <use xlink:href="#ArialMT-33"/>
     <use x="55.615234" xlink:href="#ArialMT-37"/>
    </g>
   </g>
   <g id="text_19">
    <!-- Bioregistry -->
    <g style="fill:#262626;" transform="translate(47.135082 278.291082)scale(0.12 -0.12)">
     <use xlink:href="#ArialMT-42"/>
     <use x="66.699219" xlink:href="#ArialMT-69"/>
     <use x="88.916016" xlink:href="#ArialMT-6f"/>
     <use x="144.53125" xlink:href="#ArialMT-72"/>
     <use x="177.832031" xlink:href="#ArialMT-65"/>
     <use x="233.447266" xlink:href="#ArialMT-67"/>
     <use x="289.0625" xlink:href="#ArialMT-69"/>
     <use x="311.279297" xlink:href="#ArialMT-73"/>
     <use x="361.279297" xlink:href="#ArialMT-74"/>
     <use x="389.0625" xlink:href="#ArialMT-72"/>
     <use x="422.363281" xlink:href="#ArialMT-79"/>
    </g>
   </g>
   <g id="text_20">
    <!-- Wikidata -->
    <g style="fill:#262626;" transform="translate(167.133552 249.089998)scale(0.12 -0.12)">
     <defs>
      <path d="M 1294 0 
L 78 4581 
L 700 4581 
L 1397 1578 
Q 1509 1106 1591 641 
Q 1766 1375 1797 1488 
L 2669 4581 
L 3400 4581 
L 4056 2263 
Q 4303 1400 4413 641 
Q 4500 1075 4641 1638 
L 5359 4581 
L 5969 4581 
L 4713 0 
L 4128 0 
L 3163 3491 
Q 3041 3928 3019 4028 
Q 2947 3713 2884 3491 
L 1913 0 
L 1294 0 
z
" id="ArialMT-57" transform="scale(0.015625)"/>
      <path d="M 425 0 
L 425 4581 
L 988 4581 
L 988 1969 
L 2319 3319 
L 3047 3319 
L 1778 2088 
L 3175 0 
L 2481 0 
L 1384 1697 
L 988 1316 
L 988 0 
L 425 0 
z
" id="ArialMT-6b" transform="scale(0.015625)"/>
      <path d="M 2575 0 
L 2575 419 
Q 2259 -75 1647 -75 
Q 1250 -75 917 144 
Q 584 363 401 755 
Q 219 1147 219 1656 
Q 219 2153 384 2558 
Q 550 2963 881 3178 
Q 1213 3394 1622 3394 
Q 1922 3394 2156 3267 
Q 2391 3141 2538 2938 
L 2538 4581 
L 3097 4581 
L 3097 0 
L 2575 0 
z
M 797 1656 
Q 797 1019 1065 703 
Q 1334 388 1700 388 
Q 2069 388 2326 689 
Q 2584 991 2584 1609 
Q 2584 2291 2321 2609 
Q 2059 2928 1675 2928 
Q 1300 2928 1048 2622 
Q 797 2316 797 1656 
z
" id="ArialMT-64" transform="scale(0.015625)"/>
      <path d="M 2588 409 
Q 2275 144 1986 34 
Q 1697 -75 1366 -75 
Q 819 -75 525 192 
Q 231 459 231 875 
Q 231 1119 342 1320 
Q 453 1522 633 1644 
Q 813 1766 1038 1828 
Q 1203 1872 1538 1913 
Q 2219 1994 2541 2106 
Q 2544 2222 2544 2253 
Q 2544 2597 2384 2738 
Q 2169 2928 1744 2928 
Q 1347 2928 1158 2789 
Q 969 2650 878 2297 
L 328 2372 
Q 403 2725 575 2942 
Q 747 3159 1072 3276 
Q 1397 3394 1825 3394 
Q 2250 3394 2515 3294 
Q 2781 3194 2906 3042 
Q 3031 2891 3081 2659 
Q 3109 2516 3109 2141 
L 3109 1391 
Q 3109 606 3145 398 
Q 3181 191 3288 0 
L 2700 0 
Q 2613 175 2588 409 
z
M 2541 1666 
Q 2234 1541 1622 1453 
Q 1275 1403 1131 1340 
Q 988 1278 909 1158 
Q 831 1038 831 891 
Q 831 666 1001 516 
Q 1172 366 1500 366 
Q 1825 366 2078 508 
Q 2331 650 2450 897 
Q 2541 1088 2541 1459 
L 2541 1666 
z
" id="ArialMT-61" transform="scale(0.015625)"/>
     </defs>
     <use xlink:href="#ArialMT-57"/>
     <use x="94.384766" xlink:href="#ArialMT-69"/>
     <use x="116.601562" xlink:href="#ArialMT-6b"/>
     <use x="166.601562" xlink:href="#ArialMT-69"/>
     <use x="188.818359" xlink:href="#ArialMT-64"/>
     <use x="244.433594" xlink:href="#ArialMT-61"/>
     <use x="300.048828" xlink:href="#ArialMT-74"/>
     <use x="327.832031" xlink:href="#ArialMT-61"/>
    </g>
   </g>
  </g>
  <g id="axes_5">
   <g id="patch_14">
    <path clip-path="url(#pd7ecf9d3c9)" d="M 396.446593 238.249161 
C 393.931537 241.590169 390.909554 244.517538 387.490262 246.925085 
C 384.07097 249.332632 380.296218 251.190889 376.302929 252.432453 
C 372.30964 253.674016 368.146688 254.283689 363.965077 254.239358 
C 359.783465 254.195026 355.634374 253.497232 351.668305 252.171287 
C 347.702235 250.845343 343.967728 248.907475 340.600246 246.427978 
C 337.232765 243.948481 334.273524 240.957701 331.829865 237.564124 
C 329.386205 234.170546 327.488036 230.415706 326.20421 226.435803 
C 324.920384 222.4559 324.266614 218.299645 324.266614 214.117799 
C 324.266614 209.935952 324.920384 205.779697 326.20421 201.799794 
C 327.488036 197.819891 329.386205 194.065051 331.829865 190.671473 
C 334.273524 187.277896 337.232765 184.287116 340.600246 181.807619 
C 343.967728 179.328122 347.702235 177.390254 351.668305 176.06431 
C 355.634374 174.738365 359.783465 174.040571 363.965077 173.996239 
C 368.146688 173.951908 372.30964 174.561581 376.302929 175.803144 
C 380.296218 177.044708 384.07097 178.902965 387.490262 181.310512 
C 390.909554 183.718059 393.931537 186.645428 396.446593 189.986436 
C 393.762615 184.810285 390.233782 180.117999 386.005652 176.103128 
C 381.777523 172.088256 376.909044 168.806773 371.601034 166.394036 
C 366.293025 163.981299 360.619486 162.470944 354.814444 161.925272 
C 349.009402 161.3796 343.153788 161.806218 337.489139 163.187529 
C 331.82449 164.56884 326.429779 166.885587 321.527532 170.042206 
C 316.625285 173.198824 312.283846 177.151308 308.682294 181.73662 
C 305.080742 186.321933 302.269288 191.47615 300.363902 196.986664 
C 298.458515 202.497178 297.485759 208.287167 297.485759 214.117799 
C 297.485759 219.94843 298.458515 225.738419 300.363902 231.248933 
C 302.269288 236.759447 305.080742 241.913664 308.682294 246.498977 
C 312.283846 251.084289 316.625285 255.036773 321.527532 258.193391 
C 326.429779 261.35001 331.82449 263.666757 337.489139 265.048068 
C 343.153788 266.429379 349.009402 266.855997 354.814444 266.310325 
C 360.619486 265.764653 366.293025 264.254298 371.601034 261.841561 
C 376.909044 259.428824 381.777523 256.147341 386.005652 252.132469 
C 390.233782 248.117598 393.762615 243.425312 396.446593 238.249161 
" style="fill:#c0c0c0;opacity:0.4;"/>
   </g>
   <g id="patch_15">
    <path clip-path="url(#pd7ecf9d3c9)" d="M 396.446593 189.986436 
C 400.312666 197.442301 402.330968 205.719201 402.330968 214.117799 
C 402.330968 222.516396 400.312666 230.793296 396.446593 238.249161 
C 401.681685 231.294851 404.514241 222.822316 404.514241 214.117799 
C 404.514241 205.413281 401.681685 196.940746 396.446593 189.986436 
" style="fill:#fb9a99;opacity:0.4;"/>
   </g>
   <g id="patch_16">
    <path clip-path="url(#pd7ecf9d3c9)" d="M 396.446593 238.249161 
C 400.312666 230.793296 402.330968 222.516396 402.330968 214.117799 
C 402.330968 205.719201 400.312666 197.442301 396.446593 189.986436 
C 393.931537 186.645428 390.909554 183.718059 387.490262 181.310512 
C 384.07097 178.902965 380.296218 177.044708 376.302929 175.803144 
C 372.30964 174.561581 368.146688 173.951908 363.965077 173.996239 
C 359.783465 174.040571 355.634374 174.738365 351.668305 176.06431 
C 347.702235 177.390254 343.967728 179.328122 340.600246 181.807619 
C 337.232765 184.287116 334.273524 187.277896 331.829865 190.671473 
C 329.386205 194.065051 327.488036 197.819891 326.20421 201.799794 
C 324.920384 205.779697 324.266614 209.935952 324.266614 214.117799 
C 324.266614 218.299645 324.920384 222.4559 326.20421 226.435803 
C 327.488036 230.415706 329.386205 234.170546 331.829865 237.564124 
C 334.273524 240.957701 337.232765 243.948481 340.600246 246.427978 
C 343.967728 248.907475 347.702235 250.845343 351.668305 252.171287 
C 355.634374 253.497232 359.783465 254.195026 363.965077 254.239358 
C 368.146688 254.283689 372.30964 253.674016 376.302929 252.432453 
C 380.296218 251.190889 384.07097 249.332632 387.490262 246.925085 
C 390.909554 244.517538 393.931537 241.590169 396.446593 238.249161 
" style="fill:#fff2f2;opacity:0.4;"/>
   </g>
   <g id="text_21">
    <!-- 495 -->
    <g style="fill:#262626;" transform="translate(302.53478 216.702955)scale(0.1 -0.1)">
     <use xlink:href="#ArialMT-34"/>
     <use x="55.615234" xlink:href="#ArialMT-39"/>
     <use x="111.230469" xlink:href="#ArialMT-35"/>
    </g>
   </g>
   <g id="text_22">
    <!-- 10 -->
    <g style="fill:#262626;" transform="translate(397.861667 216.702955)scale(0.1 -0.1)">
     <use xlink:href="#ArialMT-31"/>
     <use x="55.615234" xlink:href="#ArialMT-30"/>
    </g>
   </g>
   <g id="text_23">
    <!-- 676 -->
    <g style="fill:#262626;" transform="translate(354.957385 216.702955)scale(0.1 -0.1)">
     <use xlink:href="#ArialMT-36"/>
     <use x="55.615234" xlink:href="#ArialMT-37"/>
     <use x="111.230469" xlink:href="#ArialMT-36"/>
    </g>
   </g>
   <g id="text_24">
    <!-- Bioregistry -->
    <g style="fill:#262626;" transform="translate(293.227114 279.757099)scale(0.12 -0.12)">
     <use xlink:href="#ArialMT-42"/>
     <use x="66.699219" xlink:href="#ArialMT-69"/>
     <use x="88.916016" xlink:href="#ArialMT-6f"/>
     <use x="144.53125" xlink:href="#ArialMT-72"/>
     <use x="177.832031" xlink:href="#ArialMT-65"/>
     <use x="233.447266" xlink:href="#ArialMT-67"/>
     <use x="289.0625" xlink:href="#ArialMT-69"/>
     <use x="311.279297" xlink:href="#ArialMT-73"/>
     <use x="361.279297" xlink:href="#ArialMT-74"/>
     <use x="389.0625" xlink:href="#ArialMT-72"/>
     <use x="422.363281" xlink:href="#ArialMT-79"/>
    </g>
   </g>
   <g id="text_25">
    <!-- N2T -->
    <g style="fill:#262626;" transform="translate(364.390427 267.458308)scale(0.12 -0.12)">
     <defs>
      <path d="M 488 0 
L 488 4581 
L 1109 4581 
L 3516 984 
L 3516 4581 
L 4097 4581 
L 4097 0 
L 3475 0 
L 1069 3600 
L 1069 0 
L 488 0 
z
" id="ArialMT-4e" transform="scale(0.015625)"/>
      <path d="M 1659 0 
L 1659 4041 
L 150 4041 
L 150 4581 
L 3781 4581 
L 3781 4041 
L 2266 4041 
L 2266 0 
L 1659 0 
z
" id="ArialMT-54" transform="scale(0.015625)"/>
     </defs>
     <use xlink:href="#ArialMT-4e"/>
     <use x="72.216797" xlink:href="#ArialMT-32"/>
     <use x="127.832031" xlink:href="#ArialMT-54"/>
    </g>
   </g>
  </g>
  <g id="axes_6">
   <g id="patch_17">
    <path clip-path="url(#p882c860383)" d="M 616.400798 238.361511 
C 610.509251 237.602269 605.091825 234.720873 601.169027 230.260106 
C 597.246229 225.79934 595.080882 220.058066 595.080882 214.117799 
C 595.080882 208.177531 597.246229 202.436257 601.169027 197.975491 
C 605.091825 193.514724 610.509251 190.633328 616.400798 189.874086 
C 613.710537 184.76245 610.188104 180.134078 605.978135 176.179017 
C 601.768167 172.223956 596.929085 168.997092 591.65959 166.630923 
C 586.390094 164.264754 580.76331 162.792116 575.01028 162.273478 
C 569.25725 161.75484 563.45781 162.197399 557.850093 163.582983 
C 552.242375 164.968566 546.904199 167.277947 542.054756 170.416298 
C 537.205314 173.554649 532.911902 177.478419 529.350813 182.026494 
C 525.789724 186.574569 523.010376 191.683834 521.126892 197.144496 
C 519.243409 202.605157 518.281927 208.341438 518.281927 214.117799 
C 518.281927 219.894159 519.243409 225.63044 521.126892 231.091101 
C 523.010376 236.551763 525.789724 241.661028 529.350813 246.209103 
C 532.911902 250.757178 537.205314 254.680948 542.054756 257.819299 
C 546.904199 260.95765 552.242375 263.267031 557.850093 264.652614 
C 563.45781 266.038198 569.25725 266.480757 575.01028 265.962119 
C 580.76331 265.443481 586.390094 263.970843 591.65959 261.604674 
C 596.929085 259.238505 601.768167 256.011641 605.978135 252.05658 
C 610.188104 248.101519 613.710537 243.473147 616.400798 238.361511 
" style="fill:#c0c0c0;opacity:0.4;"/>
   </g>
   <g id="patch_18">
    <path clip-path="url(#p882c860383)" d="M 616.400798 189.874086 
C 620.334932 197.349143 622.391059 205.670677 622.391059 214.117799 
C 622.391059 222.56492 620.334932 230.886454 616.400798 238.361511 
C 619.846071 238.805502 623.346737 238.510024 626.668845 237.494823 
C 629.990952 236.479623 633.058808 234.767831 635.667385 232.473849 
C 638.275963 230.179867 640.365826 227.355961 641.797307 224.190856 
C 643.228789 221.025751 643.969273 217.591562 643.969273 214.117799 
C 643.969273 210.644035 643.228789 207.209846 641.797307 204.044741 
C 640.365826 200.879636 638.275963 198.05573 635.667385 195.761748 
C 633.058808 193.467766 629.990952 191.755974 626.668845 190.740774 
C 623.346737 189.725573 619.846071 189.430095 616.400798 189.874086 
" style="fill:#e31a1c;opacity:0.4;"/>
   </g>
   <g id="patch_19">
    <path clip-path="url(#p882c860383)" d="M 616.400798 238.361511 
C 620.334932 230.886454 622.391059 222.56492 622.391059 214.117799 
C 622.391059 205.670677 620.334932 197.349143 616.400798 189.874086 
C 610.509251 190.633328 605.091825 193.514724 601.169027 197.975491 
C 597.246229 202.436257 595.080882 208.177531 595.080882 214.117799 
C 595.080882 220.058066 597.246229 225.79934 601.169027 230.260106 
C 605.091825 234.720873 610.509251 237.602269 616.400798 238.361511 
" style="fill:#ff999a;opacity:0.4;"/>
   </g>
   <g id="text_26">
    <!-- 1035 -->
    <g style="fill:#262626;" transform="translate(545.55953 216.702955)scale(0.1 -0.1)">
     <use xlink:href="#ArialMT-31"/>
     <use x="55.615234" xlink:href="#ArialMT-30"/>
     <use x="111.230469" xlink:href="#ArialMT-33"/>
     <use x="166.845703" xlink:href="#ArialMT-35"/>
    </g>
   </g>
   <g id="text_27">
    <!-- 123 -->
    <g style="fill:#262626;" transform="translate(624.83876 216.702955)scale(0.1 -0.1)">
     <use xlink:href="#ArialMT-31"/>
     <use x="55.615234" xlink:href="#ArialMT-32"/>
     <use x="111.230469" xlink:href="#ArialMT-33"/>
    </g>
   </g>
   <g id="text_28">
    <!-- 135 -->
    <g style="fill:#262626;" transform="translate(600.394564 216.702955)scale(0.1 -0.1)">
     <use xlink:href="#ArialMT-31"/>
     <use x="55.615234" xlink:href="#ArialMT-33"/>
     <use x="111.230469" xlink:href="#ArialMT-35"/>
    </g>
   </g>
   <g id="text_29">
    <!-- Bioregistry -->
    <g style="fill:#262626;" transform="translate(513.655243 278.586677)scale(0.12 -0.12)">
     <use xlink:href="#ArialMT-42"/>
     <use x="66.699219" xlink:href="#ArialMT-69"/>
     <use x="88.916016" xlink:href="#ArialMT-6f"/>
     <use x="144.53125" xlink:href="#ArialMT-72"/>
     <use x="177.832031" xlink:href="#ArialMT-65"/>
     <use x="233.447266" xlink:href="#ArialMT-67"/>
     <use x="289.0625" xlink:href="#ArialMT-69"/>
     <use x="311.279297" xlink:href="#ArialMT-73"/>
     <use x="361.279297" xlink:href="#ArialMT-74"/>
     <use x="389.0625" xlink:href="#ArialMT-72"/>
     <use x="422.363281" xlink:href="#ArialMT-79"/>
    </g>
   </g>
   <g id="text_30">
    <!-- GO -->
    <g style="fill:#262626;" transform="translate(619.525077 250.976307)scale(0.12 -0.12)">
     <defs>
      <path d="M 2638 1797 
L 2638 2334 
L 4578 2338 
L 4578 638 
Q 4131 281 3656 101 
Q 3181 -78 2681 -78 
Q 2006 -78 1454 211 
Q 903 500 622 1047 
Q 341 1594 341 2269 
Q 341 2938 620 3517 
Q 900 4097 1425 4378 
Q 1950 4659 2634 4659 
Q 3131 4659 3532 4498 
Q 3934 4338 4162 4050 
Q 4391 3763 4509 3300 
L 3963 3150 
Q 3859 3500 3706 3700 
Q 3553 3900 3268 4020 
Q 2984 4141 2638 4141 
Q 2222 4141 1919 4014 
Q 1616 3888 1430 3681 
Q 1244 3475 1141 3228 
Q 966 2803 966 2306 
Q 966 1694 1177 1281 
Q 1388 869 1791 669 
Q 2194 469 2647 469 
Q 3041 469 3416 620 
Q 3791 772 3984 944 
L 3984 1797 
L 2638 1797 
z
" id="ArialMT-47" transform="scale(0.015625)"/>
     </defs>
     <use xlink:href="#ArialMT-47"/>
     <use x="77.783203" xlink:href="#ArialMT-4f"/>
    </g>
   </g>
  </g>
  <g id="axes_7">
   <g id="patch_20">
    <path clip-path="url(#p70caf20caa)" d="M 129.324323 393.248167 
C 122.954595 389.265232 117.701312 383.726904 114.060191 377.155798 
C 110.41907 370.584691 108.508359 363.194208 108.508359 355.681738 
C 108.508359 348.169268 110.41907 340.778785 114.060191 334.207678 
C 117.701312 327.636572 122.954595 322.098244 129.324323 318.115309 
C 122.05364 311.531658 113.02565 307.19824 103.341134 305.643429 
C 93.656618 304.088617 83.725863 305.378281 74.759725 309.355174 
C 65.793588 313.332066 58.17192 319.827704 52.824032 328.050074 
C 47.476144 336.272445 44.628599 345.873206 44.628599 355.681738 
C 44.628599 365.490269 47.476144 375.091031 52.824032 383.313402 
C 58.17192 391.535772 65.793588 398.03141 74.759725 402.008302 
C 83.725863 405.985194 93.656618 407.274859 103.341134 405.720047 
C 113.02565 404.165236 122.05364 399.831818 129.324323 393.248167 
" style="fill:#c0c0c0;opacity:0.4;"/>
   </g>
   <g id="patch_21">
    <path clip-path="url(#p70caf20caa)" d="M 129.324323 318.115309 
C 134.570895 322.866114 138.764489 328.663765 141.63424 335.133787 
C 144.503991 341.60381 145.986753 348.603838 145.986753 355.681738 
C 145.986753 362.759637 144.503991 369.759666 141.63424 376.229689 
C 138.764489 382.699711 134.570895 388.497362 129.324323 393.248167 
C 136.030244 397.44132 143.738192 399.76338 151.64441 399.972211 
C 159.550629 400.181043 167.370412 398.269125 174.288339 394.435827 
C 181.206267 390.602528 186.973222 384.985887 190.987848 378.171587 
C 195.002473 371.357287 197.120201 363.590714 197.120201 355.681738 
C 197.120201 347.772762 195.002473 340.006189 190.987848 333.191889 
C 186.973222 326.377589 181.206267 320.760948 174.288339 316.927649 
C 167.370412 313.094351 159.550629 311.182433 151.64441 311.391265 
C 143.738192 311.600096 136.030244 313.922156 129.324323 318.115309 
" style="fill:#fdbf6f;opacity:0.4;"/>
   </g>
   <g id="patch_22">
    <path clip-path="url(#p70caf20caa)" d="M 129.324323 393.248167 
C 134.570895 388.497362 138.764489 382.699711 141.63424 376.229689 
C 144.503991 369.759666 145.986753 362.759637 145.986753 355.681738 
C 145.986753 348.603838 144.503991 341.60381 141.63424 335.133787 
C 138.764489 328.663765 134.570895 322.866114 129.324323 318.115309 
C 122.954595 322.098244 117.701312 327.636572 114.060191 334.207678 
C 110.41907 340.778785 108.508359 348.169268 108.508359 355.681738 
C 108.508359 363.194208 110.41907 370.584691 114.060191 377.155798 
C 117.701312 383.726904 122.954595 389.265232 129.324323 393.248167 
" style="fill:#ffffd4;opacity:0.4;"/>
   </g>
   <g id="text_31">
    <!-- 885 -->
    <g style="fill:#262626;" transform="translate(68.227073 358.266894)scale(0.1 -0.1)">
     <use xlink:href="#ArialMT-38"/>
     <use x="55.615234" xlink:href="#ArialMT-38"/>
     <use x="111.230469" xlink:href="#ArialMT-35"/>
    </g>
   </g>
   <g id="text_32">
    <!-- 609 -->
    <g style="fill:#262626;" transform="translate(163.212071 358.266894)scale(0.1 -0.1)">
     <use xlink:href="#ArialMT-36"/>
     <use x="55.615234" xlink:href="#ArialMT-30"/>
     <use x="111.230469" xlink:href="#ArialMT-39"/>
    </g>
   </g>
   <g id="text_33">
    <!-- 286 -->
    <g style="fill:#262626;" transform="translate(118.90615 358.266894)scale(0.1 -0.1)">
     <use xlink:href="#ArialMT-32"/>
     <use x="55.615234" xlink:href="#ArialMT-38"/>
     <use x="111.230469" xlink:href="#ArialMT-36"/>
    </g>
   </g>
   <g id="text_34">
    <!-- Bioregistry -->
    <g style="fill:#262626;" transform="translate(38.626426 419.69944)scale(0.12 -0.12)">
     <use xlink:href="#ArialMT-42"/>
     <use x="66.699219" xlink:href="#ArialMT-69"/>
     <use x="88.916016" xlink:href="#ArialMT-6f"/>
     <use x="144.53125" xlink:href="#ArialMT-72"/>
     <use x="177.832031" xlink:href="#ArialMT-65"/>
     <use x="233.447266" xlink:href="#ArialMT-67"/>
     <use x="289.0625" xlink:href="#ArialMT-69"/>
     <use x="311.279297" xlink:href="#ArialMT-73"/>
     <use x="361.279297" xlink:href="#ArialMT-74"/>
     <use x="389.0625" xlink:href="#ArialMT-72"/>
     <use x="422.363281" xlink:href="#ArialMT-79"/>
    </g>
   </g>
   <g id="text_35">
    <!-- BioPortal -->
    <g style="fill:#262626;" transform="translate(152.81428 413.326284)scale(0.12 -0.12)">
     <defs>
      <path d="M 494 0 
L 494 4581 
L 2222 4581 
Q 2678 4581 2919 4538 
Q 3256 4481 3484 4323 
Q 3713 4166 3852 3881 
Q 3991 3597 3991 3256 
Q 3991 2672 3619 2267 
Q 3247 1863 2275 1863 
L 1100 1863 
L 1100 0 
L 494 0 
z
M 1100 2403 
L 2284 2403 
Q 2872 2403 3119 2622 
Q 3366 2841 3366 3238 
Q 3366 3525 3220 3729 
Q 3075 3934 2838 4000 
Q 2684 4041 2272 4041 
L 1100 4041 
L 1100 2403 
z
" id="ArialMT-50" transform="scale(0.015625)"/>
      <path d="M 409 0 
L 409 4581 
L 972 4581 
L 972 0 
L 409 0 
z
" id="ArialMT-6c" transform="scale(0.015625)"/>
     </defs>
     <use xlink:href="#ArialMT-42"/>
     <use x="66.699219" xlink:href="#ArialMT-69"/>
     <use x="88.916016" xlink:href="#ArialMT-6f"/>
     <use x="144.53125" xlink:href="#ArialMT-50"/>
     <use x="211.230469" xlink:href="#ArialMT-6f"/>
     <use x="266.845703" xlink:href="#ArialMT-72"/>
     <use x="300.146484" xlink:href="#ArialMT-74"/>
     <use x="327.929688" xlink:href="#ArialMT-61"/>
     <use x="383.544922" xlink:href="#ArialMT-6c"/>
    </g>
   </g>
  </g>
  <g id="axes_8">
   <g id="patch_23">
    <path clip-path="url(#p2d34af6f79)" d="M 369.082625 402.08395 
C 362.362418 403.171061 355.48557 402.785425 348.929039 400.95379 
C 342.372508 399.122155 336.291461 395.887868 331.107661 391.475249 
C 325.92386 387.06263 321.759988 381.57611 318.904836 375.396215 
C 316.049684 369.216321 314.570823 362.489306 314.570823 355.681738 
C 314.570823 348.874169 316.049684 342.147155 318.904836 335.967261 
C 321.759988 329.787366 325.92386 324.300845 331.107661 319.888227 
C 336.291461 315.475608 342.372508 312.241321 348.929039 310.409686 
C 355.48557 308.578051 362.362418 308.192415 369.082625 309.279526 
C 361.146405 305.242551 352.305637 303.308286 343.408705 303.662349 
C 334.511774 304.016412 325.852673 306.647103 318.262355 311.301973 
C 310.672036 315.956844 304.401318 322.482075 300.051955 330.25149 
C 295.702593 338.020904 293.418309 346.777764 293.418309 355.681738 
C 293.418309 364.585712 295.702593 373.342572 300.051955 381.111986 
C 304.401318 388.881401 310.672036 395.406632 318.262355 400.061503 
C 325.852673 404.716373 334.511774 407.347064 343.408705 407.701126 
C 352.305637 408.055189 361.146405 406.120925 369.082625 402.08395 
" style="fill:#c0c0c0;opacity:0.4;"/>
   </g>
   <g id="patch_24">
    <path clip-path="url(#p2d34af6f79)" d="M 369.082625 309.279526 
C 377.644761 313.63489 384.836646 320.276266 389.858638 328.46522 
C 394.88063 336.654174 397.539438 346.075523 397.539438 355.681738 
C 397.539438 365.287953 394.88063 374.709302 389.858638 382.898256 
C 384.836646 391.08721 377.644761 397.728586 369.082625 402.08395 
C 380.102084 400.30136 390.134177 394.650471 397.369769 386.150335 
C 404.60536 377.650198 408.581691 366.844449 408.581691 355.681738 
C 408.581691 344.519027 404.60536 333.713278 397.369769 325.213141 
C 390.134177 316.713005 380.102084 311.062116 369.082625 309.279526 
" style="fill:#ff7f00;opacity:0.4;"/>
   </g>
   <g id="patch_25">
    <path clip-path="url(#p2d34af6f79)" d="M 369.082625 402.08395 
C 377.644761 397.728586 384.836646 391.08721 389.858638 382.898256 
C 394.88063 374.709302 397.539438 365.287953 397.539438 355.681738 
C 397.539438 346.075523 394.88063 336.654174 389.858638 328.46522 
C 384.836646 320.276266 377.644761 313.63489 369.082625 309.279526 
C 362.362418 308.192415 355.48557 308.578051 348.929039 310.409686 
C 342.372508 312.241321 336.291461 315.475608 331.107661 319.888227 
C 325.92386 324.300845 321.759988 329.787366 318.904836 335.967261 
C 316.049684 342.147155 314.570823 348.874169 314.570823 355.681738 
C 314.570823 362.489306 316.049684 369.216321 318.904836 375.396215 
C 321.759988 381.57611 325.92386 387.06263 331.107661 391.475249 
C 336.291461 395.887868 342.372508 399.122155 348.929039 400.95379 
C 355.48557 402.785425 362.362418 403.171061 369.082625 402.08395 
" style="fill:#ffdf86;opacity:0.4;"/>
   </g>
   <g id="text_36">
    <!-- 337 -->
    <g style="fill:#262626;" transform="translate(295.65316 358.266894)scale(0.1 -0.1)">
     <use xlink:href="#ArialMT-33"/>
     <use x="55.615234" xlink:href="#ArialMT-33"/>
     <use x="111.230469" xlink:href="#ArialMT-37"/>
    </g>
   </g>
   <g id="text_37">
    <!-- 121 -->
    <g style="fill:#262626;" transform="translate(394.719158 358.266894)scale(0.1 -0.1)">
     <use xlink:href="#ArialMT-31"/>
     <use x="55.615234" xlink:href="#ArialMT-32"/>
     <use x="111.230469" xlink:href="#ArialMT-31"/>
    </g>
   </g>
   <g id="text_38">
    <!-- 832 -->
    <g style="fill:#262626;" transform="translate(347.713724 358.266894)scale(0.1 -0.1)">
     <use xlink:href="#ArialMT-38"/>
     <use x="55.615234" xlink:href="#ArialMT-33"/>
     <use x="111.230469" xlink:href="#ArialMT-32"/>
    </g>
   </g>
   <g id="text_39">
    <!-- Bioregistry -->
    <g style="fill:#262626;" transform="translate(288.797623 421.284977)scale(0.12 -0.12)">
     <use xlink:href="#ArialMT-42"/>
     <use x="66.699219" xlink:href="#ArialMT-69"/>
     <use x="88.916016" xlink:href="#ArialMT-6f"/>
     <use x="144.53125" xlink:href="#ArialMT-72"/>
     <use x="177.832031" xlink:href="#ArialMT-65"/>
     <use x="233.447266" xlink:href="#ArialMT-67"/>
     <use x="289.0625" xlink:href="#ArialMT-69"/>
     <use x="311.279297" xlink:href="#ArialMT-73"/>
     <use x="361.279297" xlink:href="#ArialMT-74"/>
     <use x="389.0625" xlink:href="#ArialMT-72"/>
     <use x="422.363281" xlink:href="#ArialMT-79"/>
    </g>
   </g>
   <g id="text_40">
    <!-- Prefix Commons -->
    <g style="fill:#262626;" transform="translate(361.576257 416.229847)scale(0.12 -0.12)">
     <defs>
      <path d="M 556 0 
L 556 2881 
L 59 2881 
L 59 3319 
L 556 3319 
L 556 3672 
Q 556 4006 616 4169 
Q 697 4388 901 4523 
Q 1106 4659 1475 4659 
Q 1713 4659 2000 4603 
L 1916 4113 
Q 1741 4144 1584 4144 
Q 1328 4144 1222 4034 
Q 1116 3925 1116 3625 
L 1116 3319 
L 1763 3319 
L 1763 2881 
L 1116 2881 
L 1116 0 
L 556 0 
z
" id="ArialMT-66" transform="scale(0.015625)"/>
      <path d="M 47 0 
L 1259 1725 
L 138 3319 
L 841 3319 
L 1350 2541 
Q 1494 2319 1581 2169 
Q 1719 2375 1834 2534 
L 2394 3319 
L 3066 3319 
L 1919 1756 
L 3153 0 
L 2463 0 
L 1781 1031 
L 1600 1309 
L 728 0 
L 47 0 
z
" id="ArialMT-78" transform="scale(0.015625)"/>
      <path id="ArialMT-20" transform="scale(0.015625)"/>
      <path d="M 3763 1606 
L 4369 1453 
Q 4178 706 3683 314 
Q 3188 -78 2472 -78 
Q 1731 -78 1267 223 
Q 803 525 561 1097 
Q 319 1669 319 2325 
Q 319 3041 592 3573 
Q 866 4106 1370 4382 
Q 1875 4659 2481 4659 
Q 3169 4659 3637 4309 
Q 4106 3959 4291 3325 
L 3694 3184 
Q 3534 3684 3231 3912 
Q 2928 4141 2469 4141 
Q 1941 4141 1586 3887 
Q 1231 3634 1087 3207 
Q 944 2781 944 2328 
Q 944 1744 1114 1308 
Q 1284 872 1643 656 
Q 2003 441 2422 441 
Q 2931 441 3284 734 
Q 3638 1028 3763 1606 
z
" id="ArialMT-43" transform="scale(0.015625)"/>
      <path d="M 422 0 
L 422 3319 
L 925 3319 
L 925 2853 
Q 1081 3097 1340 3245 
Q 1600 3394 1931 3394 
Q 2300 3394 2536 3241 
Q 2772 3088 2869 2813 
Q 3263 3394 3894 3394 
Q 4388 3394 4653 3120 
Q 4919 2847 4919 2278 
L 4919 0 
L 4359 0 
L 4359 2091 
Q 4359 2428 4304 2576 
Q 4250 2725 4106 2815 
Q 3963 2906 3769 2906 
Q 3419 2906 3187 2673 
Q 2956 2441 2956 1928 
L 2956 0 
L 2394 0 
L 2394 2156 
Q 2394 2531 2256 2718 
Q 2119 2906 1806 2906 
Q 1569 2906 1367 2781 
Q 1166 2656 1075 2415 
Q 984 2175 984 1722 
L 984 0 
L 422 0 
z
" id="ArialMT-6d" transform="scale(0.015625)"/>
      <path d="M 422 0 
L 422 3319 
L 928 3319 
L 928 2847 
Q 1294 3394 1984 3394 
Q 2284 3394 2536 3286 
Q 2788 3178 2913 3003 
Q 3038 2828 3088 2588 
Q 3119 2431 3119 2041 
L 3119 0 
L 2556 0 
L 2556 2019 
Q 2556 2363 2490 2533 
Q 2425 2703 2258 2804 
Q 2091 2906 1866 2906 
Q 1506 2906 1245 2678 
Q 984 2450 984 1813 
L 984 0 
L 422 0 
z
" id="ArialMT-6e" transform="scale(0.015625)"/>
     </defs>
     <use xlink:href="#ArialMT-50"/>
     <use x="66.699219" xlink:href="#ArialMT-72"/>
     <use x="100" xlink:href="#ArialMT-65"/>
     <use x="155.615234" xlink:href="#ArialMT-66"/>
     <use x="183.398438" xlink:href="#ArialMT-69"/>
     <use x="205.615234" xlink:href="#ArialMT-78"/>
     <use x="255.615234" xlink:href="#ArialMT-20"/>
     <use x="283.398438" xlink:href="#ArialMT-43"/>
     <use x="355.615234" xlink:href="#ArialMT-6f"/>
     <use x="411.230469" xlink:href="#ArialMT-6d"/>
     <use x="494.53125" xlink:href="#ArialMT-6d"/>
     <use x="577.832031" xlink:href="#ArialMT-6f"/>
     <use x="633.447266" xlink:href="#ArialMT-6e"/>
     <use x="689.0625" xlink:href="#ArialMT-73"/>
    </g>
   </g>
  </g>
  <g id="axes_9">
   <g id="patch_26">
    <path clip-path="url(#pe84c2bbfb7)" d="M 624.36489 370.875011 
C 620.45164 370.703886 616.751918 369.027335 614.043364 366.197749 
C 611.334811 363.368163 609.821493 359.598729 609.821493 355.681738 
C 609.821493 351.764747 611.334811 347.995313 614.043364 345.165727 
C 616.751918 342.336141 620.45164 340.65959 624.36489 340.488465 
C 622.557937 334.536231 619.703529 328.953805 615.936061 324.004022 
C 612.168594 319.054239 607.548136 314.816021 602.292232 311.488915 
C 597.036328 308.161809 591.22878 305.798863 585.143024 304.511332 
C 579.057267 303.223801 572.790337 303.032214 566.637297 303.945591 
C 560.484256 304.858968 554.543213 306.862746 549.093887 309.862581 
C 543.644561 312.862416 538.773839 316.810478 534.711048 321.520881 
C 530.648257 326.231284 527.458177 331.628923 525.291004 337.459662 
C 523.123831 343.290402 522.014121 349.461275 522.014121 355.681738 
C 522.014121 361.902201 523.123831 368.073074 525.291004 373.903813 
C 527.458177 379.734553 530.648257 385.132192 534.711048 389.842595 
C 538.773839 394.552998 543.644561 398.50106 549.093887 401.500895 
C 554.543213 404.50073 560.484256 406.504508 566.637297 407.417885 
C 572.790337 408.331262 579.057267 408.139674 585.143024 406.852144 
C 591.22878 405.564613 597.036328 403.201667 602.292232 399.874561 
C 607.548136 396.547454 612.168594 392.309236 615.936061 387.359453 
C 619.703529 382.409671 622.557937 376.827244 624.36489 370.875011 
" style="fill:#c0c0c0;opacity:0.4;"/>
   </g>
   <g id="patch_27">
    <path clip-path="url(#pe84c2bbfb7)" d="M 624.36489 340.488465 
C 625.860245 345.414268 626.620228 350.533959 626.620228 355.681738 
C 626.620228 360.829517 625.860245 365.949207 624.36489 370.875011 
C 626.415929 370.964702 628.46405 370.638147 630.385501 369.915077 
C 632.306951 369.192007 634.062237 368.087285 635.545297 366.66766 
C 637.028358 365.248036 638.208711 363.542689 639.015034 361.654662 
C 639.821358 359.766636 640.23708 357.734737 640.23708 355.681738 
C 640.23708 353.628739 639.821358 351.59684 639.015034 349.708814 
C 638.208711 347.820787 637.028358 346.11544 635.545297 344.695816 
C 634.062237 343.276191 632.306951 342.171469 630.385501 341.448399 
C 628.46405 340.725329 626.415929 340.398774 624.36489 340.488465 
" style="fill:#cab2d6;opacity:0.4;"/>
   </g>
   <g id="patch_28">
    <path clip-path="url(#pe84c2bbfb7)" d="M 624.36489 370.875011 
C 625.860245 365.949207 626.620228 360.829517 626.620228 355.681738 
C 626.620228 350.533959 625.860245 345.414268 624.36489 340.488465 
C 620.45164 340.65959 616.751918 342.336141 614.043364 345.165727 
C 611.334811 347.995313 609.821493 351.764747 609.821493 355.681738 
C 609.821493 359.598729 611.334811 363.368163 614.043364 366.197749 
C 616.751918 369.027335 620.45164 370.703886 624.36489 370.875011 
" style="fill:#ffffff;opacity:0.4;"/>
   </g>
   <g id="text_41">
    <!-- 1118 -->
    <g style="fill:#262626;" transform="translate(555.533432 358.266894)scale(0.1 -0.1)">
     <use xlink:href="#ArialMT-31"/>
     <use x="48.240234" xlink:href="#ArialMT-31"/>
     <use x="96.480469" xlink:href="#ArialMT-31"/>
     <use x="152.095703" xlink:href="#ArialMT-38"/>
    </g>
   </g>
   <g id="text_42">
    <!-- 46 -->
    <g style="fill:#262626;" transform="translate(627.867716 358.266894)scale(0.1 -0.1)">
     <use xlink:href="#ArialMT-34"/>
     <use x="55.615234" xlink:href="#ArialMT-36"/>
    </g>
   </g>
   <g id="text_43">
    <!-- 53 -->
    <g style="fill:#262626;" transform="translate(612.659923 358.266894)scale(0.1 -0.1)">
     <use xlink:href="#ArialMT-35"/>
     <use x="55.615234" xlink:href="#ArialMT-33"/>
    </g>
   </g>
   <g id="text_44">
    <!-- Bioregistry -->
    <g style="fill:#262626;" transform="translate(517.635924 419.949709)scale(0.12 -0.12)">
     <use xlink:href="#ArialMT-42"/>
     <use x="66.699219" xlink:href="#ArialMT-69"/>
     <use x="88.916016" xlink:href="#ArialMT-6f"/>
     <use x="144.53125" xlink:href="#ArialMT-72"/>
     <use x="177.832031" xlink:href="#ArialMT-65"/>
     <use x="233.447266" xlink:href="#ArialMT-67"/>
     <use x="289.0625" xlink:href="#ArialMT-69"/>
     <use x="311.279297" xlink:href="#ArialMT-73"/>
     <use x="361.279297" xlink:href="#ArialMT-74"/>
     <use x="389.0625" xlink:href="#ArialMT-72"/>
     <use x="422.363281" xlink:href="#ArialMT-79"/>
    </g>
   </g>
   <g id="text_45">
    <!-- Biolink -->
    <g style="fill:#262626;" transform="translate(625.029286 382.854448)scale(0.12 -0.12)">
     <use xlink:href="#ArialMT-42"/>
     <use x="66.699219" xlink:href="#ArialMT-69"/>
     <use x="88.916016" xlink:href="#ArialMT-6f"/>
     <use x="144.53125" xlink:href="#ArialMT-6c"/>
     <use x="166.748047" xlink:href="#ArialMT-69"/>
     <use x="188.964844" xlink:href="#ArialMT-6e"/>
     <use x="244.580078" xlink:href="#ArialMT-6b"/>
    </g>
   </g>
  </g>
  <g id="axes_10">
   <g id="patch_29">
    <path clip-path="url(#p2594db24b2)" d="M 162.910166 514.315362 
C 158.475518 514.178849 154.264061 512.319409 151.175448 509.134255 
C 148.086835 505.949101 146.357856 501.682426 146.357856 497.245677 
C 146.357856 492.808929 148.086835 488.542254 151.175448 485.3571 
C 154.264061 482.171946 158.475518 480.312506 162.910166 480.175992 
C 160.907238 474.378951 157.89953 468.979424 154.024935 464.22496 
C 150.15034 459.470497 145.46899 455.434885 140.195509 452.303143 
C 134.922028 449.171401 129.138259 446.992132 123.109366 445.865249 
C 117.080474 444.738367 110.900025 444.681358 104.851371 445.696837 
C 98.802718 446.712316 92.979732 448.784524 87.649379 451.818455 
C 82.319026 454.852387 77.56403 458.800958 73.602391 463.48314 
C 69.640752 468.165321 66.533953 473.508449 64.424431 479.267556 
C 62.314909 485.026664 61.235402 491.112374 61.235402 497.245677 
C 61.235402 503.37898 62.314909 509.464691 64.424431 515.223799 
C 66.533953 520.982906 69.640752 526.326033 73.602391 531.008215 
C 77.56403 535.690396 82.319026 539.638968 87.649379 542.672899 
C 92.979732 545.706831 98.802718 547.779039 104.851371 548.794518 
C 110.900025 549.809997 117.080474 549.752988 123.109366 548.626105 
C 129.138259 547.499222 134.922028 545.319954 140.195509 542.188212 
C 145.46899 539.05647 150.15034 535.020858 154.024935 530.266394 
C 157.89953 525.511931 160.907238 520.112404 162.910166 514.315362 
" style="fill:#c0c0c0;opacity:0.4;"/>
   </g>
   <g id="patch_30">
    <path clip-path="url(#p2594db24b2)" d="M 162.910166 480.175992 
C 164.807365 485.667026 165.775913 491.436132 165.775913 497.245677 
C 165.775913 503.055222 164.807365 508.824329 162.910166 514.315362 
C 165.195938 514.385726 167.472731 513.996252 169.605144 513.170103 
C 171.737557 512.343953 173.682465 511.097836 175.324205 509.505856 
C 176.965944 507.913877 178.271314 506.008231 179.162684 503.902248 
C 180.054055 501.796264 180.513398 499.532533 180.513398 497.245677 
C 180.513398 494.958822 180.054055 492.695091 179.162684 490.589107 
C 178.271314 488.483123 176.965944 486.577478 175.324205 484.985499 
C 173.682465 483.393519 171.737557 482.147402 169.605144 481.321252 
C 167.472731 480.495103 165.195938 480.105629 162.910166 480.175992 
" style="fill:#6a3d9a;opacity:0.4;"/>
   </g>
   <g id="patch_31">
    <path clip-path="url(#p2594db24b2)" d="M 162.910166 514.315362 
C 164.807365 508.824329 165.775913 503.055222 165.775913 497.245677 
C 165.775913 491.436132 164.807365 485.667026 162.910166 480.175992 
C 158.475518 480.312506 154.264061 482.171946 151.175448 485.3571 
C 148.086835 488.542254 146.357856 492.808929 146.357856 497.245677 
C 146.357856 501.682426 148.086835 505.949101 151.175448 509.134255 
C 154.264061 512.319409 158.475518 514.178849 162.910166 514.315362 
" style="fill:#d1b1f2;opacity:0.4;"/>
   </g>
   <g id="text_46">
    <!-- 1102 -->
    <g style="fill:#262626;" transform="translate(93.043504 499.830834)scale(0.1 -0.1)">
     <use xlink:href="#ArialMT-31"/>
     <use x="48.240234" xlink:href="#ArialMT-31"/>
     <use x="103.855469" xlink:href="#ArialMT-30"/>
     <use x="159.470703" xlink:href="#ArialMT-32"/>
    </g>
   </g>
   <g id="text_47">
    <!-- 56 -->
    <g style="fill:#262626;" transform="translate(167.583718 499.830834)scale(0.1 -0.1)">
     <use xlink:href="#ArialMT-35"/>
     <use x="55.615234" xlink:href="#ArialMT-36"/>
    </g>
   </g>
   <g id="text_48">
    <!-- 69 -->
    <g style="fill:#262626;" transform="translate(150.505947 499.830834)scale(0.1 -0.1)">
     <use xlink:href="#ArialMT-36"/>
     <use x="55.615234" xlink:href="#ArialMT-39"/>
    </g>
   </g>
   <g id="text_49">
    <!-- Bioregistry -->
    <g style="fill:#262626;" transform="translate(56.824407 561.572709)scale(0.12 -0.12)">
     <use xlink:href="#ArialMT-42"/>
     <use x="66.699219" xlink:href="#ArialMT-69"/>
     <use x="88.916016" xlink:href="#ArialMT-6f"/>
     <use x="144.53125" xlink:href="#ArialMT-72"/>
     <use x="177.832031" xlink:href="#ArialMT-65"/>
     <use x="233.447266" xlink:href="#ArialMT-67"/>
     <use x="289.0625" xlink:href="#ArialMT-69"/>
     <use x="311.279297" xlink:href="#ArialMT-73"/>
     <use x="361.279297" xlink:href="#ArialMT-74"/>
     <use x="389.0625" xlink:href="#ArialMT-72"/>
     <use x="422.363281" xlink:href="#ArialMT-79"/>
    </g>
   </g>
   <g id="text_50">
    <!-- NCBI -->
    <g style="fill:#262626;" transform="translate(163.435627 526.380225)scale(0.12 -0.12)">
     <use xlink:href="#ArialMT-4e"/>
     <use x="72.216797" xlink:href="#ArialMT-43"/>
     <use x="144.433594" xlink:href="#ArialMT-42"/>
     <use x="211.132812" xlink:href="#ArialMT-49"/>
    </g>
   </g>
  </g>
  <g id="axes_11">
   <g id="patch_32">
    <path clip-path="url(#p4980d2de74)" d="M 389.427007 517.55392 
C 384.529125 516.869475 380.040435 514.435726 376.794452 510.704599 
C 373.548469 506.973472 371.759366 502.191152 371.759366 497.245677 
C 371.759366 492.300203 373.548469 487.517883 376.794452 483.786756 
C 380.040435 480.055629 384.529125 477.621879 389.427007 476.937435 
C 387.101428 471.436099 383.848065 466.374886 379.80907 461.974939 
C 375.770075 457.574993 371.005144 453.901345 365.722478 451.114511 
C 360.439811 448.327677 354.717486 446.468847 348.805533 445.619241 
C 342.893581 444.769635 336.879381 444.94181 331.025716 446.128243 
C 325.172052 447.314676 319.565441 449.497832 314.450859 452.582318 
C 309.336277 455.666805 304.789317 459.607035 301.008655 464.230843 
C 297.227992 468.854651 294.269505 474.093698 292.262462 479.719068 
C 290.25542 485.344438 289.229484 491.272989 289.229484 497.245677 
C 289.229484 503.218366 290.25542 509.146917 292.262462 514.772287 
C 294.269505 520.397657 297.227992 525.636703 301.008655 530.260511 
C 304.789317 534.88432 309.336277 538.824549 314.450859 541.909036 
C 319.565441 544.993523 325.172052 547.176679 331.025716 548.363112 
C 336.879381 549.549544 342.893581 549.721719 348.805533 548.872113 
C 354.717486 548.022507 360.439811 546.163678 365.722478 543.376844 
C 371.005144 540.59001 375.770075 536.916362 379.80907 532.516415 
C 383.848065 528.116469 387.101428 523.055255 389.427007 517.55392 
" style="fill:#c0c0c0;opacity:0.4;"/>
   </g>
   <g id="patch_33">
    <path clip-path="url(#p4980d2de74)" d="M 389.427007 476.937435 
C 392.143399 483.363268 393.543124 490.26928 393.543124 497.245677 
C 393.543124 504.222075 392.143399 511.128086 389.427007 517.55392 
C 392.331289 517.959773 395.289125 517.737931 398.100377 516.903406 
C 400.911629 516.06888 403.511428 514.640927 405.723862 512.716166 
C 407.936297 510.791406 409.710316 508.414252 410.925883 505.74555 
C 412.14145 503.076849 412.770516 500.17818 412.770516 497.245677 
C 412.770516 494.313175 412.14145 491.414506 410.925883 488.745805 
C 409.710316 486.077103 407.936297 483.699949 405.723862 481.775188 
C 403.511428 479.850428 400.911629 478.422475 398.100377 477.587949 
C 395.289125 476.753423 392.331289 476.531582 389.427007 476.937435 
" style="fill:#ffff99;opacity:0.4;"/>
   </g>
   <g id="patch_34">
    <path clip-path="url(#p4980d2de74)" d="M 389.427007 517.55392 
C 392.143399 511.128086 393.543124 504.222075 393.543124 497.245677 
C 393.543124 490.26928 392.143399 483.363268 389.427007 476.937435 
C 384.529125 477.621879 380.040435 480.055629 376.794452 483.786756 
C 373.548469 487.517883 371.759366 492.300203 371.759366 497.245677 
C 371.759366 502.191152 373.548469 506.973472 376.794452 510.704599 
C 380.040435 514.435726 384.529125 516.869475 389.427007 517.55392 
" style="fill:#fffff2;opacity:0.4;"/>
   </g>
   <g id="text_51">
    <!-- 1081 -->
    <g style="fill:#262626;" transform="translate(319.37255 499.830834)scale(0.1 -0.1)">
     <use xlink:href="#ArialMT-31"/>
     <use x="55.615234" xlink:href="#ArialMT-30"/>
     <use x="111.230469" xlink:href="#ArialMT-38"/>
     <use x="166.845703" xlink:href="#ArialMT-31"/>
    </g>
   </g>
   <g id="text_52">
    <!-- 91 -->
    <g style="fill:#262626;" transform="translate(397.595882 499.830834)scale(0.1 -0.1)">
     <use xlink:href="#ArialMT-39"/>
     <use x="55.615234" xlink:href="#ArialMT-31"/>
    </g>
   </g>
   <g id="text_53">
    <!-- 90 -->
    <g style="fill:#262626;" transform="translate(377.090308 499.830834)scale(0.1 -0.1)">
     <use xlink:href="#ArialMT-39"/>
     <use x="55.615234" xlink:href="#ArialMT-30"/>
    </g>
   </g>
   <g id="text_54">
    <!-- Bioregistry -->
    <g style="fill:#262626;" transform="translate(284.705054 561.624992)scale(0.12 -0.12)">
     <use xlink:href="#ArialMT-42"/>
     <use x="66.699219" xlink:href="#ArialMT-69"/>
     <use x="88.916016" xlink:href="#ArialMT-6f"/>
     <use x="144.53125" xlink:href="#ArialMT-72"/>
     <use x="177.832031" xlink:href="#ArialMT-65"/>
     <use x="233.447266" xlink:href="#ArialMT-67"/>
     <use x="289.0625" xlink:href="#ArialMT-69"/>
     <use x="311.279297" xlink:href="#ArialMT-73"/>
     <use x="361.279297" xlink:href="#ArialMT-74"/>
     <use x="389.0625" xlink:href="#ArialMT-72"/>
     <use x="422.363281" xlink:href="#ArialMT-79"/>
    </g>
   </g>
   <g id="text_55">
    <!-- UniProt -->
    <g style="fill:#262626;" transform="translate(392.264941 529.973747)scale(0.12 -0.12)">
     <defs>
      <path d="M 3500 4581 
L 4106 4581 
L 4106 1934 
Q 4106 1244 3950 837 
Q 3794 431 3386 176 
Q 2978 -78 2316 -78 
Q 1672 -78 1262 144 
Q 853 366 678 786 
Q 503 1206 503 1934 
L 503 4581 
L 1109 4581 
L 1109 1938 
Q 1109 1341 1220 1058 
Q 1331 775 1601 622 
Q 1872 469 2263 469 
Q 2931 469 3215 772 
Q 3500 1075 3500 1938 
L 3500 4581 
z
" id="ArialMT-55" transform="scale(0.015625)"/>
     </defs>
     <use xlink:href="#ArialMT-55"/>
     <use x="72.216797" xlink:href="#ArialMT-6e"/>
     <use x="127.832031" xlink:href="#ArialMT-69"/>
     <use x="150.048828" xlink:href="#ArialMT-50"/>
     <use x="216.748047" xlink:href="#ArialMT-72"/>
     <use x="250.048828" xlink:href="#ArialMT-6f"/>
     <use x="305.664062" xlink:href="#ArialMT-74"/>
    </g>
   </g>
  </g>
  <g id="axes_12"/>
  <g id="text_56">
   <!-- https://github.com/bioregistry/bioregistry (2021-07-12) -->
   <g style="fill:#808080;opacity:0.5;" transform="translate(256.07375 574.31625)scale(0.08 -0.08)">
    <defs>
     <path d="M 422 0 
L 422 4581 
L 984 4581 
L 984 2938 
Q 1378 3394 1978 3394 
Q 2347 3394 2619 3248 
Q 2891 3103 3008 2847 
Q 3125 2591 3125 2103 
L 3125 0 
L 2563 0 
L 2563 2103 
Q 2563 2525 2380 2717 
Q 2197 2909 1863 2909 
Q 1613 2909 1392 2779 
Q 1172 2650 1078 2428 
Q 984 2206 984 1816 
L 984 0 
L 422 0 
z
" id="ArialMT-68" transform="scale(0.015625)"/>
     <path d="M 422 -1272 
L 422 3319 
L 934 3319 
L 934 2888 
Q 1116 3141 1344 3267 
Q 1572 3394 1897 3394 
Q 2322 3394 2647 3175 
Q 2972 2956 3137 2557 
Q 3303 2159 3303 1684 
Q 3303 1175 3120 767 
Q 2938 359 2589 142 
Q 2241 -75 1856 -75 
Q 1575 -75 1351 44 
Q 1128 163 984 344 
L 984 -1272 
L 422 -1272 
z
M 931 1641 
Q 931 1000 1190 694 
Q 1450 388 1819 388 
Q 2194 388 2461 705 
Q 2728 1022 2728 1688 
Q 2728 2322 2467 2637 
Q 2206 2953 1844 2953 
Q 1484 2953 1207 2617 
Q 931 2281 931 1641 
z
" id="ArialMT-70" transform="scale(0.015625)"/>
     <path d="M 578 2678 
L 578 3319 
L 1219 3319 
L 1219 2678 
L 578 2678 
z
M 578 0 
L 578 641 
L 1219 641 
L 1219 0 
L 578 0 
z
" id="ArialMT-3a" transform="scale(0.015625)"/>
     <path d="M 0 -78 
L 1328 4659 
L 1778 4659 
L 453 -78 
L 0 -78 
z
" id="ArialMT-2f" transform="scale(0.015625)"/>
     <path d="M 2597 0 
L 2597 488 
Q 2209 -75 1544 -75 
Q 1250 -75 995 37 
Q 741 150 617 320 
Q 494 491 444 738 
Q 409 903 409 1263 
L 409 3319 
L 972 3319 
L 972 1478 
Q 972 1038 1006 884 
Q 1059 663 1231 536 
Q 1403 409 1656 409 
Q 1909 409 2131 539 
Q 2353 669 2445 892 
Q 2538 1116 2538 1541 
L 2538 3319 
L 3100 3319 
L 3100 0 
L 2597 0 
z
" id="ArialMT-75" transform="scale(0.015625)"/>
     <path d="M 941 0 
L 419 0 
L 419 4581 
L 981 4581 
L 981 2947 
Q 1338 3394 1891 3394 
Q 2197 3394 2470 3270 
Q 2744 3147 2920 2923 
Q 3097 2700 3197 2384 
Q 3297 2069 3297 1709 
Q 3297 856 2875 390 
Q 2453 -75 1863 -75 
Q 1275 -75 941 416 
L 941 0 
z
M 934 1684 
Q 934 1088 1097 822 
Q 1363 388 1816 388 
Q 2184 388 2453 708 
Q 2722 1028 2722 1663 
Q 2722 2313 2464 2622 
Q 2206 2931 1841 2931 
Q 1472 2931 1203 2611 
Q 934 2291 934 1684 
z
" id="ArialMT-62" transform="scale(0.015625)"/>
     <path d="M 581 0 
L 581 641 
L 1222 641 
L 1222 0 
L 581 0 
z
" id="ArialMT-2e" transform="scale(0.015625)"/>
     <path d="M 2588 1216 
L 3141 1144 
Q 3050 572 2676 248 
Q 2303 -75 1759 -75 
Q 1078 -75 664 370 
Q 250 816 250 1647 
Q 250 2184 428 2587 
Q 606 2991 970 3192 
Q 1334 3394 1763 3394 
Q 2303 3394 2647 3120 
Q 2991 2847 3088 2344 
L 2541 2259 
Q 2463 2594 2264 2762 
Q 2066 2931 1784 2931 
Q 1359 2931 1093 2626 
Q 828 2322 828 1663 
Q 828 994 1084 691 
Q 1341 388 1753 388 
Q 2084 388 2306 591 
Q 2528 794 2588 1216 
z
" id="ArialMT-63" transform="scale(0.015625)"/>
     <path d="M 1497 -1347 
Q 1031 -759 709 28 
Q 388 816 388 1659 
Q 388 2403 628 3084 
Q 909 3875 1497 4659 
L 1900 4659 
Q 1522 4009 1400 3731 
Q 1209 3300 1100 2831 
Q 966 2247 966 1656 
Q 966 153 1900 -1347 
L 1497 -1347 
z
" id="ArialMT-28" transform="scale(0.015625)"/>
     <path d="M 203 1375 
L 203 1941 
L 1931 1941 
L 1931 1375 
L 203 1375 
z
" id="ArialMT-2d" transform="scale(0.015625)"/>
     <path d="M 791 -1347 
L 388 -1347 
Q 1322 153 1322 1656 
Q 1322 2244 1188 2822 
Q 1081 3291 891 3722 
Q 769 4003 388 4659 
L 791 4659 
Q 1378 3875 1659 3084 
Q 1900 2403 1900 1659 
Q 1900 816 1576 28 
Q 1253 -759 791 -1347 
z
" id="ArialMT-29" transform="scale(0.015625)"/>
    </defs>
    <use xlink:href="#ArialMT-68"/>
    <use x="55.615234" xlink:href="#ArialMT-74"/>
    <use x="83.398438" xlink:href="#ArialMT-74"/>
    <use x="111.181641" xlink:href="#ArialMT-70"/>
    <use x="166.796875" xlink:href="#ArialMT-73"/>
    <use x="216.796875" xlink:href="#ArialMT-3a"/>
    <use x="244.580078" xlink:href="#ArialMT-2f"/>
    <use x="272.363281" xlink:href="#ArialMT-2f"/>
    <use x="300.146484" xlink:href="#ArialMT-67"/>
    <use x="355.761719" xlink:href="#ArialMT-69"/>
    <use x="377.978516" xlink:href="#ArialMT-74"/>
    <use x="405.761719" xlink:href="#ArialMT-68"/>
    <use x="461.376953" xlink:href="#ArialMT-75"/>
    <use x="516.992188" xlink:href="#ArialMT-62"/>
    <use x="572.607422" xlink:href="#ArialMT-2e"/>
    <use x="600.390625" xlink:href="#ArialMT-63"/>
    <use x="650.390625" xlink:href="#ArialMT-6f"/>
    <use x="706.005859" xlink:href="#ArialMT-6d"/>
    <use x="789.306641" xlink:href="#ArialMT-2f"/>
    <use x="817.089844" xlink:href="#ArialMT-62"/>
    <use x="872.705078" xlink:href="#ArialMT-69"/>
    <use x="894.921875" xlink:href="#ArialMT-6f"/>
    <use x="950.537109" xlink:href="#ArialMT-72"/>
    <use x="983.837891" xlink:href="#ArialMT-65"/>
    <use x="1039.453125" xlink:href="#ArialMT-67"/>
    <use x="1095.068359" xlink:href="#ArialMT-69"/>
    <use x="1117.285156" xlink:href="#ArialMT-73"/>
    <use x="1167.285156" xlink:href="#ArialMT-74"/>
    <use x="1195.068359" xlink:href="#ArialMT-72"/>
    <use x="1228.369141" xlink:href="#ArialMT-79"/>
    <use x="1278.369141" xlink:href="#ArialMT-2f"/>
    <use x="1306.152344" xlink:href="#ArialMT-62"/>
    <use x="1361.767578" xlink:href="#ArialMT-69"/>
    <use x="1383.984375" xlink:href="#ArialMT-6f"/>
    <use x="1439.599609" xlink:href="#ArialMT-72"/>
    <use x="1472.900391" xlink:href="#ArialMT-65"/>
    <use x="1528.515625" xlink:href="#ArialMT-67"/>
    <use x="1584.130859" xlink:href="#ArialMT-69"/>
    <use x="1606.347656" xlink:href="#ArialMT-73"/>
    <use x="1656.347656" xlink:href="#ArialMT-74"/>
    <use x="1684.130859" xlink:href="#ArialMT-72"/>
    <use x="1717.431641" xlink:href="#ArialMT-79"/>
    <use x="1767.431641" xlink:href="#ArialMT-20"/>
    <use x="1795.214844" xlink:href="#ArialMT-28"/>
    <use x="1828.515625" xlink:href="#ArialMT-32"/>
    <use x="1884.130859" xlink:href="#ArialMT-30"/>
    <use x="1939.746094" xlink:href="#ArialMT-32"/>
    <use x="1995.361328" xlink:href="#ArialMT-31"/>
    <use x="2050.976562" xlink:href="#ArialMT-2d"/>
    <use x="2084.277344" xlink:href="#ArialMT-30"/>
    <use x="2139.892578" xlink:href="#ArialMT-37"/>
    <use x="2195.507812" xlink:href="#ArialMT-2d"/>
    <use x="2228.808594" xlink:href="#ArialMT-31"/>
    <use x="2284.423828" xlink:href="#ArialMT-32"/>
    <use x="2340.039062" xlink:href="#ArialMT-29"/>
   </g>
  </g>
 </g>
 <defs>
  <clipPath id="pe28be79b7b">
   <rect height="123.507718" width="124.997188" x="58.375806" y="10.8"/>
  </clipPath>
  <clipPath id="p53ab79e4ae">
   <rect height="123.507718" width="123.517016" x="289.241492" y="10.8"/>
  </clipPath>
  <clipPath id="pe1f32bb43c">
   <rect height="123.507718" width="124.789724" x="518.730738" y="10.8"/>
  </clipPath>
  <clipPath id="pf3283935d7">
   <rect height="123.507718" width="157.623854" x="42.062473" y="152.363939"/>
  </clipPath>
  <clipPath id="pd7ecf9d3c9">
   <rect height="123.507718" width="125.690991" x="288.154504" y="152.363939"/>
  </clipPath>
  <clipPath id="p882c860383">
   <rect height="123.507718" width="145.085932" x="508.582634" y="152.363939"/>
  </clipPath>
  <clipPath id="p70caf20caa">
   <rect height="123.507718" width="174.641166" x="33.553817" y="293.927879"/>
  </clipPath>
  <clipPath id="p2d34af6f79">
   <rect height="123.507718" width="134.549972" x="283.725014" y="293.927879"/>
  </clipPath>
  <clipPath id="pe84c2bbfb7">
   <rect height="123.507718" width="137.12457" x="512.563315" y="293.927879"/>
  </clipPath>
  <clipPath id="p2594db24b2">
   <rect height="123.507718" width="138.245204" x="51.751798" y="435.491818"/>
  </clipPath>
  <clipPath id="p4980d2de74">
   <rect height="123.507718" width="142.73511" x="279.632445" y="435.491818"/>
  </clipPath>
 </defs>
</svg>
