<?xml version="1.0" encoding="utf-8" standalone="no"?>
<!DOCTYPE svg PUBLIC "-//W3C//DTD SVG 1.1//EN"
  "http://www.w3.org/Graphics/SVG/1.1/DTD/svg11.dtd">
<svg height="576pt" version="1.1" viewBox="0 0 702 576" width="702pt" xmlns="http://www.w3.org/2000/svg" xmlns:xlink="http://www.w3.org/1999/xlink">
 <metadata>
  <rdf:RDF xmlns:cc="http://creativecommons.org/ns#" xmlns:dc="http://purl.org/dc/elements/1.1/" xmlns:rdf="http://www.w3.org/1999/02/22-rdf-syntax-ns#">
   <cc:Work>
    <dc:type rdf:resource="http://purl.org/dc/dcmitype/StillImage"/>
    <dc:date>2021-09-17T00:55:23.911837</dc:date>
    <dc:format>image/svg+xml</dc:format>
    <dc:creator>
     <cc:Agent>
      <dc:title>Matplotlib v3.4.3, https://matplotlib.org/</dc:title>
     </cc:Agent>
    </dc:creator>
   </cc:Work>
  </rdf:RDF>
 </metadata>
 <defs>
  <style type="text/css">*{stroke-linecap:butt;stroke-linejoin:round;}</style>
 </defs>
 <g id="figure_1">
  <g id="patch_1">
   <path d="M 0 576 
L 702 576 
L 702 0 
L 0 0 
z
" style="fill:#ffffff;"/>
  </g>
  <g id="axes_1">
   <g id="patch_2">
    <path clip-path="url(#p70e2e51e0a)" d="M 164.963016 82.183606 
C 163.774057 84.506734 162.205061 86.614845 160.321005 88.420636 
C 158.436948 90.226426 156.264203 91.70462 153.892748 92.794001 
C 151.521293 93.883382 148.984323 94.568701 146.3869 94.821578 
C 143.789478 95.074456 141.167961 94.891351 138.630913 94.279847 
C 136.093865 93.668343 133.676799 92.637 131.479811 91.228527 
C 129.282823 89.820055 127.336667 88.054169 125.721937 86.003999 
C 124.107207 83.953829 122.846505 81.648073 121.992042 79.182218 
C 121.137579 76.716363 120.701314 74.124924 120.701314 71.515221 
C 120.701314 68.905518 121.137579 66.31408 121.992042 63.848225 
C 122.846505 61.38237 124.107207 59.076614 125.721937 57.026444 
C 127.336667 54.976274 129.282823 53.210388 131.479811 51.801915 
C 133.676799 50.393443 136.093865 49.3621 138.630913 48.750596 
C 141.167961 48.139092 143.789478 47.955987 146.3869 48.208864 
C 148.984323 48.461741 151.521293 49.147061 153.892748 50.236442 
C 156.264203 51.325823 158.436948 52.804017 160.321005 54.609807 
C 162.205061 56.415598 163.774057 58.523709 164.963016 60.846837 
C 163.655525 54.663991 161.222471 48.77386 157.7854 43.470686 
C 154.348329 38.167511 149.965443 33.541097 144.85569 29.822557 
C 139.745937 26.104017 133.995845 23.35632 127.892661 21.716729 
C 121.789477 20.077137 115.436551 19.573415 109.151247 20.230726 
C 102.865942 20.888037 96.754692 22.69525 91.122786 25.562086 
C 85.490879 28.428922 80.433687 32.306834 76.203842 37.0021 
C 71.973996 41.697366 68.643125 47.130477 66.377623 53.030021 
C 64.112122 58.929565 62.950352 65.19564 62.950352 71.515221 
C 62.950352 77.834803 64.112122 84.100878 66.377623 90.000422 
C 68.643125 95.899965 71.973996 101.333077 76.203842 106.028343 
C 80.433687 110.723609 85.490879 114.601521 91.122786 117.468357 
C 96.754692 120.335193 102.865942 122.142406 109.151247 122.799717 
C 115.436551 123.457028 121.789477 122.953306 127.892661 121.313714 
C 133.995845 119.674122 139.745937 116.926425 144.85569 113.207885 
C 149.965443 109.489346 154.348329 104.862931 157.7854 99.559757 
C 161.222471 94.256583 163.655525 88.366451 164.963016 82.183606 
" style="fill:#c0c0c0;opacity:0.4;"/>
   </g>
   <g id="patch_3">
    <path clip-path="url(#p70e2e51e0a)" d="M 164.963016 60.846837 
C 165.704785 64.354502 166.078705 67.929983 166.078705 71.515221 
C 166.078705 75.100459 165.704785 78.675941 164.963016 82.183606 
C 166.652998 78.881519 167.534414 75.224643 167.534414 71.515221 
C 167.534414 67.805799 166.652998 64.148923 164.963016 60.846837 
" style="fill:#a6cee3;opacity:0.4;"/>
   </g>
   <g id="patch_4">
    <path clip-path="url(#p70e2e51e0a)" d="M 164.963016 82.183606 
C 165.704785 78.675941 166.078705 75.100459 166.078705 71.515221 
C 166.078705 67.929983 165.704785 64.354502 164.963016 60.846837 
C 163.774057 58.523709 162.205061 56.415598 160.321005 54.609807 
C 158.436948 52.804017 156.264203 51.325823 153.892748 50.236442 
C 151.521293 49.147061 148.984323 48.461741 146.3869 48.208864 
C 143.789478 47.955987 141.167961 48.139092 138.630913 48.750596 
C 136.093865 49.3621 133.676799 50.393443 131.479811 51.801915 
C 129.282823 53.210388 127.336667 54.976274 125.721937 57.026444 
C 124.107207 59.076614 122.846505 61.38237 121.992042 63.848225 
C 121.137579 66.31408 120.701314 68.905518 120.701314 71.515221 
C 120.701314 74.124924 121.137579 76.716363 121.992042 79.182218 
C 122.846505 81.648073 124.107207 83.953829 125.721937 86.003999 
C 127.336667 88.054169 129.282823 89.820055 131.479811 91.228527 
C 133.676799 92.637 136.093865 93.668343 138.630913 94.279847 
C 141.167961 94.891351 143.789478 95.074456 146.3869 94.821578 
C 148.984323 94.568701 151.521293 93.883382 153.892748 92.794001 
C 156.264203 91.70462 158.436948 90.226426 160.321005 88.420636 
C 162.205061 86.614845 163.774057 84.506734 164.963016 82.183606 
" style="fill:#fbffff;opacity:0.4;"/>
   </g>
   <g id="text_1">
    <!-- 946 -->
    <g style="fill:#262626;" transform="translate(82.282083 74.274596)scale(0.1 -0.1)">
     <defs>
      <path d="M 703 97 
L 703 672 
Q 941 559 1184 500 
Q 1428 441 1663 441 
Q 2288 441 2617 861 
Q 2947 1281 2994 2138 
Q 2813 1869 2534 1725 
Q 2256 1581 1919 1581 
Q 1219 1581 811 2004 
Q 403 2428 403 3163 
Q 403 3881 828 4315 
Q 1253 4750 1959 4750 
Q 2769 4750 3195 4129 
Q 3622 3509 3622 2328 
Q 3622 1225 3098 567 
Q 2575 -91 1691 -91 
Q 1453 -91 1209 -44 
Q 966 3 703 97 
z
M 1959 2075 
Q 2384 2075 2632 2365 
Q 2881 2656 2881 3163 
Q 2881 3666 2632 3958 
Q 2384 4250 1959 4250 
Q 1534 4250 1286 3958 
Q 1038 3666 1038 3163 
Q 1038 2656 1286 2365 
Q 1534 2075 1959 2075 
z
" id="DejaVuSans-39" transform="scale(0.015625)"/>
      <path d="M 2419 4116 
L 825 1625 
L 2419 1625 
L 2419 4116 
z
M 2253 4666 
L 3047 4666 
L 3047 1625 
L 3713 1625 
L 3713 1100 
L 3047 1100 
L 3047 0 
L 2419 0 
L 2419 1100 
L 313 1100 
L 313 1709 
L 2253 4666 
z
" id="DejaVuSans-34" transform="scale(0.015625)"/>
      <path d="M 2113 2584 
Q 1688 2584 1439 2293 
Q 1191 2003 1191 1497 
Q 1191 994 1439 701 
Q 1688 409 2113 409 
Q 2538 409 2786 701 
Q 3034 994 3034 1497 
Q 3034 2003 2786 2293 
Q 2538 2584 2113 2584 
z
M 3366 4563 
L 3366 3988 
Q 3128 4100 2886 4159 
Q 2644 4219 2406 4219 
Q 1781 4219 1451 3797 
Q 1122 3375 1075 2522 
Q 1259 2794 1537 2939 
Q 1816 3084 2150 3084 
Q 2853 3084 3261 2657 
Q 3669 2231 3669 1497 
Q 3669 778 3244 343 
Q 2819 -91 2113 -91 
Q 1303 -91 875 529 
Q 447 1150 447 2328 
Q 447 3434 972 4092 
Q 1497 4750 2381 4750 
Q 2619 4750 2861 4703 
Q 3103 4656 3366 4563 
z
" id="DejaVuSans-36" transform="scale(0.015625)"/>
     </defs>
     <use xlink:href="#DejaVuSans-39"/>
     <use x="63.623047" xlink:href="#DejaVuSans-34"/>
     <use x="127.246094" xlink:href="#DejaVuSans-36"/>
    </g>
   </g>
   <g id="text_2">
    <!-- 3 -->
    <g style="fill:#262626;" transform="translate(163.625309 74.274596)scale(0.1 -0.1)">
     <defs>
      <path d="M 2597 2516 
Q 3050 2419 3304 2112 
Q 3559 1806 3559 1356 
Q 3559 666 3084 287 
Q 2609 -91 1734 -91 
Q 1441 -91 1130 -33 
Q 819 25 488 141 
L 488 750 
Q 750 597 1062 519 
Q 1375 441 1716 441 
Q 2309 441 2620 675 
Q 2931 909 2931 1356 
Q 2931 1769 2642 2001 
Q 2353 2234 1838 2234 
L 1294 2234 
L 1294 2753 
L 1863 2753 
Q 2328 2753 2575 2939 
Q 2822 3125 2822 3475 
Q 2822 3834 2567 4026 
Q 2313 4219 1838 4219 
Q 1578 4219 1281 4162 
Q 984 4106 628 3988 
L 628 4550 
Q 988 4650 1302 4700 
Q 1616 4750 1894 4750 
Q 2613 4750 3031 4423 
Q 3450 4097 3450 3541 
Q 3450 3153 3228 2886 
Q 3006 2619 2597 2516 
z
" id="DejaVuSans-33" transform="scale(0.015625)"/>
     </defs>
     <use xlink:href="#DejaVuSans-33"/>
    </g>
   </g>
   <g id="text_3">
    <!-- 242 -->
    <g style="fill:#262626;" transform="translate(133.84626 74.274596)scale(0.1 -0.1)">
     <defs>
      <path d="M 1228 531 
L 3431 531 
L 3431 0 
L 469 0 
L 469 531 
Q 828 903 1448 1529 
Q 2069 2156 2228 2338 
Q 2531 2678 2651 2914 
Q 2772 3150 2772 3378 
Q 2772 3750 2511 3984 
Q 2250 4219 1831 4219 
Q 1534 4219 1204 4116 
Q 875 4013 500 3803 
L 500 4441 
Q 881 4594 1212 4672 
Q 1544 4750 1819 4750 
Q 2544 4750 2975 4387 
Q 3406 4025 3406 3419 
Q 3406 3131 3298 2873 
Q 3191 2616 2906 2266 
Q 2828 2175 2409 1742 
Q 1991 1309 1228 531 
z
" id="DejaVuSans-32" transform="scale(0.015625)"/>
     </defs>
     <use xlink:href="#DejaVuSans-32"/>
     <use x="63.623047" xlink:href="#DejaVuSans-34"/>
     <use x="127.246094" xlink:href="#DejaVuSans-32"/>
    </g>
   </g>
   <g id="text_4">
    <!-- Bioregistry -->
    <g style="fill:#262626;" transform="translate(49.615154 135.946559)scale(0.12 -0.12)">
     <defs>
      <path d="M 1259 2228 
L 1259 519 
L 2272 519 
Q 2781 519 3026 730 
Q 3272 941 3272 1375 
Q 3272 1813 3026 2020 
Q 2781 2228 2272 2228 
L 1259 2228 
z
M 1259 4147 
L 1259 2741 
L 2194 2741 
Q 2656 2741 2882 2914 
Q 3109 3088 3109 3444 
Q 3109 3797 2882 3972 
Q 2656 4147 2194 4147 
L 1259 4147 
z
M 628 4666 
L 2241 4666 
Q 2963 4666 3353 4366 
Q 3744 4066 3744 3513 
Q 3744 3084 3544 2831 
Q 3344 2578 2956 2516 
Q 3422 2416 3680 2098 
Q 3938 1781 3938 1306 
Q 3938 681 3513 340 
Q 3088 0 2303 0 
L 628 0 
L 628 4666 
z
" id="DejaVuSans-42" transform="scale(0.015625)"/>
      <path d="M 603 3500 
L 1178 3500 
L 1178 0 
L 603 0 
L 603 3500 
z
M 603 4863 
L 1178 4863 
L 1178 4134 
L 603 4134 
L 603 4863 
z
" id="DejaVuSans-69" transform="scale(0.015625)"/>
      <path d="M 1959 3097 
Q 1497 3097 1228 2736 
Q 959 2375 959 1747 
Q 959 1119 1226 758 
Q 1494 397 1959 397 
Q 2419 397 2687 759 
Q 2956 1122 2956 1747 
Q 2956 2369 2687 2733 
Q 2419 3097 1959 3097 
z
M 1959 3584 
Q 2709 3584 3137 3096 
Q 3566 2609 3566 1747 
Q 3566 888 3137 398 
Q 2709 -91 1959 -91 
Q 1206 -91 779 398 
Q 353 888 353 1747 
Q 353 2609 779 3096 
Q 1206 3584 1959 3584 
z
" id="DejaVuSans-6f" transform="scale(0.015625)"/>
      <path d="M 2631 2963 
Q 2534 3019 2420 3045 
Q 2306 3072 2169 3072 
Q 1681 3072 1420 2755 
Q 1159 2438 1159 1844 
L 1159 0 
L 581 0 
L 581 3500 
L 1159 3500 
L 1159 2956 
Q 1341 3275 1631 3429 
Q 1922 3584 2338 3584 
Q 2397 3584 2469 3576 
Q 2541 3569 2628 3553 
L 2631 2963 
z
" id="DejaVuSans-72" transform="scale(0.015625)"/>
      <path d="M 3597 1894 
L 3597 1613 
L 953 1613 
Q 991 1019 1311 708 
Q 1631 397 2203 397 
Q 2534 397 2845 478 
Q 3156 559 3463 722 
L 3463 178 
Q 3153 47 2828 -22 
Q 2503 -91 2169 -91 
Q 1331 -91 842 396 
Q 353 884 353 1716 
Q 353 2575 817 3079 
Q 1281 3584 2069 3584 
Q 2775 3584 3186 3129 
Q 3597 2675 3597 1894 
z
M 3022 2063 
Q 3016 2534 2758 2815 
Q 2500 3097 2075 3097 
Q 1594 3097 1305 2825 
Q 1016 2553 972 2059 
L 3022 2063 
z
" id="DejaVuSans-65" transform="scale(0.015625)"/>
      <path d="M 2906 1791 
Q 2906 2416 2648 2759 
Q 2391 3103 1925 3103 
Q 1463 3103 1205 2759 
Q 947 2416 947 1791 
Q 947 1169 1205 825 
Q 1463 481 1925 481 
Q 2391 481 2648 825 
Q 2906 1169 2906 1791 
z
M 3481 434 
Q 3481 -459 3084 -895 
Q 2688 -1331 1869 -1331 
Q 1566 -1331 1297 -1286 
Q 1028 -1241 775 -1147 
L 775 -588 
Q 1028 -725 1275 -790 
Q 1522 -856 1778 -856 
Q 2344 -856 2625 -561 
Q 2906 -266 2906 331 
L 2906 616 
Q 2728 306 2450 153 
Q 2172 0 1784 0 
Q 1141 0 747 490 
Q 353 981 353 1791 
Q 353 2603 747 3093 
Q 1141 3584 1784 3584 
Q 2172 3584 2450 3431 
Q 2728 3278 2906 2969 
L 2906 3500 
L 3481 3500 
L 3481 434 
z
" id="DejaVuSans-67" transform="scale(0.015625)"/>
      <path d="M 2834 3397 
L 2834 2853 
Q 2591 2978 2328 3040 
Q 2066 3103 1784 3103 
Q 1356 3103 1142 2972 
Q 928 2841 928 2578 
Q 928 2378 1081 2264 
Q 1234 2150 1697 2047 
L 1894 2003 
Q 2506 1872 2764 1633 
Q 3022 1394 3022 966 
Q 3022 478 2636 193 
Q 2250 -91 1575 -91 
Q 1294 -91 989 -36 
Q 684 19 347 128 
L 347 722 
Q 666 556 975 473 
Q 1284 391 1588 391 
Q 1994 391 2212 530 
Q 2431 669 2431 922 
Q 2431 1156 2273 1281 
Q 2116 1406 1581 1522 
L 1381 1569 
Q 847 1681 609 1914 
Q 372 2147 372 2553 
Q 372 3047 722 3315 
Q 1072 3584 1716 3584 
Q 2034 3584 2315 3537 
Q 2597 3491 2834 3397 
z
" id="DejaVuSans-73" transform="scale(0.015625)"/>
      <path d="M 1172 4494 
L 1172 3500 
L 2356 3500 
L 2356 3053 
L 1172 3053 
L 1172 1153 
Q 1172 725 1289 603 
Q 1406 481 1766 481 
L 2356 481 
L 2356 0 
L 1766 0 
Q 1100 0 847 248 
Q 594 497 594 1153 
L 594 3053 
L 172 3053 
L 172 3500 
L 594 3500 
L 594 4494 
L 1172 4494 
z
" id="DejaVuSans-74" transform="scale(0.015625)"/>
      <path d="M 2059 -325 
Q 1816 -950 1584 -1140 
Q 1353 -1331 966 -1331 
L 506 -1331 
L 506 -850 
L 844 -850 
Q 1081 -850 1212 -737 
Q 1344 -625 1503 -206 
L 1606 56 
L 191 3500 
L 800 3500 
L 1894 763 
L 2988 3500 
L 3597 3500 
L 2059 -325 
z
" id="DejaVuSans-79" transform="scale(0.015625)"/>
     </defs>
     <use xlink:href="#DejaVuSans-42"/>
     <use x="68.603516" xlink:href="#DejaVuSans-69"/>
     <use x="96.386719" xlink:href="#DejaVuSans-6f"/>
     <use x="157.568359" xlink:href="#DejaVuSans-72"/>
     <use x="196.431641" xlink:href="#DejaVuSans-65"/>
     <use x="257.955078" xlink:href="#DejaVuSans-67"/>
     <use x="321.431641" xlink:href="#DejaVuSans-69"/>
     <use x="349.214844" xlink:href="#DejaVuSans-73"/>
     <use x="401.314453" xlink:href="#DejaVuSans-74"/>
     <use x="440.523438" xlink:href="#DejaVuSans-72"/>
     <use x="481.636719" xlink:href="#DejaVuSans-79"/>
    </g>
   </g>
   <g id="text_5">
    <!-- OBO -->
    <g style="fill:#262626;" transform="translate(144.117864 107.798933)scale(0.12 -0.12)">
     <defs>
      <path d="M 2522 4238 
Q 1834 4238 1429 3725 
Q 1025 3213 1025 2328 
Q 1025 1447 1429 934 
Q 1834 422 2522 422 
Q 3209 422 3611 934 
Q 4013 1447 4013 2328 
Q 4013 3213 3611 3725 
Q 3209 4238 2522 4238 
z
M 2522 4750 
Q 3503 4750 4090 4092 
Q 4678 3434 4678 2328 
Q 4678 1225 4090 567 
Q 3503 -91 2522 -91 
Q 1538 -91 948 565 
Q 359 1222 359 2328 
Q 359 3434 948 4092 
Q 1538 4750 2522 4750 
z
" id="DejaVuSans-4f" transform="scale(0.015625)"/>
     </defs>
     <use xlink:href="#DejaVuSans-4f"/>
     <use x="78.710938" xlink:href="#DejaVuSans-42"/>
     <use x="145.564453" xlink:href="#DejaVuSans-4f"/>
    </g>
   </g>
  </g>
  <g id="axes_2">
   <g id="patch_5">
    <path clip-path="url(#pafa2a94373)" d="M 391.295485 81.147384 
C 390.19523 83.701313 388.665473 86.047944 386.772724 88.085251 
C 384.879976 90.122558 382.652071 91.820579 380.185875 93.105488 
C 377.719679 94.390397 375.051459 95.243298 372.297226 95.627109 
C 369.542992 96.01092 366.743247 95.919996 364.01972 95.35829 
C 361.296193 94.796584 358.688934 93.772357 356.311304 92.33014 
C 353.933674 90.887924 351.820637 89.048927 350.064064 86.893105 
C 348.307491 84.737284 346.933214 82.296341 346.000985 79.676405 
C 345.068756 77.05647 344.592283 74.296069 344.592283 71.515221 
C 344.592283 68.734374 345.068756 65.973973 346.000985 63.354037 
C 346.933214 60.734102 348.307491 58.293159 350.064064 56.137338 
C 351.820637 53.981516 353.933674 52.142519 356.311304 50.700302 
C 358.688934 49.258086 361.296193 48.233859 364.01972 47.672153 
C 366.743247 47.110447 369.542992 47.019523 372.297226 47.403334 
C 375.051459 47.787144 377.719679 48.640045 380.185875 49.924955 
C 382.652071 51.209864 384.879976 52.907885 386.772724 54.945192 
C 388.665473 56.982498 390.19523 59.32913 391.295485 61.883059 
C 390.10669 55.63065 387.7706 49.652009 384.405539 44.249953 
C 381.040477 38.847897 376.704232 34.115197 371.616436 30.291564 
C 366.528639 26.467931 360.776663 23.619028 354.651846 21.889154 
C 348.527029 20.159279 342.134554 19.57814 335.798198 20.17517 
C 329.461842 20.7722 323.290422 22.537147 317.596519 25.380617 
C 311.902617 28.224087 306.784014 32.097247 302.499968 36.803923 
C 298.215922 41.510599 294.840004 46.969962 292.543204 52.905496 
C 290.246404 58.841029 289.068165 65.150801 289.068165 71.515221 
C 289.068165 77.879642 290.246404 84.189414 292.543204 90.124947 
C 294.840004 96.06048 298.215922 101.519843 302.499968 106.22652 
C 306.784014 110.933196 311.902617 114.806356 317.596519 117.649826 
C 323.290422 120.493295 329.461842 122.258243 335.798198 122.855273 
C 342.134554 123.452303 348.527029 122.871164 354.651846 121.141289 
C 360.776663 119.411414 366.528639 116.562512 371.616436 112.738879 
C 376.704232 108.915246 381.040477 104.182546 384.405539 98.78049 
C 387.7706 93.378434 390.10669 87.399793 391.295485 81.147384 
" style="fill:#c0c0c0;opacity:0.4;"/>
   </g>
   <g id="patch_6">
    <path clip-path="url(#pafa2a94373)" d="M 391.295485 61.883059 
C 391.899195 65.058239 392.203056 68.283157 392.203056 71.515221 
C 392.203056 74.747285 391.899195 77.972203 391.295485 81.147384 
C 392.606029 78.105329 393.282042 74.827566 393.282042 71.515221 
C 393.282042 68.202877 392.606029 64.925114 391.295485 61.883059 
" style="fill:#1f78b4;opacity:0.4;"/>
   </g>
   <g id="patch_7">
    <path clip-path="url(#pafa2a94373)" d="M 391.295485 81.147384 
C 391.899195 77.972203 392.203056 74.747285 392.203056 71.515221 
C 392.203056 68.283157 391.899195 65.058239 391.295485 61.883059 
C 390.19523 59.32913 388.665473 56.982498 386.772724 54.945192 
C 384.879976 52.907885 382.652071 51.209864 380.185875 49.924955 
C 377.719679 48.640045 375.051459 47.787144 372.297226 47.403334 
C 369.542992 47.019523 366.743247 47.110447 364.01972 47.672153 
C 361.296193 48.233859 358.688934 49.258086 356.311304 50.700302 
C 353.933674 52.142519 351.820637 53.981516 350.064064 56.137338 
C 348.307491 58.293159 346.933214 60.734102 346.000985 63.354037 
C 345.068756 65.973973 344.592283 68.734374 344.592283 71.515221 
C 344.592283 74.296069 345.068756 77.05647 346.000985 79.676405 
C 346.933214 82.296341 348.307491 84.737284 350.064064 86.893105 
C 351.820637 89.048927 353.933674 90.887924 356.311304 92.33014 
C 358.688934 93.772357 361.296193 94.796584 364.01972 95.35829 
C 366.743247 95.919996 369.542992 96.01092 372.297226 95.627109 
C 375.051459 95.243298 377.719679 94.390397 380.185875 93.105488 
C 382.652071 91.820579 384.879976 90.122558 386.772724 88.085251 
C 388.665473 86.047944 390.19523 83.701313 391.295485 81.147384 
" style="fill:#9cdaff;opacity:0.4;"/>
   </g>
   <g id="text_6">
    <!-- 926 -->
    <g style="fill:#262626;" transform="translate(307.286474 74.274596)scale(0.1 -0.1)">
     <use xlink:href="#DejaVuSans-39"/>
     <use x="63.623047" xlink:href="#DejaVuSans-32"/>
     <use x="127.246094" xlink:href="#DejaVuSans-36"/>
    </g>
   </g>
   <g id="text_7">
    <!-- 2 -->
    <g style="fill:#262626;" transform="translate(389.561299 74.274596)scale(0.1 -0.1)">
     <use xlink:href="#DejaVuSans-32"/>
    </g>
   </g>
   <g id="text_8">
    <!-- 263 -->
    <g style="fill:#262626;" transform="translate(358.85392 74.274596)scale(0.1 -0.1)">
     <use xlink:href="#DejaVuSans-32"/>
     <use x="63.623047" xlink:href="#DejaVuSans-36"/>
     <use x="127.246094" xlink:href="#DejaVuSans-33"/>
    </g>
   </g>
   <g id="text_9">
    <!-- Bioregistry -->
    <g style="fill:#262626;" transform="translate(275.736236 135.996408)scale(0.12 -0.12)">
     <use xlink:href="#DejaVuSans-42"/>
     <use x="68.603516" xlink:href="#DejaVuSans-69"/>
     <use x="96.386719" xlink:href="#DejaVuSans-6f"/>
     <use x="157.568359" xlink:href="#DejaVuSans-72"/>
     <use x="196.431641" xlink:href="#DejaVuSans-65"/>
     <use x="257.955078" xlink:href="#DejaVuSans-67"/>
     <use x="321.431641" xlink:href="#DejaVuSans-69"/>
     <use x="349.214844" xlink:href="#DejaVuSans-73"/>
     <use x="401.314453" xlink:href="#DejaVuSans-74"/>
     <use x="440.523438" xlink:href="#DejaVuSans-72"/>
     <use x="481.636719" xlink:href="#DejaVuSans-79"/>
    </g>
   </g>
   <g id="text_10">
    <!-- OLS -->
    <g style="fill:#262626;" transform="translate(368.937162 108.773842)scale(0.12 -0.12)">
     <defs>
      <path d="M 628 4666 
L 1259 4666 
L 1259 531 
L 3531 531 
L 3531 0 
L 628 0 
L 628 4666 
z
" id="DejaVuSans-4c" transform="scale(0.015625)"/>
      <path d="M 3425 4513 
L 3425 3897 
Q 3066 4069 2747 4153 
Q 2428 4238 2131 4238 
Q 1616 4238 1336 4038 
Q 1056 3838 1056 3469 
Q 1056 3159 1242 3001 
Q 1428 2844 1947 2747 
L 2328 2669 
Q 3034 2534 3370 2195 
Q 3706 1856 3706 1288 
Q 3706 609 3251 259 
Q 2797 -91 1919 -91 
Q 1588 -91 1214 -16 
Q 841 59 441 206 
L 441 856 
Q 825 641 1194 531 
Q 1563 422 1919 422 
Q 2459 422 2753 634 
Q 3047 847 3047 1241 
Q 3047 1584 2836 1778 
Q 2625 1972 2144 2069 
L 1759 2144 
Q 1053 2284 737 2584 
Q 422 2884 422 3419 
Q 422 4038 858 4394 
Q 1294 4750 2059 4750 
Q 2388 4750 2728 4690 
Q 3069 4631 3425 4513 
z
" id="DejaVuSans-53" transform="scale(0.015625)"/>
     </defs>
     <use xlink:href="#DejaVuSans-4f"/>
     <use x="78.710938" xlink:href="#DejaVuSans-4c"/>
     <use x="134.423828" xlink:href="#DejaVuSans-53"/>
    </g>
   </g>
  </g>
  <g id="axes_3">
   <g id="patch_8">
    <path clip-path="url(#pcab7c693a9)" d="M 607.575654 101.182771 
C 601.765329 106.73799 594.44908 110.46579 586.539584 111.90114 
C 578.630089 113.336491 570.470509 112.417117 563.078724 109.257708 
C 555.686939 106.0983 549.38365 100.83593 544.95517 94.127062 
C 540.526689 87.418194 538.165152 79.5539 538.165152 71.515221 
C 538.165152 63.476543 540.526689 55.612248 544.95517 48.90338 
C 549.38365 42.194512 555.686939 36.932143 563.078724 33.772734 
C 570.470509 30.613325 578.630089 29.693952 586.539584 31.129302 
C 594.44908 32.564653 601.765329 36.292452 607.575654 41.847672 
C 604.444429 37.403519 600.629275 33.482979 596.272071 30.231849 
C 591.914867 26.980719 587.070304 24.439807 581.91854 22.703603 
C 576.766777 20.967399 571.372477 20.057697 565.936244 20.008325 
C 560.50001 19.958954 555.090078 20.770533 549.907631 22.412882 
C 544.725183 24.055231 539.83527 26.507736 535.419737 29.679192 
C 531.004204 32.850649 527.118473 36.70125 523.907047 41.087799 
C 520.695622 45.474349 518.19881 50.341788 516.509464 55.509106 
C 514.820118 60.676425 513.959441 66.078764 513.959441 71.515221 
C 513.959441 76.951679 514.820118 82.354018 516.509464 87.521336 
C 518.19881 92.688655 520.695622 97.556094 523.907047 101.942643 
C 527.118473 106.329193 531.004204 110.179794 535.419737 113.35125 
C 539.83527 116.522707 544.725183 118.975211 549.907631 120.617561 
C 555.090078 122.25991 560.50001 123.071489 565.936244 123.022118 
C 571.372477 122.972746 576.766777 122.063043 581.91854 120.32684 
C 587.070304 118.590636 591.914867 116.049723 596.272071 112.798594 
C 600.629275 109.547464 604.444429 105.626924 607.575654 101.182771 
" style="fill:#c0c0c0;opacity:0.4;"/>
   </g>
   <g id="patch_9">
    <path clip-path="url(#pcab7c693a9)" d="M 607.575654 41.847672 
C 613.692744 50.529664 616.977482 60.894686 616.977482 71.515221 
C 616.977482 82.135757 613.692744 92.500778 607.575654 101.182771 
C 611.583621 97.350777 614.773804 92.746034 616.953167 87.647177 
C 619.132529 82.548319 620.256207 77.060307 620.256207 71.515221 
C 620.256207 65.970136 619.132529 60.482124 616.953167 55.383266 
C 614.773804 50.284408 611.583621 45.679666 607.575654 41.847672 
" style="fill:#b2df8a;opacity:0.4;"/>
   </g>
   <g id="patch_10">
    <path clip-path="url(#pcab7c693a9)" d="M 607.575654 101.182771 
C 613.692744 92.500778 616.977482 82.135757 616.977482 71.515221 
C 616.977482 60.894686 613.692744 50.529664 607.575654 41.847672 
C 601.765329 36.292452 594.44908 32.564653 586.539584 31.129302 
C 578.630089 29.693952 570.470509 30.613325 563.078724 33.772734 
C 555.686939 36.932143 549.38365 42.194512 544.95517 48.90338 
C 540.526689 55.612248 538.165152 63.476543 538.165152 71.515221 
C 538.165152 79.5539 540.526689 87.418194 544.95517 94.127062 
C 549.38365 100.83593 555.686939 106.0983 563.078724 109.257708 
C 570.470509 112.417117 578.630089 113.336491 586.539584 111.90114 
C 594.44908 110.46579 601.765329 106.73799 607.575654 101.182771 
" style="fill:#ffffe7;opacity:0.4;"/>
   </g>
   <g id="text_11">
    <!-- 454 -->
    <g style="fill:#262626;" transform="translate(516.518547 74.274596)scale(0.1 -0.1)">
     <defs>
      <path d="M 691 4666 
L 3169 4666 
L 3169 4134 
L 1269 4134 
L 1269 2991 
Q 1406 3038 1543 3061 
Q 1681 3084 1819 3084 
Q 2600 3084 3056 2656 
Q 3513 2228 3513 1497 
Q 3513 744 3044 326 
Q 2575 -91 1722 -91 
Q 1428 -91 1123 -41 
Q 819 9 494 109 
L 494 744 
Q 775 591 1075 516 
Q 1375 441 1709 441 
Q 2250 441 2565 725 
Q 2881 1009 2881 1497 
Q 2881 1984 2565 2268 
Q 2250 2553 1709 2553 
Q 1456 2553 1204 2497 
Q 953 2441 691 2322 
L 691 4666 
z
" id="DejaVuSans-35" transform="scale(0.015625)"/>
     </defs>
     <use xlink:href="#DejaVuSans-34"/>
     <use x="63.623047" xlink:href="#DejaVuSans-35"/>
     <use x="127.246094" xlink:href="#DejaVuSans-34"/>
    </g>
   </g>
   <g id="text_12">
    <!-- 20 -->
    <g style="fill:#262626;" transform="translate(612.254344 74.274596)scale(0.1 -0.1)">
     <defs>
      <path d="M 2034 4250 
Q 1547 4250 1301 3770 
Q 1056 3291 1056 2328 
Q 1056 1369 1301 889 
Q 1547 409 2034 409 
Q 2525 409 2770 889 
Q 3016 1369 3016 2328 
Q 3016 3291 2770 3770 
Q 2525 4250 2034 4250 
z
M 2034 4750 
Q 2819 4750 3233 4129 
Q 3647 3509 3647 2328 
Q 3647 1150 3233 529 
Q 2819 -91 2034 -91 
Q 1250 -91 836 529 
Q 422 1150 422 2328 
Q 422 3509 836 4129 
Q 1250 4750 2034 4750 
z
" id="DejaVuSans-30" transform="scale(0.015625)"/>
     </defs>
     <use xlink:href="#DejaVuSans-32"/>
     <use x="63.623047" xlink:href="#DejaVuSans-30"/>
    </g>
   </g>
   <g id="text_13">
    <!-- 735 -->
    <g style="fill:#262626;" transform="translate(568.027567 74.274596)scale(0.1 -0.1)">
     <defs>
      <path d="M 525 4666 
L 3525 4666 
L 3525 4397 
L 1831 0 
L 1172 0 
L 2766 4134 
L 525 4134 
L 525 4666 
z
" id="DejaVuSans-37" transform="scale(0.015625)"/>
     </defs>
     <use xlink:href="#DejaVuSans-37"/>
     <use x="63.623047" xlink:href="#DejaVuSans-33"/>
     <use x="127.246094" xlink:href="#DejaVuSans-35"/>
    </g>
   </g>
   <g id="text_14">
    <!-- Bioregistry -->
    <g style="fill:#262626;" transform="translate(500.569087 136.770094)scale(0.12 -0.12)">
     <use xlink:href="#DejaVuSans-42"/>
     <use x="68.603516" xlink:href="#DejaVuSans-69"/>
     <use x="96.386719" xlink:href="#DejaVuSans-6f"/>
     <use x="157.568359" xlink:href="#DejaVuSans-72"/>
     <use x="196.431641" xlink:href="#DejaVuSans-65"/>
     <use x="257.955078" xlink:href="#DejaVuSans-67"/>
     <use x="321.431641" xlink:href="#DejaVuSans-69"/>
     <use x="349.214844" xlink:href="#DejaVuSans-73"/>
     <use x="401.314453" xlink:href="#DejaVuSans-74"/>
     <use x="440.523438" xlink:href="#DejaVuSans-72"/>
     <use x="481.636719" xlink:href="#DejaVuSans-79"/>
    </g>
   </g>
   <g id="text_15">
    <!-- MIRIAM -->
    <g style="fill:#262626;" transform="translate(579.210679 126.306601)scale(0.12 -0.12)">
     <defs>
      <path d="M 628 4666 
L 1569 4666 
L 2759 1491 
L 3956 4666 
L 4897 4666 
L 4897 0 
L 4281 0 
L 4281 4097 
L 3078 897 
L 2444 897 
L 1241 4097 
L 1241 0 
L 628 0 
L 628 4666 
z
" id="DejaVuSans-4d" transform="scale(0.015625)"/>
      <path d="M 628 4666 
L 1259 4666 
L 1259 0 
L 628 0 
L 628 4666 
z
" id="DejaVuSans-49" transform="scale(0.015625)"/>
      <path d="M 2841 2188 
Q 3044 2119 3236 1894 
Q 3428 1669 3622 1275 
L 4263 0 
L 3584 0 
L 2988 1197 
Q 2756 1666 2539 1819 
Q 2322 1972 1947 1972 
L 1259 1972 
L 1259 0 
L 628 0 
L 628 4666 
L 2053 4666 
Q 2853 4666 3247 4331 
Q 3641 3997 3641 3322 
Q 3641 2881 3436 2590 
Q 3231 2300 2841 2188 
z
M 1259 4147 
L 1259 2491 
L 2053 2491 
Q 2509 2491 2742 2702 
Q 2975 2913 2975 3322 
Q 2975 3731 2742 3939 
Q 2509 4147 2053 4147 
L 1259 4147 
z
" id="DejaVuSans-52" transform="scale(0.015625)"/>
      <path d="M 2188 4044 
L 1331 1722 
L 3047 1722 
L 2188 4044 
z
M 1831 4666 
L 2547 4666 
L 4325 0 
L 3669 0 
L 3244 1197 
L 1141 1197 
L 716 0 
L 50 0 
L 1831 4666 
z
" id="DejaVuSans-41" transform="scale(0.015625)"/>
     </defs>
     <use xlink:href="#DejaVuSans-4d"/>
     <use x="86.279297" xlink:href="#DejaVuSans-49"/>
     <use x="115.771484" xlink:href="#DejaVuSans-52"/>
     <use x="185.253906" xlink:href="#DejaVuSans-49"/>
     <use x="214.746094" xlink:href="#DejaVuSans-41"/>
     <use x="283.154297" xlink:href="#DejaVuSans-4d"/>
    </g>
   </g>
  </g>
  <g id="axes_4">
   <g id="patch_11">
    <path clip-path="url(#pff2b327c13)" d="M 146.494129 230.119805 
C 144.002813 228.031957 141.999132 225.423205 140.624503 222.477673 
C 139.249874 219.532141 138.537417 216.320797 138.537417 213.070295 
C 138.537417 209.819793 139.249874 206.608449 140.624503 203.662917 
C 141.999132 200.717385 144.002813 198.108633 146.494129 196.020785 
C 144.499507 190.399312 141.533787 185.171227 137.732141 180.57482 
C 133.930496 175.978412 129.351575 172.084591 124.204078 169.070831 
C 119.056581 166.057071 113.41992 163.969867 107.551007 162.904349 
C 101.682094 161.838832 95.671468 161.81144 89.793087 162.823422 
C 83.914706 163.835403 78.259256 165.871147 73.084505 168.837865 
C 67.909753 171.804584 63.295532 175.656509 59.452152 180.218076 
C 55.608771 184.779644 52.595523 189.980481 50.549748 195.58354 
C 48.503973 201.186599 47.45723 207.105442 47.45723 213.070295 
C 47.45723 219.035148 48.503973 224.95399 50.549748 230.55705 
C 52.595523 236.160109 55.608771 241.360946 59.452152 245.922513 
C 63.295532 250.484081 67.909753 254.336006 73.084505 257.302725 
C 78.259256 260.269443 83.914706 262.305187 89.793087 263.317168 
C 95.671468 264.32915 101.682094 264.301758 107.551007 263.236241 
C 113.41992 262.170723 119.056581 260.083519 124.204078 257.069759 
C 129.351575 254.055999 133.930496 250.162178 137.732141 245.56577 
C 141.533787 240.969362 144.499507 235.741278 146.494129 230.119805 
" style="fill:#c0c0c0;opacity:0.4;"/>
   </g>
   <g id="patch_12">
    <path clip-path="url(#pff2b327c13)" d="M 146.494129 196.020785 
C 148.436567 201.495187 149.429255 207.261496 149.429255 213.070295 
C 149.429255 218.879094 148.436567 224.645403 146.494129 230.119805 
C 149.738363 232.838636 153.692203 234.575824 157.889104 235.126384 
C 162.086006 235.676944 166.354133 235.018334 170.189855 233.228268 
C 174.025576 231.438203 177.271846 228.589974 179.54561 225.019667 
C 181.819373 221.44936 183.027535 217.303154 183.027535 213.070295 
C 183.027535 208.837436 181.819373 204.69123 179.54561 201.120923 
C 177.271846 197.550616 174.025576 194.702387 170.189855 192.912321 
C 166.354133 191.122256 162.086006 190.463646 157.889104 191.014206 
C 153.692203 191.564766 149.738363 193.301954 146.494129 196.020785 
" style="fill:#33a02c;opacity:0.4;"/>
   </g>
   <g id="patch_13">
    <path clip-path="url(#pff2b327c13)" d="M 146.494129 230.119805 
C 148.436567 224.645403 149.429255 218.879094 149.429255 213.070295 
C 149.429255 207.261496 148.436567 201.495187 146.494129 196.020785 
C 144.002813 198.108633 141.999132 200.717385 140.624503 203.662917 
C 139.249874 206.608449 138.537417 209.819793 138.537417 213.070295 
C 138.537417 216.320797 139.249874 219.532141 140.624503 222.477673 
C 141.999132 225.423205 144.002813 228.031957 146.494129 230.119805 
" style="fill:#aaf6a5;opacity:0.4;"/>
   </g>
   <g id="text_16">
    <!-- 1145 -->
    <g style="fill:#262626;" transform="translate(80.272324 215.82967)scale(0.1 -0.1)">
     <defs>
      <path d="M 794 531 
L 1825 531 
L 1825 4091 
L 703 3866 
L 703 4441 
L 1819 4666 
L 2450 4666 
L 2450 531 
L 3481 531 
L 3481 0 
L 794 0 
L 794 531 
z
" id="DejaVuSans-31" transform="scale(0.015625)"/>
     </defs>
     <use xlink:href="#DejaVuSans-31"/>
     <use x="63.623047" xlink:href="#DejaVuSans-31"/>
     <use x="127.246094" xlink:href="#DejaVuSans-34"/>
     <use x="190.869141" xlink:href="#DejaVuSans-35"/>
    </g>
   </g>
   <g id="text_17">
    <!-- 188 -->
    <g style="fill:#262626;" transform="translate(156.684645 215.82967)scale(0.1 -0.1)">
     <defs>
      <path d="M 2034 2216 
Q 1584 2216 1326 1975 
Q 1069 1734 1069 1313 
Q 1069 891 1326 650 
Q 1584 409 2034 409 
Q 2484 409 2743 651 
Q 3003 894 3003 1313 
Q 3003 1734 2745 1975 
Q 2488 2216 2034 2216 
z
M 1403 2484 
Q 997 2584 770 2862 
Q 544 3141 544 3541 
Q 544 4100 942 4425 
Q 1341 4750 2034 4750 
Q 2731 4750 3128 4425 
Q 3525 4100 3525 3541 
Q 3525 3141 3298 2862 
Q 3072 2584 2669 2484 
Q 3125 2378 3379 2068 
Q 3634 1759 3634 1313 
Q 3634 634 3220 271 
Q 2806 -91 2034 -91 
Q 1263 -91 848 271 
Q 434 634 434 1313 
Q 434 1759 690 2068 
Q 947 2378 1403 2484 
z
M 1172 3481 
Q 1172 3119 1398 2916 
Q 1625 2713 2034 2713 
Q 2441 2713 2670 2916 
Q 2900 3119 2900 3481 
Q 2900 3844 2670 4047 
Q 2441 4250 2034 4250 
Q 1625 4250 1398 4047 
Q 1172 3844 1172 3481 
z
" id="DejaVuSans-38" transform="scale(0.015625)"/>
     </defs>
     <use xlink:href="#DejaVuSans-31"/>
     <use x="63.623047" xlink:href="#DejaVuSans-38"/>
     <use x="127.246094" xlink:href="#DejaVuSans-38"/>
    </g>
   </g>
   <g id="text_18">
    <!-- 37 -->
    <g style="fill:#262626;" transform="translate(137.620836 215.82967)scale(0.1 -0.1)">
     <use xlink:href="#DejaVuSans-33"/>
     <use x="63.623047" xlink:href="#DejaVuSans-37"/>
    </g>
   </g>
   <g id="text_19">
    <!-- Bioregistry -->
    <g style="fill:#262626;" transform="translate(33.543868 276.835986)scale(0.12 -0.12)">
     <use xlink:href="#DejaVuSans-42"/>
     <use x="68.603516" xlink:href="#DejaVuSans-69"/>
     <use x="96.386719" xlink:href="#DejaVuSans-6f"/>
     <use x="157.568359" xlink:href="#DejaVuSans-72"/>
     <use x="196.431641" xlink:href="#DejaVuSans-65"/>
     <use x="257.955078" xlink:href="#DejaVuSans-67"/>
     <use x="321.431641" xlink:href="#DejaVuSans-69"/>
     <use x="349.214844" xlink:href="#DejaVuSans-73"/>
     <use x="401.314453" xlink:href="#DejaVuSans-74"/>
     <use x="440.523438" xlink:href="#DejaVuSans-72"/>
     <use x="481.636719" xlink:href="#DejaVuSans-79"/>
    </g>
   </g>
   <g id="text_20">
    <!-- Wikidata -->
    <g style="fill:#262626;" transform="translate(160.782476 248.095033)scale(0.12 -0.12)">
     <defs>
      <path d="M 213 4666 
L 850 4666 
L 1831 722 
L 2809 4666 
L 3519 4666 
L 4500 722 
L 5478 4666 
L 6119 4666 
L 4947 0 
L 4153 0 
L 3169 4050 
L 2175 0 
L 1381 0 
L 213 4666 
z
" id="DejaVuSans-57" transform="scale(0.015625)"/>
      <path d="M 581 4863 
L 1159 4863 
L 1159 1991 
L 2875 3500 
L 3609 3500 
L 1753 1863 
L 3688 0 
L 2938 0 
L 1159 1709 
L 1159 0 
L 581 0 
L 581 4863 
z
" id="DejaVuSans-6b" transform="scale(0.015625)"/>
      <path d="M 2906 2969 
L 2906 4863 
L 3481 4863 
L 3481 0 
L 2906 0 
L 2906 525 
Q 2725 213 2448 61 
Q 2172 -91 1784 -91 
Q 1150 -91 751 415 
Q 353 922 353 1747 
Q 353 2572 751 3078 
Q 1150 3584 1784 3584 
Q 2172 3584 2448 3432 
Q 2725 3281 2906 2969 
z
M 947 1747 
Q 947 1113 1208 752 
Q 1469 391 1925 391 
Q 2381 391 2643 752 
Q 2906 1113 2906 1747 
Q 2906 2381 2643 2742 
Q 2381 3103 1925 3103 
Q 1469 3103 1208 2742 
Q 947 2381 947 1747 
z
" id="DejaVuSans-64" transform="scale(0.015625)"/>
      <path d="M 2194 1759 
Q 1497 1759 1228 1600 
Q 959 1441 959 1056 
Q 959 750 1161 570 
Q 1363 391 1709 391 
Q 2188 391 2477 730 
Q 2766 1069 2766 1631 
L 2766 1759 
L 2194 1759 
z
M 3341 1997 
L 3341 0 
L 2766 0 
L 2766 531 
Q 2569 213 2275 61 
Q 1981 -91 1556 -91 
Q 1019 -91 701 211 
Q 384 513 384 1019 
Q 384 1609 779 1909 
Q 1175 2209 1959 2209 
L 2766 2209 
L 2766 2266 
Q 2766 2663 2505 2880 
Q 2244 3097 1772 3097 
Q 1472 3097 1187 3025 
Q 903 2953 641 2809 
L 641 3341 
Q 956 3463 1253 3523 
Q 1550 3584 1831 3584 
Q 2591 3584 2966 3190 
Q 3341 2797 3341 1997 
z
" id="DejaVuSans-61" transform="scale(0.015625)"/>
     </defs>
     <use xlink:href="#DejaVuSans-57"/>
     <use x="96.626953" xlink:href="#DejaVuSans-69"/>
     <use x="124.410156" xlink:href="#DejaVuSans-6b"/>
     <use x="182.320312" xlink:href="#DejaVuSans-69"/>
     <use x="210.103516" xlink:href="#DejaVuSans-64"/>
     <use x="273.580078" xlink:href="#DejaVuSans-61"/>
     <use x="334.859375" xlink:href="#DejaVuSans-74"/>
     <use x="374.068359" xlink:href="#DejaVuSans-61"/>
    </g>
   </g>
  </g>
  <g id="axes_5">
   <g id="patch_14">
    <path clip-path="url(#p38a8ab7b8e)" d="M 386.0335 236.455304 
C 383.59152 239.7319 380.651302 242.605861 377.319909 244.97254 
C 373.988515 247.339218 370.306876 249.169536 366.409048 250.396848 
C 362.511221 251.624159 358.445096 252.233385 354.35873 252.202341 
C 350.272364 252.171297 346.215964 251.500366 342.337233 250.213977 
C 338.458502 248.927587 334.805095 247.041546 331.510043 244.624526 
C 328.214991 242.207507 325.318777 239.289207 322.926859 235.975889 
C 320.534941 232.66257 318.676707 228.994942 317.419821 225.10655 
C 316.162934 221.218159 315.522837 217.156779 315.522837 213.070295 
C 315.522837 208.983811 316.162934 204.922431 317.419821 201.03404 
C 318.676707 197.145648 320.534941 193.47802 322.926859 190.164701 
C 325.318777 186.851383 328.214991 183.933083 331.510043 181.516064 
C 334.805095 179.099044 338.458502 177.213003 342.337233 175.926613 
C 346.215964 174.640224 350.272364 173.969293 354.35873 173.938249 
C 358.445096 173.907205 362.511221 174.516431 366.409048 175.743742 
C 370.306876 176.971054 373.988515 178.801372 377.319909 181.16805 
C 380.651302 183.534729 383.59152 186.40869 386.0335 189.685286 
C 383.425243 184.562346 379.978185 179.911687 375.835303 175.926208 
C 371.69242 171.940729 366.911796 168.676305 361.691719 166.268337 
C 356.471641 163.860369 350.885295 162.342616 345.16439 161.77803 
C 339.443484 161.213445 333.668224 161.609943 328.078155 162.951079 
C 322.488086 164.292215 317.161579 166.559185 312.319565 169.657962 
C 307.477551 172.756739 303.187914 176.643879 299.628579 181.158151 
C 296.069244 185.672422 293.290111 190.750538 291.406453 196.181868 
C 289.522795 201.613199 288.561019 207.321598 288.561019 213.070295 
C 288.561019 218.818992 289.522795 224.527391 291.406453 229.958722 
C 293.290111 235.390052 296.069244 240.468168 299.628579 244.982439 
C 303.187914 249.496711 307.477551 253.383851 312.319565 256.482628 
C 317.161579 259.581405 322.488086 261.848375 328.078155 263.189511 
C 333.668224 264.530647 339.443484 264.927145 345.16439 264.36256 
C 350.885295 263.797974 356.471641 262.280221 361.691719 259.872253 
C 366.911796 257.464285 371.69242 254.199861 375.835303 250.214382 
C 379.978185 246.228903 383.425243 241.578244 386.0335 236.455304 
" style="fill:#c0c0c0;opacity:0.4;"/>
   </g>
   <g id="patch_15">
    <path clip-path="url(#p38a8ab7b8e)" d="M 386.0335 189.685286 
C 389.721256 196.928492 391.643891 204.942345 391.643891 213.070295 
C 391.643891 221.198245 389.721256 229.212098 386.0335 236.455304 
C 391.068255 229.699782 393.789188 221.495604 393.789188 213.070295 
C 393.789188 204.644986 391.068255 196.440808 386.0335 189.685286 
" style="fill:#fb9a99;opacity:0.4;"/>
   </g>
   <g id="patch_16">
    <path clip-path="url(#p38a8ab7b8e)" d="M 386.0335 236.455304 
C 389.721256 229.212098 391.643891 221.198245 391.643891 213.070295 
C 391.643891 204.942345 389.721256 196.928492 386.0335 189.685286 
C 383.59152 186.40869 380.651302 183.534729 377.319909 181.16805 
C 373.988515 178.801372 370.306876 176.971054 366.409048 175.743742 
C 362.511221 174.516431 358.445096 173.907205 354.35873 173.938249 
C 350.272364 173.969293 346.215964 174.640224 342.337233 175.926613 
C 338.458502 177.213003 334.805095 179.099044 331.510043 181.516064 
C 328.214991 183.933083 325.318777 186.851383 322.926859 190.164701 
C 320.534941 193.47802 318.676707 197.145648 317.419821 201.03404 
C 316.162934 204.922431 315.522837 208.983811 315.522837 213.070295 
C 315.522837 217.156779 316.162934 221.218159 317.419821 225.10655 
C 318.676707 228.994942 320.534941 232.66257 322.926859 235.975889 
C 325.318777 239.289207 328.214991 242.207507 331.510043 244.624526 
C 334.805095 247.041546 338.458502 248.927587 342.337233 250.213977 
C 346.215964 251.500366 350.272364 252.171297 354.35873 252.202341 
C 358.445096 252.233385 362.511221 251.624159 366.409048 250.396848 
C 370.306876 249.169536 373.988515 247.339218 377.319909 244.97254 
C 380.651302 242.605861 383.59152 239.7319 386.0335 236.455304 
" style="fill:#fff2f2;opacity:0.4;"/>
   </g>
   <g id="text_21">
    <!-- 514 -->
    <g style="fill:#262626;" transform="translate(292.498178 215.82967)scale(0.1 -0.1)">
     <use xlink:href="#DejaVuSans-35"/>
     <use x="63.623047" xlink:href="#DejaVuSans-31"/>
     <use x="127.246094" xlink:href="#DejaVuSans-34"/>
    </g>
   </g>
   <g id="text_22">
    <!-- 10 -->
    <g style="fill:#262626;" transform="translate(386.354039 215.82967)scale(0.1 -0.1)">
     <use xlink:href="#DejaVuSans-31"/>
     <use x="63.623047" xlink:href="#DejaVuSans-30"/>
    </g>
   </g>
   <g id="text_23">
    <!-- 676 -->
    <g style="fill:#262626;" transform="translate(344.039614 215.82967)scale(0.1 -0.1)">
     <use xlink:href="#DejaVuSans-36"/>
     <use x="63.623047" xlink:href="#DejaVuSans-37"/>
     <use x="127.246094" xlink:href="#DejaVuSans-36"/>
    </g>
   </g>
   <g id="text_24">
    <!-- Bioregistry -->
    <g style="fill:#262626;" transform="translate(275.20308 278.263586)scale(0.12 -0.12)">
     <use xlink:href="#DejaVuSans-42"/>
     <use x="68.603516" xlink:href="#DejaVuSans-69"/>
     <use x="96.386719" xlink:href="#DejaVuSans-6f"/>
     <use x="157.568359" xlink:href="#DejaVuSans-72"/>
     <use x="196.431641" xlink:href="#DejaVuSans-65"/>
     <use x="257.955078" xlink:href="#DejaVuSans-67"/>
     <use x="321.431641" xlink:href="#DejaVuSans-69"/>
     <use x="349.214844" xlink:href="#DejaVuSans-73"/>
     <use x="401.314453" xlink:href="#DejaVuSans-74"/>
     <use x="440.523438" xlink:href="#DejaVuSans-72"/>
     <use x="481.636719" xlink:href="#DejaVuSans-79"/>
    </g>
   </g>
   <g id="text_25">
    <!-- N2T -->
    <g style="fill:#262626;" transform="translate(354.656012 265.855326)scale(0.12 -0.12)">
     <defs>
      <path d="M 628 4666 
L 1478 4666 
L 3547 763 
L 3547 4666 
L 4159 4666 
L 4159 0 
L 3309 0 
L 1241 3903 
L 1241 0 
L 628 0 
L 628 4666 
z
" id="DejaVuSans-4e" transform="scale(0.015625)"/>
      <path d="M -19 4666 
L 3928 4666 
L 3928 4134 
L 2272 4134 
L 2272 0 
L 1638 0 
L 1638 4134 
L -19 4134 
L -19 4666 
z
" id="DejaVuSans-54" transform="scale(0.015625)"/>
     </defs>
     <use xlink:href="#DejaVuSans-4e"/>
     <use x="74.804688" xlink:href="#DejaVuSans-32"/>
     <use x="138.427734" xlink:href="#DejaVuSans-54"/>
    </g>
   </g>
  </g>
  <g id="axes_6">
   <g id="patch_17">
    <path clip-path="url(#p7242914028)" d="M 602.023686 236.793407 
C 596.219303 236.102229 590.865717 233.30427 586.984455 228.933412 
C 583.103193 224.562554 580.957887 218.915686 580.957887 213.070295 
C 580.957887 207.224904 583.103193 201.578035 586.984455 197.207178 
C 590.865717 192.83632 596.219303 190.038361 602.023686 189.347183 
C 599.388623 184.308883 595.932428 179.744647 591.797293 175.842251 
C 587.662158 171.939856 582.905579 168.75356 577.723243 166.414451 
C 572.540908 164.075342 567.004873 162.615943 561.342895 162.096294 
C 555.680916 161.576646 549.97172 162.003973 544.450187 163.360695 
C 538.928653 164.717418 533.671554 166.984671 528.89517 170.06918 
C 524.118787 173.153688 519.889531 177.012564 516.381396 181.48705 
C 512.873262 185.961536 510.135027 190.989418 508.279345 196.363846 
C 506.423663 201.738274 505.476335 207.38452 505.476335 213.070295 
C 505.476335 218.75607 506.423663 224.402316 508.279345 229.776744 
C 510.135027 235.151172 512.873262 240.179054 516.381396 244.65354 
C 519.889531 249.128026 524.118787 252.986901 528.89517 256.07141 
C 533.671554 259.155918 538.928653 261.423172 544.450187 262.779895 
C 549.97172 264.136617 555.680916 264.563944 561.342895 264.044296 
C 567.004873 263.524647 572.540908 262.065248 577.723243 259.726139 
C 582.905579 257.38703 587.662158 254.200734 591.797293 250.298339 
C 595.932428 246.395943 599.388623 241.831707 602.023686 236.793407 
" style="fill:#c0c0c0;opacity:0.4;"/>
   </g>
   <g id="patch_18">
    <path clip-path="url(#p7242914028)" d="M 602.023686 189.347183 
C 605.852612 196.668174 607.852806 204.80848 607.852806 213.070295 
C 607.852806 221.33211 605.852612 229.472416 602.023686 236.793407 
C 605.375701 237.19256 608.774564 236.876771 611.995667 235.866909 
C 615.216769 234.857047 618.18756 233.175858 620.711717 230.93444 
C 623.235875 228.693023 625.256546 225.941863 626.640197 222.862766 
C 628.023848 219.78367 628.739313 216.445991 628.739313 213.070295 
C 628.739313 209.694599 628.023848 206.35692 626.640197 203.277824 
C 625.256546 200.198727 623.235875 197.447567 620.711717 195.20615 
C 618.18756 192.964732 615.216769 191.283543 611.995667 190.273681 
C 608.774564 189.263819 605.375701 188.94803 602.023686 189.347183 
" style="fill:#e31a1c;opacity:0.4;"/>
   </g>
   <g id="patch_19">
    <path clip-path="url(#p7242914028)" d="M 602.023686 236.793407 
C 605.852612 229.472416 607.852806 221.33211 607.852806 213.070295 
C 607.852806 204.80848 605.852612 196.668174 602.023686 189.347183 
C 596.219303 190.038361 590.865717 192.83632 586.984455 197.207178 
C 583.103193 201.578035 580.957887 207.224904 580.957887 213.070295 
C 580.957887 218.915686 583.103193 224.562554 586.984455 228.933412 
C 590.865717 233.30427 596.219303 236.102229 602.023686 236.793407 
" style="fill:#ff999a;opacity:0.4;"/>
   </g>
   <g id="text_26">
    <!-- 1052 -->
    <g style="fill:#262626;" transform="translate(530.492111 215.82967)scale(0.1 -0.1)">
     <use xlink:href="#DejaVuSans-31"/>
     <use x="63.623047" xlink:href="#DejaVuSans-30"/>
     <use x="127.246094" xlink:href="#DejaVuSans-35"/>
     <use x="190.869141" xlink:href="#DejaVuSans-32"/>
    </g>
   </g>
   <g id="text_27">
    <!-- 122 -->
    <g style="fill:#262626;" transform="translate(608.75231 215.82967)scale(0.1 -0.1)">
     <use xlink:href="#DejaVuSans-31"/>
     <use x="63.623047" xlink:href="#DejaVuSans-32"/>
     <use x="127.246094" xlink:href="#DejaVuSans-32"/>
    </g>
   </g>
   <g id="text_28">
    <!-- 137 -->
    <g style="fill:#262626;" transform="translate(584.861596 215.82967)scale(0.1 -0.1)">
     <use xlink:href="#DejaVuSans-31"/>
     <use x="63.623047" xlink:href="#DejaVuSans-33"/>
     <use x="127.246094" xlink:href="#DejaVuSans-37"/>
    </g>
   </g>
   <g id="text_29">
    <!-- Bioregistry -->
    <g style="fill:#262626;" transform="translate(491.765195 277.130603)scale(0.12 -0.12)">
     <use xlink:href="#DejaVuSans-42"/>
     <use x="68.603516" xlink:href="#DejaVuSans-69"/>
     <use x="96.386719" xlink:href="#DejaVuSans-6f"/>
     <use x="157.568359" xlink:href="#DejaVuSans-72"/>
     <use x="196.431641" xlink:href="#DejaVuSans-65"/>
     <use x="257.955078" xlink:href="#DejaVuSans-67"/>
     <use x="321.431641" xlink:href="#DejaVuSans-69"/>
     <use x="349.214844" xlink:href="#DejaVuSans-73"/>
     <use x="401.314453" xlink:href="#DejaVuSans-74"/>
     <use x="440.523438" xlink:href="#DejaVuSans-72"/>
     <use x="481.636719" xlink:href="#DejaVuSans-79"/>
    </g>
   </g>
   <g id="text_30">
    <!-- GO -->
    <g style="fill:#262626;" transform="translate(604.8486 249.833081)scale(0.12 -0.12)">
     <defs>
      <path d="M 3809 666 
L 3809 1919 
L 2778 1919 
L 2778 2438 
L 4434 2438 
L 4434 434 
Q 4069 175 3628 42 
Q 3188 -91 2688 -91 
Q 1594 -91 976 548 
Q 359 1188 359 2328 
Q 359 3472 976 4111 
Q 1594 4750 2688 4750 
Q 3144 4750 3555 4637 
Q 3966 4525 4313 4306 
L 4313 3634 
Q 3963 3931 3569 4081 
Q 3175 4231 2741 4231 
Q 1884 4231 1454 3753 
Q 1025 3275 1025 2328 
Q 1025 1384 1454 906 
Q 1884 428 2741 428 
Q 3075 428 3337 486 
Q 3600 544 3809 666 
z
" id="DejaVuSans-47" transform="scale(0.015625)"/>
     </defs>
     <use xlink:href="#DejaVuSans-47"/>
     <use x="77.490234" xlink:href="#DejaVuSans-4f"/>
    </g>
   </g>
  </g>
  <g id="axes_7">
   <g id="patch_20">
    <path clip-path="url(#pb2da5994f2)" d="M 123.411944 391.482843 
C 117.199066 387.54705 112.081042 382.103507 108.535334 375.660039 
C 104.989626 369.216571 103.130031 361.979981 103.130031 354.625369 
C 103.130031 347.270756 104.989626 340.034166 108.535334 333.590698 
C 112.081042 327.147231 117.199066 321.703687 123.411944 317.767894 
C 116.272299 311.277256 107.398205 306.998873 97.873488 305.455278 
C 88.348772 303.911683 78.577651 305.168385 69.753508 309.071899 
C 60.929365 312.975413 53.426688 319.360078 48.161806 327.446111 
C 42.896924 335.532145 40.093273 344.976383 40.093273 354.625369 
C 40.093273 364.274354 42.896924 373.718593 48.161806 381.804626 
C 53.426688 389.890659 60.929365 396.275324 69.753508 400.178838 
C 78.577651 404.082352 88.348772 405.339055 97.873488 403.79546 
C 107.398205 402.251865 116.272299 397.973481 123.411944 391.482843 
" style="fill:#c0c0c0;opacity:0.4;"/>
   </g>
   <g id="patch_21">
    <path clip-path="url(#pb2da5994f2)" d="M 123.411944 317.767894 
C 128.547271 322.43641 132.650676 328.12706 135.458353 334.473993 
C 138.26603 340.820927 139.716494 347.685151 139.716494 354.625369 
C 139.716494 361.565586 138.26603 368.429811 135.458353 374.776744 
C 132.650676 381.123678 128.547271 386.814327 123.411944 391.482843 
C 130.009663 395.662428 137.61018 397.994786 145.416647 398.235391 
C 153.223115 398.475996 160.952841 396.616134 167.795432 392.850796 
C 174.638023 389.085459 180.345692 383.550997 184.32004 376.827651 
C 188.294387 370.104304 190.391493 362.435543 190.391493 354.625369 
C 190.391493 346.815194 188.294387 339.146433 184.32004 332.423087 
C 180.345692 325.69974 174.638023 320.165279 167.795432 316.399941 
C 160.952841 312.634603 153.223115 310.774741 145.416647 311.015346 
C 137.61018 311.255951 130.009663 313.58831 123.411944 317.767894 
" style="fill:#fdbf6f;opacity:0.4;"/>
   </g>
   <g id="patch_22">
    <path clip-path="url(#pb2da5994f2)" d="M 123.411944 391.482843 
C 128.547271 386.814327 132.650676 381.123678 135.458353 374.776744 
C 138.26603 368.429811 139.716494 361.565586 139.716494 354.625369 
C 139.716494 347.685151 138.26603 340.820927 135.458353 334.473993 
C 132.650676 328.12706 128.547271 322.43641 123.411944 317.767894 
C 117.199066 321.703687 112.081042 327.147231 108.535334 333.590698 
C 104.989626 340.034166 103.130031 347.270756 103.130031 354.625369 
C 103.130031 361.979981 104.989626 369.216571 108.535334 375.660039 
C 112.081042 382.103507 117.199066 387.54705 123.411944 391.482843 
" style="fill:#ffffd4;opacity:0.4;"/>
   </g>
   <g id="text_31">
    <!-- 902 -->
    <g style="fill:#262626;" transform="translate(62.067902 357.384744)scale(0.1 -0.1)">
     <use xlink:href="#DejaVuSans-39"/>
     <use x="63.623047" xlink:href="#DejaVuSans-30"/>
     <use x="127.246094" xlink:href="#DejaVuSans-32"/>
    </g>
   </g>
   <g id="text_32">
    <!-- 625 -->
    <g style="fill:#262626;" transform="translate(155.510243 357.384744)scale(0.1 -0.1)">
     <use xlink:href="#DejaVuSans-36"/>
     <use x="63.623047" xlink:href="#DejaVuSans-32"/>
     <use x="127.246094" xlink:href="#DejaVuSans-35"/>
    </g>
   </g>
   <g id="text_33">
    <!-- 288 -->
    <g style="fill:#262626;" transform="translate(111.879512 357.384744)scale(0.1 -0.1)">
     <use xlink:href="#DejaVuSans-32"/>
     <use x="63.623047" xlink:href="#DejaVuSans-38"/>
     <use x="127.246094" xlink:href="#DejaVuSans-38"/>
    </g>
   </g>
   <g id="text_34">
    <!-- Bioregistry -->
    <g style="fill:#262626;" transform="translate(25.005509 418.227221)scale(0.12 -0.12)">
     <use xlink:href="#DejaVuSans-42"/>
     <use x="68.603516" xlink:href="#DejaVuSans-69"/>
     <use x="96.386719" xlink:href="#DejaVuSans-6f"/>
     <use x="157.568359" xlink:href="#DejaVuSans-72"/>
     <use x="196.431641" xlink:href="#DejaVuSans-65"/>
     <use x="257.955078" xlink:href="#DejaVuSans-67"/>
     <use x="321.431641" xlink:href="#DejaVuSans-69"/>
     <use x="349.214844" xlink:href="#DejaVuSans-73"/>
     <use x="401.314453" xlink:href="#DejaVuSans-74"/>
     <use x="440.523438" xlink:href="#DejaVuSans-72"/>
     <use x="481.636719" xlink:href="#DejaVuSans-79"/>
    </g>
   </g>
   <g id="text_35">
    <!-- BioPortal -->
    <g style="fill:#262626;" transform="translate(146.760762 412.046342)scale(0.12 -0.12)">
     <defs>
      <path d="M 1259 4147 
L 1259 2394 
L 2053 2394 
Q 2494 2394 2734 2622 
Q 2975 2850 2975 3272 
Q 2975 3691 2734 3919 
Q 2494 4147 2053 4147 
L 1259 4147 
z
M 628 4666 
L 2053 4666 
Q 2838 4666 3239 4311 
Q 3641 3956 3641 3272 
Q 3641 2581 3239 2228 
Q 2838 1875 2053 1875 
L 1259 1875 
L 1259 0 
L 628 0 
L 628 4666 
z
" id="DejaVuSans-50" transform="scale(0.015625)"/>
      <path d="M 603 4863 
L 1178 4863 
L 1178 0 
L 603 0 
L 603 4863 
z
" id="DejaVuSans-6c" transform="scale(0.015625)"/>
     </defs>
     <use xlink:href="#DejaVuSans-42"/>
     <use x="68.603516" xlink:href="#DejaVuSans-69"/>
     <use x="96.386719" xlink:href="#DejaVuSans-6f"/>
     <use x="157.568359" xlink:href="#DejaVuSans-50"/>
     <use x="214.246094" xlink:href="#DejaVuSans-6f"/>
     <use x="275.427734" xlink:href="#DejaVuSans-72"/>
     <use x="316.541016" xlink:href="#DejaVuSans-74"/>
     <use x="355.75" xlink:href="#DejaVuSans-61"/>
     <use x="417.029297" xlink:href="#DejaVuSans-6c"/>
    </g>
   </g>
  </g>
  <g id="axes_8">
   <g id="patch_23">
    <path clip-path="url(#pde78a9b472)" d="M 359.838322 399.790772 
C 353.249467 400.941631 346.487888 400.636871 340.029283 398.897933 
C 333.570678 397.158994 327.570143 394.027636 322.449834 389.724158 
C 317.329524 385.42068 313.2124 380.048427 310.388112 373.985351 
C 307.563823 367.922276 306.100194 361.313978 306.100194 354.625369 
C 306.100194 347.93676 307.563823 341.328461 310.388112 335.265386 
C 313.2124 329.20231 317.329524 323.830057 322.449834 319.526579 
C 327.570143 315.223101 333.570678 312.091743 340.029283 310.352805 
C 346.487888 308.613866 353.249467 308.309106 359.838322 309.459965 
C 352.038965 305.299013 343.293189 303.22839 334.456101 303.450549 
C 325.619012 303.672709 316.988327 306.180166 309.407898 310.727756 
C 301.827469 315.275347 295.552676 321.709868 291.197028 329.40219 
C 286.841381 337.094512 284.551618 345.785488 284.551618 354.625369 
C 284.551618 363.465249 286.841381 372.156225 291.197028 379.848547 
C 295.552676 387.54087 301.827469 393.97539 309.407898 398.522981 
C 316.988327 403.070572 325.619012 405.578028 334.456101 405.800188 
C 343.293189 406.022347 352.038965 403.951724 359.838322 399.790772 
" style="fill:#c0c0c0;opacity:0.4;"/>
   </g>
   <g id="patch_24">
    <path clip-path="url(#pde78a9b472)" d="M 359.838322 309.459965 
C 368.022595 313.82627 374.868193 320.33612 379.640218 328.29066 
C 384.412243 336.245201 386.933593 345.34922 386.933593 354.625369 
C 386.933593 363.901518 384.412243 373.005536 379.640218 380.960077 
C 374.868193 388.914617 368.022595 395.424467 359.838322 399.790772 
C 370.466782 397.934325 380.106255 392.38448 387.048181 384.124926 
C 393.990106 375.865372 397.798589 365.414742 397.798589 354.625369 
C 397.798589 343.835996 393.990106 333.385365 387.048181 325.125811 
C 380.106255 316.866257 370.466782 311.316412 359.838322 309.459965 
" style="fill:#ff7f00;opacity:0.4;"/>
   </g>
   <g id="patch_25">
    <path clip-path="url(#pde78a9b472)" d="M 359.838322 399.790772 
C 368.022595 395.424467 374.868193 388.914617 379.640218 380.960077 
C 384.412243 373.005536 386.933593 363.901518 386.933593 354.625369 
C 386.933593 345.34922 384.412243 336.245201 379.640218 328.29066 
C 374.868193 320.33612 368.022595 313.82627 359.838322 309.459965 
C 353.249467 308.309106 346.487888 308.613866 340.029283 310.352805 
C 333.570678 312.091743 327.570143 315.223101 322.449834 319.526579 
C 317.329524 323.830057 313.2124 329.20231 310.388112 335.265386 
C 307.563823 341.328461 306.100194 347.93676 306.100194 354.625369 
C 306.100194 361.313978 307.563823 367.922276 310.388112 373.985351 
C 313.2124 380.048427 317.329524 385.42068 322.449834 389.724158 
C 327.570143 394.027636 333.570678 397.158994 340.029283 398.897933 
C 346.487888 400.636871 353.249467 400.941631 359.838322 399.790772 
" style="fill:#ffdf86;opacity:0.4;"/>
   </g>
   <g id="text_36">
    <!-- 356 -->
    <g style="fill:#262626;" transform="translate(285.782156 357.384744)scale(0.1 -0.1)">
     <use xlink:href="#DejaVuSans-33"/>
     <use x="63.623047" xlink:href="#DejaVuSans-35"/>
     <use x="127.246094" xlink:href="#DejaVuSans-36"/>
    </g>
   </g>
   <g id="text_37">
    <!-- 121 -->
    <g style="fill:#262626;" transform="translate(382.822341 357.384744)scale(0.1 -0.1)">
     <use xlink:href="#DejaVuSans-31"/>
     <use x="63.623047" xlink:href="#DejaVuSans-32"/>
     <use x="127.246094" xlink:href="#DejaVuSans-31"/>
    </g>
   </g>
   <g id="text_38">
    <!-- 832 -->
    <g style="fill:#262626;" transform="translate(336.973144 357.384744)scale(0.1 -0.1)">
     <use xlink:href="#DejaVuSans-38"/>
     <use x="63.623047" xlink:href="#DejaVuSans-33"/>
     <use x="127.246094" xlink:href="#DejaVuSans-32"/>
    </g>
   </g>
   <g id="text_39">
    <!-- Bioregistry -->
    <g style="fill:#262626;" transform="translate(270.843231 419.78649)scale(0.12 -0.12)">
     <use xlink:href="#DejaVuSans-42"/>
     <use x="68.603516" xlink:href="#DejaVuSans-69"/>
     <use x="96.386719" xlink:href="#DejaVuSans-6f"/>
     <use x="157.568359" xlink:href="#DejaVuSans-72"/>
     <use x="196.431641" xlink:href="#DejaVuSans-65"/>
     <use x="257.955078" xlink:href="#DejaVuSans-67"/>
     <use x="321.431641" xlink:href="#DejaVuSans-69"/>
     <use x="349.214844" xlink:href="#DejaVuSans-73"/>
     <use x="401.314453" xlink:href="#DejaVuSans-74"/>
     <use x="440.523438" xlink:href="#DejaVuSans-72"/>
     <use x="481.636719" xlink:href="#DejaVuSans-79"/>
    </g>
   </g>
   <g id="text_40">
    <!-- Prefix Commons -->
    <g style="fill:#262626;" transform="translate(351.949391 414.4447)scale(0.12 -0.12)">
     <defs>
      <path d="M 2375 4863 
L 2375 4384 
L 1825 4384 
Q 1516 4384 1395 4259 
Q 1275 4134 1275 3809 
L 1275 3500 
L 2222 3500 
L 2222 3053 
L 1275 3053 
L 1275 0 
L 697 0 
L 697 3053 
L 147 3053 
L 147 3500 
L 697 3500 
L 697 3744 
Q 697 4328 969 4595 
Q 1241 4863 1831 4863 
L 2375 4863 
z
" id="DejaVuSans-66" transform="scale(0.015625)"/>
      <path d="M 3513 3500 
L 2247 1797 
L 3578 0 
L 2900 0 
L 1881 1375 
L 863 0 
L 184 0 
L 1544 1831 
L 300 3500 
L 978 3500 
L 1906 2253 
L 2834 3500 
L 3513 3500 
z
" id="DejaVuSans-78" transform="scale(0.015625)"/>
      <path id="DejaVuSans-20" transform="scale(0.015625)"/>
      <path d="M 4122 4306 
L 4122 3641 
Q 3803 3938 3442 4084 
Q 3081 4231 2675 4231 
Q 1875 4231 1450 3742 
Q 1025 3253 1025 2328 
Q 1025 1406 1450 917 
Q 1875 428 2675 428 
Q 3081 428 3442 575 
Q 3803 722 4122 1019 
L 4122 359 
Q 3791 134 3420 21 
Q 3050 -91 2638 -91 
Q 1578 -91 968 557 
Q 359 1206 359 2328 
Q 359 3453 968 4101 
Q 1578 4750 2638 4750 
Q 3056 4750 3426 4639 
Q 3797 4528 4122 4306 
z
" id="DejaVuSans-43" transform="scale(0.015625)"/>
      <path d="M 3328 2828 
Q 3544 3216 3844 3400 
Q 4144 3584 4550 3584 
Q 5097 3584 5394 3201 
Q 5691 2819 5691 2113 
L 5691 0 
L 5113 0 
L 5113 2094 
Q 5113 2597 4934 2840 
Q 4756 3084 4391 3084 
Q 3944 3084 3684 2787 
Q 3425 2491 3425 1978 
L 3425 0 
L 2847 0 
L 2847 2094 
Q 2847 2600 2669 2842 
Q 2491 3084 2119 3084 
Q 1678 3084 1418 2786 
Q 1159 2488 1159 1978 
L 1159 0 
L 581 0 
L 581 3500 
L 1159 3500 
L 1159 2956 
Q 1356 3278 1631 3431 
Q 1906 3584 2284 3584 
Q 2666 3584 2933 3390 
Q 3200 3197 3328 2828 
z
" id="DejaVuSans-6d" transform="scale(0.015625)"/>
      <path d="M 3513 2113 
L 3513 0 
L 2938 0 
L 2938 2094 
Q 2938 2591 2744 2837 
Q 2550 3084 2163 3084 
Q 1697 3084 1428 2787 
Q 1159 2491 1159 1978 
L 1159 0 
L 581 0 
L 581 3500 
L 1159 3500 
L 1159 2956 
Q 1366 3272 1645 3428 
Q 1925 3584 2291 3584 
Q 2894 3584 3203 3211 
Q 3513 2838 3513 2113 
z
" id="DejaVuSans-6e" transform="scale(0.015625)"/>
     </defs>
     <use xlink:href="#DejaVuSans-50"/>
     <use x="58.552734" xlink:href="#DejaVuSans-72"/>
     <use x="97.416016" xlink:href="#DejaVuSans-65"/>
     <use x="158.939453" xlink:href="#DejaVuSans-66"/>
     <use x="194.144531" xlink:href="#DejaVuSans-69"/>
     <use x="221.927734" xlink:href="#DejaVuSans-78"/>
     <use x="281.107422" xlink:href="#DejaVuSans-20"/>
     <use x="312.894531" xlink:href="#DejaVuSans-43"/>
     <use x="382.71875" xlink:href="#DejaVuSans-6f"/>
     <use x="443.900391" xlink:href="#DejaVuSans-6d"/>
     <use x="541.3125" xlink:href="#DejaVuSans-6d"/>
     <use x="638.724609" xlink:href="#DejaVuSans-6f"/>
     <use x="699.90625" xlink:href="#DejaVuSans-6e"/>
     <use x="763.285156" xlink:href="#DejaVuSans-73"/>
    </g>
   </g>
  </g>
  <g id="axes_9">
   <g id="patch_26">
    <path clip-path="url(#p5eea1166ad)" d="M 609.935937 369.898016 
C 607.897582 369.950004 605.869294 369.593397 603.97091 368.849266 
C 602.072526 368.105135 600.342183 366.988428 598.882115 365.565124 
C 597.422047 364.14182 596.261586 362.440511 595.469295 360.561717 
C 594.677004 358.682923 594.268799 356.664386 594.268799 354.625369 
C 594.268799 352.586351 594.677004 350.567815 595.469295 348.68902 
C 596.261586 346.810226 597.422047 345.108918 598.882115 343.685613 
C 600.342183 342.262309 602.072526 341.145602 603.97091 340.401471 
C 605.869294 339.65734 607.897582 339.300733 609.935937 339.352721 
C 608.123879 333.525692 605.289157 328.06739 601.564609 323.233596 
C 597.840061 318.399802 593.284789 314.267222 588.11226 311.029513 
C 582.939731 307.791804 577.232023 305.500343 571.256608 304.262511 
C 565.281192 303.024679 559.132889 302.860118 553.099814 303.77654 
C 547.066739 304.692962 541.244629 306.675825 535.906313 309.632209 
C 530.567998 312.588593 525.798187 316.471585 521.820402 321.099224 
C 517.842616 325.726863 514.719976 331.025715 512.598812 336.74747 
C 510.477649 342.469225 509.39162 348.523089 509.39162 354.625369 
C 509.39162 360.727648 510.477649 366.781512 512.598812 372.503267 
C 514.719976 378.225022 517.842616 383.523875 521.820402 388.151513 
C 525.798187 392.779152 530.567998 396.662144 535.906313 399.618528 
C 541.244629 402.574912 547.066739 404.557775 553.099814 405.474197 
C 559.132889 406.390619 565.281192 406.226058 571.256608 404.988226 
C 577.232023 403.750394 582.939731 401.458933 588.11226 398.221224 
C 593.284789 394.983515 597.840061 390.850935 601.564609 386.017141 
C 605.289157 381.183348 608.123879 375.725045 609.935937 369.898016 
" style="fill:#c0c0c0;opacity:0.4;"/>
   </g>
   <g id="patch_27">
    <path clip-path="url(#p5eea1166ad)" d="M 609.935937 339.352721 
C 611.473711 344.297737 612.255847 349.446766 612.255847 354.625369 
C 612.255847 359.803972 611.473711 364.953001 609.935937 369.898016 
C 613.917634 369.796464 617.705904 368.141745 620.486169 365.289667 
C 623.266433 362.437588 624.824028 358.60836 624.824028 354.625369 
C 624.824028 350.642377 623.266433 346.813149 620.486169 343.961071 
C 617.705904 341.108992 613.917634 339.454273 609.935937 339.352721 
" style="fill:#cab2d6;opacity:0.4;"/>
   </g>
   <g id="patch_28">
    <path clip-path="url(#p5eea1166ad)" d="M 609.935937 369.898016 
C 611.473711 364.953001 612.255847 359.803972 612.255847 354.625369 
C 612.255847 349.446766 611.473711 344.297737 609.935937 339.352721 
C 607.897582 339.300733 605.869294 339.65734 603.97091 340.401471 
C 602.072526 341.145602 600.342183 342.262309 598.882115 343.685613 
C 597.422047 345.108918 596.261586 346.810226 595.469295 348.68902 
C 594.677004 350.567815 594.268799 352.586351 594.268799 354.625369 
C 594.268799 356.664386 594.677004 358.682923 595.469295 360.561717 
C 596.261586 362.440511 597.422047 364.14182 598.882115 365.565124 
C 600.342183 366.988428 602.072526 368.105135 603.97091 368.849266 
C 605.869294 369.593397 607.897582 369.950004 609.935937 369.898016 
" style="fill:#ffffff;opacity:0.4;"/>
   </g>
   <g id="text_41">
    <!-- 1129 -->
    <g style="fill:#262626;" transform="translate(539.10521 357.384744)scale(0.1 -0.1)">
     <use xlink:href="#DejaVuSans-31"/>
     <use x="63.623047" xlink:href="#DejaVuSans-31"/>
     <use x="127.246094" xlink:href="#DejaVuSans-32"/>
     <use x="190.869141" xlink:href="#DejaVuSans-39"/>
    </g>
   </g>
   <g id="text_42">
    <!-- 44 -->
    <g style="fill:#262626;" transform="translate(612.177437 357.384744)scale(0.1 -0.1)">
     <use xlink:href="#DejaVuSans-34"/>
     <use x="63.623047" xlink:href="#DejaVuSans-34"/>
    </g>
   </g>
   <g id="text_43">
    <!-- 61 -->
    <g style="fill:#262626;" transform="translate(596.899823 357.384744)scale(0.1 -0.1)">
     <use xlink:href="#DejaVuSans-36"/>
     <use x="63.623047" xlink:href="#DejaVuSans-31"/>
    </g>
   </g>
   <g id="text_44">
    <!-- Bioregistry -->
    <g style="fill:#262626;" transform="translate(495.924359 418.511093)scale(0.12 -0.12)">
     <use xlink:href="#DejaVuSans-42"/>
     <use x="68.603516" xlink:href="#DejaVuSans-69"/>
     <use x="96.386719" xlink:href="#DejaVuSans-6f"/>
     <use x="157.568359" xlink:href="#DejaVuSans-72"/>
     <use x="196.431641" xlink:href="#DejaVuSans-65"/>
     <use x="257.955078" xlink:href="#DejaVuSans-67"/>
     <use x="321.431641" xlink:href="#DejaVuSans-69"/>
     <use x="349.214844" xlink:href="#DejaVuSans-73"/>
     <use x="401.314453" xlink:href="#DejaVuSans-74"/>
     <use x="440.523438" xlink:href="#DejaVuSans-72"/>
     <use x="481.636719" xlink:href="#DejaVuSans-79"/>
    </g>
   </g>
   <g id="text_45">
    <!-- Biolink -->
    <g style="fill:#262626;" transform="translate(609.546413 382.356594)scale(0.12 -0.12)">
     <use xlink:href="#DejaVuSans-42"/>
     <use x="68.603516" xlink:href="#DejaVuSans-69"/>
     <use x="96.386719" xlink:href="#DejaVuSans-6f"/>
     <use x="157.568359" xlink:href="#DejaVuSans-6c"/>
     <use x="185.351562" xlink:href="#DejaVuSans-69"/>
     <use x="213.134766" xlink:href="#DejaVuSans-6e"/>
     <use x="276.513672" xlink:href="#DejaVuSans-6b"/>
    </g>
   </g>
  </g>
  <g id="axes_10">
   <g id="patch_29">
    <path clip-path="url(#p5fa79f131f)" d="M 156.673825 512.829928 
C 152.3456 512.700825 148.233843 510.88892 145.217955 507.781731 
C 142.202066 504.674543 140.513557 500.510593 140.513557 496.180442 
C 140.513557 491.850292 142.202066 487.686341 145.217955 484.579153 
C 148.233843 481.471965 152.3456 479.660059 156.673825 479.530957 
C 154.718275 473.820056 151.771776 468.498089 147.969679 463.809527 
C 144.167582 459.120964 139.56901 455.138713 134.385204 452.045703 
C 129.201397 448.952692 123.512965 446.797019 117.581211 445.677707 
C 111.649458 444.558394 105.566622 444.492848 99.612126 445.484078 
C 93.65763 446.475309 87.924066 448.507902 82.674813 451.48849 
C 77.42556 454.469077 72.742243 458.35131 68.839996 462.956853 
C 64.937749 467.562397 61.877252 472.819634 59.799093 478.487069 
C 57.720934 484.154504 56.657427 490.144006 56.657427 496.180442 
C 56.657427 502.216878 57.720934 508.206381 59.799093 513.873816 
C 61.877252 519.54125 64.937749 524.798488 68.839996 529.404031 
C 72.742243 534.009575 77.42556 537.891807 82.674813 540.872395 
C 87.924066 543.852982 93.65763 545.885576 99.612126 546.876806 
C 105.566622 547.868037 111.649458 547.80249 117.581211 546.683178 
C 123.512965 545.563865 129.201397 543.408192 134.385204 540.315182 
C 139.56901 537.222172 144.167582 533.239921 147.969679 528.551358 
C 151.771776 523.862795 154.718275 518.540828 156.673825 512.829928 
" style="fill:#c0c0c0;opacity:0.4;"/>
   </g>
   <g id="patch_30">
    <path clip-path="url(#p5fa79f131f)" d="M 156.673825 479.530957 
C 158.50891 484.890055 159.445425 490.515862 159.445425 496.180442 
C 159.445425 501.845023 158.50891 507.470829 156.673825 512.829928 
C 158.901993 512.89639 161.120998 512.514894 163.199033 511.7081 
C 165.277069 510.901307 167.172159 509.685513 168.771737 508.132936 
C 170.371315 506.580358 171.643071 504.722359 172.511462 502.669302 
C 173.379853 500.616245 173.827339 498.409601 173.827339 496.180442 
C 173.827339 493.951284 173.379853 491.74464 172.511462 489.691582 
C 171.643071 487.638525 170.371315 485.780526 168.771737 484.227949 
C 167.172159 482.675372 165.277069 481.459578 163.199033 480.652784 
C 161.120998 479.845991 158.901993 479.464495 156.673825 479.530957 
" style="fill:#6a3d9a;opacity:0.4;"/>
   </g>
   <g id="patch_31">
    <path clip-path="url(#p5fa79f131f)" d="M 156.673825 512.829928 
C 158.50891 507.470829 159.445425 501.845023 159.445425 496.180442 
C 159.445425 490.515862 158.50891 484.890055 156.673825 479.530957 
C 152.3456 479.660059 148.233843 481.471965 145.217955 484.579153 
C 142.202066 487.686341 140.513557 491.850292 140.513557 496.180442 
C 140.513557 500.510593 142.202066 504.674543 145.217955 507.781731 
C 148.233843 510.88892 152.3456 512.700825 156.673825 512.829928 
" style="fill:#d1b1f2;opacity:0.4;"/>
   </g>
   <g id="text_46">
    <!-- 1121 -->
    <g style="fill:#262626;" transform="translate(85.860492 498.939817)scale(0.1 -0.1)">
     <use xlink:href="#DejaVuSans-31"/>
     <use x="63.623047" xlink:href="#DejaVuSans-31"/>
     <use x="127.246094" xlink:href="#DejaVuSans-32"/>
     <use x="190.869141" xlink:href="#DejaVuSans-31"/>
    </g>
   </g>
   <g id="text_47">
    <!-- 56 -->
    <g style="fill:#262626;" transform="translate(160.273882 498.939817)scale(0.1 -0.1)">
     <use xlink:href="#DejaVuSans-35"/>
     <use x="63.623047" xlink:href="#DejaVuSans-36"/>
    </g>
   </g>
   <g id="text_48">
    <!-- 69 -->
    <g style="fill:#262626;" transform="translate(143.616991 498.939817)scale(0.1 -0.1)">
     <use xlink:href="#DejaVuSans-36"/>
     <use x="63.623047" xlink:href="#DejaVuSans-39"/>
    </g>
   </g>
   <g id="text_49">
    <!-- Bioregistry -->
    <g style="fill:#262626;" transform="translate(43.152051 560.09511)scale(0.12 -0.12)">
     <use xlink:href="#DejaVuSans-42"/>
     <use x="68.603516" xlink:href="#DejaVuSans-69"/>
     <use x="96.386719" xlink:href="#DejaVuSans-6f"/>
     <use x="157.568359" xlink:href="#DejaVuSans-72"/>
     <use x="196.431641" xlink:href="#DejaVuSans-65"/>
     <use x="257.955078" xlink:href="#DejaVuSans-67"/>
     <use x="321.431641" xlink:href="#DejaVuSans-69"/>
     <use x="349.214844" xlink:href="#DejaVuSans-73"/>
     <use x="401.314453" xlink:href="#DejaVuSans-74"/>
     <use x="440.523438" xlink:href="#DejaVuSans-72"/>
     <use x="481.636719" xlink:href="#DejaVuSans-79"/>
    </g>
   </g>
   <g id="text_50">
    <!-- NCBI -->
    <g style="fill:#262626;" transform="translate(157.170448 525.358002)scale(0.12 -0.12)">
     <use xlink:href="#DejaVuSans-4e"/>
     <use x="74.804688" xlink:href="#DejaVuSans-43"/>
     <use x="144.628906" xlink:href="#DejaVuSans-42"/>
     <use x="213.232422" xlink:href="#DejaVuSans-49"/>
    </g>
   </g>
  </g>
  <g id="axes_11">
   <g id="patch_32">
    <path clip-path="url(#p43ba0bf191)" d="M 379.175986 516.015462 
C 374.359834 515.389029 369.932905 513.029427 366.727805 509.380444 
C 363.522706 505.731461 361.753811 501.037163 361.753811 496.180442 
C 361.753811 491.323721 363.522706 486.629423 366.727805 482.980441 
C 369.932905 479.331458 374.359834 476.971856 379.175986 476.345423 
C 376.902226 470.923655 373.713029 465.933011 369.748031 461.592003 
C 365.783033 457.250995 361.10096 453.623918 355.906812 450.869579 
C 350.712664 448.11524 345.083371 446.274434 339.265407 445.42776 
C 333.447444 444.581086 327.526979 444.741082 321.763235 445.900745 
C 315.999492 447.060408 310.477836 449.202561 305.440029 452.233413 
C 300.402222 455.264264 295.922878 459.138923 292.198123 463.687742 
C 288.473367 468.23656 285.558366 473.392166 283.580751 478.928825 
C 281.603135 484.465485 280.592196 490.301194 280.592196 496.180442 
C 280.592196 502.05969 281.603135 507.8954 283.580751 513.432059 
C 285.558366 518.968718 288.473367 524.124324 292.198123 528.673143 
C 295.922878 533.221962 300.402222 537.096621 305.440029 540.127472 
C 310.477836 543.158323 315.999492 545.300476 321.763235 546.460139 
C 327.526979 547.619802 333.447444 547.779799 339.265407 546.933125 
C 345.083371 546.08645 350.712664 544.245644 355.906812 541.491306 
C 361.10096 538.736967 365.783033 535.109889 369.748031 530.768881 
C 373.713029 526.427874 376.902226 521.43723 379.175986 516.015462 
" style="fill:#c0c0c0;opacity:0.4;"/>
   </g>
   <g id="patch_33">
    <path clip-path="url(#p43ba0bf191)" d="M 379.175986 476.345423 
C 381.81006 482.626357 383.166784 489.369533 383.166784 496.180442 
C 383.166784 502.991351 381.81006 509.734527 379.175986 516.015462 
C 381.996711 516.382351 384.86352 516.143355 387.584557 515.314467 
C 390.305594 514.485579 392.818775 513.085711 394.955913 511.208548 
C 397.09305 509.331384 398.80538 507.019754 399.978311 504.428359 
C 401.151242 501.836963 401.758011 499.024928 401.758011 496.180442 
C 401.758011 493.335957 401.151242 490.523922 399.978311 487.932526 
C 398.80538 485.34113 397.09305 483.0295 394.955913 481.152337 
C 392.818775 479.275173 390.305594 477.875306 387.584557 477.046418 
C 384.86352 476.21753 381.996711 475.978534 379.175986 476.345423 
" style="fill:#ffff99;opacity:0.4;"/>
   </g>
   <g id="patch_34">
    <path clip-path="url(#p43ba0bf191)" d="M 379.175986 516.015462 
C 381.81006 509.734527 383.166784 502.991351 383.166784 496.180442 
C 383.166784 489.369533 381.81006 482.626357 379.175986 476.345423 
C 374.359834 476.971856 369.932905 479.331458 366.727805 482.980441 
C 363.522706 486.629423 361.753811 491.323721 361.753811 496.180442 
C 361.753811 501.037163 363.522706 505.731461 366.727805 509.380444 
C 369.932905 513.029427 374.359834 515.389029 379.175986 516.015462 
" style="fill:#fffff2;opacity:0.4;"/>
   </g>
   <g id="text_51">
    <!-- 1099 -->
    <g style="fill:#262626;" transform="translate(308.448004 498.939817)scale(0.1 -0.1)">
     <use xlink:href="#DejaVuSans-31"/>
     <use x="63.623047" xlink:href="#DejaVuSans-30"/>
     <use x="127.246094" xlink:href="#DejaVuSans-39"/>
     <use x="190.869141" xlink:href="#DejaVuSans-39"/>
    </g>
   </g>
   <g id="text_52">
    <!-- 90 -->
    <g style="fill:#262626;" transform="translate(386.099897 498.939817)scale(0.1 -0.1)">
     <use xlink:href="#DejaVuSans-39"/>
     <use x="63.623047" xlink:href="#DejaVuSans-30"/>
    </g>
   </g>
   <g id="text_53">
    <!-- 91 -->
    <g style="fill:#262626;" transform="translate(366.097798 498.939817)scale(0.1 -0.1)">
     <use xlink:href="#DejaVuSans-39"/>
     <use x="63.623047" xlink:href="#DejaVuSans-31"/>
    </g>
   </g>
   <g id="text_54">
    <!-- Bioregistry -->
    <g style="fill:#262626;" transform="translate(266.980115 560.150331)scale(0.12 -0.12)">
     <use xlink:href="#DejaVuSans-42"/>
     <use x="68.603516" xlink:href="#DejaVuSans-69"/>
     <use x="96.386719" xlink:href="#DejaVuSans-6f"/>
     <use x="157.568359" xlink:href="#DejaVuSans-72"/>
     <use x="196.431641" xlink:href="#DejaVuSans-65"/>
     <use x="257.955078" xlink:href="#DejaVuSans-67"/>
     <use x="321.431641" xlink:href="#DejaVuSans-69"/>
     <use x="349.214844" xlink:href="#DejaVuSans-73"/>
     <use x="401.314453" xlink:href="#DejaVuSans-74"/>
     <use x="440.523438" xlink:href="#DejaVuSans-72"/>
     <use x="481.636719" xlink:href="#DejaVuSans-79"/>
    </g>
   </g>
   <g id="text_55">
    <!-- UniProt -->
    <g style="fill:#262626;" transform="translate(381.755911 528.865137)scale(0.12 -0.12)">
     <defs>
      <path d="M 556 4666 
L 1191 4666 
L 1191 1831 
Q 1191 1081 1462 751 
Q 1734 422 2344 422 
Q 2950 422 3222 751 
Q 3494 1081 3494 1831 
L 3494 4666 
L 4128 4666 
L 4128 1753 
Q 4128 841 3676 375 
Q 3225 -91 2344 -91 
Q 1459 -91 1007 375 
Q 556 841 556 1753 
L 556 4666 
z
" id="DejaVuSans-55" transform="scale(0.015625)"/>
     </defs>
     <use xlink:href="#DejaVuSans-55"/>
     <use x="73.193359" xlink:href="#DejaVuSans-6e"/>
     <use x="136.572266" xlink:href="#DejaVuSans-69"/>
     <use x="164.355469" xlink:href="#DejaVuSans-50"/>
     <use x="222.908203" xlink:href="#DejaVuSans-72"/>
     <use x="261.771484" xlink:href="#DejaVuSans-6f"/>
     <use x="322.953125" xlink:href="#DejaVuSans-74"/>
    </g>
   </g>
  </g>
  <g id="axes_12">
   <g id="patch_35">
    <path clip-path="url(#p174ee3411a)" d="M 607.745493 511.487395 
C 604.269746 510.706318 601.161587 508.764206 598.935788 505.982712 
C 596.709989 503.201217 595.496609 499.74287 595.496609 496.180442 
C 595.496609 492.618014 596.709989 489.159667 598.935788 486.378173 
C 601.161587 483.596678 604.269746 481.654566 607.745493 480.873489 
C 605.930061 475.057837 603.094402 469.611262 599.371298 464.788804 
C 595.648194 459.966347 591.096679 455.844472 585.929881 452.61619 
C 580.763083 449.387908 575.062928 447.104407 569.09633 445.872615 
C 563.129733 444.640822 556.991299 444.480268 550.968467 445.398472 
C 544.945636 446.316676 539.133904 448.299079 533.805412 451.252851 
C 528.47692 454.206624 523.716156 458.084932 519.746048 462.706171 
C 515.77594 467.327409 512.659438 472.618303 510.542474 478.331101 
C 508.425511 484.0439 507.341653 490.088021 507.341653 496.180442 
C 507.341653 502.272864 508.425511 508.316985 510.542474 514.029783 
C 512.659438 519.742582 515.77594 525.033475 519.746048 529.654714 
C 523.716156 534.275952 528.47692 538.15426 533.805412 541.108033 
C 539.133904 544.061806 544.945636 546.044208 550.968467 546.962412 
C 556.991299 547.880616 563.129733 547.720063 569.09633 546.48827 
C 575.062928 545.256477 580.763083 542.972976 585.929881 539.744694 
C 591.096679 536.516413 595.648194 532.394538 599.371298 527.57208 
C 603.094402 522.749622 605.930061 517.303047 607.745493 511.487395 
" style="fill:#c0c0c0;opacity:0.4;"/>
   </g>
   <g id="patch_36">
    <path clip-path="url(#p174ee3411a)" d="M 607.745493 480.873489 
C 609.29228 485.828551 610.079097 490.989567 610.079097 496.180442 
C 610.079097 501.371317 609.29228 506.532334 607.745493 511.487395 
C 610.040647 512.003167 612.422687 511.996185 614.714779 511.466969 
C 617.006871 510.937752 619.150855 509.899728 620.987572 508.429957 
C 622.824288 506.960185 624.307131 505.095959 625.326022 502.975672 
C 626.344912 500.855385 626.873995 498.532836 626.873995 496.180442 
C 626.873995 493.828049 626.344912 491.5055 625.326022 489.385212 
C 624.307131 487.264925 622.824288 485.400699 620.987572 483.930928 
C 619.150855 482.461156 617.006871 481.423133 614.714779 480.893916 
C 612.422687 480.364699 610.040647 480.357718 607.745493 480.873489 
" style="fill:#b15928;opacity:0.4;"/>
   </g>
   <g id="patch_37">
    <path clip-path="url(#p174ee3411a)" d="M 607.745493 511.487395 
C 609.29228 506.532334 610.079097 501.371317 610.079097 496.180442 
C 610.079097 490.989567 609.29228 485.828551 607.745493 480.873489 
C 604.269746 481.654566 601.161587 483.596678 598.935788 486.378173 
C 596.709989 489.159667 595.496609 492.618014 595.496609 496.180442 
C 595.496609 499.74287 596.709989 503.201217 598.935788 505.982712 
C 601.161587 508.764206 604.269746 510.706318 607.745493 511.487395 
" style="fill:#ffc5a2;opacity:0.4;"/>
   </g>
   <g id="text_56">
    <!-- 1143 -->
    <g style="fill:#262626;" transform="translate(538.694131 498.939817)scale(0.1 -0.1)">
     <use xlink:href="#DejaVuSans-31"/>
     <use x="63.623047" xlink:href="#DejaVuSans-31"/>
     <use x="127.246094" xlink:href="#DejaVuSans-34"/>
     <use x="190.869141" xlink:href="#DejaVuSans-33"/>
    </g>
   </g>
   <g id="text_57">
    <!-- 64 -->
    <g style="fill:#262626;" transform="translate(612.114046 498.939817)scale(0.1 -0.1)">
     <use xlink:href="#DejaVuSans-36"/>
     <use x="63.623047" xlink:href="#DejaVuSans-34"/>
    </g>
   </g>
   <g id="text_58">
    <!-- 47 -->
    <g style="fill:#262626;" transform="translate(596.425353 498.939817)scale(0.1 -0.1)">
     <use xlink:href="#DejaVuSans-34"/>
     <use x="63.623047" xlink:href="#DejaVuSans-37"/>
    </g>
   </g>
   <g id="text_59">
    <!-- Bioregistry -->
    <g style="fill:#262626;" transform="translate(493.811 560.02016)scale(0.12 -0.12)">
     <use xlink:href="#DejaVuSans-42"/>
     <use x="68.603516" xlink:href="#DejaVuSans-69"/>
     <use x="96.386719" xlink:href="#DejaVuSans-6f"/>
     <use x="157.568359" xlink:href="#DejaVuSans-72"/>
     <use x="196.431641" xlink:href="#DejaVuSans-65"/>
     <use x="257.955078" xlink:href="#DejaVuSans-67"/>
     <use x="321.431641" xlink:href="#DejaVuSans-69"/>
     <use x="349.214844" xlink:href="#DejaVuSans-73"/>
     <use x="401.314453" xlink:href="#DejaVuSans-74"/>
     <use x="440.523438" xlink:href="#DejaVuSans-72"/>
     <use x="481.636719" xlink:href="#DejaVuSans-79"/>
    </g>
   </g>
   <g id="text_60">
    <!-- Cellosaurus -->
    <g style="fill:#262626;" transform="translate(611.185302 524.340131)scale(0.12 -0.12)">
     <defs>
      <path d="M 544 1381 
L 544 3500 
L 1119 3500 
L 1119 1403 
Q 1119 906 1312 657 
Q 1506 409 1894 409 
Q 2359 409 2629 706 
Q 2900 1003 2900 1516 
L 2900 3500 
L 3475 3500 
L 3475 0 
L 2900 0 
L 2900 538 
Q 2691 219 2414 64 
Q 2138 -91 1772 -91 
Q 1169 -91 856 284 
Q 544 659 544 1381 
z
M 1991 3584 
L 1991 3584 
z
" id="DejaVuSans-75" transform="scale(0.015625)"/>
     </defs>
     <use xlink:href="#DejaVuSans-43"/>
     <use x="69.824219" xlink:href="#DejaVuSans-65"/>
     <use x="131.347656" xlink:href="#DejaVuSans-6c"/>
     <use x="159.130859" xlink:href="#DejaVuSans-6c"/>
     <use x="186.914062" xlink:href="#DejaVuSans-6f"/>
     <use x="248.095703" xlink:href="#DejaVuSans-73"/>
     <use x="300.195312" xlink:href="#DejaVuSans-61"/>
     <use x="361.474609" xlink:href="#DejaVuSans-75"/>
     <use x="424.853516" xlink:href="#DejaVuSans-72"/>
     <use x="465.966797" xlink:href="#DejaVuSans-75"/>
     <use x="529.345703" xlink:href="#DejaVuSans-73"/>
    </g>
   </g>
  </g>
  <g id="text_61">
   <!-- https://github.com/biopragmatics/bioregistry (2021-09-17) -->
   <g style="fill:#808080;opacity:0.5;" transform="translate(233.67625 574.33625)scale(0.08 -0.08)">
    <defs>
     <path d="M 3513 2113 
L 3513 0 
L 2938 0 
L 2938 2094 
Q 2938 2591 2744 2837 
Q 2550 3084 2163 3084 
Q 1697 3084 1428 2787 
Q 1159 2491 1159 1978 
L 1159 0 
L 581 0 
L 581 4863 
L 1159 4863 
L 1159 2956 
Q 1366 3272 1645 3428 
Q 1925 3584 2291 3584 
Q 2894 3584 3203 3211 
Q 3513 2838 3513 2113 
z
" id="DejaVuSans-68" transform="scale(0.015625)"/>
     <path d="M 1159 525 
L 1159 -1331 
L 581 -1331 
L 581 3500 
L 1159 3500 
L 1159 2969 
Q 1341 3281 1617 3432 
Q 1894 3584 2278 3584 
Q 2916 3584 3314 3078 
Q 3713 2572 3713 1747 
Q 3713 922 3314 415 
Q 2916 -91 2278 -91 
Q 1894 -91 1617 61 
Q 1341 213 1159 525 
z
M 3116 1747 
Q 3116 2381 2855 2742 
Q 2594 3103 2138 3103 
Q 1681 3103 1420 2742 
Q 1159 2381 1159 1747 
Q 1159 1113 1420 752 
Q 1681 391 2138 391 
Q 2594 391 2855 752 
Q 3116 1113 3116 1747 
z
" id="DejaVuSans-70" transform="scale(0.015625)"/>
     <path d="M 750 794 
L 1409 794 
L 1409 0 
L 750 0 
L 750 794 
z
M 750 3309 
L 1409 3309 
L 1409 2516 
L 750 2516 
L 750 3309 
z
" id="DejaVuSans-3a" transform="scale(0.015625)"/>
     <path d="M 1625 4666 
L 2156 4666 
L 531 -594 
L 0 -594 
L 1625 4666 
z
" id="DejaVuSans-2f" transform="scale(0.015625)"/>
     <path d="M 3116 1747 
Q 3116 2381 2855 2742 
Q 2594 3103 2138 3103 
Q 1681 3103 1420 2742 
Q 1159 2381 1159 1747 
Q 1159 1113 1420 752 
Q 1681 391 2138 391 
Q 2594 391 2855 752 
Q 3116 1113 3116 1747 
z
M 1159 2969 
Q 1341 3281 1617 3432 
Q 1894 3584 2278 3584 
Q 2916 3584 3314 3078 
Q 3713 2572 3713 1747 
Q 3713 922 3314 415 
Q 2916 -91 2278 -91 
Q 1894 -91 1617 61 
Q 1341 213 1159 525 
L 1159 0 
L 581 0 
L 581 4863 
L 1159 4863 
L 1159 2969 
z
" id="DejaVuSans-62" transform="scale(0.015625)"/>
     <path d="M 684 794 
L 1344 794 
L 1344 0 
L 684 0 
L 684 794 
z
" id="DejaVuSans-2e" transform="scale(0.015625)"/>
     <path d="M 3122 3366 
L 3122 2828 
Q 2878 2963 2633 3030 
Q 2388 3097 2138 3097 
Q 1578 3097 1268 2742 
Q 959 2388 959 1747 
Q 959 1106 1268 751 
Q 1578 397 2138 397 
Q 2388 397 2633 464 
Q 2878 531 3122 666 
L 3122 134 
Q 2881 22 2623 -34 
Q 2366 -91 2075 -91 
Q 1284 -91 818 406 
Q 353 903 353 1747 
Q 353 2603 823 3093 
Q 1294 3584 2113 3584 
Q 2378 3584 2631 3529 
Q 2884 3475 3122 3366 
z
" id="DejaVuSans-63" transform="scale(0.015625)"/>
     <path d="M 1984 4856 
Q 1566 4138 1362 3434 
Q 1159 2731 1159 2009 
Q 1159 1288 1364 580 
Q 1569 -128 1984 -844 
L 1484 -844 
Q 1016 -109 783 600 
Q 550 1309 550 2009 
Q 550 2706 781 3412 
Q 1013 4119 1484 4856 
L 1984 4856 
z
" id="DejaVuSans-28" transform="scale(0.015625)"/>
     <path d="M 313 2009 
L 1997 2009 
L 1997 1497 
L 313 1497 
L 313 2009 
z
" id="DejaVuSans-2d" transform="scale(0.015625)"/>
     <path d="M 513 4856 
L 1013 4856 
Q 1481 4119 1714 3412 
Q 1947 2706 1947 2009 
Q 1947 1309 1714 600 
Q 1481 -109 1013 -844 
L 513 -844 
Q 928 -128 1133 580 
Q 1338 1288 1338 2009 
Q 1338 2731 1133 3434 
Q 928 4138 513 4856 
z
" id="DejaVuSans-29" transform="scale(0.015625)"/>
    </defs>
    <use xlink:href="#DejaVuSans-68"/>
    <use x="63.378906" xlink:href="#DejaVuSans-74"/>
    <use x="102.587891" xlink:href="#DejaVuSans-74"/>
    <use x="141.796875" xlink:href="#DejaVuSans-70"/>
    <use x="205.273438" xlink:href="#DejaVuSans-73"/>
    <use x="257.373047" xlink:href="#DejaVuSans-3a"/>
    <use x="291.064453" xlink:href="#DejaVuSans-2f"/>
    <use x="324.755859" xlink:href="#DejaVuSans-2f"/>
    <use x="358.447266" xlink:href="#DejaVuSans-67"/>
    <use x="421.923828" xlink:href="#DejaVuSans-69"/>
    <use x="449.707031" xlink:href="#DejaVuSans-74"/>
    <use x="488.916016" xlink:href="#DejaVuSans-68"/>
    <use x="552.294922" xlink:href="#DejaVuSans-75"/>
    <use x="615.673828" xlink:href="#DejaVuSans-62"/>
    <use x="679.150391" xlink:href="#DejaVuSans-2e"/>
    <use x="710.9375" xlink:href="#DejaVuSans-63"/>
    <use x="765.917969" xlink:href="#DejaVuSans-6f"/>
    <use x="827.099609" xlink:href="#DejaVuSans-6d"/>
    <use x="924.511719" xlink:href="#DejaVuSans-2f"/>
    <use x="958.203125" xlink:href="#DejaVuSans-62"/>
    <use x="1021.679688" xlink:href="#DejaVuSans-69"/>
    <use x="1049.462891" xlink:href="#DejaVuSans-6f"/>
    <use x="1110.644531" xlink:href="#DejaVuSans-70"/>
    <use x="1174.121094" xlink:href="#DejaVuSans-72"/>
    <use x="1215.234375" xlink:href="#DejaVuSans-61"/>
    <use x="1276.513672" xlink:href="#DejaVuSans-67"/>
    <use x="1339.990234" xlink:href="#DejaVuSans-6d"/>
    <use x="1437.402344" xlink:href="#DejaVuSans-61"/>
    <use x="1498.681641" xlink:href="#DejaVuSans-74"/>
    <use x="1537.890625" xlink:href="#DejaVuSans-69"/>
    <use x="1565.673828" xlink:href="#DejaVuSans-63"/>
    <use x="1620.654297" xlink:href="#DejaVuSans-73"/>
    <use x="1672.753906" xlink:href="#DejaVuSans-2f"/>
    <use x="1706.445312" xlink:href="#DejaVuSans-62"/>
    <use x="1769.921875" xlink:href="#DejaVuSans-69"/>
    <use x="1797.705078" xlink:href="#DejaVuSans-6f"/>
    <use x="1858.886719" xlink:href="#DejaVuSans-72"/>
    <use x="1897.75" xlink:href="#DejaVuSans-65"/>
    <use x="1959.273438" xlink:href="#DejaVuSans-67"/>
    <use x="2022.75" xlink:href="#DejaVuSans-69"/>
    <use x="2050.533203" xlink:href="#DejaVuSans-73"/>
    <use x="2102.632812" xlink:href="#DejaVuSans-74"/>
    <use x="2141.841797" xlink:href="#DejaVuSans-72"/>
    <use x="2182.955078" xlink:href="#DejaVuSans-79"/>
    <use x="2242.134766" xlink:href="#DejaVuSans-20"/>
    <use x="2273.921875" xlink:href="#DejaVuSans-28"/>
    <use x="2312.935547" xlink:href="#DejaVuSans-32"/>
    <use x="2376.558594" xlink:href="#DejaVuSans-30"/>
    <use x="2440.181641" xlink:href="#DejaVuSans-32"/>
    <use x="2503.804688" xlink:href="#DejaVuSans-31"/>
    <use x="2567.427734" xlink:href="#DejaVuSans-2d"/>
    <use x="2603.511719" xlink:href="#DejaVuSans-30"/>
    <use x="2667.134766" xlink:href="#DejaVuSans-39"/>
    <use x="2730.757812" xlink:href="#DejaVuSans-2d"/>
    <use x="2766.841797" xlink:href="#DejaVuSans-31"/>
    <use x="2830.464844" xlink:href="#DejaVuSans-37"/>
    <use x="2894.087891" xlink:href="#DejaVuSans-29"/>
   </g>
  </g>
 </g>
 <defs>
  <clipPath id="p70e2e51e0a">
   <rect height="121.430443" width="122.886151" x="53.799308" y="10.8"/>
  </clipPath>
  <clipPath id="pafa2a94373">
   <rect height="121.430443" width="122.509428" x="279.920389" y="10.8"/>
  </clipPath>
  <clipPath id="pcab7c693a9">
   <rect height="121.430443" width="124.709167" x="504.75324" y="10.8"/>
  </clipPath>
  <clipPath id="pff2b327c13">
   <rect height="121.430443" width="155.028723" x="37.728022" y="152.355074"/>
  </clipPath>
  <clipPath id="p38a8ab7b8e">
   <rect height="121.430443" width="123.57574" x="279.387234" y="152.355074"/>
  </clipPath>
  <clipPath id="p7242914028">
   <rect height="121.430443" width="142.31695" x="495.949349" y="152.355074"/>
  </clipPath>
  <clipPath id="pb2da5994f2">
   <rect height="121.430443" width="172.105442" x="29.189662" y="293.910147"/>
  </clipPath>
  <clipPath id="pde78a9b472">
   <rect height="121.430443" width="132.295438" x="275.027384" y="293.910147"/>
  </clipPath>
  <clipPath id="p5eea1166ad">
   <rect height="121.430443" width="133.998623" x="500.108512" y="293.910147"/>
  </clipPath>
  <clipPath id="p5fa79f131f">
   <rect height="121.430443" width="135.812357" x="47.336205" y="435.465221"/>
  </clipPath>
  <clipPath id="p43ba0bf191">
   <rect height="121.430443" width="140.021669" x="271.164269" y="435.465221"/>
  </clipPath>
  <clipPath id="p174ee3411a">
   <rect height="121.430443" width="138.225341" x="497.995153" y="435.465221"/>
  </clipPath>
 </defs>
</svg>
