<?xml version="1.0" encoding="utf-8" standalone="no"?>
<!DOCTYPE svg PUBLIC "-//W3C//DTD SVG 1.1//EN"
  "http://www.w3.org/Graphics/SVG/1.1/DTD/svg11.dtd">
<svg height="576pt" version="1.1" viewBox="0 0 702 576" width="702pt" xmlns="http://www.w3.org/2000/svg" xmlns:xlink="http://www.w3.org/1999/xlink">
 <metadata>
  <rdf:RDF xmlns:cc="http://creativecommons.org/ns#" xmlns:dc="http://purl.org/dc/elements/1.1/" xmlns:rdf="http://www.w3.org/1999/02/22-rdf-syntax-ns#">
   <cc:Work>
    <dc:type rdf:resource="http://purl.org/dc/dcmitype/StillImage"/>
    <dc:date>2021-09-24T00:50:52.053166</dc:date>
    <dc:format>image/svg+xml</dc:format>
    <dc:creator>
     <cc:Agent>
      <dc:title>Matplotlib v3.4.3, https://matplotlib.org/</dc:title>
     </cc:Agent>
    </dc:creator>
   </cc:Work>
  </rdf:RDF>
 </metadata>
 <defs>
  <style type="text/css">*{stroke-linecap:butt;stroke-linejoin:round;}</style>
 </defs>
 <g id="figure_1">
  <g id="patch_1">
   <path d="M 0 576 
L 702 576 
L 702 0 
L 0 0 
z
" style="fill:#ffffff;"/>
  </g>
  <g id="axes_1">
   <g id="patch_2">
    <path clip-path="url(#pd89bf25a6e)" d="M 165.047411 82.183606 
C 163.858452 84.506734 162.289456 86.614845 160.4054 88.420636 
C 158.521343 90.226426 156.348598 91.70462 153.977143 92.794001 
C 151.605688 93.883382 149.068718 94.568701 146.471295 94.821578 
C 143.873873 95.074456 141.252356 94.891351 138.715308 94.279847 
C 136.17826 93.668343 133.761194 92.637 131.564206 91.228527 
C 129.367218 89.820055 127.421062 88.054169 125.806332 86.003999 
C 124.191602 83.953829 122.9309 81.648073 122.076437 79.182218 
C 121.221974 76.716363 120.785709 74.124924 120.785709 71.515221 
C 120.785709 68.905518 121.221974 66.31408 122.076437 63.848225 
C 122.9309 61.38237 124.191602 59.076614 125.806332 57.026444 
C 127.421062 54.976274 129.367218 53.210388 131.564206 51.801915 
C 133.761194 50.393443 136.17826 49.3621 138.715308 48.750596 
C 141.252356 48.139092 143.873873 47.955987 146.471295 48.208864 
C 149.068718 48.461741 151.605688 49.147061 153.977143 50.236442 
C 156.348598 51.325823 158.521343 52.804017 160.4054 54.609807 
C 162.289456 56.415598 163.858452 58.523709 165.047411 60.846837 
C 163.73992 54.663991 161.306866 48.77386 157.869795 43.470686 
C 154.432724 38.167511 150.049838 33.541097 144.940085 29.822557 
C 139.830332 26.104017 134.08024 23.35632 127.977056 21.716729 
C 121.873872 20.077137 115.520946 19.573415 109.235642 20.230726 
C 102.950337 20.888037 96.839087 22.69525 91.207181 25.562086 
C 85.575274 28.428922 80.518082 32.306834 76.288237 37.0021 
C 72.058391 41.697366 68.72752 47.130477 66.462018 53.030021 
C 64.196517 58.929565 63.034747 65.19564 63.034747 71.515221 
C 63.034747 77.834803 64.196517 84.100878 66.462018 90.000422 
C 68.72752 95.899965 72.058391 101.333077 76.288237 106.028343 
C 80.518082 110.723609 85.575274 114.601521 91.207181 117.468357 
C 96.839087 120.335193 102.950337 122.142406 109.235642 122.799717 
C 115.520946 123.457028 121.873872 122.953306 127.977056 121.313714 
C 134.08024 119.674122 139.830332 116.926425 144.940085 113.207885 
C 150.049838 109.489346 154.432724 104.862931 157.869795 99.559757 
C 161.306866 94.256583 163.73992 88.366451 165.047411 82.183606 
" style="fill:#c0c0c0;opacity:0.4;"/>
   </g>
   <g id="patch_3">
    <path clip-path="url(#pd89bf25a6e)" d="M 165.047411 60.846837 
C 165.78918 64.354502 166.1631 67.929983 166.1631 71.515221 
C 166.1631 75.100459 165.78918 78.675941 165.047411 82.183606 
C 166.737393 78.881519 167.618809 75.224643 167.618809 71.515221 
C 167.618809 67.805799 166.737393 64.148923 165.047411 60.846837 
" style="fill:#a6cee3;opacity:0.4;"/>
   </g>
   <g id="patch_4">
    <path clip-path="url(#pd89bf25a6e)" d="M 165.047411 82.183606 
C 165.78918 78.675941 166.1631 75.100459 166.1631 71.515221 
C 166.1631 67.929983 165.78918 64.354502 165.047411 60.846837 
C 163.858452 58.523709 162.289456 56.415598 160.4054 54.609807 
C 158.521343 52.804017 156.348598 51.325823 153.977143 50.236442 
C 151.605688 49.147061 149.068718 48.461741 146.471295 48.208864 
C 143.873873 47.955987 141.252356 48.139092 138.715308 48.750596 
C 136.17826 49.3621 133.761194 50.393443 131.564206 51.801915 
C 129.367218 53.210388 127.421062 54.976274 125.806332 57.026444 
C 124.191602 59.076614 122.9309 61.38237 122.076437 63.848225 
C 121.221974 66.31408 120.785709 68.905518 120.785709 71.515221 
C 120.785709 74.124924 121.221974 76.716363 122.076437 79.182218 
C 122.9309 81.648073 124.191602 83.953829 125.806332 86.003999 
C 127.421062 88.054169 129.367218 89.820055 131.564206 91.228527 
C 133.761194 92.637 136.17826 93.668343 138.715308 94.279847 
C 141.252356 94.891351 143.873873 95.074456 146.471295 94.821578 
C 149.068718 94.568701 151.605688 93.883382 153.977143 92.794001 
C 156.348598 91.70462 158.521343 90.226426 160.4054 88.420636 
C 162.289456 86.614845 163.858452 84.506734 165.047411 82.183606 
" style="fill:#fbffff;opacity:0.4;"/>
   </g>
   <g id="text_1">
    <!-- 946 -->
    <g style="fill:#262626;" transform="translate(82.366478 74.274596)scale(0.1 -0.1)">
     <defs>
      <path d="M 703 97 
L 703 672 
Q 941 559 1184 500 
Q 1428 441 1663 441 
Q 2288 441 2617 861 
Q 2947 1281 2994 2138 
Q 2813 1869 2534 1725 
Q 2256 1581 1919 1581 
Q 1219 1581 811 2004 
Q 403 2428 403 3163 
Q 403 3881 828 4315 
Q 1253 4750 1959 4750 
Q 2769 4750 3195 4129 
Q 3622 3509 3622 2328 
Q 3622 1225 3098 567 
Q 2575 -91 1691 -91 
Q 1453 -91 1209 -44 
Q 966 3 703 97 
z
M 1959 2075 
Q 2384 2075 2632 2365 
Q 2881 2656 2881 3163 
Q 2881 3666 2632 3958 
Q 2384 4250 1959 4250 
Q 1534 4250 1286 3958 
Q 1038 3666 1038 3163 
Q 1038 2656 1286 2365 
Q 1534 2075 1959 2075 
z
" id="DejaVuSans-39" transform="scale(0.015625)"/>
      <path d="M 2419 4116 
L 825 1625 
L 2419 1625 
L 2419 4116 
z
M 2253 4666 
L 3047 4666 
L 3047 1625 
L 3713 1625 
L 3713 1100 
L 3047 1100 
L 3047 0 
L 2419 0 
L 2419 1100 
L 313 1100 
L 313 1709 
L 2253 4666 
z
" id="DejaVuSans-34" transform="scale(0.015625)"/>
      <path d="M 2113 2584 
Q 1688 2584 1439 2293 
Q 1191 2003 1191 1497 
Q 1191 994 1439 701 
Q 1688 409 2113 409 
Q 2538 409 2786 701 
Q 3034 994 3034 1497 
Q 3034 2003 2786 2293 
Q 2538 2584 2113 2584 
z
M 3366 4563 
L 3366 3988 
Q 3128 4100 2886 4159 
Q 2644 4219 2406 4219 
Q 1781 4219 1451 3797 
Q 1122 3375 1075 2522 
Q 1259 2794 1537 2939 
Q 1816 3084 2150 3084 
Q 2853 3084 3261 2657 
Q 3669 2231 3669 1497 
Q 3669 778 3244 343 
Q 2819 -91 2113 -91 
Q 1303 -91 875 529 
Q 447 1150 447 2328 
Q 447 3434 972 4092 
Q 1497 4750 2381 4750 
Q 2619 4750 2861 4703 
Q 3103 4656 3366 4563 
z
" id="DejaVuSans-36" transform="scale(0.015625)"/>
     </defs>
     <use xlink:href="#DejaVuSans-39"/>
     <use x="63.623047" xlink:href="#DejaVuSans-34"/>
     <use x="127.246094" xlink:href="#DejaVuSans-36"/>
    </g>
   </g>
   <g id="text_2">
    <!-- 3 -->
    <g style="fill:#262626;" transform="translate(163.709704 74.274596)scale(0.1 -0.1)">
     <defs>
      <path d="M 2597 2516 
Q 3050 2419 3304 2112 
Q 3559 1806 3559 1356 
Q 3559 666 3084 287 
Q 2609 -91 1734 -91 
Q 1441 -91 1130 -33 
Q 819 25 488 141 
L 488 750 
Q 750 597 1062 519 
Q 1375 441 1716 441 
Q 2309 441 2620 675 
Q 2931 909 2931 1356 
Q 2931 1769 2642 2001 
Q 2353 2234 1838 2234 
L 1294 2234 
L 1294 2753 
L 1863 2753 
Q 2328 2753 2575 2939 
Q 2822 3125 2822 3475 
Q 2822 3834 2567 4026 
Q 2313 4219 1838 4219 
Q 1578 4219 1281 4162 
Q 984 4106 628 3988 
L 628 4550 
Q 988 4650 1302 4700 
Q 1616 4750 1894 4750 
Q 2613 4750 3031 4423 
Q 3450 4097 3450 3541 
Q 3450 3153 3228 2886 
Q 3006 2619 2597 2516 
z
" id="DejaVuSans-33" transform="scale(0.015625)"/>
     </defs>
     <use xlink:href="#DejaVuSans-33"/>
    </g>
   </g>
   <g id="text_3">
    <!-- 242 -->
    <g style="fill:#262626;" transform="translate(133.930655 74.274596)scale(0.1 -0.1)">
     <defs>
      <path d="M 1228 531 
L 3431 531 
L 3431 0 
L 469 0 
L 469 531 
Q 828 903 1448 1529 
Q 2069 2156 2228 2338 
Q 2531 2678 2651 2914 
Q 2772 3150 2772 3378 
Q 2772 3750 2511 3984 
Q 2250 4219 1831 4219 
Q 1534 4219 1204 4116 
Q 875 4013 500 3803 
L 500 4441 
Q 881 4594 1212 4672 
Q 1544 4750 1819 4750 
Q 2544 4750 2975 4387 
Q 3406 4025 3406 3419 
Q 3406 3131 3298 2873 
Q 3191 2616 2906 2266 
Q 2828 2175 2409 1742 
Q 1991 1309 1228 531 
z
" id="DejaVuSans-32" transform="scale(0.015625)"/>
     </defs>
     <use xlink:href="#DejaVuSans-32"/>
     <use x="63.623047" xlink:href="#DejaVuSans-34"/>
     <use x="127.246094" xlink:href="#DejaVuSans-32"/>
    </g>
   </g>
   <g id="text_4">
    <!-- Bioregistry -->
    <g style="fill:#262626;" transform="translate(49.699549 135.946559)scale(0.12 -0.12)">
     <defs>
      <path d="M 1259 2228 
L 1259 519 
L 2272 519 
Q 2781 519 3026 730 
Q 3272 941 3272 1375 
Q 3272 1813 3026 2020 
Q 2781 2228 2272 2228 
L 1259 2228 
z
M 1259 4147 
L 1259 2741 
L 2194 2741 
Q 2656 2741 2882 2914 
Q 3109 3088 3109 3444 
Q 3109 3797 2882 3972 
Q 2656 4147 2194 4147 
L 1259 4147 
z
M 628 4666 
L 2241 4666 
Q 2963 4666 3353 4366 
Q 3744 4066 3744 3513 
Q 3744 3084 3544 2831 
Q 3344 2578 2956 2516 
Q 3422 2416 3680 2098 
Q 3938 1781 3938 1306 
Q 3938 681 3513 340 
Q 3088 0 2303 0 
L 628 0 
L 628 4666 
z
" id="DejaVuSans-42" transform="scale(0.015625)"/>
      <path d="M 603 3500 
L 1178 3500 
L 1178 0 
L 603 0 
L 603 3500 
z
M 603 4863 
L 1178 4863 
L 1178 4134 
L 603 4134 
L 603 4863 
z
" id="DejaVuSans-69" transform="scale(0.015625)"/>
      <path d="M 1959 3097 
Q 1497 3097 1228 2736 
Q 959 2375 959 1747 
Q 959 1119 1226 758 
Q 1494 397 1959 397 
Q 2419 397 2687 759 
Q 2956 1122 2956 1747 
Q 2956 2369 2687 2733 
Q 2419 3097 1959 3097 
z
M 1959 3584 
Q 2709 3584 3137 3096 
Q 3566 2609 3566 1747 
Q 3566 888 3137 398 
Q 2709 -91 1959 -91 
Q 1206 -91 779 398 
Q 353 888 353 1747 
Q 353 2609 779 3096 
Q 1206 3584 1959 3584 
z
" id="DejaVuSans-6f" transform="scale(0.015625)"/>
      <path d="M 2631 2963 
Q 2534 3019 2420 3045 
Q 2306 3072 2169 3072 
Q 1681 3072 1420 2755 
Q 1159 2438 1159 1844 
L 1159 0 
L 581 0 
L 581 3500 
L 1159 3500 
L 1159 2956 
Q 1341 3275 1631 3429 
Q 1922 3584 2338 3584 
Q 2397 3584 2469 3576 
Q 2541 3569 2628 3553 
L 2631 2963 
z
" id="DejaVuSans-72" transform="scale(0.015625)"/>
      <path d="M 3597 1894 
L 3597 1613 
L 953 1613 
Q 991 1019 1311 708 
Q 1631 397 2203 397 
Q 2534 397 2845 478 
Q 3156 559 3463 722 
L 3463 178 
Q 3153 47 2828 -22 
Q 2503 -91 2169 -91 
Q 1331 -91 842 396 
Q 353 884 353 1716 
Q 353 2575 817 3079 
Q 1281 3584 2069 3584 
Q 2775 3584 3186 3129 
Q 3597 2675 3597 1894 
z
M 3022 2063 
Q 3016 2534 2758 2815 
Q 2500 3097 2075 3097 
Q 1594 3097 1305 2825 
Q 1016 2553 972 2059 
L 3022 2063 
z
" id="DejaVuSans-65" transform="scale(0.015625)"/>
      <path d="M 2906 1791 
Q 2906 2416 2648 2759 
Q 2391 3103 1925 3103 
Q 1463 3103 1205 2759 
Q 947 2416 947 1791 
Q 947 1169 1205 825 
Q 1463 481 1925 481 
Q 2391 481 2648 825 
Q 2906 1169 2906 1791 
z
M 3481 434 
Q 3481 -459 3084 -895 
Q 2688 -1331 1869 -1331 
Q 1566 -1331 1297 -1286 
Q 1028 -1241 775 -1147 
L 775 -588 
Q 1028 -725 1275 -790 
Q 1522 -856 1778 -856 
Q 2344 -856 2625 -561 
Q 2906 -266 2906 331 
L 2906 616 
Q 2728 306 2450 153 
Q 2172 0 1784 0 
Q 1141 0 747 490 
Q 353 981 353 1791 
Q 353 2603 747 3093 
Q 1141 3584 1784 3584 
Q 2172 3584 2450 3431 
Q 2728 3278 2906 2969 
L 2906 3500 
L 3481 3500 
L 3481 434 
z
" id="DejaVuSans-67" transform="scale(0.015625)"/>
      <path d="M 2834 3397 
L 2834 2853 
Q 2591 2978 2328 3040 
Q 2066 3103 1784 3103 
Q 1356 3103 1142 2972 
Q 928 2841 928 2578 
Q 928 2378 1081 2264 
Q 1234 2150 1697 2047 
L 1894 2003 
Q 2506 1872 2764 1633 
Q 3022 1394 3022 966 
Q 3022 478 2636 193 
Q 2250 -91 1575 -91 
Q 1294 -91 989 -36 
Q 684 19 347 128 
L 347 722 
Q 666 556 975 473 
Q 1284 391 1588 391 
Q 1994 391 2212 530 
Q 2431 669 2431 922 
Q 2431 1156 2273 1281 
Q 2116 1406 1581 1522 
L 1381 1569 
Q 847 1681 609 1914 
Q 372 2147 372 2553 
Q 372 3047 722 3315 
Q 1072 3584 1716 3584 
Q 2034 3584 2315 3537 
Q 2597 3491 2834 3397 
z
" id="DejaVuSans-73" transform="scale(0.015625)"/>
      <path d="M 1172 4494 
L 1172 3500 
L 2356 3500 
L 2356 3053 
L 1172 3053 
L 1172 1153 
Q 1172 725 1289 603 
Q 1406 481 1766 481 
L 2356 481 
L 2356 0 
L 1766 0 
Q 1100 0 847 248 
Q 594 497 594 1153 
L 594 3053 
L 172 3053 
L 172 3500 
L 594 3500 
L 594 4494 
L 1172 4494 
z
" id="DejaVuSans-74" transform="scale(0.015625)"/>
      <path d="M 2059 -325 
Q 1816 -950 1584 -1140 
Q 1353 -1331 966 -1331 
L 506 -1331 
L 506 -850 
L 844 -850 
Q 1081 -850 1212 -737 
Q 1344 -625 1503 -206 
L 1606 56 
L 191 3500 
L 800 3500 
L 1894 763 
L 2988 3500 
L 3597 3500 
L 2059 -325 
z
" id="DejaVuSans-79" transform="scale(0.015625)"/>
     </defs>
     <use xlink:href="#DejaVuSans-42"/>
     <use x="68.603516" xlink:href="#DejaVuSans-69"/>
     <use x="96.386719" xlink:href="#DejaVuSans-6f"/>
     <use x="157.568359" xlink:href="#DejaVuSans-72"/>
     <use x="196.431641" xlink:href="#DejaVuSans-65"/>
     <use x="257.955078" xlink:href="#DejaVuSans-67"/>
     <use x="321.431641" xlink:href="#DejaVuSans-69"/>
     <use x="349.214844" xlink:href="#DejaVuSans-73"/>
     <use x="401.314453" xlink:href="#DejaVuSans-74"/>
     <use x="440.523438" xlink:href="#DejaVuSans-72"/>
     <use x="481.636719" xlink:href="#DejaVuSans-79"/>
    </g>
   </g>
   <g id="text_5">
    <!-- OBO -->
    <g style="fill:#262626;" transform="translate(144.202259 107.798933)scale(0.12 -0.12)">
     <defs>
      <path d="M 2522 4238 
Q 1834 4238 1429 3725 
Q 1025 3213 1025 2328 
Q 1025 1447 1429 934 
Q 1834 422 2522 422 
Q 3209 422 3611 934 
Q 4013 1447 4013 2328 
Q 4013 3213 3611 3725 
Q 3209 4238 2522 4238 
z
M 2522 4750 
Q 3503 4750 4090 4092 
Q 4678 3434 4678 2328 
Q 4678 1225 4090 567 
Q 3503 -91 2522 -91 
Q 1538 -91 948 565 
Q 359 1222 359 2328 
Q 359 3434 948 4092 
Q 1538 4750 2522 4750 
z
" id="DejaVuSans-4f" transform="scale(0.015625)"/>
     </defs>
     <use xlink:href="#DejaVuSans-4f"/>
     <use x="78.710938" xlink:href="#DejaVuSans-42"/>
     <use x="145.564453" xlink:href="#DejaVuSans-4f"/>
    </g>
   </g>
  </g>
  <g id="axes_2">
   <g id="patch_5">
    <path clip-path="url(#pdc07a3cf3e)" d="M 391.354713 81.147384 
C 390.254458 83.701313 388.7247 86.047944 386.831952 88.085251 
C 384.939204 90.122558 382.711299 91.820579 380.245103 93.105488 
C 377.778907 94.390397 375.110687 95.243298 372.356453 95.627109 
C 369.602219 96.01092 366.802475 95.919996 364.078947 95.35829 
C 361.35542 94.796584 358.748162 93.772357 356.370531 92.33014 
C 353.992901 90.887924 351.879864 89.048927 350.123291 86.893105 
C 348.366718 84.737284 346.992442 82.296341 346.060212 79.676405 
C 345.127983 77.05647 344.65151 74.296069 344.65151 71.515221 
C 344.65151 68.734374 345.127983 65.973973 346.060212 63.354037 
C 346.992442 60.734102 348.366718 58.293159 350.123291 56.137338 
C 351.879864 53.981516 353.992901 52.142519 356.370531 50.700302 
C 358.748162 49.258086 361.35542 48.233859 364.078947 47.672153 
C 366.802475 47.110447 369.602219 47.019523 372.356453 47.403334 
C 375.110687 47.787144 377.778907 48.640045 380.245103 49.924955 
C 382.711299 51.209864 384.939204 52.907885 386.831952 54.945192 
C 388.7247 56.982498 390.254458 59.32913 391.354713 61.883059 
C 390.165918 55.63065 387.829828 49.652009 384.464766 44.249953 
C 381.099704 38.847897 376.76346 34.115197 371.675663 30.291564 
C 366.587866 26.467931 360.835891 23.619028 354.711074 21.889154 
C 348.586257 20.159279 342.193781 19.57814 335.857426 20.17517 
C 329.52107 20.7722 323.34965 22.537147 317.655747 25.380617 
C 311.961844 28.224087 306.843241 32.097247 302.559196 36.803923 
C 298.27515 41.510599 294.899232 46.969962 292.602432 52.905496 
C 290.305632 58.841029 289.127393 65.150801 289.127393 71.515221 
C 289.127393 77.879642 290.305632 84.189414 292.602432 90.124947 
C 294.899232 96.06048 298.27515 101.519843 302.559196 106.22652 
C 306.843241 110.933196 311.961844 114.806356 317.655747 117.649826 
C 323.34965 120.493295 329.52107 122.258243 335.857426 122.855273 
C 342.193781 123.452303 348.586257 122.871164 354.711074 121.141289 
C 360.835891 119.411414 366.587866 116.562512 371.675663 112.738879 
C 376.76346 108.915246 381.099704 104.182546 384.464766 98.78049 
C 387.829828 93.378434 390.165918 87.399793 391.354713 81.147384 
" style="fill:#c0c0c0;opacity:0.4;"/>
   </g>
   <g id="patch_6">
    <path clip-path="url(#pdc07a3cf3e)" d="M 391.354713 61.883059 
C 391.958422 65.058239 392.262284 68.283157 392.262284 71.515221 
C 392.262284 74.747285 391.958422 77.972203 391.354713 81.147384 
C 392.665257 78.105329 393.341269 74.827566 393.341269 71.515221 
C 393.341269 68.202877 392.665257 64.925114 391.354713 61.883059 
" style="fill:#1f78b4;opacity:0.4;"/>
   </g>
   <g id="patch_7">
    <path clip-path="url(#pdc07a3cf3e)" d="M 391.354713 81.147384 
C 391.958422 77.972203 392.262284 74.747285 392.262284 71.515221 
C 392.262284 68.283157 391.958422 65.058239 391.354713 61.883059 
C 390.254458 59.32913 388.7247 56.982498 386.831952 54.945192 
C 384.939204 52.907885 382.711299 51.209864 380.245103 49.924955 
C 377.778907 48.640045 375.110687 47.787144 372.356453 47.403334 
C 369.602219 47.019523 366.802475 47.110447 364.078947 47.672153 
C 361.35542 48.233859 358.748162 49.258086 356.370531 50.700302 
C 353.992901 52.142519 351.879864 53.981516 350.123291 56.137338 
C 348.366718 58.293159 346.992442 60.734102 346.060212 63.354037 
C 345.127983 65.973973 344.65151 68.734374 344.65151 71.515221 
C 344.65151 74.296069 345.127983 77.05647 346.060212 79.676405 
C 346.992442 82.296341 348.366718 84.737284 350.123291 86.893105 
C 351.879864 89.048927 353.992901 90.887924 356.370531 92.33014 
C 358.748162 93.772357 361.35542 94.796584 364.078947 95.35829 
C 366.802475 95.919996 369.602219 96.01092 372.356453 95.627109 
C 375.110687 95.243298 377.778907 94.390397 380.245103 93.105488 
C 382.711299 91.820579 384.939204 90.122558 386.831952 88.085251 
C 388.7247 86.047944 390.254458 83.701313 391.354713 81.147384 
" style="fill:#9cdaff;opacity:0.4;"/>
   </g>
   <g id="text_6">
    <!-- 926 -->
    <g style="fill:#262626;" transform="translate(307.345701 74.274596)scale(0.1 -0.1)">
     <use xlink:href="#DejaVuSans-39"/>
     <use x="63.623047" xlink:href="#DejaVuSans-32"/>
     <use x="127.246094" xlink:href="#DejaVuSans-36"/>
    </g>
   </g>
   <g id="text_7">
    <!-- 2 -->
    <g style="fill:#262626;" transform="translate(389.620527 74.274596)scale(0.1 -0.1)">
     <use xlink:href="#DejaVuSans-32"/>
    </g>
   </g>
   <g id="text_8">
    <!-- 263 -->
    <g style="fill:#262626;" transform="translate(358.913147 74.274596)scale(0.1 -0.1)">
     <use xlink:href="#DejaVuSans-32"/>
     <use x="63.623047" xlink:href="#DejaVuSans-36"/>
     <use x="127.246094" xlink:href="#DejaVuSans-33"/>
    </g>
   </g>
   <g id="text_9">
    <!-- Bioregistry -->
    <g style="fill:#262626;" transform="translate(275.795463 135.996408)scale(0.12 -0.12)">
     <use xlink:href="#DejaVuSans-42"/>
     <use x="68.603516" xlink:href="#DejaVuSans-69"/>
     <use x="96.386719" xlink:href="#DejaVuSans-6f"/>
     <use x="157.568359" xlink:href="#DejaVuSans-72"/>
     <use x="196.431641" xlink:href="#DejaVuSans-65"/>
     <use x="257.955078" xlink:href="#DejaVuSans-67"/>
     <use x="321.431641" xlink:href="#DejaVuSans-69"/>
     <use x="349.214844" xlink:href="#DejaVuSans-73"/>
     <use x="401.314453" xlink:href="#DejaVuSans-74"/>
     <use x="440.523438" xlink:href="#DejaVuSans-72"/>
     <use x="481.636719" xlink:href="#DejaVuSans-79"/>
    </g>
   </g>
   <g id="text_10">
    <!-- OLS -->
    <g style="fill:#262626;" transform="translate(368.99639 108.773842)scale(0.12 -0.12)">
     <defs>
      <path d="M 628 4666 
L 1259 4666 
L 1259 531 
L 3531 531 
L 3531 0 
L 628 0 
L 628 4666 
z
" id="DejaVuSans-4c" transform="scale(0.015625)"/>
      <path d="M 3425 4513 
L 3425 3897 
Q 3066 4069 2747 4153 
Q 2428 4238 2131 4238 
Q 1616 4238 1336 4038 
Q 1056 3838 1056 3469 
Q 1056 3159 1242 3001 
Q 1428 2844 1947 2747 
L 2328 2669 
Q 3034 2534 3370 2195 
Q 3706 1856 3706 1288 
Q 3706 609 3251 259 
Q 2797 -91 1919 -91 
Q 1588 -91 1214 -16 
Q 841 59 441 206 
L 441 856 
Q 825 641 1194 531 
Q 1563 422 1919 422 
Q 2459 422 2753 634 
Q 3047 847 3047 1241 
Q 3047 1584 2836 1778 
Q 2625 1972 2144 2069 
L 1759 2144 
Q 1053 2284 737 2584 
Q 422 2884 422 3419 
Q 422 4038 858 4394 
Q 1294 4750 2059 4750 
Q 2388 4750 2728 4690 
Q 3069 4631 3425 4513 
z
" id="DejaVuSans-53" transform="scale(0.015625)"/>
     </defs>
     <use xlink:href="#DejaVuSans-4f"/>
     <use x="78.710938" xlink:href="#DejaVuSans-4c"/>
     <use x="134.423828" xlink:href="#DejaVuSans-53"/>
    </g>
   </g>
  </g>
  <g id="axes_3">
   <g id="patch_8">
    <path clip-path="url(#p86ec7441d5)" d="M 607.609714 101.182771 
C 601.799388 106.73799 594.48314 110.46579 586.573644 111.90114 
C 578.664149 113.336491 570.504569 112.417117 563.112784 109.257708 
C 555.720999 106.0983 549.41771 100.83593 544.98923 94.127062 
C 540.560749 87.418194 538.199212 79.5539 538.199212 71.515221 
C 538.199212 63.476543 540.560749 55.612248 544.98923 48.90338 
C 549.41771 42.194512 555.720999 36.932143 563.112784 33.772734 
C 570.504569 30.613325 578.664149 29.693952 586.573644 31.129302 
C 594.48314 32.564653 601.799388 36.292452 607.609714 41.847672 
C 604.478489 37.403519 600.663335 33.482979 596.306131 30.231849 
C 591.948927 26.980719 587.104364 24.439807 581.9526 22.703603 
C 576.800837 20.967399 571.406537 20.057697 565.970304 20.008325 
C 560.53407 19.958954 555.124138 20.770533 549.941691 22.412882 
C 544.759243 24.055231 539.86933 26.507736 535.453797 29.679192 
C 531.038264 32.850649 527.152533 36.70125 523.941107 41.087799 
C 520.729682 45.474349 518.23287 50.341788 516.543524 55.509106 
C 514.854178 60.676425 513.993501 66.078764 513.993501 71.515221 
C 513.993501 76.951679 514.854178 82.354018 516.543524 87.521336 
C 518.23287 92.688655 520.729682 97.556094 523.941107 101.942643 
C 527.152533 106.329193 531.038264 110.179794 535.453797 113.35125 
C 539.86933 116.522707 544.759243 118.975211 549.941691 120.617561 
C 555.124138 122.25991 560.53407 123.071489 565.970304 123.022118 
C 571.406537 122.972746 576.800837 122.063043 581.9526 120.32684 
C 587.104364 118.590636 591.948927 116.049723 596.306131 112.798594 
C 600.663335 109.547464 604.478489 105.626924 607.609714 101.182771 
" style="fill:#c0c0c0;opacity:0.4;"/>
   </g>
   <g id="patch_9">
    <path clip-path="url(#p86ec7441d5)" d="M 607.609714 41.847672 
C 613.726804 50.529664 617.011542 60.894686 617.011542 71.515221 
C 617.011542 82.135757 613.726804 92.500778 607.609714 101.182771 
C 611.617681 97.350777 614.807864 92.746034 616.987226 87.647177 
C 619.166589 82.548319 620.290267 77.060307 620.290267 71.515221 
C 620.290267 65.970136 619.166589 60.482124 616.987226 55.383266 
C 614.807864 50.284408 611.617681 45.679666 607.609714 41.847672 
" style="fill:#b2df8a;opacity:0.4;"/>
   </g>
   <g id="patch_10">
    <path clip-path="url(#p86ec7441d5)" d="M 607.609714 101.182771 
C 613.726804 92.500778 617.011542 82.135757 617.011542 71.515221 
C 617.011542 60.894686 613.726804 50.529664 607.609714 41.847672 
C 601.799388 36.292452 594.48314 32.564653 586.573644 31.129302 
C 578.664149 29.693952 570.504569 30.613325 563.112784 33.772734 
C 555.720999 36.932143 549.41771 42.194512 544.98923 48.90338 
C 540.560749 55.612248 538.199212 63.476543 538.199212 71.515221 
C 538.199212 79.5539 540.560749 87.418194 544.98923 94.127062 
C 549.41771 100.83593 555.720999 106.0983 563.112784 109.257708 
C 570.504569 112.417117 578.664149 113.336491 586.573644 111.90114 
C 594.48314 110.46579 601.799388 106.73799 607.609714 101.182771 
" style="fill:#ffffe7;opacity:0.4;"/>
   </g>
   <g id="text_11">
    <!-- 454 -->
    <g style="fill:#262626;" transform="translate(516.552607 74.274596)scale(0.1 -0.1)">
     <defs>
      <path d="M 691 4666 
L 3169 4666 
L 3169 4134 
L 1269 4134 
L 1269 2991 
Q 1406 3038 1543 3061 
Q 1681 3084 1819 3084 
Q 2600 3084 3056 2656 
Q 3513 2228 3513 1497 
Q 3513 744 3044 326 
Q 2575 -91 1722 -91 
Q 1428 -91 1123 -41 
Q 819 9 494 109 
L 494 744 
Q 775 591 1075 516 
Q 1375 441 1709 441 
Q 2250 441 2565 725 
Q 2881 1009 2881 1497 
Q 2881 1984 2565 2268 
Q 2250 2553 1709 2553 
Q 1456 2553 1204 2497 
Q 953 2441 691 2322 
L 691 4666 
z
" id="DejaVuSans-35" transform="scale(0.015625)"/>
     </defs>
     <use xlink:href="#DejaVuSans-34"/>
     <use x="63.623047" xlink:href="#DejaVuSans-35"/>
     <use x="127.246094" xlink:href="#DejaVuSans-34"/>
    </g>
   </g>
   <g id="text_12">
    <!-- 20 -->
    <g style="fill:#262626;" transform="translate(612.288404 74.274596)scale(0.1 -0.1)">
     <defs>
      <path d="M 2034 4250 
Q 1547 4250 1301 3770 
Q 1056 3291 1056 2328 
Q 1056 1369 1301 889 
Q 1547 409 2034 409 
Q 2525 409 2770 889 
Q 3016 1369 3016 2328 
Q 3016 3291 2770 3770 
Q 2525 4250 2034 4250 
z
M 2034 4750 
Q 2819 4750 3233 4129 
Q 3647 3509 3647 2328 
Q 3647 1150 3233 529 
Q 2819 -91 2034 -91 
Q 1250 -91 836 529 
Q 422 1150 422 2328 
Q 422 3509 836 4129 
Q 1250 4750 2034 4750 
z
" id="DejaVuSans-30" transform="scale(0.015625)"/>
     </defs>
     <use xlink:href="#DejaVuSans-32"/>
     <use x="63.623047" xlink:href="#DejaVuSans-30"/>
    </g>
   </g>
   <g id="text_13">
    <!-- 735 -->
    <g style="fill:#262626;" transform="translate(568.061627 74.274596)scale(0.1 -0.1)">
     <defs>
      <path d="M 525 4666 
L 3525 4666 
L 3525 4397 
L 1831 0 
L 1172 0 
L 2766 4134 
L 525 4134 
L 525 4666 
z
" id="DejaVuSans-37" transform="scale(0.015625)"/>
     </defs>
     <use xlink:href="#DejaVuSans-37"/>
     <use x="63.623047" xlink:href="#DejaVuSans-33"/>
     <use x="127.246094" xlink:href="#DejaVuSans-35"/>
    </g>
   </g>
   <g id="text_14">
    <!-- Bioregistry -->
    <g style="fill:#262626;" transform="translate(500.603147 136.770094)scale(0.12 -0.12)">
     <use xlink:href="#DejaVuSans-42"/>
     <use x="68.603516" xlink:href="#DejaVuSans-69"/>
     <use x="96.386719" xlink:href="#DejaVuSans-6f"/>
     <use x="157.568359" xlink:href="#DejaVuSans-72"/>
     <use x="196.431641" xlink:href="#DejaVuSans-65"/>
     <use x="257.955078" xlink:href="#DejaVuSans-67"/>
     <use x="321.431641" xlink:href="#DejaVuSans-69"/>
     <use x="349.214844" xlink:href="#DejaVuSans-73"/>
     <use x="401.314453" xlink:href="#DejaVuSans-74"/>
     <use x="440.523438" xlink:href="#DejaVuSans-72"/>
     <use x="481.636719" xlink:href="#DejaVuSans-79"/>
    </g>
   </g>
   <g id="text_15">
    <!-- MIRIAM -->
    <g style="fill:#262626;" transform="translate(579.244739 126.306601)scale(0.12 -0.12)">
     <defs>
      <path d="M 628 4666 
L 1569 4666 
L 2759 1491 
L 3956 4666 
L 4897 4666 
L 4897 0 
L 4281 0 
L 4281 4097 
L 3078 897 
L 2444 897 
L 1241 4097 
L 1241 0 
L 628 0 
L 628 4666 
z
" id="DejaVuSans-4d" transform="scale(0.015625)"/>
      <path d="M 628 4666 
L 1259 4666 
L 1259 0 
L 628 0 
L 628 4666 
z
" id="DejaVuSans-49" transform="scale(0.015625)"/>
      <path d="M 2841 2188 
Q 3044 2119 3236 1894 
Q 3428 1669 3622 1275 
L 4263 0 
L 3584 0 
L 2988 1197 
Q 2756 1666 2539 1819 
Q 2322 1972 1947 1972 
L 1259 1972 
L 1259 0 
L 628 0 
L 628 4666 
L 2053 4666 
Q 2853 4666 3247 4331 
Q 3641 3997 3641 3322 
Q 3641 2881 3436 2590 
Q 3231 2300 2841 2188 
z
M 1259 4147 
L 1259 2491 
L 2053 2491 
Q 2509 2491 2742 2702 
Q 2975 2913 2975 3322 
Q 2975 3731 2742 3939 
Q 2509 4147 2053 4147 
L 1259 4147 
z
" id="DejaVuSans-52" transform="scale(0.015625)"/>
      <path d="M 2188 4044 
L 1331 1722 
L 3047 1722 
L 2188 4044 
z
M 1831 4666 
L 2547 4666 
L 4325 0 
L 3669 0 
L 3244 1197 
L 1141 1197 
L 716 0 
L 50 0 
L 1831 4666 
z
" id="DejaVuSans-41" transform="scale(0.015625)"/>
     </defs>
     <use xlink:href="#DejaVuSans-4d"/>
     <use x="86.279297" xlink:href="#DejaVuSans-49"/>
     <use x="115.771484" xlink:href="#DejaVuSans-52"/>
     <use x="185.253906" xlink:href="#DejaVuSans-49"/>
     <use x="214.746094" xlink:href="#DejaVuSans-41"/>
     <use x="283.154297" xlink:href="#DejaVuSans-4d"/>
    </g>
   </g>
  </g>
  <g id="axes_4">
   <g id="patch_11">
    <path clip-path="url(#p271aa089e5)" d="M 146.519169 230.132099 
C 144.030985 228.03961 142.03039 225.427938 140.658037 222.480699 
C 139.285684 219.53346 138.574508 216.321382 138.574508 213.070295 
C 138.574508 209.819208 139.285684 206.60713 140.658037 203.659891 
C 142.03039 200.712652 144.030985 198.10098 146.519169 196.008491 
C 144.523307 190.388457 141.556703 185.161974 137.754546 180.567211 
C 133.952388 175.972449 129.373321 172.080277 124.226011 169.06806 
C 119.078701 166.055844 113.442541 163.970043 107.574369 162.905709 
C 101.706197 161.841374 95.696525 161.814922 89.819211 162.827556 
C 83.941897 163.840191 78.287594 165.876295 73.113967 168.843082 
C 67.940339 171.809869 63.327186 175.66158 59.484727 180.222694 
C 55.642268 184.783807 52.62977 189.983972 50.584511 195.586218 
C 48.539252 201.188465 47.492779 207.106383 47.492779 213.070295 
C 47.492779 219.034207 48.539252 224.952125 50.584511 230.554372 
C 52.62977 236.156618 55.642268 241.356783 59.484727 245.917896 
C 63.327186 250.47901 67.940339 254.330721 73.113967 257.297508 
C 78.287594 260.264295 83.941897 262.300399 89.819211 263.313034 
C 95.696525 264.325668 101.706197 264.299216 107.574369 263.234881 
C 113.442541 262.170547 119.078701 260.084746 124.226011 257.07253 
C 129.373321 254.060313 133.952388 250.168141 137.754546 245.573379 
C 141.556703 240.978616 144.523307 235.752133 146.519169 230.132099 
" style="fill:#c0c0c0;opacity:0.4;"/>
   </g>
   <g id="patch_12">
    <path clip-path="url(#p271aa089e5)" d="M 146.519169 196.008491 
C 148.464592 201.486497 149.458842 207.257101 149.458842 213.070295 
C 149.458842 218.883489 148.464592 224.654093 146.519169 230.132099 
C 149.768226 232.86446 153.731147 234.612729 157.939623 235.170307 
C 162.1481 235.727886 166.429558 235.071911 170.278046 233.2799 
C 174.126535 231.487889 177.384242 228.633326 179.666196 225.053543 
C 181.94815 221.473759 183.160777 217.315547 183.160777 213.070295 
C 183.160777 208.825043 181.94815 204.666831 179.666196 201.087047 
C 177.384242 197.507264 174.126535 194.652701 170.278046 192.86069 
C 166.429558 191.068679 162.1481 190.412704 157.939623 190.970283 
C 153.731147 191.527861 149.768226 193.27613 146.519169 196.008491 
" style="fill:#33a02c;opacity:0.4;"/>
   </g>
   <g id="patch_13">
    <path clip-path="url(#p271aa089e5)" d="M 146.519169 230.132099 
C 148.464592 224.654093 149.458842 218.883489 149.458842 213.070295 
C 149.458842 207.257101 148.464592 201.486497 146.519169 196.008491 
C 144.030985 198.10098 142.03039 200.712652 140.658037 203.659891 
C 139.285684 206.60713 138.574508 209.819208 138.574508 213.070295 
C 138.574508 216.321382 139.285684 219.53346 140.658037 222.480699 
C 142.03039 225.427938 144.030985 228.03961 146.519169 230.132099 
" style="fill:#aaf6a5;opacity:0.4;"/>
   </g>
   <g id="text_16">
    <!-- 1145 -->
    <g style="fill:#262626;" transform="translate(80.308643 215.82967)scale(0.1 -0.1)">
     <defs>
      <path d="M 794 531 
L 1825 531 
L 1825 4091 
L 703 3866 
L 703 4441 
L 1819 4666 
L 2450 4666 
L 2450 531 
L 3481 531 
L 3481 0 
L 794 0 
L 794 531 
z
" id="DejaVuSans-31" transform="scale(0.015625)"/>
     </defs>
     <use xlink:href="#DejaVuSans-31"/>
     <use x="63.623047" xlink:href="#DejaVuSans-31"/>
     <use x="127.246094" xlink:href="#DejaVuSans-34"/>
     <use x="190.869141" xlink:href="#DejaVuSans-35"/>
    </g>
   </g>
   <g id="text_17">
    <!-- 189 -->
    <g style="fill:#262626;" transform="translate(156.766059 215.82967)scale(0.1 -0.1)">
     <defs>
      <path d="M 2034 2216 
Q 1584 2216 1326 1975 
Q 1069 1734 1069 1313 
Q 1069 891 1326 650 
Q 1584 409 2034 409 
Q 2484 409 2743 651 
Q 3003 894 3003 1313 
Q 3003 1734 2745 1975 
Q 2488 2216 2034 2216 
z
M 1403 2484 
Q 997 2584 770 2862 
Q 544 3141 544 3541 
Q 544 4100 942 4425 
Q 1341 4750 2034 4750 
Q 2731 4750 3128 4425 
Q 3525 4100 3525 3541 
Q 3525 3141 3298 2862 
Q 3072 2584 2669 2484 
Q 3125 2378 3379 2068 
Q 3634 1759 3634 1313 
Q 3634 634 3220 271 
Q 2806 -91 2034 -91 
Q 1263 -91 848 271 
Q 434 634 434 1313 
Q 434 1759 690 2068 
Q 947 2378 1403 2484 
z
M 1172 3481 
Q 1172 3119 1398 2916 
Q 1625 2713 2034 2713 
Q 2441 2713 2670 2916 
Q 2900 3119 2900 3481 
Q 2900 3844 2670 4047 
Q 2441 4250 2034 4250 
Q 1625 4250 1398 4047 
Q 1172 3844 1172 3481 
z
" id="DejaVuSans-38" transform="scale(0.015625)"/>
     </defs>
     <use xlink:href="#DejaVuSans-31"/>
     <use x="63.623047" xlink:href="#DejaVuSans-38"/>
     <use x="127.246094" xlink:href="#DejaVuSans-39"/>
    </g>
   </g>
   <g id="text_18">
    <!-- 37 -->
    <g style="fill:#262626;" transform="translate(137.654175 215.82967)scale(0.1 -0.1)">
     <use xlink:href="#DejaVuSans-33"/>
     <use x="63.623047" xlink:href="#DejaVuSans-37"/>
    </g>
   </g>
   <g id="text_19">
    <!-- Bioregistry -->
    <g style="fill:#262626;" transform="translate(33.576435 276.83526)scale(0.12 -0.12)">
     <use xlink:href="#DejaVuSans-42"/>
     <use x="68.603516" xlink:href="#DejaVuSans-69"/>
     <use x="96.386719" xlink:href="#DejaVuSans-6f"/>
     <use x="157.568359" xlink:href="#DejaVuSans-72"/>
     <use x="196.431641" xlink:href="#DejaVuSans-65"/>
     <use x="257.955078" xlink:href="#DejaVuSans-67"/>
     <use x="321.431641" xlink:href="#DejaVuSans-69"/>
     <use x="349.214844" xlink:href="#DejaVuSans-73"/>
     <use x="401.314453" xlink:href="#DejaVuSans-74"/>
     <use x="440.523438" xlink:href="#DejaVuSans-72"/>
     <use x="481.636719" xlink:href="#DejaVuSans-79"/>
    </g>
   </g>
   <g id="text_20">
    <!-- Wikidata -->
    <g style="fill:#262626;" transform="translate(160.867642 248.145363)scale(0.12 -0.12)">
     <defs>
      <path d="M 213 4666 
L 850 4666 
L 1831 722 
L 2809 4666 
L 3519 4666 
L 4500 722 
L 5478 4666 
L 6119 4666 
L 4947 0 
L 4153 0 
L 3169 4050 
L 2175 0 
L 1381 0 
L 213 4666 
z
" id="DejaVuSans-57" transform="scale(0.015625)"/>
      <path d="M 581 4863 
L 1159 4863 
L 1159 1991 
L 2875 3500 
L 3609 3500 
L 1753 1863 
L 3688 0 
L 2938 0 
L 1159 1709 
L 1159 0 
L 581 0 
L 581 4863 
z
" id="DejaVuSans-6b" transform="scale(0.015625)"/>
      <path d="M 2906 2969 
L 2906 4863 
L 3481 4863 
L 3481 0 
L 2906 0 
L 2906 525 
Q 2725 213 2448 61 
Q 2172 -91 1784 -91 
Q 1150 -91 751 415 
Q 353 922 353 1747 
Q 353 2572 751 3078 
Q 1150 3584 1784 3584 
Q 2172 3584 2448 3432 
Q 2725 3281 2906 2969 
z
M 947 1747 
Q 947 1113 1208 752 
Q 1469 391 1925 391 
Q 2381 391 2643 752 
Q 2906 1113 2906 1747 
Q 2906 2381 2643 2742 
Q 2381 3103 1925 3103 
Q 1469 3103 1208 2742 
Q 947 2381 947 1747 
z
" id="DejaVuSans-64" transform="scale(0.015625)"/>
      <path d="M 2194 1759 
Q 1497 1759 1228 1600 
Q 959 1441 959 1056 
Q 959 750 1161 570 
Q 1363 391 1709 391 
Q 2188 391 2477 730 
Q 2766 1069 2766 1631 
L 2766 1759 
L 2194 1759 
z
M 3341 1997 
L 3341 0 
L 2766 0 
L 2766 531 
Q 2569 213 2275 61 
Q 1981 -91 1556 -91 
Q 1019 -91 701 211 
Q 384 513 384 1019 
Q 384 1609 779 1909 
Q 1175 2209 1959 2209 
L 2766 2209 
L 2766 2266 
Q 2766 2663 2505 2880 
Q 2244 3097 1772 3097 
Q 1472 3097 1187 3025 
Q 903 2953 641 2809 
L 641 3341 
Q 956 3463 1253 3523 
Q 1550 3584 1831 3584 
Q 2591 3584 2966 3190 
Q 3341 2797 3341 1997 
z
" id="DejaVuSans-61" transform="scale(0.015625)"/>
     </defs>
     <use xlink:href="#DejaVuSans-57"/>
     <use x="96.626953" xlink:href="#DejaVuSans-69"/>
     <use x="124.410156" xlink:href="#DejaVuSans-6b"/>
     <use x="182.320312" xlink:href="#DejaVuSans-69"/>
     <use x="210.103516" xlink:href="#DejaVuSans-64"/>
     <use x="273.580078" xlink:href="#DejaVuSans-61"/>
     <use x="334.859375" xlink:href="#DejaVuSans-74"/>
     <use x="374.068359" xlink:href="#DejaVuSans-61"/>
    </g>
   </g>
  </g>
  <g id="axes_5">
   <g id="patch_14">
    <path clip-path="url(#p88a3efec17)" d="M 386.092728 236.455304 
C 383.650747 239.7319 380.71053 242.605861 377.379136 244.97254 
C 374.047742 247.339218 370.366103 249.169536 366.468276 250.396848 
C 362.570449 251.624159 358.504323 252.233385 354.417957 252.202341 
C 350.331591 252.171297 346.275191 251.500366 342.39646 250.213977 
C 338.517729 248.927587 334.864323 247.041546 331.569271 244.624526 
C 328.274218 242.207507 325.378004 239.289207 322.986086 235.975889 
C 320.594168 232.66257 318.735935 228.994942 317.479048 225.10655 
C 316.222161 221.218159 315.582064 217.156779 315.582064 213.070295 
C 315.582064 208.983811 316.222161 204.922431 317.479048 201.03404 
C 318.735935 197.145648 320.594168 193.47802 322.986086 190.164701 
C 325.378004 186.851383 328.274218 183.933083 331.569271 181.516064 
C 334.864323 179.099044 338.517729 177.213003 342.39646 175.926613 
C 346.275191 174.640224 350.331591 173.969293 354.417957 173.938249 
C 358.504323 173.907205 362.570449 174.516431 366.468276 175.743742 
C 370.366103 176.971054 374.047742 178.801372 377.379136 181.16805 
C 380.71053 183.534729 383.650747 186.40869 386.092728 189.685286 
C 383.48447 184.562346 380.037413 179.911687 375.89453 175.926208 
C 371.751648 171.940729 366.971023 168.676305 361.750946 166.268337 
C 356.530869 163.860369 350.944523 162.342616 345.223617 161.77803 
C 339.502712 161.213445 333.727452 161.609943 328.137383 162.951079 
C 322.547314 164.292215 317.220806 166.559185 312.378793 169.657962 
C 307.536779 172.756739 303.247142 176.643879 299.687807 181.158151 
C 296.128471 185.672422 293.349338 190.750538 291.46568 196.181868 
C 289.582022 201.613199 288.620247 207.321598 288.620247 213.070295 
C 288.620247 218.818992 289.582022 224.527391 291.46568 229.958722 
C 293.349338 235.390052 296.128471 240.468168 299.687807 244.982439 
C 303.247142 249.496711 307.536779 253.383851 312.378793 256.482628 
C 317.220806 259.581405 322.547314 261.848375 328.137383 263.189511 
C 333.727452 264.530647 339.502712 264.927145 345.223617 264.36256 
C 350.944523 263.797974 356.530869 262.280221 361.750946 259.872253 
C 366.971023 257.464285 371.751648 254.199861 375.89453 250.214382 
C 380.037413 246.228903 383.48447 241.578244 386.092728 236.455304 
" style="fill:#c0c0c0;opacity:0.4;"/>
   </g>
   <g id="patch_15">
    <path clip-path="url(#p88a3efec17)" d="M 386.092728 189.685286 
C 389.780483 196.928492 391.703118 204.942345 391.703118 213.070295 
C 391.703118 221.198245 389.780483 229.212098 386.092728 236.455304 
C 391.127482 229.699782 393.848415 221.495604 393.848415 213.070295 
C 393.848415 204.644986 391.127482 196.440808 386.092728 189.685286 
" style="fill:#fb9a99;opacity:0.4;"/>
   </g>
   <g id="patch_16">
    <path clip-path="url(#p88a3efec17)" d="M 386.092728 236.455304 
C 389.780483 229.212098 391.703118 221.198245 391.703118 213.070295 
C 391.703118 204.942345 389.780483 196.928492 386.092728 189.685286 
C 383.650747 186.40869 380.71053 183.534729 377.379136 181.16805 
C 374.047742 178.801372 370.366103 176.971054 366.468276 175.743742 
C 362.570449 174.516431 358.504323 173.907205 354.417957 173.938249 
C 350.331591 173.969293 346.275191 174.640224 342.39646 175.926613 
C 338.517729 177.213003 334.864323 179.099044 331.569271 181.516064 
C 328.274218 183.933083 325.378004 186.851383 322.986086 190.164701 
C 320.594168 193.47802 318.735935 197.145648 317.479048 201.03404 
C 316.222161 204.922431 315.582064 208.983811 315.582064 213.070295 
C 315.582064 217.156779 316.222161 221.218159 317.479048 225.10655 
C 318.735935 228.994942 320.594168 232.66257 322.986086 235.975889 
C 325.378004 239.289207 328.274218 242.207507 331.569271 244.624526 
C 334.864323 247.041546 338.517729 248.927587 342.39646 250.213977 
C 346.275191 251.500366 350.331591 252.171297 354.417957 252.202341 
C 358.504323 252.233385 362.570449 251.624159 366.468276 250.396848 
C 370.366103 249.169536 374.047742 247.339218 377.379136 244.97254 
C 380.71053 242.605861 383.650747 239.7319 386.092728 236.455304 
" style="fill:#fff2f2;opacity:0.4;"/>
   </g>
   <g id="text_21">
    <!-- 514 -->
    <g style="fill:#262626;" transform="translate(292.557406 215.82967)scale(0.1 -0.1)">
     <use xlink:href="#DejaVuSans-35"/>
     <use x="63.623047" xlink:href="#DejaVuSans-31"/>
     <use x="127.246094" xlink:href="#DejaVuSans-34"/>
    </g>
   </g>
   <g id="text_22">
    <!-- 10 -->
    <g style="fill:#262626;" transform="translate(386.413267 215.82967)scale(0.1 -0.1)">
     <use xlink:href="#DejaVuSans-31"/>
     <use x="63.623047" xlink:href="#DejaVuSans-30"/>
    </g>
   </g>
   <g id="text_23">
    <!-- 676 -->
    <g style="fill:#262626;" transform="translate(344.098841 215.82967)scale(0.1 -0.1)">
     <use xlink:href="#DejaVuSans-36"/>
     <use x="63.623047" xlink:href="#DejaVuSans-37"/>
     <use x="127.246094" xlink:href="#DejaVuSans-36"/>
    </g>
   </g>
   <g id="text_24">
    <!-- Bioregistry -->
    <g style="fill:#262626;" transform="translate(275.262307 278.263586)scale(0.12 -0.12)">
     <use xlink:href="#DejaVuSans-42"/>
     <use x="68.603516" xlink:href="#DejaVuSans-69"/>
     <use x="96.386719" xlink:href="#DejaVuSans-6f"/>
     <use x="157.568359" xlink:href="#DejaVuSans-72"/>
     <use x="196.431641" xlink:href="#DejaVuSans-65"/>
     <use x="257.955078" xlink:href="#DejaVuSans-67"/>
     <use x="321.431641" xlink:href="#DejaVuSans-69"/>
     <use x="349.214844" xlink:href="#DejaVuSans-73"/>
     <use x="401.314453" xlink:href="#DejaVuSans-74"/>
     <use x="440.523438" xlink:href="#DejaVuSans-72"/>
     <use x="481.636719" xlink:href="#DejaVuSans-79"/>
    </g>
   </g>
   <g id="text_25">
    <!-- N2T -->
    <g style="fill:#262626;" transform="translate(354.71524 265.855326)scale(0.12 -0.12)">
     <defs>
      <path d="M 628 4666 
L 1478 4666 
L 3547 763 
L 3547 4666 
L 4159 4666 
L 4159 0 
L 3309 0 
L 1241 3903 
L 1241 0 
L 628 0 
L 628 4666 
z
" id="DejaVuSans-4e" transform="scale(0.015625)"/>
      <path d="M -19 4666 
L 3928 4666 
L 3928 4134 
L 2272 4134 
L 2272 0 
L 1638 0 
L 1638 4134 
L -19 4134 
L -19 4666 
z
" id="DejaVuSans-54" transform="scale(0.015625)"/>
     </defs>
     <use xlink:href="#DejaVuSans-4e"/>
     <use x="74.804688" xlink:href="#DejaVuSans-32"/>
     <use x="138.427734" xlink:href="#DejaVuSans-54"/>
    </g>
   </g>
  </g>
  <g id="axes_6">
   <g id="patch_17">
    <path clip-path="url(#p5c91c82386)" d="M 602.057746 236.793407 
C 596.253363 236.102229 590.899777 233.30427 587.018515 228.933412 
C 583.137253 224.562554 580.991947 218.915686 580.991947 213.070295 
C 580.991947 207.224904 583.137253 201.578035 587.018515 197.207178 
C 590.899777 192.83632 596.253363 190.038361 602.057746 189.347183 
C 599.422683 184.308883 595.966488 179.744647 591.831353 175.842251 
C 587.696218 171.939856 582.939639 168.75356 577.757303 166.414451 
C 572.574968 164.075342 567.038933 162.615943 561.376955 162.096294 
C 555.714976 161.576646 550.00578 162.003973 544.484246 163.360695 
C 538.962713 164.717418 533.705614 166.984671 528.92923 170.06918 
C 524.152847 173.153688 519.923591 177.012564 516.415456 181.48705 
C 512.907322 185.961536 510.169087 190.989418 508.313405 196.363846 
C 506.457723 201.738274 505.510395 207.38452 505.510395 213.070295 
C 505.510395 218.75607 506.457723 224.402316 508.313405 229.776744 
C 510.169087 235.151172 512.907322 240.179054 516.415456 244.65354 
C 519.923591 249.128026 524.152847 252.986901 528.92923 256.07141 
C 533.705614 259.155918 538.962713 261.423172 544.484246 262.779895 
C 550.00578 264.136617 555.714976 264.563944 561.376955 264.044296 
C 567.038933 263.524647 572.574968 262.065248 577.757303 259.726139 
C 582.939639 257.38703 587.696218 254.200734 591.831353 250.298339 
C 595.966488 246.395943 599.422683 241.831707 602.057746 236.793407 
" style="fill:#c0c0c0;opacity:0.4;"/>
   </g>
   <g id="patch_18">
    <path clip-path="url(#p5c91c82386)" d="M 602.057746 189.347183 
C 605.886672 196.668174 607.886866 204.80848 607.886866 213.070295 
C 607.886866 221.33211 605.886672 229.472416 602.057746 236.793407 
C 605.409761 237.19256 608.808624 236.876771 612.029727 235.866909 
C 615.250829 234.857047 618.22162 233.175858 620.745777 230.93444 
C 623.269935 228.693023 625.290606 225.941863 626.674257 222.862766 
C 628.057908 219.78367 628.773373 216.445991 628.773373 213.070295 
C 628.773373 209.694599 628.057908 206.35692 626.674257 203.277824 
C 625.290606 200.198727 623.269935 197.447567 620.745777 195.20615 
C 618.22162 192.964732 615.250829 191.283543 612.029727 190.273681 
C 608.808624 189.263819 605.409761 188.94803 602.057746 189.347183 
" style="fill:#e31a1c;opacity:0.4;"/>
   </g>
   <g id="patch_19">
    <path clip-path="url(#p5c91c82386)" d="M 602.057746 236.793407 
C 605.886672 229.472416 607.886866 221.33211 607.886866 213.070295 
C 607.886866 204.80848 605.886672 196.668174 602.057746 189.347183 
C 596.253363 190.038361 590.899777 192.83632 587.018515 197.207178 
C 583.137253 201.578035 580.991947 207.224904 580.991947 213.070295 
C 580.991947 218.915686 583.137253 224.562554 587.018515 228.933412 
C 590.899777 233.30427 596.253363 236.102229 602.057746 236.793407 
" style="fill:#ff999a;opacity:0.4;"/>
   </g>
   <g id="text_26">
    <!-- 1052 -->
    <g style="fill:#262626;" transform="translate(530.526171 215.82967)scale(0.1 -0.1)">
     <use xlink:href="#DejaVuSans-31"/>
     <use x="63.623047" xlink:href="#DejaVuSans-30"/>
     <use x="127.246094" xlink:href="#DejaVuSans-35"/>
     <use x="190.869141" xlink:href="#DejaVuSans-32"/>
    </g>
   </g>
   <g id="text_27">
    <!-- 122 -->
    <g style="fill:#262626;" transform="translate(608.78637 215.82967)scale(0.1 -0.1)">
     <use xlink:href="#DejaVuSans-31"/>
     <use x="63.623047" xlink:href="#DejaVuSans-32"/>
     <use x="127.246094" xlink:href="#DejaVuSans-32"/>
    </g>
   </g>
   <g id="text_28">
    <!-- 137 -->
    <g style="fill:#262626;" transform="translate(584.895656 215.82967)scale(0.1 -0.1)">
     <use xlink:href="#DejaVuSans-31"/>
     <use x="63.623047" xlink:href="#DejaVuSans-33"/>
     <use x="127.246094" xlink:href="#DejaVuSans-37"/>
    </g>
   </g>
   <g id="text_29">
    <!-- Bioregistry -->
    <g style="fill:#262626;" transform="translate(491.799255 277.130603)scale(0.12 -0.12)">
     <use xlink:href="#DejaVuSans-42"/>
     <use x="68.603516" xlink:href="#DejaVuSans-69"/>
     <use x="96.386719" xlink:href="#DejaVuSans-6f"/>
     <use x="157.568359" xlink:href="#DejaVuSans-72"/>
     <use x="196.431641" xlink:href="#DejaVuSans-65"/>
     <use x="257.955078" xlink:href="#DejaVuSans-67"/>
     <use x="321.431641" xlink:href="#DejaVuSans-69"/>
     <use x="349.214844" xlink:href="#DejaVuSans-73"/>
     <use x="401.314453" xlink:href="#DejaVuSans-74"/>
     <use x="440.523438" xlink:href="#DejaVuSans-72"/>
     <use x="481.636719" xlink:href="#DejaVuSans-79"/>
    </g>
   </g>
   <g id="text_30">
    <!-- GO -->
    <g style="fill:#262626;" transform="translate(604.88266 249.833081)scale(0.12 -0.12)">
     <defs>
      <path d="M 3809 666 
L 3809 1919 
L 2778 1919 
L 2778 2438 
L 4434 2438 
L 4434 434 
Q 4069 175 3628 42 
Q 3188 -91 2688 -91 
Q 1594 -91 976 548 
Q 359 1188 359 2328 
Q 359 3472 976 4111 
Q 1594 4750 2688 4750 
Q 3144 4750 3555 4637 
Q 3966 4525 4313 4306 
L 4313 3634 
Q 3963 3931 3569 4081 
Q 3175 4231 2741 4231 
Q 1884 4231 1454 3753 
Q 1025 3275 1025 2328 
Q 1025 1384 1454 906 
Q 1884 428 2741 428 
Q 3075 428 3337 486 
Q 3600 544 3809 666 
z
" id="DejaVuSans-47" transform="scale(0.015625)"/>
     </defs>
     <use xlink:href="#DejaVuSans-47"/>
     <use x="77.490234" xlink:href="#DejaVuSans-4f"/>
    </g>
   </g>
  </g>
  <g id="axes_7">
   <g id="patch_20">
    <path clip-path="url(#p8fa865f577)" d="M 123.297548 391.50794 
C 117.102995 387.552323 112.003663 382.099126 108.471918 375.653493 
C 104.940173 369.207861 103.088539 361.975158 103.088539 354.625369 
C 103.088539 347.275579 104.940173 340.042876 108.471918 333.597244 
C 112.003663 327.151611 117.102995 321.698415 123.297548 317.742797 
C 116.156417 311.26483 107.285296 306.99817 97.76666 305.463443 
C 88.248024 303.928717 78.485451 305.190995 69.670192 309.096252 
C 60.854934 313.001509 53.360745 319.384166 48.102085 327.465398 
C 42.843424 335.546629 40.043252 344.983802 40.043252 354.625369 
C 40.043252 364.266936 42.843424 373.704108 48.102085 381.785339 
C 53.360745 389.866571 60.854934 396.249229 69.670192 400.154485 
C 78.485451 404.059742 88.248024 405.32202 97.76666 403.787294 
C 107.285296 402.252568 116.156417 397.985907 123.297548 391.50794 
" style="fill:#c0c0c0;opacity:0.4;"/>
   </g>
   <g id="patch_21">
    <path clip-path="url(#p8fa865f577)" d="M 123.297548 317.742797 
C 128.443058 322.410467 132.555295 328.103673 135.36921 334.455468 
C 138.183125 340.807262 139.636934 347.678182 139.636934 354.625369 
C 139.636934 361.572556 138.183125 368.443475 135.36921 374.79527 
C 132.555295 381.147064 128.443058 386.840271 123.297548 391.50794 
C 129.91106 395.731089 137.54031 398.09868 145.382782 398.361667 
C 153.225254 398.624654 160.995974 396.773481 167.877546 393.002872 
C 174.759118 389.232263 180.501485 383.679231 184.500611 376.927897 
C 188.499736 370.176562 190.610303 362.472249 190.610303 354.625369 
C 190.610303 346.778489 188.499736 339.074175 184.500611 332.322841 
C 180.501485 325.571506 174.759118 320.018474 167.877546 316.247865 
C 160.995974 312.477256 153.225254 310.626083 145.382782 310.889071 
C 137.54031 311.152058 129.91106 313.519648 123.297548 317.742797 
" style="fill:#fdbf6f;opacity:0.4;"/>
   </g>
   <g id="patch_22">
    <path clip-path="url(#p8fa865f577)" d="M 123.297548 391.50794 
C 128.443058 386.840271 132.555295 381.147064 135.36921 374.79527 
C 138.183125 368.443475 139.636934 361.572556 139.636934 354.625369 
C 139.636934 347.678182 138.183125 340.807262 135.36921 334.455468 
C 132.555295 328.103673 128.443058 322.410467 123.297548 317.742797 
C 117.102995 321.698415 112.003663 327.151611 108.471918 333.597244 
C 104.940173 340.042876 103.088539 347.275579 103.088539 354.625369 
C 103.088539 361.975158 104.940173 369.207861 108.471918 375.653493 
C 112.003663 382.099126 117.102995 387.552323 123.297548 391.50794 
" style="fill:#ffffd4;opacity:0.4;"/>
   </g>
   <g id="text_31">
    <!-- 902 -->
    <g style="fill:#262626;" transform="translate(62.022146 357.384744)scale(0.1 -0.1)">
     <use xlink:href="#DejaVuSans-39"/>
     <use x="63.623047" xlink:href="#DejaVuSans-30"/>
     <use x="127.246094" xlink:href="#DejaVuSans-32"/>
    </g>
   </g>
   <g id="text_32">
    <!-- 631 -->
    <g style="fill:#262626;" transform="translate(155.579869 357.384744)scale(0.1 -0.1)">
     <use xlink:href="#DejaVuSans-36"/>
     <use x="63.623047" xlink:href="#DejaVuSans-33"/>
     <use x="127.246094" xlink:href="#DejaVuSans-31"/>
    </g>
   </g>
   <g id="text_33">
    <!-- 288 -->
    <g style="fill:#262626;" transform="translate(111.818987 357.384744)scale(0.1 -0.1)">
     <use xlink:href="#DejaVuSans-32"/>
     <use x="63.623047" xlink:href="#DejaVuSans-38"/>
     <use x="127.246094" xlink:href="#DejaVuSans-38"/>
    </g>
   </g>
   <g id="text_34">
    <!-- Bioregistry -->
    <g style="fill:#262626;" transform="translate(24.940718 418.218221)scale(0.12 -0.12)">
     <use xlink:href="#DejaVuSans-42"/>
     <use x="68.603516" xlink:href="#DejaVuSans-69"/>
     <use x="96.386719" xlink:href="#DejaVuSans-6f"/>
     <use x="157.568359" xlink:href="#DejaVuSans-72"/>
     <use x="196.431641" xlink:href="#DejaVuSans-65"/>
     <use x="257.955078" xlink:href="#DejaVuSans-67"/>
     <use x="321.431641" xlink:href="#DejaVuSans-69"/>
     <use x="349.214844" xlink:href="#DejaVuSans-73"/>
     <use x="401.314453" xlink:href="#DejaVuSans-74"/>
     <use x="440.523438" xlink:href="#DejaVuSans-72"/>
     <use x="481.636719" xlink:href="#DejaVuSans-79"/>
    </g>
   </g>
   <g id="text_35">
    <!-- BioPortal -->
    <g style="fill:#262626;" transform="translate(146.849421 412.182262)scale(0.12 -0.12)">
     <defs>
      <path d="M 1259 4147 
L 1259 2394 
L 2053 2394 
Q 2494 2394 2734 2622 
Q 2975 2850 2975 3272 
Q 2975 3691 2734 3919 
Q 2494 4147 2053 4147 
L 1259 4147 
z
M 628 4666 
L 2053 4666 
Q 2838 4666 3239 4311 
Q 3641 3956 3641 3272 
Q 3641 2581 3239 2228 
Q 2838 1875 2053 1875 
L 1259 1875 
L 1259 0 
L 628 0 
L 628 4666 
z
" id="DejaVuSans-50" transform="scale(0.015625)"/>
      <path d="M 603 4863 
L 1178 4863 
L 1178 0 
L 603 0 
L 603 4863 
z
" id="DejaVuSans-6c" transform="scale(0.015625)"/>
     </defs>
     <use xlink:href="#DejaVuSans-42"/>
     <use x="68.603516" xlink:href="#DejaVuSans-69"/>
     <use x="96.386719" xlink:href="#DejaVuSans-6f"/>
     <use x="157.568359" xlink:href="#DejaVuSans-50"/>
     <use x="214.246094" xlink:href="#DejaVuSans-6f"/>
     <use x="275.427734" xlink:href="#DejaVuSans-72"/>
     <use x="316.541016" xlink:href="#DejaVuSans-74"/>
     <use x="355.75" xlink:href="#DejaVuSans-61"/>
     <use x="417.029297" xlink:href="#DejaVuSans-6c"/>
    </g>
   </g>
  </g>
  <g id="axes_8">
   <g id="patch_23">
    <path clip-path="url(#p688420b448)" d="M 359.897549 399.790772 
C 353.308694 400.941631 346.547116 400.636871 340.088511 398.897933 
C 333.629905 397.158994 327.629371 394.027636 322.509061 389.724158 
C 317.388752 385.42068 313.271627 380.048427 310.447339 373.985351 
C 307.623051 367.922276 306.159421 361.313978 306.159421 354.625369 
C 306.159421 347.93676 307.623051 341.328461 310.447339 335.265386 
C 313.271627 329.20231 317.388752 323.830057 322.509061 319.526579 
C 327.629371 315.223101 333.629905 312.091743 340.088511 310.352805 
C 346.547116 308.613866 353.308694 308.309106 359.897549 309.459965 
C 352.098193 305.299013 343.352417 303.22839 334.515328 303.450549 
C 325.67824 303.672709 317.047554 306.180166 309.467125 310.727756 
C 301.886696 315.275347 295.611903 321.709868 291.256256 329.40219 
C 286.900609 337.094512 284.610846 345.785488 284.610846 354.625369 
C 284.610846 363.465249 286.900609 372.156225 291.256256 379.848547 
C 295.611903 387.54087 301.886696 393.97539 309.467125 398.522981 
C 317.047554 403.070572 325.67824 405.578028 334.515328 405.800188 
C 343.352417 406.022347 352.098193 403.951724 359.897549 399.790772 
" style="fill:#c0c0c0;opacity:0.4;"/>
   </g>
   <g id="patch_24">
    <path clip-path="url(#p688420b448)" d="M 359.897549 309.459965 
C 368.081822 313.82627 374.92742 320.33612 379.699445 328.29066 
C 384.471471 336.245201 386.992821 345.34922 386.992821 354.625369 
C 386.992821 363.901518 384.471471 373.005536 379.699445 380.960077 
C 374.92742 388.914617 368.081822 395.424467 359.897549 399.790772 
C 370.52601 397.934325 380.165482 392.38448 387.107408 384.124926 
C 394.049334 375.865372 397.857816 365.414742 397.857816 354.625369 
C 397.857816 343.835996 394.049334 333.385365 387.107408 325.125811 
C 380.165482 316.866257 370.52601 311.316412 359.897549 309.459965 
" style="fill:#ff7f00;opacity:0.4;"/>
   </g>
   <g id="patch_25">
    <path clip-path="url(#p688420b448)" d="M 359.897549 399.790772 
C 368.081822 395.424467 374.92742 388.914617 379.699445 380.960077 
C 384.471471 373.005536 386.992821 363.901518 386.992821 354.625369 
C 386.992821 345.34922 384.471471 336.245201 379.699445 328.29066 
C 374.92742 320.33612 368.081822 313.82627 359.897549 309.459965 
C 353.308694 308.309106 346.547116 308.613866 340.088511 310.352805 
C 333.629905 312.091743 327.629371 315.223101 322.509061 319.526579 
C 317.388752 323.830057 313.271627 329.20231 310.447339 335.265386 
C 307.623051 341.328461 306.159421 347.93676 306.159421 354.625369 
C 306.159421 361.313978 307.623051 367.922276 310.447339 373.985351 
C 313.271627 380.048427 317.388752 385.42068 322.509061 389.724158 
C 327.629371 394.027636 333.629905 397.158994 340.088511 398.897933 
C 346.547116 400.636871 353.308694 400.941631 359.897549 399.790772 
" style="fill:#ffdf86;opacity:0.4;"/>
   </g>
   <g id="text_36">
    <!-- 356 -->
    <g style="fill:#262626;" transform="translate(285.841384 357.384744)scale(0.1 -0.1)">
     <use xlink:href="#DejaVuSans-33"/>
     <use x="63.623047" xlink:href="#DejaVuSans-35"/>
     <use x="127.246094" xlink:href="#DejaVuSans-36"/>
    </g>
   </g>
   <g id="text_37">
    <!-- 121 -->
    <g style="fill:#262626;" transform="translate(382.881569 357.384744)scale(0.1 -0.1)">
     <use xlink:href="#DejaVuSans-31"/>
     <use x="63.623047" xlink:href="#DejaVuSans-32"/>
     <use x="127.246094" xlink:href="#DejaVuSans-31"/>
    </g>
   </g>
   <g id="text_38">
    <!-- 832 -->
    <g style="fill:#262626;" transform="translate(337.032371 357.384744)scale(0.1 -0.1)">
     <use xlink:href="#DejaVuSans-38"/>
     <use x="63.623047" xlink:href="#DejaVuSans-33"/>
     <use x="127.246094" xlink:href="#DejaVuSans-32"/>
    </g>
   </g>
   <g id="text_39">
    <!-- Bioregistry -->
    <g style="fill:#262626;" transform="translate(270.902458 419.78649)scale(0.12 -0.12)">
     <use xlink:href="#DejaVuSans-42"/>
     <use x="68.603516" xlink:href="#DejaVuSans-69"/>
     <use x="96.386719" xlink:href="#DejaVuSans-6f"/>
     <use x="157.568359" xlink:href="#DejaVuSans-72"/>
     <use x="196.431641" xlink:href="#DejaVuSans-65"/>
     <use x="257.955078" xlink:href="#DejaVuSans-67"/>
     <use x="321.431641" xlink:href="#DejaVuSans-69"/>
     <use x="349.214844" xlink:href="#DejaVuSans-73"/>
     <use x="401.314453" xlink:href="#DejaVuSans-74"/>
     <use x="440.523438" xlink:href="#DejaVuSans-72"/>
     <use x="481.636719" xlink:href="#DejaVuSans-79"/>
    </g>
   </g>
   <g id="text_40">
    <!-- Prefix Commons -->
    <g style="fill:#262626;" transform="translate(352.008619 414.4447)scale(0.12 -0.12)">
     <defs>
      <path d="M 2375 4863 
L 2375 4384 
L 1825 4384 
Q 1516 4384 1395 4259 
Q 1275 4134 1275 3809 
L 1275 3500 
L 2222 3500 
L 2222 3053 
L 1275 3053 
L 1275 0 
L 697 0 
L 697 3053 
L 147 3053 
L 147 3500 
L 697 3500 
L 697 3744 
Q 697 4328 969 4595 
Q 1241 4863 1831 4863 
L 2375 4863 
z
" id="DejaVuSans-66" transform="scale(0.015625)"/>
      <path d="M 3513 3500 
L 2247 1797 
L 3578 0 
L 2900 0 
L 1881 1375 
L 863 0 
L 184 0 
L 1544 1831 
L 300 3500 
L 978 3500 
L 1906 2253 
L 2834 3500 
L 3513 3500 
z
" id="DejaVuSans-78" transform="scale(0.015625)"/>
      <path id="DejaVuSans-20" transform="scale(0.015625)"/>
      <path d="M 4122 4306 
L 4122 3641 
Q 3803 3938 3442 4084 
Q 3081 4231 2675 4231 
Q 1875 4231 1450 3742 
Q 1025 3253 1025 2328 
Q 1025 1406 1450 917 
Q 1875 428 2675 428 
Q 3081 428 3442 575 
Q 3803 722 4122 1019 
L 4122 359 
Q 3791 134 3420 21 
Q 3050 -91 2638 -91 
Q 1578 -91 968 557 
Q 359 1206 359 2328 
Q 359 3453 968 4101 
Q 1578 4750 2638 4750 
Q 3056 4750 3426 4639 
Q 3797 4528 4122 4306 
z
" id="DejaVuSans-43" transform="scale(0.015625)"/>
      <path d="M 3328 2828 
Q 3544 3216 3844 3400 
Q 4144 3584 4550 3584 
Q 5097 3584 5394 3201 
Q 5691 2819 5691 2113 
L 5691 0 
L 5113 0 
L 5113 2094 
Q 5113 2597 4934 2840 
Q 4756 3084 4391 3084 
Q 3944 3084 3684 2787 
Q 3425 2491 3425 1978 
L 3425 0 
L 2847 0 
L 2847 2094 
Q 2847 2600 2669 2842 
Q 2491 3084 2119 3084 
Q 1678 3084 1418 2786 
Q 1159 2488 1159 1978 
L 1159 0 
L 581 0 
L 581 3500 
L 1159 3500 
L 1159 2956 
Q 1356 3278 1631 3431 
Q 1906 3584 2284 3584 
Q 2666 3584 2933 3390 
Q 3200 3197 3328 2828 
z
" id="DejaVuSans-6d" transform="scale(0.015625)"/>
      <path d="M 3513 2113 
L 3513 0 
L 2938 0 
L 2938 2094 
Q 2938 2591 2744 2837 
Q 2550 3084 2163 3084 
Q 1697 3084 1428 2787 
Q 1159 2491 1159 1978 
L 1159 0 
L 581 0 
L 581 3500 
L 1159 3500 
L 1159 2956 
Q 1366 3272 1645 3428 
Q 1925 3584 2291 3584 
Q 2894 3584 3203 3211 
Q 3513 2838 3513 2113 
z
" id="DejaVuSans-6e" transform="scale(0.015625)"/>
     </defs>
     <use xlink:href="#DejaVuSans-50"/>
     <use x="58.552734" xlink:href="#DejaVuSans-72"/>
     <use x="97.416016" xlink:href="#DejaVuSans-65"/>
     <use x="158.939453" xlink:href="#DejaVuSans-66"/>
     <use x="194.144531" xlink:href="#DejaVuSans-69"/>
     <use x="221.927734" xlink:href="#DejaVuSans-78"/>
     <use x="281.107422" xlink:href="#DejaVuSans-20"/>
     <use x="312.894531" xlink:href="#DejaVuSans-43"/>
     <use x="382.71875" xlink:href="#DejaVuSans-6f"/>
     <use x="443.900391" xlink:href="#DejaVuSans-6d"/>
     <use x="541.3125" xlink:href="#DejaVuSans-6d"/>
     <use x="638.724609" xlink:href="#DejaVuSans-6f"/>
     <use x="699.90625" xlink:href="#DejaVuSans-6e"/>
     <use x="763.285156" xlink:href="#DejaVuSans-73"/>
    </g>
   </g>
  </g>
  <g id="axes_9">
   <g id="patch_26">
    <path clip-path="url(#p2ab03b2321)" d="M 609.845259 370.11278 
C 607.775329 370.170201 605.714737 369.812067 603.785567 369.059595 
C 601.856397 368.307124 600.097515 367.175475 598.613127 365.731694 
C 597.12874 364.287913 595.948752 362.561088 595.143074 360.653526 
C 594.337396 358.745963 593.922259 356.696096 593.922259 354.625369 
C 593.922259 352.554642 594.337396 350.504774 595.143074 348.597212 
C 595.948752 346.68965 597.12874 344.962824 598.613127 343.519043 
C 600.097515 342.075262 601.856397 340.943613 603.785567 340.191142 
C 605.714737 339.43867 607.775329 339.080536 609.845259 339.137957 
C 608.010579 333.328362 605.15808 327.890729 601.421023 323.079092 
C 597.683966 318.267454 593.121468 314.157927 587.946677 310.942496 
C 582.771887 307.727066 577.066663 305.456598 571.09754 304.237161 
C 565.128418 303.017725 558.989821 302.868611 552.96853 303.796786 
C 546.94724 304.724961 541.138505 306.715743 535.813697 309.676125 
C 530.488889 312.636508 525.732239 316.519663 521.765967 321.144177 
C 517.799695 325.768692 514.686543 331.061412 512.571949 336.775075 
C 510.457355 342.488738 509.37477 348.532959 509.37477 354.625369 
C 509.37477 360.717778 510.457355 366.761999 512.571949 372.475662 
C 514.686543 378.189325 517.799695 383.482045 521.765967 388.10656 
C 525.732239 392.731075 530.488889 396.614229 535.813697 399.574612 
C 541.138505 402.534995 546.94724 404.525776 552.96853 405.453951 
C 558.989821 406.382126 565.128418 406.233012 571.09754 405.013576 
C 577.066663 403.79414 582.771887 401.523671 587.946677 398.308241 
C 593.121468 395.09281 597.683966 390.983283 601.421023 386.171645 
C 605.15808 381.360008 608.010579 375.922375 609.845259 370.11278 
" style="fill:#c0c0c0;opacity:0.4;"/>
   </g>
   <g id="patch_27">
    <path clip-path="url(#p2ab03b2321)" d="M 609.845259 339.137957 
C 611.42748 344.148127 612.232626 349.371302 612.232626 354.625369 
C 612.232626 359.879435 611.42748 365.102611 609.845259 370.11278 
C 613.876969 370.000937 617.709828 368.319087 620.521954 365.42787 
C 623.334079 362.536652 624.908997 358.658629 624.908997 354.625369 
C 624.908997 350.592108 623.334079 346.714086 620.521954 343.822868 
C 617.709828 340.93165 613.876969 339.2498 609.845259 339.137957 
" style="fill:#cab2d6;opacity:0.4;"/>
   </g>
   <g id="patch_28">
    <path clip-path="url(#p2ab03b2321)" d="M 609.845259 370.11278 
C 611.42748 365.102611 612.232626 359.879435 612.232626 354.625369 
C 612.232626 349.371302 611.42748 344.148127 609.845259 339.137957 
C 607.775329 339.080536 605.714737 339.43867 603.785567 340.191142 
C 601.856397 340.943613 600.097515 342.075262 598.613127 343.519043 
C 597.12874 344.962824 595.948752 346.68965 595.143074 348.597212 
C 594.337396 350.504774 593.922259 352.554642 593.922259 354.625369 
C 593.922259 356.696096 594.337396 358.745963 595.143074 360.653526 
C 595.948752 362.561088 597.12874 364.287913 598.613127 365.731694 
C 600.097515 367.175475 601.856397 368.307124 603.785567 369.059595 
C 605.714737 369.812067 607.775329 370.170201 609.845259 370.11278 
" style="fill:#ffffff;opacity:0.4;"/>
   </g>
   <g id="text_41">
    <!-- 1127 -->
    <g style="fill:#262626;" transform="translate(538.923515 357.384744)scale(0.1 -0.1)">
     <use xlink:href="#DejaVuSans-31"/>
     <use x="63.623047" xlink:href="#DejaVuSans-31"/>
     <use x="127.246094" xlink:href="#DejaVuSans-32"/>
     <use x="190.869141" xlink:href="#DejaVuSans-37"/>
    </g>
   </g>
   <g id="text_42">
    <!-- 45 -->
    <g style="fill:#262626;" transform="translate(612.208312 357.384744)scale(0.1 -0.1)">
     <use xlink:href="#DejaVuSans-34"/>
     <use x="63.623047" xlink:href="#DejaVuSans-35"/>
    </g>
   </g>
   <g id="text_43">
    <!-- 63 -->
    <g style="fill:#262626;" transform="translate(596.714943 357.384744)scale(0.1 -0.1)">
     <use xlink:href="#DejaVuSans-36"/>
     <use x="63.623047" xlink:href="#DejaVuSans-33"/>
    </g>
   </g>
   <g id="text_44">
    <!-- Bioregistry -->
    <g style="fill:#262626;" transform="translate(495.904323 418.518536)scale(0.12 -0.12)">
     <use xlink:href="#DejaVuSans-42"/>
     <use x="68.603516" xlink:href="#DejaVuSans-69"/>
     <use x="96.386719" xlink:href="#DejaVuSans-6f"/>
     <use x="157.568359" xlink:href="#DejaVuSans-72"/>
     <use x="196.431641" xlink:href="#DejaVuSans-65"/>
     <use x="257.955078" xlink:href="#DejaVuSans-67"/>
     <use x="321.431641" xlink:href="#DejaVuSans-69"/>
     <use x="349.214844" xlink:href="#DejaVuSans-73"/>
     <use x="401.314453" xlink:href="#DejaVuSans-74"/>
     <use x="440.523438" xlink:href="#DejaVuSans-72"/>
     <use x="481.636719" xlink:href="#DejaVuSans-79"/>
    </g>
   </g>
   <g id="text_45">
    <!-- Biolink -->
    <g style="fill:#262626;" transform="translate(609.415628 382.582978)scale(0.12 -0.12)">
     <use xlink:href="#DejaVuSans-42"/>
     <use x="68.603516" xlink:href="#DejaVuSans-69"/>
     <use x="96.386719" xlink:href="#DejaVuSans-6f"/>
     <use x="157.568359" xlink:href="#DejaVuSans-6c"/>
     <use x="185.351562" xlink:href="#DejaVuSans-69"/>
     <use x="213.134766" xlink:href="#DejaVuSans-6e"/>
     <use x="276.513672" xlink:href="#DejaVuSans-6b"/>
    </g>
   </g>
  </g>
  <g id="axes_10">
   <g id="patch_29">
    <path clip-path="url(#pfaa271e3af)" d="M 156.75822 512.829928 
C 152.429995 512.700825 148.318238 510.88892 145.30235 507.781731 
C 142.286461 504.674543 140.597952 500.510593 140.597952 496.180442 
C 140.597952 491.850292 142.286461 487.686341 145.30235 484.579153 
C 148.318238 481.471965 152.429995 479.660059 156.75822 479.530957 
C 154.80267 473.820056 151.856171 468.498089 148.054074 463.809527 
C 144.251977 459.120964 139.653405 455.138713 134.469599 452.045703 
C 129.285792 448.952692 123.59736 446.797019 117.665606 445.677707 
C 111.733853 444.558394 105.651017 444.492848 99.696521 445.484078 
C 93.742025 446.475309 88.008461 448.507902 82.759208 451.48849 
C 77.509955 454.469077 72.826638 458.35131 68.924391 462.956853 
C 65.022144 467.562397 61.961647 472.819634 59.883488 478.487069 
C 57.805329 484.154504 56.741822 490.144006 56.741822 496.180442 
C 56.741822 502.216878 57.805329 508.206381 59.883488 513.873816 
C 61.961647 519.54125 65.022144 524.798488 68.924391 529.404031 
C 72.826638 534.009575 77.509955 537.891807 82.759208 540.872395 
C 88.008461 543.852982 93.742025 545.885576 99.696521 546.876806 
C 105.651017 547.868037 111.733853 547.80249 117.665606 546.683178 
C 123.59736 545.563865 129.285792 543.408192 134.469599 540.315182 
C 139.653405 537.222172 144.251977 533.239921 148.054074 528.551358 
C 151.856171 523.862795 154.80267 518.540828 156.75822 512.829928 
" style="fill:#c0c0c0;opacity:0.4;"/>
   </g>
   <g id="patch_30">
    <path clip-path="url(#pfaa271e3af)" d="M 156.75822 479.530957 
C 158.593305 484.890055 159.52982 490.515862 159.52982 496.180442 
C 159.52982 501.845023 158.593305 507.470829 156.75822 512.829928 
C 158.986388 512.89639 161.205393 512.514894 163.283428 511.7081 
C 165.361463 510.901307 167.256554 509.685513 168.856132 508.132936 
C 170.45571 506.580358 171.727466 504.722359 172.595857 502.669302 
C 173.464248 500.616245 173.911734 498.409601 173.911734 496.180442 
C 173.911734 493.951284 173.464248 491.74464 172.595857 489.691582 
C 171.727466 487.638525 170.45571 485.780526 168.856132 484.227949 
C 167.256554 482.675372 165.361463 481.459578 163.283428 480.652784 
C 161.205393 479.845991 158.986388 479.464495 156.75822 479.530957 
" style="fill:#6a3d9a;opacity:0.4;"/>
   </g>
   <g id="patch_31">
    <path clip-path="url(#pfaa271e3af)" d="M 156.75822 512.829928 
C 158.593305 507.470829 159.52982 501.845023 159.52982 496.180442 
C 159.52982 490.515862 158.593305 484.890055 156.75822 479.530957 
C 152.429995 479.660059 148.318238 481.471965 145.30235 484.579153 
C 142.286461 487.686341 140.597952 491.850292 140.597952 496.180442 
C 140.597952 500.510593 142.286461 504.674543 145.30235 507.781731 
C 148.318238 510.88892 152.429995 512.700825 156.75822 512.829928 
" style="fill:#d1b1f2;opacity:0.4;"/>
   </g>
   <g id="text_46">
    <!-- 1121 -->
    <g style="fill:#262626;" transform="translate(85.944887 498.939817)scale(0.1 -0.1)">
     <use xlink:href="#DejaVuSans-31"/>
     <use x="63.623047" xlink:href="#DejaVuSans-31"/>
     <use x="127.246094" xlink:href="#DejaVuSans-32"/>
     <use x="190.869141" xlink:href="#DejaVuSans-31"/>
    </g>
   </g>
   <g id="text_47">
    <!-- 56 -->
    <g style="fill:#262626;" transform="translate(160.358277 498.939817)scale(0.1 -0.1)">
     <use xlink:href="#DejaVuSans-35"/>
     <use x="63.623047" xlink:href="#DejaVuSans-36"/>
    </g>
   </g>
   <g id="text_48">
    <!-- 69 -->
    <g style="fill:#262626;" transform="translate(143.701386 498.939817)scale(0.1 -0.1)">
     <use xlink:href="#DejaVuSans-36"/>
     <use x="63.623047" xlink:href="#DejaVuSans-39"/>
    </g>
   </g>
   <g id="text_49">
    <!-- Bioregistry -->
    <g style="fill:#262626;" transform="translate(43.236446 560.09511)scale(0.12 -0.12)">
     <use xlink:href="#DejaVuSans-42"/>
     <use x="68.603516" xlink:href="#DejaVuSans-69"/>
     <use x="96.386719" xlink:href="#DejaVuSans-6f"/>
     <use x="157.568359" xlink:href="#DejaVuSans-72"/>
     <use x="196.431641" xlink:href="#DejaVuSans-65"/>
     <use x="257.955078" xlink:href="#DejaVuSans-67"/>
     <use x="321.431641" xlink:href="#DejaVuSans-69"/>
     <use x="349.214844" xlink:href="#DejaVuSans-73"/>
     <use x="401.314453" xlink:href="#DejaVuSans-74"/>
     <use x="440.523438" xlink:href="#DejaVuSans-72"/>
     <use x="481.636719" xlink:href="#DejaVuSans-79"/>
    </g>
   </g>
   <g id="text_50">
    <!-- NCBI -->
    <g style="fill:#262626;" transform="translate(157.254843 525.358002)scale(0.12 -0.12)">
     <use xlink:href="#DejaVuSans-4e"/>
     <use x="74.804688" xlink:href="#DejaVuSans-43"/>
     <use x="144.628906" xlink:href="#DejaVuSans-42"/>
     <use x="213.232422" xlink:href="#DejaVuSans-49"/>
    </g>
   </g>
  </g>
  <g id="axes_11">
   <g id="patch_32">
    <path clip-path="url(#p7c8a79a107)" d="M 379.235214 516.015462 
C 374.419062 515.389029 369.992133 513.029427 366.787033 509.380444 
C 363.581933 505.731461 361.813038 501.037163 361.813038 496.180442 
C 361.813038 491.323721 363.581933 486.629423 366.787033 482.980441 
C 369.992133 479.331458 374.419062 476.971856 379.235214 476.345423 
C 376.961454 470.923655 373.772257 465.933011 369.807259 461.592003 
C 365.842261 457.250995 361.160187 453.623918 355.966039 450.869579 
C 350.771891 448.11524 345.142598 446.274434 339.324635 445.42776 
C 333.506671 444.581086 327.586206 444.741082 321.822463 445.900745 
C 316.058719 447.060408 310.537063 449.202561 305.499256 452.233413 
C 300.461449 455.264264 295.982106 459.138923 292.25735 463.687742 
C 288.532594 468.23656 285.617593 473.392166 283.639978 478.928825 
C 281.662363 484.465485 280.651424 490.301194 280.651424 496.180442 
C 280.651424 502.05969 281.662363 507.8954 283.639978 513.432059 
C 285.617593 518.968718 288.532594 524.124324 292.25735 528.673143 
C 295.982106 533.221962 300.461449 537.096621 305.499256 540.127472 
C 310.537063 543.158323 316.058719 545.300476 321.822463 546.460139 
C 327.586206 547.619802 333.506671 547.779799 339.324635 546.933125 
C 345.142598 546.08645 350.771891 544.245644 355.966039 541.491306 
C 361.160187 538.736967 365.842261 535.109889 369.807259 530.768881 
C 373.772257 526.427874 376.961454 521.43723 379.235214 516.015462 
" style="fill:#c0c0c0;opacity:0.4;"/>
   </g>
   <g id="patch_33">
    <path clip-path="url(#p7c8a79a107)" d="M 379.235214 476.345423 
C 381.869287 482.626357 383.226012 489.369533 383.226012 496.180442 
C 383.226012 502.991351 381.869287 509.734527 379.235214 516.015462 
C 382.055939 516.382351 384.922747 516.143355 387.643784 515.314467 
C 390.364822 514.485579 392.878003 513.085711 395.01514 511.208548 
C 397.152277 509.331384 398.864608 507.019754 400.037539 504.428359 
C 401.21047 501.836963 401.817238 499.024928 401.817238 496.180442 
C 401.817238 493.335957 401.21047 490.523922 400.037539 487.932526 
C 398.864608 485.34113 397.152277 483.0295 395.01514 481.152337 
C 392.878003 479.275173 390.364822 477.875306 387.643784 477.046418 
C 384.922747 476.21753 382.055939 475.978534 379.235214 476.345423 
" style="fill:#ffff99;opacity:0.4;"/>
   </g>
   <g id="patch_34">
    <path clip-path="url(#p7c8a79a107)" d="M 379.235214 516.015462 
C 381.869287 509.734527 383.226012 502.991351 383.226012 496.180442 
C 383.226012 489.369533 381.869287 482.626357 379.235214 476.345423 
C 374.419062 476.971856 369.992133 479.331458 366.787033 482.980441 
C 363.581933 486.629423 361.813038 491.323721 361.813038 496.180442 
C 361.813038 501.037163 363.581933 505.731461 366.787033 509.380444 
C 369.992133 513.029427 374.419062 515.389029 379.235214 516.015462 
" style="fill:#fffff2;opacity:0.4;"/>
   </g>
   <g id="text_51">
    <!-- 1099 -->
    <g style="fill:#262626;" transform="translate(308.507231 498.939817)scale(0.1 -0.1)">
     <use xlink:href="#DejaVuSans-31"/>
     <use x="63.623047" xlink:href="#DejaVuSans-30"/>
     <use x="127.246094" xlink:href="#DejaVuSans-39"/>
     <use x="190.869141" xlink:href="#DejaVuSans-39"/>
    </g>
   </g>
   <g id="text_52">
    <!-- 90 -->
    <g style="fill:#262626;" transform="translate(386.159125 498.939817)scale(0.1 -0.1)">
     <use xlink:href="#DejaVuSans-39"/>
     <use x="63.623047" xlink:href="#DejaVuSans-30"/>
    </g>
   </g>
   <g id="text_53">
    <!-- 91 -->
    <g style="fill:#262626;" transform="translate(366.157025 498.939817)scale(0.1 -0.1)">
     <use xlink:href="#DejaVuSans-39"/>
     <use x="63.623047" xlink:href="#DejaVuSans-31"/>
    </g>
   </g>
   <g id="text_54">
    <!-- Bioregistry -->
    <g style="fill:#262626;" transform="translate(267.039343 560.150331)scale(0.12 -0.12)">
     <use xlink:href="#DejaVuSans-42"/>
     <use x="68.603516" xlink:href="#DejaVuSans-69"/>
     <use x="96.386719" xlink:href="#DejaVuSans-6f"/>
     <use x="157.568359" xlink:href="#DejaVuSans-72"/>
     <use x="196.431641" xlink:href="#DejaVuSans-65"/>
     <use x="257.955078" xlink:href="#DejaVuSans-67"/>
     <use x="321.431641" xlink:href="#DejaVuSans-69"/>
     <use x="349.214844" xlink:href="#DejaVuSans-73"/>
     <use x="401.314453" xlink:href="#DejaVuSans-74"/>
     <use x="440.523438" xlink:href="#DejaVuSans-72"/>
     <use x="481.636719" xlink:href="#DejaVuSans-79"/>
    </g>
   </g>
   <g id="text_55">
    <!-- UniProt -->
    <g style="fill:#262626;" transform="translate(381.815138 528.865137)scale(0.12 -0.12)">
     <defs>
      <path d="M 556 4666 
L 1191 4666 
L 1191 1831 
Q 1191 1081 1462 751 
Q 1734 422 2344 422 
Q 2950 422 3222 751 
Q 3494 1081 3494 1831 
L 3494 4666 
L 4128 4666 
L 4128 1753 
Q 4128 841 3676 375 
Q 3225 -91 2344 -91 
Q 1459 -91 1007 375 
Q 556 841 556 1753 
L 556 4666 
z
" id="DejaVuSans-55" transform="scale(0.015625)"/>
     </defs>
     <use xlink:href="#DejaVuSans-55"/>
     <use x="73.193359" xlink:href="#DejaVuSans-6e"/>
     <use x="136.572266" xlink:href="#DejaVuSans-69"/>
     <use x="164.355469" xlink:href="#DejaVuSans-50"/>
     <use x="222.908203" xlink:href="#DejaVuSans-72"/>
     <use x="261.771484" xlink:href="#DejaVuSans-6f"/>
     <use x="322.953125" xlink:href="#DejaVuSans-74"/>
    </g>
   </g>
  </g>
  <g id="axes_12">
   <g id="patch_35">
    <path clip-path="url(#p22254ae9a1)" d="M 607.779552 511.487395 
C 604.303806 510.706318 601.195647 508.764206 598.969848 505.982712 
C 596.744048 503.201217 595.530669 499.74287 595.530669 496.180442 
C 595.530669 492.618014 596.744048 489.159667 598.969848 486.378173 
C 601.195647 483.596678 604.303806 481.654566 607.779552 480.873489 
C 605.964121 475.057837 603.128462 469.611262 599.405358 464.788804 
C 595.682254 459.966347 591.130739 455.844472 585.963941 452.61619 
C 580.797143 449.387908 575.096988 447.104407 569.13039 445.872615 
C 563.163793 444.640822 557.025359 444.480268 551.002527 445.398472 
C 544.979695 446.316676 539.167964 448.299079 533.839472 451.252851 
C 528.51098 454.206624 523.750216 458.084932 519.780108 462.706171 
C 515.81 467.327409 512.693498 472.618303 510.576534 478.331101 
C 508.459571 484.0439 507.375713 490.088021 507.375713 496.180442 
C 507.375713 502.272864 508.459571 508.316985 510.576534 514.029783 
C 512.693498 519.742582 515.81 525.033475 519.780108 529.654714 
C 523.750216 534.275952 528.51098 538.15426 533.839472 541.108033 
C 539.167964 544.061806 544.979695 546.044208 551.002527 546.962412 
C 557.025359 547.880616 563.163793 547.720063 569.13039 546.48827 
C 575.096988 545.256477 580.797143 542.972976 585.963941 539.744694 
C 591.130739 536.516413 595.682254 532.394538 599.405358 527.57208 
C 603.128462 522.749622 605.964121 517.303047 607.779552 511.487395 
" style="fill:#c0c0c0;opacity:0.4;"/>
   </g>
   <g id="patch_36">
    <path clip-path="url(#p22254ae9a1)" d="M 607.779552 480.873489 
C 609.32634 485.828551 610.113157 490.989567 610.113157 496.180442 
C 610.113157 501.371317 609.32634 506.532334 607.779552 511.487395 
C 610.074707 512.003167 612.456747 511.996185 614.748839 511.466969 
C 617.040931 510.937752 619.184915 509.899728 621.021632 508.429957 
C 622.858348 506.960185 624.341191 505.095959 625.360082 502.975672 
C 626.378972 500.855385 626.908055 498.532836 626.908055 496.180442 
C 626.908055 493.828049 626.378972 491.5055 625.360082 489.385212 
C 624.341191 487.264925 622.858348 485.400699 621.021632 483.930928 
C 619.184915 482.461156 617.040931 481.423133 614.748839 480.893916 
C 612.456747 480.364699 610.074707 480.357718 607.779552 480.873489 
" style="fill:#b15928;opacity:0.4;"/>
   </g>
   <g id="patch_37">
    <path clip-path="url(#p22254ae9a1)" d="M 607.779552 511.487395 
C 609.32634 506.532334 610.113157 501.371317 610.113157 496.180442 
C 610.113157 490.989567 609.32634 485.828551 607.779552 480.873489 
C 604.303806 481.654566 601.195647 483.596678 598.969848 486.378173 
C 596.744048 489.159667 595.530669 492.618014 595.530669 496.180442 
C 595.530669 499.74287 596.744048 503.201217 598.969848 505.982712 
C 601.195647 508.764206 604.303806 510.706318 607.779552 511.487395 
" style="fill:#ffc5a2;opacity:0.4;"/>
   </g>
   <g id="text_56">
    <!-- 1143 -->
    <g style="fill:#262626;" transform="translate(538.728191 498.939817)scale(0.1 -0.1)">
     <use xlink:href="#DejaVuSans-31"/>
     <use x="63.623047" xlink:href="#DejaVuSans-31"/>
     <use x="127.246094" xlink:href="#DejaVuSans-34"/>
     <use x="190.869141" xlink:href="#DejaVuSans-33"/>
    </g>
   </g>
   <g id="text_57">
    <!-- 64 -->
    <g style="fill:#262626;" transform="translate(612.148106 498.939817)scale(0.1 -0.1)">
     <use xlink:href="#DejaVuSans-36"/>
     <use x="63.623047" xlink:href="#DejaVuSans-34"/>
    </g>
   </g>
   <g id="text_58">
    <!-- 47 -->
    <g style="fill:#262626;" transform="translate(596.459413 498.939817)scale(0.1 -0.1)">
     <use xlink:href="#DejaVuSans-34"/>
     <use x="63.623047" xlink:href="#DejaVuSans-37"/>
    </g>
   </g>
   <g id="text_59">
    <!-- Bioregistry -->
    <g style="fill:#262626;" transform="translate(493.84506 560.02016)scale(0.12 -0.12)">
     <use xlink:href="#DejaVuSans-42"/>
     <use x="68.603516" xlink:href="#DejaVuSans-69"/>
     <use x="96.386719" xlink:href="#DejaVuSans-6f"/>
     <use x="157.568359" xlink:href="#DejaVuSans-72"/>
     <use x="196.431641" xlink:href="#DejaVuSans-65"/>
     <use x="257.955078" xlink:href="#DejaVuSans-67"/>
     <use x="321.431641" xlink:href="#DejaVuSans-69"/>
     <use x="349.214844" xlink:href="#DejaVuSans-73"/>
     <use x="401.314453" xlink:href="#DejaVuSans-74"/>
     <use x="440.523438" xlink:href="#DejaVuSans-72"/>
     <use x="481.636719" xlink:href="#DejaVuSans-79"/>
    </g>
   </g>
   <g id="text_60">
    <!-- Cellosaurus -->
    <g style="fill:#262626;" transform="translate(611.219362 524.340131)scale(0.12 -0.12)">
     <defs>
      <path d="M 544 1381 
L 544 3500 
L 1119 3500 
L 1119 1403 
Q 1119 906 1312 657 
Q 1506 409 1894 409 
Q 2359 409 2629 706 
Q 2900 1003 2900 1516 
L 2900 3500 
L 3475 3500 
L 3475 0 
L 2900 0 
L 2900 538 
Q 2691 219 2414 64 
Q 2138 -91 1772 -91 
Q 1169 -91 856 284 
Q 544 659 544 1381 
z
M 1991 3584 
L 1991 3584 
z
" id="DejaVuSans-75" transform="scale(0.015625)"/>
     </defs>
     <use xlink:href="#DejaVuSans-43"/>
     <use x="69.824219" xlink:href="#DejaVuSans-65"/>
     <use x="131.347656" xlink:href="#DejaVuSans-6c"/>
     <use x="159.130859" xlink:href="#DejaVuSans-6c"/>
     <use x="186.914062" xlink:href="#DejaVuSans-6f"/>
     <use x="248.095703" xlink:href="#DejaVuSans-73"/>
     <use x="300.195312" xlink:href="#DejaVuSans-61"/>
     <use x="361.474609" xlink:href="#DejaVuSans-75"/>
     <use x="424.853516" xlink:href="#DejaVuSans-72"/>
     <use x="465.966797" xlink:href="#DejaVuSans-75"/>
     <use x="529.345703" xlink:href="#DejaVuSans-73"/>
    </g>
   </g>
  </g>
  <g id="text_61">
   <!-- https://github.com/biopragmatics/bioregistry (2021-09-24) -->
   <g style="fill:#808080;opacity:0.5;" transform="translate(233.67625 574.33625)scale(0.08 -0.08)">
    <defs>
     <path d="M 3513 2113 
L 3513 0 
L 2938 0 
L 2938 2094 
Q 2938 2591 2744 2837 
Q 2550 3084 2163 3084 
Q 1697 3084 1428 2787 
Q 1159 2491 1159 1978 
L 1159 0 
L 581 0 
L 581 4863 
L 1159 4863 
L 1159 2956 
Q 1366 3272 1645 3428 
Q 1925 3584 2291 3584 
Q 2894 3584 3203 3211 
Q 3513 2838 3513 2113 
z
" id="DejaVuSans-68" transform="scale(0.015625)"/>
     <path d="M 1159 525 
L 1159 -1331 
L 581 -1331 
L 581 3500 
L 1159 3500 
L 1159 2969 
Q 1341 3281 1617 3432 
Q 1894 3584 2278 3584 
Q 2916 3584 3314 3078 
Q 3713 2572 3713 1747 
Q 3713 922 3314 415 
Q 2916 -91 2278 -91 
Q 1894 -91 1617 61 
Q 1341 213 1159 525 
z
M 3116 1747 
Q 3116 2381 2855 2742 
Q 2594 3103 2138 3103 
Q 1681 3103 1420 2742 
Q 1159 2381 1159 1747 
Q 1159 1113 1420 752 
Q 1681 391 2138 391 
Q 2594 391 2855 752 
Q 3116 1113 3116 1747 
z
" id="DejaVuSans-70" transform="scale(0.015625)"/>
     <path d="M 750 794 
L 1409 794 
L 1409 0 
L 750 0 
L 750 794 
z
M 750 3309 
L 1409 3309 
L 1409 2516 
L 750 2516 
L 750 3309 
z
" id="DejaVuSans-3a" transform="scale(0.015625)"/>
     <path d="M 1625 4666 
L 2156 4666 
L 531 -594 
L 0 -594 
L 1625 4666 
z
" id="DejaVuSans-2f" transform="scale(0.015625)"/>
     <path d="M 3116 1747 
Q 3116 2381 2855 2742 
Q 2594 3103 2138 3103 
Q 1681 3103 1420 2742 
Q 1159 2381 1159 1747 
Q 1159 1113 1420 752 
Q 1681 391 2138 391 
Q 2594 391 2855 752 
Q 3116 1113 3116 1747 
z
M 1159 2969 
Q 1341 3281 1617 3432 
Q 1894 3584 2278 3584 
Q 2916 3584 3314 3078 
Q 3713 2572 3713 1747 
Q 3713 922 3314 415 
Q 2916 -91 2278 -91 
Q 1894 -91 1617 61 
Q 1341 213 1159 525 
L 1159 0 
L 581 0 
L 581 4863 
L 1159 4863 
L 1159 2969 
z
" id="DejaVuSans-62" transform="scale(0.015625)"/>
     <path d="M 684 794 
L 1344 794 
L 1344 0 
L 684 0 
L 684 794 
z
" id="DejaVuSans-2e" transform="scale(0.015625)"/>
     <path d="M 3122 3366 
L 3122 2828 
Q 2878 2963 2633 3030 
Q 2388 3097 2138 3097 
Q 1578 3097 1268 2742 
Q 959 2388 959 1747 
Q 959 1106 1268 751 
Q 1578 397 2138 397 
Q 2388 397 2633 464 
Q 2878 531 3122 666 
L 3122 134 
Q 2881 22 2623 -34 
Q 2366 -91 2075 -91 
Q 1284 -91 818 406 
Q 353 903 353 1747 
Q 353 2603 823 3093 
Q 1294 3584 2113 3584 
Q 2378 3584 2631 3529 
Q 2884 3475 3122 3366 
z
" id="DejaVuSans-63" transform="scale(0.015625)"/>
     <path d="M 1984 4856 
Q 1566 4138 1362 3434 
Q 1159 2731 1159 2009 
Q 1159 1288 1364 580 
Q 1569 -128 1984 -844 
L 1484 -844 
Q 1016 -109 783 600 
Q 550 1309 550 2009 
Q 550 2706 781 3412 
Q 1013 4119 1484 4856 
L 1984 4856 
z
" id="DejaVuSans-28" transform="scale(0.015625)"/>
     <path d="M 313 2009 
L 1997 2009 
L 1997 1497 
L 313 1497 
L 313 2009 
z
" id="DejaVuSans-2d" transform="scale(0.015625)"/>
     <path d="M 513 4856 
L 1013 4856 
Q 1481 4119 1714 3412 
Q 1947 2706 1947 2009 
Q 1947 1309 1714 600 
Q 1481 -109 1013 -844 
L 513 -844 
Q 928 -128 1133 580 
Q 1338 1288 1338 2009 
Q 1338 2731 1133 3434 
Q 928 4138 513 4856 
z
" id="DejaVuSans-29" transform="scale(0.015625)"/>
    </defs>
    <use xlink:href="#DejaVuSans-68"/>
    <use x="63.378906" xlink:href="#DejaVuSans-74"/>
    <use x="102.587891" xlink:href="#DejaVuSans-74"/>
    <use x="141.796875" xlink:href="#DejaVuSans-70"/>
    <use x="205.273438" xlink:href="#DejaVuSans-73"/>
    <use x="257.373047" xlink:href="#DejaVuSans-3a"/>
    <use x="291.064453" xlink:href="#DejaVuSans-2f"/>
    <use x="324.755859" xlink:href="#DejaVuSans-2f"/>
    <use x="358.447266" xlink:href="#DejaVuSans-67"/>
    <use x="421.923828" xlink:href="#DejaVuSans-69"/>
    <use x="449.707031" xlink:href="#DejaVuSans-74"/>
    <use x="488.916016" xlink:href="#DejaVuSans-68"/>
    <use x="552.294922" xlink:href="#DejaVuSans-75"/>
    <use x="615.673828" xlink:href="#DejaVuSans-62"/>
    <use x="679.150391" xlink:href="#DejaVuSans-2e"/>
    <use x="710.9375" xlink:href="#DejaVuSans-63"/>
    <use x="765.917969" xlink:href="#DejaVuSans-6f"/>
    <use x="827.099609" xlink:href="#DejaVuSans-6d"/>
    <use x="924.511719" xlink:href="#DejaVuSans-2f"/>
    <use x="958.203125" xlink:href="#DejaVuSans-62"/>
    <use x="1021.679688" xlink:href="#DejaVuSans-69"/>
    <use x="1049.462891" xlink:href="#DejaVuSans-6f"/>
    <use x="1110.644531" xlink:href="#DejaVuSans-70"/>
    <use x="1174.121094" xlink:href="#DejaVuSans-72"/>
    <use x="1215.234375" xlink:href="#DejaVuSans-61"/>
    <use x="1276.513672" xlink:href="#DejaVuSans-67"/>
    <use x="1339.990234" xlink:href="#DejaVuSans-6d"/>
    <use x="1437.402344" xlink:href="#DejaVuSans-61"/>
    <use x="1498.681641" xlink:href="#DejaVuSans-74"/>
    <use x="1537.890625" xlink:href="#DejaVuSans-69"/>
    <use x="1565.673828" xlink:href="#DejaVuSans-63"/>
    <use x="1620.654297" xlink:href="#DejaVuSans-73"/>
    <use x="1672.753906" xlink:href="#DejaVuSans-2f"/>
    <use x="1706.445312" xlink:href="#DejaVuSans-62"/>
    <use x="1769.921875" xlink:href="#DejaVuSans-69"/>
    <use x="1797.705078" xlink:href="#DejaVuSans-6f"/>
    <use x="1858.886719" xlink:href="#DejaVuSans-72"/>
    <use x="1897.75" xlink:href="#DejaVuSans-65"/>
    <use x="1959.273438" xlink:href="#DejaVuSans-67"/>
    <use x="2022.75" xlink:href="#DejaVuSans-69"/>
    <use x="2050.533203" xlink:href="#DejaVuSans-73"/>
    <use x="2102.632812" xlink:href="#DejaVuSans-74"/>
    <use x="2141.841797" xlink:href="#DejaVuSans-72"/>
    <use x="2182.955078" xlink:href="#DejaVuSans-79"/>
    <use x="2242.134766" xlink:href="#DejaVuSans-20"/>
    <use x="2273.921875" xlink:href="#DejaVuSans-28"/>
    <use x="2312.935547" xlink:href="#DejaVuSans-32"/>
    <use x="2376.558594" xlink:href="#DejaVuSans-30"/>
    <use x="2440.181641" xlink:href="#DejaVuSans-32"/>
    <use x="2503.804688" xlink:href="#DejaVuSans-31"/>
    <use x="2567.427734" xlink:href="#DejaVuSans-2d"/>
    <use x="2603.511719" xlink:href="#DejaVuSans-30"/>
    <use x="2667.134766" xlink:href="#DejaVuSans-39"/>
    <use x="2730.757812" xlink:href="#DejaVuSans-2d"/>
    <use x="2766.841797" xlink:href="#DejaVuSans-32"/>
    <use x="2830.464844" xlink:href="#DejaVuSans-34"/>
    <use x="2894.087891" xlink:href="#DejaVuSans-29"/>
   </g>
  </g>
 </g>
 <defs>
  <clipPath id="pd89bf25a6e">
   <rect height="121.430443" width="122.886151" x="53.883703" y="10.8"/>
  </clipPath>
  <clipPath id="pdc07a3cf3e">
   <rect height="121.430443" width="122.509428" x="279.979617" y="10.8"/>
  </clipPath>
  <clipPath id="p86ec7441d5">
   <rect height="121.430443" width="124.709167" x="504.7873" y="10.8"/>
  </clipPath>
  <clipPath id="p271aa089e5">
   <rect height="121.430443" width="155.132378" x="37.760589" y="152.355074"/>
  </clipPath>
  <clipPath id="p88a3efec17">
   <rect height="121.430443" width="123.57574" x="279.446461" y="152.355074"/>
  </clipPath>
  <clipPath id="p5c91c82386">
   <rect height="121.430443" width="142.31695" x="495.983409" y="152.355074"/>
  </clipPath>
  <clipPath id="p8fa865f577">
   <rect height="121.430443" width="172.403812" x="29.124872" y="293.910147"/>
  </clipPath>
  <clipPath id="p688420b448">
   <rect height="121.430443" width="132.295438" x="275.086612" y="293.910147"/>
  </clipPath>
  <clipPath id="p2ab03b2321">
   <rect height="121.430443" width="134.106814" x="500.088477" y="293.910147"/>
  </clipPath>
  <clipPath id="pfaa271e3af">
   <rect height="121.430443" width="135.812357" x="47.4206" y="435.465221"/>
  </clipPath>
  <clipPath id="p7c8a79a107">
   <rect height="121.430443" width="140.021669" x="271.223496" y="435.465221"/>
  </clipPath>
  <clipPath id="p22254ae9a1">
   <rect height="121.430443" width="138.225341" x="498.029213" y="435.465221"/>
  </clipPath>
 </defs>
</svg>
