<?xml version="1.0" encoding="utf-8" standalone="no"?>
<!DOCTYPE svg PUBLIC "-//W3C//DTD SVG 1.1//EN"
  "http://www.w3.org/Graphics/SVG/1.1/DTD/svg11.dtd">
<svg height="576pt" version="1.1" viewBox="0 0 702 576" width="702pt" xmlns="http://www.w3.org/2000/svg" xmlns:xlink="http://www.w3.org/1999/xlink">
 <metadata>
  <rdf:RDF xmlns:cc="http://creativecommons.org/ns#" xmlns:dc="http://purl.org/dc/elements/1.1/" xmlns:rdf="http://www.w3.org/1999/02/22-rdf-syntax-ns#">
   <cc:Work>
    <dc:type rdf:resource="http://purl.org/dc/dcmitype/StillImage"/>
    <dc:date>2021-05-10T00:51:07.097563</dc:date>
    <dc:format>image/svg+xml</dc:format>
    <dc:creator>
     <cc:Agent>
      <dc:title>Matplotlib v3.4.2, https://matplotlib.org/</dc:title>
     </cc:Agent>
    </dc:creator>
   </cc:Work>
  </rdf:RDF>
 </metadata>
 <defs>
  <style type="text/css">*{stroke-linecap:butt;stroke-linejoin:round;}</style>
 </defs>
 <g id="figure_1">
  <g id="patch_1">
   <path d="M 0 576 
L 702 576 
L 702 0 
L 0 0 
z
" style="fill:#ffffff;"/>
  </g>
  <g id="axes_1">
   <g id="patch_2">
    <path clip-path="url(#p26da038ed2)" d="M 171.174589 72.307085 
C 171.067957 75.099154 170.419084 77.843988 169.264217 80.388256 
C 168.10935 82.932524 166.470402 85.227953 164.438925 87.146317 
C 162.407448 89.064682 160.021988 90.569582 157.415799 91.576954 
C 154.809611 92.584326 152.032142 93.075056 149.238547 93.02173 
C 146.444952 92.968404 143.688234 92.372035 141.122389 91.265936 
C 138.556543 90.159837 136.230253 88.564996 134.273467 86.570501 
C 132.316681 84.576007 130.766528 82.219703 129.7096 79.633214 
C 128.652672 77.046726 128.109023 74.279129 128.109023 71.485025 
C 128.109023 68.690921 128.652672 65.923324 129.7096 63.336835 
C 130.766528 60.750347 132.316681 58.394042 134.273467 56.399548 
C 136.230253 54.405054 138.556543 52.810212 141.122389 51.704113 
C 143.688234 50.598015 146.444952 50.001645 149.238547 49.94832 
C 152.032142 49.894994 154.809611 50.385723 157.415799 51.393095 
C 160.021988 52.400467 162.407448 53.905368 164.438925 55.823732 
C 166.470402 57.742096 168.10935 60.037525 169.264217 62.581794 
C 170.419084 65.126062 171.067957 67.870895 171.174589 70.662964 
C 171.067188 63.929137 169.64118 57.281167 166.977357 51.0957 
C 164.313533 44.910233 160.463169 39.306333 155.644411 34.601492 
C 150.825653 29.896651 145.131255 26.181434 138.88384 23.666327 
C 132.636425 21.151221 125.956247 19.884639 119.221778 19.938341 
C 112.487309 19.992043 105.828179 21.364995 99.621668 23.979412 
C 93.415157 26.593828 87.780731 30.399384 83.037616 35.180473 
C 78.2945 39.961562 74.533994 45.626153 71.969151 51.853315 
C 69.404308 58.080476 68.084499 64.750342 68.084499 71.485025 
C 68.084499 78.219708 69.404308 84.889574 71.969151 91.116735 
C 74.533994 97.343896 78.2945 103.008488 83.037616 107.789576 
C 87.780731 112.570665 93.415157 116.376222 99.621668 118.990638 
C 105.828179 121.605054 112.487309 122.978006 119.221778 123.031708 
C 125.956247 123.08541 132.636425 121.818829 138.88384 119.303722 
C 145.131255 116.788616 150.825653 113.073398 155.644411 108.368557 
C 160.463169 103.663717 164.313533 98.059816 166.977357 91.874349 
C 169.64118 85.688882 171.067188 79.040912 171.174589 72.307085 
" style="fill:#c0c0c0;opacity:0.4;"/>
   </g>
   <g id="patch_3">
    <path clip-path="url(#p26da038ed2)" d="M 171.174589 70.662964 
C 171.178959 70.936962 171.181144 71.210991 171.181144 71.485025 
C 171.181144 71.759058 171.178959 72.033087 171.174589 72.307085 
C 171.185049 72.03319 171.190281 71.75912 171.190281 71.485025 
C 171.190281 71.21093 171.185049 70.936859 171.174589 70.662964 
" style="fill:#a6cee3;opacity:0.4;"/>
   </g>
   <g id="patch_4">
    <path clip-path="url(#p26da038ed2)" d="M 171.174589 72.307085 
C 171.178959 72.033087 171.181144 71.759058 171.181144 71.485025 
C 171.181144 71.210991 171.178959 70.936962 171.174589 70.662964 
C 171.067957 67.870895 170.419084 65.126062 169.264217 62.581794 
C 168.10935 60.037525 166.470402 57.742096 164.438925 55.823732 
C 162.407448 53.905368 160.021988 52.400467 157.415799 51.393095 
C 154.809611 50.385723 152.032142 49.894994 149.238547 49.94832 
C 146.444952 50.001645 143.688234 50.598015 141.122389 51.704113 
C 138.556543 52.810212 136.230253 54.405054 134.273467 56.399548 
C 132.316681 58.394042 130.766528 60.750347 129.7096 63.336835 
C 128.652672 65.923324 128.109023 68.690921 128.109023 71.485025 
C 128.109023 74.279129 128.652672 77.046726 129.7096 79.633214 
C 130.766528 82.219703 132.316681 84.576007 134.273467 86.570501 
C 136.230253 88.564996 138.556543 90.159837 141.122389 91.265936 
C 143.688234 92.372035 146.444952 92.968404 149.238547 93.02173 
C 152.032142 93.075056 154.809611 92.584326 157.415799 91.576954 
C 160.021988 90.569582 162.407448 89.064682 164.438925 87.146317 
C 166.470402 85.227953 168.10935 82.932524 169.264217 80.388256 
C 170.419084 77.843988 171.067957 75.099154 171.174589 72.307085 
" style="fill:#fbffff;opacity:0.4;"/>
   </g>
   <g id="text_1">
    <!-- 917 -->
    <g style="fill:#262626;" transform="translate(88.553011 74.2444)scale(0.1 -0.1)">
     <defs>
      <path d="M 703 97 
L 703 672 
Q 941 559 1184 500 
Q 1428 441 1663 441 
Q 2288 441 2617 861 
Q 2947 1281 2994 2138 
Q 2813 1869 2534 1725 
Q 2256 1581 1919 1581 
Q 1219 1581 811 2004 
Q 403 2428 403 3163 
Q 403 3881 828 4315 
Q 1253 4750 1959 4750 
Q 2769 4750 3195 4129 
Q 3622 3509 3622 2328 
Q 3622 1225 3098 567 
Q 2575 -91 1691 -91 
Q 1453 -91 1209 -44 
Q 966 3 703 97 
z
M 1959 2075 
Q 2384 2075 2632 2365 
Q 2881 2656 2881 3163 
Q 2881 3666 2632 3958 
Q 2384 4250 1959 4250 
Q 1534 4250 1286 3958 
Q 1038 3666 1038 3163 
Q 1038 2656 1286 2365 
Q 1534 2075 1959 2075 
z
" id="DejaVuSans-39" transform="scale(0.015625)"/>
      <path d="M 794 531 
L 1825 531 
L 1825 4091 
L 703 3866 
L 703 4441 
L 1819 4666 
L 2450 4666 
L 2450 531 
L 3481 531 
L 3481 0 
L 794 0 
L 794 531 
z
" id="DejaVuSans-31" transform="scale(0.015625)"/>
      <path d="M 525 4666 
L 3525 4666 
L 3525 4397 
L 1831 0 
L 1172 0 
L 2766 4134 
L 525 4134 
L 525 4666 
z
" id="DejaVuSans-37" transform="scale(0.015625)"/>
     </defs>
     <use xlink:href="#DejaVuSans-39"/>
     <use x="63.623047" xlink:href="#DejaVuSans-31"/>
     <use x="127.246094" xlink:href="#DejaVuSans-37"/>
    </g>
   </g>
   <g id="text_2">
    <!-- 0 -->
    <g style="fill:#262626;" transform="translate(168.004462 74.2444)scale(0.1 -0.1)">
     <defs>
      <path d="M 2034 4250 
Q 1547 4250 1301 3770 
Q 1056 3291 1056 2328 
Q 1056 1369 1301 889 
Q 1547 409 2034 409 
Q 2525 409 2770 889 
Q 3016 1369 3016 2328 
Q 3016 3291 2770 3770 
Q 2525 4250 2034 4250 
z
M 2034 4750 
Q 2819 4750 3233 4129 
Q 3647 3509 3647 2328 
Q 3647 1150 3233 529 
Q 2819 -91 2034 -91 
Q 1250 -91 836 529 
Q 422 1150 422 2328 
Q 422 3509 836 4129 
Q 1250 4750 2034 4750 
z
" id="DejaVuSans-30" transform="scale(0.015625)"/>
     </defs>
     <use xlink:href="#DejaVuSans-30"/>
    </g>
   </g>
   <g id="text_3">
    <!-- 194 -->
    <g style="fill:#262626;" transform="translate(140.101334 74.2444)scale(0.1 -0.1)">
     <defs>
      <path d="M 2419 4116 
L 825 1625 
L 2419 1625 
L 2419 4116 
z
M 2253 4666 
L 3047 4666 
L 3047 1625 
L 3713 1625 
L 3713 1100 
L 3047 1100 
L 3047 0 
L 2419 0 
L 2419 1100 
L 313 1100 
L 313 1709 
L 2253 4666 
z
" id="DejaVuSans-34" transform="scale(0.015625)"/>
     </defs>
     <use xlink:href="#DejaVuSans-31"/>
     <use x="63.623047" xlink:href="#DejaVuSans-39"/>
     <use x="127.246094" xlink:href="#DejaVuSans-34"/>
    </g>
   </g>
   <g id="text_4">
    <!-- Bioregistry -->
    <g style="fill:#262626;" transform="translate(54.733446 135.80592)scale(0.12 -0.12)">
     <defs>
      <path d="M 1259 2228 
L 1259 519 
L 2272 519 
Q 2781 519 3026 730 
Q 3272 941 3272 1375 
Q 3272 1813 3026 2020 
Q 2781 2228 2272 2228 
L 1259 2228 
z
M 1259 4147 
L 1259 2741 
L 2194 2741 
Q 2656 2741 2882 2914 
Q 3109 3088 3109 3444 
Q 3109 3797 2882 3972 
Q 2656 4147 2194 4147 
L 1259 4147 
z
M 628 4666 
L 2241 4666 
Q 2963 4666 3353 4366 
Q 3744 4066 3744 3513 
Q 3744 3084 3544 2831 
Q 3344 2578 2956 2516 
Q 3422 2416 3680 2098 
Q 3938 1781 3938 1306 
Q 3938 681 3513 340 
Q 3088 0 2303 0 
L 628 0 
L 628 4666 
z
" id="DejaVuSans-42" transform="scale(0.015625)"/>
      <path d="M 603 3500 
L 1178 3500 
L 1178 0 
L 603 0 
L 603 3500 
z
M 603 4863 
L 1178 4863 
L 1178 4134 
L 603 4134 
L 603 4863 
z
" id="DejaVuSans-69" transform="scale(0.015625)"/>
      <path d="M 1959 3097 
Q 1497 3097 1228 2736 
Q 959 2375 959 1747 
Q 959 1119 1226 758 
Q 1494 397 1959 397 
Q 2419 397 2687 759 
Q 2956 1122 2956 1747 
Q 2956 2369 2687 2733 
Q 2419 3097 1959 3097 
z
M 1959 3584 
Q 2709 3584 3137 3096 
Q 3566 2609 3566 1747 
Q 3566 888 3137 398 
Q 2709 -91 1959 -91 
Q 1206 -91 779 398 
Q 353 888 353 1747 
Q 353 2609 779 3096 
Q 1206 3584 1959 3584 
z
" id="DejaVuSans-6f" transform="scale(0.015625)"/>
      <path d="M 2631 2963 
Q 2534 3019 2420 3045 
Q 2306 3072 2169 3072 
Q 1681 3072 1420 2755 
Q 1159 2438 1159 1844 
L 1159 0 
L 581 0 
L 581 3500 
L 1159 3500 
L 1159 2956 
Q 1341 3275 1631 3429 
Q 1922 3584 2338 3584 
Q 2397 3584 2469 3576 
Q 2541 3569 2628 3553 
L 2631 2963 
z
" id="DejaVuSans-72" transform="scale(0.015625)"/>
      <path d="M 3597 1894 
L 3597 1613 
L 953 1613 
Q 991 1019 1311 708 
Q 1631 397 2203 397 
Q 2534 397 2845 478 
Q 3156 559 3463 722 
L 3463 178 
Q 3153 47 2828 -22 
Q 2503 -91 2169 -91 
Q 1331 -91 842 396 
Q 353 884 353 1716 
Q 353 2575 817 3079 
Q 1281 3584 2069 3584 
Q 2775 3584 3186 3129 
Q 3597 2675 3597 1894 
z
M 3022 2063 
Q 3016 2534 2758 2815 
Q 2500 3097 2075 3097 
Q 1594 3097 1305 2825 
Q 1016 2553 972 2059 
L 3022 2063 
z
" id="DejaVuSans-65" transform="scale(0.015625)"/>
      <path d="M 2906 1791 
Q 2906 2416 2648 2759 
Q 2391 3103 1925 3103 
Q 1463 3103 1205 2759 
Q 947 2416 947 1791 
Q 947 1169 1205 825 
Q 1463 481 1925 481 
Q 2391 481 2648 825 
Q 2906 1169 2906 1791 
z
M 3481 434 
Q 3481 -459 3084 -895 
Q 2688 -1331 1869 -1331 
Q 1566 -1331 1297 -1286 
Q 1028 -1241 775 -1147 
L 775 -588 
Q 1028 -725 1275 -790 
Q 1522 -856 1778 -856 
Q 2344 -856 2625 -561 
Q 2906 -266 2906 331 
L 2906 616 
Q 2728 306 2450 153 
Q 2172 0 1784 0 
Q 1141 0 747 490 
Q 353 981 353 1791 
Q 353 2603 747 3093 
Q 1141 3584 1784 3584 
Q 2172 3584 2450 3431 
Q 2728 3278 2906 2969 
L 2906 3500 
L 3481 3500 
L 3481 434 
z
" id="DejaVuSans-67" transform="scale(0.015625)"/>
      <path d="M 2834 3397 
L 2834 2853 
Q 2591 2978 2328 3040 
Q 2066 3103 1784 3103 
Q 1356 3103 1142 2972 
Q 928 2841 928 2578 
Q 928 2378 1081 2264 
Q 1234 2150 1697 2047 
L 1894 2003 
Q 2506 1872 2764 1633 
Q 3022 1394 3022 966 
Q 3022 478 2636 193 
Q 2250 -91 1575 -91 
Q 1294 -91 989 -36 
Q 684 19 347 128 
L 347 722 
Q 666 556 975 473 
Q 1284 391 1588 391 
Q 1994 391 2212 530 
Q 2431 669 2431 922 
Q 2431 1156 2273 1281 
Q 2116 1406 1581 1522 
L 1381 1569 
Q 847 1681 609 1914 
Q 372 2147 372 2553 
Q 372 3047 722 3315 
Q 1072 3584 1716 3584 
Q 2034 3584 2315 3537 
Q 2597 3491 2834 3397 
z
" id="DejaVuSans-73" transform="scale(0.015625)"/>
      <path d="M 1172 4494 
L 1172 3500 
L 2356 3500 
L 2356 3053 
L 1172 3053 
L 1172 1153 
Q 1172 725 1289 603 
Q 1406 481 1766 481 
L 2356 481 
L 2356 0 
L 1766 0 
Q 1100 0 847 248 
Q 594 497 594 1153 
L 594 3053 
L 172 3053 
L 172 3500 
L 594 3500 
L 594 4494 
L 1172 4494 
z
" id="DejaVuSans-74" transform="scale(0.015625)"/>
      <path d="M 2059 -325 
Q 1816 -950 1584 -1140 
Q 1353 -1331 966 -1331 
L 506 -1331 
L 506 -850 
L 844 -850 
Q 1081 -850 1212 -737 
Q 1344 -625 1503 -206 
L 1606 56 
L 191 3500 
L 800 3500 
L 1894 763 
L 2988 3500 
L 3597 3500 
L 2059 -325 
z
" id="DejaVuSans-79" transform="scale(0.015625)"/>
     </defs>
     <use xlink:href="#DejaVuSans-42"/>
     <use x="68.603516" xlink:href="#DejaVuSans-69"/>
     <use x="96.386719" xlink:href="#DejaVuSans-6f"/>
     <use x="157.568359" xlink:href="#DejaVuSans-72"/>
     <use x="196.431641" xlink:href="#DejaVuSans-65"/>
     <use x="257.955078" xlink:href="#DejaVuSans-67"/>
     <use x="321.431641" xlink:href="#DejaVuSans-69"/>
     <use x="349.214844" xlink:href="#DejaVuSans-73"/>
     <use x="401.314453" xlink:href="#DejaVuSans-74"/>
     <use x="440.523438" xlink:href="#DejaVuSans-72"/>
     <use x="481.636719" xlink:href="#DejaVuSans-79"/>
    </g>
   </g>
   <g id="text_5">
    <!-- OBO -->
    <g style="fill:#262626;" transform="translate(149.649652 105.798226)scale(0.12 -0.12)">
     <defs>
      <path d="M 2522 4238 
Q 1834 4238 1429 3725 
Q 1025 3213 1025 2328 
Q 1025 1447 1429 934 
Q 1834 422 2522 422 
Q 3209 422 3611 934 
Q 4013 1447 4013 2328 
Q 4013 3213 3611 3725 
Q 3209 4238 2522 4238 
z
M 2522 4750 
Q 3503 4750 4090 4092 
Q 4678 3434 4678 2328 
Q 4678 1225 4090 567 
Q 3503 -91 2522 -91 
Q 1538 -91 948 565 
Q 359 1222 359 2328 
Q 359 3434 948 4092 
Q 1538 4750 2522 4750 
z
" id="DejaVuSans-4f" transform="scale(0.015625)"/>
     </defs>
     <use xlink:href="#DejaVuSans-4f"/>
     <use x="78.710938" xlink:href="#DejaVuSans-42"/>
     <use x="145.564453" xlink:href="#DejaVuSans-4f"/>
    </g>
   </g>
  </g>
  <g id="axes_2">
   <g id="patch_5">
    <path clip-path="url(#pd1f56b46ee)" d="M 405.24313 72.429504 
C 405.120599 75.680996 404.366484 78.877786 403.022926 81.841241 
C 401.679368 84.804695 399.771866 87.478568 397.407012 89.713445 
C 395.042157 91.948322 392.264834 93.701785 389.230237 94.875852 
C 386.19564 96.049919 382.961366 96.622307 379.708144 96.56103 
C 376.454921 96.499754 373.244496 95.805976 370.256265 94.518464 
C 367.268033 93.230953 364.558712 91.374145 362.279696 89.051798 
C 360.00068 86.729451 358.195224 83.985642 356.964216 80.973694 
C 355.733209 77.961746 355.100014 74.738824 355.100014 71.485025 
C 355.100014 68.231225 355.733209 65.008304 356.964216 61.996356 
C 358.195224 58.984407 360.00068 56.240599 362.279696 53.918251 
C 364.558712 51.595904 367.268033 49.739096 370.256265 48.451585 
C 373.244496 47.164074 376.454921 46.470296 379.708144 46.409019 
C 382.961366 46.347743 386.19564 46.92013 389.230237 48.094198 
C 392.264834 49.268265 395.042157 51.021728 397.407012 53.256605 
C 399.771866 55.491482 401.679368 58.165354 403.022926 61.128809 
C 404.366484 64.092263 405.120599 67.289054 405.24313 70.540545 
C 405.119831 63.812142 403.680145 57.172541 401.005519 50.997349 
C 398.330893 44.822157 394.47273 39.230058 389.64929 34.5374 
C 384.825849 29.844742 379.129834 26.141715 372.883472 23.637802 
C 366.63711 21.133889 359.960453 19.877213 353.231202 19.938866 
C 346.501951 20.000518 339.849439 21.379314 333.650003 23.997254 
C 327.450567 26.615194 321.823356 30.421963 317.086705 35.202209 
C 312.350054 39.982456 308.594998 45.644307 306.033964 51.867467 
C 303.47293 58.090627 302.155139 64.755492 302.155139 71.485025 
C 302.155139 78.214558 303.47293 84.879423 306.033964 91.102583 
C 308.594998 97.325743 312.350054 102.987594 317.086705 107.76784 
C 321.823356 112.548086 327.450567 116.354855 333.650003 118.972795 
C 339.849439 121.590735 346.501951 122.969531 353.231202 123.031184 
C 359.960453 123.092836 366.63711 121.836161 372.883472 119.332247 
C 379.129834 116.828334 384.825849 113.125307 389.64929 108.432649 
C 394.47273 103.739991 398.330893 98.147892 401.005519 91.9727 
C 403.680145 85.797509 405.119831 79.157908 405.24313 72.429504 
" style="fill:#c0c0c0;opacity:0.4;"/>
   </g>
   <g id="patch_6">
    <path clip-path="url(#pd1f56b46ee)" d="M 405.24313 70.540545 
C 405.248899 70.855339 405.251784 71.170178 405.251784 71.485025 
C 405.251784 71.799871 405.248899 72.114711 405.24313 72.429504 
C 405.254989 72.114817 405.26092 71.799935 405.26092 71.485025 
C 405.26092 71.170115 405.254989 70.855232 405.24313 70.540545 
" style="fill:#1f78b4;opacity:0.4;"/>
   </g>
   <g id="patch_7">
    <path clip-path="url(#pd1f56b46ee)" d="M 405.24313 72.429504 
C 405.248899 72.114711 405.251784 71.799871 405.251784 71.485025 
C 405.251784 71.170178 405.248899 70.855339 405.24313 70.540545 
C 405.120599 67.289054 404.366484 64.092263 403.022926 61.128809 
C 401.679368 58.165354 399.771866 55.491482 397.407012 53.256605 
C 395.042157 51.021728 392.264834 49.268265 389.230237 48.094198 
C 386.19564 46.92013 382.961366 46.347743 379.708144 46.409019 
C 376.454921 46.470296 373.244496 47.164074 370.256265 48.451585 
C 367.268033 49.739096 364.558712 51.595904 362.279696 53.918251 
C 360.00068 56.240599 358.195224 58.984407 356.964216 61.996356 
C 355.733209 65.008304 355.100014 68.231225 355.100014 71.485025 
C 355.100014 74.738824 355.733209 77.961746 356.964216 80.973694 
C 358.195224 83.985642 360.00068 86.729451 362.279696 89.051798 
C 364.558712 91.374145 367.268033 93.230953 370.256265 94.518464 
C 373.244496 95.805976 376.454921 96.499754 379.708144 96.56103 
C 382.961366 96.622307 386.19564 96.049919 389.230237 94.875852 
C 392.264834 93.701785 395.042157 91.948322 397.407012 89.713445 
C 399.771866 87.478568 401.679368 84.804695 403.022926 81.841241 
C 404.366484 78.877786 405.120599 75.680996 405.24313 72.429504 
" style="fill:#9cdaff;opacity:0.4;"/>
   </g>
   <g id="text_6">
    <!-- 848 -->
    <g style="fill:#262626;" transform="translate(319.083826 74.2444)scale(0.1 -0.1)">
     <defs>
      <path d="M 2034 2216 
Q 1584 2216 1326 1975 
Q 1069 1734 1069 1313 
Q 1069 891 1326 650 
Q 1584 409 2034 409 
Q 2484 409 2743 651 
Q 3003 894 3003 1313 
Q 3003 1734 2745 1975 
Q 2488 2216 2034 2216 
z
M 1403 2484 
Q 997 2584 770 2862 
Q 544 3141 544 3541 
Q 544 4100 942 4425 
Q 1341 4750 2034 4750 
Q 2731 4750 3128 4425 
Q 3525 4100 3525 3541 
Q 3525 3141 3298 2862 
Q 3072 2584 2669 2484 
Q 3125 2378 3379 2068 
Q 3634 1759 3634 1313 
Q 3634 634 3220 271 
Q 2806 -91 2034 -91 
Q 1263 -91 848 271 
Q 434 634 434 1313 
Q 434 1759 690 2068 
Q 947 2378 1403 2484 
z
M 1172 3481 
Q 1172 3119 1398 2916 
Q 1625 2713 2034 2713 
Q 2441 2713 2670 2916 
Q 2900 3119 2900 3481 
Q 2900 3844 2670 4047 
Q 2441 4250 2034 4250 
Q 1625 4250 1398 4047 
Q 1172 3844 1172 3481 
z
" id="DejaVuSans-38" transform="scale(0.015625)"/>
     </defs>
     <use xlink:href="#DejaVuSans-38"/>
     <use x="63.623047" xlink:href="#DejaVuSans-34"/>
     <use x="127.246094" xlink:href="#DejaVuSans-38"/>
    </g>
   </g>
   <g id="text_7">
    <!-- 0 -->
    <g style="fill:#262626;" transform="translate(402.075102 74.2444)scale(0.1 -0.1)">
     <use xlink:href="#DejaVuSans-30"/>
    </g>
   </g>
   <g id="text_8">
    <!-- 263 -->
    <g style="fill:#262626;" transform="translate(370.632149 74.2444)scale(0.1 -0.1)">
     <defs>
      <path d="M 1228 531 
L 3431 531 
L 3431 0 
L 469 0 
L 469 531 
Q 828 903 1448 1529 
Q 2069 2156 2228 2338 
Q 2531 2678 2651 2914 
Q 2772 3150 2772 3378 
Q 2772 3750 2511 3984 
Q 2250 4219 1831 4219 
Q 1534 4219 1204 4116 
Q 875 4013 500 3803 
L 500 4441 
Q 881 4594 1212 4672 
Q 1544 4750 1819 4750 
Q 2544 4750 2975 4387 
Q 3406 4025 3406 3419 
Q 3406 3131 3298 2873 
Q 3191 2616 2906 2266 
Q 2828 2175 2409 1742 
Q 1991 1309 1228 531 
z
" id="DejaVuSans-32" transform="scale(0.015625)"/>
      <path d="M 2113 2584 
Q 1688 2584 1439 2293 
Q 1191 2003 1191 1497 
Q 1191 994 1439 701 
Q 1688 409 2113 409 
Q 2538 409 2786 701 
Q 3034 994 3034 1497 
Q 3034 2003 2786 2293 
Q 2538 2584 2113 2584 
z
M 3366 4563 
L 3366 3988 
Q 3128 4100 2886 4159 
Q 2644 4219 2406 4219 
Q 1781 4219 1451 3797 
Q 1122 3375 1075 2522 
Q 1259 2794 1537 2939 
Q 1816 3084 2150 3084 
Q 2853 3084 3261 2657 
Q 3669 2231 3669 1497 
Q 3669 778 3244 343 
Q 2819 -91 2113 -91 
Q 1303 -91 875 529 
Q 447 1150 447 2328 
Q 447 3434 972 4092 
Q 1497 4750 2381 4750 
Q 2619 4750 2861 4703 
Q 3103 4656 3366 4563 
z
" id="DejaVuSans-36" transform="scale(0.015625)"/>
      <path d="M 2597 2516 
Q 3050 2419 3304 2112 
Q 3559 1806 3559 1356 
Q 3559 666 3084 287 
Q 2609 -91 1734 -91 
Q 1441 -91 1130 -33 
Q 819 25 488 141 
L 488 750 
Q 750 597 1062 519 
Q 1375 441 1716 441 
Q 2309 441 2620 675 
Q 2931 909 2931 1356 
Q 2931 1769 2642 2001 
Q 2353 2234 1838 2234 
L 1294 2234 
L 1294 2753 
L 1863 2753 
Q 2328 2753 2575 2939 
Q 2822 3125 2822 3475 
Q 2822 3834 2567 4026 
Q 2313 4219 1838 4219 
Q 1578 4219 1281 4162 
Q 984 4106 628 3988 
L 628 4550 
Q 988 4650 1302 4700 
Q 1616 4750 1894 4750 
Q 2613 4750 3031 4423 
Q 3450 4097 3450 3541 
Q 3450 3153 3228 2886 
Q 3006 2619 2597 2516 
z
" id="DejaVuSans-33" transform="scale(0.015625)"/>
     </defs>
     <use xlink:href="#DejaVuSans-32"/>
     <use x="63.623047" xlink:href="#DejaVuSans-36"/>
     <use x="127.246094" xlink:href="#DejaVuSans-33"/>
    </g>
   </g>
   <g id="text_9">
    <!-- Bioregistry -->
    <g style="fill:#262626;" transform="translate(288.804086 135.982911)scale(0.12 -0.12)">
     <use xlink:href="#DejaVuSans-42"/>
     <use x="68.603516" xlink:href="#DejaVuSans-69"/>
     <use x="96.386719" xlink:href="#DejaVuSans-6f"/>
     <use x="157.568359" xlink:href="#DejaVuSans-72"/>
     <use x="196.431641" xlink:href="#DejaVuSans-65"/>
     <use x="257.955078" xlink:href="#DejaVuSans-67"/>
     <use x="321.431641" xlink:href="#DejaVuSans-69"/>
     <use x="349.214844" xlink:href="#DejaVuSans-73"/>
     <use x="401.314453" xlink:href="#DejaVuSans-74"/>
     <use x="440.523438" xlink:href="#DejaVuSans-72"/>
     <use x="481.636719" xlink:href="#DejaVuSans-79"/>
    </g>
   </g>
   <g id="text_10">
    <!-- OLS -->
    <g style="fill:#262626;" transform="translate(380.180467 109.515042)scale(0.12 -0.12)">
     <defs>
      <path d="M 628 4666 
L 1259 4666 
L 1259 531 
L 3531 531 
L 3531 0 
L 628 0 
L 628 4666 
z
" id="DejaVuSans-4c" transform="scale(0.015625)"/>
      <path d="M 3425 4513 
L 3425 3897 
Q 3066 4069 2747 4153 
Q 2428 4238 2131 4238 
Q 1616 4238 1336 4038 
Q 1056 3838 1056 3469 
Q 1056 3159 1242 3001 
Q 1428 2844 1947 2747 
L 2328 2669 
Q 3034 2534 3370 2195 
Q 3706 1856 3706 1288 
Q 3706 609 3251 259 
Q 2797 -91 1919 -91 
Q 1588 -91 1214 -16 
Q 841 59 441 206 
L 441 856 
Q 825 641 1194 531 
Q 1563 422 1919 422 
Q 2459 422 2753 634 
Q 3047 847 3047 1241 
Q 3047 1584 2836 1778 
Q 2625 1972 2144 2069 
L 1759 2144 
Q 1053 2284 737 2584 
Q 422 2884 422 3419 
Q 422 4038 858 4394 
Q 1294 4750 2059 4750 
Q 2388 4750 2728 4690 
Q 3069 4631 3425 4513 
z
" id="DejaVuSans-53" transform="scale(0.015625)"/>
     </defs>
     <use xlink:href="#DejaVuSans-4f"/>
     <use x="78.710938" xlink:href="#DejaVuSans-4c"/>
     <use x="134.423828" xlink:href="#DejaVuSans-53"/>
    </g>
   </g>
  </g>
  <g id="axes_3">
   <g id="patch_8">
    <path clip-path="url(#p09f54668aa)" d="M 639.284148 73.471126 
C 639.027323 78.847282 637.730125 84.122936 635.464575 89.00518 
C 633.199025 93.887423 630.007842 98.284195 626.068205 101.951384 
C 622.128567 105.618572 617.51476 108.487028 612.482947 110.397492 
C 607.451134 112.307956 602.096195 113.224405 596.715441 113.095956 
C 591.334687 112.967507 586.029577 111.796582 581.094657 109.648193 
C 576.159736 107.499804 571.688058 104.414459 567.927894 100.563462 
C 564.16773 96.712464 561.189982 92.168428 559.159977 87.183641 
C 557.129972 82.198855 556.085988 76.867312 556.085988 71.485025 
C 556.085988 66.102738 557.129972 60.771195 559.159977 55.786408 
C 561.189982 50.801622 564.16773 46.257585 567.927894 42.406588 
C 571.688058 38.55559 576.159736 35.470246 581.094657 33.321856 
C 586.029577 31.173467 591.334687 30.002542 596.715441 29.874093 
C 602.096195 29.745644 607.451134 30.662093 612.482947 32.572557 
C 617.51476 34.483021 622.128567 37.351478 626.068205 41.018666 
C 630.007842 44.685854 633.199025 49.082627 635.464575 53.96487 
C 637.730125 58.847113 639.027323 64.122768 639.284148 69.498924 
C 639.026555 62.818183 637.471689 56.250919 634.706386 50.163904 
C 631.941083 44.076889 628.017799 38.585587 623.155641 33.996678 
C 618.293484 29.407769 612.584686 25.808301 606.348071 23.399297 
C 600.111457 20.990294 593.46533 19.817452 586.780866 19.946272 
C 580.096402 20.075092 573.500399 21.503132 567.361231 24.150637 
C 561.222064 26.798141 555.656188 30.614891 550.974446 35.387726 
C 546.292705 40.160561 542.583908 45.798945 540.055184 51.987985 
C 537.526461 58.177025 536.225779 64.799319 536.225779 71.485025 
C 536.225779 78.17073 537.526461 84.793024 540.055184 90.982064 
C 542.583908 97.171104 546.292705 102.809488 550.974446 107.582324 
C 555.656188 112.355159 561.222064 116.171908 567.361231 118.819413 
C 573.500399 121.466918 580.096402 122.894957 586.780866 123.023777 
C 593.46533 123.152598 600.111457 121.979756 606.348071 119.570752 
C 612.584686 117.161749 618.293484 113.56228 623.155641 108.973372 
C 628.017799 104.384463 631.941083 98.893161 634.706386 92.806145 
C 637.471689 86.71913 639.026555 80.151867 639.284148 73.471126 
" style="fill:#c0c0c0;opacity:0.4;"/>
   </g>
   <g id="patch_9">
    <path clip-path="url(#p09f54668aa)" d="M 639.284148 69.498924 
C 639.309663 70.16065 639.322423 70.822807 639.322423 71.485025 
C 639.322423 72.147243 639.309663 72.809399 639.284148 73.471126 
C 639.315752 72.809564 639.33156 72.147341 639.33156 71.485025 
C 639.33156 70.822708 639.315752 70.160486 639.284148 69.498924 
" style="fill:#b2df8a;opacity:0.4;"/>
   </g>
   <g id="patch_10">
    <path clip-path="url(#p09f54668aa)" d="M 639.284148 73.471126 
C 639.309663 72.809399 639.322423 72.147243 639.322423 71.485025 
C 639.322423 70.822807 639.309663 70.16065 639.284148 69.498924 
C 639.027323 64.122768 637.730125 58.847113 635.464575 53.96487 
C 633.199025 49.082627 630.007842 44.685854 626.068205 41.018666 
C 622.128567 37.351478 617.51476 34.483021 612.482947 32.572557 
C 607.451134 30.662093 602.096195 29.745644 596.715441 29.874093 
C 591.334687 30.002542 586.029577 31.173467 581.094657 33.321856 
C 576.159736 35.470246 571.688058 38.55559 567.927894 42.406588 
C 564.16773 46.257585 561.189982 50.801622 559.159977 55.786408 
C 557.129972 60.771195 556.085988 66.102738 556.085988 71.485025 
C 556.085988 76.867312 557.129972 82.198855 559.159977 87.183641 
C 561.189982 92.168428 564.16773 96.712464 567.927894 100.563462 
C 571.688058 104.414459 576.159736 107.499804 581.094657 109.648193 
C 586.029577 111.796582 591.334687 112.967507 596.715441 113.095956 
C 602.096195 113.224405 607.451134 112.307956 612.482947 110.397492 
C 617.51476 108.487028 622.128567 105.618572 626.068205 101.951384 
C 630.007842 98.284195 633.199025 93.887423 635.464575 89.00518 
C 637.730125 84.122936 639.027323 78.847282 639.284148 73.471126 
" style="fill:#ffffe7;opacity:0.4;"/>
   </g>
   <g id="text_11">
    <!-- 387 -->
    <g style="fill:#262626;" transform="translate(536.612133 74.2444)scale(0.1 -0.1)">
     <use xlink:href="#DejaVuSans-33"/>
     <use x="63.623047" xlink:href="#DejaVuSans-38"/>
     <use x="127.246094" xlink:href="#DejaVuSans-37"/>
    </g>
   </g>
   <g id="text_12">
    <!-- 0 -->
    <g style="fill:#262626;" transform="translate(636.145742 74.2444)scale(0.1 -0.1)">
     <use xlink:href="#DejaVuSans-30"/>
    </g>
   </g>
   <g id="text_13">
    <!-- 725 -->
    <g style="fill:#262626;" transform="translate(588.160456 74.2444)scale(0.1 -0.1)">
     <defs>
      <path d="M 691 4666 
L 3169 4666 
L 3169 4134 
L 1269 4134 
L 1269 2991 
Q 1406 3038 1543 3061 
Q 1681 3084 1819 3084 
Q 2600 3084 3056 2656 
Q 3513 2228 3513 1497 
Q 3513 744 3044 326 
Q 2575 -91 1722 -91 
Q 1428 -91 1123 -41 
Q 819 9 494 109 
L 494 744 
Q 775 591 1075 516 
Q 1375 441 1709 441 
Q 2250 441 2565 725 
Q 2881 1009 2881 1497 
Q 2881 1984 2565 2268 
Q 2250 2553 1709 2553 
Q 1456 2553 1204 2497 
Q 953 2441 691 2322 
L 691 4666 
z
" id="DejaVuSans-35" transform="scale(0.015625)"/>
     </defs>
     <use xlink:href="#DejaVuSans-37"/>
     <use x="63.623047" xlink:href="#DejaVuSans-32"/>
     <use x="127.246094" xlink:href="#DejaVuSans-35"/>
    </g>
   </g>
   <g id="text_14">
    <!-- Bioregistry -->
    <g style="fill:#262626;" transform="translate(522.874726 136.810028)scale(0.12 -0.12)">
     <use xlink:href="#DejaVuSans-42"/>
     <use x="68.603516" xlink:href="#DejaVuSans-69"/>
     <use x="96.386719" xlink:href="#DejaVuSans-6f"/>
     <use x="157.568359" xlink:href="#DejaVuSans-72"/>
     <use x="196.431641" xlink:href="#DejaVuSans-65"/>
     <use x="257.955078" xlink:href="#DejaVuSans-67"/>
     <use x="321.431641" xlink:href="#DejaVuSans-69"/>
     <use x="349.214844" xlink:href="#DejaVuSans-73"/>
     <use x="401.314453" xlink:href="#DejaVuSans-74"/>
     <use x="440.523438" xlink:href="#DejaVuSans-72"/>
     <use x="481.636719" xlink:href="#DejaVuSans-79"/>
    </g>
   </g>
   <g id="text_15">
    <!-- MIRIAM -->
    <g style="fill:#262626;" transform="translate(597.708774 126.884491)scale(0.12 -0.12)">
     <defs>
      <path d="M 628 4666 
L 1569 4666 
L 2759 1491 
L 3956 4666 
L 4897 4666 
L 4897 0 
L 4281 0 
L 4281 4097 
L 3078 897 
L 2444 897 
L 1241 4097 
L 1241 0 
L 628 0 
L 628 4666 
z
" id="DejaVuSans-4d" transform="scale(0.015625)"/>
      <path d="M 628 4666 
L 1259 4666 
L 1259 0 
L 628 0 
L 628 4666 
z
" id="DejaVuSans-49" transform="scale(0.015625)"/>
      <path d="M 2841 2188 
Q 3044 2119 3236 1894 
Q 3428 1669 3622 1275 
L 4263 0 
L 3584 0 
L 2988 1197 
Q 2756 1666 2539 1819 
Q 2322 1972 1947 1972 
L 1259 1972 
L 1259 0 
L 628 0 
L 628 4666 
L 2053 4666 
Q 2853 4666 3247 4331 
Q 3641 3997 3641 3322 
Q 3641 2881 3436 2590 
Q 3231 2300 2841 2188 
z
M 1259 4147 
L 1259 2491 
L 2053 2491 
Q 2509 2491 2742 2702 
Q 2975 2913 2975 3322 
Q 2975 3731 2742 3939 
Q 2509 4147 2053 4147 
L 1259 4147 
z
" id="DejaVuSans-52" transform="scale(0.015625)"/>
      <path d="M 2188 4044 
L 1331 1722 
L 3047 1722 
L 2188 4044 
z
M 1831 4666 
L 2547 4666 
L 4325 0 
L 3669 0 
L 3244 1197 
L 1141 1197 
L 716 0 
L 50 0 
L 1831 4666 
z
" id="DejaVuSans-41" transform="scale(0.015625)"/>
     </defs>
     <use xlink:href="#DejaVuSans-4d"/>
     <use x="86.279297" xlink:href="#DejaVuSans-49"/>
     <use x="115.771484" xlink:href="#DejaVuSans-52"/>
     <use x="185.253906" xlink:href="#DejaVuSans-49"/>
     <use x="214.746094" xlink:href="#DejaVuSans-41"/>
     <use x="283.154297" xlink:href="#DejaVuSans-4d"/>
    </g>
   </g>
  </g>
  <g id="axes_4">
   <g id="patch_11">
    <path clip-path="url(#pf5412c6d98)" d="M 168.95898 224.259907 
C 167.749211 226.209461 166.231585 227.950235 164.465158 229.414489 
C 162.698731 230.878743 160.706718 232.047233 158.566636 232.874488 
C 156.426555 233.701744 154.166529 234.176894 151.874505 234.281447 
C 149.582482 234.386001 147.288583 234.118585 145.082073 233.489604 
C 142.875563 232.860624 140.78544 231.878346 138.893039 230.580995 
C 137.000638 229.283643 135.330829 227.688268 133.94859 225.856952 
C 132.566352 224.025636 131.48985 221.982445 130.760975 219.806889 
C 130.0321 217.631334 129.66043 215.352003 129.66043 213.057597 
C 129.66043 210.76319 130.0321 208.48386 130.760975 206.308304 
C 131.48985 204.132748 132.566352 202.089557 133.94859 200.258241 
C 135.330829 198.426925 137.000638 196.83155 138.893039 195.534198 
C 140.78544 194.236847 142.875563 193.254569 145.082073 192.625589 
C 147.288583 191.996609 149.582482 191.729192 151.874505 191.833746 
C 154.166529 191.938299 156.426555 192.413449 158.566636 193.240705 
C 160.706718 194.067961 162.698731 195.236451 164.465158 196.700704 
C 166.231585 198.164958 167.749211 199.905732 168.95898 201.855286 
C 167.591099 195.713047 165.109699 189.872972 161.637842 184.624696 
C 158.165985 179.376419 153.76203 174.808159 148.644387 171.146474 
C 143.526744 167.48479 137.781437 164.79123 131.693398 163.199381 
C 125.605359 161.607531 119.276924 161.144149 113.021945 161.832215 
C 106.766966 162.520281 100.690583 164.348229 95.094151 167.225405 
C 89.497718 170.102581 84.475306 173.980621 80.275996 178.667198 
C 76.076687 183.353774 72.771067 188.77011 70.523075 194.647587 
C 68.275083 200.525064 67.122507 206.764886 67.122507 213.057597 
C 67.122507 219.350307 68.275083 225.590129 70.523075 231.467606 
C 72.771067 237.345083 76.076687 242.761419 80.275996 247.447995 
C 84.475306 252.134572 89.497718 256.012612 95.094151 258.889788 
C 100.690583 261.766964 106.766966 263.594912 113.021945 264.282978 
C 119.276924 264.971045 125.605359 264.507662 131.693398 262.915813 
C 137.781437 261.323963 143.526744 258.630404 148.644387 254.968719 
C 153.76203 251.307034 158.165985 246.738774 161.637842 241.490498 
C 165.109699 236.242221 167.591099 230.402146 168.95898 224.259907 
" style="fill:#c0c0c0;opacity:0.4;"/>
   </g>
   <g id="patch_12">
    <path clip-path="url(#pf5412c6d98)" d="M 168.95898 201.855286 
C 169.778033 205.533104 170.191267 209.289681 170.191267 213.057597 
C 170.191267 216.825512 169.778033 220.58209 168.95898 224.259907 
C 171.046071 220.896541 172.152273 217.015902 172.152273 213.057597 
C 172.152273 209.099291 171.046071 205.218652 168.95898 201.855286 
" style="fill:#33a02c;opacity:0.4;"/>
   </g>
   <g id="patch_13">
    <path clip-path="url(#pf5412c6d98)" d="M 168.95898 224.259907 
C 169.778033 220.58209 170.191267 216.825512 170.191267 213.057597 
C 170.191267 209.289681 169.778033 205.533104 168.95898 201.855286 
C 167.749211 199.905732 166.231585 198.164958 164.465158 196.700704 
C 162.698731 195.236451 160.706718 194.067961 158.566636 193.240705 
C 156.426555 192.413449 154.166529 191.938299 151.874505 191.833746 
C 149.582482 191.729192 147.288583 191.996609 145.082073 192.625589 
C 142.875563 193.254569 140.78544 194.236847 138.893039 195.534198 
C 137.000638 196.83155 135.330829 198.426925 133.94859 200.258241 
C 132.566352 202.089557 131.48985 204.132748 130.760975 206.308304 
C 130.0321 208.48386 129.66043 210.76319 129.66043 213.057597 
C 129.66043 215.352003 130.0321 217.631334 130.760975 219.806889 
C 131.48985 221.982445 132.566352 224.025636 133.94859 225.856952 
C 135.330829 227.688268 137.000638 229.283643 138.893039 230.580995 
C 140.78544 231.878346 142.875563 232.860624 145.082073 233.489604 
C 147.288583 234.118585 149.582482 234.386001 151.874505 234.281447 
C 154.166529 234.176894 156.426555 233.701744 158.566636 232.874488 
C 160.706718 232.047233 162.698731 230.878743 164.465158 229.414489 
C 166.231585 227.950235 167.749211 226.209461 168.95898 224.259907 
" style="fill:#aaf6a5;opacity:0.4;"/>
   </g>
   <g id="text_16">
    <!-- 927 -->
    <g style="fill:#262626;" transform="translate(88.847719 215.816972)scale(0.1 -0.1)">
     <use xlink:href="#DejaVuSans-39"/>
     <use x="63.623047" xlink:href="#DejaVuSans-32"/>
     <use x="127.246094" xlink:href="#DejaVuSans-37"/>
    </g>
   </g>
   <g id="text_17">
    <!-- 4 -->
    <g style="fill:#262626;" transform="translate(167.99052 215.816972)scale(0.1 -0.1)">
     <use xlink:href="#DejaVuSans-34"/>
    </g>
   </g>
   <g id="text_18">
    <!-- 185 -->
    <g style="fill:#262626;" transform="translate(140.382099 215.816972)scale(0.1 -0.1)">
     <use xlink:href="#DejaVuSans-31"/>
     <use x="63.623047" xlink:href="#DejaVuSans-38"/>
     <use x="127.246094" xlink:href="#DejaVuSans-35"/>
    </g>
   </g>
   <g id="text_19">
    <!-- Bioregistry -->
    <g style="fill:#262626;" transform="translate(53.757512 277.349117)scale(0.12 -0.12)">
     <use xlink:href="#DejaVuSans-42"/>
     <use x="68.603516" xlink:href="#DejaVuSans-69"/>
     <use x="96.386719" xlink:href="#DejaVuSans-6f"/>
     <use x="157.568359" xlink:href="#DejaVuSans-72"/>
     <use x="196.431641" xlink:href="#DejaVuSans-65"/>
     <use x="257.955078" xlink:href="#DejaVuSans-67"/>
     <use x="321.431641" xlink:href="#DejaVuSans-69"/>
     <use x="349.214844" xlink:href="#DejaVuSans-73"/>
     <use x="401.314453" xlink:href="#DejaVuSans-74"/>
     <use x="440.523438" xlink:href="#DejaVuSans-72"/>
     <use x="481.636719" xlink:href="#DejaVuSans-79"/>
    </g>
   </g>
   <g id="text_20">
    <!-- Wikidata -->
    <g style="fill:#262626;" transform="translate(150.906351 247.060658)scale(0.12 -0.12)">
     <defs>
      <path d="M 213 4666 
L 850 4666 
L 1831 722 
L 2809 4666 
L 3519 4666 
L 4500 722 
L 5478 4666 
L 6119 4666 
L 4947 0 
L 4153 0 
L 3169 4050 
L 2175 0 
L 1381 0 
L 213 4666 
z
" id="DejaVuSans-57" transform="scale(0.015625)"/>
      <path d="M 581 4863 
L 1159 4863 
L 1159 1991 
L 2875 3500 
L 3609 3500 
L 1753 1863 
L 3688 0 
L 2938 0 
L 1159 1709 
L 1159 0 
L 581 0 
L 581 4863 
z
" id="DejaVuSans-6b" transform="scale(0.015625)"/>
      <path d="M 2906 2969 
L 2906 4863 
L 3481 4863 
L 3481 0 
L 2906 0 
L 2906 525 
Q 2725 213 2448 61 
Q 2172 -91 1784 -91 
Q 1150 -91 751 415 
Q 353 922 353 1747 
Q 353 2572 751 3078 
Q 1150 3584 1784 3584 
Q 2172 3584 2448 3432 
Q 2725 3281 2906 2969 
z
M 947 1747 
Q 947 1113 1208 752 
Q 1469 391 1925 391 
Q 2381 391 2643 752 
Q 2906 1113 2906 1747 
Q 2906 2381 2643 2742 
Q 2381 3103 1925 3103 
Q 1469 3103 1208 2742 
Q 947 2381 947 1747 
z
" id="DejaVuSans-64" transform="scale(0.015625)"/>
      <path d="M 2194 1759 
Q 1497 1759 1228 1600 
Q 959 1441 959 1056 
Q 959 750 1161 570 
Q 1363 391 1709 391 
Q 2188 391 2477 730 
Q 2766 1069 2766 1631 
L 2766 1759 
L 2194 1759 
z
M 3341 1997 
L 3341 0 
L 2766 0 
L 2766 531 
Q 2569 213 2275 61 
Q 1981 -91 1556 -91 
Q 1019 -91 701 211 
Q 384 513 384 1019 
Q 384 1609 779 1909 
Q 1175 2209 1959 2209 
L 2766 2209 
L 2766 2266 
Q 2766 2663 2505 2880 
Q 2244 3097 1772 3097 
Q 1472 3097 1187 3025 
Q 903 2953 641 2809 
L 641 3341 
Q 956 3463 1253 3523 
Q 1550 3584 1831 3584 
Q 2591 3584 2966 3190 
Q 3341 2797 3341 1997 
z
" id="DejaVuSans-61" transform="scale(0.015625)"/>
     </defs>
     <use xlink:href="#DejaVuSans-57"/>
     <use x="96.626953" xlink:href="#DejaVuSans-69"/>
     <use x="124.410156" xlink:href="#DejaVuSans-6b"/>
     <use x="182.320312" xlink:href="#DejaVuSans-69"/>
     <use x="210.103516" xlink:href="#DejaVuSans-64"/>
     <use x="273.580078" xlink:href="#DejaVuSans-61"/>
     <use x="334.859375" xlink:href="#DejaVuSans-74"/>
     <use x="374.068359" xlink:href="#DejaVuSans-61"/>
    </g>
   </g>
  </g>
  <g id="axes_5">
   <g id="patch_14">
    <path clip-path="url(#p25f394ddf3)" d="M 401.725694 230.519079 
C 399.762444 234.588177 397.126927 238.297187 393.930204 241.489813 
C 390.73348 244.682439 387.021092 247.313196 382.94948 249.271224 
C 378.877867 251.229253 374.505038 252.486657 370.015261 252.990451 
C 365.525484 253.494244 360.982725 253.23725 356.578415 252.230296 
C 352.174105 251.223343 347.970991 249.480777 344.146191 247.076029 
C 340.321392 244.671282 336.929398 241.638613 334.113147 238.105819 
C 331.296896 234.573024 329.096512 230.590435 327.604717 226.325878 
C 326.112923 222.06132 325.350971 217.57555 325.350971 213.057597 
C 325.350971 208.539643 326.112923 204.053873 327.604717 199.789315 
C 329.096512 195.524758 331.296896 191.542169 334.113147 188.009375 
C 336.929398 184.47658 340.321392 181.443911 344.146191 179.039164 
C 347.970991 176.634416 352.174105 174.89185 356.578415 173.884897 
C 360.982725 172.877943 365.525484 172.620949 370.015261 173.124742 
C 374.505038 173.628536 378.877867 174.88594 382.94948 176.843969 
C 387.021092 178.801997 390.73348 181.432755 393.930204 184.62538 
C 397.126927 187.818006 399.762444 191.527017 401.725694 195.596114 
C 399.686311 189.932849 396.670459 184.6704 392.815141 180.047827 
C 388.959824 175.425254 384.324316 171.513631 379.119199 168.490651 
C 373.914081 165.467672 368.219383 163.379816 362.2938 162.321929 
C 356.368218 161.264042 350.302858 161.25239 344.373254 162.287501 
C 338.443651 163.322613 332.740973 165.388574 327.524279 168.391532 
C 322.307584 171.39449 317.657082 175.288274 313.784032 179.896 
C 309.910982 184.503726 306.874933 189.754548 304.813806 195.409936 
C 302.752679 201.065323 301.698163 207.038323 301.698163 213.057597 
C 301.698163 219.07687 302.752679 225.04987 304.813806 230.705257 
C 306.874933 236.360645 309.910982 241.611467 313.784032 246.219193 
C 317.657082 250.826919 322.307584 254.720703 327.524279 257.723661 
C 332.740973 260.72662 338.443651 262.79258 344.373254 263.827692 
C 350.302858 264.862803 356.368218 264.851151 362.2938 263.793264 
C 368.219383 262.735378 373.914081 260.647521 379.119199 257.624542 
C 384.324316 254.601563 388.959824 250.689939 392.815141 246.067366 
C 396.670459 241.444793 399.686311 236.182344 401.725694 230.519079 
" style="fill:#c0c0c0;opacity:0.4;"/>
   </g>
   <g id="patch_15">
    <path clip-path="url(#p25f394ddf3)" d="M 401.725694 195.596114 
C 403.742545 201.19681 404.773888 207.104826 404.773888 213.057597 
C 404.773888 219.010368 403.742545 224.918383 401.725694 230.519079 
C 404.353157 225.07331 405.717896 219.104081 405.717896 213.057597 
C 405.717896 207.011113 404.353157 201.041884 401.725694 195.596114 
" style="fill:#fb9a99;opacity:0.4;"/>
   </g>
   <g id="patch_16">
    <path clip-path="url(#p25f394ddf3)" d="M 401.725694 230.519079 
C 403.742545 224.918383 404.773888 219.010368 404.773888 213.057597 
C 404.773888 207.104826 403.742545 201.19681 401.725694 195.596114 
C 399.762444 191.527017 397.126927 187.818006 393.930204 184.62538 
C 390.73348 181.432755 387.021092 178.801997 382.94948 176.843969 
C 378.877867 174.88594 374.505038 173.628536 370.015261 173.124742 
C 365.525484 172.620949 360.982725 172.877943 356.578415 173.884897 
C 352.174105 174.89185 347.970991 176.634416 344.146191 179.039164 
C 340.321392 181.443911 336.929398 184.47658 334.113147 188.009375 
C 331.296896 191.542169 329.096512 195.524758 327.604717 199.789315 
C 326.112923 204.053873 325.350971 208.539643 325.350971 213.057597 
C 325.350971 217.57555 326.112923 222.06132 327.604717 226.325878 
C 329.096512 230.590435 331.296896 234.573024 334.113147 238.105819 
C 336.929398 241.638613 340.321392 244.671282 344.146191 247.076029 
C 347.970991 249.480777 352.174105 251.223343 356.578415 252.230296 
C 360.982725 253.23725 365.525484 253.494244 370.015261 252.990451 
C 374.505038 252.486657 378.877867 251.229253 382.94948 249.271224 
C 387.021092 247.313196 390.73348 244.682439 393.930204 241.489813 
C 397.126927 238.297187 399.762444 234.588177 401.725694 230.519079 
" style="fill:#fff2f2;opacity:0.4;"/>
   </g>
   <g id="text_21">
    <!-- 439 -->
    <g style="fill:#262626;" transform="translate(303.980817 215.816972)scale(0.1 -0.1)">
     <use xlink:href="#DejaVuSans-34"/>
     <use x="63.623047" xlink:href="#DejaVuSans-33"/>
     <use x="127.246094" xlink:href="#DejaVuSans-39"/>
    </g>
   </g>
   <g id="text_22">
    <!-- 3 -->
    <g style="fill:#262626;" transform="translate(402.064642 215.816972)scale(0.1 -0.1)">
     <use xlink:href="#DejaVuSans-33"/>
    </g>
   </g>
   <g id="text_23">
    <!-- 673 -->
    <g style="fill:#262626;" transform="translate(355.51868 215.816972)scale(0.1 -0.1)">
     <use xlink:href="#DejaVuSans-36"/>
     <use x="63.623047" xlink:href="#DejaVuSans-37"/>
     <use x="127.246094" xlink:href="#DejaVuSans-33"/>
    </g>
   </g>
   <g id="text_24">
    <!-- Bioregistry -->
    <g style="fill:#262626;" transform="translate(288.33665 278.29965)scale(0.12 -0.12)">
     <use xlink:href="#DejaVuSans-42"/>
     <use x="68.603516" xlink:href="#DejaVuSans-69"/>
     <use x="96.386719" xlink:href="#DejaVuSans-6f"/>
     <use x="157.568359" xlink:href="#DejaVuSans-72"/>
     <use x="196.431641" xlink:href="#DejaVuSans-65"/>
     <use x="257.955078" xlink:href="#DejaVuSans-67"/>
     <use x="321.431641" xlink:href="#DejaVuSans-69"/>
     <use x="349.214844" xlink:href="#DejaVuSans-73"/>
     <use x="401.314453" xlink:href="#DejaVuSans-74"/>
     <use x="440.523438" xlink:href="#DejaVuSans-72"/>
     <use x="481.636719" xlink:href="#DejaVuSans-79"/>
    </g>
   </g>
   <g id="text_25">
    <!-- N2T -->
    <g style="fill:#262626;" transform="translate(365.534434 266.94525)scale(0.12 -0.12)">
     <defs>
      <path d="M 628 4666 
L 1478 4666 
L 3547 763 
L 3547 4666 
L 4159 4666 
L 4159 0 
L 3309 0 
L 1241 3903 
L 1241 0 
L 628 0 
L 628 4666 
z
" id="DejaVuSans-4e" transform="scale(0.015625)"/>
      <path d="M -19 4666 
L 3928 4666 
L 3928 4134 
L 2272 4134 
L 2272 0 
L 1638 0 
L 1638 4134 
L -19 4134 
L -19 4666 
z
" id="DejaVuSans-54" transform="scale(0.015625)"/>
     </defs>
     <use xlink:href="#DejaVuSans-4e"/>
     <use x="74.804688" xlink:href="#DejaVuSans-32"/>
     <use x="138.427734" xlink:href="#DejaVuSans-54"/>
    </g>
   </g>
  </g>
  <g id="axes_6">
   <g id="patch_17">
    <path clip-path="url(#pd4b19c725f)" d="M 622.012925 237.455348 
C 616.064888 236.716271 610.587674 233.826965 606.619329 229.335014 
C 602.650985 224.843063 600.45911 219.051375 600.45911 213.057597 
C 600.45911 207.063818 602.650985 201.272131 606.619329 196.78018 
C 610.587674 192.288229 616.064888 189.398923 622.012925 188.659845 
C 619.31873 183.696634 615.82093 179.213797 611.661774 175.393643 
C 607.502618 171.573489 602.739262 168.468514 597.565422 166.204992 
C 592.391581 163.94147 586.878357 162.550507 581.249959 162.088669 
C 575.621561 161.626831 569.955337 162.100466 564.48172 163.490312 
C 559.008102 164.880158 553.802312 167.167115 549.076057 170.258177 
C 544.349802 173.34924 540.168031 177.20193 536.700809 181.659567 
C 533.233586 186.117204 530.52856 191.11853 528.695737 196.460151 
C 526.862914 201.801772 525.927481 207.410282 525.927481 213.057597 
C 525.927481 218.704911 526.862914 224.313421 528.695737 229.655043 
C 530.52856 234.996664 533.233586 239.997989 536.700809 244.455626 
C 540.168031 248.913263 544.349802 252.765953 549.076057 255.857016 
C 553.802312 258.948078 559.008102 261.235035 564.48172 262.624881 
C 569.955337 264.014727 575.621561 264.488362 581.249959 264.026524 
C 586.878357 263.564687 592.391581 262.173723 597.565422 259.910201 
C 602.739262 257.646679 607.502618 254.541704 611.661774 250.72155 
C 615.82093 246.901396 619.31873 242.418559 622.012925 237.455348 
" style="fill:#c0c0c0;opacity:0.4;"/>
   </g>
   <g id="patch_18">
    <path clip-path="url(#pd4b19c725f)" d="M 622.012925 188.659845 
C 626.078179 196.148803 628.207935 204.5364 628.207935 213.057597 
C 628.207935 221.578793 626.078179 229.96639 622.012925 237.455348 
C 625.470752 237.885002 628.980739 237.574686 632.309549 236.545028 
C 635.638358 235.51537 638.710554 233.789705 641.321901 231.482751 
C 643.933248 229.175797 646.024568 226.339834 647.456835 223.163393 
C 648.889102 219.986951 649.629858 216.542015 649.629858 213.057597 
C 649.629858 209.573179 648.889102 206.128242 647.456835 202.951801 
C 646.024568 199.775359 643.933248 196.939396 641.321901 194.632442 
C 638.710554 192.325488 635.638358 190.599823 632.309549 189.570165 
C 628.980739 188.540507 625.470752 188.230191 622.012925 188.659845 
" style="fill:#e31a1c;opacity:0.4;"/>
   </g>
   <g id="patch_19">
    <path clip-path="url(#pd4b19c725f)" d="M 622.012925 237.455348 
C 626.078179 229.96639 628.207935 221.578793 628.207935 213.057597 
C 628.207935 204.5364 626.078179 196.148803 622.012925 188.659845 
C 616.064888 189.398923 610.587674 192.288229 606.619329 196.78018 
C 602.650985 201.272131 600.45911 207.063818 600.45911 213.057597 
C 600.45911 219.051375 602.650985 224.843063 606.619329 229.335014 
C 610.587674 233.826965 616.064888 236.716271 622.012925 237.455348 
" style="fill:#ff999a;opacity:0.4;"/>
   </g>
   <g id="text_26">
    <!-- 976 -->
    <g style="fill:#262626;" transform="translate(553.649545 215.816972)scale(0.1 -0.1)">
     <use xlink:href="#DejaVuSans-39"/>
     <use x="63.623047" xlink:href="#DejaVuSans-37"/>
     <use x="127.246094" xlink:href="#DejaVuSans-36"/>
    </g>
   </g>
   <g id="text_27">
    <!-- 121 -->
    <g style="fill:#262626;" transform="translate(629.375146 215.816972)scale(0.1 -0.1)">
     <use xlink:href="#DejaVuSans-31"/>
     <use x="63.623047" xlink:href="#DejaVuSans-32"/>
     <use x="127.246094" xlink:href="#DejaVuSans-31"/>
    </g>
   </g>
   <g id="text_28">
    <!-- 136 -->
    <g style="fill:#262626;" transform="translate(604.789772 215.816972)scale(0.1 -0.1)">
     <use xlink:href="#DejaVuSans-31"/>
     <use x="63.623047" xlink:href="#DejaVuSans-33"/>
     <use x="127.246094" xlink:href="#DejaVuSans-36"/>
    </g>
   </g>
   <g id="text_29">
    <!-- Bioregistry -->
    <g style="fill:#262626;" transform="translate(512.168333 277.102229)scale(0.12 -0.12)">
     <use xlink:href="#DejaVuSans-42"/>
     <use x="68.603516" xlink:href="#DejaVuSans-69"/>
     <use x="96.386719" xlink:href="#DejaVuSans-6f"/>
     <use x="157.568359" xlink:href="#DejaVuSans-72"/>
     <use x="196.431641" xlink:href="#DejaVuSans-65"/>
     <use x="257.955078" xlink:href="#DejaVuSans-67"/>
     <use x="321.431641" xlink:href="#DejaVuSans-69"/>
     <use x="349.214844" xlink:href="#DejaVuSans-73"/>
     <use x="401.314453" xlink:href="#DejaVuSans-74"/>
     <use x="440.523438" xlink:href="#DejaVuSans-72"/>
     <use x="481.636719" xlink:href="#DejaVuSans-79"/>
    </g>
   </g>
   <g id="text_30">
    <!-- GO -->
    <g style="fill:#262626;" transform="translate(625.044484 250.547376)scale(0.12 -0.12)">
     <defs>
      <path d="M 3809 666 
L 3809 1919 
L 2778 1919 
L 2778 2438 
L 4434 2438 
L 4434 434 
Q 4069 175 3628 42 
Q 3188 -91 2688 -91 
Q 1594 -91 976 548 
Q 359 1188 359 2328 
Q 359 3472 976 4111 
Q 1594 4750 2688 4750 
Q 3144 4750 3555 4637 
Q 3966 4525 4313 4306 
L 4313 3634 
Q 3963 3931 3569 4081 
Q 3175 4231 2741 4231 
Q 1884 4231 1454 3753 
Q 1025 3275 1025 2328 
Q 1025 1384 1454 906 
Q 1884 428 2741 428 
Q 3075 428 3337 486 
Q 3600 544 3809 666 
z
" id="DejaVuSans-47" transform="scale(0.015625)"/>
     </defs>
     <use xlink:href="#DejaVuSans-47"/>
     <use x="77.490234" xlink:href="#DejaVuSans-4f"/>
    </g>
   </g>
  </g>
  <g id="axes_7">
   <g id="patch_20">
    <path clip-path="url(#pc14ed81c46)" d="M 127.175954 391.386806 
C 121.085235 387.382534 116.084239 381.926464 112.624218 375.510912 
C 109.164197 369.09536 107.352447 361.919274 107.352447 354.630168 
C 107.352447 347.341063 109.164197 340.164977 112.624218 333.749425 
C 116.084239 327.333873 121.085235 321.877803 127.175954 317.873531 
C 120.05194 311.380844 111.191683 307.097199 101.678463 305.546326 
C 92.165243 303.995454 82.403236 305.243243 73.585972 309.137137 
C 64.768707 313.031031 57.270794 319.405594 52.008946 327.481454 
C 46.747099 335.557314 43.944871 344.991364 43.944871 354.630168 
C 43.944871 364.268973 46.747099 373.703022 52.008946 381.778883 
C 57.270794 389.854743 64.768707 396.229306 73.585972 400.1232 
C 82.403236 404.017094 92.165243 405.264883 101.678463 403.714011 
C 111.191683 402.163138 120.05194 397.879493 127.175954 391.386806 
" style="fill:#c0c0c0;opacity:0.4;"/>
   </g>
   <g id="patch_21">
    <path clip-path="url(#pc14ed81c46)" d="M 127.175954 317.873531 
C 132.289502 322.533919 136.374706 328.21052 139.169705 334.539467 
C 141.964704 340.868414 143.408476 347.711527 143.408476 354.630168 
C 143.408476 361.548809 141.964704 368.391923 139.169705 374.72087 
C 136.374706 381.049817 132.289502 386.726418 127.175954 391.386806 
C 133.808325 395.747182 141.498849 398.232213 149.428675 398.577305 
C 157.3585 398.922397 165.235829 397.114852 172.221922 393.347129 
C 179.208014 389.579405 185.045797 383.990146 189.113693 377.17447 
C 193.18159 370.358793 195.329909 362.5675 195.329909 354.630168 
C 195.329909 346.692837 193.18159 338.901544 189.113693 332.085867 
C 185.045797 325.270191 179.208014 319.680932 172.221922 315.913208 
C 165.235829 312.145485 157.3585 310.33794 149.428675 310.683032 
C 141.498849 311.028124 133.808325 313.513155 127.175954 317.873531 
" style="fill:#fdbf6f;opacity:0.4;"/>
   </g>
   <g id="patch_22">
    <path clip-path="url(#pc14ed81c46)" d="M 127.175954 391.386806 
C 132.289502 386.726418 136.374706 381.049817 139.169705 374.72087 
C 141.964704 368.391923 143.408476 361.548809 143.408476 354.630168 
C 143.408476 347.711527 141.964704 340.868414 139.169705 334.539467 
C 136.374706 328.21052 132.289502 322.533919 127.175954 317.873531 
C 121.085235 321.877803 116.084239 327.333873 112.624218 333.749425 
C 109.164197 340.164977 107.352447 347.341063 107.352447 354.630168 
C 107.352447 361.919274 109.164197 369.09536 112.624218 375.510912 
C 116.084239 381.926464 121.085235 387.382534 127.175954 391.386806 
" style="fill:#ffffd4;opacity:0.4;"/>
   </g>
   <g id="text_31">
    <!-- 847 -->
    <g style="fill:#262626;" transform="translate(66.104909 357.389543)scale(0.1 -0.1)">
     <use xlink:href="#DejaVuSans-38"/>
     <use x="63.623047" xlink:href="#DejaVuSans-34"/>
     <use x="127.246094" xlink:href="#DejaVuSans-37"/>
    </g>
   </g>
   <g id="text_32">
    <!-- 605 -->
    <g style="fill:#262626;" transform="translate(159.825443 357.389543)scale(0.1 -0.1)">
     <use xlink:href="#DejaVuSans-36"/>
     <use x="63.623047" xlink:href="#DejaVuSans-30"/>
     <use x="127.246094" xlink:href="#DejaVuSans-35"/>
    </g>
   </g>
   <g id="text_33">
    <!-- 265 -->
    <g style="fill:#262626;" transform="translate(115.836711 357.389543)scale(0.1 -0.1)">
     <use xlink:href="#DejaVuSans-32"/>
     <use x="63.623047" xlink:href="#DejaVuSans-36"/>
     <use x="127.246094" xlink:href="#DejaVuSans-35"/>
    </g>
   </g>
   <g id="text_34">
    <!-- Bioregistry -->
    <g style="fill:#262626;" transform="translate(28.777298 418.166123)scale(0.12 -0.12)">
     <use xlink:href="#DejaVuSans-42"/>
     <use x="68.603516" xlink:href="#DejaVuSans-69"/>
     <use x="96.386719" xlink:href="#DejaVuSans-6f"/>
     <use x="157.568359" xlink:href="#DejaVuSans-72"/>
     <use x="196.431641" xlink:href="#DejaVuSans-65"/>
     <use x="257.955078" xlink:href="#DejaVuSans-67"/>
     <use x="321.431641" xlink:href="#DejaVuSans-69"/>
     <use x="349.214844" xlink:href="#DejaVuSans-73"/>
     <use x="401.314453" xlink:href="#DejaVuSans-74"/>
     <use x="440.523438" xlink:href="#DejaVuSans-72"/>
     <use x="481.636719" xlink:href="#DejaVuSans-79"/>
    </g>
   </g>
   <g id="text_35">
    <!-- BioPortal -->
    <g style="fill:#262626;" transform="translate(151.341178 412.423051)scale(0.12 -0.12)">
     <defs>
      <path d="M 1259 4147 
L 1259 2394 
L 2053 2394 
Q 2494 2394 2734 2622 
Q 2975 2850 2975 3272 
Q 2975 3691 2734 3919 
Q 2494 4147 2053 4147 
L 1259 4147 
z
M 628 4666 
L 2053 4666 
Q 2838 4666 3239 4311 
Q 3641 3956 3641 3272 
Q 3641 2581 3239 2228 
Q 2838 1875 2053 1875 
L 1259 1875 
L 1259 0 
L 628 0 
L 628 4666 
z
" id="DejaVuSans-50" transform="scale(0.015625)"/>
      <path d="M 603 4863 
L 1178 4863 
L 1178 0 
L 603 0 
L 603 4863 
z
" id="DejaVuSans-6c" transform="scale(0.015625)"/>
     </defs>
     <use xlink:href="#DejaVuSans-42"/>
     <use x="68.603516" xlink:href="#DejaVuSans-69"/>
     <use x="96.386719" xlink:href="#DejaVuSans-6f"/>
     <use x="157.568359" xlink:href="#DejaVuSans-50"/>
     <use x="214.246094" xlink:href="#DejaVuSans-6f"/>
     <use x="275.427734" xlink:href="#DejaVuSans-72"/>
     <use x="316.541016" xlink:href="#DejaVuSans-74"/>
     <use x="355.75" xlink:href="#DejaVuSans-61"/>
     <use x="417.029297" xlink:href="#DejaVuSans-6c"/>
    </g>
   </g>
  </g>
  <g id="axes_8">
   <g id="patch_23">
    <path clip-path="url(#pcee1d03330)" d="M 366.171318 401.823616 
C 359.825247 402.061318 353.495941 401.016569 347.562907 398.752011 
C 341.629872 396.487453 336.214107 393.049269 331.640342 388.643615 
C 327.066576 384.23796 323.428088 378.954683 320.943041 373.110569 
C 318.457994 367.266455 317.177068 360.98069 317.177068 354.630168 
C 317.177068 348.279647 318.457994 341.993882 320.943041 336.149768 
C 323.428088 330.305654 327.066576 325.022377 331.640342 320.616722 
C 336.214107 316.211067 341.629872 312.772884 347.562907 310.508326 
C 353.495941 308.243768 359.825247 307.199019 366.171318 307.436721 
C 358.423555 304.256563 350.010568 303.03273 341.677858 303.873671 
C 333.345147 304.714612 325.346333 307.594731 318.390213 312.258811 
C 311.434094 316.922892 305.732391 323.228976 301.790348 330.618262 
C 297.848306 338.007548 295.785907 346.255131 295.785907 354.630168 
C 295.785907 363.005206 297.848306 371.252789 301.790348 378.642075 
C 305.732391 386.031361 311.434094 392.337445 318.390213 397.001525 
C 325.346333 401.665606 333.345147 404.545725 341.677858 405.386666 
C 350.010568 406.227607 358.423555 405.003774 366.171318 401.823616 
" style="fill:#c0c0c0;opacity:0.4;"/>
   </g>
   <g id="patch_24">
    <path clip-path="url(#pcee1d03330)" d="M 366.171318 307.436721 
C 375.529948 311.278078 383.537776 317.817764 389.171583 326.220156 
C 394.80539 334.622548 397.814544 344.513846 397.814544 354.630168 
C 397.814544 364.746491 394.80539 374.637789 389.171583 383.040181 
C 383.537776 391.442573 375.529948 397.982259 366.171318 401.823616 
C 378.377703 401.366405 389.942976 396.19087 398.417056 387.393437 
C 406.891136 378.596003 411.630152 366.845113 411.630152 354.630168 
C 411.630152 342.415224 406.891136 330.664334 398.417056 321.8669 
C 389.942976 313.069467 378.377703 307.893931 366.171318 307.436721 
" style="fill:#ff7f00;opacity:0.4;"/>
   </g>
   <g id="patch_25">
    <path clip-path="url(#pcee1d03330)" d="M 366.171318 401.823616 
C 375.529948 397.982259 383.537776 391.442573 389.171583 383.040181 
C 394.80539 374.637789 397.814544 364.746491 397.814544 354.630168 
C 397.814544 344.513846 394.80539 334.622548 389.171583 326.220156 
C 383.537776 317.817764 375.529948 311.278078 366.171318 307.436721 
C 359.825247 307.199019 353.495941 308.243768 347.562907 310.508326 
C 341.629872 312.772884 336.214107 316.211067 331.640342 320.616722 
C 327.066576 325.022377 323.428088 330.305654 320.943041 336.149768 
C 318.457994 341.993882 317.177068 348.279647 317.177068 354.630168 
C 317.177068 360.98069 318.457994 367.266455 320.943041 373.110569 
C 323.428088 378.954683 327.066576 384.23796 331.640342 388.643615 
C 336.214107 393.049269 341.629872 396.487453 347.562907 398.752011 
C 353.495941 401.016569 359.825247 402.061318 366.171318 401.823616 
" style="fill:#ffdf86;opacity:0.4;"/>
   </g>
   <g id="text_36">
    <!-- 319 -->
    <g style="fill:#262626;" transform="translate(296.937738 357.389543)scale(0.1 -0.1)">
     <use xlink:href="#DejaVuSans-33"/>
     <use x="63.623047" xlink:href="#DejaVuSans-31"/>
     <use x="127.246094" xlink:href="#DejaVuSans-39"/>
    </g>
   </g>
   <g id="text_37">
    <!-- 160 -->
    <g style="fill:#262626;" transform="translate(395.178598 357.389543)scale(0.1 -0.1)">
     <use xlink:href="#DejaVuSans-31"/>
     <use x="63.623047" xlink:href="#DejaVuSans-36"/>
     <use x="127.246094" xlink:href="#DejaVuSans-30"/>
    </g>
   </g>
   <g id="text_38">
    <!-- 793 -->
    <g style="fill:#262626;" transform="translate(347.952056 357.389543)scale(0.1 -0.1)">
     <use xlink:href="#DejaVuSans-37"/>
     <use x="63.623047" xlink:href="#DejaVuSans-39"/>
     <use x="127.246094" xlink:href="#DejaVuSans-33"/>
    </g>
   </g>
   <g id="text_39">
    <!-- Bioregistry -->
    <g style="fill:#262626;" transform="translate(281.900851 419.674655)scale(0.12 -0.12)">
     <use xlink:href="#DejaVuSans-42"/>
     <use x="68.603516" xlink:href="#DejaVuSans-69"/>
     <use x="96.386719" xlink:href="#DejaVuSans-6f"/>
     <use x="157.568359" xlink:href="#DejaVuSans-72"/>
     <use x="196.431641" xlink:href="#DejaVuSans-65"/>
     <use x="257.955078" xlink:href="#DejaVuSans-67"/>
     <use x="321.431641" xlink:href="#DejaVuSans-69"/>
     <use x="349.214844" xlink:href="#DejaVuSans-73"/>
     <use x="401.314453" xlink:href="#DejaVuSans-74"/>
     <use x="440.523438" xlink:href="#DejaVuSans-72"/>
     <use x="481.636719" xlink:href="#DejaVuSans-79"/>
    </g>
   </g>
   <g id="text_40">
    <!-- Prefix Commons -->
    <g style="fill:#262626;" transform="translate(364.40361 415.886878)scale(0.12 -0.12)">
     <defs>
      <path d="M 2375 4863 
L 2375 4384 
L 1825 4384 
Q 1516 4384 1395 4259 
Q 1275 4134 1275 3809 
L 1275 3500 
L 2222 3500 
L 2222 3053 
L 1275 3053 
L 1275 0 
L 697 0 
L 697 3053 
L 147 3053 
L 147 3500 
L 697 3500 
L 697 3744 
Q 697 4328 969 4595 
Q 1241 4863 1831 4863 
L 2375 4863 
z
" id="DejaVuSans-66" transform="scale(0.015625)"/>
      <path d="M 3513 3500 
L 2247 1797 
L 3578 0 
L 2900 0 
L 1881 1375 
L 863 0 
L 184 0 
L 1544 1831 
L 300 3500 
L 978 3500 
L 1906 2253 
L 2834 3500 
L 3513 3500 
z
" id="DejaVuSans-78" transform="scale(0.015625)"/>
      <path id="DejaVuSans-20" transform="scale(0.015625)"/>
      <path d="M 4122 4306 
L 4122 3641 
Q 3803 3938 3442 4084 
Q 3081 4231 2675 4231 
Q 1875 4231 1450 3742 
Q 1025 3253 1025 2328 
Q 1025 1406 1450 917 
Q 1875 428 2675 428 
Q 3081 428 3442 575 
Q 3803 722 4122 1019 
L 4122 359 
Q 3791 134 3420 21 
Q 3050 -91 2638 -91 
Q 1578 -91 968 557 
Q 359 1206 359 2328 
Q 359 3453 968 4101 
Q 1578 4750 2638 4750 
Q 3056 4750 3426 4639 
Q 3797 4528 4122 4306 
z
" id="DejaVuSans-43" transform="scale(0.015625)"/>
      <path d="M 3328 2828 
Q 3544 3216 3844 3400 
Q 4144 3584 4550 3584 
Q 5097 3584 5394 3201 
Q 5691 2819 5691 2113 
L 5691 0 
L 5113 0 
L 5113 2094 
Q 5113 2597 4934 2840 
Q 4756 3084 4391 3084 
Q 3944 3084 3684 2787 
Q 3425 2491 3425 1978 
L 3425 0 
L 2847 0 
L 2847 2094 
Q 2847 2600 2669 2842 
Q 2491 3084 2119 3084 
Q 1678 3084 1418 2786 
Q 1159 2488 1159 1978 
L 1159 0 
L 581 0 
L 581 3500 
L 1159 3500 
L 1159 2956 
Q 1356 3278 1631 3431 
Q 1906 3584 2284 3584 
Q 2666 3584 2933 3390 
Q 3200 3197 3328 2828 
z
" id="DejaVuSans-6d" transform="scale(0.015625)"/>
      <path d="M 3513 2113 
L 3513 0 
L 2938 0 
L 2938 2094 
Q 2938 2591 2744 2837 
Q 2550 3084 2163 3084 
Q 1697 3084 1428 2787 
Q 1159 2491 1159 1978 
L 1159 0 
L 581 0 
L 581 3500 
L 1159 3500 
L 1159 2956 
Q 1366 3272 1645 3428 
Q 1925 3584 2291 3584 
Q 2894 3584 3203 3211 
Q 3513 2838 3513 2113 
z
" id="DejaVuSans-6e" transform="scale(0.015625)"/>
     </defs>
     <use xlink:href="#DejaVuSans-50"/>
     <use x="58.552734" xlink:href="#DejaVuSans-72"/>
     <use x="97.416016" xlink:href="#DejaVuSans-65"/>
     <use x="158.939453" xlink:href="#DejaVuSans-66"/>
     <use x="194.144531" xlink:href="#DejaVuSans-69"/>
     <use x="221.927734" xlink:href="#DejaVuSans-78"/>
     <use x="281.107422" xlink:href="#DejaVuSans-20"/>
     <use x="312.894531" xlink:href="#DejaVuSans-43"/>
     <use x="382.71875" xlink:href="#DejaVuSans-6f"/>
     <use x="443.900391" xlink:href="#DejaVuSans-6d"/>
     <use x="541.3125" xlink:href="#DejaVuSans-6d"/>
     <use x="638.724609" xlink:href="#DejaVuSans-6f"/>
     <use x="699.90625" xlink:href="#DejaVuSans-6e"/>
     <use x="763.285156" xlink:href="#DejaVuSans-73"/>
    </g>
   </g>
  </g>
  <g id="axes_9">
   <g id="patch_26">
    <path clip-path="url(#p171f8134da)" d="M 630.104472 369.710861 
C 626.23962 369.512974 622.594966 367.836751 619.929404 365.031217 
C 617.263842 362.225682 615.77618 358.500084 615.77618 354.630168 
C 615.77618 350.760253 617.263842 347.034655 619.929404 344.22912 
C 622.594966 341.423586 626.23962 339.747362 630.104472 339.549476 
C 628.312862 333.712648 625.495367 328.24152 621.784358 323.393134 
C 618.073349 318.544749 613.527867 314.396242 608.361465 311.142517 
C 603.195064 307.888792 597.489939 305.581615 591.514126 304.329381 
C 585.538313 303.077147 579.386886 302.899778 573.348848 303.805608 
C 567.31081 304.711437 561.482224 306.686054 556.136928 309.636686 
C 550.791631 312.587319 546.014665 316.467025 542.03046 321.093528 
C 538.046254 325.720032 534.918196 331.019727 532.793246 336.743626 
C 530.668297 342.467525 529.580263 348.524562 529.580263 354.630168 
C 529.580263 360.735775 530.668297 366.792812 532.793246 372.516711 
C 534.918196 378.24061 538.046254 383.540305 542.03046 388.166809 
C 546.014665 392.793312 550.791631 396.673018 556.136928 399.62365 
C 561.482224 402.574283 567.31081 404.5489 573.348848 405.454729 
C 579.386886 406.360559 585.538313 406.18319 591.514126 404.930956 
C 597.489939 403.678721 603.195064 401.371545 608.361465 398.11782 
C 613.527867 394.864095 618.073349 390.715588 621.784358 385.867203 
C 625.495367 381.018817 628.312862 375.547689 630.104472 369.710861 
" style="fill:#c0c0c0;opacity:0.4;"/>
   </g>
   <g id="patch_27">
    <path clip-path="url(#p171f8134da)" d="M 630.104472 339.549476 
C 631.604344 344.435859 632.366885 349.518774 632.366885 354.630168 
C 632.366885 359.741563 631.604344 364.824478 630.104472 369.710861 
C 632.149777 369.815584 634.195169 369.503132 636.11593 368.792556 
C 638.03669 368.081981 639.792969 366.988025 641.277676 365.577392 
C 642.762383 364.16676 643.944715 362.468718 644.752578 360.586805 
C 645.560442 358.704892 645.977076 356.678153 645.977076 354.630168 
C 645.977076 352.582184 645.560442 350.555445 644.752578 348.673532 
C 643.944715 346.791619 642.762383 345.093577 641.277676 343.682945 
C 639.792969 342.272312 638.03669 341.178356 636.11593 340.46778 
C 634.195169 339.757205 632.149777 339.444753 630.104472 339.549476 
" style="fill:#cab2d6;opacity:0.4;"/>
   </g>
   <g id="patch_28">
    <path clip-path="url(#p171f8134da)" d="M 630.104472 369.710861 
C 631.604344 364.824478 632.366885 359.741563 632.366885 354.630168 
C 632.366885 349.518774 631.604344 344.435859 630.104472 339.549476 
C 626.23962 339.747362 622.594966 341.423586 619.929404 344.22912 
C 617.263842 347.034655 615.77618 350.760253 615.77618 354.630168 
C 615.77618 358.500084 617.263842 362.225682 619.929404 365.031217 
C 622.594966 367.836751 626.23962 369.512974 630.104472 369.710861 
" style="fill:#ffffff;opacity:0.4;"/>
   </g>
   <g id="text_41">
    <!-- 1061 -->
    <g style="fill:#262626;" transform="translate(559.953222 357.389543)scale(0.1 -0.1)">
     <use xlink:href="#DejaVuSans-31"/>
     <use x="63.623047" xlink:href="#DejaVuSans-30"/>
     <use x="127.246094" xlink:href="#DejaVuSans-36"/>
     <use x="190.869141" xlink:href="#DejaVuSans-31"/>
    </g>
   </g>
   <g id="text_42">
    <!-- 45 -->
    <g style="fill:#262626;" transform="translate(632.80948 357.389543)scale(0.1 -0.1)">
     <use xlink:href="#DejaVuSans-34"/>
     <use x="63.623047" xlink:href="#DejaVuSans-35"/>
    </g>
   </g>
   <g id="text_43">
    <!-- 51 -->
    <g style="fill:#262626;" transform="translate(617.709033 357.389543)scale(0.1 -0.1)">
     <use xlink:href="#DejaVuSans-35"/>
     <use x="63.623047" xlink:href="#DejaVuSans-31"/>
    </g>
   </g>
   <g id="text_44">
    <!-- Bioregistry -->
    <g style="fill:#262626;" transform="translate(516.074199 418.466292)scale(0.12 -0.12)">
     <use xlink:href="#DejaVuSans-42"/>
     <use x="68.603516" xlink:href="#DejaVuSans-69"/>
     <use x="96.386719" xlink:href="#DejaVuSans-6f"/>
     <use x="157.568359" xlink:href="#DejaVuSans-72"/>
     <use x="196.431641" xlink:href="#DejaVuSans-65"/>
     <use x="257.955078" xlink:href="#DejaVuSans-67"/>
     <use x="321.431641" xlink:href="#DejaVuSans-69"/>
     <use x="349.214844" xlink:href="#DejaVuSans-73"/>
     <use x="401.314453" xlink:href="#DejaVuSans-74"/>
     <use x="440.523438" xlink:href="#DejaVuSans-72"/>
     <use x="481.636719" xlink:href="#DejaVuSans-79"/>
    </g>
   </g>
   <g id="text_45">
    <!-- Biolink -->
    <g style="fill:#262626;" transform="translate(630.876628 382.173429)scale(0.12 -0.12)">
     <use xlink:href="#DejaVuSans-42"/>
     <use x="68.603516" xlink:href="#DejaVuSans-69"/>
     <use x="96.386719" xlink:href="#DejaVuSans-6f"/>
     <use x="157.568359" xlink:href="#DejaVuSans-6c"/>
     <use x="185.351562" xlink:href="#DejaVuSans-69"/>
     <use x="213.134766" xlink:href="#DejaVuSans-6e"/>
     <use x="276.513672" xlink:href="#DejaVuSans-6b"/>
    </g>
   </g>
  </g>
  <g id="axes_10">
   <g id="patch_29">
    <path clip-path="url(#p8b48a07cb4)" d="M 160.607906 513.411294 
C 156.14647 513.259995 151.914176 511.379484 148.811604 508.169912 
C 145.709032 504.960341 143.973048 500.666741 143.973048 496.20274 
C 143.973048 491.73874 145.709032 487.44514 148.811604 484.235568 
C 151.914176 481.025997 156.14647 479.145486 160.607906 478.994186 
C 158.595205 473.334869 155.605155 468.072288 151.773969 463.446182 
C 147.942784 458.820075 143.329535 454.901774 138.14438 451.869776 
C 132.959225 448.837777 127.282115 446.738833 121.37167 445.66856 
C 115.461225 444.598287 109.408579 444.573188 103.489462 445.594406 
C 97.570344 446.615625 91.876021 448.667414 86.665899 451.656306 
C 81.455777 454.645197 76.810191 458.525104 72.94077 463.119278 
C 69.07135 467.713451 66.037759 472.951053 63.978191 478.593484 
C 61.918624 484.235915 60.864838 490.196174 60.864838 496.20274 
C 60.864838 502.209307 61.918624 508.169566 63.978191 513.811997 
C 66.037759 519.454428 69.07135 524.692029 72.94077 529.286203 
C 76.810191 533.880377 81.455777 537.760284 86.665899 540.749175 
C 91.876021 543.738066 97.570344 545.789856 103.489462 546.811075 
C 109.408579 547.832293 115.461225 547.807194 121.37167 546.736921 
C 127.282115 545.666648 132.959225 543.567703 138.14438 540.535705 
C 143.329535 537.503707 147.942784 533.585405 151.773969 528.959299 
C 155.605155 524.333193 158.595205 519.070612 160.607906 513.411294 
" style="fill:#c0c0c0;opacity:0.4;"/>
   </g>
   <g id="patch_30">
    <path clip-path="url(#p8b48a07cb4)" d="M 160.607906 478.994186 
C 162.57268 484.518742 163.576878 490.339204 163.576878 496.20274 
C 163.576878 502.066276 162.57268 507.886738 160.607906 513.411294 
C 162.916802 513.489595 165.218018 513.102419 167.374171 512.272881 
C 169.530325 511.443342 171.497639 510.188284 173.158667 508.582631 
C 174.819695 506.976979 176.140711 505.053333 177.042852 502.926534 
C 177.944993 500.799734 178.409942 498.512964 178.409942 496.20274 
C 178.409942 493.892517 177.944993 491.605746 177.042852 489.478947 
C 176.140711 487.352148 174.819695 485.428502 173.158667 483.822849 
C 171.497639 482.217197 169.530325 480.962138 167.374171 480.1326 
C 165.218018 479.303061 162.916802 478.915885 160.607906 478.994186 
" style="fill:#6a3d9a;opacity:0.4;"/>
   </g>
   <g id="patch_31">
    <path clip-path="url(#p8b48a07cb4)" d="M 160.607906 513.411294 
C 162.57268 507.886738 163.576878 502.066276 163.576878 496.20274 
C 163.576878 490.339204 162.57268 484.518742 160.607906 478.994186 
C 156.14647 479.145486 151.914176 481.025997 148.811604 484.235568 
C 145.709032 487.44514 143.973048 491.73874 143.973048 496.20274 
C 143.973048 500.666741 145.709032 504.960341 148.811604 508.169912 
C 151.914176 511.379484 156.14647 513.259995 160.607906 513.411294 
" style="fill:#d1b1f2;opacity:0.4;"/>
   </g>
   <g id="text_46">
    <!-- 1043 -->
    <g style="fill:#262626;" transform="translate(89.693943 498.962115)scale(0.1 -0.1)">
     <use xlink:href="#DejaVuSans-31"/>
     <use x="63.623047" xlink:href="#DejaVuSans-30"/>
     <use x="127.246094" xlink:href="#DejaVuSans-34"/>
     <use x="190.869141" xlink:href="#DejaVuSans-33"/>
    </g>
   </g>
   <g id="text_47">
    <!-- 56 -->
    <g style="fill:#262626;" transform="translate(164.63091 498.962115)scale(0.1 -0.1)">
     <use xlink:href="#DejaVuSans-35"/>
     <use x="63.623047" xlink:href="#DejaVuSans-36"/>
    </g>
   </g>
   <g id="text_48">
    <!-- 69 -->
    <g style="fill:#262626;" transform="translate(147.412463 498.962115)scale(0.1 -0.1)">
     <use xlink:href="#DejaVuSans-36"/>
     <use x="63.623047" xlink:href="#DejaVuSans-39"/>
    </g>
   </g>
   <g id="text_49">
    <!-- Bioregistry -->
    <g style="fill:#262626;" transform="translate(47.321483 560.105608)scale(0.12 -0.12)">
     <use xlink:href="#DejaVuSans-42"/>
     <use x="68.603516" xlink:href="#DejaVuSans-69"/>
     <use x="96.386719" xlink:href="#DejaVuSans-6f"/>
     <use x="157.568359" xlink:href="#DejaVuSans-72"/>
     <use x="196.431641" xlink:href="#DejaVuSans-65"/>
     <use x="257.955078" xlink:href="#DejaVuSans-67"/>
     <use x="321.431641" xlink:href="#DejaVuSans-69"/>
     <use x="349.214844" xlink:href="#DejaVuSans-73"/>
     <use x="401.314453" xlink:href="#DejaVuSans-74"/>
     <use x="440.523438" xlink:href="#DejaVuSans-72"/>
     <use x="481.636719" xlink:href="#DejaVuSans-79"/>
    </g>
   </g>
   <g id="text_50">
    <!-- NCBI -->
    <g style="fill:#262626;" transform="translate(161.191495 525.968035)scale(0.12 -0.12)">
     <use xlink:href="#DejaVuSans-4e"/>
     <use x="74.804688" xlink:href="#DejaVuSans-43"/>
     <use x="144.628906" xlink:href="#DejaVuSans-42"/>
     <use x="213.232422" xlink:href="#DejaVuSans-49"/>
    </g>
   </g>
  </g>
  <g id="axes_11">
   <g id="patch_32">
    <path clip-path="url(#pcb5ce75786)" d="M 391.01058 516.665198 
C 386.088602 515.958689 381.583048 513.499487 378.326366 509.741956 
C 375.069684 505.984425 373.275606 501.175166 373.275606 496.20274 
C 373.275606 491.230314 375.069684 486.421055 378.326366 482.663524 
C 381.583048 478.905993 386.088602 476.446792 391.01058 475.740283 
C 388.676673 470.382336 385.443201 465.462971 381.450339 461.195446 
C 377.457477 456.927921 372.763769 453.374809 367.572693 450.690141 
C 362.381617 448.005473 356.769285 446.228612 350.978999 445.436588 
C 345.188713 444.644563 339.305371 444.848988 333.584023 446.040999 
C 327.862675 447.233011 322.387209 449.395132 317.394992 452.433633 
C 312.402775 455.472133 307.967004 459.342461 304.279976 463.876834 
C 300.592948 468.411207 297.708722 473.54314 295.752332 479.050159 
C 293.795943 484.557178 292.796076 490.358537 292.796076 496.20274 
C 292.796076 502.046944 293.795943 507.848303 295.752332 513.355322 
C 297.708722 518.86234 300.592948 523.994274 304.279976 528.528647 
C 307.967004 533.063019 312.402775 536.933348 317.394992 539.971848 
C 322.387209 543.010348 327.862675 545.172469 333.584023 546.364481 
C 339.305371 547.556493 345.188713 547.760917 350.978999 546.968893 
C 356.769285 546.176869 362.381617 544.400008 367.572693 541.71534 
C 372.763769 539.030672 377.457477 535.477559 381.450339 531.210035 
C 385.443201 526.94251 388.676673 522.023144 391.01058 516.665198 
" style="fill:#c0c0c0;opacity:0.4;"/>
   </g>
   <g id="patch_33">
    <path clip-path="url(#pcb5ce75786)" d="M 391.01058 475.740283 
C 393.822471 482.195537 395.273822 489.161644 395.273822 496.20274 
C 395.273822 503.243837 393.822471 510.209943 391.01058 516.665198 
C 393.943339 517.086171 396.932615 516.871764 399.775272 516.036547 
C 402.61793 515.20133 405.248087 513.764661 407.48701 511.824168 
C 409.725934 509.883676 411.521734 507.484333 412.752377 504.789188 
C 413.983019 502.094042 414.619983 499.165558 414.619983 496.20274 
C 414.619983 493.239922 413.983019 490.311438 412.752377 487.616293 
C 411.521734 484.921147 409.725934 482.521805 407.48701 480.581312 
C 405.248087 478.640819 402.61793 477.20415 399.775272 476.368934 
C 396.932615 475.533717 393.943339 475.31931 391.01058 475.740283 
" style="fill:#ffff99;opacity:0.4;"/>
   </g>
   <g id="patch_34">
    <path clip-path="url(#pcb5ce75786)" d="M 391.01058 516.665198 
C 393.822471 510.209943 395.273822 503.243837 395.273822 496.20274 
C 395.273822 489.161644 393.822471 482.195537 391.01058 475.740283 
C 386.088602 476.446792 381.583048 478.905993 378.326366 482.663524 
C 375.069684 486.421055 373.275606 491.230314 373.275606 496.20274 
C 373.275606 501.175166 375.069684 505.984425 378.326366 509.741956 
C 381.583048 513.499487 386.088602 515.958689 391.01058 516.665198 
" style="fill:#fffff2;opacity:0.4;"/>
   </g>
   <g id="text_51">
    <!-- 1022 -->
    <g style="fill:#262626;" transform="translate(320.310841 498.962115)scale(0.1 -0.1)">
     <use xlink:href="#DejaVuSans-31"/>
     <use x="63.623047" xlink:href="#DejaVuSans-30"/>
     <use x="127.246094" xlink:href="#DejaVuSans-32"/>
     <use x="190.869141" xlink:href="#DejaVuSans-32"/>
    </g>
   </g>
   <g id="text_52">
    <!-- 91 -->
    <g style="fill:#262626;" transform="translate(398.584402 498.962115)scale(0.1 -0.1)">
     <use xlink:href="#DejaVuSans-39"/>
     <use x="63.623047" xlink:href="#DejaVuSans-31"/>
    </g>
   </g>
   <g id="text_53">
    <!-- 90 -->
    <g style="fill:#262626;" transform="translate(377.912214 498.962115)scale(0.1 -0.1)">
     <use xlink:href="#DejaVuSans-39"/>
     <use x="63.623047" xlink:href="#DejaVuSans-30"/>
    </g>
   </g>
   <g id="text_54">
    <!-- Bioregistry -->
    <g style="fill:#262626;" transform="translate(279.135574 560.155291)scale(0.12 -0.12)">
     <use xlink:href="#DejaVuSans-42"/>
     <use x="68.603516" xlink:href="#DejaVuSans-69"/>
     <use x="96.386719" xlink:href="#DejaVuSans-6f"/>
     <use x="157.568359" xlink:href="#DejaVuSans-72"/>
     <use x="196.431641" xlink:href="#DejaVuSans-65"/>
     <use x="257.955078" xlink:href="#DejaVuSans-67"/>
     <use x="321.431641" xlink:href="#DejaVuSans-69"/>
     <use x="349.214844" xlink:href="#DejaVuSans-73"/>
     <use x="401.314453" xlink:href="#DejaVuSans-74"/>
     <use x="440.523438" xlink:href="#DejaVuSans-72"/>
     <use x="481.636719" xlink:href="#DejaVuSans-79"/>
    </g>
   </g>
   <g id="text_55">
    <!-- UniProt -->
    <g style="fill:#262626;" transform="translate(393.947794 529.588607)scale(0.12 -0.12)">
     <defs>
      <path d="M 556 4666 
L 1191 4666 
L 1191 1831 
Q 1191 1081 1462 751 
Q 1734 422 2344 422 
Q 2950 422 3222 751 
Q 3494 1081 3494 1831 
L 3494 4666 
L 4128 4666 
L 4128 1753 
Q 4128 841 3676 375 
Q 3225 -91 2344 -91 
Q 1459 -91 1007 375 
Q 556 841 556 1753 
L 556 4666 
z
" id="DejaVuSans-55" transform="scale(0.015625)"/>
     </defs>
     <use xlink:href="#DejaVuSans-55"/>
     <use x="73.193359" xlink:href="#DejaVuSans-6e"/>
     <use x="136.572266" xlink:href="#DejaVuSans-69"/>
     <use x="164.355469" xlink:href="#DejaVuSans-50"/>
     <use x="222.908203" xlink:href="#DejaVuSans-72"/>
     <use x="261.771484" xlink:href="#DejaVuSans-6f"/>
     <use x="322.953125" xlink:href="#DejaVuSans-74"/>
    </g>
   </g>
  </g>
  <g id="axes_12"/>
  <g id="text_56">
   <!-- https://github.com/bioregistry/bioregistry (2021-05-10) -->
   <g style="fill:#808080;opacity:0.5;" transform="translate(240.830625 574.33625)scale(0.08 -0.08)">
    <defs>
     <path d="M 3513 2113 
L 3513 0 
L 2938 0 
L 2938 2094 
Q 2938 2591 2744 2837 
Q 2550 3084 2163 3084 
Q 1697 3084 1428 2787 
Q 1159 2491 1159 1978 
L 1159 0 
L 581 0 
L 581 4863 
L 1159 4863 
L 1159 2956 
Q 1366 3272 1645 3428 
Q 1925 3584 2291 3584 
Q 2894 3584 3203 3211 
Q 3513 2838 3513 2113 
z
" id="DejaVuSans-68" transform="scale(0.015625)"/>
     <path d="M 1159 525 
L 1159 -1331 
L 581 -1331 
L 581 3500 
L 1159 3500 
L 1159 2969 
Q 1341 3281 1617 3432 
Q 1894 3584 2278 3584 
Q 2916 3584 3314 3078 
Q 3713 2572 3713 1747 
Q 3713 922 3314 415 
Q 2916 -91 2278 -91 
Q 1894 -91 1617 61 
Q 1341 213 1159 525 
z
M 3116 1747 
Q 3116 2381 2855 2742 
Q 2594 3103 2138 3103 
Q 1681 3103 1420 2742 
Q 1159 2381 1159 1747 
Q 1159 1113 1420 752 
Q 1681 391 2138 391 
Q 2594 391 2855 752 
Q 3116 1113 3116 1747 
z
" id="DejaVuSans-70" transform="scale(0.015625)"/>
     <path d="M 750 794 
L 1409 794 
L 1409 0 
L 750 0 
L 750 794 
z
M 750 3309 
L 1409 3309 
L 1409 2516 
L 750 2516 
L 750 3309 
z
" id="DejaVuSans-3a" transform="scale(0.015625)"/>
     <path d="M 1625 4666 
L 2156 4666 
L 531 -594 
L 0 -594 
L 1625 4666 
z
" id="DejaVuSans-2f" transform="scale(0.015625)"/>
     <path d="M 544 1381 
L 544 3500 
L 1119 3500 
L 1119 1403 
Q 1119 906 1312 657 
Q 1506 409 1894 409 
Q 2359 409 2629 706 
Q 2900 1003 2900 1516 
L 2900 3500 
L 3475 3500 
L 3475 0 
L 2900 0 
L 2900 538 
Q 2691 219 2414 64 
Q 2138 -91 1772 -91 
Q 1169 -91 856 284 
Q 544 659 544 1381 
z
M 1991 3584 
L 1991 3584 
z
" id="DejaVuSans-75" transform="scale(0.015625)"/>
     <path d="M 3116 1747 
Q 3116 2381 2855 2742 
Q 2594 3103 2138 3103 
Q 1681 3103 1420 2742 
Q 1159 2381 1159 1747 
Q 1159 1113 1420 752 
Q 1681 391 2138 391 
Q 2594 391 2855 752 
Q 3116 1113 3116 1747 
z
M 1159 2969 
Q 1341 3281 1617 3432 
Q 1894 3584 2278 3584 
Q 2916 3584 3314 3078 
Q 3713 2572 3713 1747 
Q 3713 922 3314 415 
Q 2916 -91 2278 -91 
Q 1894 -91 1617 61 
Q 1341 213 1159 525 
L 1159 0 
L 581 0 
L 581 4863 
L 1159 4863 
L 1159 2969 
z
" id="DejaVuSans-62" transform="scale(0.015625)"/>
     <path d="M 684 794 
L 1344 794 
L 1344 0 
L 684 0 
L 684 794 
z
" id="DejaVuSans-2e" transform="scale(0.015625)"/>
     <path d="M 3122 3366 
L 3122 2828 
Q 2878 2963 2633 3030 
Q 2388 3097 2138 3097 
Q 1578 3097 1268 2742 
Q 959 2388 959 1747 
Q 959 1106 1268 751 
Q 1578 397 2138 397 
Q 2388 397 2633 464 
Q 2878 531 3122 666 
L 3122 134 
Q 2881 22 2623 -34 
Q 2366 -91 2075 -91 
Q 1284 -91 818 406 
Q 353 903 353 1747 
Q 353 2603 823 3093 
Q 1294 3584 2113 3584 
Q 2378 3584 2631 3529 
Q 2884 3475 3122 3366 
z
" id="DejaVuSans-63" transform="scale(0.015625)"/>
     <path d="M 1984 4856 
Q 1566 4138 1362 3434 
Q 1159 2731 1159 2009 
Q 1159 1288 1364 580 
Q 1569 -128 1984 -844 
L 1484 -844 
Q 1016 -109 783 600 
Q 550 1309 550 2009 
Q 550 2706 781 3412 
Q 1013 4119 1484 4856 
L 1984 4856 
z
" id="DejaVuSans-28" transform="scale(0.015625)"/>
     <path d="M 313 2009 
L 1997 2009 
L 1997 1497 
L 313 1497 
L 313 2009 
z
" id="DejaVuSans-2d" transform="scale(0.015625)"/>
     <path d="M 513 4856 
L 1013 4856 
Q 1481 4119 1714 3412 
Q 1947 2706 1947 2009 
Q 1947 1309 1714 600 
Q 1481 -109 1013 -844 
L 513 -844 
Q 928 -128 1133 580 
Q 1338 1288 1338 2009 
Q 1338 2731 1133 3434 
Q 928 4138 513 4856 
z
" id="DejaVuSans-29" transform="scale(0.015625)"/>
    </defs>
    <use xlink:href="#DejaVuSans-68"/>
    <use x="63.378906" xlink:href="#DejaVuSans-74"/>
    <use x="102.587891" xlink:href="#DejaVuSans-74"/>
    <use x="141.796875" xlink:href="#DejaVuSans-70"/>
    <use x="205.273438" xlink:href="#DejaVuSans-73"/>
    <use x="257.373047" xlink:href="#DejaVuSans-3a"/>
    <use x="291.064453" xlink:href="#DejaVuSans-2f"/>
    <use x="324.755859" xlink:href="#DejaVuSans-2f"/>
    <use x="358.447266" xlink:href="#DejaVuSans-67"/>
    <use x="421.923828" xlink:href="#DejaVuSans-69"/>
    <use x="449.707031" xlink:href="#DejaVuSans-74"/>
    <use x="488.916016" xlink:href="#DejaVuSans-68"/>
    <use x="552.294922" xlink:href="#DejaVuSans-75"/>
    <use x="615.673828" xlink:href="#DejaVuSans-62"/>
    <use x="679.150391" xlink:href="#DejaVuSans-2e"/>
    <use x="710.9375" xlink:href="#DejaVuSans-63"/>
    <use x="765.917969" xlink:href="#DejaVuSans-6f"/>
    <use x="827.099609" xlink:href="#DejaVuSans-6d"/>
    <use x="924.511719" xlink:href="#DejaVuSans-2f"/>
    <use x="958.203125" xlink:href="#DejaVuSans-62"/>
    <use x="1021.679688" xlink:href="#DejaVuSans-69"/>
    <use x="1049.462891" xlink:href="#DejaVuSans-6f"/>
    <use x="1110.644531" xlink:href="#DejaVuSans-72"/>
    <use x="1149.507812" xlink:href="#DejaVuSans-65"/>
    <use x="1211.03125" xlink:href="#DejaVuSans-67"/>
    <use x="1274.507812" xlink:href="#DejaVuSans-69"/>
    <use x="1302.291016" xlink:href="#DejaVuSans-73"/>
    <use x="1354.390625" xlink:href="#DejaVuSans-74"/>
    <use x="1393.599609" xlink:href="#DejaVuSans-72"/>
    <use x="1434.712891" xlink:href="#DejaVuSans-79"/>
    <use x="1493.892578" xlink:href="#DejaVuSans-2f"/>
    <use x="1527.583984" xlink:href="#DejaVuSans-62"/>
    <use x="1591.060547" xlink:href="#DejaVuSans-69"/>
    <use x="1618.84375" xlink:href="#DejaVuSans-6f"/>
    <use x="1680.025391" xlink:href="#DejaVuSans-72"/>
    <use x="1718.888672" xlink:href="#DejaVuSans-65"/>
    <use x="1780.412109" xlink:href="#DejaVuSans-67"/>
    <use x="1843.888672" xlink:href="#DejaVuSans-69"/>
    <use x="1871.671875" xlink:href="#DejaVuSans-73"/>
    <use x="1923.771484" xlink:href="#DejaVuSans-74"/>
    <use x="1962.980469" xlink:href="#DejaVuSans-72"/>
    <use x="2004.09375" xlink:href="#DejaVuSans-79"/>
    <use x="2063.273438" xlink:href="#DejaVuSans-20"/>
    <use x="2095.060547" xlink:href="#DejaVuSans-28"/>
    <use x="2134.074219" xlink:href="#DejaVuSans-32"/>
    <use x="2197.697266" xlink:href="#DejaVuSans-30"/>
    <use x="2261.320312" xlink:href="#DejaVuSans-32"/>
    <use x="2324.943359" xlink:href="#DejaVuSans-31"/>
    <use x="2388.566406" xlink:href="#DejaVuSans-2d"/>
    <use x="2424.650391" xlink:href="#DejaVuSans-30"/>
    <use x="2488.273438" xlink:href="#DejaVuSans-35"/>
    <use x="2551.896484" xlink:href="#DejaVuSans-2d"/>
    <use x="2587.980469" xlink:href="#DejaVuSans-31"/>
    <use x="2651.603516" xlink:href="#DejaVuSans-30"/>
    <use x="2715.226562" xlink:href="#DejaVuSans-29"/>
   </g>
  </g>
 </g>
 <defs>
  <clipPath id="p26da038ed2">
   <rect height="121.370049" width="121.379186" x="58.947797" y="10.8"/>
  </clipPath>
  <clipPath id="pd1f56b46ee">
   <rect height="121.370049" width="121.379186" x="293.018436" y="10.8"/>
  </clipPath>
  <clipPath id="p09f54668aa">
   <rect height="121.370049" width="121.379186" x="527.089076" y="10.8"/>
  </clipPath>
  <clipPath id="pf5412c6d98">
   <rect height="121.370049" width="123.331055" x="57.971862" y="152.372572"/>
  </clipPath>
  <clipPath id="p25f394ddf3">
   <rect height="121.370049" width="122.314058" x="292.551001" y="152.372572"/>
  </clipPath>
  <clipPath id="pd4b19c725f">
   <rect height="121.370049" width="142.791972" x="516.382683" y="152.372572"/>
  </clipPath>
  <clipPath id="pc14ed81c46">
   <rect height="121.370049" width="173.291482" x="32.991649" y="293.945144"/>
  </clipPath>
  <clipPath id="pcee1d03330">
   <rect height="121.370049" width="135.185657" x="286.115201" y="293.945144"/>
  </clipPath>
  <clipPath id="p171f8134da">
   <rect height="121.370049" width="134.98024" x="520.288549" y="293.945144"/>
  </clipPath>
  <clipPath id="p8b48a07cb4">
   <rect height="121.370049" width="136.203114" x="51.535833" y="435.517716"/>
  </clipPath>
  <clipPath id="pcb5ce75786">
   <rect height="121.370049" width="140.716211" x="283.349924" y="435.517716"/>
  </clipPath>
 </defs>
</svg>
