<?xml version="1.0" encoding="utf-8" standalone="no"?>
<!DOCTYPE svg PUBLIC "-//W3C//DTD SVG 1.1//EN"
  "http://www.w3.org/Graphics/SVG/1.1/DTD/svg11.dtd">
<svg height="576pt" version="1.1" viewBox="0 0 702 576" width="702pt" xmlns="http://www.w3.org/2000/svg" xmlns:xlink="http://www.w3.org/1999/xlink">
 <metadata>
  <rdf:RDF xmlns:cc="http://creativecommons.org/ns#" xmlns:dc="http://purl.org/dc/elements/1.1/" xmlns:rdf="http://www.w3.org/1999/02/22-rdf-syntax-ns#">
   <cc:Work>
    <dc:type rdf:resource="http://purl.org/dc/dcmitype/StillImage"/>
    <dc:date>2021-07-21T00:48:52.944280</dc:date>
    <dc:format>image/svg+xml</dc:format>
    <dc:creator>
     <cc:Agent>
      <dc:title>Matplotlib v3.4.2, https://matplotlib.org/</dc:title>
     </cc:Agent>
    </dc:creator>
   </cc:Work>
  </rdf:RDF>
 </metadata>
 <defs>
  <style type="text/css">*{stroke-linecap:butt;stroke-linejoin:round;}</style>
 </defs>
 <g id="figure_1">
  <g id="patch_1">
   <path d="M 0 576 
L 702 576 
L 702 0 
L 0 0 
z
" style="fill:#ffffff;"/>
  </g>
  <g id="axes_1">
   <g id="patch_2">
    <path clip-path="url(#p1e40d66daf)" d="M 164.647554 82.200002 
C 163.455793 84.527124 161.883383 86.638754 159.99543 88.447461 
C 158.107476 90.256168 155.930401 91.736639 153.554344 92.827576 
C 151.178288 93.918514 148.636503 94.604649 146.034231 94.857575 
C 143.43196 95.1105 140.805619 94.926675 138.263954 94.313711 
C 135.722288 93.700746 133.300867 92.667221 131.099949 91.255928 
C 128.899031 89.844635 126.949417 88.075325 125.33183 86.021255 
C 123.714244 83.967186 122.451322 81.657103 121.595357 79.186655 
C 120.739392 76.716207 120.302361 74.119968 120.302361 71.505434 
C 120.302361 68.8909 120.739392 66.29466 121.595357 63.824213 
C 122.451322 61.353765 123.714244 59.043682 125.33183 56.989612 
C 126.949417 54.935543 128.899031 53.166232 131.099949 51.754939 
C 133.300867 50.343646 135.722288 49.310121 138.263954 48.697157 
C 140.805619 48.084193 143.43196 47.900368 146.034231 48.153293 
C 148.636503 48.406218 151.178288 49.092354 153.554344 50.183291 
C 155.930401 51.274229 158.107476 52.7547 159.99543 54.563407 
C 161.883383 56.372114 163.455793 58.483744 164.647554 60.810865 
C 163.337102 54.630918 160.901858 48.744139 157.463429 43.444495 
C 154.025 38.14485 149.64159 33.522048 144.532092 29.806936 
C 139.422593 26.091825 133.673497 23.34729 127.571893 21.710385 
C 121.470289 20.07348 115.119461 19.571914 108.836549 20.230732 
C 102.553637 20.889551 96.444993 22.697602 90.815662 25.564598 
C 85.186332 28.431594 80.131604 32.309004 75.903896 37.003204 
C 71.676188 41.697403 68.347062 47.128932 66.082765 53.026558 
C 63.818468 58.924183 62.657328 65.188075 62.657328 71.505434 
C 62.657328 77.822793 63.818468 84.086684 66.082765 89.98431 
C 68.347062 95.881935 71.676188 101.313464 75.903896 106.007664 
C 80.131604 110.701863 85.186332 114.579274 90.815662 117.44627 
C 96.444993 120.313266 102.553637 122.121317 108.836549 122.780135 
C 115.119461 123.438954 121.470289 122.937387 127.571893 121.300483 
C 133.673497 119.663578 139.422593 116.919043 144.532092 113.203931 
C 149.64159 109.48882 154.025 104.866018 157.463429 99.566373 
C 160.901858 94.266728 163.337102 88.379949 164.647554 82.200002 
" style="fill:#c0c0c0;opacity:0.4;"/>
   </g>
   <g id="patch_3">
    <path clip-path="url(#p1e40d66daf)" d="M 164.647554 60.810865 
C 165.393122 64.326879 165.768974 67.91124 165.768974 71.505434 
C 165.768974 75.099627 165.393122 78.683988 164.647554 82.200002 
C 166.342618 78.890096 167.226725 75.224133 167.226725 71.505434 
C 167.226725 67.786735 166.342618 64.120772 164.647554 60.810865 
" style="fill:#a6cee3;opacity:0.4;"/>
   </g>
   <g id="patch_4">
    <path clip-path="url(#p1e40d66daf)" d="M 164.647554 82.200002 
C 165.393122 78.683988 165.768974 75.099627 165.768974 71.505434 
C 165.768974 67.91124 165.393122 64.326879 164.647554 60.810865 
C 163.455793 58.483744 161.883383 56.372114 159.99543 54.563407 
C 158.107476 52.7547 155.930401 51.274229 153.554344 50.183291 
C 151.178288 49.092354 148.636503 48.406218 146.034231 48.153293 
C 143.43196 47.900368 140.805619 48.084193 138.263954 48.697157 
C 135.722288 49.310121 133.300867 50.343646 131.099949 51.754939 
C 128.899031 53.166232 126.949417 54.935543 125.33183 56.989612 
C 123.714244 59.043682 122.451322 61.353765 121.595357 63.824213 
C 120.739392 66.29466 120.302361 68.8909 120.302361 71.505434 
C 120.302361 74.119968 120.739392 76.716207 121.595357 79.186655 
C 122.451322 81.657103 123.714244 83.967186 125.33183 86.021255 
C 126.949417 88.075325 128.899031 89.844635 131.099949 91.255928 
C 133.300867 92.667221 135.722288 93.700746 138.263954 94.313711 
C 140.805619 94.926675 143.43196 95.1105 146.034231 94.857575 
C 148.636503 94.604649 151.178288 93.918514 153.554344 92.827576 
C 155.930401 91.736639 158.107476 90.256168 159.99543 88.447461 
C 161.883383 86.638754 163.455793 84.527124 164.647554 82.200002 
" style="fill:#fbffff;opacity:0.4;"/>
   </g>
   <g id="text_1">
    <!-- 941 -->
    <g style="fill:#262626;" transform="translate(81.936095 74.264809)scale(0.1 -0.1)">
     <defs>
      <path d="M 703 97 
L 703 672 
Q 941 559 1184 500 
Q 1428 441 1663 441 
Q 2288 441 2617 861 
Q 2947 1281 2994 2138 
Q 2813 1869 2534 1725 
Q 2256 1581 1919 1581 
Q 1219 1581 811 2004 
Q 403 2428 403 3163 
Q 403 3881 828 4315 
Q 1253 4750 1959 4750 
Q 2769 4750 3195 4129 
Q 3622 3509 3622 2328 
Q 3622 1225 3098 567 
Q 2575 -91 1691 -91 
Q 1453 -91 1209 -44 
Q 966 3 703 97 
z
M 1959 2075 
Q 2384 2075 2632 2365 
Q 2881 2656 2881 3163 
Q 2881 3666 2632 3958 
Q 2384 4250 1959 4250 
Q 1534 4250 1286 3958 
Q 1038 3666 1038 3163 
Q 1038 2656 1286 2365 
Q 1534 2075 1959 2075 
z
" id="DejaVuSans-39" transform="scale(0.015625)"/>
      <path d="M 2419 4116 
L 825 1625 
L 2419 1625 
L 2419 4116 
z
M 2253 4666 
L 3047 4666 
L 3047 1625 
L 3713 1625 
L 3713 1100 
L 3047 1100 
L 3047 0 
L 2419 0 
L 2419 1100 
L 313 1100 
L 313 1709 
L 2253 4666 
z
" id="DejaVuSans-34" transform="scale(0.015625)"/>
      <path d="M 794 531 
L 1825 531 
L 1825 4091 
L 703 3866 
L 703 4441 
L 1819 4666 
L 2450 4666 
L 2450 531 
L 3481 531 
L 3481 0 
L 794 0 
L 794 531 
z
" id="DejaVuSans-31" transform="scale(0.015625)"/>
     </defs>
     <use xlink:href="#DejaVuSans-39"/>
     <use x="63.623047" xlink:href="#DejaVuSans-34"/>
     <use x="127.246094" xlink:href="#DejaVuSans-31"/>
    </g>
   </g>
   <g id="text_2">
    <!-- 3 -->
    <g style="fill:#262626;" transform="translate(163.316599 74.264809)scale(0.1 -0.1)">
     <defs>
      <path d="M 2597 2516 
Q 3050 2419 3304 2112 
Q 3559 1806 3559 1356 
Q 3559 666 3084 287 
Q 2609 -91 1734 -91 
Q 1441 -91 1130 -33 
Q 819 25 488 141 
L 488 750 
Q 750 597 1062 519 
Q 1375 441 1716 441 
Q 2309 441 2620 675 
Q 2931 909 2931 1356 
Q 2931 1769 2642 2001 
Q 2353 2234 1838 2234 
L 1294 2234 
L 1294 2753 
L 1863 2753 
Q 2328 2753 2575 2939 
Q 2822 3125 2822 3475 
Q 2822 3834 2567 4026 
Q 2313 4219 1838 4219 
Q 1578 4219 1281 4162 
Q 984 4106 628 3988 
L 628 4550 
Q 988 4650 1302 4700 
Q 1616 4750 1894 4750 
Q 2613 4750 3031 4423 
Q 3450 4097 3450 3541 
Q 3450 3153 3228 2886 
Q 3006 2619 2597 2516 
z
" id="DejaVuSans-33" transform="scale(0.015625)"/>
     </defs>
     <use xlink:href="#DejaVuSans-33"/>
    </g>
   </g>
   <g id="text_3">
    <!-- 242 -->
    <g style="fill:#262626;" transform="translate(133.491917 74.264809)scale(0.1 -0.1)">
     <defs>
      <path d="M 1228 531 
L 3431 531 
L 3431 0 
L 469 0 
L 469 531 
Q 828 903 1448 1529 
Q 2069 2156 2228 2338 
Q 2531 2678 2651 2914 
Q 2772 3150 2772 3378 
Q 2772 3750 2511 3984 
Q 2250 4219 1831 4219 
Q 1534 4219 1204 4116 
Q 875 4013 500 3803 
L 500 4441 
Q 881 4594 1212 4672 
Q 1544 4750 1819 4750 
Q 2544 4750 2975 4387 
Q 3406 4025 3406 3419 
Q 3406 3131 3298 2873 
Q 3191 2616 2906 2266 
Q 2828 2175 2409 1742 
Q 1991 1309 1228 531 
z
" id="DejaVuSans-32" transform="scale(0.015625)"/>
     </defs>
     <use xlink:href="#DejaVuSans-32"/>
     <use x="63.623047" xlink:href="#DejaVuSans-34"/>
     <use x="127.246094" xlink:href="#DejaVuSans-32"/>
    </g>
   </g>
   <g id="text_4">
    <!-- Bioregistry -->
    <g style="fill:#262626;" transform="translate(49.313776 135.930282)scale(0.12 -0.12)">
     <defs>
      <path d="M 1259 2228 
L 1259 519 
L 2272 519 
Q 2781 519 3026 730 
Q 3272 941 3272 1375 
Q 3272 1813 3026 2020 
Q 2781 2228 2272 2228 
L 1259 2228 
z
M 1259 4147 
L 1259 2741 
L 2194 2741 
Q 2656 2741 2882 2914 
Q 3109 3088 3109 3444 
Q 3109 3797 2882 3972 
Q 2656 4147 2194 4147 
L 1259 4147 
z
M 628 4666 
L 2241 4666 
Q 2963 4666 3353 4366 
Q 3744 4066 3744 3513 
Q 3744 3084 3544 2831 
Q 3344 2578 2956 2516 
Q 3422 2416 3680 2098 
Q 3938 1781 3938 1306 
Q 3938 681 3513 340 
Q 3088 0 2303 0 
L 628 0 
L 628 4666 
z
" id="DejaVuSans-42" transform="scale(0.015625)"/>
      <path d="M 603 3500 
L 1178 3500 
L 1178 0 
L 603 0 
L 603 3500 
z
M 603 4863 
L 1178 4863 
L 1178 4134 
L 603 4134 
L 603 4863 
z
" id="DejaVuSans-69" transform="scale(0.015625)"/>
      <path d="M 1959 3097 
Q 1497 3097 1228 2736 
Q 959 2375 959 1747 
Q 959 1119 1226 758 
Q 1494 397 1959 397 
Q 2419 397 2687 759 
Q 2956 1122 2956 1747 
Q 2956 2369 2687 2733 
Q 2419 3097 1959 3097 
z
M 1959 3584 
Q 2709 3584 3137 3096 
Q 3566 2609 3566 1747 
Q 3566 888 3137 398 
Q 2709 -91 1959 -91 
Q 1206 -91 779 398 
Q 353 888 353 1747 
Q 353 2609 779 3096 
Q 1206 3584 1959 3584 
z
" id="DejaVuSans-6f" transform="scale(0.015625)"/>
      <path d="M 2631 2963 
Q 2534 3019 2420 3045 
Q 2306 3072 2169 3072 
Q 1681 3072 1420 2755 
Q 1159 2438 1159 1844 
L 1159 0 
L 581 0 
L 581 3500 
L 1159 3500 
L 1159 2956 
Q 1341 3275 1631 3429 
Q 1922 3584 2338 3584 
Q 2397 3584 2469 3576 
Q 2541 3569 2628 3553 
L 2631 2963 
z
" id="DejaVuSans-72" transform="scale(0.015625)"/>
      <path d="M 3597 1894 
L 3597 1613 
L 953 1613 
Q 991 1019 1311 708 
Q 1631 397 2203 397 
Q 2534 397 2845 478 
Q 3156 559 3463 722 
L 3463 178 
Q 3153 47 2828 -22 
Q 2503 -91 2169 -91 
Q 1331 -91 842 396 
Q 353 884 353 1716 
Q 353 2575 817 3079 
Q 1281 3584 2069 3584 
Q 2775 3584 3186 3129 
Q 3597 2675 3597 1894 
z
M 3022 2063 
Q 3016 2534 2758 2815 
Q 2500 3097 2075 3097 
Q 1594 3097 1305 2825 
Q 1016 2553 972 2059 
L 3022 2063 
z
" id="DejaVuSans-65" transform="scale(0.015625)"/>
      <path d="M 2906 1791 
Q 2906 2416 2648 2759 
Q 2391 3103 1925 3103 
Q 1463 3103 1205 2759 
Q 947 2416 947 1791 
Q 947 1169 1205 825 
Q 1463 481 1925 481 
Q 2391 481 2648 825 
Q 2906 1169 2906 1791 
z
M 3481 434 
Q 3481 -459 3084 -895 
Q 2688 -1331 1869 -1331 
Q 1566 -1331 1297 -1286 
Q 1028 -1241 775 -1147 
L 775 -588 
Q 1028 -725 1275 -790 
Q 1522 -856 1778 -856 
Q 2344 -856 2625 -561 
Q 2906 -266 2906 331 
L 2906 616 
Q 2728 306 2450 153 
Q 2172 0 1784 0 
Q 1141 0 747 490 
Q 353 981 353 1791 
Q 353 2603 747 3093 
Q 1141 3584 1784 3584 
Q 2172 3584 2450 3431 
Q 2728 3278 2906 2969 
L 2906 3500 
L 3481 3500 
L 3481 434 
z
" id="DejaVuSans-67" transform="scale(0.015625)"/>
      <path d="M 2834 3397 
L 2834 2853 
Q 2591 2978 2328 3040 
Q 2066 3103 1784 3103 
Q 1356 3103 1142 2972 
Q 928 2841 928 2578 
Q 928 2378 1081 2264 
Q 1234 2150 1697 2047 
L 1894 2003 
Q 2506 1872 2764 1633 
Q 3022 1394 3022 966 
Q 3022 478 2636 193 
Q 2250 -91 1575 -91 
Q 1294 -91 989 -36 
Q 684 19 347 128 
L 347 722 
Q 666 556 975 473 
Q 1284 391 1588 391 
Q 1994 391 2212 530 
Q 2431 669 2431 922 
Q 2431 1156 2273 1281 
Q 2116 1406 1581 1522 
L 1381 1569 
Q 847 1681 609 1914 
Q 372 2147 372 2553 
Q 372 3047 722 3315 
Q 1072 3584 1716 3584 
Q 2034 3584 2315 3537 
Q 2597 3491 2834 3397 
z
" id="DejaVuSans-73" transform="scale(0.015625)"/>
      <path d="M 1172 4494 
L 1172 3500 
L 2356 3500 
L 2356 3053 
L 1172 3053 
L 1172 1153 
Q 1172 725 1289 603 
Q 1406 481 1766 481 
L 2356 481 
L 2356 0 
L 1766 0 
Q 1100 0 847 248 
Q 594 497 594 1153 
L 594 3053 
L 172 3053 
L 172 3500 
L 594 3500 
L 594 4494 
L 1172 4494 
z
" id="DejaVuSans-74" transform="scale(0.015625)"/>
      <path d="M 2059 -325 
Q 1816 -950 1584 -1140 
Q 1353 -1331 966 -1331 
L 506 -1331 
L 506 -850 
L 844 -850 
Q 1081 -850 1212 -737 
Q 1344 -625 1503 -206 
L 1606 56 
L 191 3500 
L 800 3500 
L 1894 763 
L 2988 3500 
L 3597 3500 
L 2059 -325 
z
" id="DejaVuSans-79" transform="scale(0.015625)"/>
     </defs>
     <use xlink:href="#DejaVuSans-42"/>
     <use x="68.603516" xlink:href="#DejaVuSans-69"/>
     <use x="96.386719" xlink:href="#DejaVuSans-6f"/>
     <use x="157.568359" xlink:href="#DejaVuSans-72"/>
     <use x="196.431641" xlink:href="#DejaVuSans-65"/>
     <use x="257.955078" xlink:href="#DejaVuSans-67"/>
     <use x="321.431641" xlink:href="#DejaVuSans-69"/>
     <use x="349.214844" xlink:href="#DejaVuSans-73"/>
     <use x="401.314453" xlink:href="#DejaVuSans-74"/>
     <use x="440.523438" xlink:href="#DejaVuSans-72"/>
     <use x="481.636719" xlink:href="#DejaVuSans-79"/>
    </g>
   </g>
   <g id="text_5">
    <!-- OBO -->
    <g style="fill:#262626;" transform="translate(143.764543 107.836641)scale(0.12 -0.12)">
     <defs>
      <path d="M 2522 4238 
Q 1834 4238 1429 3725 
Q 1025 3213 1025 2328 
Q 1025 1447 1429 934 
Q 1834 422 2522 422 
Q 3209 422 3611 934 
Q 4013 1447 4013 2328 
Q 4013 3213 3611 3725 
Q 3209 4238 2522 4238 
z
M 2522 4750 
Q 3503 4750 4090 4092 
Q 4678 3434 4678 2328 
Q 4678 1225 4090 567 
Q 3503 -91 2522 -91 
Q 1538 -91 948 565 
Q 359 1222 359 2328 
Q 359 3434 948 4092 
Q 1538 4750 2522 4750 
z
" id="DejaVuSans-4f" transform="scale(0.015625)"/>
     </defs>
     <use xlink:href="#DejaVuSans-4f"/>
     <use x="78.710938" xlink:href="#DejaVuSans-42"/>
     <use x="145.564453" xlink:href="#DejaVuSans-4f"/>
    </g>
   </g>
  </g>
  <g id="axes_2">
   <g id="patch_5">
    <path clip-path="url(#p031ca907fe)" d="M 392.596813 72.423472 
C 392.477714 75.580125 391.745464 78.683646 390.440979 81.560617 
C 389.136493 84.437589 387.284532 87.033407 384.988578 89.203024 
C 382.692623 91.372641 379.996252 93.074879 377.05013 94.214621 
C 374.104008 95.354363 370.964052 95.909977 367.805714 95.850417 
C 364.647376 95.790856 361.5306 95.117252 358.629545 93.867244 
C 355.728489 92.617235 353.098214 90.814547 350.885693 88.559908 
C 348.673172 86.305269 346.920397 83.641473 345.725309 80.717364 
C 344.530222 77.793256 343.915503 74.664333 343.915503 71.505434 
C 343.915503 68.346534 344.530222 65.217612 345.725309 62.293504 
C 346.920397 59.369395 348.673172 56.705598 350.885693 54.45096 
C 353.098214 52.196321 355.728489 50.393633 358.629545 49.143624 
C 361.5306 47.893615 364.647376 47.220011 367.805714 47.160451 
C 370.964052 47.100891 374.104008 47.656505 377.05013 48.796246 
C 379.996252 49.935988 382.692623 51.638226 384.988578 53.807843 
C 387.284532 55.977461 389.136493 58.573279 390.440979 61.45025 
C 391.745464 64.327222 392.477714 67.430743 392.596813 70.587396 
C 392.476945 63.855541 391.039763 57.211875 388.366596 51.032359 
C 385.693429 44.852843 381.835671 39.256283 377.011629 34.559383 
C 372.187588 29.862484 366.490009 26.155547 360.241314 23.648346 
C 353.99262 21.141145 347.312946 19.881882 340.58029 19.941818 
C 333.847635 20.001755 327.191439 21.379738 320.988371 23.997789 
C 314.785303 26.61584 309.154623 30.423625 304.414966 35.205664 
C 299.675309 39.987702 295.917799 45.652057 293.355072 51.878184 
C 290.792344 58.104312 289.473669 64.772512 289.473669 71.505434 
C 289.473669 78.238356 290.792344 84.906555 293.355072 91.132683 
C 295.917799 97.358811 299.675309 103.023165 304.414966 107.805204 
C 309.154623 112.587243 314.785303 116.395027 320.988371 119.013079 
C 327.191439 121.63113 333.847635 123.009113 340.58029 123.069049 
C 347.312946 123.128986 353.99262 121.869723 360.241314 119.362522 
C 366.490009 116.855321 372.187588 113.148384 377.011629 108.451484 
C 381.835671 103.754585 385.693429 98.158025 388.366596 91.978509 
C 391.039763 85.798993 392.476945 79.155327 392.596813 72.423472 
" style="fill:#c0c0c0;opacity:0.4;"/>
   </g>
   <g id="patch_6">
    <path clip-path="url(#p031ca907fe)" d="M 392.596813 70.587396 
C 392.602262 70.893378 392.604986 71.199403 392.604986 71.505434 
C 392.604986 71.811465 392.602262 72.117489 392.596813 72.423472 
C 392.608354 72.117595 392.614126 71.811528 392.614126 71.505434 
C 392.614126 71.19934 392.608354 70.893273 392.596813 70.587396 
" style="fill:#1f78b4;opacity:0.4;"/>
   </g>
   <g id="patch_7">
    <path clip-path="url(#p031ca907fe)" d="M 392.596813 72.423472 
C 392.602262 72.117489 392.604986 71.811465 392.604986 71.505434 
C 392.604986 71.199403 392.602262 70.893378 392.596813 70.587396 
C 392.477714 67.430743 391.745464 64.327222 390.440979 61.45025 
C 389.136493 58.573279 387.284532 55.977461 384.988578 53.807843 
C 382.692623 51.638226 379.996252 49.935988 377.05013 48.796246 
C 374.104008 47.656505 370.964052 47.100891 367.805714 47.160451 
C 364.647376 47.220011 361.5306 47.893615 358.629545 49.143624 
C 355.728489 50.393633 353.098214 52.196321 350.885693 54.45096 
C 348.673172 56.705598 346.920397 59.369395 345.725309 62.293504 
C 344.530222 65.217612 343.915503 68.346534 343.915503 71.505434 
C 343.915503 74.664333 344.530222 77.793256 345.725309 80.717364 
C 346.920397 83.641473 348.673172 86.305269 350.885693 88.559908 
C 353.098214 90.814547 355.728489 92.617235 358.629545 93.867244 
C 361.5306 95.117252 364.647376 95.790856 367.805714 95.850417 
C 370.964052 95.909977 374.104008 95.354363 377.05013 94.214621 
C 379.996252 93.074879 382.692623 91.372641 384.988578 89.203024 
C 387.284532 87.033407 389.136493 84.437589 390.440979 81.560617 
C 391.745464 78.683646 392.477714 75.580125 392.596813 72.423472 
" style="fill:#9cdaff;opacity:0.4;"/>
   </g>
   <g id="text_6">
    <!-- 920 -->
    <g style="fill:#262626;" transform="translate(307.150836 74.264809)scale(0.1 -0.1)">
     <defs>
      <path d="M 2034 4250 
Q 1547 4250 1301 3770 
Q 1056 3291 1056 2328 
Q 1056 1369 1301 889 
Q 1547 409 2034 409 
Q 2525 409 2770 889 
Q 3016 1369 3016 2328 
Q 3016 3291 2770 3770 
Q 2525 4250 2034 4250 
z
M 2034 4750 
Q 2819 4750 3233 4129 
Q 3647 3509 3647 2328 
Q 3647 1150 3233 529 
Q 2819 -91 2034 -91 
Q 1250 -91 836 529 
Q 422 1150 422 2328 
Q 422 3509 836 4129 
Q 1250 4750 2034 4750 
z
" id="DejaVuSans-30" transform="scale(0.015625)"/>
     </defs>
     <use xlink:href="#DejaVuSans-39"/>
     <use x="63.623047" xlink:href="#DejaVuSans-32"/>
     <use x="127.246094" xlink:href="#DejaVuSans-30"/>
    </g>
   </g>
   <g id="text_7">
    <!-- 0 -->
    <g style="fill:#262626;" transform="translate(389.428306 74.264809)scale(0.1 -0.1)">
     <use xlink:href="#DejaVuSans-30"/>
    </g>
   </g>
   <g id="text_8">
    <!-- 264 -->
    <g style="fill:#262626;" transform="translate(358.716495 74.264809)scale(0.1 -0.1)">
     <defs>
      <path d="M 2113 2584 
Q 1688 2584 1439 2293 
Q 1191 2003 1191 1497 
Q 1191 994 1439 701 
Q 1688 409 2113 409 
Q 2538 409 2786 701 
Q 3034 994 3034 1497 
Q 3034 2003 2786 2293 
Q 2538 2584 2113 2584 
z
M 3366 4563 
L 3366 3988 
Q 3128 4100 2886 4159 
Q 2644 4219 2406 4219 
Q 1781 4219 1451 3797 
Q 1122 3375 1075 2522 
Q 1259 2794 1537 2939 
Q 1816 3084 2150 3084 
Q 2853 3084 3261 2657 
Q 3669 2231 3669 1497 
Q 3669 778 3244 343 
Q 2819 -91 2113 -91 
Q 1303 -91 875 529 
Q 447 1150 447 2328 
Q 447 3434 972 4092 
Q 1497 4750 2381 4750 
Q 2619 4750 2861 4703 
Q 3103 4656 3366 4563 
z
" id="DejaVuSans-36" transform="scale(0.015625)"/>
     </defs>
     <use xlink:href="#DejaVuSans-32"/>
     <use x="63.623047" xlink:href="#DejaVuSans-36"/>
     <use x="127.246094" xlink:href="#DejaVuSans-34"/>
    </g>
   </g>
   <g id="text_9">
    <!-- Bioregistry -->
    <g style="fill:#262626;" transform="translate(276.139952 135.984966)scale(0.12 -0.12)">
     <use xlink:href="#DejaVuSans-42"/>
     <use x="68.603516" xlink:href="#DejaVuSans-69"/>
     <use x="96.386719" xlink:href="#DejaVuSans-6f"/>
     <use x="157.568359" xlink:href="#DejaVuSans-72"/>
     <use x="196.431641" xlink:href="#DejaVuSans-65"/>
     <use x="257.955078" xlink:href="#DejaVuSans-67"/>
     <use x="321.431641" xlink:href="#DejaVuSans-69"/>
     <use x="349.214844" xlink:href="#DejaVuSans-73"/>
     <use x="401.314453" xlink:href="#DejaVuSans-74"/>
     <use x="440.523438" xlink:href="#DejaVuSans-72"/>
     <use x="481.636719" xlink:href="#DejaVuSans-79"/>
    </g>
   </g>
   <g id="text_10">
    <!-- OLS -->
    <g style="fill:#262626;" transform="translate(368.264815 108.768619)scale(0.12 -0.12)">
     <defs>
      <path d="M 628 4666 
L 1259 4666 
L 1259 531 
L 3531 531 
L 3531 0 
L 628 0 
L 628 4666 
z
" id="DejaVuSans-4c" transform="scale(0.015625)"/>
      <path d="M 3425 4513 
L 3425 3897 
Q 3066 4069 2747 4153 
Q 2428 4238 2131 4238 
Q 1616 4238 1336 4038 
Q 1056 3838 1056 3469 
Q 1056 3159 1242 3001 
Q 1428 2844 1947 2747 
L 2328 2669 
Q 3034 2534 3370 2195 
Q 3706 1856 3706 1288 
Q 3706 609 3251 259 
Q 2797 -91 1919 -91 
Q 1588 -91 1214 -16 
Q 841 59 441 206 
L 441 856 
Q 825 641 1194 531 
Q 1563 422 1919 422 
Q 2459 422 2753 634 
Q 3047 847 3047 1241 
Q 3047 1584 2836 1778 
Q 2625 1972 2144 2069 
L 1759 2144 
Q 1053 2284 737 2584 
Q 422 2884 422 3419 
Q 422 4038 858 4394 
Q 1294 4750 2059 4750 
Q 2388 4750 2728 4690 
Q 3069 4631 3425 4513 
z
" id="DejaVuSans-53" transform="scale(0.015625)"/>
     </defs>
     <use xlink:href="#DejaVuSans-4f"/>
     <use x="78.710938" xlink:href="#DejaVuSans-4c"/>
     <use x="134.423828" xlink:href="#DejaVuSans-53"/>
    </g>
   </g>
  </g>
  <g id="axes_3">
   <g id="patch_8">
    <path clip-path="url(#p66ae9c4270)" d="M 613.904122 91.793546 
C 611.684967 95.649151 608.848171 99.11466 605.506951 102.051765 
C 602.165731 104.98887 598.365135 107.357971 594.256846 109.064516 
C 590.148556 110.771062 585.787964 111.792043 581.349101 112.086713 
C 576.910238 112.381383 572.452951 111.945769 568.155131 110.797255 
C 563.857311 109.648742 559.776905 107.802814 556.07676 105.333144 
C 552.376616 102.863474 549.106623 99.803358 546.397285 96.274927 
C 543.687947 92.746496 541.575794 88.797322 540.145123 84.585016 
C 538.714451 80.372711 537.98455 75.954067 537.98455 71.505434 
C 537.98455 67.056801 538.714451 62.638157 540.145123 58.425852 
C 541.575794 54.213546 543.687947 50.264372 546.397285 46.735941 
C 549.106623 43.207509 552.376616 40.147394 556.07676 37.677724 
C 559.776905 35.208053 563.857311 33.362126 568.155131 32.213612 
C 572.452951 31.065099 576.910238 30.629485 581.349101 30.924155 
C 585.787964 31.218825 590.148556 32.239806 594.256846 33.946351 
C 598.365135 35.652897 602.165731 38.021998 605.506951 40.959103 
C 608.848171 43.896208 611.684967 47.361717 613.904122 51.217322 
C 611.584733 45.799685 608.35339 40.819688 604.350817 36.494209 
C 600.348245 32.168731 595.633402 28.561487 590.411621 25.829573 
C 585.18984 23.097659 579.538039 21.281317 573.702354 20.459649 
C 567.86667 19.637981 561.933064 19.82309 556.159944 21.006916 
C 550.386824 22.190741 544.859232 24.355844 539.817893 27.407934 
C 534.776554 30.460024 530.29573 34.354144 526.57056 38.920703 
C 522.84539 43.487262 519.930748 48.658994 517.953567 54.21067 
C 515.976385 59.762346 514.965788 65.612187 514.965788 71.505434 
C 514.965788 77.39868 515.976385 83.248522 517.953567 88.800198 
C 519.930748 94.351874 522.84539 99.523606 526.57056 104.090165 
C 530.29573 108.656724 534.776554 112.550843 539.817893 115.602934 
C 544.859232 118.655024 550.386824 120.820127 556.159944 122.003952 
C 561.933064 123.187777 567.86667 123.372887 573.702354 122.551219 
C 579.538039 121.729551 585.18984 119.913209 590.411621 117.181295 
C 595.633402 114.449381 600.348245 110.842137 604.350817 106.516659 
C 608.35339 102.19118 611.584733 97.211183 613.904122 91.793546 
" style="fill:#c0c0c0;opacity:0.4;"/>
   </g>
   <g id="patch_9">
    <path clip-path="url(#p66ae9c4270)" d="M 613.904122 51.217322 
C 616.648987 57.628786 618.064365 64.531112 618.064365 71.505434 
C 618.064365 78.479755 616.648987 85.382081 613.904122 91.793546 
C 617.455955 85.622521 619.325748 78.625621 619.325748 71.505434 
C 619.325748 64.385247 617.455955 57.388347 613.904122 51.217322 
" style="fill:#b2df8a;opacity:0.4;"/>
   </g>
   <g id="patch_10">
    <path clip-path="url(#p66ae9c4270)" d="M 613.904122 91.793546 
C 616.648987 85.382081 618.064365 78.479755 618.064365 71.505434 
C 618.064365 64.531112 616.648987 57.628786 613.904122 51.217322 
C 611.684967 47.361717 608.848171 43.896208 605.506951 40.959103 
C 602.165731 38.021998 598.365135 35.652897 594.256846 33.946351 
C 590.148556 32.239806 585.787964 31.218825 581.349101 30.924155 
C 576.910238 30.629485 572.452951 31.065099 568.155131 32.213612 
C 563.857311 33.362126 559.776905 35.208053 556.07676 37.677724 
C 552.376616 40.147394 549.106623 43.207509 546.397285 46.735941 
C 543.687947 50.264372 541.575794 54.213546 540.145123 58.425852 
C 538.714451 62.638157 537.98455 67.056801 537.98455 71.505434 
C 537.98455 75.954067 538.714451 80.372711 540.145123 84.585016 
C 541.575794 88.797322 543.687947 92.746496 546.397285 96.274927 
C 549.106623 99.803358 552.376616 102.863474 556.07676 105.333144 
C 559.776905 107.802814 563.857311 109.648742 568.155131 110.797255 
C 572.452951 111.945769 576.910238 112.381383 581.349101 112.086713 
C 585.787964 111.792043 590.148556 110.771062 594.256846 109.064516 
C 598.365135 107.357971 602.165731 104.98887 605.506951 102.051765 
C 608.848171 99.11466 611.684967 95.649151 613.904122 91.793546 
" style="fill:#ffffe7;opacity:0.4;"/>
   </g>
   <g id="text_11">
    <!-- 452 -->
    <g style="fill:#262626;" transform="translate(516.931419 74.264809)scale(0.1 -0.1)">
     <defs>
      <path d="M 691 4666 
L 3169 4666 
L 3169 4134 
L 1269 4134 
L 1269 2991 
Q 1406 3038 1543 3061 
Q 1681 3084 1819 3084 
Q 2600 3084 3056 2656 
Q 3513 2228 3513 1497 
Q 3513 744 3044 326 
Q 2575 -91 1722 -91 
Q 1428 -91 1123 -41 
Q 819 9 494 109 
L 494 744 
Q 775 591 1075 516 
Q 1375 441 1709 441 
Q 2250 441 2565 725 
Q 2881 1009 2881 1497 
Q 2881 1984 2565 2268 
Q 2250 2553 1709 2553 
Q 1456 2553 1204 2497 
Q 953 2441 691 2322 
L 691 4666 
z
" id="DejaVuSans-35" transform="scale(0.015625)"/>
     </defs>
     <use xlink:href="#DejaVuSans-34"/>
     <use x="63.623047" xlink:href="#DejaVuSans-35"/>
     <use x="127.246094" xlink:href="#DejaVuSans-32"/>
    </g>
   </g>
   <g id="text_12">
    <!-- 5 -->
    <g style="fill:#262626;" transform="translate(615.513807 74.264809)scale(0.1 -0.1)">
     <use xlink:href="#DejaVuSans-35"/>
    </g>
   </g>
   <g id="text_13">
    <!-- 732 -->
    <g style="fill:#262626;" transform="translate(568.480708 74.264809)scale(0.1 -0.1)">
     <defs>
      <path d="M 525 4666 
L 3525 4666 
L 3525 4397 
L 1831 0 
L 1172 0 
L 2766 4134 
L 525 4134 
L 525 4666 
z
" id="DejaVuSans-37" transform="scale(0.015625)"/>
     </defs>
     <use xlink:href="#DejaVuSans-37"/>
     <use x="63.623047" xlink:href="#DejaVuSans-33"/>
     <use x="127.246094" xlink:href="#DejaVuSans-32"/>
    </g>
   </g>
   <g id="text_14">
    <!-- Bioregistry -->
    <g style="fill:#262626;" transform="translate(501.615702 136.783842)scale(0.12 -0.12)">
     <use xlink:href="#DejaVuSans-42"/>
     <use x="68.603516" xlink:href="#DejaVuSans-69"/>
     <use x="96.386719" xlink:href="#DejaVuSans-6f"/>
     <use x="157.568359" xlink:href="#DejaVuSans-72"/>
     <use x="196.431641" xlink:href="#DejaVuSans-65"/>
     <use x="257.955078" xlink:href="#DejaVuSans-67"/>
     <use x="321.431641" xlink:href="#DejaVuSans-69"/>
     <use x="349.214844" xlink:href="#DejaVuSans-73"/>
     <use x="401.314453" xlink:href="#DejaVuSans-74"/>
     <use x="440.523438" xlink:href="#DejaVuSans-72"/>
     <use x="481.636719" xlink:href="#DejaVuSans-79"/>
    </g>
   </g>
   <g id="text_15">
    <!-- MIRIAM -->
    <g style="fill:#262626;" transform="translate(578.655149 125.905152)scale(0.12 -0.12)">
     <defs>
      <path d="M 628 4666 
L 1569 4666 
L 2759 1491 
L 3956 4666 
L 4897 4666 
L 4897 0 
L 4281 0 
L 4281 4097 
L 3078 897 
L 2444 897 
L 1241 4097 
L 1241 0 
L 628 0 
L 628 4666 
z
" id="DejaVuSans-4d" transform="scale(0.015625)"/>
      <path d="M 628 4666 
L 1259 4666 
L 1259 0 
L 628 0 
L 628 4666 
z
" id="DejaVuSans-49" transform="scale(0.015625)"/>
      <path d="M 2841 2188 
Q 3044 2119 3236 1894 
Q 3428 1669 3622 1275 
L 4263 0 
L 3584 0 
L 2988 1197 
Q 2756 1666 2539 1819 
Q 2322 1972 1947 1972 
L 1259 1972 
L 1259 0 
L 628 0 
L 628 4666 
L 2053 4666 
Q 2853 4666 3247 4331 
Q 3641 3997 3641 3322 
Q 3641 2881 3436 2590 
Q 3231 2300 2841 2188 
z
M 1259 4147 
L 1259 2491 
L 2053 2491 
Q 2509 2491 2742 2702 
Q 2975 2913 2975 3322 
Q 2975 3731 2742 3939 
Q 2509 4147 2053 4147 
L 1259 4147 
z
" id="DejaVuSans-52" transform="scale(0.015625)"/>
      <path d="M 2188 4044 
L 1331 1722 
L 3047 1722 
L 2188 4044 
z
M 1831 4666 
L 2547 4666 
L 4325 0 
L 3669 0 
L 3244 1197 
L 1141 1197 
L 716 0 
L 50 0 
L 1831 4666 
z
" id="DejaVuSans-41" transform="scale(0.015625)"/>
     </defs>
     <use xlink:href="#DejaVuSans-4d"/>
     <use x="86.279297" xlink:href="#DejaVuSans-49"/>
     <use x="115.771484" xlink:href="#DejaVuSans-52"/>
     <use x="185.253906" xlink:href="#DejaVuSans-49"/>
     <use x="214.746094" xlink:href="#DejaVuSans-41"/>
     <use x="283.154297" xlink:href="#DejaVuSans-4d"/>
    </g>
   </g>
  </g>
  <g id="axes_4">
   <g id="patch_11">
    <path clip-path="url(#p22875df9ab)" d="M 146.260327 230.121197 
C 143.758928 228.038734 141.746049 225.43122 140.364805 222.48405 
C 138.98356 219.53688 138.267482 216.321597 138.267482 213.066809 
C 138.267482 209.812021 138.98356 206.596738 140.364805 203.649568 
C 141.746049 200.702398 143.758928 198.094884 146.260327 196.012421 
C 144.26523 190.391993 141.299267 185.165007 137.497611 180.56968 
C 133.695954 175.974352 129.117247 172.08157 123.970161 169.068743 
C 118.823075 166.055916 113.187006 163.96952 107.318816 162.90464 
C 101.450626 161.83976 95.440835 161.812824 89.563335 162.825058 
C 83.685835 163.837292 78.031291 165.873083 72.857404 168.83965 
C 67.683517 171.806217 63.070099 175.657799 59.227402 180.218864 
C 55.384706 184.779928 52.372008 189.980117 50.326609 195.582435 
C 48.281211 201.184754 47.234663 207.102781 47.234663 213.066809 
C 47.234663 219.030837 48.281211 224.948864 50.326609 230.551183 
C 52.372008 236.153501 55.384706 241.35369 59.227402 245.914754 
C 63.070099 250.475819 67.683517 254.327401 72.857404 257.293968 
C 78.031291 260.260535 83.685835 262.296326 89.563335 263.30856 
C 95.440835 264.320794 101.450626 264.293858 107.318816 263.228978 
C 113.187006 262.164098 118.823075 260.077702 123.970161 257.064875 
C 129.117247 254.052048 133.695954 250.159266 137.497611 245.563938 
C 141.299267 240.968611 144.26523 235.741625 146.260327 230.121197 
" style="fill:#c0c0c0;opacity:0.4;"/>
   </g>
   <g id="patch_12">
    <path clip-path="url(#p22875df9ab)" d="M 146.260327 196.012421 
C 148.204086 201.488224 149.197466 207.256249 149.197466 213.066809 
C 149.197466 218.877369 148.204086 224.645394 146.260327 230.121197 
C 149.500767 232.818926 153.443942 234.538034 157.625871 235.076239 
C 161.8078 235.614444 166.057761 234.949774 169.875677 233.16044 
C 173.693592 231.371105 176.923599 228.530153 179.185635 224.971868 
C 181.44767 221.413584 182.649389 217.283229 182.649389 213.066809 
C 182.649389 208.850389 181.44767 204.720034 179.185635 201.16175 
C 176.923599 197.603465 173.693592 194.762513 169.875677 192.973178 
C 166.057761 191.183844 161.8078 190.519174 157.625871 191.057379 
C 153.443942 191.595584 149.500767 193.314692 146.260327 196.012421 
" style="fill:#33a02c;opacity:0.4;"/>
   </g>
   <g id="patch_13">
    <path clip-path="url(#p22875df9ab)" d="M 146.260327 230.121197 
C 148.204086 224.645394 149.197466 218.877369 149.197466 213.066809 
C 149.197466 207.256249 148.204086 201.488224 146.260327 196.012421 
C 143.758928 198.094884 141.746049 200.702398 140.364805 203.649568 
C 138.98356 206.596738 138.267482 209.812021 138.267482 213.066809 
C 138.267482 216.321597 138.98356 219.53688 140.364805 222.48405 
C 141.746049 225.43122 143.758928 228.038734 146.260327 230.121197 
" style="fill:#aaf6a5;opacity:0.4;"/>
   </g>
   <g id="text_16">
    <!-- 1140 -->
    <g style="fill:#262626;" transform="translate(80.026072 215.826184)scale(0.1 -0.1)">
     <use xlink:href="#DejaVuSans-31"/>
     <use x="63.623047" xlink:href="#DejaVuSans-31"/>
     <use x="127.246094" xlink:href="#DejaVuSans-34"/>
     <use x="190.869141" xlink:href="#DejaVuSans-30"/>
    </g>
   </g>
   <g id="text_17">
    <!-- 186 -->
    <g style="fill:#262626;" transform="translate(156.379678 215.826184)scale(0.1 -0.1)">
     <defs>
      <path d="M 2034 2216 
Q 1584 2216 1326 1975 
Q 1069 1734 1069 1313 
Q 1069 891 1326 650 
Q 1584 409 2034 409 
Q 2484 409 2743 651 
Q 3003 894 3003 1313 
Q 3003 1734 2745 1975 
Q 2488 2216 2034 2216 
z
M 1403 2484 
Q 997 2584 770 2862 
Q 544 3141 544 3541 
Q 544 4100 942 4425 
Q 1341 4750 2034 4750 
Q 2731 4750 3128 4425 
Q 3525 4100 3525 3541 
Q 3525 3141 3298 2862 
Q 3072 2584 2669 2484 
Q 3125 2378 3379 2068 
Q 3634 1759 3634 1313 
Q 3634 634 3220 271 
Q 2806 -91 2034 -91 
Q 1263 -91 848 271 
Q 434 634 434 1313 
Q 434 1759 690 2068 
Q 947 2378 1403 2484 
z
M 1172 3481 
Q 1172 3119 1398 2916 
Q 1625 2713 2034 2713 
Q 2441 2713 2670 2916 
Q 2900 3119 2900 3481 
Q 2900 3844 2670 4047 
Q 2441 4250 2034 4250 
Q 1625 4250 1398 4047 
Q 1172 3844 1172 3481 
z
" id="DejaVuSans-38" transform="scale(0.015625)"/>
     </defs>
     <use xlink:href="#DejaVuSans-31"/>
     <use x="63.623047" xlink:href="#DejaVuSans-38"/>
     <use x="127.246094" xlink:href="#DejaVuSans-36"/>
    </g>
   </g>
   <g id="text_18">
    <!-- 37 -->
    <g style="fill:#262626;" transform="translate(137.369974 215.826184)scale(0.1 -0.1)">
     <use xlink:href="#DejaVuSans-33"/>
     <use x="63.623047" xlink:href="#DejaVuSans-37"/>
    </g>
   </g>
   <g id="text_19">
    <!-- Bioregistry -->
    <g style="fill:#262626;" transform="translate(33.31669 276.824953)scale(0.12 -0.12)">
     <use xlink:href="#DejaVuSans-42"/>
     <use x="68.603516" xlink:href="#DejaVuSans-69"/>
     <use x="96.386719" xlink:href="#DejaVuSans-6f"/>
     <use x="157.568359" xlink:href="#DejaVuSans-72"/>
     <use x="196.431641" xlink:href="#DejaVuSans-65"/>
     <use x="257.955078" xlink:href="#DejaVuSans-67"/>
     <use x="321.431641" xlink:href="#DejaVuSans-69"/>
     <use x="349.214844" xlink:href="#DejaVuSans-73"/>
     <use x="401.314453" xlink:href="#DejaVuSans-74"/>
     <use x="440.523438" xlink:href="#DejaVuSans-72"/>
     <use x="481.636719" xlink:href="#DejaVuSans-79"/>
    </g>
   </g>
   <g id="text_20">
    <!-- Wikidata -->
    <g style="fill:#262626;" transform="translate(160.458435 248.034506)scale(0.12 -0.12)">
     <defs>
      <path d="M 213 4666 
L 850 4666 
L 1831 722 
L 2809 4666 
L 3519 4666 
L 4500 722 
L 5478 4666 
L 6119 4666 
L 4947 0 
L 4153 0 
L 3169 4050 
L 2175 0 
L 1381 0 
L 213 4666 
z
" id="DejaVuSans-57" transform="scale(0.015625)"/>
      <path d="M 581 4863 
L 1159 4863 
L 1159 1991 
L 2875 3500 
L 3609 3500 
L 1753 1863 
L 3688 0 
L 2938 0 
L 1159 1709 
L 1159 0 
L 581 0 
L 581 4863 
z
" id="DejaVuSans-6b" transform="scale(0.015625)"/>
      <path d="M 2906 2969 
L 2906 4863 
L 3481 4863 
L 3481 0 
L 2906 0 
L 2906 525 
Q 2725 213 2448 61 
Q 2172 -91 1784 -91 
Q 1150 -91 751 415 
Q 353 922 353 1747 
Q 353 2572 751 3078 
Q 1150 3584 1784 3584 
Q 2172 3584 2448 3432 
Q 2725 3281 2906 2969 
z
M 947 1747 
Q 947 1113 1208 752 
Q 1469 391 1925 391 
Q 2381 391 2643 752 
Q 2906 1113 2906 1747 
Q 2906 2381 2643 2742 
Q 2381 3103 1925 3103 
Q 1469 3103 1208 2742 
Q 947 2381 947 1747 
z
" id="DejaVuSans-64" transform="scale(0.015625)"/>
      <path d="M 2194 1759 
Q 1497 1759 1228 1600 
Q 959 1441 959 1056 
Q 959 750 1161 570 
Q 1363 391 1709 391 
Q 2188 391 2477 730 
Q 2766 1069 2766 1631 
L 2766 1759 
L 2194 1759 
z
M 3341 1997 
L 3341 0 
L 2766 0 
L 2766 531 
Q 2569 213 2275 61 
Q 1981 -91 1556 -91 
Q 1019 -91 701 211 
Q 384 513 384 1019 
Q 384 1609 779 1909 
Q 1175 2209 1959 2209 
L 2766 2209 
L 2766 2266 
Q 2766 2663 2505 2880 
Q 2244 3097 1772 3097 
Q 1472 3097 1187 3025 
Q 903 2953 641 2809 
L 641 3341 
Q 956 3463 1253 3523 
Q 1550 3584 1831 3584 
Q 2591 3584 2966 3190 
Q 3341 2797 3341 1997 
z
" id="DejaVuSans-61" transform="scale(0.015625)"/>
     </defs>
     <use xlink:href="#DejaVuSans-57"/>
     <use x="96.626953" xlink:href="#DejaVuSans-69"/>
     <use x="124.410156" xlink:href="#DejaVuSans-6b"/>
     <use x="182.320312" xlink:href="#DejaVuSans-69"/>
     <use x="210.103516" xlink:href="#DejaVuSans-64"/>
     <use x="273.580078" xlink:href="#DejaVuSans-61"/>
     <use x="334.859375" xlink:href="#DejaVuSans-74"/>
     <use x="374.068359" xlink:href="#DejaVuSans-61"/>
    </g>
   </g>
  </g>
  <g id="axes_5">
   <g id="patch_14">
    <path clip-path="url(#p73e9329c0a)" d="M 385.849729 236.536209 
C 383.400155 239.814505 380.452365 242.689178 377.11359 245.055656 
C 373.774815 247.422135 370.086035 249.251372 366.181435 250.476828 
C 362.276835 251.702284 358.204342 252.308916 354.112097 252.274657 
C 350.019853 252.240399 345.958086 251.56567 342.07455 250.275015 
C 338.191014 248.98436 334.533377 247.093622 331.234689 244.671577 
C 327.936002 242.249532 325.036753 239.325911 322.642408 236.007063 
C 320.248062 232.688215 318.388009 229.014878 317.129909 225.120674 
C 315.87181 221.22647 315.231107 217.159197 315.231107 213.066809 
C 315.231107 208.974421 315.87181 204.907148 317.129909 201.012944 
C 318.388009 197.11874 320.248062 193.445403 322.642408 190.126555 
C 325.036753 186.807707 327.936002 183.884086 331.234689 181.462041 
C 334.533377 179.039996 338.191014 177.149258 342.07455 175.858603 
C 345.958086 174.567948 350.019853 173.893219 354.112097 173.858961 
C 358.204342 173.824702 362.276835 174.431334 366.181435 175.65679 
C 370.086035 176.882246 373.774815 178.711483 377.11359 181.077962 
C 380.452365 183.44444 383.400155 186.319113 385.849729 189.597409 
C 383.233951 184.48403 379.781617 179.843755 375.635718 175.868777 
C 371.489818 171.893798 366.708393 168.639765 361.489482 166.241452 
C 356.270571 163.84314 350.687236 162.334124 344.97073 161.776906 
C 339.254223 161.219689 333.484574 161.622069 327.900752 162.967382 
C 322.31693 164.312695 316.997106 166.582107 312.161618 169.681623 
C 307.326131 172.781138 303.042674 176.667365 299.488663 181.179342 
C 295.934651 185.691319 293.159839 190.765881 291.279155 196.192847 
C 289.398471 201.619814 288.438243 207.32321 288.438243 213.066809 
C 288.438243 218.810408 289.398471 224.513804 291.279155 229.940771 
C 293.159839 235.367737 295.934651 240.442299 299.488663 244.954276 
C 303.042674 249.466253 307.326131 253.35248 312.161618 256.451995 
C 316.997106 259.551511 322.31693 261.820923 327.900752 263.166236 
C 333.484574 264.511549 339.254223 264.913929 344.97073 264.356712 
C 350.687236 263.799494 356.270571 262.290478 361.489482 259.892166 
C 366.708393 257.493853 371.489818 254.23982 375.635718 250.264841 
C 379.781617 246.289863 383.233951 241.649588 385.849729 236.536209 
" style="fill:#c0c0c0;opacity:0.4;"/>
   </g>
   <g id="patch_15">
    <path clip-path="url(#p73e9329c0a)" d="M 385.849729 189.597409 
C 389.566036 196.862127 391.504223 204.906719 391.504223 213.066809 
C 391.504223 221.226899 389.566036 229.271491 385.849729 236.536209 
C 390.912593 229.760512 393.649551 221.525099 393.649551 213.066809 
C 393.649551 204.608519 390.912593 196.373106 385.849729 189.597409 
" style="fill:#fb9a99;opacity:0.4;"/>
   </g>
   <g id="patch_16">
    <path clip-path="url(#p73e9329c0a)" d="M 385.849729 236.536209 
C 389.566036 229.271491 391.504223 221.226899 391.504223 213.066809 
C 391.504223 204.906719 389.566036 196.862127 385.849729 189.597409 
C 383.400155 186.319113 380.452365 183.44444 377.11359 181.077962 
C 373.774815 178.711483 370.086035 176.882246 366.181435 175.65679 
C 362.276835 174.431334 358.204342 173.824702 354.112097 173.858961 
C 350.019853 173.893219 345.958086 174.567948 342.07455 175.858603 
C 338.191014 177.149258 334.533377 179.039996 331.234689 181.462041 
C 327.936002 183.884086 325.036753 186.807707 322.642408 190.126555 
C 320.248062 193.445403 318.388009 197.11874 317.129909 201.012944 
C 315.87181 204.907148 315.231107 208.974421 315.231107 213.066809 
C 315.231107 217.159197 315.87181 221.22647 317.129909 225.120674 
C 318.388009 229.014878 320.248062 232.688215 322.642408 236.007063 
C 325.036753 239.325911 327.936002 242.249532 331.234689 244.671577 
C 334.533377 247.093622 338.191014 248.98436 342.07455 250.275015 
C 345.958086 251.56567 350.019853 252.240399 354.112097 252.274657 
C 358.204342 252.308916 362.276835 251.702284 366.181435 250.476828 
C 370.086035 249.251372 373.774815 247.422135 377.11359 245.055656 
C 380.452365 242.689178 383.400155 239.814505 385.849729 236.536209 
" style="fill:#fff2f2;opacity:0.4;"/>
   </g>
   <g id="text_21">
    <!-- 509 -->
    <g style="fill:#262626;" transform="translate(292.290925 215.826184)scale(0.1 -0.1)">
     <use xlink:href="#DejaVuSans-35"/>
     <use x="63.623047" xlink:href="#DejaVuSans-30"/>
     <use x="127.246094" xlink:href="#DejaVuSans-39"/>
    </g>
   </g>
   <g id="text_22">
    <!-- 10 -->
    <g style="fill:#262626;" transform="translate(386.214387 215.826184)scale(0.1 -0.1)">
     <use xlink:href="#DejaVuSans-31"/>
     <use x="63.623047" xlink:href="#DejaVuSans-30"/>
    </g>
   </g>
   <g id="text_23">
    <!-- 676 -->
    <g style="fill:#262626;" transform="translate(343.823915 215.826184)scale(0.1 -0.1)">
     <use xlink:href="#DejaVuSans-36"/>
     <use x="63.623047" xlink:href="#DejaVuSans-37"/>
     <use x="127.246094" xlink:href="#DejaVuSans-36"/>
    </g>
   </g>
   <g id="text_24">
    <!-- Bioregistry -->
    <g style="fill:#262626;" transform="translate(275.071858 278.255035)scale(0.12 -0.12)">
     <use xlink:href="#DejaVuSans-42"/>
     <use x="68.603516" xlink:href="#DejaVuSans-69"/>
     <use x="96.386719" xlink:href="#DejaVuSans-6f"/>
     <use x="157.568359" xlink:href="#DejaVuSans-72"/>
     <use x="196.431641" xlink:href="#DejaVuSans-65"/>
     <use x="257.955078" xlink:href="#DejaVuSans-67"/>
     <use x="321.431641" xlink:href="#DejaVuSans-69"/>
     <use x="349.214844" xlink:href="#DejaVuSans-73"/>
     <use x="401.314453" xlink:href="#DejaVuSans-74"/>
     <use x="440.523438" xlink:href="#DejaVuSans-72"/>
     <use x="481.636719" xlink:href="#DejaVuSans-79"/>
    </g>
   </g>
   <g id="text_25">
    <!-- N2T -->
    <g style="fill:#262626;" transform="translate(354.440329 265.931267)scale(0.12 -0.12)">
     <defs>
      <path d="M 628 4666 
L 1478 4666 
L 3547 763 
L 3547 4666 
L 4159 4666 
L 4159 0 
L 3309 0 
L 1241 3903 
L 1241 0 
L 628 0 
L 628 4666 
z
" id="DejaVuSans-4e" transform="scale(0.015625)"/>
      <path d="M -19 4666 
L 3928 4666 
L 3928 4134 
L 2272 4134 
L 2272 0 
L 1638 0 
L 1638 4134 
L -19 4134 
L -19 4666 
z
" id="DejaVuSans-54" transform="scale(0.015625)"/>
     </defs>
     <use xlink:href="#DejaVuSans-4e"/>
     <use x="74.804688" xlink:href="#DejaVuSans-32"/>
     <use x="138.427734" xlink:href="#DejaVuSans-54"/>
    </g>
   </g>
  </g>
  <g id="axes_6">
   <g id="patch_17">
    <path clip-path="url(#p72f34eb0dc)" d="M 602.087544 236.799381 
C 596.268414 236.12441 590.896019 233.33222 586.999624 228.957752 
C 583.10323 224.583284 580.94864 218.924954 580.94864 213.066809 
C 580.94864 207.208664 583.10323 201.550334 586.999624 197.175866 
C 590.896019 192.801398 596.268414 190.009208 602.087544 189.334237 
C 599.451706 184.297861 595.995148 179.735612 591.860044 175.835145 
C 587.724941 171.934678 582.968776 168.750214 577.787181 166.412738 
C 572.605585 164.075261 567.070591 162.617266 561.409863 162.098723 
C 555.749136 161.58018 550.041367 162.008296 544.521328 163.365464 
C 539.00129 164.722631 533.745719 166.989983 528.970788 170.074259 
C 524.195856 173.158534 519.967942 177.016857 516.460949 181.490527 
C 512.953956 185.964197 510.216635 190.991024 508.361579 196.364243 
C 506.506522 201.737463 505.559518 207.382381 505.559518 213.066809 
C 505.559518 218.751237 506.506522 224.396155 508.361579 229.769375 
C 510.216635 235.142594 512.953956 240.169421 516.460949 244.643091 
C 519.967942 249.116761 524.195856 252.975084 528.970788 256.05936 
C 533.745719 259.143635 539.00129 261.410987 544.521328 262.768154 
C 550.041367 264.125322 555.749136 264.553438 561.409863 264.034895 
C 567.070591 263.516352 572.605585 262.058357 577.787181 259.72088 
C 582.968776 257.383404 587.724941 254.19894 591.860044 250.298473 
C 595.995148 246.398006 599.451706 241.835757 602.087544 236.799381 
" style="fill:#c0c0c0;opacity:0.4;"/>
   </g>
   <g id="patch_18">
    <path clip-path="url(#p72f34eb0dc)" d="M 602.087544 189.334237 
C 605.920225 196.657456 607.922482 204.80128 607.922482 213.066809 
C 607.922482 221.332338 605.920225 229.476162 602.087544 236.799381 
C 605.434808 237.187637 608.826651 236.863384 612.039727 235.847974 
C 615.252803 234.832565 618.215003 233.148787 620.731272 230.907514 
C 623.247541 228.666241 625.261408 225.917772 626.640264 222.84309 
C 628.019119 219.768408 628.732018 216.436514 628.732018 213.066809 
C 628.732018 209.697104 628.019119 206.36521 626.640264 203.290528 
C 625.261408 200.215846 623.247541 197.467377 620.731272 195.226104 
C 618.215003 192.984831 615.252803 191.301053 612.039727 190.285644 
C 608.826651 189.270234 605.434808 188.945981 602.087544 189.334237 
" style="fill:#e31a1c;opacity:0.4;"/>
   </g>
   <g id="patch_19">
    <path clip-path="url(#p72f34eb0dc)" d="M 602.087544 236.799381 
C 605.920225 229.476162 607.922482 221.332338 607.922482 213.066809 
C 607.922482 204.80128 605.920225 196.657456 602.087544 189.334237 
C 596.268414 190.009208 590.896019 192.801398 586.999624 197.175866 
C 583.10323 201.550334 580.94864 207.208664 580.94864 213.066809 
C 580.94864 218.924954 583.10323 224.583284 586.999624 228.957752 
C 590.896019 233.33222 596.268414 236.12441 602.087544 236.799381 
" style="fill:#ff999a;opacity:0.4;"/>
   </g>
   <g id="text_26">
    <!-- 1047 -->
    <g style="fill:#262626;" transform="translate(530.529079 215.826184)scale(0.1 -0.1)">
     <use xlink:href="#DejaVuSans-31"/>
     <use x="63.623047" xlink:href="#DejaVuSans-30"/>
     <use x="127.246094" xlink:href="#DejaVuSans-34"/>
     <use x="190.869141" xlink:href="#DejaVuSans-37"/>
    </g>
   </g>
   <g id="text_27">
    <!-- 121 -->
    <g style="fill:#262626;" transform="translate(608.7835 215.826184)scale(0.1 -0.1)">
     <use xlink:href="#DejaVuSans-31"/>
     <use x="63.623047" xlink:href="#DejaVuSans-32"/>
     <use x="127.246094" xlink:href="#DejaVuSans-31"/>
    </g>
   </g>
   <g id="text_28">
    <!-- 137 -->
    <g style="fill:#262626;" transform="translate(584.891811 215.826184)scale(0.1 -0.1)">
     <use xlink:href="#DejaVuSans-31"/>
     <use x="63.623047" xlink:href="#DejaVuSans-33"/>
     <use x="127.246094" xlink:href="#DejaVuSans-37"/>
    </g>
   </g>
   <g id="text_29">
    <!-- Bioregistry -->
    <g style="fill:#262626;" transform="translate(491.841625 277.120074)scale(0.12 -0.12)">
     <use xlink:href="#DejaVuSans-42"/>
     <use x="68.603516" xlink:href="#DejaVuSans-69"/>
     <use x="96.386719" xlink:href="#DejaVuSans-6f"/>
     <use x="157.568359" xlink:href="#DejaVuSans-72"/>
     <use x="196.431641" xlink:href="#DejaVuSans-65"/>
     <use x="257.955078" xlink:href="#DejaVuSans-67"/>
     <use x="321.431641" xlink:href="#DejaVuSans-69"/>
     <use x="349.214844" xlink:href="#DejaVuSans-73"/>
     <use x="401.314453" xlink:href="#DejaVuSans-74"/>
     <use x="440.523438" xlink:href="#DejaVuSans-72"/>
     <use x="481.636719" xlink:href="#DejaVuSans-79"/>
    </g>
   </g>
   <g id="text_30">
    <!-- GO -->
    <g style="fill:#262626;" transform="translate(604.840329 249.830282)scale(0.12 -0.12)">
     <defs>
      <path d="M 3809 666 
L 3809 1919 
L 2778 1919 
L 2778 2438 
L 4434 2438 
L 4434 434 
Q 4069 175 3628 42 
Q 3188 -91 2688 -91 
Q 1594 -91 976 548 
Q 359 1188 359 2328 
Q 359 3472 976 4111 
Q 1594 4750 2688 4750 
Q 3144 4750 3555 4637 
Q 3966 4525 4313 4306 
L 4313 3634 
Q 3963 3931 3569 4081 
Q 3175 4231 2741 4231 
Q 1884 4231 1454 3753 
Q 1025 3275 1025 2328 
Q 1025 1384 1454 906 
Q 1884 428 2741 428 
Q 3075 428 3337 486 
Q 3600 544 3809 666 
z
" id="DejaVuSans-47" transform="scale(0.015625)"/>
     </defs>
     <use xlink:href="#DejaVuSans-47"/>
     <use x="77.490234" xlink:href="#DejaVuSans-4f"/>
    </g>
   </g>
  </g>
  <g id="axes_7">
   <g id="patch_20">
    <path clip-path="url(#pbcfcd726a6)" d="M 123.612951 391.386288 
C 117.365715 387.500256 112.211076 382.084994 108.637655 375.653831 
C 105.064234 369.222667 103.188627 361.985439 103.188627 354.628184 
C 103.188627 347.270929 105.064234 340.033702 108.637655 333.602538 
C 112.211076 327.171374 117.365715 321.756113 123.612951 317.87008 
C 116.481404 311.340192 107.601338 307.02472 98.060585 305.452322 
C 88.519832 303.879923 78.724569 305.117539 69.874742 309.013558 
C 61.024915 312.909577 53.497286 319.298136 48.21401 327.396617 
C 42.930734 335.495098 40.116734 344.958727 40.116734 354.628184 
C 40.116734 364.297641 42.930734 373.761271 48.21401 381.859752 
C 53.497286 389.958233 61.024915 396.346791 69.874742 400.24281 
C 78.724569 404.138829 88.519832 405.376445 98.060585 403.804047 
C 107.601338 402.231648 116.481404 397.916176 123.612951 391.386288 
" style="fill:#c0c0c0;opacity:0.4;"/>
   </g>
   <g id="patch_21">
    <path clip-path="url(#pbcfcd726a6)" d="M 123.612951 317.87008 
C 128.712346 322.53926 132.784764 328.218902 135.570603 334.546949 
C 138.356442 340.874995 139.79522 347.714063 139.79522 354.628184 
C 139.79522 361.542305 138.356442 368.381373 135.570603 374.709419 
C 132.784764 381.037466 128.712346 386.717108 123.612951 391.386288 
C 130.167284 395.463347 137.694338 397.714109 145.410911 397.904376 
C 153.127483 398.094644 160.756317 396.217582 167.503619 392.468502 
C 174.250921 388.719421 179.874261 383.233027 183.78852 376.580188 
C 187.702779 369.927349 189.767318 362.347102 189.767318 354.628184 
C 189.767318 346.909266 187.702779 339.329019 183.78852 332.67618 
C 179.874261 326.023341 174.250921 320.536947 167.503619 316.787867 
C 160.756317 313.038786 153.127483 311.161724 145.410911 311.351992 
C 137.694338 311.54226 130.167284 313.793021 123.612951 317.87008 
" style="fill:#fdbf6f;opacity:0.4;"/>
   </g>
   <g id="patch_22">
    <path clip-path="url(#pbcfcd726a6)" d="M 123.612951 391.386288 
C 128.712346 386.717108 132.784764 381.037466 135.570603 374.709419 
C 138.356442 368.381373 139.79522 361.542305 139.79522 354.628184 
C 139.79522 347.714063 138.356442 340.874995 135.570603 334.546949 
C 132.784764 328.218902 128.712346 322.53926 123.612951 317.87008 
C 117.365715 321.756113 112.211076 327.171374 108.637655 333.602538 
C 105.064234 340.033702 103.188627 347.270929 103.188627 354.628184 
C 103.188627 361.985439 105.064234 369.222667 108.637655 375.653831 
C 112.211076 382.084994 117.365715 387.500256 123.612951 391.386288 
" style="fill:#ffffd4;opacity:0.4;"/>
   </g>
   <g id="text_31">
    <!-- 899 -->
    <g style="fill:#262626;" transform="translate(62.108931 357.387559)scale(0.1 -0.1)">
     <use xlink:href="#DejaVuSans-38"/>
     <use x="63.623047" xlink:href="#DejaVuSans-39"/>
     <use x="127.246094" xlink:href="#DejaVuSans-39"/>
    </g>
   </g>
   <g id="text_32">
    <!-- 608 -->
    <g style="fill:#262626;" transform="translate(155.237519 357.387559)scale(0.1 -0.1)">
     <use xlink:href="#DejaVuSans-36"/>
     <use x="63.623047" xlink:href="#DejaVuSans-30"/>
     <use x="127.246094" xlink:href="#DejaVuSans-38"/>
    </g>
   </g>
   <g id="text_33">
    <!-- 286 -->
    <g style="fill:#262626;" transform="translate(111.948174 357.387559)scale(0.1 -0.1)">
     <use xlink:href="#DejaVuSans-32"/>
     <use x="63.623047" xlink:href="#DejaVuSans-38"/>
     <use x="127.246094" xlink:href="#DejaVuSans-36"/>
    </g>
   </g>
   <g id="text_34">
    <!-- Bioregistry -->
    <g style="fill:#262626;" transform="translate(25.056602 418.241981)scale(0.12 -0.12)">
     <use xlink:href="#DejaVuSans-42"/>
     <use x="68.603516" xlink:href="#DejaVuSans-69"/>
     <use x="96.386719" xlink:href="#DejaVuSans-6f"/>
     <use x="157.568359" xlink:href="#DejaVuSans-72"/>
     <use x="196.431641" xlink:href="#DejaVuSans-65"/>
     <use x="257.955078" xlink:href="#DejaVuSans-67"/>
     <use x="321.431641" xlink:href="#DejaVuSans-69"/>
     <use x="349.214844" xlink:href="#DejaVuSans-73"/>
     <use x="401.314453" xlink:href="#DejaVuSans-74"/>
     <use x="440.523438" xlink:href="#DejaVuSans-72"/>
     <use x="481.636719" xlink:href="#DejaVuSans-79"/>
    </g>
   </g>
   <g id="text_35">
    <!-- BioPortal -->
    <g style="fill:#262626;" transform="translate(146.477973 411.692084)scale(0.12 -0.12)">
     <defs>
      <path d="M 1259 4147 
L 1259 2394 
L 2053 2394 
Q 2494 2394 2734 2622 
Q 2975 2850 2975 3272 
Q 2975 3691 2734 3919 
Q 2494 4147 2053 4147 
L 1259 4147 
z
M 628 4666 
L 2053 4666 
Q 2838 4666 3239 4311 
Q 3641 3956 3641 3272 
Q 3641 2581 3239 2228 
Q 2838 1875 2053 1875 
L 1259 1875 
L 1259 0 
L 628 0 
L 628 4666 
z
" id="DejaVuSans-50" transform="scale(0.015625)"/>
      <path d="M 603 4863 
L 1178 4863 
L 1178 0 
L 603 0 
L 603 4863 
z
" id="DejaVuSans-6c" transform="scale(0.015625)"/>
     </defs>
     <use xlink:href="#DejaVuSans-42"/>
     <use x="68.603516" xlink:href="#DejaVuSans-69"/>
     <use x="96.386719" xlink:href="#DejaVuSans-6f"/>
     <use x="157.568359" xlink:href="#DejaVuSans-50"/>
     <use x="214.246094" xlink:href="#DejaVuSans-6f"/>
     <use x="275.427734" xlink:href="#DejaVuSans-72"/>
     <use x="316.541016" xlink:href="#DejaVuSans-74"/>
     <use x="355.75" xlink:href="#DejaVuSans-61"/>
     <use x="417.029297" xlink:href="#DejaVuSans-6c"/>
    </g>
   </g>
  </g>
  <g id="axes_8">
   <g id="patch_23">
    <path clip-path="url(#p0d3d46cdd9)" d="M 359.476981 399.905456 
C 352.884093 401.035165 346.123323 400.711361 339.668579 398.95674 
C 333.213835 397.20212 327.219543 394.058662 322.105884 389.746712 
C 316.992225 385.434763 312.881541 380.057483 310.061977 373.991803 
C 307.242413 367.926123 305.781426 361.317161 305.781426 354.628184 
C 305.781426 347.939207 307.242413 341.330245 310.061977 335.264565 
C 312.881541 329.198885 316.992225 323.821606 322.105884 319.509656 
C 327.219543 315.197707 333.213835 312.054249 339.668579 310.299628 
C 346.123323 308.545008 352.884093 308.221203 359.476981 309.350912 
C 351.677584 305.24017 342.94675 303.213599 334.13404 303.468395 
C 325.321329 303.723192 316.722168 306.250814 309.173304 310.80531 
C 301.624439 315.359806 295.37893 321.788498 291.044501 329.465835 
C 286.710071 337.143172 284.432023 345.811791 284.432023 354.628184 
C 284.432023 363.444577 286.710071 372.113196 291.044501 379.790533 
C 295.37893 387.46787 301.624439 393.896562 309.173304 398.451058 
C 316.722168 403.005554 325.321329 405.533177 334.13404 405.787973 
C 342.94675 406.042769 351.677584 404.016198 359.476981 399.905456 
" style="fill:#c0c0c0;opacity:0.4;"/>
   </g>
   <g id="patch_24">
    <path clip-path="url(#p0d3d46cdd9)" d="M 359.476981 309.350912 
C 367.720147 313.695547 374.622426 320.209919 379.436064 328.188298 
C 384.249701 336.166676 386.794357 345.310157 386.794357 354.628184 
C 386.794357 363.946212 384.249701 373.089692 379.436064 381.068071 
C 374.622426 389.04645 367.720147 395.560822 359.476981 399.905456 
C 370.156783 398.075443 379.852211 392.524501 386.837127 384.240899 
C 393.822042 375.957296 397.655772 365.463641 397.655772 354.628184 
C 397.655772 343.792727 393.822042 333.299072 386.837127 325.01547 
C 379.852211 316.731867 370.156783 311.180925 359.476981 309.350912 
" style="fill:#ff7f00;opacity:0.4;"/>
   </g>
   <g id="patch_25">
    <path clip-path="url(#p0d3d46cdd9)" d="M 359.476981 399.905456 
C 367.720147 395.560822 374.622426 389.04645 379.436064 381.068071 
C 384.249701 373.089692 386.794357 363.946212 386.794357 354.628184 
C 386.794357 345.310157 384.249701 336.166676 379.436064 328.188298 
C 374.622426 320.209919 367.720147 313.695547 359.476981 309.350912 
C 352.884093 308.221203 346.123323 308.545008 339.668579 310.299628 
C 333.213835 312.054249 327.219543 315.197707 322.105884 319.509656 
C 316.992225 323.821606 312.881541 329.198885 310.061977 335.264565 
C 307.242413 341.330245 305.781426 347.939207 305.781426 354.628184 
C 305.781426 361.317161 307.242413 367.926123 310.061977 373.991803 
C 312.881541 380.057483 316.992225 385.434763 322.105884 389.746712 
C 327.219543 394.058662 333.213835 397.20212 339.668579 398.95674 
C 346.123323 400.711361 352.884093 401.035165 359.476981 399.905456 
" style="fill:#ffdf86;opacity:0.4;"/>
   </g>
   <g id="text_36">
    <!-- 351 -->
    <g style="fill:#262626;" transform="translate(285.562974 357.387559)scale(0.1 -0.1)">
     <use xlink:href="#DejaVuSans-33"/>
     <use x="63.623047" xlink:href="#DejaVuSans-35"/>
     <use x="127.246094" xlink:href="#DejaVuSans-31"/>
    </g>
   </g>
   <g id="text_37">
    <!-- 121 -->
    <g style="fill:#262626;" transform="translate(382.681314 357.387559)scale(0.1 -0.1)">
     <use xlink:href="#DejaVuSans-31"/>
     <use x="63.623047" xlink:href="#DejaVuSans-32"/>
     <use x="127.246094" xlink:href="#DejaVuSans-31"/>
    </g>
   </g>
   <g id="text_38">
    <!-- 832 -->
    <g style="fill:#262626;" transform="translate(336.744142 357.387559)scale(0.1 -0.1)">
     <use xlink:href="#DejaVuSans-38"/>
     <use x="63.623047" xlink:href="#DejaVuSans-33"/>
     <use x="127.246094" xlink:href="#DejaVuSans-32"/>
    </g>
   </g>
   <g id="text_39">
    <!-- Bioregistry -->
    <g style="fill:#262626;" transform="translate(270.713815 419.783393)scale(0.12 -0.12)">
     <use xlink:href="#DejaVuSans-42"/>
     <use x="68.603516" xlink:href="#DejaVuSans-69"/>
     <use x="96.386719" xlink:href="#DejaVuSans-6f"/>
     <use x="157.568359" xlink:href="#DejaVuSans-72"/>
     <use x="196.431641" xlink:href="#DejaVuSans-65"/>
     <use x="257.955078" xlink:href="#DejaVuSans-67"/>
     <use x="321.431641" xlink:href="#DejaVuSans-69"/>
     <use x="349.214844" xlink:href="#DejaVuSans-73"/>
     <use x="401.314453" xlink:href="#DejaVuSans-74"/>
     <use x="440.523438" xlink:href="#DejaVuSans-72"/>
     <use x="481.636719" xlink:href="#DejaVuSans-79"/>
    </g>
   </g>
   <g id="text_40">
    <!-- Prefix Commons -->
    <g style="fill:#262626;" transform="translate(351.718599 414.539399)scale(0.12 -0.12)">
     <defs>
      <path d="M 2375 4863 
L 2375 4384 
L 1825 4384 
Q 1516 4384 1395 4259 
Q 1275 4134 1275 3809 
L 1275 3500 
L 2222 3500 
L 2222 3053 
L 1275 3053 
L 1275 0 
L 697 0 
L 697 3053 
L 147 3053 
L 147 3500 
L 697 3500 
L 697 3744 
Q 697 4328 969 4595 
Q 1241 4863 1831 4863 
L 2375 4863 
z
" id="DejaVuSans-66" transform="scale(0.015625)"/>
      <path d="M 3513 3500 
L 2247 1797 
L 3578 0 
L 2900 0 
L 1881 1375 
L 863 0 
L 184 0 
L 1544 1831 
L 300 3500 
L 978 3500 
L 1906 2253 
L 2834 3500 
L 3513 3500 
z
" id="DejaVuSans-78" transform="scale(0.015625)"/>
      <path id="DejaVuSans-20" transform="scale(0.015625)"/>
      <path d="M 4122 4306 
L 4122 3641 
Q 3803 3938 3442 4084 
Q 3081 4231 2675 4231 
Q 1875 4231 1450 3742 
Q 1025 3253 1025 2328 
Q 1025 1406 1450 917 
Q 1875 428 2675 428 
Q 3081 428 3442 575 
Q 3803 722 4122 1019 
L 4122 359 
Q 3791 134 3420 21 
Q 3050 -91 2638 -91 
Q 1578 -91 968 557 
Q 359 1206 359 2328 
Q 359 3453 968 4101 
Q 1578 4750 2638 4750 
Q 3056 4750 3426 4639 
Q 3797 4528 4122 4306 
z
" id="DejaVuSans-43" transform="scale(0.015625)"/>
      <path d="M 3328 2828 
Q 3544 3216 3844 3400 
Q 4144 3584 4550 3584 
Q 5097 3584 5394 3201 
Q 5691 2819 5691 2113 
L 5691 0 
L 5113 0 
L 5113 2094 
Q 5113 2597 4934 2840 
Q 4756 3084 4391 3084 
Q 3944 3084 3684 2787 
Q 3425 2491 3425 1978 
L 3425 0 
L 2847 0 
L 2847 2094 
Q 2847 2600 2669 2842 
Q 2491 3084 2119 3084 
Q 1678 3084 1418 2786 
Q 1159 2488 1159 1978 
L 1159 0 
L 581 0 
L 581 3500 
L 1159 3500 
L 1159 2956 
Q 1356 3278 1631 3431 
Q 1906 3584 2284 3584 
Q 2666 3584 2933 3390 
Q 3200 3197 3328 2828 
z
" id="DejaVuSans-6d" transform="scale(0.015625)"/>
      <path d="M 3513 2113 
L 3513 0 
L 2938 0 
L 2938 2094 
Q 2938 2591 2744 2837 
Q 2550 3084 2163 3084 
Q 1697 3084 1428 2787 
Q 1159 2491 1159 1978 
L 1159 0 
L 581 0 
L 581 3500 
L 1159 3500 
L 1159 2956 
Q 1366 3272 1645 3428 
Q 1925 3584 2291 3584 
Q 2894 3584 3203 3211 
Q 3513 2838 3513 2113 
z
" id="DejaVuSans-6e" transform="scale(0.015625)"/>
     </defs>
     <use xlink:href="#DejaVuSans-50"/>
     <use x="58.552734" xlink:href="#DejaVuSans-72"/>
     <use x="97.416016" xlink:href="#DejaVuSans-65"/>
     <use x="158.939453" xlink:href="#DejaVuSans-66"/>
     <use x="194.144531" xlink:href="#DejaVuSans-69"/>
     <use x="221.927734" xlink:href="#DejaVuSans-78"/>
     <use x="281.107422" xlink:href="#DejaVuSans-20"/>
     <use x="312.894531" xlink:href="#DejaVuSans-43"/>
     <use x="382.71875" xlink:href="#DejaVuSans-6f"/>
     <use x="443.900391" xlink:href="#DejaVuSans-6d"/>
     <use x="541.3125" xlink:href="#DejaVuSans-6d"/>
     <use x="638.724609" xlink:href="#DejaVuSans-6f"/>
     <use x="699.90625" xlink:href="#DejaVuSans-6e"/>
     <use x="763.285156" xlink:href="#DejaVuSans-73"/>
    </g>
   </g>
  </g>
  <g id="axes_9">
   <g id="patch_26">
    <path clip-path="url(#p9124c0b692)" d="M 609.716515 369.475928 
C 605.89069 369.310974 602.272863 367.673536 599.624045 364.908051 
C 596.975228 362.142566 595.495151 358.457563 595.495151 354.628184 
C 595.495151 350.798805 596.975228 347.113802 599.624045 344.348317 
C 602.272863 341.582832 605.89069 339.945394 609.716515 339.78044 
C 607.949539 333.92219 605.150914 328.426124 601.452572 323.551335 
C 597.75423 318.676546 593.215213 314.500859 588.049497 311.221121 
C 582.883781 307.941383 577.173835 305.609955 571.188834 304.336743 
C 565.203834 303.063531 559.039327 302.868861 552.985918 303.761912 
C 546.932509 304.654962 541.086838 306.621475 535.724479 309.568747 
C 530.36212 312.516018 525.568681 316.396995 521.570132 321.028724 
C 517.571583 325.660452 514.43176 330.968987 512.298677 336.704078 
C 510.165595 342.439168 509.073308 348.509254 509.073308 354.628184 
C 509.073308 360.747114 510.165595 366.8172 512.298677 372.552291 
C 514.43176 378.287381 517.571583 383.595916 521.570132 388.227645 
C 525.568681 392.859373 530.36212 396.74035 535.724479 399.687622 
C 541.086838 402.634893 546.932509 404.601406 552.985918 405.494456 
C 559.039327 406.387507 565.203834 406.192838 571.188834 404.919626 
C 577.173835 403.646414 582.883781 401.314985 588.049497 398.035247 
C 593.215213 394.75551 597.75423 390.579822 601.452572 385.705033 
C 605.150914 380.830245 607.949539 375.334179 609.716515 369.475928 
" style="fill:#c0c0c0;opacity:0.4;"/>
   </g>
   <g id="patch_27">
    <path clip-path="url(#p9124c0b692)" d="M 609.716515 339.78044 
C 611.168954 344.595874 611.906981 349.598474 611.906981 354.628184 
C 611.906981 359.657894 611.168954 364.660494 609.716515 369.475928 
C 611.720142 369.562317 613.72068 369.242249 615.597341 368.53505 
C 617.474002 367.82785 619.188241 366.748045 620.636557 365.360829 
C 622.084873 363.973613 623.237519 362.307479 624.024901 360.463023 
C 624.812283 358.618567 625.218229 356.633673 625.218229 354.628184 
C 625.218229 352.622695 624.812283 350.637801 624.024901 348.793345 
C 623.237519 346.94889 622.084873 345.282755 620.636557 343.89554 
C 619.188241 342.508324 617.474002 341.428518 615.597341 340.721319 
C 613.72068 340.014119 611.720142 339.694052 609.716515 339.78044 
" style="fill:#cab2d6;opacity:0.4;"/>
   </g>
   <g id="patch_28">
    <path clip-path="url(#p9124c0b692)" d="M 609.716515 369.475928 
C 611.168954 364.660494 611.906981 359.657894 611.906981 354.628184 
C 611.906981 349.598474 611.168954 344.595874 609.716515 339.78044 
C 605.89069 339.945394 602.272863 341.582832 599.624045 344.348317 
C 596.975228 347.113802 595.495151 350.798805 595.495151 354.628184 
C 595.495151 358.457563 596.975228 362.142566 599.624045 364.908051 
C 602.272863 367.673536 605.89069 369.310974 609.716515 369.475928 
" style="fill:#ffffff;opacity:0.4;"/>
   </g>
   <g id="text_41">
    <!-- 1132 -->
    <g style="fill:#262626;" transform="translate(539.55923 357.387559)scale(0.1 -0.1)">
     <use xlink:href="#DejaVuSans-31"/>
     <use x="63.623047" xlink:href="#DejaVuSans-31"/>
     <use x="127.246094" xlink:href="#DejaVuSans-33"/>
     <use x="190.869141" xlink:href="#DejaVuSans-32"/>
    </g>
   </g>
   <g id="text_42">
    <!-- 46 -->
    <g style="fill:#262626;" transform="translate(612.200105 357.387559)scale(0.1 -0.1)">
     <use xlink:href="#DejaVuSans-34"/>
     <use x="63.623047" xlink:href="#DejaVuSans-36"/>
    </g>
   </g>
   <g id="text_43">
    <!-- 53 -->
    <g style="fill:#262626;" transform="translate(597.338566 357.387559)scale(0.1 -0.1)">
     <use xlink:href="#DejaVuSans-35"/>
     <use x="63.623047" xlink:href="#DejaVuSans-33"/>
    </g>
   </g>
   <g id="text_44">
    <!-- Bioregistry -->
    <g style="fill:#262626;" transform="translate(495.590769 418.477064)scale(0.12 -0.12)">
     <use xlink:href="#DejaVuSans-42"/>
     <use x="68.603516" xlink:href="#DejaVuSans-69"/>
     <use x="96.386719" xlink:href="#DejaVuSans-6f"/>
     <use x="157.568359" xlink:href="#DejaVuSans-72"/>
     <use x="196.431641" xlink:href="#DejaVuSans-65"/>
     <use x="257.955078" xlink:href="#DejaVuSans-67"/>
     <use x="321.431641" xlink:href="#DejaVuSans-69"/>
     <use x="349.214844" xlink:href="#DejaVuSans-73"/>
     <use x="401.314453" xlink:href="#DejaVuSans-74"/>
     <use x="440.523438" xlink:href="#DejaVuSans-72"/>
     <use x="481.636719" xlink:href="#DejaVuSans-79"/>
    </g>
   </g>
   <g id="text_45">
    <!-- Biolink -->
    <g style="fill:#262626;" transform="translate(610.35669 381.921767)scale(0.12 -0.12)">
     <use xlink:href="#DejaVuSans-42"/>
     <use x="68.603516" xlink:href="#DejaVuSans-69"/>
     <use x="96.386719" xlink:href="#DejaVuSans-6f"/>
     <use x="157.568359" xlink:href="#DejaVuSans-6c"/>
     <use x="185.351562" xlink:href="#DejaVuSans-69"/>
     <use x="213.134766" xlink:href="#DejaVuSans-6e"/>
     <use x="276.513672" xlink:href="#DejaVuSans-6b"/>
    </g>
   </g>
  </g>
  <g id="axes_10">
   <g id="patch_29">
    <path clip-path="url(#pf46837a8c3)" d="M 156.340047 512.871077 
C 152.004211 512.740667 147.885582 510.924815 144.864756 507.811765 
C 141.843929 504.698714 140.152718 500.527356 140.152718 496.189559 
C 140.152718 491.851763 141.843929 487.680404 144.864756 484.567354 
C 147.885582 481.454303 152.004211 479.638451 156.340047 479.508042 
C 154.381238 473.80102 151.43244 468.483365 147.62904 463.799224 
C 143.82564 459.115083 139.226752 455.137258 134.043522 452.048381 
C 128.860292 448.959505 123.17328 446.807585 117.243591 445.691422 
C 111.313902 444.57526 105.233697 444.512202 99.282135 445.505143 
C 93.330573 446.498085 87.600153 448.531594 82.353975 451.512306 
C 77.107797 454.493019 72.427398 458.374608 68.527668 462.978859 
C 64.627938 467.58311 61.569486 472.838464 59.492736 478.503633 
C 57.415985 484.168801 56.353212 490.155736 56.353212 496.189559 
C 56.353212 502.223383 57.415985 508.210317 59.492736 513.875486 
C 61.569486 519.540654 64.627938 524.796008 68.527668 529.40026 
C 72.427398 534.004511 77.107797 537.8861 82.353975 540.866813 
C 87.600153 543.847525 93.330573 545.881034 99.282135 546.873976 
C 105.233697 547.866917 111.313902 547.803859 117.243591 546.687696 
C 123.17328 545.571533 128.860292 543.419614 134.043522 540.330737 
C 139.226752 537.241861 143.82564 533.264036 147.62904 528.579895 
C 151.43244 523.895754 154.381238 518.578098 156.340047 512.871077 
" style="fill:#c0c0c0;opacity:0.4;"/>
   </g>
   <g id="patch_30">
    <path clip-path="url(#pf46837a8c3)" d="M 156.340047 479.508042 
C 158.182689 484.876608 159.123144 490.513572 159.123144 496.189559 
C 159.123144 501.865547 158.182689 507.502511 156.340047 512.871077 
C 158.572851 512.938233 160.796579 512.556423 162.879105 511.748334 
C 164.96163 510.940244 166.860873 509.722203 168.463985 508.166583 
C 170.067097 506.610963 171.341685 504.749198 172.212018 502.691907 
C 173.08235 500.634617 173.53084 498.423372 173.53084 496.189559 
C 173.53084 493.955746 173.08235 491.744501 172.212018 489.687211 
C 171.341685 487.629921 170.067097 485.768155 168.463985 484.212536 
C 166.860873 482.656916 164.96163 481.438875 162.879105 480.630785 
C 160.796579 479.822695 158.572851 479.440886 156.340047 479.508042 
" style="fill:#6a3d9a;opacity:0.4;"/>
   </g>
   <g id="patch_31">
    <path clip-path="url(#pf46837a8c3)" d="M 156.340047 512.871077 
C 158.182689 507.502511 159.123144 501.865547 159.123144 496.189559 
C 159.123144 490.513572 158.182689 484.876608 156.340047 479.508042 
C 152.004211 479.638451 147.885582 481.454303 144.864756 484.567354 
C 141.843929 487.680404 140.152718 491.851763 140.152718 496.189559 
C 140.152718 500.527356 141.843929 504.698714 144.864756 507.811765 
C 147.885582 510.924815 152.004211 512.740667 156.340047 512.871077 
" style="fill:#d1b1f2;opacity:0.4;"/>
   </g>
   <g id="text_46">
    <!-- 1116 -->
    <g style="fill:#262626;" transform="translate(85.527965 498.948934)scale(0.1 -0.1)">
     <use xlink:href="#DejaVuSans-31"/>
     <use x="63.623047" xlink:href="#DejaVuSans-31"/>
     <use x="127.246094" xlink:href="#DejaVuSans-31"/>
     <use x="190.869141" xlink:href="#DejaVuSans-36"/>
    </g>
   </g>
   <g id="text_47">
    <!-- 56 -->
    <g style="fill:#262626;" transform="translate(159.964492 498.948934)scale(0.1 -0.1)">
     <use xlink:href="#DejaVuSans-35"/>
     <use x="63.623047" xlink:href="#DejaVuSans-36"/>
    </g>
   </g>
   <g id="text_48">
    <!-- 69 -->
    <g style="fill:#262626;" transform="translate(143.275431 498.948934)scale(0.1 -0.1)">
     <use xlink:href="#DejaVuSans-36"/>
     <use x="63.623047" xlink:href="#DejaVuSans-39"/>
    </g>
   </g>
   <g id="text_49">
    <!-- Bioregistry -->
    <g style="fill:#262626;" transform="translate(42.838803 560.096351)scale(0.12 -0.12)">
     <use xlink:href="#DejaVuSans-42"/>
     <use x="68.603516" xlink:href="#DejaVuSans-69"/>
     <use x="96.386719" xlink:href="#DejaVuSans-6f"/>
     <use x="157.568359" xlink:href="#DejaVuSans-72"/>
     <use x="196.431641" xlink:href="#DejaVuSans-65"/>
     <use x="257.955078" xlink:href="#DejaVuSans-67"/>
     <use x="321.431641" xlink:href="#DejaVuSans-69"/>
     <use x="349.214844" xlink:href="#DejaVuSans-73"/>
     <use x="401.314453" xlink:href="#DejaVuSans-74"/>
     <use x="440.523438" xlink:href="#DejaVuSans-72"/>
     <use x="481.636719" xlink:href="#DejaVuSans-79"/>
    </g>
   </g>
   <g id="text_50">
    <!-- NCBI -->
    <g style="fill:#262626;" transform="translate(156.841779 525.400447)scale(0.12 -0.12)">
     <use xlink:href="#DejaVuSans-4e"/>
     <use x="74.804688" xlink:href="#DejaVuSans-43"/>
     <use x="144.628906" xlink:href="#DejaVuSans-42"/>
     <use x="213.232422" xlink:href="#DejaVuSans-49"/>
    </g>
   </g>
  </g>
  <g id="axes_11">
   <g id="patch_32">
    <path clip-path="url(#p0d72e368e2)" d="M 379.002417 516.061948 
C 374.178208 515.433007 369.744289 513.068407 366.534248 509.412701 
C 363.324206 505.756995 361.552658 501.054593 361.552658 496.189559 
C 361.552658 491.324526 363.324206 486.622124 366.534248 482.966417 
C 369.744289 479.310711 374.178208 476.946112 379.002417 476.31717 
C 376.725097 470.900097 373.533458 465.914576 369.567157 461.578757 
C 365.600856 457.242938 360.9186 453.620997 355.725268 450.87142 
C 350.531936 448.121842 344.904398 446.285326 339.088896 445.44223 
C 333.273394 444.599134 327.356007 444.761938 321.59566 445.923518 
C 315.835312 447.085099 310.317266 449.228262 305.282974 452.25923 
C 300.248681 455.290198 295.772656 459.164109 292.050756 463.711452 
C 288.328856 468.258795 285.41617 473.412264 283.440148 478.946359 
C 281.464125 484.480453 280.454014 490.313262 280.454014 496.189559 
C 280.454014 502.065857 281.464125 507.898665 283.440148 513.43276 
C 285.41617 518.966855 288.328856 524.120324 292.050756 528.667667 
C 295.772656 533.21501 300.248681 537.088921 305.282974 540.119889 
C 310.317266 543.150857 315.835312 545.29402 321.59566 546.4556 
C 327.356007 547.61718 333.273394 547.779984 339.088896 546.936889 
C 344.904398 546.093793 350.531936 544.257276 355.725268 541.507699 
C 360.9186 538.758122 365.600856 535.136181 369.567157 530.800362 
C 373.533458 526.464543 376.725097 521.479022 379.002417 516.061948 
" style="fill:#c0c0c0;opacity:0.4;"/>
   </g>
   <g id="patch_33">
    <path clip-path="url(#p0d72e368e2)" d="M 379.002417 476.31717 
C 381.647257 482.608467 383.009705 489.364928 383.009705 496.189559 
C 383.009705 503.01419 381.647257 509.770652 379.002417 516.061948 
C 381.828955 516.430449 384.701856 516.191699 387.428792 515.361679 
C 390.155727 514.53166 392.674457 513.129317 394.816361 511.24853 
C 396.958265 509.367744 398.674457 507.051443 399.850043 504.454694 
C 401.02563 501.857945 401.63378 499.040017 401.63378 496.189559 
C 401.63378 493.339101 401.02563 490.521174 399.850043 487.924424 
C 398.674457 485.327675 396.958265 483.011374 394.816361 481.130588 
C 392.674457 479.249802 390.155727 477.847459 387.428792 477.017439 
C 384.701856 476.18742 381.828955 475.948669 379.002417 476.31717 
" style="fill:#ffff99;opacity:0.4;"/>
   </g>
   <g id="patch_34">
    <path clip-path="url(#p0d72e368e2)" d="M 379.002417 516.061948 
C 381.647257 509.770652 383.009705 503.01419 383.009705 496.189559 
C 383.009705 489.364928 381.647257 482.608467 379.002417 476.31717 
C 374.178208 476.946112 369.744289 479.310711 366.534248 482.966417 
C 363.324206 486.622124 361.552658 491.324526 361.552658 496.189559 
C 361.552658 501.054593 363.324206 505.756995 366.534248 509.412701 
C 369.744289 513.068407 374.178208 515.433007 379.002417 516.061948 
" style="fill:#fffff2;opacity:0.4;"/>
   </g>
   <g id="text_51">
    <!-- 1094 -->
    <g style="fill:#262626;" transform="translate(308.278336 498.948934)scale(0.1 -0.1)">
     <use xlink:href="#DejaVuSans-31"/>
     <use x="63.623047" xlink:href="#DejaVuSans-30"/>
     <use x="127.246094" xlink:href="#DejaVuSans-39"/>
     <use x="190.869141" xlink:href="#DejaVuSans-34"/>
    </g>
   </g>
   <g id="text_52">
    <!-- 90 -->
    <g style="fill:#262626;" transform="translate(385.959243 498.948934)scale(0.1 -0.1)">
     <use xlink:href="#DejaVuSans-39"/>
     <use x="63.623047" xlink:href="#DejaVuSans-30"/>
    </g>
   </g>
   <g id="text_53">
    <!-- 91 -->
    <g style="fill:#262626;" transform="translate(365.918681 498.948934)scale(0.1 -0.1)">
     <use xlink:href="#DejaVuSans-39"/>
     <use x="63.623047" xlink:href="#DejaVuSans-31"/>
    </g>
   </g>
   <g id="text_54">
    <!-- Bioregistry -->
    <g style="fill:#262626;" transform="translate(266.832485 560.15145)scale(0.12 -0.12)">
     <use xlink:href="#DejaVuSans-42"/>
     <use x="68.603516" xlink:href="#DejaVuSans-69"/>
     <use x="96.386719" xlink:href="#DejaVuSans-6f"/>
     <use x="157.568359" xlink:href="#DejaVuSans-72"/>
     <use x="196.431641" xlink:href="#DejaVuSans-65"/>
     <use x="257.955078" xlink:href="#DejaVuSans-67"/>
     <use x="321.431641" xlink:href="#DejaVuSans-69"/>
     <use x="349.214844" xlink:href="#DejaVuSans-73"/>
     <use x="401.314453" xlink:href="#DejaVuSans-74"/>
     <use x="440.523438" xlink:href="#DejaVuSans-72"/>
     <use x="481.636719" xlink:href="#DejaVuSans-79"/>
    </g>
   </g>
   <g id="text_55">
    <!-- UniProt -->
    <g style="fill:#262626;" transform="translate(381.593219 528.914166)scale(0.12 -0.12)">
     <defs>
      <path d="M 556 4666 
L 1191 4666 
L 1191 1831 
Q 1191 1081 1462 751 
Q 1734 422 2344 422 
Q 2950 422 3222 751 
Q 3494 1081 3494 1831 
L 3494 4666 
L 4128 4666 
L 4128 1753 
Q 4128 841 3676 375 
Q 3225 -91 2344 -91 
Q 1459 -91 1007 375 
Q 556 841 556 1753 
L 556 4666 
z
" id="DejaVuSans-55" transform="scale(0.015625)"/>
     </defs>
     <use xlink:href="#DejaVuSans-55"/>
     <use x="73.193359" xlink:href="#DejaVuSans-6e"/>
     <use x="136.572266" xlink:href="#DejaVuSans-69"/>
     <use x="164.355469" xlink:href="#DejaVuSans-50"/>
     <use x="222.908203" xlink:href="#DejaVuSans-72"/>
     <use x="261.771484" xlink:href="#DejaVuSans-6f"/>
     <use x="322.953125" xlink:href="#DejaVuSans-74"/>
    </g>
   </g>
  </g>
  <g id="axes_12">
   <g id="patch_35">
    <path clip-path="url(#pefc3381009)" d="M 607.749504 511.525311 
C 604.267777 510.742113 601.154458 508.796087 598.925019 506.009436 
C 596.695579 503.222785 595.480249 499.758288 595.480249 496.189559 
C 595.480249 492.620831 596.695579 489.156334 598.925019 486.369683 
C 601.154458 483.583032 604.267777 481.637006 607.749504 480.853807 
C 605.931071 475.041681 603.09329 469.599043 599.368984 464.780635 
C 595.644678 459.962227 591.092872 455.844415 585.926613 452.619933 
C 580.760354 449.395451 575.061522 447.115403 569.096849 445.886506 
C 563.132176 444.65761 556.996195 444.499341 550.9761 445.419108 
C 544.956005 446.338876 539.147208 448.322101 533.821588 451.275961 
C 528.495968 454.22982 523.737931 458.107499 519.770175 462.727501 
C 515.802419 467.347504 512.687829 472.63661 510.572182 478.347262 
C 508.456536 484.057915 507.373364 490.099607 507.373364 496.189559 
C 507.373364 502.279511 508.456536 508.321204 510.572182 514.031856 
C 512.687829 519.742509 515.802419 525.031614 519.770175 529.651617 
C 523.737931 534.27162 528.495968 538.149298 533.821588 541.103158 
C 539.147208 544.057017 544.956005 546.040243 550.9761 546.96001 
C 556.996195 547.879777 563.132176 547.721509 569.096849 546.492612 
C 575.061522 545.263716 580.760354 542.983668 585.926613 539.759186 
C 591.092872 536.534704 595.644678 532.416892 599.368984 527.598484 
C 603.09329 522.780076 605.931071 517.337438 607.749504 511.525311 
" style="fill:#c0c0c0;opacity:0.4;"/>
   </g>
   <g id="patch_36">
    <path clip-path="url(#pefc3381009)" d="M 607.749504 480.853807 
C 609.302507 485.817558 610.092544 490.988536 610.092544 496.189559 
C 610.092544 501.390582 609.302507 506.56156 607.749504 511.525311 
C 610.049252 512.042629 612.436182 512.036077 614.733055 511.506142 
C 617.029928 510.976207 619.178451 509.936339 621.019087 508.463751 
C 622.859724 506.991163 624.345759 505.12323 625.36685 502.998652 
C 626.387941 500.874075 626.918172 498.546773 626.918172 496.189559 
C 626.918172 493.832345 626.387941 491.505044 625.36685 489.380466 
C 624.345759 487.255889 622.859724 485.387955 621.019087 483.915368 
C 619.178451 482.44278 617.029928 481.402911 614.733055 480.872977 
C 612.436182 480.343042 610.049252 480.33649 607.749504 480.853807 
" style="fill:#b15928;opacity:0.4;"/>
   </g>
   <g id="patch_37">
    <path clip-path="url(#pefc3381009)" d="M 607.749504 511.525311 
C 609.302507 506.56156 610.092544 501.390582 610.092544 496.189559 
C 610.092544 490.988536 609.302507 485.817558 607.749504 480.853807 
C 604.267777 481.637006 601.154458 483.583032 598.925019 486.369683 
C 596.695579 489.156334 595.480249 492.620831 595.480249 496.189559 
C 595.480249 499.758288 596.695579 503.222785 598.925019 506.009436 
C 601.154458 508.796087 604.267777 510.742113 607.749504 511.525311 
" style="fill:#ffc5a2;opacity:0.4;"/>
   </g>
   <g id="text_56">
    <!-- 1138 -->
    <g style="fill:#262626;" transform="translate(538.701806 498.948934)scale(0.1 -0.1)">
     <use xlink:href="#DejaVuSans-31"/>
     <use x="63.623047" xlink:href="#DejaVuSans-31"/>
     <use x="127.246094" xlink:href="#DejaVuSans-33"/>
     <use x="190.869141" xlink:href="#DejaVuSans-38"/>
    </g>
   </g>
   <g id="text_57">
    <!-- 64 -->
    <g style="fill:#262626;" transform="translate(612.142858 498.948934)scale(0.1 -0.1)">
     <use xlink:href="#DejaVuSans-36"/>
     <use x="63.623047" xlink:href="#DejaVuSans-34"/>
    </g>
   </g>
   <g id="text_58">
    <!-- 47 -->
    <g style="fill:#262626;" transform="translate(596.423896 498.948934)scale(0.1 -0.1)">
     <use xlink:href="#DejaVuSans-34"/>
     <use x="63.623047" xlink:href="#DejaVuSans-37"/>
    </g>
   </g>
   <g id="text_59">
    <!-- Bioregistry -->
    <g style="fill:#262626;" transform="translate(493.833579 560.021202)scale(0.12 -0.12)">
     <use xlink:href="#DejaVuSans-42"/>
     <use x="68.603516" xlink:href="#DejaVuSans-69"/>
     <use x="96.386719" xlink:href="#DejaVuSans-6f"/>
     <use x="157.568359" xlink:href="#DejaVuSans-72"/>
     <use x="196.431641" xlink:href="#DejaVuSans-65"/>
     <use x="257.955078" xlink:href="#DejaVuSans-67"/>
     <use x="321.431641" xlink:href="#DejaVuSans-69"/>
     <use x="349.214844" xlink:href="#DejaVuSans-73"/>
     <use x="401.314453" xlink:href="#DejaVuSans-74"/>
     <use x="440.523438" xlink:href="#DejaVuSans-72"/>
     <use x="481.636719" xlink:href="#DejaVuSans-79"/>
    </g>
   </g>
   <g id="text_60">
    <!-- Cellosaurus -->
    <g style="fill:#262626;" transform="translate(611.19921 524.380574)scale(0.12 -0.12)">
     <defs>
      <path d="M 544 1381 
L 544 3500 
L 1119 3500 
L 1119 1403 
Q 1119 906 1312 657 
Q 1506 409 1894 409 
Q 2359 409 2629 706 
Q 2900 1003 2900 1516 
L 2900 3500 
L 3475 3500 
L 3475 0 
L 2900 0 
L 2900 538 
Q 2691 219 2414 64 
Q 2138 -91 1772 -91 
Q 1169 -91 856 284 
Q 544 659 544 1381 
z
M 1991 3584 
L 1991 3584 
z
" id="DejaVuSans-75" transform="scale(0.015625)"/>
     </defs>
     <use xlink:href="#DejaVuSans-43"/>
     <use x="69.824219" xlink:href="#DejaVuSans-65"/>
     <use x="131.347656" xlink:href="#DejaVuSans-6c"/>
     <use x="159.130859" xlink:href="#DejaVuSans-6c"/>
     <use x="186.914062" xlink:href="#DejaVuSans-6f"/>
     <use x="248.095703" xlink:href="#DejaVuSans-73"/>
     <use x="300.195312" xlink:href="#DejaVuSans-61"/>
     <use x="361.474609" xlink:href="#DejaVuSans-75"/>
     <use x="424.853516" xlink:href="#DejaVuSans-72"/>
     <use x="465.966797" xlink:href="#DejaVuSans-75"/>
     <use x="529.345703" xlink:href="#DejaVuSans-73"/>
    </g>
   </g>
  </g>
  <g id="text_61">
   <!-- https://github.com/bioregistry/bioregistry (2021-07-21) -->
   <g style="fill:#808080;opacity:0.5;" transform="translate(240.830625 574.33625)scale(0.08 -0.08)">
    <defs>
     <path d="M 3513 2113 
L 3513 0 
L 2938 0 
L 2938 2094 
Q 2938 2591 2744 2837 
Q 2550 3084 2163 3084 
Q 1697 3084 1428 2787 
Q 1159 2491 1159 1978 
L 1159 0 
L 581 0 
L 581 4863 
L 1159 4863 
L 1159 2956 
Q 1366 3272 1645 3428 
Q 1925 3584 2291 3584 
Q 2894 3584 3203 3211 
Q 3513 2838 3513 2113 
z
" id="DejaVuSans-68" transform="scale(0.015625)"/>
     <path d="M 1159 525 
L 1159 -1331 
L 581 -1331 
L 581 3500 
L 1159 3500 
L 1159 2969 
Q 1341 3281 1617 3432 
Q 1894 3584 2278 3584 
Q 2916 3584 3314 3078 
Q 3713 2572 3713 1747 
Q 3713 922 3314 415 
Q 2916 -91 2278 -91 
Q 1894 -91 1617 61 
Q 1341 213 1159 525 
z
M 3116 1747 
Q 3116 2381 2855 2742 
Q 2594 3103 2138 3103 
Q 1681 3103 1420 2742 
Q 1159 2381 1159 1747 
Q 1159 1113 1420 752 
Q 1681 391 2138 391 
Q 2594 391 2855 752 
Q 3116 1113 3116 1747 
z
" id="DejaVuSans-70" transform="scale(0.015625)"/>
     <path d="M 750 794 
L 1409 794 
L 1409 0 
L 750 0 
L 750 794 
z
M 750 3309 
L 1409 3309 
L 1409 2516 
L 750 2516 
L 750 3309 
z
" id="DejaVuSans-3a" transform="scale(0.015625)"/>
     <path d="M 1625 4666 
L 2156 4666 
L 531 -594 
L 0 -594 
L 1625 4666 
z
" id="DejaVuSans-2f" transform="scale(0.015625)"/>
     <path d="M 3116 1747 
Q 3116 2381 2855 2742 
Q 2594 3103 2138 3103 
Q 1681 3103 1420 2742 
Q 1159 2381 1159 1747 
Q 1159 1113 1420 752 
Q 1681 391 2138 391 
Q 2594 391 2855 752 
Q 3116 1113 3116 1747 
z
M 1159 2969 
Q 1341 3281 1617 3432 
Q 1894 3584 2278 3584 
Q 2916 3584 3314 3078 
Q 3713 2572 3713 1747 
Q 3713 922 3314 415 
Q 2916 -91 2278 -91 
Q 1894 -91 1617 61 
Q 1341 213 1159 525 
L 1159 0 
L 581 0 
L 581 4863 
L 1159 4863 
L 1159 2969 
z
" id="DejaVuSans-62" transform="scale(0.015625)"/>
     <path d="M 684 794 
L 1344 794 
L 1344 0 
L 684 0 
L 684 794 
z
" id="DejaVuSans-2e" transform="scale(0.015625)"/>
     <path d="M 3122 3366 
L 3122 2828 
Q 2878 2963 2633 3030 
Q 2388 3097 2138 3097 
Q 1578 3097 1268 2742 
Q 959 2388 959 1747 
Q 959 1106 1268 751 
Q 1578 397 2138 397 
Q 2388 397 2633 464 
Q 2878 531 3122 666 
L 3122 134 
Q 2881 22 2623 -34 
Q 2366 -91 2075 -91 
Q 1284 -91 818 406 
Q 353 903 353 1747 
Q 353 2603 823 3093 
Q 1294 3584 2113 3584 
Q 2378 3584 2631 3529 
Q 2884 3475 3122 3366 
z
" id="DejaVuSans-63" transform="scale(0.015625)"/>
     <path d="M 1984 4856 
Q 1566 4138 1362 3434 
Q 1159 2731 1159 2009 
Q 1159 1288 1364 580 
Q 1569 -128 1984 -844 
L 1484 -844 
Q 1016 -109 783 600 
Q 550 1309 550 2009 
Q 550 2706 781 3412 
Q 1013 4119 1484 4856 
L 1984 4856 
z
" id="DejaVuSans-28" transform="scale(0.015625)"/>
     <path d="M 313 2009 
L 1997 2009 
L 1997 1497 
L 313 1497 
L 313 2009 
z
" id="DejaVuSans-2d" transform="scale(0.015625)"/>
     <path d="M 513 4856 
L 1013 4856 
Q 1481 4119 1714 3412 
Q 1947 2706 1947 2009 
Q 1947 1309 1714 600 
Q 1481 -109 1013 -844 
L 513 -844 
Q 928 -128 1133 580 
Q 1338 1288 1338 2009 
Q 1338 2731 1133 3434 
Q 928 4138 513 4856 
z
" id="DejaVuSans-29" transform="scale(0.015625)"/>
    </defs>
    <use xlink:href="#DejaVuSans-68"/>
    <use x="63.378906" xlink:href="#DejaVuSans-74"/>
    <use x="102.587891" xlink:href="#DejaVuSans-74"/>
    <use x="141.796875" xlink:href="#DejaVuSans-70"/>
    <use x="205.273438" xlink:href="#DejaVuSans-73"/>
    <use x="257.373047" xlink:href="#DejaVuSans-3a"/>
    <use x="291.064453" xlink:href="#DejaVuSans-2f"/>
    <use x="324.755859" xlink:href="#DejaVuSans-2f"/>
    <use x="358.447266" xlink:href="#DejaVuSans-67"/>
    <use x="421.923828" xlink:href="#DejaVuSans-69"/>
    <use x="449.707031" xlink:href="#DejaVuSans-74"/>
    <use x="488.916016" xlink:href="#DejaVuSans-68"/>
    <use x="552.294922" xlink:href="#DejaVuSans-75"/>
    <use x="615.673828" xlink:href="#DejaVuSans-62"/>
    <use x="679.150391" xlink:href="#DejaVuSans-2e"/>
    <use x="710.9375" xlink:href="#DejaVuSans-63"/>
    <use x="765.917969" xlink:href="#DejaVuSans-6f"/>
    <use x="827.099609" xlink:href="#DejaVuSans-6d"/>
    <use x="924.511719" xlink:href="#DejaVuSans-2f"/>
    <use x="958.203125" xlink:href="#DejaVuSans-62"/>
    <use x="1021.679688" xlink:href="#DejaVuSans-69"/>
    <use x="1049.462891" xlink:href="#DejaVuSans-6f"/>
    <use x="1110.644531" xlink:href="#DejaVuSans-72"/>
    <use x="1149.507812" xlink:href="#DejaVuSans-65"/>
    <use x="1211.03125" xlink:href="#DejaVuSans-67"/>
    <use x="1274.507812" xlink:href="#DejaVuSans-69"/>
    <use x="1302.291016" xlink:href="#DejaVuSans-73"/>
    <use x="1354.390625" xlink:href="#DejaVuSans-74"/>
    <use x="1393.599609" xlink:href="#DejaVuSans-72"/>
    <use x="1434.712891" xlink:href="#DejaVuSans-79"/>
    <use x="1493.892578" xlink:href="#DejaVuSans-2f"/>
    <use x="1527.583984" xlink:href="#DejaVuSans-62"/>
    <use x="1591.060547" xlink:href="#DejaVuSans-69"/>
    <use x="1618.84375" xlink:href="#DejaVuSans-6f"/>
    <use x="1680.025391" xlink:href="#DejaVuSans-72"/>
    <use x="1718.888672" xlink:href="#DejaVuSans-65"/>
    <use x="1780.412109" xlink:href="#DejaVuSans-67"/>
    <use x="1843.888672" xlink:href="#DejaVuSans-69"/>
    <use x="1871.671875" xlink:href="#DejaVuSans-73"/>
    <use x="1923.771484" xlink:href="#DejaVuSans-74"/>
    <use x="1962.980469" xlink:href="#DejaVuSans-72"/>
    <use x="2004.09375" xlink:href="#DejaVuSans-79"/>
    <use x="2063.273438" xlink:href="#DejaVuSans-20"/>
    <use x="2095.060547" xlink:href="#DejaVuSans-28"/>
    <use x="2134.074219" xlink:href="#DejaVuSans-32"/>
    <use x="2197.697266" xlink:href="#DejaVuSans-30"/>
    <use x="2261.320312" xlink:href="#DejaVuSans-32"/>
    <use x="2324.943359" xlink:href="#DejaVuSans-31"/>
    <use x="2388.566406" xlink:href="#DejaVuSans-2d"/>
    <use x="2424.650391" xlink:href="#DejaVuSans-30"/>
    <use x="2488.273438" xlink:href="#DejaVuSans-37"/>
    <use x="2551.896484" xlink:href="#DejaVuSans-2d"/>
    <use x="2587.980469" xlink:href="#DejaVuSans-32"/>
    <use x="2651.603516" xlink:href="#DejaVuSans-31"/>
    <use x="2715.226562" xlink:href="#DejaVuSans-29"/>
   </g>
  </g>
 </g>
 <defs>
  <clipPath id="p1e40d66daf">
   <rect height="121.410868" width="122.868619" x="53.507717" y="10.8"/>
  </clipPath>
  <clipPath id="p031ca907fe">
   <rect height="121.410868" width="121.420007" x="280.333894" y="10.8"/>
  </clipPath>
  <clipPath id="p66ae9c4270">
   <rect height="121.410868" width="122.67225" x="505.809643" y="10.8"/>
  </clipPath>
  <clipPath id="p22875df9ab">
   <rect height="121.410868" width="154.862791" x="37.510631" y="152.361375"/>
  </clipPath>
  <clipPath id="p73e9329c0a">
   <rect height="121.410868" width="123.556196" x="279.265799" y="152.361375"/>
  </clipPath>
  <clipPath id="p72f34eb0dc">
   <rect height="121.410868" width="142.220404" x="496.035566" y="152.361375"/>
  </clipPath>
  <clipPath id="pbcfcd726a6">
   <rect height="121.410868" width="171.382966" x="29.250543" y="293.92275"/>
  </clipPath>
  <clipPath id="p0d3d46cdd9">
   <rect height="121.410868" width="132.272282" x="274.907756" y="293.92275"/>
  </clipPath>
  <clipPath id="p9124c0b692">
   <rect height="121.410868" width="134.722116" x="499.78471" y="293.92275"/>
  </clipPath>
  <clipPath id="pf46837a8c3">
   <rect height="121.410868" width="135.818564" x="47.032744" y="435.484125"/>
  </clipPath>
  <clipPath id="p0d72e368e2">
   <rect height="121.410868" width="140.034943" x="271.026426" y="435.484125"/>
  </clipPath>
  <clipPath id="pefc3381009">
   <rect height="121.410868" width="138.236496" x="498.02752" y="435.484125"/>
  </clipPath>
 </defs>
</svg>
