<?xml version="1.0" encoding="utf-8" standalone="no"?>
<!DOCTYPE svg PUBLIC "-//W3C//DTD SVG 1.1//EN"
  "http://www.w3.org/Graphics/SVG/1.1/DTD/svg11.dtd">
<svg height="576pt" version="1.1" viewBox="0 0 702 576" width="702pt" xmlns="http://www.w3.org/2000/svg" xmlns:xlink="http://www.w3.org/1999/xlink">
 <metadata>
  <rdf:RDF xmlns:cc="http://creativecommons.org/ns#" xmlns:dc="http://purl.org/dc/elements/1.1/" xmlns:rdf="http://www.w3.org/1999/02/22-rdf-syntax-ns#">
   <cc:Work>
    <dc:type rdf:resource="http://purl.org/dc/dcmitype/StillImage"/>
    <dc:date>2021-08-02T18:41:06.247638</dc:date>
    <dc:format>image/svg+xml</dc:format>
    <dc:creator>
     <cc:Agent>
      <dc:title>Matplotlib v3.4.2, https://matplotlib.org/</dc:title>
     </cc:Agent>
    </dc:creator>
   </cc:Work>
  </rdf:RDF>
 </metadata>
 <defs>
  <style type="text/css">*{stroke-linecap:butt;stroke-linejoin:round;}</style>
 </defs>
 <g id="figure_1">
  <g id="patch_1">
   <path d="M 0 576 
L 702 576 
L 702 0 
L 0 0 
z
" style="fill:#ffffff;"/>
  </g>
  <g id="axes_1">
   <g id="patch_2">
    <path clip-path="url(#p3ee9653c9a)" d="M 168.366243 83.437188 
C 167.153832 85.804633 165.554176 87.952852 163.633509 89.792899 
C 161.712842 91.632946 159.498043 93.139071 157.080815 94.248911 
C 154.663588 95.358752 152.07776 96.056777 149.430397 96.314085 
C 146.783035 96.571392 144.111187 96.384382 141.52548 95.760797 
C 138.939774 95.137211 136.476396 94.085778 134.237341 92.650031 
C 131.998286 91.214283 130.01489 89.414315 128.369275 87.324654 
C 126.72366 85.234992 125.438855 82.884881 124.568058 80.371627 
C 123.697261 77.858372 123.252658 75.217146 123.252658 72.557309 
C 123.252658 69.897471 123.697261 67.256246 124.568058 64.742991 
C 125.438855 62.229737 126.72366 59.879626 128.369275 57.789964 
C 130.01489 55.700302 131.998286 53.900334 134.237341 52.464587 
C 136.476396 51.02884 138.939774 49.977406 141.52548 49.353821 
C 144.111187 48.730236 146.783035 48.543225 149.430397 48.800533 
C 152.07776 49.057841 154.663588 49.755866 157.080815 50.865706 
C 159.498043 51.975547 161.712842 53.481671 163.633509 55.321719 
C 165.554176 57.161766 167.153832 59.309985 168.366243 61.67743 
C 167.033084 55.3904 164.555643 49.401618 161.057635 44.010143 
C 157.559626 38.618669 153.100263 33.915765 147.902229 30.13628 
C 142.704196 26.356794 136.855482 23.564703 130.648152 21.899435 
C 124.440823 20.234167 117.979951 19.723909 111.588171 20.394144 
C 105.196392 21.064378 98.9819 22.903758 93.255027 25.820432 
C 87.528154 28.737106 82.385841 32.681702 78.084877 37.457241 
C 73.783913 42.232779 70.397102 47.758423 68.09357 53.75824 
C 65.790038 59.758056 64.608778 66.130485 64.608778 72.557309 
C 64.608778 78.984132 65.790038 85.356561 68.09357 91.356378 
C 70.397102 97.356195 73.783913 102.881839 78.084877 107.657377 
C 82.385841 112.432916 87.528154 116.377512 93.255027 119.294186 
C 98.9819 122.21086 105.196392 124.05024 111.588171 124.720474 
C 117.979951 125.390708 124.440823 124.880451 130.648152 123.215183 
C 136.855482 121.549914 142.704196 118.757824 147.902229 114.978338 
C 153.100263 111.198853 157.559626 106.495949 161.057635 101.104475 
C 164.555643 95.713 167.033084 89.724218 168.366243 83.437188 
" style="fill:#c0c0c0;opacity:0.4;"/>
   </g>
   <g id="patch_3">
    <path clip-path="url(#p3ee9653c9a)" d="M 168.366243 61.67743 
C 169.12473 65.254368 169.507094 68.900837 169.507094 72.557309 
C 169.507094 76.213781 169.12473 79.86025 168.366243 83.437188 
C 170.090678 80.069929 170.990104 76.340443 170.990104 72.557309 
C 170.990104 68.774174 170.090678 65.044689 168.366243 61.67743 
" style="fill:#a6cee3;opacity:0.4;"/>
   </g>
   <g id="patch_4">
    <path clip-path="url(#p3ee9653c9a)" d="M 168.366243 83.437188 
C 169.12473 79.86025 169.507094 76.213781 169.507094 72.557309 
C 169.507094 68.900837 169.12473 65.254368 168.366243 61.67743 
C 167.153832 59.309985 165.554176 57.161766 163.633509 55.321719 
C 161.712842 53.481671 159.498043 51.975547 157.080815 50.865706 
C 154.663588 49.755866 152.07776 49.057841 149.430397 48.800533 
C 146.783035 48.543225 144.111187 48.730236 141.52548 49.353821 
C 138.939774 49.977406 136.476396 51.02884 134.237341 52.464587 
C 131.998286 53.900334 130.01489 55.700302 128.369275 57.789964 
C 126.72366 59.879626 125.438855 62.229737 124.568058 64.742991 
C 123.697261 67.256246 123.252658 69.897471 123.252658 72.557309 
C 123.252658 75.217146 123.697261 77.858372 124.568058 80.371627 
C 125.438855 82.884881 126.72366 85.234992 128.369275 87.324654 
C 130.01489 89.414315 131.998286 91.214283 134.237341 92.650031 
C 136.476396 94.085778 138.939774 95.137211 141.52548 95.760797 
C 144.111187 96.384382 146.783035 96.571392 149.430397 96.314085 
C 152.07776 96.056777 154.663588 95.358752 157.080815 94.248911 
C 159.498043 93.139071 161.712842 91.632946 163.633509 89.792899 
C 165.554176 87.952852 167.153832 85.804633 168.366243 83.437188 
" style="fill:#fbffff;opacity:0.4;"/>
   </g>
   <g id="text_1">
    <!-- 941 -->
    <g style="fill:#262626;" transform="translate(85.589312 75.142465)scale(0.1 -0.1)">
     <defs>
      <path d="M 350 1059 
L 891 1109 
Q 959 728 1153 556 
Q 1347 384 1650 384 
Q 1909 384 2104 503 
Q 2300 622 2425 820 
Q 2550 1019 2634 1356 
Q 2719 1694 2719 2044 
Q 2719 2081 2716 2156 
Q 2547 1888 2255 1720 
Q 1963 1553 1622 1553 
Q 1053 1553 659 1965 
Q 266 2378 266 3053 
Q 266 3750 677 4175 
Q 1088 4600 1706 4600 
Q 2153 4600 2523 4359 
Q 2894 4119 3086 3673 
Q 3278 3228 3278 2384 
Q 3278 1506 3087 986 
Q 2897 466 2520 194 
Q 2144 -78 1638 -78 
Q 1100 -78 759 220 
Q 419 519 350 1059 
z
M 2653 3081 
Q 2653 3566 2395 3850 
Q 2138 4134 1775 4134 
Q 1400 4134 1122 3828 
Q 844 3522 844 3034 
Q 844 2597 1108 2323 
Q 1372 2050 1759 2050 
Q 2150 2050 2401 2323 
Q 2653 2597 2653 3081 
z
" id="ArialMT-39" transform="scale(0.015625)"/>
      <path d="M 2069 0 
L 2069 1097 
L 81 1097 
L 81 1613 
L 2172 4581 
L 2631 4581 
L 2631 1613 
L 3250 1613 
L 3250 1097 
L 2631 1097 
L 2631 0 
L 2069 0 
z
M 2069 1613 
L 2069 3678 
L 634 1613 
L 2069 1613 
z
" id="ArialMT-34" transform="scale(0.015625)"/>
      <path d="M 2384 0 
L 1822 0 
L 1822 3584 
Q 1619 3391 1289 3197 
Q 959 3003 697 2906 
L 697 3450 
Q 1169 3672 1522 3987 
Q 1875 4303 2022 4600 
L 2384 4600 
L 2384 0 
z
" id="ArialMT-31" transform="scale(0.015625)"/>
     </defs>
     <use xlink:href="#ArialMT-39"/>
     <use x="55.615234" xlink:href="#ArialMT-34"/>
     <use x="111.230469" xlink:href="#ArialMT-31"/>
    </g>
   </g>
   <g id="text_2">
    <!-- 3 -->
    <g style="fill:#262626;" transform="translate(167.46813 75.142465)scale(0.1 -0.1)">
     <defs>
      <path d="M 269 1209 
L 831 1284 
Q 928 806 1161 595 
Q 1394 384 1728 384 
Q 2125 384 2398 659 
Q 2672 934 2672 1341 
Q 2672 1728 2419 1979 
Q 2166 2231 1775 2231 
Q 1616 2231 1378 2169 
L 1441 2663 
Q 1497 2656 1531 2656 
Q 1891 2656 2178 2843 
Q 2466 3031 2466 3422 
Q 2466 3731 2256 3934 
Q 2047 4138 1716 4138 
Q 1388 4138 1169 3931 
Q 950 3725 888 3313 
L 325 3413 
Q 428 3978 793 4289 
Q 1159 4600 1703 4600 
Q 2078 4600 2393 4439 
Q 2709 4278 2876 4000 
Q 3044 3722 3044 3409 
Q 3044 3113 2884 2869 
Q 2725 2625 2413 2481 
Q 2819 2388 3044 2092 
Q 3269 1797 3269 1353 
Q 3269 753 2831 336 
Q 2394 -81 1725 -81 
Q 1122 -81 723 278 
Q 325 638 269 1209 
z
" id="ArialMT-33" transform="scale(0.015625)"/>
     </defs>
     <use xlink:href="#ArialMT-33"/>
    </g>
   </g>
   <g id="text_3">
    <!-- 242 -->
    <g style="fill:#262626;" transform="translate(138.03847 75.142465)scale(0.1 -0.1)">
     <defs>
      <path d="M 3222 541 
L 3222 0 
L 194 0 
Q 188 203 259 391 
Q 375 700 629 1000 
Q 884 1300 1366 1694 
Q 2113 2306 2375 2664 
Q 2638 3022 2638 3341 
Q 2638 3675 2398 3904 
Q 2159 4134 1775 4134 
Q 1369 4134 1125 3890 
Q 881 3647 878 3216 
L 300 3275 
Q 359 3922 746 4261 
Q 1134 4600 1788 4600 
Q 2447 4600 2831 4234 
Q 3216 3869 3216 3328 
Q 3216 3053 3103 2787 
Q 2991 2522 2730 2228 
Q 2469 1934 1863 1422 
Q 1356 997 1212 845 
Q 1069 694 975 541 
L 3222 541 
z
" id="ArialMT-32" transform="scale(0.015625)"/>
     </defs>
     <use xlink:href="#ArialMT-32"/>
     <use x="55.615234" xlink:href="#ArialMT-34"/>
     <use x="111.230469" xlink:href="#ArialMT-32"/>
    </g>
   </g>
   <g id="text_4">
    <!-- Bioregistry -->
    <g style="fill:#262626;" transform="translate(60.376686 137.411736)scale(0.12 -0.12)">
     <defs>
      <path d="M 469 0 
L 469 4581 
L 2188 4581 
Q 2713 4581 3030 4442 
Q 3347 4303 3526 4014 
Q 3706 3725 3706 3409 
Q 3706 3116 3547 2856 
Q 3388 2597 3066 2438 
Q 3481 2316 3704 2022 
Q 3928 1728 3928 1328 
Q 3928 1006 3792 729 
Q 3656 453 3456 303 
Q 3256 153 2954 76 
Q 2653 0 2216 0 
L 469 0 
z
M 1075 2656 
L 2066 2656 
Q 2469 2656 2644 2709 
Q 2875 2778 2992 2937 
Q 3109 3097 3109 3338 
Q 3109 3566 3000 3739 
Q 2891 3913 2687 3977 
Q 2484 4041 1991 4041 
L 1075 4041 
L 1075 2656 
z
M 1075 541 
L 2216 541 
Q 2509 541 2628 563 
Q 2838 600 2978 687 
Q 3119 775 3209 942 
Q 3300 1109 3300 1328 
Q 3300 1584 3169 1773 
Q 3038 1963 2805 2039 
Q 2572 2116 2134 2116 
L 1075 2116 
L 1075 541 
z
" id="ArialMT-42" transform="scale(0.015625)"/>
      <path d="M 425 3934 
L 425 4581 
L 988 4581 
L 988 3934 
L 425 3934 
z
M 425 0 
L 425 3319 
L 988 3319 
L 988 0 
L 425 0 
z
" id="ArialMT-69" transform="scale(0.015625)"/>
      <path d="M 213 1659 
Q 213 2581 725 3025 
Q 1153 3394 1769 3394 
Q 2453 3394 2887 2945 
Q 3322 2497 3322 1706 
Q 3322 1066 3130 698 
Q 2938 331 2570 128 
Q 2203 -75 1769 -75 
Q 1072 -75 642 372 
Q 213 819 213 1659 
z
M 791 1659 
Q 791 1022 1069 705 
Q 1347 388 1769 388 
Q 2188 388 2466 706 
Q 2744 1025 2744 1678 
Q 2744 2294 2464 2611 
Q 2184 2928 1769 2928 
Q 1347 2928 1069 2612 
Q 791 2297 791 1659 
z
" id="ArialMT-6f" transform="scale(0.015625)"/>
      <path d="M 416 0 
L 416 3319 
L 922 3319 
L 922 2816 
Q 1116 3169 1280 3281 
Q 1444 3394 1641 3394 
Q 1925 3394 2219 3213 
L 2025 2691 
Q 1819 2813 1613 2813 
Q 1428 2813 1281 2702 
Q 1134 2591 1072 2394 
Q 978 2094 978 1738 
L 978 0 
L 416 0 
z
" id="ArialMT-72" transform="scale(0.015625)"/>
      <path d="M 2694 1069 
L 3275 997 
Q 3138 488 2766 206 
Q 2394 -75 1816 -75 
Q 1088 -75 661 373 
Q 234 822 234 1631 
Q 234 2469 665 2931 
Q 1097 3394 1784 3394 
Q 2450 3394 2872 2941 
Q 3294 2488 3294 1666 
Q 3294 1616 3291 1516 
L 816 1516 
Q 847 969 1125 678 
Q 1403 388 1819 388 
Q 2128 388 2347 550 
Q 2566 713 2694 1069 
z
M 847 1978 
L 2700 1978 
Q 2663 2397 2488 2606 
Q 2219 2931 1791 2931 
Q 1403 2931 1139 2672 
Q 875 2413 847 1978 
z
" id="ArialMT-65" transform="scale(0.015625)"/>
      <path d="M 319 -275 
L 866 -356 
Q 900 -609 1056 -725 
Q 1266 -881 1628 -881 
Q 2019 -881 2231 -725 
Q 2444 -569 2519 -288 
Q 2563 -116 2559 434 
Q 2191 0 1641 0 
Q 956 0 581 494 
Q 206 988 206 1678 
Q 206 2153 378 2554 
Q 550 2956 876 3175 
Q 1203 3394 1644 3394 
Q 2231 3394 2613 2919 
L 2613 3319 
L 3131 3319 
L 3131 450 
Q 3131 -325 2973 -648 
Q 2816 -972 2473 -1159 
Q 2131 -1347 1631 -1347 
Q 1038 -1347 672 -1080 
Q 306 -813 319 -275 
z
M 784 1719 
Q 784 1066 1043 766 
Q 1303 466 1694 466 
Q 2081 466 2343 764 
Q 2606 1063 2606 1700 
Q 2606 2309 2336 2618 
Q 2066 2928 1684 2928 
Q 1309 2928 1046 2623 
Q 784 2319 784 1719 
z
" id="ArialMT-67" transform="scale(0.015625)"/>
      <path d="M 197 991 
L 753 1078 
Q 800 744 1014 566 
Q 1228 388 1613 388 
Q 2000 388 2187 545 
Q 2375 703 2375 916 
Q 2375 1106 2209 1216 
Q 2094 1291 1634 1406 
Q 1016 1563 777 1677 
Q 538 1791 414 1992 
Q 291 2194 291 2438 
Q 291 2659 392 2848 
Q 494 3038 669 3163 
Q 800 3259 1026 3326 
Q 1253 3394 1513 3394 
Q 1903 3394 2198 3281 
Q 2494 3169 2634 2976 
Q 2775 2784 2828 2463 
L 2278 2388 
Q 2241 2644 2061 2787 
Q 1881 2931 1553 2931 
Q 1166 2931 1000 2803 
Q 834 2675 834 2503 
Q 834 2394 903 2306 
Q 972 2216 1119 2156 
Q 1203 2125 1616 2013 
Q 2213 1853 2448 1751 
Q 2684 1650 2818 1456 
Q 2953 1263 2953 975 
Q 2953 694 2789 445 
Q 2625 197 2315 61 
Q 2006 -75 1616 -75 
Q 969 -75 630 194 
Q 291 463 197 991 
z
" id="ArialMT-73" transform="scale(0.015625)"/>
      <path d="M 1650 503 
L 1731 6 
Q 1494 -44 1306 -44 
Q 1000 -44 831 53 
Q 663 150 594 308 
Q 525 466 525 972 
L 525 2881 
L 113 2881 
L 113 3319 
L 525 3319 
L 525 4141 
L 1084 4478 
L 1084 3319 
L 1650 3319 
L 1650 2881 
L 1084 2881 
L 1084 941 
Q 1084 700 1114 631 
Q 1144 563 1211 522 
Q 1278 481 1403 481 
Q 1497 481 1650 503 
z
" id="ArialMT-74" transform="scale(0.015625)"/>
      <path d="M 397 -1278 
L 334 -750 
Q 519 -800 656 -800 
Q 844 -800 956 -737 
Q 1069 -675 1141 -563 
Q 1194 -478 1313 -144 
Q 1328 -97 1363 -6 
L 103 3319 
L 709 3319 
L 1400 1397 
Q 1534 1031 1641 628 
Q 1738 1016 1872 1384 
L 2581 3319 
L 3144 3319 
L 1881 -56 
Q 1678 -603 1566 -809 
Q 1416 -1088 1222 -1217 
Q 1028 -1347 759 -1347 
Q 597 -1347 397 -1278 
z
" id="ArialMT-79" transform="scale(0.015625)"/>
     </defs>
     <use xlink:href="#ArialMT-42"/>
     <use x="66.699219" xlink:href="#ArialMT-69"/>
     <use x="88.916016" xlink:href="#ArialMT-6f"/>
     <use x="144.53125" xlink:href="#ArialMT-72"/>
     <use x="177.832031" xlink:href="#ArialMT-65"/>
     <use x="233.447266" xlink:href="#ArialMT-67"/>
     <use x="289.0625" xlink:href="#ArialMT-69"/>
     <use x="311.279297" xlink:href="#ArialMT-73"/>
     <use x="361.279297" xlink:href="#ArialMT-74"/>
     <use x="389.0625" xlink:href="#ArialMT-72"/>
     <use x="422.363281" xlink:href="#ArialMT-79"/>
    </g>
   </g>
   <g id="text_5">
    <!-- OBO -->
    <g style="fill:#262626;" transform="translate(147.121381 108.831301)scale(0.12 -0.12)">
     <defs>
      <path d="M 309 2231 
Q 309 3372 921 4017 
Q 1534 4663 2503 4663 
Q 3138 4663 3647 4359 
Q 4156 4056 4423 3514 
Q 4691 2972 4691 2284 
Q 4691 1588 4409 1038 
Q 4128 488 3612 205 
Q 3097 -78 2500 -78 
Q 1853 -78 1343 234 
Q 834 547 571 1087 
Q 309 1628 309 2231 
z
M 934 2222 
Q 934 1394 1379 917 
Q 1825 441 2497 441 
Q 3181 441 3623 922 
Q 4066 1403 4066 2288 
Q 4066 2847 3877 3264 
Q 3688 3681 3323 3911 
Q 2959 4141 2506 4141 
Q 1863 4141 1398 3698 
Q 934 3256 934 2222 
z
" id="ArialMT-4f" transform="scale(0.015625)"/>
     </defs>
     <use xlink:href="#ArialMT-4f"/>
     <use x="77.783203" xlink:href="#ArialMT-42"/>
     <use x="144.482422" xlink:href="#ArialMT-4f"/>
    </g>
   </g>
  </g>
  <g id="axes_2">
   <g id="patch_5">
    <path clip-path="url(#p26e2458863)" d="M 392.942722 82.369143 
C 391.822165 84.966352 390.264924 87.352513 388.338679 89.423919 
C 386.412434 91.495325 384.1455 93.221527 381.636402 94.527502 
C 379.127304 95.833477 376.412925 96.700027 373.611236 97.089491 
C 370.809547 97.478955 367.961732 97.385607 365.191562 96.813505 
C 362.421391 96.241403 359.769587 95.198956 357.351399 93.731471 
C 354.933212 92.263986 352.784188 90.393035 350.997728 88.199931 
C 349.211268 86.006827 347.813632 83.523809 346.865564 80.858793 
C 345.917496 78.193777 345.432932 75.385938 345.432932 72.557309 
C 345.432932 69.728679 345.917496 66.920841 346.865564 64.255824 
C 347.813632 61.590808 349.211268 59.107791 350.997728 56.914687 
C 352.784188 54.721583 354.933212 52.850632 357.351399 51.383147 
C 359.769587 49.915661 362.421391 48.873215 365.191562 48.301113 
C 367.961732 47.729011 370.809547 47.635663 373.611236 48.025127 
C 376.412925 48.41459 379.127304 49.28114 381.636402 50.587115 
C 384.1455 51.89309 386.412434 53.619293 388.338679 55.690699 
C 390.264924 57.762105 391.822165 60.148265 392.942722 62.745475 
C 391.731867 56.386696 389.354324 50.306651 385.930493 44.813235 
C 382.506662 39.31982 378.095331 34.507355 372.919891 30.619547 
C 367.74445 26.731739 361.893763 23.835341 355.664111 22.077028 
C 349.434459 20.318715 342.932804 19.728677 336.488393 20.336795 
C 330.043983 20.944912 323.767467 22.740743 317.976691 25.633345 
C 312.185915 28.525948 306.980307 32.465657 302.623481 37.252963 
C 298.266655 42.040269 294.833418 47.592975 292.497629 53.629888 
C 290.161841 59.666802 288.963607 66.08427 288.963607 72.557309 
C 288.963607 79.030348 290.161841 85.447816 292.497629 91.484729 
C 294.833418 97.521643 298.266655 103.074349 302.623481 107.861655 
C 306.980307 112.648961 312.185915 116.58867 317.976691 119.481272 
C 323.767467 122.373875 330.043983 124.169706 336.488393 124.777823 
C 342.932804 125.38594 349.434459 124.795902 355.664111 123.03759 
C 361.893763 121.279277 367.74445 118.382879 372.919891 114.495071 
C 378.095331 110.607263 382.506662 105.794798 385.930493 100.301382 
C 389.354324 94.807967 391.731867 88.727921 392.942722 82.369143 
" style="fill:#c0c0c0;opacity:0.4;"/>
   </g>
   <g id="patch_6">
    <path clip-path="url(#p26e2458863)" d="M 392.942722 62.745475 
C 393.558606 65.979775 393.868601 69.264891 393.868601 72.557309 
C 393.868601 75.849726 393.558606 79.134843 392.942722 82.369143 
C 394.279489 79.270805 394.969085 75.931719 394.969085 72.557309 
C 394.969085 69.182899 394.279489 65.843812 392.942722 62.745475 
" style="fill:#1f78b4;opacity:0.4;"/>
   </g>
   <g id="patch_7">
    <path clip-path="url(#p26e2458863)" d="M 392.942722 82.369143 
C 393.558606 79.134843 393.868601 75.849726 393.868601 72.557309 
C 393.868601 69.264891 393.558606 65.979775 392.942722 62.745475 
C 391.822165 60.148265 390.264924 57.762105 388.338679 55.690699 
C 386.412434 53.619293 384.1455 51.89309 381.636402 50.587115 
C 379.127304 49.28114 376.412925 48.41459 373.611236 48.025127 
C 370.809547 47.635663 367.961732 47.729011 365.191562 48.301113 
C 362.421391 48.873215 359.769587 49.915661 357.351399 51.383147 
C 354.933212 52.850632 352.784188 54.721583 350.997728 56.914687 
C 349.211268 59.107791 347.813632 61.590808 346.865564 64.255824 
C 345.917496 66.920841 345.432932 69.728679 345.432932 72.557309 
C 345.432932 75.385938 345.917496 78.193777 346.865564 80.858793 
C 347.813632 83.523809 349.211268 86.006827 350.997728 88.199931 
C 352.784188 90.393035 354.933212 92.263986 357.351399 93.731471 
C 359.769587 95.198956 362.421391 96.241403 365.191562 96.813505 
C 367.961732 97.385607 370.809547 97.478955 373.611236 97.089491 
C 376.412925 96.700027 379.127304 95.833477 381.636402 94.527502 
C 384.1455 93.221527 386.412434 91.495325 388.338679 89.423919 
C 390.264924 87.352513 391.822165 84.966352 392.942722 82.369143 
" style="fill:#9cdaff;opacity:0.4;"/>
   </g>
   <g id="text_6">
    <!-- 922 -->
    <g style="fill:#262626;" transform="translate(308.856864 75.142465)scale(0.1 -0.1)">
     <use xlink:href="#ArialMT-39"/>
     <use x="55.615234" xlink:href="#ArialMT-32"/>
     <use x="111.230469" xlink:href="#ArialMT-32"/>
    </g>
   </g>
   <g id="text_7">
    <!-- 2 -->
    <g style="fill:#262626;" transform="translate(391.638374 75.142465)scale(0.1 -0.1)">
     <use xlink:href="#ArialMT-32"/>
    </g>
   </g>
   <g id="text_8">
    <!-- 262 -->
    <g style="fill:#262626;" transform="translate(361.30936 75.142465)scale(0.1 -0.1)">
     <defs>
      <path d="M 3184 3459 
L 2625 3416 
Q 2550 3747 2413 3897 
Q 2184 4138 1850 4138 
Q 1581 4138 1378 3988 
Q 1113 3794 959 3422 
Q 806 3050 800 2363 
Q 1003 2672 1297 2822 
Q 1591 2972 1913 2972 
Q 2475 2972 2870 2558 
Q 3266 2144 3266 1488 
Q 3266 1056 3080 686 
Q 2894 316 2569 119 
Q 2244 -78 1831 -78 
Q 1128 -78 684 439 
Q 241 956 241 2144 
Q 241 3472 731 4075 
Q 1159 4600 1884 4600 
Q 2425 4600 2770 4297 
Q 3116 3994 3184 3459 
z
M 888 1484 
Q 888 1194 1011 928 
Q 1134 663 1356 523 
Q 1578 384 1822 384 
Q 2178 384 2434 671 
Q 2691 959 2691 1453 
Q 2691 1928 2437 2201 
Q 2184 2475 1800 2475 
Q 1419 2475 1153 2201 
Q 888 1928 888 1484 
z
" id="ArialMT-36" transform="scale(0.015625)"/>
     </defs>
     <use xlink:href="#ArialMT-32"/>
     <use x="55.615234" xlink:href="#ArialMT-36"/>
     <use x="111.230469" xlink:href="#ArialMT-32"/>
    </g>
   </g>
   <g id="text_9">
    <!-- Bioregistry -->
    <g style="fill:#262626;" transform="translate(284.734854 137.460209)scale(0.12 -0.12)">
     <use xlink:href="#ArialMT-42"/>
     <use x="66.699219" xlink:href="#ArialMT-69"/>
     <use x="88.916016" xlink:href="#ArialMT-6f"/>
     <use x="144.53125" xlink:href="#ArialMT-72"/>
     <use x="177.832031" xlink:href="#ArialMT-65"/>
     <use x="233.447266" xlink:href="#ArialMT-67"/>
     <use x="289.0625" xlink:href="#ArialMT-69"/>
     <use x="311.279297" xlink:href="#ArialMT-73"/>
     <use x="361.279297" xlink:href="#ArialMT-74"/>
     <use x="389.0625" xlink:href="#ArialMT-72"/>
     <use x="422.363281" xlink:href="#ArialMT-79"/>
    </g>
   </g>
   <g id="text_10">
    <!-- OLS -->
    <g style="fill:#262626;" transform="translate(370.201009 109.775789)scale(0.12 -0.12)">
     <defs>
      <path d="M 469 0 
L 469 4581 
L 1075 4581 
L 1075 541 
L 3331 541 
L 3331 0 
L 469 0 
z
" id="ArialMT-4c" transform="scale(0.015625)"/>
      <path d="M 288 1472 
L 859 1522 
Q 900 1178 1048 958 
Q 1197 738 1509 602 
Q 1822 466 2213 466 
Q 2559 466 2825 569 
Q 3091 672 3220 851 
Q 3350 1031 3350 1244 
Q 3350 1459 3225 1620 
Q 3100 1781 2813 1891 
Q 2628 1963 1997 2114 
Q 1366 2266 1113 2400 
Q 784 2572 623 2826 
Q 463 3081 463 3397 
Q 463 3744 659 4045 
Q 856 4347 1234 4503 
Q 1613 4659 2075 4659 
Q 2584 4659 2973 4495 
Q 3363 4331 3572 4012 
Q 3781 3694 3797 3291 
L 3216 3247 
Q 3169 3681 2898 3903 
Q 2628 4125 2100 4125 
Q 1550 4125 1298 3923 
Q 1047 3722 1047 3438 
Q 1047 3191 1225 3031 
Q 1400 2872 2139 2705 
Q 2878 2538 3153 2413 
Q 3553 2228 3743 1945 
Q 3934 1663 3934 1294 
Q 3934 928 3725 604 
Q 3516 281 3123 101 
Q 2731 -78 2241 -78 
Q 1619 -78 1198 103 
Q 778 284 539 648 
Q 300 1013 288 1472 
z
" id="ArialMT-53" transform="scale(0.015625)"/>
     </defs>
     <use xlink:href="#ArialMT-4f"/>
     <use x="77.783203" xlink:href="#ArialMT-4c"/>
     <use x="133.398438" xlink:href="#ArialMT-53"/>
    </g>
   </g>
  </g>
  <g id="axes_3">
   <g id="patch_8">
    <path clip-path="url(#pce3c2e54bd)" d="M 613.701812 93.196964 
C 611.444204 97.119377 608.558253 100.644935 605.159138 103.632932 
C 601.760023 106.62093 597.893572 109.031082 593.714096 110.767197 
C 589.534621 112.503313 585.09847 113.541985 580.582693 113.841761 
C 576.066915 114.141537 571.532394 113.698375 567.160104 112.52996 
C 562.787813 111.361546 558.636703 109.483633 554.872445 106.97117 
C 551.108186 104.458706 547.781532 101.345566 545.025248 97.755996 
C 542.268964 94.166426 540.120213 90.148822 538.664751 85.863528 
C 537.20929 81.578234 536.466742 77.083026 536.466742 72.557309 
C 536.466742 68.031592 537.20929 63.536384 538.664751 59.25109 
C 540.120213 54.965795 542.268964 50.948192 545.025248 47.358622 
C 547.781532 43.769051 551.108186 40.655912 554.872445 38.143448 
C 558.636703 35.630985 562.787813 33.753072 567.160104 32.584657 
C 571.532394 31.416243 576.066915 30.97308 580.582693 31.272856 
C 585.09847 31.572632 589.534621 32.611305 593.714096 34.34742 
C 597.893572 36.083536 601.760023 38.493687 605.159138 41.481685 
C 608.558253 44.469683 611.444204 47.995241 613.701812 51.917654 
C 611.342234 46.406143 608.054899 41.339855 603.982972 36.939426 
C 599.911045 32.538998 595.114505 28.869249 589.802244 26.089998 
C 584.489982 23.310747 578.740249 21.462932 572.803447 20.627027 
C 566.866644 19.791121 560.830223 19.979438 554.95707 21.183776 
C 549.083916 22.388114 543.460544 24.590733 538.331851 27.695708 
C 533.203158 30.800684 528.644693 34.762279 524.854975 39.407965 
C 521.065257 44.053652 518.100112 49.314997 516.08867 54.96287 
C 514.077229 60.610742 513.049122 66.561947 513.049122 72.557309 
C 513.049122 78.552671 514.077229 84.503875 516.08867 90.151748 
C 518.100112 95.799621 521.065257 101.060966 524.854975 105.706653 
C 528.644693 110.352339 533.203158 114.313934 538.331851 117.418909 
C 543.460544 120.523885 549.083916 122.726503 554.95707 123.930842 
C 560.830223 125.13518 566.866644 125.323496 572.803447 124.487591 
C 578.740249 123.651686 584.489982 121.803871 589.802244 119.02462 
C 595.114505 116.245368 599.911045 112.57562 603.982972 108.175191 
C 608.054899 103.774763 611.342234 98.708475 613.701812 93.196964 
" style="fill:#c0c0c0;opacity:0.4;"/>
   </g>
   <g id="patch_9">
    <path clip-path="url(#pce3c2e54bd)" d="M 613.701812 51.917654 
C 616.494238 58.440213 617.934141 65.46214 617.934141 72.557309 
C 617.934141 79.652478 616.494238 86.674404 613.701812 93.196964 
C 617.315189 86.91901 619.217381 79.800871 619.217381 72.557309 
C 619.217381 65.313746 617.315189 58.195608 613.701812 51.917654 
" style="fill:#b2df8a;opacity:0.4;"/>
   </g>
   <g id="patch_10">
    <path clip-path="url(#pce3c2e54bd)" d="M 613.701812 93.196964 
C 616.494238 86.674404 617.934141 79.652478 617.934141 72.557309 
C 617.934141 65.46214 616.494238 58.440213 613.701812 51.917654 
C 611.444204 47.995241 608.558253 44.469683 605.159138 41.481685 
C 601.760023 38.493687 597.893572 36.083536 593.714096 34.34742 
C 589.534621 32.611305 585.09847 31.572632 580.582693 31.272856 
C 576.066915 30.97308 571.532394 31.416243 567.160104 32.584657 
C 562.787813 33.753072 558.636703 35.630985 554.872445 38.143448 
C 551.108186 40.655912 547.781532 43.769051 545.025248 47.358622 
C 542.268964 50.948192 540.120213 54.965795 538.664751 59.25109 
C 537.20929 63.536384 536.466742 68.031592 536.466742 72.557309 
C 536.466742 77.083026 537.20929 81.578234 538.664751 85.863528 
C 540.120213 90.148822 542.268964 94.166426 545.025248 97.755996 
C 547.781532 101.345566 551.108186 104.458706 554.872445 106.97117 
C 558.636703 109.483633 562.787813 111.361546 567.160104 112.52996 
C 571.532394 113.698375 576.066915 114.141537 580.582693 113.841761 
C 585.09847 113.541985 589.534621 112.503313 593.714096 110.767197 
C 597.893572 109.031082 601.760023 106.62093 605.159138 103.632932 
C 608.558253 100.644935 611.444204 97.119377 613.701812 93.196964 
" style="fill:#ffffe7;opacity:0.4;"/>
   </g>
   <g id="text_11">
    <!-- 452 -->
    <g style="fill:#262626;" transform="translate(516.416525 75.142465)scale(0.1 -0.1)">
     <defs>
      <path d="M 266 1200 
L 856 1250 
Q 922 819 1161 601 
Q 1400 384 1738 384 
Q 2144 384 2425 690 
Q 2706 997 2706 1503 
Q 2706 1984 2436 2262 
Q 2166 2541 1728 2541 
Q 1456 2541 1237 2417 
Q 1019 2294 894 2097 
L 366 2166 
L 809 4519 
L 3088 4519 
L 3088 3981 
L 1259 3981 
L 1013 2750 
Q 1425 3038 1878 3038 
Q 2478 3038 2890 2622 
Q 3303 2206 3303 1553 
Q 3303 931 2941 478 
Q 2500 -78 1738 -78 
Q 1113 -78 717 272 
Q 322 622 266 1200 
z
" id="ArialMT-35" transform="scale(0.015625)"/>
     </defs>
     <use xlink:href="#ArialMT-34"/>
     <use x="55.615234" xlink:href="#ArialMT-35"/>
     <use x="111.230469" xlink:href="#ArialMT-32"/>
    </g>
   </g>
   <g id="text_12">
    <!-- 5 -->
    <g style="fill:#262626;" transform="translate(615.795292 75.142465)scale(0.1 -0.1)">
     <use xlink:href="#ArialMT-35"/>
    </g>
   </g>
   <g id="text_13">
    <!-- 732 -->
    <g style="fill:#262626;" transform="translate(568.859035 75.142465)scale(0.1 -0.1)">
     <defs>
      <path d="M 303 3981 
L 303 4522 
L 3269 4522 
L 3269 4084 
Q 2831 3619 2401 2847 
Q 1972 2075 1738 1259 
Q 1569 684 1522 0 
L 944 0 
Q 953 541 1156 1306 
Q 1359 2072 1739 2783 
Q 2119 3494 2547 3981 
L 303 3981 
z
" id="ArialMT-37" transform="scale(0.015625)"/>
     </defs>
     <use xlink:href="#ArialMT-37"/>
     <use x="55.615234" xlink:href="#ArialMT-33"/>
     <use x="111.230469" xlink:href="#ArialMT-32"/>
    </g>
   </g>
   <g id="text_14">
    <!-- Bioregistry -->
    <g style="fill:#262626;" transform="translate(508.810381 138.280085)scale(0.12 -0.12)">
     <use xlink:href="#ArialMT-42"/>
     <use x="66.699219" xlink:href="#ArialMT-69"/>
     <use x="88.916016" xlink:href="#ArialMT-6f"/>
     <use x="144.53125" xlink:href="#ArialMT-72"/>
     <use x="177.832031" xlink:href="#ArialMT-65"/>
     <use x="233.447266" xlink:href="#ArialMT-67"/>
     <use x="289.0625" xlink:href="#ArialMT-69"/>
     <use x="311.279297" xlink:href="#ArialMT-73"/>
     <use x="361.279297" xlink:href="#ArialMT-74"/>
     <use x="389.0625" xlink:href="#ArialMT-72"/>
     <use x="422.363281" xlink:href="#ArialMT-79"/>
    </g>
   </g>
   <g id="text_15">
    <!-- MIRIAM -->
    <g style="fill:#262626;" transform="translate(577.842061 127.212895)scale(0.12 -0.12)">
     <defs>
      <path d="M 475 0 
L 475 4581 
L 1388 4581 
L 2472 1338 
Q 2622 884 2691 659 
Q 2769 909 2934 1394 
L 4031 4581 
L 4847 4581 
L 4847 0 
L 4263 0 
L 4263 3834 
L 2931 0 
L 2384 0 
L 1059 3900 
L 1059 0 
L 475 0 
z
" id="ArialMT-4d" transform="scale(0.015625)"/>
      <path d="M 597 0 
L 597 4581 
L 1203 4581 
L 1203 0 
L 597 0 
z
" id="ArialMT-49" transform="scale(0.015625)"/>
      <path d="M 503 0 
L 503 4581 
L 2534 4581 
Q 3147 4581 3465 4457 
Q 3784 4334 3975 4021 
Q 4166 3709 4166 3331 
Q 4166 2844 3850 2509 
Q 3534 2175 2875 2084 
Q 3116 1969 3241 1856 
Q 3506 1613 3744 1247 
L 4541 0 
L 3778 0 
L 3172 953 
Q 2906 1366 2734 1584 
Q 2563 1803 2427 1890 
Q 2291 1978 2150 2013 
Q 2047 2034 1813 2034 
L 1109 2034 
L 1109 0 
L 503 0 
z
M 1109 2559 
L 2413 2559 
Q 2828 2559 3062 2645 
Q 3297 2731 3419 2920 
Q 3541 3109 3541 3331 
Q 3541 3656 3305 3865 
Q 3069 4075 2559 4075 
L 1109 4075 
L 1109 2559 
z
" id="ArialMT-52" transform="scale(0.015625)"/>
      <path d="M -9 0 
L 1750 4581 
L 2403 4581 
L 4278 0 
L 3588 0 
L 3053 1388 
L 1138 1388 
L 634 0 
L -9 0 
z
M 1313 1881 
L 2866 1881 
L 2388 3150 
Q 2169 3728 2063 4100 
Q 1975 3659 1816 3225 
L 1313 1881 
z
" id="ArialMT-41" transform="scale(0.015625)"/>
     </defs>
     <use xlink:href="#ArialMT-4d"/>
     <use x="83.300781" xlink:href="#ArialMT-49"/>
     <use x="111.083984" xlink:href="#ArialMT-52"/>
     <use x="183.300781" xlink:href="#ArialMT-49"/>
     <use x="211.083984" xlink:href="#ArialMT-41"/>
     <use x="277.783203" xlink:href="#ArialMT-4d"/>
    </g>
   </g>
  </g>
  <g id="axes_4">
   <g id="patch_11">
    <path clip-path="url(#pd65a5cee1f)" d="M 149.660411 231.468582 
C 147.115669 229.350035 145.067911 226.69734 143.662733 223.699103 
C 142.257556 220.700865 141.529069 217.42987 141.529069 214.118684 
C 141.529069 210.807498 142.257556 207.536503 143.662733 204.538265 
C 145.067911 201.540028 147.115669 198.887333 149.660411 196.768786 
C 147.630744 191.050969 144.613388 185.733413 140.745858 181.05846 
C 136.878329 176.383507 132.220284 172.423272 126.984011 169.35824 
C 121.747739 166.293209 116.014011 164.17066 110.04414 163.087329 
C 104.074268 162.003997 97.960343 161.976594 91.981 163.006368 
C 86.001657 164.036141 80.249134 166.107207 74.985596 169.125178 
C 69.722059 172.143148 65.028702 176.061469 61.119421 180.701565 
C 57.21014 185.341662 54.145239 190.631957 52.064399 196.331349 
C 49.983558 202.030742 48.918877 208.051315 48.918877 214.118684 
C 48.918877 220.186053 49.983558 226.206626 52.064399 231.906019 
C 54.145239 237.605411 57.21014 242.895706 61.119421 247.535803 
C 65.028702 252.175899 69.722059 256.09422 74.985596 259.11219 
C 80.249134 262.130161 86.001657 264.201227 91.981 265.231 
C 97.960343 266.260774 104.074268 266.233371 110.04414 265.150039 
C 116.014011 264.066708 121.747739 261.944159 126.984011 258.879128 
C 132.220284 255.814096 136.878329 251.853861 140.745858 247.178908 
C 144.613388 242.503955 147.630744 237.186399 149.660411 231.468582 
" style="fill:#c0c0c0;opacity:0.4;"/>
   </g>
   <g id="patch_12">
    <path clip-path="url(#pd65a5cee1f)" d="M 149.660411 196.768786 
C 151.63785 202.33947 152.648443 208.207441 152.648443 214.118684 
C 152.648443 220.029927 151.63785 225.897898 149.660411 231.468582 
C 152.956999 234.213056 156.9685 235.961952 161.222891 236.509483 
C 165.477283 237.057014 169.800886 236.380827 173.684956 234.560488 
C 177.569026 232.740148 180.855002 229.849969 183.156233 226.230028 
C 185.457463 222.610088 186.680005 218.408164 186.680005 214.118684 
C 186.680005 209.829204 185.457463 205.62728 183.156233 202.00734 
C 180.855002 198.387399 177.569026 195.49722 173.684956 193.67688 
C 169.800886 191.856541 165.477283 191.180354 161.222891 191.727885 
C 156.9685 192.275416 152.956999 194.024312 149.660411 196.768786 
" style="fill:#33a02c;opacity:0.4;"/>
   </g>
   <g id="patch_13">
    <path clip-path="url(#pd65a5cee1f)" d="M 149.660411 231.468582 
C 151.63785 225.897898 152.648443 220.029927 152.648443 214.118684 
C 152.648443 208.207441 151.63785 202.33947 149.660411 196.768786 
C 147.115669 198.887333 145.067911 201.540028 143.662733 204.538265 
C 142.257556 207.536503 141.529069 210.807498 141.529069 214.118684 
C 141.529069 217.42987 142.257556 220.700865 143.662733 223.699103 
C 145.067911 226.69734 147.115669 229.350035 149.660411 231.468582 
" style="fill:#aaf6a5;opacity:0.4;"/>
   </g>
   <g id="text_16">
    <!-- 1140 -->
    <g style="fill:#262626;" transform="translate(84.470848 216.70384)scale(0.1 -0.1)">
     <defs>
      <path d="M 266 2259 
Q 266 3072 433 3567 
Q 600 4063 929 4331 
Q 1259 4600 1759 4600 
Q 2128 4600 2406 4451 
Q 2684 4303 2865 4023 
Q 3047 3744 3150 3342 
Q 3253 2941 3253 2259 
Q 3253 1453 3087 958 
Q 2922 463 2592 192 
Q 2263 -78 1759 -78 
Q 1097 -78 719 397 
Q 266 969 266 2259 
z
M 844 2259 
Q 844 1131 1108 757 
Q 1372 384 1759 384 
Q 2147 384 2411 759 
Q 2675 1134 2675 2259 
Q 2675 3391 2411 3762 
Q 2147 4134 1753 4134 
Q 1366 4134 1134 3806 
Q 844 3388 844 2259 
z
" id="ArialMT-30" transform="scale(0.015625)"/>
     </defs>
     <use xlink:href="#ArialMT-31"/>
     <use x="48.240234" xlink:href="#ArialMT-31"/>
     <use x="103.855469" xlink:href="#ArialMT-34"/>
     <use x="159.470703" xlink:href="#ArialMT-30"/>
    </g>
   </g>
   <g id="text_17">
    <!-- 186 -->
    <g style="fill:#262626;" transform="translate(161.322818 216.70384)scale(0.1 -0.1)">
     <defs>
      <path d="M 1131 2484 
Q 781 2613 612 2850 
Q 444 3088 444 3419 
Q 444 3919 803 4259 
Q 1163 4600 1759 4600 
Q 2359 4600 2725 4251 
Q 3091 3903 3091 3403 
Q 3091 3084 2923 2848 
Q 2756 2613 2416 2484 
Q 2838 2347 3058 2040 
Q 3278 1734 3278 1309 
Q 3278 722 2862 322 
Q 2447 -78 1769 -78 
Q 1091 -78 675 323 
Q 259 725 259 1325 
Q 259 1772 486 2073 
Q 713 2375 1131 2484 
z
M 1019 3438 
Q 1019 3113 1228 2906 
Q 1438 2700 1772 2700 
Q 2097 2700 2305 2904 
Q 2513 3109 2513 3406 
Q 2513 3716 2298 3927 
Q 2084 4138 1766 4138 
Q 1444 4138 1231 3931 
Q 1019 3725 1019 3438 
z
M 838 1322 
Q 838 1081 952 856 
Q 1066 631 1291 507 
Q 1516 384 1775 384 
Q 2178 384 2440 643 
Q 2703 903 2703 1303 
Q 2703 1709 2433 1975 
Q 2163 2241 1756 2241 
Q 1359 2241 1098 1978 
Q 838 1716 838 1322 
z
" id="ArialMT-38" transform="scale(0.015625)"/>
     </defs>
     <use xlink:href="#ArialMT-31"/>
     <use x="55.615234" xlink:href="#ArialMT-38"/>
     <use x="111.230469" xlink:href="#ArialMT-36"/>
    </g>
   </g>
   <g id="text_18">
    <!-- 37 -->
    <g style="fill:#262626;" transform="translate(141.527819 216.70384)scale(0.1 -0.1)">
     <use xlink:href="#ArialMT-33"/>
     <use x="55.615234" xlink:href="#ArialMT-37"/>
    </g>
   </g>
   <g id="text_19">
    <!-- Bioregistry -->
    <g style="fill:#262626;" transform="translate(44.10241 278.294854)scale(0.12 -0.12)">
     <use xlink:href="#ArialMT-42"/>
     <use x="66.699219" xlink:href="#ArialMT-69"/>
     <use x="88.916016" xlink:href="#ArialMT-6f"/>
     <use x="144.53125" xlink:href="#ArialMT-72"/>
     <use x="177.832031" xlink:href="#ArialMT-65"/>
     <use x="233.447266" xlink:href="#ArialMT-67"/>
     <use x="289.0625" xlink:href="#ArialMT-69"/>
     <use x="311.279297" xlink:href="#ArialMT-73"/>
     <use x="361.279297" xlink:href="#ArialMT-74"/>
     <use x="389.0625" xlink:href="#ArialMT-72"/>
     <use x="422.363281" xlink:href="#ArialMT-79"/>
    </g>
   </g>
   <g id="text_20">
    <!-- Wikidata -->
    <g style="fill:#262626;" transform="translate(164.104537 249.00554)scale(0.12 -0.12)">
     <defs>
      <path d="M 1294 0 
L 78 4581 
L 700 4581 
L 1397 1578 
Q 1509 1106 1591 641 
Q 1766 1375 1797 1488 
L 2669 4581 
L 3400 4581 
L 4056 2263 
Q 4303 1400 4413 641 
Q 4500 1075 4641 1638 
L 5359 4581 
L 5969 4581 
L 4713 0 
L 4128 0 
L 3163 3491 
Q 3041 3928 3019 4028 
Q 2947 3713 2884 3491 
L 1913 0 
L 1294 0 
z
" id="ArialMT-57" transform="scale(0.015625)"/>
      <path d="M 425 0 
L 425 4581 
L 988 4581 
L 988 1969 
L 2319 3319 
L 3047 3319 
L 1778 2088 
L 3175 0 
L 2481 0 
L 1384 1697 
L 988 1316 
L 988 0 
L 425 0 
z
" id="ArialMT-6b" transform="scale(0.015625)"/>
      <path d="M 2575 0 
L 2575 419 
Q 2259 -75 1647 -75 
Q 1250 -75 917 144 
Q 584 363 401 755 
Q 219 1147 219 1656 
Q 219 2153 384 2558 
Q 550 2963 881 3178 
Q 1213 3394 1622 3394 
Q 1922 3394 2156 3267 
Q 2391 3141 2538 2938 
L 2538 4581 
L 3097 4581 
L 3097 0 
L 2575 0 
z
M 797 1656 
Q 797 1019 1065 703 
Q 1334 388 1700 388 
Q 2069 388 2326 689 
Q 2584 991 2584 1609 
Q 2584 2291 2321 2609 
Q 2059 2928 1675 2928 
Q 1300 2928 1048 2622 
Q 797 2316 797 1656 
z
" id="ArialMT-64" transform="scale(0.015625)"/>
      <path d="M 2588 409 
Q 2275 144 1986 34 
Q 1697 -75 1366 -75 
Q 819 -75 525 192 
Q 231 459 231 875 
Q 231 1119 342 1320 
Q 453 1522 633 1644 
Q 813 1766 1038 1828 
Q 1203 1872 1538 1913 
Q 2219 1994 2541 2106 
Q 2544 2222 2544 2253 
Q 2544 2597 2384 2738 
Q 2169 2928 1744 2928 
Q 1347 2928 1158 2789 
Q 969 2650 878 2297 
L 328 2372 
Q 403 2725 575 2942 
Q 747 3159 1072 3276 
Q 1397 3394 1825 3394 
Q 2250 3394 2515 3294 
Q 2781 3194 2906 3042 
Q 3031 2891 3081 2659 
Q 3109 2516 3109 2141 
L 3109 1391 
Q 3109 606 3145 398 
Q 3181 191 3288 0 
L 2700 0 
Q 2613 175 2588 409 
z
M 2541 1666 
Q 2234 1541 1622 1453 
Q 1275 1403 1131 1340 
Q 988 1278 909 1158 
Q 831 1038 831 891 
Q 831 666 1001 516 
Q 1172 366 1500 366 
Q 1825 366 2078 508 
Q 2331 650 2450 897 
Q 2541 1088 2541 1459 
L 2541 1666 
z
" id="ArialMT-61" transform="scale(0.015625)"/>
     </defs>
     <use xlink:href="#ArialMT-57"/>
     <use x="94.384766" xlink:href="#ArialMT-69"/>
     <use x="116.601562" xlink:href="#ArialMT-6b"/>
     <use x="166.601562" xlink:href="#ArialMT-69"/>
     <use x="188.818359" xlink:href="#ArialMT-64"/>
     <use x="244.433594" xlink:href="#ArialMT-61"/>
     <use x="300.048828" xlink:href="#ArialMT-74"/>
     <use x="327.832031" xlink:href="#ArialMT-61"/>
    </g>
   </g>
  </g>
  <g id="axes_5">
   <g id="patch_14">
    <path clip-path="url(#p01a2c89b9e)" d="M 387.548552 237.994751 
C 385.056533 241.329852 382.057665 244.254335 378.661037 246.661819 
C 375.264409 249.069303 371.511712 250.930236 367.539456 252.176926 
C 363.567199 253.423616 359.424139 254.040759 355.260986 254.005907 
C 351.097833 253.971055 346.965686 253.284635 343.014858 251.971616 
C 339.06403 250.658598 335.343015 248.735097 331.987169 246.271084 
C 328.631323 243.807072 325.681838 240.832791 323.246004 237.456436 
C 320.810171 234.080081 318.917887 230.343094 317.637988 226.381412 
C 316.358089 222.419731 315.706285 218.281983 315.706285 214.118684 
C 315.706285 209.955385 316.358089 205.817637 317.637988 201.855956 
C 318.917887 197.894274 320.810171 194.157287 323.246004 190.780932 
C 325.681838 187.404577 328.631323 184.430296 331.987169 181.966284 
C 335.343015 179.502271 339.06403 177.57877 343.014858 176.265752 
C 346.965686 174.952733 351.097833 174.266313 355.260986 174.231461 
C 359.424139 174.196609 363.567199 174.813752 367.539456 176.060442 
C 371.511712 177.307132 375.264409 179.168065 378.661037 181.575549 
C 382.057665 183.983033 385.056533 186.907516 387.548552 190.242617 
C 384.887449 185.040636 381.375295 180.319957 377.157558 176.276102 
C 372.93982 172.232247 368.075545 168.921829 362.766203 166.48196 
C 357.456861 164.042091 351.77678 162.506927 345.961221 161.940054 
C 340.145662 161.373181 334.276039 161.782534 328.595463 163.151158 
C 322.914887 164.519782 317.502884 166.828518 312.583609 169.98174 
C 307.664334 173.134962 303.306656 177.088528 299.691062 181.678686 
C 296.075468 186.268845 293.252576 191.431336 291.339304 196.952338 
C 289.426032 202.473341 288.449166 208.275562 288.449166 214.118684 
C 288.449166 219.961806 289.426032 225.764027 291.339304 231.28503 
C 293.252576 236.806032 296.075468 241.968523 299.691062 246.558682 
C 303.306656 251.14884 307.664334 255.102406 312.583609 258.255628 
C 317.502884 261.40885 322.914887 263.717586 328.595463 265.08621 
C 334.276039 266.454834 340.145662 266.864187 345.961221 266.297314 
C 351.77678 265.730441 357.456861 264.195277 362.766203 261.755408 
C 368.075545 259.315539 372.93982 256.005121 377.157558 251.961266 
C 381.375295 247.917411 384.887449 243.196732 387.548552 237.994751 
" style="fill:#c0c0c0;opacity:0.4;"/>
   </g>
   <g id="patch_15">
    <path clip-path="url(#p01a2c89b9e)" d="M 387.548552 190.242617 
C 391.329253 197.633215 393.301025 205.8172 393.301025 214.118684 
C 393.301025 222.420168 391.329253 230.604153 387.548552 237.994751 
C 392.699143 231.101648 395.483526 222.723535 395.483526 214.118684 
C 395.483526 205.513833 392.699143 197.13572 387.548552 190.242617 
" style="fill:#fb9a99;opacity:0.4;"/>
   </g>
   <g id="patch_16">
    <path clip-path="url(#p01a2c89b9e)" d="M 387.548552 237.994751 
C 391.329253 230.604153 393.301025 222.420168 393.301025 214.118684 
C 393.301025 205.8172 391.329253 197.633215 387.548552 190.242617 
C 385.056533 186.907516 382.057665 183.983033 378.661037 181.575549 
C 375.264409 179.168065 371.511712 177.307132 367.539456 176.060442 
C 363.567199 174.813752 359.424139 174.196609 355.260986 174.231461 
C 351.097833 174.266313 346.965686 174.952733 343.014858 176.265752 
C 339.06403 177.57877 335.343015 179.502271 331.987169 181.966284 
C 328.631323 184.430296 325.681838 187.404577 323.246004 190.780932 
C 320.810171 194.157287 318.917887 197.894274 317.637988 201.855956 
C 316.358089 205.817637 315.706285 209.955385 315.706285 214.118684 
C 315.706285 218.281983 316.358089 222.419731 317.637988 226.381412 
C 318.917887 230.343094 320.810171 234.080081 323.246004 237.456436 
C 325.681838 240.832791 328.631323 243.807072 331.987169 246.271084 
C 335.343015 248.735097 339.06403 250.658598 343.014858 251.971616 
C 346.965686 253.284635 351.097833 253.971055 355.260986 254.005907 
C 359.424139 254.040759 363.567199 253.423616 367.539456 252.176926 
C 371.511712 250.930236 375.264409 249.069303 378.661037 246.661819 
C 382.057665 244.254335 385.056533 241.329852 387.548552 237.994751 
" style="fill:#fff2f2;opacity:0.4;"/>
   </g>
   <g id="text_21">
    <!-- 509 -->
    <g style="fill:#262626;" transform="translate(293.736319 216.70384)scale(0.1 -0.1)">
     <use xlink:href="#ArialMT-35"/>
     <use x="55.615234" xlink:href="#ArialMT-30"/>
     <use x="111.230469" xlink:href="#ArialMT-39"/>
    </g>
   </g>
   <g id="text_22">
    <!-- 10 -->
    <g style="fill:#262626;" transform="translate(388.831338 216.70384)scale(0.1 -0.1)">
     <use xlink:href="#ArialMT-31"/>
     <use x="55.615234" xlink:href="#ArialMT-30"/>
    </g>
   </g>
   <g id="text_23">
    <!-- 676 -->
    <g style="fill:#262626;" transform="translate(346.162248 216.70384)scale(0.1 -0.1)">
     <use xlink:href="#ArialMT-36"/>
     <use x="55.615234" xlink:href="#ArialMT-37"/>
     <use x="111.230469" xlink:href="#ArialMT-36"/>
    </g>
   </g>
   <g id="text_24">
    <!-- Bioregistry -->
    <g style="fill:#262626;" transform="translate(284.193846 279.749716)scale(0.12 -0.12)">
     <use xlink:href="#ArialMT-42"/>
     <use x="66.699219" xlink:href="#ArialMT-69"/>
     <use x="88.916016" xlink:href="#ArialMT-6f"/>
     <use x="144.53125" xlink:href="#ArialMT-72"/>
     <use x="177.832031" xlink:href="#ArialMT-65"/>
     <use x="233.447266" xlink:href="#ArialMT-67"/>
     <use x="289.0625" xlink:href="#ArialMT-69"/>
     <use x="311.279297" xlink:href="#ArialMT-73"/>
     <use x="361.279297" xlink:href="#ArialMT-74"/>
     <use x="389.0625" xlink:href="#ArialMT-72"/>
     <use x="422.363281" xlink:href="#ArialMT-79"/>
    </g>
   </g>
   <g id="text_25">
    <!-- N2T -->
    <g style="fill:#262626;" transform="translate(355.594905 267.212407)scale(0.12 -0.12)">
     <defs>
      <path d="M 488 0 
L 488 4581 
L 1109 4581 
L 3516 984 
L 3516 4581 
L 4097 4581 
L 4097 0 
L 3475 0 
L 1069 3600 
L 1069 0 
L 488 0 
z
" id="ArialMT-4e" transform="scale(0.015625)"/>
      <path d="M 1659 0 
L 1659 4041 
L 150 4041 
L 150 4581 
L 3781 4581 
L 3781 4041 
L 2266 4041 
L 2266 0 
L 1659 0 
z
" id="ArialMT-54" transform="scale(0.015625)"/>
     </defs>
     <use xlink:href="#ArialMT-4e"/>
     <use x="72.216797" xlink:href="#ArialMT-32"/>
     <use x="127.832031" xlink:href="#ArialMT-54"/>
    </g>
   </g>
  </g>
  <g id="axes_6">
   <g id="patch_17">
    <path clip-path="url(#p5c01c86116)" d="M 601.601003 238.298023 
C 595.686576 237.591461 590.232151 234.738819 586.277973 230.284141 
C 582.323794 225.829463 580.138301 220.075166 580.138301 214.118684 
C 580.138301 208.162202 582.323794 202.407905 586.277973 197.953227 
C 590.232151 193.498549 595.686576 190.645907 601.601003 189.939345 
C 598.916359 184.819713 595.39771 180.18276 591.1897 176.2191 
C 586.98169 172.255441 582.14278 169.020141 576.871885 166.646195 
C 571.60099 164.27225 565.971339 162.79264 560.214352 162.268189 
C 554.457365 161.743738 548.653024 162.181731 543.03993 163.564165 
C 537.426836 164.946599 532.082971 167.254267 527.228009 170.392306 
C 522.373047 173.530345 518.074437 177.45516 514.508884 182.00541 
C 510.943331 186.555661 508.160371 191.668131 506.274404 197.13266 
C 504.388437 202.597188 503.425665 208.337858 503.425665 214.118684 
C 503.425665 219.89951 504.388437 225.64018 506.274404 231.104708 
C 508.160371 236.569237 510.943331 241.681707 514.508884 246.231958 
C 518.074437 250.782208 522.373047 254.707023 527.228009 257.845062 
C 532.082971 260.983101 537.426836 263.290769 543.03993 264.673203 
C 548.653024 266.055637 554.457365 266.49363 560.214352 265.969179 
C 565.971339 265.444728 571.60099 263.965118 576.871885 261.591173 
C 582.14278 259.217227 586.98169 255.981927 591.1897 252.018268 
C 595.39771 248.054608 598.916359 243.417655 601.601003 238.298023 
" style="fill:#c0c0c0;opacity:0.4;"/>
   </g>
   <g id="patch_18">
    <path clip-path="url(#p5c01c86116)" d="M 601.601003 189.939345 
C 605.512392 197.398385 607.556067 205.696318 607.556067 214.118684 
C 607.556067 222.54105 605.512392 230.838983 601.601003 238.298023 
C 605.018256 238.706263 608.483551 238.385465 611.767787 237.356838 
C 615.052022 236.328212 618.081191 234.614936 620.655027 232.330281 
C 623.228862 230.045626 625.289364 227.241074 626.700306 224.102042 
C 628.111249 220.963011 628.840838 217.560236 628.840838 214.118684 
C 628.840838 210.677132 628.111249 207.274357 626.700306 204.135326 
C 625.289364 200.996294 623.228862 198.191743 620.655027 195.907087 
C 618.081191 193.622432 615.052022 191.909156 611.767787 190.88053 
C 608.483551 189.851903 605.018256 189.531105 601.601003 189.939345 
" style="fill:#e31a1c;opacity:0.4;"/>
   </g>
   <g id="patch_19">
    <path clip-path="url(#p5c01c86116)" d="M 601.601003 238.298023 
C 605.512392 230.838983 607.556067 222.54105 607.556067 214.118684 
C 607.556067 205.696318 605.512392 197.398385 601.601003 189.939345 
C 595.686576 190.645907 590.232151 193.498549 586.277973 197.953227 
C 582.323794 202.407905 580.138301 208.162202 580.138301 214.118684 
C 580.138301 220.075166 582.323794 225.829463 586.277973 230.284141 
C 590.232151 234.738819 595.686576 237.591461 601.601003 238.298023 
" style="fill:#ff999a;opacity:0.4;"/>
   </g>
   <g id="text_26">
    <!-- 1047 -->
    <g style="fill:#262626;" transform="translate(530.660108 216.70384)scale(0.1 -0.1)">
     <use xlink:href="#ArialMT-31"/>
     <use x="55.615234" xlink:href="#ArialMT-30"/>
     <use x="111.230469" xlink:href="#ArialMT-34"/>
     <use x="166.845703" xlink:href="#ArialMT-37"/>
    </g>
   </g>
   <g id="text_27">
    <!-- 122 -->
    <g style="fill:#262626;" transform="translate(609.857046 216.70384)scale(0.1 -0.1)">
     <use xlink:href="#ArialMT-31"/>
     <use x="55.615234" xlink:href="#ArialMT-32"/>
     <use x="111.230469" xlink:href="#ArialMT-32"/>
    </g>
   </g>
   <g id="text_28">
    <!-- 137 -->
    <g style="fill:#262626;" transform="translate(585.505778 216.70384)scale(0.1 -0.1)">
     <use xlink:href="#ArialMT-31"/>
     <use x="55.615234" xlink:href="#ArialMT-33"/>
     <use x="111.230469" xlink:href="#ArialMT-37"/>
    </g>
   </g>
   <g id="text_29">
    <!-- Bioregistry -->
    <g style="fill:#262626;" transform="translate(498.809616 278.594084)scale(0.12 -0.12)">
     <use xlink:href="#ArialMT-42"/>
     <use x="66.699219" xlink:href="#ArialMT-69"/>
     <use x="88.916016" xlink:href="#ArialMT-6f"/>
     <use x="144.53125" xlink:href="#ArialMT-72"/>
     <use x="177.832031" xlink:href="#ArialMT-65"/>
     <use x="233.447266" xlink:href="#ArialMT-67"/>
     <use x="289.0625" xlink:href="#ArialMT-69"/>
     <use x="311.279297" xlink:href="#ArialMT-73"/>
     <use x="361.279297" xlink:href="#ArialMT-74"/>
     <use x="389.0625" xlink:href="#ArialMT-72"/>
     <use x="422.363281" xlink:href="#ArialMT-79"/>
    </g>
   </g>
   <g id="text_30">
    <!-- GO -->
    <g style="fill:#262626;" transform="translate(604.48957 250.880151)scale(0.12 -0.12)">
     <defs>
      <path d="M 2638 1797 
L 2638 2334 
L 4578 2338 
L 4578 638 
Q 4131 281 3656 101 
Q 3181 -78 2681 -78 
Q 2006 -78 1454 211 
Q 903 500 622 1047 
Q 341 1594 341 2269 
Q 341 2938 620 3517 
Q 900 4097 1425 4378 
Q 1950 4659 2634 4659 
Q 3131 4659 3532 4498 
Q 3934 4338 4162 4050 
Q 4391 3763 4509 3300 
L 3963 3150 
Q 3859 3500 3706 3700 
Q 3553 3900 3268 4020 
Q 2984 4141 2638 4141 
Q 2222 4141 1919 4014 
Q 1616 3888 1430 3681 
Q 1244 3475 1141 3228 
Q 966 2803 966 2306 
Q 966 1694 1177 1281 
Q 1388 869 1791 669 
Q 2194 469 2647 469 
Q 3041 469 3416 620 
Q 3791 772 3984 944 
L 3984 1797 
L 2638 1797 
z
" id="ArialMT-47" transform="scale(0.015625)"/>
     </defs>
     <use xlink:href="#ArialMT-47"/>
     <use x="77.783203" xlink:href="#ArialMT-4f"/>
    </g>
   </g>
  </g>
  <g id="axes_7">
   <g id="patch_20">
    <path clip-path="url(#pb6e25b3a3a)" d="M 126.569975 393.155144 
C 120.190449 389.201358 114.924944 383.683271 111.274184 377.125624 
C 107.623424 370.567978 105.706919 363.185443 105.706919 355.680059 
C 105.706919 348.174676 107.623424 340.79214 111.274184 334.234494 
C 114.924944 327.676847 120.190449 322.15876 126.569975 318.204975 
C 119.306786 311.585742 110.273537 307.218678 100.574636 305.637702 
C 90.875736 304.056725 80.923241 305.329004 71.933948 309.298989 
C 62.944656 313.268973 55.300475 319.767999 49.935986 328.001493 
C 44.571498 336.234987 41.714611 345.853149 41.714611 355.680059 
C 41.714611 365.506969 44.571498 375.125131 49.935986 383.358625 
C 55.300475 391.592119 62.944656 398.091145 71.933948 402.06113 
C 80.923241 406.031114 90.875736 407.303393 100.574636 405.722417 
C 110.273537 404.14144 119.306786 399.774376 126.569975 393.155144 
" style="fill:#c0c0c0;opacity:0.4;"/>
   </g>
   <g id="patch_21">
    <path clip-path="url(#pb6e25b3a3a)" d="M 126.569975 318.204975 
C 131.783614 322.95637 135.948794 328.743899 138.798515 335.196563 
C 141.648236 341.649227 143.120278 348.626139 143.120278 355.680059 
C 143.120278 362.733979 141.648236 369.710891 138.798515 376.163555 
C 135.948794 382.61622 131.783614 388.403748 126.569975 393.155144 
C 133.246927 397.293262 140.910051 399.572703 148.763196 399.756646 
C 156.61634 399.940589 164.377784 398.022436 171.24116 394.20147 
C 178.104537 390.380505 183.823631 384.793799 187.804265 378.021778 
C 191.784899 371.249757 193.884271 363.535358 193.884271 355.680059 
C 193.884271 347.824761 191.784899 340.110362 187.804265 333.33834 
C 183.823631 326.566319 178.104537 320.979614 171.24116 317.158648 
C 164.377784 313.337683 156.61634 311.419529 148.763196 311.603472 
C 140.910051 311.787415 133.246927 314.066856 126.569975 318.204975 
" style="fill:#fdbf6f;opacity:0.4;"/>
   </g>
   <g id="patch_22">
    <path clip-path="url(#pb6e25b3a3a)" d="M 126.569975 393.155144 
C 131.783614 388.403748 135.948794 382.61622 138.798515 376.163555 
C 141.648236 369.710891 143.120278 362.733979 143.120278 355.680059 
C 143.120278 348.626139 141.648236 341.649227 138.798515 335.196563 
C 135.948794 328.743899 131.783614 322.95637 126.569975 318.204975 
C 120.190449 322.15876 114.924944 327.676847 111.274184 334.234494 
C 107.623424 340.79214 105.706919 348.174676 105.706919 355.680059 
C 105.706919 363.185443 107.623424 370.567978 111.274184 377.125624 
C 114.924944 383.683271 120.190449 389.201358 126.569975 393.155144 
" style="fill:#ffffd4;opacity:0.4;"/>
   </g>
   <g id="text_31">
    <!-- 897 -->
    <g style="fill:#262626;" transform="translate(65.369359 358.265215)scale(0.1 -0.1)">
     <use xlink:href="#ArialMT-38"/>
     <use x="55.615234" xlink:href="#ArialMT-39"/>
     <use x="111.230469" xlink:href="#ArialMT-37"/>
    </g>
   </g>
   <g id="text_32">
    <!-- 608 -->
    <g style="fill:#262626;" transform="translate(160.160868 358.265215)scale(0.1 -0.1)">
     <use xlink:href="#ArialMT-36"/>
     <use x="55.615234" xlink:href="#ArialMT-30"/>
     <use x="111.230469" xlink:href="#ArialMT-38"/>
    </g>
   </g>
   <g id="text_33">
    <!-- 288 -->
    <g style="fill:#262626;" transform="translate(116.072192 358.265215)scale(0.1 -0.1)">
     <use xlink:href="#ArialMT-32"/>
     <use x="55.615234" xlink:href="#ArialMT-38"/>
     <use x="111.230469" xlink:href="#ArialMT-38"/>
    </g>
   </g>
   <g id="text_34">
    <!-- Bioregistry -->
    <g style="fill:#262626;" transform="translate(35.736195 419.711843)scale(0.12 -0.12)">
     <use xlink:href="#ArialMT-42"/>
     <use x="66.699219" xlink:href="#ArialMT-69"/>
     <use x="88.916016" xlink:href="#ArialMT-6f"/>
     <use x="144.53125" xlink:href="#ArialMT-72"/>
     <use x="177.832031" xlink:href="#ArialMT-65"/>
     <use x="233.447266" xlink:href="#ArialMT-67"/>
     <use x="289.0625" xlink:href="#ArialMT-69"/>
     <use x="311.279297" xlink:href="#ArialMT-73"/>
     <use x="361.279297" xlink:href="#ArialMT-74"/>
     <use x="389.0625" xlink:href="#ArialMT-72"/>
     <use x="422.363281" xlink:href="#ArialMT-79"/>
    </g>
   </g>
   <g id="text_35">
    <!-- BioPortal -->
    <g style="fill:#262626;" transform="translate(149.795595 413.097686)scale(0.12 -0.12)">
     <defs>
      <path d="M 494 0 
L 494 4581 
L 2222 4581 
Q 2678 4581 2919 4538 
Q 3256 4481 3484 4323 
Q 3713 4166 3852 3881 
Q 3991 3597 3991 3256 
Q 3991 2672 3619 2267 
Q 3247 1863 2275 1863 
L 1100 1863 
L 1100 0 
L 494 0 
z
M 1100 2403 
L 2284 2403 
Q 2872 2403 3119 2622 
Q 3366 2841 3366 3238 
Q 3366 3525 3220 3729 
Q 3075 3934 2838 4000 
Q 2684 4041 2272 4041 
L 1100 4041 
L 1100 2403 
z
" id="ArialMT-50" transform="scale(0.015625)"/>
      <path d="M 409 0 
L 409 4581 
L 972 4581 
L 972 0 
L 409 0 
z
" id="ArialMT-6c" transform="scale(0.015625)"/>
     </defs>
     <use xlink:href="#ArialMT-42"/>
     <use x="66.699219" xlink:href="#ArialMT-69"/>
     <use x="88.916016" xlink:href="#ArialMT-6f"/>
     <use x="144.53125" xlink:href="#ArialMT-50"/>
     <use x="211.230469" xlink:href="#ArialMT-6f"/>
     <use x="266.845703" xlink:href="#ArialMT-72"/>
     <use x="300.146484" xlink:href="#ArialMT-74"/>
     <use x="327.929688" xlink:href="#ArialMT-61"/>
     <use x="383.544922" xlink:href="#ArialMT-6c"/>
    </g>
   </g>
  </g>
  <g id="axes_8">
   <g id="patch_23">
    <path clip-path="url(#p0a900f63f1)" d="M 360.71883 401.741874 
C 354.011703 402.891158 347.133786 402.561743 340.567197 400.776719 
C 334.000608 398.991696 327.90245 395.793769 322.700184 391.407104 
C 317.497919 387.020439 313.316006 381.549985 310.447586 375.379202 
C 307.579166 369.208418 306.092863 362.48494 306.092863 355.680059 
C 306.092863 348.875179 307.579166 342.1517 310.447586 335.980917 
C 313.316006 329.810133 317.497919 324.339679 322.700184 319.953014 
C 327.90245 315.566349 334.000608 312.368423 340.567197 310.583399 
C 347.133786 308.798375 354.011703 308.46896 360.71883 309.618244 
C 352.784289 305.436273 343.902171 303.374587 334.936758 303.633798 
C 325.971345 303.893009 317.223181 306.464429 309.543514 311.097843 
C 301.863847 315.731258 295.510118 322.271342 291.100584 330.081709 
C 286.69105 337.892075 284.373528 346.7109 284.373528 355.680059 
C 284.373528 364.649218 286.69105 373.468043 291.100584 381.27841 
C 295.510118 389.088776 301.863847 395.628861 309.543514 400.262275 
C 317.223181 404.895689 325.971345 407.467109 334.936758 407.726321 
C 343.902171 407.985532 352.784289 405.923845 360.71883 401.741874 
" style="fill:#c0c0c0;opacity:0.4;"/>
   </g>
   <g id="patch_24">
    <path clip-path="url(#p0a900f63f1)" d="M 360.71883 309.618244 
C 369.104829 314.03816 376.126708 320.66541 381.023754 328.782035 
C 385.9208 336.898659 388.509549 346.200573 388.509549 355.680059 
C 388.509549 365.159545 385.9208 374.461459 381.023754 382.578084 
C 376.126708 390.694708 369.104829 397.321958 360.71883 401.741874 
C 371.583686 399.880152 381.447112 394.233026 388.553059 385.805889 
C 395.659006 377.378752 399.559164 366.703268 399.559164 355.680059 
C 399.559164 344.656851 395.659006 333.981367 388.553059 325.55423 
C 381.447112 317.127093 371.583686 311.479966 360.71883 309.618244 
" style="fill:#ff7f00;opacity:0.4;"/>
   </g>
   <g id="patch_25">
    <path clip-path="url(#p0a900f63f1)" d="M 360.71883 401.741874 
C 369.104829 397.321958 376.126708 390.694708 381.023754 382.578084 
C 385.9208 374.461459 388.509549 365.159545 388.509549 355.680059 
C 388.509549 346.200573 385.9208 336.898659 381.023754 328.782035 
C 376.126708 320.66541 369.104829 314.03816 360.71883 309.618244 
C 354.011703 308.46896 347.133786 308.798375 340.567197 310.583399 
C 334.000608 312.368423 327.90245 315.566349 322.700184 319.953014 
C 317.497919 324.339679 313.316006 329.810133 310.447586 335.980917 
C 307.579166 342.1517 306.092863 348.875179 306.092863 355.680059 
C 306.092863 362.48494 307.579166 369.208418 310.447586 375.379202 
C 313.316006 381.549985 317.497919 387.020439 322.700184 391.407104 
C 327.90245 395.793769 334.000608 398.991696 340.567197 400.776719 
C 347.133786 402.561743 354.011703 402.891158 360.71883 401.741874 
" style="fill:#ffdf86;opacity:0.4;"/>
   </g>
   <g id="text_36">
    <!-- 351 -->
    <g style="fill:#262626;" transform="translate(286.89179 358.265215)scale(0.1 -0.1)">
     <use xlink:href="#ArialMT-33"/>
     <use x="55.615234" xlink:href="#ArialMT-35"/>
     <use x="111.230469" xlink:href="#ArialMT-31"/>
    </g>
   </g>
   <g id="text_37">
    <!-- 121 -->
    <g style="fill:#262626;" transform="translate(385.69295 358.265215)scale(0.1 -0.1)">
     <use xlink:href="#ArialMT-31"/>
     <use x="55.615234" xlink:href="#ArialMT-32"/>
     <use x="111.230469" xlink:href="#ArialMT-31"/>
    </g>
   </g>
   <g id="text_38">
    <!-- 832 -->
    <g style="fill:#262626;" transform="translate(338.9598 358.265215)scale(0.1 -0.1)">
     <use xlink:href="#ArialMT-38"/>
     <use x="55.615234" xlink:href="#ArialMT-33"/>
     <use x="111.230469" xlink:href="#ArialMT-32"/>
    </g>
   </g>
   <g id="text_39">
    <!-- Bioregistry -->
    <g style="fill:#262626;" transform="translate(279.760288 421.277502)scale(0.12 -0.12)">
     <use xlink:href="#ArialMT-42"/>
     <use x="66.699219" xlink:href="#ArialMT-69"/>
     <use x="88.916016" xlink:href="#ArialMT-6f"/>
     <use x="144.53125" xlink:href="#ArialMT-72"/>
     <use x="177.832031" xlink:href="#ArialMT-65"/>
     <use x="233.447266" xlink:href="#ArialMT-67"/>
     <use x="289.0625" xlink:href="#ArialMT-69"/>
     <use x="311.279297" xlink:href="#ArialMT-73"/>
     <use x="361.279297" xlink:href="#ArialMT-74"/>
     <use x="389.0625" xlink:href="#ArialMT-72"/>
     <use x="422.363281" xlink:href="#ArialMT-79"/>
    </g>
   </g>
   <g id="text_40">
    <!-- Prefix Commons -->
    <g style="fill:#262626;" transform="translate(352.826014 415.942643)scale(0.12 -0.12)">
     <defs>
      <path d="M 556 0 
L 556 2881 
L 59 2881 
L 59 3319 
L 556 3319 
L 556 3672 
Q 556 4006 616 4169 
Q 697 4388 901 4523 
Q 1106 4659 1475 4659 
Q 1713 4659 2000 4603 
L 1916 4113 
Q 1741 4144 1584 4144 
Q 1328 4144 1222 4034 
Q 1116 3925 1116 3625 
L 1116 3319 
L 1763 3319 
L 1763 2881 
L 1116 2881 
L 1116 0 
L 556 0 
z
" id="ArialMT-66" transform="scale(0.015625)"/>
      <path d="M 47 0 
L 1259 1725 
L 138 3319 
L 841 3319 
L 1350 2541 
Q 1494 2319 1581 2169 
Q 1719 2375 1834 2534 
L 2394 3319 
L 3066 3319 
L 1919 1756 
L 3153 0 
L 2463 0 
L 1781 1031 
L 1600 1309 
L 728 0 
L 47 0 
z
" id="ArialMT-78" transform="scale(0.015625)"/>
      <path id="ArialMT-20" transform="scale(0.015625)"/>
      <path d="M 3763 1606 
L 4369 1453 
Q 4178 706 3683 314 
Q 3188 -78 2472 -78 
Q 1731 -78 1267 223 
Q 803 525 561 1097 
Q 319 1669 319 2325 
Q 319 3041 592 3573 
Q 866 4106 1370 4382 
Q 1875 4659 2481 4659 
Q 3169 4659 3637 4309 
Q 4106 3959 4291 3325 
L 3694 3184 
Q 3534 3684 3231 3912 
Q 2928 4141 2469 4141 
Q 1941 4141 1586 3887 
Q 1231 3634 1087 3207 
Q 944 2781 944 2328 
Q 944 1744 1114 1308 
Q 1284 872 1643 656 
Q 2003 441 2422 441 
Q 2931 441 3284 734 
Q 3638 1028 3763 1606 
z
" id="ArialMT-43" transform="scale(0.015625)"/>
      <path d="M 422 0 
L 422 3319 
L 925 3319 
L 925 2853 
Q 1081 3097 1340 3245 
Q 1600 3394 1931 3394 
Q 2300 3394 2536 3241 
Q 2772 3088 2869 2813 
Q 3263 3394 3894 3394 
Q 4388 3394 4653 3120 
Q 4919 2847 4919 2278 
L 4919 0 
L 4359 0 
L 4359 2091 
Q 4359 2428 4304 2576 
Q 4250 2725 4106 2815 
Q 3963 2906 3769 2906 
Q 3419 2906 3187 2673 
Q 2956 2441 2956 1928 
L 2956 0 
L 2394 0 
L 2394 2156 
Q 2394 2531 2256 2718 
Q 2119 2906 1806 2906 
Q 1569 2906 1367 2781 
Q 1166 2656 1075 2415 
Q 984 2175 984 1722 
L 984 0 
L 422 0 
z
" id="ArialMT-6d" transform="scale(0.015625)"/>
      <path d="M 422 0 
L 422 3319 
L 928 3319 
L 928 2847 
Q 1294 3394 1984 3394 
Q 2284 3394 2536 3286 
Q 2788 3178 2913 3003 
Q 3038 2828 3088 2588 
Q 3119 2431 3119 2041 
L 3119 0 
L 2556 0 
L 2556 2019 
Q 2556 2363 2490 2533 
Q 2425 2703 2258 2804 
Q 2091 2906 1866 2906 
Q 1506 2906 1245 2678 
Q 984 2450 984 1813 
L 984 0 
L 422 0 
z
" id="ArialMT-6e" transform="scale(0.015625)"/>
     </defs>
     <use xlink:href="#ArialMT-50"/>
     <use x="66.699219" xlink:href="#ArialMT-72"/>
     <use x="100" xlink:href="#ArialMT-65"/>
     <use x="155.615234" xlink:href="#ArialMT-66"/>
     <use x="183.398438" xlink:href="#ArialMT-69"/>
     <use x="205.615234" xlink:href="#ArialMT-78"/>
     <use x="255.615234" xlink:href="#ArialMT-20"/>
     <use x="283.398438" xlink:href="#ArialMT-43"/>
     <use x="355.615234" xlink:href="#ArialMT-6f"/>
     <use x="411.230469" xlink:href="#ArialMT-6d"/>
     <use x="494.53125" xlink:href="#ArialMT-6d"/>
     <use x="577.832031" xlink:href="#ArialMT-6f"/>
     <use x="633.447266" xlink:href="#ArialMT-6e"/>
     <use x="689.0625" xlink:href="#ArialMT-73"/>
    </g>
   </g>
  </g>
  <g id="axes_9">
   <g id="patch_26">
    <path clip-path="url(#pccfefd5f4a)" d="M 609.441643 370.785078 
C 605.549527 370.617265 601.869012 368.951455 599.174297 366.138051 
C 596.479582 363.324647 594.973859 359.575792 594.973859 355.680059 
C 594.973859 351.784327 596.479582 348.035471 599.174297 345.222067 
C 601.869012 342.408663 605.549527 340.742853 609.441643 340.57504 
C 607.64405 334.615281 604.796933 329.023982 601.034507 324.064725 
C 597.272082 319.105468 592.654415 314.857426 587.39919 311.520859 
C 582.143965 308.184291 576.33508 305.812465 570.246374 304.517191 
C 564.157668 303.221918 557.886345 303.023875 551.728046 303.9324 
C 545.569746 304.840925 539.622784 306.841513 534.167509 309.839853 
C 528.712233 312.838193 523.835736 316.786418 519.767902 321.498403 
C 515.700068 326.210388 512.505839 331.610907 510.335796 337.445372 
C 508.165752 343.279838 507.054539 349.455103 507.054539 355.680059 
C 507.054539 361.905015 508.165752 368.080281 510.335796 373.914746 
C 512.505839 379.749211 515.700068 385.14973 519.767902 389.861715 
C 523.835736 394.5737 528.712233 398.521925 534.167509 401.520265 
C 539.622784 404.518605 545.569746 406.519193 551.728046 407.427718 
C 557.886345 408.336243 564.157668 408.138201 570.246374 406.842927 
C 576.33508 405.547653 582.143965 403.175827 587.39919 399.839259 
C 592.654415 396.502692 597.272082 392.25465 601.034507 387.295393 
C 604.796933 382.336137 607.64405 376.744837 609.441643 370.785078 
" style="fill:#c0c0c0;opacity:0.4;"/>
   </g>
   <g id="patch_27">
    <path clip-path="url(#pccfefd5f4a)" d="M 609.441643 340.57504 
C 610.91925 345.473914 611.670065 350.563197 611.670065 355.680059 
C 611.670065 360.796922 610.91925 365.886205 609.441643 370.785078 
C 611.479989 370.872963 613.515191 370.547349 615.42437 369.827896 
C 617.333549 369.108443 619.077492 368.009927 620.550903 366.598674 
C 622.024315 365.187421 623.196933 363.492417 623.997959 361.616001 
C 624.798984 359.739586 625.211964 357.720299 625.211964 355.680059 
C 625.211964 353.63982 624.798984 351.620533 623.997959 349.744117 
C 623.196933 347.867701 622.024315 346.172697 620.550903 344.761444 
C 619.077492 343.350191 617.333549 342.251676 615.42437 341.532222 
C 613.515191 340.812769 611.479989 340.487155 609.441643 340.57504 
" style="fill:#cab2d6;opacity:0.4;"/>
   </g>
   <g id="patch_28">
    <path clip-path="url(#pccfefd5f4a)" d="M 609.441643 370.785078 
C 610.91925 365.886205 611.670065 360.796922 611.670065 355.680059 
C 611.670065 350.563197 610.91925 345.473914 609.441643 340.57504 
C 605.549527 340.742853 601.869012 342.408663 599.174297 345.222067 
C 596.479582 348.035471 594.973859 351.784327 594.973859 355.680059 
C 594.973859 359.575792 596.479582 363.324647 599.174297 366.138051 
C 601.869012 368.951455 605.549527 370.617265 609.441643 370.785078 
" style="fill:#ffffff;opacity:0.4;"/>
   </g>
   <g id="text_41">
    <!-- 1132 -->
    <g style="fill:#262626;" transform="translate(540.261074 358.265215)scale(0.1 -0.1)">
     <use xlink:href="#ArialMT-31"/>
     <use x="48.240234" xlink:href="#ArialMT-31"/>
     <use x="103.855469" xlink:href="#ArialMT-33"/>
     <use x="159.470703" xlink:href="#ArialMT-32"/>
    </g>
   </g>
   <g id="text_42">
    <!-- 46 -->
    <g style="fill:#262626;" transform="translate(612.880077 358.265215)scale(0.1 -0.1)">
     <use xlink:href="#ArialMT-34"/>
     <use x="55.615234" xlink:href="#ArialMT-36"/>
    </g>
   </g>
   <g id="text_43">
    <!-- 53 -->
    <g style="fill:#262626;" transform="translate(597.761024 358.265215)scale(0.1 -0.1)">
     <use xlink:href="#ArialMT-35"/>
     <use x="55.615234" xlink:href="#ArialMT-33"/>
    </g>
   </g>
   <g id="text_44">
    <!-- Bioregistry -->
    <g style="fill:#262626;" transform="translate(502.681052 419.948538)scale(0.12 -0.12)">
     <use xlink:href="#ArialMT-42"/>
     <use x="66.699219" xlink:href="#ArialMT-69"/>
     <use x="88.916016" xlink:href="#ArialMT-6f"/>
     <use x="144.53125" xlink:href="#ArialMT-72"/>
     <use x="177.832031" xlink:href="#ArialMT-65"/>
     <use x="233.447266" xlink:href="#ArialMT-67"/>
     <use x="289.0625" xlink:href="#ArialMT-69"/>
     <use x="311.279297" xlink:href="#ArialMT-73"/>
     <use x="361.279297" xlink:href="#ArialMT-74"/>
     <use x="389.0625" xlink:href="#ArialMT-72"/>
     <use x="422.363281" xlink:href="#ArialMT-79"/>
    </g>
   </g>
   <g id="text_45">
    <!-- Biolink -->
    <g style="fill:#262626;" transform="translate(610.092911 382.759827)scale(0.12 -0.12)">
     <use xlink:href="#ArialMT-42"/>
     <use x="66.699219" xlink:href="#ArialMT-69"/>
     <use x="88.916016" xlink:href="#ArialMT-6f"/>
     <use x="144.53125" xlink:href="#ArialMT-6c"/>
     <use x="166.748047" xlink:href="#ArialMT-69"/>
     <use x="188.964844" xlink:href="#ArialMT-6e"/>
     <use x="244.580078" xlink:href="#ArialMT-6b"/>
    </g>
   </g>
  </g>
  <g id="axes_10">
   <g id="patch_29">
    <path clip-path="url(#pb4507993d2)" d="M 159.914787 514.212001 
C 155.503822 514.079332 151.313828 512.232016 148.240657 509.065024 
C 145.167487 505.898032 143.446972 501.654394 143.446972 497.241434 
C 143.446972 492.828475 145.167487 488.584837 148.240657 485.417845 
C 151.313828 482.250853 155.503822 480.403537 159.914787 480.270868 
C 157.922037 474.464957 154.922144 469.05516 151.05284 464.289855 
C 147.183537 459.524549 142.504961 455.477798 137.231919 452.335399 
C 131.958876 449.193 126.173322 447.003793 120.140887 445.86829 
C 114.108451 444.732787 107.922891 444.668636 101.868203 445.678783 
C 95.813515 446.688929 89.983801 448.757674 84.64672 451.790035 
C 79.309639 454.822396 74.54814 458.771243 70.580837 463.455275 
C 66.613534 468.139306 63.502087 473.485723 61.389352 479.249054 
C 59.276616 485.012386 58.195428 491.103059 58.195428 497.241434 
C 58.195428 503.379809 59.276616 509.470482 61.389352 515.233814 
C 63.502087 520.997146 66.613534 526.343562 70.580837 531.027594 
C 74.54814 535.711626 79.309639 539.660473 84.64672 542.692834 
C 89.983801 545.725195 95.813515 547.793939 101.868203 548.804086 
C 107.922891 549.814233 114.108451 549.750082 120.140887 548.614579 
C 126.173322 547.479076 131.958876 545.289869 137.231919 542.14747 
C 142.504961 539.005071 147.183537 534.95832 151.05284 530.193014 
C 154.922144 525.427708 157.922037 520.017911 159.914787 514.212001 
" style="fill:#c0c0c0;opacity:0.4;"/>
   </g>
   <g id="patch_30">
    <path clip-path="url(#pb4507993d2)" d="M 159.914787 480.270868 
C 161.789357 485.732458 162.746108 491.467096 162.746108 497.241434 
C 162.746108 503.015772 161.789357 508.750411 159.914787 514.212001 
C 162.18628 514.280321 164.44854 513.891896 166.567151 513.069804 
C 168.685761 512.247712 170.617913 511.008565 172.248803 509.42599 
C 173.879693 507.843415 175.176367 505.94939 176.06178 503.856452 
C 176.947193 501.763514 177.403455 499.513954 177.403455 497.241434 
C 177.403455 494.968915 176.947193 492.719354 176.06178 490.626417 
C 175.176367 488.533479 173.879693 486.639453 172.248803 485.056878 
C 170.617913 483.474303 168.685761 482.235157 166.567151 481.413065 
C 164.44854 480.590973 162.18628 480.202548 159.914787 480.270868 
" style="fill:#6a3d9a;opacity:0.4;"/>
   </g>
   <g id="patch_31">
    <path clip-path="url(#pb4507993d2)" d="M 159.914787 514.212001 
C 161.789357 508.750411 162.746108 503.015772 162.746108 497.241434 
C 162.746108 491.467096 161.789357 485.732458 159.914787 480.270868 
C 155.503822 480.403537 151.313828 482.250853 148.240657 485.417845 
C 145.167487 488.584837 143.446972 492.828475 143.446972 497.241434 
C 143.446972 501.654394 145.167487 505.898032 148.240657 509.065024 
C 151.313828 512.232016 155.503822 514.079332 159.914787 514.212001 
" style="fill:#d1b1f2;opacity:0.4;"/>
   </g>
   <g id="text_46">
    <!-- 1116 -->
    <g style="fill:#262626;" transform="translate(90.436825 499.826591)scale(0.1 -0.1)">
     <use xlink:href="#ArialMT-31"/>
     <use x="48.240234" xlink:href="#ArialMT-31"/>
     <use x="96.480469" xlink:href="#ArialMT-31"/>
     <use x="152.095703" xlink:href="#ArialMT-36"/>
    </g>
   </g>
   <g id="text_47">
    <!-- 56 -->
    <g style="fill:#262626;" transform="translate(164.513844 499.826591)scale(0.1 -0.1)">
     <use xlink:href="#ArialMT-35"/>
     <use x="55.615234" xlink:href="#ArialMT-36"/>
    </g>
   </g>
   <g id="text_48">
    <!-- 69 -->
    <g style="fill:#262626;" transform="translate(147.535603 499.826591)scale(0.1 -0.1)">
     <use xlink:href="#ArialMT-36"/>
     <use x="55.615234" xlink:href="#ArialMT-39"/>
    </g>
   </g>
   <g id="text_49">
    <!-- Bioregistry -->
    <g style="fill:#262626;" transform="translate(53.789518 561.568829)scale(0.12 -0.12)">
     <use xlink:href="#ArialMT-42"/>
     <use x="66.699219" xlink:href="#ArialMT-69"/>
     <use x="88.916016" xlink:href="#ArialMT-6f"/>
     <use x="144.53125" xlink:href="#ArialMT-72"/>
     <use x="177.832031" xlink:href="#ArialMT-65"/>
     <use x="233.447266" xlink:href="#ArialMT-67"/>
     <use x="289.0625" xlink:href="#ArialMT-69"/>
     <use x="311.279297" xlink:href="#ArialMT-73"/>
     <use x="361.279297" xlink:href="#ArialMT-74"/>
     <use x="389.0625" xlink:href="#ArialMT-72"/>
     <use x="422.363281" xlink:href="#ArialMT-79"/>
    </g>
   </g>
   <g id="text_50">
    <!-- NCBI -->
    <g style="fill:#262626;" transform="translate(160.425213 526.27173)scale(0.12 -0.12)">
     <use xlink:href="#ArialMT-4e"/>
     <use x="72.216797" xlink:href="#ArialMT-43"/>
     <use x="144.433594" xlink:href="#ArialMT-42"/>
     <use x="211.132812" xlink:href="#ArialMT-49"/>
    </g>
   </g>
  </g>
  <g id="axes_11">
   <g id="patch_32">
    <path clip-path="url(#p9a934e86b1)" d="M 380.582593 517.458163 
C 375.674793 516.818323 371.164045 514.412751 367.898381 510.693701 
C 364.632718 506.97465 362.830473 502.190767 362.830473 497.241434 
C 362.830473 492.292102 364.632718 487.508219 367.898381 483.789168 
C 371.164045 480.070118 375.674793 477.664546 380.582593 477.024706 
C 378.265813 471.513768 375.018871 466.44186 370.983844 462.030912 
C 366.948817 457.619964 362.185428 453.935264 356.902109 451.138044 
C 351.618789 448.340823 345.89374 446.472484 339.97747 445.614779 
C 334.0612 444.757075 328.041279 444.9227 322.181119 446.104407 
C 316.320959 447.286115 310.707299 449.466414 305.585774 452.549901 
C 300.46425 455.633388 295.910667 459.574424 292.124275 464.200562 
C 288.337884 468.826699 285.374728 474.069465 283.364466 479.699452 
C 281.354204 485.329439 280.32659 491.263315 280.32659 497.241434 
C 280.32659 503.219553 281.354204 509.15343 283.364466 514.783417 
C 285.374728 520.413404 288.337884 525.65617 292.124275 530.282307 
C 295.910667 534.908444 300.46425 538.84948 305.585774 541.932968 
C 310.707299 545.016455 316.320959 547.196754 322.181119 548.378461 
C 328.041279 549.560169 334.0612 549.725794 339.97747 548.868089 
C 345.89374 548.010385 351.618789 546.142046 356.902109 543.344825 
C 362.185428 540.547604 366.948817 536.862905 370.983844 532.451957 
C 375.018871 528.041009 378.265813 522.9691 380.582593 517.458163 
" style="fill:#c0c0c0;opacity:0.4;"/>
   </g>
   <g id="patch_33">
    <path clip-path="url(#p9a934e86b1)" d="M 380.582593 477.024706 
C 383.273262 483.425015 384.659317 490.298549 384.659317 497.241434 
C 384.659317 504.184319 383.273262 511.057854 380.582593 517.458163 
C 383.458108 517.833049 386.380789 517.590161 389.154976 516.74576 
C 391.929163 515.901358 394.491535 514.474716 396.670554 512.56134 
C 398.849572 510.647965 400.595501 508.291528 401.791457 505.649784 
C 402.987414 503.008039 403.606102 500.141284 403.606102 497.241434 
C 403.606102 494.341585 402.987414 491.47483 401.791457 488.833085 
C 400.595501 486.191341 398.849572 483.834904 396.670554 481.921528 
C 394.491535 480.008153 391.929163 478.581511 389.154976 477.737109 
C 386.380789 476.892707 383.458108 476.64982 380.582593 477.024706 
" style="fill:#ffff99;opacity:0.4;"/>
   </g>
   <g id="patch_34">
    <path clip-path="url(#p9a934e86b1)" d="M 380.582593 517.458163 
C 383.273262 511.057854 384.659317 504.184319 384.659317 497.241434 
C 384.659317 490.298549 383.273262 483.425015 380.582593 477.024706 
C 375.674793 477.664546 371.164045 480.070118 367.898381 483.789168 
C 364.632718 487.508219 362.830473 492.292102 362.830473 497.241434 
C 362.830473 502.190767 364.632718 506.97465 367.898381 510.693701 
C 371.164045 514.412751 375.674793 516.818323 380.582593 517.458163 
" style="fill:#fffff2;opacity:0.4;"/>
   </g>
   <g id="text_51">
    <!-- 1094 -->
    <g style="fill:#262626;" transform="translate(310.456657 499.826591)scale(0.1 -0.1)">
     <use xlink:href="#ArialMT-31"/>
     <use x="55.615234" xlink:href="#ArialMT-30"/>
     <use x="111.230469" xlink:href="#ArialMT-39"/>
     <use x="166.845703" xlink:href="#ArialMT-34"/>
    </g>
   </g>
   <g id="text_52">
    <!-- 90 -->
    <g style="fill:#262626;" transform="translate(388.571772 499.826591)scale(0.1 -0.1)">
     <use xlink:href="#ArialMT-39"/>
     <use x="55.615234" xlink:href="#ArialMT-30"/>
    </g>
   </g>
   <g id="text_53">
    <!-- 91 -->
    <g style="fill:#262626;" transform="translate(368.183958 499.826591)scale(0.1 -0.1)">
     <use xlink:href="#ArialMT-39"/>
     <use x="55.615234" xlink:href="#ArialMT-31"/>
    </g>
   </g>
   <g id="text_54">
    <!-- Bioregistry -->
    <g style="fill:#262626;" transform="translate(275.811704 561.624882)scale(0.12 -0.12)">
     <use xlink:href="#ArialMT-42"/>
     <use x="66.699219" xlink:href="#ArialMT-69"/>
     <use x="88.916016" xlink:href="#ArialMT-6f"/>
     <use x="144.53125" xlink:href="#ArialMT-72"/>
     <use x="177.832031" xlink:href="#ArialMT-65"/>
     <use x="233.447266" xlink:href="#ArialMT-67"/>
     <use x="289.0625" xlink:href="#ArialMT-69"/>
     <use x="311.279297" xlink:href="#ArialMT-73"/>
     <use x="361.279297" xlink:href="#ArialMT-74"/>
     <use x="389.0625" xlink:href="#ArialMT-72"/>
     <use x="422.363281" xlink:href="#ArialMT-79"/>
    </g>
   </g>
   <g id="text_55">
    <!-- UniProt -->
    <g style="fill:#262626;" transform="translate(383.218287 529.846333)scale(0.12 -0.12)">
     <defs>
      <path d="M 3500 4581 
L 4106 4581 
L 4106 1934 
Q 4106 1244 3950 837 
Q 3794 431 3386 176 
Q 2978 -78 2316 -78 
Q 1672 -78 1262 144 
Q 853 366 678 786 
Q 503 1206 503 1934 
L 503 4581 
L 1109 4581 
L 1109 1938 
Q 1109 1341 1220 1058 
Q 1331 775 1601 622 
Q 1872 469 2263 469 
Q 2931 469 3215 772 
Q 3500 1075 3500 1938 
L 3500 4581 
z
" id="ArialMT-55" transform="scale(0.015625)"/>
     </defs>
     <use xlink:href="#ArialMT-55"/>
     <use x="72.216797" xlink:href="#ArialMT-6e"/>
     <use x="127.832031" xlink:href="#ArialMT-69"/>
     <use x="150.048828" xlink:href="#ArialMT-50"/>
     <use x="216.748047" xlink:href="#ArialMT-72"/>
     <use x="250.048828" xlink:href="#ArialMT-6f"/>
     <use x="305.664062" xlink:href="#ArialMT-74"/>
    </g>
   </g>
  </g>
  <g id="axes_12">
   <g id="patch_35">
    <path clip-path="url(#p98a97d5df2)" d="M 607.440549 512.842917 
C 603.898492 512.046148 600.731228 510.066402 598.463157 507.231465 
C 596.195087 504.396529 594.958698 500.872 594.958698 497.241434 
C 594.958698 493.610869 596.195087 490.08634 598.463157 487.251403 
C 600.731228 484.416467 603.898492 482.436721 607.440549 481.639952 
C 605.590607 475.727116 602.703655 470.19017 598.914815 465.288271 
C 595.125976 460.386372 590.495299 456.197208 585.239522 452.916854 
C 579.983745 449.6365 574.186166 447.316944 568.118139 446.066754 
C 562.050113 444.816564 555.807811 444.655553 549.683403 445.591257 
C 543.558995 446.526962 537.649545 448.544552 532.231646 451.549594 
C 526.813746 454.554637 521.973263 458.499506 517.936756 463.199562 
C 513.900249 467.899618 510.73169 473.28037 508.579385 479.089975 
C 506.42708 484.899579 505.325139 491.045959 505.325139 497.241434 
C 505.325139 503.43691 506.42708 509.58329 508.579385 515.392894 
C 510.73169 521.202498 513.900249 526.583251 517.936756 531.283307 
C 521.973263 535.983363 526.813746 539.928232 532.231646 542.933274 
C 537.649545 545.938317 543.558995 547.955907 549.683403 548.891612 
C 555.807811 549.827316 562.050113 549.666305 568.118139 548.416115 
C 574.186166 547.165925 579.983745 544.846369 585.239522 541.566015 
C 590.495299 538.28566 595.125976 534.096497 598.914815 529.194598 
C 602.703655 524.292699 605.590607 518.755753 607.440549 512.842917 
" style="fill:#c0c0c0;opacity:0.4;"/>
   </g>
   <g id="patch_36">
    <path clip-path="url(#p98a97d5df2)" d="M 607.440549 481.639952 
C 609.020462 486.689712 609.824188 491.95029 609.824188 497.241434 
C 609.824188 502.532578 609.020462 507.793157 607.440549 512.842917 
C 609.780146 513.369198 612.208435 513.362533 614.545108 512.823416 
C 616.88178 512.284298 619.067531 511.226411 620.940062 509.728308 
C 622.812592 508.230204 624.324377 506.329904 625.363161 504.168512 
C 626.401944 502.007121 626.941363 499.639493 626.941363 497.241434 
C 626.941363 494.843376 626.401944 492.475748 625.363161 490.314357 
C 624.324377 488.152965 622.812592 486.252665 620.940062 484.754561 
C 619.067531 483.256457 616.88178 482.19857 614.545108 481.659453 
C 612.208435 481.120336 609.780146 481.11367 607.440549 481.639952 
" style="fill:#b15928;opacity:0.4;"/>
   </g>
   <g id="patch_37">
    <path clip-path="url(#p98a97d5df2)" d="M 607.440549 512.842917 
C 609.020462 507.793157 609.824188 502.532578 609.824188 497.241434 
C 609.824188 491.95029 609.020462 486.689712 607.440549 481.639952 
C 603.898492 482.436721 600.731228 484.416467 598.463157 487.251403 
C 596.195087 490.08634 594.958698 493.610869 594.958698 497.241434 
C 594.958698 500.872 596.195087 504.396529 598.463157 507.231465 
C 600.731228 510.066402 603.898492 512.046148 607.440549 512.842917 
" style="fill:#ffc5a2;opacity:0.4;"/>
   </g>
   <g id="text_56">
    <!-- 1138 -->
    <g style="fill:#262626;" transform="translate(539.388794 499.826591)scale(0.1 -0.1)">
     <use xlink:href="#ArialMT-31"/>
     <use x="48.240234" xlink:href="#ArialMT-31"/>
     <use x="103.855469" xlink:href="#ArialMT-33"/>
     <use x="159.470703" xlink:href="#ArialMT-38"/>
    </g>
   </g>
   <g id="text_57">
    <!-- 64 -->
    <g style="fill:#262626;" transform="translate(612.821838 499.826591)scale(0.1 -0.1)">
     <use xlink:href="#ArialMT-36"/>
     <use x="55.615234" xlink:href="#ArialMT-34"/>
    </g>
   </g>
   <g id="text_58">
    <!-- 47 -->
    <g style="fill:#262626;" transform="translate(596.830506 499.826591)scale(0.1 -0.1)">
     <use xlink:href="#ArialMT-34"/>
     <use x="55.615234" xlink:href="#ArialMT-37"/>
    </g>
   </g>
   <g id="text_59">
    <!-- Bioregistry -->
    <g style="fill:#262626;" transform="translate(500.893414 561.492377)scale(0.12 -0.12)">
     <use xlink:href="#ArialMT-42"/>
     <use x="66.699219" xlink:href="#ArialMT-69"/>
     <use x="88.916016" xlink:href="#ArialMT-6f"/>
     <use x="144.53125" xlink:href="#ArialMT-72"/>
     <use x="177.832031" xlink:href="#ArialMT-65"/>
     <use x="233.447266" xlink:href="#ArialMT-67"/>
     <use x="289.0625" xlink:href="#ArialMT-69"/>
     <use x="311.279297" xlink:href="#ArialMT-73"/>
     <use x="361.279297" xlink:href="#ArialMT-74"/>
     <use x="389.0625" xlink:href="#ArialMT-72"/>
     <use x="422.363281" xlink:href="#ArialMT-79"/>
    </g>
   </g>
   <g id="text_60">
    <!-- Cellosaurus -->
    <g style="fill:#262626;" transform="translate(610.950031 525.234185)scale(0.12 -0.12)">
     <defs>
      <path d="M 2597 0 
L 2597 488 
Q 2209 -75 1544 -75 
Q 1250 -75 995 37 
Q 741 150 617 320 
Q 494 491 444 738 
Q 409 903 409 1263 
L 409 3319 
L 972 3319 
L 972 1478 
Q 972 1038 1006 884 
Q 1059 663 1231 536 
Q 1403 409 1656 409 
Q 1909 409 2131 539 
Q 2353 669 2445 892 
Q 2538 1116 2538 1541 
L 2538 3319 
L 3100 3319 
L 3100 0 
L 2597 0 
z
" id="ArialMT-75" transform="scale(0.015625)"/>
     </defs>
     <use xlink:href="#ArialMT-43"/>
     <use x="72.216797" xlink:href="#ArialMT-65"/>
     <use x="127.832031" xlink:href="#ArialMT-6c"/>
     <use x="150.048828" xlink:href="#ArialMT-6c"/>
     <use x="172.265625" xlink:href="#ArialMT-6f"/>
     <use x="227.880859" xlink:href="#ArialMT-73"/>
     <use x="277.880859" xlink:href="#ArialMT-61"/>
     <use x="333.496094" xlink:href="#ArialMT-75"/>
     <use x="389.111328" xlink:href="#ArialMT-72"/>
     <use x="422.412109" xlink:href="#ArialMT-75"/>
     <use x="478.027344" xlink:href="#ArialMT-73"/>
    </g>
   </g>
  </g>
  <g id="text_61">
   <!-- https://github.com/bioregistry/bioregistry (2021-08-02) -->
   <g style="fill:#808080;opacity:0.5;" transform="translate(256.07375 574.31625)scale(0.08 -0.08)">
    <defs>
     <path d="M 422 0 
L 422 4581 
L 984 4581 
L 984 2938 
Q 1378 3394 1978 3394 
Q 2347 3394 2619 3248 
Q 2891 3103 3008 2847 
Q 3125 2591 3125 2103 
L 3125 0 
L 2563 0 
L 2563 2103 
Q 2563 2525 2380 2717 
Q 2197 2909 1863 2909 
Q 1613 2909 1392 2779 
Q 1172 2650 1078 2428 
Q 984 2206 984 1816 
L 984 0 
L 422 0 
z
" id="ArialMT-68" transform="scale(0.015625)"/>
     <path d="M 422 -1272 
L 422 3319 
L 934 3319 
L 934 2888 
Q 1116 3141 1344 3267 
Q 1572 3394 1897 3394 
Q 2322 3394 2647 3175 
Q 2972 2956 3137 2557 
Q 3303 2159 3303 1684 
Q 3303 1175 3120 767 
Q 2938 359 2589 142 
Q 2241 -75 1856 -75 
Q 1575 -75 1351 44 
Q 1128 163 984 344 
L 984 -1272 
L 422 -1272 
z
M 931 1641 
Q 931 1000 1190 694 
Q 1450 388 1819 388 
Q 2194 388 2461 705 
Q 2728 1022 2728 1688 
Q 2728 2322 2467 2637 
Q 2206 2953 1844 2953 
Q 1484 2953 1207 2617 
Q 931 2281 931 1641 
z
" id="ArialMT-70" transform="scale(0.015625)"/>
     <path d="M 578 2678 
L 578 3319 
L 1219 3319 
L 1219 2678 
L 578 2678 
z
M 578 0 
L 578 641 
L 1219 641 
L 1219 0 
L 578 0 
z
" id="ArialMT-3a" transform="scale(0.015625)"/>
     <path d="M 0 -78 
L 1328 4659 
L 1778 4659 
L 453 -78 
L 0 -78 
z
" id="ArialMT-2f" transform="scale(0.015625)"/>
     <path d="M 941 0 
L 419 0 
L 419 4581 
L 981 4581 
L 981 2947 
Q 1338 3394 1891 3394 
Q 2197 3394 2470 3270 
Q 2744 3147 2920 2923 
Q 3097 2700 3197 2384 
Q 3297 2069 3297 1709 
Q 3297 856 2875 390 
Q 2453 -75 1863 -75 
Q 1275 -75 941 416 
L 941 0 
z
M 934 1684 
Q 934 1088 1097 822 
Q 1363 388 1816 388 
Q 2184 388 2453 708 
Q 2722 1028 2722 1663 
Q 2722 2313 2464 2622 
Q 2206 2931 1841 2931 
Q 1472 2931 1203 2611 
Q 934 2291 934 1684 
z
" id="ArialMT-62" transform="scale(0.015625)"/>
     <path d="M 581 0 
L 581 641 
L 1222 641 
L 1222 0 
L 581 0 
z
" id="ArialMT-2e" transform="scale(0.015625)"/>
     <path d="M 2588 1216 
L 3141 1144 
Q 3050 572 2676 248 
Q 2303 -75 1759 -75 
Q 1078 -75 664 370 
Q 250 816 250 1647 
Q 250 2184 428 2587 
Q 606 2991 970 3192 
Q 1334 3394 1763 3394 
Q 2303 3394 2647 3120 
Q 2991 2847 3088 2344 
L 2541 2259 
Q 2463 2594 2264 2762 
Q 2066 2931 1784 2931 
Q 1359 2931 1093 2626 
Q 828 2322 828 1663 
Q 828 994 1084 691 
Q 1341 388 1753 388 
Q 2084 388 2306 591 
Q 2528 794 2588 1216 
z
" id="ArialMT-63" transform="scale(0.015625)"/>
     <path d="M 1497 -1347 
Q 1031 -759 709 28 
Q 388 816 388 1659 
Q 388 2403 628 3084 
Q 909 3875 1497 4659 
L 1900 4659 
Q 1522 4009 1400 3731 
Q 1209 3300 1100 2831 
Q 966 2247 966 1656 
Q 966 153 1900 -1347 
L 1497 -1347 
z
" id="ArialMT-28" transform="scale(0.015625)"/>
     <path d="M 203 1375 
L 203 1941 
L 1931 1941 
L 1931 1375 
L 203 1375 
z
" id="ArialMT-2d" transform="scale(0.015625)"/>
     <path d="M 791 -1347 
L 388 -1347 
Q 1322 153 1322 1656 
Q 1322 2244 1188 2822 
Q 1081 3291 891 3722 
Q 769 4003 388 4659 
L 791 4659 
Q 1378 3875 1659 3084 
Q 1900 2403 1900 1659 
Q 1900 816 1576 28 
Q 1253 -759 791 -1347 
z
" id="ArialMT-29" transform="scale(0.015625)"/>
    </defs>
    <use xlink:href="#ArialMT-68"/>
    <use x="55.615234" xlink:href="#ArialMT-74"/>
    <use x="83.398438" xlink:href="#ArialMT-74"/>
    <use x="111.181641" xlink:href="#ArialMT-70"/>
    <use x="166.796875" xlink:href="#ArialMT-73"/>
    <use x="216.796875" xlink:href="#ArialMT-3a"/>
    <use x="244.580078" xlink:href="#ArialMT-2f"/>
    <use x="272.363281" xlink:href="#ArialMT-2f"/>
    <use x="300.146484" xlink:href="#ArialMT-67"/>
    <use x="355.761719" xlink:href="#ArialMT-69"/>
    <use x="377.978516" xlink:href="#ArialMT-74"/>
    <use x="405.761719" xlink:href="#ArialMT-68"/>
    <use x="461.376953" xlink:href="#ArialMT-75"/>
    <use x="516.992188" xlink:href="#ArialMT-62"/>
    <use x="572.607422" xlink:href="#ArialMT-2e"/>
    <use x="600.390625" xlink:href="#ArialMT-63"/>
    <use x="650.390625" xlink:href="#ArialMT-6f"/>
    <use x="706.005859" xlink:href="#ArialMT-6d"/>
    <use x="789.306641" xlink:href="#ArialMT-2f"/>
    <use x="817.089844" xlink:href="#ArialMT-62"/>
    <use x="872.705078" xlink:href="#ArialMT-69"/>
    <use x="894.921875" xlink:href="#ArialMT-6f"/>
    <use x="950.537109" xlink:href="#ArialMT-72"/>
    <use x="983.837891" xlink:href="#ArialMT-65"/>
    <use x="1039.453125" xlink:href="#ArialMT-67"/>
    <use x="1095.068359" xlink:href="#ArialMT-69"/>
    <use x="1117.285156" xlink:href="#ArialMT-73"/>
    <use x="1167.285156" xlink:href="#ArialMT-74"/>
    <use x="1195.068359" xlink:href="#ArialMT-72"/>
    <use x="1228.369141" xlink:href="#ArialMT-79"/>
    <use x="1278.369141" xlink:href="#ArialMT-2f"/>
    <use x="1306.152344" xlink:href="#ArialMT-62"/>
    <use x="1361.767578" xlink:href="#ArialMT-69"/>
    <use x="1383.984375" xlink:href="#ArialMT-6f"/>
    <use x="1439.599609" xlink:href="#ArialMT-72"/>
    <use x="1472.900391" xlink:href="#ArialMT-65"/>
    <use x="1528.515625" xlink:href="#ArialMT-67"/>
    <use x="1584.130859" xlink:href="#ArialMT-69"/>
    <use x="1606.347656" xlink:href="#ArialMT-73"/>
    <use x="1656.347656" xlink:href="#ArialMT-74"/>
    <use x="1684.130859" xlink:href="#ArialMT-72"/>
    <use x="1717.431641" xlink:href="#ArialMT-79"/>
    <use x="1767.431641" xlink:href="#ArialMT-20"/>
    <use x="1795.214844" xlink:href="#ArialMT-28"/>
    <use x="1828.515625" xlink:href="#ArialMT-32"/>
    <use x="1884.130859" xlink:href="#ArialMT-30"/>
    <use x="1939.746094" xlink:href="#ArialMT-32"/>
    <use x="1995.361328" xlink:href="#ArialMT-31"/>
    <use x="2050.976562" xlink:href="#ArialMT-2d"/>
    <use x="2084.277344" xlink:href="#ArialMT-30"/>
    <use x="2139.892578" xlink:href="#ArialMT-38"/>
    <use x="2195.507812" xlink:href="#ArialMT-2d"/>
    <use x="2228.808594" xlink:href="#ArialMT-30"/>
    <use x="2284.423828" xlink:href="#ArialMT-32"/>
    <use x="2340.039062" xlink:href="#ArialMT-29"/>
   </g>
  </g>
 </g>
 <defs>
  <clipPath id="p3ee9653c9a">
   <rect height="123.514618" width="124.997628" x="55.300627" y="10.8"/>
  </clipPath>
  <clipPath id="p26e2458863">
   <rect height="123.514618" width="124.615102" x="279.658795" y="10.8"/>
  </clipPath>
  <clipPath id="pce3c2e54bd">
   <rect height="123.514618" width="124.797857" x="503.734323" y="10.8"/>
  </clipPath>
  <clipPath id="pd65a5cee1f">
   <rect height="123.514618" width="157.54618" x="39.026351" y="152.361375"/>
  </clipPath>
  <clipPath id="p01a2c89b9e">
   <rect height="123.514618" width="125.697119" x="279.117787" y="152.361375"/>
  </clipPath>
  <clipPath id="p5c01c86116">
   <rect height="123.514618" width="144.799388" x="493.733557" y="152.361375"/>
  </clipPath>
  <clipPath id="pb6e25b3a3a">
   <rect height="123.514618" width="174.278611" x="30.660136" y="293.92275"/>
  </clipPath>
  <clipPath id="p0a900f63f1">
   <rect height="123.514618" width="134.564233" x="274.684229" y="293.92275"/>
  </clipPath>
  <clipPath id="pccfefd5f4a">
   <rect height="123.514618" width="137.056517" x="497.604993" y="293.92275"/>
  </clipPath>
  <clipPath id="pb4507993d2">
   <rect height="123.514618" width="138.171964" x="48.713459" y="435.484125"/>
  </clipPath>
  <clipPath id="p9a934e86b1">
   <rect height="123.514618" width="142.461402" x="270.735645" y="435.484125"/>
  </clipPath>
  <clipPath id="p98a97d5df2">
   <rect height="123.514618" width="140.631793" x="495.817355" y="435.484125"/>
  </clipPath>
 </defs>
</svg>
