<?xml version="1.0" encoding="utf-8" standalone="no"?>
<!DOCTYPE svg PUBLIC "-//W3C//DTD SVG 1.1//EN"
  "http://www.w3.org/Graphics/SVG/1.1/DTD/svg11.dtd">
<svg height="720pt" version="1.1" viewBox="0 0 702 720" width="702pt" xmlns="http://www.w3.org/2000/svg" xmlns:xlink="http://www.w3.org/1999/xlink">
 <metadata>
  <rdf:RDF xmlns:cc="http://creativecommons.org/ns#" xmlns:dc="http://purl.org/dc/elements/1.1/" xmlns:rdf="http://www.w3.org/1999/02/22-rdf-syntax-ns#">
   <cc:Work>
    <dc:type rdf:resource="http://purl.org/dc/dcmitype/StillImage"/>
    <dc:date>2021-10-14T11:23:26.786829</dc:date>
    <dc:format>image/svg+xml</dc:format>
    <dc:creator>
     <cc:Agent>
      <dc:title>Matplotlib v3.4.2, https://matplotlib.org/</dc:title>
     </cc:Agent>
    </dc:creator>
   </cc:Work>
  </rdf:RDF>
 </metadata>
 <defs>
  <style type="text/css">*{stroke-linecap:butt;stroke-linejoin:round;}</style>
 </defs>
 <g id="figure_1">
  <g id="patch_1">
   <path d="M 0 720 
L 702 720 
L 702 0 
L 0 0 
z
" style="fill:#ffffff;"/>
  </g>
  <g id="axes_1">
   <g id="patch_2">
    <path clip-path="url(#p0eaf5a9f3a)" d="M 168.395711 83.500088 
C 167.197456 85.84867 165.614796 87.98039 163.713334 89.806887 
C 161.811872 91.633385 159.61825 93.129068 157.223396 94.231938 
C 154.828542 95.334809 152.26601 96.029414 149.642021 96.286963 
C 147.018032 96.544512 144.369351 96.361395 141.805768 95.745204 
C 139.242185 95.129012 136.799619 94.088379 134.579318 92.666439 
C 132.359017 91.2445 130.392089 89.461177 128.760065 87.390393 
C 127.128042 85.319608 125.85379 82.990375 124.990129 80.499243 
C 124.126467 78.008111 123.685497 75.389983 123.685497 72.753385 
C 123.685497 70.116787 124.126467 67.49866 124.990129 65.007528 
C 125.85379 62.516396 127.128042 60.187163 128.760065 58.116378 
C 130.392089 56.045594 132.359017 54.262271 134.579318 52.840331 
C 136.799619 51.418392 139.242185 50.377759 141.805768 49.761567 
C 144.369351 49.145375 147.018032 48.962259 149.642021 49.219808 
C 152.26601 49.477356 154.828542 50.171962 157.223396 51.274833 
C 159.61825 52.377703 161.811872 53.873386 163.713334 55.699883 
C 165.614796 57.526381 167.197456 59.658101 168.395711 62.006682 
C 167.0774 55.688286 164.607642 49.666065 161.110043 44.24141 
C 157.612443 38.816756 153.146338 34.081699 147.935243 30.273214 
C 142.724147 26.464729 136.856467 23.647427 130.625862 21.962305 
C 124.395257 20.277184 117.907429 19.75283 111.487074 20.415488 
C 105.066718 21.078145 98.822758 22.916571 93.067682 25.838758 
C 87.312606 28.760945 82.14405 32.717318 77.820685 37.509874 
C 73.497319 42.302429 70.09249 47.84986 67.776598 53.874536 
C 65.460706 59.899212 64.27304 66.298924 64.27304 72.753385 
C 64.27304 79.207847 65.460706 85.607558 67.776598 91.632235 
C 70.09249 97.656911 73.497319 103.204342 77.820685 107.996897 
C 82.14405 112.789453 87.312606 116.745826 93.067682 119.668013 
C 98.822758 122.5902 105.066718 124.428626 111.487074 125.091283 
C 117.907429 125.753941 124.395257 125.229587 130.625862 123.544466 
C 136.856467 121.859344 142.724147 119.042042 147.935243 115.233557 
C 153.146338 111.425072 157.612443 106.690015 161.110043 101.265361 
C 164.607642 95.840706 167.0774 89.818485 168.395711 83.500088 
" style="fill:#c0c0c0;opacity:0.4;"/>
   </g>
   <g id="patch_3">
    <path clip-path="url(#p0eaf5a9f3a)" d="M 168.395711 62.006682 
C 169.13321 65.541362 169.504899 69.142588 169.504899 72.753385 
C 169.504899 76.364183 169.13321 79.965409 168.395711 83.500088 
C 170.093525 80.172371 170.978826 76.489195 170.978826 72.753385 
C 170.978826 69.017575 170.093525 65.3344 168.395711 62.006682 
" style="fill:#a6cee3;opacity:0.4;"/>
   </g>
   <g id="patch_4">
    <path clip-path="url(#p0eaf5a9f3a)" d="M 168.395711 83.500088 
C 169.13321 79.965409 169.504899 76.364183 169.504899 72.753385 
C 169.504899 69.142588 169.13321 65.541362 168.395711 62.006682 
C 167.197456 59.658101 165.614796 57.526381 163.713334 55.699883 
C 161.811872 53.873386 159.61825 52.377703 157.223396 51.274833 
C 154.828542 50.171962 152.26601 49.477356 149.642021 49.219808 
C 147.018032 48.962259 144.369351 49.145375 141.805768 49.761567 
C 139.242185 50.377759 136.799619 51.418392 134.579318 52.840331 
C 132.359017 54.262271 130.392089 56.045594 128.760065 58.116378 
C 127.128042 60.187163 125.85379 62.516396 124.990129 65.007528 
C 124.126467 67.49866 123.685497 70.116787 123.685497 72.753385 
C 123.685497 75.389983 124.126467 78.008111 124.990129 80.499243 
C 125.85379 82.990375 127.128042 85.319608 128.760065 87.390393 
C 130.392089 89.461177 132.359017 91.2445 134.579318 92.666439 
C 136.799619 94.088379 139.242185 95.129012 141.805768 95.745204 
C 144.369351 96.361395 147.018032 96.544512 149.642021 96.286963 
C 152.26601 96.029414 154.828542 95.334809 157.223396 94.231938 
C 159.61825 93.129068 161.811872 91.633385 163.713334 89.806887 
C 165.614796 87.98039 167.197456 85.84867 168.395711 83.500088 
" style="fill:#fbffff;opacity:0.4;"/>
   </g>
   <g id="text_1">
    <!-- 971 -->
    <g style="fill:#262626;" transform="translate(85.637863 75.338542)scale(0.1 -0.1)">
     <defs>
      <path d="M 350 1059 
L 891 1109 
Q 959 728 1153 556 
Q 1347 384 1650 384 
Q 1909 384 2104 503 
Q 2300 622 2425 820 
Q 2550 1019 2634 1356 
Q 2719 1694 2719 2044 
Q 2719 2081 2716 2156 
Q 2547 1888 2255 1720 
Q 1963 1553 1622 1553 
Q 1053 1553 659 1965 
Q 266 2378 266 3053 
Q 266 3750 677 4175 
Q 1088 4600 1706 4600 
Q 2153 4600 2523 4359 
Q 2894 4119 3086 3673 
Q 3278 3228 3278 2384 
Q 3278 1506 3087 986 
Q 2897 466 2520 194 
Q 2144 -78 1638 -78 
Q 1100 -78 759 220 
Q 419 519 350 1059 
z
M 2653 3081 
Q 2653 3566 2395 3850 
Q 2138 4134 1775 4134 
Q 1400 4134 1122 3828 
Q 844 3522 844 3034 
Q 844 2597 1108 2323 
Q 1372 2050 1759 2050 
Q 2150 2050 2401 2323 
Q 2653 2597 2653 3081 
z
" id="ArialMT-39" transform="scale(0.015625)"/>
      <path d="M 303 3981 
L 303 4522 
L 3269 4522 
L 3269 4084 
Q 2831 3619 2401 2847 
Q 1972 2075 1738 1259 
Q 1569 684 1522 0 
L 944 0 
Q 953 541 1156 1306 
Q 1359 2072 1739 2783 
Q 2119 3494 2547 3981 
L 303 3981 
z
" id="ArialMT-37" transform="scale(0.015625)"/>
      <path d="M 2384 0 
L 1822 0 
L 1822 3584 
Q 1619 3391 1289 3197 
Q 959 3003 697 2906 
L 697 3450 
Q 1169 3672 1522 3987 
Q 1875 4303 2022 4600 
L 2384 4600 
L 2384 0 
z
" id="ArialMT-31" transform="scale(0.015625)"/>
     </defs>
     <use xlink:href="#ArialMT-39"/>
     <use x="55.615234" xlink:href="#ArialMT-37"/>
     <use x="111.230469" xlink:href="#ArialMT-31"/>
    </g>
   </g>
   <g id="text_2">
    <!-- 3 -->
    <g style="fill:#262626;" transform="translate(167.461394 75.338542)scale(0.1 -0.1)">
     <defs>
      <path d="M 269 1209 
L 831 1284 
Q 928 806 1161 595 
Q 1394 384 1728 384 
Q 2125 384 2398 659 
Q 2672 934 2672 1341 
Q 2672 1728 2419 1979 
Q 2166 2231 1775 2231 
Q 1616 2231 1378 2169 
L 1441 2663 
Q 1497 2656 1531 2656 
Q 1891 2656 2178 2843 
Q 2466 3031 2466 3422 
Q 2466 3731 2256 3934 
Q 2047 4138 1716 4138 
Q 1388 4138 1169 3931 
Q 950 3725 888 3313 
L 325 3413 
Q 428 3978 793 4289 
Q 1159 4600 1703 4600 
Q 2078 4600 2393 4439 
Q 2709 4278 2876 4000 
Q 3044 3722 3044 3409 
Q 3044 3113 2884 2869 
Q 2725 2625 2413 2481 
Q 2819 2388 3044 2092 
Q 3269 1797 3269 1353 
Q 3269 753 2831 336 
Q 2394 -81 1725 -81 
Q 1122 -81 723 278 
Q 325 638 269 1209 
z
" id="ArialMT-33" transform="scale(0.015625)"/>
     </defs>
     <use xlink:href="#ArialMT-33"/>
    </g>
   </g>
   <g id="text_3">
    <!-- 242 -->
    <g style="fill:#262626;" transform="translate(138.253792 75.338542)scale(0.1 -0.1)">
     <defs>
      <path d="M 3222 541 
L 3222 0 
L 194 0 
Q 188 203 259 391 
Q 375 700 629 1000 
Q 884 1300 1366 1694 
Q 2113 2306 2375 2664 
Q 2638 3022 2638 3341 
Q 2638 3675 2398 3904 
Q 2159 4134 1775 4134 
Q 1369 4134 1125 3890 
Q 881 3647 878 3216 
L 300 3275 
Q 359 3922 746 4261 
Q 1134 4600 1788 4600 
Q 2447 4600 2831 4234 
Q 3216 3869 3216 3328 
Q 3216 3053 3103 2787 
Q 2991 2522 2730 2228 
Q 2469 1934 1863 1422 
Q 1356 997 1212 845 
Q 1069 694 975 541 
L 3222 541 
z
" id="ArialMT-32" transform="scale(0.015625)"/>
      <path d="M 2069 0 
L 2069 1097 
L 81 1097 
L 81 1613 
L 2172 4581 
L 2631 4581 
L 2631 1613 
L 3250 1613 
L 3250 1097 
L 2631 1097 
L 2631 0 
L 2069 0 
z
M 2069 1613 
L 2069 3678 
L 634 1613 
L 2069 1613 
z
" id="ArialMT-34" transform="scale(0.015625)"/>
     </defs>
     <use xlink:href="#ArialMT-32"/>
     <use x="55.615234" xlink:href="#ArialMT-34"/>
     <use x="111.230469" xlink:href="#ArialMT-32"/>
    </g>
   </g>
   <g id="text_4">
    <!-- Bioregistry -->
    <g style="fill:#262626;" transform="translate(60.20772 137.77182)scale(0.12 -0.12)">
     <defs>
      <path d="M 469 0 
L 469 4581 
L 2188 4581 
Q 2713 4581 3030 4442 
Q 3347 4303 3526 4014 
Q 3706 3725 3706 3409 
Q 3706 3116 3547 2856 
Q 3388 2597 3066 2438 
Q 3481 2316 3704 2022 
Q 3928 1728 3928 1328 
Q 3928 1006 3792 729 
Q 3656 453 3456 303 
Q 3256 153 2954 76 
Q 2653 0 2216 0 
L 469 0 
z
M 1075 2656 
L 2066 2656 
Q 2469 2656 2644 2709 
Q 2875 2778 2992 2937 
Q 3109 3097 3109 3338 
Q 3109 3566 3000 3739 
Q 2891 3913 2687 3977 
Q 2484 4041 1991 4041 
L 1075 4041 
L 1075 2656 
z
M 1075 541 
L 2216 541 
Q 2509 541 2628 563 
Q 2838 600 2978 687 
Q 3119 775 3209 942 
Q 3300 1109 3300 1328 
Q 3300 1584 3169 1773 
Q 3038 1963 2805 2039 
Q 2572 2116 2134 2116 
L 1075 2116 
L 1075 541 
z
" id="ArialMT-42" transform="scale(0.015625)"/>
      <path d="M 425 3934 
L 425 4581 
L 988 4581 
L 988 3934 
L 425 3934 
z
M 425 0 
L 425 3319 
L 988 3319 
L 988 0 
L 425 0 
z
" id="ArialMT-69" transform="scale(0.015625)"/>
      <path d="M 213 1659 
Q 213 2581 725 3025 
Q 1153 3394 1769 3394 
Q 2453 3394 2887 2945 
Q 3322 2497 3322 1706 
Q 3322 1066 3130 698 
Q 2938 331 2570 128 
Q 2203 -75 1769 -75 
Q 1072 -75 642 372 
Q 213 819 213 1659 
z
M 791 1659 
Q 791 1022 1069 705 
Q 1347 388 1769 388 
Q 2188 388 2466 706 
Q 2744 1025 2744 1678 
Q 2744 2294 2464 2611 
Q 2184 2928 1769 2928 
Q 1347 2928 1069 2612 
Q 791 2297 791 1659 
z
" id="ArialMT-6f" transform="scale(0.015625)"/>
      <path d="M 416 0 
L 416 3319 
L 922 3319 
L 922 2816 
Q 1116 3169 1280 3281 
Q 1444 3394 1641 3394 
Q 1925 3394 2219 3213 
L 2025 2691 
Q 1819 2813 1613 2813 
Q 1428 2813 1281 2702 
Q 1134 2591 1072 2394 
Q 978 2094 978 1738 
L 978 0 
L 416 0 
z
" id="ArialMT-72" transform="scale(0.015625)"/>
      <path d="M 2694 1069 
L 3275 997 
Q 3138 488 2766 206 
Q 2394 -75 1816 -75 
Q 1088 -75 661 373 
Q 234 822 234 1631 
Q 234 2469 665 2931 
Q 1097 3394 1784 3394 
Q 2450 3394 2872 2941 
Q 3294 2488 3294 1666 
Q 3294 1616 3291 1516 
L 816 1516 
Q 847 969 1125 678 
Q 1403 388 1819 388 
Q 2128 388 2347 550 
Q 2566 713 2694 1069 
z
M 847 1978 
L 2700 1978 
Q 2663 2397 2488 2606 
Q 2219 2931 1791 2931 
Q 1403 2931 1139 2672 
Q 875 2413 847 1978 
z
" id="ArialMT-65" transform="scale(0.015625)"/>
      <path d="M 319 -275 
L 866 -356 
Q 900 -609 1056 -725 
Q 1266 -881 1628 -881 
Q 2019 -881 2231 -725 
Q 2444 -569 2519 -288 
Q 2563 -116 2559 434 
Q 2191 0 1641 0 
Q 956 0 581 494 
Q 206 988 206 1678 
Q 206 2153 378 2554 
Q 550 2956 876 3175 
Q 1203 3394 1644 3394 
Q 2231 3394 2613 2919 
L 2613 3319 
L 3131 3319 
L 3131 450 
Q 3131 -325 2973 -648 
Q 2816 -972 2473 -1159 
Q 2131 -1347 1631 -1347 
Q 1038 -1347 672 -1080 
Q 306 -813 319 -275 
z
M 784 1719 
Q 784 1066 1043 766 
Q 1303 466 1694 466 
Q 2081 466 2343 764 
Q 2606 1063 2606 1700 
Q 2606 2309 2336 2618 
Q 2066 2928 1684 2928 
Q 1309 2928 1046 2623 
Q 784 2319 784 1719 
z
" id="ArialMT-67" transform="scale(0.015625)"/>
      <path d="M 197 991 
L 753 1078 
Q 800 744 1014 566 
Q 1228 388 1613 388 
Q 2000 388 2187 545 
Q 2375 703 2375 916 
Q 2375 1106 2209 1216 
Q 2094 1291 1634 1406 
Q 1016 1563 777 1677 
Q 538 1791 414 1992 
Q 291 2194 291 2438 
Q 291 2659 392 2848 
Q 494 3038 669 3163 
Q 800 3259 1026 3326 
Q 1253 3394 1513 3394 
Q 1903 3394 2198 3281 
Q 2494 3169 2634 2976 
Q 2775 2784 2828 2463 
L 2278 2388 
Q 2241 2644 2061 2787 
Q 1881 2931 1553 2931 
Q 1166 2931 1000 2803 
Q 834 2675 834 2503 
Q 834 2394 903 2306 
Q 972 2216 1119 2156 
Q 1203 2125 1616 2013 
Q 2213 1853 2448 1751 
Q 2684 1650 2818 1456 
Q 2953 1263 2953 975 
Q 2953 694 2789 445 
Q 2625 197 2315 61 
Q 2006 -75 1616 -75 
Q 969 -75 630 194 
Q 291 463 197 991 
z
" id="ArialMT-73" transform="scale(0.015625)"/>
      <path d="M 1650 503 
L 1731 6 
Q 1494 -44 1306 -44 
Q 1000 -44 831 53 
Q 663 150 594 308 
Q 525 466 525 972 
L 525 2881 
L 113 2881 
L 113 3319 
L 525 3319 
L 525 4141 
L 1084 4478 
L 1084 3319 
L 1650 3319 
L 1650 2881 
L 1084 2881 
L 1084 941 
Q 1084 700 1114 631 
Q 1144 563 1211 522 
Q 1278 481 1403 481 
Q 1497 481 1650 503 
z
" id="ArialMT-74" transform="scale(0.015625)"/>
      <path d="M 397 -1278 
L 334 -750 
Q 519 -800 656 -800 
Q 844 -800 956 -737 
Q 1069 -675 1141 -563 
Q 1194 -478 1313 -144 
Q 1328 -97 1363 -6 
L 103 3319 
L 709 3319 
L 1400 1397 
Q 1534 1031 1641 628 
Q 1738 1016 1872 1384 
L 2581 3319 
L 3144 3319 
L 1881 -56 
Q 1678 -603 1566 -809 
Q 1416 -1088 1222 -1217 
Q 1028 -1347 759 -1347 
Q 597 -1347 397 -1278 
z
" id="ArialMT-79" transform="scale(0.015625)"/>
     </defs>
     <use xlink:href="#ArialMT-42"/>
     <use x="66.699219" xlink:href="#ArialMT-69"/>
     <use x="88.916016" xlink:href="#ArialMT-6f"/>
     <use x="144.53125" xlink:href="#ArialMT-72"/>
     <use x="177.832031" xlink:href="#ArialMT-65"/>
     <use x="233.447266" xlink:href="#ArialMT-67"/>
     <use x="289.0625" xlink:href="#ArialMT-69"/>
     <use x="311.279297" xlink:href="#ArialMT-73"/>
     <use x="361.279297" xlink:href="#ArialMT-74"/>
     <use x="389.0625" xlink:href="#ArialMT-72"/>
     <use x="422.363281" xlink:href="#ArialMT-79"/>
    </g>
   </g>
   <g id="text_5">
    <!-- OBO -->
    <g style="fill:#262626;" transform="translate(147.332162 108.802555)scale(0.12 -0.12)">
     <defs>
      <path d="M 309 2231 
Q 309 3372 921 4017 
Q 1534 4663 2503 4663 
Q 3138 4663 3647 4359 
Q 4156 4056 4423 3514 
Q 4691 2972 4691 2284 
Q 4691 1588 4409 1038 
Q 4128 488 3612 205 
Q 3097 -78 2500 -78 
Q 1853 -78 1343 234 
Q 834 547 571 1087 
Q 309 1628 309 2231 
z
M 934 2222 
Q 934 1394 1379 917 
Q 1825 441 2497 441 
Q 3181 441 3623 922 
Q 4066 1403 4066 2288 
Q 4066 2847 3877 3264 
Q 3688 3681 3323 3911 
Q 2959 4141 2506 4141 
Q 1863 4141 1398 3698 
Q 934 3256 934 2222 
z
" id="ArialMT-4f" transform="scale(0.015625)"/>
     </defs>
     <use xlink:href="#ArialMT-4f"/>
     <use x="77.783203" xlink:href="#ArialMT-42"/>
     <use x="144.482422" xlink:href="#ArialMT-4f"/>
    </g>
   </g>
  </g>
  <g id="axes_2">
   <g id="patch_5">
    <path clip-path="url(#p8605db27aa)" d="M 393.248789 82.453536 
C 392.140286 85.035018 390.597435 87.407487 388.687374 89.467704 
C 386.777313 91.527922 384.528157 93.245563 382.037777 94.545885 
C 379.547398 95.846207 376.852451 96.71007 374.070208 97.099883 
C 371.287966 97.489695 368.459379 97.39972 365.707536 96.833872 
C 362.955692 96.268025 360.321095 95.234633 357.918391 93.778666 
C 355.515687 92.322699 353.380241 90.465587 351.604977 88.288142 
C 349.829713 86.110698 348.440761 83.64497 347.498562 80.998258 
C 346.556364 78.351545 346.074787 75.562803 346.074787 72.753385 
C 346.074787 69.943968 346.556364 67.155226 347.498562 64.508513 
C 348.440761 61.8618 349.829713 59.396073 351.604977 57.218628 
C 353.380241 55.041184 355.515687 53.184072 357.918391 51.728105 
C 360.321095 50.272138 362.955692 49.238746 365.707536 48.672898 
C 368.459379 48.107051 371.287966 48.017076 374.070208 48.406888 
C 376.852451 48.796701 379.547398 49.660564 382.037777 50.960886 
C 384.528157 52.261208 386.777313 53.978849 388.687374 56.039067 
C 390.597435 58.099284 392.140286 60.471753 393.248789 63.053234 
C 392.05059 56.66491 389.679032 50.553542 386.254435 45.029187 
C 382.829838 39.504832 378.411113 34.662521 373.222441 30.747926 
C 368.03377 26.833332 362.164408 23.913794 355.912136 22.137433 
C 349.659864 20.361072 343.132234 19.758446 336.660423 20.360129 
C 330.188611 20.961812 323.883948 22.757454 318.066297 25.655953 
C 312.248645 28.554452 307.018083 32.505948 302.639979 37.309964 
C 298.261874 42.11398 294.811542 47.687876 292.464032 53.748863 
C 290.116522 59.80985 288.912217 66.253665 288.912217 72.753385 
C 288.912217 79.253106 290.116522 85.696921 292.464032 91.757908 
C 294.811542 97.818895 298.261874 103.392791 302.639979 108.196807 
C 307.018083 113.000822 312.248645 116.952318 318.066297 119.850818 
C 323.883948 122.749317 330.188611 124.544958 336.660423 125.146641 
C 343.132234 125.748325 349.659864 125.145699 355.912136 123.369338 
C 362.164408 121.592977 368.03377 118.673439 373.222441 114.758845 
C 378.411113 110.84425 382.829838 106.001939 386.254435 100.477584 
C 389.679032 94.953229 392.05059 88.841861 393.248789 82.453536 
" style="fill:#c0c0c0;opacity:0.4;"/>
   </g>
   <g id="patch_6">
    <path clip-path="url(#p8605db27aa)" d="M 393.248789 63.053234 
C 393.848709 66.25177 394.15061 69.499075 394.15061 72.753385 
C 394.15061 76.007696 393.848709 79.255001 393.248789 82.453536 
C 394.564716 79.389006 395.243382 76.088503 395.243382 72.753385 
C 395.243382 69.418267 394.564716 66.117765 393.248789 63.053234 
" style="fill:#1f78b4;opacity:0.4;"/>
   </g>
   <g id="patch_7">
    <path clip-path="url(#p8605db27aa)" d="M 393.248789 82.453536 
C 393.848709 79.255001 394.15061 76.007696 394.15061 72.753385 
C 394.15061 69.499075 393.848709 66.25177 393.248789 63.053234 
C 392.140286 60.471753 390.597435 58.099284 388.687374 56.039067 
C 386.777313 53.978849 384.528157 52.261208 382.037777 50.960886 
C 379.547398 49.660564 376.852451 48.796701 374.070208 48.406888 
C 371.287966 48.017076 368.459379 48.107051 365.707536 48.672898 
C 362.955692 49.238746 360.321095 50.272138 357.918391 51.728105 
C 355.515687 53.184072 353.380241 55.041184 351.604977 57.218628 
C 349.829713 59.396073 348.440761 61.8618 347.498562 64.508513 
C 346.556364 67.155226 346.074787 69.943968 346.074787 72.753385 
C 346.074787 75.562803 346.556364 78.351545 347.498562 80.998258 
C 348.440761 83.64497 349.829713 86.110698 351.604977 88.288142 
C 353.380241 90.465587 355.515687 92.322699 357.918391 93.778666 
C 360.321095 95.234633 362.955692 96.268025 365.707536 96.833872 
C 368.459379 97.39972 371.287966 97.489695 374.070208 97.099883 
C 376.852451 96.71007 379.547398 95.846207 382.037777 94.545885 
C 384.528157 93.245563 386.777313 91.527922 388.687374 89.467704 
C 390.597435 87.407487 392.140286 85.035018 393.248789 82.453536 
" style="fill:#9cdaff;opacity:0.4;"/>
   </g>
   <g id="text_6">
    <!-- 951 -->
    <g style="fill:#262626;" transform="translate(309.152096 75.338542)scale(0.1 -0.1)">
     <defs>
      <path d="M 266 1200 
L 856 1250 
Q 922 819 1161 601 
Q 1400 384 1738 384 
Q 2144 384 2425 690 
Q 2706 997 2706 1503 
Q 2706 1984 2436 2262 
Q 2166 2541 1728 2541 
Q 1456 2541 1237 2417 
Q 1019 2294 894 2097 
L 366 2166 
L 809 4519 
L 3088 4519 
L 3088 3981 
L 1259 3981 
L 1013 2750 
Q 1425 3038 1878 3038 
Q 2478 3038 2890 2622 
Q 3303 2206 3303 1553 
Q 3303 931 2941 478 
Q 2500 -78 1738 -78 
Q 1113 -78 717 272 
Q 322 622 266 1200 
z
" id="ArialMT-35" transform="scale(0.015625)"/>
     </defs>
     <use xlink:href="#ArialMT-39"/>
     <use x="55.615234" xlink:href="#ArialMT-35"/>
     <use x="111.230469" xlink:href="#ArialMT-31"/>
    </g>
   </g>
   <g id="text_7">
    <!-- 2 -->
    <g style="fill:#262626;" transform="translate(391.916527 75.338542)scale(0.1 -0.1)">
     <use xlink:href="#ArialMT-32"/>
    </g>
   </g>
   <g id="text_8">
    <!-- 263 -->
    <g style="fill:#262626;" transform="translate(361.771292 75.338542)scale(0.1 -0.1)">
     <defs>
      <path d="M 3184 3459 
L 2625 3416 
Q 2550 3747 2413 3897 
Q 2184 4138 1850 4138 
Q 1581 4138 1378 3988 
Q 1113 3794 959 3422 
Q 806 3050 800 2363 
Q 1003 2672 1297 2822 
Q 1591 2972 1913 2972 
Q 2475 2972 2870 2558 
Q 3266 2144 3266 1488 
Q 3266 1056 3080 686 
Q 2894 316 2569 119 
Q 2244 -78 1831 -78 
Q 1128 -78 684 439 
Q 241 956 241 2144 
Q 241 3472 731 4075 
Q 1159 4600 1884 4600 
Q 2425 4600 2770 4297 
Q 3116 3994 3184 3459 
z
M 888 1484 
Q 888 1194 1011 928 
Q 1134 663 1356 523 
Q 1578 384 1822 384 
Q 2178 384 2434 671 
Q 2691 959 2691 1453 
Q 2691 1928 2437 2201 
Q 2184 2475 1800 2475 
Q 1419 2475 1153 2201 
Q 888 1928 888 1484 
z
" id="ArialMT-36" transform="scale(0.015625)"/>
     </defs>
     <use xlink:href="#ArialMT-32"/>
     <use x="55.615234" xlink:href="#ArialMT-36"/>
     <use x="111.230469" xlink:href="#ArialMT-33"/>
    </g>
   </g>
   <g id="text_9">
    <!-- Bioregistry -->
    <g style="fill:#262626;" transform="translate(284.850164 137.822132)scale(0.12 -0.12)">
     <use xlink:href="#ArialMT-42"/>
     <use x="66.699219" xlink:href="#ArialMT-69"/>
     <use x="88.916016" xlink:href="#ArialMT-6f"/>
     <use x="144.53125" xlink:href="#ArialMT-72"/>
     <use x="177.832031" xlink:href="#ArialMT-65"/>
     <use x="233.447266" xlink:href="#ArialMT-67"/>
     <use x="289.0625" xlink:href="#ArialMT-69"/>
     <use x="311.279297" xlink:href="#ArialMT-73"/>
     <use x="361.279297" xlink:href="#ArialMT-74"/>
     <use x="389.0625" xlink:href="#ArialMT-72"/>
     <use x="422.363281" xlink:href="#ArialMT-79"/>
    </g>
   </g>
   <g id="text_10">
    <!-- OLS -->
    <g style="fill:#262626;" transform="translate(370.659084 109.787233)scale(0.12 -0.12)">
     <defs>
      <path d="M 469 0 
L 469 4581 
L 1075 4581 
L 1075 541 
L 3331 541 
L 3331 0 
L 469 0 
z
" id="ArialMT-4c" transform="scale(0.015625)"/>
      <path d="M 288 1472 
L 859 1522 
Q 900 1178 1048 958 
Q 1197 738 1509 602 
Q 1822 466 2213 466 
Q 2559 466 2825 569 
Q 3091 672 3220 851 
Q 3350 1031 3350 1244 
Q 3350 1459 3225 1620 
Q 3100 1781 2813 1891 
Q 2628 1963 1997 2114 
Q 1366 2266 1113 2400 
Q 784 2572 623 2826 
Q 463 3081 463 3397 
Q 463 3744 659 4045 
Q 856 4347 1234 4503 
Q 1613 4659 2075 4659 
Q 2584 4659 2973 4495 
Q 3363 4331 3572 4012 
Q 3781 3694 3797 3291 
L 3216 3247 
Q 3169 3681 2898 3903 
Q 2628 4125 2100 4125 
Q 1550 4125 1298 3923 
Q 1047 3722 1047 3438 
Q 1047 3191 1225 3031 
Q 1400 2872 2139 2705 
Q 2878 2538 3153 2413 
Q 3553 2228 3743 1945 
Q 3934 1663 3934 1294 
Q 3934 928 3725 604 
Q 3516 281 3123 101 
Q 2731 -78 2241 -78 
Q 1619 -78 1198 103 
Q 778 284 539 648 
Q 300 1013 288 1472 
z
" id="ArialMT-53" transform="scale(0.015625)"/>
     </defs>
     <use xlink:href="#ArialMT-4f"/>
     <use x="77.783203" xlink:href="#ArialMT-4c"/>
     <use x="133.398438" xlink:href="#ArialMT-53"/>
    </g>
   </g>
  </g>
  <g id="axes_3">
   <g id="patch_8">
    <path clip-path="url(#pd7b103ac85)" d="M 617.412954 85.343559 
C 615.922248 90.04044 613.609137 94.435454 610.581577 98.323483 
C 607.554017 102.211512 603.859851 105.531115 599.671488 108.127364 
C 595.483126 110.723612 590.866754 112.555479 586.037821 113.537469 
C 581.208889 114.51946 576.243707 114.636055 571.374004 113.881815 
C 566.5043 113.127575 561.80703 111.514417 557.501417 109.11763 
C 553.195805 106.720842 549.34989 103.5783 546.143165 99.836669 
C 542.936441 96.095037 540.41958 91.813444 538.710048 87.191714 
C 537.000516 82.569984 536.125327 77.681153 536.125327 72.753385 
C 536.125327 67.825618 537.000516 62.936787 538.710048 58.315057 
C 540.41958 53.693327 542.936441 49.411733 546.143165 45.670102 
C 549.34989 41.92847 553.195805 38.785929 557.501417 36.389141 
C 561.80703 33.992354 566.5043 32.379196 571.374004 31.624956 
C 576.243707 30.870715 581.208889 30.987311 586.037821 31.969301 
C 590.866754 32.951292 595.483126 34.783158 599.671488 37.379407 
C 603.859851 39.975656 607.554017 43.295259 610.581577 47.183288 
C 613.609137 51.071317 615.922248 55.466331 617.412954 60.163211 
C 615.887492 53.972496 613.249525 48.110253 609.627894 42.862798 
C 606.006263 37.615344 601.460905 33.069522 596.213819 29.447356 
C 590.966734 25.82519 585.104759 23.186626 578.9142 21.660532 
C 572.72364 20.134439 566.306947 19.746073 559.977519 20.514404 
C 553.648091 21.282734 547.510678 23.195044 541.865037 26.157936 
C 536.219396 29.120828 531.158961 33.085265 526.930888 37.857622 
C 522.702815 42.629979 519.377078 48.131274 517.116109 54.092818 
C 514.85514 60.054362 513.696358 66.377494 513.696358 72.753385 
C 513.696358 79.129277 514.85514 85.452408 517.116109 91.413953 
C 519.377078 97.375497 522.702815 102.876792 526.930888 107.649148 
C 531.158961 112.421505 536.219396 116.385943 541.865037 119.348835 
C 547.510678 122.311726 553.648091 124.224037 559.977519 124.992367 
C 566.306947 125.760697 572.72364 125.372332 578.9142 123.846238 
C 585.104759 122.320145 590.966734 119.68158 596.213819 116.059414 
C 601.460905 112.437249 606.006263 107.891427 609.627894 102.643973 
C 613.249525 97.396518 615.887492 91.534275 617.412954 85.343559 
" style="fill:#c0c0c0;opacity:0.4;"/>
   </g>
   <g id="patch_9">
    <path clip-path="url(#pd7b103ac85)" d="M 617.412954 60.163211 
C 618.428107 64.28296 618.941277 68.510407 618.941277 72.753385 
C 618.941277 76.996364 618.428107 81.223811 617.412954 85.343559 
C 618.705252 81.271821 619.362974 77.02528 619.362974 72.753385 
C 619.362974 68.481491 618.705252 64.23495 617.412954 60.163211 
" style="fill:#b2df8a;opacity:0.4;"/>
   </g>
   <g id="patch_10">
    <path clip-path="url(#pd7b103ac85)" d="M 617.412954 85.343559 
C 618.428107 81.223811 618.941277 76.996364 618.941277 72.753385 
C 618.941277 68.510407 618.428107 64.28296 617.412954 60.163211 
C 615.922248 55.466331 613.609137 51.071317 610.581577 47.183288 
C 607.554017 43.295259 603.859851 39.975656 599.671488 37.379407 
C 595.483126 34.783158 590.866754 32.951292 586.037821 31.969301 
C 581.208889 30.987311 576.243707 30.870715 571.374004 31.624956 
C 566.5043 32.379196 561.80703 33.992354 557.501417 36.389141 
C 553.195805 38.785929 549.34989 41.92847 546.143165 45.670102 
C 542.936441 49.411733 540.41958 53.693327 538.710048 58.315057 
C 537.000516 62.936787 536.125327 67.825618 536.125327 72.753385 
C 536.125327 77.681153 537.000516 82.569984 538.710048 87.191714 
C 540.41958 91.813444 542.936441 96.095037 546.143165 99.836669 
C 549.34989 103.5783 553.195805 106.720842 557.501417 109.11763 
C 561.80703 111.514417 566.5043 113.127575 571.374004 113.881815 
C 576.243707 114.636055 581.208889 114.51946 586.037821 113.537469 
C 590.866754 112.555479 595.483126 110.723612 599.671488 108.127364 
C 603.859851 105.531115 607.554017 102.211512 610.581577 98.323483 
C 613.609137 94.435454 615.922248 90.04044 617.412954 85.343559 
" style="fill:#ffffe7;opacity:0.4;"/>
   </g>
   <g id="text_11">
    <!-- 456 -->
    <g style="fill:#262626;" transform="translate(516.569436 75.338542)scale(0.1 -0.1)">
     <use xlink:href="#ArialMT-34"/>
     <use x="55.615234" xlink:href="#ArialMT-35"/>
     <use x="111.230469" xlink:href="#ArialMT-36"/>
    </g>
   </g>
   <g id="text_12">
    <!-- 1 -->
    <g style="fill:#262626;" transform="translate(616.371657 75.338542)scale(0.1 -0.1)">
     <use xlink:href="#ArialMT-31"/>
    </g>
   </g>
   <g id="text_13">
    <!-- 759 -->
    <g style="fill:#262626;" transform="translate(569.191896 75.338542)scale(0.1 -0.1)">
     <use xlink:href="#ArialMT-37"/>
     <use x="55.615234" xlink:href="#ArialMT-35"/>
     <use x="111.230469" xlink:href="#ArialMT-39"/>
    </g>
   </g>
   <g id="text_14">
    <!-- Bioregistry -->
    <g style="fill:#262626;" transform="translate(509.637568 138.677284)scale(0.12 -0.12)">
     <use xlink:href="#ArialMT-42"/>
     <use x="66.699219" xlink:href="#ArialMT-69"/>
     <use x="88.916016" xlink:href="#ArialMT-6f"/>
     <use x="144.53125" xlink:href="#ArialMT-72"/>
     <use x="177.832031" xlink:href="#ArialMT-65"/>
     <use x="233.447266" xlink:href="#ArialMT-67"/>
     <use x="289.0625" xlink:href="#ArialMT-69"/>
     <use x="311.279297" xlink:href="#ArialMT-73"/>
     <use x="361.279297" xlink:href="#ArialMT-74"/>
     <use x="389.0625" xlink:href="#ArialMT-72"/>
     <use x="422.363281" xlink:href="#ArialMT-79"/>
    </g>
   </g>
   <g id="text_15">
    <!-- MIRIAM -->
    <g style="fill:#262626;" transform="translate(577.74415 127.673648)scale(0.12 -0.12)">
     <defs>
      <path d="M 475 0 
L 475 4581 
L 1388 4581 
L 2472 1338 
Q 2622 884 2691 659 
Q 2769 909 2934 1394 
L 4031 4581 
L 4847 4581 
L 4847 0 
L 4263 0 
L 4263 3834 
L 2931 0 
L 2384 0 
L 1059 3900 
L 1059 0 
L 475 0 
z
" id="ArialMT-4d" transform="scale(0.015625)"/>
      <path d="M 597 0 
L 597 4581 
L 1203 4581 
L 1203 0 
L 597 0 
z
" id="ArialMT-49" transform="scale(0.015625)"/>
      <path d="M 503 0 
L 503 4581 
L 2534 4581 
Q 3147 4581 3465 4457 
Q 3784 4334 3975 4021 
Q 4166 3709 4166 3331 
Q 4166 2844 3850 2509 
Q 3534 2175 2875 2084 
Q 3116 1969 3241 1856 
Q 3506 1613 3744 1247 
L 4541 0 
L 3778 0 
L 3172 953 
Q 2906 1366 2734 1584 
Q 2563 1803 2427 1890 
Q 2291 1978 2150 2013 
Q 2047 2034 1813 2034 
L 1109 2034 
L 1109 0 
L 503 0 
z
M 1109 2559 
L 2413 2559 
Q 2828 2559 3062 2645 
Q 3297 2731 3419 2920 
Q 3541 3109 3541 3331 
Q 3541 3656 3305 3865 
Q 3069 4075 2559 4075 
L 1109 4075 
L 1109 2559 
z
" id="ArialMT-52" transform="scale(0.015625)"/>
      <path d="M -9 0 
L 1750 4581 
L 2403 4581 
L 4278 0 
L 3588 0 
L 3053 1388 
L 1138 1388 
L 634 0 
L -9 0 
z
M 1313 1881 
L 2866 1881 
L 2388 3150 
Q 2169 3728 2063 4100 
Q 1975 3659 1816 3225 
L 1313 1881 
z
" id="ArialMT-41" transform="scale(0.015625)"/>
     </defs>
     <use xlink:href="#ArialMT-4d"/>
     <use x="83.300781" xlink:href="#ArialMT-49"/>
     <use x="111.083984" xlink:href="#ArialMT-52"/>
     <use x="183.300781" xlink:href="#ArialMT-49"/>
     <use x="211.083984" xlink:href="#ArialMT-41"/>
     <use x="277.783203" xlink:href="#ArialMT-4d"/>
    </g>
   </g>
  </g>
  <g id="axes_4">
   <g id="patch_11">
    <path clip-path="url(#p2f883b06f9)" d="M 149.809265 232.260788 
C 147.19979 230.149882 145.094968 227.48203 143.649236 224.452981 
C 142.203504 221.423932 141.453108 218.109627 141.453108 214.753248 
C 141.453108 211.396869 142.203504 208.082564 143.649236 205.053515 
C 145.094968 202.024465 147.19979 199.356613 149.809265 197.245708 
C 147.762638 191.516772 144.727207 186.190833 140.841111 181.510272 
C 136.955016 176.82971 132.278115 172.866622 127.023251 169.801365 
C 121.768387 166.736108 116.016503 164.615897 110.029362 163.537221 
C 104.042222 162.458546 97.912047 162.43802 91.917817 163.47658 
C 85.923588 164.515139 80.157635 166.596786 74.882362 169.626785 
C 69.60709 172.656785 64.903756 176.588466 60.986405 181.2429 
C 57.069053 185.897333 53.998025 191.202826 51.913081 196.917929 
C 49.828137 202.633032 48.761391 208.669713 48.761391 214.753248 
C 48.761391 220.836783 49.828137 226.873464 51.913081 232.588567 
C 53.998025 238.30367 57.069053 243.609163 60.986405 248.263596 
C 64.903756 252.91803 69.60709 256.849711 74.882362 259.87971 
C 80.157635 262.90971 85.923588 264.991357 91.917817 266.029916 
C 97.912047 267.068475 104.042222 267.04795 110.029362 265.969274 
C 116.016503 264.890599 121.768387 262.770388 127.023251 259.70513 
C 132.278115 256.639873 136.955016 252.676786 140.841111 247.996224 
C 144.727207 243.315663 147.762638 237.989724 149.809265 232.260788 
" style="fill:#c0c0c0;opacity:0.4;"/>
   </g>
   <g id="patch_12">
    <path clip-path="url(#p2f883b06f9)" d="M 149.809265 197.245708 
C 151.816521 202.864436 152.842619 208.786743 152.842619 214.753248 
C 152.842619 220.719753 151.816521 226.64206 149.809265 232.260788 
C 153.114846 234.9348 157.111121 236.618735 161.333571 237.116854 
C 165.55602 237.614974 169.834444 236.9072 173.671525 235.075804 
C 177.508606 233.244407 180.749678 230.363208 183.018003 226.767112 
C 185.286328 223.171017 186.490475 219.004977 186.490475 214.753248 
C 186.490475 210.501519 185.286328 206.335479 183.018003 202.739383 
C 180.749678 199.143288 177.508606 196.262089 173.671525 194.430692 
C 169.834444 192.599295 165.55602 191.891522 161.333571 192.389641 
C 157.111121 192.887761 153.114846 194.571696 149.809265 197.245708 
" style="fill:#33a02c;opacity:0.4;"/>
   </g>
   <g id="patch_13">
    <path clip-path="url(#p2f883b06f9)" d="M 149.809265 232.260788 
C 151.816521 226.64206 152.842619 220.719753 152.842619 214.753248 
C 152.842619 208.786743 151.816521 202.864436 149.809265 197.245708 
C 147.19979 199.356613 145.094968 202.024465 143.649236 205.053515 
C 142.203504 208.082564 141.453108 211.396869 141.453108 214.753248 
C 141.453108 218.109627 142.203504 221.423932 143.649236 224.452981 
C 145.094968 227.48203 147.19979 230.149882 149.809265 232.260788 
" style="fill:#aaf6a5;opacity:0.4;"/>
   </g>
   <g id="text_16">
    <!-- 1168 -->
    <g style="fill:#262626;" transform="translate(84.354125 217.338404)scale(0.1 -0.1)">
     <defs>
      <path d="M 1131 2484 
Q 781 2613 612 2850 
Q 444 3088 444 3419 
Q 444 3919 803 4259 
Q 1163 4600 1759 4600 
Q 2359 4600 2725 4251 
Q 3091 3903 3091 3403 
Q 3091 3084 2923 2848 
Q 2756 2613 2416 2484 
Q 2838 2347 3058 2040 
Q 3278 1734 3278 1309 
Q 3278 722 2862 322 
Q 2447 -78 1769 -78 
Q 1091 -78 675 323 
Q 259 725 259 1325 
Q 259 1772 486 2073 
Q 713 2375 1131 2484 
z
M 1019 3438 
Q 1019 3113 1228 2906 
Q 1438 2700 1772 2700 
Q 2097 2700 2305 2904 
Q 2513 3109 2513 3406 
Q 2513 3716 2298 3927 
Q 2084 4138 1766 4138 
Q 1444 4138 1231 3931 
Q 1019 3725 1019 3438 
z
M 838 1322 
Q 838 1081 952 856 
Q 1066 631 1291 507 
Q 1516 384 1775 384 
Q 2178 384 2440 643 
Q 2703 903 2703 1303 
Q 2703 1709 2433 1975 
Q 2163 2241 1756 2241 
Q 1359 2241 1098 1978 
Q 838 1716 838 1322 
z
" id="ArialMT-38" transform="scale(0.015625)"/>
     </defs>
     <use xlink:href="#ArialMT-31"/>
     <use x="48.240234" xlink:href="#ArialMT-31"/>
     <use x="103.855469" xlink:href="#ArialMT-36"/>
     <use x="159.470703" xlink:href="#ArialMT-38"/>
    </g>
   </g>
   <g id="text_17">
    <!-- 187 -->
    <g style="fill:#262626;" transform="translate(161.325141 217.338404)scale(0.1 -0.1)">
     <use xlink:href="#ArialMT-31"/>
     <use x="55.615234" xlink:href="#ArialMT-38"/>
     <use x="111.230469" xlink:href="#ArialMT-37"/>
    </g>
   </g>
   <g id="text_18">
    <!-- 39 -->
    <g style="fill:#262626;" transform="translate(141.586926 217.338404)scale(0.1 -0.1)">
     <use xlink:href="#ArialMT-33"/>
     <use x="55.615234" xlink:href="#ArialMT-39"/>
    </g>
   </g>
   <g id="text_19">
    <!-- Bioregistry -->
    <g style="fill:#262626;" transform="translate(44.120755 279.111202)scale(0.12 -0.12)">
     <use xlink:href="#ArialMT-42"/>
     <use x="66.699219" xlink:href="#ArialMT-69"/>
     <use x="88.916016" xlink:href="#ArialMT-6f"/>
     <use x="144.53125" xlink:href="#ArialMT-72"/>
     <use x="177.832031" xlink:href="#ArialMT-65"/>
     <use x="233.447266" xlink:href="#ArialMT-67"/>
     <use x="289.0625" xlink:href="#ArialMT-69"/>
     <use x="311.279297" xlink:href="#ArialMT-73"/>
     <use x="361.279297" xlink:href="#ArialMT-74"/>
     <use x="389.0625" xlink:href="#ArialMT-72"/>
     <use x="422.363281" xlink:href="#ArialMT-79"/>
    </g>
   </g>
   <g id="text_20">
    <!-- Wikidata -->
    <g style="fill:#262626;" transform="translate(163.971792 249.589271)scale(0.12 -0.12)">
     <defs>
      <path d="M 1294 0 
L 78 4581 
L 700 4581 
L 1397 1578 
Q 1509 1106 1591 641 
Q 1766 1375 1797 1488 
L 2669 4581 
L 3400 4581 
L 4056 2263 
Q 4303 1400 4413 641 
Q 4500 1075 4641 1638 
L 5359 4581 
L 5969 4581 
L 4713 0 
L 4128 0 
L 3163 3491 
Q 3041 3928 3019 4028 
Q 2947 3713 2884 3491 
L 1913 0 
L 1294 0 
z
" id="ArialMT-57" transform="scale(0.015625)"/>
      <path d="M 425 0 
L 425 4581 
L 988 4581 
L 988 1969 
L 2319 3319 
L 3047 3319 
L 1778 2088 
L 3175 0 
L 2481 0 
L 1384 1697 
L 988 1316 
L 988 0 
L 425 0 
z
" id="ArialMT-6b" transform="scale(0.015625)"/>
      <path d="M 2575 0 
L 2575 419 
Q 2259 -75 1647 -75 
Q 1250 -75 917 144 
Q 584 363 401 755 
Q 219 1147 219 1656 
Q 219 2153 384 2558 
Q 550 2963 881 3178 
Q 1213 3394 1622 3394 
Q 1922 3394 2156 3267 
Q 2391 3141 2538 2938 
L 2538 4581 
L 3097 4581 
L 3097 0 
L 2575 0 
z
M 797 1656 
Q 797 1019 1065 703 
Q 1334 388 1700 388 
Q 2069 388 2326 689 
Q 2584 991 2584 1609 
Q 2584 2291 2321 2609 
Q 2059 2928 1675 2928 
Q 1300 2928 1048 2622 
Q 797 2316 797 1656 
z
" id="ArialMT-64" transform="scale(0.015625)"/>
      <path d="M 2588 409 
Q 2275 144 1986 34 
Q 1697 -75 1366 -75 
Q 819 -75 525 192 
Q 231 459 231 875 
Q 231 1119 342 1320 
Q 453 1522 633 1644 
Q 813 1766 1038 1828 
Q 1203 1872 1538 1913 
Q 2219 1994 2541 2106 
Q 2544 2222 2544 2253 
Q 2544 2597 2384 2738 
Q 2169 2928 1744 2928 
Q 1347 2928 1158 2789 
Q 969 2650 878 2297 
L 328 2372 
Q 403 2725 575 2942 
Q 747 3159 1072 3276 
Q 1397 3394 1825 3394 
Q 2250 3394 2515 3294 
Q 2781 3194 2906 3042 
Q 3031 2891 3081 2659 
Q 3109 2516 3109 2141 
L 3109 1391 
Q 3109 606 3145 398 
Q 3181 191 3288 0 
L 2700 0 
Q 2613 175 2588 409 
z
M 2541 1666 
Q 2234 1541 1622 1453 
Q 1275 1403 1131 1340 
Q 988 1278 909 1158 
Q 831 1038 831 891 
Q 831 666 1001 516 
Q 1172 366 1500 366 
Q 1825 366 2078 508 
Q 2331 650 2450 897 
Q 2541 1088 2541 1459 
L 2541 1666 
z
" id="ArialMT-61" transform="scale(0.015625)"/>
     </defs>
     <use xlink:href="#ArialMT-57"/>
     <use x="94.384766" xlink:href="#ArialMT-69"/>
     <use x="116.601562" xlink:href="#ArialMT-6b"/>
     <use x="166.601562" xlink:href="#ArialMT-69"/>
     <use x="188.818359" xlink:href="#ArialMT-64"/>
     <use x="244.433594" xlink:href="#ArialMT-61"/>
     <use x="300.048828" xlink:href="#ArialMT-74"/>
     <use x="327.832031" xlink:href="#ArialMT-61"/>
    </g>
   </g>
  </g>
  <g id="axes_5">
   <g id="patch_14">
    <path clip-path="url(#p2c31f6e4ae)" d="M 388.071953 238.180024 
C 385.619777 241.511424 382.659669 244.437242 379.299925 246.850438 
C 375.94018 249.263634 372.222276 251.134417 368.282228 252.394346 
C 364.342179 253.654274 360.228629 254.287794 356.092068 254.271729 
C 351.955506 254.255663 347.847001 253.590211 343.916858 252.299716 
C 339.986715 251.009222 336.283454 249.109616 332.942555 246.670397 
C 329.601656 244.231177 326.664364 241.282455 324.238138 237.932108 
C 321.811911 234.581761 319.926703 230.87115 318.651482 226.936025 
C 317.376261 223.000899 316.726769 218.889841 316.726769 214.753248 
C 316.726769 210.616655 317.376261 206.505596 318.651482 202.570471 
C 319.926703 198.635346 321.811911 194.924735 324.238138 191.574388 
C 326.664364 188.224041 329.601656 185.275319 332.942555 182.836099 
C 336.283454 180.396879 339.986715 178.497274 343.916858 177.20678 
C 347.847001 175.916285 351.955506 175.250832 356.092068 175.234767 
C 360.228629 175.218702 364.342179 175.852222 368.282228 177.11215 
C 372.222276 178.372079 375.94018 180.242862 379.299925 182.656058 
C 382.659669 185.069254 385.619777 187.995072 388.071953 191.326472 
C 385.449927 186.056237 381.961608 181.263407 377.752683 177.14815 
C 373.543757 173.032892 368.673646 169.653306 363.345744 167.150535 
C 358.017842 164.647765 352.307368 163.057144 346.452813 162.445104 
C 340.598259 161.833063 334.682278 162.208244 328.951946 163.554976 
C 323.221613 164.901709 317.757829 167.20098 312.788782 170.356764 
C 307.819735 173.512548 303.415578 177.480291 299.760245 182.094286 
C 296.104913 186.70828 293.25001 191.903385 291.314769 197.462634 
C 289.379529 203.021882 288.391272 208.866789 288.391272 214.753248 
C 288.391272 220.639707 289.379529 226.484614 291.314769 232.043862 
C 293.25001 237.603111 296.104913 242.798216 299.760245 247.41221 
C 303.415578 252.026204 307.819735 255.993948 312.788782 259.149732 
C 317.757829 262.305516 323.221613 264.604787 328.951946 265.95152 
C 334.682278 267.298252 340.598259 267.673433 346.452813 267.061392 
C 352.307368 266.449352 358.017842 264.858731 363.345744 262.355961 
C 368.673646 259.85319 373.543757 256.473604 377.752683 252.358346 
C 381.961608 248.243089 385.449927 243.450259 388.071953 238.180024 
" style="fill:#c0c0c0;opacity:0.4;"/>
   </g>
   <g id="patch_15">
    <path clip-path="url(#p2c31f6e4ae)" d="M 388.071953 191.326472 
C 391.69294 198.604603 393.577672 206.624119 393.577672 214.753248 
C 393.577672 222.882377 391.69294 230.901893 388.071953 238.180024 
C 393.068149 231.392451 395.764327 223.181362 395.764327 214.753248 
C 395.764327 206.325133 393.068149 198.114045 388.071953 191.326472 
" style="fill:#fb9a99;opacity:0.4;"/>
   </g>
   <g id="patch_16">
    <path clip-path="url(#p2c31f6e4ae)" d="M 388.071953 238.180024 
C 391.69294 230.901893 393.577672 222.882377 393.577672 214.753248 
C 393.577672 206.624119 391.69294 198.604603 388.071953 191.326472 
C 385.619777 187.995072 382.659669 185.069254 379.299925 182.656058 
C 375.94018 180.242862 372.222276 178.372079 368.282228 177.11215 
C 364.342179 175.852222 360.228629 175.218702 356.092068 175.234767 
C 351.955506 175.250832 347.847001 175.916285 343.916858 177.20678 
C 339.986715 178.497274 336.283454 180.396879 332.942555 182.836099 
C 329.601656 185.275319 326.664364 188.224041 324.238138 191.574388 
C 321.811911 194.924735 319.926703 198.635346 318.651482 202.570471 
C 317.376261 206.505596 316.726769 210.616655 316.726769 214.753248 
C 316.726769 218.889841 317.376261 223.000899 318.651482 226.936025 
C 319.926703 230.87115 321.811911 234.581761 324.238138 237.932108 
C 326.664364 241.282455 329.601656 244.231177 332.942555 246.670397 
C 336.283454 249.109616 339.986715 251.009222 343.916858 252.299716 
C 347.847001 253.590211 351.955506 254.255663 356.092068 254.271729 
C 360.228629 254.287794 364.342179 253.654274 368.282228 252.394346 
C 372.222276 251.134417 375.94018 249.263634 379.299925 246.850438 
C 382.659669 244.437242 385.619777 241.511424 388.071953 238.180024 
" style="fill:#fff2f2;opacity:0.4;"/>
   </g>
   <g id="text_21">
    <!-- 539 -->
    <g style="fill:#262626;" transform="translate(294.217614 217.338404)scale(0.1 -0.1)">
     <use xlink:href="#ArialMT-35"/>
     <use x="55.615234" xlink:href="#ArialMT-33"/>
     <use x="111.230469" xlink:href="#ArialMT-39"/>
    </g>
   </g>
   <g id="text_22">
    <!-- 10 -->
    <g style="fill:#262626;" transform="translate(389.110062 217.338404)scale(0.1 -0.1)">
     <defs>
      <path d="M 266 2259 
Q 266 3072 433 3567 
Q 600 4063 929 4331 
Q 1259 4600 1759 4600 
Q 2128 4600 2406 4451 
Q 2684 4303 2865 4023 
Q 3047 3744 3150 3342 
Q 3253 2941 3253 2259 
Q 3253 1453 3087 958 
Q 2922 463 2592 192 
Q 2263 -78 1759 -78 
Q 1097 -78 719 397 
Q 266 969 266 2259 
z
M 844 2259 
Q 844 1131 1108 757 
Q 1372 384 1759 384 
Q 2147 384 2411 759 
Q 2675 1134 2675 2259 
Q 2675 3391 2411 3762 
Q 2147 4134 1753 4134 
Q 1366 4134 1134 3806 
Q 844 3388 844 2259 
z
" id="ArialMT-30" transform="scale(0.015625)"/>
     </defs>
     <use xlink:href="#ArialMT-31"/>
     <use x="55.615234" xlink:href="#ArialMT-30"/>
    </g>
   </g>
   <g id="text_23">
    <!-- 676 -->
    <g style="fill:#262626;" transform="translate(346.810815 217.338404)scale(0.1 -0.1)">
     <use xlink:href="#ArialMT-36"/>
     <use x="55.615234" xlink:href="#ArialMT-37"/>
     <use x="111.230469" xlink:href="#ArialMT-36"/>
    </g>
   </g>
   <g id="text_24">
    <!-- Bioregistry -->
    <g style="fill:#262626;" transform="translate(284.303222 280.541422)scale(0.12 -0.12)">
     <use xlink:href="#ArialMT-42"/>
     <use x="66.699219" xlink:href="#ArialMT-69"/>
     <use x="88.916016" xlink:href="#ArialMT-6f"/>
     <use x="144.53125" xlink:href="#ArialMT-72"/>
     <use x="177.832031" xlink:href="#ArialMT-65"/>
     <use x="233.447266" xlink:href="#ArialMT-67"/>
     <use x="289.0625" xlink:href="#ArialMT-69"/>
     <use x="311.279297" xlink:href="#ArialMT-73"/>
     <use x="361.279297" xlink:href="#ArialMT-74"/>
     <use x="389.0625" xlink:href="#ArialMT-72"/>
     <use x="422.363281" xlink:href="#ArialMT-79"/>
    </g>
   </g>
   <g id="text_25">
    <!-- N2T -->
    <g style="fill:#262626;" transform="translate(356.245548 267.467001)scale(0.12 -0.12)">
     <defs>
      <path d="M 488 0 
L 488 4581 
L 1109 4581 
L 3516 984 
L 3516 4581 
L 4097 4581 
L 4097 0 
L 3475 0 
L 1069 3600 
L 1069 0 
L 488 0 
z
" id="ArialMT-4e" transform="scale(0.015625)"/>
      <path d="M 1659 0 
L 1659 4041 
L 150 4041 
L 150 4581 
L 3781 4581 
L 3781 4041 
L 2266 4041 
L 2266 0 
L 1659 0 
z
" id="ArialMT-54" transform="scale(0.015625)"/>
     </defs>
     <use xlink:href="#ArialMT-4e"/>
     <use x="72.216797" xlink:href="#ArialMT-32"/>
     <use x="127.832031" xlink:href="#ArialMT-54"/>
    </g>
   </g>
  </g>
  <g id="axes_6">
   <g id="patch_17">
    <path clip-path="url(#pc314d28153)" d="M 602.399202 238.70896 
C 596.529928 238.021577 591.113154 235.200599 587.185123 230.785688 
C 583.257093 226.370777 581.085347 220.662636 581.085347 214.753248 
C 581.085347 208.84386 583.257093 203.135719 587.185123 198.720808 
C 591.113154 194.305896 596.529928 191.484919 602.399202 190.797535 
C 599.732774 185.63026 596.222233 180.944244 592.012599 176.933066 
C 587.802965 172.921888 582.953013 169.641552 577.663093 167.227567 
C 572.373174 164.813583 566.717145 163.299655 560.928656 162.748324 
C 555.140167 162.196992 549.300038 162.615954 543.649522 163.987903 
C 537.999007 165.359852 532.616998 167.665633 527.725826 170.809994 
C 522.834654 173.954355 518.502609 177.893394 514.908648 182.464391 
C 511.314686 187.035387 508.508988 192.174521 506.607454 197.669495 
C 504.70592 203.164469 503.735101 208.938562 503.735101 214.753248 
C 503.735101 220.567934 504.70592 226.342027 506.607454 231.837001 
C 508.508988 237.331975 511.314686 242.471108 514.908648 247.042105 
C 518.502609 251.613102 522.834654 255.552141 527.725826 258.696502 
C 532.616998 261.840863 537.999007 264.146643 543.649522 265.518592 
C 549.300038 266.890542 555.140167 267.309504 560.928656 266.758172 
C 566.717145 266.20684 572.373174 264.692913 577.663093 262.278928 
C 582.953013 259.864944 587.802965 256.584608 592.012599 252.57343 
C 596.222233 248.562251 599.732774 243.876236 602.399202 238.70896 
" style="fill:#c0c0c0;opacity:0.4;"/>
   </g>
   <g id="patch_18">
    <path clip-path="url(#pc314d28153)" d="M 602.399202 190.797535 
C 606.221126 198.204049 608.215665 206.418769 608.215665 214.753248 
C 608.215665 223.087727 606.221126 231.302447 602.399202 238.70896 
C 605.780174 239.104925 609.206985 238.780684 612.45369 237.757615 
C 615.700396 236.734546 618.694036 235.035641 621.237229 232.772913 
C 623.780422 230.510186 625.816017 227.734485 627.209799 224.628823 
C 628.603582 221.523161 629.324231 218.157329 629.324231 214.753248 
C 629.324231 211.349167 628.603582 207.983335 627.209799 204.877673 
C 625.816017 201.772011 623.780422 198.99631 621.237229 196.733583 
C 618.694036 194.470855 615.700396 192.771949 612.45369 191.748881 
C 609.206985 190.725812 605.780174 190.401571 602.399202 190.797535 
" style="fill:#e31a1c;opacity:0.4;"/>
   </g>
   <g id="patch_19">
    <path clip-path="url(#pc314d28153)" d="M 602.399202 238.70896 
C 606.221126 231.302447 608.215665 223.087727 608.215665 214.753248 
C 608.215665 206.418769 606.221126 198.204049 602.399202 190.797535 
C 596.529928 191.484919 591.113154 194.305896 587.185123 198.720808 
C 583.257093 203.135719 581.085347 208.84386 581.085347 214.753248 
C 581.085347 220.662636 583.257093 226.370777 587.185123 230.785688 
C 591.113154 235.200599 596.529928 238.021577 602.399202 238.70896 
" style="fill:#ff999a;opacity:0.4;"/>
   </g>
   <g id="text_26">
    <!-- 1078 -->
    <g style="fill:#262626;" transform="translate(531.288349 217.338404)scale(0.1 -0.1)">
     <use xlink:href="#ArialMT-31"/>
     <use x="55.615234" xlink:href="#ArialMT-30"/>
     <use x="111.230469" xlink:href="#ArialMT-37"/>
     <use x="166.845703" xlink:href="#ArialMT-38"/>
    </g>
   </g>
   <g id="text_27">
    <!-- 122 -->
    <g style="fill:#262626;" transform="translate(610.428542 217.338404)scale(0.1 -0.1)">
     <use xlink:href="#ArialMT-31"/>
     <use x="55.615234" xlink:href="#ArialMT-32"/>
     <use x="111.230469" xlink:href="#ArialMT-32"/>
    </g>
   </g>
   <g id="text_28">
    <!-- 137 -->
    <g style="fill:#262626;" transform="translate(586.3091 217.338404)scale(0.1 -0.1)">
     <use xlink:href="#ArialMT-31"/>
     <use x="55.615234" xlink:href="#ArialMT-33"/>
     <use x="111.230469" xlink:href="#ArialMT-37"/>
    </g>
   </g>
   <g id="text_29">
    <!-- Bioregistry -->
    <g style="fill:#262626;" transform="translate(499.294133 279.400891)scale(0.12 -0.12)">
     <use xlink:href="#ArialMT-42"/>
     <use x="66.699219" xlink:href="#ArialMT-69"/>
     <use x="88.916016" xlink:href="#ArialMT-6f"/>
     <use x="144.53125" xlink:href="#ArialMT-72"/>
     <use x="177.832031" xlink:href="#ArialMT-65"/>
     <use x="233.447266" xlink:href="#ArialMT-67"/>
     <use x="289.0625" xlink:href="#ArialMT-69"/>
     <use x="311.279297" xlink:href="#ArialMT-73"/>
     <use x="361.279297" xlink:href="#ArialMT-74"/>
     <use x="389.0625" xlink:href="#ArialMT-72"/>
     <use x="422.363281" xlink:href="#ArialMT-79"/>
    </g>
   </g>
   <g id="text_30">
    <!-- GO -->
    <g style="fill:#262626;" transform="translate(605.204789 251.280051)scale(0.12 -0.12)">
     <defs>
      <path d="M 2638 1797 
L 2638 2334 
L 4578 2338 
L 4578 638 
Q 4131 281 3656 101 
Q 3181 -78 2681 -78 
Q 2006 -78 1454 211 
Q 903 500 622 1047 
Q 341 1594 341 2269 
Q 341 2938 620 3517 
Q 900 4097 1425 4378 
Q 1950 4659 2634 4659 
Q 3131 4659 3532 4498 
Q 3934 4338 4162 4050 
Q 4391 3763 4509 3300 
L 3963 3150 
Q 3859 3500 3706 3700 
Q 3553 3900 3268 4020 
Q 2984 4141 2638 4141 
Q 2222 4141 1919 4014 
Q 1616 3888 1430 3681 
Q 1244 3475 1141 3228 
Q 966 2803 966 2306 
Q 966 1694 1177 1281 
Q 1388 869 1791 669 
Q 2194 469 2647 469 
Q 3041 469 3416 620 
Q 3791 772 3984 944 
L 3984 1797 
L 2638 1797 
z
" id="ArialMT-47" transform="scale(0.015625)"/>
     </defs>
     <use xlink:href="#ArialMT-47"/>
     <use x="77.783203" xlink:href="#ArialMT-4f"/>
    </g>
   </g>
  </g>
  <g id="axes_7">
   <g id="patch_20">
    <path clip-path="url(#pff656bc826)" d="M 125.934447 394.218868 
C 119.654199 390.191423 114.486268 384.648785 110.907559 378.102438 
C 107.32885 371.556091 105.452939 364.213795 105.452939 356.75311 
C 105.452939 349.292425 107.32885 341.95013 110.907559 335.403783 
C 114.486268 328.857436 119.654199 323.314798 125.934447 319.287353 
C 118.664294 312.625047 109.609742 308.220746 99.880385 306.614178 
C 90.151028 305.007609 80.161222 306.267193 71.135172 310.238574 
C 62.109122 314.209955 54.431231 320.723999 49.042389 328.982438 
C 43.653548 337.240878 40.783256 346.892003 40.783256 356.75311 
C 40.783256 366.614218 43.653548 376.265342 49.042389 384.523782 
C 54.431231 392.782222 62.109122 399.296266 71.135172 403.267646 
C 80.161222 407.239027 90.151028 408.498611 99.880385 406.892043 
C 109.609742 405.285474 118.664294 400.881174 125.934447 394.218868 
" style="fill:#c0c0c0;opacity:0.4;"/>
   </g>
   <g id="patch_21">
    <path clip-path="url(#pff656bc826)" d="M 125.934447 319.287353 
C 131.129415 324.047977 135.277892 329.83747 138.115686 336.287133 
C 140.95348 342.736796 142.419043 349.706747 142.419043 356.75311 
C 142.419043 363.799473 140.95348 370.769424 138.115686 377.219088 
C 135.277892 383.668751 131.129415 389.458244 125.934447 394.218868 
C 132.658672 398.531031 140.421401 400.954442 148.404629 401.233734 
C 156.387858 401.513025 164.300966 399.63803 171.310102 395.806326 
C 178.319239 391.974622 184.169244 386.3257 188.243668 379.454818 
C 192.318092 372.583936 194.46861 364.741223 194.46861 356.75311 
C 194.46861 348.764997 192.318092 340.922284 188.243668 334.051403 
C 184.169244 327.180521 178.319239 321.531598 171.310102 317.699895 
C 164.300966 313.868191 156.387858 311.993195 148.404629 312.272487 
C 140.421401 312.551779 132.658672 314.97519 125.934447 319.287353 
" style="fill:#fdbf6f;opacity:0.4;"/>
   </g>
   <g id="patch_22">
    <path clip-path="url(#pff656bc826)" d="M 125.934447 394.218868 
C 131.129415 389.458244 135.277892 383.668751 138.115686 377.219088 
C 140.95348 370.769424 142.419043 363.799473 142.419043 356.75311 
C 142.419043 349.706747 140.95348 342.736796 138.115686 336.287133 
C 135.277892 329.83747 131.129415 324.047977 125.934447 319.287353 
C 119.654199 323.314798 114.486268 328.857436 110.907559 335.403783 
C 107.32885 341.95013 105.452939 349.292425 105.452939 356.75311 
C 105.452939 364.213795 107.32885 371.556091 110.907559 378.102438 
C 114.486268 384.648785 119.654199 390.191423 125.934447 394.218868 
" style="fill:#ffffd4;opacity:0.4;"/>
   </g>
   <g id="text_31">
    <!-- 925 -->
    <g style="fill:#262626;" transform="translate(64.776691 359.338267)scale(0.1 -0.1)">
     <use xlink:href="#ArialMT-39"/>
     <use x="55.615234" xlink:href="#ArialMT-32"/>
     <use x="111.230469" xlink:href="#ArialMT-35"/>
    </g>
   </g>
   <g id="text_32">
    <!-- 642 -->
    <g style="fill:#262626;" transform="translate(160.10242 359.338267)scale(0.1 -0.1)">
     <use xlink:href="#ArialMT-36"/>
     <use x="55.615234" xlink:href="#ArialMT-34"/>
     <use x="111.230469" xlink:href="#ArialMT-32"/>
    </g>
   </g>
   <g id="text_33">
    <!-- 290 -->
    <g style="fill:#262626;" transform="translate(115.594585 359.338267)scale(0.1 -0.1)">
     <use xlink:href="#ArialMT-32"/>
     <use x="55.615234" xlink:href="#ArialMT-39"/>
     <use x="111.230469" xlink:href="#ArialMT-30"/>
    </g>
   </g>
   <g id="text_34">
    <!-- Bioregistry -->
    <g style="fill:#262626;" transform="translate(34.9199 420.926665)scale(0.12 -0.12)">
     <use xlink:href="#ArialMT-42"/>
     <use x="66.699219" xlink:href="#ArialMT-69"/>
     <use x="88.916016" xlink:href="#ArialMT-6f"/>
     <use x="144.53125" xlink:href="#ArialMT-72"/>
     <use x="177.832031" xlink:href="#ArialMT-65"/>
     <use x="233.447266" xlink:href="#ArialMT-67"/>
     <use x="289.0625" xlink:href="#ArialMT-69"/>
     <use x="311.279297" xlink:href="#ArialMT-73"/>
     <use x="361.279297" xlink:href="#ArialMT-74"/>
     <use x="389.0625" xlink:href="#ArialMT-72"/>
     <use x="422.363281" xlink:href="#ArialMT-79"/>
    </g>
   </g>
   <g id="text_35">
    <!-- BioPortal -->
    <g style="fill:#262626;" transform="translate(149.960775 414.616607)scale(0.12 -0.12)">
     <defs>
      <path d="M 494 0 
L 494 4581 
L 2222 4581 
Q 2678 4581 2919 4538 
Q 3256 4481 3484 4323 
Q 3713 4166 3852 3881 
Q 3991 3597 3991 3256 
Q 3991 2672 3619 2267 
Q 3247 1863 2275 1863 
L 1100 1863 
L 1100 0 
L 494 0 
z
M 1100 2403 
L 2284 2403 
Q 2872 2403 3119 2622 
Q 3366 2841 3366 3238 
Q 3366 3525 3220 3729 
Q 3075 3934 2838 4000 
Q 2684 4041 2272 4041 
L 1100 4041 
L 1100 2403 
z
" id="ArialMT-50" transform="scale(0.015625)"/>
      <path d="M 409 0 
L 409 4581 
L 972 4581 
L 972 0 
L 409 0 
z
" id="ArialMT-6c" transform="scale(0.015625)"/>
     </defs>
     <use xlink:href="#ArialMT-42"/>
     <use x="66.699219" xlink:href="#ArialMT-69"/>
     <use x="88.916016" xlink:href="#ArialMT-6f"/>
     <use x="144.53125" xlink:href="#ArialMT-50"/>
     <use x="211.230469" xlink:href="#ArialMT-6f"/>
     <use x="266.845703" xlink:href="#ArialMT-72"/>
     <use x="300.146484" xlink:href="#ArialMT-74"/>
     <use x="327.929688" xlink:href="#ArialMT-61"/>
     <use x="383.544922" xlink:href="#ArialMT-6c"/>
    </g>
   </g>
  </g>
  <g id="axes_8">
   <g id="patch_23">
    <path clip-path="url(#p65a9e9a07d)" d="M 362.265876 402.21839 
C 355.572453 403.497253 348.678471 403.282362 342.077691 401.589109 
C 335.476911 399.895857 329.330774 396.765655 324.079479 392.422695 
C 318.828183 388.079736 314.600165 382.630238 311.698242 376.464507 
C 308.79632 370.298775 307.291468 363.56761 307.291468 356.75311 
C 307.291468 349.938611 308.79632 343.207446 311.698242 337.041714 
C 314.600165 330.875982 318.828183 325.426485 324.079479 321.083525 
C 329.330774 316.740566 335.476911 313.610364 342.077691 311.917111 
C 348.678471 310.223858 355.572453 310.008968 362.265876 311.287831 
C 354.318558 306.789518 345.328967 304.452637 336.197085 304.511142 
C 327.065203 304.569647 318.106292 307.021518 310.217262 311.621289 
C 302.328232 316.22106 295.781437 322.809932 291.232302 330.728269 
C 286.683167 338.646606 284.288742 347.621041 284.288742 356.75311 
C 284.288742 365.88518 286.683167 374.859615 291.232302 382.777951 
C 295.781437 390.696288 302.328232 397.28516 310.217262 401.884931 
C 318.106292 406.484703 327.065203 408.936573 336.197085 408.995078 
C 345.328967 409.053583 354.318558 406.716703 362.265876 402.21839 
" style="fill:#c0c0c0;opacity:0.4;"/>
   </g>
   <g id="patch_24">
    <path clip-path="url(#p65a9e9a07d)" d="M 362.265876 311.287831 
C 370.31194 315.842035 377.00668 322.451539 381.663603 330.43859 
C 386.320527 338.425641 388.774823 347.507575 388.774823 356.75311 
C 388.774823 365.998646 386.320527 375.080579 381.663603 383.067631 
C 377.00668 391.054682 370.31194 397.664186 362.265876 402.21839 
C 372.841133 400.197854 382.3871 394.549566 389.248748 386.252794 
C 396.110396 377.956023 399.866857 367.519662 399.866857 356.75311 
C 399.866857 345.986559 396.110396 335.550198 389.248748 327.253426 
C 382.3871 318.956655 372.841133 313.308366 362.265876 311.287831 
" style="fill:#ff7f00;opacity:0.4;"/>
   </g>
   <g id="patch_25">
    <path clip-path="url(#p65a9e9a07d)" d="M 362.265876 402.21839 
C 370.31194 397.664186 377.00668 391.054682 381.663603 383.067631 
C 386.320527 375.080579 388.774823 365.998646 388.774823 356.75311 
C 388.774823 347.507575 386.320527 338.425641 381.663603 330.43859 
C 377.00668 322.451539 370.31194 315.842035 362.265876 311.287831 
C 355.572453 310.008968 348.678471 310.223858 342.077691 311.917111 
C 335.476911 313.610364 329.330774 316.740566 324.079479 321.083525 
C 318.828183 325.426485 314.600165 330.875982 311.698242 337.041714 
C 308.79632 343.207446 307.291468 349.938611 307.291468 356.75311 
C 307.291468 363.56761 308.79632 370.298775 311.698242 376.464507 
C 314.600165 382.630238 318.828183 388.079736 324.079479 392.422695 
C 329.330774 396.765655 335.476911 399.895857 342.077691 401.589109 
C 348.678471 403.282362 355.572453 403.497253 362.265876 402.21839 
" style="fill:#ffdf86;opacity:0.4;"/>
   </g>
   <g id="text_36">
    <!-- 382 -->
    <g style="fill:#262626;" transform="translate(287.448699 359.338267)scale(0.1 -0.1)">
     <use xlink:href="#ArialMT-33"/>
     <use x="55.615234" xlink:href="#ArialMT-38"/>
     <use x="111.230469" xlink:href="#ArialMT-32"/>
    </g>
   </g>
   <g id="text_37">
    <!-- 121 -->
    <g style="fill:#262626;" transform="translate(385.979434 359.338267)scale(0.1 -0.1)">
     <use xlink:href="#ArialMT-31"/>
     <use x="55.615234" xlink:href="#ArialMT-32"/>
     <use x="111.230469" xlink:href="#ArialMT-31"/>
    </g>
   </g>
   <g id="text_38">
    <!-- 832 -->
    <g style="fill:#262626;" transform="translate(339.691739 359.338267)scale(0.1 -0.1)">
     <use xlink:href="#ArialMT-38"/>
     <use x="55.615234" xlink:href="#ArialMT-33"/>
     <use x="111.230469" xlink:href="#ArialMT-32"/>
    </g>
   </g>
   <g id="text_39">
    <!-- Bioregistry -->
    <g style="fill:#262626;" transform="translate(279.850532 422.512062)scale(0.12 -0.12)">
     <use xlink:href="#ArialMT-42"/>
     <use x="66.699219" xlink:href="#ArialMT-69"/>
     <use x="88.916016" xlink:href="#ArialMT-6f"/>
     <use x="144.53125" xlink:href="#ArialMT-72"/>
     <use x="177.832031" xlink:href="#ArialMT-65"/>
     <use x="233.447266" xlink:href="#ArialMT-67"/>
     <use x="289.0625" xlink:href="#ArialMT-69"/>
     <use x="311.279297" xlink:href="#ArialMT-73"/>
     <use x="361.279297" xlink:href="#ArialMT-74"/>
     <use x="389.0625" xlink:href="#ArialMT-72"/>
     <use x="422.363281" xlink:href="#ArialMT-79"/>
    </g>
   </g>
   <g id="text_40">
    <!-- Prefix Commons -->
    <g style="fill:#262626;" transform="translate(353.579163 416.556716)scale(0.12 -0.12)">
     <defs>
      <path d="M 556 0 
L 556 2881 
L 59 2881 
L 59 3319 
L 556 3319 
L 556 3672 
Q 556 4006 616 4169 
Q 697 4388 901 4523 
Q 1106 4659 1475 4659 
Q 1713 4659 2000 4603 
L 1916 4113 
Q 1741 4144 1584 4144 
Q 1328 4144 1222 4034 
Q 1116 3925 1116 3625 
L 1116 3319 
L 1763 3319 
L 1763 2881 
L 1116 2881 
L 1116 0 
L 556 0 
z
" id="ArialMT-66" transform="scale(0.015625)"/>
      <path d="M 47 0 
L 1259 1725 
L 138 3319 
L 841 3319 
L 1350 2541 
Q 1494 2319 1581 2169 
Q 1719 2375 1834 2534 
L 2394 3319 
L 3066 3319 
L 1919 1756 
L 3153 0 
L 2463 0 
L 1781 1031 
L 1600 1309 
L 728 0 
L 47 0 
z
" id="ArialMT-78" transform="scale(0.015625)"/>
      <path id="ArialMT-20" transform="scale(0.015625)"/>
      <path d="M 3763 1606 
L 4369 1453 
Q 4178 706 3683 314 
Q 3188 -78 2472 -78 
Q 1731 -78 1267 223 
Q 803 525 561 1097 
Q 319 1669 319 2325 
Q 319 3041 592 3573 
Q 866 4106 1370 4382 
Q 1875 4659 2481 4659 
Q 3169 4659 3637 4309 
Q 4106 3959 4291 3325 
L 3694 3184 
Q 3534 3684 3231 3912 
Q 2928 4141 2469 4141 
Q 1941 4141 1586 3887 
Q 1231 3634 1087 3207 
Q 944 2781 944 2328 
Q 944 1744 1114 1308 
Q 1284 872 1643 656 
Q 2003 441 2422 441 
Q 2931 441 3284 734 
Q 3638 1028 3763 1606 
z
" id="ArialMT-43" transform="scale(0.015625)"/>
      <path d="M 422 0 
L 422 3319 
L 925 3319 
L 925 2853 
Q 1081 3097 1340 3245 
Q 1600 3394 1931 3394 
Q 2300 3394 2536 3241 
Q 2772 3088 2869 2813 
Q 3263 3394 3894 3394 
Q 4388 3394 4653 3120 
Q 4919 2847 4919 2278 
L 4919 0 
L 4359 0 
L 4359 2091 
Q 4359 2428 4304 2576 
Q 4250 2725 4106 2815 
Q 3963 2906 3769 2906 
Q 3419 2906 3187 2673 
Q 2956 2441 2956 1928 
L 2956 0 
L 2394 0 
L 2394 2156 
Q 2394 2531 2256 2718 
Q 2119 2906 1806 2906 
Q 1569 2906 1367 2781 
Q 1166 2656 1075 2415 
Q 984 2175 984 1722 
L 984 0 
L 422 0 
z
" id="ArialMT-6d" transform="scale(0.015625)"/>
      <path d="M 422 0 
L 422 3319 
L 928 3319 
L 928 2847 
Q 1294 3394 1984 3394 
Q 2284 3394 2536 3286 
Q 2788 3178 2913 3003 
Q 3038 2828 3088 2588 
Q 3119 2431 3119 2041 
L 3119 0 
L 2556 0 
L 2556 2019 
Q 2556 2363 2490 2533 
Q 2425 2703 2258 2804 
Q 2091 2906 1866 2906 
Q 1506 2906 1245 2678 
Q 984 2450 984 1813 
L 984 0 
L 422 0 
z
" id="ArialMT-6e" transform="scale(0.015625)"/>
     </defs>
     <use xlink:href="#ArialMT-50"/>
     <use x="66.699219" xlink:href="#ArialMT-72"/>
     <use x="100" xlink:href="#ArialMT-65"/>
     <use x="155.615234" xlink:href="#ArialMT-66"/>
     <use x="183.398438" xlink:href="#ArialMT-69"/>
     <use x="205.615234" xlink:href="#ArialMT-78"/>
     <use x="255.615234" xlink:href="#ArialMT-20"/>
     <use x="283.398438" xlink:href="#ArialMT-43"/>
     <use x="355.615234" xlink:href="#ArialMT-6f"/>
     <use x="411.230469" xlink:href="#ArialMT-6d"/>
     <use x="494.53125" xlink:href="#ArialMT-6d"/>
     <use x="577.832031" xlink:href="#ArialMT-6f"/>
     <use x="633.447266" xlink:href="#ArialMT-6e"/>
     <use x="689.0625" xlink:href="#ArialMT-73"/>
    </g>
   </g>
  </g>
  <g id="axes_9">
   <g id="patch_26">
    <path clip-path="url(#pefa69ec7e0)" d="M 610.33965 372.385917 
C 608.229406 372.477989 606.122203 372.141828 604.145351 371.397743 
C 602.168498 370.653657 600.362624 369.516941 598.836831 368.056268 
C 597.311038 366.595596 596.096685 364.840987 595.267137 362.898448 
C 594.437589 360.955909 594.009895 358.865362 594.009895 356.75311 
C 594.009895 354.640858 594.437589 352.550312 595.267137 350.607773 
C 596.096685 348.665234 597.311038 346.910625 598.836831 345.449952 
C 600.362624 343.98928 602.168498 342.852563 604.145351 342.108478 
C 606.122203 341.364393 608.229406 341.028232 610.33965 341.120304 
C 608.485487 335.177887 605.588805 329.612462 601.785256 324.684658 
C 597.981707 319.756853 593.331606 315.544813 588.052718 312.245786 
C 582.773829 308.94676 576.949864 306.613062 570.853557 305.353979 
C 564.757251 304.094897 558.485277 303.930396 552.331351 304.86818 
C 546.177426 305.805964 540.239135 307.831162 534.79457 310.848935 
C 529.350005 313.866707 524.485503 317.829199 520.428869 322.550847 
C 516.372234 327.272495 513.187796 332.678425 511.024682 338.515477 
C 508.861568 344.352529 507.754079 350.528141 507.754079 356.75311 
C 507.754079 362.978079 508.861568 369.153692 511.024682 374.990744 
C 513.187796 380.827796 516.372234 386.233726 520.428869 390.955374 
C 524.485503 395.677021 529.350005 399.639513 534.79457 402.657286 
C 540.239135 405.675058 546.177426 407.700257 552.331351 408.638041 
C 558.485277 409.575825 564.757251 409.411324 570.853557 408.152242 
C 576.949864 406.893159 582.773829 404.559461 588.052718 401.260434 
C 593.331606 397.961408 597.981707 393.749367 601.785256 388.821563 
C 605.588805 383.893759 608.485487 378.328334 610.33965 372.385917 
" style="fill:#c0c0c0;opacity:0.4;"/>
   </g>
   <g id="patch_27">
    <path clip-path="url(#pefa69ec7e0)" d="M 610.33965 341.120304 
C 611.91869 346.180978 612.721901 351.45181 612.721901 356.75311 
C 612.721901 362.054411 611.91869 367.325243 610.33965 372.385917 
C 614.366374 372.210227 618.173507 370.48534 620.960732 367.573853 
C 623.747957 364.662367 625.305253 360.783666 625.305253 356.75311 
C 625.305253 352.722555 623.747957 348.843854 620.960732 345.932367 
C 618.173507 343.020881 614.366374 341.295994 610.33965 341.120304 
" style="fill:#cab2d6;opacity:0.4;"/>
   </g>
   <g id="patch_28">
    <path clip-path="url(#pefa69ec7e0)" d="M 610.33965 372.385917 
C 611.91869 367.325243 612.721901 362.054411 612.721901 356.75311 
C 612.721901 351.45181 611.91869 346.180978 610.33965 341.120304 
C 608.229406 341.028232 606.122203 341.364393 604.145351 342.108478 
C 602.168498 342.852563 600.362624 343.98928 598.836831 345.449952 
C 597.311038 346.910625 596.096685 348.665234 595.267137 350.607773 
C 594.437589 352.550312 594.009895 354.640858 594.009895 356.75311 
C 594.009895 358.865362 594.437589 360.955909 595.267137 362.898448 
C 596.096685 364.840987 597.311038 366.595596 598.836831 368.056268 
C 600.362624 369.516941 602.168498 370.653657 604.145351 371.397743 
C 606.122203 372.141828 608.229406 372.477989 610.33965 372.385917 
" style="fill:#ffffff;opacity:0.4;"/>
   </g>
   <g id="text_41">
    <!-- 1151 -->
    <g style="fill:#262626;" transform="translate(540.128862 359.338267)scale(0.1 -0.1)">
     <use xlink:href="#ArialMT-31"/>
     <use x="48.240234" xlink:href="#ArialMT-31"/>
     <use x="103.855469" xlink:href="#ArialMT-35"/>
     <use x="159.470703" xlink:href="#ArialMT-31"/>
    </g>
   </g>
   <g id="text_42">
    <!-- 44 -->
    <g style="fill:#262626;" transform="translate(613.45264 359.338267)scale(0.1 -0.1)">
     <use xlink:href="#ArialMT-34"/>
     <use x="55.615234" xlink:href="#ArialMT-34"/>
    </g>
   </g>
   <g id="text_43">
    <!-- 64 -->
    <g style="fill:#262626;" transform="translate(597.804961 359.338267)scale(0.1 -0.1)">
     <use xlink:href="#ArialMT-36"/>
     <use x="55.615234" xlink:href="#ArialMT-34"/>
    </g>
   </g>
   <g id="text_44">
    <!-- Bioregistry -->
    <g style="fill:#262626;" transform="translate(503.55674 421.232976)scale(0.12 -0.12)">
     <use xlink:href="#ArialMT-42"/>
     <use x="66.699219" xlink:href="#ArialMT-69"/>
     <use x="88.916016" xlink:href="#ArialMT-6f"/>
     <use x="144.53125" xlink:href="#ArialMT-72"/>
     <use x="177.832031" xlink:href="#ArialMT-65"/>
     <use x="233.447266" xlink:href="#ArialMT-67"/>
     <use x="289.0625" xlink:href="#ArialMT-69"/>
     <use x="311.279297" xlink:href="#ArialMT-73"/>
     <use x="361.279297" xlink:href="#ArialMT-74"/>
     <use x="389.0625" xlink:href="#ArialMT-72"/>
     <use x="422.363281" xlink:href="#ArialMT-79"/>
    </g>
   </g>
   <g id="text_45">
    <!-- Biolink -->
    <g style="fill:#262626;" transform="translate(609.657574 384.396744)scale(0.12 -0.12)">
     <use xlink:href="#ArialMT-42"/>
     <use x="66.699219" xlink:href="#ArialMT-69"/>
     <use x="88.916016" xlink:href="#ArialMT-6f"/>
     <use x="144.53125" xlink:href="#ArialMT-6c"/>
     <use x="166.748047" xlink:href="#ArialMT-69"/>
     <use x="188.964844" xlink:href="#ArialMT-6e"/>
     <use x="244.580078" xlink:href="#ArialMT-6b"/>
    </g>
   </g>
  </g>
  <g id="axes_10">
   <g id="patch_29">
    <path clip-path="url(#p96d6e869c4)" d="M 160.035863 515.568091 
C 155.661037 515.442939 151.503242 513.615287 148.453077 510.476616 
C 145.402911 507.337945 143.694901 503.129588 143.694901 498.752973 
C 143.694901 494.376357 145.402911 490.168 148.453077 487.029329 
C 151.503242 483.890659 155.661037 482.063006 160.035863 481.937854 
C 158.058368 476.095719 155.065715 470.647958 151.195717 465.845443 
C 147.325719 461.042928 142.638708 456.960528 137.350521 453.786239 
C 132.062335 450.61195 126.255413 448.395257 120.197167 447.238239 
C 114.138921 446.081222 107.923796 446.001918 101.838001 447.003979 
C 95.752206 448.00604 89.890614 450.073845 84.523156 453.112169 
C 79.155697 456.150494 74.366047 460.111974 70.37477 464.81418 
C 66.383494 469.516386 63.252813 474.886014 61.126896 480.67579 
C 59.00098 486.465566 57.91297 492.585232 57.91297 498.752973 
C 57.91297 504.920714 59.00098 511.040379 61.126896 516.830156 
C 63.252813 522.619932 66.383494 527.98956 70.37477 532.691766 
C 74.366047 537.393972 79.155697 541.355451 84.523156 544.393776 
C 89.890614 547.432101 95.752206 549.499905 101.838001 550.501966 
C 107.923796 551.504028 114.138921 551.424723 120.197167 550.267706 
C 126.255413 549.110689 132.062335 546.893996 137.350521 543.719707 
C 142.638708 540.545417 147.325719 536.463017 151.195717 531.660502 
C 155.065715 526.857988 158.058368 521.410227 160.035863 515.568091 
" style="fill:#c0c0c0;opacity:0.4;"/>
   </g>
   <g id="patch_30">
    <path clip-path="url(#p96d6e869c4)" d="M 160.035863 481.937854 
C 161.869302 487.354405 162.804568 493.034536 162.804568 498.752973 
C 162.804568 504.47141 161.869302 510.151541 160.035863 515.568091 
C 162.28447 515.632418 164.523305 515.245052 166.619583 514.428969 
C 168.715861 513.612885 170.627303 512.384543 172.240542 510.816795 
C 173.853781 509.249046 175.136279 507.373511 176.011974 505.301427 
C 176.887668 503.229343 177.338896 501.0025 177.338896 498.752973 
C 177.338896 496.503445 176.887668 494.276603 176.011974 492.204518 
C 175.136279 490.132434 173.853781 488.256899 172.240542 486.689151 
C 170.627303 485.121403 168.715861 483.89306 166.619583 483.076977 
C 164.523305 482.260893 162.28447 481.873527 160.035863 481.937854 
" style="fill:#6a3d9a;opacity:0.4;"/>
   </g>
   <g id="patch_31">
    <path clip-path="url(#p96d6e869c4)" d="M 160.035863 515.568091 
C 161.869302 510.151541 162.804568 504.47141 162.804568 498.752973 
C 162.804568 493.034536 161.869302 487.354405 160.035863 481.937854 
C 155.661037 482.063006 151.503242 483.890659 148.453077 487.029329 
C 145.402911 490.168 143.694901 494.376357 143.694901 498.752973 
C 143.694901 503.129588 145.402911 507.337945 148.453077 510.476616 
C 151.503242 513.615287 155.661037 515.442939 160.035863 515.568091 
" style="fill:#d1b1f2;opacity:0.4;"/>
   </g>
   <g id="text_46">
    <!-- 1146 -->
    <g style="fill:#262626;" transform="translate(90.05081 501.338129)scale(0.1 -0.1)">
     <use xlink:href="#ArialMT-31"/>
     <use x="48.240234" xlink:href="#ArialMT-31"/>
     <use x="103.855469" xlink:href="#ArialMT-34"/>
     <use x="159.470703" xlink:href="#ArialMT-36"/>
    </g>
   </g>
   <g id="text_47">
    <!-- 56 -->
    <g style="fill:#262626;" transform="translate(164.510795 501.338129)scale(0.1 -0.1)">
     <use xlink:href="#ArialMT-35"/>
     <use x="55.615234" xlink:href="#ArialMT-36"/>
    </g>
   </g>
   <g id="text_48">
    <!-- 69 -->
    <g style="fill:#262626;" transform="translate(147.688797 501.338129)scale(0.1 -0.1)">
     <use xlink:href="#ArialMT-36"/>
     <use x="55.615234" xlink:href="#ArialMT-39"/>
    </g>
   </g>
   <g id="text_49">
    <!-- Bioregistry -->
    <g style="fill:#262626;" transform="translate(53.677519 563.251537)scale(0.12 -0.12)">
     <use xlink:href="#ArialMT-42"/>
     <use x="66.699219" xlink:href="#ArialMT-69"/>
     <use x="88.916016" xlink:href="#ArialMT-6f"/>
     <use x="144.53125" xlink:href="#ArialMT-72"/>
     <use x="177.832031" xlink:href="#ArialMT-65"/>
     <use x="233.447266" xlink:href="#ArialMT-67"/>
     <use x="289.0625" xlink:href="#ArialMT-69"/>
     <use x="311.279297" xlink:href="#ArialMT-73"/>
     <use x="361.279297" xlink:href="#ArialMT-74"/>
     <use x="389.0625" xlink:href="#ArialMT-72"/>
     <use x="422.363281" xlink:href="#ArialMT-79"/>
    </g>
   </g>
   <g id="text_50">
    <!-- NCBI -->
    <g style="fill:#262626;" transform="translate(160.516899 527.627736)scale(0.12 -0.12)">
     <use xlink:href="#ArialMT-4e"/>
     <use x="72.216797" xlink:href="#ArialMT-43"/>
     <use x="144.433594" xlink:href="#ArialMT-42"/>
     <use x="211.132812" xlink:href="#ArialMT-49"/>
    </g>
   </g>
  </g>
  <g id="axes_11">
   <g id="patch_32">
    <path clip-path="url(#p4ba17cb638)" d="M 381.116609 518.811292 
C 376.212289 518.222405 371.690275 515.854808 368.412295 512.159678 
C 365.134314 508.464547 363.322712 503.692522 363.322712 498.752973 
C 363.322712 493.813424 365.134314 489.041398 368.412295 485.346268 
C 371.690275 481.651137 376.212289 479.28354 381.116609 478.694653 
C 378.814033 473.14478 375.572918 468.032605 371.535565 463.582579 
C 367.498212 459.132553 362.724587 455.41077 357.424277 452.580636 
C 352.123966 449.750503 346.375694 447.854052 340.431838 446.97455 
C 334.487982 446.095047 328.436824 446.245555 322.544042 447.419466 
C 316.651259 448.593376 311.004375 450.773253 305.851317 453.863389 
C 300.698259 456.953526 296.115563 460.908024 292.304433 465.553262 
C 288.493303 470.198501 285.510345 475.465485 283.486524 481.122966 
C 281.462704 486.780448 280.428081 492.7444 280.428081 498.752973 
C 280.428081 504.761546 281.462704 510.725497 283.486524 516.382979 
C 285.510345 522.040461 288.493303 527.307445 292.304433 531.952683 
C 296.115563 536.597921 300.698259 540.55242 305.851317 543.642556 
C 311.004375 546.732692 316.651259 548.91257 322.544042 550.08648 
C 328.436824 551.26039 334.487982 551.410898 340.431838 550.531396 
C 346.375694 549.651893 352.123966 547.755443 357.424277 544.925309 
C 362.724587 542.095175 367.498212 538.373393 371.535565 533.923367 
C 375.572918 529.473341 378.814033 524.361165 381.116609 518.811292 
" style="fill:#c0c0c0;opacity:0.4;"/>
   </g>
   <g id="patch_33">
    <path clip-path="url(#p4ba17cb638)" d="M 381.116609 478.694653 
C 383.754529 485.052801 385.112459 491.869321 385.112459 498.752973 
C 385.112459 505.636625 383.754529 512.453144 381.116609 518.811292 
C 383.952459 519.151807 386.828546 518.887083 389.554592 518.034635 
C 392.280637 517.182186 394.795166 515.761236 396.93182 513.865793 
C 399.068474 511.97035 400.779069 509.643159 401.950434 507.038183 
C 403.121798 504.433208 403.727518 501.609193 403.727518 498.752973 
C 403.727518 495.896753 403.121798 493.072738 401.950434 490.467762 
C 400.779069 487.862787 399.068474 485.535595 396.93182 483.640152 
C 394.795166 481.74471 392.280637 480.323759 389.554592 479.471311 
C 386.828546 478.618862 383.952459 478.354138 381.116609 478.694653 
" style="fill:#ffff99;opacity:0.4;"/>
   </g>
   <g id="patch_34">
    <path clip-path="url(#p4ba17cb638)" d="M 381.116609 518.811292 
C 383.754529 512.453144 385.112459 505.636625 385.112459 498.752973 
C 385.112459 491.869321 383.754529 485.052801 381.116609 478.694653 
C 376.212289 479.28354 371.690275 481.651137 368.412295 485.346268 
C 365.134314 489.041398 363.322712 493.813424 363.322712 498.752973 
C 363.322712 503.692522 365.134314 508.464547 368.412295 512.159678 
C 371.690275 515.854808 376.212289 518.222405 381.116609 518.811292 
" style="fill:#fffff2;opacity:0.4;"/>
   </g>
   <g id="text_51">
    <!-- 1123 -->
    <g style="fill:#262626;" transform="translate(311.122272 501.338129)scale(0.1 -0.1)">
     <use xlink:href="#ArialMT-31"/>
     <use x="48.240234" xlink:href="#ArialMT-31"/>
     <use x="103.855469" xlink:href="#ArialMT-32"/>
     <use x="159.470703" xlink:href="#ArialMT-33"/>
    </g>
   </g>
   <g id="text_52">
    <!-- 89 -->
    <g style="fill:#262626;" transform="translate(388.859051 501.338129)scale(0.1 -0.1)">
     <use xlink:href="#ArialMT-38"/>
     <use x="55.615234" xlink:href="#ArialMT-39"/>
    </g>
   </g>
   <g id="text_53">
    <!-- 92 -->
    <g style="fill:#262626;" transform="translate(368.656648 501.338129)scale(0.1 -0.1)">
     <use xlink:href="#ArialMT-39"/>
     <use x="55.615234" xlink:href="#ArialMT-32"/>
    </g>
   </g>
   <g id="text_54">
    <!-- Bioregistry -->
    <g style="fill:#262626;" transform="translate(276.08902 563.311766)scale(0.12 -0.12)">
     <use xlink:href="#ArialMT-42"/>
     <use x="66.699219" xlink:href="#ArialMT-69"/>
     <use x="88.916016" xlink:href="#ArialMT-6f"/>
     <use x="144.53125" xlink:href="#ArialMT-72"/>
     <use x="177.832031" xlink:href="#ArialMT-65"/>
     <use x="233.447266" xlink:href="#ArialMT-67"/>
     <use x="289.0625" xlink:href="#ArialMT-69"/>
     <use x="311.279297" xlink:href="#ArialMT-73"/>
     <use x="361.279297" xlink:href="#ArialMT-74"/>
     <use x="389.0625" xlink:href="#ArialMT-72"/>
     <use x="422.363281" xlink:href="#ArialMT-79"/>
    </g>
   </g>
   <g id="text_55">
    <!-- UniProt -->
    <g style="fill:#262626;" transform="translate(383.525115 531.17198)scale(0.12 -0.12)">
     <defs>
      <path d="M 3500 4581 
L 4106 4581 
L 4106 1934 
Q 4106 1244 3950 837 
Q 3794 431 3386 176 
Q 2978 -78 2316 -78 
Q 1672 -78 1262 144 
Q 853 366 678 786 
Q 503 1206 503 1934 
L 503 4581 
L 1109 4581 
L 1109 1938 
Q 1109 1341 1220 1058 
Q 1331 775 1601 622 
Q 1872 469 2263 469 
Q 2931 469 3215 772 
Q 3500 1075 3500 1938 
L 3500 4581 
z
" id="ArialMT-55" transform="scale(0.015625)"/>
     </defs>
     <use xlink:href="#ArialMT-55"/>
     <use x="72.216797" xlink:href="#ArialMT-6e"/>
     <use x="127.832031" xlink:href="#ArialMT-69"/>
     <use x="150.048828" xlink:href="#ArialMT-50"/>
     <use x="216.748047" xlink:href="#ArialMT-72"/>
     <use x="250.048828" xlink:href="#ArialMT-6f"/>
     <use x="305.664062" xlink:href="#ArialMT-74"/>
    </g>
   </g>
  </g>
  <g id="axes_12">
   <g id="patch_35">
    <path clip-path="url(#p061c11424f)" d="M 608.132919 514.215419 
C 604.619102 513.429636 601.475961 511.469082 599.224842 508.658952 
C 596.973724 505.848822 595.746375 502.353579 595.746375 498.752973 
C 595.746375 495.152367 596.973724 491.657123 599.224842 488.846993 
C 601.475961 486.036863 604.619102 484.07631 608.132919 483.290527 
C 606.296998 477.343347 603.416463 471.770402 599.626496 466.833226 
C 595.836529 461.89605 591.197358 457.673102 585.926697 454.362562 
C 580.656035 451.052021 574.837641 448.706497 568.744566 447.436064 
C 562.651492 446.16563 556.380566 445.990476 550.226077 446.918821 
C 544.071588 447.847167 538.131342 449.864258 532.684107 452.875436 
C 527.236872 455.886614 522.369215 459.844025 518.30957 464.561953 
C 514.249925 469.279881 511.062807 474.683349 508.897784 480.518778 
C 506.73276 486.354206 505.624238 492.528862 505.624238 498.752973 
C 505.624238 504.977084 506.73276 511.151739 508.897784 516.987168 
C 511.062807 522.822597 514.249925 528.226065 518.30957 532.943993 
C 522.369215 537.66192 527.236872 541.619332 532.684107 544.630509 
C 538.131342 547.641687 544.071588 549.658779 550.226077 550.587124 
C 556.380566 551.51547 562.651492 551.340316 568.744566 550.069882 
C 574.837641 548.799448 580.656035 546.453925 585.926697 543.143384 
C 591.197358 539.832843 595.836529 535.609895 599.626496 530.672719 
C 603.416463 525.735543 606.296998 520.162599 608.132919 514.215419 
" style="fill:#c0c0c0;opacity:0.4;"/>
   </g>
   <g id="patch_36">
    <path clip-path="url(#p061c11424f)" d="M 608.132919 483.290527 
C 609.679069 488.299035 610.46528 493.511243 610.46528 498.752973 
C 610.46528 503.994703 609.679069 509.20691 608.132919 514.215419 
C 610.450028 514.733586 612.854249 514.724346 615.167307 514.188382 
C 617.480364 513.652419 619.643636 512.603316 621.496714 511.118865 
C 623.349792 509.634415 624.845712 507.752239 625.87355 505.611902 
C 626.901388 503.471566 627.435094 501.127313 627.435094 498.752973 
C 627.435094 496.378633 626.901388 494.03438 625.87355 491.894043 
C 624.845712 489.753707 623.349792 487.87153 621.496714 486.38708 
C 619.643636 484.90263 617.480364 483.853527 615.167307 483.317563 
C 612.854249 482.7816 610.450028 482.772359 608.132919 483.290527 
" style="fill:#b15928;opacity:0.4;"/>
   </g>
   <g id="patch_37">
    <path clip-path="url(#p061c11424f)" d="M 608.132919 514.215419 
C 609.679069 509.20691 610.46528 503.994703 610.46528 498.752973 
C 610.46528 493.511243 609.679069 488.299035 608.132919 483.290527 
C 604.619102 484.07631 601.475961 486.036863 599.224842 488.846993 
C 596.973724 491.657123 595.746375 495.152367 595.746375 498.752973 
C 595.746375 502.353579 596.973724 505.848822 599.224842 508.658952 
C 601.475961 511.469082 604.619102 513.429636 608.132919 514.215419 
" style="fill:#ffc5a2;opacity:0.4;"/>
   </g>
   <g id="text_56">
    <!-- 1168 -->
    <g style="fill:#262626;" transform="translate(539.932182 501.338129)scale(0.1 -0.1)">
     <use xlink:href="#ArialMT-31"/>
     <use x="48.240234" xlink:href="#ArialMT-31"/>
     <use x="103.855469" xlink:href="#ArialMT-36"/>
     <use x="159.470703" xlink:href="#ArialMT-38"/>
    </g>
   </g>
   <g id="text_57">
    <!-- 64 -->
    <g style="fill:#262626;" transform="translate(613.38925 501.338129)scale(0.1 -0.1)">
     <use xlink:href="#ArialMT-36"/>
     <use x="55.615234" xlink:href="#ArialMT-34"/>
    </g>
   </g>
   <g id="text_58">
    <!-- 47 -->
    <g style="fill:#262626;" transform="translate(597.54489 501.338129)scale(0.1 -0.1)">
     <use xlink:href="#ArialMT-34"/>
     <use x="55.615234" xlink:href="#ArialMT-37"/>
    </g>
   </g>
   <g id="text_59">
    <!-- Bioregistry -->
    <g style="fill:#262626;" transform="translate(501.363509 563.176113)scale(0.12 -0.12)">
     <use xlink:href="#ArialMT-42"/>
     <use x="66.699219" xlink:href="#ArialMT-69"/>
     <use x="88.916016" xlink:href="#ArialMT-6f"/>
     <use x="144.53125" xlink:href="#ArialMT-72"/>
     <use x="177.832031" xlink:href="#ArialMT-65"/>
     <use x="233.447266" xlink:href="#ArialMT-67"/>
     <use x="289.0625" xlink:href="#ArialMT-69"/>
     <use x="311.279297" xlink:href="#ArialMT-73"/>
     <use x="361.279297" xlink:href="#ArialMT-74"/>
     <use x="389.0625" xlink:href="#ArialMT-72"/>
     <use x="422.363281" xlink:href="#ArialMT-79"/>
    </g>
   </g>
   <g id="text_60">
    <!-- Cellosaurus -->
    <g style="fill:#262626;" transform="translate(611.590735 526.599951)scale(0.12 -0.12)">
     <defs>
      <path d="M 2597 0 
L 2597 488 
Q 2209 -75 1544 -75 
Q 1250 -75 995 37 
Q 741 150 617 320 
Q 494 491 444 738 
Q 409 903 409 1263 
L 409 3319 
L 972 3319 
L 972 1478 
Q 972 1038 1006 884 
Q 1059 663 1231 536 
Q 1403 409 1656 409 
Q 1909 409 2131 539 
Q 2353 669 2445 892 
Q 2538 1116 2538 1541 
L 2538 3319 
L 3100 3319 
L 3100 0 
L 2597 0 
z
" id="ArialMT-75" transform="scale(0.015625)"/>
     </defs>
     <use xlink:href="#ArialMT-43"/>
     <use x="72.216797" xlink:href="#ArialMT-65"/>
     <use x="127.832031" xlink:href="#ArialMT-6c"/>
     <use x="150.048828" xlink:href="#ArialMT-6c"/>
     <use x="172.265625" xlink:href="#ArialMT-6f"/>
     <use x="227.880859" xlink:href="#ArialMT-73"/>
     <use x="277.880859" xlink:href="#ArialMT-61"/>
     <use x="333.496094" xlink:href="#ArialMT-75"/>
     <use x="389.111328" xlink:href="#ArialMT-72"/>
     <use x="422.412109" xlink:href="#ArialMT-75"/>
     <use x="478.027344" xlink:href="#ArialMT-73"/>
    </g>
   </g>
  </g>
  <g id="axes_13">
   <g id="patch_38">
    <path clip-path="url(#pfe2cbb25d5)" d="M 162.2682 660.826514 
C 158.767974 662.784271 154.81581 663.792905 150.805483 663.75192 
C 146.795156 663.710936 142.864432 662.62174 139.404948 660.592855 
C 135.945464 658.563971 133.076063 655.665095 131.082638 652.185058 
C 129.089213 648.705021 128.040244 644.763371 128.040244 640.752835 
C 128.040244 636.742299 129.089213 632.800649 131.082638 629.320612 
C 133.076063 625.840575 135.945464 622.941699 139.404948 620.912815 
C 142.864432 618.883931 146.795156 617.794735 150.805483 617.75375 
C 154.81581 617.712765 158.767974 618.721399 162.2682 620.679156 
C 159.96293 615.105387 156.714651 609.97015 152.666094 605.499091 
C 148.617537 601.028032 143.828883 597.28761 138.510545 594.442181 
C 133.192208 591.596752 127.423242 589.688611 121.457138 588.801603 
C 115.491033 587.914596 109.416474 588.061906 103.500378 589.237061 
C 97.584282 590.412216 91.914589 592.597747 86.740427 595.697623 
C 81.566265 598.797499 76.964546 602.76564 73.13747 607.427686 
C 69.310394 612.089732 66.314849 617.376383 64.282461 623.055342 
C 62.250072 628.734301 61.21105 634.721154 61.21105 640.752835 
C 61.21105 646.784517 62.250072 652.771369 64.282461 658.450328 
C 66.314849 664.129288 69.310394 669.415939 73.13747 674.077985 
C 76.964546 678.74003 81.566265 682.708172 86.740427 685.808047 
C 91.914589 688.907923 97.584282 691.093455 103.500378 692.26861 
C 109.416474 693.443765 115.491033 693.591075 121.457138 692.704067 
C 127.423242 691.817059 133.192208 689.908919 138.510545 687.063489 
C 143.828883 684.21806 148.617537 680.477638 152.666094 676.006579 
C 156.714651 671.53552 159.96293 666.400284 162.2682 660.826514 
" style="fill:#c0c0c0;opacity:0.4;"/>
   </g>
   <g id="patch_39">
    <path clip-path="url(#pfe2cbb25d5)" d="M 162.2682 620.679156 
C 164.900671 627.044043 166.255574 633.865043 166.255574 640.752835 
C 166.255574 647.640628 164.900671 654.461627 162.2682 660.826514 
C 165.837975 658.829857 168.811353 655.916639 170.88055 652.388417 
C 172.949747 648.860195 174.040816 644.843059 174.040816 640.752835 
C 174.040816 636.662612 172.949747 632.645475 170.88055 629.117253 
C 168.811353 625.589031 165.837975 622.675813 162.2682 620.679156 
" style="fill:#a6cee3;opacity:0.4;"/>
   </g>
   <g id="patch_40">
    <path clip-path="url(#pfe2cbb25d5)" d="M 162.2682 660.826514 
C 164.900671 654.461627 166.255574 647.640628 166.255574 640.752835 
C 166.255574 633.865043 164.900671 627.044043 162.2682 620.679156 
C 158.767974 618.721399 154.81581 617.712765 150.805483 617.75375 
C 146.795156 617.794735 142.864432 618.883931 139.404948 620.912815 
C 135.945464 622.941699 133.076063 625.840575 131.082638 629.320612 
C 129.089213 632.800649 128.040244 636.742299 128.040244 640.752835 
C 128.040244 644.763371 129.089213 648.705021 131.082638 652.185058 
C 133.076063 655.665095 135.945464 658.563971 139.404948 660.592855 
C 142.864432 662.62174 146.795156 663.710936 150.805483 663.75192 
C 154.81581 663.792905 158.767974 662.784271 162.2682 660.826514 
" style="fill:#fbffff;opacity:0.4;"/>
   </g>
   <g id="text_61">
    <!-- 1014 -->
    <g style="fill:#262626;" transform="translate(83.503772 643.337991)scale(0.1 -0.1)">
     <use xlink:href="#ArialMT-31"/>
     <use x="55.615234" xlink:href="#ArialMT-30"/>
     <use x="111.230469" xlink:href="#ArialMT-31"/>
     <use x="166.845703" xlink:href="#ArialMT-34"/>
    </g>
   </g>
   <g id="text_62">
    <!-- 32 -->
    <g style="fill:#262626;" transform="translate(164.587257 643.337991)scale(0.1 -0.1)">
     <use xlink:href="#ArialMT-33"/>
     <use x="55.615234" xlink:href="#ArialMT-32"/>
    </g>
   </g>
   <g id="text_63">
    <!-- 201 -->
    <g style="fill:#262626;" transform="translate(138.806502 643.337991)scale(0.1 -0.1)">
     <use xlink:href="#ArialMT-32"/>
     <use x="55.615234" xlink:href="#ArialMT-30"/>
     <use x="111.230469" xlink:href="#ArialMT-31"/>
    </g>
   </g>
   <g id="text_64">
    <!-- Bioregistry -->
    <g style="fill:#262626;" transform="translate(57.052062 705.640599)scale(0.12 -0.12)">
     <use xlink:href="#ArialMT-42"/>
     <use x="66.699219" xlink:href="#ArialMT-69"/>
     <use x="88.916016" xlink:href="#ArialMT-6f"/>
     <use x="144.53125" xlink:href="#ArialMT-72"/>
     <use x="177.832031" xlink:href="#ArialMT-65"/>
     <use x="233.447266" xlink:href="#ArialMT-67"/>
     <use x="289.0625" xlink:href="#ArialMT-69"/>
     <use x="311.279297" xlink:href="#ArialMT-73"/>
     <use x="361.279297" xlink:href="#ArialMT-74"/>
     <use x="389.0625" xlink:href="#ArialMT-72"/>
     <use x="422.363281" xlink:href="#ArialMT-79"/>
    </g>
   </g>
   <g id="text_65">
    <!-- OntoBee -->
    <g style="fill:#262626;" transform="translate(151.04053 676.118624)scale(0.12 -0.12)">
     <use xlink:href="#ArialMT-4f"/>
     <use x="77.783203" xlink:href="#ArialMT-6e"/>
     <use x="133.398438" xlink:href="#ArialMT-74"/>
     <use x="161.181641" xlink:href="#ArialMT-6f"/>
     <use x="216.796875" xlink:href="#ArialMT-42"/>
     <use x="283.496094" xlink:href="#ArialMT-65"/>
     <use x="339.111328" xlink:href="#ArialMT-65"/>
    </g>
   </g>
  </g>
  <g id="axes_14"/>
  <g id="axes_15"/>
  <g id="text_66">
   <!-- https://github.com/biopragmatics/bioregistry (2021-10-14) -->
   <g style="fill:#808080;opacity:0.5;" transform="translate(249.625 718.31625)scale(0.08 -0.08)">
    <defs>
     <path d="M 422 0 
L 422 4581 
L 984 4581 
L 984 2938 
Q 1378 3394 1978 3394 
Q 2347 3394 2619 3248 
Q 2891 3103 3008 2847 
Q 3125 2591 3125 2103 
L 3125 0 
L 2563 0 
L 2563 2103 
Q 2563 2525 2380 2717 
Q 2197 2909 1863 2909 
Q 1613 2909 1392 2779 
Q 1172 2650 1078 2428 
Q 984 2206 984 1816 
L 984 0 
L 422 0 
z
" id="ArialMT-68" transform="scale(0.015625)"/>
     <path d="M 422 -1272 
L 422 3319 
L 934 3319 
L 934 2888 
Q 1116 3141 1344 3267 
Q 1572 3394 1897 3394 
Q 2322 3394 2647 3175 
Q 2972 2956 3137 2557 
Q 3303 2159 3303 1684 
Q 3303 1175 3120 767 
Q 2938 359 2589 142 
Q 2241 -75 1856 -75 
Q 1575 -75 1351 44 
Q 1128 163 984 344 
L 984 -1272 
L 422 -1272 
z
M 931 1641 
Q 931 1000 1190 694 
Q 1450 388 1819 388 
Q 2194 388 2461 705 
Q 2728 1022 2728 1688 
Q 2728 2322 2467 2637 
Q 2206 2953 1844 2953 
Q 1484 2953 1207 2617 
Q 931 2281 931 1641 
z
" id="ArialMT-70" transform="scale(0.015625)"/>
     <path d="M 578 2678 
L 578 3319 
L 1219 3319 
L 1219 2678 
L 578 2678 
z
M 578 0 
L 578 641 
L 1219 641 
L 1219 0 
L 578 0 
z
" id="ArialMT-3a" transform="scale(0.015625)"/>
     <path d="M 0 -78 
L 1328 4659 
L 1778 4659 
L 453 -78 
L 0 -78 
z
" id="ArialMT-2f" transform="scale(0.015625)"/>
     <path d="M 941 0 
L 419 0 
L 419 4581 
L 981 4581 
L 981 2947 
Q 1338 3394 1891 3394 
Q 2197 3394 2470 3270 
Q 2744 3147 2920 2923 
Q 3097 2700 3197 2384 
Q 3297 2069 3297 1709 
Q 3297 856 2875 390 
Q 2453 -75 1863 -75 
Q 1275 -75 941 416 
L 941 0 
z
M 934 1684 
Q 934 1088 1097 822 
Q 1363 388 1816 388 
Q 2184 388 2453 708 
Q 2722 1028 2722 1663 
Q 2722 2313 2464 2622 
Q 2206 2931 1841 2931 
Q 1472 2931 1203 2611 
Q 934 2291 934 1684 
z
" id="ArialMT-62" transform="scale(0.015625)"/>
     <path d="M 581 0 
L 581 641 
L 1222 641 
L 1222 0 
L 581 0 
z
" id="ArialMT-2e" transform="scale(0.015625)"/>
     <path d="M 2588 1216 
L 3141 1144 
Q 3050 572 2676 248 
Q 2303 -75 1759 -75 
Q 1078 -75 664 370 
Q 250 816 250 1647 
Q 250 2184 428 2587 
Q 606 2991 970 3192 
Q 1334 3394 1763 3394 
Q 2303 3394 2647 3120 
Q 2991 2847 3088 2344 
L 2541 2259 
Q 2463 2594 2264 2762 
Q 2066 2931 1784 2931 
Q 1359 2931 1093 2626 
Q 828 2322 828 1663 
Q 828 994 1084 691 
Q 1341 388 1753 388 
Q 2084 388 2306 591 
Q 2528 794 2588 1216 
z
" id="ArialMT-63" transform="scale(0.015625)"/>
     <path d="M 1497 -1347 
Q 1031 -759 709 28 
Q 388 816 388 1659 
Q 388 2403 628 3084 
Q 909 3875 1497 4659 
L 1900 4659 
Q 1522 4009 1400 3731 
Q 1209 3300 1100 2831 
Q 966 2247 966 1656 
Q 966 153 1900 -1347 
L 1497 -1347 
z
" id="ArialMT-28" transform="scale(0.015625)"/>
     <path d="M 203 1375 
L 203 1941 
L 1931 1941 
L 1931 1375 
L 203 1375 
z
" id="ArialMT-2d" transform="scale(0.015625)"/>
     <path d="M 791 -1347 
L 388 -1347 
Q 1322 153 1322 1656 
Q 1322 2244 1188 2822 
Q 1081 3291 891 3722 
Q 769 4003 388 4659 
L 791 4659 
Q 1378 3875 1659 3084 
Q 1900 2403 1900 1659 
Q 1900 816 1576 28 
Q 1253 -759 791 -1347 
z
" id="ArialMT-29" transform="scale(0.015625)"/>
    </defs>
    <use xlink:href="#ArialMT-68"/>
    <use x="55.615234" xlink:href="#ArialMT-74"/>
    <use x="83.398438" xlink:href="#ArialMT-74"/>
    <use x="111.181641" xlink:href="#ArialMT-70"/>
    <use x="166.796875" xlink:href="#ArialMT-73"/>
    <use x="216.796875" xlink:href="#ArialMT-3a"/>
    <use x="244.580078" xlink:href="#ArialMT-2f"/>
    <use x="272.363281" xlink:href="#ArialMT-2f"/>
    <use x="300.146484" xlink:href="#ArialMT-67"/>
    <use x="355.761719" xlink:href="#ArialMT-69"/>
    <use x="377.978516" xlink:href="#ArialMT-74"/>
    <use x="405.761719" xlink:href="#ArialMT-68"/>
    <use x="461.376953" xlink:href="#ArialMT-75"/>
    <use x="516.992188" xlink:href="#ArialMT-62"/>
    <use x="572.607422" xlink:href="#ArialMT-2e"/>
    <use x="600.390625" xlink:href="#ArialMT-63"/>
    <use x="650.390625" xlink:href="#ArialMT-6f"/>
    <use x="706.005859" xlink:href="#ArialMT-6d"/>
    <use x="789.306641" xlink:href="#ArialMT-2f"/>
    <use x="817.089844" xlink:href="#ArialMT-62"/>
    <use x="872.705078" xlink:href="#ArialMT-69"/>
    <use x="894.921875" xlink:href="#ArialMT-6f"/>
    <use x="950.537109" xlink:href="#ArialMT-70"/>
    <use x="1006.152344" xlink:href="#ArialMT-72"/>
    <use x="1039.453125" xlink:href="#ArialMT-61"/>
    <use x="1095.068359" xlink:href="#ArialMT-67"/>
    <use x="1150.683594" xlink:href="#ArialMT-6d"/>
    <use x="1233.984375" xlink:href="#ArialMT-61"/>
    <use x="1289.599609" xlink:href="#ArialMT-74"/>
    <use x="1317.382812" xlink:href="#ArialMT-69"/>
    <use x="1339.599609" xlink:href="#ArialMT-63"/>
    <use x="1389.599609" xlink:href="#ArialMT-73"/>
    <use x="1439.599609" xlink:href="#ArialMT-2f"/>
    <use x="1467.382812" xlink:href="#ArialMT-62"/>
    <use x="1522.998047" xlink:href="#ArialMT-69"/>
    <use x="1545.214844" xlink:href="#ArialMT-6f"/>
    <use x="1600.830078" xlink:href="#ArialMT-72"/>
    <use x="1634.130859" xlink:href="#ArialMT-65"/>
    <use x="1689.746094" xlink:href="#ArialMT-67"/>
    <use x="1745.361328" xlink:href="#ArialMT-69"/>
    <use x="1767.578125" xlink:href="#ArialMT-73"/>
    <use x="1817.578125" xlink:href="#ArialMT-74"/>
    <use x="1845.361328" xlink:href="#ArialMT-72"/>
    <use x="1878.662109" xlink:href="#ArialMT-79"/>
    <use x="1928.662109" xlink:href="#ArialMT-20"/>
    <use x="1956.445312" xlink:href="#ArialMT-28"/>
    <use x="1989.746094" xlink:href="#ArialMT-32"/>
    <use x="2045.361328" xlink:href="#ArialMT-30"/>
    <use x="2100.976562" xlink:href="#ArialMT-32"/>
    <use x="2156.591797" xlink:href="#ArialMT-31"/>
    <use x="2212.207031" xlink:href="#ArialMT-2d"/>
    <use x="2245.507812" xlink:href="#ArialMT-31"/>
    <use x="2301.123047" xlink:href="#ArialMT-30"/>
    <use x="2356.738281" xlink:href="#ArialMT-2d"/>
    <use x="2390.039062" xlink:href="#ArialMT-31"/>
    <use x="2445.654297" xlink:href="#ArialMT-34"/>
    <use x="2501.269531" xlink:href="#ArialMT-29"/>
   </g>
  </g>
 </g>
 <defs>
  <clipPath id="p0eaf5a9f3a">
   <rect height="123.906771" width="125.380698" x="54.935584" y="10.8"/>
  </clipPath>
  <clipPath id="p8605db27aa">
   <rect height="123.906771" width="124.999543" x="279.578028" y="10.8"/>
  </clipPath>
  <clipPath id="pd7b103ac85">
   <rect height="123.906771" width="124.328467" x="504.365432" y="10.8"/>
  </clipPath>
  <clipPath id="p2f883b06f9">
   <rect height="123.906771" width="157.554627" x="38.84862" y="152.799862"/>
  </clipPath>
  <clipPath id="p2c31f6e4ae">
   <rect height="123.906771" width="126.093426" x="279.031087" y="152.799862"/>
  </clipPath>
  <clipPath id="pc314d28153">
   <rect height="123.906771" width="145.015336" x="494.021998" y="152.799862"/>
  </clipPath>
  <clipPath id="pff656bc826">
   <rect height="123.906771" width="175.956338" x="29.647764" y="294.799725"/>
  </clipPath>
  <clipPath id="p65a9e9a07d">
   <rect height="123.906771" width="134.998805" x="274.578397" y="294.799725"/>
  </clipPath>
  <clipPath id="pefa69ec7e0">
   <rect height="123.906771" width="136.490123" x="498.284605" y="294.799725"/>
  </clipPath>
  <clipPath id="p96d6e869c4">
   <rect height="123.906771" width="138.441099" x="48.405384" y="436.799587"/>
  </clipPath>
  <clipPath id="p4ba17cb638">
   <rect height="123.906771" width="142.52183" x="270.816885" y="436.799587"/>
  </clipPath>
  <clipPath id="p061c11424f">
   <rect height="123.906771" width="140.876585" x="496.091374" y="436.799587"/>
  </clipPath>
  <clipPath id="pfe2cbb25d5">
   <rect height="123.906771" width="131.692013" x="51.779927" y="578.79945"/>
  </clipPath>
 </defs>
</svg>
