<?xml version="1.0" encoding="utf-8" standalone="no"?>
<!DOCTYPE svg PUBLIC "-//W3C//DTD SVG 1.1//EN"
  "http://www.w3.org/Graphics/SVG/1.1/DTD/svg11.dtd">
<svg height="576pt" version="1.1" viewBox="0 0 702 576" width="702pt" xmlns="http://www.w3.org/2000/svg" xmlns:xlink="http://www.w3.org/1999/xlink">
 <metadata>
  <rdf:RDF xmlns:cc="http://creativecommons.org/ns#" xmlns:dc="http://purl.org/dc/elements/1.1/" xmlns:rdf="http://www.w3.org/1999/02/22-rdf-syntax-ns#">
   <cc:Work>
    <dc:type rdf:resource="http://purl.org/dc/dcmitype/StillImage"/>
    <dc:date>2021-08-01T00:55:13.673223</dc:date>
    <dc:format>image/svg+xml</dc:format>
    <dc:creator>
     <cc:Agent>
      <dc:title>Matplotlib v3.4.2, https://matplotlib.org/</dc:title>
     </cc:Agent>
    </dc:creator>
   </cc:Work>
  </rdf:RDF>
 </metadata>
 <defs>
  <style type="text/css">*{stroke-linecap:butt;stroke-linejoin:round;}</style>
 </defs>
 <g id="figure_1">
  <g id="patch_1">
   <path d="M 0 576 
L 702 576 
L 702 0 
L 0 0 
z
" style="fill:#ffffff;"/>
  </g>
  <g id="axes_1">
   <g id="patch_2">
    <path clip-path="url(#p0fda0bc637)" d="M 164.634286 82.189445 
C 163.443715 84.514837 161.872761 86.62494 159.986474 88.432378 
C 158.100188 90.239816 155.924968 91.719292 153.550888 92.809545 
C 151.176808 93.899799 148.637094 94.58557 146.036911 94.838462 
C 143.436727 95.091354 140.812466 94.907828 138.272792 94.295483 
C 135.733119 93.683139 133.313577 92.650546 131.114356 91.240462 
C 128.915136 89.830378 126.967016 88.062538 125.350664 86.010146 
C 123.734312 83.957753 122.47235 81.649533 121.617034 79.181063 
C 120.761718 76.712593 120.325019 74.118422 120.325019 71.505969 
C 120.325019 68.893517 120.761718 66.299346 121.617034 63.830876 
C 122.47235 61.362406 123.734312 59.054186 125.350664 57.001793 
C 126.967016 54.9494 128.915136 53.181561 131.114356 51.771477 
C 133.313577 50.361393 135.733119 49.3288 138.272792 48.716455 
C 140.812466 48.104111 143.436727 47.920585 146.036911 48.173477 
C 148.637094 48.426369 151.176808 49.11214 153.550888 50.202393 
C 155.924968 51.292646 158.100188 52.772123 159.986474 54.579561 
C 161.872761 56.386999 163.443715 58.497101 164.634286 60.822493 
C 163.325094 54.641729 160.890863 48.753935 157.45317 43.453171 
C 154.015477 38.152407 149.632522 33.528415 144.523206 29.812136 
C 139.413891 26.095858 133.664716 23.350209 127.562819 21.712318 
C 121.460922 20.074428 115.109608 19.572025 108.826087 20.230203 
C 102.542567 20.88838 96.433219 22.695995 90.80317 25.562767 
C 85.173121 28.429539 80.117688 32.306934 75.889359 37.001299 
C 71.66103 41.695664 68.33139 47.127524 66.066737 53.025589 
C 63.802083 58.923655 62.640756 65.188072 62.640756 71.505969 
C 62.640756 77.823867 63.802083 84.088284 66.066737 89.986349 
C 68.33139 95.884414 71.66103 101.316274 75.889359 106.01064 
C 80.117688 110.705005 85.173121 114.5824 90.80317 117.449172 
C 96.433219 120.315944 102.542567 122.123558 108.826087 122.781736 
C 115.109608 123.439913 121.460922 122.937511 127.562819 121.29962 
C 133.664716 119.66173 139.413891 116.916081 144.523206 113.199802 
C 149.632522 109.483523 154.015477 104.859532 157.45317 99.558768 
C 160.890863 94.258004 163.325094 88.370209 164.634286 82.189445 
" style="fill:#c0c0c0;opacity:0.4;"/>
   </g>
   <g id="patch_3">
    <path clip-path="url(#p0fda0bc637)" d="M 164.634286 60.822493 
C 165.378288 64.334965 165.753344 67.915566 165.753344 71.505969 
C 165.753344 75.096372 165.378288 78.676974 164.634286 82.189445 
C 166.327217 78.882858 167.210196 75.220742 167.210196 71.505969 
C 167.210196 67.791197 166.327217 64.129081 164.634286 60.822493 
" style="fill:#a6cee3;opacity:0.4;"/>
   </g>
   <g id="patch_4">
    <path clip-path="url(#p0fda0bc637)" d="M 164.634286 82.189445 
C 165.378288 78.676974 165.753344 75.096372 165.753344 71.505969 
C 165.753344 67.915566 165.378288 64.334965 164.634286 60.822493 
C 163.443715 58.497101 161.872761 56.386999 159.986474 54.579561 
C 158.100188 52.772123 155.924968 51.292646 153.550888 50.202393 
C 151.176808 49.11214 148.637094 48.426369 146.036911 48.173477 
C 143.436727 47.920585 140.812466 48.104111 138.272792 48.716455 
C 135.733119 49.3288 133.313577 50.361393 131.114356 51.771477 
C 128.915136 53.181561 126.967016 54.9494 125.350664 57.001793 
C 123.734312 59.054186 122.47235 61.362406 121.617034 63.830876 
C 120.761718 66.299346 120.325019 68.893517 120.325019 71.505969 
C 120.325019 74.118422 120.761718 76.712593 121.617034 79.181063 
C 122.47235 81.649533 123.734312 83.957753 125.350664 86.010146 
C 126.967016 88.062538 128.915136 89.830378 131.114356 91.240462 
C 133.313577 92.650546 135.733119 93.683139 138.272792 94.295483 
C 140.812466 94.907828 143.436727 95.091354 146.036911 94.838462 
C 148.637094 94.58557 151.176808 93.899799 153.550888 92.809545 
C 155.924968 91.719292 158.100188 90.239816 159.986474 88.432378 
C 161.872761 86.62494 163.443715 84.514837 164.634286 82.189445 
" style="fill:#fbffff;opacity:0.4;"/>
   </g>
   <g id="text_1">
    <!-- 943 -->
    <g style="fill:#262626;" transform="translate(81.939137 74.265344)scale(0.1 -0.1)">
     <defs>
      <path d="M 703 97 
L 703 672 
Q 941 559 1184 500 
Q 1428 441 1663 441 
Q 2288 441 2617 861 
Q 2947 1281 2994 2138 
Q 2813 1869 2534 1725 
Q 2256 1581 1919 1581 
Q 1219 1581 811 2004 
Q 403 2428 403 3163 
Q 403 3881 828 4315 
Q 1253 4750 1959 4750 
Q 2769 4750 3195 4129 
Q 3622 3509 3622 2328 
Q 3622 1225 3098 567 
Q 2575 -91 1691 -91 
Q 1453 -91 1209 -44 
Q 966 3 703 97 
z
M 1959 2075 
Q 2384 2075 2632 2365 
Q 2881 2656 2881 3163 
Q 2881 3666 2632 3958 
Q 2384 4250 1959 4250 
Q 1534 4250 1286 3958 
Q 1038 3666 1038 3163 
Q 1038 2656 1286 2365 
Q 1534 2075 1959 2075 
z
" id="DejaVuSans-39" transform="scale(0.015625)"/>
      <path d="M 2419 4116 
L 825 1625 
L 2419 1625 
L 2419 4116 
z
M 2253 4666 
L 3047 4666 
L 3047 1625 
L 3713 1625 
L 3713 1100 
L 3047 1100 
L 3047 0 
L 2419 0 
L 2419 1100 
L 313 1100 
L 313 1709 
L 2253 4666 
z
" id="DejaVuSans-34" transform="scale(0.015625)"/>
      <path d="M 2597 2516 
Q 3050 2419 3304 2112 
Q 3559 1806 3559 1356 
Q 3559 666 3084 287 
Q 2609 -91 1734 -91 
Q 1441 -91 1130 -33 
Q 819 25 488 141 
L 488 750 
Q 750 597 1062 519 
Q 1375 441 1716 441 
Q 2309 441 2620 675 
Q 2931 909 2931 1356 
Q 2931 1769 2642 2001 
Q 2353 2234 1838 2234 
L 1294 2234 
L 1294 2753 
L 1863 2753 
Q 2328 2753 2575 2939 
Q 2822 3125 2822 3475 
Q 2822 3834 2567 4026 
Q 2313 4219 1838 4219 
Q 1578 4219 1281 4162 
Q 984 4106 628 3988 
L 628 4550 
Q 988 4650 1302 4700 
Q 1616 4750 1894 4750 
Q 2613 4750 3031 4423 
Q 3450 4097 3450 3541 
Q 3450 3153 3228 2886 
Q 3006 2619 2597 2516 
z
" id="DejaVuSans-33" transform="scale(0.015625)"/>
     </defs>
     <use xlink:href="#DejaVuSans-39"/>
     <use x="63.623047" xlink:href="#DejaVuSans-34"/>
     <use x="127.246094" xlink:href="#DejaVuSans-33"/>
    </g>
   </g>
   <g id="text_2">
    <!-- 3 -->
    <g style="fill:#262626;" transform="translate(163.30052 74.265344)scale(0.1 -0.1)">
     <use xlink:href="#DejaVuSans-33"/>
    </g>
   </g>
   <g id="text_3">
    <!-- 242 -->
    <g style="fill:#262626;" transform="translate(133.495431 74.265344)scale(0.1 -0.1)">
     <defs>
      <path d="M 1228 531 
L 3431 531 
L 3431 0 
L 469 0 
L 469 531 
Q 828 903 1448 1529 
Q 2069 2156 2228 2338 
Q 2531 2678 2651 2914 
Q 2772 3150 2772 3378 
Q 2772 3750 2511 3984 
Q 2250 4219 1831 4219 
Q 1534 4219 1204 4116 
Q 875 4013 500 3803 
L 500 4441 
Q 881 4594 1212 4672 
Q 1544 4750 1819 4750 
Q 2544 4750 2975 4387 
Q 3406 4025 3406 3419 
Q 3406 3131 3298 2873 
Q 3191 2616 2906 2266 
Q 2828 2175 2409 1742 
Q 1991 1309 1228 531 
z
" id="DejaVuSans-32" transform="scale(0.015625)"/>
     </defs>
     <use xlink:href="#DejaVuSans-32"/>
     <use x="63.623047" xlink:href="#DejaVuSans-34"/>
     <use x="127.246094" xlink:href="#DejaVuSans-32"/>
    </g>
   </g>
   <g id="text_4">
    <!-- Bioregistry -->
    <g style="fill:#262626;" transform="translate(49.297675 135.930333)scale(0.12 -0.12)">
     <defs>
      <path d="M 1259 2228 
L 1259 519 
L 2272 519 
Q 2781 519 3026 730 
Q 3272 941 3272 1375 
Q 3272 1813 3026 2020 
Q 2781 2228 2272 2228 
L 1259 2228 
z
M 1259 4147 
L 1259 2741 
L 2194 2741 
Q 2656 2741 2882 2914 
Q 3109 3088 3109 3444 
Q 3109 3797 2882 3972 
Q 2656 4147 2194 4147 
L 1259 4147 
z
M 628 4666 
L 2241 4666 
Q 2963 4666 3353 4366 
Q 3744 4066 3744 3513 
Q 3744 3084 3544 2831 
Q 3344 2578 2956 2516 
Q 3422 2416 3680 2098 
Q 3938 1781 3938 1306 
Q 3938 681 3513 340 
Q 3088 0 2303 0 
L 628 0 
L 628 4666 
z
" id="DejaVuSans-42" transform="scale(0.015625)"/>
      <path d="M 603 3500 
L 1178 3500 
L 1178 0 
L 603 0 
L 603 3500 
z
M 603 4863 
L 1178 4863 
L 1178 4134 
L 603 4134 
L 603 4863 
z
" id="DejaVuSans-69" transform="scale(0.015625)"/>
      <path d="M 1959 3097 
Q 1497 3097 1228 2736 
Q 959 2375 959 1747 
Q 959 1119 1226 758 
Q 1494 397 1959 397 
Q 2419 397 2687 759 
Q 2956 1122 2956 1747 
Q 2956 2369 2687 2733 
Q 2419 3097 1959 3097 
z
M 1959 3584 
Q 2709 3584 3137 3096 
Q 3566 2609 3566 1747 
Q 3566 888 3137 398 
Q 2709 -91 1959 -91 
Q 1206 -91 779 398 
Q 353 888 353 1747 
Q 353 2609 779 3096 
Q 1206 3584 1959 3584 
z
" id="DejaVuSans-6f" transform="scale(0.015625)"/>
      <path d="M 2631 2963 
Q 2534 3019 2420 3045 
Q 2306 3072 2169 3072 
Q 1681 3072 1420 2755 
Q 1159 2438 1159 1844 
L 1159 0 
L 581 0 
L 581 3500 
L 1159 3500 
L 1159 2956 
Q 1341 3275 1631 3429 
Q 1922 3584 2338 3584 
Q 2397 3584 2469 3576 
Q 2541 3569 2628 3553 
L 2631 2963 
z
" id="DejaVuSans-72" transform="scale(0.015625)"/>
      <path d="M 3597 1894 
L 3597 1613 
L 953 1613 
Q 991 1019 1311 708 
Q 1631 397 2203 397 
Q 2534 397 2845 478 
Q 3156 559 3463 722 
L 3463 178 
Q 3153 47 2828 -22 
Q 2503 -91 2169 -91 
Q 1331 -91 842 396 
Q 353 884 353 1716 
Q 353 2575 817 3079 
Q 1281 3584 2069 3584 
Q 2775 3584 3186 3129 
Q 3597 2675 3597 1894 
z
M 3022 2063 
Q 3016 2534 2758 2815 
Q 2500 3097 2075 3097 
Q 1594 3097 1305 2825 
Q 1016 2553 972 2059 
L 3022 2063 
z
" id="DejaVuSans-65" transform="scale(0.015625)"/>
      <path d="M 2906 1791 
Q 2906 2416 2648 2759 
Q 2391 3103 1925 3103 
Q 1463 3103 1205 2759 
Q 947 2416 947 1791 
Q 947 1169 1205 825 
Q 1463 481 1925 481 
Q 2391 481 2648 825 
Q 2906 1169 2906 1791 
z
M 3481 434 
Q 3481 -459 3084 -895 
Q 2688 -1331 1869 -1331 
Q 1566 -1331 1297 -1286 
Q 1028 -1241 775 -1147 
L 775 -588 
Q 1028 -725 1275 -790 
Q 1522 -856 1778 -856 
Q 2344 -856 2625 -561 
Q 2906 -266 2906 331 
L 2906 616 
Q 2728 306 2450 153 
Q 2172 0 1784 0 
Q 1141 0 747 490 
Q 353 981 353 1791 
Q 353 2603 747 3093 
Q 1141 3584 1784 3584 
Q 2172 3584 2450 3431 
Q 2728 3278 2906 2969 
L 2906 3500 
L 3481 3500 
L 3481 434 
z
" id="DejaVuSans-67" transform="scale(0.015625)"/>
      <path d="M 2834 3397 
L 2834 2853 
Q 2591 2978 2328 3040 
Q 2066 3103 1784 3103 
Q 1356 3103 1142 2972 
Q 928 2841 928 2578 
Q 928 2378 1081 2264 
Q 1234 2150 1697 2047 
L 1894 2003 
Q 2506 1872 2764 1633 
Q 3022 1394 3022 966 
Q 3022 478 2636 193 
Q 2250 -91 1575 -91 
Q 1294 -91 989 -36 
Q 684 19 347 128 
L 347 722 
Q 666 556 975 473 
Q 1284 391 1588 391 
Q 1994 391 2212 530 
Q 2431 669 2431 922 
Q 2431 1156 2273 1281 
Q 2116 1406 1581 1522 
L 1381 1569 
Q 847 1681 609 1914 
Q 372 2147 372 2553 
Q 372 3047 722 3315 
Q 1072 3584 1716 3584 
Q 2034 3584 2315 3537 
Q 2597 3491 2834 3397 
z
" id="DejaVuSans-73" transform="scale(0.015625)"/>
      <path d="M 1172 4494 
L 1172 3500 
L 2356 3500 
L 2356 3053 
L 1172 3053 
L 1172 1153 
Q 1172 725 1289 603 
Q 1406 481 1766 481 
L 2356 481 
L 2356 0 
L 1766 0 
Q 1100 0 847 248 
Q 594 497 594 1153 
L 594 3053 
L 172 3053 
L 172 3500 
L 594 3500 
L 594 4494 
L 1172 4494 
z
" id="DejaVuSans-74" transform="scale(0.015625)"/>
      <path d="M 2059 -325 
Q 1816 -950 1584 -1140 
Q 1353 -1331 966 -1331 
L 506 -1331 
L 506 -850 
L 844 -850 
Q 1081 -850 1212 -737 
Q 1344 -625 1503 -206 
L 1606 56 
L 191 3500 
L 800 3500 
L 1894 763 
L 2988 3500 
L 3597 3500 
L 2059 -325 
z
" id="DejaVuSans-79" transform="scale(0.015625)"/>
     </defs>
     <use xlink:href="#DejaVuSans-42"/>
     <use x="68.603516" xlink:href="#DejaVuSans-69"/>
     <use x="96.386719" xlink:href="#DejaVuSans-6f"/>
     <use x="157.568359" xlink:href="#DejaVuSans-72"/>
     <use x="196.431641" xlink:href="#DejaVuSans-65"/>
     <use x="257.955078" xlink:href="#DejaVuSans-67"/>
     <use x="321.431641" xlink:href="#DejaVuSans-69"/>
     <use x="349.214844" xlink:href="#DejaVuSans-73"/>
     <use x="401.314453" xlink:href="#DejaVuSans-74"/>
     <use x="440.523438" xlink:href="#DejaVuSans-72"/>
     <use x="481.636719" xlink:href="#DejaVuSans-79"/>
    </g>
   </g>
   <g id="text_5">
    <!-- OBO -->
    <g style="fill:#262626;" transform="translate(143.767607 107.816627)scale(0.12 -0.12)">
     <defs>
      <path d="M 2522 4238 
Q 1834 4238 1429 3725 
Q 1025 3213 1025 2328 
Q 1025 1447 1429 934 
Q 1834 422 2522 422 
Q 3209 422 3611 934 
Q 4013 1447 4013 2328 
Q 4013 3213 3611 3725 
Q 3209 4238 2522 4238 
z
M 2522 4750 
Q 3503 4750 4090 4092 
Q 4678 3434 4678 2328 
Q 4678 1225 4090 567 
Q 3503 -91 2522 -91 
Q 1538 -91 948 565 
Q 359 1222 359 2328 
Q 359 3434 948 4092 
Q 1538 4750 2522 4750 
z
" id="DejaVuSans-4f" transform="scale(0.015625)"/>
     </defs>
     <use xlink:href="#DejaVuSans-4f"/>
     <use x="78.710938" xlink:href="#DejaVuSans-42"/>
     <use x="145.564453" xlink:href="#DejaVuSans-4f"/>
    </g>
   </g>
  </g>
  <g id="axes_2">
   <g id="patch_5">
    <path clip-path="url(#p0c0947a72b)" d="M 392.59059 72.423282 
C 392.471585 75.577298 391.739941 78.678226 390.436541 81.552792 
C 389.133141 84.427359 387.282723 87.021006 384.988684 89.188808 
C 382.694645 91.356611 380.000523 93.057424 377.056861 94.19621 
C 374.113199 95.334997 370.975865 95.890144 367.820165 95.830631 
C 364.664465 95.771117 361.550293 95.098074 358.651662 93.849107 
C 355.75303 92.600141 353.124953 90.798957 350.91428 88.546201 
C 348.703608 86.293444 346.952298 83.631872 345.758209 80.710205 
C 344.564121 77.788539 343.949916 74.66223 343.949916 71.505969 
C 343.949916 68.349708 344.564121 65.2234 345.758209 62.301733 
C 346.952298 59.380067 348.703608 56.718494 350.91428 54.465738 
C 353.124953 52.212982 355.75303 50.411798 358.651662 49.162831 
C 361.550293 47.913865 364.664465 47.240821 367.820165 47.181308 
C 370.975865 47.121795 374.113199 47.676942 377.056861 48.815728 
C 380.000523 49.954515 382.694645 51.655328 384.988684 53.82313 
C 387.282723 55.990932 389.133141 58.58458 390.436541 61.459146 
C 391.739941 64.333712 392.471585 67.43464 392.59059 70.588657 
C 392.470816 63.85671 391.033703 57.212935 388.360577 51.033303 
C 385.687451 44.853671 381.829705 39.25699 377.005649 34.559976 
C 372.181593 29.862963 366.483973 26.15592 360.235217 23.64863 
C 353.986462 21.14134 347.306707 19.882006 340.573961 19.941896 
C 333.841215 20.001785 327.184921 21.379745 320.981756 23.997799 
C 314.778591 26.615852 309.147818 30.423663 304.40808 35.205749 
C 299.668343 39.987835 295.910768 45.652255 293.347994 51.878462 
C 290.785221 58.104669 289.466522 64.772957 289.466522 71.505969 
C 289.466522 78.238982 290.785221 84.90727 293.347994 91.133477 
C 295.910768 97.359683 299.668343 103.024104 304.40808 107.80619 
C 309.147818 112.588276 314.778591 116.396087 320.981756 119.01414 
C 327.184921 121.632193 333.841215 123.010154 340.573961 123.070043 
C 347.306707 123.129932 353.986462 121.870599 360.235217 119.363309 
C 366.483973 116.856018 372.181593 113.148976 377.005649 108.451962 
C 381.829705 103.754948 385.687451 98.158268 388.360577 91.978636 
C 391.033703 85.799004 392.470816 79.155229 392.59059 72.423282 
" style="fill:#c0c0c0;opacity:0.4;"/>
   </g>
   <g id="patch_6">
    <path clip-path="url(#p0c0947a72b)" d="M 392.59059 70.588657 
C 392.59603 70.894397 392.59875 71.20018 392.59875 71.505969 
C 392.59875 71.811758 392.59603 72.117541 392.59059 72.423282 
C 392.602122 72.117647 392.607889 71.811822 392.607889 71.505969 
C 392.607889 71.200117 392.602122 70.894292 392.59059 70.588657 
" style="fill:#1f78b4;opacity:0.4;"/>
   </g>
   <g id="patch_7">
    <path clip-path="url(#p0c0947a72b)" d="M 392.59059 72.423282 
C 392.59603 72.117541 392.59875 71.811758 392.59875 71.505969 
C 392.59875 71.20018 392.59603 70.894397 392.59059 70.588657 
C 392.471585 67.43464 391.739941 64.333712 390.436541 61.459146 
C 389.133141 58.58458 387.282723 55.990932 384.988684 53.82313 
C 382.694645 51.655328 380.000523 49.954515 377.056861 48.815728 
C 374.113199 47.676942 370.975865 47.121795 367.820165 47.181308 
C 364.664465 47.240821 361.550293 47.913865 358.651662 49.162831 
C 355.75303 50.411798 353.124953 52.212982 350.91428 54.465738 
C 348.703608 56.718494 346.952298 59.380067 345.758209 62.301733 
C 344.564121 65.2234 343.949916 68.349708 343.949916 71.505969 
C 343.949916 74.66223 344.564121 77.788539 345.758209 80.710205 
C 346.952298 83.631872 348.703608 86.293444 350.91428 88.546201 
C 353.124953 90.798957 355.75303 92.600141 358.651662 93.849107 
C 361.550293 95.098074 364.664465 95.771117 367.820165 95.830631 
C 370.975865 95.890144 374.113199 95.334997 377.056861 94.19621 
C 380.000523 93.057424 382.694645 91.356611 384.988684 89.188808 
C 387.282723 87.021006 389.133141 84.427359 390.436541 81.552792 
C 391.739941 78.678226 392.471585 75.577298 392.59059 72.423282 
" style="fill:#9cdaff;opacity:0.4;"/>
   </g>
   <g id="text_6">
    <!-- 922 -->
    <g style="fill:#262626;" transform="translate(307.164469 74.265344)scale(0.1 -0.1)">
     <use xlink:href="#DejaVuSans-39"/>
     <use x="63.623047" xlink:href="#DejaVuSans-32"/>
     <use x="127.246094" xlink:href="#DejaVuSans-32"/>
    </g>
   </g>
   <g id="text_7">
    <!-- 0 -->
    <g style="fill:#262626;" transform="translate(389.422069 74.265344)scale(0.1 -0.1)">
     <defs>
      <path d="M 2034 4250 
Q 1547 4250 1301 3770 
Q 1056 3291 1056 2328 
Q 1056 1369 1301 889 
Q 1547 409 2034 409 
Q 2525 409 2770 889 
Q 3016 1369 3016 2328 
Q 3016 3291 2770 3770 
Q 2525 4250 2034 4250 
z
M 2034 4750 
Q 2819 4750 3233 4129 
Q 3647 3509 3647 2328 
Q 3647 1150 3233 529 
Q 2819 -91 2034 -91 
Q 1250 -91 836 529 
Q 422 1150 422 2328 
Q 422 3509 836 4129 
Q 1250 4750 2034 4750 
z
" id="DejaVuSans-30" transform="scale(0.015625)"/>
     </defs>
     <use xlink:href="#DejaVuSans-30"/>
    </g>
   </g>
   <g id="text_8">
    <!-- 264 -->
    <g style="fill:#262626;" transform="translate(358.730583 74.265344)scale(0.1 -0.1)">
     <defs>
      <path d="M 2113 2584 
Q 1688 2584 1439 2293 
Q 1191 2003 1191 1497 
Q 1191 994 1439 701 
Q 1688 409 2113 409 
Q 2538 409 2786 701 
Q 3034 994 3034 1497 
Q 3034 2003 2786 2293 
Q 2538 2584 2113 2584 
z
M 3366 4563 
L 3366 3988 
Q 3128 4100 2886 4159 
Q 2644 4219 2406 4219 
Q 1781 4219 1451 3797 
Q 1122 3375 1075 2522 
Q 1259 2794 1537 2939 
Q 1816 3084 2150 3084 
Q 2853 3084 3261 2657 
Q 3669 2231 3669 1497 
Q 3669 778 3244 343 
Q 2819 -91 2113 -91 
Q 1303 -91 875 529 
Q 447 1150 447 2328 
Q 447 3434 972 4092 
Q 1497 4750 2381 4750 
Q 2619 4750 2861 4703 
Q 3103 4656 3366 4563 
z
" id="DejaVuSans-36" transform="scale(0.015625)"/>
     </defs>
     <use xlink:href="#DejaVuSans-32"/>
     <use x="63.623047" xlink:href="#DejaVuSans-36"/>
     <use x="127.246094" xlink:href="#DejaVuSans-34"/>
    </g>
   </g>
   <g id="text_9">
    <!-- Bioregistry -->
    <g style="fill:#262626;" transform="translate(276.133261 135.984963)scale(0.12 -0.12)">
     <use xlink:href="#DejaVuSans-42"/>
     <use x="68.603516" xlink:href="#DejaVuSans-69"/>
     <use x="96.386719" xlink:href="#DejaVuSans-6f"/>
     <use x="157.568359" xlink:href="#DejaVuSans-72"/>
     <use x="196.431641" xlink:href="#DejaVuSans-65"/>
     <use x="257.955078" xlink:href="#DejaVuSans-67"/>
     <use x="321.431641" xlink:href="#DejaVuSans-69"/>
     <use x="349.214844" xlink:href="#DejaVuSans-73"/>
     <use x="401.314453" xlink:href="#DejaVuSans-74"/>
     <use x="440.523438" xlink:href="#DejaVuSans-72"/>
     <use x="481.636719" xlink:href="#DejaVuSans-79"/>
    </g>
   </g>
   <g id="text_10">
    <!-- OLS -->
    <g style="fill:#262626;" transform="translate(368.278903 108.747836)scale(0.12 -0.12)">
     <defs>
      <path d="M 628 4666 
L 1259 4666 
L 1259 531 
L 3531 531 
L 3531 0 
L 628 0 
L 628 4666 
z
" id="DejaVuSans-4c" transform="scale(0.015625)"/>
      <path d="M 3425 4513 
L 3425 3897 
Q 3066 4069 2747 4153 
Q 2428 4238 2131 4238 
Q 1616 4238 1336 4038 
Q 1056 3838 1056 3469 
Q 1056 3159 1242 3001 
Q 1428 2844 1947 2747 
L 2328 2669 
Q 3034 2534 3370 2195 
Q 3706 1856 3706 1288 
Q 3706 609 3251 259 
Q 2797 -91 1919 -91 
Q 1588 -91 1214 -16 
Q 841 59 441 206 
L 441 856 
Q 825 641 1194 531 
Q 1563 422 1919 422 
Q 2459 422 2753 634 
Q 3047 847 3047 1241 
Q 3047 1584 2836 1778 
Q 2625 1972 2144 2069 
L 1759 2144 
Q 1053 2284 737 2584 
Q 422 2884 422 3419 
Q 422 4038 858 4394 
Q 1294 4750 2059 4750 
Q 2388 4750 2728 4690 
Q 3069 4631 3425 4513 
z
" id="DejaVuSans-53" transform="scale(0.015625)"/>
     </defs>
     <use xlink:href="#DejaVuSans-4f"/>
     <use x="78.710938" xlink:href="#DejaVuSans-4c"/>
     <use x="134.423828" xlink:href="#DejaVuSans-53"/>
    </g>
   </g>
  </g>
  <g id="axes_3">
   <g id="patch_8">
    <path clip-path="url(#pd4a09cbf27)" d="M 613.922522 91.759514 
C 611.706722 95.613753 608.873367 99.078376 605.53558 102.015058 
C 602.197792 104.951739 598.400592 107.32087 594.295582 109.027862 
C 590.190572 110.734854 585.833121 111.756682 581.397201 112.052552 
C 576.961281 112.348421 572.506723 111.914341 568.211376 110.767641 
C 563.91603 109.62094 559.837829 107.777087 556.139598 105.309698 
C 552.441367 102.842308 549.172986 99.784662 546.464947 96.258836 
C 543.756908 92.73301 541.645735 88.786561 540.215719 84.57705 
C 538.785703 80.367539 538.056131 75.951745 538.056131 71.505969 
C 538.056131 67.060193 538.785703 62.644399 540.215719 58.434889 
C 541.645735 54.225378 543.756908 50.278928 546.464947 46.753102 
C 549.172986 43.227276 552.441367 40.16963 556.139598 37.702241 
C 559.837829 35.234851 563.91603 33.390998 568.211376 32.244298 
C 572.506723 31.097598 576.961281 30.663517 581.397201 30.959387 
C 585.833121 31.255256 590.190572 32.277085 594.295582 33.984077 
C 598.400592 35.691068 602.197792 38.060199 605.53558 40.996881 
C 608.873367 43.933563 611.706722 47.398186 613.922522 51.252425 
C 611.606461 45.831579 608.377631 40.847954 604.37672 36.518702 
C 600.375809 32.189451 595.661786 28.578378 590.440053 25.842831 
C 585.218321 23.107283 579.565841 21.287578 573.728908 20.463006 
C 567.891975 19.638434 561.956616 19.821147 556.181455 21.003185 
C 550.406293 22.185223 544.876444 24.349163 539.832862 27.400717 
C 534.789279 30.452271 530.306296 34.346463 526.579251 38.913611 
C 522.852207 43.480759 519.93603 48.653551 517.957789 54.206592 
C 515.979547 59.759634 514.968397 65.611081 514.968397 71.505969 
C 514.968397 77.400857 515.979547 83.252305 517.957789 88.805346 
C 519.93603 94.358388 522.852207 99.53118 526.579251 104.098328 
C 530.306296 108.665476 534.789279 112.559668 539.832862 115.611222 
C 544.876444 118.662775 550.406293 120.826716 556.181455 122.008753 
C 561.956616 123.190791 567.891975 123.373504 573.728908 122.548932 
C 579.565841 121.72436 585.218321 119.904655 590.440053 117.169108 
C 595.661786 114.43356 600.375809 110.822488 604.37672 106.493236 
C 608.377631 102.163985 611.606461 97.18036 613.922522 91.759514 
" style="fill:#c0c0c0;opacity:0.4;"/>
   </g>
   <g id="patch_9">
    <path clip-path="url(#pd4a09cbf27)" d="M 613.922522 51.252425 
C 616.657708 57.654255 618.067938 64.544311 618.067938 71.505969 
C 618.067938 78.467627 616.657708 85.357683 613.922522 91.759514 
C 617.464864 85.597841 619.329475 78.613318 619.329475 71.505969 
C 619.329475 64.398621 617.464864 57.414098 613.922522 51.252425 
" style="fill:#b2df8a;opacity:0.4;"/>
   </g>
   <g id="patch_10">
    <path clip-path="url(#pd4a09cbf27)" d="M 613.922522 91.759514 
C 616.657708 85.357683 618.067938 78.467627 618.067938 71.505969 
C 618.067938 64.544311 616.657708 57.654255 613.922522 51.252425 
C 611.706722 47.398186 608.873367 43.933563 605.53558 40.996881 
C 602.197792 38.060199 598.400592 35.691068 594.295582 33.984077 
C 590.190572 32.277085 585.833121 31.255256 581.397201 30.959387 
C 576.961281 30.663517 572.506723 31.097598 568.211376 32.244298 
C 563.91603 33.390998 559.837829 35.234851 556.139598 37.702241 
C 552.441367 40.16963 549.172986 43.227276 546.464947 46.753102 
C 543.756908 50.278928 541.645735 54.225378 540.215719 58.434889 
C 538.785703 62.644399 538.056131 67.060193 538.056131 71.505969 
C 538.056131 75.951745 538.785703 80.367539 540.215719 84.57705 
C 541.645735 88.786561 543.756908 92.73301 546.464947 96.258836 
C 549.172986 99.784662 552.441367 102.842308 556.139598 105.309698 
C 559.837829 107.777087 563.91603 109.62094 568.211376 110.767641 
C 572.506723 111.914341 576.961281 112.348421 581.397201 112.052552 
C 585.833121 111.756682 590.190572 110.734854 594.295582 109.027862 
C 598.400592 107.32087 602.197792 104.951739 605.53558 102.015058 
C 608.873367 99.078376 611.706722 95.613753 613.922522 91.759514 
" style="fill:#ffffe7;opacity:0.4;"/>
   </g>
   <g id="text_11">
    <!-- 454 -->
    <g style="fill:#262626;" transform="translate(516.968514 74.265344)scale(0.1 -0.1)">
     <defs>
      <path d="M 691 4666 
L 3169 4666 
L 3169 4134 
L 1269 4134 
L 1269 2991 
Q 1406 3038 1543 3061 
Q 1681 3084 1819 3084 
Q 2600 3084 3056 2656 
Q 3513 2228 3513 1497 
Q 3513 744 3044 326 
Q 2575 -91 1722 -91 
Q 1428 -91 1123 -41 
Q 819 9 494 109 
L 494 744 
Q 775 591 1075 516 
Q 1375 441 1709 441 
Q 2250 441 2565 725 
Q 2881 1009 2881 1497 
Q 2881 1984 2565 2268 
Q 2250 2553 1709 2553 
Q 1456 2553 1204 2497 
Q 953 2441 691 2322 
L 691 4666 
z
" id="DejaVuSans-35" transform="scale(0.015625)"/>
     </defs>
     <use xlink:href="#DejaVuSans-34"/>
     <use x="63.623047" xlink:href="#DejaVuSans-35"/>
     <use x="127.246094" xlink:href="#DejaVuSans-34"/>
    </g>
   </g>
   <g id="text_12">
    <!-- 5 -->
    <g style="fill:#262626;" transform="translate(615.517457 74.265344)scale(0.1 -0.1)">
     <use xlink:href="#DejaVuSans-35"/>
    </g>
   </g>
   <g id="text_13">
    <!-- 732 -->
    <g style="fill:#262626;" transform="translate(568.518284 74.265344)scale(0.1 -0.1)">
     <defs>
      <path d="M 525 4666 
L 3525 4666 
L 3525 4397 
L 1831 0 
L 1172 0 
L 2766 4134 
L 525 4134 
L 525 4666 
z
" id="DejaVuSans-37" transform="scale(0.015625)"/>
     </defs>
     <use xlink:href="#DejaVuSans-37"/>
     <use x="63.623047" xlink:href="#DejaVuSans-33"/>
     <use x="127.246094" xlink:href="#DejaVuSans-32"/>
    </g>
   </g>
   <g id="text_14">
    <!-- Bioregistry -->
    <g style="fill:#262626;" transform="translate(501.618793 136.783187)scale(0.12 -0.12)">
     <use xlink:href="#DejaVuSans-42"/>
     <use x="68.603516" xlink:href="#DejaVuSans-69"/>
     <use x="96.386719" xlink:href="#DejaVuSans-6f"/>
     <use x="157.568359" xlink:href="#DejaVuSans-72"/>
     <use x="196.431641" xlink:href="#DejaVuSans-65"/>
     <use x="257.955078" xlink:href="#DejaVuSans-67"/>
     <use x="321.431641" xlink:href="#DejaVuSans-69"/>
     <use x="349.214844" xlink:href="#DejaVuSans-73"/>
     <use x="401.314453" xlink:href="#DejaVuSans-74"/>
     <use x="440.523438" xlink:href="#DejaVuSans-72"/>
     <use x="481.636719" xlink:href="#DejaVuSans-79"/>
    </g>
   </g>
   <g id="text_15">
    <!-- MIRIAM -->
    <g style="fill:#262626;" transform="translate(578.692803 125.870089)scale(0.12 -0.12)">
     <defs>
      <path d="M 628 4666 
L 1569 4666 
L 2759 1491 
L 3956 4666 
L 4897 4666 
L 4897 0 
L 4281 0 
L 4281 4097 
L 3078 897 
L 2444 897 
L 1241 4097 
L 1241 0 
L 628 0 
L 628 4666 
z
" id="DejaVuSans-4d" transform="scale(0.015625)"/>
      <path d="M 628 4666 
L 1259 4666 
L 1259 0 
L 628 0 
L 628 4666 
z
" id="DejaVuSans-49" transform="scale(0.015625)"/>
      <path d="M 2841 2188 
Q 3044 2119 3236 1894 
Q 3428 1669 3622 1275 
L 4263 0 
L 3584 0 
L 2988 1197 
Q 2756 1666 2539 1819 
Q 2322 1972 1947 1972 
L 1259 1972 
L 1259 0 
L 628 0 
L 628 4666 
L 2053 4666 
Q 2853 4666 3247 4331 
Q 3641 3997 3641 3322 
Q 3641 2881 3436 2590 
Q 3231 2300 2841 2188 
z
M 1259 4147 
L 1259 2491 
L 2053 2491 
Q 2509 2491 2742 2702 
Q 2975 2913 2975 3322 
Q 2975 3731 2742 3939 
Q 2509 4147 2053 4147 
L 1259 4147 
z
" id="DejaVuSans-52" transform="scale(0.015625)"/>
      <path d="M 2188 4044 
L 1331 1722 
L 3047 1722 
L 2188 4044 
z
M 1831 4666 
L 2547 4666 
L 4325 0 
L 3669 0 
L 3244 1197 
L 1141 1197 
L 716 0 
L 50 0 
L 1831 4666 
z
" id="DejaVuSans-41" transform="scale(0.015625)"/>
     </defs>
     <use xlink:href="#DejaVuSans-4d"/>
     <use x="86.279297" xlink:href="#DejaVuSans-49"/>
     <use x="115.771484" xlink:href="#DejaVuSans-52"/>
     <use x="185.253906" xlink:href="#DejaVuSans-49"/>
     <use x="214.746094" xlink:href="#DejaVuSans-41"/>
     <use x="283.154297" xlink:href="#DejaVuSans-4d"/>
    </g>
   </g>
  </g>
  <g id="axes_4">
   <g id="patch_11">
    <path clip-path="url(#p35595b8100)" d="M 146.263127 230.108612 
C 143.76338 228.027868 141.751803 225.422369 140.371444 222.4774 
C 138.991086 219.532431 138.275462 216.319496 138.275462 213.067077 
C 138.275462 209.814658 138.991086 206.601723 140.371444 203.656754 
C 141.751803 200.711785 143.76338 198.106286 146.263127 196.025542 
C 144.269336 190.403848 141.304351 185.17542 137.503327 180.578588 
C 133.702303 175.981756 129.123886 172.087442 123.976773 169.073163 
C 118.82966 166.058883 113.193266 163.971145 107.324516 162.905113 
C 101.455766 161.839082 95.445208 161.811204 89.566822 162.822752 
C 83.688436 163.8343 78.032919 165.869666 72.858068 168.836072 
C 67.683216 171.802477 63.068872 175.654154 59.225372 180.215531 
C 55.381872 184.776908 52.368517 189.977607 50.322664 195.580565 
C 48.276812 201.183523 47.230028 207.102293 47.230028 213.067077 
C 47.230028 219.031861 48.276812 224.95063 50.322664 230.553589 
C 52.368517 236.156547 55.381872 241.357246 59.225372 245.918623 
C 63.068872 250.48 67.683216 254.331677 72.858068 257.298082 
C 78.032919 260.264488 83.688436 262.299854 89.566822 263.311402 
C 95.445208 264.322949 101.455766 264.295072 107.324516 263.229041 
C 113.193266 262.163009 118.82966 260.075271 123.976773 257.060991 
C 129.123886 254.046712 133.702303 250.152398 137.503327 245.555566 
C 141.304351 240.958734 144.269336 235.730306 146.263127 230.108612 
" style="fill:#c0c0c0;opacity:0.4;"/>
   </g>
   <g id="patch_12">
    <path clip-path="url(#p35595b8100)" d="M 146.263127 196.025542 
C 148.203835 201.497561 149.195621 207.261103 149.195621 213.067077 
C 149.195621 218.873051 148.203835 224.636593 146.263127 230.108612 
C 149.501008 232.803765 153.440918 234.521116 157.619293 235.058605 
C 161.797669 235.596094 166.043947 234.93178 169.858515 233.143825 
C 173.673084 231.35587 176.900231 228.517259 179.160255 224.96198 
C 181.420278 221.406701 182.620923 217.279881 182.620923 213.067077 
C 182.620923 208.854273 181.420278 204.727453 179.160255 201.172174 
C 176.900231 197.616895 173.673084 194.778284 169.858515 192.990329 
C 166.043947 191.202374 161.797669 190.53806 157.619293 191.075549 
C 153.440918 191.613038 149.501008 193.330389 146.263127 196.025542 
" style="fill:#33a02c;opacity:0.4;"/>
   </g>
   <g id="patch_13">
    <path clip-path="url(#p35595b8100)" d="M 146.263127 230.108612 
C 148.203835 224.636593 149.195621 218.873051 149.195621 213.067077 
C 149.195621 207.261103 148.203835 201.497561 146.263127 196.025542 
C 143.76338 198.106286 141.751803 200.711785 140.371444 203.656754 
C 138.991086 206.601723 138.275462 209.814658 138.275462 213.067077 
C 138.275462 216.319496 138.991086 219.532431 140.371444 222.4774 
C 141.751803 225.422369 143.76338 228.027868 146.263127 230.108612 
" style="fill:#aaf6a5;opacity:0.4;"/>
   </g>
   <g id="text_16">
    <!-- 1142 -->
    <g style="fill:#262626;" transform="translate(80.027745 215.826452)scale(0.1 -0.1)">
     <defs>
      <path d="M 794 531 
L 1825 531 
L 1825 4091 
L 703 3866 
L 703 4441 
L 1819 4666 
L 2450 4666 
L 2450 531 
L 3481 531 
L 3481 0 
L 794 0 
L 794 531 
z
" id="DejaVuSans-31" transform="scale(0.015625)"/>
     </defs>
     <use xlink:href="#DejaVuSans-31"/>
     <use x="63.623047" xlink:href="#DejaVuSans-31"/>
     <use x="127.246094" xlink:href="#DejaVuSans-34"/>
     <use x="190.869141" xlink:href="#DejaVuSans-32"/>
    </g>
   </g>
   <g id="text_17">
    <!-- 186 -->
    <g style="fill:#262626;" transform="translate(156.364522 215.826452)scale(0.1 -0.1)">
     <defs>
      <path d="M 2034 2216 
Q 1584 2216 1326 1975 
Q 1069 1734 1069 1313 
Q 1069 891 1326 650 
Q 1584 409 2034 409 
Q 2484 409 2743 651 
Q 3003 894 3003 1313 
Q 3003 1734 2745 1975 
Q 2488 2216 2034 2216 
z
M 1403 2484 
Q 997 2584 770 2862 
Q 544 3141 544 3541 
Q 544 4100 942 4425 
Q 1341 4750 2034 4750 
Q 2731 4750 3128 4425 
Q 3525 4100 3525 3541 
Q 3525 3141 3298 2862 
Q 3072 2584 2669 2484 
Q 3125 2378 3379 2068 
Q 3634 1759 3634 1313 
Q 3634 634 3220 271 
Q 2806 -91 2034 -91 
Q 1263 -91 848 271 
Q 434 634 434 1313 
Q 434 1759 690 2068 
Q 947 2378 1403 2484 
z
M 1172 3481 
Q 1172 3119 1398 2916 
Q 1625 2713 2034 2713 
Q 2441 2713 2670 2916 
Q 2900 3119 2900 3481 
Q 2900 3844 2670 4047 
Q 2441 4250 2034 4250 
Q 1625 4250 1398 4047 
Q 1172 3844 1172 3481 
z
" id="DejaVuSans-38" transform="scale(0.015625)"/>
     </defs>
     <use xlink:href="#DejaVuSans-31"/>
     <use x="63.623047" xlink:href="#DejaVuSans-38"/>
     <use x="127.246094" xlink:href="#DejaVuSans-36"/>
    </g>
   </g>
   <g id="text_18">
    <!-- 37 -->
    <g style="fill:#262626;" transform="translate(137.373041 215.826452)scale(0.1 -0.1)">
     <use xlink:href="#DejaVuSans-33"/>
     <use x="63.623047" xlink:href="#DejaVuSans-37"/>
    </g>
   </g>
   <g id="text_19">
    <!-- Bioregistry -->
    <g style="fill:#262626;" transform="translate(33.313449 276.825775)scale(0.12 -0.12)">
     <use xlink:href="#DejaVuSans-42"/>
     <use x="68.603516" xlink:href="#DejaVuSans-69"/>
     <use x="96.386719" xlink:href="#DejaVuSans-6f"/>
     <use x="157.568359" xlink:href="#DejaVuSans-72"/>
     <use x="196.431641" xlink:href="#DejaVuSans-65"/>
     <use x="257.955078" xlink:href="#DejaVuSans-67"/>
     <use x="321.431641" xlink:href="#DejaVuSans-69"/>
     <use x="349.214844" xlink:href="#DejaVuSans-73"/>
     <use x="401.314453" xlink:href="#DejaVuSans-74"/>
     <use x="440.523438" xlink:href="#DejaVuSans-72"/>
     <use x="481.636719" xlink:href="#DejaVuSans-79"/>
    </g>
   </g>
   <g id="text_20">
    <!-- Wikidata -->
    <g style="fill:#262626;" transform="translate(160.448192 248.015709)scale(0.12 -0.12)">
     <defs>
      <path d="M 213 4666 
L 850 4666 
L 1831 722 
L 2809 4666 
L 3519 4666 
L 4500 722 
L 5478 4666 
L 6119 4666 
L 4947 0 
L 4153 0 
L 3169 4050 
L 2175 0 
L 1381 0 
L 213 4666 
z
" id="DejaVuSans-57" transform="scale(0.015625)"/>
      <path d="M 581 4863 
L 1159 4863 
L 1159 1991 
L 2875 3500 
L 3609 3500 
L 1753 1863 
L 3688 0 
L 2938 0 
L 1159 1709 
L 1159 0 
L 581 0 
L 581 4863 
z
" id="DejaVuSans-6b" transform="scale(0.015625)"/>
      <path d="M 2906 2969 
L 2906 4863 
L 3481 4863 
L 3481 0 
L 2906 0 
L 2906 525 
Q 2725 213 2448 61 
Q 2172 -91 1784 -91 
Q 1150 -91 751 415 
Q 353 922 353 1747 
Q 353 2572 751 3078 
Q 1150 3584 1784 3584 
Q 2172 3584 2448 3432 
Q 2725 3281 2906 2969 
z
M 947 1747 
Q 947 1113 1208 752 
Q 1469 391 1925 391 
Q 2381 391 2643 752 
Q 2906 1113 2906 1747 
Q 2906 2381 2643 2742 
Q 2381 3103 1925 3103 
Q 1469 3103 1208 2742 
Q 947 2381 947 1747 
z
" id="DejaVuSans-64" transform="scale(0.015625)"/>
      <path d="M 2194 1759 
Q 1497 1759 1228 1600 
Q 959 1441 959 1056 
Q 959 750 1161 570 
Q 1363 391 1709 391 
Q 2188 391 2477 730 
Q 2766 1069 2766 1631 
L 2766 1759 
L 2194 1759 
z
M 3341 1997 
L 3341 0 
L 2766 0 
L 2766 531 
Q 2569 213 2275 61 
Q 1981 -91 1556 -91 
Q 1019 -91 701 211 
Q 384 513 384 1019 
Q 384 1609 779 1909 
Q 1175 2209 1959 2209 
L 2766 2209 
L 2766 2266 
Q 2766 2663 2505 2880 
Q 2244 3097 1772 3097 
Q 1472 3097 1187 3025 
Q 903 2953 641 2809 
L 641 3341 
Q 956 3463 1253 3523 
Q 1550 3584 1831 3584 
Q 2591 3584 2966 3190 
Q 3341 2797 3341 1997 
z
" id="DejaVuSans-61" transform="scale(0.015625)"/>
     </defs>
     <use xlink:href="#DejaVuSans-57"/>
     <use x="96.626953" xlink:href="#DejaVuSans-69"/>
     <use x="124.410156" xlink:href="#DejaVuSans-6b"/>
     <use x="182.320312" xlink:href="#DejaVuSans-69"/>
     <use x="210.103516" xlink:href="#DejaVuSans-64"/>
     <use x="273.580078" xlink:href="#DejaVuSans-61"/>
     <use x="334.859375" xlink:href="#DejaVuSans-74"/>
     <use x="374.068359" xlink:href="#DejaVuSans-61"/>
    </g>
   </g>
  </g>
  <g id="axes_5">
   <g id="patch_14">
    <path clip-path="url(#p335be763c0)" d="M 385.861651 236.5013 
C 383.41526 239.778739 380.470671 242.652973 377.13504 245.019407 
C 373.799409 247.38584 370.113696 249.215416 366.212026 250.441552 
C 362.310356 251.667689 358.240639 252.275332 354.150975 252.242368 
C 350.06131 252.209403 346.001917 251.536237 342.120519 250.247366 
C 338.239121 248.958494 334.583379 247.069744 331.286328 244.649849 
C 327.989277 242.229953 325.091402 239.308626 322.69816 235.992178 
C 320.304917 232.675729 318.445694 229.004882 317.188149 225.113222 
C 315.930604 221.221561 315.290179 217.156874 315.290179 213.067077 
C 315.290179 208.97728 315.930604 204.912593 317.188149 201.020932 
C 318.445694 197.129272 320.304917 193.458425 322.69816 190.141976 
C 325.091402 186.825528 327.989277 183.904201 331.286328 181.484305 
C 334.583379 179.06441 338.239121 177.17566 342.120519 175.886788 
C 346.001917 174.597917 350.06131 173.924751 354.150975 173.891786 
C 358.240639 173.858822 362.310356 174.466465 366.212026 175.692602 
C 370.113696 176.918738 373.799409 178.748313 377.13504 181.114747 
C 380.470671 183.481181 383.41526 186.355415 385.861651 189.632854 
C 383.249036 184.515922 379.79901 179.871737 375.654551 175.892766 
C 371.510092 171.913795 366.729253 168.655772 361.510164 166.253719 
C 356.291074 163.851665 350.706841 162.339227 344.988887 161.779085 
C 339.270934 161.218942 333.499354 161.618939 327.913336 162.962502 
C 322.327318 164.306064 317.005109 166.57437 312.167272 169.673416 
C 307.329435 172.772463 303.043737 176.658839 299.487787 181.171486 
C 295.931838 185.684132 293.155447 190.759837 291.273674 196.188252 
C 289.391901 201.616667 288.431106 207.321752 288.431106 213.067077 
C 288.431106 218.812402 289.391901 224.517487 291.273674 229.945902 
C 293.155447 235.374317 295.931838 240.450022 299.487787 244.962668 
C 303.043737 249.475315 307.329435 253.361691 312.167272 256.460738 
C 317.005109 259.559784 322.327318 261.82809 327.913336 263.171652 
C 333.499354 264.515214 339.270934 264.915212 344.988887 264.355069 
C 350.706841 263.794926 356.291074 262.282489 361.510164 259.880435 
C 366.729253 257.478382 371.510092 254.220359 375.654551 250.241388 
C 379.79901 246.262416 383.249036 241.618232 385.861651 236.5013 
" style="fill:#c0c0c0;opacity:0.4;"/>
   </g>
   <g id="patch_15">
    <path clip-path="url(#p335be763c0)" d="M 385.861651 189.632854 
C 389.566277 196.888541 391.498105 204.920345 391.498105 213.067077 
C 391.498105 221.213809 389.566277 229.245613 385.861651 236.5013 
C 390.91294 229.734071 393.643305 221.511655 393.643305 213.067077 
C 393.643305 204.622499 390.91294 196.400083 385.861651 189.632854 
" style="fill:#fb9a99;opacity:0.4;"/>
   </g>
   <g id="patch_16">
    <path clip-path="url(#p335be763c0)" d="M 385.861651 236.5013 
C 389.566277 229.245613 391.498105 221.213809 391.498105 213.067077 
C 391.498105 204.920345 389.566277 196.888541 385.861651 189.632854 
C 383.41526 186.355415 380.470671 183.481181 377.13504 181.114747 
C 373.799409 178.748313 370.113696 176.918738 366.212026 175.692602 
C 362.310356 174.466465 358.240639 173.858822 354.150975 173.891786 
C 350.06131 173.924751 346.001917 174.597917 342.120519 175.886788 
C 338.239121 177.17566 334.583379 179.06441 331.286328 181.484305 
C 327.989277 183.904201 325.091402 186.825528 322.69816 190.141976 
C 320.304917 193.458425 318.445694 197.129272 317.188149 201.020932 
C 315.930604 204.912593 315.290179 208.97728 315.290179 213.067077 
C 315.290179 217.156874 315.930604 221.221561 317.188149 225.113222 
C 318.445694 229.004882 320.304917 232.675729 322.69816 235.992178 
C 325.091402 239.308626 327.989277 242.229953 331.286328 244.649849 
C 334.583379 247.069744 338.239121 248.958494 342.120519 250.247366 
C 346.001917 251.536237 350.06131 252.209403 354.150975 252.242368 
C 358.240639 252.275332 362.310356 251.667689 366.212026 250.441552 
C 370.113696 249.215416 373.799409 247.38584 377.13504 245.019407 
C 380.470671 242.652973 383.41526 239.778739 385.861651 236.5013 
" style="fill:#fff2f2;opacity:0.4;"/>
   </g>
   <g id="text_21">
    <!-- 511 -->
    <g style="fill:#262626;" transform="translate(292.316893 215.826452)scale(0.1 -0.1)">
     <use xlink:href="#DejaVuSans-35"/>
     <use x="63.623047" xlink:href="#DejaVuSans-31"/>
     <use x="127.246094" xlink:href="#DejaVuSans-31"/>
    </g>
   </g>
   <g id="text_22">
    <!-- 10 -->
    <g style="fill:#262626;" transform="translate(386.208205 215.826452)scale(0.1 -0.1)">
     <use xlink:href="#DejaVuSans-31"/>
     <use x="63.623047" xlink:href="#DejaVuSans-30"/>
    </g>
   </g>
   <g id="text_23">
    <!-- 676 -->
    <g style="fill:#262626;" transform="translate(343.850392 215.826452)scale(0.1 -0.1)">
     <use xlink:href="#DejaVuSans-36"/>
     <use x="63.623047" xlink:href="#DejaVuSans-37"/>
     <use x="127.246094" xlink:href="#DejaVuSans-36"/>
    </g>
   </g>
   <g id="text_24">
    <!-- Bioregistry -->
    <g style="fill:#262626;" transform="translate(275.065231 278.254205)scale(0.12 -0.12)">
     <use xlink:href="#DejaVuSans-42"/>
     <use x="68.603516" xlink:href="#DejaVuSans-69"/>
     <use x="96.386719" xlink:href="#DejaVuSans-6f"/>
     <use x="157.568359" xlink:href="#DejaVuSans-72"/>
     <use x="196.431641" xlink:href="#DejaVuSans-65"/>
     <use x="257.955078" xlink:href="#DejaVuSans-67"/>
     <use x="321.431641" xlink:href="#DejaVuSans-69"/>
     <use x="349.214844" xlink:href="#DejaVuSans-73"/>
     <use x="401.314453" xlink:href="#DejaVuSans-74"/>
     <use x="440.523438" xlink:href="#DejaVuSans-72"/>
     <use x="481.636719" xlink:href="#DejaVuSans-79"/>
    </g>
   </g>
   <g id="text_25">
    <!-- N2T -->
    <g style="fill:#262626;" transform="translate(354.466742 265.897268)scale(0.12 -0.12)">
     <defs>
      <path d="M 628 4666 
L 1478 4666 
L 3547 763 
L 3547 4666 
L 4159 4666 
L 4159 0 
L 3309 0 
L 1241 3903 
L 1241 0 
L 628 0 
L 628 4666 
z
" id="DejaVuSans-4e" transform="scale(0.015625)"/>
      <path d="M -19 4666 
L 3928 4666 
L 3928 4134 
L 2272 4134 
L 2272 0 
L 1638 0 
L 1638 4134 
L -19 4134 
L -19 4666 
z
" id="DejaVuSans-54" transform="scale(0.015625)"/>
     </defs>
     <use xlink:href="#DejaVuSans-4e"/>
     <use x="74.804688" xlink:href="#DejaVuSans-32"/>
     <use x="138.427734" xlink:href="#DejaVuSans-54"/>
    </g>
   </g>
  </g>
  <g id="axes_6">
   <g id="patch_17">
    <path clip-path="url(#p3db57af2af)" d="M 602.03157 236.815471 
C 596.221932 236.122325 590.863887 233.320869 586.979504 228.945493 
C 583.095121 224.570117 580.948159 218.917918 580.948159 213.067077 
C 580.948159 207.216236 583.095121 201.564037 586.979504 197.188661 
C 590.863887 192.813285 596.221932 190.011829 602.03157 189.318683 
C 599.394342 184.28418 595.936828 179.72395 591.801202 175.825515 
C 587.665576 171.92708 582.909314 168.744618 577.727996 166.408994 
C 572.546678 164.073369 567.012312 162.617042 561.352475 162.099898 
C 555.692638 161.582754 549.985987 162.011979 544.467184 163.369923 
C 538.948382 164.727868 533.694124 166.99566 528.920472 170.080046 
C 524.14682 173.164432 519.920113 177.022547 516.414159 181.495743 
C 512.908204 185.968938 510.171725 190.995048 508.317248 196.367395 
C 506.46277 201.739741 505.516067 207.383663 505.516067 213.067077 
C 505.516067 218.750491 506.46277 224.394413 508.317248 229.766759 
C 510.171725 235.139106 512.908204 240.165216 516.414159 244.638411 
C 519.920113 249.111607 524.14682 252.969722 528.920472 256.054108 
C 533.694124 259.138494 538.948382 261.406286 544.467184 262.764231 
C 549.985987 264.122175 555.692638 264.5514 561.352475 264.034256 
C 567.012312 263.517111 572.546678 262.060784 577.727996 259.72516 
C 582.909314 257.389536 587.665576 254.207074 591.801202 250.308639 
C 595.936828 246.410204 599.394342 241.849974 602.03157 236.815471 
" style="fill:#c0c0c0;opacity:0.4;"/>
   </g>
   <g id="patch_18">
    <path clip-path="url(#p3db57af2af)" d="M 602.03157 189.318683 
C 605.869771 196.645863 607.875047 204.795478 607.875047 213.067077 
C 607.875047 221.338676 605.869771 229.488291 602.03157 236.815471 
C 605.387612 237.215879 608.790725 236.90038 612.015959 235.889828 
C 615.241193 234.879276 618.215883 233.196439 620.743398 230.952555 
C 623.270914 228.708671 625.294309 225.954295 626.679836 222.871493 
C 628.065363 219.788692 628.781805 216.446921 628.781805 213.067077 
C 628.781805 209.687232 628.065363 206.345462 626.679836 203.262661 
C 625.294309 200.179859 623.270914 197.425483 620.743398 195.181599 
C 618.215883 192.937715 615.241193 191.254878 612.015959 190.244326 
C 608.790725 189.233774 605.387612 188.918275 602.03157 189.318683 
" style="fill:#e31a1c;opacity:0.4;"/>
   </g>
   <g id="patch_19">
    <path clip-path="url(#p3db57af2af)" d="M 602.03157 236.815471 
C 605.869771 229.488291 607.875047 221.338676 607.875047 213.067077 
C 607.875047 204.795478 605.869771 196.645863 602.03157 189.318683 
C 596.221932 190.011829 590.863887 192.813285 586.979504 197.188661 
C 583.095121 201.564037 580.948159 207.216236 580.948159 213.067077 
C 580.948159 218.917918 583.095121 224.570117 586.979504 228.945493 
C 590.863887 233.320869 596.221932 236.122325 602.03157 236.815471 
" style="fill:#ff999a;opacity:0.4;"/>
   </g>
   <g id="text_26">
    <!-- 1049 -->
    <g style="fill:#262626;" transform="translate(530.507113 215.826452)scale(0.1 -0.1)">
     <use xlink:href="#DejaVuSans-31"/>
     <use x="63.623047" xlink:href="#DejaVuSans-30"/>
     <use x="127.246094" xlink:href="#DejaVuSans-34"/>
     <use x="190.869141" xlink:href="#DejaVuSans-39"/>
    </g>
   </g>
   <g id="text_27">
    <!-- 122 -->
    <g style="fill:#262626;" transform="translate(608.784676 215.826452)scale(0.1 -0.1)">
     <use xlink:href="#DejaVuSans-31"/>
     <use x="63.623047" xlink:href="#DejaVuSans-32"/>
     <use x="127.246094" xlink:href="#DejaVuSans-32"/>
    </g>
   </g>
   <g id="text_28">
    <!-- 137 -->
    <g style="fill:#262626;" transform="translate(584.867853 215.826452)scale(0.1 -0.1)">
     <use xlink:href="#DejaVuSans-31"/>
     <use x="63.623047" xlink:href="#DejaVuSans-33"/>
     <use x="127.246094" xlink:href="#DejaVuSans-37"/>
    </g>
   </g>
   <g id="text_29">
    <!-- Bioregistry -->
    <g style="fill:#262626;" transform="translate(491.796182 277.119508)scale(0.12 -0.12)">
     <use xlink:href="#DejaVuSans-42"/>
     <use x="68.603516" xlink:href="#DejaVuSans-69"/>
     <use x="96.386719" xlink:href="#DejaVuSans-6f"/>
     <use x="157.568359" xlink:href="#DejaVuSans-72"/>
     <use x="196.431641" xlink:href="#DejaVuSans-65"/>
     <use x="257.955078" xlink:href="#DejaVuSans-67"/>
     <use x="321.431641" xlink:href="#DejaVuSans-69"/>
     <use x="349.214844" xlink:href="#DejaVuSans-73"/>
     <use x="401.314453" xlink:href="#DejaVuSans-74"/>
     <use x="440.523438" xlink:href="#DejaVuSans-72"/>
     <use x="481.636719" xlink:href="#DejaVuSans-79"/>
    </g>
   </g>
   <g id="text_30">
    <!-- GO -->
    <g style="fill:#262626;" transform="translate(604.864982 249.856841)scale(0.12 -0.12)">
     <defs>
      <path d="M 3809 666 
L 3809 1919 
L 2778 1919 
L 2778 2438 
L 4434 2438 
L 4434 434 
Q 4069 175 3628 42 
Q 3188 -91 2688 -91 
Q 1594 -91 976 548 
Q 359 1188 359 2328 
Q 359 3472 976 4111 
Q 1594 4750 2688 4750 
Q 3144 4750 3555 4637 
Q 3966 4525 4313 4306 
L 4313 3634 
Q 3963 3931 3569 4081 
Q 3175 4231 2741 4231 
Q 1884 4231 1454 3753 
Q 1025 3275 1025 2328 
Q 1025 1384 1454 906 
Q 1884 428 2741 428 
Q 3075 428 3337 486 
Q 3600 544 3809 666 
z
" id="DejaVuSans-47" transform="scale(0.015625)"/>
     </defs>
     <use xlink:href="#DejaVuSans-47"/>
     <use x="77.490234" xlink:href="#DejaVuSans-4f"/>
    </g>
   </g>
  </g>
  <g id="axes_7">
   <g id="patch_20">
    <path clip-path="url(#peecec10f32)" d="M 123.58452 391.406855 
C 117.331033 387.52077 112.170786 382.103218 108.59335 375.668181 
C 105.015914 369.233145 103.13812 361.990775 103.13812 354.628185 
C 103.13812 347.265594 105.015914 340.023225 108.59335 333.588188 
C 112.170786 327.153151 117.331033 321.735599 123.58452 317.849515 
C 116.45086 311.325559 107.570871 307.015888 98.031826 305.448181 
C 88.49278 303.880474 78.700565 305.121437 69.854146 309.019125 
C 61.007728 312.916813 53.483522 319.30538 48.202797 327.402605 
C 42.922073 335.499829 40.109525 344.961174 40.109525 354.628185 
C 40.109525 364.295195 42.922073 373.75654 48.202797 381.853764 
C 53.483522 389.950989 61.007728 396.339556 69.854146 400.237244 
C 78.700565 404.134933 88.49278 405.375895 98.031826 403.808188 
C 107.570871 402.240481 116.45086 397.93081 123.58452 391.406855 
" style="fill:#c0c0c0;opacity:0.4;"/>
   </g>
   <g id="patch_21">
    <path clip-path="url(#peecec10f32)" d="M 123.58452 317.849515 
C 128.690486 322.519081 132.768535 328.201173 135.558332 334.533058 
C 138.348129 340.864944 139.78902 347.708955 139.78902 354.628185 
C 139.78902 361.547414 138.348129 368.391426 135.558332 374.723311 
C 132.768535 381.055196 128.690486 386.737288 123.58452 391.406855 
C 130.14114 395.481315 137.669566 397.729311 145.386771 397.917033 
C 153.103976 398.104754 160.732798 396.225457 167.479769 392.474607 
C 174.226741 388.723757 179.849544 383.236065 183.763356 376.582302 
C 187.677169 369.928538 189.741426 362.347673 189.741426 354.628185 
C 189.741426 346.908697 187.677169 339.327831 183.763356 332.674067 
C 179.849544 326.020304 174.226741 320.532612 167.479769 316.781762 
C 160.732798 313.030912 153.103976 311.151616 145.386771 311.339337 
C 137.669566 311.527058 130.14114 313.775055 123.58452 317.849515 
" style="fill:#fdbf6f;opacity:0.4;"/>
   </g>
   <g id="patch_22">
    <path clip-path="url(#peecec10f32)" d="M 123.58452 391.406855 
C 128.690486 386.737288 132.768535 381.055196 135.558332 374.723311 
C 138.348129 368.391426 139.78902 361.547414 139.78902 354.628185 
C 139.78902 347.708955 138.348129 340.864944 135.558332 334.533058 
C 132.768535 328.201173 128.690486 322.519081 123.58452 317.849515 
C 117.331033 321.735599 112.170786 327.153151 108.59335 333.588188 
C 105.015914 340.023225 103.13812 347.265594 103.13812 354.628185 
C 103.13812 361.990775 105.015914 369.233145 108.59335 375.668181 
C 112.170786 382.103218 117.331033 387.52077 123.58452 391.406855 
" style="fill:#ffffd4;opacity:0.4;"/>
   </g>
   <g id="text_31">
    <!-- 900 -->
    <g style="fill:#262626;" transform="translate(62.080072 357.38756)scale(0.1 -0.1)">
     <use xlink:href="#DejaVuSans-39"/>
     <use x="63.623047" xlink:href="#DejaVuSans-30"/>
     <use x="127.246094" xlink:href="#DejaVuSans-30"/>
    </g>
   </g>
   <g id="text_32">
    <!-- 609 -->
    <g style="fill:#262626;" transform="translate(155.221473 357.38756)scale(0.1 -0.1)">
     <use xlink:href="#DejaVuSans-36"/>
     <use x="63.623047" xlink:href="#DejaVuSans-30"/>
     <use x="127.246094" xlink:href="#DejaVuSans-39"/>
    </g>
   </g>
   <g id="text_33">
    <!-- 287 -->
    <g style="fill:#262626;" transform="translate(111.91982 357.38756)scale(0.1 -0.1)">
     <use xlink:href="#DejaVuSans-32"/>
     <use x="63.623047" xlink:href="#DejaVuSans-38"/>
     <use x="127.246094" xlink:href="#DejaVuSans-37"/>
    </g>
   </g>
   <g id="text_34">
    <!-- Bioregistry -->
    <g style="fill:#262626;" transform="translate(25.049898 418.243127)scale(0.12 -0.12)">
     <use xlink:href="#DejaVuSans-42"/>
     <use x="68.603516" xlink:href="#DejaVuSans-69"/>
     <use x="96.386719" xlink:href="#DejaVuSans-6f"/>
     <use x="157.568359" xlink:href="#DejaVuSans-72"/>
     <use x="196.431641" xlink:href="#DejaVuSans-65"/>
     <use x="257.955078" xlink:href="#DejaVuSans-67"/>
     <use x="321.431641" xlink:href="#DejaVuSans-69"/>
     <use x="349.214844" xlink:href="#DejaVuSans-73"/>
     <use x="401.314453" xlink:href="#DejaVuSans-74"/>
     <use x="440.523438" xlink:href="#DejaVuSans-72"/>
     <use x="481.636719" xlink:href="#DejaVuSans-79"/>
    </g>
   </g>
   <g id="text_35">
    <!-- BioPortal -->
    <g style="fill:#262626;" transform="translate(146.439773 411.705033)scale(0.12 -0.12)">
     <defs>
      <path d="M 1259 4147 
L 1259 2394 
L 2053 2394 
Q 2494 2394 2734 2622 
Q 2975 2850 2975 3272 
Q 2975 3691 2734 3919 
Q 2494 4147 2053 4147 
L 1259 4147 
z
M 628 4666 
L 2053 4666 
Q 2838 4666 3239 4311 
Q 3641 3956 3641 3272 
Q 3641 2581 3239 2228 
Q 2838 1875 2053 1875 
L 1259 1875 
L 1259 0 
L 628 0 
L 628 4666 
z
" id="DejaVuSans-50" transform="scale(0.015625)"/>
      <path d="M 603 4863 
L 1178 4863 
L 1178 0 
L 603 0 
L 603 4863 
z
" id="DejaVuSans-6c" transform="scale(0.015625)"/>
     </defs>
     <use xlink:href="#DejaVuSans-42"/>
     <use x="68.603516" xlink:href="#DejaVuSans-69"/>
     <use x="96.386719" xlink:href="#DejaVuSans-6f"/>
     <use x="157.568359" xlink:href="#DejaVuSans-50"/>
     <use x="214.246094" xlink:href="#DejaVuSans-6f"/>
     <use x="275.427734" xlink:href="#DejaVuSans-72"/>
     <use x="316.541016" xlink:href="#DejaVuSans-74"/>
     <use x="355.75" xlink:href="#DejaVuSans-61"/>
     <use x="417.029297" xlink:href="#DejaVuSans-6c"/>
    </g>
   </g>
  </g>
  <g id="axes_8">
   <g id="patch_23">
    <path clip-path="url(#p0df2e44563)" d="M 359.561774 399.858116 
C 352.970843 400.996272 346.210095 400.680142 339.75413 398.931918 
C 333.298166 397.183694 327.301674 394.045264 322.185606 389.736945 
C 317.069539 385.428626 312.956478 380.053648 310.135162 373.989331 
C 307.313845 367.925015 305.851871 361.316665 305.851871 354.628185 
C 305.851871 347.939705 307.313845 341.331355 310.135162 335.267038 
C 312.956478 329.202722 317.069539 323.827743 322.185606 319.519424 
C 327.301674 315.211105 333.298166 312.072675 339.75413 310.324451 
C 346.210095 308.576227 352.970843 308.260097 359.561774 309.398254 
C 351.762794 305.267581 343.02642 303.223444 334.204395 303.465134 
C 325.38237 303.706824 316.77102 306.226223 309.209898 310.777704 
C 301.648776 315.329186 295.391857 321.759868 291.049151 329.442801 
C 286.706445 337.125733 284.423821 345.802849 284.423821 354.628185 
C 284.423821 363.45352 286.706445 372.130636 291.049151 379.813569 
C 295.391857 387.496501 301.648776 393.927184 309.209898 398.478665 
C 316.77102 403.030147 325.38237 405.549545 334.204395 405.791235 
C 343.02642 406.032925 351.762794 403.988789 359.561774 399.858116 
" style="fill:#c0c0c0;opacity:0.4;"/>
   </g>
   <g id="patch_24">
    <path clip-path="url(#p0df2e44563)" d="M 359.561774 309.398254 
C 367.780817 313.751411 374.659918 320.26364 379.456549 328.232014 
C 384.25318 336.200388 386.788316 345.327505 386.788316 354.628185 
C 386.788316 363.928865 384.25318 373.055981 379.456549 381.024355 
C 374.659918 388.992729 367.780817 395.504959 359.561774 399.858116 
C 370.220359 398.017535 379.892752 392.467307 386.859991 384.193809 
C 393.827231 375.920311 397.650591 365.444524 397.650591 354.628185 
C 397.650591 343.811846 393.827231 333.336058 386.859991 325.06256 
C 379.892752 316.789062 370.220359 311.238834 359.561774 309.398254 
" style="fill:#ff7f00;opacity:0.4;"/>
   </g>
   <g id="patch_25">
    <path clip-path="url(#p0df2e44563)" d="M 359.561774 399.858116 
C 367.780817 395.504959 374.659918 388.992729 379.456549 381.024355 
C 384.25318 373.055981 386.788316 363.928865 386.788316 354.628185 
C 386.788316 345.327505 384.25318 336.200388 379.456549 328.232014 
C 374.659918 320.26364 367.780817 313.751411 359.561774 309.398254 
C 352.970843 308.260097 346.210095 308.576227 339.75413 310.324451 
C 333.298166 312.072675 327.301674 315.211105 322.185606 319.519424 
C 317.069539 323.827743 312.956478 329.202722 310.135162 335.267038 
C 307.313845 341.331355 305.851871 347.939705 305.851871 354.628185 
C 305.851871 361.316665 307.313845 367.925015 310.135162 373.989331 
C 312.956478 380.053648 317.069539 385.428626 322.185606 389.736945 
C 327.301674 394.045264 333.298166 397.183694 339.75413 398.931918 
C 346.210095 400.680142 352.970843 400.996272 359.561774 399.858116 
" style="fill:#ffdf86;opacity:0.4;"/>
   </g>
   <g id="text_36">
    <!-- 353 -->
    <g style="fill:#262626;" transform="translate(285.594096 357.38756)scale(0.1 -0.1)">
     <use xlink:href="#DejaVuSans-33"/>
     <use x="63.623047" xlink:href="#DejaVuSans-35"/>
     <use x="127.246094" xlink:href="#DejaVuSans-33"/>
    </g>
   </g>
   <g id="text_37">
    <!-- 121 -->
    <g style="fill:#262626;" transform="translate(382.675703 357.38756)scale(0.1 -0.1)">
     <use xlink:href="#DejaVuSans-31"/>
     <use x="63.623047" xlink:href="#DejaVuSans-32"/>
     <use x="127.246094" xlink:href="#DejaVuSans-31"/>
    </g>
   </g>
   <g id="text_38">
    <!-- 832 -->
    <g style="fill:#262626;" transform="translate(336.776344 357.38756)scale(0.1 -0.1)">
     <use xlink:href="#DejaVuSans-38"/>
     <use x="63.623047" xlink:href="#DejaVuSans-33"/>
     <use x="127.246094" xlink:href="#DejaVuSans-32"/>
    </g>
   </g>
   <g id="text_39">
    <!-- Bioregistry -->
    <g style="fill:#262626;" transform="translate(270.706693 419.782637)scale(0.12 -0.12)">
     <use xlink:href="#DejaVuSans-42"/>
     <use x="68.603516" xlink:href="#DejaVuSans-69"/>
     <use x="96.386719" xlink:href="#DejaVuSans-6f"/>
     <use x="157.568359" xlink:href="#DejaVuSans-72"/>
     <use x="196.431641" xlink:href="#DejaVuSans-65"/>
     <use x="257.955078" xlink:href="#DejaVuSans-67"/>
     <use x="321.431641" xlink:href="#DejaVuSans-69"/>
     <use x="349.214844" xlink:href="#DejaVuSans-73"/>
     <use x="401.314453" xlink:href="#DejaVuSans-74"/>
     <use x="440.523438" xlink:href="#DejaVuSans-72"/>
     <use x="481.636719" xlink:href="#DejaVuSans-79"/>
    </g>
   </g>
   <g id="text_40">
    <!-- Prefix Commons -->
    <g style="fill:#262626;" transform="translate(351.751231 414.49975)scale(0.12 -0.12)">
     <defs>
      <path d="M 2375 4863 
L 2375 4384 
L 1825 4384 
Q 1516 4384 1395 4259 
Q 1275 4134 1275 3809 
L 1275 3500 
L 2222 3500 
L 2222 3053 
L 1275 3053 
L 1275 0 
L 697 0 
L 697 3053 
L 147 3053 
L 147 3500 
L 697 3500 
L 697 3744 
Q 697 4328 969 4595 
Q 1241 4863 1831 4863 
L 2375 4863 
z
" id="DejaVuSans-66" transform="scale(0.015625)"/>
      <path d="M 3513 3500 
L 2247 1797 
L 3578 0 
L 2900 0 
L 1881 1375 
L 863 0 
L 184 0 
L 1544 1831 
L 300 3500 
L 978 3500 
L 1906 2253 
L 2834 3500 
L 3513 3500 
z
" id="DejaVuSans-78" transform="scale(0.015625)"/>
      <path id="DejaVuSans-20" transform="scale(0.015625)"/>
      <path d="M 4122 4306 
L 4122 3641 
Q 3803 3938 3442 4084 
Q 3081 4231 2675 4231 
Q 1875 4231 1450 3742 
Q 1025 3253 1025 2328 
Q 1025 1406 1450 917 
Q 1875 428 2675 428 
Q 3081 428 3442 575 
Q 3803 722 4122 1019 
L 4122 359 
Q 3791 134 3420 21 
Q 3050 -91 2638 -91 
Q 1578 -91 968 557 
Q 359 1206 359 2328 
Q 359 3453 968 4101 
Q 1578 4750 2638 4750 
Q 3056 4750 3426 4639 
Q 3797 4528 4122 4306 
z
" id="DejaVuSans-43" transform="scale(0.015625)"/>
      <path d="M 3328 2828 
Q 3544 3216 3844 3400 
Q 4144 3584 4550 3584 
Q 5097 3584 5394 3201 
Q 5691 2819 5691 2113 
L 5691 0 
L 5113 0 
L 5113 2094 
Q 5113 2597 4934 2840 
Q 4756 3084 4391 3084 
Q 3944 3084 3684 2787 
Q 3425 2491 3425 1978 
L 3425 0 
L 2847 0 
L 2847 2094 
Q 2847 2600 2669 2842 
Q 2491 3084 2119 3084 
Q 1678 3084 1418 2786 
Q 1159 2488 1159 1978 
L 1159 0 
L 581 0 
L 581 3500 
L 1159 3500 
L 1159 2956 
Q 1356 3278 1631 3431 
Q 1906 3584 2284 3584 
Q 2666 3584 2933 3390 
Q 3200 3197 3328 2828 
z
" id="DejaVuSans-6d" transform="scale(0.015625)"/>
      <path d="M 3513 2113 
L 3513 0 
L 2938 0 
L 2938 2094 
Q 2938 2591 2744 2837 
Q 2550 3084 2163 3084 
Q 1697 3084 1428 2787 
Q 1159 2491 1159 1978 
L 1159 0 
L 581 0 
L 581 3500 
L 1159 3500 
L 1159 2956 
Q 1366 3272 1645 3428 
Q 1925 3584 2291 3584 
Q 2894 3584 3203 3211 
Q 3513 2838 3513 2113 
z
" id="DejaVuSans-6e" transform="scale(0.015625)"/>
     </defs>
     <use xlink:href="#DejaVuSans-50"/>
     <use x="58.552734" xlink:href="#DejaVuSans-72"/>
     <use x="97.416016" xlink:href="#DejaVuSans-65"/>
     <use x="158.939453" xlink:href="#DejaVuSans-66"/>
     <use x="194.144531" xlink:href="#DejaVuSans-69"/>
     <use x="221.927734" xlink:href="#DejaVuSans-78"/>
     <use x="281.107422" xlink:href="#DejaVuSans-20"/>
     <use x="312.894531" xlink:href="#DejaVuSans-43"/>
     <use x="382.71875" xlink:href="#DejaVuSans-6f"/>
     <use x="443.900391" xlink:href="#DejaVuSans-6d"/>
     <use x="541.3125" xlink:href="#DejaVuSans-6d"/>
     <use x="638.724609" xlink:href="#DejaVuSans-6f"/>
     <use x="699.90625" xlink:href="#DejaVuSans-6e"/>
     <use x="763.285156" xlink:href="#DejaVuSans-73"/>
    </g>
   </g>
  </g>
  <g id="axes_9">
   <g id="patch_26">
    <path clip-path="url(#pe3e3f748d3)" d="M 609.729316 369.463672 
C 605.906428 369.299176 602.29127 367.66323 599.644376 364.899992 
C 596.997481 362.136755 595.518461 358.45461 595.518461 354.628185 
C 595.518461 350.801759 596.997481 347.119615 599.644376 344.356377 
C 602.29127 341.59314 605.906428 339.957193 609.729316 339.792697 
C 607.963641 333.933396 605.166029 328.436093 601.468386 323.559983 
C 597.770742 318.683874 593.23211 314.506817 588.066485 311.225761 
C 582.90086 307.944705 577.190724 305.61204 571.205309 304.33775 
C 565.219894 303.06346 559.054771 302.867893 553.000626 303.760269 
C 546.946481 304.652646 541.099982 306.618717 535.736792 309.565783 
C 530.373601 312.512848 525.579355 316.393851 521.580101 321.025803 
C 517.580848 325.657756 514.440445 330.966696 512.306961 336.702309 
C 510.173478 342.437922 509.08098 348.508625 509.08098 354.628185 
C 509.08098 360.747744 510.173478 366.818447 512.306961 372.55406 
C 514.440445 378.289673 517.580848 383.598614 521.580101 388.230566 
C 525.579355 392.862518 530.373601 396.743521 535.736792 399.690587 
C 541.099982 402.637652 546.946481 404.603723 553.000626 405.4961 
C 559.054771 406.388476 565.219894 406.192909 571.205309 404.918619 
C 577.190724 403.644329 582.90086 401.311664 588.066485 398.030608 
C 593.23211 394.749552 597.770742 390.572496 601.468386 385.696386 
C 605.166029 380.820276 607.963641 375.322973 609.729316 369.463672 
" style="fill:#c0c0c0;opacity:0.4;"/>
   </g>
   <g id="patch_27">
    <path clip-path="url(#pe3e3f748d3)" d="M 609.729316 339.792697 
C 611.179299 344.604388 611.916056 349.602767 611.916056 354.628185 
C 611.916056 359.653603 611.179299 364.651981 609.729316 369.463672 
C 611.731182 369.549811 613.729927 369.229875 615.604884 368.523179 
C 617.479842 367.816482 619.192507 366.737539 620.639484 365.351485 
C 622.086461 363.965432 623.238033 362.300733 624.02468 360.45789 
C 624.811326 358.615046 625.216892 356.631903 625.216892 354.628185 
C 625.216892 352.624467 624.811326 350.641323 624.02468 348.79848 
C 623.238033 346.955636 622.086461 345.290938 620.639484 343.904884 
C 619.192507 342.518831 617.479842 341.439887 615.604884 340.733191 
C 613.729927 340.026494 611.731182 339.706558 609.729316 339.792697 
" style="fill:#cab2d6;opacity:0.4;"/>
   </g>
   <g id="patch_28">
    <path clip-path="url(#pe3e3f748d3)" d="M 609.729316 369.463672 
C 611.179299 364.651981 611.916056 359.653603 611.916056 354.628185 
C 611.916056 349.602767 611.179299 344.604388 609.729316 339.792697 
C 605.906428 339.957193 602.29127 341.59314 599.644376 344.356377 
C 596.997481 347.119615 595.518461 350.801759 595.518461 354.628185 
C 595.518461 358.45461 596.997481 362.136755 599.644376 364.899992 
C 602.29127 367.66323 605.906428 369.299176 609.729316 369.463672 
" style="fill:#ffffff;opacity:0.4;"/>
   </g>
   <g id="text_41">
    <!-- 1134 -->
    <g style="fill:#262626;" transform="translate(539.574721 357.38756)scale(0.1 -0.1)">
     <use xlink:href="#DejaVuSans-31"/>
     <use x="63.623047" xlink:href="#DejaVuSans-31"/>
     <use x="127.246094" xlink:href="#DejaVuSans-33"/>
     <use x="190.869141" xlink:href="#DejaVuSans-34"/>
    </g>
   </g>
   <g id="text_42">
    <!-- 46 -->
    <g style="fill:#262626;" transform="translate(612.203974 357.38756)scale(0.1 -0.1)">
     <use xlink:href="#DejaVuSans-34"/>
     <use x="63.623047" xlink:href="#DejaVuSans-36"/>
    </g>
   </g>
   <g id="text_43">
    <!-- 53 -->
    <g style="fill:#262626;" transform="translate(597.354758 357.38756)scale(0.1 -0.1)">
     <use xlink:href="#DejaVuSans-35"/>
     <use x="63.623047" xlink:href="#DejaVuSans-33"/>
    </g>
   </g>
   <g id="text_44">
    <!-- Bioregistry -->
    <g style="fill:#262626;" transform="translate(495.599143 418.477185)scale(0.12 -0.12)">
     <use xlink:href="#DejaVuSans-42"/>
     <use x="68.603516" xlink:href="#DejaVuSans-69"/>
     <use x="96.386719" xlink:href="#DejaVuSans-6f"/>
     <use x="157.568359" xlink:href="#DejaVuSans-72"/>
     <use x="196.431641" xlink:href="#DejaVuSans-65"/>
     <use x="257.955078" xlink:href="#DejaVuSans-67"/>
     <use x="321.431641" xlink:href="#DejaVuSans-69"/>
     <use x="349.214844" xlink:href="#DejaVuSans-73"/>
     <use x="401.314453" xlink:href="#DejaVuSans-74"/>
     <use x="440.523438" xlink:href="#DejaVuSans-72"/>
     <use x="481.636719" xlink:href="#DejaVuSans-79"/>
    </g>
   </g>
   <g id="text_45">
    <!-- Biolink -->
    <g style="fill:#262626;" transform="translate(610.367676 381.908863)scale(0.12 -0.12)">
     <use xlink:href="#DejaVuSans-42"/>
     <use x="68.603516" xlink:href="#DejaVuSans-69"/>
     <use x="96.386719" xlink:href="#DejaVuSans-6f"/>
     <use x="157.568359" xlink:href="#DejaVuSans-6c"/>
     <use x="185.351562" xlink:href="#DejaVuSans-69"/>
     <use x="213.134766" xlink:href="#DejaVuSans-6e"/>
     <use x="276.513672" xlink:href="#DejaVuSans-6b"/>
    </g>
   </g>
  </g>
  <g id="axes_10">
   <g id="patch_29">
    <path clip-path="url(#pecdcdd4fd7)" d="M 156.334582 512.857044 
C 152.002037 512.727166 147.886391 510.912997 144.867711 507.802469 
C 141.849031 504.691941 140.158997 500.523783 140.158997 496.189292 
C 140.158997 491.854801 141.849031 487.686643 144.867711 484.576115 
C 147.886391 481.465587 152.002037 479.651418 156.334582 479.52154 
C 154.377187 473.813282 151.429475 468.494196 147.626809 463.808544 
C 143.824143 459.122892 139.225637 455.143516 134.042465 452.053155 
C 128.859293 448.962795 123.172029 446.809491 117.241844 445.692129 
C 111.311658 444.574766 105.230738 444.510714 99.278332 445.502915 
C 93.325926 446.495116 87.594566 448.528145 82.347448 451.508641 
C 77.100331 454.489137 72.419024 458.370767 68.518503 462.97528 
C 64.617981 467.579792 61.558881 472.835608 59.481682 478.501368 
C 57.404483 484.167129 56.341475 490.154758 56.341475 496.189292 
C 56.341475 502.223826 57.404483 508.211456 59.481682 513.877216 
C 61.558881 519.542977 64.617981 524.798792 68.518503 529.403305 
C 72.419024 534.007817 77.100331 537.889448 82.347448 540.869944 
C 87.594566 543.85044 93.325926 545.883469 99.278332 546.87567 
C 105.230738 547.86787 111.311658 547.803819 117.241844 546.686456 
C 123.172029 545.569094 128.859293 543.41579 134.042465 540.325429 
C 139.225637 537.235069 143.824143 533.255692 147.626809 528.57004 
C 151.429475 523.884389 154.377187 518.565302 156.334582 512.857044 
" style="fill:#c0c0c0;opacity:0.4;"/>
   </g>
   <g id="patch_30">
    <path clip-path="url(#pecdcdd4fd7)" d="M 156.334582 479.52154 
C 158.174091 484.886014 159.112913 490.518193 159.112913 496.189292 
C 159.112913 501.860392 158.174091 507.492571 156.334582 512.857044 
C 158.565403 512.923919 160.787114 512.542256 162.867724 511.73473 
C 164.948334 510.927205 166.845807 509.710132 168.447413 508.155818 
C 170.04902 506.601504 171.322402 504.741352 172.191908 502.685873 
C 173.061413 500.630393 173.509476 498.421116 173.509476 496.189292 
C 173.509476 493.957469 173.061413 491.748191 172.191908 489.692712 
C 171.322402 487.637233 170.04902 485.777081 168.447413 484.222767 
C 166.845807 482.668453 164.948334 481.45138 162.867724 480.643854 
C 160.787114 479.836329 158.565403 479.454666 156.334582 479.52154 
" style="fill:#6a3d9a;opacity:0.4;"/>
   </g>
   <g id="patch_31">
    <path clip-path="url(#pecdcdd4fd7)" d="M 156.334582 512.857044 
C 158.174091 507.492571 159.112913 501.860392 159.112913 496.189292 
C 159.112913 490.518193 158.174091 484.886014 156.334582 479.52154 
C 152.002037 479.651418 147.886391 481.465587 144.867711 484.576115 
C 141.849031 487.686643 140.158997 491.854801 140.158997 496.189292 
C 140.158997 500.523783 141.849031 504.691941 144.867711 507.802469 
C 147.886391 510.912997 152.002037 512.727166 156.334582 512.857044 
" style="fill:#d1b1f2;opacity:0.4;"/>
   </g>
   <g id="text_46">
    <!-- 1118 -->
    <g style="fill:#262626;" transform="translate(85.525236 498.948667)scale(0.1 -0.1)">
     <use xlink:href="#DejaVuSans-31"/>
     <use x="63.623047" xlink:href="#DejaVuSans-31"/>
     <use x="127.246094" xlink:href="#DejaVuSans-31"/>
     <use x="190.869141" xlink:href="#DejaVuSans-38"/>
    </g>
   </g>
   <g id="text_47">
    <!-- 56 -->
    <g style="fill:#262626;" transform="translate(159.948695 498.948667)scale(0.1 -0.1)">
     <use xlink:href="#DejaVuSans-35"/>
     <use x="63.623047" xlink:href="#DejaVuSans-36"/>
    </g>
   </g>
   <g id="text_48">
    <!-- 69 -->
    <g style="fill:#262626;" transform="translate(143.273455 498.948667)scale(0.1 -0.1)">
     <use xlink:href="#DejaVuSans-36"/>
     <use x="63.623047" xlink:href="#DejaVuSans-39"/>
    </g>
   </g>
   <g id="text_49">
    <!-- Bioregistry -->
    <g style="fill:#262626;" transform="translate(42.827819 560.096184)scale(0.12 -0.12)">
     <use xlink:href="#DejaVuSans-42"/>
     <use x="68.603516" xlink:href="#DejaVuSans-69"/>
     <use x="96.386719" xlink:href="#DejaVuSans-6f"/>
     <use x="157.568359" xlink:href="#DejaVuSans-72"/>
     <use x="196.431641" xlink:href="#DejaVuSans-65"/>
     <use x="257.955078" xlink:href="#DejaVuSans-67"/>
     <use x="321.431641" xlink:href="#DejaVuSans-69"/>
     <use x="349.214844" xlink:href="#DejaVuSans-73"/>
     <use x="401.314453" xlink:href="#DejaVuSans-74"/>
     <use x="440.523438" xlink:href="#DejaVuSans-72"/>
     <use x="481.636719" xlink:href="#DejaVuSans-79"/>
    </g>
   </g>
   <g id="text_50">
    <!-- NCBI -->
    <g style="fill:#262626;" transform="translate(156.834236 525.385705)scale(0.12 -0.12)">
     <use xlink:href="#DejaVuSans-4e"/>
     <use x="74.804688" xlink:href="#DejaVuSans-43"/>
     <use x="144.628906" xlink:href="#DejaVuSans-42"/>
     <use x="213.232422" xlink:href="#DejaVuSans-49"/>
    </g>
   </g>
  </g>
  <g id="axes_11">
   <g id="patch_32">
    <path clip-path="url(#p398b4cea2b)" d="M 379.010587 516.0456 
C 374.189875 515.417699 369.759003 513.055234 366.55112 509.402426 
C 363.343237 505.749618 361.57285 501.050724 361.57285 496.189292 
C 361.57285 491.32786 363.343237 486.628967 366.55112 482.976159 
C 369.759003 479.32335 374.189875 476.960886 379.010587 476.332985 
C 376.73482 470.914332 373.544337 465.927036 369.578779 461.589379 
C 365.613221 457.251723 360.931298 453.627926 355.737929 450.876594 
C 350.544559 448.125262 344.916631 446.28713 339.100467 445.442647 
C 333.284303 444.598164 327.366013 444.759835 321.604626 445.920582 
C 315.843238 447.081329 310.324054 449.223968 305.288634 452.254721 
C 300.253214 455.285473 295.776109 459.159468 292.053272 463.707149 
C 288.330435 468.25483 285.416984 473.408867 283.440434 478.943681 
C 281.463883 484.478495 280.453497 490.31214 280.453497 496.189292 
C 280.453497 502.066444 281.463883 507.90009 283.440434 513.434904 
C 285.416984 518.969717 288.330435 524.123755 292.053272 528.671436 
C 295.776109 533.219117 300.253214 537.093112 305.288634 540.123864 
C 310.324054 543.154616 315.843238 545.297255 321.604626 546.458003 
C 327.366013 547.61875 333.284303 547.78042 339.100467 546.935938 
C 344.916631 546.091455 350.544559 544.253322 355.737929 541.501991 
C 360.931298 538.750659 365.613221 535.126862 369.578779 530.789205 
C 373.544337 526.451549 376.73482 521.464253 379.010587 516.0456 
" style="fill:#c0c0c0;opacity:0.4;"/>
   </g>
   <g id="patch_33">
    <path clip-path="url(#p398b4cea2b)" d="M 379.010587 476.332985 
C 381.650962 482.61978 383.011039 489.370541 383.011039 496.189292 
C 383.011039 503.008044 381.650962 509.758805 379.010587 516.0456 
C 381.834638 516.413434 384.704937 516.174598 387.429357 515.345078 
C 390.153777 514.515558 392.670142 513.114285 394.810016 511.235055 
C 396.949891 509.355825 398.664439 507.041525 399.838896 504.447066 
C 401.013353 501.852607 401.620915 499.037198 401.620915 496.189292 
C 401.620915 493.341387 401.013353 490.525978 399.838896 487.931519 
C 398.664439 485.337059 396.949891 483.02276 394.810016 481.14353 
C 392.670142 479.2643 390.153777 477.863027 387.429357 477.033507 
C 384.704937 476.203987 381.834638 475.965151 379.010587 476.332985 
" style="fill:#ffff99;opacity:0.4;"/>
   </g>
   <g id="patch_34">
    <path clip-path="url(#p398b4cea2b)" d="M 379.010587 516.0456 
C 381.650962 509.758805 383.011039 503.008044 383.011039 496.189292 
C 383.011039 489.370541 381.650962 482.61978 379.010587 476.332985 
C 374.189875 476.960886 369.759003 479.32335 366.55112 482.976159 
C 363.343237 486.628967 361.57285 491.32786 361.57285 496.189292 
C 361.57285 501.050724 363.343237 505.749618 366.55112 509.402426 
C 369.759003 513.055234 374.189875 515.417699 379.010587 516.0456 
" style="fill:#fffff2;opacity:0.4;"/>
   </g>
   <g id="text_51">
    <!-- 1096 -->
    <g style="fill:#262626;" transform="translate(308.288174 498.948667)scale(0.1 -0.1)">
     <use xlink:href="#DejaVuSans-31"/>
     <use x="63.623047" xlink:href="#DejaVuSans-30"/>
     <use x="127.246094" xlink:href="#DejaVuSans-39"/>
     <use x="190.869141" xlink:href="#DejaVuSans-36"/>
    </g>
   </g>
   <g id="text_52">
    <!-- 90 -->
    <g style="fill:#262626;" transform="translate(385.953477 498.948667)scale(0.1 -0.1)">
     <use xlink:href="#DejaVuSans-39"/>
     <use x="63.623047" xlink:href="#DejaVuSans-30"/>
    </g>
   </g>
   <g id="text_53">
    <!-- 91 -->
    <g style="fill:#262626;" transform="translate(365.929445 498.948667)scale(0.1 -0.1)">
     <use xlink:href="#DejaVuSans-39"/>
     <use x="63.623047" xlink:href="#DejaVuSans-31"/>
    </g>
   </g>
   <g id="text_54">
    <!-- Bioregistry -->
    <g style="fill:#262626;" transform="translate(266.832893 560.151329)scale(0.12 -0.12)">
     <use xlink:href="#DejaVuSans-42"/>
     <use x="68.603516" xlink:href="#DejaVuSans-69"/>
     <use x="96.386719" xlink:href="#DejaVuSans-6f"/>
     <use x="157.568359" xlink:href="#DejaVuSans-72"/>
     <use x="196.431641" xlink:href="#DejaVuSans-65"/>
     <use x="257.955078" xlink:href="#DejaVuSans-67"/>
     <use x="321.431641" xlink:href="#DejaVuSans-69"/>
     <use x="349.214844" xlink:href="#DejaVuSans-73"/>
     <use x="401.314453" xlink:href="#DejaVuSans-74"/>
     <use x="440.523438" xlink:href="#DejaVuSans-72"/>
     <use x="481.636719" xlink:href="#DejaVuSans-79"/>
    </g>
   </g>
   <g id="text_55">
    <!-- UniProt -->
    <g style="fill:#262626;" transform="translate(381.596883 528.89659)scale(0.12 -0.12)">
     <defs>
      <path d="M 556 4666 
L 1191 4666 
L 1191 1831 
Q 1191 1081 1462 751 
Q 1734 422 2344 422 
Q 2950 422 3222 751 
Q 3494 1081 3494 1831 
L 3494 4666 
L 4128 4666 
L 4128 1753 
Q 4128 841 3676 375 
Q 3225 -91 2344 -91 
Q 1459 -91 1007 375 
Q 556 841 556 1753 
L 556 4666 
z
" id="DejaVuSans-55" transform="scale(0.015625)"/>
     </defs>
     <use xlink:href="#DejaVuSans-55"/>
     <use x="73.193359" xlink:href="#DejaVuSans-6e"/>
     <use x="136.572266" xlink:href="#DejaVuSans-69"/>
     <use x="164.355469" xlink:href="#DejaVuSans-50"/>
     <use x="222.908203" xlink:href="#DejaVuSans-72"/>
     <use x="261.771484" xlink:href="#DejaVuSans-6f"/>
     <use x="322.953125" xlink:href="#DejaVuSans-74"/>
    </g>
   </g>
  </g>
  <g id="axes_12">
   <g id="patch_35">
    <path clip-path="url(#p800a3b42c0)" d="M 607.764006 511.51265 
C 604.284869 510.730345 601.173791 508.785996 598.945934 506.001567 
C 596.718077 503.217137 595.503596 499.755298 595.503596 496.189292 
C 595.503596 492.623287 596.718077 489.161447 598.945934 486.377018 
C 601.173791 483.592588 604.284869 481.648239 607.764006 480.865935 
C 605.946876 475.05272 603.110104 469.608808 599.386487 464.789045 
C 595.66287 459.969283 591.111434 455.850073 585.945247 452.624248 
C 580.779061 449.398424 575.080016 447.117119 569.114904 445.887131 
C 563.149792 444.657143 557.013171 444.497968 550.992315 445.417057 
C 544.971459 446.336147 539.16181 448.318932 533.835337 451.272592 
C 528.508863 454.226252 523.749999 458.103967 519.781521 462.724207 
C 515.813044 467.344447 512.697862 472.633974 510.581806 478.345168 
C 508.46575 484.056362 507.382363 490.098691 507.382363 496.189292 
C 507.382363 502.279894 508.46575 508.322223 510.581806 514.033417 
C 512.697862 519.744611 515.813044 525.034138 519.781521 529.654378 
C 523.749999 534.274618 528.508863 538.152332 533.835337 541.105993 
C 539.16181 544.059653 544.971459 546.042438 550.992315 546.961528 
C 557.013171 547.880617 563.149792 547.721442 569.114904 546.491454 
C 575.080016 545.261465 580.779061 542.980161 585.945247 539.754336 
C 591.111434 536.528512 595.66287 532.409301 599.386487 527.589539 
C 603.110104 522.769777 605.946876 517.325865 607.764006 511.51265 
" style="fill:#c0c0c0;opacity:0.4;"/>
   </g>
   <g id="patch_36">
    <path clip-path="url(#p800a3b42c0)" d="M 607.764006 480.865935 
C 609.31443 485.825928 610.103131 490.992626 610.103131 496.189292 
C 610.103131 501.385959 609.31443 506.552657 607.764006 511.51265 
C 610.061785 512.029319 612.446622 512.022595 614.741451 511.492977 
C 617.03628 510.963359 619.182864 509.924288 621.021827 508.452911 
C 622.86079 506.981534 624.345464 505.11519 625.365615 502.99245 
C 626.385767 500.86971 626.915509 498.544443 626.915509 496.189292 
C 626.915509 493.834142 626.385767 491.508874 625.365615 489.386134 
C 624.345464 487.263395 622.86079 485.397051 621.021827 483.925674 
C 619.182864 482.454297 617.03628 481.415225 614.741451 480.885608 
C 612.446622 480.35599 610.061785 480.349266 607.764006 480.865935 
" style="fill:#b15928;opacity:0.4;"/>
   </g>
   <g id="patch_37">
    <path clip-path="url(#p800a3b42c0)" d="M 607.764006 511.51265 
C 609.31443 506.552657 610.103131 501.385959 610.103131 496.189292 
C 610.103131 490.992626 609.31443 485.825928 607.764006 480.865935 
C 604.284869 481.648239 601.173791 483.592588 598.945934 486.377018 
C 596.718077 489.161447 595.503596 492.623287 595.503596 496.189292 
C 595.503596 499.755298 596.718077 503.217137 598.945934 506.001567 
C 601.173791 508.785996 604.284869 510.730345 607.764006 511.51265 
" style="fill:#ffc5a2;opacity:0.4;"/>
   </g>
   <g id="text_56">
    <!-- 1140 -->
    <g style="fill:#262626;" transform="translate(538.71798 498.948667)scale(0.1 -0.1)">
     <use xlink:href="#DejaVuSans-31"/>
     <use x="63.623047" xlink:href="#DejaVuSans-31"/>
     <use x="127.246094" xlink:href="#DejaVuSans-34"/>
     <use x="190.869141" xlink:href="#DejaVuSans-30"/>
    </g>
   </g>
   <g id="text_57">
    <!-- 64 -->
    <g style="fill:#262626;" transform="translate(612.14682 498.948667)scale(0.1 -0.1)">
     <use xlink:href="#DejaVuSans-36"/>
     <use x="63.623047" xlink:href="#DejaVuSans-34"/>
    </g>
   </g>
   <g id="text_58">
    <!-- 47 -->
    <g style="fill:#262626;" transform="translate(596.440864 498.948667)scale(0.1 -0.1)">
     <use xlink:href="#DejaVuSans-34"/>
     <use x="63.623047" xlink:href="#DejaVuSans-37"/>
    </g>
   </g>
   <g id="text_59">
    <!-- Bioregistry -->
    <g style="fill:#262626;" transform="translate(493.843372 560.021119)scale(0.12 -0.12)">
     <use xlink:href="#DejaVuSans-42"/>
     <use x="68.603516" xlink:href="#DejaVuSans-69"/>
     <use x="96.386719" xlink:href="#DejaVuSans-6f"/>
     <use x="157.568359" xlink:href="#DejaVuSans-72"/>
     <use x="196.431641" xlink:href="#DejaVuSans-65"/>
     <use x="257.955078" xlink:href="#DejaVuSans-67"/>
     <use x="321.431641" xlink:href="#DejaVuSans-69"/>
     <use x="349.214844" xlink:href="#DejaVuSans-73"/>
     <use x="401.314453" xlink:href="#DejaVuSans-74"/>
     <use x="440.523438" xlink:href="#DejaVuSans-72"/>
     <use x="481.636719" xlink:href="#DejaVuSans-79"/>
    </g>
   </g>
   <g id="text_60">
    <!-- Cellosaurus -->
    <g style="fill:#262626;" transform="translate(611.209553 524.366691)scale(0.12 -0.12)">
     <defs>
      <path d="M 544 1381 
L 544 3500 
L 1119 3500 
L 1119 1403 
Q 1119 906 1312 657 
Q 1506 409 1894 409 
Q 2359 409 2629 706 
Q 2900 1003 2900 1516 
L 2900 3500 
L 3475 3500 
L 3475 0 
L 2900 0 
L 2900 538 
Q 2691 219 2414 64 
Q 2138 -91 1772 -91 
Q 1169 -91 856 284 
Q 544 659 544 1381 
z
M 1991 3584 
L 1991 3584 
z
" id="DejaVuSans-75" transform="scale(0.015625)"/>
     </defs>
     <use xlink:href="#DejaVuSans-43"/>
     <use x="69.824219" xlink:href="#DejaVuSans-65"/>
     <use x="131.347656" xlink:href="#DejaVuSans-6c"/>
     <use x="159.130859" xlink:href="#DejaVuSans-6c"/>
     <use x="186.914062" xlink:href="#DejaVuSans-6f"/>
     <use x="248.095703" xlink:href="#DejaVuSans-73"/>
     <use x="300.195312" xlink:href="#DejaVuSans-61"/>
     <use x="361.474609" xlink:href="#DejaVuSans-75"/>
     <use x="424.853516" xlink:href="#DejaVuSans-72"/>
     <use x="465.966797" xlink:href="#DejaVuSans-75"/>
     <use x="529.345703" xlink:href="#DejaVuSans-73"/>
    </g>
   </g>
  </g>
  <g id="text_61">
   <!-- https://github.com/bioregistry/bioregistry (2021-08-01) -->
   <g style="fill:#808080;opacity:0.5;" transform="translate(240.830625 574.33625)scale(0.08 -0.08)">
    <defs>
     <path d="M 3513 2113 
L 3513 0 
L 2938 0 
L 2938 2094 
Q 2938 2591 2744 2837 
Q 2550 3084 2163 3084 
Q 1697 3084 1428 2787 
Q 1159 2491 1159 1978 
L 1159 0 
L 581 0 
L 581 4863 
L 1159 4863 
L 1159 2956 
Q 1366 3272 1645 3428 
Q 1925 3584 2291 3584 
Q 2894 3584 3203 3211 
Q 3513 2838 3513 2113 
z
" id="DejaVuSans-68" transform="scale(0.015625)"/>
     <path d="M 1159 525 
L 1159 -1331 
L 581 -1331 
L 581 3500 
L 1159 3500 
L 1159 2969 
Q 1341 3281 1617 3432 
Q 1894 3584 2278 3584 
Q 2916 3584 3314 3078 
Q 3713 2572 3713 1747 
Q 3713 922 3314 415 
Q 2916 -91 2278 -91 
Q 1894 -91 1617 61 
Q 1341 213 1159 525 
z
M 3116 1747 
Q 3116 2381 2855 2742 
Q 2594 3103 2138 3103 
Q 1681 3103 1420 2742 
Q 1159 2381 1159 1747 
Q 1159 1113 1420 752 
Q 1681 391 2138 391 
Q 2594 391 2855 752 
Q 3116 1113 3116 1747 
z
" id="DejaVuSans-70" transform="scale(0.015625)"/>
     <path d="M 750 794 
L 1409 794 
L 1409 0 
L 750 0 
L 750 794 
z
M 750 3309 
L 1409 3309 
L 1409 2516 
L 750 2516 
L 750 3309 
z
" id="DejaVuSans-3a" transform="scale(0.015625)"/>
     <path d="M 1625 4666 
L 2156 4666 
L 531 -594 
L 0 -594 
L 1625 4666 
z
" id="DejaVuSans-2f" transform="scale(0.015625)"/>
     <path d="M 3116 1747 
Q 3116 2381 2855 2742 
Q 2594 3103 2138 3103 
Q 1681 3103 1420 2742 
Q 1159 2381 1159 1747 
Q 1159 1113 1420 752 
Q 1681 391 2138 391 
Q 2594 391 2855 752 
Q 3116 1113 3116 1747 
z
M 1159 2969 
Q 1341 3281 1617 3432 
Q 1894 3584 2278 3584 
Q 2916 3584 3314 3078 
Q 3713 2572 3713 1747 
Q 3713 922 3314 415 
Q 2916 -91 2278 -91 
Q 1894 -91 1617 61 
Q 1341 213 1159 525 
L 1159 0 
L 581 0 
L 581 4863 
L 1159 4863 
L 1159 2969 
z
" id="DejaVuSans-62" transform="scale(0.015625)"/>
     <path d="M 684 794 
L 1344 794 
L 1344 0 
L 684 0 
L 684 794 
z
" id="DejaVuSans-2e" transform="scale(0.015625)"/>
     <path d="M 3122 3366 
L 3122 2828 
Q 2878 2963 2633 3030 
Q 2388 3097 2138 3097 
Q 1578 3097 1268 2742 
Q 959 2388 959 1747 
Q 959 1106 1268 751 
Q 1578 397 2138 397 
Q 2388 397 2633 464 
Q 2878 531 3122 666 
L 3122 134 
Q 2881 22 2623 -34 
Q 2366 -91 2075 -91 
Q 1284 -91 818 406 
Q 353 903 353 1747 
Q 353 2603 823 3093 
Q 1294 3584 2113 3584 
Q 2378 3584 2631 3529 
Q 2884 3475 3122 3366 
z
" id="DejaVuSans-63" transform="scale(0.015625)"/>
     <path d="M 1984 4856 
Q 1566 4138 1362 3434 
Q 1159 2731 1159 2009 
Q 1159 1288 1364 580 
Q 1569 -128 1984 -844 
L 1484 -844 
Q 1016 -109 783 600 
Q 550 1309 550 2009 
Q 550 2706 781 3412 
Q 1013 4119 1484 4856 
L 1984 4856 
z
" id="DejaVuSans-28" transform="scale(0.015625)"/>
     <path d="M 313 2009 
L 1997 2009 
L 1997 1497 
L 313 1497 
L 313 2009 
z
" id="DejaVuSans-2d" transform="scale(0.015625)"/>
     <path d="M 513 4856 
L 1013 4856 
Q 1481 4119 1714 3412 
Q 1947 2706 1947 2009 
Q 1947 1309 1714 600 
Q 1481 -109 1013 -844 
L 513 -844 
Q 928 -128 1133 580 
Q 1338 1288 1338 2009 
Q 1338 2731 1133 3434 
Q 928 4138 513 4856 
z
" id="DejaVuSans-29" transform="scale(0.015625)"/>
    </defs>
    <use xlink:href="#DejaVuSans-68"/>
    <use x="63.378906" xlink:href="#DejaVuSans-74"/>
    <use x="102.587891" xlink:href="#DejaVuSans-74"/>
    <use x="141.796875" xlink:href="#DejaVuSans-70"/>
    <use x="205.273438" xlink:href="#DejaVuSans-73"/>
    <use x="257.373047" xlink:href="#DejaVuSans-3a"/>
    <use x="291.064453" xlink:href="#DejaVuSans-2f"/>
    <use x="324.755859" xlink:href="#DejaVuSans-2f"/>
    <use x="358.447266" xlink:href="#DejaVuSans-67"/>
    <use x="421.923828" xlink:href="#DejaVuSans-69"/>
    <use x="449.707031" xlink:href="#DejaVuSans-74"/>
    <use x="488.916016" xlink:href="#DejaVuSans-68"/>
    <use x="552.294922" xlink:href="#DejaVuSans-75"/>
    <use x="615.673828" xlink:href="#DejaVuSans-62"/>
    <use x="679.150391" xlink:href="#DejaVuSans-2e"/>
    <use x="710.9375" xlink:href="#DejaVuSans-63"/>
    <use x="765.917969" xlink:href="#DejaVuSans-6f"/>
    <use x="827.099609" xlink:href="#DejaVuSans-6d"/>
    <use x="924.511719" xlink:href="#DejaVuSans-2f"/>
    <use x="958.203125" xlink:href="#DejaVuSans-62"/>
    <use x="1021.679688" xlink:href="#DejaVuSans-69"/>
    <use x="1049.462891" xlink:href="#DejaVuSans-6f"/>
    <use x="1110.644531" xlink:href="#DejaVuSans-72"/>
    <use x="1149.507812" xlink:href="#DejaVuSans-65"/>
    <use x="1211.03125" xlink:href="#DejaVuSans-67"/>
    <use x="1274.507812" xlink:href="#DejaVuSans-69"/>
    <use x="1302.291016" xlink:href="#DejaVuSans-73"/>
    <use x="1354.390625" xlink:href="#DejaVuSans-74"/>
    <use x="1393.599609" xlink:href="#DejaVuSans-72"/>
    <use x="1434.712891" xlink:href="#DejaVuSans-79"/>
    <use x="1493.892578" xlink:href="#DejaVuSans-2f"/>
    <use x="1527.583984" xlink:href="#DejaVuSans-62"/>
    <use x="1591.060547" xlink:href="#DejaVuSans-69"/>
    <use x="1618.84375" xlink:href="#DejaVuSans-6f"/>
    <use x="1680.025391" xlink:href="#DejaVuSans-72"/>
    <use x="1718.888672" xlink:href="#DejaVuSans-65"/>
    <use x="1780.412109" xlink:href="#DejaVuSans-67"/>
    <use x="1843.888672" xlink:href="#DejaVuSans-69"/>
    <use x="1871.671875" xlink:href="#DejaVuSans-73"/>
    <use x="1923.771484" xlink:href="#DejaVuSans-74"/>
    <use x="1962.980469" xlink:href="#DejaVuSans-72"/>
    <use x="2004.09375" xlink:href="#DejaVuSans-79"/>
    <use x="2063.273438" xlink:href="#DejaVuSans-20"/>
    <use x="2095.060547" xlink:href="#DejaVuSans-28"/>
    <use x="2134.074219" xlink:href="#DejaVuSans-32"/>
    <use x="2197.697266" xlink:href="#DejaVuSans-30"/>
    <use x="2261.320312" xlink:href="#DejaVuSans-32"/>
    <use x="2324.943359" xlink:href="#DejaVuSans-31"/>
    <use x="2388.566406" xlink:href="#DejaVuSans-2d"/>
    <use x="2424.650391" xlink:href="#DejaVuSans-30"/>
    <use x="2488.273438" xlink:href="#DejaVuSans-38"/>
    <use x="2551.896484" xlink:href="#DejaVuSans-2d"/>
    <use x="2587.980469" xlink:href="#DejaVuSans-30"/>
    <use x="2651.603516" xlink:href="#DejaVuSans-31"/>
    <use x="2715.226562" xlink:href="#DejaVuSans-29"/>
   </g>
  </g>
 </g>
 <defs>
  <clipPath id="p0fda0bc637">
   <rect height="121.411939" width="122.86879" x="53.49108" y="10.8"/>
  </clipPath>
  <clipPath id="p0c0947a72b">
   <rect height="121.411939" width="121.421078" x="280.326667" y="10.8"/>
  </clipPath>
  <clipPath id="pd4a09cbf27">
   <rect height="121.411939" width="122.673476" x="505.812198" y="10.8"/>
  </clipPath>
  <clipPath id="p35595b8100">
   <rect height="121.411939" width="154.837241" x="37.506855" y="152.361108"/>
  </clipPath>
  <clipPath id="p335be763c0">
   <rect height="121.411939" width="123.557139" x="279.258637" y="152.361108"/>
  </clipPath>
  <clipPath id="p3db57af2af">
   <rect height="121.411939" width="142.318696" x="495.989588" y="152.361108"/>
  </clipPath>
  <clipPath id="peecec10f32">
   <rect height="121.411939" width="171.364345" x="29.243303" y="293.922215"/>
  </clipPath>
  <clipPath id="p0df2e44563">
   <rect height="121.411939" width="132.274213" x="274.900099" y="293.922215"/>
  </clipPath>
  <clipPath id="pe3e3f748d3">
   <rect height="121.411939" width="134.712775" x="499.792549" y="293.922215"/>
  </clipPath>
  <clipPath id="pecdcdd4fd7">
   <rect height="121.411939" width="135.808502" x="47.021225" y="435.483323"/>
  </clipPath>
  <clipPath id="p398b4cea2b">
   <rect height="121.411939" width="140.021814" x="271.026299" y="435.483323"/>
  </clipPath>
  <clipPath id="p800a3b42c0">
   <rect height="121.411939" width="138.224316" x="498.036778" y="435.483323"/>
  </clipPath>
 </defs>
</svg>
