<?xml version="1.0" encoding="utf-8" standalone="no"?>
<!DOCTYPE svg PUBLIC "-//W3C//DTD SVG 1.1//EN"
  "http://www.w3.org/Graphics/SVG/1.1/DTD/svg11.dtd">
<svg height="720pt" version="1.1" viewBox="0 0 702 720" width="702pt" xmlns="http://www.w3.org/2000/svg" xmlns:xlink="http://www.w3.org/1999/xlink">
 <metadata>
  <rdf:RDF xmlns:cc="http://creativecommons.org/ns#" xmlns:dc="http://purl.org/dc/elements/1.1/" xmlns:rdf="http://www.w3.org/1999/02/22-rdf-syntax-ns#">
   <cc:Work>
    <dc:type rdf:resource="http://purl.org/dc/dcmitype/StillImage"/>
    <dc:date>2021-11-02T01:20:01.836302</dc:date>
    <dc:format>image/svg+xml</dc:format>
    <dc:creator>
     <cc:Agent>
      <dc:title>Matplotlib v3.4.2, https://matplotlib.org/</dc:title>
     </cc:Agent>
    </dc:creator>
   </cc:Work>
  </rdf:RDF>
 </metadata>
 <defs>
  <style type="text/css">*{stroke-linecap:butt;stroke-linejoin:round;}</style>
 </defs>
 <g id="figure_1">
  <g id="patch_1">
   <path d="M 0 720 
L 702 720 
L 702 0 
L 0 0 
z
" style="fill:#ffffff;"/>
  </g>
  <g id="axes_1">
   <g id="patch_2">
    <path clip-path="url(#p0d4382e0db)" d="M 168.41011 83.432298 
C 167.219378 85.769797 165.645952 87.891715 163.755084 89.710056 
C 161.864217 91.528396 159.682412 93.01767 157.300152 94.116115 
C 154.917892 95.21456 152.368571 95.906779 149.75791 96.164065 
C 147.14725 96.421351 144.511846 96.240097 141.960991 95.627821 
C 139.410136 95.015544 136.979587 93.980828 134.770141 92.566582 
C 132.560695 91.152335 130.603323 89.378384 128.9792 87.318295 
C 127.355076 85.258206 126.086967 82.940857 125.227463 80.46235 
C 124.367958 77.983844 123.929106 75.378922 123.929106 72.755614 
C 123.929106 70.132307 124.367958 67.527385 125.227463 65.048878 
C 126.086967 62.570372 127.355076 60.253023 128.9792 58.192934 
C 130.603323 56.132845 132.560695 54.358893 134.770141 52.944647 
C 136.979587 51.530401 139.410136 50.495685 141.960991 49.883408 
C 144.511846 49.271132 147.14725 49.089878 149.75791 49.347164 
C 152.368571 49.60445 154.917892 50.296669 157.300152 51.395114 
C 159.682412 52.493559 161.864217 53.982833 163.755084 55.801173 
C 165.645952 57.619513 167.219378 59.741432 168.41011 62.078931 
C 167.099775 55.755539 164.636473 49.72706 161.143597 44.295477 
C 157.650722 38.863895 153.187586 34.121444 147.977762 30.305687 
C 142.767938 26.48993 136.899894 23.665664 130.667578 21.974363 
C 124.435261 20.283063 117.944504 19.753448 111.520447 20.41205 
C 105.09639 21.070652 98.848121 22.906286 93.088633 25.827 
C 87.329146 28.747714 82.156243 32.703911 77.82905 37.497414 
C 73.501858 42.290917 70.093856 47.840326 67.775761 53.867656 
C 65.457667 59.894986 64.268844 66.297885 64.268844 72.755614 
C 64.268844 79.213344 65.457667 85.616243 67.775761 91.643573 
C 70.093856 97.670903 73.501858 103.220312 77.82905 108.013815 
C 82.156243 112.807317 87.329146 116.763515 93.088633 119.684229 
C 98.848121 122.604943 105.09639 124.440577 111.520447 125.099179 
C 117.944504 125.757781 124.435261 125.228166 130.667578 123.536866 
C 136.899894 121.845565 142.767938 119.021299 147.977762 115.205542 
C 153.187586 111.389785 157.650722 106.647334 161.143597 101.215752 
C 164.636473 95.784169 167.099775 89.75569 168.41011 83.432298 
" style="fill:#c0c0c0;opacity:0.4;"/>
   </g>
   <g id="patch_3">
    <path clip-path="url(#p0d4382e0db)" d="M 168.41011 62.078931 
C 169.137926 65.591208 169.504696 69.16872 169.504696 72.755614 
C 169.504696 76.342508 169.137926 79.92002 168.41011 83.432298 
C 170.094573 80.125568 170.972813 76.466663 170.972813 72.755614 
C 170.972813 69.044566 170.094573 65.385661 168.41011 62.078931 
" style="fill:#a6cee3;opacity:0.4;"/>
   </g>
   <g id="patch_4">
    <path clip-path="url(#p0d4382e0db)" d="M 168.41011 83.432298 
C 169.137926 79.92002 169.504696 76.342508 169.504696 72.755614 
C 169.504696 69.16872 169.137926 65.591208 168.41011 62.078931 
C 167.219378 59.741432 165.645952 57.619513 163.755084 55.801173 
C 161.864217 53.982833 159.682412 52.493559 157.300152 51.395114 
C 154.917892 50.296669 152.368571 49.60445 149.75791 49.347164 
C 147.14725 49.089878 144.511846 49.271132 141.960991 49.883408 
C 139.410136 50.495685 136.979587 51.530401 134.770141 52.944647 
C 132.560695 54.358893 130.603323 56.132845 128.9792 58.192934 
C 127.355076 60.253023 126.086967 62.570372 125.227463 65.048878 
C 124.367958 67.527385 123.929106 70.132307 123.929106 72.755614 
C 123.929106 75.378922 124.367958 77.983844 125.227463 80.46235 
C 126.086967 82.940857 127.355076 85.258206 128.9792 87.318295 
C 130.603323 89.378384 132.560695 91.152335 134.770141 92.566582 
C 136.979587 93.980828 139.410136 95.015544 141.960991 95.627821 
C 144.511846 96.240097 147.14725 96.421351 149.75791 96.164065 
C 152.368571 95.906779 154.917892 95.21456 157.300152 94.116115 
C 159.682412 93.01767 161.864217 91.528396 163.755084 89.710056 
C 165.645952 87.891715 167.219378 85.769797 168.41011 83.432298 
" style="fill:#fbffff;opacity:0.4;"/>
   </g>
   <g id="text_1">
    <!-- 984 -->
    <g style="fill:#262626;" transform="translate(85.757569 75.340771)scale(0.1 -0.1)">
     <defs>
      <path d="M 350 1059 
L 891 1109 
Q 959 728 1153 556 
Q 1347 384 1650 384 
Q 1909 384 2104 503 
Q 2300 622 2425 820 
Q 2550 1019 2634 1356 
Q 2719 1694 2719 2044 
Q 2719 2081 2716 2156 
Q 2547 1888 2255 1720 
Q 1963 1553 1622 1553 
Q 1053 1553 659 1965 
Q 266 2378 266 3053 
Q 266 3750 677 4175 
Q 1088 4600 1706 4600 
Q 2153 4600 2523 4359 
Q 2894 4119 3086 3673 
Q 3278 3228 3278 2384 
Q 3278 1506 3087 986 
Q 2897 466 2520 194 
Q 2144 -78 1638 -78 
Q 1100 -78 759 220 
Q 419 519 350 1059 
z
M 2653 3081 
Q 2653 3566 2395 3850 
Q 2138 4134 1775 4134 
Q 1400 4134 1122 3828 
Q 844 3522 844 3034 
Q 844 2597 1108 2323 
Q 1372 2050 1759 2050 
Q 2150 2050 2401 2323 
Q 2653 2597 2653 3081 
z
" id="ArialMT-39" transform="scale(0.015625)"/>
      <path d="M 1131 2484 
Q 781 2613 612 2850 
Q 444 3088 444 3419 
Q 444 3919 803 4259 
Q 1163 4600 1759 4600 
Q 2359 4600 2725 4251 
Q 3091 3903 3091 3403 
Q 3091 3084 2923 2848 
Q 2756 2613 2416 2484 
Q 2838 2347 3058 2040 
Q 3278 1734 3278 1309 
Q 3278 722 2862 322 
Q 2447 -78 1769 -78 
Q 1091 -78 675 323 
Q 259 725 259 1325 
Q 259 1772 486 2073 
Q 713 2375 1131 2484 
z
M 1019 3438 
Q 1019 3113 1228 2906 
Q 1438 2700 1772 2700 
Q 2097 2700 2305 2904 
Q 2513 3109 2513 3406 
Q 2513 3716 2298 3927 
Q 2084 4138 1766 4138 
Q 1444 4138 1231 3931 
Q 1019 3725 1019 3438 
z
M 838 1322 
Q 838 1081 952 856 
Q 1066 631 1291 507 
Q 1516 384 1775 384 
Q 2178 384 2440 643 
Q 2703 903 2703 1303 
Q 2703 1709 2433 1975 
Q 2163 2241 1756 2241 
Q 1359 2241 1098 1978 
Q 838 1716 838 1322 
z
" id="ArialMT-38" transform="scale(0.015625)"/>
      <path d="M 2069 0 
L 2069 1097 
L 81 1097 
L 81 1613 
L 2172 4581 
L 2631 4581 
L 2631 1613 
L 3250 1613 
L 3250 1097 
L 2631 1097 
L 2631 0 
L 2069 0 
z
M 2069 1613 
L 2069 3678 
L 634 1613 
L 2069 1613 
z
" id="ArialMT-34" transform="scale(0.015625)"/>
     </defs>
     <use xlink:href="#ArialMT-39"/>
     <use x="55.615234" xlink:href="#ArialMT-38"/>
     <use x="111.230469" xlink:href="#ArialMT-34"/>
    </g>
   </g>
   <g id="text_2">
    <!-- 3 -->
    <g style="fill:#262626;" transform="translate(167.458286 75.340771)scale(0.1 -0.1)">
     <defs>
      <path d="M 269 1209 
L 831 1284 
Q 928 806 1161 595 
Q 1394 384 1728 384 
Q 2125 384 2398 659 
Q 2672 934 2672 1341 
Q 2672 1728 2419 1979 
Q 2166 2231 1775 2231 
Q 1616 2231 1378 2169 
L 1441 2663 
Q 1497 2656 1531 2656 
Q 1891 2656 2178 2843 
Q 2466 3031 2466 3422 
Q 2466 3731 2256 3934 
Q 2047 4138 1716 4138 
Q 1388 4138 1169 3931 
Q 950 3725 888 3313 
L 325 3413 
Q 428 3978 793 4289 
Q 1159 4600 1703 4600 
Q 2078 4600 2393 4439 
Q 2709 4278 2876 4000 
Q 3044 3722 3044 3409 
Q 3044 3113 2884 2869 
Q 2725 2625 2413 2481 
Q 2819 2388 3044 2092 
Q 3269 1797 3269 1353 
Q 3269 753 2831 336 
Q 2394 -81 1725 -81 
Q 1122 -81 723 278 
Q 325 638 269 1209 
z
" id="ArialMT-33" transform="scale(0.015625)"/>
     </defs>
     <use xlink:href="#ArialMT-33"/>
    </g>
   </g>
   <g id="text_3">
    <!-- 242 -->
    <g style="fill:#262626;" transform="translate(138.375495 75.340771)scale(0.1 -0.1)">
     <defs>
      <path d="M 3222 541 
L 3222 0 
L 194 0 
Q 188 203 259 391 
Q 375 700 629 1000 
Q 884 1300 1366 1694 
Q 2113 2306 2375 2664 
Q 2638 3022 2638 3341 
Q 2638 3675 2398 3904 
Q 2159 4134 1775 4134 
Q 1369 4134 1125 3890 
Q 881 3647 878 3216 
L 300 3275 
Q 359 3922 746 4261 
Q 1134 4600 1788 4600 
Q 2447 4600 2831 4234 
Q 3216 3869 3216 3328 
Q 3216 3053 3103 2787 
Q 2991 2522 2730 2228 
Q 2469 1934 1863 1422 
Q 1356 997 1212 845 
Q 1069 694 975 541 
L 3222 541 
z
" id="ArialMT-32" transform="scale(0.015625)"/>
     </defs>
     <use xlink:href="#ArialMT-32"/>
     <use x="55.615234" xlink:href="#ArialMT-34"/>
     <use x="111.230469" xlink:href="#ArialMT-32"/>
    </g>
   </g>
   <g id="text_4">
    <!-- Bioregistry -->
    <g style="fill:#262626;" transform="translate(60.20552 137.769905)scale(0.12 -0.12)">
     <defs>
      <path d="M 469 0 
L 469 4581 
L 2188 4581 
Q 2713 4581 3030 4442 
Q 3347 4303 3526 4014 
Q 3706 3725 3706 3409 
Q 3706 3116 3547 2856 
Q 3388 2597 3066 2438 
Q 3481 2316 3704 2022 
Q 3928 1728 3928 1328 
Q 3928 1006 3792 729 
Q 3656 453 3456 303 
Q 3256 153 2954 76 
Q 2653 0 2216 0 
L 469 0 
z
M 1075 2656 
L 2066 2656 
Q 2469 2656 2644 2709 
Q 2875 2778 2992 2937 
Q 3109 3097 3109 3338 
Q 3109 3566 3000 3739 
Q 2891 3913 2687 3977 
Q 2484 4041 1991 4041 
L 1075 4041 
L 1075 2656 
z
M 1075 541 
L 2216 541 
Q 2509 541 2628 563 
Q 2838 600 2978 687 
Q 3119 775 3209 942 
Q 3300 1109 3300 1328 
Q 3300 1584 3169 1773 
Q 3038 1963 2805 2039 
Q 2572 2116 2134 2116 
L 1075 2116 
L 1075 541 
z
" id="ArialMT-42" transform="scale(0.015625)"/>
      <path d="M 425 3934 
L 425 4581 
L 988 4581 
L 988 3934 
L 425 3934 
z
M 425 0 
L 425 3319 
L 988 3319 
L 988 0 
L 425 0 
z
" id="ArialMT-69" transform="scale(0.015625)"/>
      <path d="M 213 1659 
Q 213 2581 725 3025 
Q 1153 3394 1769 3394 
Q 2453 3394 2887 2945 
Q 3322 2497 3322 1706 
Q 3322 1066 3130 698 
Q 2938 331 2570 128 
Q 2203 -75 1769 -75 
Q 1072 -75 642 372 
Q 213 819 213 1659 
z
M 791 1659 
Q 791 1022 1069 705 
Q 1347 388 1769 388 
Q 2188 388 2466 706 
Q 2744 1025 2744 1678 
Q 2744 2294 2464 2611 
Q 2184 2928 1769 2928 
Q 1347 2928 1069 2612 
Q 791 2297 791 1659 
z
" id="ArialMT-6f" transform="scale(0.015625)"/>
      <path d="M 416 0 
L 416 3319 
L 922 3319 
L 922 2816 
Q 1116 3169 1280 3281 
Q 1444 3394 1641 3394 
Q 1925 3394 2219 3213 
L 2025 2691 
Q 1819 2813 1613 2813 
Q 1428 2813 1281 2702 
Q 1134 2591 1072 2394 
Q 978 2094 978 1738 
L 978 0 
L 416 0 
z
" id="ArialMT-72" transform="scale(0.015625)"/>
      <path d="M 2694 1069 
L 3275 997 
Q 3138 488 2766 206 
Q 2394 -75 1816 -75 
Q 1088 -75 661 373 
Q 234 822 234 1631 
Q 234 2469 665 2931 
Q 1097 3394 1784 3394 
Q 2450 3394 2872 2941 
Q 3294 2488 3294 1666 
Q 3294 1616 3291 1516 
L 816 1516 
Q 847 969 1125 678 
Q 1403 388 1819 388 
Q 2128 388 2347 550 
Q 2566 713 2694 1069 
z
M 847 1978 
L 2700 1978 
Q 2663 2397 2488 2606 
Q 2219 2931 1791 2931 
Q 1403 2931 1139 2672 
Q 875 2413 847 1978 
z
" id="ArialMT-65" transform="scale(0.015625)"/>
      <path d="M 319 -275 
L 866 -356 
Q 900 -609 1056 -725 
Q 1266 -881 1628 -881 
Q 2019 -881 2231 -725 
Q 2444 -569 2519 -288 
Q 2563 -116 2559 434 
Q 2191 0 1641 0 
Q 956 0 581 494 
Q 206 988 206 1678 
Q 206 2153 378 2554 
Q 550 2956 876 3175 
Q 1203 3394 1644 3394 
Q 2231 3394 2613 2919 
L 2613 3319 
L 3131 3319 
L 3131 450 
Q 3131 -325 2973 -648 
Q 2816 -972 2473 -1159 
Q 2131 -1347 1631 -1347 
Q 1038 -1347 672 -1080 
Q 306 -813 319 -275 
z
M 784 1719 
Q 784 1066 1043 766 
Q 1303 466 1694 466 
Q 2081 466 2343 764 
Q 2606 1063 2606 1700 
Q 2606 2309 2336 2618 
Q 2066 2928 1684 2928 
Q 1309 2928 1046 2623 
Q 784 2319 784 1719 
z
" id="ArialMT-67" transform="scale(0.015625)"/>
      <path d="M 197 991 
L 753 1078 
Q 800 744 1014 566 
Q 1228 388 1613 388 
Q 2000 388 2187 545 
Q 2375 703 2375 916 
Q 2375 1106 2209 1216 
Q 2094 1291 1634 1406 
Q 1016 1563 777 1677 
Q 538 1791 414 1992 
Q 291 2194 291 2438 
Q 291 2659 392 2848 
Q 494 3038 669 3163 
Q 800 3259 1026 3326 
Q 1253 3394 1513 3394 
Q 1903 3394 2198 3281 
Q 2494 3169 2634 2976 
Q 2775 2784 2828 2463 
L 2278 2388 
Q 2241 2644 2061 2787 
Q 1881 2931 1553 2931 
Q 1166 2931 1000 2803 
Q 834 2675 834 2503 
Q 834 2394 903 2306 
Q 972 2216 1119 2156 
Q 1203 2125 1616 2013 
Q 2213 1853 2448 1751 
Q 2684 1650 2818 1456 
Q 2953 1263 2953 975 
Q 2953 694 2789 445 
Q 2625 197 2315 61 
Q 2006 -75 1616 -75 
Q 969 -75 630 194 
Q 291 463 197 991 
z
" id="ArialMT-73" transform="scale(0.015625)"/>
      <path d="M 1650 503 
L 1731 6 
Q 1494 -44 1306 -44 
Q 1000 -44 831 53 
Q 663 150 594 308 
Q 525 466 525 972 
L 525 2881 
L 113 2881 
L 113 3319 
L 525 3319 
L 525 4141 
L 1084 4478 
L 1084 3319 
L 1650 3319 
L 1650 2881 
L 1084 2881 
L 1084 941 
Q 1084 700 1114 631 
Q 1144 563 1211 522 
Q 1278 481 1403 481 
Q 1497 481 1650 503 
z
" id="ArialMT-74" transform="scale(0.015625)"/>
      <path d="M 397 -1278 
L 334 -750 
Q 519 -800 656 -800 
Q 844 -800 956 -737 
Q 1069 -675 1141 -563 
Q 1194 -478 1313 -144 
Q 1328 -97 1363 -6 
L 103 3319 
L 709 3319 
L 1400 1397 
Q 1534 1031 1641 628 
Q 1738 1016 1872 1384 
L 2581 3319 
L 3144 3319 
L 1881 -56 
Q 1678 -603 1566 -809 
Q 1416 -1088 1222 -1217 
Q 1028 -1347 759 -1347 
Q 597 -1347 397 -1278 
z
" id="ArialMT-79" transform="scale(0.015625)"/>
     </defs>
     <use xlink:href="#ArialMT-42"/>
     <use x="66.699219" xlink:href="#ArialMT-69"/>
     <use x="88.916016" xlink:href="#ArialMT-6f"/>
     <use x="144.53125" xlink:href="#ArialMT-72"/>
     <use x="177.832031" xlink:href="#ArialMT-65"/>
     <use x="233.447266" xlink:href="#ArialMT-67"/>
     <use x="289.0625" xlink:href="#ArialMT-69"/>
     <use x="311.279297" xlink:href="#ArialMT-73"/>
     <use x="361.279297" xlink:href="#ArialMT-74"/>
     <use x="389.0625" xlink:href="#ArialMT-72"/>
     <use x="422.363281" xlink:href="#ArialMT-79"/>
    </g>
   </g>
   <g id="text_5">
    <!-- OBO -->
    <g style="fill:#262626;" transform="translate(147.450959 108.673832)scale(0.12 -0.12)">
     <defs>
      <path d="M 309 2231 
Q 309 3372 921 4017 
Q 1534 4663 2503 4663 
Q 3138 4663 3647 4359 
Q 4156 4056 4423 3514 
Q 4691 2972 4691 2284 
Q 4691 1588 4409 1038 
Q 4128 488 3612 205 
Q 3097 -78 2500 -78 
Q 1853 -78 1343 234 
Q 834 547 571 1087 
Q 309 1628 309 2231 
z
M 934 2222 
Q 934 1394 1379 917 
Q 1825 441 2497 441 
Q 3181 441 3623 922 
Q 4066 1403 4066 2288 
Q 4066 2847 3877 3264 
Q 3688 3681 3323 3911 
Q 2959 4141 2506 4141 
Q 1863 4141 1398 3698 
Q 934 3256 934 2222 
z
" id="ArialMT-4f" transform="scale(0.015625)"/>
     </defs>
     <use xlink:href="#ArialMT-4f"/>
     <use x="77.783203" xlink:href="#ArialMT-42"/>
     <use x="144.482422" xlink:href="#ArialMT-4f"/>
    </g>
   </g>
  </g>
  <g id="axes_2">
   <g id="patch_5">
    <path clip-path="url(#pb528f1b1be)" d="M 393.247039 82.407606 
C 392.143695 84.983101 390.60686 87.350442 388.703449 89.406547 
C 386.800039 91.462653 384.558087 93.177242 382.075214 94.475657 
C 379.59234 95.774073 376.905113 96.637191 374.13054 97.027431 
C 371.355967 97.41767 368.534912 97.329283 365.790211 96.766118 
C 363.045509 96.202954 360.417584 95.173305 358.020863 93.722007 
C 355.624141 92.270708 353.493921 90.419133 351.722958 88.247905 
C 349.951995 86.076677 348.566371 83.617773 347.62642 80.978259 
C 346.686468 78.338745 346.206033 75.557496 346.206033 72.755614 
C 346.206033 69.953733 346.686468 67.172484 347.62642 64.53297 
C 348.566371 61.893456 349.951995 59.434552 351.722958 57.263324 
C 353.493921 55.092095 355.624141 53.240521 358.020863 51.789222 
C 360.417584 50.337924 363.045509 49.308275 365.790211 48.74511 
C 368.534912 48.181946 371.355967 48.093559 374.13054 48.483798 
C 376.905113 48.874038 379.59234 49.737156 382.075214 51.035571 
C 384.558087 52.333987 386.800039 54.048576 388.703449 56.104681 
C 390.60686 58.160787 392.143695 60.528127 393.247039 63.103622 
C 392.054409 56.7119 389.68737 50.596238 386.26609 45.067104 
C 382.84481 39.53797 378.42818 34.69054 373.240416 30.7709 
C 368.052651 26.85126 362.183052 23.92688 355.929595 22.14622 
C 349.676138 20.365559 343.146466 19.75927 336.672067 20.358131 
C 330.197668 20.956992 323.889988 22.750694 318.069244 25.648179 
C 312.2485 28.545664 307.014887 32.497055 302.634095 37.301755 
C 298.253304 42.106456 294.800743 47.68176 292.451686 53.744631 
C 290.102629 59.807503 288.89751 66.253578 288.89751 72.755614 
C 288.89751 79.257651 290.102629 85.703726 292.451686 91.766597 
C 294.800743 97.829469 298.253304 103.404773 302.634095 108.209474 
C 307.014887 113.014174 312.2485 116.965565 318.069244 119.86305 
C 323.889988 122.760535 330.197668 124.554237 336.672067 125.153098 
C 343.146466 125.751959 349.676138 125.14567 355.929595 123.365009 
C 362.183052 121.584349 368.052651 118.659969 373.240416 114.740329 
C 378.42818 110.820688 382.84481 105.973259 386.26609 100.444125 
C 389.68737 94.914991 392.054409 88.799328 393.247039 82.407606 
" style="fill:#c0c0c0;opacity:0.4;"/>
   </g>
   <g id="patch_6">
    <path clip-path="url(#pb528f1b1be)" d="M 393.247039 63.103622 
C 393.840956 66.286629 394.139817 69.517672 394.139817 72.755614 
C 394.139817 75.993557 393.840956 79.224599 393.247039 82.407606 
C 394.553674 79.357577 395.227459 76.073743 395.227459 72.755614 
C 395.227459 69.437486 394.553674 66.153652 393.247039 63.103622 
" style="fill:#1f78b4;opacity:0.4;"/>
   </g>
   <g id="patch_7">
    <path clip-path="url(#pb528f1b1be)" d="M 393.247039 82.407606 
C 393.840956 79.224599 394.139817 75.993557 394.139817 72.755614 
C 394.139817 69.517672 393.840956 66.286629 393.247039 63.103622 
C 392.143695 60.528127 390.60686 58.160787 388.703449 56.104681 
C 386.800039 54.048576 384.558087 52.333987 382.075214 51.035571 
C 379.59234 49.737156 376.905113 48.874038 374.13054 48.483798 
C 371.355967 48.093559 368.534912 48.181946 365.790211 48.74511 
C 363.045509 49.308275 360.417584 50.337924 358.020863 51.789222 
C 355.624141 53.240521 353.493921 55.092095 351.722958 57.263324 
C 349.951995 59.434552 348.566371 61.893456 347.62642 64.53297 
C 346.686468 67.172484 346.206033 69.953733 346.206033 72.755614 
C 346.206033 75.557496 346.686468 78.338745 347.62642 80.978259 
C 348.566371 83.617773 349.951995 86.076677 351.722958 88.247905 
C 353.493921 90.419133 355.624141 92.270708 358.020863 93.722007 
C 360.417584 95.173305 363.045509 96.202954 365.790211 96.766118 
C 368.534912 97.329283 371.355967 97.41767 374.13054 97.027431 
C 376.905113 96.637191 379.59234 95.774073 382.075214 94.475657 
C 384.558087 93.177242 386.800039 91.462653 388.703449 89.406547 
C 390.60686 87.350442 392.143695 84.983101 393.247039 82.407606 
" style="fill:#9cdaff;opacity:0.4;"/>
   </g>
   <g id="text_6">
    <!-- 962 -->
    <g style="fill:#262626;" transform="translate(309.210365 75.340771)scale(0.1 -0.1)">
     <defs>
      <path d="M 3184 3459 
L 2625 3416 
Q 2550 3747 2413 3897 
Q 2184 4138 1850 4138 
Q 1581 4138 1378 3988 
Q 1113 3794 959 3422 
Q 806 3050 800 2363 
Q 1003 2672 1297 2822 
Q 1591 2972 1913 2972 
Q 2475 2972 2870 2558 
Q 3266 2144 3266 1488 
Q 3266 1056 3080 686 
Q 2894 316 2569 119 
Q 2244 -78 1831 -78 
Q 1128 -78 684 439 
Q 241 956 241 2144 
Q 241 3472 731 4075 
Q 1159 4600 1884 4600 
Q 2425 4600 2770 4297 
Q 3116 3994 3184 3459 
z
M 888 1484 
Q 888 1194 1011 928 
Q 1134 663 1356 523 
Q 1578 384 1822 384 
Q 2178 384 2434 671 
Q 2691 959 2691 1453 
Q 2691 1928 2437 2201 
Q 2184 2475 1800 2475 
Q 1419 2475 1153 2201 
Q 888 1928 888 1484 
z
" id="ArialMT-36" transform="scale(0.015625)"/>
     </defs>
     <use xlink:href="#ArialMT-39"/>
     <use x="55.615234" xlink:href="#ArialMT-36"/>
     <use x="111.230469" xlink:href="#ArialMT-32"/>
    </g>
   </g>
   <g id="text_7">
    <!-- 2 -->
    <g style="fill:#262626;" transform="translate(391.903169 75.340771)scale(0.1 -0.1)">
     <use xlink:href="#ArialMT-32"/>
    </g>
   </g>
   <g id="text_8">
    <!-- 264 -->
    <g style="fill:#262626;" transform="translate(361.831519 75.340771)scale(0.1 -0.1)">
     <use xlink:href="#ArialMT-32"/>
     <use x="55.615234" xlink:href="#ArialMT-36"/>
     <use x="111.230469" xlink:href="#ArialMT-34"/>
    </g>
   </g>
   <g id="text_9">
    <!-- Bioregistry -->
    <g style="fill:#262626;" transform="translate(284.837414 137.822736)scale(0.12 -0.12)">
     <use xlink:href="#ArialMT-42"/>
     <use x="66.699219" xlink:href="#ArialMT-69"/>
     <use x="88.916016" xlink:href="#ArialMT-6f"/>
     <use x="144.53125" xlink:href="#ArialMT-72"/>
     <use x="177.832031" xlink:href="#ArialMT-65"/>
     <use x="233.447266" xlink:href="#ArialMT-67"/>
     <use x="289.0625" xlink:href="#ArialMT-69"/>
     <use x="311.279297" xlink:href="#ArialMT-73"/>
     <use x="361.279297" xlink:href="#ArialMT-74"/>
     <use x="389.0625" xlink:href="#ArialMT-72"/>
     <use x="422.363281" xlink:href="#ArialMT-79"/>
    </g>
   </g>
   <g id="text_10">
    <!-- OLS -->
    <g style="fill:#262626;" transform="translate(370.716746 109.712296)scale(0.12 -0.12)">
     <defs>
      <path d="M 469 0 
L 469 4581 
L 1075 4581 
L 1075 541 
L 3331 541 
L 3331 0 
L 469 0 
z
" id="ArialMT-4c" transform="scale(0.015625)"/>
      <path d="M 288 1472 
L 859 1522 
Q 900 1178 1048 958 
Q 1197 738 1509 602 
Q 1822 466 2213 466 
Q 2559 466 2825 569 
Q 3091 672 3220 851 
Q 3350 1031 3350 1244 
Q 3350 1459 3225 1620 
Q 3100 1781 2813 1891 
Q 2628 1963 1997 2114 
Q 1366 2266 1113 2400 
Q 784 2572 623 2826 
Q 463 3081 463 3397 
Q 463 3744 659 4045 
Q 856 4347 1234 4503 
Q 1613 4659 2075 4659 
Q 2584 4659 2973 4495 
Q 3363 4331 3572 4012 
Q 3781 3694 3797 3291 
L 3216 3247 
Q 3169 3681 2898 3903 
Q 2628 4125 2100 4125 
Q 1550 4125 1298 3923 
Q 1047 3722 1047 3438 
Q 1047 3191 1225 3031 
Q 1400 2872 2139 2705 
Q 2878 2538 3153 2413 
Q 3553 2228 3743 1945 
Q 3934 1663 3934 1294 
Q 3934 928 3725 604 
Q 3516 281 3123 101 
Q 2731 -78 2241 -78 
Q 1619 -78 1198 103 
Q 778 284 539 648 
Q 300 1013 288 1472 
z
" id="ArialMT-53" transform="scale(0.015625)"/>
     </defs>
     <use xlink:href="#ArialMT-4f"/>
     <use x="77.783203" xlink:href="#ArialMT-4c"/>
     <use x="133.398438" xlink:href="#ArialMT-53"/>
    </g>
   </g>
  </g>
  <g id="axes_3">
   <g id="patch_8">
    <path clip-path="url(#p5c405d1edb)" d="M 617.413306 85.250134 
C 615.933141 89.938075 613.631649 94.325913 610.616352 98.208652 
C 607.601056 102.091391 603.919656 105.407607 599.744145 108.002369 
C 595.568635 110.597131 590.965069 112.429391 586.148523 113.413546 
C 581.331978 114.397701 576.378648 114.518183 571.51995 113.769363 
C 566.661252 113.020543 561.974049 111.414266 557.677324 109.025578 
C 553.3806 106.63689 549.542325 103.503578 546.341823 99.772029 
C 543.141321 96.040479 540.629222 91.769724 538.922889 87.15929 
C 537.216556 82.548855 536.342983 77.671677 536.342983 72.755614 
C 536.342983 67.839552 537.216556 62.962373 538.922889 58.351939 
C 540.629222 53.741505 543.141321 49.47075 546.341823 45.7392 
C 549.542325 42.007651 553.3806 38.874339 557.677324 36.485651 
C 561.974049 34.096963 566.661252 32.490686 571.51995 31.741866 
C 576.378648 30.993046 581.331978 31.113528 586.148523 32.097683 
C 590.965069 33.081838 595.568635 34.914098 599.744145 37.50886 
C 603.919656 40.103622 607.601056 43.419838 610.616352 47.302577 
C 613.631649 51.185316 615.933141 55.573154 617.413306 60.261095 
C 615.898446 54.063257 613.268981 48.192269 609.653502 42.935244 
C 606.038023 37.678219 601.496443 33.122274 596.250862 29.490212 
C 591.005281 25.858149 585.142626 23.210157 578.949603 21.675733 
C 572.756579 20.141308 566.335814 19.745878 560.001308 20.508782 
C 553.666801 21.271685 547.523524 23.180279 541.871905 26.141226 
C 536.220287 29.102173 531.153982 33.066406 526.920753 37.840059 
C 522.687524 42.613713 519.35752 48.117681 517.093592 54.082798 
C 514.829664 60.047916 513.669327 66.375332 513.669327 72.755614 
C 513.669327 79.135896 514.829664 85.463313 517.093592 91.428431 
C 519.35752 97.393548 522.687524 102.897516 526.920753 107.671169 
C 531.153982 112.444823 536.220287 116.409056 541.871905 119.370003 
C 547.523524 122.33095 553.666801 124.239544 560.001308 125.002447 
C 566.335814 125.76535 572.756579 125.369921 578.949603 123.835496 
C 585.142626 122.301072 591.005281 119.65308 596.250862 116.021017 
C 601.496443 112.388954 606.038023 107.833009 609.653502 102.575985 
C 613.268981 97.31896 615.898446 91.447972 617.413306 85.250134 
" style="fill:#c0c0c0;opacity:0.4;"/>
   </g>
   <g id="patch_9">
    <path clip-path="url(#p5c405d1edb)" d="M 617.413306 60.261095 
C 618.412885 64.350734 618.918097 68.545589 618.918097 72.755614 
C 618.918097 76.96564 618.412885 81.160494 617.413306 85.250134 
C 618.689527 81.208117 619.338955 76.994322 619.338955 72.755614 
C 619.338955 68.516907 618.689527 64.303112 617.413306 60.261095 
" style="fill:#b2df8a;opacity:0.4;"/>
   </g>
   <g id="patch_10">
    <path clip-path="url(#p5c405d1edb)" d="M 617.413306 85.250134 
C 618.412885 81.160494 618.918097 76.96564 618.918097 72.755614 
C 618.918097 68.545589 618.412885 64.350734 617.413306 60.261095 
C 615.933141 55.573154 613.631649 51.185316 610.616352 47.302577 
C 607.601056 43.419838 603.919656 40.103622 599.744145 37.50886 
C 595.568635 34.914098 590.965069 33.081838 586.148523 32.097683 
C 581.331978 31.113528 576.378648 30.993046 571.51995 31.741866 
C 566.661252 32.490686 561.974049 34.096963 557.677324 36.485651 
C 553.3806 38.874339 549.542325 42.007651 546.341823 45.7392 
C 543.141321 49.47075 540.629222 53.741505 538.922889 58.351939 
C 537.216556 62.962373 536.342983 67.839552 536.342983 72.755614 
C 536.342983 77.671677 537.216556 82.548855 538.922889 87.15929 
C 540.629222 91.769724 543.141321 96.040479 546.341823 99.772029 
C 549.542325 103.503578 553.3806 106.63689 557.677324 109.025578 
C 561.974049 111.414266 566.661252 113.020543 571.51995 113.769363 
C 576.378648 114.518183 581.331978 114.397701 586.148523 113.413546 
C 590.965069 112.429391 595.568635 110.597131 599.744145 108.002369 
C 603.919656 105.407607 607.601056 102.091391 610.616352 98.208652 
C 613.631649 94.325913 615.933141 89.938075 617.413306 85.250134 
" style="fill:#ffffe7;opacity:0.4;"/>
   </g>
   <g id="text_11">
    <!-- 465 -->
    <g style="fill:#262626;" transform="translate(516.664749 75.340771)scale(0.1 -0.1)">
     <defs>
      <path d="M 266 1200 
L 856 1250 
Q 922 819 1161 601 
Q 1400 384 1738 384 
Q 2144 384 2425 690 
Q 2706 997 2706 1503 
Q 2706 1984 2436 2262 
Q 2166 2541 1728 2541 
Q 1456 2541 1237 2417 
Q 1019 2294 894 2097 
L 366 2166 
L 809 4519 
L 3088 4519 
L 3088 3981 
L 1259 3981 
L 1013 2750 
Q 1425 3038 1878 3038 
Q 2478 3038 2890 2622 
Q 3303 2206 3303 1553 
Q 3303 931 2941 478 
Q 2500 -78 1738 -78 
Q 1113 -78 717 272 
Q 322 622 266 1200 
z
" id="ArialMT-35" transform="scale(0.015625)"/>
     </defs>
     <use xlink:href="#ArialMT-34"/>
     <use x="55.615234" xlink:href="#ArialMT-36"/>
     <use x="111.230469" xlink:href="#ArialMT-35"/>
    </g>
   </g>
   <g id="text_12">
    <!-- 1 -->
    <g style="fill:#262626;" transform="translate(616.348057 75.340771)scale(0.1 -0.1)">
     <defs>
      <path d="M 2384 0 
L 1822 0 
L 1822 3584 
Q 1619 3391 1289 3197 
Q 959 3003 697 2906 
L 697 3450 
Q 1169 3672 1522 3987 
Q 1875 4303 2022 4600 
L 2384 4600 
L 2384 0 
z
" id="ArialMT-31" transform="scale(0.015625)"/>
     </defs>
     <use xlink:href="#ArialMT-31"/>
    </g>
   </g>
   <g id="text_13">
    <!-- 762 -->
    <g style="fill:#262626;" transform="translate(569.289134 75.340771)scale(0.1 -0.1)">
     <defs>
      <path d="M 303 3981 
L 303 4522 
L 3269 4522 
L 3269 4084 
Q 2831 3619 2401 2847 
Q 1972 2075 1738 1259 
Q 1569 684 1522 0 
L 944 0 
Q 953 541 1156 1306 
Q 1359 2072 1739 2783 
Q 2119 3494 2547 3981 
L 303 3981 
z
" id="ArialMT-37" transform="scale(0.015625)"/>
     </defs>
     <use xlink:href="#ArialMT-37"/>
     <use x="55.615234" xlink:href="#ArialMT-36"/>
     <use x="111.230469" xlink:href="#ArialMT-32"/>
    </g>
   </g>
   <g id="text_14">
    <!-- Bioregistry -->
    <g style="fill:#262626;" transform="translate(509.612462 138.675493)scale(0.12 -0.12)">
     <use xlink:href="#ArialMT-42"/>
     <use x="66.699219" xlink:href="#ArialMT-69"/>
     <use x="88.916016" xlink:href="#ArialMT-6f"/>
     <use x="144.53125" xlink:href="#ArialMT-72"/>
     <use x="177.832031" xlink:href="#ArialMT-65"/>
     <use x="233.447266" xlink:href="#ArialMT-67"/>
     <use x="289.0625" xlink:href="#ArialMT-69"/>
     <use x="311.279297" xlink:href="#ArialMT-73"/>
     <use x="361.279297" xlink:href="#ArialMT-74"/>
     <use x="389.0625" xlink:href="#ArialMT-72"/>
     <use x="422.363281" xlink:href="#ArialMT-79"/>
    </g>
   </g>
   <g id="text_15">
    <!-- MIRIAM -->
    <g style="fill:#262626;" transform="translate(577.840969 127.549094)scale(0.12 -0.12)">
     <defs>
      <path d="M 475 0 
L 475 4581 
L 1388 4581 
L 2472 1338 
Q 2622 884 2691 659 
Q 2769 909 2934 1394 
L 4031 4581 
L 4847 4581 
L 4847 0 
L 4263 0 
L 4263 3834 
L 2931 0 
L 2384 0 
L 1059 3900 
L 1059 0 
L 475 0 
z
" id="ArialMT-4d" transform="scale(0.015625)"/>
      <path d="M 597 0 
L 597 4581 
L 1203 4581 
L 1203 0 
L 597 0 
z
" id="ArialMT-49" transform="scale(0.015625)"/>
      <path d="M 503 0 
L 503 4581 
L 2534 4581 
Q 3147 4581 3465 4457 
Q 3784 4334 3975 4021 
Q 4166 3709 4166 3331 
Q 4166 2844 3850 2509 
Q 3534 2175 2875 2084 
Q 3116 1969 3241 1856 
Q 3506 1613 3744 1247 
L 4541 0 
L 3778 0 
L 3172 953 
Q 2906 1366 2734 1584 
Q 2563 1803 2427 1890 
Q 2291 1978 2150 2013 
Q 2047 2034 1813 2034 
L 1109 2034 
L 1109 0 
L 503 0 
z
M 1109 2559 
L 2413 2559 
Q 2828 2559 3062 2645 
Q 3297 2731 3419 2920 
Q 3541 3109 3541 3331 
Q 3541 3656 3305 3865 
Q 3069 4075 2559 4075 
L 1109 4075 
L 1109 2559 
z
" id="ArialMT-52" transform="scale(0.015625)"/>
      <path d="M -9 0 
L 1750 4581 
L 2403 4581 
L 4278 0 
L 3588 0 
L 3053 1388 
L 1138 1388 
L 634 0 
L -9 0 
z
M 1313 1881 
L 2866 1881 
L 2388 3150 
Q 2169 3728 2063 4100 
Q 1975 3659 1816 3225 
L 1313 1881 
z
" id="ArialMT-41" transform="scale(0.015625)"/>
     </defs>
     <use xlink:href="#ArialMT-4d"/>
     <use x="83.300781" xlink:href="#ArialMT-49"/>
     <use x="111.083984" xlink:href="#ArialMT-52"/>
     <use x="183.300781" xlink:href="#ArialMT-49"/>
     <use x="211.083984" xlink:href="#ArialMT-41"/>
     <use x="277.783203" xlink:href="#ArialMT-4d"/>
    </g>
   </g>
  </g>
  <g id="axes_4">
   <g id="patch_11">
    <path clip-path="url(#p3151eada5c)" d="M 149.857715 232.198427 
C 147.261569 230.092844 145.167948 227.433987 143.730036 224.416395 
C 142.292124 221.398803 141.545867 218.097913 141.545867 214.755242 
C 141.545867 211.412571 142.292124 208.111681 143.730036 205.094089 
C 145.167948 202.076498 147.261569 199.41764 149.857715 197.312058 
C 147.817627 191.577127 144.787164 186.244308 140.904371 181.556526 
C 137.021577 176.868743 132.346319 172.898275 127.091567 169.825984 
C 121.836814 166.753694 116.083587 164.626952 110.093958 163.542636 
C 104.10433 162.45832 97.97065 162.43315 91.972324 163.46827 
C 85.973998 164.503391 80.203509 166.582843 74.923719 169.611903 
C 69.643928 172.640963 64.936241 176.572927 61.015104 181.228684 
C 57.093968 185.884441 54.019839 191.192208 51.932752 196.910203 
C 49.845665 202.628197 48.7778 208.668257 48.7778 214.755242 
C 48.7778 220.842228 49.845665 226.882287 51.932752 232.600282 
C 54.019839 238.318276 57.093968 243.626043 61.015104 248.2818 
C 64.936241 252.937558 69.643928 256.869522 74.923719 259.898581 
C 80.203509 262.927641 85.973998 265.007093 91.972324 266.042214 
C 97.97065 267.077335 104.10433 267.052164 110.093958 265.967848 
C 116.083587 264.883533 121.836814 262.75679 127.091567 259.6845 
C 132.346319 256.61221 137.021577 252.641741 140.904371 247.953959 
C 144.787164 243.266176 147.817627 237.933358 149.857715 232.198427 
" style="fill:#c0c0c0;opacity:0.4;"/>
   </g>
   <g id="patch_12">
    <path clip-path="url(#p3151eada5c)" d="M 149.857715 197.312058 
C 151.849726 202.911841 152.867855 208.811701 152.867855 214.755242 
C 152.867855 220.698784 151.849726 226.598643 149.857715 232.198427 
C 153.153026 234.871061 157.139206 236.55596 161.352394 237.057055 
C 165.565582 237.558151 169.835759 236.855223 173.666015 235.030068 
C 177.496271 233.204914 180.73204 230.331186 182.996784 226.743292 
C 185.261529 223.155398 186.463857 218.998125 186.463857 214.755242 
C 186.463857 210.51236 185.261529 206.355087 182.996784 202.767192 
C 180.73204 199.179298 177.496271 196.30557 173.666015 194.480416 
C 169.835759 192.655261 165.565582 191.952333 161.352394 192.453429 
C 157.139206 192.954525 153.153026 194.639423 149.857715 197.312058 
" style="fill:#33a02c;opacity:0.4;"/>
   </g>
   <g id="patch_13">
    <path clip-path="url(#p3151eada5c)" d="M 149.857715 232.198427 
C 151.849726 226.598643 152.867855 220.698784 152.867855 214.755242 
C 152.867855 208.811701 151.849726 202.911841 149.857715 197.312058 
C 147.261569 199.41764 145.167948 202.076498 143.730036 205.094089 
C 142.292124 208.111681 141.545867 211.412571 141.545867 214.755242 
C 141.545867 218.097913 142.292124 221.398803 143.730036 224.416395 
C 145.167948 227.433987 147.261569 230.092844 149.857715 232.198427 
" style="fill:#aaf6a5;opacity:0.4;"/>
   </g>
   <g id="text_16">
    <!-- 1180 -->
    <g style="fill:#262626;" transform="translate(84.408708 217.340398)scale(0.1 -0.1)">
     <defs>
      <path d="M 266 2259 
Q 266 3072 433 3567 
Q 600 4063 929 4331 
Q 1259 4600 1759 4600 
Q 2128 4600 2406 4451 
Q 2684 4303 2865 4023 
Q 3047 3744 3150 3342 
Q 3253 2941 3253 2259 
Q 3253 1453 3087 958 
Q 2922 463 2592 192 
Q 2263 -78 1759 -78 
Q 1097 -78 719 397 
Q 266 969 266 2259 
z
M 844 2259 
Q 844 1131 1108 757 
Q 1372 384 1759 384 
Q 2147 384 2411 759 
Q 2675 1134 2675 2259 
Q 2675 3391 2411 3762 
Q 2147 4134 1753 4134 
Q 1366 4134 1134 3806 
Q 844 3388 844 2259 
z
" id="ArialMT-30" transform="scale(0.015625)"/>
     </defs>
     <use xlink:href="#ArialMT-31"/>
     <use x="48.240234" xlink:href="#ArialMT-31"/>
     <use x="103.855469" xlink:href="#ArialMT-38"/>
     <use x="159.470703" xlink:href="#ArialMT-30"/>
    </g>
   </g>
   <g id="text_17">
    <!-- 188 -->
    <g style="fill:#262626;" transform="translate(161.32445 217.340398)scale(0.1 -0.1)">
     <use xlink:href="#ArialMT-31"/>
     <use x="55.615234" xlink:href="#ArialMT-38"/>
     <use x="111.230469" xlink:href="#ArialMT-38"/>
    </g>
   </g>
   <g id="text_18">
    <!-- 39 -->
    <g style="fill:#262626;" transform="translate(141.645923 217.340398)scale(0.1 -0.1)">
     <use xlink:href="#ArialMT-33"/>
     <use x="55.615234" xlink:href="#ArialMT-39"/>
    </g>
   </g>
   <g id="text_19">
    <!-- Bioregistry -->
    <g style="fill:#262626;" transform="translate(44.141577 279.114846)scale(0.12 -0.12)">
     <use xlink:href="#ArialMT-42"/>
     <use x="66.699219" xlink:href="#ArialMT-69"/>
     <use x="88.916016" xlink:href="#ArialMT-6f"/>
     <use x="144.53125" xlink:href="#ArialMT-72"/>
     <use x="177.832031" xlink:href="#ArialMT-65"/>
     <use x="233.447266" xlink:href="#ArialMT-67"/>
     <use x="289.0625" xlink:href="#ArialMT-69"/>
     <use x="311.279297" xlink:href="#ArialMT-73"/>
     <use x="361.279297" xlink:href="#ArialMT-74"/>
     <use x="389.0625" xlink:href="#ArialMT-72"/>
     <use x="422.363281" xlink:href="#ArialMT-79"/>
    </g>
   </g>
   <g id="text_20">
    <!-- Wikidata -->
    <g style="fill:#262626;" transform="translate(164.004862 249.528813)scale(0.12 -0.12)">
     <defs>
      <path d="M 1294 0 
L 78 4581 
L 700 4581 
L 1397 1578 
Q 1509 1106 1591 641 
Q 1766 1375 1797 1488 
L 2669 4581 
L 3400 4581 
L 4056 2263 
Q 4303 1400 4413 641 
Q 4500 1075 4641 1638 
L 5359 4581 
L 5969 4581 
L 4713 0 
L 4128 0 
L 3163 3491 
Q 3041 3928 3019 4028 
Q 2947 3713 2884 3491 
L 1913 0 
L 1294 0 
z
" id="ArialMT-57" transform="scale(0.015625)"/>
      <path d="M 425 0 
L 425 4581 
L 988 4581 
L 988 1969 
L 2319 3319 
L 3047 3319 
L 1778 2088 
L 3175 0 
L 2481 0 
L 1384 1697 
L 988 1316 
L 988 0 
L 425 0 
z
" id="ArialMT-6b" transform="scale(0.015625)"/>
      <path d="M 2575 0 
L 2575 419 
Q 2259 -75 1647 -75 
Q 1250 -75 917 144 
Q 584 363 401 755 
Q 219 1147 219 1656 
Q 219 2153 384 2558 
Q 550 2963 881 3178 
Q 1213 3394 1622 3394 
Q 1922 3394 2156 3267 
Q 2391 3141 2538 2938 
L 2538 4581 
L 3097 4581 
L 3097 0 
L 2575 0 
z
M 797 1656 
Q 797 1019 1065 703 
Q 1334 388 1700 388 
Q 2069 388 2326 689 
Q 2584 991 2584 1609 
Q 2584 2291 2321 2609 
Q 2059 2928 1675 2928 
Q 1300 2928 1048 2622 
Q 797 2316 797 1656 
z
" id="ArialMT-64" transform="scale(0.015625)"/>
      <path d="M 2588 409 
Q 2275 144 1986 34 
Q 1697 -75 1366 -75 
Q 819 -75 525 192 
Q 231 459 231 875 
Q 231 1119 342 1320 
Q 453 1522 633 1644 
Q 813 1766 1038 1828 
Q 1203 1872 1538 1913 
Q 2219 1994 2541 2106 
Q 2544 2222 2544 2253 
Q 2544 2597 2384 2738 
Q 2169 2928 1744 2928 
Q 1347 2928 1158 2789 
Q 969 2650 878 2297 
L 328 2372 
Q 403 2725 575 2942 
Q 747 3159 1072 3276 
Q 1397 3394 1825 3394 
Q 2250 3394 2515 3294 
Q 2781 3194 2906 3042 
Q 3031 2891 3081 2659 
Q 3109 2516 3109 2141 
L 3109 1391 
Q 3109 606 3145 398 
Q 3181 191 3288 0 
L 2700 0 
Q 2613 175 2588 409 
z
M 2541 1666 
Q 2234 1541 1622 1453 
Q 1275 1403 1131 1340 
Q 988 1278 909 1158 
Q 831 1038 831 891 
Q 831 666 1001 516 
Q 1172 366 1500 366 
Q 1825 366 2078 508 
Q 2331 650 2450 897 
Q 2541 1088 2541 1459 
L 2541 1666 
z
" id="ArialMT-61" transform="scale(0.015625)"/>
     </defs>
     <use xlink:href="#ArialMT-57"/>
     <use x="94.384766" xlink:href="#ArialMT-69"/>
     <use x="116.601562" xlink:href="#ArialMT-6b"/>
     <use x="166.601562" xlink:href="#ArialMT-69"/>
     <use x="188.818359" xlink:href="#ArialMT-64"/>
     <use x="244.433594" xlink:href="#ArialMT-61"/>
     <use x="300.048828" xlink:href="#ArialMT-74"/>
     <use x="327.832031" xlink:href="#ArialMT-61"/>
    </g>
   </g>
  </g>
  <g id="axes_5">
   <g id="patch_14">
    <path clip-path="url(#p2c9ad6bfc8)" d="M 388.158614 237.98227 
C 385.724708 241.307682 382.783165 244.229958 379.44183 246.641959 
C 376.100495 249.053959 372.400708 250.925843 368.478114 252.188982 
C 364.555519 253.45212 360.458648 254.090885 356.337703 254.081858 
C 352.216759 254.072831 348.122725 253.416124 344.205702 252.135812 
C 340.288679 250.855501 336.597128 248.967427 333.266393 246.540811 
C 329.935657 244.114195 327.006944 241.17906 324.58763 237.843016 
C 322.168316 234.506973 320.288332 230.811295 319.016604 226.891477 
C 317.744877 222.971659 317.097139 218.876197 317.097139 214.755242 
C 317.097139 210.634288 317.744877 206.538826 319.016604 202.619007 
C 320.288332 198.699189 322.168316 195.003511 324.58763 191.667468 
C 327.006944 188.331425 329.935657 185.39629 333.266393 182.969674 
C 336.597128 180.543058 340.288679 178.654983 344.205702 177.374672 
C 348.122725 176.094361 352.216759 175.437653 356.337703 175.428626 
C 360.458648 175.419599 364.555519 176.058364 368.478114 177.321503 
C 372.400708 178.584641 376.100495 180.456525 379.44183 182.868526 
C 382.783165 185.280526 385.724708 188.202802 388.158614 191.528215 
C 385.554795 186.238209 382.079876 181.423509 377.879442 177.285829 
C 373.679008 173.14815 368.812551 169.746093 363.483953 167.222191 
C 358.155355 164.698289 352.440086 163.088288 346.577592 162.45964 
C 340.715098 161.830992 334.788409 162.1926 329.045829 163.529316 
C 323.303248 164.866031 317.826109 167.158921 312.843879 170.311923 
C 307.86165 173.464926 303.444893 177.433385 299.778654 182.051038 
C 296.112414 186.668692 293.248617 191.87014 291.307242 197.437464 
C 289.365867 203.004789 288.37441 208.859139 288.37441 214.755242 
C 288.37441 220.651346 289.365867 226.505696 291.307242 232.07302 
C 293.248617 237.640344 296.112414 242.841793 299.778654 247.459446 
C 303.444893 252.0771 307.86165 256.045558 312.843879 259.198561 
C 317.826109 262.351563 323.303248 264.644453 329.045829 265.981169 
C 334.788409 267.317884 340.715098 267.679493 346.577592 267.050844 
C 352.440086 266.422196 358.155355 264.812195 363.483953 262.288293 
C 368.812551 259.764391 373.679008 256.362335 377.879442 252.224655 
C 382.079876 248.086976 385.554795 243.272275 388.158614 237.98227 
" style="fill:#c0c0c0;opacity:0.4;"/>
   </g>
   <g id="patch_15">
    <path clip-path="url(#p2c9ad6bfc8)" d="M 388.158614 191.528215 
C 391.715326 198.754147 393.56523 206.701405 393.56523 214.755242 
C 393.56523 222.80908 391.715326 230.756337 388.158614 237.98227 
C 393.090717 231.243606 395.750559 223.106004 395.750559 214.755242 
C 395.750559 206.40448 393.090717 198.266878 388.158614 191.528215 
" style="fill:#fb9a99;opacity:0.4;"/>
   </g>
   <g id="patch_16">
    <path clip-path="url(#p2c9ad6bfc8)" d="M 388.158614 237.98227 
C 391.715326 230.756337 393.56523 222.80908 393.56523 214.755242 
C 393.56523 206.701405 391.715326 198.754147 388.158614 191.528215 
C 385.724708 188.202802 382.783165 185.280526 379.44183 182.868526 
C 376.100495 180.456525 372.400708 178.584641 368.478114 177.321503 
C 364.555519 176.058364 360.458648 175.419599 356.337703 175.428626 
C 352.216759 175.437653 348.122725 176.094361 344.205702 177.374672 
C 340.288679 178.654983 336.597128 180.543058 333.266393 182.969674 
C 329.935657 185.39629 327.006944 188.331425 324.58763 191.667468 
C 322.168316 195.003511 320.288332 198.699189 319.016604 202.619007 
C 317.744877 206.538826 317.097139 210.634288 317.097139 214.755242 
C 317.097139 218.876197 317.744877 222.971659 319.016604 226.891477 
C 320.288332 230.811295 322.168316 234.506973 324.58763 237.843016 
C 327.006944 241.17906 329.935657 244.114195 333.266393 246.540811 
C 336.597128 248.967427 340.288679 250.855501 344.205702 252.135812 
C 348.122725 253.416124 352.216759 254.072831 356.337703 254.081858 
C 360.458648 254.090885 364.555519 253.45212 368.478114 252.188982 
C 372.400708 250.925843 376.100495 249.053959 379.44183 246.641959 
C 382.783165 244.229958 385.724708 241.307682 388.158614 237.98227 
" style="fill:#fff2f2;opacity:0.4;"/>
   </g>
   <g id="text_21">
    <!-- 551 -->
    <g style="fill:#262626;" transform="translate(294.394368 217.340398)scale(0.1 -0.1)">
     <use xlink:href="#ArialMT-35"/>
     <use x="55.615234" xlink:href="#ArialMT-35"/>
     <use x="111.230469" xlink:href="#ArialMT-31"/>
    </g>
   </g>
   <g id="text_22">
    <!-- 10 -->
    <g style="fill:#262626;" transform="translate(389.096957 217.340398)scale(0.1 -0.1)">
     <use xlink:href="#ArialMT-31"/>
     <use x="55.615234" xlink:href="#ArialMT-30"/>
    </g>
   </g>
   <g id="text_23">
    <!-- 676 -->
    <g style="fill:#262626;" transform="translate(346.989778 217.340398)scale(0.1 -0.1)">
     <use xlink:href="#ArialMT-36"/>
     <use x="55.615234" xlink:href="#ArialMT-37"/>
     <use x="111.230469" xlink:href="#ArialMT-36"/>
    </g>
   </g>
   <g id="text_24">
    <!-- Bioregistry -->
    <g style="fill:#262626;" transform="translate(284.28857 280.536133)scale(0.12 -0.12)">
     <use xlink:href="#ArialMT-42"/>
     <use x="66.699219" xlink:href="#ArialMT-69"/>
     <use x="88.916016" xlink:href="#ArialMT-6f"/>
     <use x="144.53125" xlink:href="#ArialMT-72"/>
     <use x="177.832031" xlink:href="#ArialMT-65"/>
     <use x="233.447266" xlink:href="#ArialMT-67"/>
     <use x="289.0625" xlink:href="#ArialMT-69"/>
     <use x="311.279297" xlink:href="#ArialMT-73"/>
     <use x="361.279297" xlink:href="#ArialMT-74"/>
     <use x="389.0625" xlink:href="#ArialMT-72"/>
     <use x="422.363281" xlink:href="#ArialMT-79"/>
    </g>
   </g>
   <g id="text_25">
    <!-- N2T -->
    <g style="fill:#262626;" transform="translate(356.423849 267.267433)scale(0.12 -0.12)">
     <defs>
      <path d="M 488 0 
L 488 4581 
L 1109 4581 
L 3516 984 
L 3516 4581 
L 4097 4581 
L 4097 0 
L 3475 0 
L 1069 3600 
L 1069 0 
L 488 0 
z
" id="ArialMT-4e" transform="scale(0.015625)"/>
      <path d="M 1659 0 
L 1659 4041 
L 150 4041 
L 150 4581 
L 3781 4581 
L 3781 4041 
L 2266 4041 
L 2266 0 
L 1659 0 
z
" id="ArialMT-54" transform="scale(0.015625)"/>
     </defs>
     <use xlink:href="#ArialMT-4e"/>
     <use x="72.216797" xlink:href="#ArialMT-32"/>
     <use x="127.832031" xlink:href="#ArialMT-54"/>
    </g>
   </g>
  </g>
  <g id="axes_6">
   <g id="patch_17">
    <path clip-path="url(#pbc1afc77d0)" d="M 602.40564 238.633504 
C 596.565715 237.934606 591.180356 235.117012 587.276348 230.717932 
C 583.372341 226.318852 581.214641 220.636839 581.214641 214.755242 
C 581.214641 208.873645 583.372341 203.191633 587.276348 198.792552 
C 591.180356 194.393472 596.565715 191.575878 602.40564 190.87698 
C 599.746138 185.701654 596.240603 181.006816 592.03403 176.986654 
C 587.827457 172.966492 582.978655 169.677207 577.688177 167.254851 
C 572.3977 164.832495 566.739509 163.310932 560.947638 162.753096 
C 555.155766 162.19526 549.311184 162.60895 543.655634 163.977056 
C 538.000084 165.345161 532.61263 167.648555 527.716108 170.791966 
C 522.819586 173.935376 518.482449 177.874858 514.884088 182.447468 
C 511.285727 187.020077 508.476448 192.161889 506.572447 197.660229 
C 504.668447 203.158568 503.696342 208.936569 503.696342 214.755242 
C 503.696342 220.573915 504.668447 226.351916 506.572447 231.850256 
C 508.476448 237.348595 511.285727 242.490407 514.884088 247.063017 
C 518.482449 251.635626 522.819586 255.575108 527.716108 258.718519 
C 532.61263 261.861929 538.000084 264.165323 543.655634 265.533429 
C 549.311184 266.901534 555.155766 267.315224 560.947638 266.757388 
C 566.739509 266.199552 572.3977 264.677989 577.688177 262.255633 
C 582.978655 259.833277 587.827457 256.543993 592.03403 252.523831 
C 596.240603 248.503668 599.746138 243.808831 602.40564 238.633504 
" style="fill:#c0c0c0;opacity:0.4;"/>
   </g>
   <g id="patch_18">
    <path clip-path="url(#pbc1afc77d0)" d="M 602.40564 190.87698 
C 606.20155 198.263728 608.181909 206.450246 608.181909 214.755242 
C 608.181909 223.060239 606.20155 231.246757 602.40564 238.633504 
C 605.780762 239.037424 609.203485 238.721198 612.447469 237.705735 
C 615.691454 236.690273 618.683579 234.998463 621.22598 232.742184 
C 623.768381 230.485906 625.803752 227.716014 627.197495 224.615679 
C 628.591239 221.515344 629.31194 218.154447 629.31194 214.755242 
C 629.31194 211.356037 628.591239 207.99514 627.197495 204.894806 
C 625.803752 201.794471 623.768381 199.024579 621.22598 196.7683 
C 618.683579 194.512021 615.691454 192.820212 612.447469 191.804749 
C 609.203485 190.789287 605.780762 190.47306 602.40564 190.87698 
" style="fill:#e31a1c;opacity:0.4;"/>
   </g>
   <g id="patch_19">
    <path clip-path="url(#pbc1afc77d0)" d="M 602.40564 238.633504 
C 606.20155 231.246757 608.181909 223.060239 608.181909 214.755242 
C 608.181909 206.450246 606.20155 198.263728 602.40564 190.87698 
C 596.565715 191.575878 591.180356 194.393472 587.276348 198.792552 
C 583.372341 203.191633 581.214641 208.873645 581.214641 214.755242 
C 581.214641 220.636839 583.372341 226.318852 587.276348 230.717932 
C 591.180356 235.117012 596.565715 237.934606 602.40564 238.633504 
" style="fill:#ff999a;opacity:0.4;"/>
   </g>
   <g id="text_26">
    <!-- 1090 -->
    <g style="fill:#262626;" transform="translate(531.333617 217.340398)scale(0.1 -0.1)">
     <use xlink:href="#ArialMT-31"/>
     <use x="55.615234" xlink:href="#ArialMT-30"/>
     <use x="111.230469" xlink:href="#ArialMT-39"/>
     <use x="166.845703" xlink:href="#ArialMT-30"/>
    </g>
   </g>
   <g id="text_27">
    <!-- 123 -->
    <g style="fill:#262626;" transform="translate(610.405518 217.340398)scale(0.1 -0.1)">
     <use xlink:href="#ArialMT-31"/>
     <use x="55.615234" xlink:href="#ArialMT-32"/>
     <use x="111.230469" xlink:href="#ArialMT-33"/>
    </g>
   </g>
   <g id="text_28">
    <!-- 137 -->
    <g style="fill:#262626;" transform="translate(586.356868 217.340398)scale(0.1 -0.1)">
     <use xlink:href="#ArialMT-31"/>
     <use x="55.615234" xlink:href="#ArialMT-33"/>
     <use x="111.230469" xlink:href="#ArialMT-37"/>
    </g>
   </g>
   <g id="text_29">
    <!-- Bioregistry -->
    <g style="fill:#262626;" transform="translate(499.257876 279.401972)scale(0.12 -0.12)">
     <use xlink:href="#ArialMT-42"/>
     <use x="66.699219" xlink:href="#ArialMT-69"/>
     <use x="88.916016" xlink:href="#ArialMT-6f"/>
     <use x="144.53125" xlink:href="#ArialMT-72"/>
     <use x="177.832031" xlink:href="#ArialMT-65"/>
     <use x="233.447266" xlink:href="#ArialMT-67"/>
     <use x="289.0625" xlink:href="#ArialMT-69"/>
     <use x="311.279297" xlink:href="#ArialMT-73"/>
     <use x="361.279297" xlink:href="#ArialMT-74"/>
     <use x="389.0625" xlink:href="#ArialMT-72"/>
     <use x="422.363281" xlink:href="#ArialMT-79"/>
    </g>
   </g>
   <g id="text_30">
    <!-- GO -->
    <g style="fill:#262626;" transform="translate(605.26329 251.207839)scale(0.12 -0.12)">
     <defs>
      <path d="M 2638 1797 
L 2638 2334 
L 4578 2338 
L 4578 638 
Q 4131 281 3656 101 
Q 3181 -78 2681 -78 
Q 2006 -78 1454 211 
Q 903 500 622 1047 
Q 341 1594 341 2269 
Q 341 2938 620 3517 
Q 900 4097 1425 4378 
Q 1950 4659 2634 4659 
Q 3131 4659 3532 4498 
Q 3934 4338 4162 4050 
Q 4391 3763 4509 3300 
L 3963 3150 
Q 3859 3500 3706 3700 
Q 3553 3900 3268 4020 
Q 2984 4141 2638 4141 
Q 2222 4141 1919 4014 
Q 1616 3888 1430 3681 
Q 1244 3475 1141 3228 
Q 966 2803 966 2306 
Q 966 1694 1177 1281 
Q 1388 869 1791 669 
Q 2194 469 2647 469 
Q 3041 469 3416 620 
Q 3791 772 3984 944 
L 3984 1797 
L 2638 1797 
z
" id="ArialMT-47" transform="scale(0.015625)"/>
     </defs>
     <use xlink:href="#ArialMT-47"/>
     <use x="77.783203" xlink:href="#ArialMT-4f"/>
    </g>
   </g>
  </g>
  <g id="axes_7">
   <g id="patch_20">
    <path clip-path="url(#p1800a023a3)" d="M 126.240825 394.078652 
C 119.971878 390.075935 114.811261 384.557581 111.237057 378.034813 
C 107.662852 371.512045 105.78895 364.192708 105.78895 356.75487 
C 105.78895 349.317032 107.662852 341.997695 111.237057 335.474927 
C 114.811261 328.952159 119.971878 323.433805 126.240825 319.431088 
C 118.983791 312.719857 109.924565 308.268636 100.177584 306.625001 
C 90.430604 304.981365 80.412639 306.215595 71.356069 310.17586 
C 62.299498 314.136124 54.59157 320.653085 49.180491 328.925049 
C 43.769411 337.197013 40.886551 346.870278 40.886551 356.75487 
C 40.886551 366.639462 43.769411 376.312727 49.180491 384.584691 
C 54.59157 392.856654 62.299498 399.373616 71.356069 403.33388 
C 80.412639 407.294145 90.430604 408.528374 100.177584 406.884739 
C 109.924565 405.241104 118.983791 400.789883 126.240825 394.078652 
" style="fill:#c0c0c0;opacity:0.4;"/>
   </g>
   <g id="patch_21">
    <path clip-path="url(#p1800a023a3)" d="M 126.240825 319.431088 
C 131.387529 324.190706 135.494557 329.963826 138.303184 336.386765 
C 141.111812 342.809703 142.561797 349.744697 142.561797 356.75487 
C 142.561797 363.765043 141.111812 370.700036 138.303184 377.122975 
C 135.494557 383.545914 131.387529 389.319033 126.240825 394.078652 
C 132.933306 398.351796 140.653518 400.747275 148.58941 401.013121 
C 156.525303 401.278968 164.38852 399.405522 171.351971 395.589841 
C 178.315422 391.774161 184.126085 386.154892 188.172765 379.323095 
C 192.219446 372.491299 194.355106 364.695214 194.355106 356.75487 
C 194.355106 348.814526 192.219446 341.018441 188.172765 334.186645 
C 184.126085 327.354848 178.315422 321.735579 171.351971 317.919899 
C 164.38852 314.104218 156.525303 312.230772 148.58941 312.496619 
C 140.653518 312.762465 132.933306 315.157944 126.240825 319.431088 
" style="fill:#fdbf6f;opacity:0.4;"/>
   </g>
   <g id="patch_22">
    <path clip-path="url(#p1800a023a3)" d="M 126.240825 394.078652 
C 131.387529 389.319033 135.494557 383.545914 138.303184 377.122975 
C 141.111812 370.700036 142.561797 363.765043 142.561797 356.75487 
C 142.561797 349.744697 141.111812 342.809703 138.303184 336.386765 
C 135.494557 329.963826 131.387529 324.190706 126.240825 319.431088 
C 119.971878 323.433805 114.811261 328.952159 111.237057 335.474927 
C 107.662852 341.997695 105.78895 349.317032 105.78895 356.75487 
C 105.78895 364.192708 107.662852 371.512045 111.237057 378.034813 
C 114.811261 384.557581 119.971878 390.075935 126.240825 394.078652 
" style="fill:#ffffd4;opacity:0.4;"/>
   </g>
   <g id="text_31">
    <!-- 937 -->
    <g style="fill:#262626;" transform="translate(64.996344 359.340026)scale(0.1 -0.1)">
     <use xlink:href="#ArialMT-39"/>
     <use x="55.615234" xlink:href="#ArialMT-33"/>
     <use x="111.230469" xlink:href="#ArialMT-37"/>
    </g>
   </g>
   <g id="text_32">
    <!-- 641 -->
    <g style="fill:#262626;" transform="translate(160.117045 359.340026)scale(0.1 -0.1)">
     <use xlink:href="#ArialMT-36"/>
     <use x="55.615234" xlink:href="#ArialMT-34"/>
     <use x="111.230469" xlink:href="#ArialMT-31"/>
    </g>
   </g>
   <g id="text_33">
    <!-- 290 -->
    <g style="fill:#262626;" transform="translate(115.833968 359.340026)scale(0.1 -0.1)">
     <use xlink:href="#ArialMT-32"/>
     <use x="55.615234" xlink:href="#ArialMT-39"/>
     <use x="111.230469" xlink:href="#ArialMT-30"/>
    </g>
   </g>
   <g id="text_34">
    <!-- Bioregistry -->
    <g style="fill:#262626;" transform="translate(35.042924 420.937903)scale(0.12 -0.12)">
     <use xlink:href="#ArialMT-42"/>
     <use x="66.699219" xlink:href="#ArialMT-69"/>
     <use x="88.916016" xlink:href="#ArialMT-6f"/>
     <use x="144.53125" xlink:href="#ArialMT-72"/>
     <use x="177.832031" xlink:href="#ArialMT-65"/>
     <use x="233.447266" xlink:href="#ArialMT-67"/>
     <use x="289.0625" xlink:href="#ArialMT-69"/>
     <use x="311.279297" xlink:href="#ArialMT-73"/>
     <use x="361.279297" xlink:href="#ArialMT-74"/>
     <use x="389.0625" xlink:href="#ArialMT-72"/>
     <use x="422.363281" xlink:href="#ArialMT-79"/>
    </g>
   </g>
   <g id="text_35">
    <!-- BioPortal -->
    <g style="fill:#262626;" transform="translate(150.072028 414.383358)scale(0.12 -0.12)">
     <defs>
      <path d="M 494 0 
L 494 4581 
L 2222 4581 
Q 2678 4581 2919 4538 
Q 3256 4481 3484 4323 
Q 3713 4166 3852 3881 
Q 3991 3597 3991 3256 
Q 3991 2672 3619 2267 
Q 3247 1863 2275 1863 
L 1100 1863 
L 1100 0 
L 494 0 
z
M 1100 2403 
L 2284 2403 
Q 2872 2403 3119 2622 
Q 3366 2841 3366 3238 
Q 3366 3525 3220 3729 
Q 3075 3934 2838 4000 
Q 2684 4041 2272 4041 
L 1100 4041 
L 1100 2403 
z
" id="ArialMT-50" transform="scale(0.015625)"/>
      <path d="M 409 0 
L 409 4581 
L 972 4581 
L 972 0 
L 409 0 
z
" id="ArialMT-6c" transform="scale(0.015625)"/>
     </defs>
     <use xlink:href="#ArialMT-42"/>
     <use x="66.699219" xlink:href="#ArialMT-69"/>
     <use x="88.916016" xlink:href="#ArialMT-6f"/>
     <use x="144.53125" xlink:href="#ArialMT-50"/>
     <use x="211.230469" xlink:href="#ArialMT-6f"/>
     <use x="266.845703" xlink:href="#ArialMT-72"/>
     <use x="300.146484" xlink:href="#ArialMT-74"/>
     <use x="327.929688" xlink:href="#ArialMT-61"/>
     <use x="383.544922" xlink:href="#ArialMT-6c"/>
    </g>
   </g>
  </g>
  <g id="axes_8">
   <g id="patch_23">
    <path clip-path="url(#p01371e2831)" d="M 362.667833 401.961867 
C 355.996133 403.26617 349.117687 403.077519 342.527508 401.40949 
C 335.937329 399.741461 329.797392 396.635052 324.549563 392.313818 
C 319.301733 387.992584 315.074994 382.562733 312.173525 376.415029 
C 309.272057 370.267325 307.767173 363.552868 307.767173 356.75487 
C 307.767173 349.956872 309.272057 343.242415 312.173525 337.094711 
C 315.074994 330.947007 319.301733 325.517156 324.549563 321.195922 
C 329.797392 316.874688 335.937329 313.768279 342.527508 312.10025 
C 349.117687 310.432221 355.996133 310.24357 362.667833 311.547873 
C 354.727234 306.947588 345.712986 304.519635 336.536078 304.509387 
C 327.359171 304.499139 318.339523 306.906952 310.388669 311.489491 
C 302.437815 316.07203 295.832932 322.66954 291.241518 330.615272 
C 286.650103 338.561003 284.232219 347.577957 284.232219 356.75487 
C 284.232219 365.931783 286.650103 374.948737 291.241518 382.894468 
C 295.832932 390.8402 302.437815 397.43771 310.388669 402.020249 
C 318.339523 406.602788 327.359171 409.010601 336.536078 409.000353 
C 345.712986 408.990104 354.727234 406.562152 362.667833 401.961867 
" style="fill:#c0c0c0;opacity:0.4;"/>
   </g>
   <g id="patch_24">
    <path clip-path="url(#p01371e2831)" d="M 362.667833 311.547873 
C 370.591319 316.138244 377.17045 322.732086 381.743113 330.665805 
C 386.315776 338.599523 388.723249 347.597734 388.723249 356.75487 
C 388.723249 365.912006 386.315776 374.910217 381.743113 382.843935 
C 377.17045 390.777654 370.591319 397.371496 362.667833 401.961867 
C 373.149859 399.912653 382.599742 394.280228 389.38891 386.035269 
C 396.178078 377.790311 399.892751 367.435326 399.892751 356.75487 
C 399.892751 346.074414 396.178078 335.719429 389.38891 327.474471 
C 382.599742 319.229512 373.149859 313.597086 362.667833 311.547873 
" style="fill:#ff7f00;opacity:0.4;"/>
   </g>
   <g id="patch_25">
    <path clip-path="url(#p01371e2831)" d="M 362.667833 401.961867 
C 370.591319 397.371496 377.17045 390.777654 381.743113 382.843935 
C 386.315776 374.910217 388.723249 365.912006 388.723249 356.75487 
C 388.723249 347.597734 386.315776 338.599523 381.743113 330.665805 
C 377.17045 322.732086 370.591319 316.138244 362.667833 311.547873 
C 355.996133 310.24357 349.117687 310.432221 342.527508 312.10025 
C 335.937329 313.768279 329.797392 316.874688 324.549563 321.195922 
C 319.301733 325.517156 315.074994 330.947007 312.173525 337.094711 
C 309.272057 343.242415 307.767173 349.956872 307.767173 356.75487 
C 307.767173 363.552868 309.272057 370.267325 312.173525 376.415029 
C 315.074994 382.562733 319.301733 387.992584 324.549563 392.313818 
C 329.797392 396.635052 335.937329 399.741461 342.527508 401.40949 
C 349.117687 403.077519 355.996133 403.26617 362.667833 401.961867 
" style="fill:#ffdf86;opacity:0.4;"/>
   </g>
   <g id="text_36">
    <!-- 395 -->
    <g style="fill:#262626;" transform="translate(287.658289 359.340026)scale(0.1 -0.1)">
     <use xlink:href="#ArialMT-33"/>
     <use x="55.615234" xlink:href="#ArialMT-39"/>
     <use x="111.230469" xlink:href="#ArialMT-35"/>
    </g>
   </g>
   <g id="text_37">
    <!-- 122 -->
    <g style="fill:#262626;" transform="translate(385.966594 359.340026)scale(0.1 -0.1)">
     <use xlink:href="#ArialMT-31"/>
     <use x="55.615234" xlink:href="#ArialMT-32"/>
     <use x="111.230469" xlink:href="#ArialMT-32"/>
    </g>
   </g>
   <g id="text_38">
    <!-- 831 -->
    <g style="fill:#262626;" transform="translate(339.903805 359.340026)scale(0.1 -0.1)">
     <use xlink:href="#ArialMT-38"/>
     <use x="55.615234" xlink:href="#ArialMT-33"/>
     <use x="111.230469" xlink:href="#ArialMT-31"/>
    </g>
   </g>
   <g id="text_39">
    <!-- Bioregistry -->
    <g style="fill:#262626;" transform="translate(279.796484 422.505175)scale(0.12 -0.12)">
     <use xlink:href="#ArialMT-42"/>
     <use x="66.699219" xlink:href="#ArialMT-69"/>
     <use x="88.916016" xlink:href="#ArialMT-6f"/>
     <use x="144.53125" xlink:href="#ArialMT-72"/>
     <use x="177.832031" xlink:href="#ArialMT-65"/>
     <use x="233.447266" xlink:href="#ArialMT-67"/>
     <use x="289.0625" xlink:href="#ArialMT-69"/>
     <use x="311.279297" xlink:href="#ArialMT-73"/>
     <use x="361.279297" xlink:href="#ArialMT-74"/>
     <use x="389.0625" xlink:href="#ArialMT-72"/>
     <use x="422.363281" xlink:href="#ArialMT-79"/>
    </g>
   </g>
   <g id="text_40">
    <!-- Prefix Commons -->
    <g style="fill:#262626;" transform="translate(353.829962 416.322449)scale(0.12 -0.12)">
     <defs>
      <path d="M 556 0 
L 556 2881 
L 59 2881 
L 59 3319 
L 556 3319 
L 556 3672 
Q 556 4006 616 4169 
Q 697 4388 901 4523 
Q 1106 4659 1475 4659 
Q 1713 4659 2000 4603 
L 1916 4113 
Q 1741 4144 1584 4144 
Q 1328 4144 1222 4034 
Q 1116 3925 1116 3625 
L 1116 3319 
L 1763 3319 
L 1763 2881 
L 1116 2881 
L 1116 0 
L 556 0 
z
" id="ArialMT-66" transform="scale(0.015625)"/>
      <path d="M 47 0 
L 1259 1725 
L 138 3319 
L 841 3319 
L 1350 2541 
Q 1494 2319 1581 2169 
Q 1719 2375 1834 2534 
L 2394 3319 
L 3066 3319 
L 1919 1756 
L 3153 0 
L 2463 0 
L 1781 1031 
L 1600 1309 
L 728 0 
L 47 0 
z
" id="ArialMT-78" transform="scale(0.015625)"/>
      <path id="ArialMT-20" transform="scale(0.015625)"/>
      <path d="M 3763 1606 
L 4369 1453 
Q 4178 706 3683 314 
Q 3188 -78 2472 -78 
Q 1731 -78 1267 223 
Q 803 525 561 1097 
Q 319 1669 319 2325 
Q 319 3041 592 3573 
Q 866 4106 1370 4382 
Q 1875 4659 2481 4659 
Q 3169 4659 3637 4309 
Q 4106 3959 4291 3325 
L 3694 3184 
Q 3534 3684 3231 3912 
Q 2928 4141 2469 4141 
Q 1941 4141 1586 3887 
Q 1231 3634 1087 3207 
Q 944 2781 944 2328 
Q 944 1744 1114 1308 
Q 1284 872 1643 656 
Q 2003 441 2422 441 
Q 2931 441 3284 734 
Q 3638 1028 3763 1606 
z
" id="ArialMT-43" transform="scale(0.015625)"/>
      <path d="M 422 0 
L 422 3319 
L 925 3319 
L 925 2853 
Q 1081 3097 1340 3245 
Q 1600 3394 1931 3394 
Q 2300 3394 2536 3241 
Q 2772 3088 2869 2813 
Q 3263 3394 3894 3394 
Q 4388 3394 4653 3120 
Q 4919 2847 4919 2278 
L 4919 0 
L 4359 0 
L 4359 2091 
Q 4359 2428 4304 2576 
Q 4250 2725 4106 2815 
Q 3963 2906 3769 2906 
Q 3419 2906 3187 2673 
Q 2956 2441 2956 1928 
L 2956 0 
L 2394 0 
L 2394 2156 
Q 2394 2531 2256 2718 
Q 2119 2906 1806 2906 
Q 1569 2906 1367 2781 
Q 1166 2656 1075 2415 
Q 984 2175 984 1722 
L 984 0 
L 422 0 
z
" id="ArialMT-6d" transform="scale(0.015625)"/>
      <path d="M 422 0 
L 422 3319 
L 928 3319 
L 928 2847 
Q 1294 3394 1984 3394 
Q 2284 3394 2536 3286 
Q 2788 3178 2913 3003 
Q 3038 2828 3088 2588 
Q 3119 2431 3119 2041 
L 3119 0 
L 2556 0 
L 2556 2019 
Q 2556 2363 2490 2533 
Q 2425 2703 2258 2804 
Q 2091 2906 1866 2906 
Q 1506 2906 1245 2678 
Q 984 2450 984 1813 
L 984 0 
L 422 0 
z
" id="ArialMT-6e" transform="scale(0.015625)"/>
     </defs>
     <use xlink:href="#ArialMT-50"/>
     <use x="66.699219" xlink:href="#ArialMT-72"/>
     <use x="100" xlink:href="#ArialMT-65"/>
     <use x="155.615234" xlink:href="#ArialMT-66"/>
     <use x="183.398438" xlink:href="#ArialMT-69"/>
     <use x="205.615234" xlink:href="#ArialMT-78"/>
     <use x="255.615234" xlink:href="#ArialMT-20"/>
     <use x="283.398438" xlink:href="#ArialMT-43"/>
     <use x="355.615234" xlink:href="#ArialMT-6f"/>
     <use x="411.230469" xlink:href="#ArialMT-6d"/>
     <use x="494.53125" xlink:href="#ArialMT-6d"/>
     <use x="577.832031" xlink:href="#ArialMT-6f"/>
     <use x="633.447266" xlink:href="#ArialMT-6e"/>
     <use x="689.0625" xlink:href="#ArialMT-73"/>
    </g>
   </g>
  </g>
  <g id="axes_9">
   <g id="patch_26">
    <path clip-path="url(#pf408434858)" d="M 610.362679 372.512947 
C 608.21342 372.642631 606.060179 372.331245 604.035712 371.597988 
C 602.011246 370.86473 600.158033 369.724988 598.590334 368.249031 
C 597.022635 366.773073 595.773344 364.991871 594.919486 363.015243 
C 594.065627 361.038615 593.625119 358.908038 593.625119 356.75487 
C 593.625119 354.601702 594.065627 352.471124 594.919486 350.494497 
C 595.773344 348.517869 597.022635 346.736667 598.590334 345.260709 
C 600.158033 343.784752 602.011246 342.645009 604.035712 341.911752 
C 606.060179 341.178495 608.21342 340.867109 610.362679 340.996793 
C 608.4953 335.063845 605.588093 329.50979 601.776967 324.594274 
C 597.965841 319.678758 593.311124 315.479593 588.03042 312.193084 
C 582.749716 308.906575 576.926616 306.584746 570.833344 305.336142 
C 564.740072 304.087537 558.473083 303.931921 552.32535 304.876569 
C 546.177617 305.821217 540.246458 307.851174 534.809148 310.871544 
C 529.371837 313.891914 524.514447 317.854884 520.464053 322.57519 
C 516.413659 327.295496 513.234379 332.698417 511.074841 338.531373 
C 508.915302 344.364328 507.80969 350.534984 507.80969 356.75487 
C 507.80969 362.974756 508.915302 369.145412 511.074841 374.978367 
C 513.234379 380.811323 516.413659 386.214244 520.464053 390.93455 
C 524.514447 395.654856 529.371837 399.617826 534.809148 402.638196 
C 540.246458 405.658565 546.177617 407.688523 552.32535 408.633171 
C 558.473083 409.577819 564.740072 409.422203 570.833344 408.173598 
C 576.926616 406.924994 582.749716 404.603165 588.03042 401.316656 
C 593.311124 398.030147 597.965841 393.830982 601.776967 388.915466 
C 605.588093 383.99995 608.4953 378.445895 610.362679 372.512947 
" style="fill:#c0c0c0;opacity:0.4;"/>
   </g>
   <g id="patch_27">
    <path clip-path="url(#pf408434858)" d="M 610.362679 340.996793 
C 611.967483 346.095501 612.784032 351.409571 612.784032 356.75487 
C 612.784032 362.100169 611.967483 367.414239 610.362679 372.512947 
C 614.376369 372.270766 618.1497 370.504033 620.906016 367.576392 
C 623.662332 364.64875 625.198593 360.77586 625.198593 356.75487 
C 625.198593 352.73388 623.662332 348.86099 620.906016 345.933348 
C 618.1497 343.005707 614.376369 341.238974 610.362679 340.996793 
" style="fill:#cab2d6;opacity:0.4;"/>
   </g>
   <g id="patch_28">
    <path clip-path="url(#pf408434858)" d="M 610.362679 372.512947 
C 611.967483 367.414239 612.784032 362.100169 612.784032 356.75487 
C 612.784032 351.409571 611.967483 346.095501 610.362679 340.996793 
C 608.21342 340.867109 606.060179 341.178495 604.035712 341.911752 
C 602.011246 342.645009 600.158033 343.784752 598.590334 345.260709 
C 597.022635 346.736667 595.773344 348.517869 594.919486 350.494497 
C 594.065627 352.471124 593.625119 354.601702 593.625119 356.75487 
C 593.625119 358.908038 594.065627 361.038615 594.919486 363.015243 
C 595.773344 364.991871 597.022635 366.773073 598.590334 368.249031 
C 600.158033 369.724988 602.011246 370.86473 604.035712 371.597988 
C 606.060179 372.331245 608.21342 372.642631 610.362679 372.512947 
" style="fill:#ffffff;opacity:0.4;"/>
   </g>
   <g id="text_41">
    <!-- 1160 -->
    <g style="fill:#262626;" transform="translate(539.964279 359.340026)scale(0.1 -0.1)">
     <use xlink:href="#ArialMT-31"/>
     <use x="48.240234" xlink:href="#ArialMT-31"/>
     <use x="103.855469" xlink:href="#ArialMT-36"/>
     <use x="159.470703" xlink:href="#ArialMT-30"/>
    </g>
   </g>
   <g id="text_42">
    <!-- 44 -->
    <g style="fill:#262626;" transform="translate(613.430375 359.340026)scale(0.1 -0.1)">
     <use xlink:href="#ArialMT-34"/>
     <use x="55.615234" xlink:href="#ArialMT-34"/>
    </g>
   </g>
   <g id="text_43">
    <!-- 67 -->
    <g style="fill:#262626;" transform="translate(597.643638 359.340026)scale(0.1 -0.1)">
     <use xlink:href="#ArialMT-36"/>
     <use x="55.615234" xlink:href="#ArialMT-37"/>
    </g>
   </g>
   <g id="text_44">
    <!-- Bioregistry -->
    <g style="fill:#262626;" transform="translate(503.615611 421.245111)scale(0.12 -0.12)">
     <use xlink:href="#ArialMT-42"/>
     <use x="66.699219" xlink:href="#ArialMT-69"/>
     <use x="88.916016" xlink:href="#ArialMT-6f"/>
     <use x="144.53125" xlink:href="#ArialMT-72"/>
     <use x="177.832031" xlink:href="#ArialMT-65"/>
     <use x="233.447266" xlink:href="#ArialMT-67"/>
     <use x="289.0625" xlink:href="#ArialMT-69"/>
     <use x="311.279297" xlink:href="#ArialMT-73"/>
     <use x="361.279297" xlink:href="#ArialMT-74"/>
     <use x="389.0625" xlink:href="#ArialMT-72"/>
     <use x="422.363281" xlink:href="#ArialMT-79"/>
    </g>
   </g>
   <g id="text_45">
    <!-- Biolink -->
    <g style="fill:#262626;" transform="translate(609.411856 384.544677)scale(0.12 -0.12)">
     <use xlink:href="#ArialMT-42"/>
     <use x="66.699219" xlink:href="#ArialMT-69"/>
     <use x="88.916016" xlink:href="#ArialMT-6f"/>
     <use x="144.53125" xlink:href="#ArialMT-6c"/>
     <use x="166.748047" xlink:href="#ArialMT-69"/>
     <use x="188.964844" xlink:href="#ArialMT-6e"/>
     <use x="244.580078" xlink:href="#ArialMT-6b"/>
    </g>
   </g>
  </g>
  <g id="axes_10">
   <g id="patch_29">
    <path clip-path="url(#pec076d03d5)" d="M 160.094748 515.488615 
C 155.739345 515.36651 151.599183 513.548725 148.561716 510.424908 
C 145.524248 507.30109 143.823203 503.111612 143.823203 498.754498 
C 143.823203 494.397383 145.524248 490.207906 148.561716 487.084088 
C 151.599183 483.96027 155.739345 482.142486 160.094748 482.02038 
C 158.125617 476.171129 155.139418 470.715091 151.273824 465.903813 
C 147.408231 461.092534 142.723578 457.001108 137.435848 453.818166 
C 132.148117 450.635224 126.339838 448.410446 120.278798 447.246402 
C 114.217757 446.082358 107.998553 445.997217 101.907918 446.994904 
C 95.817283 447.992591 89.950278 450.057535 84.577397 453.094532 
C 79.204515 456.13153 74.409615 460.093181 70.413762 464.796836 
C 66.417909 469.500491 63.28347 474.872737 61.154954 480.665892 
C 59.026439 486.459046 57.937069 492.58269 57.937069 498.754498 
C 57.937069 504.926306 59.026439 511.049949 61.154954 516.843104 
C 63.28347 522.636258 66.417909 528.008504 70.413762 532.712159 
C 74.409615 537.415815 79.204515 541.377465 84.577397 544.414463 
C 89.950278 547.451461 95.817283 549.516404 101.907918 550.514091 
C 107.998553 551.511778 114.217757 551.426637 120.278798 550.262593 
C 126.339838 549.09855 132.148117 546.873771 137.435848 543.690829 
C 142.723578 540.507888 147.408231 536.416462 151.273824 531.605183 
C 155.139418 526.793904 158.125617 521.337866 160.094748 515.488615 
" style="fill:#c0c0c0;opacity:0.4;"/>
   </g>
   <g id="patch_30">
    <path clip-path="url(#pec076d03d5)" d="M 160.094748 482.02038 
C 161.910072 487.412753 162.835909 493.064763 162.835909 498.754498 
C 162.835909 504.444233 161.910072 510.096242 160.094748 515.488615 
C 162.331719 515.551329 164.558723 515.164864 166.64377 514.352123 
C 168.728818 513.539382 170.629887 512.316746 172.234305 510.756677 
C 173.838724 509.196609 175.114156 507.33055 175.98501 505.269098 
C 176.855863 503.207646 177.304588 500.992347 177.304588 498.754498 
C 177.304588 496.516648 176.855863 494.301349 175.98501 492.239897 
C 175.114156 490.178445 173.838724 488.312386 172.234305 486.752318 
C 170.629887 485.19225 168.728818 483.969614 166.64377 483.156873 
C 164.558723 482.344132 162.331719 481.957666 160.094748 482.02038 
" style="fill:#6a3d9a;opacity:0.4;"/>
   </g>
   <g id="patch_31">
    <path clip-path="url(#pec076d03d5)" d="M 160.094748 515.488615 
C 161.910072 510.096242 162.835909 504.444233 162.835909 498.754498 
C 162.835909 493.064763 161.910072 487.412753 160.094748 482.02038 
C 155.739345 482.142486 151.599183 483.96027 148.561716 487.084088 
C 145.524248 490.207906 143.823203 494.397383 143.823203 498.754498 
C 143.823203 503.111612 145.524248 507.30109 148.561716 510.424908 
C 151.599183 513.548725 155.739345 515.36651 160.094748 515.488615 
" style="fill:#d1b1f2;opacity:0.4;"/>
   </g>
   <g id="text_46">
    <!-- 1158 -->
    <g style="fill:#262626;" transform="translate(90.127011 501.339654)scale(0.1 -0.1)">
     <use xlink:href="#ArialMT-31"/>
     <use x="48.240234" xlink:href="#ArialMT-31"/>
     <use x="103.855469" xlink:href="#ArialMT-35"/>
     <use x="159.470703" xlink:href="#ArialMT-38"/>
    </g>
   </g>
   <g id="text_47">
    <!-- 56 -->
    <g style="fill:#262626;" transform="translate(164.509311 501.339654)scale(0.1 -0.1)">
     <use xlink:href="#ArialMT-35"/>
     <use x="55.615234" xlink:href="#ArialMT-36"/>
    </g>
   </g>
   <g id="text_48">
    <!-- 69 -->
    <g style="fill:#262626;" transform="translate(147.768619 501.339654)scale(0.1 -0.1)">
     <use xlink:href="#ArialMT-36"/>
     <use x="55.615234" xlink:href="#ArialMT-39"/>
    </g>
   </g>
   <g id="text_49">
    <!-- Bioregistry -->
    <g style="fill:#262626;" transform="translate(53.705239 563.252799)scale(0.12 -0.12)">
     <use xlink:href="#ArialMT-42"/>
     <use x="66.699219" xlink:href="#ArialMT-69"/>
     <use x="88.916016" xlink:href="#ArialMT-6f"/>
     <use x="144.53125" xlink:href="#ArialMT-72"/>
     <use x="177.832031" xlink:href="#ArialMT-65"/>
     <use x="233.447266" xlink:href="#ArialMT-67"/>
     <use x="289.0625" xlink:href="#ArialMT-69"/>
     <use x="311.279297" xlink:href="#ArialMT-73"/>
     <use x="361.279297" xlink:href="#ArialMT-74"/>
     <use x="389.0625" xlink:href="#ArialMT-72"/>
     <use x="422.363281" xlink:href="#ArialMT-79"/>
    </g>
   </g>
   <g id="text_50">
    <!-- NCBI -->
    <g style="fill:#262626;" transform="translate(160.563895 527.544071)scale(0.12 -0.12)">
     <use xlink:href="#ArialMT-4e"/>
     <use x="72.216797" xlink:href="#ArialMT-43"/>
     <use x="144.433594" xlink:href="#ArialMT-42"/>
     <use x="211.132812" xlink:href="#ArialMT-49"/>
    </g>
   </g>
  </g>
  <g id="axes_11">
   <g id="patch_32">
    <path clip-path="url(#pbd836a0410)" d="M 381.187003 518.717885 
C 376.303535 518.134905 371.799764 515.779815 368.534726 512.101819 
C 365.269688 508.423823 363.465064 503.672641 363.465064 498.754498 
C 363.465064 493.836355 365.269688 489.085172 368.534726 485.407176 
C 371.799764 481.72918 376.303535 479.374091 381.187003 478.79111 
C 378.89365 473.232098 375.65944 468.109612 371.626578 463.648882 
C 367.593716 459.188152 362.822187 455.455527 357.52179 452.615126 
C 352.221392 449.774726 346.470965 447.868798 340.523347 446.981144 
C 334.575729 446.09349 328.519387 446.237312 322.620608 447.406289 
C 316.72183 448.575265 311.068356 450.752007 305.908763 453.840806 
C 300.749169 456.929606 296.1602 460.884519 292.343627 465.531653 
C 288.527054 470.178788 285.539645 475.449021 283.512753 481.110629 
C 281.485861 486.772236 280.449635 492.741005 280.449635 498.754498 
C 280.449635 504.76799 281.485861 510.736759 283.512753 516.398367 
C 285.539645 522.059974 288.527054 527.330208 292.343627 531.977342 
C 296.1602 536.624477 300.749169 540.57939 305.908763 543.668189 
C 311.068356 546.756988 316.72183 548.93373 322.620608 550.102707 
C 328.519387 551.271683 334.575729 551.415506 340.523347 550.527852 
C 346.470965 549.640198 352.221392 547.73427 357.52179 544.893869 
C 362.822187 542.053468 367.593716 538.320844 371.626578 533.860114 
C 375.65944 529.399383 378.89365 524.276898 381.187003 518.717885 
" style="fill:#c0c0c0;opacity:0.4;"/>
   </g>
   <g id="patch_33">
    <path clip-path="url(#pbd836a0410)" d="M 381.187003 478.79111 
C 383.799009 485.122525 385.1432 491.905455 385.1432 498.754498 
C 385.1432 505.60354 383.799009 512.386471 381.187003 518.717885 
C 384.008275 519.054684 386.869159 518.789625 389.580532 517.940231 
C 392.291904 517.090837 394.792673 515.676246 396.917521 513.789972 
C 399.042369 511.903697 400.74342 509.588241 401.908223 506.996669 
C 403.073025 504.405097 403.675335 501.595802 403.675335 498.754498 
C 403.675335 495.913193 403.073025 493.103899 401.908223 490.512327 
C 400.74342 487.920755 399.042369 485.605298 396.917521 483.719024 
C 394.792673 481.832749 392.291904 480.418158 389.580532 479.568764 
C 386.869159 478.71937 384.008275 478.454311 381.187003 478.79111 
" style="fill:#ffff99;opacity:0.4;"/>
   </g>
   <g id="patch_34">
    <path clip-path="url(#pbd836a0410)" d="M 381.187003 518.717885 
C 383.799009 512.386471 385.1432 505.60354 385.1432 498.754498 
C 385.1432 491.905455 383.799009 485.122525 381.187003 478.79111 
C 376.303535 479.374091 371.799764 481.72918 368.534726 485.407176 
C 365.269688 489.085172 363.465064 493.836355 363.465064 498.754498 
C 363.465064 503.672641 365.269688 508.423823 368.534726 512.101819 
C 371.799764 515.779815 376.303535 518.134905 381.187003 518.717885 
" style="fill:#fffff2;opacity:0.4;"/>
   </g>
   <g id="text_51">
    <!-- 1135 -->
    <g style="fill:#262626;" transform="translate(311.204225 501.339654)scale(0.1 -0.1)">
     <use xlink:href="#ArialMT-31"/>
     <use x="48.240234" xlink:href="#ArialMT-31"/>
     <use x="103.855469" xlink:href="#ArialMT-33"/>
     <use x="159.470703" xlink:href="#ArialMT-35"/>
    </g>
   </g>
   <g id="text_52">
    <!-- 89 -->
    <g style="fill:#262626;" transform="translate(388.84833 501.339654)scale(0.1 -0.1)">
     <use xlink:href="#ArialMT-38"/>
     <use x="55.615234" xlink:href="#ArialMT-39"/>
    </g>
   </g>
   <g id="text_53">
    <!-- 92 -->
    <g style="fill:#262626;" transform="translate(368.743195 501.339654)scale(0.1 -0.1)">
     <use xlink:href="#ArialMT-39"/>
     <use x="55.615234" xlink:href="#ArialMT-32"/>
    </g>
   </g>
   <g id="text_54">
    <!-- Bioregistry -->
    <g style="fill:#262626;" transform="translate(276.115167 563.313251)scale(0.12 -0.12)">
     <use xlink:href="#ArialMT-42"/>
     <use x="66.699219" xlink:href="#ArialMT-69"/>
     <use x="88.916016" xlink:href="#ArialMT-6f"/>
     <use x="144.53125" xlink:href="#ArialMT-72"/>
     <use x="177.832031" xlink:href="#ArialMT-65"/>
     <use x="233.447266" xlink:href="#ArialMT-67"/>
     <use x="289.0625" xlink:href="#ArialMT-69"/>
     <use x="311.279297" xlink:href="#ArialMT-73"/>
     <use x="361.279297" xlink:href="#ArialMT-74"/>
     <use x="389.0625" xlink:href="#ArialMT-72"/>
     <use x="422.363281" xlink:href="#ArialMT-79"/>
    </g>
   </g>
   <g id="text_55">
    <!-- UniProt -->
    <g style="fill:#262626;" transform="translate(383.5702 531.071604)scale(0.12 -0.12)">
     <defs>
      <path d="M 3500 4581 
L 4106 4581 
L 4106 1934 
Q 4106 1244 3950 837 
Q 3794 431 3386 176 
Q 2978 -78 2316 -78 
Q 1672 -78 1262 144 
Q 853 366 678 786 
Q 503 1206 503 1934 
L 503 4581 
L 1109 4581 
L 1109 1938 
Q 1109 1341 1220 1058 
Q 1331 775 1601 622 
Q 1872 469 2263 469 
Q 2931 469 3215 772 
Q 3500 1075 3500 1938 
L 3500 4581 
z
" id="ArialMT-55" transform="scale(0.015625)"/>
     </defs>
     <use xlink:href="#ArialMT-55"/>
     <use x="72.216797" xlink:href="#ArialMT-6e"/>
     <use x="127.832031" xlink:href="#ArialMT-69"/>
     <use x="150.048828" xlink:href="#ArialMT-50"/>
     <use x="216.748047" xlink:href="#ArialMT-72"/>
     <use x="250.048828" xlink:href="#ArialMT-6f"/>
     <use x="305.664062" xlink:href="#ArialMT-74"/>
    </g>
   </g>
  </g>
  <g id="axes_12">
   <g id="patch_35">
    <path clip-path="url(#pe0ab08a0a6)" d="M 608.172945 514.143961 
C 604.674424 513.363395 601.544526 511.412697 599.302767 508.615653 
C 597.061009 505.818609 595.838686 502.339039 595.838686 498.754498 
C 595.838686 495.169956 597.061009 491.690386 599.302767 488.893342 
C 601.544526 486.096299 604.674424 484.145601 608.172945 483.365034 
C 606.344733 477.411593 603.470192 471.831285 599.68436 466.886257 
C 595.898529 461.941229 591.261634 457.710149 585.991504 454.391783 
C 580.721375 451.073417 574.90185 448.720554 568.806317 447.443725 
C 562.710783 446.166897 556.436211 445.986416 550.277363 446.91076 
C 544.118515 447.835104 538.173369 449.849569 532.721212 452.85952 
C 527.269056 455.869471 522.396623 459.827025 518.332809 464.546266 
C 514.268996 469.265507 511.078449 474.67136 508.911054 480.509871 
C 506.743658 486.348383 505.633894 492.526672 505.633894 498.754498 
C 505.633894 504.982324 506.743658 511.160613 508.911054 516.999124 
C 511.078449 522.837636 514.268996 528.243489 518.332809 532.96273 
C 522.396623 537.681971 527.269056 541.639525 532.721212 544.649476 
C 538.173369 547.659427 544.118515 549.673892 550.277363 550.598236 
C 556.436211 551.52258 562.710783 551.342098 568.806317 550.06527 
C 574.90185 548.788442 580.721375 546.435579 585.991504 543.117212 
C 591.261634 539.798846 595.898529 535.567766 599.68436 530.622739 
C 603.470192 525.677711 606.344733 520.097402 608.172945 514.143961 
" style="fill:#c0c0c0;opacity:0.4;"/>
   </g>
   <g id="patch_36">
    <path clip-path="url(#pe0ab08a0a6)" d="M 608.172945 483.365034 
C 609.704166 488.351343 610.482656 493.538377 610.482656 498.754498 
C 610.482656 503.970619 609.704166 509.157652 608.172945 514.143961 
C 610.478482 514.658357 612.870415 514.64814 615.171473 514.114067 
C 617.472532 513.579995 619.624432 512.535594 621.467693 511.058268 
C 623.310954 509.580942 624.798887 507.708109 625.82122 505.578569 
C 626.843552 503.44903 627.374389 501.116722 627.374389 498.754498 
C 627.374389 496.392273 626.843552 494.059966 625.82122 491.930426 
C 624.798887 489.800886 623.310954 487.928054 621.467693 486.450728 
C 619.624432 484.973401 617.472532 483.929001 615.171473 483.394928 
C 612.870415 482.860856 610.478482 482.850639 608.172945 483.365034 
" style="fill:#b15928;opacity:0.4;"/>
   </g>
   <g id="patch_37">
    <path clip-path="url(#pe0ab08a0a6)" d="M 608.172945 514.143961 
C 609.704166 509.157652 610.482656 503.970619 610.482656 498.754498 
C 610.482656 493.538377 609.704166 488.351343 608.172945 483.365034 
C 604.674424 484.145601 601.544526 486.096299 599.302767 488.893342 
C 597.061009 491.690386 595.838686 495.169956 595.838686 498.754498 
C 595.838686 502.339039 597.061009 505.818609 599.302767 508.615653 
C 601.544526 511.412697 604.674424 513.363395 608.172945 514.143961 
" style="fill:#ffc5a2;opacity:0.4;"/>
   </g>
   <g id="text_56">
    <!-- 1180 -->
    <g style="fill:#262626;" transform="translate(539.983165 501.339654)scale(0.1 -0.1)">
     <use xlink:href="#ArialMT-31"/>
     <use x="48.240234" xlink:href="#ArialMT-31"/>
     <use x="103.855469" xlink:href="#ArialMT-38"/>
     <use x="159.470703" xlink:href="#ArialMT-30"/>
    </g>
   </g>
   <g id="text_57">
    <!-- 64 -->
    <g style="fill:#262626;" transform="translate(613.367585 501.339654)scale(0.1 -0.1)">
     <use xlink:href="#ArialMT-36"/>
     <use x="55.615234" xlink:href="#ArialMT-34"/>
    </g>
   </g>
   <g id="text_58">
    <!-- 47 -->
    <g style="fill:#262626;" transform="translate(597.599734 501.339654)scale(0.1 -0.1)">
     <use xlink:href="#ArialMT-34"/>
     <use x="55.615234" xlink:href="#ArialMT-37"/>
    </g>
   </g>
   <g id="text_59">
    <!-- Bioregistry -->
    <g style="fill:#262626;" transform="translate(501.377025 563.177866)scale(0.12 -0.12)">
     <use xlink:href="#ArialMT-42"/>
     <use x="66.699219" xlink:href="#ArialMT-69"/>
     <use x="88.916016" xlink:href="#ArialMT-6f"/>
     <use x="144.53125" xlink:href="#ArialMT-72"/>
     <use x="177.832031" xlink:href="#ArialMT-65"/>
     <use x="233.447266" xlink:href="#ArialMT-67"/>
     <use x="289.0625" xlink:href="#ArialMT-69"/>
     <use x="311.279297" xlink:href="#ArialMT-73"/>
     <use x="361.279297" xlink:href="#ArialMT-74"/>
     <use x="389.0625" xlink:href="#ArialMT-72"/>
     <use x="422.363281" xlink:href="#ArialMT-79"/>
    </g>
   </g>
   <g id="text_60">
    <!-- Cellosaurus -->
    <g style="fill:#262626;" transform="translate(611.606538 526.521336)scale(0.12 -0.12)">
     <defs>
      <path d="M 2597 0 
L 2597 488 
Q 2209 -75 1544 -75 
Q 1250 -75 995 37 
Q 741 150 617 320 
Q 494 491 444 738 
Q 409 903 409 1263 
L 409 3319 
L 972 3319 
L 972 1478 
Q 972 1038 1006 884 
Q 1059 663 1231 536 
Q 1403 409 1656 409 
Q 1909 409 2131 539 
Q 2353 669 2445 892 
Q 2538 1116 2538 1541 
L 2538 3319 
L 3100 3319 
L 3100 0 
L 2597 0 
z
" id="ArialMT-75" transform="scale(0.015625)"/>
     </defs>
     <use xlink:href="#ArialMT-43"/>
     <use x="72.216797" xlink:href="#ArialMT-65"/>
     <use x="127.832031" xlink:href="#ArialMT-6c"/>
     <use x="150.048828" xlink:href="#ArialMT-6c"/>
     <use x="172.265625" xlink:href="#ArialMT-6f"/>
     <use x="227.880859" xlink:href="#ArialMT-73"/>
     <use x="277.880859" xlink:href="#ArialMT-61"/>
     <use x="333.496094" xlink:href="#ArialMT-75"/>
     <use x="389.111328" xlink:href="#ArialMT-72"/>
     <use x="422.412109" xlink:href="#ArialMT-75"/>
     <use x="478.027344" xlink:href="#ArialMT-73"/>
    </g>
   </g>
  </g>
  <g id="axes_13">
   <g id="patch_38">
    <path clip-path="url(#p5fa2b94334)" d="M 162.326172 660.720062 
C 158.843153 662.672467 154.909124 663.679897 150.916397 663.641888 
C 146.923671 663.60388 143.009533 662.521739 139.564314 660.503381 
C 136.119094 658.485023 133.261252 655.599847 131.275781 652.135571 
C 129.29031 648.671294 128.245477 644.747033 128.245477 640.754125 
C 128.245477 636.761218 129.29031 632.836957 131.275781 629.37268 
C 133.261252 625.908404 136.119094 623.023228 139.564314 621.00487 
C 143.009533 618.986512 146.923671 617.904371 150.916397 617.866363 
C 154.909124 617.828354 158.843153 618.835784 162.326172 620.788189 
C 160.031396 615.204388 156.791046 610.057779 152.747734 605.574871 
C 148.704422 601.091964 143.918349 597.339504 138.600156 594.482642 
C 133.281964 591.62578 127.510834 589.707052 121.540763 588.810904 
C 115.570692 587.914756 109.490567 588.054531 103.567984 589.224076 
C 97.6454 590.393622 91.968539 592.575525 86.787247 595.673757 
C 81.605954 598.771989 76.997375 602.740421 73.164339 607.404395 
C 69.331302 612.06837 66.330878 617.358447 64.29512 623.041802 
C 62.259362 628.725156 61.21858 634.71717 61.21858 640.754125 
C 61.21858 646.791081 62.259362 652.783095 64.29512 658.466449 
C 66.330878 664.149804 69.331302 669.439881 73.164339 674.103855 
C 76.997375 678.76783 81.605954 682.736262 86.787247 685.834494 
C 91.968539 688.932726 97.6454 691.114629 103.567984 692.284175 
C 109.490567 693.45372 115.570692 693.593495 121.540763 692.697347 
C 127.510834 691.801199 133.281964 689.882471 138.600156 687.025609 
C 143.918349 684.168747 148.704422 680.416287 152.747734 675.93338 
C 156.791046 671.450472 160.031396 666.303863 162.326172 660.720062 
" style="fill:#c0c0c0;opacity:0.4;"/>
   </g>
   <g id="patch_39">
    <path clip-path="url(#p5fa2b94334)" d="M 162.326172 620.788189 
C 164.929454 627.122667 166.268889 633.905572 166.268889 640.754125 
C 166.268889 647.602679 164.929454 654.385584 162.326172 660.720062 
C 165.873626 658.731539 168.827836 655.833043 170.883533 652.324089 
C 172.939229 648.815134 174.023077 644.820899 174.023077 640.754125 
C 174.023077 636.687352 172.939229 632.693117 170.883533 629.184162 
C 168.827836 625.675208 165.873626 622.776712 162.326172 620.788189 
" style="fill:#a6cee3;opacity:0.4;"/>
   </g>
   <g id="patch_40">
    <path clip-path="url(#p5fa2b94334)" d="M 162.326172 660.720062 
C 164.929454 654.385584 166.268889 647.602679 166.268889 640.754125 
C 166.268889 633.905572 164.929454 627.122667 162.326172 620.788189 
C 158.843153 618.835784 154.909124 617.828354 150.916397 617.866363 
C 146.923671 617.904371 143.009533 618.986512 139.564314 621.00487 
C 136.119094 623.023228 133.261252 625.908404 131.275781 629.37268 
C 129.29031 632.836957 128.245477 636.761218 128.245477 640.754125 
C 128.245477 644.747033 129.29031 648.671294 131.275781 652.135571 
C 133.261252 655.599847 136.119094 658.485023 139.564314 660.503381 
C 143.009533 662.521739 146.923671 663.60388 150.916397 663.641888 
C 154.909124 663.679897 158.843153 662.672467 162.326172 660.720062 
" style="fill:#fbffff;opacity:0.4;"/>
   </g>
   <g id="text_61">
    <!-- 1026 -->
    <g style="fill:#262626;" transform="translate(83.610153 643.339282)scale(0.1 -0.1)">
     <use xlink:href="#ArialMT-31"/>
     <use x="55.615234" xlink:href="#ArialMT-30"/>
     <use x="111.230469" xlink:href="#ArialMT-32"/>
     <use x="166.845703" xlink:href="#ArialMT-36"/>
    </g>
   </g>
   <g id="text_62">
    <!-- 32 -->
    <g style="fill:#262626;" transform="translate(164.585046 643.339282)scale(0.1 -0.1)">
     <use xlink:href="#ArialMT-33"/>
     <use x="55.615234" xlink:href="#ArialMT-32"/>
    </g>
   </g>
   <g id="text_63">
    <!-- 201 -->
    <g style="fill:#262626;" transform="translate(138.915777 643.339282)scale(0.1 -0.1)">
     <use xlink:href="#ArialMT-32"/>
     <use x="55.615234" xlink:href="#ArialMT-30"/>
     <use x="111.230469" xlink:href="#ArialMT-31"/>
    </g>
   </g>
   <g id="text_64">
    <!-- Bioregistry -->
    <g style="fill:#262626;" transform="translate(57.062485 705.639353)scale(0.12 -0.12)">
     <use xlink:href="#ArialMT-42"/>
     <use x="66.699219" xlink:href="#ArialMT-69"/>
     <use x="88.916016" xlink:href="#ArialMT-6f"/>
     <use x="144.53125" xlink:href="#ArialMT-72"/>
     <use x="177.832031" xlink:href="#ArialMT-65"/>
     <use x="233.447266" xlink:href="#ArialMT-67"/>
     <use x="289.0625" xlink:href="#ArialMT-69"/>
     <use x="311.279297" xlink:href="#ArialMT-73"/>
     <use x="361.279297" xlink:href="#ArialMT-74"/>
     <use x="389.0625" xlink:href="#ArialMT-72"/>
     <use x="422.363281" xlink:href="#ArialMT-79"/>
    </g>
   </g>
   <g id="text_65">
    <!-- OntoBee -->
    <g style="fill:#262626;" transform="translate(151.134277 676.002998)scale(0.12 -0.12)">
     <use xlink:href="#ArialMT-4f"/>
     <use x="77.783203" xlink:href="#ArialMT-6e"/>
     <use x="133.398438" xlink:href="#ArialMT-74"/>
     <use x="161.181641" xlink:href="#ArialMT-6f"/>
     <use x="216.796875" xlink:href="#ArialMT-42"/>
     <use x="283.496094" xlink:href="#ArialMT-65"/>
     <use x="339.111328" xlink:href="#ArialMT-65"/>
    </g>
   </g>
  </g>
  <g id="axes_14"/>
  <g id="axes_15"/>
  <g id="text_66">
   <!-- https://github.com/biopragmatics/bioregistry (2021-11-02) -->
   <g style="fill:#808080;opacity:0.5;" transform="translate(249.92 718.31625)scale(0.08 -0.08)">
    <defs>
     <path d="M 422 0 
L 422 4581 
L 984 4581 
L 984 2938 
Q 1378 3394 1978 3394 
Q 2347 3394 2619 3248 
Q 2891 3103 3008 2847 
Q 3125 2591 3125 2103 
L 3125 0 
L 2563 0 
L 2563 2103 
Q 2563 2525 2380 2717 
Q 2197 2909 1863 2909 
Q 1613 2909 1392 2779 
Q 1172 2650 1078 2428 
Q 984 2206 984 1816 
L 984 0 
L 422 0 
z
" id="ArialMT-68" transform="scale(0.015625)"/>
     <path d="M 422 -1272 
L 422 3319 
L 934 3319 
L 934 2888 
Q 1116 3141 1344 3267 
Q 1572 3394 1897 3394 
Q 2322 3394 2647 3175 
Q 2972 2956 3137 2557 
Q 3303 2159 3303 1684 
Q 3303 1175 3120 767 
Q 2938 359 2589 142 
Q 2241 -75 1856 -75 
Q 1575 -75 1351 44 
Q 1128 163 984 344 
L 984 -1272 
L 422 -1272 
z
M 931 1641 
Q 931 1000 1190 694 
Q 1450 388 1819 388 
Q 2194 388 2461 705 
Q 2728 1022 2728 1688 
Q 2728 2322 2467 2637 
Q 2206 2953 1844 2953 
Q 1484 2953 1207 2617 
Q 931 2281 931 1641 
z
" id="ArialMT-70" transform="scale(0.015625)"/>
     <path d="M 578 2678 
L 578 3319 
L 1219 3319 
L 1219 2678 
L 578 2678 
z
M 578 0 
L 578 641 
L 1219 641 
L 1219 0 
L 578 0 
z
" id="ArialMT-3a" transform="scale(0.015625)"/>
     <path d="M 0 -78 
L 1328 4659 
L 1778 4659 
L 453 -78 
L 0 -78 
z
" id="ArialMT-2f" transform="scale(0.015625)"/>
     <path d="M 941 0 
L 419 0 
L 419 4581 
L 981 4581 
L 981 2947 
Q 1338 3394 1891 3394 
Q 2197 3394 2470 3270 
Q 2744 3147 2920 2923 
Q 3097 2700 3197 2384 
Q 3297 2069 3297 1709 
Q 3297 856 2875 390 
Q 2453 -75 1863 -75 
Q 1275 -75 941 416 
L 941 0 
z
M 934 1684 
Q 934 1088 1097 822 
Q 1363 388 1816 388 
Q 2184 388 2453 708 
Q 2722 1028 2722 1663 
Q 2722 2313 2464 2622 
Q 2206 2931 1841 2931 
Q 1472 2931 1203 2611 
Q 934 2291 934 1684 
z
" id="ArialMT-62" transform="scale(0.015625)"/>
     <path d="M 581 0 
L 581 641 
L 1222 641 
L 1222 0 
L 581 0 
z
" id="ArialMT-2e" transform="scale(0.015625)"/>
     <path d="M 2588 1216 
L 3141 1144 
Q 3050 572 2676 248 
Q 2303 -75 1759 -75 
Q 1078 -75 664 370 
Q 250 816 250 1647 
Q 250 2184 428 2587 
Q 606 2991 970 3192 
Q 1334 3394 1763 3394 
Q 2303 3394 2647 3120 
Q 2991 2847 3088 2344 
L 2541 2259 
Q 2463 2594 2264 2762 
Q 2066 2931 1784 2931 
Q 1359 2931 1093 2626 
Q 828 2322 828 1663 
Q 828 994 1084 691 
Q 1341 388 1753 388 
Q 2084 388 2306 591 
Q 2528 794 2588 1216 
z
" id="ArialMT-63" transform="scale(0.015625)"/>
     <path d="M 1497 -1347 
Q 1031 -759 709 28 
Q 388 816 388 1659 
Q 388 2403 628 3084 
Q 909 3875 1497 4659 
L 1900 4659 
Q 1522 4009 1400 3731 
Q 1209 3300 1100 2831 
Q 966 2247 966 1656 
Q 966 153 1900 -1347 
L 1497 -1347 
z
" id="ArialMT-28" transform="scale(0.015625)"/>
     <path d="M 203 1375 
L 203 1941 
L 1931 1941 
L 1931 1375 
L 203 1375 
z
" id="ArialMT-2d" transform="scale(0.015625)"/>
     <path d="M 791 -1347 
L 388 -1347 
Q 1322 153 1322 1656 
Q 1322 2244 1188 2822 
Q 1081 3291 891 3722 
Q 769 4003 388 4659 
L 791 4659 
Q 1378 3875 1659 3084 
Q 1900 2403 1900 1659 
Q 1900 816 1576 28 
Q 1253 -759 791 -1347 
z
" id="ArialMT-29" transform="scale(0.015625)"/>
    </defs>
    <use xlink:href="#ArialMT-68"/>
    <use x="55.615234" xlink:href="#ArialMT-74"/>
    <use x="83.398438" xlink:href="#ArialMT-74"/>
    <use x="111.181641" xlink:href="#ArialMT-70"/>
    <use x="166.796875" xlink:href="#ArialMT-73"/>
    <use x="216.796875" xlink:href="#ArialMT-3a"/>
    <use x="244.580078" xlink:href="#ArialMT-2f"/>
    <use x="272.363281" xlink:href="#ArialMT-2f"/>
    <use x="300.146484" xlink:href="#ArialMT-67"/>
    <use x="355.761719" xlink:href="#ArialMT-69"/>
    <use x="377.978516" xlink:href="#ArialMT-74"/>
    <use x="405.761719" xlink:href="#ArialMT-68"/>
    <use x="461.376953" xlink:href="#ArialMT-75"/>
    <use x="516.992188" xlink:href="#ArialMT-62"/>
    <use x="572.607422" xlink:href="#ArialMT-2e"/>
    <use x="600.390625" xlink:href="#ArialMT-63"/>
    <use x="650.390625" xlink:href="#ArialMT-6f"/>
    <use x="706.005859" xlink:href="#ArialMT-6d"/>
    <use x="789.306641" xlink:href="#ArialMT-2f"/>
    <use x="817.089844" xlink:href="#ArialMT-62"/>
    <use x="872.705078" xlink:href="#ArialMT-69"/>
    <use x="894.921875" xlink:href="#ArialMT-6f"/>
    <use x="950.537109" xlink:href="#ArialMT-70"/>
    <use x="1006.152344" xlink:href="#ArialMT-72"/>
    <use x="1039.453125" xlink:href="#ArialMT-61"/>
    <use x="1095.068359" xlink:href="#ArialMT-67"/>
    <use x="1150.683594" xlink:href="#ArialMT-6d"/>
    <use x="1233.984375" xlink:href="#ArialMT-61"/>
    <use x="1289.599609" xlink:href="#ArialMT-74"/>
    <use x="1317.382812" xlink:href="#ArialMT-69"/>
    <use x="1339.599609" xlink:href="#ArialMT-63"/>
    <use x="1389.599609" xlink:href="#ArialMT-73"/>
    <use x="1439.599609" xlink:href="#ArialMT-2f"/>
    <use x="1467.382812" xlink:href="#ArialMT-62"/>
    <use x="1522.998047" xlink:href="#ArialMT-69"/>
    <use x="1545.214844" xlink:href="#ArialMT-6f"/>
    <use x="1600.830078" xlink:href="#ArialMT-72"/>
    <use x="1634.130859" xlink:href="#ArialMT-65"/>
    <use x="1689.746094" xlink:href="#ArialMT-67"/>
    <use x="1745.361328" xlink:href="#ArialMT-69"/>
    <use x="1767.578125" xlink:href="#ArialMT-73"/>
    <use x="1817.578125" xlink:href="#ArialMT-74"/>
    <use x="1845.361328" xlink:href="#ArialMT-72"/>
    <use x="1878.662109" xlink:href="#ArialMT-79"/>
    <use x="1928.662109" xlink:href="#ArialMT-20"/>
    <use x="1956.445312" xlink:href="#ArialMT-28"/>
    <use x="1989.746094" xlink:href="#ArialMT-32"/>
    <use x="2045.361328" xlink:href="#ArialMT-30"/>
    <use x="2100.976562" xlink:href="#ArialMT-32"/>
    <use x="2156.591797" xlink:href="#ArialMT-31"/>
    <use x="2212.207031" xlink:href="#ArialMT-2d"/>
    <use x="2245.507812" xlink:href="#ArialMT-31"/>
    <use x="2293.748047" xlink:href="#ArialMT-31"/>
    <use x="2349.363281" xlink:href="#ArialMT-2d"/>
    <use x="2382.664062" xlink:href="#ArialMT-30"/>
    <use x="2438.279297" xlink:href="#ArialMT-32"/>
    <use x="2493.894531" xlink:href="#ArialMT-29"/>
   </g>
  </g>
 </g>
 <defs>
  <clipPath id="p0d4382e0db">
   <rect height="123.911229" width="125.379345" x="54.931156" y="10.8"/>
  </clipPath>
  <clipPath id="pb528f1b1be">
   <rect height="123.911229" width="124.998871" x="279.563049" y="10.8"/>
  </clipPath>
  <clipPath id="p5c405d1edb">
   <rect height="123.911229" width="124.332087" x="504.338098" y="10.8"/>
  </clipPath>
  <clipPath id="p3151eada5c">
   <rect height="123.911229" width="157.507231" x="38.867213" y="152.799628"/>
  </clipPath>
  <clipPath id="p2c9ad6bfc8">
   <rect height="123.911229" width="126.096558" x="279.014206" y="152.799628"/>
  </clipPath>
  <clipPath id="pbc1afc77d0">
   <rect height="123.911229" width="145.04126" x="493.983511" y="152.799628"/>
  </clipPath>
  <clipPath id="p1800a023a3">
   <rect height="123.911229" width="175.704537" x="29.76856" y="294.799256"/>
  </clipPath>
  <clipPath id="p01371e2831">
   <rect height="123.911229" width="135.080731" x="274.522119" y="294.799256"/>
  </clipPath>
  <clipPath id="pf408434858">
   <rect height="123.911229" width="136.32579" x="498.341246" y="294.799256"/>
  </clipPath>
  <clipPath id="pec076d03d5">
   <rect height="123.911229" width="138.379907" x="48.430875" y="436.798883"/>
  </clipPath>
  <clipPath id="pbd836a0410">
   <rect height="123.911229" width="142.443364" x="270.840803" y="436.798883"/>
  </clipPath>
  <clipPath id="pe0ab08a0a6">
   <rect height="123.911229" width="140.802962" x="496.10266" y="436.798883"/>
  </clipPath>
  <clipPath id="p5fa2b94334">
   <rect height="123.911229" width="131.665416" x="51.78812" y="578.798511"/>
  </clipPath>
 </defs>
</svg>
