<?xml version="1.0" encoding="utf-8" standalone="no"?>
<!DOCTYPE svg PUBLIC "-//W3C//DTD SVG 1.1//EN"
  "http://www.w3.org/Graphics/SVG/1.1/DTD/svg11.dtd">
<svg height="576pt" version="1.1" viewBox="0 0 702 576" width="702pt" xmlns="http://www.w3.org/2000/svg" xmlns:xlink="http://www.w3.org/1999/xlink">
 <metadata>
  <rdf:RDF xmlns:cc="http://creativecommons.org/ns#" xmlns:dc="http://purl.org/dc/elements/1.1/" xmlns:rdf="http://www.w3.org/1999/02/22-rdf-syntax-ns#">
   <cc:Work>
    <dc:type rdf:resource="http://purl.org/dc/dcmitype/StillImage"/>
    <dc:date>2021-09-22T00:52:07.231098</dc:date>
    <dc:format>image/svg+xml</dc:format>
    <dc:creator>
     <cc:Agent>
      <dc:title>Matplotlib v3.4.3, https://matplotlib.org/</dc:title>
     </cc:Agent>
    </dc:creator>
   </cc:Work>
  </rdf:RDF>
 </metadata>
 <defs>
  <style type="text/css">*{stroke-linecap:butt;stroke-linejoin:round;}</style>
 </defs>
 <g id="figure_1">
  <g id="patch_1">
   <path d="M 0 576 
L 702 576 
L 702 0 
L 0 0 
z
" style="fill:#ffffff;"/>
  </g>
  <g id="axes_1">
   <g id="patch_2">
    <path clip-path="url(#pea1810a96c)" d="M 165.030991 82.183606 
C 163.842032 84.506734 162.273036 86.614845 160.38898 88.420636 
C 158.504923 90.226426 156.332178 91.70462 153.960723 92.794001 
C 151.589268 93.883382 149.052298 94.568701 146.454875 94.821578 
C 143.857453 95.074456 141.235936 94.891351 138.698888 94.279847 
C 136.16184 93.668343 133.744774 92.637 131.547786 91.228527 
C 129.350798 89.820055 127.404642 88.054169 125.789912 86.003999 
C 124.175182 83.953829 122.914481 81.648073 122.060017 79.182218 
C 121.205554 76.716363 120.769289 74.124924 120.769289 71.515221 
C 120.769289 68.905518 121.205554 66.31408 122.060017 63.848225 
C 122.914481 61.38237 124.175182 59.076614 125.789912 57.026444 
C 127.404642 54.976274 129.350798 53.210388 131.547786 51.801915 
C 133.744774 50.393443 136.16184 49.3621 138.698888 48.750596 
C 141.235936 48.139092 143.857453 47.955987 146.454875 48.208864 
C 149.052298 48.461741 151.589268 49.147061 153.960723 50.236442 
C 156.332178 51.325823 158.504923 52.804017 160.38898 54.609807 
C 162.273036 56.415598 163.842032 58.523709 165.030991 60.846837 
C 163.7235 54.663991 161.290446 48.77386 157.853375 43.470686 
C 154.416304 38.167511 150.033418 33.541097 144.923665 29.822557 
C 139.813912 26.104017 134.06382 23.35632 127.960636 21.716729 
C 121.857452 20.077137 115.504526 19.573415 109.219222 20.230726 
C 102.933917 20.888037 96.822667 22.69525 91.190761 25.562086 
C 85.558855 28.428922 80.501662 32.306834 76.271817 37.0021 
C 72.041971 41.697366 68.7111 47.130477 66.445598 53.030021 
C 64.180097 58.929565 63.018327 65.19564 63.018327 71.515221 
C 63.018327 77.834803 64.180097 84.100878 66.445598 90.000422 
C 68.7111 95.899965 72.041971 101.333077 76.271817 106.028343 
C 80.501662 110.723609 85.558855 114.601521 91.190761 117.468357 
C 96.822667 120.335193 102.933917 122.142406 109.219222 122.799717 
C 115.504526 123.457028 121.857452 122.953306 127.960636 121.313714 
C 134.06382 119.674122 139.813912 116.926425 144.923665 113.207885 
C 150.033418 109.489346 154.416304 104.862931 157.853375 99.559757 
C 161.290446 94.256583 163.7235 88.366451 165.030991 82.183606 
" style="fill:#c0c0c0;opacity:0.4;"/>
   </g>
   <g id="patch_3">
    <path clip-path="url(#pea1810a96c)" d="M 165.030991 60.846837 
C 165.77276 64.354502 166.14668 67.929983 166.14668 71.515221 
C 166.14668 75.100459 165.77276 78.675941 165.030991 82.183606 
C 166.720973 78.881519 167.602389 75.224643 167.602389 71.515221 
C 167.602389 67.805799 166.720973 64.148923 165.030991 60.846837 
" style="fill:#a6cee3;opacity:0.4;"/>
   </g>
   <g id="patch_4">
    <path clip-path="url(#pea1810a96c)" d="M 165.030991 82.183606 
C 165.77276 78.675941 166.14668 75.100459 166.14668 71.515221 
C 166.14668 67.929983 165.77276 64.354502 165.030991 60.846837 
C 163.842032 58.523709 162.273036 56.415598 160.38898 54.609807 
C 158.504923 52.804017 156.332178 51.325823 153.960723 50.236442 
C 151.589268 49.147061 149.052298 48.461741 146.454875 48.208864 
C 143.857453 47.955987 141.235936 48.139092 138.698888 48.750596 
C 136.16184 49.3621 133.744774 50.393443 131.547786 51.801915 
C 129.350798 53.210388 127.404642 54.976274 125.789912 57.026444 
C 124.175182 59.076614 122.914481 61.38237 122.060017 63.848225 
C 121.205554 66.31408 120.769289 68.905518 120.769289 71.515221 
C 120.769289 74.124924 121.205554 76.716363 122.060017 79.182218 
C 122.914481 81.648073 124.175182 83.953829 125.789912 86.003999 
C 127.404642 88.054169 129.350798 89.820055 131.547786 91.228527 
C 133.744774 92.637 136.16184 93.668343 138.698888 94.279847 
C 141.235936 94.891351 143.857453 95.074456 146.454875 94.821578 
C 149.052298 94.568701 151.589268 93.883382 153.960723 92.794001 
C 156.332178 91.70462 158.504923 90.226426 160.38898 88.420636 
C 162.273036 86.614845 163.842032 84.506734 165.030991 82.183606 
" style="fill:#fbffff;opacity:0.4;"/>
   </g>
   <g id="text_1">
    <!-- 946 -->
    <g style="fill:#262626;" transform="translate(82.350058 74.274596)scale(0.1 -0.1)">
     <defs>
      <path d="M 703 97 
L 703 672 
Q 941 559 1184 500 
Q 1428 441 1663 441 
Q 2288 441 2617 861 
Q 2947 1281 2994 2138 
Q 2813 1869 2534 1725 
Q 2256 1581 1919 1581 
Q 1219 1581 811 2004 
Q 403 2428 403 3163 
Q 403 3881 828 4315 
Q 1253 4750 1959 4750 
Q 2769 4750 3195 4129 
Q 3622 3509 3622 2328 
Q 3622 1225 3098 567 
Q 2575 -91 1691 -91 
Q 1453 -91 1209 -44 
Q 966 3 703 97 
z
M 1959 2075 
Q 2384 2075 2632 2365 
Q 2881 2656 2881 3163 
Q 2881 3666 2632 3958 
Q 2384 4250 1959 4250 
Q 1534 4250 1286 3958 
Q 1038 3666 1038 3163 
Q 1038 2656 1286 2365 
Q 1534 2075 1959 2075 
z
" id="DejaVuSans-39" transform="scale(0.015625)"/>
      <path d="M 2419 4116 
L 825 1625 
L 2419 1625 
L 2419 4116 
z
M 2253 4666 
L 3047 4666 
L 3047 1625 
L 3713 1625 
L 3713 1100 
L 3047 1100 
L 3047 0 
L 2419 0 
L 2419 1100 
L 313 1100 
L 313 1709 
L 2253 4666 
z
" id="DejaVuSans-34" transform="scale(0.015625)"/>
      <path d="M 2113 2584 
Q 1688 2584 1439 2293 
Q 1191 2003 1191 1497 
Q 1191 994 1439 701 
Q 1688 409 2113 409 
Q 2538 409 2786 701 
Q 3034 994 3034 1497 
Q 3034 2003 2786 2293 
Q 2538 2584 2113 2584 
z
M 3366 4563 
L 3366 3988 
Q 3128 4100 2886 4159 
Q 2644 4219 2406 4219 
Q 1781 4219 1451 3797 
Q 1122 3375 1075 2522 
Q 1259 2794 1537 2939 
Q 1816 3084 2150 3084 
Q 2853 3084 3261 2657 
Q 3669 2231 3669 1497 
Q 3669 778 3244 343 
Q 2819 -91 2113 -91 
Q 1303 -91 875 529 
Q 447 1150 447 2328 
Q 447 3434 972 4092 
Q 1497 4750 2381 4750 
Q 2619 4750 2861 4703 
Q 3103 4656 3366 4563 
z
" id="DejaVuSans-36" transform="scale(0.015625)"/>
     </defs>
     <use xlink:href="#DejaVuSans-39"/>
     <use x="63.623047" xlink:href="#DejaVuSans-34"/>
     <use x="127.246094" xlink:href="#DejaVuSans-36"/>
    </g>
   </g>
   <g id="text_2">
    <!-- 3 -->
    <g style="fill:#262626;" transform="translate(163.693285 74.274596)scale(0.1 -0.1)">
     <defs>
      <path d="M 2597 2516 
Q 3050 2419 3304 2112 
Q 3559 1806 3559 1356 
Q 3559 666 3084 287 
Q 2609 -91 1734 -91 
Q 1441 -91 1130 -33 
Q 819 25 488 141 
L 488 750 
Q 750 597 1062 519 
Q 1375 441 1716 441 
Q 2309 441 2620 675 
Q 2931 909 2931 1356 
Q 2931 1769 2642 2001 
Q 2353 2234 1838 2234 
L 1294 2234 
L 1294 2753 
L 1863 2753 
Q 2328 2753 2575 2939 
Q 2822 3125 2822 3475 
Q 2822 3834 2567 4026 
Q 2313 4219 1838 4219 
Q 1578 4219 1281 4162 
Q 984 4106 628 3988 
L 628 4550 
Q 988 4650 1302 4700 
Q 1616 4750 1894 4750 
Q 2613 4750 3031 4423 
Q 3450 4097 3450 3541 
Q 3450 3153 3228 2886 
Q 3006 2619 2597 2516 
z
" id="DejaVuSans-33" transform="scale(0.015625)"/>
     </defs>
     <use xlink:href="#DejaVuSans-33"/>
    </g>
   </g>
   <g id="text_3">
    <!-- 242 -->
    <g style="fill:#262626;" transform="translate(133.914235 74.274596)scale(0.1 -0.1)">
     <defs>
      <path d="M 1228 531 
L 3431 531 
L 3431 0 
L 469 0 
L 469 531 
Q 828 903 1448 1529 
Q 2069 2156 2228 2338 
Q 2531 2678 2651 2914 
Q 2772 3150 2772 3378 
Q 2772 3750 2511 3984 
Q 2250 4219 1831 4219 
Q 1534 4219 1204 4116 
Q 875 4013 500 3803 
L 500 4441 
Q 881 4594 1212 4672 
Q 1544 4750 1819 4750 
Q 2544 4750 2975 4387 
Q 3406 4025 3406 3419 
Q 3406 3131 3298 2873 
Q 3191 2616 2906 2266 
Q 2828 2175 2409 1742 
Q 1991 1309 1228 531 
z
" id="DejaVuSans-32" transform="scale(0.015625)"/>
     </defs>
     <use xlink:href="#DejaVuSans-32"/>
     <use x="63.623047" xlink:href="#DejaVuSans-34"/>
     <use x="127.246094" xlink:href="#DejaVuSans-32"/>
    </g>
   </g>
   <g id="text_4">
    <!-- Bioregistry -->
    <g style="fill:#262626;" transform="translate(49.683129 135.946559)scale(0.12 -0.12)">
     <defs>
      <path d="M 1259 2228 
L 1259 519 
L 2272 519 
Q 2781 519 3026 730 
Q 3272 941 3272 1375 
Q 3272 1813 3026 2020 
Q 2781 2228 2272 2228 
L 1259 2228 
z
M 1259 4147 
L 1259 2741 
L 2194 2741 
Q 2656 2741 2882 2914 
Q 3109 3088 3109 3444 
Q 3109 3797 2882 3972 
Q 2656 4147 2194 4147 
L 1259 4147 
z
M 628 4666 
L 2241 4666 
Q 2963 4666 3353 4366 
Q 3744 4066 3744 3513 
Q 3744 3084 3544 2831 
Q 3344 2578 2956 2516 
Q 3422 2416 3680 2098 
Q 3938 1781 3938 1306 
Q 3938 681 3513 340 
Q 3088 0 2303 0 
L 628 0 
L 628 4666 
z
" id="DejaVuSans-42" transform="scale(0.015625)"/>
      <path d="M 603 3500 
L 1178 3500 
L 1178 0 
L 603 0 
L 603 3500 
z
M 603 4863 
L 1178 4863 
L 1178 4134 
L 603 4134 
L 603 4863 
z
" id="DejaVuSans-69" transform="scale(0.015625)"/>
      <path d="M 1959 3097 
Q 1497 3097 1228 2736 
Q 959 2375 959 1747 
Q 959 1119 1226 758 
Q 1494 397 1959 397 
Q 2419 397 2687 759 
Q 2956 1122 2956 1747 
Q 2956 2369 2687 2733 
Q 2419 3097 1959 3097 
z
M 1959 3584 
Q 2709 3584 3137 3096 
Q 3566 2609 3566 1747 
Q 3566 888 3137 398 
Q 2709 -91 1959 -91 
Q 1206 -91 779 398 
Q 353 888 353 1747 
Q 353 2609 779 3096 
Q 1206 3584 1959 3584 
z
" id="DejaVuSans-6f" transform="scale(0.015625)"/>
      <path d="M 2631 2963 
Q 2534 3019 2420 3045 
Q 2306 3072 2169 3072 
Q 1681 3072 1420 2755 
Q 1159 2438 1159 1844 
L 1159 0 
L 581 0 
L 581 3500 
L 1159 3500 
L 1159 2956 
Q 1341 3275 1631 3429 
Q 1922 3584 2338 3584 
Q 2397 3584 2469 3576 
Q 2541 3569 2628 3553 
L 2631 2963 
z
" id="DejaVuSans-72" transform="scale(0.015625)"/>
      <path d="M 3597 1894 
L 3597 1613 
L 953 1613 
Q 991 1019 1311 708 
Q 1631 397 2203 397 
Q 2534 397 2845 478 
Q 3156 559 3463 722 
L 3463 178 
Q 3153 47 2828 -22 
Q 2503 -91 2169 -91 
Q 1331 -91 842 396 
Q 353 884 353 1716 
Q 353 2575 817 3079 
Q 1281 3584 2069 3584 
Q 2775 3584 3186 3129 
Q 3597 2675 3597 1894 
z
M 3022 2063 
Q 3016 2534 2758 2815 
Q 2500 3097 2075 3097 
Q 1594 3097 1305 2825 
Q 1016 2553 972 2059 
L 3022 2063 
z
" id="DejaVuSans-65" transform="scale(0.015625)"/>
      <path d="M 2906 1791 
Q 2906 2416 2648 2759 
Q 2391 3103 1925 3103 
Q 1463 3103 1205 2759 
Q 947 2416 947 1791 
Q 947 1169 1205 825 
Q 1463 481 1925 481 
Q 2391 481 2648 825 
Q 2906 1169 2906 1791 
z
M 3481 434 
Q 3481 -459 3084 -895 
Q 2688 -1331 1869 -1331 
Q 1566 -1331 1297 -1286 
Q 1028 -1241 775 -1147 
L 775 -588 
Q 1028 -725 1275 -790 
Q 1522 -856 1778 -856 
Q 2344 -856 2625 -561 
Q 2906 -266 2906 331 
L 2906 616 
Q 2728 306 2450 153 
Q 2172 0 1784 0 
Q 1141 0 747 490 
Q 353 981 353 1791 
Q 353 2603 747 3093 
Q 1141 3584 1784 3584 
Q 2172 3584 2450 3431 
Q 2728 3278 2906 2969 
L 2906 3500 
L 3481 3500 
L 3481 434 
z
" id="DejaVuSans-67" transform="scale(0.015625)"/>
      <path d="M 2834 3397 
L 2834 2853 
Q 2591 2978 2328 3040 
Q 2066 3103 1784 3103 
Q 1356 3103 1142 2972 
Q 928 2841 928 2578 
Q 928 2378 1081 2264 
Q 1234 2150 1697 2047 
L 1894 2003 
Q 2506 1872 2764 1633 
Q 3022 1394 3022 966 
Q 3022 478 2636 193 
Q 2250 -91 1575 -91 
Q 1294 -91 989 -36 
Q 684 19 347 128 
L 347 722 
Q 666 556 975 473 
Q 1284 391 1588 391 
Q 1994 391 2212 530 
Q 2431 669 2431 922 
Q 2431 1156 2273 1281 
Q 2116 1406 1581 1522 
L 1381 1569 
Q 847 1681 609 1914 
Q 372 2147 372 2553 
Q 372 3047 722 3315 
Q 1072 3584 1716 3584 
Q 2034 3584 2315 3537 
Q 2597 3491 2834 3397 
z
" id="DejaVuSans-73" transform="scale(0.015625)"/>
      <path d="M 1172 4494 
L 1172 3500 
L 2356 3500 
L 2356 3053 
L 1172 3053 
L 1172 1153 
Q 1172 725 1289 603 
Q 1406 481 1766 481 
L 2356 481 
L 2356 0 
L 1766 0 
Q 1100 0 847 248 
Q 594 497 594 1153 
L 594 3053 
L 172 3053 
L 172 3500 
L 594 3500 
L 594 4494 
L 1172 4494 
z
" id="DejaVuSans-74" transform="scale(0.015625)"/>
      <path d="M 2059 -325 
Q 1816 -950 1584 -1140 
Q 1353 -1331 966 -1331 
L 506 -1331 
L 506 -850 
L 844 -850 
Q 1081 -850 1212 -737 
Q 1344 -625 1503 -206 
L 1606 56 
L 191 3500 
L 800 3500 
L 1894 763 
L 2988 3500 
L 3597 3500 
L 2059 -325 
z
" id="DejaVuSans-79" transform="scale(0.015625)"/>
     </defs>
     <use xlink:href="#DejaVuSans-42"/>
     <use x="68.603516" xlink:href="#DejaVuSans-69"/>
     <use x="96.386719" xlink:href="#DejaVuSans-6f"/>
     <use x="157.568359" xlink:href="#DejaVuSans-72"/>
     <use x="196.431641" xlink:href="#DejaVuSans-65"/>
     <use x="257.955078" xlink:href="#DejaVuSans-67"/>
     <use x="321.431641" xlink:href="#DejaVuSans-69"/>
     <use x="349.214844" xlink:href="#DejaVuSans-73"/>
     <use x="401.314453" xlink:href="#DejaVuSans-74"/>
     <use x="440.523438" xlink:href="#DejaVuSans-72"/>
     <use x="481.636719" xlink:href="#DejaVuSans-79"/>
    </g>
   </g>
   <g id="text_5">
    <!-- OBO -->
    <g style="fill:#262626;" transform="translate(144.185839 107.798933)scale(0.12 -0.12)">
     <defs>
      <path d="M 2522 4238 
Q 1834 4238 1429 3725 
Q 1025 3213 1025 2328 
Q 1025 1447 1429 934 
Q 1834 422 2522 422 
Q 3209 422 3611 934 
Q 4013 1447 4013 2328 
Q 4013 3213 3611 3725 
Q 3209 4238 2522 4238 
z
M 2522 4750 
Q 3503 4750 4090 4092 
Q 4678 3434 4678 2328 
Q 4678 1225 4090 567 
Q 3503 -91 2522 -91 
Q 1538 -91 948 565 
Q 359 1222 359 2328 
Q 359 3434 948 4092 
Q 1538 4750 2522 4750 
z
" id="DejaVuSans-4f" transform="scale(0.015625)"/>
     </defs>
     <use xlink:href="#DejaVuSans-4f"/>
     <use x="78.710938" xlink:href="#DejaVuSans-42"/>
     <use x="145.564453" xlink:href="#DejaVuSans-4f"/>
    </g>
   </g>
  </g>
  <g id="axes_2">
   <g id="patch_5">
    <path clip-path="url(#p731f374839)" d="M 391.344861 81.147384 
C 390.244606 83.701313 388.714848 86.047944 386.8221 88.085251 
C 384.929352 90.122558 382.701447 91.820579 380.235251 93.105488 
C 377.769055 94.390397 375.100835 95.243298 372.346601 95.627109 
C 369.592367 96.01092 366.792623 95.919996 364.069095 95.35829 
C 361.345568 94.796584 358.73831 93.772357 356.36068 92.33014 
C 353.983049 90.887924 351.870012 89.048927 350.113439 86.893105 
C 348.356866 84.737284 346.98259 82.296341 346.05036 79.676405 
C 345.118131 77.05647 344.641658 74.296069 344.641658 71.515221 
C 344.641658 68.734374 345.118131 65.973973 346.05036 63.354037 
C 346.98259 60.734102 348.356866 58.293159 350.113439 56.137338 
C 351.870012 53.981516 353.983049 52.142519 356.36068 50.700302 
C 358.73831 49.258086 361.345568 48.233859 364.069095 47.672153 
C 366.792623 47.110447 369.592367 47.019523 372.346601 47.403334 
C 375.100835 47.787144 377.769055 48.640045 380.235251 49.924955 
C 382.701447 51.209864 384.929352 52.907885 386.8221 54.945192 
C 388.714848 56.982498 390.244606 59.32913 391.344861 61.883059 
C 390.156066 55.63065 387.819976 49.652009 384.454914 44.249953 
C 381.089852 38.847897 376.753608 34.115197 371.665811 30.291564 
C 366.578014 26.467931 360.826039 23.619028 354.701222 21.889154 
C 348.576405 20.159279 342.183929 19.57814 335.847574 20.17517 
C 329.511218 20.7722 323.339798 22.537147 317.645895 25.380617 
C 311.951992 28.224087 306.833389 32.097247 302.549344 36.803923 
C 298.265298 41.510599 294.88938 46.969962 292.59258 52.905496 
C 290.29578 58.841029 289.117541 65.150801 289.117541 71.515221 
C 289.117541 77.879642 290.29578 84.189414 292.59258 90.124947 
C 294.88938 96.06048 298.265298 101.519843 302.549344 106.22652 
C 306.833389 110.933196 311.951992 114.806356 317.645895 117.649826 
C 323.339798 120.493295 329.511218 122.258243 335.847574 122.855273 
C 342.183929 123.452303 348.576405 122.871164 354.701222 121.141289 
C 360.826039 119.411414 366.578014 116.562512 371.665811 112.738879 
C 376.753608 108.915246 381.089852 104.182546 384.454914 98.78049 
C 387.819976 93.378434 390.156066 87.399793 391.344861 81.147384 
" style="fill:#c0c0c0;opacity:0.4;"/>
   </g>
   <g id="patch_6">
    <path clip-path="url(#p731f374839)" d="M 391.344861 61.883059 
C 391.94857 65.058239 392.252432 68.283157 392.252432 71.515221 
C 392.252432 74.747285 391.94857 77.972203 391.344861 81.147384 
C 392.655405 78.105329 393.331417 74.827566 393.331417 71.515221 
C 393.331417 68.202877 392.655405 64.925114 391.344861 61.883059 
" style="fill:#1f78b4;opacity:0.4;"/>
   </g>
   <g id="patch_7">
    <path clip-path="url(#p731f374839)" d="M 391.344861 81.147384 
C 391.94857 77.972203 392.252432 74.747285 392.252432 71.515221 
C 392.252432 68.283157 391.94857 65.058239 391.344861 61.883059 
C 390.244606 59.32913 388.714848 56.982498 386.8221 54.945192 
C 384.929352 52.907885 382.701447 51.209864 380.235251 49.924955 
C 377.769055 48.640045 375.100835 47.787144 372.346601 47.403334 
C 369.592367 47.019523 366.792623 47.110447 364.069095 47.672153 
C 361.345568 48.233859 358.73831 49.258086 356.36068 50.700302 
C 353.983049 52.142519 351.870012 53.981516 350.113439 56.137338 
C 348.356866 58.293159 346.98259 60.734102 346.05036 63.354037 
C 345.118131 65.973973 344.641658 68.734374 344.641658 71.515221 
C 344.641658 74.296069 345.118131 77.05647 346.05036 79.676405 
C 346.98259 82.296341 348.356866 84.737284 350.113439 86.893105 
C 351.870012 89.048927 353.983049 90.887924 356.36068 92.33014 
C 358.73831 93.772357 361.345568 94.796584 364.069095 95.35829 
C 366.792623 95.919996 369.592367 96.01092 372.346601 95.627109 
C 375.100835 95.243298 377.769055 94.390397 380.235251 93.105488 
C 382.701447 91.820579 384.929352 90.122558 386.8221 88.085251 
C 388.714848 86.047944 390.244606 83.701313 391.344861 81.147384 
" style="fill:#9cdaff;opacity:0.4;"/>
   </g>
   <g id="text_6">
    <!-- 926 -->
    <g style="fill:#262626;" transform="translate(307.335849 74.274596)scale(0.1 -0.1)">
     <use xlink:href="#DejaVuSans-39"/>
     <use x="63.623047" xlink:href="#DejaVuSans-32"/>
     <use x="127.246094" xlink:href="#DejaVuSans-36"/>
    </g>
   </g>
   <g id="text_7">
    <!-- 2 -->
    <g style="fill:#262626;" transform="translate(389.610675 74.274596)scale(0.1 -0.1)">
     <use xlink:href="#DejaVuSans-32"/>
    </g>
   </g>
   <g id="text_8">
    <!-- 263 -->
    <g style="fill:#262626;" transform="translate(358.903295 74.274596)scale(0.1 -0.1)">
     <use xlink:href="#DejaVuSans-32"/>
     <use x="63.623047" xlink:href="#DejaVuSans-36"/>
     <use x="127.246094" xlink:href="#DejaVuSans-33"/>
    </g>
   </g>
   <g id="text_9">
    <!-- Bioregistry -->
    <g style="fill:#262626;" transform="translate(275.785611 135.996408)scale(0.12 -0.12)">
     <use xlink:href="#DejaVuSans-42"/>
     <use x="68.603516" xlink:href="#DejaVuSans-69"/>
     <use x="96.386719" xlink:href="#DejaVuSans-6f"/>
     <use x="157.568359" xlink:href="#DejaVuSans-72"/>
     <use x="196.431641" xlink:href="#DejaVuSans-65"/>
     <use x="257.955078" xlink:href="#DejaVuSans-67"/>
     <use x="321.431641" xlink:href="#DejaVuSans-69"/>
     <use x="349.214844" xlink:href="#DejaVuSans-73"/>
     <use x="401.314453" xlink:href="#DejaVuSans-74"/>
     <use x="440.523438" xlink:href="#DejaVuSans-72"/>
     <use x="481.636719" xlink:href="#DejaVuSans-79"/>
    </g>
   </g>
   <g id="text_10">
    <!-- OLS -->
    <g style="fill:#262626;" transform="translate(368.986538 108.773842)scale(0.12 -0.12)">
     <defs>
      <path d="M 628 4666 
L 1259 4666 
L 1259 531 
L 3531 531 
L 3531 0 
L 628 0 
L 628 4666 
z
" id="DejaVuSans-4c" transform="scale(0.015625)"/>
      <path d="M 3425 4513 
L 3425 3897 
Q 3066 4069 2747 4153 
Q 2428 4238 2131 4238 
Q 1616 4238 1336 4038 
Q 1056 3838 1056 3469 
Q 1056 3159 1242 3001 
Q 1428 2844 1947 2747 
L 2328 2669 
Q 3034 2534 3370 2195 
Q 3706 1856 3706 1288 
Q 3706 609 3251 259 
Q 2797 -91 1919 -91 
Q 1588 -91 1214 -16 
Q 841 59 441 206 
L 441 856 
Q 825 641 1194 531 
Q 1563 422 1919 422 
Q 2459 422 2753 634 
Q 3047 847 3047 1241 
Q 3047 1584 2836 1778 
Q 2625 1972 2144 2069 
L 1759 2144 
Q 1053 2284 737 2584 
Q 422 2884 422 3419 
Q 422 4038 858 4394 
Q 1294 4750 2059 4750 
Q 2388 4750 2728 4690 
Q 3069 4631 3425 4513 
z
" id="DejaVuSans-53" transform="scale(0.015625)"/>
     </defs>
     <use xlink:href="#DejaVuSans-4f"/>
     <use x="78.710938" xlink:href="#DejaVuSans-4c"/>
     <use x="134.423828" xlink:href="#DejaVuSans-53"/>
    </g>
   </g>
  </g>
  <g id="axes_3">
   <g id="patch_8">
    <path clip-path="url(#pfbafbfc198)" d="M 607.60643 101.182771 
C 601.796104 106.73799 594.479856 110.46579 586.57036 111.90114 
C 578.660865 113.336491 570.501285 112.417117 563.1095 109.257708 
C 555.717715 106.0983 549.414426 100.83593 544.985946 94.127062 
C 540.557465 87.418194 538.195928 79.5539 538.195928 71.515221 
C 538.195928 63.476543 540.557465 55.612248 544.985946 48.90338 
C 549.414426 42.194512 555.717715 36.932143 563.1095 33.772734 
C 570.501285 30.613325 578.660865 29.693952 586.57036 31.129302 
C 594.479856 32.564653 601.796104 36.292452 607.60643 41.847672 
C 604.475205 37.403519 600.660051 33.482979 596.302847 30.231849 
C 591.945643 26.980719 587.10108 24.439807 581.949316 22.703603 
C 576.797553 20.967399 571.403253 20.057697 565.96702 20.008325 
C 560.530786 19.958954 555.120854 20.770533 549.938407 22.412882 
C 544.755959 24.055231 539.866046 26.507736 535.450513 29.679192 
C 531.03498 32.850649 527.149249 36.70125 523.937823 41.087799 
C 520.726398 45.474349 518.229586 50.341788 516.54024 55.509106 
C 514.850894 60.676425 513.990217 66.078764 513.990217 71.515221 
C 513.990217 76.951679 514.850894 82.354018 516.54024 87.521336 
C 518.229586 92.688655 520.726398 97.556094 523.937823 101.942643 
C 527.149249 106.329193 531.03498 110.179794 535.450513 113.35125 
C 539.866046 116.522707 544.755959 118.975211 549.938407 120.617561 
C 555.120854 122.25991 560.530786 123.071489 565.96702 123.022118 
C 571.403253 122.972746 576.797553 122.063043 581.949316 120.32684 
C 587.10108 118.590636 591.945643 116.049723 596.302847 112.798594 
C 600.660051 109.547464 604.475205 105.626924 607.60643 101.182771 
" style="fill:#c0c0c0;opacity:0.4;"/>
   </g>
   <g id="patch_9">
    <path clip-path="url(#pfbafbfc198)" d="M 607.60643 41.847672 
C 613.72352 50.529664 617.008258 60.894686 617.008258 71.515221 
C 617.008258 82.135757 613.72352 92.500778 607.60643 101.182771 
C 611.614397 97.350777 614.80458 92.746034 616.983943 87.647177 
C 619.163305 82.548319 620.286983 77.060307 620.286983 71.515221 
C 620.286983 65.970136 619.163305 60.482124 616.983943 55.383266 
C 614.80458 50.284408 611.614397 45.679666 607.60643 41.847672 
" style="fill:#b2df8a;opacity:0.4;"/>
   </g>
   <g id="patch_10">
    <path clip-path="url(#pfbafbfc198)" d="M 607.60643 101.182771 
C 613.72352 92.500778 617.008258 82.135757 617.008258 71.515221 
C 617.008258 60.894686 613.72352 50.529664 607.60643 41.847672 
C 601.796104 36.292452 594.479856 32.564653 586.57036 31.129302 
C 578.660865 29.693952 570.501285 30.613325 563.1095 33.772734 
C 555.717715 36.932143 549.414426 42.194512 544.985946 48.90338 
C 540.557465 55.612248 538.195928 63.476543 538.195928 71.515221 
C 538.195928 79.5539 540.557465 87.418194 544.985946 94.127062 
C 549.414426 100.83593 555.717715 106.0983 563.1095 109.257708 
C 570.501285 112.417117 578.660865 113.336491 586.57036 111.90114 
C 594.479856 110.46579 601.796104 106.73799 607.60643 101.182771 
" style="fill:#ffffe7;opacity:0.4;"/>
   </g>
   <g id="text_11">
    <!-- 454 -->
    <g style="fill:#262626;" transform="translate(516.549323 74.274596)scale(0.1 -0.1)">
     <defs>
      <path d="M 691 4666 
L 3169 4666 
L 3169 4134 
L 1269 4134 
L 1269 2991 
Q 1406 3038 1543 3061 
Q 1681 3084 1819 3084 
Q 2600 3084 3056 2656 
Q 3513 2228 3513 1497 
Q 3513 744 3044 326 
Q 2575 -91 1722 -91 
Q 1428 -91 1123 -41 
Q 819 9 494 109 
L 494 744 
Q 775 591 1075 516 
Q 1375 441 1709 441 
Q 2250 441 2565 725 
Q 2881 1009 2881 1497 
Q 2881 1984 2565 2268 
Q 2250 2553 1709 2553 
Q 1456 2553 1204 2497 
Q 953 2441 691 2322 
L 691 4666 
z
" id="DejaVuSans-35" transform="scale(0.015625)"/>
     </defs>
     <use xlink:href="#DejaVuSans-34"/>
     <use x="63.623047" xlink:href="#DejaVuSans-35"/>
     <use x="127.246094" xlink:href="#DejaVuSans-34"/>
    </g>
   </g>
   <g id="text_12">
    <!-- 20 -->
    <g style="fill:#262626;" transform="translate(612.28512 74.274596)scale(0.1 -0.1)">
     <defs>
      <path d="M 2034 4250 
Q 1547 4250 1301 3770 
Q 1056 3291 1056 2328 
Q 1056 1369 1301 889 
Q 1547 409 2034 409 
Q 2525 409 2770 889 
Q 3016 1369 3016 2328 
Q 3016 3291 2770 3770 
Q 2525 4250 2034 4250 
z
M 2034 4750 
Q 2819 4750 3233 4129 
Q 3647 3509 3647 2328 
Q 3647 1150 3233 529 
Q 2819 -91 2034 -91 
Q 1250 -91 836 529 
Q 422 1150 422 2328 
Q 422 3509 836 4129 
Q 1250 4750 2034 4750 
z
" id="DejaVuSans-30" transform="scale(0.015625)"/>
     </defs>
     <use xlink:href="#DejaVuSans-32"/>
     <use x="63.623047" xlink:href="#DejaVuSans-30"/>
    </g>
   </g>
   <g id="text_13">
    <!-- 735 -->
    <g style="fill:#262626;" transform="translate(568.058343 74.274596)scale(0.1 -0.1)">
     <defs>
      <path d="M 525 4666 
L 3525 4666 
L 3525 4397 
L 1831 0 
L 1172 0 
L 2766 4134 
L 525 4134 
L 525 4666 
z
" id="DejaVuSans-37" transform="scale(0.015625)"/>
     </defs>
     <use xlink:href="#DejaVuSans-37"/>
     <use x="63.623047" xlink:href="#DejaVuSans-33"/>
     <use x="127.246094" xlink:href="#DejaVuSans-35"/>
    </g>
   </g>
   <g id="text_14">
    <!-- Bioregistry -->
    <g style="fill:#262626;" transform="translate(500.599863 136.770094)scale(0.12 -0.12)">
     <use xlink:href="#DejaVuSans-42"/>
     <use x="68.603516" xlink:href="#DejaVuSans-69"/>
     <use x="96.386719" xlink:href="#DejaVuSans-6f"/>
     <use x="157.568359" xlink:href="#DejaVuSans-72"/>
     <use x="196.431641" xlink:href="#DejaVuSans-65"/>
     <use x="257.955078" xlink:href="#DejaVuSans-67"/>
     <use x="321.431641" xlink:href="#DejaVuSans-69"/>
     <use x="349.214844" xlink:href="#DejaVuSans-73"/>
     <use x="401.314453" xlink:href="#DejaVuSans-74"/>
     <use x="440.523438" xlink:href="#DejaVuSans-72"/>
     <use x="481.636719" xlink:href="#DejaVuSans-79"/>
    </g>
   </g>
   <g id="text_15">
    <!-- MIRIAM -->
    <g style="fill:#262626;" transform="translate(579.241455 126.306601)scale(0.12 -0.12)">
     <defs>
      <path d="M 628 4666 
L 1569 4666 
L 2759 1491 
L 3956 4666 
L 4897 4666 
L 4897 0 
L 4281 0 
L 4281 4097 
L 3078 897 
L 2444 897 
L 1241 4097 
L 1241 0 
L 628 0 
L 628 4666 
z
" id="DejaVuSans-4d" transform="scale(0.015625)"/>
      <path d="M 628 4666 
L 1259 4666 
L 1259 0 
L 628 0 
L 628 4666 
z
" id="DejaVuSans-49" transform="scale(0.015625)"/>
      <path d="M 2841 2188 
Q 3044 2119 3236 1894 
Q 3428 1669 3622 1275 
L 4263 0 
L 3584 0 
L 2988 1197 
Q 2756 1666 2539 1819 
Q 2322 1972 1947 1972 
L 1259 1972 
L 1259 0 
L 628 0 
L 628 4666 
L 2053 4666 
Q 2853 4666 3247 4331 
Q 3641 3997 3641 3322 
Q 3641 2881 3436 2590 
Q 3231 2300 2841 2188 
z
M 1259 4147 
L 1259 2491 
L 2053 2491 
Q 2509 2491 2742 2702 
Q 2975 2913 2975 3322 
Q 2975 3731 2742 3939 
Q 2509 4147 2053 4147 
L 1259 4147 
z
" id="DejaVuSans-52" transform="scale(0.015625)"/>
      <path d="M 2188 4044 
L 1331 1722 
L 3047 1722 
L 2188 4044 
z
M 1831 4666 
L 2547 4666 
L 4325 0 
L 3669 0 
L 3244 1197 
L 1141 1197 
L 716 0 
L 50 0 
L 1831 4666 
z
" id="DejaVuSans-41" transform="scale(0.015625)"/>
     </defs>
     <use xlink:href="#DejaVuSans-4d"/>
     <use x="86.279297" xlink:href="#DejaVuSans-49"/>
     <use x="115.771484" xlink:href="#DejaVuSans-52"/>
     <use x="185.253906" xlink:href="#DejaVuSans-49"/>
     <use x="214.746094" xlink:href="#DejaVuSans-41"/>
     <use x="283.154297" xlink:href="#DejaVuSans-4d"/>
    </g>
   </g>
  </g>
  <g id="axes_4">
   <g id="patch_11">
    <path clip-path="url(#pe4c830a407)" d="M 146.502749 230.132099 
C 144.014565 228.03961 142.01397 225.427938 140.641617 222.480699 
C 139.269265 219.53346 138.558088 216.321382 138.558088 213.070295 
C 138.558088 209.819208 139.269265 206.60713 140.641617 203.659891 
C 142.01397 200.712652 144.014565 198.10098 146.502749 196.008491 
C 144.506887 190.388457 141.540284 185.161974 137.738126 180.567211 
C 133.935968 175.972449 129.356901 172.080277 124.209591 169.06806 
C 119.062281 166.055844 113.426121 163.970043 107.557949 162.905709 
C 101.689777 161.841374 95.680105 161.814922 89.802791 162.827556 
C 83.925477 163.840191 78.271174 165.876295 73.097547 168.843082 
C 67.923919 171.809869 63.310766 175.66158 59.468307 180.222694 
C 55.625848 184.783807 52.61335 189.983972 50.568091 195.586218 
C 48.522832 201.188465 47.476359 207.106383 47.476359 213.070295 
C 47.476359 219.034207 48.522832 224.952125 50.568091 230.554372 
C 52.61335 236.156618 55.625848 241.356783 59.468307 245.917896 
C 63.310766 250.47901 67.923919 254.330721 73.097547 257.297508 
C 78.271174 260.264295 83.925477 262.300399 89.802791 263.313034 
C 95.680105 264.325668 101.689777 264.299216 107.557949 263.234881 
C 113.426121 262.170547 119.062281 260.084746 124.209591 257.07253 
C 129.356901 254.060313 133.935968 250.168141 137.738126 245.573379 
C 141.540284 240.978616 144.506887 235.752133 146.502749 230.132099 
" style="fill:#c0c0c0;opacity:0.4;"/>
   </g>
   <g id="patch_12">
    <path clip-path="url(#pe4c830a407)" d="M 146.502749 196.008491 
C 148.448172 201.486497 149.442422 207.257101 149.442422 213.070295 
C 149.442422 218.883489 148.448172 224.654093 146.502749 230.132099 
C 149.751806 232.86446 153.714727 234.612729 157.923203 235.170307 
C 162.13168 235.727886 166.413138 235.071911 170.261626 233.2799 
C 174.110115 231.487889 177.367822 228.633326 179.649776 225.053543 
C 181.93173 221.473759 183.144357 217.315547 183.144357 213.070295 
C 183.144357 208.825043 181.93173 204.666831 179.649776 201.087047 
C 177.367822 197.507264 174.110115 194.652701 170.261626 192.86069 
C 166.413138 191.068679 162.13168 190.412704 157.923203 190.970283 
C 153.714727 191.527861 149.751806 193.27613 146.502749 196.008491 
" style="fill:#33a02c;opacity:0.4;"/>
   </g>
   <g id="patch_13">
    <path clip-path="url(#pe4c830a407)" d="M 146.502749 230.132099 
C 148.448172 224.654093 149.442422 218.883489 149.442422 213.070295 
C 149.442422 207.257101 148.448172 201.486497 146.502749 196.008491 
C 144.014565 198.10098 142.01397 200.712652 140.641617 203.659891 
C 139.269265 206.60713 138.558088 209.819208 138.558088 213.070295 
C 138.558088 216.321382 139.269265 219.53346 140.641617 222.480699 
C 142.01397 225.427938 144.014565 228.03961 146.502749 230.132099 
" style="fill:#aaf6a5;opacity:0.4;"/>
   </g>
   <g id="text_16">
    <!-- 1145 -->
    <g style="fill:#262626;" transform="translate(80.292224 215.82967)scale(0.1 -0.1)">
     <defs>
      <path d="M 794 531 
L 1825 531 
L 1825 4091 
L 703 3866 
L 703 4441 
L 1819 4666 
L 2450 4666 
L 2450 531 
L 3481 531 
L 3481 0 
L 794 0 
L 794 531 
z
" id="DejaVuSans-31" transform="scale(0.015625)"/>
     </defs>
     <use xlink:href="#DejaVuSans-31"/>
     <use x="63.623047" xlink:href="#DejaVuSans-31"/>
     <use x="127.246094" xlink:href="#DejaVuSans-34"/>
     <use x="190.869141" xlink:href="#DejaVuSans-35"/>
    </g>
   </g>
   <g id="text_17">
    <!-- 189 -->
    <g style="fill:#262626;" transform="translate(156.749639 215.82967)scale(0.1 -0.1)">
     <defs>
      <path d="M 2034 2216 
Q 1584 2216 1326 1975 
Q 1069 1734 1069 1313 
Q 1069 891 1326 650 
Q 1584 409 2034 409 
Q 2484 409 2743 651 
Q 3003 894 3003 1313 
Q 3003 1734 2745 1975 
Q 2488 2216 2034 2216 
z
M 1403 2484 
Q 997 2584 770 2862 
Q 544 3141 544 3541 
Q 544 4100 942 4425 
Q 1341 4750 2034 4750 
Q 2731 4750 3128 4425 
Q 3525 4100 3525 3541 
Q 3525 3141 3298 2862 
Q 3072 2584 2669 2484 
Q 3125 2378 3379 2068 
Q 3634 1759 3634 1313 
Q 3634 634 3220 271 
Q 2806 -91 2034 -91 
Q 1263 -91 848 271 
Q 434 634 434 1313 
Q 434 1759 690 2068 
Q 947 2378 1403 2484 
z
M 1172 3481 
Q 1172 3119 1398 2916 
Q 1625 2713 2034 2713 
Q 2441 2713 2670 2916 
Q 2900 3119 2900 3481 
Q 2900 3844 2670 4047 
Q 2441 4250 2034 4250 
Q 1625 4250 1398 4047 
Q 1172 3844 1172 3481 
z
" id="DejaVuSans-38" transform="scale(0.015625)"/>
     </defs>
     <use xlink:href="#DejaVuSans-31"/>
     <use x="63.623047" xlink:href="#DejaVuSans-38"/>
     <use x="127.246094" xlink:href="#DejaVuSans-39"/>
    </g>
   </g>
   <g id="text_18">
    <!-- 37 -->
    <g style="fill:#262626;" transform="translate(137.637755 215.82967)scale(0.1 -0.1)">
     <use xlink:href="#DejaVuSans-33"/>
     <use x="63.623047" xlink:href="#DejaVuSans-37"/>
    </g>
   </g>
   <g id="text_19">
    <!-- Bioregistry -->
    <g style="fill:#262626;" transform="translate(33.560015 276.83526)scale(0.12 -0.12)">
     <use xlink:href="#DejaVuSans-42"/>
     <use x="68.603516" xlink:href="#DejaVuSans-69"/>
     <use x="96.386719" xlink:href="#DejaVuSans-6f"/>
     <use x="157.568359" xlink:href="#DejaVuSans-72"/>
     <use x="196.431641" xlink:href="#DejaVuSans-65"/>
     <use x="257.955078" xlink:href="#DejaVuSans-67"/>
     <use x="321.431641" xlink:href="#DejaVuSans-69"/>
     <use x="349.214844" xlink:href="#DejaVuSans-73"/>
     <use x="401.314453" xlink:href="#DejaVuSans-74"/>
     <use x="440.523438" xlink:href="#DejaVuSans-72"/>
     <use x="481.636719" xlink:href="#DejaVuSans-79"/>
    </g>
   </g>
   <g id="text_20">
    <!-- Wikidata -->
    <g style="fill:#262626;" transform="translate(160.851223 248.145363)scale(0.12 -0.12)">
     <defs>
      <path d="M 213 4666 
L 850 4666 
L 1831 722 
L 2809 4666 
L 3519 4666 
L 4500 722 
L 5478 4666 
L 6119 4666 
L 4947 0 
L 4153 0 
L 3169 4050 
L 2175 0 
L 1381 0 
L 213 4666 
z
" id="DejaVuSans-57" transform="scale(0.015625)"/>
      <path d="M 581 4863 
L 1159 4863 
L 1159 1991 
L 2875 3500 
L 3609 3500 
L 1753 1863 
L 3688 0 
L 2938 0 
L 1159 1709 
L 1159 0 
L 581 0 
L 581 4863 
z
" id="DejaVuSans-6b" transform="scale(0.015625)"/>
      <path d="M 2906 2969 
L 2906 4863 
L 3481 4863 
L 3481 0 
L 2906 0 
L 2906 525 
Q 2725 213 2448 61 
Q 2172 -91 1784 -91 
Q 1150 -91 751 415 
Q 353 922 353 1747 
Q 353 2572 751 3078 
Q 1150 3584 1784 3584 
Q 2172 3584 2448 3432 
Q 2725 3281 2906 2969 
z
M 947 1747 
Q 947 1113 1208 752 
Q 1469 391 1925 391 
Q 2381 391 2643 752 
Q 2906 1113 2906 1747 
Q 2906 2381 2643 2742 
Q 2381 3103 1925 3103 
Q 1469 3103 1208 2742 
Q 947 2381 947 1747 
z
" id="DejaVuSans-64" transform="scale(0.015625)"/>
      <path d="M 2194 1759 
Q 1497 1759 1228 1600 
Q 959 1441 959 1056 
Q 959 750 1161 570 
Q 1363 391 1709 391 
Q 2188 391 2477 730 
Q 2766 1069 2766 1631 
L 2766 1759 
L 2194 1759 
z
M 3341 1997 
L 3341 0 
L 2766 0 
L 2766 531 
Q 2569 213 2275 61 
Q 1981 -91 1556 -91 
Q 1019 -91 701 211 
Q 384 513 384 1019 
Q 384 1609 779 1909 
Q 1175 2209 1959 2209 
L 2766 2209 
L 2766 2266 
Q 2766 2663 2505 2880 
Q 2244 3097 1772 3097 
Q 1472 3097 1187 3025 
Q 903 2953 641 2809 
L 641 3341 
Q 956 3463 1253 3523 
Q 1550 3584 1831 3584 
Q 2591 3584 2966 3190 
Q 3341 2797 3341 1997 
z
" id="DejaVuSans-61" transform="scale(0.015625)"/>
     </defs>
     <use xlink:href="#DejaVuSans-57"/>
     <use x="96.626953" xlink:href="#DejaVuSans-69"/>
     <use x="124.410156" xlink:href="#DejaVuSans-6b"/>
     <use x="182.320312" xlink:href="#DejaVuSans-69"/>
     <use x="210.103516" xlink:href="#DejaVuSans-64"/>
     <use x="273.580078" xlink:href="#DejaVuSans-61"/>
     <use x="334.859375" xlink:href="#DejaVuSans-74"/>
     <use x="374.068359" xlink:href="#DejaVuSans-61"/>
    </g>
   </g>
  </g>
  <g id="axes_5">
   <g id="patch_14">
    <path clip-path="url(#pab4f2b2df2)" d="M 386.082876 236.455304 
C 383.640895 239.7319 380.700678 242.605861 377.369284 244.97254 
C 374.03789 247.339218 370.356251 249.169536 366.458424 250.396848 
C 362.560597 251.624159 358.494471 252.233385 354.408105 252.202341 
C 350.321739 252.171297 346.265339 251.500366 342.386608 250.213977 
C 338.507877 248.927587 334.854471 247.041546 331.559419 244.624526 
C 328.264366 242.207507 325.368152 239.289207 322.976234 235.975889 
C 320.584316 232.66257 318.726083 228.994942 317.469196 225.10655 
C 316.21231 221.218159 315.572213 217.156779 315.572213 213.070295 
C 315.572213 208.983811 316.21231 204.922431 317.469196 201.03404 
C 318.726083 197.145648 320.584316 193.47802 322.976234 190.164701 
C 325.368152 186.851383 328.264366 183.933083 331.559419 181.516064 
C 334.854471 179.099044 338.507877 177.213003 342.386608 175.926613 
C 346.265339 174.640224 350.321739 173.969293 354.408105 173.938249 
C 358.494471 173.907205 362.560597 174.516431 366.458424 175.743742 
C 370.356251 176.971054 374.03789 178.801372 377.369284 181.16805 
C 380.700678 183.534729 383.640895 186.40869 386.082876 189.685286 
C 383.474619 184.562346 380.027561 179.911687 375.884678 175.926208 
C 371.741796 171.940729 366.961171 168.676305 361.741094 166.268337 
C 356.521017 163.860369 350.934671 162.342616 345.213765 161.77803 
C 339.49286 161.213445 333.7176 161.609943 328.127531 162.951079 
C 322.537462 164.292215 317.210954 166.559185 312.368941 169.657962 
C 307.526927 172.756739 303.23729 176.643879 299.677955 181.158151 
C 296.118619 185.672422 293.339486 190.750538 291.455828 196.181868 
C 289.57217 201.613199 288.610395 207.321598 288.610395 213.070295 
C 288.610395 218.818992 289.57217 224.527391 291.455828 229.958722 
C 293.339486 235.390052 296.118619 240.468168 299.677955 244.982439 
C 303.23729 249.496711 307.526927 253.383851 312.368941 256.482628 
C 317.210954 259.581405 322.537462 261.848375 328.127531 263.189511 
C 333.7176 264.530647 339.49286 264.927145 345.213765 264.36256 
C 350.934671 263.797974 356.521017 262.280221 361.741094 259.872253 
C 366.961171 257.464285 371.741796 254.199861 375.884678 250.214382 
C 380.027561 246.228903 383.474619 241.578244 386.082876 236.455304 
" style="fill:#c0c0c0;opacity:0.4;"/>
   </g>
   <g id="patch_15">
    <path clip-path="url(#pab4f2b2df2)" d="M 386.082876 189.685286 
C 389.770631 196.928492 391.693266 204.942345 391.693266 213.070295 
C 391.693266 221.198245 389.770631 229.212098 386.082876 236.455304 
C 391.11763 229.699782 393.838563 221.495604 393.838563 213.070295 
C 393.838563 204.644986 391.11763 196.440808 386.082876 189.685286 
" style="fill:#fb9a99;opacity:0.4;"/>
   </g>
   <g id="patch_16">
    <path clip-path="url(#pab4f2b2df2)" d="M 386.082876 236.455304 
C 389.770631 229.212098 391.693266 221.198245 391.693266 213.070295 
C 391.693266 204.942345 389.770631 196.928492 386.082876 189.685286 
C 383.640895 186.40869 380.700678 183.534729 377.369284 181.16805 
C 374.03789 178.801372 370.356251 176.971054 366.458424 175.743742 
C 362.560597 174.516431 358.494471 173.907205 354.408105 173.938249 
C 350.321739 173.969293 346.265339 174.640224 342.386608 175.926613 
C 338.507877 177.213003 334.854471 179.099044 331.559419 181.516064 
C 328.264366 183.933083 325.368152 186.851383 322.976234 190.164701 
C 320.584316 193.47802 318.726083 197.145648 317.469196 201.03404 
C 316.21231 204.922431 315.572213 208.983811 315.572213 213.070295 
C 315.572213 217.156779 316.21231 221.218159 317.469196 225.10655 
C 318.726083 228.994942 320.584316 232.66257 322.976234 235.975889 
C 325.368152 239.289207 328.264366 242.207507 331.559419 244.624526 
C 334.854471 247.041546 338.507877 248.927587 342.386608 250.213977 
C 346.265339 251.500366 350.321739 252.171297 354.408105 252.202341 
C 358.494471 252.233385 362.560597 251.624159 366.458424 250.396848 
C 370.356251 249.169536 374.03789 247.339218 377.369284 244.97254 
C 380.700678 242.605861 383.640895 239.7319 386.082876 236.455304 
" style="fill:#fff2f2;opacity:0.4;"/>
   </g>
   <g id="text_21">
    <!-- 514 -->
    <g style="fill:#262626;" transform="translate(292.547554 215.82967)scale(0.1 -0.1)">
     <use xlink:href="#DejaVuSans-35"/>
     <use x="63.623047" xlink:href="#DejaVuSans-31"/>
     <use x="127.246094" xlink:href="#DejaVuSans-34"/>
    </g>
   </g>
   <g id="text_22">
    <!-- 10 -->
    <g style="fill:#262626;" transform="translate(386.403415 215.82967)scale(0.1 -0.1)">
     <use xlink:href="#DejaVuSans-31"/>
     <use x="63.623047" xlink:href="#DejaVuSans-30"/>
    </g>
   </g>
   <g id="text_23">
    <!-- 676 -->
    <g style="fill:#262626;" transform="translate(344.088989 215.82967)scale(0.1 -0.1)">
     <use xlink:href="#DejaVuSans-36"/>
     <use x="63.623047" xlink:href="#DejaVuSans-37"/>
     <use x="127.246094" xlink:href="#DejaVuSans-36"/>
    </g>
   </g>
   <g id="text_24">
    <!-- Bioregistry -->
    <g style="fill:#262626;" transform="translate(275.252455 278.263586)scale(0.12 -0.12)">
     <use xlink:href="#DejaVuSans-42"/>
     <use x="68.603516" xlink:href="#DejaVuSans-69"/>
     <use x="96.386719" xlink:href="#DejaVuSans-6f"/>
     <use x="157.568359" xlink:href="#DejaVuSans-72"/>
     <use x="196.431641" xlink:href="#DejaVuSans-65"/>
     <use x="257.955078" xlink:href="#DejaVuSans-67"/>
     <use x="321.431641" xlink:href="#DejaVuSans-69"/>
     <use x="349.214844" xlink:href="#DejaVuSans-73"/>
     <use x="401.314453" xlink:href="#DejaVuSans-74"/>
     <use x="440.523438" xlink:href="#DejaVuSans-72"/>
     <use x="481.636719" xlink:href="#DejaVuSans-79"/>
    </g>
   </g>
   <g id="text_25">
    <!-- N2T -->
    <g style="fill:#262626;" transform="translate(354.705388 265.855326)scale(0.12 -0.12)">
     <defs>
      <path d="M 628 4666 
L 1478 4666 
L 3547 763 
L 3547 4666 
L 4159 4666 
L 4159 0 
L 3309 0 
L 1241 3903 
L 1241 0 
L 628 0 
L 628 4666 
z
" id="DejaVuSans-4e" transform="scale(0.015625)"/>
      <path d="M -19 4666 
L 3928 4666 
L 3928 4134 
L 2272 4134 
L 2272 0 
L 1638 0 
L 1638 4134 
L -19 4134 
L -19 4666 
z
" id="DejaVuSans-54" transform="scale(0.015625)"/>
     </defs>
     <use xlink:href="#DejaVuSans-4e"/>
     <use x="74.804688" xlink:href="#DejaVuSans-32"/>
     <use x="138.427734" xlink:href="#DejaVuSans-54"/>
    </g>
   </g>
  </g>
  <g id="axes_6">
   <g id="patch_17">
    <path clip-path="url(#pdc9ac258d4)" d="M 602.054462 236.793407 
C 596.250079 236.102229 590.896493 233.30427 587.015231 228.933412 
C 583.133969 224.562554 580.988663 218.915686 580.988663 213.070295 
C 580.988663 207.224904 583.133969 201.578035 587.015231 197.207178 
C 590.896493 192.83632 596.250079 190.038361 602.054462 189.347183 
C 599.419399 184.308883 595.963204 179.744647 591.828069 175.842251 
C 587.692934 171.939856 582.936355 168.75356 577.754019 166.414451 
C 572.571684 164.075342 567.035649 162.615943 561.373671 162.096294 
C 555.711692 161.576646 550.002496 162.003973 544.480963 163.360695 
C 538.959429 164.717418 533.70233 166.984671 528.925946 170.06918 
C 524.149563 173.153688 519.920307 177.012564 516.412172 181.48705 
C 512.904038 185.961536 510.165803 190.989418 508.310121 196.363846 
C 506.454439 201.738274 505.507111 207.38452 505.507111 213.070295 
C 505.507111 218.75607 506.454439 224.402316 508.310121 229.776744 
C 510.165803 235.151172 512.904038 240.179054 516.412172 244.65354 
C 519.920307 249.128026 524.149563 252.986901 528.925946 256.07141 
C 533.70233 259.155918 538.959429 261.423172 544.480963 262.779895 
C 550.002496 264.136617 555.711692 264.563944 561.373671 264.044296 
C 567.035649 263.524647 572.571684 262.065248 577.754019 259.726139 
C 582.936355 257.38703 587.692934 254.200734 591.828069 250.298339 
C 595.963204 246.395943 599.419399 241.831707 602.054462 236.793407 
" style="fill:#c0c0c0;opacity:0.4;"/>
   </g>
   <g id="patch_18">
    <path clip-path="url(#pdc9ac258d4)" d="M 602.054462 189.347183 
C 605.883388 196.668174 607.883582 204.80848 607.883582 213.070295 
C 607.883582 221.33211 605.883388 229.472416 602.054462 236.793407 
C 605.406477 237.19256 608.80534 236.876771 612.026443 235.866909 
C 615.247545 234.857047 618.218336 233.175858 620.742493 230.93444 
C 623.266651 228.693023 625.287322 225.941863 626.670973 222.862766 
C 628.054624 219.78367 628.770089 216.445991 628.770089 213.070295 
C 628.770089 209.694599 628.054624 206.35692 626.670973 203.277824 
C 625.287322 200.198727 623.266651 197.447567 620.742493 195.20615 
C 618.218336 192.964732 615.247545 191.283543 612.026443 190.273681 
C 608.80534 189.263819 605.406477 188.94803 602.054462 189.347183 
" style="fill:#e31a1c;opacity:0.4;"/>
   </g>
   <g id="patch_19">
    <path clip-path="url(#pdc9ac258d4)" d="M 602.054462 236.793407 
C 605.883388 229.472416 607.883582 221.33211 607.883582 213.070295 
C 607.883582 204.80848 605.883388 196.668174 602.054462 189.347183 
C 596.250079 190.038361 590.896493 192.83632 587.015231 197.207178 
C 583.133969 201.578035 580.988663 207.224904 580.988663 213.070295 
C 580.988663 218.915686 583.133969 224.562554 587.015231 228.933412 
C 590.896493 233.30427 596.250079 236.102229 602.054462 236.793407 
" style="fill:#ff999a;opacity:0.4;"/>
   </g>
   <g id="text_26">
    <!-- 1052 -->
    <g style="fill:#262626;" transform="translate(530.522887 215.82967)scale(0.1 -0.1)">
     <use xlink:href="#DejaVuSans-31"/>
     <use x="63.623047" xlink:href="#DejaVuSans-30"/>
     <use x="127.246094" xlink:href="#DejaVuSans-35"/>
     <use x="190.869141" xlink:href="#DejaVuSans-32"/>
    </g>
   </g>
   <g id="text_27">
    <!-- 122 -->
    <g style="fill:#262626;" transform="translate(608.783086 215.82967)scale(0.1 -0.1)">
     <use xlink:href="#DejaVuSans-31"/>
     <use x="63.623047" xlink:href="#DejaVuSans-32"/>
     <use x="127.246094" xlink:href="#DejaVuSans-32"/>
    </g>
   </g>
   <g id="text_28">
    <!-- 137 -->
    <g style="fill:#262626;" transform="translate(584.892372 215.82967)scale(0.1 -0.1)">
     <use xlink:href="#DejaVuSans-31"/>
     <use x="63.623047" xlink:href="#DejaVuSans-33"/>
     <use x="127.246094" xlink:href="#DejaVuSans-37"/>
    </g>
   </g>
   <g id="text_29">
    <!-- Bioregistry -->
    <g style="fill:#262626;" transform="translate(491.795971 277.130603)scale(0.12 -0.12)">
     <use xlink:href="#DejaVuSans-42"/>
     <use x="68.603516" xlink:href="#DejaVuSans-69"/>
     <use x="96.386719" xlink:href="#DejaVuSans-6f"/>
     <use x="157.568359" xlink:href="#DejaVuSans-72"/>
     <use x="196.431641" xlink:href="#DejaVuSans-65"/>
     <use x="257.955078" xlink:href="#DejaVuSans-67"/>
     <use x="321.431641" xlink:href="#DejaVuSans-69"/>
     <use x="349.214844" xlink:href="#DejaVuSans-73"/>
     <use x="401.314453" xlink:href="#DejaVuSans-74"/>
     <use x="440.523438" xlink:href="#DejaVuSans-72"/>
     <use x="481.636719" xlink:href="#DejaVuSans-79"/>
    </g>
   </g>
   <g id="text_30">
    <!-- GO -->
    <g style="fill:#262626;" transform="translate(604.879376 249.833081)scale(0.12 -0.12)">
     <defs>
      <path d="M 3809 666 
L 3809 1919 
L 2778 1919 
L 2778 2438 
L 4434 2438 
L 4434 434 
Q 4069 175 3628 42 
Q 3188 -91 2688 -91 
Q 1594 -91 976 548 
Q 359 1188 359 2328 
Q 359 3472 976 4111 
Q 1594 4750 2688 4750 
Q 3144 4750 3555 4637 
Q 3966 4525 4313 4306 
L 4313 3634 
Q 3963 3931 3569 4081 
Q 3175 4231 2741 4231 
Q 1884 4231 1454 3753 
Q 1025 3275 1025 2328 
Q 1025 1384 1454 906 
Q 1884 428 2741 428 
Q 3075 428 3337 486 
Q 3600 544 3809 666 
z
" id="DejaVuSans-47" transform="scale(0.015625)"/>
     </defs>
     <use xlink:href="#DejaVuSans-47"/>
     <use x="77.490234" xlink:href="#DejaVuSans-4f"/>
    </g>
   </g>
  </g>
  <g id="axes_7">
   <g id="patch_20">
    <path clip-path="url(#p99ff8a4d0e)" d="M 123.314179 391.503789 
C 117.116582 387.551455 112.014149 382.099856 108.480088 375.65458 
C 104.946027 369.209305 103.093074 361.975958 103.093074 354.625369 
C 103.093074 347.274779 104.946027 340.041432 108.480088 333.596157 
C 112.014149 327.150882 117.116582 321.699282 123.314179 317.746948 
C 116.173291 311.266879 107.301675 306.998274 97.782028 305.462077 
C 88.262382 303.92588 78.498389 305.187235 69.681655 309.092204 
C 60.864922 312.997173 53.369324 319.380165 48.109631 327.462194 
C 42.849938 335.544224 40.049189 344.98257 40.049189 354.625369 
C 40.049189 364.268168 42.849938 373.706514 48.109631 381.788543 
C 53.369324 389.870573 60.864922 396.253565 69.681655 400.158534 
C 78.498389 404.063503 88.262382 405.324857 97.782028 403.78866 
C 107.301675 402.252464 116.173291 397.983859 123.314179 391.503789 
" style="fill:#c0c0c0;opacity:0.4;"/>
   </g>
   <g id="patch_21">
    <path clip-path="url(#p99ff8a4d0e)" d="M 123.314179 317.746948 
C 128.458001 322.41476 132.568773 328.107545 135.381654 334.458535 
C 138.194535 340.809525 139.647789 347.679336 139.647789 354.625369 
C 139.647789 361.571401 138.194535 368.441212 135.381654 374.792202 
C 132.568773 381.143192 128.458001 386.835977 123.314179 391.503789 
C 129.925072 395.719691 137.549549 398.081418 145.386035 398.340678 
C 153.222522 398.599938 160.986424 396.747316 167.861512 392.977581 
C 174.7366 389.207846 180.473194 383.657901 184.468197 376.911222 
C 188.4632 370.164542 190.571527 362.466143 190.571527 354.625369 
C 190.571527 346.784595 188.4632 339.086195 184.468197 332.339516 
C 180.473194 325.592836 174.7366 320.042891 167.861512 316.273156 
C 160.986424 312.503421 153.222522 310.650799 145.386035 310.910059 
C 137.549549 311.16932 129.925072 313.531046 123.314179 317.746948 
" style="fill:#fdbf6f;opacity:0.4;"/>
   </g>
   <g id="patch_22">
    <path clip-path="url(#p99ff8a4d0e)" d="M 123.314179 391.503789 
C 128.458001 386.835977 132.568773 381.143192 135.381654 374.792202 
C 138.194535 368.441212 139.647789 361.571401 139.647789 354.625369 
C 139.647789 347.679336 138.194535 340.809525 135.381654 334.458535 
C 132.568773 328.107545 128.458001 322.41476 123.314179 317.746948 
C 117.116582 321.699282 112.014149 327.150882 108.480088 333.596157 
C 104.946027 340.041432 103.093074 347.274779 103.093074 354.625369 
C 103.093074 361.975958 104.946027 369.209305 108.480088 375.65458 
C 112.014149 382.099856 117.116582 387.551455 123.314179 391.503789 
" style="fill:#ffffd4;opacity:0.4;"/>
   </g>
   <g id="text_31">
    <!-- 902 -->
    <g style="fill:#262626;" transform="translate(62.027381 357.384744)scale(0.1 -0.1)">
     <use xlink:href="#DejaVuSans-39"/>
     <use x="63.623047" xlink:href="#DejaVuSans-30"/>
     <use x="127.246094" xlink:href="#DejaVuSans-32"/>
    </g>
   </g>
   <g id="text_32">
    <!-- 630 -->
    <g style="fill:#262626;" transform="translate(155.565908 357.384744)scale(0.1 -0.1)">
     <use xlink:href="#DejaVuSans-36"/>
     <use x="63.623047" xlink:href="#DejaVuSans-33"/>
     <use x="127.246094" xlink:href="#DejaVuSans-30"/>
    </g>
   </g>
   <g id="text_33">
    <!-- 288 -->
    <g style="fill:#262626;" transform="translate(111.826682 357.384744)scale(0.1 -0.1)">
     <use xlink:href="#DejaVuSans-32"/>
     <use x="63.623047" xlink:href="#DejaVuSans-38"/>
     <use x="127.246094" xlink:href="#DejaVuSans-38"/>
    </g>
   </g>
   <g id="text_34">
    <!-- Bioregistry -->
    <g style="fill:#262626;" transform="translate(24.949114 418.21972)scale(0.12 -0.12)">
     <use xlink:href="#DejaVuSans-42"/>
     <use x="68.603516" xlink:href="#DejaVuSans-69"/>
     <use x="96.386719" xlink:href="#DejaVuSans-6f"/>
     <use x="157.568359" xlink:href="#DejaVuSans-72"/>
     <use x="196.431641" xlink:href="#DejaVuSans-65"/>
     <use x="257.955078" xlink:href="#DejaVuSans-67"/>
     <use x="321.431641" xlink:href="#DejaVuSans-69"/>
     <use x="349.214844" xlink:href="#DejaVuSans-73"/>
     <use x="401.314453" xlink:href="#DejaVuSans-74"/>
     <use x="440.523438" xlink:href="#DejaVuSans-72"/>
     <use x="481.636719" xlink:href="#DejaVuSans-79"/>
    </g>
   </g>
   <g id="text_35">
    <!-- BioPortal -->
    <g style="fill:#262626;" transform="translate(146.8323 412.159647)scale(0.12 -0.12)">
     <defs>
      <path d="M 1259 4147 
L 1259 2394 
L 2053 2394 
Q 2494 2394 2734 2622 
Q 2975 2850 2975 3272 
Q 2975 3691 2734 3919 
Q 2494 4147 2053 4147 
L 1259 4147 
z
M 628 4666 
L 2053 4666 
Q 2838 4666 3239 4311 
Q 3641 3956 3641 3272 
Q 3641 2581 3239 2228 
Q 2838 1875 2053 1875 
L 1259 1875 
L 1259 0 
L 628 0 
L 628 4666 
z
" id="DejaVuSans-50" transform="scale(0.015625)"/>
      <path d="M 603 4863 
L 1178 4863 
L 1178 0 
L 603 0 
L 603 4863 
z
" id="DejaVuSans-6c" transform="scale(0.015625)"/>
     </defs>
     <use xlink:href="#DejaVuSans-42"/>
     <use x="68.603516" xlink:href="#DejaVuSans-69"/>
     <use x="96.386719" xlink:href="#DejaVuSans-6f"/>
     <use x="157.568359" xlink:href="#DejaVuSans-50"/>
     <use x="214.246094" xlink:href="#DejaVuSans-6f"/>
     <use x="275.427734" xlink:href="#DejaVuSans-72"/>
     <use x="316.541016" xlink:href="#DejaVuSans-74"/>
     <use x="355.75" xlink:href="#DejaVuSans-61"/>
     <use x="417.029297" xlink:href="#DejaVuSans-6c"/>
    </g>
   </g>
  </g>
  <g id="axes_8">
   <g id="patch_23">
    <path clip-path="url(#p05c9b36790)" d="M 359.887697 399.790772 
C 353.298842 400.941631 346.537264 400.636871 340.078659 398.897933 
C 333.620053 397.158994 327.619519 394.027636 322.499209 389.724158 
C 317.3789 385.42068 313.261775 380.048427 310.437487 373.985351 
C 307.613199 367.922276 306.149569 361.313978 306.149569 354.625369 
C 306.149569 347.93676 307.613199 341.328461 310.437487 335.265386 
C 313.261775 329.20231 317.3789 323.830057 322.499209 319.526579 
C 327.619519 315.223101 333.620053 312.091743 340.078659 310.352805 
C 346.537264 308.613866 353.298842 308.309106 359.887697 309.459965 
C 352.088341 305.299013 343.342565 303.22839 334.505476 303.450549 
C 325.668388 303.672709 317.037702 306.180166 309.457273 310.727756 
C 301.876844 315.275347 295.602051 321.709868 291.246404 329.40219 
C 286.890757 337.094512 284.600994 345.785488 284.600994 354.625369 
C 284.600994 363.465249 286.890757 372.156225 291.246404 379.848547 
C 295.602051 387.54087 301.876844 393.97539 309.457273 398.522981 
C 317.037702 403.070572 325.668388 405.578028 334.505476 405.800188 
C 343.342565 406.022347 352.088341 403.951724 359.887697 399.790772 
" style="fill:#c0c0c0;opacity:0.4;"/>
   </g>
   <g id="patch_24">
    <path clip-path="url(#p05c9b36790)" d="M 359.887697 309.459965 
C 368.07197 313.82627 374.917568 320.33612 379.689594 328.29066 
C 384.461619 336.245201 386.982969 345.34922 386.982969 354.625369 
C 386.982969 363.901518 384.461619 373.005536 379.689594 380.960077 
C 374.917568 388.914617 368.07197 395.424467 359.887697 399.790772 
C 370.516158 397.934325 380.15563 392.38448 387.097556 384.124926 
C 394.039482 375.865372 397.847964 365.414742 397.847964 354.625369 
C 397.847964 343.835996 394.039482 333.385365 387.097556 325.125811 
C 380.15563 316.866257 370.516158 311.316412 359.887697 309.459965 
" style="fill:#ff7f00;opacity:0.4;"/>
   </g>
   <g id="patch_25">
    <path clip-path="url(#p05c9b36790)" d="M 359.887697 399.790772 
C 368.07197 395.424467 374.917568 388.914617 379.689594 380.960077 
C 384.461619 373.005536 386.982969 363.901518 386.982969 354.625369 
C 386.982969 345.34922 384.461619 336.245201 379.689594 328.29066 
C 374.917568 320.33612 368.07197 313.82627 359.887697 309.459965 
C 353.298842 308.309106 346.537264 308.613866 340.078659 310.352805 
C 333.620053 312.091743 327.619519 315.223101 322.499209 319.526579 
C 317.3789 323.830057 313.261775 329.20231 310.437487 335.265386 
C 307.613199 341.328461 306.149569 347.93676 306.149569 354.625369 
C 306.149569 361.313978 307.613199 367.922276 310.437487 373.985351 
C 313.261775 380.048427 317.3789 385.42068 322.499209 389.724158 
C 327.619519 394.027636 333.620053 397.158994 340.078659 398.897933 
C 346.537264 400.636871 353.298842 400.941631 359.887697 399.790772 
" style="fill:#ffdf86;opacity:0.4;"/>
   </g>
   <g id="text_36">
    <!-- 356 -->
    <g style="fill:#262626;" transform="translate(285.831532 357.384744)scale(0.1 -0.1)">
     <use xlink:href="#DejaVuSans-33"/>
     <use x="63.623047" xlink:href="#DejaVuSans-35"/>
     <use x="127.246094" xlink:href="#DejaVuSans-36"/>
    </g>
   </g>
   <g id="text_37">
    <!-- 121 -->
    <g style="fill:#262626;" transform="translate(382.871717 357.384744)scale(0.1 -0.1)">
     <use xlink:href="#DejaVuSans-31"/>
     <use x="63.623047" xlink:href="#DejaVuSans-32"/>
     <use x="127.246094" xlink:href="#DejaVuSans-31"/>
    </g>
   </g>
   <g id="text_38">
    <!-- 832 -->
    <g style="fill:#262626;" transform="translate(337.022519 357.384744)scale(0.1 -0.1)">
     <use xlink:href="#DejaVuSans-38"/>
     <use x="63.623047" xlink:href="#DejaVuSans-33"/>
     <use x="127.246094" xlink:href="#DejaVuSans-32"/>
    </g>
   </g>
   <g id="text_39">
    <!-- Bioregistry -->
    <g style="fill:#262626;" transform="translate(270.892606 419.78649)scale(0.12 -0.12)">
     <use xlink:href="#DejaVuSans-42"/>
     <use x="68.603516" xlink:href="#DejaVuSans-69"/>
     <use x="96.386719" xlink:href="#DejaVuSans-6f"/>
     <use x="157.568359" xlink:href="#DejaVuSans-72"/>
     <use x="196.431641" xlink:href="#DejaVuSans-65"/>
     <use x="257.955078" xlink:href="#DejaVuSans-67"/>
     <use x="321.431641" xlink:href="#DejaVuSans-69"/>
     <use x="349.214844" xlink:href="#DejaVuSans-73"/>
     <use x="401.314453" xlink:href="#DejaVuSans-74"/>
     <use x="440.523438" xlink:href="#DejaVuSans-72"/>
     <use x="481.636719" xlink:href="#DejaVuSans-79"/>
    </g>
   </g>
   <g id="text_40">
    <!-- Prefix Commons -->
    <g style="fill:#262626;" transform="translate(351.998767 414.4447)scale(0.12 -0.12)">
     <defs>
      <path d="M 2375 4863 
L 2375 4384 
L 1825 4384 
Q 1516 4384 1395 4259 
Q 1275 4134 1275 3809 
L 1275 3500 
L 2222 3500 
L 2222 3053 
L 1275 3053 
L 1275 0 
L 697 0 
L 697 3053 
L 147 3053 
L 147 3500 
L 697 3500 
L 697 3744 
Q 697 4328 969 4595 
Q 1241 4863 1831 4863 
L 2375 4863 
z
" id="DejaVuSans-66" transform="scale(0.015625)"/>
      <path d="M 3513 3500 
L 2247 1797 
L 3578 0 
L 2900 0 
L 1881 1375 
L 863 0 
L 184 0 
L 1544 1831 
L 300 3500 
L 978 3500 
L 1906 2253 
L 2834 3500 
L 3513 3500 
z
" id="DejaVuSans-78" transform="scale(0.015625)"/>
      <path id="DejaVuSans-20" transform="scale(0.015625)"/>
      <path d="M 4122 4306 
L 4122 3641 
Q 3803 3938 3442 4084 
Q 3081 4231 2675 4231 
Q 1875 4231 1450 3742 
Q 1025 3253 1025 2328 
Q 1025 1406 1450 917 
Q 1875 428 2675 428 
Q 3081 428 3442 575 
Q 3803 722 4122 1019 
L 4122 359 
Q 3791 134 3420 21 
Q 3050 -91 2638 -91 
Q 1578 -91 968 557 
Q 359 1206 359 2328 
Q 359 3453 968 4101 
Q 1578 4750 2638 4750 
Q 3056 4750 3426 4639 
Q 3797 4528 4122 4306 
z
" id="DejaVuSans-43" transform="scale(0.015625)"/>
      <path d="M 3328 2828 
Q 3544 3216 3844 3400 
Q 4144 3584 4550 3584 
Q 5097 3584 5394 3201 
Q 5691 2819 5691 2113 
L 5691 0 
L 5113 0 
L 5113 2094 
Q 5113 2597 4934 2840 
Q 4756 3084 4391 3084 
Q 3944 3084 3684 2787 
Q 3425 2491 3425 1978 
L 3425 0 
L 2847 0 
L 2847 2094 
Q 2847 2600 2669 2842 
Q 2491 3084 2119 3084 
Q 1678 3084 1418 2786 
Q 1159 2488 1159 1978 
L 1159 0 
L 581 0 
L 581 3500 
L 1159 3500 
L 1159 2956 
Q 1356 3278 1631 3431 
Q 1906 3584 2284 3584 
Q 2666 3584 2933 3390 
Q 3200 3197 3328 2828 
z
" id="DejaVuSans-6d" transform="scale(0.015625)"/>
      <path d="M 3513 2113 
L 3513 0 
L 2938 0 
L 2938 2094 
Q 2938 2591 2744 2837 
Q 2550 3084 2163 3084 
Q 1697 3084 1428 2787 
Q 1159 2491 1159 1978 
L 1159 0 
L 581 0 
L 581 3500 
L 1159 3500 
L 1159 2956 
Q 1366 3272 1645 3428 
Q 1925 3584 2291 3584 
Q 2894 3584 3203 3211 
Q 3513 2838 3513 2113 
z
" id="DejaVuSans-6e" transform="scale(0.015625)"/>
     </defs>
     <use xlink:href="#DejaVuSans-50"/>
     <use x="58.552734" xlink:href="#DejaVuSans-72"/>
     <use x="97.416016" xlink:href="#DejaVuSans-65"/>
     <use x="158.939453" xlink:href="#DejaVuSans-66"/>
     <use x="194.144531" xlink:href="#DejaVuSans-69"/>
     <use x="221.927734" xlink:href="#DejaVuSans-78"/>
     <use x="281.107422" xlink:href="#DejaVuSans-20"/>
     <use x="312.894531" xlink:href="#DejaVuSans-43"/>
     <use x="382.71875" xlink:href="#DejaVuSans-6f"/>
     <use x="443.900391" xlink:href="#DejaVuSans-6d"/>
     <use x="541.3125" xlink:href="#DejaVuSans-6d"/>
     <use x="638.724609" xlink:href="#DejaVuSans-6f"/>
     <use x="699.90625" xlink:href="#DejaVuSans-6e"/>
     <use x="763.285156" xlink:href="#DejaVuSans-73"/>
    </g>
   </g>
  </g>
  <g id="axes_9">
   <g id="patch_26">
    <path clip-path="url(#p5f84a2a112)" d="M 609.841975 370.11278 
C 607.772045 370.170201 605.711453 369.812067 603.782283 369.059595 
C 601.853114 368.307124 600.094231 367.175475 598.609843 365.731694 
C 597.125456 364.287913 595.945468 362.561088 595.13979 360.653526 
C 594.334112 358.745963 593.918975 356.696096 593.918975 354.625369 
C 593.918975 352.554642 594.334112 350.504774 595.13979 348.597212 
C 595.945468 346.68965 597.125456 344.962824 598.609843 343.519043 
C 600.094231 342.075262 601.853114 340.943613 603.782283 340.191142 
C 605.711453 339.43867 607.772045 339.080536 609.841975 339.137957 
C 608.007295 333.328362 605.154796 327.890729 601.417739 323.079092 
C 597.680682 318.267454 593.118184 314.157927 587.943393 310.942496 
C 582.768603 307.727066 577.063379 305.456598 571.094256 304.237161 
C 565.125134 303.017725 558.986537 302.868611 552.965246 303.796786 
C 546.943956 304.724961 541.135221 306.715743 535.810413 309.676125 
C 530.485605 312.636508 525.728955 316.519663 521.762683 321.144177 
C 517.796411 325.768692 514.683259 331.061412 512.568665 336.775075 
C 510.454071 342.488738 509.371486 348.532959 509.371486 354.625369 
C 509.371486 360.717778 510.454071 366.761999 512.568665 372.475662 
C 514.683259 378.189325 517.796411 383.482045 521.762683 388.10656 
C 525.728955 392.731075 530.485605 396.614229 535.810413 399.574612 
C 541.135221 402.534995 546.943956 404.525776 552.965246 405.453951 
C 558.986537 406.382126 565.125134 406.233012 571.094256 405.013576 
C 577.063379 403.79414 582.768603 401.523671 587.943393 398.308241 
C 593.118184 395.09281 597.680682 390.983283 601.417739 386.171645 
C 605.154796 381.360008 608.007295 375.922375 609.841975 370.11278 
" style="fill:#c0c0c0;opacity:0.4;"/>
   </g>
   <g id="patch_27">
    <path clip-path="url(#p5f84a2a112)" d="M 609.841975 339.137957 
C 611.424196 344.148127 612.229342 349.371302 612.229342 354.625369 
C 612.229342 359.879435 611.424196 365.102611 609.841975 370.11278 
C 613.873685 370.000937 617.706544 368.319087 620.51867 365.42787 
C 623.330795 362.536652 624.905713 358.658629 624.905713 354.625369 
C 624.905713 350.592108 623.330795 346.714086 620.51867 343.822868 
C 617.706544 340.93165 613.873685 339.2498 609.841975 339.137957 
" style="fill:#cab2d6;opacity:0.4;"/>
   </g>
   <g id="patch_28">
    <path clip-path="url(#p5f84a2a112)" d="M 609.841975 370.11278 
C 611.424196 365.102611 612.229342 359.879435 612.229342 354.625369 
C 612.229342 349.371302 611.424196 344.148127 609.841975 339.137957 
C 607.772045 339.080536 605.711453 339.43867 603.782283 340.191142 
C 601.853114 340.943613 600.094231 342.075262 598.609843 343.519043 
C 597.125456 344.962824 595.945468 346.68965 595.13979 348.597212 
C 594.334112 350.504774 593.918975 352.554642 593.918975 354.625369 
C 593.918975 356.696096 594.334112 358.745963 595.13979 360.653526 
C 595.945468 362.561088 597.125456 364.287913 598.609843 365.731694 
C 600.094231 367.175475 601.853114 368.307124 603.782283 369.059595 
C 605.711453 369.812067 607.772045 370.170201 609.841975 370.11278 
" style="fill:#ffffff;opacity:0.4;"/>
   </g>
   <g id="text_41">
    <!-- 1127 -->
    <g style="fill:#262626;" transform="translate(538.920231 357.384744)scale(0.1 -0.1)">
     <use xlink:href="#DejaVuSans-31"/>
     <use x="63.623047" xlink:href="#DejaVuSans-31"/>
     <use x="127.246094" xlink:href="#DejaVuSans-32"/>
     <use x="190.869141" xlink:href="#DejaVuSans-37"/>
    </g>
   </g>
   <g id="text_42">
    <!-- 45 -->
    <g style="fill:#262626;" transform="translate(612.205028 357.384744)scale(0.1 -0.1)">
     <use xlink:href="#DejaVuSans-34"/>
     <use x="63.623047" xlink:href="#DejaVuSans-35"/>
    </g>
   </g>
   <g id="text_43">
    <!-- 63 -->
    <g style="fill:#262626;" transform="translate(596.711659 357.384744)scale(0.1 -0.1)">
     <use xlink:href="#DejaVuSans-36"/>
     <use x="63.623047" xlink:href="#DejaVuSans-33"/>
    </g>
   </g>
   <g id="text_44">
    <!-- Bioregistry -->
    <g style="fill:#262626;" transform="translate(495.901039 418.518536)scale(0.12 -0.12)">
     <use xlink:href="#DejaVuSans-42"/>
     <use x="68.603516" xlink:href="#DejaVuSans-69"/>
     <use x="96.386719" xlink:href="#DejaVuSans-6f"/>
     <use x="157.568359" xlink:href="#DejaVuSans-72"/>
     <use x="196.431641" xlink:href="#DejaVuSans-65"/>
     <use x="257.955078" xlink:href="#DejaVuSans-67"/>
     <use x="321.431641" xlink:href="#DejaVuSans-69"/>
     <use x="349.214844" xlink:href="#DejaVuSans-73"/>
     <use x="401.314453" xlink:href="#DejaVuSans-74"/>
     <use x="440.523438" xlink:href="#DejaVuSans-72"/>
     <use x="481.636719" xlink:href="#DejaVuSans-79"/>
    </g>
   </g>
   <g id="text_45">
    <!-- Biolink -->
    <g style="fill:#262626;" transform="translate(609.412344 382.582978)scale(0.12 -0.12)">
     <use xlink:href="#DejaVuSans-42"/>
     <use x="68.603516" xlink:href="#DejaVuSans-69"/>
     <use x="96.386719" xlink:href="#DejaVuSans-6f"/>
     <use x="157.568359" xlink:href="#DejaVuSans-6c"/>
     <use x="185.351562" xlink:href="#DejaVuSans-69"/>
     <use x="213.134766" xlink:href="#DejaVuSans-6e"/>
     <use x="276.513672" xlink:href="#DejaVuSans-6b"/>
    </g>
   </g>
  </g>
  <g id="axes_10">
   <g id="patch_29">
    <path clip-path="url(#p8d2423f11c)" d="M 156.7418 512.829928 
C 152.413575 512.700825 148.301818 510.88892 145.28593 507.781731 
C 142.270041 504.674543 140.581532 500.510593 140.581532 496.180442 
C 140.581532 491.850292 142.270041 487.686341 145.28593 484.579153 
C 148.301818 481.471965 152.413575 479.660059 156.7418 479.530957 
C 154.78625 473.820056 151.839751 468.498089 148.037654 463.809527 
C 144.235557 459.120964 139.636985 455.138713 134.453179 452.045703 
C 129.269372 448.952692 123.58094 446.797019 117.649186 445.677707 
C 111.717433 444.558394 105.634597 444.492848 99.680101 445.484078 
C 93.725605 446.475309 87.992041 448.507902 82.742788 451.48849 
C 77.493535 454.469077 72.810218 458.35131 68.907971 462.956853 
C 65.005724 467.562397 61.945227 472.819634 59.867068 478.487069 
C 57.788909 484.154504 56.725402 490.144006 56.725402 496.180442 
C 56.725402 502.216878 57.788909 508.206381 59.867068 513.873816 
C 61.945227 519.54125 65.005724 524.798488 68.907971 529.404031 
C 72.810218 534.009575 77.493535 537.891807 82.742788 540.872395 
C 87.992041 543.852982 93.725605 545.885576 99.680101 546.876806 
C 105.634597 547.868037 111.717433 547.80249 117.649186 546.683178 
C 123.58094 545.563865 129.269372 543.408192 134.453179 540.315182 
C 139.636985 537.222172 144.235557 533.239921 148.037654 528.551358 
C 151.839751 523.862795 154.78625 518.540828 156.7418 512.829928 
" style="fill:#c0c0c0;opacity:0.4;"/>
   </g>
   <g id="patch_30">
    <path clip-path="url(#p8d2423f11c)" d="M 156.7418 479.530957 
C 158.576885 484.890055 159.5134 490.515862 159.5134 496.180442 
C 159.5134 501.845023 158.576885 507.470829 156.7418 512.829928 
C 158.969968 512.89639 161.188973 512.514894 163.267008 511.7081 
C 165.345044 510.901307 167.240134 509.685513 168.839712 508.132936 
C 170.43929 506.580358 171.711046 504.722359 172.579437 502.669302 
C 173.447828 500.616245 173.895314 498.409601 173.895314 496.180442 
C 173.895314 493.951284 173.447828 491.74464 172.579437 489.691582 
C 171.711046 487.638525 170.43929 485.780526 168.839712 484.227949 
C 167.240134 482.675372 165.345044 481.459578 163.267008 480.652784 
C 161.188973 479.845991 158.969968 479.464495 156.7418 479.530957 
" style="fill:#6a3d9a;opacity:0.4;"/>
   </g>
   <g id="patch_31">
    <path clip-path="url(#p8d2423f11c)" d="M 156.7418 512.829928 
C 158.576885 507.470829 159.5134 501.845023 159.5134 496.180442 
C 159.5134 490.515862 158.576885 484.890055 156.7418 479.530957 
C 152.413575 479.660059 148.301818 481.471965 145.28593 484.579153 
C 142.270041 487.686341 140.581532 491.850292 140.581532 496.180442 
C 140.581532 500.510593 142.270041 504.674543 145.28593 507.781731 
C 148.301818 510.88892 152.413575 512.700825 156.7418 512.829928 
" style="fill:#d1b1f2;opacity:0.4;"/>
   </g>
   <g id="text_46">
    <!-- 1121 -->
    <g style="fill:#262626;" transform="translate(85.928467 498.939817)scale(0.1 -0.1)">
     <use xlink:href="#DejaVuSans-31"/>
     <use x="63.623047" xlink:href="#DejaVuSans-31"/>
     <use x="127.246094" xlink:href="#DejaVuSans-32"/>
     <use x="190.869141" xlink:href="#DejaVuSans-31"/>
    </g>
   </g>
   <g id="text_47">
    <!-- 56 -->
    <g style="fill:#262626;" transform="translate(160.341857 498.939817)scale(0.1 -0.1)">
     <use xlink:href="#DejaVuSans-35"/>
     <use x="63.623047" xlink:href="#DejaVuSans-36"/>
    </g>
   </g>
   <g id="text_48">
    <!-- 69 -->
    <g style="fill:#262626;" transform="translate(143.684966 498.939817)scale(0.1 -0.1)">
     <use xlink:href="#DejaVuSans-36"/>
     <use x="63.623047" xlink:href="#DejaVuSans-39"/>
    </g>
   </g>
   <g id="text_49">
    <!-- Bioregistry -->
    <g style="fill:#262626;" transform="translate(43.220026 560.09511)scale(0.12 -0.12)">
     <use xlink:href="#DejaVuSans-42"/>
     <use x="68.603516" xlink:href="#DejaVuSans-69"/>
     <use x="96.386719" xlink:href="#DejaVuSans-6f"/>
     <use x="157.568359" xlink:href="#DejaVuSans-72"/>
     <use x="196.431641" xlink:href="#DejaVuSans-65"/>
     <use x="257.955078" xlink:href="#DejaVuSans-67"/>
     <use x="321.431641" xlink:href="#DejaVuSans-69"/>
     <use x="349.214844" xlink:href="#DejaVuSans-73"/>
     <use x="401.314453" xlink:href="#DejaVuSans-74"/>
     <use x="440.523438" xlink:href="#DejaVuSans-72"/>
     <use x="481.636719" xlink:href="#DejaVuSans-79"/>
    </g>
   </g>
   <g id="text_50">
    <!-- NCBI -->
    <g style="fill:#262626;" transform="translate(157.238423 525.358002)scale(0.12 -0.12)">
     <use xlink:href="#DejaVuSans-4e"/>
     <use x="74.804688" xlink:href="#DejaVuSans-43"/>
     <use x="144.628906" xlink:href="#DejaVuSans-42"/>
     <use x="213.232422" xlink:href="#DejaVuSans-49"/>
    </g>
   </g>
  </g>
  <g id="axes_11">
   <g id="patch_32">
    <path clip-path="url(#pb306d6f3e7)" d="M 379.225362 516.015462 
C 374.40921 515.389029 369.982281 513.029427 366.777181 509.380444 
C 363.572081 505.731461 361.803186 501.037163 361.803186 496.180442 
C 361.803186 491.323721 363.572081 486.629423 366.777181 482.980441 
C 369.982281 479.331458 374.40921 476.971856 379.225362 476.345423 
C 376.951602 470.923655 373.762405 465.933011 369.797407 461.592003 
C 365.832409 457.250995 361.150335 453.623918 355.956187 450.869579 
C 350.762039 448.11524 345.132746 446.274434 339.314783 445.42776 
C 333.496819 444.581086 327.576354 444.741082 321.812611 445.900745 
C 316.048867 447.060408 310.527211 449.202561 305.489404 452.233413 
C 300.451597 455.264264 295.972254 459.138923 292.247498 463.687742 
C 288.522742 468.23656 285.607741 473.392166 283.630126 478.928825 
C 281.652511 484.465485 280.641572 490.301194 280.641572 496.180442 
C 280.641572 502.05969 281.652511 507.8954 283.630126 513.432059 
C 285.607741 518.968718 288.522742 524.124324 292.247498 528.673143 
C 295.972254 533.221962 300.451597 537.096621 305.489404 540.127472 
C 310.527211 543.158323 316.048867 545.300476 321.812611 546.460139 
C 327.576354 547.619802 333.496819 547.779799 339.314783 546.933125 
C 345.132746 546.08645 350.762039 544.245644 355.956187 541.491306 
C 361.150335 538.736967 365.832409 535.109889 369.797407 530.768881 
C 373.762405 526.427874 376.951602 521.43723 379.225362 516.015462 
" style="fill:#c0c0c0;opacity:0.4;"/>
   </g>
   <g id="patch_33">
    <path clip-path="url(#pb306d6f3e7)" d="M 379.225362 476.345423 
C 381.859435 482.626357 383.21616 489.369533 383.21616 496.180442 
C 383.21616 502.991351 381.859435 509.734527 379.225362 516.015462 
C 382.046087 516.382351 384.912895 516.143355 387.633932 515.314467 
C 390.35497 514.485579 392.868151 513.085711 395.005288 511.208548 
C 397.142425 509.331384 398.854756 507.019754 400.027687 504.428359 
C 401.200618 501.836963 401.807386 499.024928 401.807386 496.180442 
C 401.807386 493.335957 401.200618 490.523922 400.027687 487.932526 
C 398.854756 485.34113 397.142425 483.0295 395.005288 481.152337 
C 392.868151 479.275173 390.35497 477.875306 387.633932 477.046418 
C 384.912895 476.21753 382.046087 475.978534 379.225362 476.345423 
" style="fill:#ffff99;opacity:0.4;"/>
   </g>
   <g id="patch_34">
    <path clip-path="url(#pb306d6f3e7)" d="M 379.225362 516.015462 
C 381.859435 509.734527 383.21616 502.991351 383.21616 496.180442 
C 383.21616 489.369533 381.859435 482.626357 379.225362 476.345423 
C 374.40921 476.971856 369.982281 479.331458 366.777181 482.980441 
C 363.572081 486.629423 361.803186 491.323721 361.803186 496.180442 
C 361.803186 501.037163 363.572081 505.731461 366.777181 509.380444 
C 369.982281 513.029427 374.40921 515.389029 379.225362 516.015462 
" style="fill:#fffff2;opacity:0.4;"/>
   </g>
   <g id="text_51">
    <!-- 1099 -->
    <g style="fill:#262626;" transform="translate(308.497379 498.939817)scale(0.1 -0.1)">
     <use xlink:href="#DejaVuSans-31"/>
     <use x="63.623047" xlink:href="#DejaVuSans-30"/>
     <use x="127.246094" xlink:href="#DejaVuSans-39"/>
     <use x="190.869141" xlink:href="#DejaVuSans-39"/>
    </g>
   </g>
   <g id="text_52">
    <!-- 90 -->
    <g style="fill:#262626;" transform="translate(386.149273 498.939817)scale(0.1 -0.1)">
     <use xlink:href="#DejaVuSans-39"/>
     <use x="63.623047" xlink:href="#DejaVuSans-30"/>
    </g>
   </g>
   <g id="text_53">
    <!-- 91 -->
    <g style="fill:#262626;" transform="translate(366.147173 498.939817)scale(0.1 -0.1)">
     <use xlink:href="#DejaVuSans-39"/>
     <use x="63.623047" xlink:href="#DejaVuSans-31"/>
    </g>
   </g>
   <g id="text_54">
    <!-- Bioregistry -->
    <g style="fill:#262626;" transform="translate(267.029491 560.150331)scale(0.12 -0.12)">
     <use xlink:href="#DejaVuSans-42"/>
     <use x="68.603516" xlink:href="#DejaVuSans-69"/>
     <use x="96.386719" xlink:href="#DejaVuSans-6f"/>
     <use x="157.568359" xlink:href="#DejaVuSans-72"/>
     <use x="196.431641" xlink:href="#DejaVuSans-65"/>
     <use x="257.955078" xlink:href="#DejaVuSans-67"/>
     <use x="321.431641" xlink:href="#DejaVuSans-69"/>
     <use x="349.214844" xlink:href="#DejaVuSans-73"/>
     <use x="401.314453" xlink:href="#DejaVuSans-74"/>
     <use x="440.523438" xlink:href="#DejaVuSans-72"/>
     <use x="481.636719" xlink:href="#DejaVuSans-79"/>
    </g>
   </g>
   <g id="text_55">
    <!-- UniProt -->
    <g style="fill:#262626;" transform="translate(381.805286 528.865137)scale(0.12 -0.12)">
     <defs>
      <path d="M 556 4666 
L 1191 4666 
L 1191 1831 
Q 1191 1081 1462 751 
Q 1734 422 2344 422 
Q 2950 422 3222 751 
Q 3494 1081 3494 1831 
L 3494 4666 
L 4128 4666 
L 4128 1753 
Q 4128 841 3676 375 
Q 3225 -91 2344 -91 
Q 1459 -91 1007 375 
Q 556 841 556 1753 
L 556 4666 
z
" id="DejaVuSans-55" transform="scale(0.015625)"/>
     </defs>
     <use xlink:href="#DejaVuSans-55"/>
     <use x="73.193359" xlink:href="#DejaVuSans-6e"/>
     <use x="136.572266" xlink:href="#DejaVuSans-69"/>
     <use x="164.355469" xlink:href="#DejaVuSans-50"/>
     <use x="222.908203" xlink:href="#DejaVuSans-72"/>
     <use x="261.771484" xlink:href="#DejaVuSans-6f"/>
     <use x="322.953125" xlink:href="#DejaVuSans-74"/>
    </g>
   </g>
  </g>
  <g id="axes_12">
   <g id="patch_35">
    <path clip-path="url(#p5fd4443671)" d="M 607.776269 511.487395 
C 604.300522 510.706318 601.192363 508.764206 598.966564 505.982712 
C 596.740765 503.201217 595.527385 499.74287 595.527385 496.180442 
C 595.527385 492.618014 596.740765 489.159667 598.966564 486.378173 
C 601.192363 483.596678 604.300522 481.654566 607.776269 480.873489 
C 605.960837 475.057837 603.125178 469.611262 599.402074 464.788804 
C 595.67897 459.966347 591.127455 455.844472 585.960657 452.61619 
C 580.793859 449.387908 575.093704 447.104407 569.127106 445.872615 
C 563.160509 444.640822 557.022075 444.480268 550.999243 445.398472 
C 544.976412 446.316676 539.16468 448.299079 533.836188 451.252851 
C 528.507696 454.206624 523.746932 458.084932 519.776824 462.706171 
C 515.806716 467.327409 512.690214 472.618303 510.57325 478.331101 
C 508.456287 484.0439 507.372429 490.088021 507.372429 496.180442 
C 507.372429 502.272864 508.456287 508.316985 510.57325 514.029783 
C 512.690214 519.742582 515.806716 525.033475 519.776824 529.654714 
C 523.746932 534.275952 528.507696 538.15426 533.836188 541.108033 
C 539.16468 544.061806 544.976412 546.044208 550.999243 546.962412 
C 557.022075 547.880616 563.160509 547.720063 569.127106 546.48827 
C 575.093704 545.256477 580.793859 542.972976 585.960657 539.744694 
C 591.127455 536.516413 595.67897 532.394538 599.402074 527.57208 
C 603.125178 522.749622 605.960837 517.303047 607.776269 511.487395 
" style="fill:#c0c0c0;opacity:0.4;"/>
   </g>
   <g id="patch_36">
    <path clip-path="url(#p5fd4443671)" d="M 607.776269 480.873489 
C 609.323056 485.828551 610.109873 490.989567 610.109873 496.180442 
C 610.109873 501.371317 609.323056 506.532334 607.776269 511.487395 
C 610.071423 512.003167 612.453463 511.996185 614.745555 511.466969 
C 617.037647 510.937752 619.181631 509.899728 621.018348 508.429957 
C 622.855064 506.960185 624.337907 505.095959 625.356798 502.975672 
C 626.375688 500.855385 626.904771 498.532836 626.904771 496.180442 
C 626.904771 493.828049 626.375688 491.5055 625.356798 489.385212 
C 624.337907 487.264925 622.855064 485.400699 621.018348 483.930928 
C 619.181631 482.461156 617.037647 481.423133 614.745555 480.893916 
C 612.453463 480.364699 610.071423 480.357718 607.776269 480.873489 
" style="fill:#b15928;opacity:0.4;"/>
   </g>
   <g id="patch_37">
    <path clip-path="url(#p5fd4443671)" d="M 607.776269 511.487395 
C 609.323056 506.532334 610.109873 501.371317 610.109873 496.180442 
C 610.109873 490.989567 609.323056 485.828551 607.776269 480.873489 
C 604.300522 481.654566 601.192363 483.596678 598.966564 486.378173 
C 596.740765 489.159667 595.527385 492.618014 595.527385 496.180442 
C 595.527385 499.74287 596.740765 503.201217 598.966564 505.982712 
C 601.192363 508.764206 604.300522 510.706318 607.776269 511.487395 
" style="fill:#ffc5a2;opacity:0.4;"/>
   </g>
   <g id="text_56">
    <!-- 1143 -->
    <g style="fill:#262626;" transform="translate(538.724907 498.939817)scale(0.1 -0.1)">
     <use xlink:href="#DejaVuSans-31"/>
     <use x="63.623047" xlink:href="#DejaVuSans-31"/>
     <use x="127.246094" xlink:href="#DejaVuSans-34"/>
     <use x="190.869141" xlink:href="#DejaVuSans-33"/>
    </g>
   </g>
   <g id="text_57">
    <!-- 64 -->
    <g style="fill:#262626;" transform="translate(612.144822 498.939817)scale(0.1 -0.1)">
     <use xlink:href="#DejaVuSans-36"/>
     <use x="63.623047" xlink:href="#DejaVuSans-34"/>
    </g>
   </g>
   <g id="text_58">
    <!-- 47 -->
    <g style="fill:#262626;" transform="translate(596.456129 498.939817)scale(0.1 -0.1)">
     <use xlink:href="#DejaVuSans-34"/>
     <use x="63.623047" xlink:href="#DejaVuSans-37"/>
    </g>
   </g>
   <g id="text_59">
    <!-- Bioregistry -->
    <g style="fill:#262626;" transform="translate(493.841776 560.02016)scale(0.12 -0.12)">
     <use xlink:href="#DejaVuSans-42"/>
     <use x="68.603516" xlink:href="#DejaVuSans-69"/>
     <use x="96.386719" xlink:href="#DejaVuSans-6f"/>
     <use x="157.568359" xlink:href="#DejaVuSans-72"/>
     <use x="196.431641" xlink:href="#DejaVuSans-65"/>
     <use x="257.955078" xlink:href="#DejaVuSans-67"/>
     <use x="321.431641" xlink:href="#DejaVuSans-69"/>
     <use x="349.214844" xlink:href="#DejaVuSans-73"/>
     <use x="401.314453" xlink:href="#DejaVuSans-74"/>
     <use x="440.523438" xlink:href="#DejaVuSans-72"/>
     <use x="481.636719" xlink:href="#DejaVuSans-79"/>
    </g>
   </g>
   <g id="text_60">
    <!-- Cellosaurus -->
    <g style="fill:#262626;" transform="translate(611.216078 524.340131)scale(0.12 -0.12)">
     <defs>
      <path d="M 544 1381 
L 544 3500 
L 1119 3500 
L 1119 1403 
Q 1119 906 1312 657 
Q 1506 409 1894 409 
Q 2359 409 2629 706 
Q 2900 1003 2900 1516 
L 2900 3500 
L 3475 3500 
L 3475 0 
L 2900 0 
L 2900 538 
Q 2691 219 2414 64 
Q 2138 -91 1772 -91 
Q 1169 -91 856 284 
Q 544 659 544 1381 
z
M 1991 3584 
L 1991 3584 
z
" id="DejaVuSans-75" transform="scale(0.015625)"/>
     </defs>
     <use xlink:href="#DejaVuSans-43"/>
     <use x="69.824219" xlink:href="#DejaVuSans-65"/>
     <use x="131.347656" xlink:href="#DejaVuSans-6c"/>
     <use x="159.130859" xlink:href="#DejaVuSans-6c"/>
     <use x="186.914062" xlink:href="#DejaVuSans-6f"/>
     <use x="248.095703" xlink:href="#DejaVuSans-73"/>
     <use x="300.195312" xlink:href="#DejaVuSans-61"/>
     <use x="361.474609" xlink:href="#DejaVuSans-75"/>
     <use x="424.853516" xlink:href="#DejaVuSans-72"/>
     <use x="465.966797" xlink:href="#DejaVuSans-75"/>
     <use x="529.345703" xlink:href="#DejaVuSans-73"/>
    </g>
   </g>
  </g>
  <g id="text_61">
   <!-- https://github.com/biopragmatics/bioregistry (2021-09-22) -->
   <g style="fill:#808080;opacity:0.5;" transform="translate(233.67625 574.33625)scale(0.08 -0.08)">
    <defs>
     <path d="M 3513 2113 
L 3513 0 
L 2938 0 
L 2938 2094 
Q 2938 2591 2744 2837 
Q 2550 3084 2163 3084 
Q 1697 3084 1428 2787 
Q 1159 2491 1159 1978 
L 1159 0 
L 581 0 
L 581 4863 
L 1159 4863 
L 1159 2956 
Q 1366 3272 1645 3428 
Q 1925 3584 2291 3584 
Q 2894 3584 3203 3211 
Q 3513 2838 3513 2113 
z
" id="DejaVuSans-68" transform="scale(0.015625)"/>
     <path d="M 1159 525 
L 1159 -1331 
L 581 -1331 
L 581 3500 
L 1159 3500 
L 1159 2969 
Q 1341 3281 1617 3432 
Q 1894 3584 2278 3584 
Q 2916 3584 3314 3078 
Q 3713 2572 3713 1747 
Q 3713 922 3314 415 
Q 2916 -91 2278 -91 
Q 1894 -91 1617 61 
Q 1341 213 1159 525 
z
M 3116 1747 
Q 3116 2381 2855 2742 
Q 2594 3103 2138 3103 
Q 1681 3103 1420 2742 
Q 1159 2381 1159 1747 
Q 1159 1113 1420 752 
Q 1681 391 2138 391 
Q 2594 391 2855 752 
Q 3116 1113 3116 1747 
z
" id="DejaVuSans-70" transform="scale(0.015625)"/>
     <path d="M 750 794 
L 1409 794 
L 1409 0 
L 750 0 
L 750 794 
z
M 750 3309 
L 1409 3309 
L 1409 2516 
L 750 2516 
L 750 3309 
z
" id="DejaVuSans-3a" transform="scale(0.015625)"/>
     <path d="M 1625 4666 
L 2156 4666 
L 531 -594 
L 0 -594 
L 1625 4666 
z
" id="DejaVuSans-2f" transform="scale(0.015625)"/>
     <path d="M 3116 1747 
Q 3116 2381 2855 2742 
Q 2594 3103 2138 3103 
Q 1681 3103 1420 2742 
Q 1159 2381 1159 1747 
Q 1159 1113 1420 752 
Q 1681 391 2138 391 
Q 2594 391 2855 752 
Q 3116 1113 3116 1747 
z
M 1159 2969 
Q 1341 3281 1617 3432 
Q 1894 3584 2278 3584 
Q 2916 3584 3314 3078 
Q 3713 2572 3713 1747 
Q 3713 922 3314 415 
Q 2916 -91 2278 -91 
Q 1894 -91 1617 61 
Q 1341 213 1159 525 
L 1159 0 
L 581 0 
L 581 4863 
L 1159 4863 
L 1159 2969 
z
" id="DejaVuSans-62" transform="scale(0.015625)"/>
     <path d="M 684 794 
L 1344 794 
L 1344 0 
L 684 0 
L 684 794 
z
" id="DejaVuSans-2e" transform="scale(0.015625)"/>
     <path d="M 3122 3366 
L 3122 2828 
Q 2878 2963 2633 3030 
Q 2388 3097 2138 3097 
Q 1578 3097 1268 2742 
Q 959 2388 959 1747 
Q 959 1106 1268 751 
Q 1578 397 2138 397 
Q 2388 397 2633 464 
Q 2878 531 3122 666 
L 3122 134 
Q 2881 22 2623 -34 
Q 2366 -91 2075 -91 
Q 1284 -91 818 406 
Q 353 903 353 1747 
Q 353 2603 823 3093 
Q 1294 3584 2113 3584 
Q 2378 3584 2631 3529 
Q 2884 3475 3122 3366 
z
" id="DejaVuSans-63" transform="scale(0.015625)"/>
     <path d="M 1984 4856 
Q 1566 4138 1362 3434 
Q 1159 2731 1159 2009 
Q 1159 1288 1364 580 
Q 1569 -128 1984 -844 
L 1484 -844 
Q 1016 -109 783 600 
Q 550 1309 550 2009 
Q 550 2706 781 3412 
Q 1013 4119 1484 4856 
L 1984 4856 
z
" id="DejaVuSans-28" transform="scale(0.015625)"/>
     <path d="M 313 2009 
L 1997 2009 
L 1997 1497 
L 313 1497 
L 313 2009 
z
" id="DejaVuSans-2d" transform="scale(0.015625)"/>
     <path d="M 513 4856 
L 1013 4856 
Q 1481 4119 1714 3412 
Q 1947 2706 1947 2009 
Q 1947 1309 1714 600 
Q 1481 -109 1013 -844 
L 513 -844 
Q 928 -128 1133 580 
Q 1338 1288 1338 2009 
Q 1338 2731 1133 3434 
Q 928 4138 513 4856 
z
" id="DejaVuSans-29" transform="scale(0.015625)"/>
    </defs>
    <use xlink:href="#DejaVuSans-68"/>
    <use x="63.378906" xlink:href="#DejaVuSans-74"/>
    <use x="102.587891" xlink:href="#DejaVuSans-74"/>
    <use x="141.796875" xlink:href="#DejaVuSans-70"/>
    <use x="205.273438" xlink:href="#DejaVuSans-73"/>
    <use x="257.373047" xlink:href="#DejaVuSans-3a"/>
    <use x="291.064453" xlink:href="#DejaVuSans-2f"/>
    <use x="324.755859" xlink:href="#DejaVuSans-2f"/>
    <use x="358.447266" xlink:href="#DejaVuSans-67"/>
    <use x="421.923828" xlink:href="#DejaVuSans-69"/>
    <use x="449.707031" xlink:href="#DejaVuSans-74"/>
    <use x="488.916016" xlink:href="#DejaVuSans-68"/>
    <use x="552.294922" xlink:href="#DejaVuSans-75"/>
    <use x="615.673828" xlink:href="#DejaVuSans-62"/>
    <use x="679.150391" xlink:href="#DejaVuSans-2e"/>
    <use x="710.9375" xlink:href="#DejaVuSans-63"/>
    <use x="765.917969" xlink:href="#DejaVuSans-6f"/>
    <use x="827.099609" xlink:href="#DejaVuSans-6d"/>
    <use x="924.511719" xlink:href="#DejaVuSans-2f"/>
    <use x="958.203125" xlink:href="#DejaVuSans-62"/>
    <use x="1021.679688" xlink:href="#DejaVuSans-69"/>
    <use x="1049.462891" xlink:href="#DejaVuSans-6f"/>
    <use x="1110.644531" xlink:href="#DejaVuSans-70"/>
    <use x="1174.121094" xlink:href="#DejaVuSans-72"/>
    <use x="1215.234375" xlink:href="#DejaVuSans-61"/>
    <use x="1276.513672" xlink:href="#DejaVuSans-67"/>
    <use x="1339.990234" xlink:href="#DejaVuSans-6d"/>
    <use x="1437.402344" xlink:href="#DejaVuSans-61"/>
    <use x="1498.681641" xlink:href="#DejaVuSans-74"/>
    <use x="1537.890625" xlink:href="#DejaVuSans-69"/>
    <use x="1565.673828" xlink:href="#DejaVuSans-63"/>
    <use x="1620.654297" xlink:href="#DejaVuSans-73"/>
    <use x="1672.753906" xlink:href="#DejaVuSans-2f"/>
    <use x="1706.445312" xlink:href="#DejaVuSans-62"/>
    <use x="1769.921875" xlink:href="#DejaVuSans-69"/>
    <use x="1797.705078" xlink:href="#DejaVuSans-6f"/>
    <use x="1858.886719" xlink:href="#DejaVuSans-72"/>
    <use x="1897.75" xlink:href="#DejaVuSans-65"/>
    <use x="1959.273438" xlink:href="#DejaVuSans-67"/>
    <use x="2022.75" xlink:href="#DejaVuSans-69"/>
    <use x="2050.533203" xlink:href="#DejaVuSans-73"/>
    <use x="2102.632812" xlink:href="#DejaVuSans-74"/>
    <use x="2141.841797" xlink:href="#DejaVuSans-72"/>
    <use x="2182.955078" xlink:href="#DejaVuSans-79"/>
    <use x="2242.134766" xlink:href="#DejaVuSans-20"/>
    <use x="2273.921875" xlink:href="#DejaVuSans-28"/>
    <use x="2312.935547" xlink:href="#DejaVuSans-32"/>
    <use x="2376.558594" xlink:href="#DejaVuSans-30"/>
    <use x="2440.181641" xlink:href="#DejaVuSans-32"/>
    <use x="2503.804688" xlink:href="#DejaVuSans-31"/>
    <use x="2567.427734" xlink:href="#DejaVuSans-2d"/>
    <use x="2603.511719" xlink:href="#DejaVuSans-30"/>
    <use x="2667.134766" xlink:href="#DejaVuSans-39"/>
    <use x="2730.757812" xlink:href="#DejaVuSans-2d"/>
    <use x="2766.841797" xlink:href="#DejaVuSans-32"/>
    <use x="2830.464844" xlink:href="#DejaVuSans-32"/>
    <use x="2894.087891" xlink:href="#DejaVuSans-29"/>
   </g>
  </g>
 </g>
 <defs>
  <clipPath id="pea1810a96c">
   <rect height="121.430443" width="122.886151" x="53.867283" y="10.8"/>
  </clipPath>
  <clipPath id="p731f374839">
   <rect height="121.430443" width="122.509428" x="279.969765" y="10.8"/>
  </clipPath>
  <clipPath id="pfbafbfc198">
   <rect height="121.430443" width="124.709167" x="504.784016" y="10.8"/>
  </clipPath>
  <clipPath id="pe4c830a407">
   <rect height="121.430443" width="155.132378" x="37.744169" y="152.355074"/>
  </clipPath>
  <clipPath id="pab4f2b2df2">
   <rect height="121.430443" width="123.57574" x="279.436609" y="152.355074"/>
  </clipPath>
  <clipPath id="pdc9ac258d4">
   <rect height="121.430443" width="142.31695" x="495.980125" y="152.355074"/>
  </clipPath>
  <clipPath id="p99ff8a4d0e">
   <rect height="121.430443" width="172.354181" x="29.133268" y="293.910147"/>
  </clipPath>
  <clipPath id="p05c9b36790">
   <rect height="121.430443" width="132.295438" x="275.07676" y="293.910147"/>
  </clipPath>
  <clipPath id="p5f84a2a112">
   <rect height="121.430443" width="134.106814" x="500.085193" y="293.910147"/>
  </clipPath>
  <clipPath id="p8d2423f11c">
   <rect height="121.430443" width="135.812357" x="47.40418" y="435.465221"/>
  </clipPath>
  <clipPath id="pb306d6f3e7">
   <rect height="121.430443" width="140.021669" x="271.213644" y="435.465221"/>
  </clipPath>
  <clipPath id="p5fd4443671">
   <rect height="121.430443" width="138.225341" x="498.025929" y="435.465221"/>
  </clipPath>
 </defs>
</svg>
