<?xml version="1.0" encoding="utf-8" standalone="no"?>
<!DOCTYPE svg PUBLIC "-//W3C//DTD SVG 1.1//EN"
  "http://www.w3.org/Graphics/SVG/1.1/DTD/svg11.dtd">
<svg height="576pt" version="1.1" viewBox="0 0 702 576" width="702pt" xmlns="http://www.w3.org/2000/svg" xmlns:xlink="http://www.w3.org/1999/xlink">
 <metadata>
  <rdf:RDF xmlns:cc="http://creativecommons.org/ns#" xmlns:dc="http://purl.org/dc/elements/1.1/" xmlns:rdf="http://www.w3.org/1999/02/22-rdf-syntax-ns#">
   <cc:Work>
    <dc:type rdf:resource="http://purl.org/dc/dcmitype/StillImage"/>
    <dc:date>2021-06-03T02:05:19.891077</dc:date>
    <dc:format>image/svg+xml</dc:format>
    <dc:creator>
     <cc:Agent>
      <dc:title>Matplotlib v3.4.2, https://matplotlib.org/</dc:title>
     </cc:Agent>
    </dc:creator>
   </cc:Work>
  </rdf:RDF>
 </metadata>
 <defs>
  <style type="text/css">*{stroke-linecap:butt;stroke-linejoin:round;}</style>
 </defs>
 <g id="figure_1">
  <g id="patch_1">
   <path d="M 0 576 
L 702 576 
L 702 0 
L 0 0 
z
" style="fill:#ffffff;"/>
  </g>
  <g id="axes_1">
   <g id="patch_2">
    <path clip-path="url(#p75fc78568c)" d="M 171.137129 72.306072 
C 171.030832 75.087907 170.384285 77.822669 169.233606 80.357594 
C 168.082927 82.892518 166.449947 85.179508 164.425886 87.090812 
C 162.401825 89.002116 160.025087 90.501469 157.428436 91.505117 
C 154.831785 92.508765 152.06449 92.997664 149.281132 92.944506 
C 146.497775 92.891348 143.751165 92.29714 141.194731 91.195075 
C 138.638296 90.093011 136.320541 88.503999 134.370936 86.516804 
C 132.421331 84.529609 130.876867 82.181934 129.823819 79.604921 
C 128.77077 77.027909 128.229118 74.270453 128.229118 71.486588 
C 128.229118 68.702723 128.77077 65.945268 129.823819 63.368255 
C 130.876867 60.791243 132.421331 58.443568 134.370936 56.456372 
C 136.320541 54.469177 138.638296 52.880166 141.194731 51.778101 
C 143.751165 50.676036 146.497775 50.081829 149.281132 50.02867 
C 152.06449 49.975512 154.831785 50.464412 157.428436 51.46806 
C 160.025087 52.471708 162.401825 53.971061 164.425886 55.882364 
C 166.449947 57.793668 168.082927 60.080658 169.233606 62.615583 
C 170.384285 65.150507 171.030832 67.88527 171.137129 70.667105 
C 171.030063 63.93299 169.604309 57.284671 166.940646 51.098827 
C 164.276984 44.912983 160.426687 39.308687 155.607904 34.603467 
C 150.789121 29.898246 145.094612 26.182674 138.847013 23.667265 
C 132.599415 21.151857 125.918991 19.885032 119.184237 19.938566 
C 112.449484 19.992101 105.790043 21.364964 99.583221 23.979373 
C 93.3764 26.593782 87.741676 30.39941 82.998301 35.18064 
C 78.254926 39.96187 74.494207 45.626665 71.929217 51.854072 
C 69.364227 58.081479 68.044342 64.751622 68.044342 71.486588 
C 68.044342 78.221554 69.364227 84.891698 71.929217 91.119105 
C 74.494207 97.346511 78.254926 103.011307 82.998301 107.792537 
C 87.741676 112.573766 93.3764 116.379395 99.583221 118.993804 
C 105.790043 121.608212 112.449484 122.981076 119.184237 123.03461 
C 125.918991 123.088145 132.599415 121.82132 138.847013 119.305911 
C 145.094612 116.790503 150.789121 113.07493 155.607904 108.36971 
C 160.426687 103.664489 164.276984 98.060194 166.940646 91.87435 
C 169.604309 85.688506 171.030063 79.040187 171.137129 72.306072 
" style="fill:#c0c0c0;opacity:0.4;"/>
   </g>
   <g id="patch_3">
    <path clip-path="url(#p75fc78568c)" d="M 171.137129 70.667105 
C 171.141471 70.940244 171.143643 71.213414 171.143643 71.486588 
C 171.143643 71.759762 171.141471 72.032932 171.137129 72.306072 
C 171.147562 72.033035 171.15278 71.759824 171.15278 71.486588 
C 171.15278 71.213352 171.147562 70.940141 171.137129 70.667105 
" style="fill:#a6cee3;opacity:0.4;"/>
   </g>
   <g id="patch_4">
    <path clip-path="url(#p75fc78568c)" d="M 171.137129 72.306072 
C 171.141471 72.032932 171.143643 71.759762 171.143643 71.486588 
C 171.143643 71.213414 171.141471 70.940244 171.137129 70.667105 
C 171.030832 67.88527 170.384285 65.150507 169.233606 62.615583 
C 168.082927 60.080658 166.449947 57.793668 164.425886 55.882364 
C 162.401825 53.971061 160.025087 52.471708 157.428436 51.46806 
C 154.831785 50.464412 152.06449 49.975512 149.281132 50.02867 
C 146.497775 50.081829 143.751165 50.676036 141.194731 51.778101 
C 138.638296 52.880166 136.320541 54.469177 134.370936 56.456372 
C 132.421331 58.443568 130.876867 60.791243 129.823819 63.368255 
C 128.77077 65.945268 128.229118 68.702723 128.229118 71.486588 
C 128.229118 74.270453 128.77077 77.027909 129.823819 79.604921 
C 130.876867 82.181934 132.421331 84.529609 134.370936 86.516804 
C 136.320541 88.503999 138.638296 90.093011 141.194731 91.195075 
C 143.751165 92.29714 146.497775 92.891348 149.281132 92.944506 
C 152.06449 92.997664 154.831785 92.508765 157.428436 91.505117 
C 160.025087 90.501469 162.401825 89.002116 164.425886 87.090812 
C 166.449947 85.179508 168.082927 82.892518 169.233606 80.357594 
C 170.384285 77.822669 171.030832 75.087907 171.137129 72.306072 
" style="fill:#fbffff;opacity:0.4;"/>
   </g>
   <g id="text_1">
    <!-- 930 -->
    <g style="fill:#262626;" transform="translate(88.59298 74.245963)scale(0.1 -0.1)">
     <defs>
      <path d="M 703 97 
L 703 672 
Q 941 559 1184 500 
Q 1428 441 1663 441 
Q 2288 441 2617 861 
Q 2947 1281 2994 2138 
Q 2813 1869 2534 1725 
Q 2256 1581 1919 1581 
Q 1219 1581 811 2004 
Q 403 2428 403 3163 
Q 403 3881 828 4315 
Q 1253 4750 1959 4750 
Q 2769 4750 3195 4129 
Q 3622 3509 3622 2328 
Q 3622 1225 3098 567 
Q 2575 -91 1691 -91 
Q 1453 -91 1209 -44 
Q 966 3 703 97 
z
M 1959 2075 
Q 2384 2075 2632 2365 
Q 2881 2656 2881 3163 
Q 2881 3666 2632 3958 
Q 2384 4250 1959 4250 
Q 1534 4250 1286 3958 
Q 1038 3666 1038 3163 
Q 1038 2656 1286 2365 
Q 1534 2075 1959 2075 
z
" id="DejaVuSans-39" transform="scale(0.015625)"/>
      <path d="M 2597 2516 
Q 3050 2419 3304 2112 
Q 3559 1806 3559 1356 
Q 3559 666 3084 287 
Q 2609 -91 1734 -91 
Q 1441 -91 1130 -33 
Q 819 25 488 141 
L 488 750 
Q 750 597 1062 519 
Q 1375 441 1716 441 
Q 2309 441 2620 675 
Q 2931 909 2931 1356 
Q 2931 1769 2642 2001 
Q 2353 2234 1838 2234 
L 1294 2234 
L 1294 2753 
L 1863 2753 
Q 2328 2753 2575 2939 
Q 2822 3125 2822 3475 
Q 2822 3834 2567 4026 
Q 2313 4219 1838 4219 
Q 1578 4219 1281 4162 
Q 984 4106 628 3988 
L 628 4550 
Q 988 4650 1302 4700 
Q 1616 4750 1894 4750 
Q 2613 4750 3031 4423 
Q 3450 4097 3450 3541 
Q 3450 3153 3228 2886 
Q 3006 2619 2597 2516 
z
" id="DejaVuSans-33" transform="scale(0.015625)"/>
      <path d="M 2034 4250 
Q 1547 4250 1301 3770 
Q 1056 3291 1056 2328 
Q 1056 1369 1301 889 
Q 1547 409 2034 409 
Q 2525 409 2770 889 
Q 3016 1369 3016 2328 
Q 3016 3291 2770 3770 
Q 2525 4250 2034 4250 
z
M 2034 4750 
Q 2819 4750 3233 4129 
Q 3647 3509 3647 2328 
Q 3647 1150 3233 529 
Q 2819 -91 2034 -91 
Q 1250 -91 836 529 
Q 422 1150 422 2328 
Q 422 3509 836 4129 
Q 1250 4750 2034 4750 
z
" id="DejaVuSans-30" transform="scale(0.015625)"/>
     </defs>
     <use xlink:href="#DejaVuSans-39"/>
     <use x="63.623047" xlink:href="#DejaVuSans-33"/>
     <use x="127.246094" xlink:href="#DejaVuSans-30"/>
    </g>
   </g>
   <g id="text_2">
    <!-- 0 -->
    <g style="fill:#262626;" transform="translate(167.966961 74.245963)scale(0.1 -0.1)">
     <use xlink:href="#DejaVuSans-30"/>
    </g>
   </g>
   <g id="text_3">
    <!-- 195 -->
    <g style="fill:#262626;" transform="translate(140.14263 74.245963)scale(0.1 -0.1)">
     <defs>
      <path d="M 794 531 
L 1825 531 
L 1825 4091 
L 703 3866 
L 703 4441 
L 1819 4666 
L 2450 4666 
L 2450 531 
L 3481 531 
L 3481 0 
L 794 0 
L 794 531 
z
" id="DejaVuSans-31" transform="scale(0.015625)"/>
      <path d="M 691 4666 
L 3169 4666 
L 3169 4134 
L 1269 4134 
L 1269 2991 
Q 1406 3038 1543 3061 
Q 1681 3084 1819 3084 
Q 2600 3084 3056 2656 
Q 3513 2228 3513 1497 
Q 3513 744 3044 326 
Q 2575 -91 1722 -91 
Q 1428 -91 1123 -41 
Q 819 9 494 109 
L 494 744 
Q 775 591 1075 516 
Q 1375 441 1709 441 
Q 2250 441 2565 725 
Q 2881 1009 2881 1497 
Q 2881 1984 2565 2268 
Q 2250 2553 1709 2553 
Q 1456 2553 1204 2497 
Q 953 2441 691 2322 
L 691 4666 
z
" id="DejaVuSans-35" transform="scale(0.015625)"/>
     </defs>
     <use xlink:href="#DejaVuSans-31"/>
     <use x="63.623047" xlink:href="#DejaVuSans-39"/>
     <use x="127.246094" xlink:href="#DejaVuSans-35"/>
    </g>
   </g>
   <g id="text_4">
    <!-- Bioregistry -->
    <g style="fill:#262626;" transform="translate(54.694617 135.804938)scale(0.12 -0.12)">
     <defs>
      <path d="M 1259 2228 
L 1259 519 
L 2272 519 
Q 2781 519 3026 730 
Q 3272 941 3272 1375 
Q 3272 1813 3026 2020 
Q 2781 2228 2272 2228 
L 1259 2228 
z
M 1259 4147 
L 1259 2741 
L 2194 2741 
Q 2656 2741 2882 2914 
Q 3109 3088 3109 3444 
Q 3109 3797 2882 3972 
Q 2656 4147 2194 4147 
L 1259 4147 
z
M 628 4666 
L 2241 4666 
Q 2963 4666 3353 4366 
Q 3744 4066 3744 3513 
Q 3744 3084 3544 2831 
Q 3344 2578 2956 2516 
Q 3422 2416 3680 2098 
Q 3938 1781 3938 1306 
Q 3938 681 3513 340 
Q 3088 0 2303 0 
L 628 0 
L 628 4666 
z
" id="DejaVuSans-42" transform="scale(0.015625)"/>
      <path d="M 603 3500 
L 1178 3500 
L 1178 0 
L 603 0 
L 603 3500 
z
M 603 4863 
L 1178 4863 
L 1178 4134 
L 603 4134 
L 603 4863 
z
" id="DejaVuSans-69" transform="scale(0.015625)"/>
      <path d="M 1959 3097 
Q 1497 3097 1228 2736 
Q 959 2375 959 1747 
Q 959 1119 1226 758 
Q 1494 397 1959 397 
Q 2419 397 2687 759 
Q 2956 1122 2956 1747 
Q 2956 2369 2687 2733 
Q 2419 3097 1959 3097 
z
M 1959 3584 
Q 2709 3584 3137 3096 
Q 3566 2609 3566 1747 
Q 3566 888 3137 398 
Q 2709 -91 1959 -91 
Q 1206 -91 779 398 
Q 353 888 353 1747 
Q 353 2609 779 3096 
Q 1206 3584 1959 3584 
z
" id="DejaVuSans-6f" transform="scale(0.015625)"/>
      <path d="M 2631 2963 
Q 2534 3019 2420 3045 
Q 2306 3072 2169 3072 
Q 1681 3072 1420 2755 
Q 1159 2438 1159 1844 
L 1159 0 
L 581 0 
L 581 3500 
L 1159 3500 
L 1159 2956 
Q 1341 3275 1631 3429 
Q 1922 3584 2338 3584 
Q 2397 3584 2469 3576 
Q 2541 3569 2628 3553 
L 2631 2963 
z
" id="DejaVuSans-72" transform="scale(0.015625)"/>
      <path d="M 3597 1894 
L 3597 1613 
L 953 1613 
Q 991 1019 1311 708 
Q 1631 397 2203 397 
Q 2534 397 2845 478 
Q 3156 559 3463 722 
L 3463 178 
Q 3153 47 2828 -22 
Q 2503 -91 2169 -91 
Q 1331 -91 842 396 
Q 353 884 353 1716 
Q 353 2575 817 3079 
Q 1281 3584 2069 3584 
Q 2775 3584 3186 3129 
Q 3597 2675 3597 1894 
z
M 3022 2063 
Q 3016 2534 2758 2815 
Q 2500 3097 2075 3097 
Q 1594 3097 1305 2825 
Q 1016 2553 972 2059 
L 3022 2063 
z
" id="DejaVuSans-65" transform="scale(0.015625)"/>
      <path d="M 2906 1791 
Q 2906 2416 2648 2759 
Q 2391 3103 1925 3103 
Q 1463 3103 1205 2759 
Q 947 2416 947 1791 
Q 947 1169 1205 825 
Q 1463 481 1925 481 
Q 2391 481 2648 825 
Q 2906 1169 2906 1791 
z
M 3481 434 
Q 3481 -459 3084 -895 
Q 2688 -1331 1869 -1331 
Q 1566 -1331 1297 -1286 
Q 1028 -1241 775 -1147 
L 775 -588 
Q 1028 -725 1275 -790 
Q 1522 -856 1778 -856 
Q 2344 -856 2625 -561 
Q 2906 -266 2906 331 
L 2906 616 
Q 2728 306 2450 153 
Q 2172 0 1784 0 
Q 1141 0 747 490 
Q 353 981 353 1791 
Q 353 2603 747 3093 
Q 1141 3584 1784 3584 
Q 2172 3584 2450 3431 
Q 2728 3278 2906 2969 
L 2906 3500 
L 3481 3500 
L 3481 434 
z
" id="DejaVuSans-67" transform="scale(0.015625)"/>
      <path d="M 2834 3397 
L 2834 2853 
Q 2591 2978 2328 3040 
Q 2066 3103 1784 3103 
Q 1356 3103 1142 2972 
Q 928 2841 928 2578 
Q 928 2378 1081 2264 
Q 1234 2150 1697 2047 
L 1894 2003 
Q 2506 1872 2764 1633 
Q 3022 1394 3022 966 
Q 3022 478 2636 193 
Q 2250 -91 1575 -91 
Q 1294 -91 989 -36 
Q 684 19 347 128 
L 347 722 
Q 666 556 975 473 
Q 1284 391 1588 391 
Q 1994 391 2212 530 
Q 2431 669 2431 922 
Q 2431 1156 2273 1281 
Q 2116 1406 1581 1522 
L 1381 1569 
Q 847 1681 609 1914 
Q 372 2147 372 2553 
Q 372 3047 722 3315 
Q 1072 3584 1716 3584 
Q 2034 3584 2315 3537 
Q 2597 3491 2834 3397 
z
" id="DejaVuSans-73" transform="scale(0.015625)"/>
      <path d="M 1172 4494 
L 1172 3500 
L 2356 3500 
L 2356 3053 
L 1172 3053 
L 1172 1153 
Q 1172 725 1289 603 
Q 1406 481 1766 481 
L 2356 481 
L 2356 0 
L 1766 0 
Q 1100 0 847 248 
Q 594 497 594 1153 
L 594 3053 
L 172 3053 
L 172 3500 
L 594 3500 
L 594 4494 
L 1172 4494 
z
" id="DejaVuSans-74" transform="scale(0.015625)"/>
      <path d="M 2059 -325 
Q 1816 -950 1584 -1140 
Q 1353 -1331 966 -1331 
L 506 -1331 
L 506 -850 
L 844 -850 
Q 1081 -850 1212 -737 
Q 1344 -625 1503 -206 
L 1606 56 
L 191 3500 
L 800 3500 
L 1894 763 
L 2988 3500 
L 3597 3500 
L 2059 -325 
z
" id="DejaVuSans-79" transform="scale(0.015625)"/>
     </defs>
     <use xlink:href="#DejaVuSans-42"/>
     <use x="68.603516" xlink:href="#DejaVuSans-69"/>
     <use x="96.386719" xlink:href="#DejaVuSans-6f"/>
     <use x="157.568359" xlink:href="#DejaVuSans-72"/>
     <use x="196.431641" xlink:href="#DejaVuSans-65"/>
     <use x="257.955078" xlink:href="#DejaVuSans-67"/>
     <use x="321.431641" xlink:href="#DejaVuSans-69"/>
     <use x="349.214844" xlink:href="#DejaVuSans-73"/>
     <use x="401.314453" xlink:href="#DejaVuSans-74"/>
     <use x="440.523438" xlink:href="#DejaVuSans-72"/>
     <use x="481.636719" xlink:href="#DejaVuSans-79"/>
    </g>
   </g>
   <g id="text_5">
    <!-- OBO -->
    <g style="fill:#262626;" transform="translate(149.690949 105.717118)scale(0.12 -0.12)">
     <defs>
      <path d="M 2522 4238 
Q 1834 4238 1429 3725 
Q 1025 3213 1025 2328 
Q 1025 1447 1429 934 
Q 1834 422 2522 422 
Q 3209 422 3611 934 
Q 4013 1447 4013 2328 
Q 4013 3213 3611 3725 
Q 3209 4238 2522 4238 
z
M 2522 4750 
Q 3503 4750 4090 4092 
Q 4678 3434 4678 2328 
Q 4678 1225 4090 567 
Q 3503 -91 2522 -91 
Q 1538 -91 948 565 
Q 359 1222 359 2328 
Q 359 3434 948 4092 
Q 1538 4750 2522 4750 
z
" id="DejaVuSans-4f" transform="scale(0.015625)"/>
     </defs>
     <use xlink:href="#DejaVuSans-4f"/>
     <use x="78.710938" xlink:href="#DejaVuSans-42"/>
     <use x="145.564453" xlink:href="#DejaVuSans-4f"/>
    </g>
   </g>
  </g>
  <g id="axes_2">
   <g id="patch_5">
    <path clip-path="url(#p92b1449211)" d="M 405.225208 72.427096 
C 405.103191 75.664508 404.352328 78.847452 403.014576 81.798069 
C 401.676823 84.748686 399.777571 87.410974 397.422949 89.636165 
C 395.068327 91.861357 392.303024 93.607218 389.281564 94.776193 
C 386.260103 95.945168 383.039833 96.515068 379.800697 96.454049 
C 376.561561 96.393031 373.365039 95.70225 370.389749 94.420309 
C 367.414459 93.138367 364.716872 91.289596 362.447727 88.977302 
C 360.178582 86.665008 358.380946 83.933078 357.155271 80.934171 
C 355.929595 77.935264 355.299143 74.726299 355.299143 71.486588 
C 355.299143 68.246878 355.929595 65.037912 357.155271 62.039005 
C 358.380946 59.040098 360.178582 56.308169 362.447727 53.995875 
C 364.716872 51.683581 367.414459 49.834809 370.389749 48.552868 
C 373.365039 47.270926 376.561561 46.580146 379.800697 46.519127 
C 383.039833 46.458108 386.260103 47.028009 389.281564 48.196984 
C 392.303024 49.365958 395.068327 51.11182 397.422949 53.337011 
C 399.777571 55.562203 401.676823 58.22449 403.014576 61.175107 
C 404.352328 64.125724 405.103191 67.308669 405.225208 70.546081 
C 405.102423 63.817326 403.663147 57.17728 400.988804 51.001594 
C 398.314461 44.825907 394.456453 39.233279 389.63304 34.540102 
C 384.809628 29.846925 379.113519 26.143405 372.866961 23.639062 
C 366.620404 21.134719 359.943459 19.877688 353.213864 19.939083 
C 346.484269 20.000478 339.83137 21.379119 333.631543 23.997011 
C 327.431716 26.614904 321.804125 30.421731 317.067141 35.202128 
C 312.330157 39.982526 308.574826 45.644612 306.013602 51.868063 
C 303.452378 58.091514 302.134487 64.756714 302.134487 71.486588 
C 302.134487 78.216463 303.452378 84.881663 306.013602 91.105114 
C 308.574826 97.328565 312.330157 102.990651 317.067141 107.771048 
C 321.804125 112.551445 327.431716 116.358273 333.631543 118.976165 
C 339.83137 121.594058 346.484269 122.972699 353.213864 123.034094 
C 359.943459 123.095489 366.620404 121.838457 372.866961 119.334114 
C 379.113519 116.829771 384.809628 113.126251 389.63304 108.433074 
C 394.456453 103.739898 398.314461 98.147269 400.988804 91.971583 
C 403.663147 85.795896 405.102423 79.15585 405.225208 72.427096 
" style="fill:#c0c0c0;opacity:0.4;"/>
   </g>
   <g id="patch_6">
    <path clip-path="url(#p92b1449211)" d="M 405.225208 70.546081 
C 405.230928 70.859551 405.233788 71.173066 405.233788 71.486588 
C 405.233788 71.80011 405.230928 72.113626 405.225208 72.427096 
C 405.237018 72.113732 405.242925 71.800174 405.242925 71.486588 
C 405.242925 71.173002 405.237018 70.859444 405.225208 70.546081 
" style="fill:#1f78b4;opacity:0.4;"/>
   </g>
   <g id="patch_7">
    <path clip-path="url(#p92b1449211)" d="M 405.225208 72.427096 
C 405.230928 72.113626 405.233788 71.80011 405.233788 71.486588 
C 405.233788 71.173066 405.230928 70.859551 405.225208 70.546081 
C 405.103191 67.308669 404.352328 64.125724 403.014576 61.175107 
C 401.676823 58.22449 399.777571 55.562203 397.422949 53.337011 
C 395.068327 51.11182 392.303024 49.365958 389.281564 48.196984 
C 386.260103 47.028009 383.039833 46.458108 379.800697 46.519127 
C 376.561561 46.580146 373.365039 47.270926 370.389749 48.552868 
C 367.414459 49.834809 364.716872 51.683581 362.447727 53.995875 
C 360.178582 56.308169 358.380946 59.040098 357.155271 62.039005 
C 355.929595 65.037912 355.299143 68.246878 355.299143 71.486588 
C 355.299143 74.726299 355.929595 77.935264 357.155271 80.934171 
C 358.380946 83.933078 360.178582 86.665008 362.447727 88.977302 
C 364.716872 91.289596 367.414459 93.138367 370.389749 94.420309 
C 373.365039 95.70225 376.561561 96.393031 379.800697 96.454049 
C 383.039833 96.515068 386.260103 95.945168 389.281564 94.776193 
C 392.303024 93.607218 395.068327 91.861357 397.422949 89.636165 
C 399.777571 87.410974 401.676823 84.748686 403.014576 81.798069 
C 404.352328 78.847452 405.103191 75.664508 405.225208 72.427096 
" style="fill:#9cdaff;opacity:0.4;"/>
   </g>
   <g id="text_6">
    <!-- 861 -->
    <g style="fill:#262626;" transform="translate(319.173065 74.245963)scale(0.1 -0.1)">
     <defs>
      <path d="M 2034 2216 
Q 1584 2216 1326 1975 
Q 1069 1734 1069 1313 
Q 1069 891 1326 650 
Q 1584 409 2034 409 
Q 2484 409 2743 651 
Q 3003 894 3003 1313 
Q 3003 1734 2745 1975 
Q 2488 2216 2034 2216 
z
M 1403 2484 
Q 997 2584 770 2862 
Q 544 3141 544 3541 
Q 544 4100 942 4425 
Q 1341 4750 2034 4750 
Q 2731 4750 3128 4425 
Q 3525 4100 3525 3541 
Q 3525 3141 3298 2862 
Q 3072 2584 2669 2484 
Q 3125 2378 3379 2068 
Q 3634 1759 3634 1313 
Q 3634 634 3220 271 
Q 2806 -91 2034 -91 
Q 1263 -91 848 271 
Q 434 634 434 1313 
Q 434 1759 690 2068 
Q 947 2378 1403 2484 
z
M 1172 3481 
Q 1172 3119 1398 2916 
Q 1625 2713 2034 2713 
Q 2441 2713 2670 2916 
Q 2900 3119 2900 3481 
Q 2900 3844 2670 4047 
Q 2441 4250 2034 4250 
Q 1625 4250 1398 4047 
Q 1172 3844 1172 3481 
z
" id="DejaVuSans-38" transform="scale(0.015625)"/>
      <path d="M 2113 2584 
Q 1688 2584 1439 2293 
Q 1191 2003 1191 1497 
Q 1191 994 1439 701 
Q 1688 409 2113 409 
Q 2538 409 2786 701 
Q 3034 994 3034 1497 
Q 3034 2003 2786 2293 
Q 2538 2584 2113 2584 
z
M 3366 4563 
L 3366 3988 
Q 3128 4100 2886 4159 
Q 2644 4219 2406 4219 
Q 1781 4219 1451 3797 
Q 1122 3375 1075 2522 
Q 1259 2794 1537 2939 
Q 1816 3084 2150 3084 
Q 2853 3084 3261 2657 
Q 3669 2231 3669 1497 
Q 3669 778 3244 343 
Q 2819 -91 2113 -91 
Q 1303 -91 875 529 
Q 447 1150 447 2328 
Q 447 3434 972 4092 
Q 1497 4750 2381 4750 
Q 2619 4750 2861 4703 
Q 3103 4656 3366 4563 
z
" id="DejaVuSans-36" transform="scale(0.015625)"/>
     </defs>
     <use xlink:href="#DejaVuSans-38"/>
     <use x="63.623047" xlink:href="#DejaVuSans-36"/>
     <use x="127.246094" xlink:href="#DejaVuSans-31"/>
    </g>
   </g>
   <g id="text_7">
    <!-- 0 -->
    <g style="fill:#262626;" transform="translate(402.057106 74.245963)scale(0.1 -0.1)">
     <use xlink:href="#DejaVuSans-30"/>
    </g>
   </g>
   <g id="text_8">
    <!-- 264 -->
    <g style="fill:#262626;" transform="translate(370.722716 74.245963)scale(0.1 -0.1)">
     <defs>
      <path d="M 1228 531 
L 3431 531 
L 3431 0 
L 469 0 
L 469 531 
Q 828 903 1448 1529 
Q 2069 2156 2228 2338 
Q 2531 2678 2651 2914 
Q 2772 3150 2772 3378 
Q 2772 3750 2511 3984 
Q 2250 4219 1831 4219 
Q 1534 4219 1204 4116 
Q 875 4013 500 3803 
L 500 4441 
Q 881 4594 1212 4672 
Q 1544 4750 1819 4750 
Q 2544 4750 2975 4387 
Q 3406 4025 3406 3419 
Q 3406 3131 3298 2873 
Q 3191 2616 2906 2266 
Q 2828 2175 2409 1742 
Q 1991 1309 1228 531 
z
" id="DejaVuSans-32" transform="scale(0.015625)"/>
      <path d="M 2419 4116 
L 825 1625 
L 2419 1625 
L 2419 4116 
z
M 2253 4666 
L 3047 4666 
L 3047 1625 
L 3713 1625 
L 3713 1100 
L 3047 1100 
L 3047 0 
L 2419 0 
L 2419 1100 
L 313 1100 
L 313 1709 
L 2253 4666 
z
" id="DejaVuSans-34" transform="scale(0.015625)"/>
     </defs>
     <use xlink:href="#DejaVuSans-32"/>
     <use x="63.623047" xlink:href="#DejaVuSans-36"/>
     <use x="127.246094" xlink:href="#DejaVuSans-34"/>
    </g>
   </g>
   <g id="text_9">
    <!-- Bioregistry -->
    <g style="fill:#262626;" transform="translate(288.784762 135.980441)scale(0.12 -0.12)">
     <use xlink:href="#DejaVuSans-42"/>
     <use x="68.603516" xlink:href="#DejaVuSans-69"/>
     <use x="96.386719" xlink:href="#DejaVuSans-6f"/>
     <use x="157.568359" xlink:href="#DejaVuSans-72"/>
     <use x="196.431641" xlink:href="#DejaVuSans-65"/>
     <use x="257.955078" xlink:href="#DejaVuSans-67"/>
     <use x="321.431641" xlink:href="#DejaVuSans-69"/>
     <use x="349.214844" xlink:href="#DejaVuSans-73"/>
     <use x="401.314453" xlink:href="#DejaVuSans-74"/>
     <use x="440.523438" xlink:href="#DejaVuSans-72"/>
     <use x="481.636719" xlink:href="#DejaVuSans-79"/>
    </g>
   </g>
   <g id="text_10">
    <!-- OLS -->
    <g style="fill:#262626;" transform="translate(380.271034 109.402681)scale(0.12 -0.12)">
     <defs>
      <path d="M 628 4666 
L 1259 4666 
L 1259 531 
L 3531 531 
L 3531 0 
L 628 0 
L 628 4666 
z
" id="DejaVuSans-4c" transform="scale(0.015625)"/>
      <path d="M 3425 4513 
L 3425 3897 
Q 3066 4069 2747 4153 
Q 2428 4238 2131 4238 
Q 1616 4238 1336 4038 
Q 1056 3838 1056 3469 
Q 1056 3159 1242 3001 
Q 1428 2844 1947 2747 
L 2328 2669 
Q 3034 2534 3370 2195 
Q 3706 1856 3706 1288 
Q 3706 609 3251 259 
Q 2797 -91 1919 -91 
Q 1588 -91 1214 -16 
Q 841 59 441 206 
L 441 856 
Q 825 641 1194 531 
Q 1563 422 1919 422 
Q 2459 422 2753 634 
Q 3047 847 3047 1241 
Q 3047 1584 2836 1778 
Q 2625 1972 2144 2069 
L 1759 2144 
Q 1053 2284 737 2584 
Q 422 2884 422 3419 
Q 422 4038 858 4394 
Q 1294 4750 2059 4750 
Q 2388 4750 2728 4690 
Q 3069 4631 3425 4513 
z
" id="DejaVuSans-53" transform="scale(0.015625)"/>
     </defs>
     <use xlink:href="#DejaVuSans-4f"/>
     <use x="78.710938" xlink:href="#DejaVuSans-4c"/>
     <use x="134.423828" xlink:href="#DejaVuSans-53"/>
    </g>
   </g>
  </g>
  <g id="axes_3">
   <g id="patch_8">
    <path clip-path="url(#p4d9283899a)" d="M 639.286077 73.461821 
C 639.030644 78.826973 637.736904 84.09199 635.476696 88.964521 
C 633.216487 93.837052 630.032432 98.225212 626.101331 101.885342 
C 622.170229 105.545471 617.566214 108.408546 612.544931 110.315591 
C 607.523648 112.222636 602.179788 113.137687 596.810078 113.009934 
C 591.440368 112.882182 586.14607 111.714035 581.221159 109.570357 
C 576.296248 107.426679 571.833598 104.347895 568.081004 100.50496 
C 564.328411 96.662026 561.356641 92.12741 559.330706 87.152906 
C 557.304772 82.178402 556.262878 76.857818 556.262878 71.486588 
C 556.262878 66.115359 557.304772 60.794775 559.330706 55.820271 
C 561.356641 50.845766 564.328411 46.311151 568.081004 42.468216 
C 571.833598 38.625281 576.296248 35.546498 581.221159 33.40282 
C 586.14607 31.259142 591.440368 30.090995 596.810078 29.963242 
C 602.179788 29.83549 607.523648 30.750541 612.544931 32.657585 
C 617.566214 34.56463 622.170229 37.427706 626.101331 41.087835 
C 630.032432 44.747964 633.216487 49.136124 635.476696 54.008656 
C 637.736904 58.881187 639.030644 64.146203 639.286077 69.511355 
C 639.029875 62.829928 637.476166 56.261727 634.71173 50.173624 
C 631.947295 44.08552 628.024581 38.593017 623.162694 34.002901 
C 618.300807 29.412786 612.591986 25.812141 606.355102 23.402083 
C 600.118217 20.992026 593.471594 19.818279 586.786485 19.946403 
C 580.101375 20.074527 573.504608 21.502091 567.36465 24.149358 
C 561.224692 26.796625 555.658029 30.613371 550.975593 35.386409 
C 546.293156 40.159447 542.58378 45.798224 540.054653 51.987782 
C 537.525526 58.17734 536.224632 64.800251 536.224632 71.486588 
C 536.224632 78.172925 537.525526 84.795837 540.054653 90.985394 
C 542.58378 97.174952 546.293156 102.813729 550.975593 107.586767 
C 555.658029 112.359805 561.224692 116.176552 567.36465 118.823818 
C 573.504608 121.471085 580.101375 122.89865 586.786485 123.026774 
C 593.471594 123.154898 600.118217 121.981151 606.355102 119.571093 
C 612.591986 117.161036 618.300807 113.560391 623.162694 108.970275 
C 628.024581 104.38016 631.947295 98.887656 634.71173 92.799553 
C 637.476166 86.711449 639.029875 80.143248 639.286077 73.461821 
" style="fill:#c0c0c0;opacity:0.4;"/>
   </g>
   <g id="patch_9">
    <path clip-path="url(#p4d9283899a)" d="M 639.286077 69.511355 
C 639.311312 70.169464 639.323933 70.827996 639.323933 71.486588 
C 639.323933 72.145181 639.311312 72.803712 639.286077 73.461821 
C 639.317401 72.803876 639.33307 72.145279 639.33307 71.486588 
C 639.33307 70.827898 639.317401 70.169301 639.286077 69.511355 
" style="fill:#b2df8a;opacity:0.4;"/>
   </g>
   <g id="patch_10">
    <path clip-path="url(#p4d9283899a)" d="M 639.286077 73.461821 
C 639.311312 72.803712 639.323933 72.145181 639.323933 71.486588 
C 639.323933 70.827996 639.311312 70.169464 639.286077 69.511355 
C 639.030644 64.146203 637.736904 58.881187 635.476696 54.008656 
C 633.216487 49.136124 630.032432 44.747964 626.101331 41.087835 
C 622.170229 37.427706 617.566214 34.56463 612.544931 32.657585 
C 607.523648 30.750541 602.179788 29.83549 596.810078 29.963242 
C 591.440368 30.090995 586.14607 31.259142 581.221159 33.40282 
C 576.296248 35.546498 571.833598 38.625281 568.081004 42.468216 
C 564.328411 46.311151 561.356641 50.845766 559.330706 55.820271 
C 557.304772 60.794775 556.262878 66.115359 556.262878 71.486588 
C 556.262878 76.857818 557.304772 82.178402 559.330706 87.152906 
C 561.356641 92.12741 564.328411 96.662026 568.081004 100.50496 
C 571.833598 104.347895 576.296248 107.426679 581.221159 109.570357 
C 586.14607 111.714035 591.440368 112.882182 596.810078 113.009934 
C 602.179788 113.137687 607.523648 112.222636 612.544931 110.315591 
C 617.566214 108.408546 622.170229 105.545471 626.101331 101.885342 
C 630.032432 98.225212 633.216487 93.837052 635.476696 88.964521 
C 637.736904 84.09199 639.030644 78.826973 639.286077 73.461821 
" style="fill:#ffffe7;opacity:0.4;"/>
   </g>
   <g id="text_11">
    <!-- 395 -->
    <g style="fill:#262626;" transform="translate(536.700005 74.245963)scale(0.1 -0.1)">
     <use xlink:href="#DejaVuSans-33"/>
     <use x="63.623047" xlink:href="#DejaVuSans-39"/>
     <use x="127.246094" xlink:href="#DejaVuSans-35"/>
    </g>
   </g>
   <g id="text_12">
    <!-- 0 -->
    <g style="fill:#262626;" transform="translate(636.147251 74.245963)scale(0.1 -0.1)">
     <use xlink:href="#DejaVuSans-30"/>
    </g>
   </g>
   <g id="text_13">
    <!-- 731 -->
    <g style="fill:#262626;" transform="translate(588.249655 74.245963)scale(0.1 -0.1)">
     <defs>
      <path d="M 525 4666 
L 3525 4666 
L 3525 4397 
L 1831 0 
L 1172 0 
L 2766 4134 
L 525 4134 
L 525 4666 
z
" id="DejaVuSans-37" transform="scale(0.015625)"/>
     </defs>
     <use xlink:href="#DejaVuSans-37"/>
     <use x="63.623047" xlink:href="#DejaVuSans-33"/>
     <use x="127.246094" xlink:href="#DejaVuSans-31"/>
    </g>
   </g>
   <g id="text_14">
    <!-- Bioregistry -->
    <g style="fill:#262626;" transform="translate(522.874907 136.808601)scale(0.12 -0.12)">
     <use xlink:href="#DejaVuSans-42"/>
     <use x="68.603516" xlink:href="#DejaVuSans-69"/>
     <use x="96.386719" xlink:href="#DejaVuSans-6f"/>
     <use x="157.568359" xlink:href="#DejaVuSans-72"/>
     <use x="196.431641" xlink:href="#DejaVuSans-65"/>
     <use x="257.955078" xlink:href="#DejaVuSans-67"/>
     <use x="321.431641" xlink:href="#DejaVuSans-69"/>
     <use x="349.214844" xlink:href="#DejaVuSans-73"/>
     <use x="401.314453" xlink:href="#DejaVuSans-74"/>
     <use x="440.523438" xlink:href="#DejaVuSans-72"/>
     <use x="481.636719" xlink:href="#DejaVuSans-79"/>
    </g>
   </g>
   <g id="text_15">
    <!-- MIRIAM -->
    <g style="fill:#262626;" transform="translate(597.797974 126.794047)scale(0.12 -0.12)">
     <defs>
      <path d="M 628 4666 
L 1569 4666 
L 2759 1491 
L 3956 4666 
L 4897 4666 
L 4897 0 
L 4281 0 
L 4281 4097 
L 3078 897 
L 2444 897 
L 1241 4097 
L 1241 0 
L 628 0 
L 628 4666 
z
" id="DejaVuSans-4d" transform="scale(0.015625)"/>
      <path d="M 628 4666 
L 1259 4666 
L 1259 0 
L 628 0 
L 628 4666 
z
" id="DejaVuSans-49" transform="scale(0.015625)"/>
      <path d="M 2841 2188 
Q 3044 2119 3236 1894 
Q 3428 1669 3622 1275 
L 4263 0 
L 3584 0 
L 2988 1197 
Q 2756 1666 2539 1819 
Q 2322 1972 1947 1972 
L 1259 1972 
L 1259 0 
L 628 0 
L 628 4666 
L 2053 4666 
Q 2853 4666 3247 4331 
Q 3641 3997 3641 3322 
Q 3641 2881 3436 2590 
Q 3231 2300 2841 2188 
z
M 1259 4147 
L 1259 2491 
L 2053 2491 
Q 2509 2491 2742 2702 
Q 2975 2913 2975 3322 
Q 2975 3731 2742 3939 
Q 2509 4147 2053 4147 
L 1259 4147 
z
" id="DejaVuSans-52" transform="scale(0.015625)"/>
      <path d="M 2188 4044 
L 1331 1722 
L 3047 1722 
L 2188 4044 
z
M 1831 4666 
L 2547 4666 
L 4325 0 
L 3669 0 
L 3244 1197 
L 1141 1197 
L 716 0 
L 50 0 
L 1831 4666 
z
" id="DejaVuSans-41" transform="scale(0.015625)"/>
     </defs>
     <use xlink:href="#DejaVuSans-4d"/>
     <use x="86.279297" xlink:href="#DejaVuSans-49"/>
     <use x="115.771484" xlink:href="#DejaVuSans-52"/>
     <use x="185.253906" xlink:href="#DejaVuSans-49"/>
     <use x="214.746094" xlink:href="#DejaVuSans-41"/>
     <use x="283.154297" xlink:href="#DejaVuSans-4d"/>
    </g>
   </g>
  </g>
  <g id="axes_4">
   <g id="patch_11">
    <path clip-path="url(#p965fbd8961)" d="M 168.944839 224.178363 
C 167.74366 226.11725 166.236209 227.848757 164.481182 229.305464 
C 162.726155 230.762171 160.746628 231.924925 158.619677 232.748451 
C 156.492726 233.571978 154.246318 234.045448 151.96792 234.150428 
C 149.689523 234.255408 147.409094 233.990516 145.215426 233.366067 
C 143.021758 232.741618 140.943695 231.765823 139.062149 230.476675 
C 137.180604 229.187527 135.520316 227.601977 134.145932 225.781762 
C 132.771548 223.961546 131.701139 221.930599 130.976383 219.767997 
C 130.251627 217.605396 129.882055 215.339576 129.882055 213.058762 
C 129.882055 210.777947 130.251627 208.512127 130.976383 206.349526 
C 131.701139 204.186924 132.771548 202.155977 134.145932 200.335761 
C 135.520316 198.515546 137.180604 196.929996 139.062149 195.640848 
C 140.943695 194.3517 143.021758 193.375905 145.215426 192.751456 
C 147.409094 192.127007 149.689523 191.862115 151.96792 191.967095 
C 154.246318 192.072075 156.492726 192.545545 158.619677 193.369072 
C 160.746628 194.192598 162.726155 195.355352 164.481182 196.812059 
C 166.236209 198.268766 167.74366 200.000273 168.944839 201.93916 
C 167.586286 195.791004 165.112426 189.943553 161.646083 184.687132 
C 158.17974 179.430711 153.779248 174.853776 148.66309 171.18357 
C 143.546931 167.513364 137.801201 164.81165 131.711174 163.212567 
C 125.621147 161.613485 119.289308 161.143943 113.030028 161.827255 
C 106.770749 162.510567 100.689363 164.335234 95.087809 167.210661 
C 89.486254 170.086088 84.458796 173.963887 80.255045 178.651528 
C 76.051294 183.339168 72.741993 188.757764 70.491446 194.638286 
C 68.240899 200.518807 67.08698 206.762295 67.08698 213.058762 
C 67.08698 219.355228 68.240899 225.598716 70.491446 231.479237 
C 72.741993 237.359759 76.051294 242.778355 80.255045 247.465995 
C 84.458796 252.153636 89.486254 256.031435 95.087809 258.906862 
C 100.689363 261.782289 106.770749 263.606956 113.030028 264.290268 
C 119.289308 264.97358 125.621147 264.504038 131.711174 262.904956 
C 137.801201 261.305873 143.546931 258.604159 148.66309 254.933953 
C 153.779248 251.263747 158.17974 246.686812 161.646083 241.430391 
C 165.112426 236.17397 167.586286 230.32652 168.944839 224.178363 
" style="fill:#c0c0c0;opacity:0.4;"/>
   </g>
   <g id="patch_12">
    <path clip-path="url(#p965fbd8961)" d="M 168.944839 201.93916 
C 169.751709 205.590666 170.158742 209.319172 170.158742 213.058762 
C 170.158742 216.798351 169.751709 220.526857 168.944839 224.178363 
C 171.013747 220.838828 172.110142 216.987232 172.110142 213.058762 
C 172.110142 209.130291 171.013747 205.278695 168.944839 201.93916 
" style="fill:#33a02c;opacity:0.4;"/>
   </g>
   <g id="patch_13">
    <path clip-path="url(#p965fbd8961)" d="M 168.944839 224.178363 
C 169.751709 220.526857 170.158742 216.798351 170.158742 213.058762 
C 170.158742 209.319172 169.751709 205.590666 168.944839 201.93916 
C 167.74366 200.000273 166.236209 198.268766 164.481182 196.812059 
C 162.726155 195.355352 160.746628 194.192598 158.619677 193.369072 
C 156.492726 192.545545 154.246318 192.072075 151.96792 191.967095 
C 149.689523 191.862115 147.409094 192.127007 145.215426 192.751456 
C 143.021758 193.375905 140.943695 194.3517 139.062149 195.640848 
C 137.180604 196.929996 135.520316 198.515546 134.145932 200.335761 
C 132.771548 202.155977 131.701139 204.186924 130.976383 206.349526 
C 130.251627 208.512127 129.882055 210.777947 129.882055 213.058762 
C 129.882055 215.339576 130.251627 217.605396 130.976383 219.767997 
C 131.701139 221.930599 132.771548 223.961546 134.145932 225.781762 
C 135.520316 227.601977 137.180604 229.187527 139.062149 230.476675 
C 140.943695 231.765823 143.021758 232.741618 145.215426 233.366067 
C 147.409094 233.990516 149.689523 234.255408 151.96792 234.150428 
C 154.246318 234.045448 156.492726 233.571978 158.619677 232.748451 
C 160.746628 231.924925 162.726155 230.762171 164.481182 229.305464 
C 166.236209 227.848757 167.74366 226.11725 168.944839 224.178363 
" style="fill:#aaf6a5;opacity:0.4;"/>
   </g>
   <g id="text_16">
    <!-- 941 -->
    <g style="fill:#262626;" transform="translate(88.940767 215.818137)scale(0.1 -0.1)">
     <use xlink:href="#DejaVuSans-39"/>
     <use x="63.623047" xlink:href="#DejaVuSans-34"/>
     <use x="127.246094" xlink:href="#DejaVuSans-31"/>
    </g>
   </g>
   <g id="text_17">
    <!-- 4 -->
    <g style="fill:#262626;" transform="translate(167.953192 215.818137)scale(0.1 -0.1)">
     <use xlink:href="#DejaVuSans-34"/>
    </g>
   </g>
   <g id="text_18">
    <!-- 185 -->
    <g style="fill:#262626;" transform="translate(140.476648 215.818137)scale(0.1 -0.1)">
     <use xlink:href="#DejaVuSans-31"/>
     <use x="63.623047" xlink:href="#DejaVuSans-38"/>
     <use x="127.246094" xlink:href="#DejaVuSans-35"/>
    </g>
   </g>
   <g id="text_19">
    <!-- Bioregistry -->
    <g style="fill:#262626;" transform="translate(53.723486 277.345264)scale(0.12 -0.12)">
     <use xlink:href="#DejaVuSans-42"/>
     <use x="68.603516" xlink:href="#DejaVuSans-69"/>
     <use x="96.386719" xlink:href="#DejaVuSans-6f"/>
     <use x="157.568359" xlink:href="#DejaVuSans-72"/>
     <use x="196.431641" xlink:href="#DejaVuSans-65"/>
     <use x="257.955078" xlink:href="#DejaVuSans-67"/>
     <use x="321.431641" xlink:href="#DejaVuSans-69"/>
     <use x="349.214844" xlink:href="#DejaVuSans-73"/>
     <use x="401.314453" xlink:href="#DejaVuSans-74"/>
     <use x="440.523438" xlink:href="#DejaVuSans-72"/>
     <use x="481.636719" xlink:href="#DejaVuSans-79"/>
    </g>
   </g>
   <g id="text_20">
    <!-- Wikidata -->
    <g style="fill:#262626;" transform="translate(150.996098 246.923426)scale(0.12 -0.12)">
     <defs>
      <path d="M 213 4666 
L 850 4666 
L 1831 722 
L 2809 4666 
L 3519 4666 
L 4500 722 
L 5478 4666 
L 6119 4666 
L 4947 0 
L 4153 0 
L 3169 4050 
L 2175 0 
L 1381 0 
L 213 4666 
z
" id="DejaVuSans-57" transform="scale(0.015625)"/>
      <path d="M 581 4863 
L 1159 4863 
L 1159 1991 
L 2875 3500 
L 3609 3500 
L 1753 1863 
L 3688 0 
L 2938 0 
L 1159 1709 
L 1159 0 
L 581 0 
L 581 4863 
z
" id="DejaVuSans-6b" transform="scale(0.015625)"/>
      <path d="M 2906 2969 
L 2906 4863 
L 3481 4863 
L 3481 0 
L 2906 0 
L 2906 525 
Q 2725 213 2448 61 
Q 2172 -91 1784 -91 
Q 1150 -91 751 415 
Q 353 922 353 1747 
Q 353 2572 751 3078 
Q 1150 3584 1784 3584 
Q 2172 3584 2448 3432 
Q 2725 3281 2906 2969 
z
M 947 1747 
Q 947 1113 1208 752 
Q 1469 391 1925 391 
Q 2381 391 2643 752 
Q 2906 1113 2906 1747 
Q 2906 2381 2643 2742 
Q 2381 3103 1925 3103 
Q 1469 3103 1208 2742 
Q 947 2381 947 1747 
z
" id="DejaVuSans-64" transform="scale(0.015625)"/>
      <path d="M 2194 1759 
Q 1497 1759 1228 1600 
Q 959 1441 959 1056 
Q 959 750 1161 570 
Q 1363 391 1709 391 
Q 2188 391 2477 730 
Q 2766 1069 2766 1631 
L 2766 1759 
L 2194 1759 
z
M 3341 1997 
L 3341 0 
L 2766 0 
L 2766 531 
Q 2569 213 2275 61 
Q 1981 -91 1556 -91 
Q 1019 -91 701 211 
Q 384 513 384 1019 
Q 384 1609 779 1909 
Q 1175 2209 1959 2209 
L 2766 2209 
L 2766 2266 
Q 2766 2663 2505 2880 
Q 2244 3097 1772 3097 
Q 1472 3097 1187 3025 
Q 903 2953 641 2809 
L 641 3341 
Q 956 3463 1253 3523 
Q 1550 3584 1831 3584 
Q 2591 3584 2966 3190 
Q 3341 2797 3341 1997 
z
" id="DejaVuSans-61" transform="scale(0.015625)"/>
     </defs>
     <use xlink:href="#DejaVuSans-57"/>
     <use x="96.626953" xlink:href="#DejaVuSans-69"/>
     <use x="124.410156" xlink:href="#DejaVuSans-6b"/>
     <use x="182.320312" xlink:href="#DejaVuSans-69"/>
     <use x="210.103516" xlink:href="#DejaVuSans-64"/>
     <use x="273.580078" xlink:href="#DejaVuSans-61"/>
     <use x="334.859375" xlink:href="#DejaVuSans-74"/>
     <use x="374.068359" xlink:href="#DejaVuSans-61"/>
    </g>
   </g>
  </g>
  <g id="axes_5">
   <g id="patch_14">
    <path clip-path="url(#p8c510415c3)" d="M 401.785707 230.30193 
C 399.844794 234.356321 397.233187 238.054057 394.061186 241.238966 
C 390.889186 244.423875 387.202087 247.050478 383.155612 249.007842 
C 379.109137 250.965205 374.761068 252.225379 370.295044 252.73514 
C 365.829019 253.244901 361.308812 252.996971 356.925331 252.00182 
C 352.54185 251.006669 348.357689 249.278508 344.549565 246.890325 
C 340.74144 244.502142 337.36373 241.488039 334.559091 237.975315 
C 331.754451 234.462591 329.562931 230.501407 328.077088 226.25906 
C 326.591246 222.016714 325.832297 217.553784 325.832297 213.058762 
C 325.832297 208.563739 326.591246 204.100809 328.077088 199.858463 
C 329.562931 195.616116 331.754451 191.654932 334.559091 188.142208 
C 337.36373 184.629484 340.74144 181.615381 344.549565 179.227198 
C 348.357689 176.839015 352.54185 175.110854 356.925331 174.115703 
C 361.308812 173.120552 365.829019 172.872622 370.295044 173.382383 
C 374.761068 173.892144 379.109137 175.152318 383.155612 177.109681 
C 387.202087 179.067045 390.889186 181.693648 394.061186 184.878557 
C 397.233187 188.063466 399.844794 191.761202 401.785707 195.815593 
C 399.768558 190.133836 396.769966 184.849858 392.926587 180.204463 
C 389.083209 175.559069 384.454327 171.623915 379.250895 168.578337 
C 374.047463 165.53276 368.349743 163.423738 362.417399 162.347385 
C 356.485054 161.271032 350.409591 161.243952 344.467887 162.267379 
C 338.526183 163.290806 332.809889 165.348952 327.579514 168.348024 
C 322.349139 171.347095 317.685362 175.240829 313.800725 179.851777 
C 309.916089 184.462726 306.870513 189.719764 304.802795 195.383313 
C 302.735076 201.046863 301.677109 207.029562 301.677109 213.058762 
C 301.677109 219.087961 302.735076 225.07066 304.802795 230.73421 
C 306.870513 236.397759 309.916089 241.654797 313.800725 246.265746 
C 317.685362 250.876694 322.349139 254.770428 327.579514 257.7695 
C 332.809889 260.768571 338.526183 262.826717 344.467887 263.850144 
C 350.409591 264.873571 356.485054 264.846491 362.417399 263.770138 
C 368.349743 262.693786 374.047463 260.584763 379.250895 257.539186 
C 384.454327 254.493608 389.083209 250.558454 392.926587 245.91306 
C 396.769966 241.267665 399.768558 235.983687 401.785707 230.30193 
" style="fill:#c0c0c0;opacity:0.4;"/>
   </g>
   <g id="patch_15">
    <path clip-path="url(#p8c510415c3)" d="M 401.785707 195.815593 
C 403.751237 201.351954 404.75575 207.183849 404.75575 213.058762 
C 404.75575 218.933674 403.751237 224.765569 401.785707 230.30193 
C 404.36255 224.91914 405.700302 219.026554 405.700302 213.058762 
C 405.700302 207.090969 404.36255 201.198383 401.785707 195.815593 
" style="fill:#fb9a99;opacity:0.4;"/>
   </g>
   <g id="patch_16">
    <path clip-path="url(#p8c510415c3)" d="M 401.785707 230.30193 
C 403.751237 224.765569 404.75575 218.933674 404.75575 213.058762 
C 404.75575 207.183849 403.751237 201.351954 401.785707 195.815593 
C 399.844794 191.761202 397.233187 188.063466 394.061186 184.878557 
C 390.889186 181.693648 387.202087 179.067045 383.155612 177.109681 
C 379.109137 175.152318 374.761068 173.892144 370.295044 173.382383 
C 365.829019 172.872622 361.308812 173.120552 356.925331 174.115703 
C 352.54185 175.110854 348.357689 176.839015 344.549565 179.227198 
C 340.74144 181.615381 337.36373 184.629484 334.559091 188.142208 
C 331.754451 191.654932 329.562931 195.616116 328.077088 199.858463 
C 326.591246 204.100809 325.832297 208.563739 325.832297 213.058762 
C 325.832297 217.553784 326.591246 222.016714 328.077088 226.25906 
C 329.562931 230.501407 331.754451 234.462591 334.559091 237.975315 
C 337.36373 241.488039 340.74144 244.502142 344.549565 246.890325 
C 348.357689 249.278508 352.54185 251.006669 356.925331 252.00182 
C 361.308812 252.996971 365.829019 253.244901 370.295044 252.73514 
C 374.761068 252.225379 379.109137 250.965205 383.155612 249.007842 
C 387.202087 247.050478 390.889186 244.423875 394.061186 241.238966 
C 397.233187 238.054057 399.844794 234.356321 401.785707 230.30193 
" style="fill:#fff2f2;opacity:0.4;"/>
   </g>
   <g id="text_21">
    <!-- 453 -->
    <g style="fill:#262626;" transform="translate(304.210953 215.818137)scale(0.1 -0.1)">
     <use xlink:href="#DejaVuSans-34"/>
     <use x="63.623047" xlink:href="#DejaVuSans-35"/>
     <use x="127.246094" xlink:href="#DejaVuSans-33"/>
    </g>
   </g>
   <g id="text_22">
    <!-- 3 -->
    <g style="fill:#262626;" transform="translate(402.046776 215.818137)scale(0.1 -0.1)">
     <use xlink:href="#DejaVuSans-33"/>
    </g>
   </g>
   <g id="text_23">
    <!-- 673 -->
    <g style="fill:#262626;" transform="translate(355.750274 215.818137)scale(0.1 -0.1)">
     <use xlink:href="#DejaVuSans-36"/>
     <use x="63.623047" xlink:href="#DejaVuSans-37"/>
     <use x="127.246094" xlink:href="#DejaVuSans-33"/>
    </g>
   </g>
   <g id="text_24">
    <!-- Bioregistry -->
    <g style="fill:#262626;" transform="translate(288.317055 278.289873)scale(0.12 -0.12)">
     <use xlink:href="#DejaVuSans-42"/>
     <use x="68.603516" xlink:href="#DejaVuSans-69"/>
     <use x="96.386719" xlink:href="#DejaVuSans-6f"/>
     <use x="157.568359" xlink:href="#DejaVuSans-72"/>
     <use x="196.431641" xlink:href="#DejaVuSans-65"/>
     <use x="257.955078" xlink:href="#DejaVuSans-67"/>
     <use x="321.431641" xlink:href="#DejaVuSans-69"/>
     <use x="349.214844" xlink:href="#DejaVuSans-73"/>
     <use x="401.314453" xlink:href="#DejaVuSans-74"/>
     <use x="440.523438" xlink:href="#DejaVuSans-72"/>
     <use x="481.636719" xlink:href="#DejaVuSans-79"/>
    </g>
   </g>
   <g id="text_25">
    <!-- N2T -->
    <g style="fill:#262626;" transform="translate(365.7663 266.684555)scale(0.12 -0.12)">
     <defs>
      <path d="M 628 4666 
L 1478 4666 
L 3547 763 
L 3547 4666 
L 4159 4666 
L 4159 0 
L 3309 0 
L 1241 3903 
L 1241 0 
L 628 0 
L 628 4666 
z
" id="DejaVuSans-4e" transform="scale(0.015625)"/>
      <path d="M -19 4666 
L 3928 4666 
L 3928 4134 
L 2272 4134 
L 2272 0 
L 1638 0 
L 1638 4134 
L -19 4134 
L -19 4666 
z
" id="DejaVuSans-54" transform="scale(0.015625)"/>
     </defs>
     <use xlink:href="#DejaVuSans-4e"/>
     <use x="74.804688" xlink:href="#DejaVuSans-32"/>
     <use x="138.427734" xlink:href="#DejaVuSans-54"/>
    </g>
   </g>
  </g>
  <g id="axes_6">
   <g id="patch_17">
    <path clip-path="url(#p910214e21b)" d="M 622.077403 237.346033 
C 616.165739 236.597908 610.725904 233.716525 606.785757 229.246324 
C 602.84561 224.776122 600.669995 219.017575 600.669995 213.058762 
C 600.669995 207.099948 602.84561 201.341401 606.785757 196.871199 
C 610.725904 192.400998 616.165739 189.519615 622.077403 188.77149 
C 619.392872 183.7966 615.901993 179.30105 611.746996 175.468005 
C 607.592 171.63496 602.830093 168.517195 597.655295 166.24174 
C 592.480498 163.966285 586.964056 162.564468 581.330733 162.093406 
C 575.69741 161.622344 570.024766 162.088521 564.543927 163.472945 
C 559.063088 164.857369 553.849515 167.140977 549.115629 170.230728 
C 544.381744 173.320478 540.192724 177.17383 536.719245 181.633783 
C 533.245767 186.093735 530.535654 191.098883 528.699328 196.445296 
C 526.863002 201.791709 525.925745 207.405777 525.925745 213.058762 
C 525.925745 218.711746 526.863002 224.325814 528.699328 229.672227 
C 530.535654 235.01864 533.245767 240.023788 536.719245 244.48374 
C 540.192724 248.943693 544.381744 252.797045 549.115629 255.886795 
C 553.849515 258.976546 559.063088 261.260154 564.543927 262.644578 
C 570.024766 264.029002 575.69741 264.495179 581.330733 264.024117 
C 586.964056 263.553055 592.480498 262.151238 597.655295 259.875783 
C 602.830093 257.600328 607.592 254.482563 611.746996 250.649518 
C 615.901993 246.816473 619.392872 242.320923 622.077403 237.346033 
" style="fill:#c0c0c0;opacity:0.4;"/>
   </g>
   <g id="patch_18">
    <path clip-path="url(#p910214e21b)" d="M 622.077403 188.77149 
C 626.103798 196.233082 628.212207 204.580128 628.212207 213.058762 
C 628.212207 221.537395 626.103798 229.884441 622.077403 237.346033 
C 625.524196 237.782228 629.024684 237.479725 632.345547 236.458688 
C 635.66641 235.437652 638.732189 233.721281 641.338538 231.42398 
C 643.944887 229.126679 646.032583 226.300648 647.462473 223.134252 
C 648.892363 219.967856 649.631957 216.533045 649.631957 213.058762 
C 649.631957 209.584478 648.892363 206.149667 647.462473 202.983271 
C 646.032583 199.816875 643.944887 196.990844 641.338538 194.693543 
C 638.732189 192.396242 635.66641 190.679872 632.345547 189.658835 
C 629.024684 188.637798 625.524196 188.335295 622.077403 188.77149 
" style="fill:#e31a1c;opacity:0.4;"/>
   </g>
   <g id="patch_19">
    <path clip-path="url(#p910214e21b)" d="M 622.077403 237.346033 
C 626.103798 229.884441 628.212207 221.537395 628.212207 213.058762 
C 628.212207 204.580128 626.103798 196.233082 622.077403 188.77149 
C 616.165739 189.519615 610.725904 192.400998 606.785757 196.871199 
C 602.84561 201.341401 600.669995 207.099948 600.669995 213.058762 
C 600.669995 219.017575 602.84561 224.776122 606.785757 229.246324 
C 610.725904 233.716525 616.165739 236.597908 622.077403 237.346033 
" style="fill:#ff999a;opacity:0.4;"/>
   </g>
   <g id="text_26">
    <!-- 990 -->
    <g style="fill:#262626;" transform="translate(553.75412 215.818137)scale(0.1 -0.1)">
     <use xlink:href="#DejaVuSans-39"/>
     <use x="63.623047" xlink:href="#DejaVuSans-39"/>
     <use x="127.246094" xlink:href="#DejaVuSans-30"/>
    </g>
   </g>
   <g id="text_27">
    <!-- 122 -->
    <g style="fill:#262626;" transform="translate(629.378332 215.818137)scale(0.1 -0.1)">
     <use xlink:href="#DejaVuSans-31"/>
     <use x="63.623047" xlink:href="#DejaVuSans-32"/>
     <use x="127.246094" xlink:href="#DejaVuSans-32"/>
    </g>
   </g>
   <g id="text_28">
    <!-- 136 -->
    <g style="fill:#262626;" transform="translate(604.897351 215.818137)scale(0.1 -0.1)">
     <use xlink:href="#DejaVuSans-31"/>
     <use x="63.623047" xlink:href="#DejaVuSans-33"/>
     <use x="127.246094" xlink:href="#DejaVuSans-36"/>
    </g>
   </g>
   <g id="text_29">
    <!-- Bioregistry -->
    <g style="fill:#262626;" transform="translate(512.169601 277.101328)scale(0.12 -0.12)">
     <use xlink:href="#DejaVuSans-42"/>
     <use x="68.603516" xlink:href="#DejaVuSans-69"/>
     <use x="96.386719" xlink:href="#DejaVuSans-6f"/>
     <use x="157.568359" xlink:href="#DejaVuSans-72"/>
     <use x="196.431641" xlink:href="#DejaVuSans-65"/>
     <use x="257.955078" xlink:href="#DejaVuSans-67"/>
     <use x="321.431641" xlink:href="#DejaVuSans-69"/>
     <use x="349.214844" xlink:href="#DejaVuSans-73"/>
     <use x="401.314453" xlink:href="#DejaVuSans-74"/>
     <use x="440.523438" xlink:href="#DejaVuSans-72"/>
     <use x="481.636719" xlink:href="#DejaVuSans-79"/>
    </g>
   </g>
   <g id="text_30">
    <!-- GO -->
    <g style="fill:#262626;" transform="translate(625.150976 250.439078)scale(0.12 -0.12)">
     <defs>
      <path d="M 3809 666 
L 3809 1919 
L 2778 1919 
L 2778 2438 
L 4434 2438 
L 4434 434 
Q 4069 175 3628 42 
Q 3188 -91 2688 -91 
Q 1594 -91 976 548 
Q 359 1188 359 2328 
Q 359 3472 976 4111 
Q 1594 4750 2688 4750 
Q 3144 4750 3555 4637 
Q 3966 4525 4313 4306 
L 4313 3634 
Q 3963 3931 3569 4081 
Q 3175 4231 2741 4231 
Q 1884 4231 1454 3753 
Q 1025 3275 1025 2328 
Q 1025 1384 1454 906 
Q 1884 428 2741 428 
Q 3075 428 3337 486 
Q 3600 544 3809 666 
z
" id="DejaVuSans-47" transform="scale(0.015625)"/>
     </defs>
     <use xlink:href="#DejaVuSans-47"/>
     <use x="77.490234" xlink:href="#DejaVuSans-4f"/>
    </g>
   </g>
  </g>
  <g id="axes_7">
   <g id="patch_20">
    <path clip-path="url(#pfeb88d8f03)" d="M 127.114662 391.455533 
C 121.001328 387.452329 115.980008 381.989094 112.505431 375.560579 
C 109.030853 369.132064 107.21117 361.938362 107.21117 354.630935 
C 107.21117 347.323507 109.030853 340.129806 112.505431 333.701291 
C 115.980008 327.272775 121.001328 321.809541 127.114662 317.806337 
C 119.983638 311.332896 111.123476 307.068099 101.615643 305.532502 
C 92.10781 303.996906 82.355552 305.255638 73.549221 309.15506 
C 64.742891 313.054481 57.255982 319.429209 52.002343 327.501149 
C 46.748703 335.573089 43.951149 344.999894 43.951149 354.630935 
C 43.951149 364.261976 46.748703 373.68878 52.002343 381.76072 
C 57.255982 389.83266 64.742891 396.207388 73.549221 400.10681 
C 82.355552 404.006231 92.10781 405.264964 101.615643 403.729367 
C 111.123476 402.193771 119.983638 397.928973 127.114662 391.455533 
" style="fill:#c0c0c0;opacity:0.4;"/>
   </g>
   <g id="patch_21">
    <path clip-path="url(#pfeb88d8f03)" d="M 127.114662 317.806337 
C 132.249869 322.468004 136.353642 328.152698 139.161701 334.49433 
C 141.96976 340.835961 143.420503 347.695411 143.420503 354.630935 
C 143.420503 361.566458 141.96976 368.425908 139.161701 374.76754 
C 136.353642 381.109171 132.249869 386.793866 127.114662 391.455533 
C 133.753604 395.802921 141.446265 398.275103 149.374925 398.609289 
C 157.303586 398.943474 165.176993 397.127387 172.158215 393.354075 
C 179.139437 389.580763 184.972023 383.988836 189.035978 377.172708 
C 193.099934 370.356579 195.245972 362.566635 195.245972 354.630935 
C 195.245972 346.695234 193.099934 338.90529 189.035978 332.089162 
C 184.972023 325.273033 179.139437 319.681107 172.158215 315.907795 
C 165.176993 312.134483 157.303586 310.318396 149.374925 310.652581 
C 141.446265 310.986767 133.753604 313.458948 127.114662 317.806337 
" style="fill:#fdbf6f;opacity:0.4;"/>
   </g>
   <g id="patch_22">
    <path clip-path="url(#pfeb88d8f03)" d="M 127.114662 391.455533 
C 132.249869 386.793866 136.353642 381.109171 139.161701 374.76754 
C 141.96976 368.425908 143.420503 361.566458 143.420503 354.630935 
C 143.420503 347.695411 141.96976 340.835961 139.161701 334.49433 
C 136.353642 328.152698 132.249869 322.468004 127.114662 317.806337 
C 121.001328 321.809541 115.980008 327.272775 112.505431 333.701291 
C 109.030853 340.129806 107.21117 347.323507 107.21117 354.630935 
C 107.21117 361.938362 109.030853 369.132064 112.505431 375.560579 
C 115.980008 381.989094 121.001328 387.452329 127.114662 391.455533 
" style="fill:#ffffd4;opacity:0.4;"/>
   </g>
   <g id="text_31">
    <!-- 856 -->
    <g style="fill:#262626;" transform="translate(66.03741 357.39031)scale(0.1 -0.1)">
     <use xlink:href="#DejaVuSans-38"/>
     <use x="63.623047" xlink:href="#DejaVuSans-35"/>
     <use x="127.246094" xlink:href="#DejaVuSans-36"/>
    </g>
   </g>
   <g id="text_32">
    <!-- 612 -->
    <g style="fill:#262626;" transform="translate(159.789487 357.39031)scale(0.1 -0.1)">
     <use xlink:href="#DejaVuSans-36"/>
     <use x="63.623047" xlink:href="#DejaVuSans-31"/>
     <use x="127.246094" xlink:href="#DejaVuSans-32"/>
    </g>
   </g>
   <g id="text_33">
    <!-- 270 -->
    <g style="fill:#262626;" transform="translate(115.772086 357.39031)scale(0.1 -0.1)">
     <use xlink:href="#DejaVuSans-32"/>
     <use x="63.623047" xlink:href="#DejaVuSans-37"/>
     <use x="127.246094" xlink:href="#DejaVuSans-30"/>
    </g>
   </g>
   <g id="text_34">
    <!-- Bioregistry -->
    <g style="fill:#262626;" transform="translate(28.786451 418.17134)scale(0.12 -0.12)">
     <use xlink:href="#DejaVuSans-42"/>
     <use x="68.603516" xlink:href="#DejaVuSans-69"/>
     <use x="96.386719" xlink:href="#DejaVuSans-6f"/>
     <use x="157.568359" xlink:href="#DejaVuSans-72"/>
     <use x="196.431641" xlink:href="#DejaVuSans-65"/>
     <use x="257.955078" xlink:href="#DejaVuSans-67"/>
     <use x="321.431641" xlink:href="#DejaVuSans-69"/>
     <use x="349.214844" xlink:href="#DejaVuSans-73"/>
     <use x="401.314453" xlink:href="#DejaVuSans-74"/>
     <use x="440.523438" xlink:href="#DejaVuSans-72"/>
     <use x="481.636719" xlink:href="#DejaVuSans-79"/>
    </g>
   </g>
   <g id="text_35">
    <!-- BioPortal -->
    <g style="fill:#262626;" transform="translate(151.228571 412.454065)scale(0.12 -0.12)">
     <defs>
      <path d="M 1259 4147 
L 1259 2394 
L 2053 2394 
Q 2494 2394 2734 2622 
Q 2975 2850 2975 3272 
Q 2975 3691 2734 3919 
Q 2494 4147 2053 4147 
L 1259 4147 
z
M 628 4666 
L 2053 4666 
Q 2838 4666 3239 4311 
Q 3641 3956 3641 3272 
Q 3641 2581 3239 2228 
Q 2838 1875 2053 1875 
L 1259 1875 
L 1259 0 
L 628 0 
L 628 4666 
z
" id="DejaVuSans-50" transform="scale(0.015625)"/>
      <path d="M 603 4863 
L 1178 4863 
L 1178 0 
L 603 0 
L 603 4863 
z
" id="DejaVuSans-6c" transform="scale(0.015625)"/>
     </defs>
     <use xlink:href="#DejaVuSans-42"/>
     <use x="68.603516" xlink:href="#DejaVuSans-69"/>
     <use x="96.386719" xlink:href="#DejaVuSans-6f"/>
     <use x="157.568359" xlink:href="#DejaVuSans-50"/>
     <use x="214.246094" xlink:href="#DejaVuSans-6f"/>
     <use x="275.427734" xlink:href="#DejaVuSans-72"/>
     <use x="316.541016" xlink:href="#DejaVuSans-74"/>
     <use x="355.75" xlink:href="#DejaVuSans-61"/>
     <use x="417.029297" xlink:href="#DejaVuSans-6c"/>
    </g>
   </g>
  </g>
  <g id="axes_8">
   <g id="patch_23">
    <path clip-path="url(#p7b311c6947)" d="M 367.309155 401.501642 
C 360.907613 401.902237 354.491349 400.987146 348.457026 398.812942 
C 342.422703 396.638737 336.897289 393.251165 332.222374 388.859652 
C 327.547459 384.468139 323.821407 379.165086 321.274568 373.278335 
C 318.72773 367.391584 317.413693 361.044999 317.413693 354.630935 
C 317.413693 348.216871 318.72773 341.870285 321.274568 335.983535 
C 323.821407 330.096784 327.547459 324.79373 332.222374 320.402217 
C 336.897289 316.010704 342.422703 312.623133 348.457026 310.448928 
C 354.491349 308.274723 360.907613 307.359632 367.309155 307.760228 
C 359.543655 304.409715 351.065859 303.041009 342.640517 303.777575 
C 334.215174 304.514142 326.103479 307.333147 319.037157 311.980299 
C 311.970835 316.62745 306.168949 322.958683 302.154864 330.402879 
C 298.14078 337.847075 296.038938 346.173457 296.038938 354.630935 
C 296.038938 363.088412 298.14078 371.414795 302.154864 378.858991 
C 306.168949 386.303187 311.970835 392.634419 319.037157 397.281571 
C 326.103479 401.928723 334.215174 404.747728 342.640517 405.484294 
C 351.065859 406.220861 359.543655 404.852155 367.309155 401.501642 
" style="fill:#c0c0c0;opacity:0.4;"/>
   </g>
   <g id="patch_24">
    <path clip-path="url(#p7b311c6947)" d="M 367.309155 307.760228 
C 376.461481 311.709102 384.259816 318.253551 389.736893 326.581834 
C 395.213971 334.910118 398.133577 344.663052 398.133577 354.630935 
C 398.133577 364.598817 395.213971 374.351752 389.736893 382.680035 
C 384.259816 391.008318 376.461481 397.552767 367.309155 401.501642 
C 379.229413 400.755697 390.427401 395.489764 398.6048 386.784644 
C 406.7822 378.079524 411.338473 366.57451 411.338473 354.630935 
C 411.338473 342.68736 406.7822 331.182346 398.6048 322.477226 
C 390.427401 313.772105 379.229413 308.506173 367.309155 307.760228 
" style="fill:#ff7f00;opacity:0.4;"/>
   </g>
   <g id="patch_25">
    <path clip-path="url(#p7b311c6947)" d="M 367.309155 401.501642 
C 376.461481 397.552767 384.259816 391.008318 389.736893 382.680035 
C 395.213971 374.351752 398.133577 364.598817 398.133577 354.630935 
C 398.133577 344.663052 395.213971 334.910118 389.736893 326.581834 
C 384.259816 318.253551 376.461481 311.709102 367.309155 307.760228 
C 360.907613 307.359632 354.491349 308.274723 348.457026 310.448928 
C 342.422703 312.623133 336.897289 316.010704 332.222374 320.402217 
C 327.547459 324.79373 323.821407 330.096784 321.274568 335.983535 
C 318.72773 341.870285 317.413693 348.216871 317.413693 354.630935 
C 317.413693 361.044999 318.72773 367.391584 321.274568 373.278335 
C 323.821407 379.165086 327.547459 384.468139 332.222374 388.859652 
C 336.897289 393.251165 342.422703 396.638737 348.457026 398.812942 
C 354.491349 400.987146 360.907613 401.902237 367.309155 401.501642 
" style="fill:#ffdf86;opacity:0.4;"/>
   </g>
   <g id="text_36">
    <!-- 325 -->
    <g style="fill:#262626;" transform="translate(297.182565 357.39031)scale(0.1 -0.1)">
     <use xlink:href="#DejaVuSans-33"/>
     <use x="63.623047" xlink:href="#DejaVuSans-32"/>
     <use x="127.246094" xlink:href="#DejaVuSans-35"/>
    </g>
   </g>
   <g id="text_37">
    <!-- 152 -->
    <g style="fill:#262626;" transform="translate(395.192275 357.39031)scale(0.1 -0.1)">
     <use xlink:href="#DejaVuSans-31"/>
     <use x="63.623047" xlink:href="#DejaVuSans-35"/>
     <use x="127.246094" xlink:href="#DejaVuSans-32"/>
    </g>
   </g>
   <g id="text_38">
    <!-- 801 -->
    <g style="fill:#262626;" transform="translate(348.229885 357.39031)scale(0.1 -0.1)">
     <use xlink:href="#DejaVuSans-38"/>
     <use x="63.623047" xlink:href="#DejaVuSans-30"/>
     <use x="127.246094" xlink:href="#DejaVuSans-31"/>
    </g>
   </g>
   <g id="text_39">
    <!-- Bioregistry -->
    <g style="fill:#262626;" transform="translate(282.186882 419.696864)scale(0.12 -0.12)">
     <use xlink:href="#DejaVuSans-42"/>
     <use x="68.603516" xlink:href="#DejaVuSans-69"/>
     <use x="96.386719" xlink:href="#DejaVuSans-6f"/>
     <use x="157.568359" xlink:href="#DejaVuSans-72"/>
     <use x="196.431641" xlink:href="#DejaVuSans-65"/>
     <use x="257.955078" xlink:href="#DejaVuSans-67"/>
     <use x="321.431641" xlink:href="#DejaVuSans-69"/>
     <use x="349.214844" xlink:href="#DejaVuSans-73"/>
     <use x="401.314453" xlink:href="#DejaVuSans-74"/>
     <use x="440.523438" xlink:href="#DejaVuSans-72"/>
     <use x="481.636719" xlink:href="#DejaVuSans-79"/>
    </g>
   </g>
   <g id="text_40">
    <!-- Prefix Commons -->
    <g style="fill:#262626;" transform="translate(364.376083 415.611936)scale(0.12 -0.12)">
     <defs>
      <path d="M 2375 4863 
L 2375 4384 
L 1825 4384 
Q 1516 4384 1395 4259 
Q 1275 4134 1275 3809 
L 1275 3500 
L 2222 3500 
L 2222 3053 
L 1275 3053 
L 1275 0 
L 697 0 
L 697 3053 
L 147 3053 
L 147 3500 
L 697 3500 
L 697 3744 
Q 697 4328 969 4595 
Q 1241 4863 1831 4863 
L 2375 4863 
z
" id="DejaVuSans-66" transform="scale(0.015625)"/>
      <path d="M 3513 3500 
L 2247 1797 
L 3578 0 
L 2900 0 
L 1881 1375 
L 863 0 
L 184 0 
L 1544 1831 
L 300 3500 
L 978 3500 
L 1906 2253 
L 2834 3500 
L 3513 3500 
z
" id="DejaVuSans-78" transform="scale(0.015625)"/>
      <path id="DejaVuSans-20" transform="scale(0.015625)"/>
      <path d="M 4122 4306 
L 4122 3641 
Q 3803 3938 3442 4084 
Q 3081 4231 2675 4231 
Q 1875 4231 1450 3742 
Q 1025 3253 1025 2328 
Q 1025 1406 1450 917 
Q 1875 428 2675 428 
Q 3081 428 3442 575 
Q 3803 722 4122 1019 
L 4122 359 
Q 3791 134 3420 21 
Q 3050 -91 2638 -91 
Q 1578 -91 968 557 
Q 359 1206 359 2328 
Q 359 3453 968 4101 
Q 1578 4750 2638 4750 
Q 3056 4750 3426 4639 
Q 3797 4528 4122 4306 
z
" id="DejaVuSans-43" transform="scale(0.015625)"/>
      <path d="M 3328 2828 
Q 3544 3216 3844 3400 
Q 4144 3584 4550 3584 
Q 5097 3584 5394 3201 
Q 5691 2819 5691 2113 
L 5691 0 
L 5113 0 
L 5113 2094 
Q 5113 2597 4934 2840 
Q 4756 3084 4391 3084 
Q 3944 3084 3684 2787 
Q 3425 2491 3425 1978 
L 3425 0 
L 2847 0 
L 2847 2094 
Q 2847 2600 2669 2842 
Q 2491 3084 2119 3084 
Q 1678 3084 1418 2786 
Q 1159 2488 1159 1978 
L 1159 0 
L 581 0 
L 581 3500 
L 1159 3500 
L 1159 2956 
Q 1356 3278 1631 3431 
Q 1906 3584 2284 3584 
Q 2666 3584 2933 3390 
Q 3200 3197 3328 2828 
z
" id="DejaVuSans-6d" transform="scale(0.015625)"/>
      <path d="M 3513 2113 
L 3513 0 
L 2938 0 
L 2938 2094 
Q 2938 2591 2744 2837 
Q 2550 3084 2163 3084 
Q 1697 3084 1428 2787 
Q 1159 2491 1159 1978 
L 1159 0 
L 581 0 
L 581 3500 
L 1159 3500 
L 1159 2956 
Q 1366 3272 1645 3428 
Q 1925 3584 2291 3584 
Q 2894 3584 3203 3211 
Q 3513 2838 3513 2113 
z
" id="DejaVuSans-6e" transform="scale(0.015625)"/>
     </defs>
     <use xlink:href="#DejaVuSans-50"/>
     <use x="58.552734" xlink:href="#DejaVuSans-72"/>
     <use x="97.416016" xlink:href="#DejaVuSans-65"/>
     <use x="158.939453" xlink:href="#DejaVuSans-66"/>
     <use x="194.144531" xlink:href="#DejaVuSans-69"/>
     <use x="221.927734" xlink:href="#DejaVuSans-78"/>
     <use x="281.107422" xlink:href="#DejaVuSans-20"/>
     <use x="312.894531" xlink:href="#DejaVuSans-43"/>
     <use x="382.71875" xlink:href="#DejaVuSans-6f"/>
     <use x="443.900391" xlink:href="#DejaVuSans-6d"/>
     <use x="541.3125" xlink:href="#DejaVuSans-6d"/>
     <use x="638.724609" xlink:href="#DejaVuSans-6f"/>
     <use x="699.90625" xlink:href="#DejaVuSans-6e"/>
     <use x="763.285156" xlink:href="#DejaVuSans-73"/>
    </g>
   </g>
  </g>
  <g id="axes_9">
   <g id="patch_26">
    <path clip-path="url(#pa0c01f68a0)" d="M 630.052359 369.771739 
C 626.175792 369.567761 622.52185 367.882574 619.850001 365.066441 
C 617.178152 362.250308 615.687291 358.512865 615.687291 354.630935 
C 615.687291 350.749005 617.178152 347.011561 619.850001 344.195429 
C 622.52185 341.379296 626.175792 339.694108 630.052359 339.49013 
C 628.254386 333.658041 625.431862 328.192569 621.717278 323.350271 
C 618.002694 318.507974 613.455099 314.365824 608.287962 311.11826 
C 603.120825 307.870696 597.416283 305.569341 591.442116 304.322224 
C 585.467949 303.075107 579.319121 302.902052 573.284267 303.811182 
C 567.249414 304.720312 561.424464 306.697176 556.08285 309.648977 
C 550.741235 312.600779 545.967866 316.480595 541.986811 321.106303 
C 538.005756 325.732011 534.880297 331.030081 532.757148 336.751813 
C 530.634 342.473545 529.546911 348.527987 529.546911 354.630935 
C 529.546911 360.733883 530.634 366.788325 532.757148 372.510057 
C 534.880297 378.231789 538.005756 383.529858 541.986811 388.155566 
C 545.967866 392.781274 550.741235 396.661091 556.08285 399.612892 
C 561.424464 402.564693 567.249414 404.541557 573.284267 405.450688 
C 579.319121 406.359818 585.467949 406.186763 591.442116 404.939646 
C 597.416283 403.692528 603.120825 401.391173 608.287962 398.143609 
C 613.455099 394.896045 618.002694 390.753896 621.717278 385.911598 
C 625.431862 381.069301 628.254386 375.603829 630.052359 369.771739 
" style="fill:#c0c0c0;opacity:0.4;"/>
   </g>
   <g id="patch_27">
    <path clip-path="url(#pa0c01f68a0)" d="M 630.052359 339.49013 
C 631.564424 344.394818 632.33327 349.49846 632.33327 354.630935 
C 632.33327 359.76341 631.564424 364.867051 630.052359 369.771739 
C 632.107618 369.879883 634.163538 369.568423 636.094543 368.856383 
C 638.025548 368.144343 639.791504 367.046521 641.284547 365.629974 
C 642.77759 364.213428 643.966687 362.507596 644.77921 360.616673 
C 645.591732 358.72575 646.010791 356.689036 646.010791 354.630935 
C 646.010791 352.572833 645.591732 350.536119 644.77921 348.645196 
C 643.966687 346.754274 642.77759 345.048442 641.284547 343.631895 
C 639.791504 342.215348 638.025548 341.117527 636.094543 340.405487 
C 634.163538 339.693447 632.107618 339.381986 630.052359 339.49013 
" style="fill:#cab2d6;opacity:0.4;"/>
   </g>
   <g id="patch_28">
    <path clip-path="url(#pa0c01f68a0)" d="M 630.052359 369.771739 
C 631.564424 364.867051 632.33327 359.76341 632.33327 354.630935 
C 632.33327 349.49846 631.564424 344.394818 630.052359 339.49013 
C 626.175792 339.694108 622.52185 341.379296 619.850001 344.195429 
C 617.178152 347.011561 615.687291 350.749005 615.687291 354.630935 
C 615.687291 358.512865 617.178152 362.250308 619.850001 365.066441 
C 622.52185 367.882574 626.175792 369.567761 630.052359 369.771739 
" style="fill:#ffffff;opacity:0.4;"/>
   </g>
   <g id="text_41">
    <!-- 1074 -->
    <g style="fill:#262626;" transform="translate(559.892101 357.39031)scale(0.1 -0.1)">
     <use xlink:href="#DejaVuSans-31"/>
     <use x="63.623047" xlink:href="#DejaVuSans-30"/>
     <use x="127.246094" xlink:href="#DejaVuSans-37"/>
     <use x="190.869141" xlink:href="#DejaVuSans-34"/>
    </g>
   </g>
   <g id="text_42">
    <!-- 46 -->
    <g style="fill:#262626;" transform="translate(632.809531 357.39031)scale(0.1 -0.1)">
     <use xlink:href="#DejaVuSans-34"/>
     <use x="63.623047" xlink:href="#DejaVuSans-36"/>
    </g>
   </g>
   <g id="text_43">
    <!-- 52 -->
    <g style="fill:#262626;" transform="translate(617.647781 357.39031)scale(0.1 -0.1)">
     <use xlink:href="#DejaVuSans-35"/>
     <use x="63.623047" xlink:href="#DejaVuSans-32"/>
    </g>
   </g>
   <g id="text_44">
    <!-- Bioregistry -->
    <g style="fill:#262626;" transform="translate(516.040716 418.469986)scale(0.12 -0.12)">
     <use xlink:href="#DejaVuSans-42"/>
     <use x="68.603516" xlink:href="#DejaVuSans-69"/>
     <use x="96.386719" xlink:href="#DejaVuSans-6f"/>
     <use x="157.568359" xlink:href="#DejaVuSans-72"/>
     <use x="196.431641" xlink:href="#DejaVuSans-65"/>
     <use x="257.955078" xlink:href="#DejaVuSans-67"/>
     <use x="321.431641" xlink:href="#DejaVuSans-69"/>
     <use x="349.214844" xlink:href="#DejaVuSans-73"/>
     <use x="401.314453" xlink:href="#DejaVuSans-74"/>
     <use x="440.523438" xlink:href="#DejaVuSans-72"/>
     <use x="481.636719" xlink:href="#DejaVuSans-79"/>
    </g>
   </g>
   <g id="text_45">
    <!-- Biolink -->
    <g style="fill:#262626;" transform="translate(630.849041 382.238556)scale(0.12 -0.12)">
     <use xlink:href="#DejaVuSans-42"/>
     <use x="68.603516" xlink:href="#DejaVuSans-69"/>
     <use x="96.386719" xlink:href="#DejaVuSans-6f"/>
     <use x="157.568359" xlink:href="#DejaVuSans-6c"/>
     <use x="185.351562" xlink:href="#DejaVuSans-69"/>
     <use x="213.134766" xlink:href="#DejaVuSans-6e"/>
     <use x="276.513672" xlink:href="#DejaVuSans-6b"/>
    </g>
   </g>
  </g>
  <g id="axes_10">
   <g id="patch_29">
    <path clip-path="url(#p1aa6760d1b)" d="M 160.653005 513.30601 
C 156.216701 513.158961 152.007128 511.291439 148.920892 508.101209 
C 145.834656 504.910979 144.107615 500.641849 144.107615 496.203108 
C 144.107615 491.764367 145.834656 487.495237 148.920892 484.305007 
C 152.007128 481.114777 156.216701 479.247255 160.653005 479.100206 
C 158.651076 473.431563 155.669315 468.158188 151.84377 463.520684 
C 148.018226 458.883181 143.407977 454.953169 138.223374 451.909961 
C 133.03877 448.866753 127.35988 446.757346 121.445811 445.677986 
C 115.531742 444.598626 109.473828 444.565981 103.54847 445.581542 
C 97.623112 446.597102 91.921819 448.645183 86.704719 451.632339 
C 81.487619 454.619495 76.835284 458.499593 72.959982 463.095598 
C 69.08468 467.691604 66.04626 472.932538 63.983355 478.579276 
C 61.920449 484.226014 60.864916 490.19135 60.864916 496.203108 
C 60.864916 502.214866 61.920449 508.180202 63.983355 513.82694 
C 66.04626 519.473678 69.08468 524.714612 72.959982 529.310618 
C 76.835284 533.906623 81.487619 537.786721 86.704719 540.773877 
C 91.921819 543.761033 97.623112 545.809114 103.54847 546.824675 
C 109.473828 547.840235 115.531742 547.80759 121.445811 546.72823 
C 127.35988 545.64887 133.03877 543.539464 138.223374 540.496255 
C 143.407977 537.453047 148.018226 533.523035 151.84377 528.885532 
C 155.669315 524.248028 158.651076 518.974653 160.653005 513.30601 
" style="fill:#c0c0c0;opacity:0.4;"/>
   </g>
   <g id="patch_30">
    <path clip-path="url(#p1aa6760d1b)" d="M 160.653005 479.100206 
C 162.593039 484.593583 163.58431 490.377224 163.58431 496.203108 
C 163.58431 502.028992 162.593039 507.812633 160.653005 513.30601 
C 162.946625 513.382036 165.232275 512.995905 167.373635 512.170648 
C 169.514994 511.34539 171.468626 510.097745 173.118011 508.502126 
C 174.767395 506.906507 176.079076 504.99528 176.974821 502.882436 
C 177.870566 500.769591 178.332205 498.497987 178.332205 496.203108 
C 178.332205 493.908229 177.870566 491.636625 176.974821 489.523781 
C 176.079076 487.410936 174.767395 485.499709 173.118011 483.90409 
C 171.468626 482.308471 169.514994 481.060826 167.373635 480.235569 
C 165.232275 479.410311 162.946625 479.02418 160.653005 479.100206 
" style="fill:#6a3d9a;opacity:0.4;"/>
   </g>
   <g id="patch_31">
    <path clip-path="url(#p1aa6760d1b)" d="M 160.653005 513.30601 
C 162.593039 507.812633 163.58431 502.028992 163.58431 496.203108 
C 163.58431 490.377224 162.593039 484.593583 160.653005 479.100206 
C 156.216701 479.247255 152.007128 481.114777 148.920892 484.305007 
C 145.834656 487.495237 144.107615 491.764367 144.107615 496.203108 
C 144.107615 500.641849 145.834656 504.910979 148.920892 508.101209 
C 152.007128 511.291439 156.216701 513.158961 160.653005 513.30601 
" style="fill:#d1b1f2;opacity:0.4;"/>
   </g>
   <g id="text_46">
    <!-- 1057 -->
    <g style="fill:#262626;" transform="translate(89.761266 498.962483)scale(0.1 -0.1)">
     <use xlink:href="#DejaVuSans-31"/>
     <use x="63.623047" xlink:href="#DejaVuSans-30"/>
     <use x="127.246094" xlink:href="#DejaVuSans-35"/>
     <use x="190.869141" xlink:href="#DejaVuSans-37"/>
    </g>
   </g>
   <g id="text_47">
    <!-- 56 -->
    <g style="fill:#262626;" transform="translate(164.595757 498.962483)scale(0.1 -0.1)">
     <use xlink:href="#DejaVuSans-35"/>
     <use x="63.623047" xlink:href="#DejaVuSans-36"/>
    </g>
   </g>
   <g id="text_48">
    <!-- 69 -->
    <g style="fill:#262626;" transform="translate(147.483462 498.962483)scale(0.1 -0.1)">
     <use xlink:href="#DejaVuSans-36"/>
     <use x="63.623047" xlink:href="#DejaVuSans-39"/>
    </g>
   </g>
   <g id="text_49">
    <!-- Bioregistry -->
    <g style="fill:#262626;" transform="translate(47.325238 560.104529)scale(0.12 -0.12)">
     <use xlink:href="#DejaVuSans-42"/>
     <use x="68.603516" xlink:href="#DejaVuSans-69"/>
     <use x="96.386719" xlink:href="#DejaVuSans-6f"/>
     <use x="157.568359" xlink:href="#DejaVuSans-72"/>
     <use x="196.431641" xlink:href="#DejaVuSans-65"/>
     <use x="257.955078" xlink:href="#DejaVuSans-67"/>
     <use x="321.431641" xlink:href="#DejaVuSans-69"/>
     <use x="349.214844" xlink:href="#DejaVuSans-73"/>
     <use x="401.314453" xlink:href="#DejaVuSans-74"/>
     <use x="440.523438" xlink:href="#DejaVuSans-72"/>
     <use x="481.636719" xlink:href="#DejaVuSans-79"/>
    </g>
   </g>
   <g id="text_50">
    <!-- NCBI -->
    <g style="fill:#262626;" transform="translate(161.21991 525.857128)scale(0.12 -0.12)">
     <use xlink:href="#DejaVuSans-4e"/>
     <use x="74.804688" xlink:href="#DejaVuSans-43"/>
     <use x="144.628906" xlink:href="#DejaVuSans-42"/>
     <use x="213.232422" xlink:href="#DejaVuSans-49"/>
    </g>
   </g>
  </g>
  <g id="axes_11">
   <g id="patch_32">
    <path clip-path="url(#p5e87792652)" d="M 391.104961 516.542624 
C 386.209368 515.844457 381.726699 513.401723 378.486194 509.666299 
C 375.24569 505.930874 373.460299 501.148233 373.460299 496.203108 
C 373.460299 491.257983 375.24569 486.475342 378.486194 482.739917 
C 381.726699 479.004493 386.209368 476.561759 391.104961 475.863592 
C 388.782807 470.493681 385.55809 465.560893 381.570875 461.279485 
C 377.583659 456.998077 372.892522 453.430945 367.701223 450.733029 
C 362.509923 448.035113 356.894726 446.246047 351.099528 445.443539 
C 345.304329 444.641031 339.414266 444.836871 333.685174 446.022553 
C 327.956081 447.208235 322.472125 449.366339 317.4715 452.403129 
C 312.470875 455.439919 308.027045 459.310781 304.333029 463.847585 
C 300.639013 468.384388 297.749078 473.520483 295.788749 479.032784 
C 293.828421 484.545084 292.826497 490.352609 292.826497 496.203108 
C 292.826497 502.053608 293.828421 507.861132 295.788749 513.373433 
C 297.749078 518.885733 300.639013 524.021828 304.333029 528.558631 
C 308.027045 533.095435 312.470875 536.966297 317.4715 540.003087 
C 322.472125 543.039877 327.956081 545.197981 333.685174 546.383663 
C 339.414266 547.569345 345.304329 547.765185 351.099528 546.962677 
C 356.894726 546.160169 362.509923 544.371103 367.701223 541.673187 
C 372.892522 538.975271 377.583659 535.40814 381.570875 531.126731 
C 385.55809 526.845323 388.782807 521.912535 391.104961 516.542624 
" style="fill:#c0c0c0;opacity:0.4;"/>
   </g>
   <g id="patch_33">
    <path clip-path="url(#p5e87792652)" d="M 391.104961 475.863592 
C 393.881746 482.284825 395.314387 489.207197 395.314387 496.203108 
C 395.314387 503.199019 393.881746 510.121391 391.104961 516.542624 
C 394.018536 516.958133 396.987665 516.742791 399.810793 515.911215 
C 402.633921 515.079639 405.245688 513.651083 407.468797 511.722521 
C 409.691907 509.793958 411.474892 507.41004 412.696715 504.732594 
C 413.918539 502.055149 414.550914 499.146162 414.550914 496.203108 
C 414.550914 493.260054 413.918539 490.351068 412.696715 487.673622 
C 411.474892 484.996176 409.691907 482.612258 407.468797 480.683696 
C 405.245688 478.755134 402.633921 477.326577 399.810793 476.495001 
C 396.987665 475.663425 394.018536 475.448083 391.104961 475.863592 
" style="fill:#ffff99;opacity:0.4;"/>
   </g>
   <g id="patch_34">
    <path clip-path="url(#p5e87792652)" d="M 391.104961 516.542624 
C 393.881746 510.121391 395.314387 503.199019 395.314387 496.203108 
C 395.314387 489.207197 393.881746 482.284825 391.104961 475.863592 
C 386.209368 476.561759 381.726699 479.004493 378.486194 482.739917 
C 375.24569 486.475342 373.460299 491.257983 373.460299 496.203108 
C 373.460299 501.148233 375.24569 505.930874 378.486194 509.666299 
C 381.726699 513.401723 386.209368 515.844457 391.104961 516.542624 
" style="fill:#fffff2;opacity:0.4;"/>
   </g>
   <g id="text_51">
    <!-- 1036 -->
    <g style="fill:#262626;" transform="translate(320.418398 498.962483)scale(0.1 -0.1)">
     <use xlink:href="#DejaVuSans-31"/>
     <use x="63.623047" xlink:href="#DejaVuSans-30"/>
     <use x="127.246094" xlink:href="#DejaVuSans-33"/>
     <use x="190.869141" xlink:href="#DejaVuSans-36"/>
    </g>
   </g>
   <g id="text_52">
    <!-- 91 -->
    <g style="fill:#262626;" transform="translate(398.570151 498.962483)scale(0.1 -0.1)">
     <use xlink:href="#DejaVuSans-39"/>
     <use x="63.623047" xlink:href="#DejaVuSans-31"/>
    </g>
   </g>
   <g id="text_53">
    <!-- 90 -->
    <g style="fill:#262626;" transform="translate(378.024843 498.962483)scale(0.1 -0.1)">
     <use xlink:href="#DejaVuSans-39"/>
     <use x="63.623047" xlink:href="#DejaVuSans-30"/>
    </g>
   </g>
   <g id="text_54">
    <!-- Bioregistry -->
    <g style="fill:#262626;" transform="translate(279.171067 560.154641)scale(0.12 -0.12)">
     <use xlink:href="#DejaVuSans-42"/>
     <use x="68.603516" xlink:href="#DejaVuSans-69"/>
     <use x="96.386719" xlink:href="#DejaVuSans-6f"/>
     <use x="157.568359" xlink:href="#DejaVuSans-72"/>
     <use x="196.431641" xlink:href="#DejaVuSans-65"/>
     <use x="257.955078" xlink:href="#DejaVuSans-67"/>
     <use x="321.431641" xlink:href="#DejaVuSans-69"/>
     <use x="349.214844" xlink:href="#DejaVuSans-73"/>
     <use x="401.314453" xlink:href="#DejaVuSans-74"/>
     <use x="440.523438" xlink:href="#DejaVuSans-72"/>
     <use x="481.636719" xlink:href="#DejaVuSans-79"/>
    </g>
   </g>
   <g id="text_55">
    <!-- UniProt -->
    <g style="fill:#262626;" transform="translate(394.005607 529.456003)scale(0.12 -0.12)">
     <defs>
      <path d="M 556 4666 
L 1191 4666 
L 1191 1831 
Q 1191 1081 1462 751 
Q 1734 422 2344 422 
Q 2950 422 3222 751 
Q 3494 1081 3494 1831 
L 3494 4666 
L 4128 4666 
L 4128 1753 
Q 4128 841 3676 375 
Q 3225 -91 2344 -91 
Q 1459 -91 1007 375 
Q 556 841 556 1753 
L 556 4666 
z
" id="DejaVuSans-55" transform="scale(0.015625)"/>
     </defs>
     <use xlink:href="#DejaVuSans-55"/>
     <use x="73.193359" xlink:href="#DejaVuSans-6e"/>
     <use x="136.572266" xlink:href="#DejaVuSans-69"/>
     <use x="164.355469" xlink:href="#DejaVuSans-50"/>
     <use x="222.908203" xlink:href="#DejaVuSans-72"/>
     <use x="261.771484" xlink:href="#DejaVuSans-6f"/>
     <use x="322.953125" xlink:href="#DejaVuSans-74"/>
    </g>
   </g>
  </g>
  <g id="axes_12"/>
  <g id="text_56">
   <!-- https://github.com/bioregistry/bioregistry (2021-06-03) -->
   <g style="fill:#808080;opacity:0.5;" transform="translate(240.830625 574.33625)scale(0.08 -0.08)">
    <defs>
     <path d="M 3513 2113 
L 3513 0 
L 2938 0 
L 2938 2094 
Q 2938 2591 2744 2837 
Q 2550 3084 2163 3084 
Q 1697 3084 1428 2787 
Q 1159 2491 1159 1978 
L 1159 0 
L 581 0 
L 581 4863 
L 1159 4863 
L 1159 2956 
Q 1366 3272 1645 3428 
Q 1925 3584 2291 3584 
Q 2894 3584 3203 3211 
Q 3513 2838 3513 2113 
z
" id="DejaVuSans-68" transform="scale(0.015625)"/>
     <path d="M 1159 525 
L 1159 -1331 
L 581 -1331 
L 581 3500 
L 1159 3500 
L 1159 2969 
Q 1341 3281 1617 3432 
Q 1894 3584 2278 3584 
Q 2916 3584 3314 3078 
Q 3713 2572 3713 1747 
Q 3713 922 3314 415 
Q 2916 -91 2278 -91 
Q 1894 -91 1617 61 
Q 1341 213 1159 525 
z
M 3116 1747 
Q 3116 2381 2855 2742 
Q 2594 3103 2138 3103 
Q 1681 3103 1420 2742 
Q 1159 2381 1159 1747 
Q 1159 1113 1420 752 
Q 1681 391 2138 391 
Q 2594 391 2855 752 
Q 3116 1113 3116 1747 
z
" id="DejaVuSans-70" transform="scale(0.015625)"/>
     <path d="M 750 794 
L 1409 794 
L 1409 0 
L 750 0 
L 750 794 
z
M 750 3309 
L 1409 3309 
L 1409 2516 
L 750 2516 
L 750 3309 
z
" id="DejaVuSans-3a" transform="scale(0.015625)"/>
     <path d="M 1625 4666 
L 2156 4666 
L 531 -594 
L 0 -594 
L 1625 4666 
z
" id="DejaVuSans-2f" transform="scale(0.015625)"/>
     <path d="M 544 1381 
L 544 3500 
L 1119 3500 
L 1119 1403 
Q 1119 906 1312 657 
Q 1506 409 1894 409 
Q 2359 409 2629 706 
Q 2900 1003 2900 1516 
L 2900 3500 
L 3475 3500 
L 3475 0 
L 2900 0 
L 2900 538 
Q 2691 219 2414 64 
Q 2138 -91 1772 -91 
Q 1169 -91 856 284 
Q 544 659 544 1381 
z
M 1991 3584 
L 1991 3584 
z
" id="DejaVuSans-75" transform="scale(0.015625)"/>
     <path d="M 3116 1747 
Q 3116 2381 2855 2742 
Q 2594 3103 2138 3103 
Q 1681 3103 1420 2742 
Q 1159 2381 1159 1747 
Q 1159 1113 1420 752 
Q 1681 391 2138 391 
Q 2594 391 2855 752 
Q 3116 1113 3116 1747 
z
M 1159 2969 
Q 1341 3281 1617 3432 
Q 1894 3584 2278 3584 
Q 2916 3584 3314 3078 
Q 3713 2572 3713 1747 
Q 3713 922 3314 415 
Q 2916 -91 2278 -91 
Q 1894 -91 1617 61 
Q 1341 213 1159 525 
L 1159 0 
L 581 0 
L 581 4863 
L 1159 4863 
L 1159 2969 
z
" id="DejaVuSans-62" transform="scale(0.015625)"/>
     <path d="M 684 794 
L 1344 794 
L 1344 0 
L 684 0 
L 684 794 
z
" id="DejaVuSans-2e" transform="scale(0.015625)"/>
     <path d="M 3122 3366 
L 3122 2828 
Q 2878 2963 2633 3030 
Q 2388 3097 2138 3097 
Q 1578 3097 1268 2742 
Q 959 2388 959 1747 
Q 959 1106 1268 751 
Q 1578 397 2138 397 
Q 2388 397 2633 464 
Q 2878 531 3122 666 
L 3122 134 
Q 2881 22 2623 -34 
Q 2366 -91 2075 -91 
Q 1284 -91 818 406 
Q 353 903 353 1747 
Q 353 2603 823 3093 
Q 1294 3584 2113 3584 
Q 2378 3584 2631 3529 
Q 2884 3475 3122 3366 
z
" id="DejaVuSans-63" transform="scale(0.015625)"/>
     <path d="M 1984 4856 
Q 1566 4138 1362 3434 
Q 1159 2731 1159 2009 
Q 1159 1288 1364 580 
Q 1569 -128 1984 -844 
L 1484 -844 
Q 1016 -109 783 600 
Q 550 1309 550 2009 
Q 550 2706 781 3412 
Q 1013 4119 1484 4856 
L 1984 4856 
z
" id="DejaVuSans-28" transform="scale(0.015625)"/>
     <path d="M 313 2009 
L 1997 2009 
L 1997 1497 
L 313 1497 
L 313 2009 
z
" id="DejaVuSans-2d" transform="scale(0.015625)"/>
     <path d="M 513 4856 
L 1013 4856 
Q 1481 4119 1714 3412 
Q 1947 2706 1947 2009 
Q 1947 1309 1714 600 
Q 1481 -109 1013 -844 
L 513 -844 
Q 928 -128 1133 580 
Q 1338 1288 1338 2009 
Q 1338 2731 1133 3434 
Q 928 4138 513 4856 
z
" id="DejaVuSans-29" transform="scale(0.015625)"/>
    </defs>
    <use xlink:href="#DejaVuSans-68"/>
    <use x="63.378906" xlink:href="#DejaVuSans-74"/>
    <use x="102.587891" xlink:href="#DejaVuSans-74"/>
    <use x="141.796875" xlink:href="#DejaVuSans-70"/>
    <use x="205.273438" xlink:href="#DejaVuSans-73"/>
    <use x="257.373047" xlink:href="#DejaVuSans-3a"/>
    <use x="291.064453" xlink:href="#DejaVuSans-2f"/>
    <use x="324.755859" xlink:href="#DejaVuSans-2f"/>
    <use x="358.447266" xlink:href="#DejaVuSans-67"/>
    <use x="421.923828" xlink:href="#DejaVuSans-69"/>
    <use x="449.707031" xlink:href="#DejaVuSans-74"/>
    <use x="488.916016" xlink:href="#DejaVuSans-68"/>
    <use x="552.294922" xlink:href="#DejaVuSans-75"/>
    <use x="615.673828" xlink:href="#DejaVuSans-62"/>
    <use x="679.150391" xlink:href="#DejaVuSans-2e"/>
    <use x="710.9375" xlink:href="#DejaVuSans-63"/>
    <use x="765.917969" xlink:href="#DejaVuSans-6f"/>
    <use x="827.099609" xlink:href="#DejaVuSans-6d"/>
    <use x="924.511719" xlink:href="#DejaVuSans-2f"/>
    <use x="958.203125" xlink:href="#DejaVuSans-62"/>
    <use x="1021.679688" xlink:href="#DejaVuSans-69"/>
    <use x="1049.462891" xlink:href="#DejaVuSans-6f"/>
    <use x="1110.644531" xlink:href="#DejaVuSans-72"/>
    <use x="1149.507812" xlink:href="#DejaVuSans-65"/>
    <use x="1211.03125" xlink:href="#DejaVuSans-67"/>
    <use x="1274.507812" xlink:href="#DejaVuSans-69"/>
    <use x="1302.291016" xlink:href="#DejaVuSans-73"/>
    <use x="1354.390625" xlink:href="#DejaVuSans-74"/>
    <use x="1393.599609" xlink:href="#DejaVuSans-72"/>
    <use x="1434.712891" xlink:href="#DejaVuSans-79"/>
    <use x="1493.892578" xlink:href="#DejaVuSans-2f"/>
    <use x="1527.583984" xlink:href="#DejaVuSans-62"/>
    <use x="1591.060547" xlink:href="#DejaVuSans-69"/>
    <use x="1618.84375" xlink:href="#DejaVuSans-6f"/>
    <use x="1680.025391" xlink:href="#DejaVuSans-72"/>
    <use x="1718.888672" xlink:href="#DejaVuSans-65"/>
    <use x="1780.412109" xlink:href="#DejaVuSans-67"/>
    <use x="1843.888672" xlink:href="#DejaVuSans-69"/>
    <use x="1871.671875" xlink:href="#DejaVuSans-73"/>
    <use x="1923.771484" xlink:href="#DejaVuSans-74"/>
    <use x="1962.980469" xlink:href="#DejaVuSans-72"/>
    <use x="2004.09375" xlink:href="#DejaVuSans-79"/>
    <use x="2063.273438" xlink:href="#DejaVuSans-20"/>
    <use x="2095.060547" xlink:href="#DejaVuSans-28"/>
    <use x="2134.074219" xlink:href="#DejaVuSans-32"/>
    <use x="2197.697266" xlink:href="#DejaVuSans-30"/>
    <use x="2261.320312" xlink:href="#DejaVuSans-32"/>
    <use x="2324.943359" xlink:href="#DejaVuSans-31"/>
    <use x="2388.566406" xlink:href="#DejaVuSans-2d"/>
    <use x="2424.650391" xlink:href="#DejaVuSans-30"/>
    <use x="2488.273438" xlink:href="#DejaVuSans-36"/>
    <use x="2551.896484" xlink:href="#DejaVuSans-2d"/>
    <use x="2587.980469" xlink:href="#DejaVuSans-30"/>
    <use x="2651.603516" xlink:href="#DejaVuSans-33"/>
    <use x="2715.226562" xlink:href="#DejaVuSans-29"/>
   </g>
  </g>
 </g>
 <defs>
  <clipPath id="p75fc78568c">
   <rect height="121.373177" width="121.382313" x="58.907404" y="10.8"/>
  </clipPath>
  <clipPath id="p92b1449211">
   <rect height="121.373177" width="121.382313" x="292.997549" y="10.8"/>
  </clipPath>
  <clipPath id="p4d9283899a">
   <rect height="121.373177" width="121.382313" x="527.087694" y="10.8"/>
  </clipPath>
  <clipPath id="p965fbd8961">
   <rect height="121.373177" width="123.324576" x="57.936272" y="152.372173"/>
  </clipPath>
  <clipPath id="p8c510415c3">
   <rect height="121.373177" width="122.317729" x="292.529842" y="152.372173"/>
  </clipPath>
  <clipPath id="p910214e21b">
   <rect height="121.373177" width="142.792927" x="516.382388" y="152.372173"/>
  </clipPath>
  <clipPath id="pfeb88d8f03">
   <rect height="121.373177" width="173.198645" x="32.999238" y="293.944347"/>
  </clipPath>
  <clipPath id="p7b311c6947">
   <rect height="121.373177" width="134.578073" x="286.399669" y="293.944347"/>
  </clipPath>
  <clipPath id="pa0c01f68a0">
   <rect height="121.373177" width="135.050697" x="520.253502" y="293.944347"/>
  </clipPath>
  <clipPath id="p1aa6760d1b">
   <rect height="121.373177" width="136.121072" x="51.538025" y="435.51652"/>
  </clipPath>
  <clipPath id="p5e87792652">
   <rect height="121.373177" width="140.609704" x="283.383854" y="435.51652"/>
  </clipPath>
 </defs>
</svg>
