<?xml version="1.0" encoding="utf-8" standalone="no"?>
<!DOCTYPE svg PUBLIC "-//W3C//DTD SVG 1.1//EN"
  "http://www.w3.org/Graphics/SVG/1.1/DTD/svg11.dtd">
<svg height="720pt" version="1.1" viewBox="0 0 702 720" width="702pt" xmlns="http://www.w3.org/2000/svg" xmlns:xlink="http://www.w3.org/1999/xlink">
 <metadata>
  <rdf:RDF xmlns:cc="http://creativecommons.org/ns#" xmlns:dc="http://purl.org/dc/elements/1.1/" xmlns:rdf="http://www.w3.org/1999/02/22-rdf-syntax-ns#">
   <cc:Work>
    <dc:type rdf:resource="http://purl.org/dc/dcmitype/StillImage"/>
    <dc:date>2021-10-14T00:50:14.239633</dc:date>
    <dc:format>image/svg+xml</dc:format>
    <dc:creator>
     <cc:Agent>
      <dc:title>Matplotlib v3.4.3, https://matplotlib.org/</dc:title>
     </cc:Agent>
    </dc:creator>
   </cc:Work>
  </rdf:RDF>
 </metadata>
 <defs>
  <style type="text/css">*{stroke-linecap:butt;stroke-linejoin:round;}</style>
 </defs>
 <g id="figure_1">
  <g id="patch_1">
   <path d="M 0 720 
L 702 720 
L 702 0 
L 0 0 
z
" style="fill:#ffffff;"/>
  </g>
  <g id="axes_1">
   <g id="patch_2">
    <path clip-path="url(#p317283e9b1)" d="M 165.094148 82.265751 
C 163.916238 84.574456 162.360449 86.669984 160.491271 88.46547 
C 158.622093 90.260956 156.465715 91.731244 154.111522 92.81539 
C 151.757329 93.899535 149.238305 94.582348 146.658868 94.835524 
C 144.07943 95.0887 141.475719 94.908692 138.955662 94.302962 
C 136.435605 93.697233 134.03451 92.674268 131.851907 91.276471 
C 129.669303 89.878674 127.73577 88.125629 126.131456 86.090003 
C 124.527142 84.054377 123.274525 81.764691 122.425527 79.315855 
C 121.57653 76.867019 121.143046 74.293343 121.143046 71.70151 
C 121.143046 69.109678 121.57653 66.536002 122.425527 64.087166 
C 123.274525 61.63833 124.527142 59.348643 126.131456 57.313017 
C 127.73577 55.277392 129.669303 53.524347 131.851907 52.12655 
C 134.03451 50.728753 136.435605 49.705788 138.955662 49.100058 
C 141.475719 48.494329 144.07943 48.314321 146.658868 48.567497 
C 149.238305 48.820673 151.757329 49.503486 154.111522 50.587631 
C 156.465715 51.671777 158.622093 53.142065 160.491271 54.937551 
C 162.360449 56.733037 163.916238 58.828564 165.094148 61.13727 
C 163.79822 54.926151 161.370395 49.006177 157.93218 43.673626 
C 154.493964 38.341074 150.103687 33.686411 144.981068 29.942588 
C 139.858448 26.198765 134.090393 23.429297 127.965574 21.772786 
C 121.840755 20.116275 115.463081 19.600825 109.151734 20.252231 
C 102.840386 20.903638 96.702439 22.71085 91.045075 25.583423 
C 85.387712 28.455995 80.306911 32.345195 76.056949 37.05638 
C 71.806988 41.767565 68.459967 47.220809 66.183396 53.143196 
C 63.906824 59.065582 62.739323 65.356636 62.739323 71.70151 
C 62.739323 78.046385 63.906824 84.337439 66.183396 90.259825 
C 68.459967 96.182211 71.806988 101.635455 76.056949 106.346641 
C 80.306911 111.057826 85.387712 114.947025 91.045075 117.819598 
C 96.702439 120.692171 102.840386 122.499383 109.151734 123.15079 
C 115.463081 123.802196 121.840755 123.286746 127.965574 121.630235 
C 134.090393 119.973724 139.858448 117.204255 144.981068 113.460433 
C 150.103687 109.71661 154.493964 105.061947 157.93218 99.729395 
C 161.370395 94.396843 163.79822 88.47687 165.094148 82.265751 
" style="fill:#c0c0c0;opacity:0.4;"/>
   </g>
   <g id="patch_3">
    <path clip-path="url(#p317283e9b1)" d="M 165.094148 61.13727 
C 165.819125 64.611936 166.184504 68.152019 166.184504 71.70151 
C 166.184504 75.251002 165.819125 78.791085 165.094148 82.265751 
C 166.763136 78.994533 167.633406 75.373892 167.633406 71.70151 
C 167.633406 68.029129 166.763136 64.408488 165.094148 61.13727 
" style="fill:#a6cee3;opacity:0.4;"/>
   </g>
   <g id="patch_4">
    <path clip-path="url(#p317283e9b1)" d="M 165.094148 82.265751 
C 165.819125 78.791085 166.184504 75.251002 166.184504 71.70151 
C 166.184504 68.152019 165.819125 64.611936 165.094148 61.13727 
C 163.916238 58.828564 162.360449 56.733037 160.491271 54.937551 
C 158.622093 53.142065 156.465715 51.671777 154.111522 50.587631 
C 151.757329 49.503486 149.238305 48.820673 146.658868 48.567497 
C 144.07943 48.314321 141.475719 48.494329 138.955662 49.100058 
C 136.435605 49.705788 134.03451 50.728753 131.851907 52.12655 
C 129.669303 53.524347 127.73577 55.277392 126.131456 57.313017 
C 124.527142 59.348643 123.274525 61.63833 122.425527 64.087166 
C 121.57653 66.536002 121.143046 69.109678 121.143046 71.70151 
C 121.143046 74.293343 121.57653 76.867019 122.425527 79.315855 
C 123.274525 81.764691 124.527142 84.054377 126.131456 86.090003 
C 127.73577 88.125629 129.669303 89.878674 131.851907 91.276471 
C 134.03451 92.674268 136.435605 93.697233 138.955662 94.302962 
C 141.475719 94.908692 144.07943 95.0887 146.658868 94.835524 
C 149.238305 94.582348 151.757329 93.899535 154.111522 92.81539 
C 156.465715 91.731244 158.622093 90.260956 160.491271 88.46547 
C 162.360449 86.669984 163.916238 84.574456 165.094148 82.265751 
" style="fill:#fbffff;opacity:0.4;"/>
   </g>
   <g id="text_1">
    <!-- 971 -->
    <g style="fill:#262626;" transform="translate(82.397435 74.460885)scale(0.1 -0.1)">
     <defs>
      <path d="M 703 97 
L 703 672 
Q 941 559 1184 500 
Q 1428 441 1663 441 
Q 2288 441 2617 861 
Q 2947 1281 2994 2138 
Q 2813 1869 2534 1725 
Q 2256 1581 1919 1581 
Q 1219 1581 811 2004 
Q 403 2428 403 3163 
Q 403 3881 828 4315 
Q 1253 4750 1959 4750 
Q 2769 4750 3195 4129 
Q 3622 3509 3622 2328 
Q 3622 1225 3098 567 
Q 2575 -91 1691 -91 
Q 1453 -91 1209 -44 
Q 966 3 703 97 
z
M 1959 2075 
Q 2384 2075 2632 2365 
Q 2881 2656 2881 3163 
Q 2881 3666 2632 3958 
Q 2384 4250 1959 4250 
Q 1534 4250 1286 3958 
Q 1038 3666 1038 3163 
Q 1038 2656 1286 2365 
Q 1534 2075 1959 2075 
z
" id="DejaVuSans-39" transform="scale(0.015625)"/>
      <path d="M 525 4666 
L 3525 4666 
L 3525 4397 
L 1831 0 
L 1172 0 
L 2766 4134 
L 525 4134 
L 525 4666 
z
" id="DejaVuSans-37" transform="scale(0.015625)"/>
      <path d="M 794 531 
L 1825 531 
L 1825 4091 
L 703 3866 
L 703 4441 
L 1819 4666 
L 2450 4666 
L 2450 531 
L 3481 531 
L 3481 0 
L 794 0 
L 794 531 
z
" id="DejaVuSans-31" transform="scale(0.015625)"/>
     </defs>
     <use xlink:href="#DejaVuSans-39"/>
     <use x="63.623047" xlink:href="#DejaVuSans-37"/>
     <use x="127.246094" xlink:href="#DejaVuSans-31"/>
    </g>
   </g>
   <g id="text_2">
    <!-- 3 -->
    <g style="fill:#262626;" transform="translate(163.727705 74.460885)scale(0.1 -0.1)">
     <defs>
      <path d="M 2597 2516 
Q 3050 2419 3304 2112 
Q 3559 1806 3559 1356 
Q 3559 666 3084 287 
Q 2609 -91 1734 -91 
Q 1441 -91 1130 -33 
Q 819 25 488 141 
L 488 750 
Q 750 597 1062 519 
Q 1375 441 1716 441 
Q 2309 441 2620 675 
Q 2931 909 2931 1356 
Q 2931 1769 2642 2001 
Q 2353 2234 1838 2234 
L 1294 2234 
L 1294 2753 
L 1863 2753 
Q 2328 2753 2575 2939 
Q 2822 3125 2822 3475 
Q 2822 3834 2567 4026 
Q 2313 4219 1838 4219 
Q 1578 4219 1281 4162 
Q 984 4106 628 3988 
L 628 4550 
Q 988 4650 1302 4700 
Q 1616 4750 1894 4750 
Q 2613 4750 3031 4423 
Q 3450 4097 3450 3541 
Q 3450 3153 3228 2886 
Q 3006 2619 2597 2516 
z
" id="DejaVuSans-33" transform="scale(0.015625)"/>
     </defs>
     <use xlink:href="#DejaVuSans-33"/>
    </g>
   </g>
   <g id="text_3">
    <!-- 242 -->
    <g style="fill:#262626;" transform="translate(134.120025 74.460885)scale(0.1 -0.1)">
     <defs>
      <path d="M 1228 531 
L 3431 531 
L 3431 0 
L 469 0 
L 469 531 
Q 828 903 1448 1529 
Q 2069 2156 2228 2338 
Q 2531 2678 2651 2914 
Q 2772 3150 2772 3378 
Q 2772 3750 2511 3984 
Q 2250 4219 1831 4219 
Q 1534 4219 1204 4116 
Q 875 4013 500 3803 
L 500 4441 
Q 881 4594 1212 4672 
Q 1544 4750 1819 4750 
Q 2544 4750 2975 4387 
Q 3406 4025 3406 3419 
Q 3406 3131 3298 2873 
Q 3191 2616 2906 2266 
Q 2828 2175 2409 1742 
Q 1991 1309 1228 531 
z
" id="DejaVuSans-32" transform="scale(0.015625)"/>
      <path d="M 2419 4116 
L 825 1625 
L 2419 1625 
L 2419 4116 
z
M 2253 4666 
L 3047 4666 
L 3047 1625 
L 3713 1625 
L 3713 1100 
L 3047 1100 
L 3047 0 
L 2419 0 
L 2419 1100 
L 313 1100 
L 313 1709 
L 2253 4666 
z
" id="DejaVuSans-34" transform="scale(0.015625)"/>
     </defs>
     <use xlink:href="#DejaVuSans-32"/>
     <use x="63.623047" xlink:href="#DejaVuSans-34"/>
     <use x="127.246094" xlink:href="#DejaVuSans-32"/>
    </g>
   </g>
   <g id="text_4">
    <!-- Bioregistry -->
    <g style="fill:#262626;" transform="translate(49.562539 136.290614)scale(0.12 -0.12)">
     <defs>
      <path d="M 1259 2228 
L 1259 519 
L 2272 519 
Q 2781 519 3026 730 
Q 3272 941 3272 1375 
Q 3272 1813 3026 2020 
Q 2781 2228 2272 2228 
L 1259 2228 
z
M 1259 4147 
L 1259 2741 
L 2194 2741 
Q 2656 2741 2882 2914 
Q 3109 3088 3109 3444 
Q 3109 3797 2882 3972 
Q 2656 4147 2194 4147 
L 1259 4147 
z
M 628 4666 
L 2241 4666 
Q 2963 4666 3353 4366 
Q 3744 4066 3744 3513 
Q 3744 3084 3544 2831 
Q 3344 2578 2956 2516 
Q 3422 2416 3680 2098 
Q 3938 1781 3938 1306 
Q 3938 681 3513 340 
Q 3088 0 2303 0 
L 628 0 
L 628 4666 
z
" id="DejaVuSans-42" transform="scale(0.015625)"/>
      <path d="M 603 3500 
L 1178 3500 
L 1178 0 
L 603 0 
L 603 3500 
z
M 603 4863 
L 1178 4863 
L 1178 4134 
L 603 4134 
L 603 4863 
z
" id="DejaVuSans-69" transform="scale(0.015625)"/>
      <path d="M 1959 3097 
Q 1497 3097 1228 2736 
Q 959 2375 959 1747 
Q 959 1119 1226 758 
Q 1494 397 1959 397 
Q 2419 397 2687 759 
Q 2956 1122 2956 1747 
Q 2956 2369 2687 2733 
Q 2419 3097 1959 3097 
z
M 1959 3584 
Q 2709 3584 3137 3096 
Q 3566 2609 3566 1747 
Q 3566 888 3137 398 
Q 2709 -91 1959 -91 
Q 1206 -91 779 398 
Q 353 888 353 1747 
Q 353 2609 779 3096 
Q 1206 3584 1959 3584 
z
" id="DejaVuSans-6f" transform="scale(0.015625)"/>
      <path d="M 2631 2963 
Q 2534 3019 2420 3045 
Q 2306 3072 2169 3072 
Q 1681 3072 1420 2755 
Q 1159 2438 1159 1844 
L 1159 0 
L 581 0 
L 581 3500 
L 1159 3500 
L 1159 2956 
Q 1341 3275 1631 3429 
Q 1922 3584 2338 3584 
Q 2397 3584 2469 3576 
Q 2541 3569 2628 3553 
L 2631 2963 
z
" id="DejaVuSans-72" transform="scale(0.015625)"/>
      <path d="M 3597 1894 
L 3597 1613 
L 953 1613 
Q 991 1019 1311 708 
Q 1631 397 2203 397 
Q 2534 397 2845 478 
Q 3156 559 3463 722 
L 3463 178 
Q 3153 47 2828 -22 
Q 2503 -91 2169 -91 
Q 1331 -91 842 396 
Q 353 884 353 1716 
Q 353 2575 817 3079 
Q 1281 3584 2069 3584 
Q 2775 3584 3186 3129 
Q 3597 2675 3597 1894 
z
M 3022 2063 
Q 3016 2534 2758 2815 
Q 2500 3097 2075 3097 
Q 1594 3097 1305 2825 
Q 1016 2553 972 2059 
L 3022 2063 
z
" id="DejaVuSans-65" transform="scale(0.015625)"/>
      <path d="M 2906 1791 
Q 2906 2416 2648 2759 
Q 2391 3103 1925 3103 
Q 1463 3103 1205 2759 
Q 947 2416 947 1791 
Q 947 1169 1205 825 
Q 1463 481 1925 481 
Q 2391 481 2648 825 
Q 2906 1169 2906 1791 
z
M 3481 434 
Q 3481 -459 3084 -895 
Q 2688 -1331 1869 -1331 
Q 1566 -1331 1297 -1286 
Q 1028 -1241 775 -1147 
L 775 -588 
Q 1028 -725 1275 -790 
Q 1522 -856 1778 -856 
Q 2344 -856 2625 -561 
Q 2906 -266 2906 331 
L 2906 616 
Q 2728 306 2450 153 
Q 2172 0 1784 0 
Q 1141 0 747 490 
Q 353 981 353 1791 
Q 353 2603 747 3093 
Q 1141 3584 1784 3584 
Q 2172 3584 2450 3431 
Q 2728 3278 2906 2969 
L 2906 3500 
L 3481 3500 
L 3481 434 
z
" id="DejaVuSans-67" transform="scale(0.015625)"/>
      <path d="M 2834 3397 
L 2834 2853 
Q 2591 2978 2328 3040 
Q 2066 3103 1784 3103 
Q 1356 3103 1142 2972 
Q 928 2841 928 2578 
Q 928 2378 1081 2264 
Q 1234 2150 1697 2047 
L 1894 2003 
Q 2506 1872 2764 1633 
Q 3022 1394 3022 966 
Q 3022 478 2636 193 
Q 2250 -91 1575 -91 
Q 1294 -91 989 -36 
Q 684 19 347 128 
L 347 722 
Q 666 556 975 473 
Q 1284 391 1588 391 
Q 1994 391 2212 530 
Q 2431 669 2431 922 
Q 2431 1156 2273 1281 
Q 2116 1406 1581 1522 
L 1381 1569 
Q 847 1681 609 1914 
Q 372 2147 372 2553 
Q 372 3047 722 3315 
Q 1072 3584 1716 3584 
Q 2034 3584 2315 3537 
Q 2597 3491 2834 3397 
z
" id="DejaVuSans-73" transform="scale(0.015625)"/>
      <path d="M 1172 4494 
L 1172 3500 
L 2356 3500 
L 2356 3053 
L 1172 3053 
L 1172 1153 
Q 1172 725 1289 603 
Q 1406 481 1766 481 
L 2356 481 
L 2356 0 
L 1766 0 
Q 1100 0 847 248 
Q 594 497 594 1153 
L 594 3053 
L 172 3053 
L 172 3500 
L 594 3500 
L 594 4494 
L 1172 4494 
z
" id="DejaVuSans-74" transform="scale(0.015625)"/>
      <path d="M 2059 -325 
Q 1816 -950 1584 -1140 
Q 1353 -1331 966 -1331 
L 506 -1331 
L 506 -850 
L 844 -850 
Q 1081 -850 1212 -737 
Q 1344 -625 1503 -206 
L 1606 56 
L 191 3500 
L 800 3500 
L 1894 763 
L 2988 3500 
L 3597 3500 
L 2059 -325 
z
" id="DejaVuSans-79" transform="scale(0.015625)"/>
     </defs>
     <use xlink:href="#DejaVuSans-42"/>
     <use x="68.603516" xlink:href="#DejaVuSans-69"/>
     <use x="96.386719" xlink:href="#DejaVuSans-6f"/>
     <use x="157.568359" xlink:href="#DejaVuSans-72"/>
     <use x="196.431641" xlink:href="#DejaVuSans-65"/>
     <use x="257.955078" xlink:href="#DejaVuSans-67"/>
     <use x="321.431641" xlink:href="#DejaVuSans-69"/>
     <use x="349.214844" xlink:href="#DejaVuSans-73"/>
     <use x="401.314453" xlink:href="#DejaVuSans-74"/>
     <use x="440.523438" xlink:href="#DejaVuSans-72"/>
     <use x="481.636719" xlink:href="#DejaVuSans-79"/>
    </g>
   </g>
   <g id="text_5">
    <!-- OBO -->
    <g style="fill:#262626;" transform="translate(144.388226 107.813204)scale(0.12 -0.12)">
     <defs>
      <path d="M 2522 4238 
Q 1834 4238 1429 3725 
Q 1025 3213 1025 2328 
Q 1025 1447 1429 934 
Q 1834 422 2522 422 
Q 3209 422 3611 934 
Q 4013 1447 4013 2328 
Q 4013 3213 3611 3725 
Q 3209 4238 2522 4238 
z
M 2522 4750 
Q 3503 4750 4090 4092 
Q 4678 3434 4678 2328 
Q 4678 1225 4090 567 
Q 3503 -91 2522 -91 
Q 1538 -91 948 565 
Q 359 1222 359 2328 
Q 359 3434 948 4092 
Q 1538 4750 2522 4750 
z
" id="DejaVuSans-4f" transform="scale(0.015625)"/>
     </defs>
     <use xlink:href="#DejaVuSans-4f"/>
     <use x="78.710938" xlink:href="#DejaVuSans-42"/>
     <use x="145.564453" xlink:href="#DejaVuSans-4f"/>
    </g>
   </g>
  </g>
  <g id="axes_2">
   <g id="patch_5">
    <path clip-path="url(#p462ba80f80)" d="M 391.57454 81.236968 
C 390.484858 83.774619 388.968202 86.106808 387.090571 88.132045 
C 385.212941 90.157283 383.001971 91.845762 380.553875 93.124006 
C 378.105778 94.402251 375.456587 95.251446 372.721583 95.634641 
C 369.986579 96.017835 367.206018 95.929388 364.500896 95.373147 
C 361.795775 94.816907 359.205909 93.801061 356.844 92.369814 
C 354.48209 90.938567 352.3829 89.112985 350.637777 86.972511 
C 348.892655 84.832036 347.527285 82.408173 346.601084 79.806397 
C 345.674882 77.204622 345.201481 74.463228 345.201481 71.70151 
C 345.201481 68.939793 345.674882 66.198399 346.601084 63.596624 
C 347.527285 60.994848 348.892655 58.570985 350.637777 56.43051 
C 352.3829 54.290035 354.48209 52.464454 356.844 51.033207 
C 359.205909 49.60196 361.795775 48.586114 364.500896 48.029874 
C 367.206018 47.473633 369.986579 47.385186 372.721583 47.76838 
C 375.456587 48.151574 378.105778 49.00077 380.553875 50.279015 
C 383.001971 51.557259 385.212941 53.245738 387.090571 55.270975 
C 388.968202 57.296213 390.484858 59.628401 391.57454 62.166053 
C 390.396685 55.886193 388.065393 49.878587 384.69894 44.448027 
C 381.332488 39.017467 376.988786 34.257371 371.88821 30.409241 
C 366.787634 26.56111 361.017926 23.691141 354.871807 21.94494 
C 348.725689 20.19874 342.308889 19.606345 335.946959 20.197813 
C 329.585029 20.78928 323.38741 22.554434 317.668534 25.403722 
C 311.949657 28.253009 306.807902 32.137414 302.504131 36.859865 
C 298.20036 41.582316 294.808609 47.061575 292.500957 53.019656 
C 290.193304 58.977736 289.009446 65.312145 289.009446 71.70151 
C 289.009446 78.090875 290.193304 84.425284 292.500957 90.383365 
C 294.808609 96.341446 298.20036 101.820705 302.504131 106.543156 
C 306.807902 111.265607 311.949657 115.150012 317.668534 117.999299 
C 323.38741 120.848586 329.585029 122.613741 335.946959 123.205208 
C 342.308889 123.796675 348.725689 123.204281 354.871807 121.458081 
C 361.017926 119.71188 366.787634 116.841911 371.88821 112.99378 
C 376.988786 109.14565 381.332488 104.385554 384.69894 98.954994 
C 388.065393 93.524434 390.396685 87.516828 391.57454 81.236968 
" style="fill:#c0c0c0;opacity:0.4;"/>
   </g>
   <g id="patch_6">
    <path clip-path="url(#p462ba80f80)" d="M 391.57454 62.166053 
C 392.164275 65.310283 392.46105 68.502453 392.46105 71.70151 
C 392.46105 74.900568 392.164275 78.092738 391.57454 81.236968 
C 392.868125 78.224468 393.535268 74.980003 393.535268 71.70151 
C 393.535268 68.423018 392.868125 65.178553 391.57454 62.166053 
" style="fill:#1f78b4;opacity:0.4;"/>
   </g>
   <g id="patch_7">
    <path clip-path="url(#p462ba80f80)" d="M 391.57454 81.236968 
C 392.164275 78.092738 392.46105 74.900568 392.46105 71.70151 
C 392.46105 68.502453 392.164275 65.310283 391.57454 62.166053 
C 390.484858 59.628401 388.968202 57.296213 387.090571 55.270975 
C 385.212941 53.245738 383.001971 51.557259 380.553875 50.279015 
C 378.105778 49.00077 375.456587 48.151574 372.721583 47.76838 
C 369.986579 47.385186 367.206018 47.473633 364.500896 48.029874 
C 361.795775 48.586114 359.205909 49.60196 356.844 51.033207 
C 354.48209 52.464454 352.3829 54.290035 350.637777 56.43051 
C 348.892655 58.570985 347.527285 60.994848 346.601084 63.596624 
C 345.674882 66.198399 345.201481 68.939793 345.201481 71.70151 
C 345.201481 74.463228 345.674882 77.204622 346.601084 79.806397 
C 347.527285 82.408173 348.892655 84.832036 350.637777 86.972511 
C 352.3829 89.112985 354.48209 90.938567 356.844 92.369814 
C 359.205909 93.801061 361.795775 94.816907 364.500896 95.373147 
C 367.206018 95.929388 369.986579 96.017835 372.721583 95.634641 
C 375.456587 95.251446 378.105778 94.402251 380.553875 93.124006 
C 383.001971 91.845762 385.212941 90.157283 387.090571 88.132045 
C 388.968202 86.106808 390.484858 83.774619 391.57454 81.236968 
" style="fill:#9cdaff;opacity:0.4;"/>
   </g>
   <g id="text_6">
    <!-- 951 -->
    <g style="fill:#262626;" transform="translate(307.561714 74.460885)scale(0.1 -0.1)">
     <defs>
      <path d="M 691 4666 
L 3169 4666 
L 3169 4134 
L 1269 4134 
L 1269 2991 
Q 1406 3038 1543 3061 
Q 1681 3084 1819 3084 
Q 2600 3084 3056 2656 
Q 3513 2228 3513 1497 
Q 3513 744 3044 326 
Q 2575 -91 1722 -91 
Q 1428 -91 1123 -41 
Q 819 9 494 109 
L 494 744 
Q 775 591 1075 516 
Q 1375 441 1709 441 
Q 2250 441 2565 725 
Q 2881 1009 2881 1497 
Q 2881 1984 2565 2268 
Q 2250 2553 1709 2553 
Q 1456 2553 1204 2497 
Q 953 2441 691 2322 
L 691 4666 
z
" id="DejaVuSans-35" transform="scale(0.015625)"/>
     </defs>
     <use xlink:href="#DejaVuSans-39"/>
     <use x="63.623047" xlink:href="#DejaVuSans-35"/>
     <use x="127.246094" xlink:href="#DejaVuSans-31"/>
    </g>
   </g>
   <g id="text_7">
    <!-- 2 -->
    <g style="fill:#262626;" transform="translate(389.816909 74.460885)scale(0.1 -0.1)">
     <use xlink:href="#DejaVuSans-32"/>
    </g>
   </g>
   <g id="text_8">
    <!-- 263 -->
    <g style="fill:#262626;" transform="translate(359.287516 74.460885)scale(0.1 -0.1)">
     <defs>
      <path d="M 2113 2584 
Q 1688 2584 1439 2293 
Q 1191 2003 1191 1497 
Q 1191 994 1439 701 
Q 1688 409 2113 409 
Q 2538 409 2786 701 
Q 3034 994 3034 1497 
Q 3034 2003 2786 2293 
Q 2538 2584 2113 2584 
z
M 3366 4563 
L 3366 3988 
Q 3128 4100 2886 4159 
Q 2644 4219 2406 4219 
Q 1781 4219 1451 3797 
Q 1122 3375 1075 2522 
Q 1259 2794 1537 2939 
Q 1816 3084 2150 3084 
Q 2853 3084 3261 2657 
Q 3669 2231 3669 1497 
Q 3669 778 3244 343 
Q 2819 -91 2113 -91 
Q 1303 -91 875 529 
Q 447 1150 447 2328 
Q 447 3434 972 4092 
Q 1497 4750 2381 4750 
Q 2619 4750 2861 4703 
Q 3103 4656 3366 4563 
z
" id="DejaVuSans-36" transform="scale(0.015625)"/>
     </defs>
     <use xlink:href="#DejaVuSans-32"/>
     <use x="63.623047" xlink:href="#DejaVuSans-36"/>
     <use x="127.246094" xlink:href="#DejaVuSans-33"/>
    </g>
   </g>
   <g id="text_9">
    <!-- Bioregistry -->
    <g style="fill:#262626;" transform="translate(275.835873 136.340072)scale(0.12 -0.12)">
     <use xlink:href="#DejaVuSans-42"/>
     <use x="68.603516" xlink:href="#DejaVuSans-69"/>
     <use x="96.386719" xlink:href="#DejaVuSans-6f"/>
     <use x="157.568359" xlink:href="#DejaVuSans-72"/>
     <use x="196.431641" xlink:href="#DejaVuSans-65"/>
     <use x="257.955078" xlink:href="#DejaVuSans-67"/>
     <use x="321.431641" xlink:href="#DejaVuSans-69"/>
     <use x="349.214844" xlink:href="#DejaVuSans-73"/>
     <use x="401.314453" xlink:href="#DejaVuSans-74"/>
     <use x="440.523438" xlink:href="#DejaVuSans-72"/>
     <use x="481.636719" xlink:href="#DejaVuSans-79"/>
    </g>
   </g>
   <g id="text_10">
    <!-- OLS -->
    <g style="fill:#262626;" transform="translate(369.368375 108.781164)scale(0.12 -0.12)">
     <defs>
      <path d="M 628 4666 
L 1259 4666 
L 1259 531 
L 3531 531 
L 3531 0 
L 628 0 
L 628 4666 
z
" id="DejaVuSans-4c" transform="scale(0.015625)"/>
      <path d="M 3425 4513 
L 3425 3897 
Q 3066 4069 2747 4153 
Q 2428 4238 2131 4238 
Q 1616 4238 1336 4038 
Q 1056 3838 1056 3469 
Q 1056 3159 1242 3001 
Q 1428 2844 1947 2747 
L 2328 2669 
Q 3034 2534 3370 2195 
Q 3706 1856 3706 1288 
Q 3706 609 3251 259 
Q 2797 -91 1919 -91 
Q 1588 -91 1214 -16 
Q 841 59 441 206 
L 441 856 
Q 825 641 1194 531 
Q 1563 422 1919 422 
Q 2459 422 2753 634 
Q 3047 847 3047 1241 
Q 3047 1584 2836 1778 
Q 2625 1972 2144 2069 
L 1759 2144 
Q 1053 2284 737 2584 
Q 422 2884 422 3419 
Q 422 4038 858 4394 
Q 1294 4750 2059 4750 
Q 2388 4750 2728 4690 
Q 3069 4631 3425 4513 
z
" id="DejaVuSans-53" transform="scale(0.015625)"/>
     </defs>
     <use xlink:href="#DejaVuSans-4f"/>
     <use x="78.710938" xlink:href="#DejaVuSans-4c"/>
     <use x="134.423828" xlink:href="#DejaVuSans-53"/>
    </g>
   </g>
  </g>
  <g id="axes_3">
   <g id="patch_8">
    <path clip-path="url(#p60c9c9dfb2)" d="M 617.377717 84.077922 
C 615.91232 88.695057 613.638483 93.01545 610.662326 96.837466 
C 607.68617 100.659482 604.054725 103.922723 599.937474 106.474892 
C 595.820224 109.02706 591.282231 110.827825 586.535286 111.793142 
C 581.788342 112.75846 576.907462 112.873076 572.120438 112.131641 
C 567.333415 111.390207 562.715897 109.804438 558.483387 107.448345 
C 554.250878 105.092251 550.470261 102.003065 547.317981 98.324961 
C 544.165702 94.646856 541.691574 90.437958 540.011067 85.894698 
C 538.33056 81.351438 537.47023 76.545612 537.47023 71.70151 
C 537.47023 66.857409 538.33056 62.051583 540.011067 57.508323 
C 541.691574 52.965063 544.165702 48.756164 547.317981 45.07806 
C 550.470261 41.399956 554.250878 38.31077 558.483387 35.954676 
C 562.715897 33.598583 567.333415 32.012814 572.120438 31.271379 
C 576.907462 30.529945 581.788342 30.644561 586.535286 31.609879 
C 591.282231 32.575196 595.820224 34.375961 599.937474 36.928129 
C 604.054725 39.480297 607.68617 42.743539 610.662326 46.565555 
C 613.638483 50.387571 615.91232 54.707964 617.377717 59.325099 
C 615.878154 53.239492 613.284976 47.476781 609.724835 42.31842 
C 606.164693 37.16006 601.696509 32.691419 596.538511 29.130752 
C 591.380513 25.570085 585.618066 22.97632 579.532613 21.476137 
C 573.44716 19.975954 567.139413 19.594183 560.917449 20.349468 
C 554.695485 21.104753 548.662276 22.984595 543.112489 25.897182 
C 537.562703 28.809768 532.588186 32.706895 528.4319 37.398225 
C 524.275613 42.089554 521.006342 47.497445 518.783761 53.357772 
C 516.56118 59.218098 515.422072 65.433872 515.422072 71.70151 
C 515.422072 77.969149 516.56118 84.184923 518.783761 90.045249 
C 521.006342 95.905576 524.275613 101.313467 528.4319 106.004796 
C 532.588186 110.696126 537.562703 114.593253 543.112489 117.505839 
C 548.662276 120.418426 554.695485 122.298268 560.917449 123.053553 
C 567.139413 123.808838 573.44716 123.427066 579.532613 121.926884 
C 585.618066 120.426701 591.380513 117.832935 596.538511 114.272268 
C 601.696509 110.711601 606.164693 106.242961 609.724835 101.084601 
C 613.284976 95.92624 615.878154 90.163529 617.377717 84.077922 
" style="fill:#c0c0c0;opacity:0.4;"/>
   </g>
   <g id="patch_9">
    <path clip-path="url(#p60c9c9dfb2)" d="M 617.377717 59.325099 
C 618.375634 63.3749 618.880091 67.530572 618.880091 71.70151 
C 618.880091 75.872449 618.375634 80.028121 617.377717 84.077922 
C 618.648073 80.075316 619.294628 75.900875 619.294628 71.70151 
C 619.294628 67.502146 618.648073 63.327705 617.377717 59.325099 
" style="fill:#b2df8a;opacity:0.4;"/>
   </g>
   <g id="patch_10">
    <path clip-path="url(#p60c9c9dfb2)" d="M 617.377717 84.077922 
C 618.375634 80.028121 618.880091 75.872449 618.880091 71.70151 
C 618.880091 67.530572 618.375634 63.3749 617.377717 59.325099 
C 615.91232 54.707964 613.638483 50.387571 610.662326 46.565555 
C 607.68617 42.743539 604.054725 39.480297 599.937474 36.928129 
C 595.820224 34.375961 591.282231 32.575196 586.535286 31.609879 
C 581.788342 30.644561 576.907462 30.529945 572.120438 31.271379 
C 567.333415 32.012814 562.715897 33.598583 558.483387 35.954676 
C 554.250878 38.31077 550.470261 41.399956 547.317981 45.07806 
C 544.165702 48.756164 541.691574 52.965063 540.011067 57.508323 
C 538.33056 62.051583 537.47023 66.857409 537.47023 71.70151 
C 537.47023 76.545612 538.33056 81.351438 540.011067 85.894698 
C 541.691574 90.437958 544.165702 94.646856 547.317981 98.324961 
C 550.470261 102.003065 554.250878 105.092251 558.483387 107.448345 
C 562.715897 109.804438 567.333415 111.390207 572.120438 112.131641 
C 576.907462 112.873076 581.788342 112.75846 586.535286 111.793142 
C 591.282231 110.827825 595.820224 109.02706 599.937474 106.474892 
C 604.054725 103.922723 607.68617 100.659482 610.662326 96.837466 
C 613.638483 93.01545 615.91232 88.695057 617.377717 84.077922 
" style="fill:#ffffe7;opacity:0.4;"/>
   </g>
   <g id="text_11">
    <!-- 456 -->
    <g style="fill:#262626;" transform="translate(516.902401 74.460885)scale(0.1 -0.1)">
     <use xlink:href="#DejaVuSans-34"/>
     <use x="63.623047" xlink:href="#DejaVuSans-35"/>
     <use x="127.246094" xlink:href="#DejaVuSans-36"/>
    </g>
   </g>
   <g id="text_12">
    <!-- 1 -->
    <g style="fill:#262626;" transform="translate(615.90611 74.460885)scale(0.1 -0.1)">
     <use xlink:href="#DejaVuSans-31"/>
    </g>
   </g>
   <g id="text_13">
    <!-- 759 -->
    <g style="fill:#262626;" transform="translate(568.631411 74.460885)scale(0.1 -0.1)">
     <use xlink:href="#DejaVuSans-37"/>
     <use x="63.623047" xlink:href="#DejaVuSans-35"/>
     <use x="127.246094" xlink:href="#DejaVuSans-39"/>
    </g>
   </g>
   <g id="text_14">
    <!-- Bioregistry -->
    <g style="fill:#262626;" transform="translate(502.251707 137.180706)scale(0.12 -0.12)">
     <use xlink:href="#DejaVuSans-42"/>
     <use x="68.603516" xlink:href="#DejaVuSans-69"/>
     <use x="96.386719" xlink:href="#DejaVuSans-6f"/>
     <use x="157.568359" xlink:href="#DejaVuSans-72"/>
     <use x="196.431641" xlink:href="#DejaVuSans-65"/>
     <use x="257.955078" xlink:href="#DejaVuSans-67"/>
     <use x="321.431641" xlink:href="#DejaVuSans-69"/>
     <use x="349.214844" xlink:href="#DejaVuSans-73"/>
     <use x="401.314453" xlink:href="#DejaVuSans-74"/>
     <use x="440.523438" xlink:href="#DejaVuSans-72"/>
     <use x="481.636719" xlink:href="#DejaVuSans-79"/>
    </g>
   </g>
   <g id="text_15">
    <!-- MIRIAM -->
    <g style="fill:#262626;" transform="translate(578.382429 126.363895)scale(0.12 -0.12)">
     <defs>
      <path d="M 628 4666 
L 1569 4666 
L 2759 1491 
L 3956 4666 
L 4897 4666 
L 4897 0 
L 4281 0 
L 4281 4097 
L 3078 897 
L 2444 897 
L 1241 4097 
L 1241 0 
L 628 0 
L 628 4666 
z
" id="DejaVuSans-4d" transform="scale(0.015625)"/>
      <path d="M 628 4666 
L 1259 4666 
L 1259 0 
L 628 0 
L 628 4666 
z
" id="DejaVuSans-49" transform="scale(0.015625)"/>
      <path d="M 2841 2188 
Q 3044 2119 3236 1894 
Q 3428 1669 3622 1275 
L 4263 0 
L 3584 0 
L 2988 1197 
Q 2756 1666 2539 1819 
Q 2322 1972 1947 1972 
L 1259 1972 
L 1259 0 
L 628 0 
L 628 4666 
L 2053 4666 
Q 2853 4666 3247 4331 
Q 3641 3997 3641 3322 
Q 3641 2881 3436 2590 
Q 3231 2300 2841 2188 
z
M 1259 4147 
L 1259 2491 
L 2053 2491 
Q 2509 2491 2742 2702 
Q 2975 2913 2975 3322 
Q 2975 3731 2742 3939 
Q 2509 4147 2053 4147 
L 1259 4147 
z
" id="DejaVuSans-52" transform="scale(0.015625)"/>
      <path d="M 2188 4044 
L 1331 1722 
L 3047 1722 
L 2188 4044 
z
M 1831 4666 
L 2547 4666 
L 4325 0 
L 3669 0 
L 3244 1197 
L 1141 1197 
L 716 0 
L 50 0 
L 1831 4666 
z
" id="DejaVuSans-41" transform="scale(0.015625)"/>
     </defs>
     <use xlink:href="#DejaVuSans-4d"/>
     <use x="86.279297" xlink:href="#DejaVuSans-49"/>
     <use x="115.771484" xlink:href="#DejaVuSans-52"/>
     <use x="185.253906" xlink:href="#DejaVuSans-49"/>
     <use x="214.746094" xlink:href="#DejaVuSans-41"/>
     <use x="283.154297" xlink:href="#DejaVuSans-4d"/>
    </g>
   </g>
  </g>
  <g id="axes_4">
   <g id="patch_11">
    <path clip-path="url(#p12adf9653a)" d="M 146.823272 230.911661 
C 144.258102 228.836596 142.189017 226.21404 140.767831 223.236419 
C 139.346645 220.258799 138.60899 217.000766 138.60899 213.701373 
C 138.60899 210.40198 139.346645 207.143947 140.767831 204.166326 
C 142.189017 201.188706 144.258102 198.56615 146.823272 196.491085 
C 144.811394 190.859417 141.8275 185.623905 138.007384 181.022812 
C 134.187268 176.42172 129.589774 172.525919 124.42413 169.512705 
C 119.258486 166.499492 113.60426 164.415279 107.718772 163.354917 
C 101.833284 162.294556 95.80719 162.274379 89.914734 163.295305 
C 84.022277 164.316231 78.354221 166.362535 73.168515 169.34109 
C 67.982809 172.319645 63.35933 176.184571 59.50849 180.75998 
C 55.657649 185.335388 52.638763 190.550802 50.589218 196.168871 
C 48.539673 201.78694 47.491039 207.721127 47.491039 213.701373 
C 47.491039 219.681618 48.539673 225.615806 50.589218 231.233875 
C 52.638763 236.851944 55.657649 242.067358 59.50849 246.642766 
C 63.35933 251.218175 67.982809 255.083101 73.168515 258.061656 
C 78.354221 261.040211 84.022277 263.086514 89.914734 264.107441 
C 95.80719 265.128367 101.833284 265.10819 107.718772 264.047828 
C 113.60426 262.987467 119.258486 260.903254 124.42413 257.89004 
C 129.589774 254.876827 134.187268 250.981026 138.007384 246.379934 
C 141.8275 241.778841 144.811394 236.543329 146.823272 230.911661 
" style="fill:#c0c0c0;opacity:0.4;"/>
   </g>
   <g id="patch_12">
    <path clip-path="url(#p12adf9653a)" d="M 146.823272 196.491085 
C 148.796448 202.014415 149.805124 207.83617 149.805124 213.701373 
C 149.805124 219.566575 148.796448 225.38833 146.823272 230.911661 
C 150.072729 233.540272 154.001154 235.195617 158.151912 235.685279 
C 162.302671 236.174941 166.508454 235.479185 170.280387 233.678882 
C 174.05232 231.87858 177.238363 229.046299 179.468176 225.51126 
C 181.697988 221.976221 182.881691 217.880914 182.881691 213.701373 
C 182.881691 209.521832 181.697988 205.426525 179.468176 201.891486 
C 177.238363 198.356447 174.05232 195.524166 170.280387 193.723863 
C 166.508454 191.923561 162.302671 191.227804 158.151912 191.717467 
C 154.001154 192.207129 150.072729 193.862474 146.823272 196.491085 
" style="fill:#33a02c;opacity:0.4;"/>
   </g>
   <g id="patch_13">
    <path clip-path="url(#p12adf9653a)" d="M 146.823272 230.911661 
C 148.796448 225.38833 149.805124 219.566575 149.805124 213.701373 
C 149.805124 207.83617 148.796448 202.014415 146.823272 196.491085 
C 144.258102 198.56615 142.189017 201.188706 140.767831 204.166326 
C 139.346645 207.143947 138.60899 210.40198 138.60899 213.701373 
C 138.60899 217.000766 139.346645 220.258799 140.767831 223.236419 
C 142.189017 226.21404 144.258102 228.836596 146.823272 230.911661 
" style="fill:#aaf6a5;opacity:0.4;"/>
   </g>
   <g id="text_16">
    <!-- 1168 -->
    <g style="fill:#262626;" transform="translate(80.325014 216.460748)scale(0.1 -0.1)">
     <defs>
      <path d="M 2034 2216 
Q 1584 2216 1326 1975 
Q 1069 1734 1069 1313 
Q 1069 891 1326 650 
Q 1584 409 2034 409 
Q 2484 409 2743 651 
Q 3003 894 3003 1313 
Q 3003 1734 2745 1975 
Q 2488 2216 2034 2216 
z
M 1403 2484 
Q 997 2584 770 2862 
Q 544 3141 544 3541 
Q 544 4100 942 4425 
Q 1341 4750 2034 4750 
Q 2731 4750 3128 4425 
Q 3525 4100 3525 3541 
Q 3525 3141 3298 2862 
Q 3072 2584 2669 2484 
Q 3125 2378 3379 2068 
Q 3634 1759 3634 1313 
Q 3634 634 3220 271 
Q 2806 -91 2034 -91 
Q 1263 -91 848 271 
Q 434 634 434 1313 
Q 434 1759 690 2068 
Q 947 2378 1403 2484 
z
M 1172 3481 
Q 1172 3119 1398 2916 
Q 1625 2713 2034 2713 
Q 2441 2713 2670 2916 
Q 2900 3119 2900 3481 
Q 2900 3844 2670 4047 
Q 2441 4250 2034 4250 
Q 1625 4250 1398 4047 
Q 1172 3844 1172 3481 
z
" id="DejaVuSans-38" transform="scale(0.015625)"/>
     </defs>
     <use xlink:href="#DejaVuSans-31"/>
     <use x="63.623047" xlink:href="#DejaVuSans-31"/>
     <use x="127.246094" xlink:href="#DejaVuSans-36"/>
     <use x="190.869141" xlink:href="#DejaVuSans-38"/>
    </g>
   </g>
   <g id="text_17">
    <!-- 187 -->
    <g style="fill:#262626;" transform="translate(156.799657 216.460748)scale(0.1 -0.1)">
     <use xlink:href="#DejaVuSans-31"/>
     <use x="63.623047" xlink:href="#DejaVuSans-38"/>
     <use x="127.246094" xlink:href="#DejaVuSans-37"/>
    </g>
   </g>
   <g id="text_18">
    <!-- 39 -->
    <g style="fill:#262626;" transform="translate(137.844557 216.460748)scale(0.1 -0.1)">
     <use xlink:href="#DejaVuSans-33"/>
     <use x="63.623047" xlink:href="#DejaVuSans-39"/>
    </g>
   </g>
   <g id="text_19">
    <!-- Bioregistry -->
    <g style="fill:#262626;" transform="translate(33.748706 277.64121)scale(0.12 -0.12)">
     <use xlink:href="#DejaVuSans-42"/>
     <use x="68.603516" xlink:href="#DejaVuSans-69"/>
     <use x="96.386719" xlink:href="#DejaVuSans-6f"/>
     <use x="157.568359" xlink:href="#DejaVuSans-72"/>
     <use x="196.431641" xlink:href="#DejaVuSans-65"/>
     <use x="257.955078" xlink:href="#DejaVuSans-67"/>
     <use x="321.431641" xlink:href="#DejaVuSans-69"/>
     <use x="349.214844" xlink:href="#DejaVuSans-73"/>
     <use x="401.314453" xlink:href="#DejaVuSans-74"/>
     <use x="440.523438" xlink:href="#DejaVuSans-72"/>
     <use x="481.636719" xlink:href="#DejaVuSans-79"/>
    </g>
   </g>
   <g id="text_20">
    <!-- Wikidata -->
    <g style="fill:#262626;" transform="translate(160.74534 248.620518)scale(0.12 -0.12)">
     <defs>
      <path d="M 213 4666 
L 850 4666 
L 1831 722 
L 2809 4666 
L 3519 4666 
L 4500 722 
L 5478 4666 
L 6119 4666 
L 4947 0 
L 4153 0 
L 3169 4050 
L 2175 0 
L 1381 0 
L 213 4666 
z
" id="DejaVuSans-57" transform="scale(0.015625)"/>
      <path d="M 581 4863 
L 1159 4863 
L 1159 1991 
L 2875 3500 
L 3609 3500 
L 1753 1863 
L 3688 0 
L 2938 0 
L 1159 1709 
L 1159 0 
L 581 0 
L 581 4863 
z
" id="DejaVuSans-6b" transform="scale(0.015625)"/>
      <path d="M 2906 2969 
L 2906 4863 
L 3481 4863 
L 3481 0 
L 2906 0 
L 2906 525 
Q 2725 213 2448 61 
Q 2172 -91 1784 -91 
Q 1150 -91 751 415 
Q 353 922 353 1747 
Q 353 2572 751 3078 
Q 1150 3584 1784 3584 
Q 2172 3584 2448 3432 
Q 2725 3281 2906 2969 
z
M 947 1747 
Q 947 1113 1208 752 
Q 1469 391 1925 391 
Q 2381 391 2643 752 
Q 2906 1113 2906 1747 
Q 2906 2381 2643 2742 
Q 2381 3103 1925 3103 
Q 1469 3103 1208 2742 
Q 947 2381 947 1747 
z
" id="DejaVuSans-64" transform="scale(0.015625)"/>
      <path d="M 2194 1759 
Q 1497 1759 1228 1600 
Q 959 1441 959 1056 
Q 959 750 1161 570 
Q 1363 391 1709 391 
Q 2188 391 2477 730 
Q 2766 1069 2766 1631 
L 2766 1759 
L 2194 1759 
z
M 3341 1997 
L 3341 0 
L 2766 0 
L 2766 531 
Q 2569 213 2275 61 
Q 1981 -91 1556 -91 
Q 1019 -91 701 211 
Q 384 513 384 1019 
Q 384 1609 779 1909 
Q 1175 2209 1959 2209 
L 2766 2209 
L 2766 2266 
Q 2766 2663 2505 2880 
Q 2244 3097 1772 3097 
Q 1472 3097 1187 3025 
Q 903 2953 641 2809 
L 641 3341 
Q 956 3463 1253 3523 
Q 1550 3584 1831 3584 
Q 2591 3584 2966 3190 
Q 3341 2797 3341 1997 
z
" id="DejaVuSans-61" transform="scale(0.015625)"/>
     </defs>
     <use xlink:href="#DejaVuSans-57"/>
     <use x="96.626953" xlink:href="#DejaVuSans-69"/>
     <use x="124.410156" xlink:href="#DejaVuSans-6b"/>
     <use x="182.320312" xlink:href="#DejaVuSans-69"/>
     <use x="210.103516" xlink:href="#DejaVuSans-64"/>
     <use x="273.580078" xlink:href="#DejaVuSans-61"/>
     <use x="334.859375" xlink:href="#DejaVuSans-74"/>
     <use x="374.068359" xlink:href="#DejaVuSans-61"/>
    </g>
   </g>
  </g>
  <g id="axes_5">
   <g id="patch_14">
    <path clip-path="url(#p62f8c7c99b)" d="M 386.4856 236.730397 
C 384.075057 240.005236 381.165208 242.881377 377.862507 245.253601 
C 374.559806 247.625825 370.905026 249.464845 367.031874 250.703382 
C 363.158722 251.941918 359.115013 252.564682 355.048684 252.54889 
C 350.982355 252.533097 346.943606 251.878943 343.080191 250.610359 
C 339.216776 249.341775 335.576391 247.474422 332.292215 245.076616 
C 329.00804 242.678811 326.120618 239.780154 323.735586 236.486691 
C 321.350553 233.193228 319.497353 229.545617 318.243783 225.677304 
C 316.990213 221.808992 316.351749 217.767732 316.351749 213.701373 
C 316.351749 209.635013 316.990213 205.593754 318.243783 201.725441 
C 319.497353 197.857129 321.350553 194.209518 323.735586 190.916055 
C 326.120618 187.622592 329.00804 184.723935 332.292215 182.326129 
C 335.576391 179.928324 339.216776 178.060971 343.080191 176.792387 
C 346.943606 175.523803 350.982355 174.869649 355.048684 174.853856 
C 359.115013 174.838063 363.158722 175.460827 367.031874 176.699364 
C 370.905026 177.937901 374.559806 179.776921 377.862507 182.149145 
C 381.165208 184.521368 384.075057 187.39751 386.4856 190.672348 
C 383.908092 185.491594 380.478999 180.780139 376.341535 176.734752 
C 372.20407 172.689366 367.416646 169.36716 362.179204 166.906882 
C 356.941761 164.446605 351.328243 162.882991 345.57309 162.281342 
C 339.817937 161.679693 334.002401 162.048504 328.369361 163.372371 
C 322.736321 164.696238 317.365303 166.956471 312.480623 170.058674 
C 307.595943 173.160878 303.266562 177.061255 299.673291 181.59691 
C 296.08002 186.132566 293.27359 191.239466 291.371207 196.704327 
C 289.468824 202.169188 288.497346 207.914857 288.497346 213.701373 
C 288.497346 219.487889 289.468824 225.233558 291.371207 230.698419 
C 293.27359 236.163279 296.08002 241.27018 299.673291 245.805835 
C 303.266562 250.341491 307.595943 254.241868 312.480623 257.344071 
C 317.365303 260.446275 322.736321 262.706508 328.369361 264.030375 
C 334.002401 265.354242 339.817937 265.723053 345.57309 265.121404 
C 351.328243 264.519755 356.941761 262.95614 362.179204 260.495863 
C 367.416646 258.035586 372.20407 254.71338 376.341535 250.667993 
C 380.478999 246.622607 383.908092 241.911152 386.4856 236.730397 
" style="fill:#c0c0c0;opacity:0.4;"/>
   </g>
   <g id="patch_15">
    <path clip-path="url(#p62f8c7c99b)" d="M 386.4856 190.672348 
C 390.045108 197.826908 391.89784 205.710264 391.89784 213.701373 
C 391.89784 221.692481 390.045108 229.575838 386.4856 236.730397 
C 391.396968 230.058067 394.047369 221.986391 394.047369 213.701373 
C 394.047369 205.416355 391.396968 197.344678 386.4856 190.672348 
" style="fill:#fb9a99;opacity:0.4;"/>
   </g>
   <g id="patch_16">
    <path clip-path="url(#p62f8c7c99b)" d="M 386.4856 236.730397 
C 390.045108 229.575838 391.89784 221.692481 391.89784 213.701373 
C 391.89784 205.710264 390.045108 197.826908 386.4856 190.672348 
C 384.075057 187.39751 381.165208 184.521368 377.862507 182.149145 
C 374.559806 179.776921 370.905026 177.937901 367.031874 176.699364 
C 363.158722 175.460827 359.115013 174.838063 355.048684 174.853856 
C 350.982355 174.869649 346.943606 175.523803 343.080191 176.792387 
C 339.216776 178.060971 335.576391 179.928324 332.292215 182.326129 
C 329.00804 184.723935 326.120618 187.622592 323.735586 190.916055 
C 321.350553 194.209518 319.497353 197.857129 318.243783 201.725441 
C 316.990213 205.593754 316.351749 209.635013 316.351749 213.701373 
C 316.351749 217.767732 316.990213 221.808992 318.243783 225.677304 
C 319.497353 229.545617 321.350553 233.193228 323.735586 236.486691 
C 326.120618 239.780154 329.00804 242.678811 332.292215 245.076616 
C 335.576391 247.474422 339.216776 249.341775 343.080191 250.610359 
C 346.943606 251.878943 350.982355 252.533097 355.048684 252.54889 
C 359.115013 252.564682 363.158722 251.941918 367.031874 250.703382 
C 370.905026 249.464845 374.559806 247.625825 377.862507 245.253601 
C 381.165208 242.881377 384.075057 240.005236 386.4856 236.730397 
" style="fill:#fff2f2;opacity:0.4;"/>
   </g>
   <g id="text_21">
    <!-- 539 -->
    <g style="fill:#262626;" transform="translate(292.880798 216.460748)scale(0.1 -0.1)">
     <use xlink:href="#DejaVuSans-35"/>
     <use x="63.623047" xlink:href="#DejaVuSans-33"/>
     <use x="127.246094" xlink:href="#DejaVuSans-39"/>
    </g>
   </g>
   <g id="text_22">
    <!-- 10 -->
    <g style="fill:#262626;" transform="translate(386.610104 216.460748)scale(0.1 -0.1)">
     <defs>
      <path d="M 2034 4250 
Q 1547 4250 1301 3770 
Q 1056 3291 1056 2328 
Q 1056 1369 1301 889 
Q 1547 409 2034 409 
Q 2525 409 2770 889 
Q 3016 1369 3016 2328 
Q 3016 3291 2770 3770 
Q 2525 4250 2034 4250 
z
M 2034 4750 
Q 2819 4750 3233 4129 
Q 3647 3509 3647 2328 
Q 3647 1150 3233 529 
Q 2819 -91 2034 -91 
Q 1250 -91 836 529 
Q 422 1150 422 2328 
Q 422 3509 836 4129 
Q 1250 4750 2034 4750 
z
" id="DejaVuSans-30" transform="scale(0.015625)"/>
     </defs>
     <use xlink:href="#DejaVuSans-31"/>
     <use x="63.623047" xlink:href="#DejaVuSans-30"/>
    </g>
   </g>
   <g id="text_23">
    <!-- 676 -->
    <g style="fill:#262626;" transform="translate(344.581045 216.460748)scale(0.1 -0.1)">
     <use xlink:href="#DejaVuSans-36"/>
     <use x="63.623047" xlink:href="#DejaVuSans-37"/>
     <use x="127.246094" xlink:href="#DejaVuSans-36"/>
    </g>
   </g>
   <g id="text_24">
    <!-- Bioregistry -->
    <g style="fill:#262626;" transform="translate(275.298218 279.047148)scale(0.12 -0.12)">
     <use xlink:href="#DejaVuSans-42"/>
     <use x="68.603516" xlink:href="#DejaVuSans-69"/>
     <use x="96.386719" xlink:href="#DejaVuSans-6f"/>
     <use x="157.568359" xlink:href="#DejaVuSans-72"/>
     <use x="196.431641" xlink:href="#DejaVuSans-65"/>
     <use x="257.955078" xlink:href="#DejaVuSans-67"/>
     <use x="321.431641" xlink:href="#DejaVuSans-69"/>
     <use x="349.214844" xlink:href="#DejaVuSans-73"/>
     <use x="401.314453" xlink:href="#DejaVuSans-74"/>
     <use x="440.523438" xlink:href="#DejaVuSans-72"/>
     <use x="481.636719" xlink:href="#DejaVuSans-79"/>
    </g>
   </g>
   <g id="text_25">
    <!-- N2T -->
    <g style="fill:#262626;" transform="translate(355.199559 266.19471)scale(0.12 -0.12)">
     <defs>
      <path d="M 628 4666 
L 1478 4666 
L 3547 763 
L 3547 4666 
L 4159 4666 
L 4159 0 
L 3309 0 
L 1241 3903 
L 1241 0 
L 628 0 
L 628 4666 
z
" id="DejaVuSans-4e" transform="scale(0.015625)"/>
      <path d="M -19 4666 
L 3928 4666 
L 3928 4134 
L 2272 4134 
L 2272 0 
L 1638 0 
L 1638 4134 
L -19 4134 
L -19 4666 
z
" id="DejaVuSans-54" transform="scale(0.015625)"/>
     </defs>
     <use xlink:href="#DejaVuSans-4e"/>
     <use x="74.804688" xlink:href="#DejaVuSans-32"/>
     <use x="138.427734" xlink:href="#DejaVuSans-54"/>
    </g>
   </g>
  </g>
  <g id="axes_6">
   <g id="patch_17">
    <path clip-path="url(#p29c63a017f)" d="M 602.618875 237.250354 
C 596.849253 236.574641 591.524448 233.801559 587.663109 229.461607 
C 583.80177 225.121654 581.666897 219.510428 581.666897 213.701373 
C 581.666897 207.892317 583.80177 202.281092 587.663109 197.941139 
C 591.524448 193.601187 596.849253 190.828105 602.618875 190.152392 
C 599.997719 185.07285 596.546782 180.466395 592.408621 176.523321 
C 588.27046 172.580246 583.502853 169.355605 578.302748 166.982607 
C 573.102643 164.609608 567.542646 163.121385 561.852436 162.579414 
C 556.162227 162.037443 550.421255 162.449292 544.866676 163.797947 
C 539.312098 165.146603 534.021468 167.413235 529.213341 170.504209 
C 524.405213 173.595183 520.14672 177.467344 516.613779 181.960732 
C 513.080837 186.45412 510.322775 191.505999 508.453527 196.907676 
C 506.584278 202.309354 505.629942 207.985412 505.629942 213.701373 
C 505.629942 219.417334 506.584278 225.093392 508.453527 230.495069 
C 510.322775 235.896747 513.080837 240.948626 516.613779 245.442014 
C 520.14672 249.935402 524.405213 253.807562 529.213341 256.898537 
C 534.021468 259.989511 539.312098 262.256143 544.866676 263.604798 
C 550.421255 264.953454 556.162227 265.365303 561.852436 264.823332 
C 567.542646 264.281361 573.102643 262.793137 578.302748 260.420139 
C 583.502853 258.047141 588.27046 254.8225 592.408621 250.879425 
C 596.546782 246.93635 599.997719 242.329896 602.618875 237.250354 
" style="fill:#c0c0c0;opacity:0.4;"/>
   </g>
   <g id="patch_18">
    <path clip-path="url(#p29c63a017f)" d="M 602.618875 190.152392 
C 606.375908 197.433154 608.336584 205.5084 608.336584 213.701373 
C 608.336584 221.894345 606.375908 229.969592 602.618875 237.250354 
C 605.942444 237.639595 609.311072 237.320859 612.502654 236.315161 
C 615.694235 235.309462 618.637048 233.639401 621.137061 231.415092 
C 623.637074 229.190782 625.638108 226.462208 627.008226 223.409276 
C 628.378344 220.356343 629.086758 217.047657 629.086758 213.701373 
C 629.086758 210.355088 628.378344 207.046403 627.008226 203.99347 
C 625.638108 200.940538 623.637074 198.211964 621.137061 195.987654 
C 618.637048 193.763345 615.694235 192.093284 612.502654 191.087585 
C 609.311072 190.081887 605.942444 189.763151 602.618875 190.152392 
" style="fill:#e31a1c;opacity:0.4;"/>
   </g>
   <g id="patch_19">
    <path clip-path="url(#p29c63a017f)" d="M 602.618875 237.250354 
C 606.375908 229.969592 608.336584 221.894345 608.336584 213.701373 
C 608.336584 205.5084 606.375908 197.433154 602.618875 190.152392 
C 596.849253 190.828105 591.524448 193.601187 587.663109 197.941139 
C 583.80177 202.281092 581.666897 207.892317 581.666897 213.701373 
C 581.666897 219.510428 583.80177 225.121654 587.663109 229.461607 
C 591.524448 233.801559 596.849253 236.574641 602.618875 237.250354 
" style="fill:#ff999a;opacity:0.4;"/>
   </g>
   <g id="text_26">
    <!-- 1078 -->
    <g style="fill:#262626;" transform="translate(530.92342 216.460748)scale(0.1 -0.1)">
     <use xlink:href="#DejaVuSans-31"/>
     <use x="63.623047" xlink:href="#DejaVuSans-30"/>
     <use x="127.246094" xlink:href="#DejaVuSans-37"/>
     <use x="190.869141" xlink:href="#DejaVuSans-38"/>
    </g>
   </g>
   <g id="text_27">
    <!-- 122 -->
    <g style="fill:#262626;" transform="translate(609.167921 216.460748)scale(0.1 -0.1)">
     <use xlink:href="#DejaVuSans-31"/>
     <use x="63.623047" xlink:href="#DejaVuSans-32"/>
     <use x="127.246094" xlink:href="#DejaVuSans-32"/>
    </g>
   </g>
   <g id="text_28">
    <!-- 137 -->
    <g style="fill:#262626;" transform="translate(585.457991 216.460748)scale(0.1 -0.1)">
     <use xlink:href="#DejaVuSans-31"/>
     <use x="63.623047" xlink:href="#DejaVuSans-33"/>
     <use x="127.246094" xlink:href="#DejaVuSans-37"/>
    </g>
   </g>
   <g id="text_29">
    <!-- Bioregistry -->
    <g style="fill:#262626;" transform="translate(492.083888 277.925981)scale(0.12 -0.12)">
     <use xlink:href="#DejaVuSans-42"/>
     <use x="68.603516" xlink:href="#DejaVuSans-69"/>
     <use x="96.386719" xlink:href="#DejaVuSans-6f"/>
     <use x="157.568359" xlink:href="#DejaVuSans-72"/>
     <use x="196.431641" xlink:href="#DejaVuSans-65"/>
     <use x="257.955078" xlink:href="#DejaVuSans-67"/>
     <use x="321.431641" xlink:href="#DejaVuSans-69"/>
     <use x="349.214844" xlink:href="#DejaVuSans-73"/>
     <use x="401.314453" xlink:href="#DejaVuSans-74"/>
     <use x="440.523438" xlink:href="#DejaVuSans-72"/>
     <use x="481.636719" xlink:href="#DejaVuSans-79"/>
    </g>
   </g>
   <g id="text_30">
    <!-- GO -->
    <g style="fill:#262626;" transform="translate(605.376827 250.282591)scale(0.12 -0.12)">
     <defs>
      <path d="M 3809 666 
L 3809 1919 
L 2778 1919 
L 2778 2438 
L 4434 2438 
L 4434 434 
Q 4069 175 3628 42 
Q 3188 -91 2688 -91 
Q 1594 -91 976 548 
Q 359 1188 359 2328 
Q 359 3472 976 4111 
Q 1594 4750 2688 4750 
Q 3144 4750 3555 4637 
Q 3966 4525 4313 4306 
L 4313 3634 
Q 3963 3931 3569 4081 
Q 3175 4231 2741 4231 
Q 1884 4231 1454 3753 
Q 1025 3275 1025 2328 
Q 1025 1384 1454 906 
Q 1884 428 2741 428 
Q 3075 428 3337 486 
Q 3600 544 3809 666 
z
" id="DejaVuSans-47" transform="scale(0.015625)"/>
     </defs>
     <use xlink:href="#DejaVuSans-47"/>
     <use x="77.490234" xlink:href="#DejaVuSans-4f"/>
    </g>
   </g>
  </g>
  <g id="axes_7">
   <g id="patch_20">
    <path clip-path="url(#pfee321ab70)" d="M 123.353812 392.530881 
C 117.180194 388.571816 112.100007 383.123283 108.582058 376.688084 
C 105.06411 370.252884 103.22005 363.035249 103.22005 355.701235 
C 103.22005 348.367222 105.06411 341.149587 108.582058 334.714387 
C 112.100007 328.279187 117.180194 322.830655 123.353812 318.87159 
C 116.207095 312.3224 107.306276 307.992878 97.742109 306.413586 
C 88.177942 304.834295 78.357748 306.072493 69.484947 309.976446 
C 60.612145 313.880399 53.064613 320.283843 47.767266 328.402067 
C 42.469918 336.520291 39.64836 346.007554 39.64836 355.701235 
C 39.64836 365.394916 42.469918 374.882179 47.767266 383.000403 
C 53.064613 391.118627 60.612145 397.522072 69.484947 401.426025 
C 78.357748 405.329978 88.177942 406.568176 97.742109 404.988884 
C 107.306276 403.409593 116.207095 399.080071 123.353812 392.530881 
" style="fill:#c0c0c0;opacity:0.4;"/>
   </g>
   <g id="patch_21">
    <path clip-path="url(#pfee321ab70)" d="M 123.353812 318.87159 
C 128.460577 323.551385 132.53862 329.242581 135.328232 335.582739 
C 138.117844 341.922897 139.558525 348.774509 139.558525 355.701235 
C 139.558525 362.627962 138.117844 369.479573 135.328232 375.819731 
C 132.53862 382.159889 128.460577 387.851085 123.353812 392.530881 
C 129.96387 396.769829 137.594799 399.152095 145.442485 399.426645 
C 153.290171 399.701194 161.068926 397.858033 167.959058 394.091386 
C 174.849189 390.324739 180.59987 384.771727 184.605117 378.017502 
C 188.610363 371.263278 190.724369 363.553722 190.724369 355.701235 
C 190.724369 347.848749 188.610363 340.139193 184.605117 333.384968 
C 180.59987 326.630744 174.849189 321.077732 167.959058 317.311084 
C 161.068926 313.544437 153.290171 311.701276 145.442485 311.975826 
C 137.594799 312.250376 129.96387 314.632641 123.353812 318.87159 
" style="fill:#fdbf6f;opacity:0.4;"/>
   </g>
   <g id="patch_22">
    <path clip-path="url(#pfee321ab70)" d="M 123.353812 392.530881 
C 128.460577 387.851085 132.53862 382.159889 135.328232 375.819731 
C 138.117844 369.479573 139.558525 362.627962 139.558525 355.701235 
C 139.558525 348.774509 138.117844 341.922897 135.328232 335.582739 
C 132.53862 329.242581 128.460577 323.551385 123.353812 318.87159 
C 117.180194 322.830655 112.100007 328.279187 108.582058 334.714387 
C 105.06411 341.149587 103.22005 348.367222 103.22005 355.701235 
C 103.22005 363.035249 105.06411 370.252884 108.582058 376.688084 
C 112.100007 383.123283 117.180194 388.571816 123.353812 392.530881 
" style="fill:#ffffd4;opacity:0.4;"/>
   </g>
   <g id="text_31">
    <!-- 925 -->
    <g style="fill:#262626;" transform="translate(61.890455 358.46061)scale(0.1 -0.1)">
     <use xlink:href="#DejaVuSans-39"/>
     <use x="63.623047" xlink:href="#DejaVuSans-32"/>
     <use x="127.246094" xlink:href="#DejaVuSans-35"/>
    </g>
   </g>
   <g id="text_32">
    <!-- 642 -->
    <g style="fill:#262626;" transform="translate(155.597697 358.46061)scale(0.1 -0.1)">
     <use xlink:href="#DejaVuSans-36"/>
     <use x="63.623047" xlink:href="#DejaVuSans-34"/>
     <use x="127.246094" xlink:href="#DejaVuSans-32"/>
    </g>
   </g>
   <g id="text_33">
    <!-- 290 -->
    <g style="fill:#262626;" transform="translate(111.845537 358.46061)scale(0.1 -0.1)">
     <use xlink:href="#DejaVuSans-32"/>
     <use x="63.623047" xlink:href="#DejaVuSans-39"/>
     <use x="127.246094" xlink:href="#DejaVuSans-30"/>
    </g>
   </g>
   <g id="text_34">
    <!-- Bioregistry -->
    <g style="fill:#262626;" transform="translate(24.704068 419.459805)scale(0.12 -0.12)">
     <use xlink:href="#DejaVuSans-42"/>
     <use x="68.603516" xlink:href="#DejaVuSans-69"/>
     <use x="96.386719" xlink:href="#DejaVuSans-6f"/>
     <use x="157.568359" xlink:href="#DejaVuSans-72"/>
     <use x="196.431641" xlink:href="#DejaVuSans-65"/>
     <use x="257.955078" xlink:href="#DejaVuSans-67"/>
     <use x="321.431641" xlink:href="#DejaVuSans-69"/>
     <use x="349.214844" xlink:href="#DejaVuSans-73"/>
     <use x="401.314453" xlink:href="#DejaVuSans-74"/>
     <use x="440.523438" xlink:href="#DejaVuSans-72"/>
     <use x="481.636719" xlink:href="#DejaVuSans-79"/>
    </g>
   </g>
   <g id="text_35">
    <!-- BioPortal -->
    <g style="fill:#262626;" transform="translate(146.972209 413.256882)scale(0.12 -0.12)">
     <defs>
      <path d="M 1259 4147 
L 1259 2394 
L 2053 2394 
Q 2494 2394 2734 2622 
Q 2975 2850 2975 3272 
Q 2975 3691 2734 3919 
Q 2494 4147 2053 4147 
L 1259 4147 
z
M 628 4666 
L 2053 4666 
Q 2838 4666 3239 4311 
Q 3641 3956 3641 3272 
Q 3641 2581 3239 2228 
Q 2838 1875 2053 1875 
L 1259 1875 
L 1259 0 
L 628 0 
L 628 4666 
z
" id="DejaVuSans-50" transform="scale(0.015625)"/>
      <path d="M 603 4863 
L 1178 4863 
L 1178 0 
L 603 0 
L 603 4863 
z
" id="DejaVuSans-6c" transform="scale(0.015625)"/>
     </defs>
     <use xlink:href="#DejaVuSans-42"/>
     <use x="68.603516" xlink:href="#DejaVuSans-69"/>
     <use x="96.386719" xlink:href="#DejaVuSans-6f"/>
     <use x="157.568359" xlink:href="#DejaVuSans-50"/>
     <use x="214.246094" xlink:href="#DejaVuSans-6f"/>
     <use x="275.427734" xlink:href="#DejaVuSans-72"/>
     <use x="316.541016" xlink:href="#DejaVuSans-74"/>
     <use x="355.75" xlink:href="#DejaVuSans-61"/>
     <use x="417.029297" xlink:href="#DejaVuSans-6c"/>
    </g>
   </g>
  </g>
  <g id="axes_8">
   <g id="patch_23">
    <path clip-path="url(#pdb729a4677)" d="M 361.117671 400.394583 
C 354.537892 401.651733 347.76096 401.440491 341.272251 399.775987 
C 334.783542 398.111483 328.741757 395.034427 323.579621 390.765205 
C 318.417484 386.495982 314.261251 381.139009 311.408599 375.077962 
C 308.555947 369.016915 307.076645 362.400035 307.076645 355.701235 
C 307.076645 349.002436 308.555947 342.385556 311.408599 336.324509 
C 314.261251 330.263462 318.417484 324.906489 323.579621 320.637266 
C 328.741757 316.368043 334.783542 313.290988 341.272251 311.626484 
C 347.76096 309.96198 354.537892 309.750738 361.117671 311.007887 
C 353.305286 306.585949 344.468325 304.288745 335.491488 304.346257 
C 326.514652 304.403769 317.70785 306.814011 309.952764 311.335684 
C 302.197677 315.857358 295.762037 322.334361 291.29014 330.118257 
C 286.818242 337.902152 284.464471 346.724215 284.464471 355.701235 
C 284.464471 364.678256 286.818242 373.500318 291.29014 381.284214 
C 295.762037 389.068109 302.197677 395.545112 309.952764 400.066786 
C 317.70785 404.58846 326.514652 406.998702 335.491488 407.056214 
C 344.468325 407.113725 353.305286 404.816521 361.117671 400.394583 
" style="fill:#c0c0c0;opacity:0.4;"/>
   </g>
   <g id="patch_24">
    <path clip-path="url(#pdb729a4677)" d="M 361.117671 311.007887 
C 369.027125 315.484768 375.608198 321.982053 380.186054 329.833496 
C 384.76391 337.684939 387.176535 346.612675 387.176535 355.701235 
C 387.176535 364.789795 384.76391 373.717532 380.186054 381.568975 
C 375.608198 389.420418 369.027125 395.917703 361.117671 400.394583 
C 371.513376 398.408353 380.897266 392.855964 387.642414 384.700059 
C 394.387561 376.544155 398.080244 366.284987 398.080244 355.701235 
C 398.080244 345.117484 394.387561 334.858316 387.642414 326.702411 
C 380.897266 318.546507 371.513376 312.994118 361.117671 311.007887 
" style="fill:#ff7f00;opacity:0.4;"/>
   </g>
   <g id="patch_25">
    <path clip-path="url(#pdb729a4677)" d="M 361.117671 400.394583 
C 369.027125 395.917703 375.608198 389.420418 380.186054 381.568975 
C 384.76391 373.717532 387.176535 364.789795 387.176535 355.701235 
C 387.176535 346.612675 384.76391 337.684939 380.186054 329.833496 
C 375.608198 321.982053 369.027125 315.484768 361.117671 311.007887 
C 354.537892 309.750738 347.76096 309.96198 341.272251 311.626484 
C 334.783542 313.290988 328.741757 316.368043 323.579621 320.637266 
C 318.417484 324.906489 314.261251 330.263462 311.408599 336.324509 
C 308.555947 342.385556 307.076645 349.002436 307.076645 355.701235 
C 307.076645 362.400035 308.555947 369.016915 311.408599 375.077962 
C 314.261251 381.139009 318.417484 386.495982 323.579621 390.765205 
C 328.741757 395.034427 334.783542 398.111483 341.272251 399.775987 
C 347.76096 401.440491 354.537892 401.651733 361.117671 400.394583 
" style="fill:#ffdf86;opacity:0.4;"/>
   </g>
   <g id="text_36">
    <!-- 382 -->
    <g style="fill:#262626;" transform="translate(286.226808 358.46061)scale(0.1 -0.1)">
     <use xlink:href="#DejaVuSans-33"/>
     <use x="63.623047" xlink:href="#DejaVuSans-38"/>
     <use x="127.246094" xlink:href="#DejaVuSans-32"/>
    </g>
   </g>
   <g id="text_37">
    <!-- 121 -->
    <g style="fill:#262626;" transform="translate(383.08464 358.46061)scale(0.1 -0.1)">
     <use xlink:href="#DejaVuSans-31"/>
     <use x="63.623047" xlink:href="#DejaVuSans-32"/>
     <use x="127.246094" xlink:href="#DejaVuSans-31"/>
    </g>
   </g>
   <g id="text_38">
    <!-- 832 -->
    <g style="fill:#262626;" transform="translate(337.58284 358.46061)scale(0.1 -0.1)">
     <use xlink:href="#DejaVuSans-38"/>
     <use x="63.623047" xlink:href="#DejaVuSans-33"/>
     <use x="127.246094" xlink:href="#DejaVuSans-32"/>
    </g>
   </g>
   <g id="text_39">
    <!-- Bioregistry -->
    <g style="fill:#262626;" transform="translate(270.921128 421.018284)scale(0.12 -0.12)">
     <use xlink:href="#DejaVuSans-42"/>
     <use x="68.603516" xlink:href="#DejaVuSans-69"/>
     <use x="96.386719" xlink:href="#DejaVuSans-6f"/>
     <use x="157.568359" xlink:href="#DejaVuSans-72"/>
     <use x="196.431641" xlink:href="#DejaVuSans-65"/>
     <use x="257.955078" xlink:href="#DejaVuSans-67"/>
     <use x="321.431641" xlink:href="#DejaVuSans-69"/>
     <use x="349.214844" xlink:href="#DejaVuSans-73"/>
     <use x="401.314453" xlink:href="#DejaVuSans-74"/>
     <use x="440.523438" xlink:href="#DejaVuSans-72"/>
     <use x="481.636719" xlink:href="#DejaVuSans-79"/>
    </g>
   </g>
   <g id="text_40">
    <!-- Prefix Commons -->
    <g style="fill:#262626;" transform="translate(352.578445 415.164051)scale(0.12 -0.12)">
     <defs>
      <path d="M 2375 4863 
L 2375 4384 
L 1825 4384 
Q 1516 4384 1395 4259 
Q 1275 4134 1275 3809 
L 1275 3500 
L 2222 3500 
L 2222 3053 
L 1275 3053 
L 1275 0 
L 697 0 
L 697 3053 
L 147 3053 
L 147 3500 
L 697 3500 
L 697 3744 
Q 697 4328 969 4595 
Q 1241 4863 1831 4863 
L 2375 4863 
z
" id="DejaVuSans-66" transform="scale(0.015625)"/>
      <path d="M 3513 3500 
L 2247 1797 
L 3578 0 
L 2900 0 
L 1881 1375 
L 863 0 
L 184 0 
L 1544 1831 
L 300 3500 
L 978 3500 
L 1906 2253 
L 2834 3500 
L 3513 3500 
z
" id="DejaVuSans-78" transform="scale(0.015625)"/>
      <path id="DejaVuSans-20" transform="scale(0.015625)"/>
      <path d="M 4122 4306 
L 4122 3641 
Q 3803 3938 3442 4084 
Q 3081 4231 2675 4231 
Q 1875 4231 1450 3742 
Q 1025 3253 1025 2328 
Q 1025 1406 1450 917 
Q 1875 428 2675 428 
Q 3081 428 3442 575 
Q 3803 722 4122 1019 
L 4122 359 
Q 3791 134 3420 21 
Q 3050 -91 2638 -91 
Q 1578 -91 968 557 
Q 359 1206 359 2328 
Q 359 3453 968 4101 
Q 1578 4750 2638 4750 
Q 3056 4750 3426 4639 
Q 3797 4528 4122 4306 
z
" id="DejaVuSans-43" transform="scale(0.015625)"/>
      <path d="M 3328 2828 
Q 3544 3216 3844 3400 
Q 4144 3584 4550 3584 
Q 5097 3584 5394 3201 
Q 5691 2819 5691 2113 
L 5691 0 
L 5113 0 
L 5113 2094 
Q 5113 2597 4934 2840 
Q 4756 3084 4391 3084 
Q 3944 3084 3684 2787 
Q 3425 2491 3425 1978 
L 3425 0 
L 2847 0 
L 2847 2094 
Q 2847 2600 2669 2842 
Q 2491 3084 2119 3084 
Q 1678 3084 1418 2786 
Q 1159 2488 1159 1978 
L 1159 0 
L 581 0 
L 581 3500 
L 1159 3500 
L 1159 2956 
Q 1356 3278 1631 3431 
Q 1906 3584 2284 3584 
Q 2666 3584 2933 3390 
Q 3200 3197 3328 2828 
z
" id="DejaVuSans-6d" transform="scale(0.015625)"/>
      <path d="M 3513 2113 
L 3513 0 
L 2938 0 
L 2938 2094 
Q 2938 2591 2744 2837 
Q 2550 3084 2163 3084 
Q 1697 3084 1428 2787 
Q 1159 2491 1159 1978 
L 1159 0 
L 581 0 
L 581 3500 
L 1159 3500 
L 1159 2956 
Q 1366 3272 1645 3428 
Q 1925 3584 2291 3584 
Q 2894 3584 3203 3211 
Q 3513 2838 3513 2113 
z
" id="DejaVuSans-6e" transform="scale(0.015625)"/>
     </defs>
     <use xlink:href="#DejaVuSans-50"/>
     <use x="58.552734" xlink:href="#DejaVuSans-72"/>
     <use x="97.416016" xlink:href="#DejaVuSans-65"/>
     <use x="158.939453" xlink:href="#DejaVuSans-66"/>
     <use x="194.144531" xlink:href="#DejaVuSans-69"/>
     <use x="221.927734" xlink:href="#DejaVuSans-78"/>
     <use x="281.107422" xlink:href="#DejaVuSans-20"/>
     <use x="312.894531" xlink:href="#DejaVuSans-43"/>
     <use x="382.71875" xlink:href="#DejaVuSans-6f"/>
     <use x="443.900391" xlink:href="#DejaVuSans-6d"/>
     <use x="541.3125" xlink:href="#DejaVuSans-6d"/>
     <use x="638.724609" xlink:href="#DejaVuSans-6f"/>
     <use x="699.90625" xlink:href="#DejaVuSans-6e"/>
     <use x="763.285156" xlink:href="#DejaVuSans-73"/>
    </g>
   </g>
  </g>
  <g id="axes_9">
   <g id="patch_26">
    <path clip-path="url(#p58c182aaaf)" d="M 610.424506 371.06862 
C 608.350091 371.159129 606.278666 370.828676 604.335377 370.097224 
C 602.392088 369.365772 600.616875 368.248355 599.116988 366.812483 
C 597.617101 365.37661 596.423365 363.651792 595.607902 361.742234 
C 594.792438 359.832676 594.372006 357.777625 594.372006 355.701235 
C 594.372006 353.624846 594.792438 351.569794 595.607902 349.660236 
C 596.423365 347.750678 597.617101 346.02586 599.116988 344.589988 
C 600.616875 343.154115 602.392088 342.036698 604.335377 341.305247 
C 606.278666 340.573795 608.350091 340.243341 610.424506 340.33385 
C 608.601824 334.492327 605.754324 329.021394 602.015353 324.177257 
C 598.276383 319.333119 593.705234 315.192593 588.515973 311.949579 
C 583.326712 308.706565 577.601628 306.412489 571.608828 305.174784 
C 565.616028 303.937079 559.450542 303.775371 553.401101 304.697233 
C 547.35166 305.619095 541.514192 307.609908 536.162068 310.576443 
C 530.809943 313.542979 526.028033 317.438194 522.040275 322.079675 
C 518.052516 326.721156 514.922145 332.035302 512.795757 337.773249 
C 510.669369 343.511197 509.580683 349.581957 509.580683 355.701235 
C 509.580683 361.820514 510.669369 367.891274 512.795757 373.629221 
C 514.922145 379.367169 518.052516 384.681314 522.040275 389.322796 
C 526.028033 393.964277 530.809943 397.859492 536.162068 400.826027 
C 541.514192 403.792562 547.35166 405.783376 553.401101 406.705238 
C 559.450542 407.6271 565.616028 407.465392 571.608828 406.227687 
C 577.601628 404.989982 583.326712 402.695906 588.515973 399.452892 
C 593.705234 396.209878 598.276383 392.069352 602.015353 387.225214 
C 605.754324 382.381076 608.601824 376.910144 610.424506 371.06862 
" style="fill:#c0c0c0;opacity:0.4;"/>
   </g>
   <g id="patch_27">
    <path clip-path="url(#p58c182aaaf)" d="M 610.424506 340.33385 
C 611.976737 345.308601 612.766311 350.489943 612.766311 355.701235 
C 612.766311 360.912528 611.976737 366.093869 610.424506 371.06862 
C 614.382863 370.895913 618.125357 369.200312 620.865259 366.338259 
C 623.605161 363.476205 625.136017 359.663358 625.136017 355.701235 
C 625.136017 351.739113 623.605161 347.926266 620.865259 345.064212 
C 618.125357 342.202158 614.382863 340.506558 610.424506 340.33385 
" style="fill:#cab2d6;opacity:0.4;"/>
   </g>
   <g id="patch_28">
    <path clip-path="url(#p58c182aaaf)" d="M 610.424506 371.06862 
C 611.976737 366.093869 612.766311 360.912528 612.766311 355.701235 
C 612.766311 350.489943 611.976737 345.308601 610.424506 340.33385 
C 608.350091 340.243341 606.278666 340.573795 604.335377 341.305247 
C 602.392088 342.036698 600.616875 343.154115 599.116988 344.589988 
C 597.617101 346.02586 596.423365 347.750678 595.607902 349.660236 
C 594.792438 351.569794 594.372006 353.624846 594.372006 355.701235 
C 594.372006 357.777625 594.792438 359.832676 595.607902 361.742234 
C 596.423365 363.651792 597.617101 365.37661 599.116988 366.812483 
C 600.616875 368.248355 602.392088 369.365772 604.335377 370.097224 
C 606.278666 370.828676 608.350091 371.159129 610.424506 371.06862 
" style="fill:#ffffff;opacity:0.4;"/>
   </g>
   <g id="text_41">
    <!-- 1151 -->
    <g style="fill:#262626;" transform="translate(539.251345 358.46061)scale(0.1 -0.1)">
     <use xlink:href="#DejaVuSans-31"/>
     <use x="63.623047" xlink:href="#DejaVuSans-31"/>
     <use x="127.246094" xlink:href="#DejaVuSans-35"/>
     <use x="190.869141" xlink:href="#DejaVuSans-31"/>
    </g>
   </g>
   <g id="text_42">
    <!-- 44 -->
    <g style="fill:#262626;" transform="translate(612.588664 358.46061)scale(0.1 -0.1)">
     <use xlink:href="#DejaVuSans-34"/>
     <use x="63.623047" xlink:href="#DejaVuSans-34"/>
    </g>
   </g>
   <g id="text_43">
    <!-- 64 -->
    <g style="fill:#262626;" transform="translate(597.206659 358.46061)scale(0.1 -0.1)">
     <use xlink:href="#DejaVuSans-36"/>
     <use x="63.623047" xlink:href="#DejaVuSans-34"/>
    </g>
   </g>
   <g id="text_44">
    <!-- Bioregistry -->
    <g style="fill:#262626;" transform="translate(496.274122 419.760915)scale(0.12 -0.12)">
     <use xlink:href="#DejaVuSans-42"/>
     <use x="68.603516" xlink:href="#DejaVuSans-69"/>
     <use x="96.386719" xlink:href="#DejaVuSans-6f"/>
     <use x="157.568359" xlink:href="#DejaVuSans-72"/>
     <use x="196.431641" xlink:href="#DejaVuSans-65"/>
     <use x="257.955078" xlink:href="#DejaVuSans-67"/>
     <use x="321.431641" xlink:href="#DejaVuSans-69"/>
     <use x="349.214844" xlink:href="#DejaVuSans-73"/>
     <use x="401.314453" xlink:href="#DejaVuSans-74"/>
     <use x="440.523438" xlink:href="#DejaVuSans-72"/>
     <use x="481.636719" xlink:href="#DejaVuSans-79"/>
    </g>
   </g>
   <g id="text_45">
    <!-- Biolink -->
    <g style="fill:#262626;" transform="translate(609.754011 383.550106)scale(0.12 -0.12)">
     <use xlink:href="#DejaVuSans-42"/>
     <use x="68.603516" xlink:href="#DejaVuSans-69"/>
     <use x="96.386719" xlink:href="#DejaVuSans-6f"/>
     <use x="157.568359" xlink:href="#DejaVuSans-6c"/>
     <use x="185.351562" xlink:href="#DejaVuSans-69"/>
     <use x="213.134766" xlink:href="#DejaVuSans-6e"/>
     <use x="276.513672" xlink:href="#DejaVuSans-6b"/>
    </g>
   </g>
  </g>
  <g id="axes_10">
   <g id="patch_29">
    <path clip-path="url(#p350527bc6f)" d="M 156.876237 514.230721 
C 152.57569 514.107694 148.488488 512.311072 145.49011 509.225691 
C 142.491731 506.140311 140.81272 502.003405 140.81272 497.701098 
C 140.81272 493.398791 142.491731 489.261885 145.49011 486.176504 
C 148.488488 483.091123 152.57569 481.294502 156.876237 481.171474 
C 154.932317 475.42853 151.990475 470.073264 148.186184 465.352288 
C 144.381893 460.631313 139.77446 456.618226 134.576059 453.497831 
C 129.377658 450.377437 123.669329 448.19838 117.713943 447.061007 
C 111.758557 445.923634 105.648955 445.845676 99.666488 446.830724 
C 93.68402 447.815771 87.92195 449.848468 82.645622 452.835206 
C 77.369295 455.821945 72.660966 459.716165 68.737455 464.338534 
C 64.813944 468.960904 61.736418 474.239364 59.646596 479.930838 
C 57.556775 485.622313 56.487237 491.638076 56.487237 497.701098 
C 56.487237 503.76412 57.556775 509.779883 59.646596 515.471357 
C 61.736418 521.162832 64.813944 526.441292 68.737455 531.063661 
C 72.660966 535.686031 77.369295 539.58025 82.645622 542.566989 
C 87.92195 545.553728 93.68402 547.586424 99.666488 548.571472 
C 105.648955 549.556519 111.758557 549.478562 117.713943 548.341189 
C 123.669329 547.203816 129.377658 545.024759 134.576059 541.904364 
C 139.77446 538.78397 144.381893 534.770882 148.186184 530.049907 
C 151.990475 525.328932 154.932317 519.973666 156.876237 514.230721 
" style="fill:#c0c0c0;opacity:0.4;"/>
   </g>
   <g id="patch_30">
    <path clip-path="url(#p350527bc6f)" d="M 156.876237 481.171474 
C 158.678548 486.49606 159.597934 492.079751 159.597934 497.701098 
C 159.597934 503.322444 158.678548 508.906135 156.876237 514.230721 
C 159.086667 514.293956 161.28749 513.913167 163.348176 513.110939 
C 165.408863 512.308711 167.287851 511.101224 168.8737 509.560094 
C 170.459548 508.018964 171.720272 506.175273 172.581098 504.138369 
C 173.441925 502.101466 173.885492 499.912432 173.885492 497.701098 
C 173.885492 495.489764 173.441925 493.30073 172.581098 491.263826 
C 171.720272 489.226923 170.459548 487.383232 168.8737 485.842101 
C 167.287851 484.300971 165.408863 483.093484 163.348176 482.291256 
C 161.28749 481.489029 159.086667 481.10824 156.876237 481.171474 
" style="fill:#6a3d9a;opacity:0.4;"/>
   </g>
   <g id="patch_31">
    <path clip-path="url(#p350527bc6f)" d="M 156.876237 514.230721 
C 158.678548 508.906135 159.597934 503.322444 159.597934 497.701098 
C 159.597934 492.079751 158.678548 486.49606 156.876237 481.171474 
C 152.57569 481.294502 148.488488 483.091123 145.49011 486.176504 
C 142.491731 489.261885 140.81272 493.398791 140.81272 497.701098 
C 140.81272 502.003405 142.491731 506.140311 145.49011 509.225691 
C 148.488488 512.311072 152.57569 514.107694 156.876237 514.230721 
" style="fill:#d1b1f2;opacity:0.4;"/>
   </g>
   <g id="text_46">
    <!-- 1146 -->
    <g style="fill:#262626;" transform="translate(85.924979 500.460473)scale(0.1 -0.1)">
     <use xlink:href="#DejaVuSans-31"/>
     <use x="63.623047" xlink:href="#DejaVuSans-31"/>
     <use x="127.246094" xlink:href="#DejaVuSans-34"/>
     <use x="190.869141" xlink:href="#DejaVuSans-36"/>
    </g>
   </g>
   <g id="text_47">
    <!-- 56 -->
    <g style="fill:#262626;" transform="translate(160.379213 500.460473)scale(0.1 -0.1)">
     <use xlink:href="#DejaVuSans-35"/>
     <use x="63.623047" xlink:href="#DejaVuSans-36"/>
    </g>
   </g>
   <g id="text_48">
    <!-- 69 -->
    <g style="fill:#262626;" transform="translate(143.842827 500.460473)scale(0.1 -0.1)">
     <use xlink:href="#DejaVuSans-36"/>
     <use x="63.623047" xlink:href="#DejaVuSans-39"/>
    </g>
   </g>
   <g id="text_49">
    <!-- Bioregistry -->
    <g style="fill:#262626;" transform="translate(43.143211 561.779158)scale(0.12 -0.12)">
     <use xlink:href="#DejaVuSans-42"/>
     <use x="68.603516" xlink:href="#DejaVuSans-69"/>
     <use x="96.386719" xlink:href="#DejaVuSans-6f"/>
     <use x="157.568359" xlink:href="#DejaVuSans-72"/>
     <use x="196.431641" xlink:href="#DejaVuSans-65"/>
     <use x="257.955078" xlink:href="#DejaVuSans-67"/>
     <use x="321.431641" xlink:href="#DejaVuSans-69"/>
     <use x="349.214844" xlink:href="#DejaVuSans-73"/>
     <use x="401.314453" xlink:href="#DejaVuSans-74"/>
     <use x="440.523438" xlink:href="#DejaVuSans-72"/>
     <use x="481.636719" xlink:href="#DejaVuSans-79"/>
    </g>
   </g>
   <g id="text_50">
    <!-- NCBI -->
    <g style="fill:#262626;" transform="translate(157.349106 526.760195)scale(0.12 -0.12)">
     <use xlink:href="#DejaVuSans-4e"/>
     <use x="74.804688" xlink:href="#DejaVuSans-43"/>
     <use x="144.628906" xlink:href="#DejaVuSans-42"/>
     <use x="213.232422" xlink:href="#DejaVuSans-49"/>
    </g>
   </g>
  </g>
  <g id="axes_11">
   <g id="patch_32">
    <path clip-path="url(#p501da94b02)" d="M 379.648347 517.418857 
C 374.827295 516.839969 370.382057 514.51257 367.159732 510.880177 
C 363.937407 507.247784 362.156563 502.556781 362.156563 497.701098 
C 362.156563 492.845415 363.937407 488.154411 367.159732 484.522018 
C 370.382057 480.889625 374.827295 478.562227 379.648347 477.983338 
C 377.384865 472.527694 374.198779 467.502315 370.229974 463.127844 
C 366.26117 458.753373 361.568594 455.09478 356.358275 452.312698 
C 351.147955 449.530616 345.497279 447.666364 339.654341 446.801794 
C 333.811403 445.937224 327.862985 446.085177 322.070253 447.239156 
C 316.277521 448.393135 310.726513 450.536002 305.660946 453.573672 
C 300.595379 456.611342 296.09049 460.498699 292.344068 465.065068 
C 288.597645 469.631437 285.665332 474.808996 283.675873 480.370422 
C 281.686415 485.931849 280.669358 491.794541 280.669358 497.701098 
C 280.669358 503.607654 281.686415 509.470347 283.675873 515.031773 
C 285.665332 520.593199 288.597645 525.770758 292.344068 530.337127 
C 296.09049 534.903496 300.595379 538.790853 305.660946 541.828524 
C 310.726513 544.866194 316.277521 547.00906 322.070253 548.163039 
C 327.862985 549.317019 333.811403 549.464971 339.654341 548.600401 
C 345.497279 547.735831 351.147955 545.87158 356.358275 543.089498 
C 361.568594 540.307415 366.26117 536.648823 370.229974 532.274351 
C 374.198779 527.89988 377.384865 522.874502 379.648347 517.418857 
" style="fill:#c0c0c0;opacity:0.4;"/>
   </g>
   <g id="patch_33">
    <path clip-path="url(#p501da94b02)" d="M 379.648347 477.983338 
C 382.241479 484.233535 383.576353 490.93432 383.576353 497.701098 
C 383.576353 504.467876 382.241479 511.168661 379.648347 517.418857 
C 382.436048 517.753591 385.263304 517.493362 387.943065 516.655386 
C 390.622826 515.817411 393.094663 514.420586 395.195039 512.557325 
C 397.295416 510.694064 398.976968 508.406385 400.128444 505.845638 
C 401.279921 503.284891 401.875356 500.508823 401.875356 497.701098 
C 401.875356 494.893372 401.279921 492.117304 400.128444 489.556558 
C 398.976968 486.995811 397.295416 484.708131 395.195039 482.84487 
C 393.094663 480.981609 390.622826 479.584785 387.943065 478.746809 
C 385.263304 477.908834 382.436048 477.648605 379.648347 477.983338 
" style="fill:#ffff99;opacity:0.4;"/>
   </g>
   <g id="patch_34">
    <path clip-path="url(#p501da94b02)" d="M 379.648347 517.418857 
C 382.241479 511.168661 383.576353 504.467876 383.576353 497.701098 
C 383.576353 490.93432 382.241479 484.233535 379.648347 477.983338 
C 374.827295 478.562227 370.382057 480.889625 367.159732 484.522018 
C 363.937407 488.154411 362.156563 492.845415 362.156563 497.701098 
C 362.156563 502.556781 363.937407 507.247784 367.159732 510.880177 
C 370.382057 514.51257 374.827295 516.839969 379.648347 517.418857 
" style="fill:#fffff2;opacity:0.4;"/>
   </g>
   <g id="text_51">
    <!-- 1123 -->
    <g style="fill:#262626;" transform="translate(308.687961 500.460473)scale(0.1 -0.1)">
     <use xlink:href="#DejaVuSans-31"/>
     <use x="63.623047" xlink:href="#DejaVuSans-31"/>
     <use x="127.246094" xlink:href="#DejaVuSans-32"/>
     <use x="190.869141" xlink:href="#DejaVuSans-33"/>
    </g>
   </g>
   <g id="text_52">
    <!-- 89 -->
    <g style="fill:#262626;" transform="translate(386.363354 500.460473)scale(0.1 -0.1)">
     <use xlink:href="#DejaVuSans-38"/>
     <use x="63.623047" xlink:href="#DejaVuSans-39"/>
    </g>
   </g>
   <g id="text_53">
    <!-- 92 -->
    <g style="fill:#262626;" transform="translate(366.503958 500.460473)scale(0.1 -0.1)">
     <use xlink:href="#DejaVuSans-39"/>
     <use x="63.623047" xlink:href="#DejaVuSans-32"/>
    </g>
   </g>
   <g id="text_54">
    <!-- Bioregistry -->
    <g style="fill:#262626;" transform="translate(267.22348 561.838365)scale(0.12 -0.12)">
     <use xlink:href="#DejaVuSans-42"/>
     <use x="68.603516" xlink:href="#DejaVuSans-69"/>
     <use x="96.386719" xlink:href="#DejaVuSans-6f"/>
     <use x="157.568359" xlink:href="#DejaVuSans-72"/>
     <use x="196.431641" xlink:href="#DejaVuSans-65"/>
     <use x="257.955078" xlink:href="#DejaVuSans-67"/>
     <use x="321.431641" xlink:href="#DejaVuSans-69"/>
     <use x="349.214844" xlink:href="#DejaVuSans-73"/>
     <use x="401.314453" xlink:href="#DejaVuSans-74"/>
     <use x="440.523438" xlink:href="#DejaVuSans-72"/>
     <use x="481.636719" xlink:href="#DejaVuSans-79"/>
    </g>
   </g>
   <g id="text_55">
    <!-- UniProt -->
    <g style="fill:#262626;" transform="translate(382.01596 530.244264)scale(0.12 -0.12)">
     <defs>
      <path d="M 556 4666 
L 1191 4666 
L 1191 1831 
Q 1191 1081 1462 751 
Q 1734 422 2344 422 
Q 2950 422 3222 751 
Q 3494 1081 3494 1831 
L 3494 4666 
L 4128 4666 
L 4128 1753 
Q 4128 841 3676 375 
Q 3225 -91 2344 -91 
Q 1459 -91 1007 375 
Q 556 841 556 1753 
L 556 4666 
z
" id="DejaVuSans-55" transform="scale(0.015625)"/>
     </defs>
     <use xlink:href="#DejaVuSans-55"/>
     <use x="73.193359" xlink:href="#DejaVuSans-6e"/>
     <use x="136.572266" xlink:href="#DejaVuSans-69"/>
     <use x="164.355469" xlink:href="#DejaVuSans-50"/>
     <use x="222.908203" xlink:href="#DejaVuSans-72"/>
     <use x="261.771484" xlink:href="#DejaVuSans-6f"/>
     <use x="322.953125" xlink:href="#DejaVuSans-74"/>
    </g>
   </g>
  </g>
  <g id="axes_12">
   <g id="patch_35">
    <path clip-path="url(#pc62ed7e284)" d="M 608.255243 512.901015 
C 604.801085 512.128573 601.711309 510.201307 599.498411 507.438889 
C 597.285514 504.67647 596.079004 501.240571 596.079004 497.701098 
C 596.079004 494.161624 597.285514 490.725725 599.498411 487.963307 
C 601.711309 485.200889 604.801085 483.273623 608.255243 482.501181 
C 606.450492 476.654975 603.618864 471.176651 599.893245 466.3233 
C 596.167626 461.46995 591.607222 457.318702 586.426048 454.064369 
C 581.244874 450.810036 575.525268 448.504336 569.535644 447.255472 
C 563.546021 446.006609 557.381566 445.834429 551.331571 446.747012 
C 545.281577 447.659595 539.442186 449.64244 534.087437 452.602492 
C 528.732689 455.562545 523.947677 459.452766 519.956959 464.09059 
C 515.966241 468.728414 512.833235 474.04014 510.70497 479.776492 
C 508.576706 485.512844 507.487004 491.582663 507.487004 497.701098 
C 507.487004 503.819533 508.576706 509.889352 510.70497 515.625704 
C 512.833235 521.362056 515.966241 526.673781 519.956959 531.311606 
C 523.947677 535.94943 528.732689 539.839651 534.087437 542.799703 
C 539.442186 545.759756 545.281577 547.7426 551.331571 548.655184 
C 557.381566 549.567767 563.546021 549.395587 569.535644 548.146723 
C 575.525268 546.89786 581.244874 544.59216 586.426048 541.337827 
C 591.607222 538.083494 596.167626 533.932245 599.893245 529.078895 
C 603.618864 524.225545 606.450492 518.74722 608.255243 512.901015 
" style="fill:#c0c0c0;opacity:0.4;"/>
   </g>
   <g id="patch_36">
    <path clip-path="url(#pc62ed7e284)" d="M 608.255243 482.501181 
C 609.775141 487.424652 610.548004 492.548364 610.548004 497.701098 
C 610.548004 502.853831 609.775141 507.977543 608.255243 512.901015 
C 610.533011 513.410384 612.896412 513.401301 615.170197 512.874437 
C 617.443982 512.347574 619.570525 511.316283 621.392141 509.857036 
C 623.213756 508.39779 624.684278 506.54757 625.694664 504.443573 
C 626.705051 502.339576 627.229696 500.035125 627.229696 497.701098 
C 627.229696 495.36707 626.705051 493.062619 625.694664 490.958623 
C 624.684278 488.854626 623.213756 487.004406 621.392141 485.545159 
C 619.570525 484.085913 617.443982 483.054622 615.170197 482.527758 
C 612.896412 482.000895 610.533011 481.991811 608.255243 482.501181 
" style="fill:#b15928;opacity:0.4;"/>
   </g>
   <g id="patch_37">
    <path clip-path="url(#pc62ed7e284)" d="M 608.255243 512.901015 
C 609.775141 507.977543 610.548004 502.853831 610.548004 497.701098 
C 610.548004 492.548364 609.775141 487.424652 608.255243 482.501181 
C 604.801085 483.273623 601.711309 485.200889 599.498411 487.963307 
C 597.285514 490.725725 596.079004 494.161624 596.079004 497.701098 
C 596.079004 501.240571 597.285514 504.67647 599.498411 507.438889 
C 601.711309 510.201307 604.801085 512.128573 608.255243 512.901015 
" style="fill:#ffc5a2;opacity:0.4;"/>
   </g>
   <g id="text_56">
    <!-- 1168 -->
    <g style="fill:#262626;" transform="translate(539.058004 500.460473)scale(0.1 -0.1)">
     <use xlink:href="#DejaVuSans-31"/>
     <use x="63.623047" xlink:href="#DejaVuSans-31"/>
     <use x="127.246094" xlink:href="#DejaVuSans-36"/>
     <use x="190.869141" xlink:href="#DejaVuSans-38"/>
    </g>
   </g>
   <g id="text_57">
    <!-- 64 -->
    <g style="fill:#262626;" transform="translate(612.52635 500.460473)scale(0.1 -0.1)">
     <use xlink:href="#DejaVuSans-36"/>
     <use x="63.623047" xlink:href="#DejaVuSans-34"/>
    </g>
   </g>
   <g id="text_58">
    <!-- 47 -->
    <g style="fill:#262626;" transform="translate(596.951004 500.460473)scale(0.1 -0.1)">
     <use xlink:href="#DejaVuSans-34"/>
     <use x="63.623047" xlink:href="#DejaVuSans-37"/>
    </g>
   </g>
   <g id="text_59">
    <!-- Bioregistry -->
    <g style="fill:#262626;" transform="translate(494.118129 561.705015)scale(0.12 -0.12)">
     <use xlink:href="#DejaVuSans-42"/>
     <use x="68.603516" xlink:href="#DejaVuSans-69"/>
     <use x="96.386719" xlink:href="#DejaVuSans-6f"/>
     <use x="157.568359" xlink:href="#DejaVuSans-72"/>
     <use x="196.431641" xlink:href="#DejaVuSans-65"/>
     <use x="257.955078" xlink:href="#DejaVuSans-67"/>
     <use x="321.431641" xlink:href="#DejaVuSans-69"/>
     <use x="349.214844" xlink:href="#DejaVuSans-73"/>
     <use x="401.314453" xlink:href="#DejaVuSans-74"/>
     <use x="440.523438" xlink:href="#DejaVuSans-72"/>
     <use x="481.636719" xlink:href="#DejaVuSans-79"/>
    </g>
   </g>
   <g id="text_60">
    <!-- Cellosaurus -->
    <g style="fill:#262626;" transform="translate(611.65435 525.749861)scale(0.12 -0.12)">
     <defs>
      <path d="M 544 1381 
L 544 3500 
L 1119 3500 
L 1119 1403 
Q 1119 906 1312 657 
Q 1506 409 1894 409 
Q 2359 409 2629 706 
Q 2900 1003 2900 1516 
L 2900 3500 
L 3475 3500 
L 3475 0 
L 2900 0 
L 2900 538 
Q 2691 219 2414 64 
Q 2138 -91 1772 -91 
Q 1169 -91 856 284 
Q 544 659 544 1381 
z
M 1991 3584 
L 1991 3584 
z
" id="DejaVuSans-75" transform="scale(0.015625)"/>
     </defs>
     <use xlink:href="#DejaVuSans-43"/>
     <use x="69.824219" xlink:href="#DejaVuSans-65"/>
     <use x="131.347656" xlink:href="#DejaVuSans-6c"/>
     <use x="159.130859" xlink:href="#DejaVuSans-6c"/>
     <use x="186.914062" xlink:href="#DejaVuSans-6f"/>
     <use x="248.095703" xlink:href="#DejaVuSans-73"/>
     <use x="300.195312" xlink:href="#DejaVuSans-61"/>
     <use x="361.474609" xlink:href="#DejaVuSans-75"/>
     <use x="424.853516" xlink:href="#DejaVuSans-72"/>
     <use x="465.966797" xlink:href="#DejaVuSans-75"/>
     <use x="529.345703" xlink:href="#DejaVuSans-73"/>
    </g>
   </g>
  </g>
  <g id="axes_13">
   <g id="patch_38">
    <path clip-path="url(#pa70e616702)" d="M 159.070673 659.433818 
C 155.629875 661.358336 151.744813 662.349845 147.802576 662.309556 
C 143.860338 662.269267 139.996352 661.198564 136.595605 659.204127 
C 133.194858 657.20969 130.374175 654.360033 128.414595 650.939081 
C 126.455015 647.51813 125.423856 643.643404 125.423856 639.70096 
C 125.423856 635.758517 126.455015 631.88379 128.414595 628.462839 
C 130.374175 625.041888 133.194858 622.192231 136.595605 620.197794 
C 139.996352 618.203357 143.860338 617.132654 147.802576 617.092365 
C 151.744813 617.052076 155.629875 618.043585 159.070673 619.968102 
C 156.804543 614.488967 153.611415 609.440919 149.631596 605.045772 
C 145.651778 600.650624 140.944427 596.973709 135.716387 594.176591 
C 130.488347 591.379473 124.81733 589.50373 118.952521 588.631782 
C 113.087712 587.759834 107.11629 587.904643 101.30064 589.059846 
C 95.484991 590.215048 89.91156 592.363473 84.825248 595.410718 
C 79.738935 598.457962 75.215346 602.35873 71.453248 606.941622 
C 67.69115 611.524513 64.746465 616.721405 62.748584 622.303944 
C 60.750702 627.886483 59.729321 633.771688 59.729321 639.70096 
C 59.729321 645.630233 60.750702 651.515438 62.748584 657.097977 
C 64.746465 662.680516 67.69115 667.877408 71.453248 672.460299 
C 75.215346 677.04319 79.738935 680.943958 84.825248 683.991203 
C 89.91156 687.038447 95.484991 689.186872 101.30064 690.342075 
C 107.11629 691.497277 113.087712 691.642086 118.952521 690.770139 
C 124.81733 689.898191 130.488347 688.022447 135.716387 685.225329 
C 140.944427 682.428211 145.651778 678.751296 149.631596 674.356149 
C 153.611415 669.961002 156.804543 664.912954 159.070673 659.433818 
" style="fill:#c0c0c0;opacity:0.4;"/>
   </g>
   <g id="patch_39">
    <path clip-path="url(#pa70e616702)" d="M 159.070673 619.968102 
C 161.658449 626.224923 162.990347 632.930112 162.990347 639.70096 
C 162.990347 646.471808 161.658449 653.176998 159.070673 659.433818 
C 162.579838 657.471062 165.502733 654.607306 167.536798 651.138988 
C 169.570864 647.670669 170.643408 643.721738 170.643408 639.70096 
C 170.643408 635.680183 169.570864 631.731251 167.536798 628.262933 
C 165.502733 624.794615 162.579838 621.930859 159.070673 619.968102 
" style="fill:#a6cee3;opacity:0.4;"/>
   </g>
   <g id="patch_40">
    <path clip-path="url(#pa70e616702)" d="M 159.070673 659.433818 
C 161.658449 653.176998 162.990347 646.471808 162.990347 639.70096 
C 162.990347 632.930112 161.658449 626.224923 159.070673 619.968102 
C 155.629875 618.043585 151.744813 617.052076 147.802576 617.092365 
C 143.860338 617.132654 139.996352 618.203357 136.595605 620.197794 
C 133.194858 622.192231 130.374175 625.041888 128.414595 628.462839 
C 126.455015 631.88379 125.423856 635.758517 125.423856 639.70096 
C 125.423856 643.643404 126.455015 647.51813 128.414595 650.939081 
C 130.374175 654.360033 133.194858 657.20969 136.595605 659.204127 
C 139.996352 661.198564 143.860338 662.269267 147.802576 662.309556 
C 151.744813 662.349845 155.629875 661.358336 159.070673 659.433818 
" style="fill:#fbffff;opacity:0.4;"/>
   </g>
   <g id="text_61">
    <!-- 1014 -->
    <g style="fill:#262626;" transform="translate(79.851589 642.460335)scale(0.1 -0.1)">
     <use xlink:href="#DejaVuSans-31"/>
     <use x="63.623047" xlink:href="#DejaVuSans-30"/>
     <use x="127.246094" xlink:href="#DejaVuSans-31"/>
     <use x="190.869141" xlink:href="#DejaVuSans-34"/>
    </g>
   </g>
   <g id="text_62">
    <!-- 32 -->
    <g style="fill:#262626;" transform="translate(160.454378 642.460335)scale(0.1 -0.1)">
     <use xlink:href="#DejaVuSans-33"/>
     <use x="63.623047" xlink:href="#DejaVuSans-32"/>
    </g>
   </g>
   <g id="text_63">
    <!-- 201 -->
    <g style="fill:#262626;" transform="translate(134.663351 642.460335)scale(0.1 -0.1)">
     <use xlink:href="#DejaVuSans-32"/>
     <use x="63.623047" xlink:href="#DejaVuSans-30"/>
     <use x="127.246094" xlink:href="#DejaVuSans-31"/>
    </g>
   </g>
   <g id="text_64">
    <!-- Bioregistry -->
    <g style="fill:#262626;" transform="translate(46.460459 704.161613)scale(0.12 -0.12)">
     <use xlink:href="#DejaVuSans-42"/>
     <use x="68.603516" xlink:href="#DejaVuSans-69"/>
     <use x="96.386719" xlink:href="#DejaVuSans-6f"/>
     <use x="157.568359" xlink:href="#DejaVuSans-72"/>
     <use x="196.431641" xlink:href="#DejaVuSans-65"/>
     <use x="257.955078" xlink:href="#DejaVuSans-67"/>
     <use x="321.431641" xlink:href="#DejaVuSans-69"/>
     <use x="349.214844" xlink:href="#DejaVuSans-73"/>
     <use x="401.314453" xlink:href="#DejaVuSans-74"/>
     <use x="440.523438" xlink:href="#DejaVuSans-72"/>
     <use x="481.636719" xlink:href="#DejaVuSans-79"/>
    </g>
   </g>
   <g id="text_65">
    <!-- OntoBee -->
    <g style="fill:#262626;" transform="translate(148.033632 675.140876)scale(0.12 -0.12)">
     <use xlink:href="#DejaVuSans-4f"/>
     <use x="78.710938" xlink:href="#DejaVuSans-6e"/>
     <use x="142.089844" xlink:href="#DejaVuSans-74"/>
     <use x="181.298828" xlink:href="#DejaVuSans-6f"/>
     <use x="242.480469" xlink:href="#DejaVuSans-42"/>
     <use x="311.083984" xlink:href="#DejaVuSans-65"/>
     <use x="372.607422" xlink:href="#DejaVuSans-65"/>
    </g>
   </g>
  </g>
  <g id="axes_14"/>
  <g id="axes_15"/>
  <g id="text_66">
   <!-- https://github.com/biopragmatics/bioregistry (2021-10-14) -->
   <g style="fill:#808080;opacity:0.5;" transform="translate(233.67625 718.33625)scale(0.08 -0.08)">
    <defs>
     <path d="M 3513 2113 
L 3513 0 
L 2938 0 
L 2938 2094 
Q 2938 2591 2744 2837 
Q 2550 3084 2163 3084 
Q 1697 3084 1428 2787 
Q 1159 2491 1159 1978 
L 1159 0 
L 581 0 
L 581 4863 
L 1159 4863 
L 1159 2956 
Q 1366 3272 1645 3428 
Q 1925 3584 2291 3584 
Q 2894 3584 3203 3211 
Q 3513 2838 3513 2113 
z
" id="DejaVuSans-68" transform="scale(0.015625)"/>
     <path d="M 1159 525 
L 1159 -1331 
L 581 -1331 
L 581 3500 
L 1159 3500 
L 1159 2969 
Q 1341 3281 1617 3432 
Q 1894 3584 2278 3584 
Q 2916 3584 3314 3078 
Q 3713 2572 3713 1747 
Q 3713 922 3314 415 
Q 2916 -91 2278 -91 
Q 1894 -91 1617 61 
Q 1341 213 1159 525 
z
M 3116 1747 
Q 3116 2381 2855 2742 
Q 2594 3103 2138 3103 
Q 1681 3103 1420 2742 
Q 1159 2381 1159 1747 
Q 1159 1113 1420 752 
Q 1681 391 2138 391 
Q 2594 391 2855 752 
Q 3116 1113 3116 1747 
z
" id="DejaVuSans-70" transform="scale(0.015625)"/>
     <path d="M 750 794 
L 1409 794 
L 1409 0 
L 750 0 
L 750 794 
z
M 750 3309 
L 1409 3309 
L 1409 2516 
L 750 2516 
L 750 3309 
z
" id="DejaVuSans-3a" transform="scale(0.015625)"/>
     <path d="M 1625 4666 
L 2156 4666 
L 531 -594 
L 0 -594 
L 1625 4666 
z
" id="DejaVuSans-2f" transform="scale(0.015625)"/>
     <path d="M 3116 1747 
Q 3116 2381 2855 2742 
Q 2594 3103 2138 3103 
Q 1681 3103 1420 2742 
Q 1159 2381 1159 1747 
Q 1159 1113 1420 752 
Q 1681 391 2138 391 
Q 2594 391 2855 752 
Q 3116 1113 3116 1747 
z
M 1159 2969 
Q 1341 3281 1617 3432 
Q 1894 3584 2278 3584 
Q 2916 3584 3314 3078 
Q 3713 2572 3713 1747 
Q 3713 922 3314 415 
Q 2916 -91 2278 -91 
Q 1894 -91 1617 61 
Q 1341 213 1159 525 
L 1159 0 
L 581 0 
L 581 4863 
L 1159 4863 
L 1159 2969 
z
" id="DejaVuSans-62" transform="scale(0.015625)"/>
     <path d="M 684 794 
L 1344 794 
L 1344 0 
L 684 0 
L 684 794 
z
" id="DejaVuSans-2e" transform="scale(0.015625)"/>
     <path d="M 3122 3366 
L 3122 2828 
Q 2878 2963 2633 3030 
Q 2388 3097 2138 3097 
Q 1578 3097 1268 2742 
Q 959 2388 959 1747 
Q 959 1106 1268 751 
Q 1578 397 2138 397 
Q 2388 397 2633 464 
Q 2878 531 3122 666 
L 3122 134 
Q 2881 22 2623 -34 
Q 2366 -91 2075 -91 
Q 1284 -91 818 406 
Q 353 903 353 1747 
Q 353 2603 823 3093 
Q 1294 3584 2113 3584 
Q 2378 3584 2631 3529 
Q 2884 3475 3122 3366 
z
" id="DejaVuSans-63" transform="scale(0.015625)"/>
     <path d="M 1984 4856 
Q 1566 4138 1362 3434 
Q 1159 2731 1159 2009 
Q 1159 1288 1364 580 
Q 1569 -128 1984 -844 
L 1484 -844 
Q 1016 -109 783 600 
Q 550 1309 550 2009 
Q 550 2706 781 3412 
Q 1013 4119 1484 4856 
L 1984 4856 
z
" id="DejaVuSans-28" transform="scale(0.015625)"/>
     <path d="M 313 2009 
L 1997 2009 
L 1997 1497 
L 313 1497 
L 313 2009 
z
" id="DejaVuSans-2d" transform="scale(0.015625)"/>
     <path d="M 513 4856 
L 1013 4856 
Q 1481 4119 1714 3412 
Q 1947 2706 1947 2009 
Q 1947 1309 1714 600 
Q 1481 -109 1013 -844 
L 513 -844 
Q 928 -128 1133 580 
Q 1338 1288 1338 2009 
Q 1338 2731 1133 3434 
Q 928 4138 513 4856 
z
" id="DejaVuSans-29" transform="scale(0.015625)"/>
    </defs>
    <use xlink:href="#DejaVuSans-68"/>
    <use x="63.378906" xlink:href="#DejaVuSans-74"/>
    <use x="102.587891" xlink:href="#DejaVuSans-74"/>
    <use x="141.796875" xlink:href="#DejaVuSans-70"/>
    <use x="205.273438" xlink:href="#DejaVuSans-73"/>
    <use x="257.373047" xlink:href="#DejaVuSans-3a"/>
    <use x="291.064453" xlink:href="#DejaVuSans-2f"/>
    <use x="324.755859" xlink:href="#DejaVuSans-2f"/>
    <use x="358.447266" xlink:href="#DejaVuSans-67"/>
    <use x="421.923828" xlink:href="#DejaVuSans-69"/>
    <use x="449.707031" xlink:href="#DejaVuSans-74"/>
    <use x="488.916016" xlink:href="#DejaVuSans-68"/>
    <use x="552.294922" xlink:href="#DejaVuSans-75"/>
    <use x="615.673828" xlink:href="#DejaVuSans-62"/>
    <use x="679.150391" xlink:href="#DejaVuSans-2e"/>
    <use x="710.9375" xlink:href="#DejaVuSans-63"/>
    <use x="765.917969" xlink:href="#DejaVuSans-6f"/>
    <use x="827.099609" xlink:href="#DejaVuSans-6d"/>
    <use x="924.511719" xlink:href="#DejaVuSans-2f"/>
    <use x="958.203125" xlink:href="#DejaVuSans-62"/>
    <use x="1021.679688" xlink:href="#DejaVuSans-69"/>
    <use x="1049.462891" xlink:href="#DejaVuSans-6f"/>
    <use x="1110.644531" xlink:href="#DejaVuSans-70"/>
    <use x="1174.121094" xlink:href="#DejaVuSans-72"/>
    <use x="1215.234375" xlink:href="#DejaVuSans-61"/>
    <use x="1276.513672" xlink:href="#DejaVuSans-67"/>
    <use x="1339.990234" xlink:href="#DejaVuSans-6d"/>
    <use x="1437.402344" xlink:href="#DejaVuSans-61"/>
    <use x="1498.681641" xlink:href="#DejaVuSans-74"/>
    <use x="1537.890625" xlink:href="#DejaVuSans-69"/>
    <use x="1565.673828" xlink:href="#DejaVuSans-63"/>
    <use x="1620.654297" xlink:href="#DejaVuSans-73"/>
    <use x="1672.753906" xlink:href="#DejaVuSans-2f"/>
    <use x="1706.445312" xlink:href="#DejaVuSans-62"/>
    <use x="1769.921875" xlink:href="#DejaVuSans-69"/>
    <use x="1797.705078" xlink:href="#DejaVuSans-6f"/>
    <use x="1858.886719" xlink:href="#DejaVuSans-72"/>
    <use x="1897.75" xlink:href="#DejaVuSans-65"/>
    <use x="1959.273438" xlink:href="#DejaVuSans-67"/>
    <use x="2022.75" xlink:href="#DejaVuSans-69"/>
    <use x="2050.533203" xlink:href="#DejaVuSans-73"/>
    <use x="2102.632812" xlink:href="#DejaVuSans-74"/>
    <use x="2141.841797" xlink:href="#DejaVuSans-72"/>
    <use x="2182.955078" xlink:href="#DejaVuSans-79"/>
    <use x="2242.134766" xlink:href="#DejaVuSans-20"/>
    <use x="2273.921875" xlink:href="#DejaVuSans-28"/>
    <use x="2312.935547" xlink:href="#DejaVuSans-32"/>
    <use x="2376.558594" xlink:href="#DejaVuSans-30"/>
    <use x="2440.181641" xlink:href="#DejaVuSans-32"/>
    <use x="2503.804688" xlink:href="#DejaVuSans-31"/>
    <use x="2567.427734" xlink:href="#DejaVuSans-2d"/>
    <use x="2603.511719" xlink:href="#DejaVuSans-31"/>
    <use x="2667.134766" xlink:href="#DejaVuSans-30"/>
    <use x="2730.757812" xlink:href="#DejaVuSans-2d"/>
    <use x="2766.841797" xlink:href="#DejaVuSans-31"/>
    <use x="2830.464844" xlink:href="#DejaVuSans-34"/>
    <use x="2894.087891" xlink:href="#DejaVuSans-29"/>
   </g>
  </g>
 </g>
 <defs>
  <clipPath id="p317283e9b1">
   <rect height="121.803021" width="123.251923" x="53.560403" y="10.8"/>
  </clipPath>
  <clipPath id="p462ba80f80">
   <rect height="121.803021" width="122.877239" x="279.833738" y="10.8"/>
  </clipPath>
  <clipPath id="p60c9c9dfb2">
   <rect height="121.803021" width="122.217558" x="506.249571" y="10.8"/>
  </clipPath>
  <clipPath id="p12adf9653a">
   <rect height="121.803021" width="154.879587" x="37.746571" y="152.799862"/>
  </clipPath>
  <clipPath id="p62f8c7c99b">
   <rect height="121.803021" width="123.95255" x="279.296083" y="152.799862"/>
  </clipPath>
  <clipPath id="p29c63a017f">
   <rect height="121.803021" width="142.553195" x="496.081753" y="152.799862"/>
  </clipPath>
  <clipPath id="pfee321ab70">
   <rect height="121.803021" width="172.968865" x="28.701932" y="294.799725"/>
  </clipPath>
  <clipPath id="pdb729a4677">
   <rect height="121.803021" width="132.706729" x="274.918993" y="294.799725"/>
  </clipPath>
  <clipPath id="p58c182aaaf">
   <rect height="121.803021" width="134.172726" x="500.271987" y="294.799725"/>
  </clipPath>
  <clipPath id="p350527bc6f">
   <rect height="121.803021" width="136.090578" x="47.141076" y="436.799587"/>
  </clipPath>
  <clipPath id="p501da94b02">
   <rect height="121.803021" width="140.102024" x="271.221345" y="436.799587"/>
  </clipPath>
  <clipPath id="pc62ed7e284">
   <rect height="121.803021" width="138.484713" x="498.115993" y="436.799587"/>
  </clipPath>
  <clipPath id="pa70e616702">
   <rect height="121.803021" width="129.456082" x="50.458324" y="578.79945"/>
  </clipPath>
 </defs>
</svg>
