<?xml version="1.0" encoding="utf-8" standalone="no"?>
<!DOCTYPE svg PUBLIC "-//W3C//DTD SVG 1.1//EN"
  "http://www.w3.org/Graphics/SVG/1.1/DTD/svg11.dtd">
<svg height="576pt" version="1.1" viewBox="0 0 702 576" width="702pt" xmlns="http://www.w3.org/2000/svg" xmlns:xlink="http://www.w3.org/1999/xlink">
 <metadata>
  <rdf:RDF xmlns:cc="http://creativecommons.org/ns#" xmlns:dc="http://purl.org/dc/elements/1.1/" xmlns:rdf="http://www.w3.org/1999/02/22-rdf-syntax-ns#">
   <cc:Work>
    <dc:type rdf:resource="http://purl.org/dc/dcmitype/StillImage"/>
    <dc:date>2021-05-02T01:01:54.335395</dc:date>
    <dc:format>image/svg+xml</dc:format>
    <dc:creator>
     <cc:Agent>
      <dc:title>Matplotlib v3.4.1, https://matplotlib.org/</dc:title>
     </cc:Agent>
    </dc:creator>
   </cc:Work>
  </rdf:RDF>
 </metadata>
 <defs>
  <style type="text/css">*{stroke-linecap:butt;stroke-linejoin:round;}</style>
 </defs>
 <g id="figure_1">
  <g id="patch_1">
   <path d="M 0 576 
L 702 576 
L 702 0 
L 0 0 
z
" style="fill:#ffffff;"/>
  </g>
  <g id="axes_1">
   <g id="patch_2">
    <path clip-path="url(#p00cc70990c)" d="M 171.153006 72.307085 
C 171.046374 75.099154 170.397501 77.843988 169.242634 80.388256 
C 168.087767 82.932524 166.448819 85.227953 164.417342 87.146317 
C 162.385865 89.064682 160.000405 90.569582 157.394217 91.576954 
C 154.788028 92.584326 152.010559 93.075056 149.216964 93.02173 
C 146.423369 92.968404 143.666651 92.372035 141.100806 91.265936 
C 138.53496 90.159837 136.20867 88.564996 134.251884 86.570501 
C 132.295098 84.576007 130.744945 82.219703 129.688017 79.633214 
C 128.631089 77.046726 128.087441 74.279129 128.087441 71.485025 
C 128.087441 68.690921 128.631089 65.923324 129.688017 63.336835 
C 130.744945 60.750347 132.295098 58.394042 134.251884 56.399548 
C 136.20867 54.405054 138.53496 52.810212 141.100806 51.704113 
C 143.666651 50.598015 146.423369 50.001645 149.216964 49.94832 
C 152.010559 49.894994 154.788028 50.385723 157.394217 51.393095 
C 160.000405 52.400467 162.385865 53.905368 164.417342 55.823732 
C 166.448819 57.742096 168.087767 60.037525 169.242634 62.581794 
C 170.397501 65.126062 171.046374 67.870895 171.153006 70.662964 
C 171.045605 63.929137 169.619597 57.281167 166.955774 51.0957 
C 164.29195 44.910233 160.441586 39.306333 155.622828 34.601492 
C 150.80407 29.896651 145.109672 26.181434 138.862257 23.666327 
C 132.614842 21.151221 125.934664 19.884639 119.200195 19.938341 
C 112.465726 19.992043 105.806596 21.364995 99.600085 23.979412 
C 93.393574 26.593828 87.759149 30.399384 83.016033 35.180473 
C 78.272917 39.961562 74.512411 45.626153 71.947568 51.853315 
C 69.382725 58.080476 68.062916 64.750342 68.062916 71.485025 
C 68.062916 78.219708 69.382725 84.889574 71.947568 91.116735 
C 74.512411 97.343896 78.272917 103.008488 83.016033 107.789576 
C 87.759149 112.570665 93.393574 116.376222 99.600085 118.990638 
C 105.806596 121.605054 112.465726 122.978006 119.200195 123.031708 
C 125.934664 123.08541 132.614842 121.818829 138.862257 119.303722 
C 145.109672 116.788616 150.80407 113.073398 155.622828 108.368557 
C 160.441586 103.663717 164.29195 98.059816 166.955774 91.874349 
C 169.619597 85.688882 171.045605 79.040912 171.153006 72.307085 
" style="fill:#c0c0c0;opacity:0.4;"/>
   </g>
   <g id="patch_3">
    <path clip-path="url(#p00cc70990c)" d="M 171.153006 70.662964 
C 171.157376 70.936962 171.159561 71.210991 171.159561 71.485025 
C 171.159561 71.759058 171.157376 72.033087 171.153006 72.307085 
C 171.163466 72.03319 171.168698 71.75912 171.168698 71.485025 
C 171.168698 71.21093 171.163466 70.936859 171.153006 70.662964 
" style="fill:#a6cee3;opacity:0.4;"/>
   </g>
   <g id="patch_4">
    <path clip-path="url(#p00cc70990c)" d="M 171.153006 72.307085 
C 171.157376 72.033087 171.159561 71.759058 171.159561 71.485025 
C 171.159561 71.210991 171.157376 70.936962 171.153006 70.662964 
C 171.046374 67.870895 170.397501 65.126062 169.242634 62.581794 
C 168.087767 60.037525 166.448819 57.742096 164.417342 55.823732 
C 162.385865 53.905368 160.000405 52.400467 157.394217 51.393095 
C 154.788028 50.385723 152.010559 49.894994 149.216964 49.94832 
C 146.423369 50.001645 143.666651 50.598015 141.100806 51.704113 
C 138.53496 52.810212 136.20867 54.405054 134.251884 56.399548 
C 132.295098 58.394042 130.744945 60.750347 129.688017 63.336835 
C 128.631089 65.923324 128.087441 68.690921 128.087441 71.485025 
C 128.087441 74.279129 128.631089 77.046726 129.688017 79.633214 
C 130.744945 82.219703 132.295098 84.576007 134.251884 86.570501 
C 136.20867 88.564996 138.53496 90.159837 141.100806 91.265936 
C 143.666651 92.372035 146.423369 92.968404 149.216964 93.02173 
C 152.010559 93.075056 154.788028 92.584326 157.394217 91.576954 
C 160.000405 90.569582 162.385865 89.064682 164.417342 87.146317 
C 166.448819 85.227953 168.087767 82.932524 169.242634 80.388256 
C 170.397501 77.843988 171.046374 75.099154 171.153006 72.307085 
" style="fill:#fbffff;opacity:0.4;"/>
   </g>
   <g id="text_1">
    <!-- 917 -->
    <g style="fill:#262626;" transform="translate(88.531428 74.2444)scale(0.1 -0.1)">
     <defs>
      <path d="M 703 97 
L 703 672 
Q 941 559 1184 500 
Q 1428 441 1663 441 
Q 2288 441 2617 861 
Q 2947 1281 2994 2138 
Q 2813 1869 2534 1725 
Q 2256 1581 1919 1581 
Q 1219 1581 811 2004 
Q 403 2428 403 3163 
Q 403 3881 828 4315 
Q 1253 4750 1959 4750 
Q 2769 4750 3195 4129 
Q 3622 3509 3622 2328 
Q 3622 1225 3098 567 
Q 2575 -91 1691 -91 
Q 1453 -91 1209 -44 
Q 966 3 703 97 
z
M 1959 2075 
Q 2384 2075 2632 2365 
Q 2881 2656 2881 3163 
Q 2881 3666 2632 3958 
Q 2384 4250 1959 4250 
Q 1534 4250 1286 3958 
Q 1038 3666 1038 3163 
Q 1038 2656 1286 2365 
Q 1534 2075 1959 2075 
z
" id="DejaVuSans-39" transform="scale(0.015625)"/>
      <path d="M 794 531 
L 1825 531 
L 1825 4091 
L 703 3866 
L 703 4441 
L 1819 4666 
L 2450 4666 
L 2450 531 
L 3481 531 
L 3481 0 
L 794 0 
L 794 531 
z
" id="DejaVuSans-31" transform="scale(0.015625)"/>
      <path d="M 525 4666 
L 3525 4666 
L 3525 4397 
L 1831 0 
L 1172 0 
L 2766 4134 
L 525 4134 
L 525 4666 
z
" id="DejaVuSans-37" transform="scale(0.015625)"/>
     </defs>
     <use xlink:href="#DejaVuSans-39"/>
     <use x="63.623047" xlink:href="#DejaVuSans-31"/>
     <use x="127.246094" xlink:href="#DejaVuSans-37"/>
    </g>
   </g>
   <g id="text_2">
    <!-- 0 -->
    <g style="fill:#262626;" transform="translate(167.982879 74.2444)scale(0.1 -0.1)">
     <defs>
      <path d="M 2034 4250 
Q 1547 4250 1301 3770 
Q 1056 3291 1056 2328 
Q 1056 1369 1301 889 
Q 1547 409 2034 409 
Q 2525 409 2770 889 
Q 3016 1369 3016 2328 
Q 3016 3291 2770 3770 
Q 2525 4250 2034 4250 
z
M 2034 4750 
Q 2819 4750 3233 4129 
Q 3647 3509 3647 2328 
Q 3647 1150 3233 529 
Q 2819 -91 2034 -91 
Q 1250 -91 836 529 
Q 422 1150 422 2328 
Q 422 3509 836 4129 
Q 1250 4750 2034 4750 
z
" id="DejaVuSans-30" transform="scale(0.015625)"/>
     </defs>
     <use xlink:href="#DejaVuSans-30"/>
    </g>
   </g>
   <g id="text_3">
    <!-- 194 -->
    <g style="fill:#262626;" transform="translate(140.079751 74.2444)scale(0.1 -0.1)">
     <defs>
      <path d="M 2419 4116 
L 825 1625 
L 2419 1625 
L 2419 4116 
z
M 2253 4666 
L 3047 4666 
L 3047 1625 
L 3713 1625 
L 3713 1100 
L 3047 1100 
L 3047 0 
L 2419 0 
L 2419 1100 
L 313 1100 
L 313 1709 
L 2253 4666 
z
" id="DejaVuSans-34" transform="scale(0.015625)"/>
     </defs>
     <use xlink:href="#DejaVuSans-31"/>
     <use x="63.623047" xlink:href="#DejaVuSans-39"/>
     <use x="127.246094" xlink:href="#DejaVuSans-34"/>
    </g>
   </g>
   <g id="text_4">
    <!-- Bioregistry -->
    <g style="fill:#262626;" transform="translate(54.711864 135.80592)scale(0.12 -0.12)">
     <defs>
      <path d="M 1259 2228 
L 1259 519 
L 2272 519 
Q 2781 519 3026 730 
Q 3272 941 3272 1375 
Q 3272 1813 3026 2020 
Q 2781 2228 2272 2228 
L 1259 2228 
z
M 1259 4147 
L 1259 2741 
L 2194 2741 
Q 2656 2741 2882 2914 
Q 3109 3088 3109 3444 
Q 3109 3797 2882 3972 
Q 2656 4147 2194 4147 
L 1259 4147 
z
M 628 4666 
L 2241 4666 
Q 2963 4666 3353 4366 
Q 3744 4066 3744 3513 
Q 3744 3084 3544 2831 
Q 3344 2578 2956 2516 
Q 3422 2416 3680 2098 
Q 3938 1781 3938 1306 
Q 3938 681 3513 340 
Q 3088 0 2303 0 
L 628 0 
L 628 4666 
z
" id="DejaVuSans-42" transform="scale(0.015625)"/>
      <path d="M 603 3500 
L 1178 3500 
L 1178 0 
L 603 0 
L 603 3500 
z
M 603 4863 
L 1178 4863 
L 1178 4134 
L 603 4134 
L 603 4863 
z
" id="DejaVuSans-69" transform="scale(0.015625)"/>
      <path d="M 1959 3097 
Q 1497 3097 1228 2736 
Q 959 2375 959 1747 
Q 959 1119 1226 758 
Q 1494 397 1959 397 
Q 2419 397 2687 759 
Q 2956 1122 2956 1747 
Q 2956 2369 2687 2733 
Q 2419 3097 1959 3097 
z
M 1959 3584 
Q 2709 3584 3137 3096 
Q 3566 2609 3566 1747 
Q 3566 888 3137 398 
Q 2709 -91 1959 -91 
Q 1206 -91 779 398 
Q 353 888 353 1747 
Q 353 2609 779 3096 
Q 1206 3584 1959 3584 
z
" id="DejaVuSans-6f" transform="scale(0.015625)"/>
      <path d="M 2631 2963 
Q 2534 3019 2420 3045 
Q 2306 3072 2169 3072 
Q 1681 3072 1420 2755 
Q 1159 2438 1159 1844 
L 1159 0 
L 581 0 
L 581 3500 
L 1159 3500 
L 1159 2956 
Q 1341 3275 1631 3429 
Q 1922 3584 2338 3584 
Q 2397 3584 2469 3576 
Q 2541 3569 2628 3553 
L 2631 2963 
z
" id="DejaVuSans-72" transform="scale(0.015625)"/>
      <path d="M 3597 1894 
L 3597 1613 
L 953 1613 
Q 991 1019 1311 708 
Q 1631 397 2203 397 
Q 2534 397 2845 478 
Q 3156 559 3463 722 
L 3463 178 
Q 3153 47 2828 -22 
Q 2503 -91 2169 -91 
Q 1331 -91 842 396 
Q 353 884 353 1716 
Q 353 2575 817 3079 
Q 1281 3584 2069 3584 
Q 2775 3584 3186 3129 
Q 3597 2675 3597 1894 
z
M 3022 2063 
Q 3016 2534 2758 2815 
Q 2500 3097 2075 3097 
Q 1594 3097 1305 2825 
Q 1016 2553 972 2059 
L 3022 2063 
z
" id="DejaVuSans-65" transform="scale(0.015625)"/>
      <path d="M 2906 1791 
Q 2906 2416 2648 2759 
Q 2391 3103 1925 3103 
Q 1463 3103 1205 2759 
Q 947 2416 947 1791 
Q 947 1169 1205 825 
Q 1463 481 1925 481 
Q 2391 481 2648 825 
Q 2906 1169 2906 1791 
z
M 3481 434 
Q 3481 -459 3084 -895 
Q 2688 -1331 1869 -1331 
Q 1566 -1331 1297 -1286 
Q 1028 -1241 775 -1147 
L 775 -588 
Q 1028 -725 1275 -790 
Q 1522 -856 1778 -856 
Q 2344 -856 2625 -561 
Q 2906 -266 2906 331 
L 2906 616 
Q 2728 306 2450 153 
Q 2172 0 1784 0 
Q 1141 0 747 490 
Q 353 981 353 1791 
Q 353 2603 747 3093 
Q 1141 3584 1784 3584 
Q 2172 3584 2450 3431 
Q 2728 3278 2906 2969 
L 2906 3500 
L 3481 3500 
L 3481 434 
z
" id="DejaVuSans-67" transform="scale(0.015625)"/>
      <path d="M 2834 3397 
L 2834 2853 
Q 2591 2978 2328 3040 
Q 2066 3103 1784 3103 
Q 1356 3103 1142 2972 
Q 928 2841 928 2578 
Q 928 2378 1081 2264 
Q 1234 2150 1697 2047 
L 1894 2003 
Q 2506 1872 2764 1633 
Q 3022 1394 3022 966 
Q 3022 478 2636 193 
Q 2250 -91 1575 -91 
Q 1294 -91 989 -36 
Q 684 19 347 128 
L 347 722 
Q 666 556 975 473 
Q 1284 391 1588 391 
Q 1994 391 2212 530 
Q 2431 669 2431 922 
Q 2431 1156 2273 1281 
Q 2116 1406 1581 1522 
L 1381 1569 
Q 847 1681 609 1914 
Q 372 2147 372 2553 
Q 372 3047 722 3315 
Q 1072 3584 1716 3584 
Q 2034 3584 2315 3537 
Q 2597 3491 2834 3397 
z
" id="DejaVuSans-73" transform="scale(0.015625)"/>
      <path d="M 1172 4494 
L 1172 3500 
L 2356 3500 
L 2356 3053 
L 1172 3053 
L 1172 1153 
Q 1172 725 1289 603 
Q 1406 481 1766 481 
L 2356 481 
L 2356 0 
L 1766 0 
Q 1100 0 847 248 
Q 594 497 594 1153 
L 594 3053 
L 172 3053 
L 172 3500 
L 594 3500 
L 594 4494 
L 1172 4494 
z
" id="DejaVuSans-74" transform="scale(0.015625)"/>
      <path d="M 2059 -325 
Q 1816 -950 1584 -1140 
Q 1353 -1331 966 -1331 
L 506 -1331 
L 506 -850 
L 844 -850 
Q 1081 -850 1212 -737 
Q 1344 -625 1503 -206 
L 1606 56 
L 191 3500 
L 800 3500 
L 1894 763 
L 2988 3500 
L 3597 3500 
L 2059 -325 
z
" id="DejaVuSans-79" transform="scale(0.015625)"/>
     </defs>
     <use xlink:href="#DejaVuSans-42"/>
     <use x="68.603516" xlink:href="#DejaVuSans-69"/>
     <use x="96.386719" xlink:href="#DejaVuSans-6f"/>
     <use x="157.568359" xlink:href="#DejaVuSans-72"/>
     <use x="196.431641" xlink:href="#DejaVuSans-65"/>
     <use x="257.955078" xlink:href="#DejaVuSans-67"/>
     <use x="321.431641" xlink:href="#DejaVuSans-69"/>
     <use x="349.214844" xlink:href="#DejaVuSans-73"/>
     <use x="401.314453" xlink:href="#DejaVuSans-74"/>
     <use x="440.523438" xlink:href="#DejaVuSans-72"/>
     <use x="481.636719" xlink:href="#DejaVuSans-79"/>
    </g>
   </g>
   <g id="text_5">
    <!-- OBO -->
    <g style="fill:#262626;" transform="translate(149.628069 105.798226)scale(0.12 -0.12)">
     <defs>
      <path d="M 2522 4238 
Q 1834 4238 1429 3725 
Q 1025 3213 1025 2328 
Q 1025 1447 1429 934 
Q 1834 422 2522 422 
Q 3209 422 3611 934 
Q 4013 1447 4013 2328 
Q 4013 3213 3611 3725 
Q 3209 4238 2522 4238 
z
M 2522 4750 
Q 3503 4750 4090 4092 
Q 4678 3434 4678 2328 
Q 4678 1225 4090 567 
Q 3503 -91 2522 -91 
Q 1538 -91 948 565 
Q 359 1222 359 2328 
Q 359 3434 948 4092 
Q 1538 4750 2522 4750 
z
" id="DejaVuSans-4f" transform="scale(0.015625)"/>
     </defs>
     <use xlink:href="#DejaVuSans-4f"/>
     <use x="78.710938" xlink:href="#DejaVuSans-42"/>
     <use x="145.564453" xlink:href="#DejaVuSans-4f"/>
    </g>
   </g>
  </g>
  <g id="axes_2">
   <g id="patch_5">
    <path clip-path="url(#pd8f5866bd3)" d="M 405.230181 72.429504 
C 405.107649 75.680996 404.353535 78.877786 403.009976 81.841241 
C 401.666418 84.804695 399.758917 87.478568 397.394062 89.713445 
C 395.029207 91.948322 392.251884 93.701785 389.217287 94.875852 
C 386.182691 96.049919 382.948417 96.622307 379.695194 96.56103 
C 376.441971 96.499754 373.231546 95.805976 370.243315 94.518464 
C 367.255084 93.230953 364.545762 91.374145 362.266746 89.051798 
C 359.98773 86.729451 358.182274 83.985642 356.951267 80.973694 
C 355.720259 77.961746 355.087064 74.738824 355.087064 71.485025 
C 355.087064 68.231225 355.720259 65.008304 356.951267 61.996356 
C 358.182274 58.984407 359.98773 56.240599 362.266746 53.918251 
C 364.545762 51.595904 367.255084 49.739096 370.243315 48.451585 
C 373.231546 47.164074 376.441971 46.470296 379.695194 46.409019 
C 382.948417 46.347743 386.182691 46.92013 389.217287 48.094198 
C 392.251884 49.268265 395.029207 51.021728 397.394062 53.256605 
C 399.758917 55.491482 401.666418 58.165354 403.009976 61.128809 
C 404.353535 64.092263 405.107649 67.289054 405.230181 70.540545 
C 405.106881 63.812142 403.667196 57.172541 400.99257 50.997349 
C 398.317943 44.822157 394.45978 39.230058 389.63634 34.5374 
C 384.812899 29.844742 379.116884 26.141715 372.870523 23.637802 
C 366.624161 21.133889 359.947503 19.877213 353.218252 19.938866 
C 346.489001 20.000518 339.836489 21.379314 333.637053 23.997254 
C 327.437617 26.615194 321.810406 30.421963 317.073755 35.202209 
C 312.337104 39.982456 308.582048 45.644307 306.021014 51.867467 
C 303.45998 58.090627 302.142189 64.755492 302.142189 71.485025 
C 302.142189 78.214558 303.45998 84.879423 306.021014 91.102583 
C 308.582048 97.325743 312.337104 102.987594 317.073755 107.76784 
C 321.810406 112.548086 327.437617 116.354855 333.637053 118.972795 
C 339.836489 121.590735 346.489001 122.969531 353.218252 123.031184 
C 359.947503 123.092836 366.624161 121.836161 372.870523 119.332247 
C 379.116884 116.828334 384.812899 113.125307 389.63634 108.432649 
C 394.45978 103.739991 398.317943 98.147892 400.99257 91.9727 
C 403.667196 85.797509 405.106881 79.157908 405.230181 72.429504 
" style="fill:#c0c0c0;opacity:0.4;"/>
   </g>
   <g id="patch_6">
    <path clip-path="url(#pd8f5866bd3)" d="M 405.230181 70.540545 
C 405.235949 70.855339 405.238834 71.170178 405.238834 71.485025 
C 405.238834 71.799871 405.235949 72.114711 405.230181 72.429504 
C 405.24204 72.114817 405.247971 71.799935 405.247971 71.485025 
C 405.247971 71.170115 405.24204 70.855232 405.230181 70.540545 
" style="fill:#1f78b4;opacity:0.4;"/>
   </g>
   <g id="patch_7">
    <path clip-path="url(#pd8f5866bd3)" d="M 405.230181 72.429504 
C 405.235949 72.114711 405.238834 71.799871 405.238834 71.485025 
C 405.238834 71.170178 405.235949 70.855339 405.230181 70.540545 
C 405.107649 67.289054 404.353535 64.092263 403.009976 61.128809 
C 401.666418 58.165354 399.758917 55.491482 397.394062 53.256605 
C 395.029207 51.021728 392.251884 49.268265 389.217287 48.094198 
C 386.182691 46.92013 382.948417 46.347743 379.695194 46.409019 
C 376.441971 46.470296 373.231546 47.164074 370.243315 48.451585 
C 367.255084 49.739096 364.545762 51.595904 362.266746 53.918251 
C 359.98773 56.240599 358.182274 58.984407 356.951267 61.996356 
C 355.720259 65.008304 355.087064 68.231225 355.087064 71.485025 
C 355.087064 74.738824 355.720259 77.961746 356.951267 80.973694 
C 358.182274 83.985642 359.98773 86.729451 362.266746 89.051798 
C 364.545762 91.374145 367.255084 93.230953 370.243315 94.518464 
C 373.231546 95.805976 376.441971 96.499754 379.695194 96.56103 
C 382.948417 96.622307 386.182691 96.049919 389.217287 94.875852 
C 392.251884 93.701785 395.029207 91.948322 397.394062 89.713445 
C 399.758917 87.478568 401.666418 84.804695 403.009976 81.841241 
C 404.353535 78.877786 405.107649 75.680996 405.230181 72.429504 
" style="fill:#9cdaff;opacity:0.4;"/>
   </g>
   <g id="text_6">
    <!-- 848 -->
    <g style="fill:#262626;" transform="translate(319.070877 74.2444)scale(0.1 -0.1)">
     <defs>
      <path d="M 2034 2216 
Q 1584 2216 1326 1975 
Q 1069 1734 1069 1313 
Q 1069 891 1326 650 
Q 1584 409 2034 409 
Q 2484 409 2743 651 
Q 3003 894 3003 1313 
Q 3003 1734 2745 1975 
Q 2488 2216 2034 2216 
z
M 1403 2484 
Q 997 2584 770 2862 
Q 544 3141 544 3541 
Q 544 4100 942 4425 
Q 1341 4750 2034 4750 
Q 2731 4750 3128 4425 
Q 3525 4100 3525 3541 
Q 3525 3141 3298 2862 
Q 3072 2584 2669 2484 
Q 3125 2378 3379 2068 
Q 3634 1759 3634 1313 
Q 3634 634 3220 271 
Q 2806 -91 2034 -91 
Q 1263 -91 848 271 
Q 434 634 434 1313 
Q 434 1759 690 2068 
Q 947 2378 1403 2484 
z
M 1172 3481 
Q 1172 3119 1398 2916 
Q 1625 2713 2034 2713 
Q 2441 2713 2670 2916 
Q 2900 3119 2900 3481 
Q 2900 3844 2670 4047 
Q 2441 4250 2034 4250 
Q 1625 4250 1398 4047 
Q 1172 3844 1172 3481 
z
" id="DejaVuSans-38" transform="scale(0.015625)"/>
     </defs>
     <use xlink:href="#DejaVuSans-38"/>
     <use x="63.623047" xlink:href="#DejaVuSans-34"/>
     <use x="127.246094" xlink:href="#DejaVuSans-38"/>
    </g>
   </g>
   <g id="text_7">
    <!-- 0 -->
    <g style="fill:#262626;" transform="translate(402.062152 74.2444)scale(0.1 -0.1)">
     <use xlink:href="#DejaVuSans-30"/>
    </g>
   </g>
   <g id="text_8">
    <!-- 263 -->
    <g style="fill:#262626;" transform="translate(370.619199 74.2444)scale(0.1 -0.1)">
     <defs>
      <path d="M 1228 531 
L 3431 531 
L 3431 0 
L 469 0 
L 469 531 
Q 828 903 1448 1529 
Q 2069 2156 2228 2338 
Q 2531 2678 2651 2914 
Q 2772 3150 2772 3378 
Q 2772 3750 2511 3984 
Q 2250 4219 1831 4219 
Q 1534 4219 1204 4116 
Q 875 4013 500 3803 
L 500 4441 
Q 881 4594 1212 4672 
Q 1544 4750 1819 4750 
Q 2544 4750 2975 4387 
Q 3406 4025 3406 3419 
Q 3406 3131 3298 2873 
Q 3191 2616 2906 2266 
Q 2828 2175 2409 1742 
Q 1991 1309 1228 531 
z
" id="DejaVuSans-32" transform="scale(0.015625)"/>
      <path d="M 2113 2584 
Q 1688 2584 1439 2293 
Q 1191 2003 1191 1497 
Q 1191 994 1439 701 
Q 1688 409 2113 409 
Q 2538 409 2786 701 
Q 3034 994 3034 1497 
Q 3034 2003 2786 2293 
Q 2538 2584 2113 2584 
z
M 3366 4563 
L 3366 3988 
Q 3128 4100 2886 4159 
Q 2644 4219 2406 4219 
Q 1781 4219 1451 3797 
Q 1122 3375 1075 2522 
Q 1259 2794 1537 2939 
Q 1816 3084 2150 3084 
Q 2853 3084 3261 2657 
Q 3669 2231 3669 1497 
Q 3669 778 3244 343 
Q 2819 -91 2113 -91 
Q 1303 -91 875 529 
Q 447 1150 447 2328 
Q 447 3434 972 4092 
Q 1497 4750 2381 4750 
Q 2619 4750 2861 4703 
Q 3103 4656 3366 4563 
z
" id="DejaVuSans-36" transform="scale(0.015625)"/>
      <path d="M 2597 2516 
Q 3050 2419 3304 2112 
Q 3559 1806 3559 1356 
Q 3559 666 3084 287 
Q 2609 -91 1734 -91 
Q 1441 -91 1130 -33 
Q 819 25 488 141 
L 488 750 
Q 750 597 1062 519 
Q 1375 441 1716 441 
Q 2309 441 2620 675 
Q 2931 909 2931 1356 
Q 2931 1769 2642 2001 
Q 2353 2234 1838 2234 
L 1294 2234 
L 1294 2753 
L 1863 2753 
Q 2328 2753 2575 2939 
Q 2822 3125 2822 3475 
Q 2822 3834 2567 4026 
Q 2313 4219 1838 4219 
Q 1578 4219 1281 4162 
Q 984 4106 628 3988 
L 628 4550 
Q 988 4650 1302 4700 
Q 1616 4750 1894 4750 
Q 2613 4750 3031 4423 
Q 3450 4097 3450 3541 
Q 3450 3153 3228 2886 
Q 3006 2619 2597 2516 
z
" id="DejaVuSans-33" transform="scale(0.015625)"/>
     </defs>
     <use xlink:href="#DejaVuSans-32"/>
     <use x="63.623047" xlink:href="#DejaVuSans-36"/>
     <use x="127.246094" xlink:href="#DejaVuSans-33"/>
    </g>
   </g>
   <g id="text_9">
    <!-- Bioregistry -->
    <g style="fill:#262626;" transform="translate(288.791136 135.982911)scale(0.12 -0.12)">
     <use xlink:href="#DejaVuSans-42"/>
     <use x="68.603516" xlink:href="#DejaVuSans-69"/>
     <use x="96.386719" xlink:href="#DejaVuSans-6f"/>
     <use x="157.568359" xlink:href="#DejaVuSans-72"/>
     <use x="196.431641" xlink:href="#DejaVuSans-65"/>
     <use x="257.955078" xlink:href="#DejaVuSans-67"/>
     <use x="321.431641" xlink:href="#DejaVuSans-69"/>
     <use x="349.214844" xlink:href="#DejaVuSans-73"/>
     <use x="401.314453" xlink:href="#DejaVuSans-74"/>
     <use x="440.523438" xlink:href="#DejaVuSans-72"/>
     <use x="481.636719" xlink:href="#DejaVuSans-79"/>
    </g>
   </g>
   <g id="text_10">
    <!-- OLS -->
    <g style="fill:#262626;" transform="translate(380.167517 109.515042)scale(0.12 -0.12)">
     <defs>
      <path d="M 628 4666 
L 1259 4666 
L 1259 531 
L 3531 531 
L 3531 0 
L 628 0 
L 628 4666 
z
" id="DejaVuSans-4c" transform="scale(0.015625)"/>
      <path d="M 3425 4513 
L 3425 3897 
Q 3066 4069 2747 4153 
Q 2428 4238 2131 4238 
Q 1616 4238 1336 4038 
Q 1056 3838 1056 3469 
Q 1056 3159 1242 3001 
Q 1428 2844 1947 2747 
L 2328 2669 
Q 3034 2534 3370 2195 
Q 3706 1856 3706 1288 
Q 3706 609 3251 259 
Q 2797 -91 1919 -91 
Q 1588 -91 1214 -16 
Q 841 59 441 206 
L 441 856 
Q 825 641 1194 531 
Q 1563 422 1919 422 
Q 2459 422 2753 634 
Q 3047 847 3047 1241 
Q 3047 1584 2836 1778 
Q 2625 1972 2144 2069 
L 1759 2144 
Q 1053 2284 737 2584 
Q 422 2884 422 3419 
Q 422 4038 858 4394 
Q 1294 4750 2059 4750 
Q 2388 4750 2728 4690 
Q 3069 4631 3425 4513 
z
" id="DejaVuSans-53" transform="scale(0.015625)"/>
     </defs>
     <use xlink:href="#DejaVuSans-4f"/>
     <use x="78.710938" xlink:href="#DejaVuSans-4c"/>
     <use x="134.423828" xlink:href="#DejaVuSans-53"/>
    </g>
   </g>
  </g>
  <g id="axes_3">
   <g id="patch_8">
    <path clip-path="url(#p0ec28b024a)" d="M 639.279832 73.471126 
C 639.023007 78.847282 637.725808 84.122936 635.460258 89.00518 
C 633.194708 93.887423 630.003526 98.284195 626.063888 101.951384 
C 622.124251 105.618572 617.510444 108.487028 612.478631 110.397492 
C 607.446818 112.307956 602.091878 113.224405 596.711124 113.095956 
C 591.33037 112.967507 586.02526 111.796582 581.09034 109.648193 
C 576.15542 107.499804 571.683742 104.414459 567.923578 100.563462 
C 564.163414 96.712464 561.185665 92.168428 559.155661 87.183641 
C 557.125656 82.198855 556.081672 76.867312 556.081672 71.485025 
C 556.081672 66.102738 557.125656 60.771195 559.155661 55.786408 
C 561.185665 50.801622 564.163414 46.257585 567.923578 42.406588 
C 571.683742 38.55559 576.15542 35.470246 581.09034 33.321856 
C 586.02526 31.173467 591.33037 30.002542 596.711124 29.874093 
C 602.091878 29.745644 607.446818 30.662093 612.478631 32.572557 
C 617.510444 34.483021 622.124251 37.351478 626.063888 41.018666 
C 630.003526 44.685854 633.194708 49.082627 635.460258 53.96487 
C 637.725808 58.847113 639.023007 64.122768 639.279832 69.498924 
C 639.022239 62.818183 637.467372 56.250919 634.702069 50.163904 
C 631.936766 44.076889 628.013482 38.585587 623.151325 33.996678 
C 618.289168 29.407769 612.580369 25.808301 606.343755 23.399297 
C 600.10714 20.990294 593.461014 19.817452 586.77655 19.946272 
C 580.092085 20.075092 573.496082 21.503132 567.356915 24.150637 
C 561.217747 26.798141 555.651871 30.614891 550.97013 35.387726 
C 546.288389 40.160561 542.579591 45.798945 540.050868 51.987985 
C 537.522144 58.177025 536.221462 64.799319 536.221462 71.485025 
C 536.221462 78.17073 537.522144 84.793024 540.050868 90.982064 
C 542.579591 97.171104 546.288389 102.809488 550.97013 107.582324 
C 555.651871 112.355159 561.217747 116.171908 567.356915 118.819413 
C 573.496082 121.466918 580.092085 122.894957 586.77655 123.023777 
C 593.461014 123.152598 600.10714 121.979756 606.343755 119.570752 
C 612.580369 117.161749 618.289168 113.56228 623.151325 108.973372 
C 628.013482 104.384463 631.936766 98.893161 634.702069 92.806145 
C 637.467372 86.71913 639.022239 80.151867 639.279832 73.471126 
" style="fill:#c0c0c0;opacity:0.4;"/>
   </g>
   <g id="patch_9">
    <path clip-path="url(#p0ec28b024a)" d="M 639.279832 69.498924 
C 639.305346 70.16065 639.318107 70.822807 639.318107 71.485025 
C 639.318107 72.147243 639.305346 72.809399 639.279832 73.471126 
C 639.311435 72.809564 639.327244 72.147341 639.327244 71.485025 
C 639.327244 70.822708 639.311435 70.160486 639.279832 69.498924 
" style="fill:#b2df8a;opacity:0.4;"/>
   </g>
   <g id="patch_10">
    <path clip-path="url(#p0ec28b024a)" d="M 639.279832 73.471126 
C 639.305346 72.809399 639.318107 72.147243 639.318107 71.485025 
C 639.318107 70.822807 639.305346 70.16065 639.279832 69.498924 
C 639.023007 64.122768 637.725808 58.847113 635.460258 53.96487 
C 633.194708 49.082627 630.003526 44.685854 626.063888 41.018666 
C 622.124251 37.351478 617.510444 34.483021 612.478631 32.572557 
C 607.446818 30.662093 602.091878 29.745644 596.711124 29.874093 
C 591.33037 30.002542 586.02526 31.173467 581.09034 33.321856 
C 576.15542 35.470246 571.683742 38.55559 567.923578 42.406588 
C 564.163414 46.257585 561.185665 50.801622 559.155661 55.786408 
C 557.125656 60.771195 556.081672 66.102738 556.081672 71.485025 
C 556.081672 76.867312 557.125656 82.198855 559.155661 87.183641 
C 561.185665 92.168428 564.163414 96.712464 567.923578 100.563462 
C 571.683742 104.414459 576.15542 107.499804 581.09034 109.648193 
C 586.02526 111.796582 591.33037 112.967507 596.711124 113.095956 
C 602.091878 113.224405 607.446818 112.307956 612.478631 110.397492 
C 617.510444 108.487028 622.124251 105.618572 626.063888 101.951384 
C 630.003526 98.284195 633.194708 93.887423 635.460258 89.00518 
C 637.725808 84.122936 639.023007 78.847282 639.279832 73.471126 
" style="fill:#ffffe7;opacity:0.4;"/>
   </g>
   <g id="text_11">
    <!-- 387 -->
    <g style="fill:#262626;" transform="translate(536.607817 74.2444)scale(0.1 -0.1)">
     <use xlink:href="#DejaVuSans-33"/>
     <use x="63.623047" xlink:href="#DejaVuSans-38"/>
     <use x="127.246094" xlink:href="#DejaVuSans-37"/>
    </g>
   </g>
   <g id="text_12">
    <!-- 0 -->
    <g style="fill:#262626;" transform="translate(636.141425 74.2444)scale(0.1 -0.1)">
     <use xlink:href="#DejaVuSans-30"/>
    </g>
   </g>
   <g id="text_13">
    <!-- 725 -->
    <g style="fill:#262626;" transform="translate(588.156139 74.2444)scale(0.1 -0.1)">
     <defs>
      <path d="M 691 4666 
L 3169 4666 
L 3169 4134 
L 1269 4134 
L 1269 2991 
Q 1406 3038 1543 3061 
Q 1681 3084 1819 3084 
Q 2600 3084 3056 2656 
Q 3513 2228 3513 1497 
Q 3513 744 3044 326 
Q 2575 -91 1722 -91 
Q 1428 -91 1123 -41 
Q 819 9 494 109 
L 494 744 
Q 775 591 1075 516 
Q 1375 441 1709 441 
Q 2250 441 2565 725 
Q 2881 1009 2881 1497 
Q 2881 1984 2565 2268 
Q 2250 2553 1709 2553 
Q 1456 2553 1204 2497 
Q 953 2441 691 2322 
L 691 4666 
z
" id="DejaVuSans-35" transform="scale(0.015625)"/>
     </defs>
     <use xlink:href="#DejaVuSans-37"/>
     <use x="63.623047" xlink:href="#DejaVuSans-32"/>
     <use x="127.246094" xlink:href="#DejaVuSans-35"/>
    </g>
   </g>
   <g id="text_14">
    <!-- Bioregistry -->
    <g style="fill:#262626;" transform="translate(522.870409 136.810028)scale(0.12 -0.12)">
     <use xlink:href="#DejaVuSans-42"/>
     <use x="68.603516" xlink:href="#DejaVuSans-69"/>
     <use x="96.386719" xlink:href="#DejaVuSans-6f"/>
     <use x="157.568359" xlink:href="#DejaVuSans-72"/>
     <use x="196.431641" xlink:href="#DejaVuSans-65"/>
     <use x="257.955078" xlink:href="#DejaVuSans-67"/>
     <use x="321.431641" xlink:href="#DejaVuSans-69"/>
     <use x="349.214844" xlink:href="#DejaVuSans-73"/>
     <use x="401.314453" xlink:href="#DejaVuSans-74"/>
     <use x="440.523438" xlink:href="#DejaVuSans-72"/>
     <use x="481.636719" xlink:href="#DejaVuSans-79"/>
    </g>
   </g>
   <g id="text_15">
    <!-- MIRIAM -->
    <g style="fill:#262626;" transform="translate(597.704458 126.884491)scale(0.12 -0.12)">
     <defs>
      <path d="M 628 4666 
L 1569 4666 
L 2759 1491 
L 3956 4666 
L 4897 4666 
L 4897 0 
L 4281 0 
L 4281 4097 
L 3078 897 
L 2444 897 
L 1241 4097 
L 1241 0 
L 628 0 
L 628 4666 
z
" id="DejaVuSans-4d" transform="scale(0.015625)"/>
      <path d="M 628 4666 
L 1259 4666 
L 1259 0 
L 628 0 
L 628 4666 
z
" id="DejaVuSans-49" transform="scale(0.015625)"/>
      <path d="M 2841 2188 
Q 3044 2119 3236 1894 
Q 3428 1669 3622 1275 
L 4263 0 
L 3584 0 
L 2988 1197 
Q 2756 1666 2539 1819 
Q 2322 1972 1947 1972 
L 1259 1972 
L 1259 0 
L 628 0 
L 628 4666 
L 2053 4666 
Q 2853 4666 3247 4331 
Q 3641 3997 3641 3322 
Q 3641 2881 3436 2590 
Q 3231 2300 2841 2188 
z
M 1259 4147 
L 1259 2491 
L 2053 2491 
Q 2509 2491 2742 2702 
Q 2975 2913 2975 3322 
Q 2975 3731 2742 3939 
Q 2509 4147 2053 4147 
L 1259 4147 
z
" id="DejaVuSans-52" transform="scale(0.015625)"/>
      <path d="M 2188 4044 
L 1331 1722 
L 3047 1722 
L 2188 4044 
z
M 1831 4666 
L 2547 4666 
L 4325 0 
L 3669 0 
L 3244 1197 
L 1141 1197 
L 716 0 
L 50 0 
L 1831 4666 
z
" id="DejaVuSans-41" transform="scale(0.015625)"/>
     </defs>
     <use xlink:href="#DejaVuSans-4d"/>
     <use x="86.279297" xlink:href="#DejaVuSans-49"/>
     <use x="115.771484" xlink:href="#DejaVuSans-52"/>
     <use x="185.253906" xlink:href="#DejaVuSans-49"/>
     <use x="214.746094" xlink:href="#DejaVuSans-41"/>
     <use x="283.154297" xlink:href="#DejaVuSans-4d"/>
    </g>
   </g>
  </g>
  <g id="axes_4">
   <g id="patch_11">
    <path clip-path="url(#p13a65b0bb4)" d="M 168.937397 224.259907 
C 167.727628 226.209461 166.210002 227.950235 164.443575 229.414489 
C 162.677148 230.878743 160.685135 232.047233 158.545053 232.874488 
C 156.404972 233.701744 154.144946 234.176894 151.852922 234.281447 
C 149.560899 234.386001 147.267 234.118585 145.06049 233.489604 
C 142.85398 232.860624 140.763857 231.878346 138.871456 230.580995 
C 136.979055 229.283643 135.309246 227.688268 133.927007 225.856952 
C 132.544769 224.025636 131.468267 221.982445 130.739392 219.806889 
C 130.010517 217.631334 129.638847 215.352003 129.638847 213.057597 
C 129.638847 210.76319 130.010517 208.48386 130.739392 206.308304 
C 131.468267 204.132748 132.544769 202.089557 133.927007 200.258241 
C 135.309246 198.426925 136.979055 196.83155 138.871456 195.534198 
C 140.763857 194.236847 142.85398 193.254569 145.06049 192.625589 
C 147.267 191.996609 149.560899 191.729192 151.852922 191.833746 
C 154.144946 191.938299 156.404972 192.413449 158.545053 193.240705 
C 160.685135 194.067961 162.677148 195.236451 164.443575 196.700704 
C 166.210002 198.164958 167.727628 199.905732 168.937397 201.855286 
C 167.569516 195.713047 165.088116 189.872972 161.616259 184.624696 
C 158.144402 179.376419 153.740447 174.808159 148.622804 171.146474 
C 143.505161 167.48479 137.759854 164.79123 131.671815 163.199381 
C 125.583777 161.607531 119.255341 161.144149 113.000362 161.832215 
C 106.745383 162.520281 100.669 164.348229 95.072568 167.225405 
C 89.476135 170.102581 84.453723 173.980621 80.254413 178.667198 
C 76.055104 183.353774 72.749484 188.77011 70.501492 194.647587 
C 68.2535 200.525064 67.100924 206.764886 67.100924 213.057597 
C 67.100924 219.350307 68.2535 225.590129 70.501492 231.467606 
C 72.749484 237.345083 76.055104 242.761419 80.254413 247.447995 
C 84.453723 252.134572 89.476135 256.012612 95.072568 258.889788 
C 100.669 261.766964 106.745383 263.594912 113.000362 264.282978 
C 119.255341 264.971045 125.583777 264.507662 131.671815 262.915813 
C 137.759854 261.323963 143.505161 258.630404 148.622804 254.968719 
C 153.740447 251.307034 158.144402 246.738774 161.616259 241.490498 
C 165.088116 236.242221 167.569516 230.402146 168.937397 224.259907 
" style="fill:#c0c0c0;opacity:0.4;"/>
   </g>
   <g id="patch_12">
    <path clip-path="url(#p13a65b0bb4)" d="M 168.937397 201.855286 
C 169.75645 205.533104 170.169684 209.289681 170.169684 213.057597 
C 170.169684 216.825512 169.75645 220.58209 168.937397 224.259907 
C 171.024488 220.896541 172.13069 217.015902 172.13069 213.057597 
C 172.13069 209.099291 171.024488 205.218652 168.937397 201.855286 
" style="fill:#33a02c;opacity:0.4;"/>
   </g>
   <g id="patch_13">
    <path clip-path="url(#p13a65b0bb4)" d="M 168.937397 224.259907 
C 169.75645 220.58209 170.169684 216.825512 170.169684 213.057597 
C 170.169684 209.289681 169.75645 205.533104 168.937397 201.855286 
C 167.727628 199.905732 166.210002 198.164958 164.443575 196.700704 
C 162.677148 195.236451 160.685135 194.067961 158.545053 193.240705 
C 156.404972 192.413449 154.144946 191.938299 151.852922 191.833746 
C 149.560899 191.729192 147.267 191.996609 145.06049 192.625589 
C 142.85398 193.254569 140.763857 194.236847 138.871456 195.534198 
C 136.979055 196.83155 135.309246 198.426925 133.927007 200.258241 
C 132.544769 202.089557 131.468267 204.132748 130.739392 206.308304 
C 130.010517 208.48386 129.638847 210.76319 129.638847 213.057597 
C 129.638847 215.352003 130.010517 217.631334 130.739392 219.806889 
C 131.468267 221.982445 132.544769 224.025636 133.927007 225.856952 
C 135.309246 227.688268 136.979055 229.283643 138.871456 230.580995 
C 140.763857 231.878346 142.85398 232.860624 145.06049 233.489604 
C 147.267 234.118585 149.560899 234.386001 151.852922 234.281447 
C 154.144946 234.176894 156.404972 233.701744 158.545053 232.874488 
C 160.685135 232.047233 162.677148 230.878743 164.443575 229.414489 
C 166.210002 227.950235 167.727628 226.209461 168.937397 224.259907 
" style="fill:#aaf6a5;opacity:0.4;"/>
   </g>
   <g id="text_16">
    <!-- 927 -->
    <g style="fill:#262626;" transform="translate(88.826136 215.816972)scale(0.1 -0.1)">
     <use xlink:href="#DejaVuSans-39"/>
     <use x="63.623047" xlink:href="#DejaVuSans-32"/>
     <use x="127.246094" xlink:href="#DejaVuSans-37"/>
    </g>
   </g>
   <g id="text_17">
    <!-- 4 -->
    <g style="fill:#262626;" transform="translate(167.968937 215.816972)scale(0.1 -0.1)">
     <use xlink:href="#DejaVuSans-34"/>
    </g>
   </g>
   <g id="text_18">
    <!-- 185 -->
    <g style="fill:#262626;" transform="translate(140.360516 215.816972)scale(0.1 -0.1)">
     <use xlink:href="#DejaVuSans-31"/>
     <use x="63.623047" xlink:href="#DejaVuSans-38"/>
     <use x="127.246094" xlink:href="#DejaVuSans-35"/>
    </g>
   </g>
   <g id="text_19">
    <!-- Bioregistry -->
    <g style="fill:#262626;" transform="translate(53.735929 277.349117)scale(0.12 -0.12)">
     <use xlink:href="#DejaVuSans-42"/>
     <use x="68.603516" xlink:href="#DejaVuSans-69"/>
     <use x="96.386719" xlink:href="#DejaVuSans-6f"/>
     <use x="157.568359" xlink:href="#DejaVuSans-72"/>
     <use x="196.431641" xlink:href="#DejaVuSans-65"/>
     <use x="257.955078" xlink:href="#DejaVuSans-67"/>
     <use x="321.431641" xlink:href="#DejaVuSans-69"/>
     <use x="349.214844" xlink:href="#DejaVuSans-73"/>
     <use x="401.314453" xlink:href="#DejaVuSans-74"/>
     <use x="440.523438" xlink:href="#DejaVuSans-72"/>
     <use x="481.636719" xlink:href="#DejaVuSans-79"/>
    </g>
   </g>
   <g id="text_20">
    <!-- Wikidata -->
    <g style="fill:#262626;" transform="translate(150.884769 247.060658)scale(0.12 -0.12)">
     <defs>
      <path d="M 213 4666 
L 850 4666 
L 1831 722 
L 2809 4666 
L 3519 4666 
L 4500 722 
L 5478 4666 
L 6119 4666 
L 4947 0 
L 4153 0 
L 3169 4050 
L 2175 0 
L 1381 0 
L 213 4666 
z
" id="DejaVuSans-57" transform="scale(0.015625)"/>
      <path d="M 581 4863 
L 1159 4863 
L 1159 1991 
L 2875 3500 
L 3609 3500 
L 1753 1863 
L 3688 0 
L 2938 0 
L 1159 1709 
L 1159 0 
L 581 0 
L 581 4863 
z
" id="DejaVuSans-6b" transform="scale(0.015625)"/>
      <path d="M 2906 2969 
L 2906 4863 
L 3481 4863 
L 3481 0 
L 2906 0 
L 2906 525 
Q 2725 213 2448 61 
Q 2172 -91 1784 -91 
Q 1150 -91 751 415 
Q 353 922 353 1747 
Q 353 2572 751 3078 
Q 1150 3584 1784 3584 
Q 2172 3584 2448 3432 
Q 2725 3281 2906 2969 
z
M 947 1747 
Q 947 1113 1208 752 
Q 1469 391 1925 391 
Q 2381 391 2643 752 
Q 2906 1113 2906 1747 
Q 2906 2381 2643 2742 
Q 2381 3103 1925 3103 
Q 1469 3103 1208 2742 
Q 947 2381 947 1747 
z
" id="DejaVuSans-64" transform="scale(0.015625)"/>
      <path d="M 2194 1759 
Q 1497 1759 1228 1600 
Q 959 1441 959 1056 
Q 959 750 1161 570 
Q 1363 391 1709 391 
Q 2188 391 2477 730 
Q 2766 1069 2766 1631 
L 2766 1759 
L 2194 1759 
z
M 3341 1997 
L 3341 0 
L 2766 0 
L 2766 531 
Q 2569 213 2275 61 
Q 1981 -91 1556 -91 
Q 1019 -91 701 211 
Q 384 513 384 1019 
Q 384 1609 779 1909 
Q 1175 2209 1959 2209 
L 2766 2209 
L 2766 2266 
Q 2766 2663 2505 2880 
Q 2244 3097 1772 3097 
Q 1472 3097 1187 3025 
Q 903 2953 641 2809 
L 641 3341 
Q 956 3463 1253 3523 
Q 1550 3584 1831 3584 
Q 2591 3584 2966 3190 
Q 3341 2797 3341 1997 
z
" id="DejaVuSans-61" transform="scale(0.015625)"/>
     </defs>
     <use xlink:href="#DejaVuSans-57"/>
     <use x="96.626953" xlink:href="#DejaVuSans-69"/>
     <use x="124.410156" xlink:href="#DejaVuSans-6b"/>
     <use x="182.320312" xlink:href="#DejaVuSans-69"/>
     <use x="210.103516" xlink:href="#DejaVuSans-64"/>
     <use x="273.580078" xlink:href="#DejaVuSans-61"/>
     <use x="334.859375" xlink:href="#DejaVuSans-74"/>
     <use x="374.068359" xlink:href="#DejaVuSans-61"/>
    </g>
   </g>
  </g>
  <g id="axes_5">
   <g id="patch_14">
    <path clip-path="url(#p376ed3c2b0)" d="M 401.712744 230.519079 
C 399.749494 234.588177 397.113978 238.297187 393.917254 241.489813 
C 390.72053 244.682439 387.008142 247.313196 382.93653 249.271224 
C 378.864918 251.229253 374.492088 252.486657 370.002311 252.990451 
C 365.512535 253.494244 360.969776 253.23725 356.565466 252.230296 
C 352.161155 251.223343 347.958041 249.480777 344.133242 247.076029 
C 340.308442 244.671282 336.916448 241.638613 334.100197 238.105819 
C 331.283947 234.573024 329.083562 230.590435 327.591768 226.325878 
C 326.099973 222.06132 325.338021 217.57555 325.338021 213.057597 
C 325.338021 208.539643 326.099973 204.053873 327.591768 199.789315 
C 329.083562 195.524758 331.283947 191.542169 334.100197 188.009375 
C 336.916448 184.47658 340.308442 181.443911 344.133242 179.039164 
C 347.958041 176.634416 352.161155 174.89185 356.565466 173.884897 
C 360.969776 172.877943 365.512535 172.620949 370.002311 173.124742 
C 374.492088 173.628536 378.864918 174.88594 382.93653 176.843969 
C 387.008142 178.801997 390.72053 181.432755 393.917254 184.62538 
C 397.113978 187.818006 399.749494 191.527017 401.712744 195.596114 
C 399.673361 189.932849 396.657509 184.6704 392.802192 180.047827 
C 388.946874 175.425254 384.311367 171.513631 379.106249 168.490651 
C 373.901131 165.467672 368.206433 163.379816 362.280851 162.321929 
C 356.355268 161.264042 350.289908 161.25239 344.360304 162.287501 
C 338.430701 163.322613 332.728023 165.388574 327.511329 168.391532 
C 322.294635 171.39449 317.644132 175.288274 313.771082 179.896 
C 309.898032 184.503726 306.861984 189.754548 304.800856 195.409936 
C 302.739729 201.065323 301.685213 207.038323 301.685213 213.057597 
C 301.685213 219.07687 302.739729 225.04987 304.800856 230.705257 
C 306.861984 236.360645 309.898032 241.611467 313.771082 246.219193 
C 317.644132 250.826919 322.294635 254.720703 327.511329 257.723661 
C 332.728023 260.72662 338.430701 262.79258 344.360304 263.827692 
C 350.289908 264.862803 356.355268 264.851151 362.280851 263.793264 
C 368.206433 262.735378 373.901131 260.647521 379.106249 257.624542 
C 384.311367 254.601563 388.946874 250.689939 392.802192 246.067366 
C 396.657509 241.444793 399.673361 236.182344 401.712744 230.519079 
" style="fill:#c0c0c0;opacity:0.4;"/>
   </g>
   <g id="patch_15">
    <path clip-path="url(#p376ed3c2b0)" d="M 401.712744 195.596114 
C 403.729595 201.19681 404.760938 207.104826 404.760938 213.057597 
C 404.760938 219.010368 403.729595 224.918383 401.712744 230.519079 
C 404.340207 225.07331 405.704946 219.104081 405.704946 213.057597 
C 405.704946 207.011113 404.340207 201.041884 401.712744 195.596114 
" style="fill:#fb9a99;opacity:0.4;"/>
   </g>
   <g id="patch_16">
    <path clip-path="url(#p376ed3c2b0)" d="M 401.712744 230.519079 
C 403.729595 224.918383 404.760938 219.010368 404.760938 213.057597 
C 404.760938 207.104826 403.729595 201.19681 401.712744 195.596114 
C 399.749494 191.527017 397.113978 187.818006 393.917254 184.62538 
C 390.72053 181.432755 387.008142 178.801997 382.93653 176.843969 
C 378.864918 174.88594 374.492088 173.628536 370.002311 173.124742 
C 365.512535 172.620949 360.969776 172.877943 356.565466 173.884897 
C 352.161155 174.89185 347.958041 176.634416 344.133242 179.039164 
C 340.308442 181.443911 336.916448 184.47658 334.100197 188.009375 
C 331.283947 191.542169 329.083562 195.524758 327.591768 199.789315 
C 326.099973 204.053873 325.338021 208.539643 325.338021 213.057597 
C 325.338021 217.57555 326.099973 222.06132 327.591768 226.325878 
C 329.083562 230.590435 331.283947 234.573024 334.100197 238.105819 
C 336.916448 241.638613 340.308442 244.671282 344.133242 247.076029 
C 347.958041 249.480777 352.161155 251.223343 356.565466 252.230296 
C 360.969776 253.23725 365.512535 253.494244 370.002311 252.990451 
C 374.492088 252.486657 378.864918 251.229253 382.93653 249.271224 
C 387.008142 247.313196 390.72053 244.682439 393.917254 241.489813 
C 397.113978 238.297187 399.749494 234.588177 401.712744 230.519079 
" style="fill:#fff2f2;opacity:0.4;"/>
   </g>
   <g id="text_21">
    <!-- 439 -->
    <g style="fill:#262626;" transform="translate(303.967867 215.816972)scale(0.1 -0.1)">
     <use xlink:href="#DejaVuSans-34"/>
     <use x="63.623047" xlink:href="#DejaVuSans-33"/>
     <use x="127.246094" xlink:href="#DejaVuSans-39"/>
    </g>
   </g>
   <g id="text_22">
    <!-- 3 -->
    <g style="fill:#262626;" transform="translate(402.051692 215.816972)scale(0.1 -0.1)">
     <use xlink:href="#DejaVuSans-33"/>
    </g>
   </g>
   <g id="text_23">
    <!-- 673 -->
    <g style="fill:#262626;" transform="translate(355.50573 215.816972)scale(0.1 -0.1)">
     <use xlink:href="#DejaVuSans-36"/>
     <use x="63.623047" xlink:href="#DejaVuSans-37"/>
     <use x="127.246094" xlink:href="#DejaVuSans-33"/>
    </g>
   </g>
   <g id="text_24">
    <!-- Bioregistry -->
    <g style="fill:#262626;" transform="translate(288.323701 278.29965)scale(0.12 -0.12)">
     <use xlink:href="#DejaVuSans-42"/>
     <use x="68.603516" xlink:href="#DejaVuSans-69"/>
     <use x="96.386719" xlink:href="#DejaVuSans-6f"/>
     <use x="157.568359" xlink:href="#DejaVuSans-72"/>
     <use x="196.431641" xlink:href="#DejaVuSans-65"/>
     <use x="257.955078" xlink:href="#DejaVuSans-67"/>
     <use x="321.431641" xlink:href="#DejaVuSans-69"/>
     <use x="349.214844" xlink:href="#DejaVuSans-73"/>
     <use x="401.314453" xlink:href="#DejaVuSans-74"/>
     <use x="440.523438" xlink:href="#DejaVuSans-72"/>
     <use x="481.636719" xlink:href="#DejaVuSans-79"/>
    </g>
   </g>
   <g id="text_25">
    <!-- N2T -->
    <g style="fill:#262626;" transform="translate(365.521484 266.94525)scale(0.12 -0.12)">
     <defs>
      <path d="M 628 4666 
L 1478 4666 
L 3547 763 
L 3547 4666 
L 4159 4666 
L 4159 0 
L 3309 0 
L 1241 3903 
L 1241 0 
L 628 0 
L 628 4666 
z
" id="DejaVuSans-4e" transform="scale(0.015625)"/>
      <path d="M -19 4666 
L 3928 4666 
L 3928 4134 
L 2272 4134 
L 2272 0 
L 1638 0 
L 1638 4134 
L -19 4134 
L -19 4666 
z
" id="DejaVuSans-54" transform="scale(0.015625)"/>
     </defs>
     <use xlink:href="#DejaVuSans-4e"/>
     <use x="74.804688" xlink:href="#DejaVuSans-32"/>
     <use x="138.427734" xlink:href="#DejaVuSans-54"/>
    </g>
   </g>
  </g>
  <g id="axes_6">
   <g id="patch_17">
    <path clip-path="url(#p8fbe88d3ed)" d="M 622.008609 237.455348 
C 616.060571 236.716271 610.583357 233.826965 606.615013 229.335014 
C 602.646668 224.843063 600.454793 219.051375 600.454793 213.057597 
C 600.454793 207.063818 602.646668 201.272131 606.615013 196.78018 
C 610.583357 192.288229 616.060571 189.398923 622.008609 188.659845 
C 619.314413 183.696634 615.816613 179.213797 611.657458 175.393643 
C 607.498302 171.573489 602.734946 168.468514 597.561105 166.204992 
C 592.387265 163.94147 586.87404 162.550507 581.245642 162.088669 
C 575.617244 161.626831 569.95102 162.100466 564.477403 163.490312 
C 559.003786 164.880158 553.797995 167.167115 549.07174 170.258177 
C 544.345485 173.34924 540.163714 177.20193 536.696492 181.659567 
C 533.22927 186.117204 530.524243 191.11853 528.69142 196.460151 
C 526.858597 201.801772 525.923164 207.410282 525.923164 213.057597 
C 525.923164 218.704911 526.858597 224.313421 528.69142 229.655043 
C 530.524243 234.996664 533.22927 239.997989 536.696492 244.455626 
C 540.163714 248.913263 544.345485 252.765953 549.07174 255.857016 
C 553.797995 258.948078 559.003786 261.235035 564.477403 262.624881 
C 569.95102 264.014727 575.617244 264.488362 581.245642 264.026524 
C 586.87404 263.564687 592.387265 262.173723 597.561105 259.910201 
C 602.734946 257.646679 607.498302 254.541704 611.657458 250.72155 
C 615.816613 246.901396 619.314413 242.418559 622.008609 237.455348 
" style="fill:#c0c0c0;opacity:0.4;"/>
   </g>
   <g id="patch_18">
    <path clip-path="url(#p8fbe88d3ed)" d="M 622.008609 188.659845 
C 626.073863 196.148803 628.203618 204.5364 628.203618 213.057597 
C 628.203618 221.578793 626.073863 229.96639 622.008609 237.455348 
C 625.466435 237.885002 628.976423 237.574686 632.305232 236.545028 
C 635.634042 235.51537 638.706237 233.789705 641.317584 231.482751 
C 643.928931 229.175797 646.020252 226.339834 647.452519 223.163393 
C 648.884786 219.986951 649.625541 216.542015 649.625541 213.057597 
C 649.625541 209.573179 648.884786 206.128242 647.452519 202.951801 
C 646.020252 199.775359 643.928931 196.939396 641.317584 194.632442 
C 638.706237 192.325488 635.634042 190.599823 632.305232 189.570165 
C 628.976423 188.540507 625.466435 188.230191 622.008609 188.659845 
" style="fill:#e31a1c;opacity:0.4;"/>
   </g>
   <g id="patch_19">
    <path clip-path="url(#p8fbe88d3ed)" d="M 622.008609 237.455348 
C 626.073863 229.96639 628.203618 221.578793 628.203618 213.057597 
C 628.203618 204.5364 626.073863 196.148803 622.008609 188.659845 
C 616.060571 189.398923 610.583357 192.288229 606.615013 196.78018 
C 602.646668 201.272131 600.454793 207.063818 600.454793 213.057597 
C 600.454793 219.051375 602.646668 224.843063 606.615013 229.335014 
C 610.583357 233.826965 616.060571 236.716271 622.008609 237.455348 
" style="fill:#ff999a;opacity:0.4;"/>
   </g>
   <g id="text_26">
    <!-- 976 -->
    <g style="fill:#262626;" transform="translate(553.645229 215.816972)scale(0.1 -0.1)">
     <use xlink:href="#DejaVuSans-39"/>
     <use x="63.623047" xlink:href="#DejaVuSans-37"/>
     <use x="127.246094" xlink:href="#DejaVuSans-36"/>
    </g>
   </g>
   <g id="text_27">
    <!-- 121 -->
    <g style="fill:#262626;" transform="translate(629.37083 215.816972)scale(0.1 -0.1)">
     <use xlink:href="#DejaVuSans-31"/>
     <use x="63.623047" xlink:href="#DejaVuSans-32"/>
     <use x="127.246094" xlink:href="#DejaVuSans-31"/>
    </g>
   </g>
   <g id="text_28">
    <!-- 136 -->
    <g style="fill:#262626;" transform="translate(604.785456 215.816972)scale(0.1 -0.1)">
     <use xlink:href="#DejaVuSans-31"/>
     <use x="63.623047" xlink:href="#DejaVuSans-33"/>
     <use x="127.246094" xlink:href="#DejaVuSans-36"/>
    </g>
   </g>
   <g id="text_29">
    <!-- Bioregistry -->
    <g style="fill:#262626;" transform="translate(512.164016 277.102229)scale(0.12 -0.12)">
     <use xlink:href="#DejaVuSans-42"/>
     <use x="68.603516" xlink:href="#DejaVuSans-69"/>
     <use x="96.386719" xlink:href="#DejaVuSans-6f"/>
     <use x="157.568359" xlink:href="#DejaVuSans-72"/>
     <use x="196.431641" xlink:href="#DejaVuSans-65"/>
     <use x="257.955078" xlink:href="#DejaVuSans-67"/>
     <use x="321.431641" xlink:href="#DejaVuSans-69"/>
     <use x="349.214844" xlink:href="#DejaVuSans-73"/>
     <use x="401.314453" xlink:href="#DejaVuSans-74"/>
     <use x="440.523438" xlink:href="#DejaVuSans-72"/>
     <use x="481.636719" xlink:href="#DejaVuSans-79"/>
    </g>
   </g>
   <g id="text_30">
    <!-- GO -->
    <g style="fill:#262626;" transform="translate(625.040167 250.547376)scale(0.12 -0.12)">
     <defs>
      <path d="M 3809 666 
L 3809 1919 
L 2778 1919 
L 2778 2438 
L 4434 2438 
L 4434 434 
Q 4069 175 3628 42 
Q 3188 -91 2688 -91 
Q 1594 -91 976 548 
Q 359 1188 359 2328 
Q 359 3472 976 4111 
Q 1594 4750 2688 4750 
Q 3144 4750 3555 4637 
Q 3966 4525 4313 4306 
L 4313 3634 
Q 3963 3931 3569 4081 
Q 3175 4231 2741 4231 
Q 1884 4231 1454 3753 
Q 1025 3275 1025 2328 
Q 1025 1384 1454 906 
Q 1884 428 2741 428 
Q 3075 428 3337 486 
Q 3600 544 3809 666 
z
" id="DejaVuSans-47" transform="scale(0.015625)"/>
     </defs>
     <use xlink:href="#DejaVuSans-47"/>
     <use x="77.490234" xlink:href="#DejaVuSans-4f"/>
    </g>
   </g>
  </g>
  <g id="axes_7">
   <g id="patch_20">
    <path clip-path="url(#p208e3ea77b)" d="M 127.250553 391.335847 
C 121.166062 387.338778 116.169837 381.890843 112.713021 375.483971 
C 109.256204 369.077099 107.446072 361.910113 107.446072 354.630168 
C 107.446072 347.350224 109.256204 340.183238 112.713021 333.776366 
C 116.169837 327.369494 121.166062 321.921558 127.250553 317.92449 
C 120.131312 311.414814 111.269648 307.114837 101.750512 305.551014 
C 92.231376 303.987192 82.45978 305.226061 73.632079 309.115943 
C 64.804377 313.005825 57.296164 319.381217 52.026685 327.461568 
C 46.757205 335.541919 43.95066 344.983434 43.95066 354.630168 
C 43.95066 364.276903 46.757205 373.718418 52.026685 381.798769 
C 57.296164 389.87912 64.804377 396.254512 73.632079 400.144394 
C 82.45978 404.034276 92.231376 405.273145 101.750512 403.709322 
C 111.269648 402.1455 120.131312 397.845523 127.250553 391.335847 
" style="fill:#c0c0c0;opacity:0.4;"/>
   </g>
   <g id="patch_21">
    <path clip-path="url(#p208e3ea77b)" d="M 127.250553 317.92449 
C 132.346903 322.58448 136.417324 328.255194 139.201919 334.574554 
C 141.986513 340.893915 143.424725 347.724498 143.424725 354.630168 
C 143.424725 361.535839 141.986513 368.366422 139.201919 374.685783 
C 136.417324 381.005143 132.346903 386.675857 127.250553 391.335847 
C 133.872618 395.686061 141.550118 398.164236 149.465856 398.506592 
C 157.381594 398.848948 165.244387 397.042891 172.217315 393.280661 
C 179.190244 389.51843 185.016806 383.938419 189.076821 377.134568 
C 193.136836 370.330717 195.280954 362.553306 195.280954 354.630168 
C 195.280954 346.707031 193.136836 338.92962 189.076821 332.125769 
C 185.016806 325.321918 179.190244 319.741907 172.217315 315.979676 
C 165.244387 312.217445 157.381594 310.411389 149.465856 310.753745 
C 141.550118 311.096101 133.872618 313.574276 127.250553 317.92449 
" style="fill:#fdbf6f;opacity:0.4;"/>
   </g>
   <g id="patch_22">
    <path clip-path="url(#p208e3ea77b)" d="M 127.250553 391.335847 
C 132.346903 386.675857 136.417324 381.005143 139.201919 374.685783 
C 141.986513 368.366422 143.424725 361.535839 143.424725 354.630168 
C 143.424725 347.724498 141.986513 340.893915 139.201919 334.574554 
C 136.417324 328.255194 132.346903 322.58448 127.250553 317.92449 
C 121.166062 321.921558 116.169837 327.369494 112.713021 333.776366 
C 109.256204 340.183238 107.446072 347.350224 107.446072 354.630168 
C 107.446072 361.910113 109.256204 369.077099 112.713021 375.483971 
C 116.169837 381.890843 121.166062 387.338778 127.250553 391.335847 
" style="fill:#ffffd4;opacity:0.4;"/>
   </g>
   <g id="text_31">
    <!-- 848 -->
    <g style="fill:#262626;" transform="translate(66.154616 357.389543)scale(0.1 -0.1)">
     <use xlink:href="#DejaVuSans-38"/>
     <use x="63.623047" xlink:href="#DejaVuSans-34"/>
     <use x="127.246094" xlink:href="#DejaVuSans-38"/>
    </g>
   </g>
   <g id="text_32">
    <!-- 603 -->
    <g style="fill:#262626;" transform="translate(159.80909 357.389543)scale(0.1 -0.1)">
     <use xlink:href="#DejaVuSans-36"/>
     <use x="63.623047" xlink:href="#DejaVuSans-30"/>
     <use x="127.246094" xlink:href="#DejaVuSans-33"/>
    </g>
   </g>
   <g id="text_33">
    <!-- 264 -->
    <g style="fill:#262626;" transform="translate(115.891649 357.389543)scale(0.1 -0.1)">
     <use xlink:href="#DejaVuSans-32"/>
     <use x="63.623047" xlink:href="#DejaVuSans-36"/>
     <use x="127.246094" xlink:href="#DejaVuSans-34"/>
    </g>
   </g>
   <g id="text_34">
    <!-- Bioregistry -->
    <g style="fill:#262626;" transform="translate(28.788318 418.16805)scale(0.12 -0.12)">
     <use xlink:href="#DejaVuSans-42"/>
     <use x="68.603516" xlink:href="#DejaVuSans-69"/>
     <use x="96.386719" xlink:href="#DejaVuSans-6f"/>
     <use x="157.568359" xlink:href="#DejaVuSans-72"/>
     <use x="196.431641" xlink:href="#DejaVuSans-65"/>
     <use x="257.955078" xlink:href="#DejaVuSans-67"/>
     <use x="321.431641" xlink:href="#DejaVuSans-69"/>
     <use x="349.214844" xlink:href="#DejaVuSans-73"/>
     <use x="401.314453" xlink:href="#DejaVuSans-74"/>
     <use x="440.523438" xlink:href="#DejaVuSans-72"/>
     <use x="481.636719" xlink:href="#DejaVuSans-79"/>
    </g>
   </g>
   <g id="text_35">
    <!-- BioPortal -->
    <g style="fill:#262626;" transform="translate(151.363513 412.348458)scale(0.12 -0.12)">
     <defs>
      <path d="M 1259 4147 
L 1259 2394 
L 2053 2394 
Q 2494 2394 2734 2622 
Q 2975 2850 2975 3272 
Q 2975 3691 2734 3919 
Q 2494 4147 2053 4147 
L 1259 4147 
z
M 628 4666 
L 2053 4666 
Q 2838 4666 3239 4311 
Q 3641 3956 3641 3272 
Q 3641 2581 3239 2228 
Q 2838 1875 2053 1875 
L 1259 1875 
L 1259 0 
L 628 0 
L 628 4666 
z
" id="DejaVuSans-50" transform="scale(0.015625)"/>
      <path d="M 603 4863 
L 1178 4863 
L 1178 0 
L 603 0 
L 603 4863 
z
" id="DejaVuSans-6c" transform="scale(0.015625)"/>
     </defs>
     <use xlink:href="#DejaVuSans-42"/>
     <use x="68.603516" xlink:href="#DejaVuSans-69"/>
     <use x="96.386719" xlink:href="#DejaVuSans-6f"/>
     <use x="157.568359" xlink:href="#DejaVuSans-50"/>
     <use x="214.246094" xlink:href="#DejaVuSans-6f"/>
     <use x="275.427734" xlink:href="#DejaVuSans-72"/>
     <use x="316.541016" xlink:href="#DejaVuSans-74"/>
     <use x="355.75" xlink:href="#DejaVuSans-61"/>
     <use x="417.029297" xlink:href="#DejaVuSans-6c"/>
    </g>
   </g>
  </g>
  <g id="axes_8">
   <g id="patch_23">
    <path clip-path="url(#p93ab04c0ae)" d="M 366.158369 401.823616 
C 359.812297 402.061318 353.482992 401.016569 347.549957 398.752011 
C 341.616922 396.487453 336.201157 393.049269 331.627392 388.643615 
C 327.053626 384.23796 323.415138 378.954683 320.930091 373.110569 
C 318.445044 367.266455 317.164118 360.98069 317.164118 354.630168 
C 317.164118 348.279647 318.445044 341.993882 320.930091 336.149768 
C 323.415138 330.305654 327.053626 325.022377 331.627392 320.616722 
C 336.201157 316.211067 341.616922 312.772884 347.549957 310.508326 
C 353.482992 308.243768 359.812297 307.199019 366.158369 307.436721 
C 358.410605 304.256563 349.997618 303.03273 341.664908 303.873671 
C 333.332197 304.714612 325.333383 307.594731 318.377264 312.258811 
C 311.421144 316.922892 305.719441 323.228976 301.777399 330.618262 
C 297.835356 338.007548 295.772958 346.255131 295.772958 354.630168 
C 295.772958 363.005206 297.835356 371.252789 301.777399 378.642075 
C 305.719441 386.031361 311.421144 392.337445 318.377264 397.001525 
C 325.333383 401.665606 333.332197 404.545725 341.664908 405.386666 
C 349.997618 406.227607 358.410605 405.003774 366.158369 401.823616 
" style="fill:#c0c0c0;opacity:0.4;"/>
   </g>
   <g id="patch_24">
    <path clip-path="url(#p93ab04c0ae)" d="M 366.158369 307.436721 
C 375.516998 311.278078 383.524826 317.817764 389.158633 326.220156 
C 394.79244 334.622548 397.801595 344.513846 397.801595 354.630168 
C 397.801595 364.746491 394.79244 374.637789 389.158633 383.040181 
C 383.524826 391.442573 375.516998 397.982259 366.158369 401.823616 
C 378.364754 401.366405 389.930026 396.19087 398.404106 387.393437 
C 406.878187 378.596003 411.617202 366.845113 411.617202 354.630168 
C 411.617202 342.415224 406.878187 330.664334 398.404106 321.8669 
C 389.930026 313.069467 378.364754 307.893931 366.158369 307.436721 
" style="fill:#ff7f00;opacity:0.4;"/>
   </g>
   <g id="patch_25">
    <path clip-path="url(#p93ab04c0ae)" d="M 366.158369 401.823616 
C 375.516998 397.982259 383.524826 391.442573 389.158633 383.040181 
C 394.79244 374.637789 397.801595 364.746491 397.801595 354.630168 
C 397.801595 344.513846 394.79244 334.622548 389.158633 326.220156 
C 383.524826 317.817764 375.516998 311.278078 366.158369 307.436721 
C 359.812297 307.199019 353.482992 308.243768 347.549957 310.508326 
C 341.616922 312.772884 336.201157 316.211067 331.627392 320.616722 
C 327.053626 325.022377 323.415138 330.305654 320.930091 336.149768 
C 318.445044 341.993882 317.164118 348.279647 317.164118 354.630168 
C 317.164118 360.98069 318.445044 367.266455 320.930091 373.110569 
C 323.415138 378.954683 327.053626 384.23796 331.627392 388.643615 
C 336.201157 393.049269 341.616922 396.487453 347.549957 398.752011 
C 353.482992 401.016569 359.812297 402.061318 366.158369 401.823616 
" style="fill:#ffdf86;opacity:0.4;"/>
   </g>
   <g id="text_36">
    <!-- 319 -->
    <g style="fill:#262626;" transform="translate(296.924788 357.389543)scale(0.1 -0.1)">
     <use xlink:href="#DejaVuSans-33"/>
     <use x="63.623047" xlink:href="#DejaVuSans-31"/>
     <use x="127.246094" xlink:href="#DejaVuSans-39"/>
    </g>
   </g>
   <g id="text_37">
    <!-- 160 -->
    <g style="fill:#262626;" transform="translate(395.165648 357.389543)scale(0.1 -0.1)">
     <use xlink:href="#DejaVuSans-31"/>
     <use x="63.623047" xlink:href="#DejaVuSans-36"/>
     <use x="127.246094" xlink:href="#DejaVuSans-30"/>
    </g>
   </g>
   <g id="text_38">
    <!-- 793 -->
    <g style="fill:#262626;" transform="translate(347.939106 357.389543)scale(0.1 -0.1)">
     <use xlink:href="#DejaVuSans-37"/>
     <use x="63.623047" xlink:href="#DejaVuSans-39"/>
     <use x="127.246094" xlink:href="#DejaVuSans-33"/>
    </g>
   </g>
   <g id="text_39">
    <!-- Bioregistry -->
    <g style="fill:#262626;" transform="translate(281.887901 419.674655)scale(0.12 -0.12)">
     <use xlink:href="#DejaVuSans-42"/>
     <use x="68.603516" xlink:href="#DejaVuSans-69"/>
     <use x="96.386719" xlink:href="#DejaVuSans-6f"/>
     <use x="157.568359" xlink:href="#DejaVuSans-72"/>
     <use x="196.431641" xlink:href="#DejaVuSans-65"/>
     <use x="257.955078" xlink:href="#DejaVuSans-67"/>
     <use x="321.431641" xlink:href="#DejaVuSans-69"/>
     <use x="349.214844" xlink:href="#DejaVuSans-73"/>
     <use x="401.314453" xlink:href="#DejaVuSans-74"/>
     <use x="440.523438" xlink:href="#DejaVuSans-72"/>
     <use x="481.636719" xlink:href="#DejaVuSans-79"/>
    </g>
   </g>
   <g id="text_40">
    <!-- Prefix Commons -->
    <g style="fill:#262626;" transform="translate(364.39066 415.886878)scale(0.12 -0.12)">
     <defs>
      <path d="M 2375 4863 
L 2375 4384 
L 1825 4384 
Q 1516 4384 1395 4259 
Q 1275 4134 1275 3809 
L 1275 3500 
L 2222 3500 
L 2222 3053 
L 1275 3053 
L 1275 0 
L 697 0 
L 697 3053 
L 147 3053 
L 147 3500 
L 697 3500 
L 697 3744 
Q 697 4328 969 4595 
Q 1241 4863 1831 4863 
L 2375 4863 
z
" id="DejaVuSans-66" transform="scale(0.015625)"/>
      <path d="M 3513 3500 
L 2247 1797 
L 3578 0 
L 2900 0 
L 1881 1375 
L 863 0 
L 184 0 
L 1544 1831 
L 300 3500 
L 978 3500 
L 1906 2253 
L 2834 3500 
L 3513 3500 
z
" id="DejaVuSans-78" transform="scale(0.015625)"/>
      <path id="DejaVuSans-20" transform="scale(0.015625)"/>
      <path d="M 4122 4306 
L 4122 3641 
Q 3803 3938 3442 4084 
Q 3081 4231 2675 4231 
Q 1875 4231 1450 3742 
Q 1025 3253 1025 2328 
Q 1025 1406 1450 917 
Q 1875 428 2675 428 
Q 3081 428 3442 575 
Q 3803 722 4122 1019 
L 4122 359 
Q 3791 134 3420 21 
Q 3050 -91 2638 -91 
Q 1578 -91 968 557 
Q 359 1206 359 2328 
Q 359 3453 968 4101 
Q 1578 4750 2638 4750 
Q 3056 4750 3426 4639 
Q 3797 4528 4122 4306 
z
" id="DejaVuSans-43" transform="scale(0.015625)"/>
      <path d="M 3328 2828 
Q 3544 3216 3844 3400 
Q 4144 3584 4550 3584 
Q 5097 3584 5394 3201 
Q 5691 2819 5691 2113 
L 5691 0 
L 5113 0 
L 5113 2094 
Q 5113 2597 4934 2840 
Q 4756 3084 4391 3084 
Q 3944 3084 3684 2787 
Q 3425 2491 3425 1978 
L 3425 0 
L 2847 0 
L 2847 2094 
Q 2847 2600 2669 2842 
Q 2491 3084 2119 3084 
Q 1678 3084 1418 2786 
Q 1159 2488 1159 1978 
L 1159 0 
L 581 0 
L 581 3500 
L 1159 3500 
L 1159 2956 
Q 1356 3278 1631 3431 
Q 1906 3584 2284 3584 
Q 2666 3584 2933 3390 
Q 3200 3197 3328 2828 
z
" id="DejaVuSans-6d" transform="scale(0.015625)"/>
      <path d="M 3513 2113 
L 3513 0 
L 2938 0 
L 2938 2094 
Q 2938 2591 2744 2837 
Q 2550 3084 2163 3084 
Q 1697 3084 1428 2787 
Q 1159 2491 1159 1978 
L 1159 0 
L 581 0 
L 581 3500 
L 1159 3500 
L 1159 2956 
Q 1366 3272 1645 3428 
Q 1925 3584 2291 3584 
Q 2894 3584 3203 3211 
Q 3513 2838 3513 2113 
z
" id="DejaVuSans-6e" transform="scale(0.015625)"/>
     </defs>
     <use xlink:href="#DejaVuSans-50"/>
     <use x="58.552734" xlink:href="#DejaVuSans-72"/>
     <use x="97.416016" xlink:href="#DejaVuSans-65"/>
     <use x="158.939453" xlink:href="#DejaVuSans-66"/>
     <use x="194.144531" xlink:href="#DejaVuSans-69"/>
     <use x="221.927734" xlink:href="#DejaVuSans-78"/>
     <use x="281.107422" xlink:href="#DejaVuSans-20"/>
     <use x="312.894531" xlink:href="#DejaVuSans-43"/>
     <use x="382.71875" xlink:href="#DejaVuSans-6f"/>
     <use x="443.900391" xlink:href="#DejaVuSans-6d"/>
     <use x="541.3125" xlink:href="#DejaVuSans-6d"/>
     <use x="638.724609" xlink:href="#DejaVuSans-6f"/>
     <use x="699.90625" xlink:href="#DejaVuSans-6e"/>
     <use x="763.285156" xlink:href="#DejaVuSans-73"/>
    </g>
   </g>
  </g>
  <g id="axes_9">
   <g id="patch_26">
    <path clip-path="url(#pac24b267b4)" d="M 630.100155 369.710861 
C 626.235303 369.512974 622.590649 367.836751 619.925088 365.031217 
C 617.259526 362.225682 615.771864 358.500084 615.771864 354.630168 
C 615.771864 350.760253 617.259526 347.034655 619.925088 344.22912 
C 622.590649 341.423586 626.235303 339.747362 630.100155 339.549476 
C 628.308545 333.712648 625.491051 328.24152 621.780042 323.393134 
C 618.069033 318.544749 613.52355 314.396242 608.357149 311.142517 
C 603.190747 307.888792 597.485622 305.581615 591.509809 304.329381 
C 585.533996 303.077147 579.382569 302.899778 573.344531 303.805608 
C 567.306493 304.711437 561.477908 306.686054 556.132611 309.636686 
C 550.787315 312.587319 546.010349 316.467025 542.026143 321.093528 
C 538.041937 325.720032 534.913879 331.019727 532.788929 336.743626 
C 530.66398 342.467525 529.575947 348.524562 529.575947 354.630168 
C 529.575947 360.735775 530.66398 366.792812 532.788929 372.516711 
C 534.913879 378.24061 538.041937 383.540305 542.026143 388.166809 
C 546.010349 392.793312 550.787315 396.673018 556.132611 399.62365 
C 561.477908 402.574283 567.306493 404.5489 573.344531 405.454729 
C 579.382569 406.360559 585.533996 406.18319 591.509809 404.930956 
C 597.485622 403.678721 603.190747 401.371545 608.357149 398.11782 
C 613.52355 394.864095 618.069033 390.715588 621.780042 385.867203 
C 625.491051 381.018817 628.308545 375.547689 630.100155 369.710861 
" style="fill:#c0c0c0;opacity:0.4;"/>
   </g>
   <g id="patch_27">
    <path clip-path="url(#pac24b267b4)" d="M 630.100155 339.549476 
C 631.600027 344.435859 632.362569 349.518774 632.362569 354.630168 
C 632.362569 359.741563 631.600027 364.824478 630.100155 369.710861 
C 632.14546 369.815584 634.190853 369.503132 636.111613 368.792556 
C 638.032374 368.081981 639.788653 366.988025 641.27336 365.577392 
C 642.758067 364.16676 643.940399 362.468718 644.748262 360.586805 
C 645.556125 358.704892 645.972759 356.678153 645.972759 354.630168 
C 645.972759 352.582184 645.556125 350.555445 644.748262 348.673532 
C 643.940399 346.791619 642.758067 345.093577 641.27336 343.682945 
C 639.788653 342.272312 638.032374 341.178356 636.111613 340.46778 
C 634.190853 339.757205 632.14546 339.444753 630.100155 339.549476 
" style="fill:#cab2d6;opacity:0.4;"/>
   </g>
   <g id="patch_28">
    <path clip-path="url(#pac24b267b4)" d="M 630.100155 369.710861 
C 631.600027 364.824478 632.362569 359.741563 632.362569 354.630168 
C 632.362569 349.518774 631.600027 344.435859 630.100155 339.549476 
C 626.235303 339.747362 622.590649 341.423586 619.925088 344.22912 
C 617.259526 347.034655 615.771864 350.760253 615.771864 354.630168 
C 615.771864 358.500084 617.259526 362.225682 619.925088 365.031217 
C 622.590649 367.836751 626.235303 369.512974 630.100155 369.710861 
" style="fill:#ffffff;opacity:0.4;"/>
   </g>
   <g id="text_41">
    <!-- 1061 -->
    <g style="fill:#262626;" transform="translate(559.948905 357.389543)scale(0.1 -0.1)">
     <use xlink:href="#DejaVuSans-31"/>
     <use x="63.623047" xlink:href="#DejaVuSans-30"/>
     <use x="127.246094" xlink:href="#DejaVuSans-36"/>
     <use x="190.869141" xlink:href="#DejaVuSans-31"/>
    </g>
   </g>
   <g id="text_42">
    <!-- 45 -->
    <g style="fill:#262626;" transform="translate(632.805164 357.389543)scale(0.1 -0.1)">
     <use xlink:href="#DejaVuSans-34"/>
     <use x="63.623047" xlink:href="#DejaVuSans-35"/>
    </g>
   </g>
   <g id="text_43">
    <!-- 51 -->
    <g style="fill:#262626;" transform="translate(617.704716 357.389543)scale(0.1 -0.1)">
     <use xlink:href="#DejaVuSans-35"/>
     <use x="63.623047" xlink:href="#DejaVuSans-31"/>
    </g>
   </g>
   <g id="text_44">
    <!-- Bioregistry -->
    <g style="fill:#262626;" transform="translate(516.069883 418.466292)scale(0.12 -0.12)">
     <use xlink:href="#DejaVuSans-42"/>
     <use x="68.603516" xlink:href="#DejaVuSans-69"/>
     <use x="96.386719" xlink:href="#DejaVuSans-6f"/>
     <use x="157.568359" xlink:href="#DejaVuSans-72"/>
     <use x="196.431641" xlink:href="#DejaVuSans-65"/>
     <use x="257.955078" xlink:href="#DejaVuSans-67"/>
     <use x="321.431641" xlink:href="#DejaVuSans-69"/>
     <use x="349.214844" xlink:href="#DejaVuSans-73"/>
     <use x="401.314453" xlink:href="#DejaVuSans-74"/>
     <use x="440.523438" xlink:href="#DejaVuSans-72"/>
     <use x="481.636719" xlink:href="#DejaVuSans-79"/>
    </g>
   </g>
   <g id="text_45">
    <!-- Biolink -->
    <g style="fill:#262626;" transform="translate(630.872311 382.173429)scale(0.12 -0.12)">
     <use xlink:href="#DejaVuSans-42"/>
     <use x="68.603516" xlink:href="#DejaVuSans-69"/>
     <use x="96.386719" xlink:href="#DejaVuSans-6f"/>
     <use x="157.568359" xlink:href="#DejaVuSans-6c"/>
     <use x="185.351562" xlink:href="#DejaVuSans-69"/>
     <use x="213.134766" xlink:href="#DejaVuSans-6e"/>
     <use x="276.513672" xlink:href="#DejaVuSans-6b"/>
    </g>
   </g>
  </g>
  <g id="axes_10">
   <g id="patch_29">
    <path clip-path="url(#p1067efdafd)" d="M 160.586323 513.411294 
C 156.124887 513.259995 151.892593 511.379484 148.790021 508.169912 
C 145.68745 504.960341 143.951465 500.666741 143.951465 496.20274 
C 143.951465 491.73874 145.68745 487.44514 148.790021 484.235568 
C 151.892593 481.025997 156.124887 479.145486 160.586323 478.994186 
C 158.573622 473.334869 155.583572 468.072288 151.752387 463.446182 
C 147.921201 458.820075 143.307952 454.901774 138.122797 451.869776 
C 132.937643 448.837777 127.260532 446.738833 121.350087 445.66856 
C 115.439642 444.598287 109.386997 444.573188 103.467879 445.594406 
C 97.548761 446.615625 91.854438 448.667414 86.644316 451.656306 
C 81.434194 454.645197 76.788608 458.525104 72.919187 463.119278 
C 69.049767 467.713451 66.016176 472.951053 63.956609 478.593484 
C 61.897041 484.235915 60.843255 490.196174 60.843255 496.20274 
C 60.843255 502.209307 61.897041 508.169566 63.956609 513.811997 
C 66.016176 519.454428 69.049767 524.692029 72.919187 529.286203 
C 76.788608 533.880377 81.434194 537.760284 86.644316 540.749175 
C 91.854438 543.738066 97.548761 545.789856 103.467879 546.811075 
C 109.386997 547.832293 115.439642 547.807194 121.350087 546.736921 
C 127.260532 545.666648 132.937643 543.567703 138.122797 540.535705 
C 143.307952 537.503707 147.921201 533.585405 151.752387 528.959299 
C 155.583572 524.333193 158.573622 519.070612 160.586323 513.411294 
" style="fill:#c0c0c0;opacity:0.4;"/>
   </g>
   <g id="patch_30">
    <path clip-path="url(#p1067efdafd)" d="M 160.586323 478.994186 
C 162.551097 484.518742 163.555295 490.339204 163.555295 496.20274 
C 163.555295 502.066276 162.551097 507.886738 160.586323 513.411294 
C 162.895219 513.489595 165.196435 513.102419 167.352589 512.272881 
C 169.508742 511.443342 171.476056 510.188284 173.137084 508.582631 
C 174.798112 506.976979 176.119128 505.053333 177.021269 502.926534 
C 177.92341 500.799734 178.388359 498.512964 178.388359 496.20274 
C 178.388359 493.892517 177.92341 491.605746 177.021269 489.478947 
C 176.119128 487.352148 174.798112 485.428502 173.137084 483.822849 
C 171.476056 482.217197 169.508742 480.962138 167.352589 480.1326 
C 165.196435 479.303061 162.895219 478.915885 160.586323 478.994186 
" style="fill:#6a3d9a;opacity:0.4;"/>
   </g>
   <g id="patch_31">
    <path clip-path="url(#p1067efdafd)" d="M 160.586323 513.411294 
C 162.551097 507.886738 163.555295 502.066276 163.555295 496.20274 
C 163.555295 490.339204 162.551097 484.518742 160.586323 478.994186 
C 156.124887 479.145486 151.892593 481.025997 148.790021 484.235568 
C 145.68745 487.44514 143.951465 491.73874 143.951465 496.20274 
C 143.951465 500.666741 145.68745 504.960341 148.790021 508.169912 
C 151.892593 511.379484 156.124887 513.259995 160.586323 513.411294 
" style="fill:#d1b1f2;opacity:0.4;"/>
   </g>
   <g id="text_46">
    <!-- 1043 -->
    <g style="fill:#262626;" transform="translate(89.67236 498.962115)scale(0.1 -0.1)">
     <use xlink:href="#DejaVuSans-31"/>
     <use x="63.623047" xlink:href="#DejaVuSans-30"/>
     <use x="127.246094" xlink:href="#DejaVuSans-34"/>
     <use x="190.869141" xlink:href="#DejaVuSans-33"/>
    </g>
   </g>
   <g id="text_47">
    <!-- 56 -->
    <g style="fill:#262626;" transform="translate(164.609327 498.962115)scale(0.1 -0.1)">
     <use xlink:href="#DejaVuSans-35"/>
     <use x="63.623047" xlink:href="#DejaVuSans-36"/>
    </g>
   </g>
   <g id="text_48">
    <!-- 69 -->
    <g style="fill:#262626;" transform="translate(147.39088 498.962115)scale(0.1 -0.1)">
     <use xlink:href="#DejaVuSans-36"/>
     <use x="63.623047" xlink:href="#DejaVuSans-39"/>
    </g>
   </g>
   <g id="text_49">
    <!-- Bioregistry -->
    <g style="fill:#262626;" transform="translate(47.2999 560.105608)scale(0.12 -0.12)">
     <use xlink:href="#DejaVuSans-42"/>
     <use x="68.603516" xlink:href="#DejaVuSans-69"/>
     <use x="96.386719" xlink:href="#DejaVuSans-6f"/>
     <use x="157.568359" xlink:href="#DejaVuSans-72"/>
     <use x="196.431641" xlink:href="#DejaVuSans-65"/>
     <use x="257.955078" xlink:href="#DejaVuSans-67"/>
     <use x="321.431641" xlink:href="#DejaVuSans-69"/>
     <use x="349.214844" xlink:href="#DejaVuSans-73"/>
     <use x="401.314453" xlink:href="#DejaVuSans-74"/>
     <use x="440.523438" xlink:href="#DejaVuSans-72"/>
     <use x="481.636719" xlink:href="#DejaVuSans-79"/>
    </g>
   </g>
   <g id="text_50">
    <!-- NCBI -->
    <g style="fill:#262626;" transform="translate(161.169912 525.968035)scale(0.12 -0.12)">
     <use xlink:href="#DejaVuSans-4e"/>
     <use x="74.804688" xlink:href="#DejaVuSans-43"/>
     <use x="144.628906" xlink:href="#DejaVuSans-42"/>
     <use x="213.232422" xlink:href="#DejaVuSans-49"/>
    </g>
   </g>
  </g>
  <g id="axes_11">
   <g id="patch_32">
    <path clip-path="url(#p48cce8f8ac)" d="M 390.99763 516.665198 
C 386.075653 515.958689 381.570099 513.499487 378.313417 509.741956 
C 375.056734 505.984425 373.262656 501.175166 373.262656 496.20274 
C 373.262656 491.230314 375.056734 486.421055 378.313417 482.663524 
C 381.570099 478.905993 386.075653 476.446792 390.99763 475.740283 
C 388.663723 470.382336 385.430251 465.462971 381.437389 461.195446 
C 377.444527 456.927921 372.750819 453.374809 367.559743 450.690141 
C 362.368667 448.005473 356.756335 446.228612 350.966049 445.436588 
C 345.175763 444.644563 339.292421 444.848988 333.571073 446.040999 
C 327.849725 447.233011 322.374259 449.395132 317.382042 452.433633 
C 312.389825 455.472133 307.954055 459.342461 304.267026 463.876834 
C 300.579998 468.411207 297.695772 473.54314 295.739383 479.050159 
C 293.782994 484.557178 292.783126 490.358537 292.783126 496.20274 
C 292.783126 502.046944 293.782994 507.848303 295.739383 513.355322 
C 297.695772 518.86234 300.579998 523.994274 304.267026 528.528647 
C 307.954055 533.063019 312.389825 536.933348 317.382042 539.971848 
C 322.374259 543.010348 327.849725 545.172469 333.571073 546.364481 
C 339.292421 547.556493 345.175763 547.760917 350.966049 546.968893 
C 356.756335 546.176869 362.368667 544.400008 367.559743 541.71534 
C 372.750819 539.030672 377.444527 535.477559 381.437389 531.210035 
C 385.430251 526.94251 388.663723 522.023144 390.99763 516.665198 
" style="fill:#c0c0c0;opacity:0.4;"/>
   </g>
   <g id="patch_33">
    <path clip-path="url(#p48cce8f8ac)" d="M 390.99763 475.740283 
C 393.809522 482.195537 395.260872 489.161644 395.260872 496.20274 
C 395.260872 503.243837 393.809522 510.209943 390.99763 516.665198 
C 393.930389 517.086171 396.919665 516.871764 399.762323 516.036547 
C 402.604981 515.20133 405.235137 513.764661 407.474061 511.824168 
C 409.712984 509.883676 411.508784 507.484333 412.739427 504.789188 
C 413.97007 502.094042 414.607033 499.165558 414.607033 496.20274 
C 414.607033 493.239922 413.97007 490.311438 412.739427 487.616293 
C 411.508784 484.921147 409.712984 482.521805 407.474061 480.581312 
C 405.235137 478.640819 402.604981 477.20415 399.762323 476.368934 
C 396.919665 475.533717 393.930389 475.31931 390.99763 475.740283 
" style="fill:#ffff99;opacity:0.4;"/>
   </g>
   <g id="patch_34">
    <path clip-path="url(#p48cce8f8ac)" d="M 390.99763 516.665198 
C 393.809522 510.209943 395.260872 503.243837 395.260872 496.20274 
C 395.260872 489.161644 393.809522 482.195537 390.99763 475.740283 
C 386.075653 476.446792 381.570099 478.905993 378.313417 482.663524 
C 375.056734 486.421055 373.262656 491.230314 373.262656 496.20274 
C 373.262656 501.175166 375.056734 505.984425 378.313417 509.741956 
C 381.570099 513.499487 386.075653 515.958689 390.99763 516.665198 
" style="fill:#fffff2;opacity:0.4;"/>
   </g>
   <g id="text_51">
    <!-- 1022 -->
    <g style="fill:#262626;" transform="translate(320.297891 498.962115)scale(0.1 -0.1)">
     <use xlink:href="#DejaVuSans-31"/>
     <use x="63.623047" xlink:href="#DejaVuSans-30"/>
     <use x="127.246094" xlink:href="#DejaVuSans-32"/>
     <use x="190.869141" xlink:href="#DejaVuSans-32"/>
    </g>
   </g>
   <g id="text_52">
    <!-- 91 -->
    <g style="fill:#262626;" transform="translate(398.571453 498.962115)scale(0.1 -0.1)">
     <use xlink:href="#DejaVuSans-39"/>
     <use x="63.623047" xlink:href="#DejaVuSans-31"/>
    </g>
   </g>
   <g id="text_53">
    <!-- 90 -->
    <g style="fill:#262626;" transform="translate(377.899264 498.962115)scale(0.1 -0.1)">
     <use xlink:href="#DejaVuSans-39"/>
     <use x="63.623047" xlink:href="#DejaVuSans-30"/>
    </g>
   </g>
   <g id="text_54">
    <!-- Bioregistry -->
    <g style="fill:#262626;" transform="translate(279.122624 560.155291)scale(0.12 -0.12)">
     <use xlink:href="#DejaVuSans-42"/>
     <use x="68.603516" xlink:href="#DejaVuSans-69"/>
     <use x="96.386719" xlink:href="#DejaVuSans-6f"/>
     <use x="157.568359" xlink:href="#DejaVuSans-72"/>
     <use x="196.431641" xlink:href="#DejaVuSans-65"/>
     <use x="257.955078" xlink:href="#DejaVuSans-67"/>
     <use x="321.431641" xlink:href="#DejaVuSans-69"/>
     <use x="349.214844" xlink:href="#DejaVuSans-73"/>
     <use x="401.314453" xlink:href="#DejaVuSans-74"/>
     <use x="440.523438" xlink:href="#DejaVuSans-72"/>
     <use x="481.636719" xlink:href="#DejaVuSans-79"/>
    </g>
   </g>
   <g id="text_55">
    <!-- UniProt -->
    <g style="fill:#262626;" transform="translate(393.934845 529.588607)scale(0.12 -0.12)">
     <defs>
      <path d="M 556 4666 
L 1191 4666 
L 1191 1831 
Q 1191 1081 1462 751 
Q 1734 422 2344 422 
Q 2950 422 3222 751 
Q 3494 1081 3494 1831 
L 3494 4666 
L 4128 4666 
L 4128 1753 
Q 4128 841 3676 375 
Q 3225 -91 2344 -91 
Q 1459 -91 1007 375 
Q 556 841 556 1753 
L 556 4666 
z
" id="DejaVuSans-55" transform="scale(0.015625)"/>
     </defs>
     <use xlink:href="#DejaVuSans-55"/>
     <use x="73.193359" xlink:href="#DejaVuSans-6e"/>
     <use x="136.572266" xlink:href="#DejaVuSans-69"/>
     <use x="164.355469" xlink:href="#DejaVuSans-50"/>
     <use x="222.908203" xlink:href="#DejaVuSans-72"/>
     <use x="261.771484" xlink:href="#DejaVuSans-6f"/>
     <use x="322.953125" xlink:href="#DejaVuSans-74"/>
    </g>
   </g>
  </g>
  <g id="axes_12"/>
  <g id="text_56">
   <!-- https://github.com/bioregistry/bioregistry (2021-05-02) -->
   <g style="fill:#808080;opacity:0.5;" transform="translate(240.830625 574.33625)scale(0.08 -0.08)">
    <defs>
     <path d="M 3513 2113 
L 3513 0 
L 2938 0 
L 2938 2094 
Q 2938 2591 2744 2837 
Q 2550 3084 2163 3084 
Q 1697 3084 1428 2787 
Q 1159 2491 1159 1978 
L 1159 0 
L 581 0 
L 581 4863 
L 1159 4863 
L 1159 2956 
Q 1366 3272 1645 3428 
Q 1925 3584 2291 3584 
Q 2894 3584 3203 3211 
Q 3513 2838 3513 2113 
z
" id="DejaVuSans-68" transform="scale(0.015625)"/>
     <path d="M 1159 525 
L 1159 -1331 
L 581 -1331 
L 581 3500 
L 1159 3500 
L 1159 2969 
Q 1341 3281 1617 3432 
Q 1894 3584 2278 3584 
Q 2916 3584 3314 3078 
Q 3713 2572 3713 1747 
Q 3713 922 3314 415 
Q 2916 -91 2278 -91 
Q 1894 -91 1617 61 
Q 1341 213 1159 525 
z
M 3116 1747 
Q 3116 2381 2855 2742 
Q 2594 3103 2138 3103 
Q 1681 3103 1420 2742 
Q 1159 2381 1159 1747 
Q 1159 1113 1420 752 
Q 1681 391 2138 391 
Q 2594 391 2855 752 
Q 3116 1113 3116 1747 
z
" id="DejaVuSans-70" transform="scale(0.015625)"/>
     <path d="M 750 794 
L 1409 794 
L 1409 0 
L 750 0 
L 750 794 
z
M 750 3309 
L 1409 3309 
L 1409 2516 
L 750 2516 
L 750 3309 
z
" id="DejaVuSans-3a" transform="scale(0.015625)"/>
     <path d="M 1625 4666 
L 2156 4666 
L 531 -594 
L 0 -594 
L 1625 4666 
z
" id="DejaVuSans-2f" transform="scale(0.015625)"/>
     <path d="M 544 1381 
L 544 3500 
L 1119 3500 
L 1119 1403 
Q 1119 906 1312 657 
Q 1506 409 1894 409 
Q 2359 409 2629 706 
Q 2900 1003 2900 1516 
L 2900 3500 
L 3475 3500 
L 3475 0 
L 2900 0 
L 2900 538 
Q 2691 219 2414 64 
Q 2138 -91 1772 -91 
Q 1169 -91 856 284 
Q 544 659 544 1381 
z
M 1991 3584 
L 1991 3584 
z
" id="DejaVuSans-75" transform="scale(0.015625)"/>
     <path d="M 3116 1747 
Q 3116 2381 2855 2742 
Q 2594 3103 2138 3103 
Q 1681 3103 1420 2742 
Q 1159 2381 1159 1747 
Q 1159 1113 1420 752 
Q 1681 391 2138 391 
Q 2594 391 2855 752 
Q 3116 1113 3116 1747 
z
M 1159 2969 
Q 1341 3281 1617 3432 
Q 1894 3584 2278 3584 
Q 2916 3584 3314 3078 
Q 3713 2572 3713 1747 
Q 3713 922 3314 415 
Q 2916 -91 2278 -91 
Q 1894 -91 1617 61 
Q 1341 213 1159 525 
L 1159 0 
L 581 0 
L 581 4863 
L 1159 4863 
L 1159 2969 
z
" id="DejaVuSans-62" transform="scale(0.015625)"/>
     <path d="M 684 794 
L 1344 794 
L 1344 0 
L 684 0 
L 684 794 
z
" id="DejaVuSans-2e" transform="scale(0.015625)"/>
     <path d="M 3122 3366 
L 3122 2828 
Q 2878 2963 2633 3030 
Q 2388 3097 2138 3097 
Q 1578 3097 1268 2742 
Q 959 2388 959 1747 
Q 959 1106 1268 751 
Q 1578 397 2138 397 
Q 2388 397 2633 464 
Q 2878 531 3122 666 
L 3122 134 
Q 2881 22 2623 -34 
Q 2366 -91 2075 -91 
Q 1284 -91 818 406 
Q 353 903 353 1747 
Q 353 2603 823 3093 
Q 1294 3584 2113 3584 
Q 2378 3584 2631 3529 
Q 2884 3475 3122 3366 
z
" id="DejaVuSans-63" transform="scale(0.015625)"/>
     <path d="M 1984 4856 
Q 1566 4138 1362 3434 
Q 1159 2731 1159 2009 
Q 1159 1288 1364 580 
Q 1569 -128 1984 -844 
L 1484 -844 
Q 1016 -109 783 600 
Q 550 1309 550 2009 
Q 550 2706 781 3412 
Q 1013 4119 1484 4856 
L 1984 4856 
z
" id="DejaVuSans-28" transform="scale(0.015625)"/>
     <path d="M 313 2009 
L 1997 2009 
L 1997 1497 
L 313 1497 
L 313 2009 
z
" id="DejaVuSans-2d" transform="scale(0.015625)"/>
     <path d="M 513 4856 
L 1013 4856 
Q 1481 4119 1714 3412 
Q 1947 2706 1947 2009 
Q 1947 1309 1714 600 
Q 1481 -109 1013 -844 
L 513 -844 
Q 928 -128 1133 580 
Q 1338 1288 1338 2009 
Q 1338 2731 1133 3434 
Q 928 4138 513 4856 
z
" id="DejaVuSans-29" transform="scale(0.015625)"/>
    </defs>
    <use xlink:href="#DejaVuSans-68"/>
    <use x="63.378906" xlink:href="#DejaVuSans-74"/>
    <use x="102.587891" xlink:href="#DejaVuSans-74"/>
    <use x="141.796875" xlink:href="#DejaVuSans-70"/>
    <use x="205.273438" xlink:href="#DejaVuSans-73"/>
    <use x="257.373047" xlink:href="#DejaVuSans-3a"/>
    <use x="291.064453" xlink:href="#DejaVuSans-2f"/>
    <use x="324.755859" xlink:href="#DejaVuSans-2f"/>
    <use x="358.447266" xlink:href="#DejaVuSans-67"/>
    <use x="421.923828" xlink:href="#DejaVuSans-69"/>
    <use x="449.707031" xlink:href="#DejaVuSans-74"/>
    <use x="488.916016" xlink:href="#DejaVuSans-68"/>
    <use x="552.294922" xlink:href="#DejaVuSans-75"/>
    <use x="615.673828" xlink:href="#DejaVuSans-62"/>
    <use x="679.150391" xlink:href="#DejaVuSans-2e"/>
    <use x="710.9375" xlink:href="#DejaVuSans-63"/>
    <use x="765.917969" xlink:href="#DejaVuSans-6f"/>
    <use x="827.099609" xlink:href="#DejaVuSans-6d"/>
    <use x="924.511719" xlink:href="#DejaVuSans-2f"/>
    <use x="958.203125" xlink:href="#DejaVuSans-62"/>
    <use x="1021.679688" xlink:href="#DejaVuSans-69"/>
    <use x="1049.462891" xlink:href="#DejaVuSans-6f"/>
    <use x="1110.644531" xlink:href="#DejaVuSans-72"/>
    <use x="1149.507812" xlink:href="#DejaVuSans-65"/>
    <use x="1211.03125" xlink:href="#DejaVuSans-67"/>
    <use x="1274.507812" xlink:href="#DejaVuSans-69"/>
    <use x="1302.291016" xlink:href="#DejaVuSans-73"/>
    <use x="1354.390625" xlink:href="#DejaVuSans-74"/>
    <use x="1393.599609" xlink:href="#DejaVuSans-72"/>
    <use x="1434.712891" xlink:href="#DejaVuSans-79"/>
    <use x="1493.892578" xlink:href="#DejaVuSans-2f"/>
    <use x="1527.583984" xlink:href="#DejaVuSans-62"/>
    <use x="1591.060547" xlink:href="#DejaVuSans-69"/>
    <use x="1618.84375" xlink:href="#DejaVuSans-6f"/>
    <use x="1680.025391" xlink:href="#DejaVuSans-72"/>
    <use x="1718.888672" xlink:href="#DejaVuSans-65"/>
    <use x="1780.412109" xlink:href="#DejaVuSans-67"/>
    <use x="1843.888672" xlink:href="#DejaVuSans-69"/>
    <use x="1871.671875" xlink:href="#DejaVuSans-73"/>
    <use x="1923.771484" xlink:href="#DejaVuSans-74"/>
    <use x="1962.980469" xlink:href="#DejaVuSans-72"/>
    <use x="2004.09375" xlink:href="#DejaVuSans-79"/>
    <use x="2063.273438" xlink:href="#DejaVuSans-20"/>
    <use x="2095.060547" xlink:href="#DejaVuSans-28"/>
    <use x="2134.074219" xlink:href="#DejaVuSans-32"/>
    <use x="2197.697266" xlink:href="#DejaVuSans-30"/>
    <use x="2261.320312" xlink:href="#DejaVuSans-32"/>
    <use x="2324.943359" xlink:href="#DejaVuSans-31"/>
    <use x="2388.566406" xlink:href="#DejaVuSans-2d"/>
    <use x="2424.650391" xlink:href="#DejaVuSans-30"/>
    <use x="2488.273438" xlink:href="#DejaVuSans-35"/>
    <use x="2551.896484" xlink:href="#DejaVuSans-2d"/>
    <use x="2587.980469" xlink:href="#DejaVuSans-30"/>
    <use x="2651.603516" xlink:href="#DejaVuSans-32"/>
    <use x="2715.226562" xlink:href="#DejaVuSans-29"/>
   </g>
  </g>
 </g>
 <defs>
  <clipPath id="p00cc70990c">
   <rect height="121.370049" width="121.379186" x="58.926214" y="10.8"/>
  </clipPath>
  <clipPath id="pd8f5866bd3">
   <rect height="121.370049" width="121.379186" x="293.005487" y="10.8"/>
  </clipPath>
  <clipPath id="p0ec28b024a">
   <rect height="121.370049" width="121.379186" x="527.08476" y="10.8"/>
  </clipPath>
  <clipPath id="p13a65b0bb4">
   <rect height="121.370049" width="123.331055" x="57.950279" y="152.372572"/>
  </clipPath>
  <clipPath id="p376ed3c2b0">
   <rect height="121.370049" width="122.314058" x="292.538051" y="152.372572"/>
  </clipPath>
  <clipPath id="p8fbe88d3ed">
   <rect height="121.370049" width="142.791972" x="516.378367" y="152.372572"/>
  </clipPath>
  <clipPath id="p208e3ea77b">
   <rect height="121.370049" width="173.226278" x="33.002668" y="293.945144"/>
  </clipPath>
  <clipPath id="p93ab04c0ae">
   <rect height="121.370049" width="135.185657" x="286.102251" y="293.945144"/>
  </clipPath>
  <clipPath id="pac24b267b4">
   <rect height="121.370049" width="134.98024" x="520.284233" y="293.945144"/>
  </clipPath>
  <clipPath id="p1067efdafd">
   <rect height="121.370049" width="136.203114" x="51.51425" y="435.517716"/>
  </clipPath>
  <clipPath id="p48cce8f8ac">
   <rect height="121.370049" width="140.716211" x="283.336974" y="435.517716"/>
  </clipPath>
 </defs>
</svg>
