<?xml version="1.0" encoding="utf-8" standalone="no"?>
<!DOCTYPE svg PUBLIC "-//W3C//DTD SVG 1.1//EN"
  "http://www.w3.org/Graphics/SVG/1.1/DTD/svg11.dtd">
<svg height="576pt" version="1.1" viewBox="0 0 702 576" width="702pt" xmlns="http://www.w3.org/2000/svg" xmlns:xlink="http://www.w3.org/1999/xlink">
 <metadata>
  <rdf:RDF xmlns:cc="http://creativecommons.org/ns#" xmlns:dc="http://purl.org/dc/elements/1.1/" xmlns:rdf="http://www.w3.org/1999/02/22-rdf-syntax-ns#">
   <cc:Work>
    <dc:type rdf:resource="http://purl.org/dc/dcmitype/StillImage"/>
    <dc:date>2021-04-13T01:04:15.436819</dc:date>
    <dc:format>image/svg+xml</dc:format>
    <dc:creator>
     <cc:Agent>
      <dc:title>Matplotlib v3.4.1, https://matplotlib.org/</dc:title>
     </cc:Agent>
    </dc:creator>
   </cc:Work>
  </rdf:RDF>
 </metadata>
 <defs>
  <style type="text/css">*{stroke-linecap:butt;stroke-linejoin:round;}</style>
 </defs>
 <g id="figure_1">
  <g id="patch_1">
   <path d="M 0 576 
L 702 576 
L 702 0 
L 0 0 
z
" style="fill:#ffffff;"/>
  </g>
  <g id="axes_1">
   <g id="patch_2">
    <path clip-path="url(#p300425856d)" d="M 165.497382 72.310095 
C 165.390569 75.107662 164.740446 77.857906 163.583328 80.407194 
C 162.426211 82.956482 160.784055 85.256445 158.748594 87.178602 
C 156.713133 89.100759 154.322987 90.608639 151.711673 91.618012 
C 149.10036 92.627384 146.317426 93.119096 143.51833 93.06568 
C 140.719235 93.012263 137.957087 92.414733 135.386185 91.306466 
C 132.815284 90.1982 130.484408 88.600226 128.523764 86.60181 
C 126.563121 84.603393 125.009911 82.242453 123.950899 79.650873 
C 122.891886 77.059294 122.347166 74.286249 122.347166 71.486643 
C 122.347166 68.687038 122.891886 65.913992 123.950899 63.322413 
C 125.009911 60.730834 126.563121 58.369893 128.523764 56.371477 
C 130.484408 54.373061 132.815284 52.775087 135.386185 51.66682 
C 137.957087 50.558554 140.719235 49.961023 143.51833 49.907607 
C 146.317426 49.854191 149.10036 50.345902 151.711673 51.355275 
C 154.322987 52.364647 156.713133 53.872528 158.748594 55.794685 
C 160.784055 57.716842 162.426211 60.016804 163.583328 62.566092 
C 164.740446 65.11538 165.390569 67.865624 165.497382 70.663191 
C 165.389801 63.929245 163.963602 57.281191 161.299586 51.095674 
C 158.63557 44.910157 154.785016 39.306239 149.966077 34.601409 
C 145.147138 29.896579 139.45257 26.181399 133.205 23.666351 
C 126.95743 21.151303 120.277113 19.884798 113.542523 19.93859 
C 106.807933 19.992383 100.1487 21.365437 93.942102 23.979962 
C 87.735504 26.594488 82.101009 30.400159 77.35784 35.181366 
C 72.61467 39.962573 68.854124 45.627285 66.289255 51.854568 
C 63.724387 58.08185 62.404565 64.751838 62.404565 71.486643 
C 62.404565 78.221448 63.724387 84.891436 66.289255 91.118719 
C 68.854124 97.346001 72.61467 103.010713 77.35784 107.79192 
C 82.101009 112.573127 87.735504 116.378798 93.942102 118.993324 
C 100.1487 121.60785 106.807933 122.980904 113.542523 123.034696 
C 120.277113 123.088489 126.95743 121.821984 133.205 119.306936 
C 139.45257 116.791888 145.147138 113.076707 149.966077 108.371877 
C 154.785016 103.667047 158.63557 98.063129 161.299586 91.877612 
C 163.963602 85.692095 165.389801 79.044041 165.497382 72.310095 
" style="fill:#808080;opacity:0.4;"/>
   </g>
   <g id="patch_3">
    <path clip-path="url(#p300425856d)" d="M 165.497382 70.663191 
C 165.501767 70.937653 165.50396 71.212146 165.50396 71.486643 
C 165.50396 71.76114 165.501767 72.035633 165.497382 72.310095 
C 165.507858 72.035736 165.513097 71.761202 165.513097 71.486643 
C 165.513097 71.212084 165.507858 70.93755 165.497382 70.663191 
" style="fill:#ff0000;opacity:0.4;"/>
   </g>
   <g id="patch_4">
    <path clip-path="url(#p300425856d)" d="M 165.497382 72.310095 
C 165.501767 72.035633 165.50396 71.76114 165.50396 71.486643 
C 165.50396 71.212146 165.501767 70.937653 165.497382 70.663191 
C 165.390569 67.865624 164.740446 65.11538 163.583328 62.566092 
C 162.426211 60.016804 160.784055 57.716842 158.748594 55.794685 
C 156.713133 53.872528 154.322987 52.364647 151.711673 51.355275 
C 149.10036 50.345902 146.317426 49.854191 143.51833 49.907607 
C 140.719235 49.961023 137.957087 50.558554 135.386185 51.66682 
C 132.815284 52.775087 130.484408 54.373061 128.523764 56.371477 
C 126.563121 58.369893 125.009911 60.730834 123.950899 63.322413 
C 122.891886 65.913992 122.347166 68.687038 122.347166 71.486643 
C 122.347166 74.286249 122.891886 77.059294 123.950899 79.650873 
C 125.009911 82.242453 126.563121 84.603393 128.523764 86.60181 
C 130.484408 88.600226 132.815284 90.1982 135.386185 91.306466 
C 137.957087 92.414733 140.719235 93.012263 143.51833 93.06568 
C 146.317426 93.119096 149.10036 92.627384 151.711673 91.618012 
C 154.322987 90.608639 156.713133 89.100759 158.748594 87.178602 
C 160.784055 85.256445 162.426211 82.956482 163.583328 80.407194 
C 164.740446 77.857906 165.390569 75.107662 165.497382 72.310095 
" style="fill:#ff5a5a;opacity:0.4;"/>
   </g>
   <g id="text_1">
    <!-- 908 -->
    <g style="fill:#262626;" transform="translate(82.832116 74.246018)scale(0.1 -0.1)">
     <defs>
      <path d="M 703 97 
L 703 672 
Q 941 559 1184 500 
Q 1428 441 1663 441 
Q 2288 441 2617 861 
Q 2947 1281 2994 2138 
Q 2813 1869 2534 1725 
Q 2256 1581 1919 1581 
Q 1219 1581 811 2004 
Q 403 2428 403 3163 
Q 403 3881 828 4315 
Q 1253 4750 1959 4750 
Q 2769 4750 3195 4129 
Q 3622 3509 3622 2328 
Q 3622 1225 3098 567 
Q 2575 -91 1691 -91 
Q 1453 -91 1209 -44 
Q 966 3 703 97 
z
M 1959 2075 
Q 2384 2075 2632 2365 
Q 2881 2656 2881 3163 
Q 2881 3666 2632 3958 
Q 2384 4250 1959 4250 
Q 1534 4250 1286 3958 
Q 1038 3666 1038 3163 
Q 1038 2656 1286 2365 
Q 1534 2075 1959 2075 
z
" id="DejaVuSans-39" transform="scale(0.015625)"/>
      <path d="M 2034 4250 
Q 1547 4250 1301 3770 
Q 1056 3291 1056 2328 
Q 1056 1369 1301 889 
Q 1547 409 2034 409 
Q 2525 409 2770 889 
Q 3016 1369 3016 2328 
Q 3016 3291 2770 3770 
Q 2525 4250 2034 4250 
z
M 2034 4750 
Q 2819 4750 3233 4129 
Q 3647 3509 3647 2328 
Q 3647 1150 3233 529 
Q 2819 -91 2034 -91 
Q 1250 -91 836 529 
Q 422 1150 422 2328 
Q 422 3509 836 4129 
Q 1250 4750 2034 4750 
z
" id="DejaVuSans-30" transform="scale(0.015625)"/>
      <path d="M 2034 2216 
Q 1584 2216 1326 1975 
Q 1069 1734 1069 1313 
Q 1069 891 1326 650 
Q 1584 409 2034 409 
Q 2484 409 2743 651 
Q 3003 894 3003 1313 
Q 3003 1734 2745 1975 
Q 2488 2216 2034 2216 
z
M 1403 2484 
Q 997 2584 770 2862 
Q 544 3141 544 3541 
Q 544 4100 942 4425 
Q 1341 4750 2034 4750 
Q 2731 4750 3128 4425 
Q 3525 4100 3525 3541 
Q 3525 3141 3298 2862 
Q 3072 2584 2669 2484 
Q 3125 2378 3379 2068 
Q 3634 1759 3634 1313 
Q 3634 634 3220 271 
Q 2806 -91 2034 -91 
Q 1263 -91 848 271 
Q 434 634 434 1313 
Q 434 1759 690 2068 
Q 947 2378 1403 2484 
z
M 1172 3481 
Q 1172 3119 1398 2916 
Q 1625 2713 2034 2713 
Q 2441 2713 2670 2916 
Q 2900 3119 2900 3481 
Q 2900 3844 2670 4047 
Q 2441 4250 2034 4250 
Q 1625 4250 1398 4047 
Q 1172 3844 1172 3481 
z
" id="DejaVuSans-38" transform="scale(0.015625)"/>
     </defs>
     <use xlink:href="#DejaVuSans-39"/>
     <use x="63.623047" xlink:href="#DejaVuSans-30"/>
     <use x="127.246094" xlink:href="#DejaVuSans-38"/>
    </g>
   </g>
   <g id="text_2">
    <!-- 0 -->
    <g style="fill:#262626;" transform="translate(162.327278 74.246018)scale(0.1 -0.1)">
     <use xlink:href="#DejaVuSans-30"/>
    </g>
   </g>
   <g id="text_3">
    <!-- 193 -->
    <g style="fill:#262626;" transform="translate(134.381813 74.246018)scale(0.1 -0.1)">
     <defs>
      <path d="M 794 531 
L 1825 531 
L 1825 4091 
L 703 3866 
L 703 4441 
L 1819 4666 
L 2450 4666 
L 2450 531 
L 3481 531 
L 3481 0 
L 794 0 
L 794 531 
z
" id="DejaVuSans-31" transform="scale(0.015625)"/>
      <path d="M 2597 2516 
Q 3050 2419 3304 2112 
Q 3559 1806 3559 1356 
Q 3559 666 3084 287 
Q 2609 -91 1734 -91 
Q 1441 -91 1130 -33 
Q 819 25 488 141 
L 488 750 
Q 750 597 1062 519 
Q 1375 441 1716 441 
Q 2309 441 2620 675 
Q 2931 909 2931 1356 
Q 2931 1769 2642 2001 
Q 2353 2234 1838 2234 
L 1294 2234 
L 1294 2753 
L 1863 2753 
Q 2328 2753 2575 2939 
Q 2822 3125 2822 3475 
Q 2822 3834 2567 4026 
Q 2313 4219 1838 4219 
Q 1578 4219 1281 4162 
Q 984 4106 628 3988 
L 628 4550 
Q 988 4650 1302 4700 
Q 1616 4750 1894 4750 
Q 2613 4750 3031 4423 
Q 3450 4097 3450 3541 
Q 3450 3153 3228 2886 
Q 3006 2619 2597 2516 
z
" id="DejaVuSans-33" transform="scale(0.015625)"/>
     </defs>
     <use xlink:href="#DejaVuSans-31"/>
     <use x="63.623047" xlink:href="#DejaVuSans-39"/>
     <use x="127.246094" xlink:href="#DejaVuSans-33"/>
    </g>
   </g>
   <g id="text_4">
    <!-- Bioregistry -->
    <g style="fill:#262626;" transform="translate(49.054887 135.811099)scale(0.12 -0.12)">
     <defs>
      <path d="M 1259 2228 
L 1259 519 
L 2272 519 
Q 2781 519 3026 730 
Q 3272 941 3272 1375 
Q 3272 1813 3026 2020 
Q 2781 2228 2272 2228 
L 1259 2228 
z
M 1259 4147 
L 1259 2741 
L 2194 2741 
Q 2656 2741 2882 2914 
Q 3109 3088 3109 3444 
Q 3109 3797 2882 3972 
Q 2656 4147 2194 4147 
L 1259 4147 
z
M 628 4666 
L 2241 4666 
Q 2963 4666 3353 4366 
Q 3744 4066 3744 3513 
Q 3744 3084 3544 2831 
Q 3344 2578 2956 2516 
Q 3422 2416 3680 2098 
Q 3938 1781 3938 1306 
Q 3938 681 3513 340 
Q 3088 0 2303 0 
L 628 0 
L 628 4666 
z
" id="DejaVuSans-42" transform="scale(0.015625)"/>
      <path d="M 603 3500 
L 1178 3500 
L 1178 0 
L 603 0 
L 603 3500 
z
M 603 4863 
L 1178 4863 
L 1178 4134 
L 603 4134 
L 603 4863 
z
" id="DejaVuSans-69" transform="scale(0.015625)"/>
      <path d="M 1959 3097 
Q 1497 3097 1228 2736 
Q 959 2375 959 1747 
Q 959 1119 1226 758 
Q 1494 397 1959 397 
Q 2419 397 2687 759 
Q 2956 1122 2956 1747 
Q 2956 2369 2687 2733 
Q 2419 3097 1959 3097 
z
M 1959 3584 
Q 2709 3584 3137 3096 
Q 3566 2609 3566 1747 
Q 3566 888 3137 398 
Q 2709 -91 1959 -91 
Q 1206 -91 779 398 
Q 353 888 353 1747 
Q 353 2609 779 3096 
Q 1206 3584 1959 3584 
z
" id="DejaVuSans-6f" transform="scale(0.015625)"/>
      <path d="M 2631 2963 
Q 2534 3019 2420 3045 
Q 2306 3072 2169 3072 
Q 1681 3072 1420 2755 
Q 1159 2438 1159 1844 
L 1159 0 
L 581 0 
L 581 3500 
L 1159 3500 
L 1159 2956 
Q 1341 3275 1631 3429 
Q 1922 3584 2338 3584 
Q 2397 3584 2469 3576 
Q 2541 3569 2628 3553 
L 2631 2963 
z
" id="DejaVuSans-72" transform="scale(0.015625)"/>
      <path d="M 3597 1894 
L 3597 1613 
L 953 1613 
Q 991 1019 1311 708 
Q 1631 397 2203 397 
Q 2534 397 2845 478 
Q 3156 559 3463 722 
L 3463 178 
Q 3153 47 2828 -22 
Q 2503 -91 2169 -91 
Q 1331 -91 842 396 
Q 353 884 353 1716 
Q 353 2575 817 3079 
Q 1281 3584 2069 3584 
Q 2775 3584 3186 3129 
Q 3597 2675 3597 1894 
z
M 3022 2063 
Q 3016 2534 2758 2815 
Q 2500 3097 2075 3097 
Q 1594 3097 1305 2825 
Q 1016 2553 972 2059 
L 3022 2063 
z
" id="DejaVuSans-65" transform="scale(0.015625)"/>
      <path d="M 2906 1791 
Q 2906 2416 2648 2759 
Q 2391 3103 1925 3103 
Q 1463 3103 1205 2759 
Q 947 2416 947 1791 
Q 947 1169 1205 825 
Q 1463 481 1925 481 
Q 2391 481 2648 825 
Q 2906 1169 2906 1791 
z
M 3481 434 
Q 3481 -459 3084 -895 
Q 2688 -1331 1869 -1331 
Q 1566 -1331 1297 -1286 
Q 1028 -1241 775 -1147 
L 775 -588 
Q 1028 -725 1275 -790 
Q 1522 -856 1778 -856 
Q 2344 -856 2625 -561 
Q 2906 -266 2906 331 
L 2906 616 
Q 2728 306 2450 153 
Q 2172 0 1784 0 
Q 1141 0 747 490 
Q 353 981 353 1791 
Q 353 2603 747 3093 
Q 1141 3584 1784 3584 
Q 2172 3584 2450 3431 
Q 2728 3278 2906 2969 
L 2906 3500 
L 3481 3500 
L 3481 434 
z
" id="DejaVuSans-67" transform="scale(0.015625)"/>
      <path d="M 2834 3397 
L 2834 2853 
Q 2591 2978 2328 3040 
Q 2066 3103 1784 3103 
Q 1356 3103 1142 2972 
Q 928 2841 928 2578 
Q 928 2378 1081 2264 
Q 1234 2150 1697 2047 
L 1894 2003 
Q 2506 1872 2764 1633 
Q 3022 1394 3022 966 
Q 3022 478 2636 193 
Q 2250 -91 1575 -91 
Q 1294 -91 989 -36 
Q 684 19 347 128 
L 347 722 
Q 666 556 975 473 
Q 1284 391 1588 391 
Q 1994 391 2212 530 
Q 2431 669 2431 922 
Q 2431 1156 2273 1281 
Q 2116 1406 1581 1522 
L 1381 1569 
Q 847 1681 609 1914 
Q 372 2147 372 2553 
Q 372 3047 722 3315 
Q 1072 3584 1716 3584 
Q 2034 3584 2315 3537 
Q 2597 3491 2834 3397 
z
" id="DejaVuSans-73" transform="scale(0.015625)"/>
      <path d="M 1172 4494 
L 1172 3500 
L 2356 3500 
L 2356 3053 
L 1172 3053 
L 1172 1153 
Q 1172 725 1289 603 
Q 1406 481 1766 481 
L 2356 481 
L 2356 0 
L 1766 0 
Q 1100 0 847 248 
Q 594 497 594 1153 
L 594 3053 
L 172 3053 
L 172 3500 
L 594 3500 
L 594 4494 
L 1172 4494 
z
" id="DejaVuSans-74" transform="scale(0.015625)"/>
      <path d="M 2059 -325 
Q 1816 -950 1584 -1140 
Q 1353 -1331 966 -1331 
L 506 -1331 
L 506 -850 
L 844 -850 
Q 1081 -850 1212 -737 
Q 1344 -625 1503 -206 
L 1606 56 
L 191 3500 
L 800 3500 
L 1894 763 
L 2988 3500 
L 3597 3500 
L 2059 -325 
z
" id="DejaVuSans-79" transform="scale(0.015625)"/>
     </defs>
     <use xlink:href="#DejaVuSans-42"/>
     <use x="68.603516" xlink:href="#DejaVuSans-69"/>
     <use x="96.386719" xlink:href="#DejaVuSans-6f"/>
     <use x="157.568359" xlink:href="#DejaVuSans-72"/>
     <use x="196.431641" xlink:href="#DejaVuSans-65"/>
     <use x="257.955078" xlink:href="#DejaVuSans-67"/>
     <use x="321.431641" xlink:href="#DejaVuSans-69"/>
     <use x="349.214844" xlink:href="#DejaVuSans-73"/>
     <use x="401.314453" xlink:href="#DejaVuSans-74"/>
     <use x="440.523438" xlink:href="#DejaVuSans-72"/>
     <use x="481.636719" xlink:href="#DejaVuSans-79"/>
    </g>
   </g>
   <g id="text_5">
    <!-- OBO Foundry -->
    <g style="fill:#262626;" transform="translate(143.930131 105.844367)scale(0.12 -0.12)">
     <defs>
      <path d="M 2522 4238 
Q 1834 4238 1429 3725 
Q 1025 3213 1025 2328 
Q 1025 1447 1429 934 
Q 1834 422 2522 422 
Q 3209 422 3611 934 
Q 4013 1447 4013 2328 
Q 4013 3213 3611 3725 
Q 3209 4238 2522 4238 
z
M 2522 4750 
Q 3503 4750 4090 4092 
Q 4678 3434 4678 2328 
Q 4678 1225 4090 567 
Q 3503 -91 2522 -91 
Q 1538 -91 948 565 
Q 359 1222 359 2328 
Q 359 3434 948 4092 
Q 1538 4750 2522 4750 
z
" id="DejaVuSans-4f" transform="scale(0.015625)"/>
      <path id="DejaVuSans-20" transform="scale(0.015625)"/>
      <path d="M 628 4666 
L 3309 4666 
L 3309 4134 
L 1259 4134 
L 1259 2759 
L 3109 2759 
L 3109 2228 
L 1259 2228 
L 1259 0 
L 628 0 
L 628 4666 
z
" id="DejaVuSans-46" transform="scale(0.015625)"/>
      <path d="M 544 1381 
L 544 3500 
L 1119 3500 
L 1119 1403 
Q 1119 906 1312 657 
Q 1506 409 1894 409 
Q 2359 409 2629 706 
Q 2900 1003 2900 1516 
L 2900 3500 
L 3475 3500 
L 3475 0 
L 2900 0 
L 2900 538 
Q 2691 219 2414 64 
Q 2138 -91 1772 -91 
Q 1169 -91 856 284 
Q 544 659 544 1381 
z
M 1991 3584 
L 1991 3584 
z
" id="DejaVuSans-75" transform="scale(0.015625)"/>
      <path d="M 3513 2113 
L 3513 0 
L 2938 0 
L 2938 2094 
Q 2938 2591 2744 2837 
Q 2550 3084 2163 3084 
Q 1697 3084 1428 2787 
Q 1159 2491 1159 1978 
L 1159 0 
L 581 0 
L 581 3500 
L 1159 3500 
L 1159 2956 
Q 1366 3272 1645 3428 
Q 1925 3584 2291 3584 
Q 2894 3584 3203 3211 
Q 3513 2838 3513 2113 
z
" id="DejaVuSans-6e" transform="scale(0.015625)"/>
      <path d="M 2906 2969 
L 2906 4863 
L 3481 4863 
L 3481 0 
L 2906 0 
L 2906 525 
Q 2725 213 2448 61 
Q 2172 -91 1784 -91 
Q 1150 -91 751 415 
Q 353 922 353 1747 
Q 353 2572 751 3078 
Q 1150 3584 1784 3584 
Q 2172 3584 2448 3432 
Q 2725 3281 2906 2969 
z
M 947 1747 
Q 947 1113 1208 752 
Q 1469 391 1925 391 
Q 2381 391 2643 752 
Q 2906 1113 2906 1747 
Q 2906 2381 2643 2742 
Q 2381 3103 1925 3103 
Q 1469 3103 1208 2742 
Q 947 2381 947 1747 
z
" id="DejaVuSans-64" transform="scale(0.015625)"/>
     </defs>
     <use xlink:href="#DejaVuSans-4f"/>
     <use x="78.710938" xlink:href="#DejaVuSans-42"/>
     <use x="145.564453" xlink:href="#DejaVuSans-4f"/>
     <use x="224.275391" xlink:href="#DejaVuSans-20"/>
     <use x="256.0625" xlink:href="#DejaVuSans-46"/>
     <use x="309.957031" xlink:href="#DejaVuSans-6f"/>
     <use x="371.138672" xlink:href="#DejaVuSans-75"/>
     <use x="434.517578" xlink:href="#DejaVuSans-6e"/>
     <use x="497.896484" xlink:href="#DejaVuSans-64"/>
     <use x="561.373047" xlink:href="#DejaVuSans-72"/>
     <use x="602.486328" xlink:href="#DejaVuSans-79"/>
    </g>
   </g>
  </g>
  <g id="axes_2">
   <g id="patch_5">
    <path clip-path="url(#p771e744a7c)" d="M 388.242952 72.435323 
C 388.119875 75.70164 387.362335 78.913008 386.012662 81.889978 
C 384.662989 84.866949 382.7468 87.553018 380.37117 89.798092 
C 377.995541 92.043165 375.20556 93.804631 372.157131 94.984059 
C 369.108702 96.163487 365.859684 96.738492 362.591629 96.676942 
C 359.323574 96.615393 356.098511 95.918458 353.096653 94.625081 
C 350.094796 93.331705 347.37312 91.466435 345.083711 89.133502 
C 342.794302 86.800569 340.980612 84.044252 339.743991 81.018572 
C 338.507369 77.992893 337.871287 74.755278 337.871287 71.486643 
C 337.871287 68.218009 338.507369 64.980394 339.743991 61.954714 
C 340.980612 58.929034 342.794302 56.172717 345.083711 53.839785 
C 347.37312 51.506852 350.094796 49.641582 353.096653 48.348205 
C 356.098511 47.054828 359.323574 46.357893 362.591629 46.296344 
C 365.859684 46.234795 369.108702 46.8098 372.157131 47.989228 
C 375.20556 49.168655 377.995541 50.930121 380.37117 53.175194 
C 382.7468 55.420268 384.662989 58.106338 386.012662 61.083308 
C 387.362335 64.060279 388.119875 67.271647 388.242952 70.537963 
C 388.119107 63.809566 386.678918 57.170074 384.003852 50.995068 
C 381.328787 44.820062 377.470255 39.228217 372.646527 34.535849 
C 367.822799 29.843482 362.126577 26.140772 355.880085 23.637173 
C 349.633593 21.133575 342.956877 19.877203 336.227625 19.939129 
C 329.498373 20.001054 322.845909 21.380086 316.646549 23.998215 
C 310.447189 26.616345 304.820074 30.423257 300.083517 35.203602 
C 295.34696 39.983947 291.59199 45.645855 289.031018 51.869045 
C 286.470045 58.092234 285.152288 64.757106 285.152288 71.486643 
C 285.152288 78.21618 286.470045 84.881052 289.031018 91.104242 
C 291.59199 97.327431 295.34696 102.989339 300.083517 107.769684 
C 304.820074 112.550029 310.447189 116.356941 316.646549 118.975071 
C 322.845909 121.593201 329.498373 122.972233 336.227625 123.034158 
C 342.956877 123.096083 349.633593 121.839711 355.880085 119.336113 
C 362.126577 116.832515 367.822799 113.129805 372.646527 108.437437 
C 377.470255 103.74507 381.328787 98.153224 384.003852 91.978218 
C 386.678918 85.803213 388.119107 79.163721 388.242952 72.435323 
" style="fill:#808080;opacity:0.4;"/>
   </g>
   <g id="patch_6">
    <path clip-path="url(#p771e744a7c)" d="M 388.242952 70.537963 
C 388.248772 70.854156 388.251682 71.170396 388.251682 71.486643 
C 388.251682 71.80289 388.248772 72.11913 388.242952 72.435323 
C 388.254862 72.119237 388.260819 71.802954 388.260819 71.486643 
C 388.260819 71.170332 388.254862 70.85405 388.242952 70.537963 
" style="fill:#008000;opacity:0.4;"/>
   </g>
   <g id="patch_7">
    <path clip-path="url(#p771e744a7c)" d="M 388.242952 72.435323 
C 388.248772 72.11913 388.251682 71.80289 388.251682 71.486643 
C 388.251682 71.170396 388.248772 70.854156 388.242952 70.537963 
C 388.119875 67.271647 387.362335 64.060279 386.012662 61.083308 
C 384.662989 58.106338 382.7468 55.420268 380.37117 53.175194 
C 377.995541 50.930121 375.20556 49.168655 372.157131 47.989228 
C 369.108702 46.8098 365.859684 46.234795 362.591629 46.296344 
C 359.323574 46.357893 356.098511 47.054828 353.096653 48.348205 
C 350.094796 49.641582 347.37312 51.506852 345.083711 53.839785 
C 342.794302 56.172717 340.980612 58.929034 339.743991 61.954714 
C 338.507369 64.980394 337.871287 68.218009 337.871287 71.486643 
C 337.871287 74.755278 338.507369 77.992893 339.743991 81.018572 
C 340.980612 84.044252 342.794302 86.800569 345.083711 89.133502 
C 347.37312 91.466435 350.094796 93.331705 353.096653 94.625081 
C 356.098511 95.918458 359.323574 96.615393 362.591629 96.676942 
C 365.859684 96.738492 369.108702 96.163487 372.157131 94.984059 
C 375.20556 93.804631 377.995541 92.043165 380.37117 89.798092 
C 382.7468 87.553018 384.662989 84.866949 386.012662 81.889978 
C 387.362335 78.913008 388.119875 75.70164 388.242952 72.435323 
" style="fill:#5ab35a;opacity:0.4;"/>
   </g>
   <g id="text_6">
    <!-- 838 -->
    <g style="fill:#262626;" transform="translate(301.968037 74.246018)scale(0.1 -0.1)">
     <use xlink:href="#DejaVuSans-38"/>
     <use x="63.623047" xlink:href="#DejaVuSans-33"/>
     <use x="127.246094" xlink:href="#DejaVuSans-38"/>
    </g>
   </g>
   <g id="text_7">
    <!-- 0 -->
    <g style="fill:#262626;" transform="translate(385.075001 74.246018)scale(0.1 -0.1)">
     <use xlink:href="#DejaVuSans-30"/>
    </g>
   </g>
   <g id="text_8">
    <!-- 263 -->
    <g style="fill:#262626;" transform="translate(353.517734 74.246018)scale(0.1 -0.1)">
     <defs>
      <path d="M 1228 531 
L 3431 531 
L 3431 0 
L 469 0 
L 469 531 
Q 828 903 1448 1529 
Q 2069 2156 2228 2338 
Q 2531 2678 2651 2914 
Q 2772 3150 2772 3378 
Q 2772 3750 2511 3984 
Q 2250 4219 1831 4219 
Q 1534 4219 1204 4116 
Q 875 4013 500 3803 
L 500 4441 
Q 881 4594 1212 4672 
Q 1544 4750 1819 4750 
Q 2544 4750 2975 4387 
Q 3406 4025 3406 3419 
Q 3406 3131 3298 2873 
Q 3191 2616 2906 2266 
Q 2828 2175 2409 1742 
Q 1991 1309 1228 531 
z
" id="DejaVuSans-32" transform="scale(0.015625)"/>
      <path d="M 2113 2584 
Q 1688 2584 1439 2293 
Q 1191 2003 1191 1497 
Q 1191 994 1439 701 
Q 1688 409 2113 409 
Q 2538 409 2786 701 
Q 3034 994 3034 1497 
Q 3034 2003 2786 2293 
Q 2538 2584 2113 2584 
z
M 3366 4563 
L 3366 3988 
Q 3128 4100 2886 4159 
Q 2644 4219 2406 4219 
Q 1781 4219 1451 3797 
Q 1122 3375 1075 2522 
Q 1259 2794 1537 2939 
Q 1816 3084 2150 3084 
Q 2853 3084 3261 2657 
Q 3669 2231 3669 1497 
Q 3669 778 3244 343 
Q 2819 -91 2113 -91 
Q 1303 -91 875 529 
Q 447 1150 447 2328 
Q 447 3434 972 4092 
Q 1497 4750 2381 4750 
Q 2619 4750 2861 4703 
Q 3103 4656 3366 4563 
z
" id="DejaVuSans-36" transform="scale(0.015625)"/>
     </defs>
     <use xlink:href="#DejaVuSans-32"/>
     <use x="63.623047" xlink:href="#DejaVuSans-36"/>
     <use x="127.246094" xlink:href="#DejaVuSans-33"/>
    </g>
   </g>
   <g id="text_9">
    <!-- Bioregistry -->
    <g style="fill:#262626;" transform="translate(271.80261 135.991689)scale(0.12 -0.12)">
     <use xlink:href="#DejaVuSans-42"/>
     <use x="68.603516" xlink:href="#DejaVuSans-69"/>
     <use x="96.386719" xlink:href="#DejaVuSans-6f"/>
     <use x="157.568359" xlink:href="#DejaVuSans-72"/>
     <use x="196.431641" xlink:href="#DejaVuSans-65"/>
     <use x="257.955078" xlink:href="#DejaVuSans-67"/>
     <use x="321.431641" xlink:href="#DejaVuSans-69"/>
     <use x="349.214844" xlink:href="#DejaVuSans-73"/>
     <use x="401.314453" xlink:href="#DejaVuSans-74"/>
     <use x="440.523438" xlink:href="#DejaVuSans-72"/>
     <use x="481.636719" xlink:href="#DejaVuSans-79"/>
    </g>
   </g>
   <g id="text_10">
    <!-- OLS -->
    <g style="fill:#262626;" transform="translate(363.066053 109.636758)scale(0.12 -0.12)">
     <defs>
      <path d="M 628 4666 
L 1259 4666 
L 1259 531 
L 3531 531 
L 3531 0 
L 628 0 
L 628 4666 
z
" id="DejaVuSans-4c" transform="scale(0.015625)"/>
      <path d="M 3425 4513 
L 3425 3897 
Q 3066 4069 2747 4153 
Q 2428 4238 2131 4238 
Q 1616 4238 1336 4038 
Q 1056 3838 1056 3469 
Q 1056 3159 1242 3001 
Q 1428 2844 1947 2747 
L 2328 2669 
Q 3034 2534 3370 2195 
Q 3706 1856 3706 1288 
Q 3706 609 3251 259 
Q 2797 -91 1919 -91 
Q 1588 -91 1214 -16 
Q 841 59 441 206 
L 441 856 
Q 825 641 1194 531 
Q 1563 422 1919 422 
Q 2459 422 2753 634 
Q 3047 847 3047 1241 
Q 3047 1584 2836 1778 
Q 2625 1972 2144 2069 
L 1759 2144 
Q 1053 2284 737 2584 
Q 422 2884 422 3419 
Q 422 4038 858 4394 
Q 1294 4750 2059 4750 
Q 2388 4750 2728 4690 
Q 3069 4631 3425 4513 
z
" id="DejaVuSans-53" transform="scale(0.015625)"/>
     </defs>
     <use xlink:href="#DejaVuSans-4f"/>
     <use x="78.710938" xlink:href="#DejaVuSans-4c"/>
     <use x="134.423828" xlink:href="#DejaVuSans-53"/>
    </g>
   </g>
  </g>
  <g id="axes_3">
   <g id="patch_8">
    <path clip-path="url(#pccdfde311e)" d="M 610.960117 73.498846 
C 610.69995 78.901156 609.394499 84.202089 607.116226 89.107405 
C 604.837953 94.01272 601.629806 98.429946 597.669861 102.113895 
C 593.709916 105.797845 589.072822 108.67907 584.015973 110.597642 
C 578.959123 112.516215 573.577846 113.435966 568.170839 113.305845 
C 562.763833 113.175724 557.433028 111.998182 552.474321 109.838582 
C 547.515614 107.678982 543.022483 104.578035 539.24433 100.707866 
C 535.466178 96.837697 532.474226 92.271264 530.434549 87.262035 
C 528.394873 82.252807 527.345922 76.895215 527.345922 71.486643 
C 527.345922 66.078072 528.394873 60.720479 530.434549 55.711251 
C 532.474226 50.702023 535.466178 46.135589 539.24433 42.26542 
C 543.022483 38.395251 547.515614 35.294304 552.474321 33.134704 
C 557.433028 30.975104 562.763833 29.797563 568.170839 29.667441 
C 573.577846 29.53732 578.959123 30.457072 584.015973 32.375644 
C 589.072822 34.294216 593.709916 37.175442 597.669861 40.859391 
C 601.629806 44.54334 604.837953 48.960567 607.116226 53.865882 
C 609.394499 58.771197 610.69995 64.07213 610.960117 69.474441 
C 610.699182 62.794748 609.141421 56.229144 606.373805 50.144189 
C 603.606189 44.059233 599.6812 38.570315 594.817971 33.98388 
C 589.954741 29.397445 584.245493 25.800467 578.008974 23.393765 
C 571.772455 20.987063 565.126928 19.816276 558.443415 19.946769 
C 551.759901 20.077261 545.16514 21.506559 539.027317 24.154865 
C 532.889495 26.80317 527.325003 30.620263 522.644508 35.393034 
C 517.964013 40.165806 514.256271 45.80375 511.728286 51.9921 
C 509.200301 58.18045 507.90001 64.801856 507.90001 71.486643 
C 507.90001 78.171431 509.200301 84.792836 511.728286 90.981186 
C 514.256271 97.169536 517.964013 102.80748 522.644508 107.580252 
C 527.325003 112.353024 532.889495 116.170117 539.027317 118.818422 
C 545.16514 121.466727 551.759901 122.896025 558.443415 123.026518 
C 565.126928 123.15701 571.772455 121.986223 578.008974 119.579521 
C 584.245493 117.172819 589.954741 113.575841 594.817971 108.989407 
C 599.6812 104.402972 603.606189 98.914053 606.373805 92.829098 
C 609.141421 86.744142 610.699182 80.178538 610.960117 73.498846 
" style="fill:#808080;opacity:0.4;"/>
   </g>
   <g id="patch_9">
    <path clip-path="url(#pccdfde311e)" d="M 610.960117 69.474441 
C 610.986307 70.144855 610.999405 70.815717 610.999405 71.486643 
C 610.999405 72.157569 610.986307 72.828431 610.960117 73.498846 
C 610.992396 72.828597 611.008542 72.157669 611.008542 71.486643 
C 611.008542 70.815618 610.992396 70.144689 610.960117 69.474441 
" style="fill:#0000ff;opacity:0.4;"/>
   </g>
   <g id="patch_10">
    <path clip-path="url(#pccdfde311e)" d="M 610.960117 73.498846 
C 610.986307 72.828431 610.999405 72.157569 610.999405 71.486643 
C 610.999405 70.815717 610.986307 70.144855 610.960117 69.474441 
C 610.69995 64.07213 609.394499 58.771197 607.116226 53.865882 
C 604.837953 48.960567 601.629806 44.54334 597.669861 40.859391 
C 593.709916 37.175442 589.072822 34.294216 584.015973 32.375644 
C 578.959123 30.457072 573.577846 29.53732 568.170839 29.667441 
C 562.763833 29.797563 557.433028 30.975104 552.474321 33.134704 
C 547.515614 35.294304 543.022483 38.395251 539.24433 42.26542 
C 535.466178 46.135589 532.474226 50.702023 530.434549 55.711251 
C 528.394873 60.720479 527.345922 66.078072 527.345922 71.486643 
C 527.345922 76.895215 528.394873 82.252807 530.434549 87.262035 
C 532.474226 92.271264 535.466178 96.837697 539.24433 100.707866 
C 543.022483 104.578035 547.515614 107.678982 552.474321 109.838582 
C 557.433028 111.998182 562.763833 113.175724 568.170839 113.305845 
C 573.577846 113.435966 578.959123 112.516215 584.015973 110.597642 
C 589.072822 108.67907 593.709916 105.797845 597.669861 102.113895 
C 601.629806 98.429946 604.837953 94.01272 607.116226 89.107405 
C 609.394499 84.202089 610.69995 78.901156 610.960117 73.498846 
" style="fill:#5a5aff;opacity:0.4;"/>
   </g>
   <g id="text_11">
    <!-- 376 -->
    <g style="fill:#262626;" transform="translate(508.079216 74.246018)scale(0.1 -0.1)">
     <defs>
      <path d="M 525 4666 
L 3525 4666 
L 3525 4397 
L 1831 0 
L 1172 0 
L 2766 4134 
L 525 4134 
L 525 4666 
z
" id="DejaVuSans-37" transform="scale(0.015625)"/>
     </defs>
     <use xlink:href="#DejaVuSans-33"/>
     <use x="63.623047" xlink:href="#DejaVuSans-37"/>
     <use x="127.246094" xlink:href="#DejaVuSans-36"/>
    </g>
   </g>
   <g id="text_12">
    <!-- 0 -->
    <g style="fill:#262626;" transform="translate(607.822723 74.246018)scale(0.1 -0.1)">
     <use xlink:href="#DejaVuSans-30"/>
    </g>
   </g>
   <g id="text_13">
    <!-- 725 -->
    <g style="fill:#262626;" transform="translate(559.628914 74.246018)scale(0.1 -0.1)">
     <defs>
      <path d="M 691 4666 
L 3169 4666 
L 3169 4134 
L 1269 4134 
L 1269 2991 
Q 1406 3038 1543 3061 
Q 1681 3084 1819 3084 
Q 2600 3084 3056 2656 
Q 3513 2228 3513 1497 
Q 3513 744 3044 326 
Q 2575 -91 1722 -91 
Q 1428 -91 1123 -41 
Q 819 9 494 109 
L 494 744 
Q 775 591 1075 516 
Q 1375 441 1709 441 
Q 2250 441 2565 725 
Q 2881 1009 2881 1497 
Q 2881 1984 2565 2268 
Q 2250 2553 1709 2553 
Q 1456 2553 1204 2497 
Q 953 2441 691 2322 
L 691 4666 
z
" id="DejaVuSans-35" transform="scale(0.015625)"/>
     </defs>
     <use xlink:href="#DejaVuSans-37"/>
     <use x="63.623047" xlink:href="#DejaVuSans-32"/>
     <use x="127.246094" xlink:href="#DejaVuSans-35"/>
    </g>
   </g>
   <g id="text_14">
    <!-- Bioregistry -->
    <g style="fill:#262626;" transform="translate(494.550333 136.823516)scale(0.12 -0.12)">
     <use xlink:href="#DejaVuSans-42"/>
     <use x="68.603516" xlink:href="#DejaVuSans-69"/>
     <use x="96.386719" xlink:href="#DejaVuSans-6f"/>
     <use x="157.568359" xlink:href="#DejaVuSans-72"/>
     <use x="196.431641" xlink:href="#DejaVuSans-65"/>
     <use x="257.955078" xlink:href="#DejaVuSans-67"/>
     <use x="321.431641" xlink:href="#DejaVuSans-69"/>
     <use x="349.214844" xlink:href="#DejaVuSans-73"/>
     <use x="401.314453" xlink:href="#DejaVuSans-74"/>
     <use x="440.523438" xlink:href="#DejaVuSans-72"/>
     <use x="481.636719" xlink:href="#DejaVuSans-79"/>
    </g>
   </g>
   <g id="text_15">
    <!-- MIRIAM -->
    <g style="fill:#262626;" transform="translate(569.177232 127.105128)scale(0.12 -0.12)">
     <defs>
      <path d="M 628 4666 
L 1569 4666 
L 2759 1491 
L 3956 4666 
L 4897 4666 
L 4897 0 
L 4281 0 
L 4281 4097 
L 3078 897 
L 2444 897 
L 1241 4097 
L 1241 0 
L 628 0 
L 628 4666 
z
" id="DejaVuSans-4d" transform="scale(0.015625)"/>
      <path d="M 628 4666 
L 1259 4666 
L 1259 0 
L 628 0 
L 628 4666 
z
" id="DejaVuSans-49" transform="scale(0.015625)"/>
      <path d="M 2841 2188 
Q 3044 2119 3236 1894 
Q 3428 1669 3622 1275 
L 4263 0 
L 3584 0 
L 2988 1197 
Q 2756 1666 2539 1819 
Q 2322 1972 1947 1972 
L 1259 1972 
L 1259 0 
L 628 0 
L 628 4666 
L 2053 4666 
Q 2853 4666 3247 4331 
Q 3641 3997 3641 3322 
Q 3641 2881 3436 2590 
Q 3231 2300 2841 2188 
z
M 1259 4147 
L 1259 2491 
L 2053 2491 
Q 2509 2491 2742 2702 
Q 2975 2913 2975 3322 
Q 2975 3731 2742 3939 
Q 2509 4147 2053 4147 
L 1259 4147 
z
" id="DejaVuSans-52" transform="scale(0.015625)"/>
      <path d="M 2188 4044 
L 1331 1722 
L 3047 1722 
L 2188 4044 
z
M 1831 4666 
L 2547 4666 
L 4325 0 
L 3669 0 
L 3244 1197 
L 1141 1197 
L 716 0 
L 50 0 
L 1831 4666 
z
" id="DejaVuSans-41" transform="scale(0.015625)"/>
     </defs>
     <use xlink:href="#DejaVuSans-4d"/>
     <use x="86.279297" xlink:href="#DejaVuSans-49"/>
     <use x="115.771484" xlink:href="#DejaVuSans-52"/>
     <use x="185.253906" xlink:href="#DejaVuSans-49"/>
     <use x="214.746094" xlink:href="#DejaVuSans-41"/>
     <use x="283.154297" xlink:href="#DejaVuSans-4d"/>
    </g>
   </g>
  </g>
  <g id="axes_4">
   <g id="patch_11">
    <path clip-path="url(#pce82ff6343)" d="M 163.262898 224.339785 
C 162.046195 226.297935 160.520357 228.046177 158.744734 229.51651 
C 156.96911 230.986843 154.967025 232.159952 152.816352 232.990209 
C 150.66568 233.820466 148.394671 234.296964 146.09166 234.401169 
C 143.788649 234.505373 141.483888 234.235916 139.267024 233.603278 
C 137.050159 232.97064 134.950312 231.983131 133.049159 230.679161 
C 131.148006 229.375192 129.470521 227.771892 128.08195 225.931622 
C 126.69338 224.091353 125.611965 222.038289 124.879769 219.852286 
C 124.147574 217.666283 123.774214 215.376058 123.774214 213.07069 
C 123.774214 210.765323 124.147574 208.475097 124.879769 206.289095 
C 125.611965 204.103092 126.69338 202.050028 128.08195 200.209758 
C 129.470521 198.369489 131.148006 196.766188 133.049159 195.462219 
C 134.950312 194.15825 137.050159 193.170741 139.267024 192.538103 
C 141.483888 191.905464 143.788649 191.636007 146.09166 191.740212 
C 148.394671 191.844417 150.66568 192.320914 152.816352 193.151171 
C 154.967025 193.981428 156.96911 195.154538 158.744734 196.624871 
C 160.520357 198.095204 162.046195 199.843446 163.262898 201.801596 
C 161.887488 195.663818 159.399941 189.829385 155.923512 184.587389 
C 152.447083 179.345394 148.040156 174.783871 142.921091 171.12884 
C 137.802027 167.473809 132.056794 164.786654 125.970066 163.200521 
C 119.883339 161.614388 113.557336 161.155914 107.305509 161.847818 
C 101.053682 162.539721 94.981023 164.370382 89.38843 167.249092 
C 83.795836 170.127801 78.777229 174.006215 74.581279 178.692159 
C 70.385329 183.378103 67.082501 188.792882 64.83645 194.668197 
C 62.590398 200.543512 61.438843 206.780693 61.438843 213.07069 
C 61.438843 219.360688 62.590398 225.597869 64.83645 231.473184 
C 67.082501 237.348499 70.385329 242.763278 74.581279 247.449222 
C 78.777229 252.135166 83.795836 256.013579 89.38843 258.892289 
C 94.981023 261.770998 101.053682 263.601659 107.305509 264.293563 
C 113.557336 264.985466 119.883339 264.526993 125.970066 262.94086 
C 132.056794 261.354727 137.802027 258.667571 142.921091 255.012541 
C 148.040156 251.35751 152.447083 246.795986 155.923512 241.553991 
C 159.399941 236.311996 161.887488 230.477563 163.262898 224.339785 
" style="fill:#808080;opacity:0.4;"/>
   </g>
   <g id="patch_12">
    <path clip-path="url(#pce82ff6343)" d="M 163.262898 201.801596 
C 164.091816 205.500651 164.510074 209.279898 164.510074 213.07069 
C 164.510074 216.861483 164.091816 220.64073 163.262898 224.339785 
C 165.364687 220.957183 166.478819 217.053091 166.478819 213.07069 
C 166.478819 209.08829 165.364687 205.184198 163.262898 201.801596 
" style="fill:#800080;opacity:0.4;"/>
   </g>
   <g id="patch_13">
    <path clip-path="url(#pce82ff6343)" d="M 163.262898 224.339785 
C 164.091816 220.64073 164.510074 216.861483 164.510074 213.07069 
C 164.510074 209.279898 164.091816 205.500651 163.262898 201.801596 
C 162.046195 199.843446 160.520357 198.095204 158.744734 196.624871 
C 156.96911 195.154538 154.967025 193.981428 152.816352 193.151171 
C 150.66568 192.320914 148.394671 191.844417 146.09166 191.740212 
C 143.788649 191.636007 141.483888 191.905464 139.267024 192.538103 
C 137.050159 193.170741 134.950312 194.15825 133.049159 195.462219 
C 131.148006 196.766188 129.470521 198.369489 128.08195 200.209758 
C 126.69338 202.050028 125.611965 204.103092 124.879769 206.289095 
C 124.147574 208.475097 123.774214 210.765323 123.774214 213.07069 
C 123.774214 215.376058 124.147574 217.666283 124.879769 219.852286 
C 125.611965 222.038289 126.69338 224.091353 128.08195 225.931622 
C 129.470521 227.771892 131.148006 229.375192 133.049159 230.679161 
C 134.950312 231.983131 137.050159 232.97064 139.267024 233.603278 
C 141.483888 234.235916 143.788649 234.505373 146.09166 234.401169 
C 148.394671 234.296964 150.66568 233.820466 152.816352 232.990209 
C 154.967025 232.159952 156.96911 230.986843 158.744734 229.51651 
C 160.520357 228.046177 162.046195 226.297935 163.262898 224.339785 
" style="fill:#b35ab3;opacity:0.4;"/>
   </g>
   <g id="text_16">
    <!-- 916 -->
    <g style="fill:#262626;" transform="translate(83.062779 215.830065)scale(0.1 -0.1)">
     <use xlink:href="#DejaVuSans-39"/>
     <use x="63.623047" xlink:href="#DejaVuSans-31"/>
     <use x="127.246094" xlink:href="#DejaVuSans-36"/>
    </g>
   </g>
   <g id="text_17">
    <!-- 4 -->
    <g style="fill:#262626;" transform="translate(162.313196 215.830065)scale(0.1 -0.1)">
     <defs>
      <path d="M 2419 4116 
L 825 1625 
L 2419 1625 
L 2419 4116 
z
M 2253 4666 
L 3047 4666 
L 3047 1625 
L 3713 1625 
L 3713 1100 
L 3047 1100 
L 3047 0 
L 2419 0 
L 2419 1100 
L 313 1100 
L 313 1709 
L 2253 4666 
z
" id="DejaVuSans-34" transform="scale(0.015625)"/>
     </defs>
     <use xlink:href="#DejaVuSans-34"/>
    </g>
   </g>
   <g id="text_18">
    <!-- 185 -->
    <g style="fill:#262626;" transform="translate(134.598394 215.830065)scale(0.1 -0.1)">
     <use xlink:href="#DejaVuSans-31"/>
     <use x="63.623047" xlink:href="#DejaVuSans-38"/>
     <use x="127.246094" xlink:href="#DejaVuSans-35"/>
    </g>
   </g>
   <g id="text_19">
    <!-- Bioregistry -->
    <g style="fill:#262626;" transform="translate(48.075083 277.368826)scale(0.12 -0.12)">
     <use xlink:href="#DejaVuSans-42"/>
     <use x="68.603516" xlink:href="#DejaVuSans-69"/>
     <use x="96.386719" xlink:href="#DejaVuSans-6f"/>
     <use x="157.568359" xlink:href="#DejaVuSans-72"/>
     <use x="196.431641" xlink:href="#DejaVuSans-65"/>
     <use x="257.955078" xlink:href="#DejaVuSans-67"/>
     <use x="321.431641" xlink:href="#DejaVuSans-69"/>
     <use x="349.214844" xlink:href="#DejaVuSans-73"/>
     <use x="401.314453" xlink:href="#DejaVuSans-74"/>
     <use x="440.523438" xlink:href="#DejaVuSans-72"/>
     <use x="481.636719" xlink:href="#DejaVuSans-79"/>
    </g>
   </g>
   <g id="text_20">
    <!-- Wikidata -->
    <g style="fill:#262626;" transform="translate(145.126517 247.185513)scale(0.12 -0.12)">
     <defs>
      <path d="M 213 4666 
L 850 4666 
L 1831 722 
L 2809 4666 
L 3519 4666 
L 4500 722 
L 5478 4666 
L 6119 4666 
L 4947 0 
L 4153 0 
L 3169 4050 
L 2175 0 
L 1381 0 
L 213 4666 
z
" id="DejaVuSans-57" transform="scale(0.015625)"/>
      <path d="M 581 4863 
L 1159 4863 
L 1159 1991 
L 2875 3500 
L 3609 3500 
L 1753 1863 
L 3688 0 
L 2938 0 
L 1159 1709 
L 1159 0 
L 581 0 
L 581 4863 
z
" id="DejaVuSans-6b" transform="scale(0.015625)"/>
      <path d="M 2194 1759 
Q 1497 1759 1228 1600 
Q 959 1441 959 1056 
Q 959 750 1161 570 
Q 1363 391 1709 391 
Q 2188 391 2477 730 
Q 2766 1069 2766 1631 
L 2766 1759 
L 2194 1759 
z
M 3341 1997 
L 3341 0 
L 2766 0 
L 2766 531 
Q 2569 213 2275 61 
Q 1981 -91 1556 -91 
Q 1019 -91 701 211 
Q 384 513 384 1019 
Q 384 1609 779 1909 
Q 1175 2209 1959 2209 
L 2766 2209 
L 2766 2266 
Q 2766 2663 2505 2880 
Q 2244 3097 1772 3097 
Q 1472 3097 1187 3025 
Q 903 2953 641 2809 
L 641 3341 
Q 956 3463 1253 3523 
Q 1550 3584 1831 3584 
Q 2591 3584 2966 3190 
Q 3341 2797 3341 1997 
z
" id="DejaVuSans-61" transform="scale(0.015625)"/>
     </defs>
     <use xlink:href="#DejaVuSans-57"/>
     <use x="96.626953" xlink:href="#DejaVuSans-69"/>
     <use x="124.410156" xlink:href="#DejaVuSans-6b"/>
     <use x="182.320312" xlink:href="#DejaVuSans-69"/>
     <use x="210.103516" xlink:href="#DejaVuSans-64"/>
     <use x="273.580078" xlink:href="#DejaVuSans-61"/>
     <use x="334.859375" xlink:href="#DejaVuSans-74"/>
     <use x="374.068359" xlink:href="#DejaVuSans-61"/>
    </g>
   </g>
  </g>
  <g id="axes_5">
   <g id="patch_14">
    <path clip-path="url(#p86b5c70809)" d="M 384.661208 230.710583 
C 382.679752 234.791293 380.024816 238.509128 376.808072 241.70771 
C 373.591329 244.906291 369.858521 247.540134 365.766657 249.498454 
C 361.674794 251.456774 357.282063 252.711723 352.77323 253.210515 
C 348.264398 253.709307 343.703582 253.44485 339.282618 252.428266 
C 334.861654 251.411683 330.64341 249.65743 326.805314 247.239294 
C 322.967218 244.821158 319.563849 241.773526 316.738358 238.224588 
C 313.912867 234.675649 311.705434 230.675871 310.208909 226.393492 
C 308.712383 222.111112 307.948045 217.607028 307.948045 213.07069 
C 307.948045 208.534352 308.712383 204.030268 310.208909 199.747889 
C 311.705434 195.46551 313.912867 191.465731 316.738358 187.916793 
C 319.563849 184.367855 322.967218 181.320222 326.805314 178.902087 
C 330.64341 176.483951 334.861654 174.729698 339.282618 173.713114 
C 343.703582 172.696531 348.264398 172.432073 352.77323 172.930866 
C 357.282063 173.429658 361.674794 174.684607 365.766657 176.642926 
C 369.858521 178.601246 373.591329 181.235089 376.808072 184.433671 
C 380.024816 187.632252 382.679752 191.350088 384.661208 195.430797 
C 382.603708 189.782389 379.573746 184.537265 375.708607 179.933079 
C 371.843468 175.328893 367.202422 171.436248 361.995752 168.431516 
C 356.789082 165.426784 351.096629 163.356042 345.176314 162.313113 
C 339.255999 161.270184 333.198608 161.271062 327.278595 162.315706 
C 321.358582 163.36035 315.66673 165.432741 310.46093 168.438981 
C 305.25513 171.445221 300.615213 175.339211 296.751408 179.944516 
C 292.887603 184.549822 289.85916 189.795823 287.803297 195.444828 
C 285.747433 201.093833 284.695674 207.059215 284.695674 213.07069 
C 284.695674 219.082165 285.747433 225.047548 287.803297 230.696553 
C 289.85916 236.345558 292.887603 241.591559 296.751408 246.196864 
C 300.615213 250.80217 305.25513 254.69616 310.46093 257.7024 
C 315.66673 260.70864 321.358582 262.781031 327.278595 263.825675 
C 333.198608 264.870319 339.255999 264.871196 345.176314 263.828268 
C 351.096629 262.785339 356.789082 260.714597 361.995752 257.709865 
C 367.202422 254.705133 371.843468 250.812488 375.708607 246.208302 
C 379.573746 241.604116 382.603708 236.358992 384.661208 230.710583 
" style="fill:#808080;opacity:0.4;"/>
   </g>
   <g id="patch_15">
    <path clip-path="url(#p86b5c70809)" d="M 384.661208 195.430797 
C 386.720425 201.083918 387.773939 207.054201 387.773939 213.07069 
C 387.773939 219.08718 386.720425 225.057462 384.661208 230.710583 
C 387.330417 225.213482 388.717433 219.181566 388.717433 213.07069 
C 388.717433 206.959815 387.330417 200.927899 384.661208 195.430797 
" style="fill:#ffa500;opacity:0.4;"/>
   </g>
   <g id="patch_16">
    <path clip-path="url(#p86b5c70809)" d="M 384.661208 230.710583 
C 386.720425 225.057462 387.773939 219.08718 387.773939 213.07069 
C 387.773939 207.054201 386.720425 201.083918 384.661208 195.430797 
C 382.679752 191.350088 380.024816 187.632252 376.808072 184.433671 
C 373.591329 181.235089 369.858521 178.601246 365.766657 176.642926 
C 361.674794 174.684607 357.282063 173.429658 352.77323 172.930866 
C 348.264398 172.432073 343.703582 172.696531 339.282618 173.713114 
C 334.861654 174.729698 330.64341 176.483951 326.805314 178.902087 
C 322.967218 181.320222 319.563849 184.367855 316.738358 187.916793 
C 313.912867 191.465731 311.705434 195.46551 310.208909 199.747889 
C 308.712383 204.030268 307.948045 208.534352 307.948045 213.07069 
C 307.948045 217.607028 308.712383 222.111112 310.208909 226.393492 
C 311.705434 230.675871 313.912867 234.675649 316.738358 238.224588 
C 319.563849 241.773526 322.967218 244.821158 326.805314 247.239294 
C 330.64341 249.65743 334.861654 251.411683 339.282618 252.428266 
C 343.703582 253.44485 348.264398 253.709307 352.77323 253.210515 
C 357.282063 252.711723 361.674794 251.456774 365.766657 249.498454 
C 369.858521 247.540134 373.591329 244.906291 376.808072 241.70771 
C 380.024816 238.509128 382.679752 234.791293 384.661208 230.710583 
" style="fill:#ffcd5a;opacity:0.4;"/>
   </g>
   <g id="text_21">
    <!-- 428 -->
    <g style="fill:#262626;" transform="translate(286.77811 215.830065)scale(0.1 -0.1)">
     <use xlink:href="#DejaVuSans-34"/>
     <use x="63.623047" xlink:href="#DejaVuSans-32"/>
     <use x="127.246094" xlink:href="#DejaVuSans-38"/>
    </g>
   </g>
   <g id="text_22">
    <!-- 3 -->
    <g style="fill:#262626;" transform="translate(385.064436 215.830065)scale(0.1 -0.1)">
     <use xlink:href="#DejaVuSans-33"/>
    </g>
   </g>
   <g id="text_23">
    <!-- 673 -->
    <g style="fill:#262626;" transform="translate(338.317242 215.830065)scale(0.1 -0.1)">
     <use xlink:href="#DejaVuSans-36"/>
     <use x="63.623047" xlink:href="#DejaVuSans-37"/>
     <use x="127.246094" xlink:href="#DejaVuSans-33"/>
    </g>
   </g>
   <g id="text_24">
    <!-- Bioregistry -->
    <g style="fill:#262626;" transform="translate(271.335432 278.324139)scale(0.12 -0.12)">
     <use xlink:href="#DejaVuSans-42"/>
     <use x="68.603516" xlink:href="#DejaVuSans-69"/>
     <use x="96.386719" xlink:href="#DejaVuSans-6f"/>
     <use x="157.568359" xlink:href="#DejaVuSans-72"/>
     <use x="196.431641" xlink:href="#DejaVuSans-65"/>
     <use x="257.955078" xlink:href="#DejaVuSans-67"/>
     <use x="321.431641" xlink:href="#DejaVuSans-69"/>
     <use x="349.214844" xlink:href="#DejaVuSans-73"/>
     <use x="401.314453" xlink:href="#DejaVuSans-74"/>
     <use x="440.523438" xlink:href="#DejaVuSans-72"/>
     <use x="481.636719" xlink:href="#DejaVuSans-79"/>
    </g>
   </g>
   <g id="text_25">
    <!-- Name-to-Thing -->
    <g style="fill:#262626;" transform="translate(348.332739 267.1697)scale(0.12 -0.12)">
     <defs>
      <path d="M 628 4666 
L 1478 4666 
L 3547 763 
L 3547 4666 
L 4159 4666 
L 4159 0 
L 3309 0 
L 1241 3903 
L 1241 0 
L 628 0 
L 628 4666 
z
" id="DejaVuSans-4e" transform="scale(0.015625)"/>
      <path d="M 3328 2828 
Q 3544 3216 3844 3400 
Q 4144 3584 4550 3584 
Q 5097 3584 5394 3201 
Q 5691 2819 5691 2113 
L 5691 0 
L 5113 0 
L 5113 2094 
Q 5113 2597 4934 2840 
Q 4756 3084 4391 3084 
Q 3944 3084 3684 2787 
Q 3425 2491 3425 1978 
L 3425 0 
L 2847 0 
L 2847 2094 
Q 2847 2600 2669 2842 
Q 2491 3084 2119 3084 
Q 1678 3084 1418 2786 
Q 1159 2488 1159 1978 
L 1159 0 
L 581 0 
L 581 3500 
L 1159 3500 
L 1159 2956 
Q 1356 3278 1631 3431 
Q 1906 3584 2284 3584 
Q 2666 3584 2933 3390 
Q 3200 3197 3328 2828 
z
" id="DejaVuSans-6d" transform="scale(0.015625)"/>
      <path d="M 313 2009 
L 1997 2009 
L 1997 1497 
L 313 1497 
L 313 2009 
z
" id="DejaVuSans-2d" transform="scale(0.015625)"/>
      <path d="M -19 4666 
L 3928 4666 
L 3928 4134 
L 2272 4134 
L 2272 0 
L 1638 0 
L 1638 4134 
L -19 4134 
L -19 4666 
z
" id="DejaVuSans-54" transform="scale(0.015625)"/>
      <path d="M 3513 2113 
L 3513 0 
L 2938 0 
L 2938 2094 
Q 2938 2591 2744 2837 
Q 2550 3084 2163 3084 
Q 1697 3084 1428 2787 
Q 1159 2491 1159 1978 
L 1159 0 
L 581 0 
L 581 4863 
L 1159 4863 
L 1159 2956 
Q 1366 3272 1645 3428 
Q 1925 3584 2291 3584 
Q 2894 3584 3203 3211 
Q 3513 2838 3513 2113 
z
" id="DejaVuSans-68" transform="scale(0.015625)"/>
     </defs>
     <use xlink:href="#DejaVuSans-4e"/>
     <use x="74.804688" xlink:href="#DejaVuSans-61"/>
     <use x="136.083984" xlink:href="#DejaVuSans-6d"/>
     <use x="233.496094" xlink:href="#DejaVuSans-65"/>
     <use x="295.019531" xlink:href="#DejaVuSans-2d"/>
     <use x="331.103516" xlink:href="#DejaVuSans-74"/>
     <use x="370.3125" xlink:href="#DejaVuSans-6f"/>
     <use x="433.369141" xlink:href="#DejaVuSans-2d"/>
     <use x="460.328125" xlink:href="#DejaVuSans-54"/>
     <use x="521.412109" xlink:href="#DejaVuSans-68"/>
     <use x="584.791016" xlink:href="#DejaVuSans-69"/>
     <use x="612.574219" xlink:href="#DejaVuSans-6e"/>
     <use x="675.953125" xlink:href="#DejaVuSans-67"/>
    </g>
   </g>
  </g>
  <g id="axes_6">
   <g id="patch_17">
    <path clip-path="url(#p2e88a2026d)" d="M 593.370283 237.524108 
C 587.485737 236.683137 582.098021 233.745675 578.203403 229.2549 
C 574.308785 224.764125 572.163091 219.015024 572.163091 213.07069 
C 572.163091 207.126356 574.308785 201.377255 578.203403 196.88648 
C 582.098021 192.395706 587.485737 189.458243 593.370283 188.617273 
C 590.671347 183.661552 587.170489 179.186671 583.009934 175.374426 
C 578.849379 171.562182 574.086243 168.464908 568.914033 166.208435 
C 563.741823 163.951962 558.231542 162.567266 552.607053 162.110603 
C 546.982563 161.653939 541.321076 162.131576 535.852596 163.52411 
C 530.384116 164.916644 525.183713 167.204958 520.462659 170.296087 
C 515.741605 173.387216 511.56471 177.238724 508.101665 181.694142 
C 504.638621 186.14956 501.936966 191.147723 500.106458 196.485575 
C 498.275951 201.823428 497.341721 207.427692 497.341721 213.07069 
C 497.341721 218.713688 498.275951 224.317953 500.106458 229.655806 
C 501.936966 234.993658 504.638621 239.991821 508.101665 244.447239 
C 511.56471 248.902656 515.741605 252.754165 520.462659 255.845294 
C 525.183713 258.936423 530.384116 261.224736 535.852596 262.61727 
C 541.321076 264.009804 546.982563 264.487442 552.607053 264.030778 
C 558.231542 263.574114 563.741823 262.189419 568.914033 259.932946 
C 574.086243 257.676473 578.849379 254.579199 583.009934 250.766954 
C 587.170489 246.95471 590.671347 242.479829 593.370283 237.524108 
" style="fill:#808080;opacity:0.4;"/>
   </g>
   <g id="patch_18">
    <path clip-path="url(#p2e88a2026d)" d="M 593.370283 188.617273 
C 597.456163 196.11967 599.59728 204.527835 599.59728 213.07069 
C 599.59728 221.613545 597.456163 230.021711 593.370283 237.524108 
C 596.873769 238.024797 600.444287 237.766761 603.839376 236.767524 
C 607.234465 235.768287 610.375495 234.05099 613.049171 231.732248 
C 615.722847 229.413507 617.867246 226.547022 619.336751 223.327448 
C 620.806255 220.107873 621.566832 216.609773 621.566832 213.07069 
C 621.566832 209.531608 620.806255 206.033508 619.336751 202.813933 
C 617.867246 199.594358 615.722847 196.727874 613.049171 194.409132 
C 610.375495 192.090391 607.234465 190.373094 603.839376 189.373856 
C 600.444287 188.374619 596.873769 188.116584 593.370283 188.617273 
" style="fill:#ffff00;opacity:0.4;"/>
   </g>
   <g id="patch_19">
    <path clip-path="url(#p2e88a2026d)" d="M 593.370283 237.524108 
C 597.456163 230.021711 599.59728 221.613545 599.59728 213.07069 
C 599.59728 204.527835 597.456163 196.11967 593.370283 188.617273 
C 587.485737 189.458243 582.098021 192.395706 578.203403 196.88648 
C 574.308785 201.377255 572.163091 207.126356 572.163091 213.07069 
C 572.163091 219.015024 574.308785 224.764125 578.203403 229.2549 
C 582.098021 233.745675 587.485737 236.683137 593.370283 237.524108 
" style="fill:#ffff5a;opacity:0.4;"/>
   </g>
   <g id="text_26">
    <!-- 968 -->
    <g style="fill:#262626;" transform="translate(525.208656 215.830065)scale(0.1 -0.1)">
     <use xlink:href="#DejaVuSans-39"/>
     <use x="63.623047" xlink:href="#DejaVuSans-36"/>
     <use x="127.246094" xlink:href="#DejaVuSans-38"/>
    </g>
   </g>
   <g id="text_27">
    <!-- 124 -->
    <g style="fill:#262626;" transform="translate(601.038306 215.830065)scale(0.1 -0.1)">
     <use xlink:href="#DejaVuSans-31"/>
     <use x="63.623047" xlink:href="#DejaVuSans-32"/>
     <use x="127.246094" xlink:href="#DejaVuSans-34"/>
    </g>
   </g>
   <g id="text_28">
    <!-- 133 -->
    <g style="fill:#262626;" transform="translate(576.336436 215.830065)scale(0.1 -0.1)">
     <use xlink:href="#DejaVuSans-31"/>
     <use x="63.623047" xlink:href="#DejaVuSans-33"/>
     <use x="127.246094" xlink:href="#DejaVuSans-33"/>
    </g>
   </g>
   <g id="text_29">
    <!-- Bioregistry -->
    <g style="fill:#262626;" transform="translate(483.570125 277.108078)scale(0.12 -0.12)">
     <use xlink:href="#DejaVuSans-42"/>
     <use x="68.603516" xlink:href="#DejaVuSans-69"/>
     <use x="96.386719" xlink:href="#DejaVuSans-6f"/>
     <use x="157.568359" xlink:href="#DejaVuSans-72"/>
     <use x="196.431641" xlink:href="#DejaVuSans-65"/>
     <use x="257.955078" xlink:href="#DejaVuSans-67"/>
     <use x="321.431641" xlink:href="#DejaVuSans-69"/>
     <use x="349.214844" xlink:href="#DejaVuSans-73"/>
     <use x="401.314453" xlink:href="#DejaVuSans-74"/>
     <use x="440.523438" xlink:href="#DejaVuSans-72"/>
     <use x="481.636719" xlink:href="#DejaVuSans-79"/>
    </g>
   </g>
   <g id="text_30">
    <!-- GO -->
    <g style="fill:#262626;" transform="translate(596.864961 250.682168)scale(0.12 -0.12)">
     <defs>
      <path d="M 3809 666 
L 3809 1919 
L 2778 1919 
L 2778 2438 
L 4434 2438 
L 4434 434 
Q 4069 175 3628 42 
Q 3188 -91 2688 -91 
Q 1594 -91 976 548 
Q 359 1188 359 2328 
Q 359 3472 976 4111 
Q 1594 4750 2688 4750 
Q 3144 4750 3555 4637 
Q 3966 4525 4313 4306 
L 4313 3634 
Q 3963 3931 3569 4081 
Q 3175 4231 2741 4231 
Q 1884 4231 1454 3753 
Q 1025 3275 1025 2328 
Q 1025 1384 1454 906 
Q 1884 428 2741 428 
Q 3075 428 3337 486 
Q 3600 544 3809 666 
z
" id="DejaVuSans-47" transform="scale(0.015625)"/>
     </defs>
     <use xlink:href="#DejaVuSans-47"/>
     <use x="77.490234" xlink:href="#DejaVuSans-4f"/>
    </g>
   </g>
  </g>
  <g id="axes_7">
   <g id="patch_20">
    <path clip-path="url(#p1dc0f44ac6)" d="M 121.524721 391.473104 
C 115.406924 387.474686 110.381086 382.013795 106.903142 375.585834 
C 103.425199 369.157872 101.603601 361.963279 101.603601 354.654737 
C 101.603601 347.346196 103.425199 340.151603 106.903142 333.723641 
C 110.381086 327.29568 115.406924 321.834788 121.524721 317.836371 
C 114.394058 311.359746 105.533139 307.092005 96.023768 305.554185 
C 86.514397 304.016364 76.759983 305.273702 67.951413 309.172693 
C 59.142843 313.071684 51.653797 319.446924 46.398591 327.520079 
C 41.143385 335.593234 38.344956 345.021824 38.344956 354.654737 
C 38.344956 364.287651 41.143385 373.71624 46.398591 381.789396 
C 51.653797 389.862551 59.142843 396.237791 67.951413 400.136782 
C 76.759983 404.035773 86.514397 405.29311 96.023768 403.75529 
C 105.533139 402.21747 114.394058 397.949729 121.524721 391.473104 
" style="fill:#808080;opacity:0.4;"/>
   </g>
   <g id="patch_21">
    <path clip-path="url(#p1dc0f44ac6)" d="M 121.524721 317.836371 
C 126.657385 322.498257 130.758952 328.182319 133.565452 334.522743 
C 136.371952 340.863167 137.821859 347.72095 137.821859 354.654737 
C 137.821859 361.588525 136.371952 368.446308 133.565452 374.786732 
C 130.758952 381.127155 126.657385 386.811218 121.524721 391.473104 
C 128.159784 395.809591 135.845303 398.272932 143.764977 398.601488 
C 151.684651 398.930044 159.547798 397.111756 166.51925 393.339749 
C 173.490702 389.567741 179.314581 383.980463 183.372315 377.171353 
C 187.43005 370.362244 189.572706 362.581224 189.572706 354.654737 
C 189.572706 346.728251 187.43005 338.947231 183.372315 332.138122 
C 179.314581 325.329012 173.490702 319.741733 166.51925 315.969726 
C 159.547798 312.197719 151.684651 310.379431 143.764977 310.707987 
C 135.845303 311.036543 128.159784 313.499884 121.524721 317.836371 
" style="fill:#00ffff;opacity:0.4;"/>
   </g>
   <g id="patch_22">
    <path clip-path="url(#p1dc0f44ac6)" d="M 121.524721 391.473104 
C 126.657385 386.811218 130.758952 381.127155 133.565452 374.786732 
C 136.371952 368.446308 137.821859 361.588525 137.821859 354.654737 
C 137.821859 347.72095 136.371952 340.863167 133.565452 334.522743 
C 130.758952 328.182319 126.657385 322.498257 121.524721 317.836371 
C 115.406924 321.834788 110.381086 327.29568 106.903142 333.723641 
C 103.425199 340.151603 101.603601 347.346196 101.603601 354.654737 
C 101.603601 361.963279 103.425199 369.157872 106.903142 375.585834 
C 110.381086 382.013795 115.406924 387.474686 121.524721 391.473104 
" style="fill:#5affff;opacity:0.4;"/>
   </g>
   <g id="text_31">
    <!-- 837 -->
    <g style="fill:#262626;" transform="translate(60.430528 357.414112)scale(0.1 -0.1)">
     <use xlink:href="#DejaVuSans-38"/>
     <use x="63.623047" xlink:href="#DejaVuSans-33"/>
     <use x="127.246094" xlink:href="#DejaVuSans-37"/>
    </g>
   </g>
   <g id="text_32">
    <!-- 597 -->
    <g style="fill:#262626;" transform="translate(154.153533 357.414112)scale(0.1 -0.1)">
     <use xlink:href="#DejaVuSans-35"/>
     <use x="63.623047" xlink:href="#DejaVuSans-39"/>
     <use x="127.246094" xlink:href="#DejaVuSans-37"/>
    </g>
   </g>
   <g id="text_33">
    <!-- 264 -->
    <g style="fill:#262626;" transform="translate(110.16898 357.414112)scale(0.1 -0.1)">
     <use xlink:href="#DejaVuSans-32"/>
     <use x="63.623047" xlink:href="#DejaVuSans-36"/>
     <use x="127.246094" xlink:href="#DejaVuSans-34"/>
    </g>
   </g>
   <g id="text_34">
    <!-- Bioregistry -->
    <g style="fill:#262626;" transform="translate(23.184032 418.197464)scale(0.12 -0.12)">
     <use xlink:href="#DejaVuSans-42"/>
     <use x="68.603516" xlink:href="#DejaVuSans-69"/>
     <use x="96.386719" xlink:href="#DejaVuSans-6f"/>
     <use x="157.568359" xlink:href="#DejaVuSans-72"/>
     <use x="196.431641" xlink:href="#DejaVuSans-65"/>
     <use x="257.955078" xlink:href="#DejaVuSans-67"/>
     <use x="321.431641" xlink:href="#DejaVuSans-69"/>
     <use x="349.214844" xlink:href="#DejaVuSans-73"/>
     <use x="401.314453" xlink:href="#DejaVuSans-74"/>
     <use x="440.523438" xlink:href="#DejaVuSans-72"/>
     <use x="481.636719" xlink:href="#DejaVuSans-79"/>
    </g>
   </g>
   <g id="text_35">
    <!-- BioPortal -->
    <g style="fill:#262626;" transform="translate(145.588154 412.443565)scale(0.12 -0.12)">
     <defs>
      <path d="M 1259 4147 
L 1259 2394 
L 2053 2394 
Q 2494 2394 2734 2622 
Q 2975 2850 2975 3272 
Q 2975 3691 2734 3919 
Q 2494 4147 2053 4147 
L 1259 4147 
z
M 628 4666 
L 2053 4666 
Q 2838 4666 3239 4311 
Q 3641 3956 3641 3272 
Q 3641 2581 3239 2228 
Q 2838 1875 2053 1875 
L 1259 1875 
L 1259 0 
L 628 0 
L 628 4666 
z
" id="DejaVuSans-50" transform="scale(0.015625)"/>
      <path d="M 603 4863 
L 1178 4863 
L 1178 0 
L 603 0 
L 603 4863 
z
" id="DejaVuSans-6c" transform="scale(0.015625)"/>
     </defs>
     <use xlink:href="#DejaVuSans-42"/>
     <use x="68.603516" xlink:href="#DejaVuSans-69"/>
     <use x="96.386719" xlink:href="#DejaVuSans-6f"/>
     <use x="157.568359" xlink:href="#DejaVuSans-50"/>
     <use x="214.246094" xlink:href="#DejaVuSans-6f"/>
     <use x="275.427734" xlink:href="#DejaVuSans-72"/>
     <use x="316.541016" xlink:href="#DejaVuSans-74"/>
     <use x="355.75" xlink:href="#DejaVuSans-61"/>
     <use x="417.029297" xlink:href="#DejaVuSans-6c"/>
    </g>
   </g>
  </g>
  <g id="axes_8">
   <g id="patch_23">
    <path clip-path="url(#p329907b645)" d="M 348.463003 402.09141 
C 342.130934 402.254433 335.829847 401.147967 329.932138 398.837403 
C 324.034429 396.52684 318.658617 393.058612 314.122413 388.637692 
C 309.586209 384.216772 305.980773 378.932003 303.519185 373.095715 
C 301.057596 367.259427 299.789325 360.988905 299.789325 354.654737 
C 299.789325 348.32057 301.057596 342.050048 303.519185 336.21376 
C 305.980773 330.377472 309.586209 325.092703 314.122413 320.671783 
C 318.658617 316.250863 324.034429 312.782635 329.932138 310.472072 
C 335.829847 308.161508 342.130934 307.055042 348.463003 307.218065 
C 340.728501 304.162547 332.362798 303.044547 324.097369 303.961821 
C 315.83194 304.879095 307.914919 307.804105 301.038549 312.481097 
C 294.16218 317.158088 288.532895 323.446654 284.642905 330.796938 
C 280.752914 338.147223 278.718999 346.338566 278.718999 354.654737 
C 278.718999 362.970909 280.752914 371.162252 284.642905 378.512536 
C 288.532895 385.862821 294.16218 392.151387 301.038549 396.828378 
C 307.914919 401.50537 315.83194 404.43038 324.097369 405.347654 
C 332.362798 406.264928 340.728501 405.146928 348.463003 402.09141 
" style="fill:#808080;opacity:0.4;"/>
   </g>
   <g id="patch_24">
    <path clip-path="url(#p329907b645)" d="M 348.463003 307.218065 
C 357.97698 310.976566 366.143741 317.511746 371.896766 325.970161 
C 377.649792 334.428576 380.727252 344.425266 380.727252 354.654737 
C 380.727252 364.884209 377.649792 374.880899 371.896766 383.339314 
C 366.143741 391.797729 357.97698 398.332909 348.463003 402.09141 
C 360.828134 401.773062 372.591592 396.632244 381.224671 387.774041 
C 389.85775 378.915837 394.694108 367.023966 394.694108 354.654737 
C 394.694108 342.285508 389.85775 330.393638 381.224671 321.535434 
C 372.591592 312.677231 360.828134 307.536413 348.463003 307.218065 
" style="fill:#ff00ff;opacity:0.4;"/>
   </g>
   <g id="patch_25">
    <path clip-path="url(#p329907b645)" d="M 348.463003 402.09141 
C 357.97698 398.332909 366.143741 391.797729 371.896766 383.339314 
C 377.649792 374.880899 380.727252 364.884209 380.727252 354.654737 
C 380.727252 344.425266 377.649792 334.428576 371.896766 325.970161 
C 366.143741 317.511746 357.97698 310.976566 348.463003 307.218065 
C 342.130934 307.055042 335.829847 308.161508 329.932138 310.472072 
C 324.034429 312.782635 318.658617 316.250863 314.122413 320.671783 
C 309.586209 325.092703 305.980773 330.377472 303.519185 336.21376 
C 301.057596 342.050048 299.789325 348.32057 299.789325 354.654737 
C 299.789325 360.988905 301.057596 367.259427 303.519185 373.095715 
C 305.980773 378.932003 309.586209 384.216772 314.122413 388.637692 
C 318.658617 393.058612 324.034429 396.52684 329.932138 398.837403 
C 335.829847 401.147967 342.130934 402.254433 348.463003 402.09141 
" style="fill:#ff5aff;opacity:0.4;"/>
   </g>
   <g id="text_36">
    <!-- 310 -->
    <g style="fill:#262626;" transform="translate(279.710412 357.414112)scale(0.1 -0.1)">
     <use xlink:href="#DejaVuSans-33"/>
     <use x="63.623047" xlink:href="#DejaVuSans-31"/>
     <use x="127.246094" xlink:href="#DejaVuSans-30"/>
    </g>
   </g>
   <g id="text_37">
    <!-- 162 -->
    <g style="fill:#262626;" transform="translate(378.16693 357.414112)scale(0.1 -0.1)">
     <use xlink:href="#DejaVuSans-31"/>
     <use x="63.623047" xlink:href="#DejaVuSans-36"/>
     <use x="127.246094" xlink:href="#DejaVuSans-32"/>
    </g>
   </g>
   <g id="text_38">
    <!-- 791 -->
    <g style="fill:#262626;" transform="translate(330.714538 357.414112)scale(0.1 -0.1)">
     <use xlink:href="#DejaVuSans-37"/>
     <use x="63.623047" xlink:href="#DejaVuSans-39"/>
     <use x="127.246094" xlink:href="#DejaVuSans-31"/>
    </g>
   </g>
   <g id="text_39">
    <!-- Bioregistry -->
    <g style="fill:#262626;" transform="translate(264.823751 419.699815)scale(0.12 -0.12)">
     <use xlink:href="#DejaVuSans-42"/>
     <use x="68.603516" xlink:href="#DejaVuSans-69"/>
     <use x="96.386719" xlink:href="#DejaVuSans-6f"/>
     <use x="157.568359" xlink:href="#DejaVuSans-72"/>
     <use x="196.431641" xlink:href="#DejaVuSans-65"/>
     <use x="257.955078" xlink:href="#DejaVuSans-67"/>
     <use x="321.431641" xlink:href="#DejaVuSans-69"/>
     <use x="349.214844" xlink:href="#DejaVuSans-73"/>
     <use x="401.314453" xlink:href="#DejaVuSans-74"/>
     <use x="440.523438" xlink:href="#DejaVuSans-72"/>
     <use x="481.636719" xlink:href="#DejaVuSans-79"/>
    </g>
   </g>
   <g id="text_40">
    <!-- Prefix Commons -->
    <g style="fill:#262626;" transform="translate(347.241716 416.14808)scale(0.12 -0.12)">
     <defs>
      <path d="M 2375 4863 
L 2375 4384 
L 1825 4384 
Q 1516 4384 1395 4259 
Q 1275 4134 1275 3809 
L 1275 3500 
L 2222 3500 
L 2222 3053 
L 1275 3053 
L 1275 0 
L 697 0 
L 697 3053 
L 147 3053 
L 147 3500 
L 697 3500 
L 697 3744 
Q 697 4328 969 4595 
Q 1241 4863 1831 4863 
L 2375 4863 
z
" id="DejaVuSans-66" transform="scale(0.015625)"/>
      <path d="M 3513 3500 
L 2247 1797 
L 3578 0 
L 2900 0 
L 1881 1375 
L 863 0 
L 184 0 
L 1544 1831 
L 300 3500 
L 978 3500 
L 1906 2253 
L 2834 3500 
L 3513 3500 
z
" id="DejaVuSans-78" transform="scale(0.015625)"/>
      <path d="M 4122 4306 
L 4122 3641 
Q 3803 3938 3442 4084 
Q 3081 4231 2675 4231 
Q 1875 4231 1450 3742 
Q 1025 3253 1025 2328 
Q 1025 1406 1450 917 
Q 1875 428 2675 428 
Q 3081 428 3442 575 
Q 3803 722 4122 1019 
L 4122 359 
Q 3791 134 3420 21 
Q 3050 -91 2638 -91 
Q 1578 -91 968 557 
Q 359 1206 359 2328 
Q 359 3453 968 4101 
Q 1578 4750 2638 4750 
Q 3056 4750 3426 4639 
Q 3797 4528 4122 4306 
z
" id="DejaVuSans-43" transform="scale(0.015625)"/>
     </defs>
     <use xlink:href="#DejaVuSans-50"/>
     <use x="58.552734" xlink:href="#DejaVuSans-72"/>
     <use x="97.416016" xlink:href="#DejaVuSans-65"/>
     <use x="158.939453" xlink:href="#DejaVuSans-66"/>
     <use x="194.144531" xlink:href="#DejaVuSans-69"/>
     <use x="221.927734" xlink:href="#DejaVuSans-78"/>
     <use x="281.107422" xlink:href="#DejaVuSans-20"/>
     <use x="312.894531" xlink:href="#DejaVuSans-43"/>
     <use x="382.71875" xlink:href="#DejaVuSans-6f"/>
     <use x="443.900391" xlink:href="#DejaVuSans-6d"/>
     <use x="541.3125" xlink:href="#DejaVuSans-6d"/>
     <use x="638.724609" xlink:href="#DejaVuSans-6f"/>
     <use x="699.90625" xlink:href="#DejaVuSans-6e"/>
     <use x="763.285156" xlink:href="#DejaVuSans-73"/>
    </g>
   </g>
  </g>
  <g id="axes_9">
   <g id="patch_26">
    <path clip-path="url(#p68527d8635)" d="M 601.724957 369.810125 
C 597.842322 369.609303 594.181549 367.923935 591.504384 365.10472 
C 588.82722 362.285505 587.333196 358.542562 587.333196 354.654737 
C 587.333196 350.766913 588.82722 347.02397 591.504384 344.204755 
C 594.181549 341.38554 597.842322 339.700172 601.724957 339.499349 
C 599.925441 333.66841 597.101697 328.20431 593.386247 323.36349 
C 589.670797 318.52267 585.122689 314.382062 579.955374 311.135992 
C 574.78806 307.889923 569.08366 305.58998 563.109892 304.344103 
C 557.136124 303.098227 550.987927 302.926218 544.953845 303.836149 
C 538.919764 304.746079 533.095696 306.723489 527.754975 309.675573 
C 522.414253 312.627658 517.641756 316.507502 513.661465 321.133017 
C 509.681173 325.758532 506.556345 331.056208 504.433633 336.777414 
C 502.310921 342.498621 501.224061 348.552434 501.224061 354.654737 
C 501.224061 360.757041 502.310921 366.810854 504.433633 372.532061 
C 506.556345 378.253267 509.681173 383.550943 513.661465 388.176458 
C 517.641756 392.801973 522.414253 396.681817 527.754975 399.633902 
C 533.095696 402.585986 538.919764 404.563395 544.953845 405.473326 
C 550.987927 406.383257 557.136124 406.211248 563.109892 404.965371 
C 569.08366 403.719495 574.78806 401.419552 579.955374 398.173483 
C 585.122689 394.927413 589.670797 390.786805 593.386247 385.945985 
C 597.101697 381.105164 599.925441 375.641065 601.724957 369.810125 
" style="fill:#808080;opacity:0.4;"/>
   </g>
   <g id="patch_27">
    <path clip-path="url(#p68527d8635)" d="M 601.724957 339.499349 
C 603.239987 344.408476 604.010367 349.517147 604.010367 354.654737 
C 604.010367 359.792328 603.239987 364.900999 601.724957 369.810125 
C 603.781056 369.916474 605.837455 369.603298 607.768682 368.889707 
C 609.69991 368.176116 611.465875 367.076924 612.958826 365.659197 
C 614.451778 364.24147 615.640722 362.534641 616.453117 360.642851 
C 617.265512 358.751062 617.684491 356.713585 617.684491 354.654737 
C 617.684491 352.59589 617.265512 350.558413 616.453117 348.666624 
C 615.640722 346.774834 614.451778 345.068005 612.958826 343.650278 
C 611.465875 342.232551 609.69991 341.133359 607.768682 340.419768 
C 605.837455 339.706177 603.781056 339.393001 601.724957 339.499349 
" style="fill:#ffc0cb;opacity:0.4;"/>
   </g>
   <g id="patch_28">
    <path clip-path="url(#p68527d8635)" d="M 601.724957 369.810125 
C 603.239987 364.900999 604.010367 359.792328 604.010367 354.654737 
C 604.010367 349.517147 603.239987 344.408476 601.724957 339.499349 
C 597.842322 339.700172 594.181549 341.38554 591.504384 344.204755 
C 588.82722 347.02397 587.333196 350.766913 587.333196 354.654737 
C 587.333196 358.542562 588.82722 362.285505 591.504384 365.10472 
C 594.181549 367.923935 597.842322 369.609303 601.724957 369.810125 
" style="fill:#ffe0e8;opacity:0.4;"/>
   </g>
   <g id="text_41">
    <!-- 1050 -->
    <g style="fill:#262626;" transform="translate(531.553629 357.414112)scale(0.1 -0.1)">
     <use xlink:href="#DejaVuSans-31"/>
     <use x="63.623047" xlink:href="#DejaVuSans-30"/>
     <use x="127.246094" xlink:href="#DejaVuSans-35"/>
     <use x="190.869141" xlink:href="#DejaVuSans-30"/>
    </g>
   </g>
   <g id="text_42">
    <!-- 45 -->
    <g style="fill:#262626;" transform="translate(604.484929 357.414112)scale(0.1 -0.1)">
     <use xlink:href="#DejaVuSans-34"/>
     <use x="63.623047" xlink:href="#DejaVuSans-35"/>
    </g>
   </g>
   <g id="text_43">
    <!-- 51 -->
    <g style="fill:#262626;" transform="translate(589.309282 357.414112)scale(0.1 -0.1)">
     <use xlink:href="#DejaVuSans-35"/>
     <use x="63.623047" xlink:href="#DejaVuSans-31"/>
    </g>
   </g>
   <g id="text_44">
    <!-- Bioregistry -->
    <g style="fill:#262626;" transform="translate(487.717839 418.494455)scale(0.12 -0.12)">
     <use xlink:href="#DejaVuSans-42"/>
     <use x="68.603516" xlink:href="#DejaVuSans-69"/>
     <use x="96.386719" xlink:href="#DejaVuSans-6f"/>
     <use x="157.568359" xlink:href="#DejaVuSans-72"/>
     <use x="196.431641" xlink:href="#DejaVuSans-65"/>
     <use x="257.955078" xlink:href="#DejaVuSans-67"/>
     <use x="321.431641" xlink:href="#DejaVuSans-69"/>
     <use x="349.214844" xlink:href="#DejaVuSans-73"/>
     <use x="401.314453" xlink:href="#DejaVuSans-74"/>
     <use x="440.523438" xlink:href="#DejaVuSans-72"/>
     <use x="481.636719" xlink:href="#DejaVuSans-79"/>
    </g>
   </g>
   <g id="text_45">
    <!-- Biolink Model -->
    <g style="fill:#262626;" transform="translate(602.508844 382.27695)scale(0.12 -0.12)">
     <use xlink:href="#DejaVuSans-42"/>
     <use x="68.603516" xlink:href="#DejaVuSans-69"/>
     <use x="96.386719" xlink:href="#DejaVuSans-6f"/>
     <use x="157.568359" xlink:href="#DejaVuSans-6c"/>
     <use x="185.351562" xlink:href="#DejaVuSans-69"/>
     <use x="213.134766" xlink:href="#DejaVuSans-6e"/>
     <use x="276.513672" xlink:href="#DejaVuSans-6b"/>
     <use x="334.423828" xlink:href="#DejaVuSans-20"/>
     <use x="366.210938" xlink:href="#DejaVuSans-4d"/>
     <use x="452.490234" xlink:href="#DejaVuSans-6f"/>
     <use x="513.671875" xlink:href="#DejaVuSans-64"/>
     <use x="577.148438" xlink:href="#DejaVuSans-65"/>
     <use x="638.671875" xlink:href="#DejaVuSans-6c"/>
    </g>
   </g>
  </g>
  <g id="axes_10">
   <g id="patch_29">
    <path clip-path="url(#pfd14827d63)" d="M 154.86406 513.532552 
C 150.382359 513.377819 146.131743 511.486831 143.016001 508.26166 
C 139.900258 505.036489 138.157063 500.723155 138.157063 496.238785 
C 138.157063 491.754414 139.900258 487.44108 143.016001 484.215909 
C 146.131743 480.990738 150.382359 479.09975 154.86406 478.945017 
C 152.842674 473.292902 149.845879 468.038713 146.010023 463.421504 
C 142.174167 458.804296 137.558322 454.895171 132.372498 451.871988 
C 127.186674 448.848804 121.510732 446.758118 115.602916 445.695052 
C 109.6951 444.631985 103.646387 444.612908 97.731983 445.63869 
C 91.817579 446.664472 86.128562 448.719315 80.923773 451.709728 
C 75.718983 454.700141 71.078573 458.580073 67.21367 463.172995 
C 63.348767 467.765917 60.318891 473.0011 58.261894 478.640352 
C 56.204897 484.279605 55.152456 490.236085 55.152456 496.238785 
C 55.152456 502.241484 56.204897 508.197965 58.261894 513.837217 
C 60.318891 519.476469 63.348767 524.711652 67.21367 529.304574 
C 71.078573 533.897496 75.718983 537.777428 80.923773 540.767841 
C 86.128562 543.758254 91.817579 545.813098 97.731983 546.838879 
C 103.646387 547.864661 109.6951 547.845584 115.602916 546.782518 
C 121.510732 545.719451 127.186674 543.628765 132.372498 540.605582 
C 137.558322 537.582398 142.174167 533.673274 146.010023 529.056065 
C 149.845879 524.438856 152.842674 519.184667 154.86406 513.532552 
" style="fill:#808080;opacity:0.4;"/>
   </g>
   <g id="patch_30">
    <path clip-path="url(#pfd14827d63)" d="M 154.86406 478.945017 
C 156.848813 484.494702 157.863454 490.344869 157.863454 496.238785 
C 157.863454 502.1327 156.848813 507.982867 154.86406 513.532552 
C 157.18528 513.612693 159.499053 513.224678 161.667143 512.39169 
C 163.835233 511.558701 165.813587 510.297664 167.48401 508.683918 
C 169.154432 507.070173 170.482981 505.136509 171.390283 502.998451 
C 172.297586 500.860394 172.765206 498.561388 172.765206 496.238785 
C 172.765206 493.916181 172.297586 491.617175 171.390283 489.479118 
C 170.482981 487.341061 169.154432 485.407396 167.48401 483.793651 
C 165.813587 482.179905 163.835233 480.918868 161.667143 480.085879 
C 159.499053 479.252891 157.18528 478.864876 154.86406 478.945017 
" style="fill:#008000;opacity:0.4;"/>
   </g>
   <g id="patch_31">
    <path clip-path="url(#pfd14827d63)" d="M 154.86406 513.532552 
C 156.848813 507.982867 157.863454 502.1327 157.863454 496.238785 
C 157.863454 490.344869 156.848813 484.494702 154.86406 478.945017 
C 150.382359 479.09975 146.131743 480.990738 143.016001 484.215909 
C 139.900258 487.44108 138.157063 491.754414 138.157063 496.238785 
C 138.157063 500.723155 139.900258 505.036489 143.016001 508.26166 
C 146.131743 511.486831 150.382359 513.377819 154.86406 513.532552 
" style="fill:#5ab35a;opacity:0.4;"/>
   </g>
   <g id="text_46">
    <!-- 1032 -->
    <g style="fill:#262626;" transform="translate(83.929759 498.99816)scale(0.1 -0.1)">
     <use xlink:href="#DejaVuSans-31"/>
     <use x="63.623047" xlink:href="#DejaVuSans-30"/>
     <use x="127.246094" xlink:href="#DejaVuSans-33"/>
     <use x="190.869141" xlink:href="#DejaVuSans-32"/>
    </g>
   </g>
   <g id="text_47">
    <!-- 56 -->
    <g style="fill:#262626;" transform="translate(158.95183 498.99816)scale(0.1 -0.1)">
     <use xlink:href="#DejaVuSans-35"/>
     <use x="63.623047" xlink:href="#DejaVuSans-36"/>
    </g>
   </g>
   <g id="text_48">
    <!-- 69 -->
    <g style="fill:#262626;" transform="translate(141.647758 498.99816)scale(0.1 -0.1)">
     <use xlink:href="#DejaVuSans-36"/>
     <use x="63.623047" xlink:href="#DejaVuSans-39"/>
    </g>
   </g>
   <g id="text_49">
    <!-- Bioregistry -->
    <g style="fill:#262626;" transform="translate(41.60858 560.145387)scale(0.12 -0.12)">
     <use xlink:href="#DejaVuSans-42"/>
     <use x="68.603516" xlink:href="#DejaVuSans-69"/>
     <use x="96.386719" xlink:href="#DejaVuSans-6f"/>
     <use x="157.568359" xlink:href="#DejaVuSans-72"/>
     <use x="196.431641" xlink:href="#DejaVuSans-65"/>
     <use x="257.955078" xlink:href="#DejaVuSans-67"/>
     <use x="321.431641" xlink:href="#DejaVuSans-69"/>
     <use x="349.214844" xlink:href="#DejaVuSans-73"/>
     <use x="401.314453" xlink:href="#DejaVuSans-74"/>
     <use x="440.523438" xlink:href="#DejaVuSans-72"/>
     <use x="481.636719" xlink:href="#DejaVuSans-79"/>
    </g>
   </g>
   <g id="text_50">
    <!-- NCBI -->
    <g style="fill:#262626;" transform="translate(155.461134 526.093959)scale(0.12 -0.12)">
     <use xlink:href="#DejaVuSans-4e"/>
     <use x="74.804688" xlink:href="#DejaVuSans-43"/>
     <use x="144.628906" xlink:href="#DejaVuSans-42"/>
     <use x="213.232422" xlink:href="#DejaVuSans-49"/>
    </g>
   </g>
  </g>
  <g id="axes_11"/>
  <g id="axes_12"/>
  <g id="text_51">
   <!-- https://github.com/bioregistry/bioregistry (2021-04-13) -->
   <g style="fill:#808080;opacity:0.5;" transform="translate(240.830625 574.33625)scale(0.08 -0.08)">
    <defs>
     <path d="M 1159 525 
L 1159 -1331 
L 581 -1331 
L 581 3500 
L 1159 3500 
L 1159 2969 
Q 1341 3281 1617 3432 
Q 1894 3584 2278 3584 
Q 2916 3584 3314 3078 
Q 3713 2572 3713 1747 
Q 3713 922 3314 415 
Q 2916 -91 2278 -91 
Q 1894 -91 1617 61 
Q 1341 213 1159 525 
z
M 3116 1747 
Q 3116 2381 2855 2742 
Q 2594 3103 2138 3103 
Q 1681 3103 1420 2742 
Q 1159 2381 1159 1747 
Q 1159 1113 1420 752 
Q 1681 391 2138 391 
Q 2594 391 2855 752 
Q 3116 1113 3116 1747 
z
" id="DejaVuSans-70" transform="scale(0.015625)"/>
     <path d="M 750 794 
L 1409 794 
L 1409 0 
L 750 0 
L 750 794 
z
M 750 3309 
L 1409 3309 
L 1409 2516 
L 750 2516 
L 750 3309 
z
" id="DejaVuSans-3a" transform="scale(0.015625)"/>
     <path d="M 1625 4666 
L 2156 4666 
L 531 -594 
L 0 -594 
L 1625 4666 
z
" id="DejaVuSans-2f" transform="scale(0.015625)"/>
     <path d="M 3116 1747 
Q 3116 2381 2855 2742 
Q 2594 3103 2138 3103 
Q 1681 3103 1420 2742 
Q 1159 2381 1159 1747 
Q 1159 1113 1420 752 
Q 1681 391 2138 391 
Q 2594 391 2855 752 
Q 3116 1113 3116 1747 
z
M 1159 2969 
Q 1341 3281 1617 3432 
Q 1894 3584 2278 3584 
Q 2916 3584 3314 3078 
Q 3713 2572 3713 1747 
Q 3713 922 3314 415 
Q 2916 -91 2278 -91 
Q 1894 -91 1617 61 
Q 1341 213 1159 525 
L 1159 0 
L 581 0 
L 581 4863 
L 1159 4863 
L 1159 2969 
z
" id="DejaVuSans-62" transform="scale(0.015625)"/>
     <path d="M 684 794 
L 1344 794 
L 1344 0 
L 684 0 
L 684 794 
z
" id="DejaVuSans-2e" transform="scale(0.015625)"/>
     <path d="M 3122 3366 
L 3122 2828 
Q 2878 2963 2633 3030 
Q 2388 3097 2138 3097 
Q 1578 3097 1268 2742 
Q 959 2388 959 1747 
Q 959 1106 1268 751 
Q 1578 397 2138 397 
Q 2388 397 2633 464 
Q 2878 531 3122 666 
L 3122 134 
Q 2881 22 2623 -34 
Q 2366 -91 2075 -91 
Q 1284 -91 818 406 
Q 353 903 353 1747 
Q 353 2603 823 3093 
Q 1294 3584 2113 3584 
Q 2378 3584 2631 3529 
Q 2884 3475 3122 3366 
z
" id="DejaVuSans-63" transform="scale(0.015625)"/>
     <path d="M 1984 4856 
Q 1566 4138 1362 3434 
Q 1159 2731 1159 2009 
Q 1159 1288 1364 580 
Q 1569 -128 1984 -844 
L 1484 -844 
Q 1016 -109 783 600 
Q 550 1309 550 2009 
Q 550 2706 781 3412 
Q 1013 4119 1484 4856 
L 1984 4856 
z
" id="DejaVuSans-28" transform="scale(0.015625)"/>
     <path d="M 513 4856 
L 1013 4856 
Q 1481 4119 1714 3412 
Q 1947 2706 1947 2009 
Q 1947 1309 1714 600 
Q 1481 -109 1013 -844 
L 513 -844 
Q 928 -128 1133 580 
Q 1338 1288 1338 2009 
Q 1338 2731 1133 3434 
Q 928 4138 513 4856 
z
" id="DejaVuSans-29" transform="scale(0.015625)"/>
    </defs>
    <use xlink:href="#DejaVuSans-68"/>
    <use x="63.378906" xlink:href="#DejaVuSans-74"/>
    <use x="102.587891" xlink:href="#DejaVuSans-74"/>
    <use x="141.796875" xlink:href="#DejaVuSans-70"/>
    <use x="205.273438" xlink:href="#DejaVuSans-73"/>
    <use x="257.373047" xlink:href="#DejaVuSans-3a"/>
    <use x="291.064453" xlink:href="#DejaVuSans-2f"/>
    <use x="324.755859" xlink:href="#DejaVuSans-2f"/>
    <use x="358.447266" xlink:href="#DejaVuSans-67"/>
    <use x="421.923828" xlink:href="#DejaVuSans-69"/>
    <use x="449.707031" xlink:href="#DejaVuSans-74"/>
    <use x="488.916016" xlink:href="#DejaVuSans-68"/>
    <use x="552.294922" xlink:href="#DejaVuSans-75"/>
    <use x="615.673828" xlink:href="#DejaVuSans-62"/>
    <use x="679.150391" xlink:href="#DejaVuSans-2e"/>
    <use x="710.9375" xlink:href="#DejaVuSans-63"/>
    <use x="765.917969" xlink:href="#DejaVuSans-6f"/>
    <use x="827.099609" xlink:href="#DejaVuSans-6d"/>
    <use x="924.511719" xlink:href="#DejaVuSans-2f"/>
    <use x="958.203125" xlink:href="#DejaVuSans-62"/>
    <use x="1021.679688" xlink:href="#DejaVuSans-69"/>
    <use x="1049.462891" xlink:href="#DejaVuSans-6f"/>
    <use x="1110.644531" xlink:href="#DejaVuSans-72"/>
    <use x="1149.507812" xlink:href="#DejaVuSans-65"/>
    <use x="1211.03125" xlink:href="#DejaVuSans-67"/>
    <use x="1274.507812" xlink:href="#DejaVuSans-69"/>
    <use x="1302.291016" xlink:href="#DejaVuSans-73"/>
    <use x="1354.390625" xlink:href="#DejaVuSans-74"/>
    <use x="1393.599609" xlink:href="#DejaVuSans-72"/>
    <use x="1434.712891" xlink:href="#DejaVuSans-79"/>
    <use x="1493.892578" xlink:href="#DejaVuSans-2f"/>
    <use x="1527.583984" xlink:href="#DejaVuSans-62"/>
    <use x="1591.060547" xlink:href="#DejaVuSans-69"/>
    <use x="1618.84375" xlink:href="#DejaVuSans-6f"/>
    <use x="1680.025391" xlink:href="#DejaVuSans-72"/>
    <use x="1718.888672" xlink:href="#DejaVuSans-65"/>
    <use x="1780.412109" xlink:href="#DejaVuSans-67"/>
    <use x="1843.888672" xlink:href="#DejaVuSans-69"/>
    <use x="1871.671875" xlink:href="#DejaVuSans-73"/>
    <use x="1923.771484" xlink:href="#DejaVuSans-74"/>
    <use x="1962.980469" xlink:href="#DejaVuSans-72"/>
    <use x="2004.09375" xlink:href="#DejaVuSans-79"/>
    <use x="2063.273438" xlink:href="#DejaVuSans-20"/>
    <use x="2095.060547" xlink:href="#DejaVuSans-28"/>
    <use x="2134.074219" xlink:href="#DejaVuSans-32"/>
    <use x="2197.697266" xlink:href="#DejaVuSans-30"/>
    <use x="2261.320312" xlink:href="#DejaVuSans-32"/>
    <use x="2324.943359" xlink:href="#DejaVuSans-31"/>
    <use x="2388.566406" xlink:href="#DejaVuSans-2d"/>
    <use x="2424.650391" xlink:href="#DejaVuSans-30"/>
    <use x="2488.273438" xlink:href="#DejaVuSans-34"/>
    <use x="2551.896484" xlink:href="#DejaVuSans-2d"/>
    <use x="2587.980469" xlink:href="#DejaVuSans-31"/>
    <use x="2651.603516" xlink:href="#DejaVuSans-33"/>
    <use x="2715.226562" xlink:href="#DejaVuSans-29"/>
   </g>
  </g>
 </g>
 <defs>
  <clipPath id="p300425856d">
   <rect height="121.373286" width="121.382423" x="53.267619" y="10.8"/>
  </clipPath>
  <clipPath id="p771e744a7c">
   <rect height="121.373286" width="121.382423" x="276.015342" y="10.8"/>
  </clipPath>
  <clipPath id="pccdfde311e">
   <rect height="121.373286" width="121.382423" x="498.763064" y="10.8"/>
  </clipPath>
  <clipPath id="pce82ff6343">
   <rect height="121.373286" width="123.342032" x="52.287815" y="152.384047"/>
  </clipPath>
  <clipPath id="p86b5c70809">
   <rect height="121.373286" width="122.31678" x="275.548163" y="152.384047"/>
  </clipPath>
  <clipPath id="p2e88a2026d">
   <rect height="121.373286" width="143.342838" x="487.782857" y="152.384047"/>
  </clipPath>
  <clipPath id="p1dc0f44ac6">
   <rect height="121.373286" width="173.124133" x="27.396764" y="293.968094"/>
  </clipPath>
  <clipPath id="p329907b645">
   <rect height="121.373286" width="135.340142" x="269.036482" y="293.968094"/>
  </clipPath>
  <clipPath id="p68527d8635">
   <rect height="121.373286" width="135.04741" x="491.930571" y="293.968094"/>
  </clipPath>
  <clipPath id="pfd14827d63">
   <rect height="121.373286" width="136.275038" x="45.821312" y="435.552141"/>
  </clipPath>
 </defs>
</svg>
