<?xml version="1.0" encoding="utf-8" standalone="no"?>
<!DOCTYPE svg PUBLIC "-//W3C//DTD SVG 1.1//EN"
  "http://www.w3.org/Graphics/SVG/1.1/DTD/svg11.dtd">
<svg height="576pt" version="1.1" viewBox="0 0 792 576" width="792pt" xmlns="http://www.w3.org/2000/svg" xmlns:xlink="http://www.w3.org/1999/xlink">
 <metadata>
  <rdf:RDF xmlns:cc="http://creativecommons.org/ns#" xmlns:dc="http://purl.org/dc/elements/1.1/" xmlns:rdf="http://www.w3.org/1999/02/22-rdf-syntax-ns#">
   <cc:Work>
    <dc:type rdf:resource="http://purl.org/dc/dcmitype/StillImage"/>
    <dc:date>2021-08-03T00:53:24.106438</dc:date>
    <dc:format>image/svg+xml</dc:format>
    <dc:creator>
     <cc:Agent>
      <dc:title>Matplotlib v3.4.2, https://matplotlib.org/</dc:title>
     </cc:Agent>
    </dc:creator>
   </cc:Work>
  </rdf:RDF>
 </metadata>
 <defs>
  <style type="text/css">*{stroke-linecap:butt;stroke-linejoin:round;}</style>
 </defs>
 <g id="figure_1">
  <g id="patch_1">
   <path d="M 0 576 
L 792 576 
L 792 0 
L 0 0 
z
" style="fill:#ffffff;"/>
  </g>
  <g id="axes_1">
   <g id="matplotlib.axis_1"/>
   <g id="matplotlib.axis_2"/>
   <g id="patch_2">
    <path d="M 135.419144 62.646352 
C 132.609776 57.780385 128.928217 53.473098 124.558994 49.940383 
C 120.189771 46.407669 115.207124 43.709553 109.860795 41.981271 
C 104.514467 40.252989 98.8953 39.523908 93.28494 39.83057 
C 87.67458 40.137233 82.168355 41.474429 77.042252 43.775135 
C 71.916148 46.07584 67.257266 49.300963 63.29912 53.288852 
C 59.340974 57.276742 56.150818 61.959637 53.888551 67.10282 
C 51.626285 72.246003 50.330346 77.762084 50.065692 83.374582 
C 49.801038 88.987081 50.572164 94.600633 52.340421 99.933873 
C 54.108677 105.267113 56.844019 110.229422 60.409343 114.572077 
C 63.974667 118.914731 68.309394 122.563943 73.196256 125.336804 
C 78.083118 128.109666 83.43908 129.959062 88.995689 130.792297 
C 94.552298 131.625532 100.215138 131.428448 105.700374 130.210923 
C 111.18561 128.993397 116.40004 126.776119 121.082303 123.670222 
C 125.764566 120.564325 129.835104 116.622584 133.089892 112.042569 
C 136.34468 107.462554 138.728413 102.322085 140.121614 96.878817 
C 141.514815 91.435548 141.89381 85.781968 141.239605 80.201449 
L 95.782893 85.530352 
L 135.419144 62.646352 
z
" style="fill:#1f77b4;stroke:#ffffff;stroke-linejoin:miter;"/>
   </g>
   <g id="patch_3">
    <path d="M 145.583852 78.761097 
C 145.222151 75.675711 144.547256 72.635151 143.569614 69.686482 
C 142.591971 66.737813 141.316651 63.896327 139.763394 61.206006 
L 100.12714 84.09 
L 145.583852 78.761097 
z
" style="fill:#ff7f0e;stroke:#ffffff;stroke-linejoin:miter;"/>
   </g>
   <g id="text_1">
    <!-- Yes -->
    <g style="fill:#262626;" transform="translate(31.850861 104.1336)scale(0.1 -0.1)">
     <defs>
      <path d="M -13 4666 
L 666 4666 
L 1959 2747 
L 3244 4666 
L 3922 4666 
L 2272 2222 
L 2272 0 
L 1638 0 
L 1638 2222 
L -13 4666 
z
" id="DejaVuSans-59" transform="scale(0.015625)"/>
      <path d="M 3597 1894 
L 3597 1613 
L 953 1613 
Q 991 1019 1311 708 
Q 1631 397 2203 397 
Q 2534 397 2845 478 
Q 3156 559 3463 722 
L 3463 178 
Q 3153 47 2828 -22 
Q 2503 -91 2169 -91 
Q 1331 -91 842 396 
Q 353 884 353 1716 
Q 353 2575 817 3079 
Q 1281 3584 2069 3584 
Q 2775 3584 3186 3129 
Q 3597 2675 3597 1894 
z
M 3022 2063 
Q 3016 2534 2758 2815 
Q 2500 3097 2075 3097 
Q 1594 3097 1305 2825 
Q 1016 2553 972 2059 
L 3022 2063 
z
" id="DejaVuSans-65" transform="scale(0.015625)"/>
      <path d="M 2834 3397 
L 2834 2853 
Q 2591 2978 2328 3040 
Q 2066 3103 1784 3103 
Q 1356 3103 1142 2972 
Q 928 2841 928 2578 
Q 928 2378 1081 2264 
Q 1234 2150 1697 2047 
L 1894 2003 
Q 2506 1872 2764 1633 
Q 3022 1394 3022 966 
Q 3022 478 2636 193 
Q 2250 -91 1575 -91 
Q 1294 -91 989 -36 
Q 684 19 347 128 
L 347 722 
Q 666 556 975 473 
Q 1284 391 1588 391 
Q 1994 391 2212 530 
Q 2431 669 2431 922 
Q 2431 1156 2273 1281 
Q 2116 1406 1581 1522 
L 1381 1569 
Q 847 1681 609 1914 
Q 372 2147 372 2553 
Q 372 3047 722 3315 
Q 1072 3584 1716 3584 
Q 2034 3584 2315 3537 
Q 2597 3491 2834 3397 
z
" id="DejaVuSans-73" transform="scale(0.015625)"/>
     </defs>
     <use xlink:href="#DejaVuSans-59"/>
     <use x="47.833984" xlink:href="#DejaVuSans-65"/>
     <use x="109.357422" xlink:href="#DejaVuSans-73"/>
    </g>
   </g>
   <g id="text_2">
    <!-- 94% -->
    <g style="fill:#262626;" transform="translate(58.604128 96.93184)scale(0.1 -0.1)">
     <defs>
      <path d="M 703 97 
L 703 672 
Q 941 559 1184 500 
Q 1428 441 1663 441 
Q 2288 441 2617 861 
Q 2947 1281 2994 2138 
Q 2813 1869 2534 1725 
Q 2256 1581 1919 1581 
Q 1219 1581 811 2004 
Q 403 2428 403 3163 
Q 403 3881 828 4315 
Q 1253 4750 1959 4750 
Q 2769 4750 3195 4129 
Q 3622 3509 3622 2328 
Q 3622 1225 3098 567 
Q 2575 -91 1691 -91 
Q 1453 -91 1209 -44 
Q 966 3 703 97 
z
M 1959 2075 
Q 2384 2075 2632 2365 
Q 2881 2656 2881 3163 
Q 2881 3666 2632 3958 
Q 2384 4250 1959 4250 
Q 1534 4250 1286 3958 
Q 1038 3666 1038 3163 
Q 1038 2656 1286 2365 
Q 1534 2075 1959 2075 
z
" id="DejaVuSans-39" transform="scale(0.015625)"/>
      <path d="M 2419 4116 
L 825 1625 
L 2419 1625 
L 2419 4116 
z
M 2253 4666 
L 3047 4666 
L 3047 1625 
L 3713 1625 
L 3713 1100 
L 3047 1100 
L 3047 0 
L 2419 0 
L 2419 1100 
L 313 1100 
L 313 1709 
L 2253 4666 
z
" id="DejaVuSans-34" transform="scale(0.015625)"/>
      <path d="M 4653 2053 
Q 4381 2053 4226 1822 
Q 4072 1591 4072 1178 
Q 4072 772 4226 539 
Q 4381 306 4653 306 
Q 4919 306 5073 539 
Q 5228 772 5228 1178 
Q 5228 1588 5073 1820 
Q 4919 2053 4653 2053 
z
M 4653 2450 
Q 5147 2450 5437 2106 
Q 5728 1763 5728 1178 
Q 5728 594 5436 251 
Q 5144 -91 4653 -91 
Q 4153 -91 3862 251 
Q 3572 594 3572 1178 
Q 3572 1766 3864 2108 
Q 4156 2450 4653 2450 
z
M 1428 4353 
Q 1159 4353 1004 4120 
Q 850 3888 850 3481 
Q 850 3069 1003 2837 
Q 1156 2606 1428 2606 
Q 1700 2606 1854 2837 
Q 2009 3069 2009 3481 
Q 2009 3884 1853 4118 
Q 1697 4353 1428 4353 
z
M 4250 4750 
L 4750 4750 
L 1831 -91 
L 1331 -91 
L 4250 4750 
z
M 1428 4750 
Q 1922 4750 2215 4408 
Q 2509 4066 2509 3481 
Q 2509 2891 2217 2550 
Q 1925 2209 1428 2209 
Q 931 2209 642 2551 
Q 353 2894 353 3481 
Q 353 4063 643 4406 
Q 934 4750 1428 4750 
z
" id="DejaVuSans-25" transform="scale(0.015625)"/>
     </defs>
     <use xlink:href="#DejaVuSans-39"/>
     <use x="63.623047" xlink:href="#DejaVuSans-34"/>
     <use x="127.246094" xlink:href="#DejaVuSans-25"/>
    </g>
   </g>
   <g id="text_3">
    <!-- No -->
    <g style="fill:#262626;" transform="translate(147.913861 71.005505)scale(0.1 -0.1)">
     <defs>
      <path d="M 628 4666 
L 1478 4666 
L 3547 763 
L 3547 4666 
L 4159 4666 
L 4159 0 
L 3309 0 
L 1241 3903 
L 1241 0 
L 628 0 
L 628 4666 
z
" id="DejaVuSans-4e" transform="scale(0.015625)"/>
      <path d="M 1959 3097 
Q 1497 3097 1228 2736 
Q 959 2375 959 1747 
Q 959 1119 1226 758 
Q 1494 397 1959 397 
Q 2419 397 2687 759 
Q 2956 1122 2956 1747 
Q 2956 2369 2687 2733 
Q 2419 3097 1959 3097 
z
M 1959 3584 
Q 2709 3584 3137 3096 
Q 3566 2609 3566 1747 
Q 3566 888 3137 398 
Q 2709 -91 1959 -91 
Q 1206 -91 779 398 
Q 353 888 353 1747 
Q 353 2609 779 3096 
Q 1206 3584 1959 3584 
z
" id="DejaVuSans-6f" transform="scale(0.015625)"/>
     </defs>
     <use xlink:href="#DejaVuSans-4e"/>
     <use x="74.804688" xlink:href="#DejaVuSans-6f"/>
    </g>
   </g>
   <g id="text_4">
    <!-- 6% -->
    <g style="fill:#262626;" transform="translate(118.260593 78.207264)scale(0.1 -0.1)">
     <defs>
      <path d="M 2113 2584 
Q 1688 2584 1439 2293 
Q 1191 2003 1191 1497 
Q 1191 994 1439 701 
Q 1688 409 2113 409 
Q 2538 409 2786 701 
Q 3034 994 3034 1497 
Q 3034 2003 2786 2293 
Q 2538 2584 2113 2584 
z
M 3366 4563 
L 3366 3988 
Q 3128 4100 2886 4159 
Q 2644 4219 2406 4219 
Q 1781 4219 1451 3797 
Q 1122 3375 1075 2522 
Q 1259 2794 1537 2939 
Q 1816 3084 2150 3084 
Q 2853 3084 3261 2657 
Q 3669 2231 3669 1497 
Q 3669 778 3244 343 
Q 2819 -91 2113 -91 
Q 1303 -91 875 529 
Q 447 1150 447 2328 
Q 447 3434 972 4092 
Q 1497 4750 2381 4750 
Q 2619 4750 2861 4703 
Q 3103 4656 3366 4563 
z
" id="DejaVuSans-36" transform="scale(0.015625)"/>
     </defs>
     <use xlink:href="#DejaVuSans-36"/>
     <use x="63.623047" xlink:href="#DejaVuSans-25"/>
    </g>
   </g>
   <g id="text_5">
    <!-- Name -->
    <g style="fill:#262626;" transform="translate(82.425265 20.88)scale(0.12 -0.12)">
     <defs>
      <path d="M 2194 1759 
Q 1497 1759 1228 1600 
Q 959 1441 959 1056 
Q 959 750 1161 570 
Q 1363 391 1709 391 
Q 2188 391 2477 730 
Q 2766 1069 2766 1631 
L 2766 1759 
L 2194 1759 
z
M 3341 1997 
L 3341 0 
L 2766 0 
L 2766 531 
Q 2569 213 2275 61 
Q 1981 -91 1556 -91 
Q 1019 -91 701 211 
Q 384 513 384 1019 
Q 384 1609 779 1909 
Q 1175 2209 1959 2209 
L 2766 2209 
L 2766 2266 
Q 2766 2663 2505 2880 
Q 2244 3097 1772 3097 
Q 1472 3097 1187 3025 
Q 903 2953 641 2809 
L 641 3341 
Q 956 3463 1253 3523 
Q 1550 3584 1831 3584 
Q 2591 3584 2966 3190 
Q 3341 2797 3341 1997 
z
" id="DejaVuSans-61" transform="scale(0.015625)"/>
      <path d="M 3328 2828 
Q 3544 3216 3844 3400 
Q 4144 3584 4550 3584 
Q 5097 3584 5394 3201 
Q 5691 2819 5691 2113 
L 5691 0 
L 5113 0 
L 5113 2094 
Q 5113 2597 4934 2840 
Q 4756 3084 4391 3084 
Q 3944 3084 3684 2787 
Q 3425 2491 3425 1978 
L 3425 0 
L 2847 0 
L 2847 2094 
Q 2847 2600 2669 2842 
Q 2491 3084 2119 3084 
Q 1678 3084 1418 2786 
Q 1159 2488 1159 1978 
L 1159 0 
L 581 0 
L 581 3500 
L 1159 3500 
L 1159 2956 
Q 1356 3278 1631 3431 
Q 1906 3584 2284 3584 
Q 2666 3584 2933 3390 
Q 3200 3197 3328 2828 
z
" id="DejaVuSans-6d" transform="scale(0.015625)"/>
     </defs>
     <use xlink:href="#DejaVuSans-4e"/>
     <use x="74.804688" xlink:href="#DejaVuSans-61"/>
     <use x="136.083984" xlink:href="#DejaVuSans-6d"/>
     <use x="233.496094" xlink:href="#DejaVuSans-65"/>
    </g>
   </g>
  </g>
  <g id="axes_2">
   <g id="matplotlib.axis_3"/>
   <g id="matplotlib.axis_4"/>
   <g id="patch_4">
    <path d="M 324.873425 62.646352 
C 322.064057 57.780385 318.382497 53.473098 314.013274 49.940383 
C 309.644051 46.407669 304.661404 43.709553 299.315076 41.981271 
C 293.968748 40.252989 288.349581 39.523908 282.739221 39.83057 
C 277.128861 40.137233 271.622636 41.474429 266.496533 43.775135 
C 261.370429 46.07584 256.711547 49.300963 252.753401 53.288852 
C 248.795254 57.276742 245.605099 61.959637 243.342832 67.10282 
C 241.080565 72.246003 239.784627 77.762084 239.519973 83.374582 
C 239.255318 88.987081 240.026445 94.600633 241.794701 99.933873 
C 243.562958 105.267113 246.298299 110.229422 249.863623 114.572077 
C 253.428947 118.914731 257.763674 122.563943 262.650536 125.336804 
C 267.537398 128.109666 272.893361 129.959062 278.44997 130.792297 
C 284.006579 131.625532 289.669419 131.428448 295.154655 130.210923 
C 300.639891 128.993397 305.854321 126.776119 310.536584 123.670222 
C 315.218847 120.564325 319.289385 116.622584 322.544173 112.042569 
C 325.79896 107.462554 328.182694 102.322085 329.575895 96.878817 
C 330.969096 91.435548 331.348091 85.781968 330.693885 80.201449 
L 285.237174 85.530352 
L 324.873425 62.646352 
z
" style="fill:#1f77b4;stroke:#ffffff;stroke-linejoin:miter;"/>
   </g>
   <g id="patch_5">
    <path d="M 335.038133 78.761097 
C 334.676432 75.675711 334.001537 72.635151 333.023894 69.686482 
C 332.046252 66.737813 330.770932 63.896327 329.217675 61.206006 
L 289.581421 84.09 
L 335.038133 78.761097 
z
" style="fill:#ff7f0e;stroke:#ffffff;stroke-linejoin:miter;"/>
   </g>
   <g id="text_6">
    <!-- Yes -->
    <g style="fill:#262626;" transform="translate(221.305142 104.1336)scale(0.1 -0.1)">
     <use xlink:href="#DejaVuSans-59"/>
     <use x="47.833984" xlink:href="#DejaVuSans-65"/>
     <use x="109.357422" xlink:href="#DejaVuSans-73"/>
    </g>
   </g>
   <g id="text_7">
    <!-- 94% -->
    <g style="fill:#262626;" transform="translate(248.058409 96.93184)scale(0.1 -0.1)">
     <use xlink:href="#DejaVuSans-39"/>
     <use x="63.623047" xlink:href="#DejaVuSans-34"/>
     <use x="127.246094" xlink:href="#DejaVuSans-25"/>
    </g>
   </g>
   <g id="text_8">
    <!-- No -->
    <g style="fill:#262626;" transform="translate(337.368142 71.005505)scale(0.1 -0.1)">
     <use xlink:href="#DejaVuSans-4e"/>
     <use x="74.804688" xlink:href="#DejaVuSans-6f"/>
    </g>
   </g>
   <g id="text_9">
    <!-- 6% -->
    <g style="fill:#262626;" transform="translate(307.714874 78.207264)scale(0.1 -0.1)">
     <use xlink:href="#DejaVuSans-36"/>
     <use x="63.623047" xlink:href="#DejaVuSans-25"/>
    </g>
   </g>
   <g id="text_10">
    <!-- Homepage -->
    <g style="fill:#262626;" transform="translate(256.874859 20.88)scale(0.12 -0.12)">
     <defs>
      <path d="M 628 4666 
L 1259 4666 
L 1259 2753 
L 3553 2753 
L 3553 4666 
L 4184 4666 
L 4184 0 
L 3553 0 
L 3553 2222 
L 1259 2222 
L 1259 0 
L 628 0 
L 628 4666 
z
" id="DejaVuSans-48" transform="scale(0.015625)"/>
      <path d="M 1159 525 
L 1159 -1331 
L 581 -1331 
L 581 3500 
L 1159 3500 
L 1159 2969 
Q 1341 3281 1617 3432 
Q 1894 3584 2278 3584 
Q 2916 3584 3314 3078 
Q 3713 2572 3713 1747 
Q 3713 922 3314 415 
Q 2916 -91 2278 -91 
Q 1894 -91 1617 61 
Q 1341 213 1159 525 
z
M 3116 1747 
Q 3116 2381 2855 2742 
Q 2594 3103 2138 3103 
Q 1681 3103 1420 2742 
Q 1159 2381 1159 1747 
Q 1159 1113 1420 752 
Q 1681 391 2138 391 
Q 2594 391 2855 752 
Q 3116 1113 3116 1747 
z
" id="DejaVuSans-70" transform="scale(0.015625)"/>
      <path d="M 2906 1791 
Q 2906 2416 2648 2759 
Q 2391 3103 1925 3103 
Q 1463 3103 1205 2759 
Q 947 2416 947 1791 
Q 947 1169 1205 825 
Q 1463 481 1925 481 
Q 2391 481 2648 825 
Q 2906 1169 2906 1791 
z
M 3481 434 
Q 3481 -459 3084 -895 
Q 2688 -1331 1869 -1331 
Q 1566 -1331 1297 -1286 
Q 1028 -1241 775 -1147 
L 775 -588 
Q 1028 -725 1275 -790 
Q 1522 -856 1778 -856 
Q 2344 -856 2625 -561 
Q 2906 -266 2906 331 
L 2906 616 
Q 2728 306 2450 153 
Q 2172 0 1784 0 
Q 1141 0 747 490 
Q 353 981 353 1791 
Q 353 2603 747 3093 
Q 1141 3584 1784 3584 
Q 2172 3584 2450 3431 
Q 2728 3278 2906 2969 
L 2906 3500 
L 3481 3500 
L 3481 434 
z
" id="DejaVuSans-67" transform="scale(0.015625)"/>
     </defs>
     <use xlink:href="#DejaVuSans-48"/>
     <use x="75.195312" xlink:href="#DejaVuSans-6f"/>
     <use x="136.376953" xlink:href="#DejaVuSans-6d"/>
     <use x="233.789062" xlink:href="#DejaVuSans-65"/>
     <use x="295.3125" xlink:href="#DejaVuSans-70"/>
     <use x="358.789062" xlink:href="#DejaVuSans-61"/>
     <use x="420.068359" xlink:href="#DejaVuSans-67"/>
     <use x="483.544922" xlink:href="#DejaVuSans-65"/>
    </g>
   </g>
  </g>
  <g id="axes_3">
   <g id="matplotlib.axis_5"/>
   <g id="matplotlib.axis_6"/>
   <g id="patch_6">
    <path d="M 514.110662 61.582469 
C 511.529789 57.112266 508.211186 53.110712 504.295553 49.747463 
C 500.37992 46.384215 495.923388 43.707484 491.114903 41.830758 
C 486.306419 39.954032 481.214912 38.904214 476.056249 38.725813 
C 470.897587 38.547412 465.74572 39.242986 460.819073 40.783045 
C 455.892427 42.323103 451.261626 44.685569 447.123005 47.770279 
C 442.984383 50.854989 439.39727 54.617724 436.513748 58.898954 
C 433.630226 63.180183 431.491632 67.918535 430.188637 72.913115 
C 428.885642 77.907695 428.436924 83.086904 428.861508 88.231159 
C 429.286093 93.375413 430.577892 98.410968 432.682138 103.124329 
C 434.786385 107.83769 437.672913 112.16129 441.219341 115.91182 
C 444.765769 119.662349 448.921258 122.786044 453.509627 125.150466 
C 458.097996 127.514889 463.053469 129.086145 468.165947 129.797618 
C 473.278425 130.509091 478.47462 130.350581 483.534225 129.32881 
C 488.59383 128.307038 493.444316 126.436651 497.880034 123.796949 
C 502.315753 121.157247 506.273117 117.78607 509.584344 113.826348 
C 512.895571 109.866626 515.513194 105.375122 517.326233 100.542264 
L 474.474411 84.466469 
L 514.110662 61.582469 
z
" style="fill:#1f77b4;stroke:#ffffff;stroke-linejoin:miter;"/>
   </g>
   <g id="patch_7">
    <path d="M 521.887524 100.165795 
C 524.261553 93.837556 525.204564 87.061301 524.648605 80.325312 
C 524.092646 73.589324 522.0514 67.059377 518.671955 61.206004 
L 479.035702 84.09 
L 521.887524 100.165795 
z
" style="fill:#ff7f0e;stroke:#ffffff;stroke-linejoin:miter;"/>
   </g>
   <g id="text_11">
    <!-- Yes -->
    <g style="fill:#262626;" transform="translate(408.154905 91.367003)scale(0.1 -0.1)">
     <use xlink:href="#DejaVuSans-59"/>
     <use x="47.833984" xlink:href="#DejaVuSans-65"/>
     <use x="109.357422" xlink:href="#DejaVuSans-73"/>
    </g>
   </g>
   <g id="text_12">
    <!-- 86% -->
    <g style="fill:#262626;" transform="translate(435.993388 89.484658)scale(0.1 -0.1)">
     <defs>
      <path d="M 2034 2216 
Q 1584 2216 1326 1975 
Q 1069 1734 1069 1313 
Q 1069 891 1326 650 
Q 1584 409 2034 409 
Q 2484 409 2743 651 
Q 3003 894 3003 1313 
Q 3003 1734 2745 1975 
Q 2488 2216 2034 2216 
z
M 1403 2484 
Q 997 2584 770 2862 
Q 544 3141 544 3541 
Q 544 4100 942 4425 
Q 1341 4750 2034 4750 
Q 2731 4750 3128 4425 
Q 3525 4100 3525 3541 
Q 3525 3141 3298 2862 
Q 3072 2584 2669 2484 
Q 3125 2378 3379 2068 
Q 3634 1759 3634 1313 
Q 3634 634 3220 271 
Q 2806 -91 2034 -91 
Q 1263 -91 848 271 
Q 434 634 434 1313 
Q 434 1759 690 2068 
Q 947 2378 1403 2484 
z
M 1172 3481 
Q 1172 3119 1398 2916 
Q 1625 2713 2034 2713 
Q 2441 2713 2670 2916 
Q 2900 3119 2900 3481 
Q 2900 3844 2670 4047 
Q 2441 4250 2034 4250 
Q 1625 4250 1398 4047 
Q 1172 3844 1172 3481 
z
" id="DejaVuSans-38" transform="scale(0.015625)"/>
     </defs>
     <use xlink:href="#DejaVuSans-38"/>
     <use x="63.623047" xlink:href="#DejaVuSans-36"/>
     <use x="127.246094" xlink:href="#DejaVuSans-25"/>
    </g>
   </g>
   <g id="text_13">
    <!-- No -->
    <g style="fill:#262626;" transform="translate(529.209895 82.708219)scale(0.1 -0.1)">
     <use xlink:href="#DejaVuSans-4e"/>
     <use x="74.804688" xlink:href="#DejaVuSans-6f"/>
    </g>
   </g>
   <g id="text_14">
    <!-- 14% -->
    <g style="fill:#262626;" transform="translate(495.290163 84.590562)scale(0.1 -0.1)">
     <defs>
      <path d="M 794 531 
L 1825 531 
L 1825 4091 
L 703 3866 
L 703 4441 
L 1819 4666 
L 2450 4666 
L 2450 531 
L 3481 531 
L 3481 0 
L 794 0 
L 794 531 
z
" id="DejaVuSans-31" transform="scale(0.015625)"/>
     </defs>
     <use xlink:href="#DejaVuSans-31"/>
     <use x="63.623047" xlink:href="#DejaVuSans-34"/>
     <use x="127.246094" xlink:href="#DejaVuSans-25"/>
    </g>
   </g>
   <g id="text_15">
    <!-- Description -->
    <g style="fill:#262626;" transform="translate(444.863827 20.88)scale(0.12 -0.12)">
     <defs>
      <path d="M 1259 4147 
L 1259 519 
L 2022 519 
Q 2988 519 3436 956 
Q 3884 1394 3884 2338 
Q 3884 3275 3436 3711 
Q 2988 4147 2022 4147 
L 1259 4147 
z
M 628 4666 
L 1925 4666 
Q 3281 4666 3915 4102 
Q 4550 3538 4550 2338 
Q 4550 1131 3912 565 
Q 3275 0 1925 0 
L 628 0 
L 628 4666 
z
" id="DejaVuSans-44" transform="scale(0.015625)"/>
      <path d="M 3122 3366 
L 3122 2828 
Q 2878 2963 2633 3030 
Q 2388 3097 2138 3097 
Q 1578 3097 1268 2742 
Q 959 2388 959 1747 
Q 959 1106 1268 751 
Q 1578 397 2138 397 
Q 2388 397 2633 464 
Q 2878 531 3122 666 
L 3122 134 
Q 2881 22 2623 -34 
Q 2366 -91 2075 -91 
Q 1284 -91 818 406 
Q 353 903 353 1747 
Q 353 2603 823 3093 
Q 1294 3584 2113 3584 
Q 2378 3584 2631 3529 
Q 2884 3475 3122 3366 
z
" id="DejaVuSans-63" transform="scale(0.015625)"/>
      <path d="M 2631 2963 
Q 2534 3019 2420 3045 
Q 2306 3072 2169 3072 
Q 1681 3072 1420 2755 
Q 1159 2438 1159 1844 
L 1159 0 
L 581 0 
L 581 3500 
L 1159 3500 
L 1159 2956 
Q 1341 3275 1631 3429 
Q 1922 3584 2338 3584 
Q 2397 3584 2469 3576 
Q 2541 3569 2628 3553 
L 2631 2963 
z
" id="DejaVuSans-72" transform="scale(0.015625)"/>
      <path d="M 603 3500 
L 1178 3500 
L 1178 0 
L 603 0 
L 603 3500 
z
M 603 4863 
L 1178 4863 
L 1178 4134 
L 603 4134 
L 603 4863 
z
" id="DejaVuSans-69" transform="scale(0.015625)"/>
      <path d="M 1172 4494 
L 1172 3500 
L 2356 3500 
L 2356 3053 
L 1172 3053 
L 1172 1153 
Q 1172 725 1289 603 
Q 1406 481 1766 481 
L 2356 481 
L 2356 0 
L 1766 0 
Q 1100 0 847 248 
Q 594 497 594 1153 
L 594 3053 
L 172 3053 
L 172 3500 
L 594 3500 
L 594 4494 
L 1172 4494 
z
" id="DejaVuSans-74" transform="scale(0.015625)"/>
      <path d="M 3513 2113 
L 3513 0 
L 2938 0 
L 2938 2094 
Q 2938 2591 2744 2837 
Q 2550 3084 2163 3084 
Q 1697 3084 1428 2787 
Q 1159 2491 1159 1978 
L 1159 0 
L 581 0 
L 581 3500 
L 1159 3500 
L 1159 2956 
Q 1366 3272 1645 3428 
Q 1925 3584 2291 3584 
Q 2894 3584 3203 3211 
Q 3513 2838 3513 2113 
z
" id="DejaVuSans-6e" transform="scale(0.015625)"/>
     </defs>
     <use xlink:href="#DejaVuSans-44"/>
     <use x="77.001953" xlink:href="#DejaVuSans-65"/>
     <use x="138.525391" xlink:href="#DejaVuSans-73"/>
     <use x="190.625" xlink:href="#DejaVuSans-63"/>
     <use x="245.605469" xlink:href="#DejaVuSans-72"/>
     <use x="286.71875" xlink:href="#DejaVuSans-69"/>
     <use x="314.501953" xlink:href="#DejaVuSans-70"/>
     <use x="377.978516" xlink:href="#DejaVuSans-74"/>
     <use x="417.1875" xlink:href="#DejaVuSans-69"/>
     <use x="444.970703" xlink:href="#DejaVuSans-6f"/>
     <use x="506.152344" xlink:href="#DejaVuSans-6e"/>
    </g>
   </g>
  </g>
  <g id="axes_4">
   <g id="matplotlib.axis_7"/>
   <g id="matplotlib.axis_8"/>
   <g id="patch_8">
    <path d="M 703.708793 62.403212 
C 700.952767 57.629636 697.356917 53.392967 693.094793 49.897684 
C 688.832669 46.4024 683.97396 43.705653 678.753166 41.937598 
C 673.532372 40.169542 668.034858 39.359088 662.525955 39.545351 
C 657.017051 39.731614 651.586834 40.911548 646.497387 43.028204 
C 641.40794 45.144861 636.74248 48.163632 632.726179 51.938819 
C 628.709878 55.714006 625.408407 60.183882 622.981108 65.132713 
C 620.553808 70.081544 619.040369 75.428412 618.513834 80.915257 
C 617.9873 86.402103 618.456279 91.93921 619.898137 97.259337 
C 621.339995 102.579464 623.731157 107.595623 626.956215 112.065713 
C 630.181273 116.535804 634.187496 120.386736 638.781527 123.43265 
C 643.375558 126.478563 648.48228 128.669654 653.855225 129.900173 
C 659.22817 131.130692 664.779483 131.380517 670.241239 130.637593 
C 675.702994 129.894668 680.985886 128.171141 685.834943 125.550194 
C 690.684 122.929248 695.019934 119.453738 698.633477 115.291405 
C 702.247021 111.129072 705.079088 106.347975 706.992993 101.178867 
C 708.906899 96.009759 709.871347 90.53716 709.839792 85.025199 
L 664.072542 85.287212 
L 703.708793 62.403212 
z
" style="fill:#1f77b4;stroke:#ffffff;stroke-linejoin:miter;"/>
   </g>
   <g id="patch_9">
    <path d="M 714.257233 83.827987 
C 714.234586 79.872199 713.699171 75.935988 712.664387 72.117874 
C 711.629604 68.299761 710.104159 64.631867 708.126232 61.205998 
L 668.489983 84.09 
L 714.257233 83.827987 
z
" style="fill:#ff7f0e;stroke:#ffffff;stroke-linejoin:miter;"/>
   </g>
   <g id="text_16">
    <!-- Yes -->
    <g style="fill:#262626;" transform="translate(599.335384 101.215925)scale(0.1 -0.1)">
     <use xlink:href="#DejaVuSans-59"/>
     <use x="47.833984" xlink:href="#DejaVuSans-65"/>
     <use x="109.357422" xlink:href="#DejaVuSans-73"/>
    </g>
   </g>
   <g id="text_17">
    <!-- 92% -->
    <g style="fill:#262626;" transform="translate(626.454618 95.229862)scale(0.1 -0.1)">
     <defs>
      <path d="M 1228 531 
L 3431 531 
L 3431 0 
L 469 0 
L 469 531 
Q 828 903 1448 1529 
Q 2069 2156 2228 2338 
Q 2531 2678 2651 2914 
Q 2772 3150 2772 3378 
Q 2772 3750 2511 3984 
Q 2250 4219 1831 4219 
Q 1534 4219 1204 4116 
Q 875 4013 500 3803 
L 500 4441 
Q 881 4594 1212 4672 
Q 1544 4750 1819 4750 
Q 2544 4750 2975 4387 
Q 3406 4025 3406 3419 
Q 3406 3131 3298 2873 
Q 3191 2616 2906 2266 
Q 2828 2175 2409 1742 
Q 1991 1309 1228 531 
z
" id="DejaVuSans-32" transform="scale(0.015625)"/>
     </defs>
     <use xlink:href="#DejaVuSans-39"/>
     <use x="63.623047" xlink:href="#DejaVuSans-32"/>
     <use x="127.246094" xlink:href="#DejaVuSans-25"/>
    </g>
   </g>
   <g id="text_18">
    <!-- No -->
    <g style="fill:#262626;" transform="translate(717.081828 73.680037)scale(0.1 -0.1)">
     <use xlink:href="#DejaVuSans-4e"/>
     <use x="74.804688" xlink:href="#DejaVuSans-6f"/>
    </g>
   </g>
   <g id="text_19">
    <!-- 8% -->
    <g style="fill:#262626;" transform="translate(687.062594 79.6661)scale(0.1 -0.1)">
     <use xlink:href="#DejaVuSans-38"/>
     <use x="63.623047" xlink:href="#DejaVuSans-25"/>
    </g>
   </g>
   <g id="text_20">
    <!-- Example -->
    <g style="fill:#262626;" transform="translate(642.45842 20.88)scale(0.12 -0.12)">
     <defs>
      <path d="M 628 4666 
L 3578 4666 
L 3578 4134 
L 1259 4134 
L 1259 2753 
L 3481 2753 
L 3481 2222 
L 1259 2222 
L 1259 531 
L 3634 531 
L 3634 0 
L 628 0 
L 628 4666 
z
" id="DejaVuSans-45" transform="scale(0.015625)"/>
      <path d="M 3513 3500 
L 2247 1797 
L 3578 0 
L 2900 0 
L 1881 1375 
L 863 0 
L 184 0 
L 1544 1831 
L 300 3500 
L 978 3500 
L 1906 2253 
L 2834 3500 
L 3513 3500 
z
" id="DejaVuSans-78" transform="scale(0.015625)"/>
      <path d="M 603 4863 
L 1178 4863 
L 1178 0 
L 603 0 
L 603 4863 
z
" id="DejaVuSans-6c" transform="scale(0.015625)"/>
     </defs>
     <use xlink:href="#DejaVuSans-45"/>
     <use x="63.183594" xlink:href="#DejaVuSans-78"/>
     <use x="122.363281" xlink:href="#DejaVuSans-61"/>
     <use x="183.642578" xlink:href="#DejaVuSans-6d"/>
     <use x="281.054688" xlink:href="#DejaVuSans-70"/>
     <use x="344.53125" xlink:href="#DejaVuSans-6c"/>
     <use x="372.314453" xlink:href="#DejaVuSans-65"/>
    </g>
   </g>
  </g>
  <g id="axes_5">
   <g id="matplotlib.axis_9"/>
   <g id="matplotlib.axis_10"/>
   <g id="patch_10">
    <path d="M 135.57884 200.652184 
C 131.355309 193.336813 125.187879 187.331546 117.762592 183.304389 
C 110.337306 179.277232 101.940088 177.383256 93.505014 177.833142 
C 85.06994 178.283027 76.921817 181.05945 69.967015 185.853571 
C 63.012212 190.647691 57.518536 197.274904 54.097084 204.998021 
C 50.675632 212.721138 49.458152 221.242768 50.580073 229.614993 
C 51.701994 237.987219 55.120115 245.887654 60.454215 252.437482 
C 65.788315 258.98731 72.832996 263.934319 80.804632 266.728221 
C 88.776268 269.522122 97.367898 270.055332 105.62382 268.268539 
L 95.94259 223.536184 
L 135.57884 200.652184 
z
" style="fill:#1f77b4;stroke:#ffffff;stroke-linejoin:miter;"/>
   </g>
   <g id="patch_11">
    <path d="M 109.80837 270.122355 
C 116.853279 268.597656 123.439365 265.430048 129.028437 260.878376 
C 134.617509 256.326705 139.053064 250.518424 141.972644 243.928167 
C 144.892224 237.337909 146.214076 230.150212 145.830183 222.95243 
C 145.446289 215.754648 143.3674 208.74833 139.763395 202.506007 
L 100.12714 225.39 
L 109.80837 270.122355 
z
" style="fill:#ff7f0e;stroke:#ffffff;stroke-linejoin:miter;"/>
   </g>
   <g id="text_21">
    <!-- Yes -->
    <g style="fill:#262626;" transform="translate(33.767221 205.90358)scale(0.1 -0.1)">
     <use xlink:href="#DejaVuSans-59"/>
     <use x="47.833984" xlink:href="#DejaVuSans-65"/>
     <use x="109.357422" xlink:href="#DejaVuSans-73"/>
    </g>
   </g>
   <g id="text_22">
    <!-- 70% -->
    <g style="fill:#262626;" transform="translate(59.722005 215.172661)scale(0.1 -0.1)">
     <defs>
      <path d="M 525 4666 
L 3525 4666 
L 3525 4397 
L 1831 0 
L 1172 0 
L 2766 4134 
L 525 4134 
L 525 4666 
z
" id="DejaVuSans-37" transform="scale(0.015625)"/>
      <path d="M 2034 4250 
Q 1547 4250 1301 3770 
Q 1056 3291 1056 2328 
Q 1056 1369 1301 889 
Q 1547 409 2034 409 
Q 2525 409 2770 889 
Q 3016 1369 3016 2328 
Q 3016 3291 2770 3770 
Q 2525 4250 2034 4250 
z
M 2034 4750 
Q 2819 4750 3233 4129 
Q 3647 3509 3647 2328 
Q 3647 1150 3233 529 
Q 2819 -91 2034 -91 
Q 1250 -91 836 529 
Q 422 1150 422 2328 
Q 422 3509 836 4129 
Q 1250 4750 2034 4750 
z
" id="DejaVuSans-30" transform="scale(0.015625)"/>
     </defs>
     <use xlink:href="#DejaVuSans-37"/>
     <use x="63.623047" xlink:href="#DejaVuSans-30"/>
     <use x="127.246094" xlink:href="#DejaVuSans-25"/>
    </g>
   </g>
   <g id="text_23">
    <!-- No -->
    <g style="fill:#262626;" transform="translate(146.157195 248.541358)scale(0.1 -0.1)">
     <use xlink:href="#DejaVuSans-4e"/>
     <use x="74.804688" xlink:href="#DejaVuSans-6f"/>
    </g>
   </g>
   <g id="text_24">
    <!-- 30% -->
    <g style="fill:#262626;" transform="translate(114.121162 239.272275)scale(0.1 -0.1)">
     <defs>
      <path d="M 2597 2516 
Q 3050 2419 3304 2112 
Q 3559 1806 3559 1356 
Q 3559 666 3084 287 
Q 2609 -91 1734 -91 
Q 1441 -91 1130 -33 
Q 819 25 488 141 
L 488 750 
Q 750 597 1062 519 
Q 1375 441 1716 441 
Q 2309 441 2620 675 
Q 2931 909 2931 1356 
Q 2931 1769 2642 2001 
Q 2353 2234 1838 2234 
L 1294 2234 
L 1294 2753 
L 1863 2753 
Q 2328 2753 2575 2939 
Q 2822 3125 2822 3475 
Q 2822 3834 2567 4026 
Q 2313 4219 1838 4219 
Q 1578 4219 1281 4162 
Q 984 4106 628 3988 
L 628 4550 
Q 988 4650 1302 4700 
Q 1616 4750 1894 4750 
Q 2613 4750 3031 4423 
Q 3450 4097 3450 3541 
Q 3450 3153 3228 2886 
Q 3006 2619 2597 2516 
z
" id="DejaVuSans-33" transform="scale(0.015625)"/>
     </defs>
     <use xlink:href="#DejaVuSans-33"/>
     <use x="63.623047" xlink:href="#DejaVuSans-30"/>
     <use x="127.246094" xlink:href="#DejaVuSans-25"/>
    </g>
   </g>
   <g id="text_25">
    <!-- Pattern -->
    <g style="fill:#262626;" transform="translate(78.54214 162.18)scale(0.12 -0.12)">
     <defs>
      <path d="M 1259 4147 
L 1259 2394 
L 2053 2394 
Q 2494 2394 2734 2622 
Q 2975 2850 2975 3272 
Q 2975 3691 2734 3919 
Q 2494 4147 2053 4147 
L 1259 4147 
z
M 628 4666 
L 2053 4666 
Q 2838 4666 3239 4311 
Q 3641 3956 3641 3272 
Q 3641 2581 3239 2228 
Q 2838 1875 2053 1875 
L 1259 1875 
L 1259 0 
L 628 0 
L 628 4666 
z
" id="DejaVuSans-50" transform="scale(0.015625)"/>
     </defs>
     <use xlink:href="#DejaVuSans-50"/>
     <use x="55.802734" xlink:href="#DejaVuSans-61"/>
     <use x="117.082031" xlink:href="#DejaVuSans-74"/>
     <use x="156.291016" xlink:href="#DejaVuSans-74"/>
     <use x="195.5" xlink:href="#DejaVuSans-65"/>
     <use x="257.023438" xlink:href="#DejaVuSans-72"/>
     <use x="296.386719" xlink:href="#DejaVuSans-6e"/>
    </g>
   </g>
  </g>
  <g id="axes_6">
   <g id="matplotlib.axis_11"/>
   <g id="matplotlib.axis_12"/>
   <g id="patch_12">
    <path d="M 324.661753 202.942694 
C 322.068193 198.450517 318.729725 194.431768 314.789268 191.058489 
C 310.848811 187.685211 306.363411 185.006237 301.525087 183.136256 
C 296.686764 181.266274 291.56556 180.232356 286.380715 180.078763 
C 281.19587 179.92517 276.022444 180.654125 271.081911 182.234423 
C 266.141378 183.814721 261.505261 186.223484 257.372033 189.357591 
C 253.238805 192.491699 249.668301 196.305781 246.813375 200.636555 
C 243.958449 204.967329 241.86043 209.7521 240.609136 214.786032 
C 239.357842 219.819963 238.971386 225.030181 239.466314 230.193635 
C 239.961241 235.357088 241.330387 240.399028 243.515137 245.103608 
C 245.699887 249.808188 248.668615 254.107302 252.294227 257.816903 
C 255.919839 261.526504 260.14985 264.59289 264.803172 266.884789 
C 269.456494 269.176688 274.465763 270.660921 279.61653 271.273947 
C 284.767297 271.886974 289.984998 271.619919 295.046261 270.484215 
C 300.107524 269.348512 304.93908 267.360601 309.334088 264.605586 
C 313.729096 261.850571 317.623932 258.368335 320.851858 254.307953 
C 324.079783 250.24757 326.594068 245.667823 328.287076 240.764769 
L 285.025502 225.826694 
L 324.661753 202.942694 
z
" style="fill:#1f77b4;stroke:#ffffff;stroke-linejoin:miter;"/>
   </g>
   <g id="patch_13">
    <path d="M 332.842994 240.328075 
C 334.982455 234.132069 335.766051 227.548135 335.14061 221.023059 
C 334.515168 214.497984 332.495163 208.182781 329.217672 202.506 
L 289.581421 225.39 
L 332.842994 240.328075 
z
" style="fill:#ff7f0e;stroke:#ffffff;stroke-linejoin:miter;"/>
   </g>
   <g id="text_26">
    <!-- Yes -->
    <g style="fill:#262626;" transform="translate(218.765082 233.389704)scale(0.1 -0.1)">
     <use xlink:href="#DejaVuSans-59"/>
     <use x="47.833984" xlink:href="#DejaVuSans-65"/>
     <use x="109.357422" xlink:href="#DejaVuSans-73"/>
    </g>
   </g>
   <g id="text_27">
    <!-- 86% -->
    <g style="fill:#262626;" transform="translate(246.576708 231.206233)scale(0.1 -0.1)">
     <use xlink:href="#DejaVuSans-38"/>
     <use x="63.623047" xlink:href="#DejaVuSans-36"/>
     <use x="127.246094" xlink:href="#DejaVuSans-25"/>
    </g>
   </g>
   <g id="text_28">
    <!-- No -->
    <g style="fill:#262626;" transform="translate(339.696528 223.34574)scale(0.1 -0.1)">
     <use xlink:href="#DejaVuSans-4e"/>
     <use x="74.804688" xlink:href="#DejaVuSans-6f"/>
    </g>
   </g>
   <g id="text_29">
    <!-- 14% -->
    <g style="fill:#262626;" transform="translate(305.803653 225.529211)scale(0.1 -0.1)">
     <use xlink:href="#DejaVuSans-31"/>
     <use x="63.623047" xlink:href="#DejaVuSans-34"/>
     <use x="127.246094" xlink:href="#DejaVuSans-25"/>
    </g>
   </g>
   <g id="text_30">
    <!-- Provider -->
    <g style="fill:#262626;" transform="translate(264.880171 162.18)scale(0.12 -0.12)">
     <defs>
      <path d="M 191 3500 
L 800 3500 
L 1894 563 
L 2988 3500 
L 3597 3500 
L 2284 0 
L 1503 0 
L 191 3500 
z
" id="DejaVuSans-76" transform="scale(0.015625)"/>
      <path d="M 2906 2969 
L 2906 4863 
L 3481 4863 
L 3481 0 
L 2906 0 
L 2906 525 
Q 2725 213 2448 61 
Q 2172 -91 1784 -91 
Q 1150 -91 751 415 
Q 353 922 353 1747 
Q 353 2572 751 3078 
Q 1150 3584 1784 3584 
Q 2172 3584 2448 3432 
Q 2725 3281 2906 2969 
z
M 947 1747 
Q 947 1113 1208 752 
Q 1469 391 1925 391 
Q 2381 391 2643 752 
Q 2906 1113 2906 1747 
Q 2906 2381 2643 2742 
Q 2381 3103 1925 3103 
Q 1469 3103 1208 2742 
Q 947 2381 947 1747 
z
" id="DejaVuSans-64" transform="scale(0.015625)"/>
     </defs>
     <use xlink:href="#DejaVuSans-50"/>
     <use x="58.552734" xlink:href="#DejaVuSans-72"/>
     <use x="97.416016" xlink:href="#DejaVuSans-6f"/>
     <use x="158.597656" xlink:href="#DejaVuSans-76"/>
     <use x="217.777344" xlink:href="#DejaVuSans-69"/>
     <use x="245.560547" xlink:href="#DejaVuSans-64"/>
     <use x="309.037109" xlink:href="#DejaVuSans-65"/>
     <use x="370.560547" xlink:href="#DejaVuSans-72"/>
    </g>
   </g>
  </g>
  <g id="axes_7">
   <g id="matplotlib.axis_13"/>
   <g id="matplotlib.axis_14"/>
   <g id="patch_14">
    <path d="M 520.962098 198.543383 
C 516.948832 191.592202 511.176712 185.81754 504.227299 181.801213 
C 497.277886 177.784887 489.392684 175.66647 481.366156 175.659401 
L 481.325847 221.427383 
L 520.962098 198.543383 
z
" style="fill:#1f77b4;stroke:#ffffff;stroke-linejoin:miter;"/>
   </g>
   <g id="patch_15">
    <path d="M 479.07601 179.622018 
C 474.07154 179.61761 469.100061 180.434048 464.359849 182.03877 
C 459.619637 183.643491 455.17456 186.014875 451.201899 189.058344 
C 447.229237 192.101813 443.782518 195.776361 440.999206 199.935437 
C 438.215893 204.094513 436.133488 208.682079 434.835043 213.515171 
C 433.536597 218.348263 433.039606 223.361763 433.363891 228.355717 
C 433.688175 233.349671 434.829366 238.256795 436.741949 242.881378 
C 438.654532 247.50596 441.312739 251.785693 444.610552 255.549889 
C 447.908365 259.314084 451.801352 262.512025 456.13425 265.01617 
C 460.467147 267.520314 465.181577 269.296922 470.089512 270.275137 
C 474.997448 271.253352 480.032764 271.419995 484.994638 270.768419 
C 489.956511 270.116843 494.778089 268.655827 499.267072 266.443641 
C 503.756056 264.231455 507.851963 261.297905 511.391439 257.759988 
C 514.930914 254.222071 517.866268 250.127456 520.08043 245.639447 
C 522.294593 241.151438 523.757731 236.330504 524.411492 231.368918 
C 525.065253 226.407332 524.900828 221.371943 523.924774 216.463577 
C 522.94872 211.555211 521.174188 206.84 518.671952 202.506 
L 479.035702 225.39 
L 479.07601 179.622018 
z
" style="fill:#ff7f0e;stroke:#ffffff;stroke-linejoin:miter;"/>
   </g>
   <g id="text_31">
    <!-- Yes -->
    <g style="fill:#262626;" transform="translate(506.517444 180.597971)scale(0.1 -0.1)">
     <use xlink:href="#DejaVuSans-59"/>
     <use x="47.833984" xlink:href="#DejaVuSans-65"/>
     <use x="109.357422" xlink:href="#DejaVuSans-73"/>
    </g>
   </g>
   <g id="text_32">
    <!-- 17% -->
    <g style="fill:#262626;" transform="translate(483.953437 200.411056)scale(0.1 -0.1)">
     <use xlink:href="#DejaVuSans-31"/>
     <use x="63.623047" xlink:href="#DejaVuSans-37"/>
     <use x="127.246094" xlink:href="#DejaVuSans-25"/>
    </g>
   </g>
   <g id="text_33">
    <!-- No -->
    <g style="fill:#262626;" transform="translate(440.244105 271.738162)scale(0.1 -0.1)">
     <use xlink:href="#DejaVuSans-4e"/>
     <use x="74.804688" xlink:href="#DejaVuSans-6f"/>
    </g>
   </g>
   <g id="text_34">
    <!-- 83% -->
    <g style="fill:#262626;" transform="translate(454.181549 251.925077)scale(0.1 -0.1)">
     <use xlink:href="#DejaVuSans-38"/>
     <use x="63.623047" xlink:href="#DejaVuSans-33"/>
     <use x="127.246094" xlink:href="#DejaVuSans-25"/>
    </g>
   </g>
   <g id="text_35">
    <!-- License -->
    <g style="fill:#262626;" transform="translate(456.414764 162.18)scale(0.12 -0.12)">
     <defs>
      <path d="M 628 4666 
L 1259 4666 
L 1259 531 
L 3531 531 
L 3531 0 
L 628 0 
L 628 4666 
z
" id="DejaVuSans-4c" transform="scale(0.015625)"/>
     </defs>
     <use xlink:href="#DejaVuSans-4c"/>
     <use x="55.712891" xlink:href="#DejaVuSans-69"/>
     <use x="83.496094" xlink:href="#DejaVuSans-63"/>
     <use x="138.476562" xlink:href="#DejaVuSans-65"/>
     <use x="200" xlink:href="#DejaVuSans-6e"/>
     <use x="263.378906" xlink:href="#DejaVuSans-73"/>
     <use x="315.478516" xlink:href="#DejaVuSans-65"/>
    </g>
   </g>
  </g>
  <g id="axes_8">
   <g id="matplotlib.axis_15"/>
   <g id="matplotlib.axis_16"/>
   <g id="patch_16">
    <path d="M 708.126233 202.506 
C 702.39228 192.574501 693.129899 185.151993 682.187636 181.719826 
C 671.245373 178.287659 659.403039 179.09043 649.024073 183.967926 
C 638.645108 188.845422 630.469179 197.450043 626.128001 208.064517 
C 621.786823 218.678992 621.589775 230.546868 625.576183 241.299609 
L 668.489983 225.39 
L 708.126233 202.506 
z
" style="fill:#1f77b4;stroke:#ffffff;stroke-linejoin:miter;"/>
   </g>
   <g id="patch_17">
    <path d="M 625.576183 241.299609 
C 629.436693 251.712758 636.958432 260.372972 646.728469 265.653462 
C 656.498506 270.933951 667.86422 272.481989 678.690601 270.006782 
L 668.489983 225.39 
L 625.576183 241.299609 
z
" style="fill:#ff7f0e;stroke:#ffffff;stroke-linejoin:miter;"/>
   </g>
   <g id="patch_18">
    <path d="M 678.690601 270.006782 
C 687.644895 267.959585 695.778868 263.263433 702.02894 256.532386 
C 708.279011 249.801338 712.360353 241.342142 713.739298 232.260902 
L 668.489983 225.39 
L 678.690601 270.006782 
z
" style="fill:#2ca02c;stroke:#ffffff;stroke-linejoin:miter;"/>
   </g>
   <g id="patch_19">
    <path d="M 713.739298 232.260902 
C 714.160776 229.485195 714.325959 226.676584 714.232755 223.870607 
C 714.139552 221.06463 713.788357 218.273171 713.183615 215.531551 
L 668.489983 225.39 
L 713.739298 232.260902 
z
" style="fill:#d62728;stroke:#ffffff;stroke-linejoin:miter;"/>
   </g>
   <g id="patch_20">
    <path d="M 713.183615 215.531551 
C 712.679772 213.247358 712.001559 211.005148 711.15494 208.824637 
C 710.308321 206.644125 709.295784 204.531722 708.126234 202.506001 
L 668.489983 225.39 
L 713.183615 215.531551 
z
" style="fill:#9467bd;stroke:#ffffff;stroke-linejoin:miter;"/>
   </g>
   <g id="text_36">
    <!-- CC-BY -->
    <g style="fill:#262626;" transform="translate(617.447795 182.585094)scale(0.1 -0.1)">
     <defs>
      <path d="M 4122 4306 
L 4122 3641 
Q 3803 3938 3442 4084 
Q 3081 4231 2675 4231 
Q 1875 4231 1450 3742 
Q 1025 3253 1025 2328 
Q 1025 1406 1450 917 
Q 1875 428 2675 428 
Q 3081 428 3442 575 
Q 3803 722 4122 1019 
L 4122 359 
Q 3791 134 3420 21 
Q 3050 -91 2638 -91 
Q 1578 -91 968 557 
Q 359 1206 359 2328 
Q 359 3453 968 4101 
Q 1578 4750 2638 4750 
Q 3056 4750 3426 4639 
Q 3797 4528 4122 4306 
z
" id="DejaVuSans-43" transform="scale(0.015625)"/>
      <path d="M 313 2009 
L 1997 2009 
L 1997 1497 
L 313 1497 
L 313 2009 
z
" id="DejaVuSans-2d" transform="scale(0.015625)"/>
      <path d="M 1259 2228 
L 1259 519 
L 2272 519 
Q 2781 519 3026 730 
Q 3272 941 3272 1375 
Q 3272 1813 3026 2020 
Q 2781 2228 2272 2228 
L 1259 2228 
z
M 1259 4147 
L 1259 2741 
L 2194 2741 
Q 2656 2741 2882 2914 
Q 3109 3088 3109 3444 
Q 3109 3797 2882 3972 
Q 2656 4147 2194 4147 
L 1259 4147 
z
M 628 4666 
L 2241 4666 
Q 2963 4666 3353 4366 
Q 3744 4066 3744 3513 
Q 3744 3084 3544 2831 
Q 3344 2578 2956 2516 
Q 3422 2416 3680 2098 
Q 3938 1781 3938 1306 
Q 3938 681 3513 340 
Q 3088 0 2303 0 
L 628 0 
L 628 4666 
z
" id="DejaVuSans-42" transform="scale(0.015625)"/>
     </defs>
     <use xlink:href="#DejaVuSans-43"/>
     <use x="69.824219" xlink:href="#DejaVuSans-43"/>
     <use x="139.648438" xlink:href="#DejaVuSans-2d"/>
     <use x="172.107422" xlink:href="#DejaVuSans-42"/>
     <use x="235.210938" xlink:href="#DejaVuSans-59"/>
    </g>
   </g>
   <g id="text_37">
    <!-- 47% -->
    <g style="fill:#262626;" transform="translate(645.697156 203.296131)scale(0.1 -0.1)">
     <use xlink:href="#DejaVuSans-34"/>
     <use x="63.623047" xlink:href="#DejaVuSans-37"/>
     <use x="127.246094" xlink:href="#DejaVuSans-25"/>
    </g>
   </g>
   <g id="text_38">
    <!-- CC-BY-4.0 -->
    <g style="fill:#262626;" transform="translate(596.599192 272.439183)scale(0.1 -0.1)">
     <defs>
      <path d="M 684 794 
L 1344 794 
L 1344 0 
L 684 0 
L 684 794 
z
" id="DejaVuSans-2e" transform="scale(0.015625)"/>
     </defs>
     <use xlink:href="#DejaVuSans-43"/>
     <use x="69.824219" xlink:href="#DejaVuSans-43"/>
     <use x="139.648438" xlink:href="#DejaVuSans-2d"/>
     <use x="172.107422" xlink:href="#DejaVuSans-42"/>
     <use x="235.210938" xlink:href="#DejaVuSans-59"/>
     <use x="284.419922" xlink:href="#DejaVuSans-2d"/>
     <use x="320.503906" xlink:href="#DejaVuSans-34"/>
     <use x="384.126953" xlink:href="#DejaVuSans-2e"/>
     <use x="415.914062" xlink:href="#DejaVuSans-30"/>
    </g>
   </g>
   <g id="text_39">
    <!-- 23% -->
    <g style="fill:#262626;" transform="translate(644.319793 252.307452)scale(0.1 -0.1)">
     <use xlink:href="#DejaVuSans-32"/>
     <use x="63.623047" xlink:href="#DejaVuSans-33"/>
     <use x="127.246094" xlink:href="#DejaVuSans-25"/>
    </g>
   </g>
   <g id="text_40">
    <!-- CC-0 -->
    <g style="fill:#262626;" transform="translate(705.382835 262.405999)scale(0.1 -0.1)">
     <use xlink:href="#DejaVuSans-43"/>
     <use x="69.824219" xlink:href="#DejaVuSans-43"/>
     <use x="139.648438" xlink:href="#DejaVuSans-2d"/>
     <use x="175.732422" xlink:href="#DejaVuSans-30"/>
    </g>
   </g>
   <g id="text_41">
    <!-- 19% -->
    <g style="fill:#262626;" transform="translate(677.500075 246.834806)scale(0.1 -0.1)">
     <use xlink:href="#DejaVuSans-31"/>
     <use x="63.623047" xlink:href="#DejaVuSans-39"/>
     <use x="127.246094" xlink:href="#DejaVuSans-25"/>
    </g>
   </g>
   <g id="text_42">
    <!-- CC-BY-3.0 -->
    <g style="fill:#262626;" transform="translate(718.807033 226.478043)scale(0.1 -0.1)">
     <use xlink:href="#DejaVuSans-43"/>
     <use x="69.824219" xlink:href="#DejaVuSans-43"/>
     <use x="139.648438" xlink:href="#DejaVuSans-2d"/>
     <use x="172.107422" xlink:href="#DejaVuSans-42"/>
     <use x="235.210938" xlink:href="#DejaVuSans-59"/>
     <use x="284.419922" xlink:href="#DejaVuSans-2d"/>
     <use x="320.503906" xlink:href="#DejaVuSans-33"/>
     <use x="384.126953" xlink:href="#DejaVuSans-2e"/>
     <use x="415.914062" xlink:href="#DejaVuSans-30"/>
    </g>
   </g>
   <g id="text_43">
    <!-- 6% -->
    <g style="fill:#262626;" transform="translate(688.003615 227.237739)scale(0.1 -0.1)">
     <use xlink:href="#DejaVuSans-36"/>
     <use x="63.623047" xlink:href="#DejaVuSans-25"/>
    </g>
   </g>
   <g id="text_44">
    <!-- Other -->
    <g style="fill:#262626;" transform="translate(715.421435 209.927476)scale(0.1 -0.1)">
     <defs>
      <path d="M 2522 4238 
Q 1834 4238 1429 3725 
Q 1025 3213 1025 2328 
Q 1025 1447 1429 934 
Q 1834 422 2522 422 
Q 3209 422 3611 934 
Q 4013 1447 4013 2328 
Q 4013 3213 3611 3725 
Q 3209 4238 2522 4238 
z
M 2522 4750 
Q 3503 4750 4090 4092 
Q 4678 3434 4678 2328 
Q 4678 1225 4090 567 
Q 3503 -91 2522 -91 
Q 1538 -91 948 565 
Q 359 1222 359 2328 
Q 359 3434 948 4092 
Q 1538 4750 2522 4750 
z
" id="DejaVuSans-4f" transform="scale(0.015625)"/>
      <path d="M 3513 2113 
L 3513 0 
L 2938 0 
L 2938 2094 
Q 2938 2591 2744 2837 
Q 2550 3084 2163 3084 
Q 1697 3084 1428 2787 
Q 1159 2491 1159 1978 
L 1159 0 
L 581 0 
L 581 4863 
L 1159 4863 
L 1159 2956 
Q 1366 3272 1645 3428 
Q 1925 3584 2291 3584 
Q 2894 3584 3203 3211 
Q 3513 2838 3513 2113 
z
" id="DejaVuSans-68" transform="scale(0.015625)"/>
     </defs>
     <use xlink:href="#DejaVuSans-4f"/>
     <use x="78.710938" xlink:href="#DejaVuSans-74"/>
     <use x="117.919922" xlink:href="#DejaVuSans-68"/>
     <use x="181.298828" xlink:href="#DejaVuSans-65"/>
     <use x="242.822266" xlink:href="#DejaVuSans-72"/>
    </g>
   </g>
   <g id="text_45">
    <!-- 5% -->
    <g style="fill:#262626;" transform="translate(686.156926 218.210157)scale(0.1 -0.1)">
     <defs>
      <path d="M 691 4666 
L 3169 4666 
L 3169 4134 
L 1269 4134 
L 1269 2991 
Q 1406 3038 1543 3061 
Q 1681 3084 1819 3084 
Q 2600 3084 3056 2656 
Q 3513 2228 3513 1497 
Q 3513 744 3044 326 
Q 2575 -91 1722 -91 
Q 1428 -91 1123 -41 
Q 819 9 494 109 
L 494 744 
Q 775 591 1075 516 
Q 1375 441 1709 441 
Q 2250 441 2565 725 
Q 2881 1009 2881 1497 
Q 2881 1984 2565 2268 
Q 2250 2553 1709 2553 
Q 1456 2553 1204 2497 
Q 953 2441 691 2322 
L 691 4666 
z
" id="DejaVuSans-35" transform="scale(0.015625)"/>
     </defs>
     <use xlink:href="#DejaVuSans-35"/>
     <use x="63.623047" xlink:href="#DejaVuSans-25"/>
    </g>
   </g>
   <g id="text_46">
    <!-- License Type -->
    <g style="fill:#262626;" transform="translate(630.182795 162.18)scale(0.12 -0.12)">
     <defs>
      <path id="DejaVuSans-20" transform="scale(0.015625)"/>
      <path d="M -19 4666 
L 3928 4666 
L 3928 4134 
L 2272 4134 
L 2272 0 
L 1638 0 
L 1638 4134 
L -19 4134 
L -19 4666 
z
" id="DejaVuSans-54" transform="scale(0.015625)"/>
      <path d="M 2059 -325 
Q 1816 -950 1584 -1140 
Q 1353 -1331 966 -1331 
L 506 -1331 
L 506 -850 
L 844 -850 
Q 1081 -850 1212 -737 
Q 1344 -625 1503 -206 
L 1606 56 
L 191 3500 
L 800 3500 
L 1894 763 
L 2988 3500 
L 3597 3500 
L 2059 -325 
z
" id="DejaVuSans-79" transform="scale(0.015625)"/>
     </defs>
     <use xlink:href="#DejaVuSans-4c"/>
     <use x="55.712891" xlink:href="#DejaVuSans-69"/>
     <use x="83.496094" xlink:href="#DejaVuSans-63"/>
     <use x="138.476562" xlink:href="#DejaVuSans-65"/>
     <use x="200" xlink:href="#DejaVuSans-6e"/>
     <use x="263.378906" xlink:href="#DejaVuSans-73"/>
     <use x="315.478516" xlink:href="#DejaVuSans-65"/>
     <use x="377.001953" xlink:href="#DejaVuSans-20"/>
     <use x="408.789062" xlink:href="#DejaVuSans-54"/>
     <use x="454.248047" xlink:href="#DejaVuSans-79"/>
     <use x="513.427734" xlink:href="#DejaVuSans-70"/>
     <use x="576.904297" xlink:href="#DejaVuSans-65"/>
    </g>
   </g>
  </g>
  <g id="axes_9">
   <g id="matplotlib.axis_17"/>
   <g id="matplotlib.axis_18"/>
   <g id="patch_21">
    <path d="M 141.533925 339.585537 
C 136.532627 330.923035 128.826832 324.134407 119.603011 320.264906 
C 110.37919 316.395405 100.136356 315.654374 90.451614 318.15591 
L 101.897674 362.469537 
L 141.533925 339.585537 
z
" style="fill:#1f77b4;stroke:#ffffff;stroke-linejoin:miter;"/>
   </g>
   <g id="patch_22">
    <path d="M 88.681081 322.376373 
C 84.071296 323.567065 79.675409 325.469806 75.652277 328.015837 
C 71.629145 330.561868 68.027821 333.720144 64.978448 337.376535 
C 61.929075 341.032925 59.468834 345.142847 57.686631 349.557778 
C 55.904429 353.972709 54.821995 358.638819 54.478447 363.387486 
C 54.134898 368.136153 54.534424 372.909478 55.662586 377.534963 
C 56.790748 382.160448 58.633791 386.581697 61.125111 390.638936 
C 63.616431 394.696175 66.725653 398.339934 70.340417 401.438539 
C 73.95518 404.537143 78.031412 407.05281 82.421806 408.894632 
C 86.812199 410.736453 91.463225 411.881971 96.206804 412.289789 
C 100.950384 412.697608 105.728681 412.362754 110.369018 411.297329 
C 115.009356 410.231903 119.455156 408.448897 123.545757 406.012744 
C 127.636359 403.576591 131.321886 400.516994 134.469153 396.94452 
C 137.616421 393.372045 140.187054 389.330252 142.088156 384.965201 
C 143.989259 380.60015 145.197651 375.965062 145.669664 371.22744 
C 146.141677 366.489817 145.871557 361.707424 144.869064 357.053085 
C 143.866571 352.398746 142.143928 347.929211 139.763389 343.805996 
L 100.12714 366.69 
L 88.681081 322.376373 
z
" style="fill:#ff7f0e;stroke:#ffffff;stroke-linejoin:miter;"/>
   </g>
   <g id="text_47">
    <!-- Yes -->
    <g style="fill:#262626;" transform="translate(121.373544 318.803818)scale(0.1 -0.1)">
     <use xlink:href="#DejaVuSans-59"/>
     <use x="47.833984" xlink:href="#DejaVuSans-65"/>
     <use x="109.357422" xlink:href="#DejaVuSans-73"/>
    </g>
   </g>
   <g id="text_48">
    <!-- 21% -->
    <g style="fill:#262626;" transform="translate(101.407595 339.906133)scale(0.1 -0.1)">
     <use xlink:href="#DejaVuSans-32"/>
     <use x="63.623047" xlink:href="#DejaVuSans-31"/>
     <use x="127.246094" xlink:href="#DejaVuSans-25"/>
    </g>
   </g>
   <g id="text_49">
    <!-- No -->
    <g style="fill:#262626;" transform="translate(67.051272 415.87447)scale(0.1 -0.1)">
     <use xlink:href="#DejaVuSans-4e"/>
     <use x="74.804688" xlink:href="#DejaVuSans-6f"/>
    </g>
   </g>
   <g id="text_50">
    <!-- 79% -->
    <g style="fill:#262626;" transform="translate(78.390658 394.772154)scale(0.1 -0.1)">
     <use xlink:href="#DejaVuSans-37"/>
     <use x="63.623047" xlink:href="#DejaVuSans-39"/>
     <use x="127.246094" xlink:href="#DejaVuSans-25"/>
    </g>
   </g>
   <g id="text_51">
    <!-- Version -->
    <g style="fill:#262626;" transform="translate(78.063078 303.48)scale(0.12 -0.12)">
     <defs>
      <path d="M 1831 0 
L 50 4666 
L 709 4666 
L 2188 738 
L 3669 4666 
L 4325 4666 
L 2547 0 
L 1831 0 
z
" id="DejaVuSans-56" transform="scale(0.015625)"/>
     </defs>
     <use xlink:href="#DejaVuSans-56"/>
     <use x="60.658203" xlink:href="#DejaVuSans-65"/>
     <use x="122.181641" xlink:href="#DejaVuSans-72"/>
     <use x="163.294922" xlink:href="#DejaVuSans-73"/>
     <use x="215.394531" xlink:href="#DejaVuSans-69"/>
     <use x="243.177734" xlink:href="#DejaVuSans-6f"/>
     <use x="304.359375" xlink:href="#DejaVuSans-6e"/>
    </g>
   </g>
  </g>
  <g id="axes_10">
   <g id="matplotlib.axis_19"/>
   <g id="matplotlib.axis_20"/>
   <g id="patch_23">
    <path d="M 330.988205 339.585537 
C 325.986908 330.923035 318.281112 324.134407 309.057291 320.264906 
C 299.833471 316.395405 289.590637 315.654374 279.905895 318.15591 
L 291.351955 362.469537 
L 330.988205 339.585537 
z
" style="fill:#1f77b4;stroke:#ffffff;stroke-linejoin:miter;"/>
   </g>
   <g id="patch_24">
    <path d="M 278.135361 322.376373 
C 273.525577 323.567065 269.12969 325.469806 265.106558 328.015837 
C 261.083426 330.561868 257.482102 333.720144 254.432729 337.376535 
C 251.383356 341.032925 248.923115 345.142847 247.140912 349.557778 
C 245.35871 353.972709 244.276276 358.638819 243.932727 363.387486 
C 243.589179 368.136153 243.988705 372.909478 245.116867 377.534963 
C 246.245029 382.160448 248.088071 386.581697 250.579392 390.638936 
C 253.070712 394.696175 256.179934 398.339934 259.794698 401.438539 
C 263.409461 404.537143 267.485693 407.05281 271.876086 408.894632 
C 276.26648 410.736453 280.917505 411.881971 285.661085 412.289789 
C 290.404665 412.697608 295.182961 412.362754 299.823299 411.297329 
C 304.463636 410.231903 308.909436 408.448897 313.000038 406.012744 
C 317.090639 403.576591 320.776167 400.516994 323.923434 396.94452 
C 327.070701 393.372045 329.641335 389.330252 331.542437 384.965201 
C 333.443539 380.60015 334.651932 375.965062 335.123945 371.22744 
C 335.595958 366.489817 335.325837 361.707424 334.323344 357.053085 
C 333.320851 352.398746 331.598209 347.929211 329.21767 343.805996 
L 289.581421 366.69 
L 278.135361 322.376373 
z
" style="fill:#ff7f0e;stroke:#ffffff;stroke-linejoin:miter;"/>
   </g>
   <g id="text_52">
    <!-- Yes -->
    <g style="fill:#262626;" transform="translate(310.827825 318.803818)scale(0.1 -0.1)">
     <use xlink:href="#DejaVuSans-59"/>
     <use x="47.833984" xlink:href="#DejaVuSans-65"/>
     <use x="109.357422" xlink:href="#DejaVuSans-73"/>
    </g>
   </g>
   <g id="text_53">
    <!-- 21% -->
    <g style="fill:#262626;" transform="translate(290.861876 339.906133)scale(0.1 -0.1)">
     <use xlink:href="#DejaVuSans-32"/>
     <use x="63.623047" xlink:href="#DejaVuSans-31"/>
     <use x="127.246094" xlink:href="#DejaVuSans-25"/>
    </g>
   </g>
   <g id="text_54">
    <!-- No -->
    <g style="fill:#262626;" transform="translate(256.505553 415.87447)scale(0.1 -0.1)">
     <use xlink:href="#DejaVuSans-4e"/>
     <use x="74.804688" xlink:href="#DejaVuSans-6f"/>
    </g>
   </g>
   <g id="text_55">
    <!-- 79% -->
    <g style="fill:#262626;" transform="translate(267.844939 394.772154)scale(0.1 -0.1)">
     <use xlink:href="#DejaVuSans-37"/>
     <use x="63.623047" xlink:href="#DejaVuSans-39"/>
     <use x="127.246094" xlink:href="#DejaVuSans-25"/>
    </g>
   </g>
   <g id="text_56">
    <!-- Contact Email -->
    <g style="fill:#262626;" transform="translate(247.684546 303.48)scale(0.12 -0.12)">
     <use xlink:href="#DejaVuSans-43"/>
     <use x="69.824219" xlink:href="#DejaVuSans-6f"/>
     <use x="131.005859" xlink:href="#DejaVuSans-6e"/>
     <use x="194.384766" xlink:href="#DejaVuSans-74"/>
     <use x="233.59375" xlink:href="#DejaVuSans-61"/>
     <use x="294.873047" xlink:href="#DejaVuSans-63"/>
     <use x="349.853516" xlink:href="#DejaVuSans-74"/>
     <use x="389.0625" xlink:href="#DejaVuSans-20"/>
     <use x="420.849609" xlink:href="#DejaVuSans-45"/>
     <use x="484.033203" xlink:href="#DejaVuSans-6d"/>
     <use x="581.445312" xlink:href="#DejaVuSans-61"/>
     <use x="642.724609" xlink:href="#DejaVuSans-69"/>
     <use x="670.507812" xlink:href="#DejaVuSans-6c"/>
    </g>
   </g>
  </g>
  <g id="axes_11">
   <g id="matplotlib.axis_21"/>
   <g id="matplotlib.axis_22"/>
   <g id="patch_25">
    <path d="M 522.193911 340.883175 
C 520.903235 338.647659 519.425743 336.525337 517.777246 334.538925 
C 516.12875 332.552512 514.315151 330.70912 512.355861 329.028478 
L 482.55766 363.767175 
L 522.193911 340.883175 
z
" style="fill:#1f77b4;stroke:#ffffff;stroke-linejoin:miter;"/>
   </g>
   <g id="patch_26">
    <path d="M 508.833902 331.951303 
C 504.519046 328.250101 499.552133 325.385003 494.187918 323.502963 
C 488.823703 321.620922 483.155491 320.754675 477.474007 320.948652 
C 471.792524 321.142628 466.196593 322.393454 460.973232 324.636974 
C 455.749871 326.880494 450.989935 330.077684 446.937564 334.064559 
C 442.885194 338.051434 439.610875 342.758646 437.282549 347.94476 
C 434.954223 353.130874 433.612389 358.705683 433.32587 364.383252 
C 433.039351 370.060821 433.813131 375.742394 435.607523 381.136561 
C 437.401915 386.530728 440.185706 391.543663 443.816116 395.91825 
C 447.446525 400.292837 451.860405 403.952983 456.831365 406.71096 
C 461.802325 409.468937 467.243901 411.276771 472.876991 412.041738 
C 478.510082 412.806704 484.236705 412.515498 489.763139 411.183055 
C 495.289573 409.850611 500.519692 407.500108 505.18524 404.252102 
C 509.850788 401.004096 513.870613 396.915084 517.038536 392.194793 
C 520.206458 387.474502 522.467376 382.205037 523.705326 376.656671 
C 524.943275 371.108305 525.136723 365.377547 524.275748 359.75833 
C 523.414773 354.139112 521.51435 348.729177 518.671953 343.806001 
L 479.035702 366.69 
L 508.833902 331.951303 
z
" style="fill:#ff7f0e;stroke:#ffffff;stroke-linejoin:miter;"/>
   </g>
   <g id="text_57">
    <!-- Yes -->
    <g style="fill:#262626;" transform="translate(521.299205 334.375475)scale(0.1 -0.1)">
     <use xlink:href="#DejaVuSans-59"/>
     <use x="47.833984" xlink:href="#DejaVuSans-65"/>
     <use x="109.357422" xlink:href="#DejaVuSans-73"/>
    </g>
   </g>
   <g id="text_58">
    <!-- 5% -->
    <g style="fill:#262626;" transform="translate(495.757381 348.9896)scale(0.1 -0.1)">
     <use xlink:href="#DejaVuSans-35"/>
     <use x="63.623047" xlink:href="#DejaVuSans-25"/>
    </g>
   </g>
   <g id="text_59">
    <!-- No -->
    <g style="fill:#262626;" transform="translate(426.694157 401.60045)scale(0.1 -0.1)">
     <use xlink:href="#DejaVuSans-4e"/>
     <use x="74.804688" xlink:href="#DejaVuSans-6f"/>
    </g>
   </g>
   <g id="text_60">
    <!-- 95% -->
    <g style="fill:#262626;" transform="translate(446.790669 386.986325)scale(0.1 -0.1)">
     <use xlink:href="#DejaVuSans-39"/>
     <use x="63.623047" xlink:href="#DejaVuSans-35"/>
     <use x="127.246094" xlink:href="#DejaVuSans-25"/>
    </g>
   </g>
   <g id="text_61">
    <!-- Wikidata Database -->
    <g style="fill:#262626;" transform="translate(422.378827 303.48)scale(0.12 -0.12)">
     <defs>
      <path d="M 213 4666 
L 850 4666 
L 1831 722 
L 2809 4666 
L 3519 4666 
L 4500 722 
L 5478 4666 
L 6119 4666 
L 4947 0 
L 4153 0 
L 3169 4050 
L 2175 0 
L 1381 0 
L 213 4666 
z
" id="DejaVuSans-57" transform="scale(0.015625)"/>
      <path d="M 581 4863 
L 1159 4863 
L 1159 1991 
L 2875 3500 
L 3609 3500 
L 1753 1863 
L 3688 0 
L 2938 0 
L 1159 1709 
L 1159 0 
L 581 0 
L 581 4863 
z
" id="DejaVuSans-6b" transform="scale(0.015625)"/>
      <path d="M 3116 1747 
Q 3116 2381 2855 2742 
Q 2594 3103 2138 3103 
Q 1681 3103 1420 2742 
Q 1159 2381 1159 1747 
Q 1159 1113 1420 752 
Q 1681 391 2138 391 
Q 2594 391 2855 752 
Q 3116 1113 3116 1747 
z
M 1159 2969 
Q 1341 3281 1617 3432 
Q 1894 3584 2278 3584 
Q 2916 3584 3314 3078 
Q 3713 2572 3713 1747 
Q 3713 922 3314 415 
Q 2916 -91 2278 -91 
Q 1894 -91 1617 61 
Q 1341 213 1159 525 
L 1159 0 
L 581 0 
L 581 4863 
L 1159 4863 
L 1159 2969 
z
" id="DejaVuSans-62" transform="scale(0.015625)"/>
     </defs>
     <use xlink:href="#DejaVuSans-57"/>
     <use x="96.626953" xlink:href="#DejaVuSans-69"/>
     <use x="124.410156" xlink:href="#DejaVuSans-6b"/>
     <use x="182.320312" xlink:href="#DejaVuSans-69"/>
     <use x="210.103516" xlink:href="#DejaVuSans-64"/>
     <use x="273.580078" xlink:href="#DejaVuSans-61"/>
     <use x="334.859375" xlink:href="#DejaVuSans-74"/>
     <use x="374.068359" xlink:href="#DejaVuSans-61"/>
     <use x="435.347656" xlink:href="#DejaVuSans-20"/>
     <use x="467.134766" xlink:href="#DejaVuSans-44"/>
     <use x="544.136719" xlink:href="#DejaVuSans-61"/>
     <use x="605.416016" xlink:href="#DejaVuSans-74"/>
     <use x="644.625" xlink:href="#DejaVuSans-61"/>
     <use x="705.904297" xlink:href="#DejaVuSans-62"/>
     <use x="769.380859" xlink:href="#DejaVuSans-61"/>
     <use x="830.660156" xlink:href="#DejaVuSans-73"/>
     <use x="882.759766" xlink:href="#DejaVuSans-65"/>
    </g>
   </g>
  </g>
  <g id="axes_12">
   <g id="matplotlib.axis_23"/>
   <g id="matplotlib.axis_24"/>
   <g id="patch_27">
    <path d="M 711.250206 340.46117 
C 708.988757 336.544225 706.159126 332.984049 702.853688 329.896868 
C 699.548251 326.809686 695.803373 324.229463 691.741309 322.240432 
L 671.613956 363.34517 
L 711.250206 340.46117 
z
" style="fill:#1f77b4;stroke:#ffffff;stroke-linejoin:miter;"/>
   </g>
   <g id="patch_28">
    <path d="M 688.617335 325.585262 
C 683.730762 323.192501 678.456431 321.690182 673.042467 321.148978 
C 667.628504 320.607774 662.161157 321.036307 656.89763 322.414418 
C 651.634103 323.792529 646.658249 326.098262 642.204151 329.223149 
C 637.750054 332.348036 633.888669 336.242293 630.801652 340.722721 
C 627.714635 345.203148 625.451165 350.198369 624.117723 355.473389 
C 622.78428 360.748409 622.402109 366.219192 622.989188 371.628374 
C 623.576267 377.037555 625.123243 382.298961 627.557341 387.165075 
C 629.991439 392.03119 633.273882 396.424491 637.250251 400.138303 
C 641.226619 403.852115 645.833567 406.827272 650.854366 408.923812 
C 655.875165 411.020352 661.22983 412.204876 666.666456 412.421658 
C 672.103083 412.638441 677.535061 411.884029 682.706852 410.193913 
C 687.878642 408.503797 692.707852 405.904902 696.967298 402.519489 
C 701.226745 399.134077 704.848571 395.016079 707.662393 390.359223 
C 710.476214 385.702366 712.437205 380.580839 713.453111 375.235576 
C 714.469018 369.890312 714.523657 364.406469 713.614458 359.042025 
C 712.705259 353.67758 710.846706 348.517996 708.126232 343.805998 
L 668.489983 366.69 
L 688.617335 325.585262 
z
" style="fill:#ff7f0e;stroke:#ffffff;stroke-linejoin:miter;"/>
   </g>
   <g id="text_62">
    <!-- Yes -->
    <g style="fill:#262626;" transform="translate(705.977662 329.311412)scale(0.1 -0.1)">
     <use xlink:href="#DejaVuSans-59"/>
     <use x="47.833984" xlink:href="#DejaVuSans-65"/>
     <use x="109.357422" xlink:href="#DejaVuSans-73"/>
    </g>
   </g>
   <g id="text_63">
    <!-- 9% -->
    <g style="fill:#262626;" transform="translate(682.425764 346.035563)scale(0.1 -0.1)">
     <use xlink:href="#DejaVuSans-39"/>
     <use x="63.623047" xlink:href="#DejaVuSans-25"/>
    </g>
   </g>
   <g id="text_64">
    <!-- No -->
    <g style="fill:#262626;" transform="translate(620.526277 406.242508)scale(0.1 -0.1)">
     <use xlink:href="#DejaVuSans-4e"/>
     <use x="74.804688" xlink:href="#DejaVuSans-6f"/>
    </g>
   </g>
   <g id="text_65">
    <!-- 91% -->
    <g style="fill:#262626;" transform="translate(638.632862 389.518357)scale(0.1 -0.1)">
     <use xlink:href="#DejaVuSans-39"/>
     <use x="63.623047" xlink:href="#DejaVuSans-31"/>
     <use x="127.246094" xlink:href="#DejaVuSans-25"/>
    </g>
   </g>
   <g id="text_66">
    <!-- OBO -->
    <g style="fill:#262626;" transform="translate(655.03217 303.48)scale(0.12 -0.12)">
     <use xlink:href="#DejaVuSans-4f"/>
     <use x="78.710938" xlink:href="#DejaVuSans-42"/>
     <use x="145.564453" xlink:href="#DejaVuSans-4f"/>
    </g>
   </g>
  </g>
  <g id="axes_13">
   <g id="matplotlib.axis_25"/>
   <g id="matplotlib.axis_26"/>
   <g id="patch_29">
    <path d="M 141.399241 480.83153 
C 136.1495 471.738712 127.927405 464.723578 118.121488 460.97083 
C 108.315572 457.218083 97.510762 456.951575 87.531754 460.216315 
L 101.76299 503.71553 
L 141.399241 480.83153 
z
" style="fill:#1f77b4;stroke:#ffffff;stroke-linejoin:miter;"/>
   </g>
   <g id="patch_30">
    <path d="M 85.895904 464.490785 
C 81.428649 465.952295 77.213076 468.093285 73.397697 470.838328 
C 69.582319 473.583372 66.212471 476.89985 63.406874 480.670924 
C 60.601277 484.441999 58.393268 488.622859 56.860635 493.066215 
C 55.328002 497.509572 54.488956 502.162624 54.373056 506.861448 
C 54.257157 511.560272 54.865782 516.249032 56.177488 520.762546 
C 57.489195 525.276059 59.488398 529.560693 62.104664 533.465501 
C 64.720931 537.370309 67.923174 540.848892 71.598579 543.7787 
C 75.273984 546.708508 79.378878 549.054727 83.768646 550.734701 
C 88.158414 552.414676 92.780895 553.408442 97.473239 553.680991 
C 102.165583 553.953539 106.872034 553.501632 111.426784 552.341188 
C 115.981534 551.180744 120.330461 549.325554 124.320354 546.840975 
C 128.310246 544.356396 131.893694 541.271951 134.944453 537.696305 
C 137.995213 534.120658 140.477032 530.096299 142.302478 525.765003 
C 144.127924 521.433707 145.275305 516.846942 145.7042 512.166298 
C 146.133095 507.485654 145.838407 502.76675 144.830517 498.175831 
C 143.822628 493.584912 142.113514 489.176531 139.763387 485.105993 
L 100.12714 507.99 
L 85.895904 464.490785 
z
" style="fill:#ff7f0e;stroke:#ffffff;stroke-linejoin:miter;"/>
   </g>
   <g id="text_67">
    <!-- Yes -->
    <g style="fill:#262626;" transform="translate(119.757338 459.455735)scale(0.1 -0.1)">
     <use xlink:href="#DejaVuSans-59"/>
     <use x="47.833984" xlink:href="#DejaVuSans-65"/>
     <use x="109.357422" xlink:href="#DejaVuSans-73"/>
    </g>
   </g>
   <g id="text_68">
    <!-- 22% -->
    <g style="fill:#262626;" transform="translate(100.464808 480.828085)scale(0.1 -0.1)">
     <use xlink:href="#DejaVuSans-32"/>
     <use x="63.623047" xlink:href="#DejaVuSans-32"/>
     <use x="127.246094" xlink:href="#DejaVuSans-25"/>
    </g>
   </g>
   <g id="text_69">
    <!-- No -->
    <g style="fill:#262626;" transform="translate(68.532797 557.768546)scale(0.1 -0.1)">
     <use xlink:href="#DejaVuSans-4e"/>
     <use x="74.804688" xlink:href="#DejaVuSans-6f"/>
    </g>
   </g>
   <g id="text_70">
    <!-- 78% -->
    <g style="fill:#262626;" transform="translate(79.198763 536.396196)scale(0.1 -0.1)">
     <use xlink:href="#DejaVuSans-37"/>
     <use x="63.623047" xlink:href="#DejaVuSans-38"/>
     <use x="127.246094" xlink:href="#DejaVuSans-25"/>
    </g>
   </g>
   <g id="text_71">
    <!-- OWL -->
    <g style="fill:#262626;" transform="translate(86.12839 444.78)scale(0.12 -0.12)">
     <use xlink:href="#DejaVuSans-4f"/>
     <use x="78.710938" xlink:href="#DejaVuSans-57"/>
     <use x="177.587891" xlink:href="#DejaVuSans-4c"/>
    </g>
   </g>
  </g>
  <g id="axes_14">
   <g id="matplotlib.axis_27"/>
   <g id="matplotlib.axis_28"/>
   <g id="patch_31">
    <path d="M 333.06802 482.631749 
C 332.705216 482.003355 332.32752 481.383677 331.935252 480.773242 
C 331.542983 480.162806 331.136253 479.561786 330.715407 478.97069 
L 293.431769 505.515749 
L 333.06802 482.631749 
z
" style="fill:#1f77b4;stroke:#ffffff;stroke-linejoin:miter;"/>
   </g>
   <g id="patch_32">
    <path d="M 326.865059 481.44494 
C 323.432293 476.623479 319.09664 472.513359 314.098845 469.342804 
C 309.10105 466.172249 303.535363 464.00105 297.71083 462.949768 
C 291.886298 461.898485 285.91276 461.986944 280.121911 463.210233 
C 274.331061 464.433523 268.832105 466.768572 263.930384 470.085725 
C 259.028662 473.402877 254.816612 477.639575 251.528118 482.560569 
C 248.239624 487.481562 245.9367 492.99405 244.747221 498.791939 
C 243.557742 504.589827 243.50414 510.563779 244.58939 516.382078 
C 245.674641 522.200377 247.878278 527.753301 251.077941 532.732511 
C 254.277604 537.711721 258.412952 542.023318 263.254362 545.427892 
C 268.095771 548.832466 273.551942 551.265813 279.319909 552.592816 
C 285.087875 553.919819 291.058864 554.115452 296.901322 553.168854 
C 302.743781 552.222256 308.347532 550.151277 313.401414 547.070913 
C 318.455297 543.990548 322.864004 539.958889 326.382733 535.199801 
C 329.901462 530.440713 332.463856 525.043944 333.927632 519.309161 
C 335.391408 513.574379 335.728963 507.60973 334.921552 501.746415 
C 334.114141 495.8831 332.176992 490.231691 329.217668 485.105993 
L 289.581421 507.99 
L 326.865059 481.44494 
z
" style="fill:#ff7f0e;stroke:#ffffff;stroke-linejoin:miter;"/>
   </g>
   <g id="text_72">
    <!-- Yes -->
    <g style="fill:#262626;" transform="translate(335.7856 481.058366)scale(0.1 -0.1)">
     <use xlink:href="#DejaVuSans-59"/>
     <use x="47.833984" xlink:href="#DejaVuSans-65"/>
     <use x="109.357422" xlink:href="#DejaVuSans-73"/>
    </g>
   </g>
   <g id="text_73">
    <!-- 2% -->
    <g style="fill:#262626;" transform="translate(308.601827 493.42962)scale(0.1 -0.1)">
     <use xlink:href="#DejaVuSans-32"/>
     <use x="63.623047" xlink:href="#DejaVuSans-25"/>
    </g>
   </g>
   <g id="text_74">
    <!-- No -->
    <g style="fill:#262626;" transform="translate(233.627593 537.966137)scale(0.1 -0.1)">
     <use xlink:href="#DejaVuSans-4e"/>
     <use x="74.804688" xlink:href="#DejaVuSans-6f"/>
    </g>
   </g>
   <g id="text_75">
    <!-- 98% -->
    <g style="fill:#262626;" transform="translate(255.366052 525.594881)scale(0.1 -0.1)">
     <use xlink:href="#DejaVuSans-39"/>
     <use x="63.623047" xlink:href="#DejaVuSans-38"/>
     <use x="127.246094" xlink:href="#DejaVuSans-25"/>
    </g>
   </g>
   <g id="text_76">
    <!-- JSON -->
    <g style="fill:#262626;" transform="translate(274.790484 444.78)scale(0.12 -0.12)">
     <defs>
      <path d="M 628 4666 
L 1259 4666 
L 1259 325 
Q 1259 -519 939 -900 
Q 619 -1281 -91 -1281 
L -331 -1281 
L -331 -750 
L -134 -750 
Q 284 -750 456 -515 
Q 628 -281 628 325 
L 628 4666 
z
" id="DejaVuSans-4a" transform="scale(0.015625)"/>
      <path d="M 3425 4513 
L 3425 3897 
Q 3066 4069 2747 4153 
Q 2428 4238 2131 4238 
Q 1616 4238 1336 4038 
Q 1056 3838 1056 3469 
Q 1056 3159 1242 3001 
Q 1428 2844 1947 2747 
L 2328 2669 
Q 3034 2534 3370 2195 
Q 3706 1856 3706 1288 
Q 3706 609 3251 259 
Q 2797 -91 1919 -91 
Q 1588 -91 1214 -16 
Q 841 59 441 206 
L 441 856 
Q 825 641 1194 531 
Q 1563 422 1919 422 
Q 2459 422 2753 634 
Q 3047 847 3047 1241 
Q 3047 1584 2836 1778 
Q 2625 1972 2144 2069 
L 1759 2144 
Q 1053 2284 737 2584 
Q 422 2884 422 3419 
Q 422 4038 858 4394 
Q 1294 4750 2059 4750 
Q 2388 4750 2728 4690 
Q 3069 4631 3425 4513 
z
" id="DejaVuSans-53" transform="scale(0.015625)"/>
     </defs>
     <use xlink:href="#DejaVuSans-4a"/>
     <use x="29.492188" xlink:href="#DejaVuSans-53"/>
     <use x="92.96875" xlink:href="#DejaVuSans-4f"/>
     <use x="171.679688" xlink:href="#DejaVuSans-4e"/>
    </g>
   </g>
  </g>
  <g id="axes_15"/>
  <g id="axes_16"/>
  <g id="text_77">
   <!-- https://github.com/bioregistry/bioregistry (2021-08-03) -->
   <g style="fill:#808080;opacity:0.5;" transform="translate(285.830625 574.33625)scale(0.08 -0.08)">
    <defs>
     <path d="M 750 794 
L 1409 794 
L 1409 0 
L 750 0 
L 750 794 
z
M 750 3309 
L 1409 3309 
L 1409 2516 
L 750 2516 
L 750 3309 
z
" id="DejaVuSans-3a" transform="scale(0.015625)"/>
     <path d="M 1625 4666 
L 2156 4666 
L 531 -594 
L 0 -594 
L 1625 4666 
z
" id="DejaVuSans-2f" transform="scale(0.015625)"/>
     <path d="M 544 1381 
L 544 3500 
L 1119 3500 
L 1119 1403 
Q 1119 906 1312 657 
Q 1506 409 1894 409 
Q 2359 409 2629 706 
Q 2900 1003 2900 1516 
L 2900 3500 
L 3475 3500 
L 3475 0 
L 2900 0 
L 2900 538 
Q 2691 219 2414 64 
Q 2138 -91 1772 -91 
Q 1169 -91 856 284 
Q 544 659 544 1381 
z
M 1991 3584 
L 1991 3584 
z
" id="DejaVuSans-75" transform="scale(0.015625)"/>
     <path d="M 1984 4856 
Q 1566 4138 1362 3434 
Q 1159 2731 1159 2009 
Q 1159 1288 1364 580 
Q 1569 -128 1984 -844 
L 1484 -844 
Q 1016 -109 783 600 
Q 550 1309 550 2009 
Q 550 2706 781 3412 
Q 1013 4119 1484 4856 
L 1984 4856 
z
" id="DejaVuSans-28" transform="scale(0.015625)"/>
     <path d="M 513 4856 
L 1013 4856 
Q 1481 4119 1714 3412 
Q 1947 2706 1947 2009 
Q 1947 1309 1714 600 
Q 1481 -109 1013 -844 
L 513 -844 
Q 928 -128 1133 580 
Q 1338 1288 1338 2009 
Q 1338 2731 1133 3434 
Q 928 4138 513 4856 
z
" id="DejaVuSans-29" transform="scale(0.015625)"/>
    </defs>
    <use xlink:href="#DejaVuSans-68"/>
    <use x="63.378906" xlink:href="#DejaVuSans-74"/>
    <use x="102.587891" xlink:href="#DejaVuSans-74"/>
    <use x="141.796875" xlink:href="#DejaVuSans-70"/>
    <use x="205.273438" xlink:href="#DejaVuSans-73"/>
    <use x="257.373047" xlink:href="#DejaVuSans-3a"/>
    <use x="291.064453" xlink:href="#DejaVuSans-2f"/>
    <use x="324.755859" xlink:href="#DejaVuSans-2f"/>
    <use x="358.447266" xlink:href="#DejaVuSans-67"/>
    <use x="421.923828" xlink:href="#DejaVuSans-69"/>
    <use x="449.707031" xlink:href="#DejaVuSans-74"/>
    <use x="488.916016" xlink:href="#DejaVuSans-68"/>
    <use x="552.294922" xlink:href="#DejaVuSans-75"/>
    <use x="615.673828" xlink:href="#DejaVuSans-62"/>
    <use x="679.150391" xlink:href="#DejaVuSans-2e"/>
    <use x="710.9375" xlink:href="#DejaVuSans-63"/>
    <use x="765.917969" xlink:href="#DejaVuSans-6f"/>
    <use x="827.099609" xlink:href="#DejaVuSans-6d"/>
    <use x="924.511719" xlink:href="#DejaVuSans-2f"/>
    <use x="958.203125" xlink:href="#DejaVuSans-62"/>
    <use x="1021.679688" xlink:href="#DejaVuSans-69"/>
    <use x="1049.462891" xlink:href="#DejaVuSans-6f"/>
    <use x="1110.644531" xlink:href="#DejaVuSans-72"/>
    <use x="1149.507812" xlink:href="#DejaVuSans-65"/>
    <use x="1211.03125" xlink:href="#DejaVuSans-67"/>
    <use x="1274.507812" xlink:href="#DejaVuSans-69"/>
    <use x="1302.291016" xlink:href="#DejaVuSans-73"/>
    <use x="1354.390625" xlink:href="#DejaVuSans-74"/>
    <use x="1393.599609" xlink:href="#DejaVuSans-72"/>
    <use x="1434.712891" xlink:href="#DejaVuSans-79"/>
    <use x="1493.892578" xlink:href="#DejaVuSans-2f"/>
    <use x="1527.583984" xlink:href="#DejaVuSans-62"/>
    <use x="1591.060547" xlink:href="#DejaVuSans-69"/>
    <use x="1618.84375" xlink:href="#DejaVuSans-6f"/>
    <use x="1680.025391" xlink:href="#DejaVuSans-72"/>
    <use x="1718.888672" xlink:href="#DejaVuSans-65"/>
    <use x="1780.412109" xlink:href="#DejaVuSans-67"/>
    <use x="1843.888672" xlink:href="#DejaVuSans-69"/>
    <use x="1871.671875" xlink:href="#DejaVuSans-73"/>
    <use x="1923.771484" xlink:href="#DejaVuSans-74"/>
    <use x="1962.980469" xlink:href="#DejaVuSans-72"/>
    <use x="2004.09375" xlink:href="#DejaVuSans-79"/>
    <use x="2063.273438" xlink:href="#DejaVuSans-20"/>
    <use x="2095.060547" xlink:href="#DejaVuSans-28"/>
    <use x="2134.074219" xlink:href="#DejaVuSans-32"/>
    <use x="2197.697266" xlink:href="#DejaVuSans-30"/>
    <use x="2261.320312" xlink:href="#DejaVuSans-32"/>
    <use x="2324.943359" xlink:href="#DejaVuSans-31"/>
    <use x="2388.566406" xlink:href="#DejaVuSans-2d"/>
    <use x="2424.650391" xlink:href="#DejaVuSans-30"/>
    <use x="2488.273438" xlink:href="#DejaVuSans-38"/>
    <use x="2551.896484" xlink:href="#DejaVuSans-2d"/>
    <use x="2587.980469" xlink:href="#DejaVuSans-30"/>
    <use x="2651.603516" xlink:href="#DejaVuSans-33"/>
    <use x="2715.226562" xlink:href="#DejaVuSans-29"/>
   </g>
  </g>
 </g>
</svg>
