<?xml version="1.0" encoding="utf-8" standalone="no"?>
<!DOCTYPE svg PUBLIC "-//W3C//DTD SVG 1.1//EN"
  "http://www.w3.org/Graphics/SVG/1.1/DTD/svg11.dtd">
<svg xmlns:xlink="http://www.w3.org/1999/xlink" width="792pt" height="576pt" viewBox="0 0 792 576" xmlns="http://www.w3.org/2000/svg" version="1.1">
 <metadata>
  <rdf:RDF xmlns:dc="http://purl.org/dc/elements/1.1/" xmlns:cc="http://creativecommons.org/ns#" xmlns:rdf="http://www.w3.org/1999/02/22-rdf-syntax-ns#">
   <cc:Work>
    <dc:type rdf:resource="http://purl.org/dc/dcmitype/StillImage"/>
    <dc:date>2025-08-12T15:40:18.794351</dc:date>
    <dc:format>image/svg+xml</dc:format>
    <dc:creator>
     <cc:Agent>
      <dc:title>Matplotlib v3.10.5, https://matplotlib.org/</dc:title>
     </cc:Agent>
    </dc:creator>
   </cc:Work>
  </rdf:RDF>
 </metadata>
 <defs>
  <style type="text/css">*{stroke-linejoin: round; stroke-linecap: butt}</style>
 </defs>
 <g id="figure_1">
  <g id="patch_1">
   <path d="M 0 576 
L 792 576 
L 792 0 
L 0 0 
z
" style="fill: #ffffff"/>
  </g>
  <g id="axes_1">
   <g id="matplotlib.axis_1"/>
   <g id="matplotlib.axis_2"/>
   <g id="patch_2">
    <path d="M 136.604663 61.927474 
C 133.950846 57.330926 130.517561 53.230855 126.458609 49.810929 
C 122.399656 46.391002 117.776563 43.70306 112.796427 41.867512 
C 107.81629 40.031965 102.554601 39.076637 97.247064 39.044322 
C 91.939527 39.012007 86.666596 39.903196 81.664478 41.677967 
C 76.66236 43.452738 72.00688 46.084187 67.906586 49.454437 
C 63.806292 52.824686 60.323337 56.882648 57.613747 61.44654 
C 54.904156 66.010433 53.009002 71.011074 52.01318 76.224454 
C 51.017358 81.437834 50.935964 86.784927 51.772644 92.026202 
C 52.609323 97.267477 54.351394 102.323484 56.920817 106.967734 
C 59.49024 111.611984 62.848067 115.774077 66.84388 119.267567 
C 70.839694 122.761057 75.412923 125.532987 80.358704 127.459186 
C 85.304485 129.385385 90.547848 130.436655 95.85391 130.565902 
C 101.159971 130.695149 106.4483 129.900414 111.481998 128.217299 
C 116.515696 126.534183 121.218461 123.988201 125.379626 120.693402 
C 129.540791 117.398603 133.097279 113.404931 135.889774 108.891288 
C 138.682268 104.377646 140.668438 99.412452 141.759312 94.218129 
L 96.968413 84.811474 
z
" style="fill: #1f77b4; stroke: #ffffff; stroke-linejoin: miter"/>
   </g>
   <g id="patch_3">
    <path d="M 146.278888 93.496658 
C 147.427487 88.027478 147.56471 82.393889 146.683759 76.875271 
C 145.802805 71.356654 143.918485 66.045771 141.124239 61.205997 
L 101.487989 84.09 
z
" style="fill: #ff7f0e; stroke: #ffffff; stroke-linejoin: miter"/>
   </g>
   <g id="text_1">
    <!-- Yes -->
    <g style="fill: #262626" transform="translate(31.107756 95.507057) scale(0.1 -0.1)">
     <defs>
      <path id="DejaVuSans-59" d="M -13 4666 
L 666 4666 
L 1959 2747 
L 3244 4666 
L 3922 4666 
L 2272 2222 
L 2272 0 
L 1638 0 
L 1638 2222 
L -13 4666 
z
" transform="scale(0.015625)"/>
      <path id="DejaVuSans-65" d="M 3597 1894 
L 3597 1613 
L 953 1613 
Q 991 1019 1311 708 
Q 1631 397 2203 397 
Q 2534 397 2845 478 
Q 3156 559 3463 722 
L 3463 178 
Q 3153 47 2828 -22 
Q 2503 -91 2169 -91 
Q 1331 -91 842 396 
Q 353 884 353 1716 
Q 353 2575 817 3079 
Q 1281 3584 2069 3584 
Q 2775 3584 3186 3129 
Q 3597 2675 3597 1894 
z
M 3022 2063 
Q 3016 2534 2758 2815 
Q 2500 3097 2075 3097 
Q 1594 3097 1305 2825 
Q 1016 2553 972 2059 
L 3022 2063 
z
" transform="scale(0.015625)"/>
      <path id="DejaVuSans-73" d="M 2834 3397 
L 2834 2853 
Q 2591 2978 2328 3040 
Q 2066 3103 1784 3103 
Q 1356 3103 1142 2972 
Q 928 2841 928 2578 
Q 928 2378 1081 2264 
Q 1234 2150 1697 2047 
L 1894 2003 
Q 2506 1872 2764 1633 
Q 3022 1394 3022 966 
Q 3022 478 2636 193 
Q 2250 -91 1575 -91 
Q 1294 -91 989 -36 
Q 684 19 347 128 
L 347 722 
Q 666 556 975 473 
Q 1284 391 1588 391 
Q 1994 391 2212 530 
Q 2431 669 2431 922 
Q 2431 1156 2273 1281 
Q 2116 1406 1581 1522 
L 1381 1569 
Q 847 1681 609 1914 
Q 372 2147 372 2553 
Q 372 3047 722 3315 
Q 1072 3584 1716 3584 
Q 2034 3584 2315 3537 
Q 2597 3491 2834 3397 
z
" transform="scale(0.015625)"/>
     </defs>
     <use xlink:href="#DejaVuSans-59"/>
     <use xlink:href="#DejaVuSans-65" transform="translate(47.833984 0)"/>
     <use xlink:href="#DejaVuSans-73" transform="translate(109.357422 0)"/>
    </g>
   </g>
   <g id="text_2">
    <!-- 88% -->
    <g style="fill: #262626" transform="translate(58.737671 91.89969) scale(0.1 -0.1)">
     <defs>
      <path id="DejaVuSans-38" d="M 2034 2216 
Q 1584 2216 1326 1975 
Q 1069 1734 1069 1313 
Q 1069 891 1326 650 
Q 1584 409 2034 409 
Q 2484 409 2743 651 
Q 3003 894 3003 1313 
Q 3003 1734 2745 1975 
Q 2488 2216 2034 2216 
z
M 1403 2484 
Q 997 2584 770 2862 
Q 544 3141 544 3541 
Q 544 4100 942 4425 
Q 1341 4750 2034 4750 
Q 2731 4750 3128 4425 
Q 3525 4100 3525 3541 
Q 3525 3141 3298 2862 
Q 3072 2584 2669 2484 
Q 3125 2378 3379 2068 
Q 3634 1759 3634 1313 
Q 3634 634 3220 271 
Q 2806 -91 2034 -91 
Q 1263 -91 848 271 
Q 434 634 434 1313 
Q 434 1759 690 2068 
Q 947 2378 1403 2484 
z
M 1172 3481 
Q 1172 3119 1398 2916 
Q 1625 2713 2034 2713 
Q 2441 2713 2670 2916 
Q 2900 3119 2900 3481 
Q 2900 3844 2670 4047 
Q 2441 4250 2034 4250 
Q 1625 4250 1398 4047 
Q 1172 3844 1172 3481 
z
" transform="scale(0.015625)"/>
      <path id="DejaVuSans-25" d="M 4653 2053 
Q 4381 2053 4226 1822 
Q 4072 1591 4072 1178 
Q 4072 772 4226 539 
Q 4381 306 4653 306 
Q 4919 306 5073 539 
Q 5228 772 5228 1178 
Q 5228 1588 5073 1820 
Q 4919 2053 4653 2053 
z
M 4653 2450 
Q 5147 2450 5437 2106 
Q 5728 1763 5728 1178 
Q 5728 594 5436 251 
Q 5144 -91 4653 -91 
Q 4153 -91 3862 251 
Q 3572 594 3572 1178 
Q 3572 1766 3864 2108 
Q 4156 2450 4653 2450 
z
M 1428 4353 
Q 1159 4353 1004 4120 
Q 850 3888 850 3481 
Q 850 3069 1003 2837 
Q 1156 2606 1428 2606 
Q 1700 2606 1854 2837 
Q 2009 3069 2009 3481 
Q 2009 3884 1853 4118 
Q 1697 4353 1428 4353 
z
M 4250 4750 
L 4750 4750 
L 1831 -91 
L 1331 -91 
L 4250 4750 
z
M 1428 4750 
Q 1922 4750 2215 4408 
Q 2509 4066 2509 3481 
Q 2509 2891 2217 2550 
Q 1925 2209 1428 2209 
Q 931 2209 642 2551 
Q 353 2894 353 3481 
Q 353 4063 643 4406 
Q 934 4750 1428 4750 
z
" transform="scale(0.015625)"/>
     </defs>
     <use xlink:href="#DejaVuSans-38"/>
     <use xlink:href="#DejaVuSans-38" transform="translate(63.623047 0)"/>
     <use xlink:href="#DejaVuSans-25" transform="translate(127.246094 0)"/>
    </g>
   </g>
   <g id="text_3">
    <!-- No -->
    <g style="fill: #262626" transform="translate(151.203331 78.91315) scale(0.1 -0.1)">
     <defs>
      <path id="DejaVuSans-4e" d="M 628 4666 
L 1478 4666 
L 3547 763 
L 3547 4666 
L 4159 4666 
L 4159 0 
L 3309 0 
L 1241 3903 
L 1241 0 
L 628 0 
L 628 4666 
z
" transform="scale(0.015625)"/>
      <path id="DejaVuSans-6f" d="M 1959 3097 
Q 1497 3097 1228 2736 
Q 959 2375 959 1747 
Q 959 1119 1226 758 
Q 1494 397 1959 397 
Q 2419 397 2687 759 
Q 2956 1122 2956 1747 
Q 2956 2369 2687 2733 
Q 2419 3097 1959 3097 
z
M 1959 3584 
Q 2709 3584 3137 3096 
Q 3566 2609 3566 1747 
Q 3566 888 3137 398 
Q 2709 -91 1959 -91 
Q 1206 -91 779 398 
Q 353 888 353 1747 
Q 353 2609 779 3096 
Q 1206 3584 1959 3584 
z
" transform="scale(0.015625)"/>
     </defs>
     <use xlink:href="#DejaVuSans-4e"/>
     <use xlink:href="#DejaVuSans-6f" transform="translate(74.804688 0)"/>
    </g>
   </g>
   <g id="text_4">
    <!-- 12% -->
    <g style="fill: #262626" transform="translate(117.492167 82.520525) scale(0.1 -0.1)">
     <defs>
      <path id="DejaVuSans-31" d="M 794 531 
L 1825 531 
L 1825 4091 
L 703 3866 
L 703 4441 
L 1819 4666 
L 2450 4666 
L 2450 531 
L 3481 531 
L 3481 0 
L 794 0 
L 794 531 
z
" transform="scale(0.015625)"/>
      <path id="DejaVuSans-32" d="M 1228 531 
L 3431 531 
L 3431 0 
L 469 0 
L 469 531 
Q 828 903 1448 1529 
Q 2069 2156 2228 2338 
Q 2531 2678 2651 2914 
Q 2772 3150 2772 3378 
Q 2772 3750 2511 3984 
Q 2250 4219 1831 4219 
Q 1534 4219 1204 4116 
Q 875 4013 500 3803 
L 500 4441 
Q 881 4594 1212 4672 
Q 1544 4750 1819 4750 
Q 2544 4750 2975 4387 
Q 3406 4025 3406 3419 
Q 3406 3131 3298 2873 
Q 3191 2616 2906 2266 
Q 2828 2175 2409 1742 
Q 1991 1309 1228 531 
z
" transform="scale(0.015625)"/>
     </defs>
     <use xlink:href="#DejaVuSans-31"/>
     <use xlink:href="#DejaVuSans-32" transform="translate(63.623047 0)"/>
     <use xlink:href="#DejaVuSans-25" transform="translate(127.246094 0)"/>
    </g>
   </g>
   <g id="text_5">
    <!-- Name -->
    <g style="fill: #262626" transform="translate(83.786114 20.88) scale(0.12 -0.12)">
     <defs>
      <path id="DejaVuSans-61" d="M 2194 1759 
Q 1497 1759 1228 1600 
Q 959 1441 959 1056 
Q 959 750 1161 570 
Q 1363 391 1709 391 
Q 2188 391 2477 730 
Q 2766 1069 2766 1631 
L 2766 1759 
L 2194 1759 
z
M 3341 1997 
L 3341 0 
L 2766 0 
L 2766 531 
Q 2569 213 2275 61 
Q 1981 -91 1556 -91 
Q 1019 -91 701 211 
Q 384 513 384 1019 
Q 384 1609 779 1909 
Q 1175 2209 1959 2209 
L 2766 2209 
L 2766 2266 
Q 2766 2663 2505 2880 
Q 2244 3097 1772 3097 
Q 1472 3097 1187 3025 
Q 903 2953 641 2809 
L 641 3341 
Q 956 3463 1253 3523 
Q 1550 3584 1831 3584 
Q 2591 3584 2966 3190 
Q 3341 2797 3341 1997 
z
" transform="scale(0.015625)"/>
      <path id="DejaVuSans-6d" d="M 3328 2828 
Q 3544 3216 3844 3400 
Q 4144 3584 4550 3584 
Q 5097 3584 5394 3201 
Q 5691 2819 5691 2113 
L 5691 0 
L 5113 0 
L 5113 2094 
Q 5113 2597 4934 2840 
Q 4756 3084 4391 3084 
Q 3944 3084 3684 2787 
Q 3425 2491 3425 1978 
L 3425 0 
L 2847 0 
L 2847 2094 
Q 2847 2600 2669 2842 
Q 2491 3084 2119 3084 
Q 1678 3084 1418 2786 
Q 1159 2488 1159 1978 
L 1159 0 
L 581 0 
L 581 3500 
L 1159 3500 
L 1159 2956 
Q 1356 3278 1631 3431 
Q 1906 3584 2284 3584 
Q 2666 3584 2933 3390 
Q 3200 3197 3328 2828 
z
" transform="scale(0.015625)"/>
     </defs>
     <use xlink:href="#DejaVuSans-4e"/>
     <use xlink:href="#DejaVuSans-61" transform="translate(74.804688 0)"/>
     <use xlink:href="#DejaVuSans-6d" transform="translate(136.083984 0)"/>
     <use xlink:href="#DejaVuSans-65" transform="translate(233.496094 0)"/>
    </g>
   </g>
  </g>
  <g id="axes_2">
   <g id="matplotlib.axis_3"/>
   <g id="matplotlib.axis_4"/>
   <g id="patch_4">
    <path d="M 328.780642 61.927474 
C 326.126824 57.330926 322.69354 53.230855 318.634588 49.810929 
C 314.575635 46.391002 309.952542 43.70306 304.972405 41.867512 
C 299.992269 40.031965 294.73058 39.076637 289.423043 39.044322 
C 284.115506 39.012007 278.842574 39.903196 273.840457 41.677967 
C 268.838339 43.452738 264.182859 46.084187 260.082564 49.454437 
C 255.98227 52.824686 252.499316 56.882648 249.789725 61.44654 
C 247.080135 66.010433 245.184981 71.011074 244.189159 76.224454 
C 243.193337 81.437834 243.111943 86.784927 243.948622 92.026202 
C 244.785302 97.267477 246.527372 102.323484 249.096796 106.967734 
C 251.666219 111.611984 255.024046 115.774077 259.019859 119.267567 
C 263.015673 122.761057 267.588902 125.532987 272.534683 127.459186 
C 277.480464 129.385385 282.723827 130.436655 288.029889 130.565902 
C 293.33595 130.695149 298.624279 129.900414 303.657977 128.217299 
C 308.691675 126.534183 313.39444 123.988201 317.555605 120.693402 
C 321.71677 117.398603 325.273258 113.404931 328.065752 108.891288 
C 330.858247 104.377646 332.844417 99.412452 333.935291 94.218129 
L 289.144391 84.811474 
z
" style="fill: #1f77b4; stroke: #ffffff; stroke-linejoin: miter"/>
   </g>
   <g id="patch_5">
    <path d="M 338.454866 93.496658 
C 339.603466 88.027478 339.740689 82.393889 338.859738 76.875271 
C 337.978784 71.356654 336.094464 66.045771 333.300218 61.205997 
L 293.663968 84.09 
z
" style="fill: #ff7f0e; stroke: #ffffff; stroke-linejoin: miter"/>
   </g>
   <g id="text_6">
    <!-- Yes -->
    <g style="fill: #262626" transform="translate(223.283734 95.507057) scale(0.1 -0.1)">
     <use xlink:href="#DejaVuSans-59"/>
     <use xlink:href="#DejaVuSans-65" transform="translate(47.833984 0)"/>
     <use xlink:href="#DejaVuSans-73" transform="translate(109.357422 0)"/>
    </g>
   </g>
   <g id="text_7">
    <!-- 88% -->
    <g style="fill: #262626" transform="translate(250.913649 91.89969) scale(0.1 -0.1)">
     <use xlink:href="#DejaVuSans-38"/>
     <use xlink:href="#DejaVuSans-38" transform="translate(63.623047 0)"/>
     <use xlink:href="#DejaVuSans-25" transform="translate(127.246094 0)"/>
    </g>
   </g>
   <g id="text_8">
    <!-- No -->
    <g style="fill: #262626" transform="translate(343.37931 78.91315) scale(0.1 -0.1)">
     <use xlink:href="#DejaVuSans-4e"/>
     <use xlink:href="#DejaVuSans-6f" transform="translate(74.804688 0)"/>
    </g>
   </g>
   <g id="text_9">
    <!-- 12% -->
    <g style="fill: #262626" transform="translate(309.668146 82.520525) scale(0.1 -0.1)">
     <use xlink:href="#DejaVuSans-31"/>
     <use xlink:href="#DejaVuSans-32" transform="translate(63.623047 0)"/>
     <use xlink:href="#DejaVuSans-25" transform="translate(127.246094 0)"/>
    </g>
   </g>
   <g id="text_10">
    <!-- Homepage -->
    <g style="fill: #262626" transform="translate(260.957406 20.88) scale(0.12 -0.12)">
     <defs>
      <path id="DejaVuSans-48" d="M 628 4666 
L 1259 4666 
L 1259 2753 
L 3553 2753 
L 3553 4666 
L 4184 4666 
L 4184 0 
L 3553 0 
L 3553 2222 
L 1259 2222 
L 1259 0 
L 628 0 
L 628 4666 
z
" transform="scale(0.015625)"/>
      <path id="DejaVuSans-70" d="M 1159 525 
L 1159 -1331 
L 581 -1331 
L 581 3500 
L 1159 3500 
L 1159 2969 
Q 1341 3281 1617 3432 
Q 1894 3584 2278 3584 
Q 2916 3584 3314 3078 
Q 3713 2572 3713 1747 
Q 3713 922 3314 415 
Q 2916 -91 2278 -91 
Q 1894 -91 1617 61 
Q 1341 213 1159 525 
z
M 3116 1747 
Q 3116 2381 2855 2742 
Q 2594 3103 2138 3103 
Q 1681 3103 1420 2742 
Q 1159 2381 1159 1747 
Q 1159 1113 1420 752 
Q 1681 391 2138 391 
Q 2594 391 2855 752 
Q 3116 1113 3116 1747 
z
" transform="scale(0.015625)"/>
      <path id="DejaVuSans-67" d="M 2906 1791 
Q 2906 2416 2648 2759 
Q 2391 3103 1925 3103 
Q 1463 3103 1205 2759 
Q 947 2416 947 1791 
Q 947 1169 1205 825 
Q 1463 481 1925 481 
Q 2391 481 2648 825 
Q 2906 1169 2906 1791 
z
M 3481 434 
Q 3481 -459 3084 -895 
Q 2688 -1331 1869 -1331 
Q 1566 -1331 1297 -1286 
Q 1028 -1241 775 -1147 
L 775 -588 
Q 1028 -725 1275 -790 
Q 1522 -856 1778 -856 
Q 2344 -856 2625 -561 
Q 2906 -266 2906 331 
L 2906 616 
Q 2728 306 2450 153 
Q 2172 0 1784 0 
Q 1141 0 747 490 
Q 353 981 353 1791 
Q 353 2603 747 3093 
Q 1141 3584 1784 3584 
Q 2172 3584 2450 3431 
Q 2728 3278 2906 2969 
L 2906 3500 
L 3481 3500 
L 3481 434 
z
" transform="scale(0.015625)"/>
     </defs>
     <use xlink:href="#DejaVuSans-48"/>
     <use xlink:href="#DejaVuSans-6f" transform="translate(75.195312 0)"/>
     <use xlink:href="#DejaVuSans-6d" transform="translate(136.376953 0)"/>
     <use xlink:href="#DejaVuSans-65" transform="translate(233.789062 0)"/>
     <use xlink:href="#DejaVuSans-70" transform="translate(295.3125 0)"/>
     <use xlink:href="#DejaVuSans-61" transform="translate(358.789062 0)"/>
     <use xlink:href="#DejaVuSans-67" transform="translate(420.068359 0)"/>
     <use xlink:href="#DejaVuSans-65" transform="translate(483.544922 0)"/>
    </g>
   </g>
  </g>
  <g id="axes_3">
   <g id="matplotlib.axis_5"/>
   <g id="matplotlib.axis_6"/>
   <g id="patch_6">
    <path d="M 520.956621 61.927474 
C 518.302803 57.330926 514.869519 53.230855 510.810566 49.810929 
C 506.751614 46.391002 502.128521 43.70306 497.148384 41.867512 
C 492.168248 40.031965 486.906559 39.076637 481.599022 39.044322 
C 476.291484 39.012007 471.018553 39.903196 466.016435 41.677967 
C 461.014317 43.452738 456.358837 46.084187 452.258543 49.454437 
C 448.158249 52.824686 444.675295 56.882648 441.965704 61.44654 
C 439.256114 66.010433 437.360959 71.011074 436.365138 76.224454 
C 435.369316 81.437834 435.287922 86.784927 436.124601 92.026202 
C 436.961281 97.267477 438.703351 102.323484 441.272774 106.967734 
C 443.842197 111.611984 447.200025 115.774077 451.195838 119.267567 
C 455.191651 122.761057 459.76488 125.532987 464.710662 127.459186 
C 469.656443 129.385385 474.899806 130.436655 480.205867 130.565902 
C 485.511929 130.695149 490.800257 129.900414 495.833956 128.217299 
C 500.867654 126.534183 505.570419 123.988201 509.731583 120.693402 
C 513.892748 117.398603 517.449237 113.404931 520.241731 108.891288 
C 523.034225 104.377646 525.020396 99.412452 526.111269 94.218129 
L 481.32037 84.811474 
z
" style="fill: #1f77b4; stroke: #ffffff; stroke-linejoin: miter"/>
   </g>
   <g id="patch_7">
    <path d="M 530.630845 93.496658 
C 531.779444 88.027478 531.916668 82.393889 531.035716 76.875271 
C 530.154763 71.356654 528.270442 66.045771 525.476197 61.205997 
L 485.839947 84.09 
z
" style="fill: #ff7f0e; stroke: #ffffff; stroke-linejoin: miter"/>
   </g>
   <g id="text_11">
    <!-- Yes -->
    <g style="fill: #262626" transform="translate(415.459713 95.507057) scale(0.1 -0.1)">
     <use xlink:href="#DejaVuSans-59"/>
     <use xlink:href="#DejaVuSans-65" transform="translate(47.833984 0)"/>
     <use xlink:href="#DejaVuSans-73" transform="translate(109.357422 0)"/>
    </g>
   </g>
   <g id="text_12">
    <!-- 88% -->
    <g style="fill: #262626" transform="translate(443.089628 91.89969) scale(0.1 -0.1)">
     <use xlink:href="#DejaVuSans-38"/>
     <use xlink:href="#DejaVuSans-38" transform="translate(63.623047 0)"/>
     <use xlink:href="#DejaVuSans-25" transform="translate(127.246094 0)"/>
    </g>
   </g>
   <g id="text_13">
    <!-- No -->
    <g style="fill: #262626" transform="translate(535.555289 78.91315) scale(0.1 -0.1)">
     <use xlink:href="#DejaVuSans-4e"/>
     <use xlink:href="#DejaVuSans-6f" transform="translate(74.804688 0)"/>
    </g>
   </g>
   <g id="text_14">
    <!-- 12% -->
    <g style="fill: #262626" transform="translate(501.844125 82.520525) scale(0.1 -0.1)">
     <use xlink:href="#DejaVuSans-31"/>
     <use xlink:href="#DejaVuSans-32" transform="translate(63.623047 0)"/>
     <use xlink:href="#DejaVuSans-25" transform="translate(127.246094 0)"/>
    </g>
   </g>
   <g id="text_15">
    <!-- Description -->
    <g style="fill: #262626" transform="translate(451.668072 20.88) scale(0.12 -0.12)">
     <defs>
      <path id="DejaVuSans-44" d="M 1259 4147 
L 1259 519 
L 2022 519 
Q 2988 519 3436 956 
Q 3884 1394 3884 2338 
Q 3884 3275 3436 3711 
Q 2988 4147 2022 4147 
L 1259 4147 
z
M 628 4666 
L 1925 4666 
Q 3281 4666 3915 4102 
Q 4550 3538 4550 2338 
Q 4550 1131 3912 565 
Q 3275 0 1925 0 
L 628 0 
L 628 4666 
z
" transform="scale(0.015625)"/>
      <path id="DejaVuSans-63" d="M 3122 3366 
L 3122 2828 
Q 2878 2963 2633 3030 
Q 2388 3097 2138 3097 
Q 1578 3097 1268 2742 
Q 959 2388 959 1747 
Q 959 1106 1268 751 
Q 1578 397 2138 397 
Q 2388 397 2633 464 
Q 2878 531 3122 666 
L 3122 134 
Q 2881 22 2623 -34 
Q 2366 -91 2075 -91 
Q 1284 -91 818 406 
Q 353 903 353 1747 
Q 353 2603 823 3093 
Q 1294 3584 2113 3584 
Q 2378 3584 2631 3529 
Q 2884 3475 3122 3366 
z
" transform="scale(0.015625)"/>
      <path id="DejaVuSans-72" d="M 2631 2963 
Q 2534 3019 2420 3045 
Q 2306 3072 2169 3072 
Q 1681 3072 1420 2755 
Q 1159 2438 1159 1844 
L 1159 0 
L 581 0 
L 581 3500 
L 1159 3500 
L 1159 2956 
Q 1341 3275 1631 3429 
Q 1922 3584 2338 3584 
Q 2397 3584 2469 3576 
Q 2541 3569 2628 3553 
L 2631 2963 
z
" transform="scale(0.015625)"/>
      <path id="DejaVuSans-69" d="M 603 3500 
L 1178 3500 
L 1178 0 
L 603 0 
L 603 3500 
z
M 603 4863 
L 1178 4863 
L 1178 4134 
L 603 4134 
L 603 4863 
z
" transform="scale(0.015625)"/>
      <path id="DejaVuSans-74" d="M 1172 4494 
L 1172 3500 
L 2356 3500 
L 2356 3053 
L 1172 3053 
L 1172 1153 
Q 1172 725 1289 603 
Q 1406 481 1766 481 
L 2356 481 
L 2356 0 
L 1766 0 
Q 1100 0 847 248 
Q 594 497 594 1153 
L 594 3053 
L 172 3053 
L 172 3500 
L 594 3500 
L 594 4494 
L 1172 4494 
z
" transform="scale(0.015625)"/>
      <path id="DejaVuSans-6e" d="M 3513 2113 
L 3513 0 
L 2938 0 
L 2938 2094 
Q 2938 2591 2744 2837 
Q 2550 3084 2163 3084 
Q 1697 3084 1428 2787 
Q 1159 2491 1159 1978 
L 1159 0 
L 581 0 
L 581 3500 
L 1159 3500 
L 1159 2956 
Q 1366 3272 1645 3428 
Q 1925 3584 2291 3584 
Q 2894 3584 3203 3211 
Q 3513 2838 3513 2113 
z
" transform="scale(0.015625)"/>
     </defs>
     <use xlink:href="#DejaVuSans-44"/>
     <use xlink:href="#DejaVuSans-65" transform="translate(77.001953 0)"/>
     <use xlink:href="#DejaVuSans-73" transform="translate(138.525391 0)"/>
     <use xlink:href="#DejaVuSans-63" transform="translate(190.625 0)"/>
     <use xlink:href="#DejaVuSans-72" transform="translate(245.605469 0)"/>
     <use xlink:href="#DejaVuSans-69" transform="translate(286.71875 0)"/>
     <use xlink:href="#DejaVuSans-70" transform="translate(314.501953 0)"/>
     <use xlink:href="#DejaVuSans-74" transform="translate(377.978516 0)"/>
     <use xlink:href="#DejaVuSans-69" transform="translate(417.1875 0)"/>
     <use xlink:href="#DejaVuSans-6f" transform="translate(444.970703 0)"/>
     <use xlink:href="#DejaVuSans-6e" transform="translate(506.152344 0)"/>
    </g>
   </g>
  </g>
  <g id="axes_4">
   <g id="matplotlib.axis_7"/>
   <g id="matplotlib.axis_8"/>
   <g id="patch_8">
    <path d="M 713.114184 61.800747 
C 710.487244 57.250753 707.096345 53.186882 703.090366 49.78756 
C 699.084386 46.388238 694.522825 43.703951 689.605956 41.852555 
C 684.689088 40.001159 679.48994 39.01015 674.236781 38.923039 
C 668.983623 38.835928 663.754475 39.654008 658.778925 41.341363 
C 653.803375 43.028717 649.155321 45.560284 645.038836 48.824915 
C 640.922351 52.089546 637.398575 56.038753 634.622219 60.499147 
C 631.845863 64.959541 629.858162 69.864873 628.746388 74.999775 
C 627.634614 80.134677 627.415278 85.422884 628.09801 90.632216 
C 628.780742 95.841548 630.355403 100.894635 632.752856 105.569619 
C 635.150309 110.244604 638.334946 114.472053 642.166947 118.066359 
C 645.998948 121.660664 650.421397 124.568444 655.240127 126.66203 
C 660.058857 128.755616 665.202299 130.003915 670.444628 130.352119 
C 675.686957 130.700324 680.950314 130.143263 686.003609 128.705393 
C 691.056905 127.267524 695.825086 124.970202 700.098805 121.914292 
C 704.372525 118.858382 708.088308 115.089271 711.083012 110.772443 
C 714.077717 106.455615 716.306865 101.655184 717.672585 96.581913 
L 673.477933 84.684747 
z
" style="fill: #1f77b4; stroke: #ffffff; stroke-linejoin: miter"/>
   </g>
   <g id="patch_9">
    <path d="M 722.210576 95.987174 
C 723.775232 90.174917 724.178032 84.110682 723.395851 78.142544 
C 722.613672 72.174407 720.661774 66.418776 717.652186 61.206016 
L 678.015926 84.09 
z
" style="fill: #ff7f0e; stroke: #ffffff; stroke-linejoin: miter"/>
   </g>
   <g id="text_16">
    <!-- Yes -->
    <g style="fill: #262626" transform="translate(607.414706 93.986343) scale(0.1 -0.1)">
     <use xlink:href="#DejaVuSans-59"/>
     <use xlink:href="#DejaVuSans-65" transform="translate(47.833984 0)"/>
     <use xlink:href="#DejaVuSans-73" transform="translate(109.357422 0)"/>
    </g>
   </g>
   <g id="text_17">
    <!-- 87% -->
    <g style="fill: #262626" transform="translate(635.136698 91.012606) scale(0.1 -0.1)">
     <defs>
      <path id="DejaVuSans-37" d="M 525 4666 
L 3525 4666 
L 3525 4397 
L 1831 0 
L 1172 0 
L 2766 4134 
L 525 4134 
L 525 4666 
z
" transform="scale(0.015625)"/>
     </defs>
     <use xlink:href="#DejaVuSans-38"/>
     <use xlink:href="#DejaVuSans-37" transform="translate(63.623047 0)"/>
     <use xlink:href="#DejaVuSans-25" transform="translate(127.246094 0)"/>
    </g>
   </g>
   <g id="text_18">
    <!-- No -->
    <g style="fill: #262626" transform="translate(727.933843 80.307174) scale(0.1 -0.1)">
     <use xlink:href="#DejaVuSans-4e"/>
     <use xlink:href="#DejaVuSans-6f" transform="translate(74.804688 0)"/>
    </g>
   </g>
   <g id="text_19">
    <!-- 13% -->
    <g style="fill: #262626" transform="translate(694.130599 83.280902) scale(0.1 -0.1)">
     <defs>
      <path id="DejaVuSans-33" d="M 2597 2516 
Q 3050 2419 3304 2112 
Q 3559 1806 3559 1356 
Q 3559 666 3084 287 
Q 2609 -91 1734 -91 
Q 1441 -91 1130 -33 
Q 819 25 488 141 
L 488 750 
Q 750 597 1062 519 
Q 1375 441 1716 441 
Q 2309 441 2620 675 
Q 2931 909 2931 1356 
Q 2931 1769 2642 2001 
Q 2353 2234 1838 2234 
L 1294 2234 
L 1294 2753 
L 1863 2753 
Q 2328 2753 2575 2939 
Q 2822 3125 2822 3475 
Q 2822 3834 2567 4026 
Q 2313 4219 1838 4219 
Q 1578 4219 1281 4162 
Q 984 4106 628 3988 
L 628 4550 
Q 988 4650 1302 4700 
Q 1616 4750 1894 4750 
Q 2613 4750 3031 4423 
Q 3450 4097 3450 3541 
Q 3450 3153 3228 2886 
Q 3006 2619 2597 2516 
z
" transform="scale(0.015625)"/>
     </defs>
     <use xlink:href="#DejaVuSans-31"/>
     <use xlink:href="#DejaVuSans-33" transform="translate(63.623047 0)"/>
     <use xlink:href="#DejaVuSans-25" transform="translate(127.246094 0)"/>
    </g>
   </g>
   <g id="text_20">
    <!-- Example -->
    <g style="fill: #262626" transform="translate(651.984363 20.88) scale(0.12 -0.12)">
     <defs>
      <path id="DejaVuSans-45" d="M 628 4666 
L 3578 4666 
L 3578 4134 
L 1259 4134 
L 1259 2753 
L 3481 2753 
L 3481 2222 
L 1259 2222 
L 1259 531 
L 3634 531 
L 3634 0 
L 628 0 
L 628 4666 
z
" transform="scale(0.015625)"/>
      <path id="DejaVuSans-78" d="M 3513 3500 
L 2247 1797 
L 3578 0 
L 2900 0 
L 1881 1375 
L 863 0 
L 184 0 
L 1544 1831 
L 300 3500 
L 978 3500 
L 1906 2253 
L 2834 3500 
L 3513 3500 
z
" transform="scale(0.015625)"/>
      <path id="DejaVuSans-6c" d="M 603 4863 
L 1178 4863 
L 1178 0 
L 603 0 
L 603 4863 
z
" transform="scale(0.015625)"/>
     </defs>
     <use xlink:href="#DejaVuSans-45"/>
     <use xlink:href="#DejaVuSans-78" transform="translate(63.183594 0)"/>
     <use xlink:href="#DejaVuSans-61" transform="translate(122.363281 0)"/>
     <use xlink:href="#DejaVuSans-6d" transform="translate(183.642578 0)"/>
     <use xlink:href="#DejaVuSans-70" transform="translate(281.054688 0)"/>
     <use xlink:href="#DejaVuSans-6c" transform="translate(344.53125 0)"/>
     <use xlink:href="#DejaVuSans-65" transform="translate(372.314453 0)"/>
    </g>
   </g>
  </g>
  <g id="axes_5">
   <g id="matplotlib.axis_9"/>
   <g id="matplotlib.axis_10"/>
   <g id="patch_10">
    <path d="M 136.950975 200.626915 
C 132.73919 193.331889 126.594076 187.339296 119.195519 183.31215 
C 111.796962 179.285004 103.428267 177.377511 95.015334 177.800712 
C 86.6024 178.223914 78.467375 180.961605 71.510305 185.710892 
C 64.553235 190.460178 59.040519 197.039202 55.582076 204.720069 
C 52.123633 212.400936 50.851893 220.889533 51.907559 229.246692 
C 52.963225 237.603852 56.305875 245.509564 61.565681 252.089153 
C 66.825487 258.668741 73.801043 263.670262 81.720584 266.540353 
C 89.640124 269.410445 98.200396 270.039207 106.454302 268.357074 
L 97.314725 223.510915 
z
" style="fill: #1f77b4; stroke: #ffffff; stroke-linejoin: miter"/>
   </g>
   <g id="patch_11">
    <path d="M 110.627559 270.236159 
C 117.736209 268.78743 124.399558 265.669048 130.066209 261.139059 
C 135.732859 256.60907 140.242058 250.795979 143.220633 244.180857 
C 146.199209 237.565737 147.562669 230.336224 147.198192 223.090614 
C 146.833711 215.845004 144.751633 208.788835 141.12425 202.506016 
L 101.487989 225.39 
z
" style="fill: #ff7f0e; stroke: #ffffff; stroke-linejoin: miter"/>
   </g>
   <g id="text_21">
    <!-- Yes -->
    <g style="fill: #262626" transform="translate(35.263502 205.600353) scale(0.1 -0.1)">
     <use xlink:href="#DejaVuSans-59"/>
     <use xlink:href="#DejaVuSans-65" transform="translate(47.833984 0)"/>
     <use xlink:href="#DejaVuSans-73" transform="translate(109.357422 0)"/>
    </g>
   </g>
   <g id="text_22">
    <!-- 70% -->
    <g style="fill: #262626" transform="translate(61.161856 214.995779) scale(0.1 -0.1)">
     <defs>
      <path id="DejaVuSans-30" d="M 2034 4250 
Q 1547 4250 1301 3770 
Q 1056 3291 1056 2328 
Q 1056 1369 1301 889 
Q 1547 409 2034 409 
Q 2525 409 2770 889 
Q 3016 1369 3016 2328 
Q 3016 3291 2770 3770 
Q 2525 4250 2034 4250 
z
M 2034 4750 
Q 2819 4750 3233 4129 
Q 3647 3509 3647 2328 
Q 3647 1150 3233 529 
Q 2819 -91 2034 -91 
Q 1250 -91 836 529 
Q 422 1150 422 2328 
Q 422 3509 836 4129 
Q 1250 4750 2034 4750 
z
" transform="scale(0.015625)"/>
     </defs>
     <use xlink:href="#DejaVuSans-37"/>
     <use xlink:href="#DejaVuSans-30" transform="translate(63.623047 0)"/>
     <use xlink:href="#DejaVuSans-25" transform="translate(127.246094 0)"/>
    </g>
   </g>
   <g id="text_23">
    <!-- No -->
    <g style="fill: #262626" transform="translate(147.393897 248.819318) scale(0.1 -0.1)">
     <use xlink:href="#DejaVuSans-4e"/>
     <use xlink:href="#DejaVuSans-6f" transform="translate(74.804688 0)"/>
    </g>
   </g>
   <g id="text_24">
    <!-- 30% -->
    <g style="fill: #262626" transform="translate(115.414294 239.42389) scale(0.1 -0.1)">
     <use xlink:href="#DejaVuSans-33"/>
     <use xlink:href="#DejaVuSans-30" transform="translate(63.623047 0)"/>
     <use xlink:href="#DejaVuSans-25" transform="translate(127.246094 0)"/>
    </g>
   </g>
   <g id="text_25">
    <!-- Pattern -->
    <g style="fill: #262626" transform="translate(79.902989 162.18) scale(0.12 -0.12)">
     <defs>
      <path id="DejaVuSans-50" d="M 1259 4147 
L 1259 2394 
L 2053 2394 
Q 2494 2394 2734 2622 
Q 2975 2850 2975 3272 
Q 2975 3691 2734 3919 
Q 2494 4147 2053 4147 
L 1259 4147 
z
M 628 4666 
L 2053 4666 
Q 2838 4666 3239 4311 
Q 3641 3956 3641 3272 
Q 3641 2581 3239 2228 
Q 2838 1875 2053 1875 
L 1259 1875 
L 1259 0 
L 628 0 
L 628 4666 
z
" transform="scale(0.015625)"/>
     </defs>
     <use xlink:href="#DejaVuSans-50"/>
     <use xlink:href="#DejaVuSans-61" transform="translate(55.802734 0)"/>
     <use xlink:href="#DejaVuSans-74" transform="translate(117.082031 0)"/>
     <use xlink:href="#DejaVuSans-74" transform="translate(156.291016 0)"/>
     <use xlink:href="#DejaVuSans-65" transform="translate(195.5 0)"/>
     <use xlink:href="#DejaVuSans-72" transform="translate(257.023438 0)"/>
     <use xlink:href="#DejaVuSans-6e" transform="translate(296.386719 0)"/>
    </g>
   </g>
  </g>
  <g id="axes_6">
   <g id="matplotlib.axis_11"/>
   <g id="matplotlib.axis_12"/>
   <g id="patch_12">
    <path d="M 328.723953 202.575956 
C 326.207468 198.217275 322.989162 194.303389 319.19884 190.992156 
C 315.408518 187.680924 311.097833 185.017469 306.440647 183.109217 
C 301.783462 181.200965 296.843242 180.073921 291.819242 179.773541 
C 286.795243 179.473162 281.755928 180.003541 276.904548 181.343286 
C 272.053168 182.683032 267.455837 184.813886 263.297978 187.649906 
C 259.140118 190.485926 255.478393 193.988463 252.460489 198.016249 
C 249.442586 202.044035 247.109632 206.542182 245.555722 211.329265 
C 244.001811 216.116348 243.248121 221.127131 243.325049 226.159515 
C 243.401978 231.191898 244.308477 236.177303 246.007984 240.914652 
C 247.707491 245.652001 250.176846 250.076737 253.316454 254.010395 
C 256.456061 257.944053 260.223135 261.333029 264.465737 264.040633 
C 268.70834 266.748238 273.368656 268.737574 278.258719 269.928405 
C 283.148783 271.119236 288.201955 271.495335 293.214426 271.041531 
C 298.226897 270.587728 303.130359 269.310206 307.72704 267.260494 
C 312.323722 265.210781 316.550981 262.416809 320.23832 258.991268 
C 323.925659 255.565727 327.022828 251.555298 329.40491 247.121734 
L 289.087703 225.459956 
z
" style="fill: #1f77b4; stroke: #ffffff; stroke-linejoin: miter"/>
   </g>
   <g id="patch_13">
    <path d="M 333.981172 247.051785 
C 337.671138 240.183971 339.545785 232.485869 339.426621 224.690455 
C 339.307457 216.89504 337.198389 209.257835 333.300229 202.506016 
L 293.663968 225.39 
z
" style="fill: #ff7f0e; stroke: #ffffff; stroke-linejoin: miter"/>
   </g>
   <g id="text_26">
    <!-- Yes -->
    <g style="fill: #262626" transform="translate(222.603472 228.988851) scale(0.1 -0.1)">
     <use xlink:href="#DejaVuSans-59"/>
     <use xlink:href="#DejaVuSans-65" transform="translate(47.833984 0)"/>
     <use xlink:href="#DejaVuSans-73" transform="translate(109.357422 0)"/>
    </g>
   </g>
   <g id="text_27">
    <!-- 84% -->
    <g style="fill: #262626" transform="translate(250.51683 228.639069) scale(0.1 -0.1)">
     <defs>
      <path id="DejaVuSans-34" d="M 2419 4116 
L 825 1625 
L 2419 1625 
L 2419 4116 
z
M 2253 4666 
L 3047 4666 
L 3047 1625 
L 3713 1625 
L 3713 1100 
L 3047 1100 
L 3047 0 
L 2419 0 
L 2419 1100 
L 313 1100 
L 313 1709 
L 2253 4666 
z
" transform="scale(0.015625)"/>
     </defs>
     <use xlink:href="#DejaVuSans-38"/>
     <use xlink:href="#DejaVuSans-34" transform="translate(63.623047 0)"/>
     <use xlink:href="#DejaVuSans-25" transform="translate(127.246094 0)"/>
    </g>
   </g>
   <g id="text_28">
    <!-- No -->
    <g style="fill: #262626" transform="translate(344.002887 227.379875) scale(0.1 -0.1)">
     <use xlink:href="#DejaVuSans-4e"/>
     <use xlink:href="#DejaVuSans-6f" transform="translate(74.804688 0)"/>
    </g>
   </g>
   <g id="text_29">
    <!-- 16% -->
    <g style="fill: #262626" transform="translate(310.008279 227.729648) scale(0.1 -0.1)">
     <defs>
      <path id="DejaVuSans-36" d="M 2113 2584 
Q 1688 2584 1439 2293 
Q 1191 2003 1191 1497 
Q 1191 994 1439 701 
Q 1688 409 2113 409 
Q 2538 409 2786 701 
Q 3034 994 3034 1497 
Q 3034 2003 2786 2293 
Q 2538 2584 2113 2584 
z
M 3366 4563 
L 3366 3988 
Q 3128 4100 2886 4159 
Q 2644 4219 2406 4219 
Q 1781 4219 1451 3797 
Q 1122 3375 1075 2522 
Q 1259 2794 1537 2939 
Q 1816 3084 2150 3084 
Q 2853 3084 3261 2657 
Q 3669 2231 3669 1497 
Q 3669 778 3244 343 
Q 2819 -91 2113 -91 
Q 1303 -91 875 529 
Q 447 1150 447 2328 
Q 447 3434 972 4092 
Q 1497 4750 2381 4750 
Q 2619 4750 2861 4703 
Q 3103 4656 3366 4563 
z
" transform="scale(0.015625)"/>
     </defs>
     <use xlink:href="#DejaVuSans-31"/>
     <use xlink:href="#DejaVuSans-36" transform="translate(63.623047 0)"/>
     <use xlink:href="#DejaVuSans-25" transform="translate(127.246094 0)"/>
    </g>
   </g>
   <g id="text_30">
    <!-- Provider -->
    <g style="fill: #262626" transform="translate(268.962718 162.18) scale(0.12 -0.12)">
     <defs>
      <path id="DejaVuSans-76" d="M 191 3500 
L 800 3500 
L 1894 563 
L 2988 3500 
L 3597 3500 
L 2284 0 
L 1503 0 
L 191 3500 
z
" transform="scale(0.015625)"/>
      <path id="DejaVuSans-64" d="M 2906 2969 
L 2906 4863 
L 3481 4863 
L 3481 0 
L 2906 0 
L 2906 525 
Q 2725 213 2448 61 
Q 2172 -91 1784 -91 
Q 1150 -91 751 415 
Q 353 922 353 1747 
Q 353 2572 751 3078 
Q 1150 3584 1784 3584 
Q 2172 3584 2448 3432 
Q 2725 3281 2906 2969 
z
M 947 1747 
Q 947 1113 1208 752 
Q 1469 391 1925 391 
Q 2381 391 2643 752 
Q 2906 1113 2906 1747 
Q 2906 2381 2643 2742 
Q 2381 3103 1925 3103 
Q 1469 3103 1208 2742 
Q 947 2381 947 1747 
z
" transform="scale(0.015625)"/>
     </defs>
     <use xlink:href="#DejaVuSans-50"/>
     <use xlink:href="#DejaVuSans-72" transform="translate(58.552734 0)"/>
     <use xlink:href="#DejaVuSans-6f" transform="translate(97.416016 0)"/>
     <use xlink:href="#DejaVuSans-76" transform="translate(158.597656 0)"/>
     <use xlink:href="#DejaVuSans-69" transform="translate(217.777344 0)"/>
     <use xlink:href="#DejaVuSans-64" transform="translate(245.560547 0)"/>
     <use xlink:href="#DejaVuSans-65" transform="translate(309.037109 0)"/>
     <use xlink:href="#DejaVuSans-72" transform="translate(370.560547 0)"/>
    </g>
   </g>
  </g>
  <g id="axes_7">
   <g id="matplotlib.axis_13"/>
   <g id="matplotlib.axis_14"/>
   <g id="patch_14">
    <path d="M 527.208199 198.269578 
C 522.135563 189.483514 514.282736 182.628648 504.891971 178.789364 
C 495.501206 174.95008 485.095247 174.340094 475.32023 177.0559 
L 487.571949 221.153578 
z
" style="fill: #1f77b4; stroke: #ffffff; stroke-linejoin: miter"/>
   </g>
   <g id="patch_15">
    <path d="M 473.588229 181.292321 
C 469.017753 182.562144 464.672348 184.534837 460.707912 187.139632 
C 456.743476 189.744427 453.207998 192.949785 450.228299 196.640733 
C 447.2486 200.331681 444.860748 204.463541 443.150416 208.888071 
C 441.440083 213.312602 440.427968 217.976259 440.150379 222.711726 
C 439.872793 227.447193 440.333089 232.197151 441.514759 236.791208 
C 442.69643 241.385264 444.585167 245.767803 447.113221 249.78161 
C 449.641275 253.795418 452.778054 257.391917 456.411003 260.442061 
C 460.043951 263.492206 464.129105 265.959087 468.519917 267.754211 
C 472.91073 269.549334 477.554047 270.650968 482.283298 271.019596 
C 487.012549 271.38822 491.770483 271.019377 496.386419 269.926296 
C 501.002357 268.833214 505.420436 267.029118 509.482128 264.578738 
C 513.54382 262.128357 517.199977 259.061354 520.31944 255.487748 
C 523.438902 251.914142 525.983905 247.877198 527.863157 243.521729 
C 529.742409 239.166261 530.933161 234.544972 531.392687 229.823687 
C 531.852216 225.102401 531.57496 220.338252 530.570868 215.702144 
C 529.566775 211.066035 527.848003 206.614092 525.476208 202.506016 
L 485.839947 225.39 
z
" style="fill: #ff7f0e; stroke: #ffffff; stroke-linejoin: miter"/>
   </g>
   <g id="text_31">
    <!-- Yes -->
    <g style="fill: #262626" transform="translate(506.623967 177.312315) scale(0.1 -0.1)">
     <use xlink:href="#DejaVuSans-59"/>
     <use xlink:href="#DejaVuSans-65" transform="translate(47.833984 0)"/>
     <use xlink:href="#DejaVuSans-73" transform="translate(109.357422 0)"/>
    </g>
   </g>
   <g id="text_32">
    <!-- 21% -->
    <g style="fill: #262626" transform="translate(486.850678 198.494424) scale(0.1 -0.1)">
     <use xlink:href="#DejaVuSans-32"/>
     <use xlink:href="#DejaVuSans-31" transform="translate(63.623047 0)"/>
     <use xlink:href="#DejaVuSans-25" transform="translate(127.246094 0)"/>
    </g>
   </g>
   <g id="text_33">
    <!-- No -->
    <g style="fill: #262626" transform="translate(453.187915 274.750008) scale(0.1 -0.1)">
     <use xlink:href="#DejaVuSans-4e"/>
     <use xlink:href="#DejaVuSans-6f" transform="translate(74.804688 0)"/>
    </g>
   </g>
   <g id="text_34">
    <!-- 79% -->
    <g style="fill: #262626" transform="translate(464.334648 253.567902) scale(0.1 -0.1)">
     <defs>
      <path id="DejaVuSans-39" d="M 703 97 
L 703 672 
Q 941 559 1184 500 
Q 1428 441 1663 441 
Q 2288 441 2617 861 
Q 2947 1281 2994 2138 
Q 2813 1869 2534 1725 
Q 2256 1581 1919 1581 
Q 1219 1581 811 2004 
Q 403 2428 403 3163 
Q 403 3881 828 4315 
Q 1253 4750 1959 4750 
Q 2769 4750 3195 4129 
Q 3622 3509 3622 2328 
Q 3622 1225 3098 567 
Q 2575 -91 1691 -91 
Q 1453 -91 1209 -44 
Q 966 3 703 97 
z
M 1959 2075 
Q 2384 2075 2632 2365 
Q 2881 2656 2881 3163 
Q 2881 3666 2632 3958 
Q 2384 4250 1959 4250 
Q 1534 4250 1286 3958 
Q 1038 3666 1038 3163 
Q 1038 2656 1286 2365 
Q 1534 2075 1959 2075 
z
" transform="scale(0.015625)"/>
     </defs>
     <use xlink:href="#DejaVuSans-37"/>
     <use xlink:href="#DejaVuSans-39" transform="translate(63.623047 0)"/>
     <use xlink:href="#DejaVuSans-25" transform="translate(127.246094 0)"/>
    </g>
   </g>
   <g id="text_35">
    <!-- License -->
    <g style="fill: #262626" transform="translate(463.219009 162.18) scale(0.12 -0.12)">
     <defs>
      <path id="DejaVuSans-4c" d="M 628 4666 
L 1259 4666 
L 1259 531 
L 3531 531 
L 3531 0 
L 628 0 
L 628 4666 
z
" transform="scale(0.015625)"/>
     </defs>
     <use xlink:href="#DejaVuSans-4c"/>
     <use xlink:href="#DejaVuSans-69" transform="translate(55.712891 0)"/>
     <use xlink:href="#DejaVuSans-63" transform="translate(83.496094 0)"/>
     <use xlink:href="#DejaVuSans-65" transform="translate(138.476562 0)"/>
     <use xlink:href="#DejaVuSans-6e" transform="translate(200 0)"/>
     <use xlink:href="#DejaVuSans-73" transform="translate(263.378906 0)"/>
     <use xlink:href="#DejaVuSans-65" transform="translate(315.478516 0)"/>
    </g>
   </g>
  </g>
  <g id="axes_8">
   <g id="matplotlib.axis_15"/>
   <g id="matplotlib.axis_16"/>
   <g id="patch_16">
    <path d="M 717.652176 202.506 
C 712.222097 193.100827 703.617791 185.92866 693.388563 182.280931 
C 683.159334 178.633201 671.958351 178.742828 661.802477 182.590071 
C 651.646604 186.437314 643.184324 193.776515 637.939369 203.286168 
C 632.694413 212.79582 631.001688 223.868703 633.165988 234.511017 
L 678.015926 225.39 
z
" style="fill: #1f77b4; stroke: #ffffff; stroke-linejoin: miter"/>
   </g>
   <g id="patch_17">
    <path d="M 633.165988 234.51101 
C 634.646046 241.788769 637.87553 248.598076 642.574695 254.349093 
C 647.27386 260.100109 653.302994 264.62184 660.13981 267.52258 
C 666.976625 270.423321 674.417838 271.616831 681.818888 270.999728 
C 689.219938 270.382625 696.36076 267.973252 702.622777 263.980319 
L 678.015926 225.39 
z
" style="fill: #ff7f0e; stroke: #ffffff; stroke-linejoin: miter"/>
   </g>
   <g id="patch_18">
    <path d="M 702.622777 263.980319 
C 710.809673 258.759999 717.126741 251.067438 720.655115 242.021578 
C 724.183488 232.975717 724.743353 223.037513 722.253278 213.652604 
L 678.015926 225.39 
z
" style="fill: #2ca02c; stroke: #ffffff; stroke-linejoin: miter"/>
   </g>
   <g id="patch_19">
    <path d="M 722.253278 213.652604 
C 721.736163 211.703636 721.090809 209.790958 720.321444 207.9271 
C 719.552078 206.063242 718.660387 204.252275 717.652186 202.506016 
L 678.015926 225.39 
z
" style="fill: #d62728; stroke: #ffffff; stroke-linejoin: miter"/>
   </g>
   <g id="text_36">
    <!-- CC-BY-4.0 -->
    <g style="fill: #262626" transform="translate(612.228008 181.069453) scale(0.1 -0.1)">
     <defs>
      <path id="DejaVuSans-43" d="M 4122 4306 
L 4122 3641 
Q 3803 3938 3442 4084 
Q 3081 4231 2675 4231 
Q 1875 4231 1450 3742 
Q 1025 3253 1025 2328 
Q 1025 1406 1450 917 
Q 1875 428 2675 428 
Q 3081 428 3442 575 
Q 3803 722 4122 1019 
L 4122 359 
Q 3791 134 3420 21 
Q 3050 -91 2638 -91 
Q 1578 -91 968 557 
Q 359 1206 359 2328 
Q 359 3453 968 4101 
Q 1578 4750 2638 4750 
Q 3056 4750 3426 4639 
Q 3797 4528 4122 4306 
z
" transform="scale(0.015625)"/>
      <path id="DejaVuSans-2d" d="M 313 2009 
L 1997 2009 
L 1997 1497 
L 313 1497 
L 313 2009 
z
" transform="scale(0.015625)"/>
      <path id="DejaVuSans-42" d="M 1259 2228 
L 1259 519 
L 2272 519 
Q 2781 519 3026 730 
Q 3272 941 3272 1375 
Q 3272 1813 3026 2020 
Q 2781 2228 2272 2228 
L 1259 2228 
z
M 1259 4147 
L 1259 2741 
L 2194 2741 
Q 2656 2741 2882 2914 
Q 3109 3088 3109 3444 
Q 3109 3797 2882 3972 
Q 2656 4147 2194 4147 
L 1259 4147 
z
M 628 4666 
L 2241 4666 
Q 2963 4666 3353 4366 
Q 3744 4066 3744 3513 
Q 3744 3084 3544 2831 
Q 3344 2578 2956 2516 
Q 3422 2416 3680 2098 
Q 3938 1781 3938 1306 
Q 3938 681 3513 340 
Q 3088 0 2303 0 
L 628 0 
L 628 4666 
z
" transform="scale(0.015625)"/>
      <path id="DejaVuSans-2e" d="M 684 794 
L 1344 794 
L 1344 0 
L 684 0 
L 684 794 
z
" transform="scale(0.015625)"/>
     </defs>
     <use xlink:href="#DejaVuSans-43"/>
     <use xlink:href="#DejaVuSans-43" transform="translate(69.824219 0)"/>
     <use xlink:href="#DejaVuSans-2d" transform="translate(139.648438 0)"/>
     <use xlink:href="#DejaVuSans-42" transform="translate(172.107422 0)"/>
     <use xlink:href="#DejaVuSans-59" transform="translate(235.210938 0)"/>
     <use xlink:href="#DejaVuSans-2d" transform="translate(284.419922 0)"/>
     <use xlink:href="#DejaVuSans-34" transform="translate(320.503906 0)"/>
     <use xlink:href="#DejaVuSans-2e" transform="translate(384.126953 0)"/>
     <use xlink:href="#DejaVuSans-30" transform="translate(415.914062 0)"/>
    </g>
   </g>
   <g id="text_37">
    <!-- 45% -->
    <g style="fill: #262626" transform="translate(657.174575 202.469418) scale(0.1 -0.1)">
     <defs>
      <path id="DejaVuSans-35" d="M 691 4666 
L 3169 4666 
L 3169 4134 
L 1269 4134 
L 1269 2991 
Q 1406 3038 1543 3061 
Q 1681 3084 1819 3084 
Q 2600 3084 3056 2656 
Q 3513 2228 3513 1497 
Q 3513 744 3044 326 
Q 2575 -91 1722 -91 
Q 1428 -91 1123 -41 
Q 819 9 494 109 
L 494 744 
Q 775 591 1075 516 
Q 1375 441 1709 441 
Q 2250 441 2565 725 
Q 2881 1009 2881 1497 
Q 2881 1984 2565 2268 
Q 2250 2553 1709 2553 
Q 1456 2553 1204 2497 
Q 953 2441 691 2322 
L 691 4666 
z
" transform="scale(0.015625)"/>
     </defs>
     <use xlink:href="#DejaVuSans-34"/>
     <use xlink:href="#DejaVuSans-35" transform="translate(63.623047 0)"/>
     <use xlink:href="#DejaVuSans-25" transform="translate(127.246094 0)"/>
    </g>
   </g>
   <g id="text_38">
    <!-- CC-BY-3.0 -->
    <g style="fill: #262626" transform="translate(610.399095 274.495223) scale(0.1 -0.1)">
     <use xlink:href="#DejaVuSans-43"/>
     <use xlink:href="#DejaVuSans-43" transform="translate(69.824219 0)"/>
     <use xlink:href="#DejaVuSans-2d" transform="translate(139.648438 0)"/>
     <use xlink:href="#DejaVuSans-42" transform="translate(172.107422 0)"/>
     <use xlink:href="#DejaVuSans-59" transform="translate(235.210938 0)"/>
     <use xlink:href="#DejaVuSans-2d" transform="translate(284.419922 0)"/>
     <use xlink:href="#DejaVuSans-33" transform="translate(320.503906 0)"/>
     <use xlink:href="#DejaVuSans-2e" transform="translate(384.126953 0)"/>
     <use xlink:href="#DejaVuSans-30" transform="translate(415.914062 0)"/>
    </g>
   </g>
   <g id="text_39">
    <!-- 31% -->
    <g style="fill: #262626" transform="translate(656.176987 253.428928) scale(0.1 -0.1)">
     <use xlink:href="#DejaVuSans-33"/>
     <use xlink:href="#DejaVuSans-31" transform="translate(63.623047 0)"/>
     <use xlink:href="#DejaVuSans-25" transform="translate(127.246094 0)"/>
    </g>
   </g>
   <g id="text_40">
    <!-- CC0-1.0 -->
    <g style="fill: #262626" transform="translate(724.919042 246.444088) scale(0.1 -0.1)">
     <use xlink:href="#DejaVuSans-43"/>
     <use xlink:href="#DejaVuSans-43" transform="translate(69.824219 0)"/>
     <use xlink:href="#DejaVuSans-30" transform="translate(139.648438 0)"/>
     <use xlink:href="#DejaVuSans-2d" transform="translate(203.271484 0)"/>
     <use xlink:href="#DejaVuSans-31" transform="translate(239.355469 0)"/>
     <use xlink:href="#DejaVuSans-2e" transform="translate(302.978516 0)"/>
     <use xlink:href="#DejaVuSans-30" transform="translate(334.765625 0)"/>
    </g>
   </g>
   <g id="text_41">
    <!-- 20% -->
    <g style="fill: #262626" transform="translate(692.486163 238.128309) scale(0.1 -0.1)">
     <use xlink:href="#DejaVuSans-32"/>
     <use xlink:href="#DejaVuSans-30" transform="translate(63.623047 0)"/>
     <use xlink:href="#DejaVuSans-25" transform="translate(127.246094 0)"/>
    </g>
   </g>
   <g id="text_42">
    <!-- Other -->
    <g style="fill: #262626" transform="translate(724.551997 208.940186) scale(0.1 -0.1)">
     <defs>
      <path id="DejaVuSans-4f" d="M 2522 4238 
Q 1834 4238 1429 3725 
Q 1025 3213 1025 2328 
Q 1025 1447 1429 934 
Q 1834 422 2522 422 
Q 3209 422 3611 934 
Q 4013 1447 4013 2328 
Q 4013 3213 3611 3725 
Q 3209 4238 2522 4238 
z
M 2522 4750 
Q 3503 4750 4090 4092 
Q 4678 3434 4678 2328 
Q 4678 1225 4090 567 
Q 3503 -91 2522 -91 
Q 1538 -91 948 565 
Q 359 1222 359 2328 
Q 359 3434 948 4092 
Q 1538 4750 2522 4750 
z
" transform="scale(0.015625)"/>
      <path id="DejaVuSans-68" d="M 3513 2113 
L 3513 0 
L 2938 0 
L 2938 2094 
Q 2938 2591 2744 2837 
Q 2550 3084 2163 3084 
Q 1697 3084 1428 2787 
Q 1159 2491 1159 1978 
L 1159 0 
L 581 0 
L 581 4863 
L 1159 4863 
L 1159 2956 
Q 1366 3272 1645 3428 
Q 1925 3584 2291 3584 
Q 2894 3584 3203 3211 
Q 3513 2838 3513 2113 
z
" transform="scale(0.015625)"/>
     </defs>
     <use xlink:href="#DejaVuSans-4f"/>
     <use xlink:href="#DejaVuSans-74" transform="translate(78.710938 0)"/>
     <use xlink:href="#DejaVuSans-68" transform="translate(117.919922 0)"/>
     <use xlink:href="#DejaVuSans-65" transform="translate(181.298828 0)"/>
     <use xlink:href="#DejaVuSans-72" transform="translate(242.822266 0)"/>
    </g>
   </g>
   <g id="text_43">
    <!-- 4% -->
    <g style="fill: #262626" transform="translate(695.467206 217.671636) scale(0.1 -0.1)">
     <use xlink:href="#DejaVuSans-34"/>
     <use xlink:href="#DejaVuSans-25" transform="translate(63.623047 0)"/>
    </g>
   </g>
   <g id="text_44">
    <!-- License Type -->
    <g style="fill: #262626" transform="translate(639.708738 162.18) scale(0.12 -0.12)">
     <defs>
      <path id="DejaVuSans-20" transform="scale(0.015625)"/>
      <path id="DejaVuSans-54" d="M -19 4666 
L 3928 4666 
L 3928 4134 
L 2272 4134 
L 2272 0 
L 1638 0 
L 1638 4134 
L -19 4134 
L -19 4666 
z
" transform="scale(0.015625)"/>
      <path id="DejaVuSans-79" d="M 2059 -325 
Q 1816 -950 1584 -1140 
Q 1353 -1331 966 -1331 
L 506 -1331 
L 506 -850 
L 844 -850 
Q 1081 -850 1212 -737 
Q 1344 -625 1503 -206 
L 1606 56 
L 191 3500 
L 800 3500 
L 1894 763 
L 2988 3500 
L 3597 3500 
L 2059 -325 
z
" transform="scale(0.015625)"/>
     </defs>
     <use xlink:href="#DejaVuSans-4c"/>
     <use xlink:href="#DejaVuSans-69" transform="translate(55.712891 0)"/>
     <use xlink:href="#DejaVuSans-63" transform="translate(83.496094 0)"/>
     <use xlink:href="#DejaVuSans-65" transform="translate(138.476562 0)"/>
     <use xlink:href="#DejaVuSans-6e" transform="translate(200 0)"/>
     <use xlink:href="#DejaVuSans-73" transform="translate(263.378906 0)"/>
     <use xlink:href="#DejaVuSans-65" transform="translate(315.478516 0)"/>
     <use xlink:href="#DejaVuSans-20" transform="translate(377.001953 0)"/>
     <use xlink:href="#DejaVuSans-54" transform="translate(408.789062 0)"/>
     <use xlink:href="#DejaVuSans-79" transform="translate(454.248047 0)"/>
     <use xlink:href="#DejaVuSans-70" transform="translate(513.427734 0)"/>
     <use xlink:href="#DejaVuSans-65" transform="translate(576.904297 0)"/>
    </g>
   </g>
  </g>
  <g id="axes_9">
   <g id="matplotlib.axis_17"/>
   <g id="matplotlib.axis_18"/>
   <g id="patch_20">
    <path d="M 144.025382 340.266159 
C 141.267002 335.488506 137.667384 331.248712 133.40055 327.751749 
C 129.133715 324.254786 124.269552 321.557932 119.043217 319.791566 
L 104.389131 363.150159 
z
" style="fill: #1f77b4; stroke: #ffffff; stroke-linejoin: miter"/>
   </g>
   <g id="patch_21">
    <path d="M 116.142075 323.331406 
C 111.105365 321.629129 105.810346 320.817425 100.495002 320.932773 
C 95.179658 321.048123 89.924838 322.08877 84.966719 324.007949 
C 80.0086 325.927128 75.422599 328.69564 71.414831 332.18906 
C 67.407063 335.68248 64.038484 339.847674 61.460505 344.497428 
C 58.882526 349.147183 57.134357 354.210768 56.294563 359.460618 
C 55.454769 364.710469 55.536123 370.066736 56.53498 375.288658 
C 57.533835 380.510581 59.434987 385.518734 62.152999 390.088045 
C 64.871011 394.657355 68.364545 398.718322 72.476566 402.088407 
C 76.588587 405.458491 81.25655 408.086436 86.27067 409.854141 
C 91.284791 411.621845 96.568806 412.502417 101.885201 412.456276 
C 107.201597 412.410135 112.469508 411.437984 117.452193 409.583519 
C 122.434877 407.729054 127.056542 405.02047 131.10945 401.579523 
C 135.162358 398.138576 138.584867 394.017599 141.223162 389.401803 
C 143.861456 384.786005 145.675406 379.745587 146.583473 374.507114 
C 147.49154 369.268641 147.479919 363.911769 146.549127 358.677286 
C 145.618339 353.442802 143.782547 348.410324 141.12425 343.806016 
L 101.487989 366.69 
z
" style="fill: #ff7f0e; stroke: #ffffff; stroke-linejoin: miter"/>
   </g>
   <g id="text_45">
    <!-- Yes -->
    <g style="fill: #262626" transform="translate(136.301688 326.971281) scale(0.1 -0.1)">
     <use xlink:href="#DejaVuSans-59"/>
     <use xlink:href="#DejaVuSans-65" transform="translate(47.833984 0)"/>
     <use xlink:href="#DejaVuSans-73" transform="translate(109.357422 0)"/>
    </g>
   </g>
   <g id="text_46">
    <!-- 11% -->
    <g style="fill: #262626" transform="translate(110.682699 344.670487) scale(0.1 -0.1)">
     <use xlink:href="#DejaVuSans-31"/>
     <use xlink:href="#DejaVuSans-31" transform="translate(63.623047 0)"/>
     <use xlink:href="#DejaVuSans-25" transform="translate(127.246094 0)"/>
    </g>
   </g>
   <g id="text_47">
    <!-- No -->
    <g style="fill: #262626" transform="translate(55.975424 408.387622) scale(0.1 -0.1)">
     <use xlink:href="#DejaVuSans-4e"/>
     <use xlink:href="#DejaVuSans-6f" transform="translate(74.804688 0)"/>
    </g>
   </g>
   <g id="text_48">
    <!-- 89% -->
    <g style="fill: #262626" transform="translate(72.967854 390.688419) scale(0.1 -0.1)">
     <use xlink:href="#DejaVuSans-38"/>
     <use xlink:href="#DejaVuSans-39" transform="translate(63.623047 0)"/>
     <use xlink:href="#DejaVuSans-25" transform="translate(127.246094 0)"/>
    </g>
   </g>
   <g id="text_49">
    <!-- Version -->
    <g style="fill: #262626" transform="translate(79.423927 303.48) scale(0.12 -0.12)">
     <defs>
      <path id="DejaVuSans-56" d="M 1831 0 
L 50 4666 
L 709 4666 
L 2188 738 
L 3669 4666 
L 4325 4666 
L 2547 0 
L 1831 0 
z
" transform="scale(0.015625)"/>
     </defs>
     <use xlink:href="#DejaVuSans-56"/>
     <use xlink:href="#DejaVuSans-65" transform="translate(60.658203 0)"/>
     <use xlink:href="#DejaVuSans-72" transform="translate(122.181641 0)"/>
     <use xlink:href="#DejaVuSans-73" transform="translate(163.294922 0)"/>
     <use xlink:href="#DejaVuSans-69" transform="translate(215.394531 0)"/>
     <use xlink:href="#DejaVuSans-6f" transform="translate(243.177734 0)"/>
     <use xlink:href="#DejaVuSans-6e" transform="translate(304.359375 0)"/>
    </g>
   </g>
  </g>
  <g id="axes_10">
   <g id="matplotlib.axis_19"/>
   <g id="matplotlib.axis_20"/>
   <g id="patch_22">
    <path d="M 331.530967 339.584999 
C 325.964048 329.942813 317.065572 322.655683 306.515095 319.099029 
C 295.964618 315.542375 284.470494 315.95499 274.202198 320.258993 
C 263.933902 324.562997 255.580842 332.46942 250.71963 342.485955 
C 245.858417 352.502489 244.815431 363.956629 247.787531 374.686446 
L 291.894716 362.468999 
z
" style="fill: #1f77b4; stroke: #ffffff; stroke-linejoin: miter"/>
   </g>
   <g id="patch_23">
    <path d="M 249.556782 378.907442 
C 251.291486 385.170035 254.340258 390.991952 258.499699 395.984777 
C 262.65914 400.977601 267.834652 405.027781 273.680928 407.865087 
C 279.527204 410.702394 285.91127 412.262303 292.407224 412.440743 
C 298.903178 412.61918 305.363272 411.41209 311.356491 408.900003 
C 317.349709 406.387916 322.739745 402.62798 327.167006 397.871026 
C 331.594267 393.114071 334.958056 387.468293 337.033941 381.310374 
C 339.109826 375.152456 339.850599 368.622439 339.206836 362.156 
C 338.563072 355.689562 336.549421 349.433781 333.300218 343.805997 
L 293.663968 366.69 
z
" style="fill: #ff7f0e; stroke: #ffffff; stroke-linejoin: miter"/>
   </g>
   <g id="text_50">
    <!-- Yes -->
    <g style="fill: #262626" transform="translate(256.287633 318.797368) scale(0.1 -0.1)">
     <use xlink:href="#DejaVuSans-59"/>
     <use xlink:href="#DejaVuSans-65" transform="translate(47.833984 0)"/>
     <use xlink:href="#DejaVuSans-73" transform="translate(109.357422 0)"/>
    </g>
   </g>
   <g id="text_51">
    <!-- 46% -->
    <g style="fill: #262626" transform="translate(270.165923 339.902371) scale(0.1 -0.1)">
     <use xlink:href="#DejaVuSans-34"/>
     <use xlink:href="#DejaVuSans-36" transform="translate(63.623047 0)"/>
     <use xlink:href="#DejaVuSans-25" transform="translate(127.246094 0)"/>
    </g>
   </g>
   <g id="text_52">
    <!-- No -->
    <g style="fill: #262626" transform="translate(313.125743 415.88038) scale(0.1 -0.1)">
     <use xlink:href="#DejaVuSans-4e"/>
     <use xlink:href="#DejaVuSans-6f" transform="translate(74.804688 0)"/>
    </g>
   </g>
   <g id="text_53">
    <!-- 54% -->
    <g style="fill: #262626" transform="translate(293.166201 394.775378) scale(0.1 -0.1)">
     <use xlink:href="#DejaVuSans-35"/>
     <use xlink:href="#DejaVuSans-34" transform="translate(63.623047 0)"/>
     <use xlink:href="#DejaVuSans-25" transform="translate(127.246094 0)"/>
    </g>
   </g>
   <g id="text_54">
    <!-- Contact Email -->
    <g style="fill: #262626" transform="translate(251.767093 303.48) scale(0.12 -0.12)">
     <use xlink:href="#DejaVuSans-43"/>
     <use xlink:href="#DejaVuSans-6f" transform="translate(69.824219 0)"/>
     <use xlink:href="#DejaVuSans-6e" transform="translate(131.005859 0)"/>
     <use xlink:href="#DejaVuSans-74" transform="translate(194.384766 0)"/>
     <use xlink:href="#DejaVuSans-61" transform="translate(233.59375 0)"/>
     <use xlink:href="#DejaVuSans-63" transform="translate(294.873047 0)"/>
     <use xlink:href="#DejaVuSans-74" transform="translate(349.853516 0)"/>
     <use xlink:href="#DejaVuSans-20" transform="translate(389.0625 0)"/>
     <use xlink:href="#DejaVuSans-45" transform="translate(420.849609 0)"/>
     <use xlink:href="#DejaVuSans-6d" transform="translate(484.033203 0)"/>
     <use xlink:href="#DejaVuSans-61" transform="translate(581.445312 0)"/>
     <use xlink:href="#DejaVuSans-69" transform="translate(642.724609 0)"/>
     <use xlink:href="#DejaVuSans-6c" transform="translate(670.507812 0)"/>
    </g>
   </g>
  </g>
  <g id="axes_11">
   <g id="matplotlib.axis_21"/>
   <g id="matplotlib.axis_22"/>
   <g id="patch_24">
    <path d="M 529.150971 341.077788 
C 528.273272 339.557569 527.308838 338.089102 526.262453 336.67967 
C 525.216067 335.270237 524.08946 333.922171 522.888219 332.642155 
L 489.51472 363.961788 
z
" style="fill: #1f77b4; stroke: #ffffff; stroke-linejoin: miter"/>
   </g>
   <g id="patch_25">
    <path d="M 519.213446 335.370368 
C 515.25209 331.149236 510.52562 327.717733 505.285269 325.258258 
C 500.044919 322.798783 494.385211 321.355703 488.606992 321.005722 
C 482.828773 320.655743 477.036269 321.405175 471.53738 323.214187 
C 466.038491 325.023199 460.932406 327.859155 456.49054 331.571313 
C 452.048673 335.283471 448.351148 339.804872 445.594505 344.89518 
C 442.837862 349.985486 441.07183 355.552869 440.390273 361.301415 
C 439.708716 367.049961 440.123934 372.875968 441.613856 378.469753 
C 443.103778 384.063538 445.641527 389.324201 449.092211 393.972113 
C 452.542894 398.620024 456.844269 402.571344 461.767696 405.616041 
C 466.691124 408.660737 472.147793 410.743889 477.847655 411.754766 
C 483.547517 412.765646 489.387758 412.68601 495.05794 411.520105 
C 500.728121 410.354199 506.125966 408.123051 510.96455 404.945251 
C 515.803134 401.767451 519.99518 397.700325 523.317858 392.96006 
C 526.640536 388.219795 529.033913 382.891897 530.370767 377.259568 
C 531.707622 371.627241 531.963845 365.792079 531.125808 360.064252 
C 530.287774 354.336425 528.3706 348.819251 525.476197 343.805997 
L 485.839947 366.69 
z
" style="fill: #ff7f0e; stroke: #ffffff; stroke-linejoin: miter"/>
   </g>
   <g id="text_55">
    <!-- Yes -->
    <g style="fill: #262626" transform="translate(529.937225 336.710832) scale(0.1 -0.1)">
     <use xlink:href="#DejaVuSans-59"/>
     <use xlink:href="#DejaVuSans-65" transform="translate(47.833984 0)"/>
     <use xlink:href="#DejaVuSans-73" transform="translate(109.357422 0)"/>
    </g>
   </g>
   <g id="text_56">
    <!-- 4% -->
    <g style="fill: #262626" transform="translate(503.631328 350.351892) scale(0.1 -0.1)">
     <use xlink:href="#DejaVuSans-34"/>
     <use xlink:href="#DejaVuSans-25" transform="translate(63.623047 0)"/>
    </g>
   </g>
   <g id="text_57">
    <!-- No -->
    <g style="fill: #262626" transform="translate(431.817444 399.459709) scale(0.1 -0.1)">
     <use xlink:href="#DejaVuSans-4e"/>
     <use xlink:href="#DejaVuSans-6f" transform="translate(74.804688 0)"/>
    </g>
   </g>
   <g id="text_58">
    <!-- 96% -->
    <g style="fill: #262626" transform="translate(452.678028 385.818648) scale(0.1 -0.1)">
     <use xlink:href="#DejaVuSans-39"/>
     <use xlink:href="#DejaVuSans-36" transform="translate(63.623047 0)"/>
     <use xlink:href="#DejaVuSans-25" transform="translate(127.246094 0)"/>
    </g>
   </g>
   <g id="text_59">
    <!-- Wikidata Database -->
    <g style="fill: #262626" transform="translate(429.183072 303.48) scale(0.12 -0.12)">
     <defs>
      <path id="DejaVuSans-57" d="M 213 4666 
L 850 4666 
L 1831 722 
L 2809 4666 
L 3519 4666 
L 4500 722 
L 5478 4666 
L 6119 4666 
L 4947 0 
L 4153 0 
L 3169 4050 
L 2175 0 
L 1381 0 
L 213 4666 
z
" transform="scale(0.015625)"/>
      <path id="DejaVuSans-6b" d="M 581 4863 
L 1159 4863 
L 1159 1991 
L 2875 3500 
L 3609 3500 
L 1753 1863 
L 3688 0 
L 2938 0 
L 1159 1709 
L 1159 0 
L 581 0 
L 581 4863 
z
" transform="scale(0.015625)"/>
      <path id="DejaVuSans-62" d="M 3116 1747 
Q 3116 2381 2855 2742 
Q 2594 3103 2138 3103 
Q 1681 3103 1420 2742 
Q 1159 2381 1159 1747 
Q 1159 1113 1420 752 
Q 1681 391 2138 391 
Q 2594 391 2855 752 
Q 3116 1113 3116 1747 
z
M 1159 2969 
Q 1341 3281 1617 3432 
Q 1894 3584 2278 3584 
Q 2916 3584 3314 3078 
Q 3713 2572 3713 1747 
Q 3713 922 3314 415 
Q 2916 -91 2278 -91 
Q 1894 -91 1617 61 
Q 1341 213 1159 525 
L 1159 0 
L 581 0 
L 581 4863 
L 1159 4863 
L 1159 2969 
z
" transform="scale(0.015625)"/>
     </defs>
     <use xlink:href="#DejaVuSans-57"/>
     <use xlink:href="#DejaVuSans-69" transform="translate(96.626953 0)"/>
     <use xlink:href="#DejaVuSans-6b" transform="translate(124.410156 0)"/>
     <use xlink:href="#DejaVuSans-69" transform="translate(182.320312 0)"/>
     <use xlink:href="#DejaVuSans-64" transform="translate(210.103516 0)"/>
     <use xlink:href="#DejaVuSans-61" transform="translate(273.580078 0)"/>
     <use xlink:href="#DejaVuSans-74" transform="translate(334.859375 0)"/>
     <use xlink:href="#DejaVuSans-61" transform="translate(374.068359 0)"/>
     <use xlink:href="#DejaVuSans-20" transform="translate(435.347656 0)"/>
     <use xlink:href="#DejaVuSans-44" transform="translate(467.134766 0)"/>
     <use xlink:href="#DejaVuSans-61" transform="translate(544.136719 0)"/>
     <use xlink:href="#DejaVuSans-74" transform="translate(605.416016 0)"/>
     <use xlink:href="#DejaVuSans-61" transform="translate(644.625 0)"/>
     <use xlink:href="#DejaVuSans-62" transform="translate(705.904297 0)"/>
     <use xlink:href="#DejaVuSans-61" transform="translate(769.380859 0)"/>
     <use xlink:href="#DejaVuSans-73" transform="translate(830.660156 0)"/>
     <use xlink:href="#DejaVuSans-65" transform="translate(882.759766 0)"/>
    </g>
   </g>
  </g>
  <g id="axes_12">
   <g id="matplotlib.axis_23"/>
   <g id="matplotlib.axis_24"/>
   <g id="patch_26">
    <path d="M 720.915597 340.597078 
C 718.980238 337.244938 716.627425 334.151816 713.913557 331.391857 
C 711.199689 328.631897 708.146625 326.227332 704.827551 324.235799 
L 681.279346 363.481078 
z
" style="fill: #1f77b4; stroke: #ffffff; stroke-linejoin: miter"/>
   </g>
   <g id="patch_27">
    <path d="M 701.56413 327.444722 
C 696.828478 324.603206 691.617377 322.642175 686.183287 321.656636 
C 680.749198 320.671096 675.181325 320.677223 669.74942 321.674728 
C 664.317515 322.672232 659.110736 324.644737 654.381353 327.496674 
C 649.65197 330.348611 645.477618 334.033164 642.060519 338.371834 
C 638.64342 342.710504 636.039673 347.632069 634.37543 352.898083 
C 632.711187 358.164098 632.013761 363.688128 632.316944 369.202535 
C 632.620126 374.716943 633.918937 380.131208 636.150456 385.183033 
C 638.381975 390.23486 641.509572 394.841314 645.381716 398.779221 
C 649.253859 402.717128 653.806987 405.921845 658.820518 408.238118 
C 663.834049 410.55439 669.225687 411.944192 674.734207 412.340192 
C 680.242727 412.736189 685.777717 412.131888 691.071009 410.556556 
C 696.364301 408.981224 701.329016 406.460721 705.724611 403.117168 
C 710.120205 399.773615 713.874541 395.661889 716.805712 390.981201 
C 719.736883 386.300513 721.796779 381.127709 722.885611 375.713371 
C 723.974443 370.299033 724.074336 364.732047 723.180441 359.282133 
C 722.286548 353.832219 720.413543 348.588827 717.652176 343.805997 
L 678.015926 366.69 
z
" style="fill: #ff7f0e; stroke: #ffffff; stroke-linejoin: miter"/>
   </g>
   <g id="text_60">
    <!-- Yes -->
    <g style="fill: #262626" transform="translate(717.176976 330.942307) scale(0.1 -0.1)">
     <use xlink:href="#DejaVuSans-59"/>
     <use xlink:href="#DejaVuSans-65" transform="translate(47.833984 0)"/>
     <use xlink:href="#DejaVuSans-73" transform="translate(109.357422 0)"/>
    </g>
   </g>
   <g id="text_61">
    <!-- 8% -->
    <g style="fill: #262626" transform="translate(692.927841 346.986919) scale(0.1 -0.1)">
     <use xlink:href="#DejaVuSans-38"/>
     <use xlink:href="#DejaVuSans-25" transform="translate(63.623047 0)"/>
    </g>
   </g>
   <g id="text_62">
    <!-- No -->
    <g style="fill: #262626" transform="translate(628.518303 404.747528) scale(0.1 -0.1)">
     <use xlink:href="#DejaVuSans-4e"/>
     <use xlink:href="#DejaVuSans-6f" transform="translate(74.804688 0)"/>
    </g>
   </g>
   <g id="text_63">
    <!-- 92% -->
    <g style="fill: #262626" transform="translate(647.322123 388.702913) scale(0.1 -0.1)">
     <use xlink:href="#DejaVuSans-39"/>
     <use xlink:href="#DejaVuSans-32" transform="translate(63.623047 0)"/>
     <use xlink:href="#DejaVuSans-25" transform="translate(127.246094 0)"/>
    </g>
   </g>
   <g id="text_64">
    <!-- OBO -->
    <g style="fill: #262626" transform="translate(664.558113 303.48) scale(0.12 -0.12)">
     <use xlink:href="#DejaVuSans-4f"/>
     <use xlink:href="#DejaVuSans-42" transform="translate(78.710938 0)"/>
     <use xlink:href="#DejaVuSans-4f" transform="translate(145.564453 0)"/>
    </g>
   </g>
  </g>
  <g id="axes_13">
   <g id="matplotlib.axis_25"/>
   <g id="matplotlib.axis_26"/>
   <g id="patch_28">
    <path d="M 143.460733 481.170533 
C 139.538474 474.376981 133.934702 468.704555 127.189413 464.699866 
C 120.444123 460.695176 112.781171 458.491126 104.938979 458.300105 
L 103.824482 504.054533 
z
" style="fill: #1f77b4; stroke: #ffffff; stroke-linejoin: miter"/>
   </g>
   <g id="patch_29">
    <path d="M 102.602488 462.235572 
C 97.576976 462.113159 92.565461 462.819554 87.769592 464.326338 
C 82.973723 465.833122 78.4587 468.119806 74.406209 471.094377 
C 70.353719 474.068948 66.81885 477.690967 63.943842 481.814691 
C 61.068835 485.938413 58.892778 490.50777 57.503224 495.338908 
C 56.11367 500.170046 55.529516 505.197293 55.774268 510.218334 
C 56.01902 515.239376 57.089348 520.185952 58.942187 524.85904 
C 60.795027 529.532129 63.405177 533.868177 66.667624 537.692728 
C 69.930071 541.517279 73.800468 544.77834 78.123051 547.344665 
C 82.445635 549.91099 87.161643 551.747701 92.081324 552.780898 
C 97.001005 553.814093 102.057482 554.029724 107.047262 553.419113 
C 112.037043 552.808503 116.892294 551.379952 121.417667 549.190943 
C 125.943039 547.001934 130.076995 544.082234 133.653201 540.549316 
C 137.229407 537.016397 140.199245 532.918287 142.443196 528.419904 
C 144.687146 523.921522 146.174711 519.084025 146.846039 514.10205 
C 147.517363 509.120074 147.363325 504.061347 146.39011 499.12945 
C 145.416896 494.197551 143.637751 489.459529 141.12425 485.106016 
L 101.487989 507.99 
z
" style="fill: #ff7f0e; stroke: #ffffff; stroke-linejoin: miter"/>
   </g>
   <g id="text_65">
    <!-- Yes -->
    <g style="fill: #262626" transform="translate(129.525901 463.523771) scale(0.1 -0.1)">
     <use xlink:href="#DejaVuSans-59"/>
     <use xlink:href="#DejaVuSans-65" transform="translate(47.833984 0)"/>
     <use xlink:href="#DejaVuSans-73" transform="translate(109.357422 0)"/>
    </g>
   </g>
   <g id="text_66">
    <!-- 16% -->
    <g style="fill: #262626" transform="translate(106.730157 483.201106) scale(0.1 -0.1)">
     <use xlink:href="#DejaVuSans-31"/>
     <use xlink:href="#DejaVuSans-36" transform="translate(63.623047 0)"/>
     <use xlink:href="#DejaVuSans-25" transform="translate(127.246094 0)"/>
    </g>
   </g>
   <g id="text_67">
    <!-- No -->
    <g style="fill: #262626" transform="translate(62.186559 554.039505) scale(0.1 -0.1)">
     <use xlink:href="#DejaVuSans-4e"/>
     <use xlink:href="#DejaVuSans-6f" transform="translate(74.804688 0)"/>
    </g>
   </g>
   <g id="text_68">
    <!-- 84% -->
    <g style="fill: #262626" transform="translate(76.355746 534.362173) scale(0.1 -0.1)">
     <use xlink:href="#DejaVuSans-38"/>
     <use xlink:href="#DejaVuSans-34" transform="translate(63.623047 0)"/>
     <use xlink:href="#DejaVuSans-25" transform="translate(127.246094 0)"/>
    </g>
   </g>
   <g id="text_69">
    <!-- OWL -->
    <g style="fill: #262626" transform="translate(87.489239 444.78) scale(0.12 -0.12)">
     <use xlink:href="#DejaVuSans-4f"/>
     <use xlink:href="#DejaVuSans-57" transform="translate(78.710938 0)"/>
     <use xlink:href="#DejaVuSans-4c" transform="translate(177.587891 0)"/>
    </g>
   </g>
  </g>
  <g id="axes_14">
   <g id="matplotlib.axis_27"/>
   <g id="matplotlib.axis_28"/>
   <g id="patch_30">
    <path d="M 337.074194 482.516751 
C 336.481243 481.489729 335.848598 480.486142 335.177694 479.508261 
C 334.506789 478.53038 333.798131 477.578944 333.053323 476.656108 
L 297.437943 505.400751 
z
" style="fill: #1f77b4; stroke: #ffffff; stroke-linejoin: miter"/>
   </g>
   <g id="patch_31">
    <path d="M 329.279348 479.245357 
C 325.598594 474.684807 321.075903 470.873396 315.957576 468.018699 
C 310.83925 465.164001 305.219922 463.318797 299.405627 462.583578 
C 293.591333 461.848359 287.689581 462.236715 282.021767 463.727499 
C 276.353952 465.218283 271.024873 467.783937 266.324762 471.284722 
C 261.62465 474.785508 257.6404 479.156706 254.589001 484.160257 
C 251.537602 489.163807 249.475469 494.707194 248.514907 500.488533 
C 247.554343 506.269871 247.713111 512.182268 248.982563 517.903723 
C 250.252015 523.625178 252.608683 529.049911 255.924216 533.882488 
C 259.23975 538.715065 263.452856 542.866139 268.334076 546.109632 
C 273.215295 549.353125 278.674388 551.629075 284.414042 552.813528 
C 290.153696 553.997981 296.067797 554.069039 301.834253 553.022835 
C 307.600708 551.976631 313.112888 549.832511 318.070631 546.707238 
C 323.028374 543.581965 327.340004 539.533321 330.770694 534.781804 
C 334.201384 530.030286 336.687716 524.66374 338.094273 518.974438 
C 339.500833 513.285137 339.80161 507.378262 338.980236 501.575513 
C 338.158861 495.772764 336.230516 490.18142 333.300218 485.105997 
L 293.663968 507.99 
z
" style="fill: #ff7f0e; stroke: #ffffff; stroke-linejoin: miter"/>
   </g>
   <g id="text_70">
    <!-- Yes -->
    <g style="fill: #262626" transform="translate(338.951668 479.678385) scale(0.1 -0.1)">
     <use xlink:href="#DejaVuSans-59"/>
     <use xlink:href="#DejaVuSans-65" transform="translate(47.833984 0)"/>
     <use xlink:href="#DejaVuSans-73" transform="translate(109.357422 0)"/>
    </g>
   </g>
   <g id="text_71">
    <!-- 2% -->
    <g style="fill: #262626" transform="translate(312.149762 492.624631) scale(0.1 -0.1)">
     <use xlink:href="#DejaVuSans-32"/>
     <use xlink:href="#DejaVuSans-25" transform="translate(63.623047 0)"/>
    </g>
   </g>
   <g id="text_72">
    <!-- No -->
    <g style="fill: #262626" transform="translate(238.550249 539.231124) scale(0.1 -0.1)">
     <use xlink:href="#DejaVuSans-4e"/>
     <use xlink:href="#DejaVuSans-6f" transform="translate(74.804688 0)"/>
    </g>
   </g>
   <g id="text_73">
    <!-- 98% -->
    <g style="fill: #262626" transform="translate(259.90684 526.284874) scale(0.1 -0.1)">
     <use xlink:href="#DejaVuSans-39"/>
     <use xlink:href="#DejaVuSans-38" transform="translate(63.623047 0)"/>
     <use xlink:href="#DejaVuSans-25" transform="translate(127.246094 0)"/>
    </g>
   </g>
   <g id="text_74">
    <!-- JSON -->
    <g style="fill: #262626" transform="translate(278.873031 444.78) scale(0.12 -0.12)">
     <defs>
      <path id="DejaVuSans-4a" d="M 628 4666 
L 1259 4666 
L 1259 325 
Q 1259 -519 939 -900 
Q 619 -1281 -91 -1281 
L -331 -1281 
L -331 -750 
L -134 -750 
Q 284 -750 456 -515 
Q 628 -281 628 325 
L 628 4666 
z
" transform="scale(0.015625)"/>
      <path id="DejaVuSans-53" d="M 3425 4513 
L 3425 3897 
Q 3066 4069 2747 4153 
Q 2428 4238 2131 4238 
Q 1616 4238 1336 4038 
Q 1056 3838 1056 3469 
Q 1056 3159 1242 3001 
Q 1428 2844 1947 2747 
L 2328 2669 
Q 3034 2534 3370 2195 
Q 3706 1856 3706 1288 
Q 3706 609 3251 259 
Q 2797 -91 1919 -91 
Q 1588 -91 1214 -16 
Q 841 59 441 206 
L 441 856 
Q 825 641 1194 531 
Q 1563 422 1919 422 
Q 2459 422 2753 634 
Q 3047 847 3047 1241 
Q 3047 1584 2836 1778 
Q 2625 1972 2144 2069 
L 1759 2144 
Q 1053 2284 737 2584 
Q 422 2884 422 3419 
Q 422 4038 858 4394 
Q 1294 4750 2059 4750 
Q 2388 4750 2728 4690 
Q 3069 4631 3425 4513 
z
" transform="scale(0.015625)"/>
     </defs>
     <use xlink:href="#DejaVuSans-4a"/>
     <use xlink:href="#DejaVuSans-53" transform="translate(29.492188 0)"/>
     <use xlink:href="#DejaVuSans-4f" transform="translate(92.96875 0)"/>
     <use xlink:href="#DejaVuSans-4e" transform="translate(171.679688 0)"/>
    </g>
   </g>
  </g>
  <g id="axes_15"/>
  <g id="axes_16"/>
  <g id="text_75">
   <!-- https://github.com/biopragmatics/bioregistry (2025-08-12) -->
   <g style="fill: #808080; opacity: 0.5" transform="translate(278.67625 574.33625) scale(0.08 -0.08)">
    <defs>
     <path id="DejaVuSans-3a" d="M 750 794 
L 1409 794 
L 1409 0 
L 750 0 
L 750 794 
z
M 750 3309 
L 1409 3309 
L 1409 2516 
L 750 2516 
L 750 3309 
z
" transform="scale(0.015625)"/>
     <path id="DejaVuSans-2f" d="M 1625 4666 
L 2156 4666 
L 531 -594 
L 0 -594 
L 1625 4666 
z
" transform="scale(0.015625)"/>
     <path id="DejaVuSans-75" d="M 544 1381 
L 544 3500 
L 1119 3500 
L 1119 1403 
Q 1119 906 1312 657 
Q 1506 409 1894 409 
Q 2359 409 2629 706 
Q 2900 1003 2900 1516 
L 2900 3500 
L 3475 3500 
L 3475 0 
L 2900 0 
L 2900 538 
Q 2691 219 2414 64 
Q 2138 -91 1772 -91 
Q 1169 -91 856 284 
Q 544 659 544 1381 
z
M 1991 3584 
L 1991 3584 
z
" transform="scale(0.015625)"/>
     <path id="DejaVuSans-28" d="M 1984 4856 
Q 1566 4138 1362 3434 
Q 1159 2731 1159 2009 
Q 1159 1288 1364 580 
Q 1569 -128 1984 -844 
L 1484 -844 
Q 1016 -109 783 600 
Q 550 1309 550 2009 
Q 550 2706 781 3412 
Q 1013 4119 1484 4856 
L 1984 4856 
z
" transform="scale(0.015625)"/>
     <path id="DejaVuSans-29" d="M 513 4856 
L 1013 4856 
Q 1481 4119 1714 3412 
Q 1947 2706 1947 2009 
Q 1947 1309 1714 600 
Q 1481 -109 1013 -844 
L 513 -844 
Q 928 -128 1133 580 
Q 1338 1288 1338 2009 
Q 1338 2731 1133 3434 
Q 928 4138 513 4856 
z
" transform="scale(0.015625)"/>
    </defs>
    <use xlink:href="#DejaVuSans-68"/>
    <use xlink:href="#DejaVuSans-74" transform="translate(63.378906 0)"/>
    <use xlink:href="#DejaVuSans-74" transform="translate(102.587891 0)"/>
    <use xlink:href="#DejaVuSans-70" transform="translate(141.796875 0)"/>
    <use xlink:href="#DejaVuSans-73" transform="translate(205.273438 0)"/>
    <use xlink:href="#DejaVuSans-3a" transform="translate(257.373047 0)"/>
    <use xlink:href="#DejaVuSans-2f" transform="translate(291.064453 0)"/>
    <use xlink:href="#DejaVuSans-2f" transform="translate(324.755859 0)"/>
    <use xlink:href="#DejaVuSans-67" transform="translate(358.447266 0)"/>
    <use xlink:href="#DejaVuSans-69" transform="translate(421.923828 0)"/>
    <use xlink:href="#DejaVuSans-74" transform="translate(449.707031 0)"/>
    <use xlink:href="#DejaVuSans-68" transform="translate(488.916016 0)"/>
    <use xlink:href="#DejaVuSans-75" transform="translate(552.294922 0)"/>
    <use xlink:href="#DejaVuSans-62" transform="translate(615.673828 0)"/>
    <use xlink:href="#DejaVuSans-2e" transform="translate(679.150391 0)"/>
    <use xlink:href="#DejaVuSans-63" transform="translate(710.9375 0)"/>
    <use xlink:href="#DejaVuSans-6f" transform="translate(765.917969 0)"/>
    <use xlink:href="#DejaVuSans-6d" transform="translate(827.099609 0)"/>
    <use xlink:href="#DejaVuSans-2f" transform="translate(924.511719 0)"/>
    <use xlink:href="#DejaVuSans-62" transform="translate(958.203125 0)"/>
    <use xlink:href="#DejaVuSans-69" transform="translate(1021.679688 0)"/>
    <use xlink:href="#DejaVuSans-6f" transform="translate(1049.462891 0)"/>
    <use xlink:href="#DejaVuSans-70" transform="translate(1110.644531 0)"/>
    <use xlink:href="#DejaVuSans-72" transform="translate(1174.121094 0)"/>
    <use xlink:href="#DejaVuSans-61" transform="translate(1215.234375 0)"/>
    <use xlink:href="#DejaVuSans-67" transform="translate(1276.513672 0)"/>
    <use xlink:href="#DejaVuSans-6d" transform="translate(1339.990234 0)"/>
    <use xlink:href="#DejaVuSans-61" transform="translate(1437.402344 0)"/>
    <use xlink:href="#DejaVuSans-74" transform="translate(1498.681641 0)"/>
    <use xlink:href="#DejaVuSans-69" transform="translate(1537.890625 0)"/>
    <use xlink:href="#DejaVuSans-63" transform="translate(1565.673828 0)"/>
    <use xlink:href="#DejaVuSans-73" transform="translate(1620.654297 0)"/>
    <use xlink:href="#DejaVuSans-2f" transform="translate(1672.753906 0)"/>
    <use xlink:href="#DejaVuSans-62" transform="translate(1706.445312 0)"/>
    <use xlink:href="#DejaVuSans-69" transform="translate(1769.921875 0)"/>
    <use xlink:href="#DejaVuSans-6f" transform="translate(1797.705078 0)"/>
    <use xlink:href="#DejaVuSans-72" transform="translate(1858.886719 0)"/>
    <use xlink:href="#DejaVuSans-65" transform="translate(1897.75 0)"/>
    <use xlink:href="#DejaVuSans-67" transform="translate(1959.273438 0)"/>
    <use xlink:href="#DejaVuSans-69" transform="translate(2022.75 0)"/>
    <use xlink:href="#DejaVuSans-73" transform="translate(2050.533203 0)"/>
    <use xlink:href="#DejaVuSans-74" transform="translate(2102.632812 0)"/>
    <use xlink:href="#DejaVuSans-72" transform="translate(2141.841797 0)"/>
    <use xlink:href="#DejaVuSans-79" transform="translate(2182.955078 0)"/>
    <use xlink:href="#DejaVuSans-20" transform="translate(2242.134766 0)"/>
    <use xlink:href="#DejaVuSans-28" transform="translate(2273.921875 0)"/>
    <use xlink:href="#DejaVuSans-32" transform="translate(2312.935547 0)"/>
    <use xlink:href="#DejaVuSans-30" transform="translate(2376.558594 0)"/>
    <use xlink:href="#DejaVuSans-32" transform="translate(2440.181641 0)"/>
    <use xlink:href="#DejaVuSans-35" transform="translate(2503.804688 0)"/>
    <use xlink:href="#DejaVuSans-2d" transform="translate(2567.427734 0)"/>
    <use xlink:href="#DejaVuSans-30" transform="translate(2603.511719 0)"/>
    <use xlink:href="#DejaVuSans-38" transform="translate(2667.134766 0)"/>
    <use xlink:href="#DejaVuSans-2d" transform="translate(2730.757812 0)"/>
    <use xlink:href="#DejaVuSans-31" transform="translate(2766.841797 0)"/>
    <use xlink:href="#DejaVuSans-32" transform="translate(2830.464844 0)"/>
    <use xlink:href="#DejaVuSans-29" transform="translate(2894.087891 0)"/>
   </g>
  </g>
 </g>
</svg>
