<?xml version="1.0" encoding="utf-8" standalone="no"?>
<!DOCTYPE svg PUBLIC "-//W3C//DTD SVG 1.1//EN"
  "http://www.w3.org/Graphics/SVG/1.1/DTD/svg11.dtd">
<svg xmlns:xlink="http://www.w3.org/1999/xlink" width="792pt" height="576pt" viewBox="0 0 792 576" xmlns="http://www.w3.org/2000/svg" version="1.1">
 <metadata>
  <rdf:RDF xmlns:dc="http://purl.org/dc/elements/1.1/" xmlns:cc="http://creativecommons.org/ns#" xmlns:rdf="http://www.w3.org/1999/02/22-rdf-syntax-ns#">
   <cc:Work>
    <dc:type rdf:resource="http://purl.org/dc/dcmitype/StillImage"/>
    <dc:date>2022-06-08T12:37:39.788988</dc:date>
    <dc:format>image/svg+xml</dc:format>
    <dc:creator>
     <cc:Agent>
      <dc:title>Matplotlib v3.5.2, https://matplotlib.org/</dc:title>
     </cc:Agent>
    </dc:creator>
   </cc:Work>
  </rdf:RDF>
 </metadata>
 <defs>
  <style type="text/css">*{stroke-linejoin: round; stroke-linecap: butt}</style>
 </defs>
 <g id="figure_1">
  <g id="patch_1">
   <path d="M 0 576 
L 792 576 
L 792 0 
L 0 0 
z
" style="fill: #ffffff"/>
  </g>
  <g id="axes_1">
   <g id="matplotlib.axis_1"/>
   <g id="matplotlib.axis_2"/>
   <g id="patch_2">
    <path d="M 129.651741 62.424568 
C 126.891065 57.642937 123.287768 53.400094 119.016336 49.901496 
C 114.744905 46.402897 109.875418 43.705943 104.643677 41.94123 
C 99.411937 40.176518 93.903777 39.373 88.385926 39.569587 
C 82.868076 39.766174 77.431063 40.959641 72.338173 43.092193 
C 67.245282 45.224746 62.580068 48.261398 58.568443 52.055101 
C 54.556818 55.848803 51.264597 60.337316 48.851203 65.303286 
C 46.43781 70.269255 44.942839 75.631207 44.438685 81.129493 
C 43.934531 86.627779 44.429463 92.172191 45.899517 97.494245 
C 47.36957 102.8163 49.790626 107.82868 53.045446 112.288665 
C 56.300266 116.74865 60.33545 120.583068 64.955597 123.606238 
C 69.575744 126.629409 74.705054 128.791733 80.095143 129.988502 
C 85.485232 131.185271 91.047669 131.39685 96.513096 130.612993 
C 101.978522 129.829136 107.257271 128.062704 112.093721 125.399234 
C 116.930171 122.735765 121.244974 119.218957 124.829188 115.019108 
C 128.413403 110.81926 131.208225 106.005276 133.078316 100.810271 
C 134.948408 95.615267 135.863088 90.124472 135.778063 84.603775 
L 90.01549 85.308568 
L 129.651741 62.424568 
z
" style="fill: #1f77b4; stroke: #ffffff; stroke-linejoin: miter"/>
   </g>
   <g id="patch_3">
    <path d="M 140.18966 83.385207 
C 140.129884 79.50392 139.576572 75.645958 138.543061 71.904324 
C 137.50955 68.162691 136.004214 64.567696 134.06334 61.206004 
L 94.427087 84.09 
L 140.18966 83.385207 
z
" style="fill: #ff7f0e; stroke: #ffffff; stroke-linejoin: miter"/>
   </g>
   <g id="text_1">
    <!-- Yes -->
    <g style="fill: #262626" transform="translate(25.342607 101.472188)scale(0.1 -0.1)">
     <defs>
      <path id="DejaVuSans-59" d="M -13 4666 
L 666 4666 
L 1959 2747 
L 3244 4666 
L 3922 4666 
L 2272 2222 
L 2272 0 
L 1638 0 
L 1638 2222 
L -13 4666 
z
" transform="scale(0.015625)"/>
      <path id="DejaVuSans-65" d="M 3597 1894 
L 3597 1613 
L 953 1613 
Q 991 1019 1311 708 
Q 1631 397 2203 397 
Q 2534 397 2845 478 
Q 3156 559 3463 722 
L 3463 178 
Q 3153 47 2828 -22 
Q 2503 -91 2169 -91 
Q 1331 -91 842 396 
Q 353 884 353 1716 
Q 353 2575 817 3079 
Q 1281 3584 2069 3584 
Q 2775 3584 3186 3129 
Q 3597 2675 3597 1894 
z
M 3022 2063 
Q 3016 2534 2758 2815 
Q 2500 3097 2075 3097 
Q 1594 3097 1305 2825 
Q 1016 2553 972 2059 
L 3022 2063 
z
" transform="scale(0.015625)"/>
      <path id="DejaVuSans-73" d="M 2834 3397 
L 2834 2853 
Q 2591 2978 2328 3040 
Q 2066 3103 1784 3103 
Q 1356 3103 1142 2972 
Q 928 2841 928 2578 
Q 928 2378 1081 2264 
Q 1234 2150 1697 2047 
L 1894 2003 
Q 2506 1872 2764 1633 
Q 3022 1394 3022 966 
Q 3022 478 2636 193 
Q 2250 -91 1575 -91 
Q 1294 -91 989 -36 
Q 684 19 347 128 
L 347 722 
Q 666 556 975 473 
Q 1284 391 1588 391 
Q 1994 391 2212 530 
Q 2431 669 2431 922 
Q 2431 1156 2273 1281 
Q 2116 1406 1581 1522 
L 1381 1569 
Q 847 1681 609 1914 
Q 372 2147 372 2553 
Q 372 3047 722 3315 
Q 1072 3584 1716 3584 
Q 2034 3584 2315 3537 
Q 2597 3491 2834 3397 
z
" transform="scale(0.015625)"/>
     </defs>
     <use xlink:href="#DejaVuSans-59"/>
     <use xlink:href="#DejaVuSans-65" x="47.833984"/>
     <use xlink:href="#DejaVuSans-73" x="109.357422"/>
    </g>
   </g>
   <g id="text_2">
    <!-- 92% -->
    <g style="fill: #262626" transform="translate(52.432625 95.379349)scale(0.1 -0.1)">
     <defs>
      <path id="DejaVuSans-39" d="M 703 97 
L 703 672 
Q 941 559 1184 500 
Q 1428 441 1663 441 
Q 2288 441 2617 861 
Q 2947 1281 2994 2138 
Q 2813 1869 2534 1725 
Q 2256 1581 1919 1581 
Q 1219 1581 811 2004 
Q 403 2428 403 3163 
Q 403 3881 828 4315 
Q 1253 4750 1959 4750 
Q 2769 4750 3195 4129 
Q 3622 3509 3622 2328 
Q 3622 1225 3098 567 
Q 2575 -91 1691 -91 
Q 1453 -91 1209 -44 
Q 966 3 703 97 
z
M 1959 2075 
Q 2384 2075 2632 2365 
Q 2881 2656 2881 3163 
Q 2881 3666 2632 3958 
Q 2384 4250 1959 4250 
Q 1534 4250 1286 3958 
Q 1038 3666 1038 3163 
Q 1038 2656 1286 2365 
Q 1534 2075 1959 2075 
z
" transform="scale(0.015625)"/>
      <path id="DejaVuSans-32" d="M 1228 531 
L 3431 531 
L 3431 0 
L 469 0 
L 469 531 
Q 828 903 1448 1529 
Q 2069 2156 2228 2338 
Q 2531 2678 2651 2914 
Q 2772 3150 2772 3378 
Q 2772 3750 2511 3984 
Q 2250 4219 1831 4219 
Q 1534 4219 1204 4116 
Q 875 4013 500 3803 
L 500 4441 
Q 881 4594 1212 4672 
Q 1544 4750 1819 4750 
Q 2544 4750 2975 4387 
Q 3406 4025 3406 3419 
Q 3406 3131 3298 2873 
Q 3191 2616 2906 2266 
Q 2828 2175 2409 1742 
Q 1991 1309 1228 531 
z
" transform="scale(0.015625)"/>
      <path id="DejaVuSans-25" d="M 4653 2053 
Q 4381 2053 4226 1822 
Q 4072 1591 4072 1178 
Q 4072 772 4226 539 
Q 4381 306 4653 306 
Q 4919 306 5073 539 
Q 5228 772 5228 1178 
Q 5228 1588 5073 1820 
Q 4919 2053 4653 2053 
z
M 4653 2450 
Q 5147 2450 5437 2106 
Q 5728 1763 5728 1178 
Q 5728 594 5436 251 
Q 5144 -91 4653 -91 
Q 4153 -91 3862 251 
Q 3572 594 3572 1178 
Q 3572 1766 3864 2108 
Q 4156 2450 4653 2450 
z
M 1428 4353 
Q 1159 4353 1004 4120 
Q 850 3888 850 3481 
Q 850 3069 1003 2837 
Q 1156 2606 1428 2606 
Q 1700 2606 1854 2837 
Q 2009 3069 2009 3481 
Q 2009 3884 1853 4118 
Q 1697 4353 1428 4353 
z
M 4250 4750 
L 4750 4750 
L 1831 -91 
L 1331 -91 
L 4250 4750 
z
M 1428 4750 
Q 1922 4750 2215 4408 
Q 2509 4066 2509 3481 
Q 2509 2891 2217 2550 
Q 1925 2209 1428 2209 
Q 931 2209 642 2551 
Q 353 2894 353 3481 
Q 353 4063 643 4406 
Q 934 4750 1428 4750 
z
" transform="scale(0.015625)"/>
     </defs>
     <use xlink:href="#DejaVuSans-39"/>
     <use xlink:href="#DejaVuSans-32" x="63.623047"/>
     <use xlink:href="#DejaVuSans-25" x="127.246094"/>
    </g>
   </g>
   <g id="text_3">
    <!-- No -->
    <g style="fill: #262626" transform="translate(142.954658 73.445132)scale(0.1 -0.1)">
     <defs>
      <path id="DejaVuSans-4e" d="M 628 4666 
L 1478 4666 
L 3547 763 
L 3547 4666 
L 4159 4666 
L 4159 0 
L 3309 0 
L 1241 3903 
L 1241 0 
L 628 0 
L 628 4666 
z
" transform="scale(0.015625)"/>
      <path id="DejaVuSans-6f" d="M 1959 3097 
Q 1497 3097 1228 2736 
Q 959 2375 959 1747 
Q 959 1119 1226 758 
Q 1494 397 1959 397 
Q 2419 397 2687 759 
Q 2956 1122 2956 1747 
Q 2956 2369 2687 2733 
Q 2419 3097 1959 3097 
z
M 1959 3584 
Q 2709 3584 3137 3096 
Q 3566 2609 3566 1747 
Q 3566 888 3137 398 
Q 2709 -91 1959 -91 
Q 1206 -91 779 398 
Q 353 888 353 1747 
Q 353 2609 779 3096 
Q 1206 3584 1959 3584 
z
" transform="scale(0.015625)"/>
     </defs>
     <use xlink:href="#DejaVuSans-4e"/>
     <use xlink:href="#DejaVuSans-6f" x="74.804688"/>
    </g>
   </g>
   <g id="text_4">
    <!-- 8% -->
    <g style="fill: #262626" transform="translate(112.96464 79.53797)scale(0.1 -0.1)">
     <defs>
      <path id="DejaVuSans-38" d="M 2034 2216 
Q 1584 2216 1326 1975 
Q 1069 1734 1069 1313 
Q 1069 891 1326 650 
Q 1584 409 2034 409 
Q 2484 409 2743 651 
Q 3003 894 3003 1313 
Q 3003 1734 2745 1975 
Q 2488 2216 2034 2216 
z
M 1403 2484 
Q 997 2584 770 2862 
Q 544 3141 544 3541 
Q 544 4100 942 4425 
Q 1341 4750 2034 4750 
Q 2731 4750 3128 4425 
Q 3525 4100 3525 3541 
Q 3525 3141 3298 2862 
Q 3072 2584 2669 2484 
Q 3125 2378 3379 2068 
Q 3634 1759 3634 1313 
Q 3634 634 3220 271 
Q 2806 -91 2034 -91 
Q 1263 -91 848 271 
Q 434 634 434 1313 
Q 434 1759 690 2068 
Q 947 2378 1403 2484 
z
M 1172 3481 
Q 1172 3119 1398 2916 
Q 1625 2713 2034 2713 
Q 2441 2713 2670 2916 
Q 2900 3119 2900 3481 
Q 2900 3844 2670 4047 
Q 2441 4250 2034 4250 
Q 1625 4250 1398 4047 
Q 1172 3844 1172 3481 
z
" transform="scale(0.015625)"/>
     </defs>
     <use xlink:href="#DejaVuSans-38"/>
     <use xlink:href="#DejaVuSans-25" x="63.623047"/>
    </g>
   </g>
   <g id="text_5">
    <!-- Name -->
    <g style="fill: #262626" transform="translate(76.725212 20.88)scale(0.12 -0.12)">
     <defs>
      <path id="DejaVuSans-61" d="M 2194 1759 
Q 1497 1759 1228 1600 
Q 959 1441 959 1056 
Q 959 750 1161 570 
Q 1363 391 1709 391 
Q 2188 391 2477 730 
Q 2766 1069 2766 1631 
L 2766 1759 
L 2194 1759 
z
M 3341 1997 
L 3341 0 
L 2766 0 
L 2766 531 
Q 2569 213 2275 61 
Q 1981 -91 1556 -91 
Q 1019 -91 701 211 
Q 384 513 384 1019 
Q 384 1609 779 1909 
Q 1175 2209 1959 2209 
L 2766 2209 
L 2766 2266 
Q 2766 2663 2505 2880 
Q 2244 3097 1772 3097 
Q 1472 3097 1187 3025 
Q 903 2953 641 2809 
L 641 3341 
Q 956 3463 1253 3523 
Q 1550 3584 1831 3584 
Q 2591 3584 2966 3190 
Q 3341 2797 3341 1997 
z
" transform="scale(0.015625)"/>
      <path id="DejaVuSans-6d" d="M 3328 2828 
Q 3544 3216 3844 3400 
Q 4144 3584 4550 3584 
Q 5097 3584 5394 3201 
Q 5691 2819 5691 2113 
L 5691 0 
L 5113 0 
L 5113 2094 
Q 5113 2597 4934 2840 
Q 4756 3084 4391 3084 
Q 3944 3084 3684 2787 
Q 3425 2491 3425 1978 
L 3425 0 
L 2847 0 
L 2847 2094 
Q 2847 2600 2669 2842 
Q 2491 3084 2119 3084 
Q 1678 3084 1418 2786 
Q 1159 2488 1159 1978 
L 1159 0 
L 581 0 
L 581 3500 
L 1159 3500 
L 1159 2956 
Q 1356 3278 1631 3431 
Q 1906 3584 2284 3584 
Q 2666 3584 2933 3390 
Q 3200 3197 3328 2828 
z
" transform="scale(0.015625)"/>
     </defs>
     <use xlink:href="#DejaVuSans-4e"/>
     <use xlink:href="#DejaVuSans-61" x="74.804688"/>
     <use xlink:href="#DejaVuSans-6d" x="136.083984"/>
     <use xlink:href="#DejaVuSans-65" x="233.496094"/>
    </g>
   </g>
  </g>
  <g id="axes_2">
   <g id="matplotlib.axis_3"/>
   <g id="matplotlib.axis_4"/>
   <g id="patch_4">
    <path d="M 307.705915 62.424568 
C 304.94524 57.642937 301.341942 53.400094 297.070511 49.901496 
C 292.799079 46.402897 287.929592 43.705943 282.697852 41.94123 
C 277.466111 40.176518 271.957951 39.373 266.440101 39.569587 
C 260.922251 39.766174 255.485238 40.959641 250.392347 43.092193 
C 245.299456 45.224746 240.634243 48.261398 236.622618 52.055101 
C 232.610992 55.848803 229.318771 60.337316 226.905378 65.303286 
C 224.491984 70.269255 222.997014 75.631207 222.49286 81.129493 
C 221.988705 86.627779 222.483638 92.172191 223.953691 97.494245 
C 225.423745 102.8163 227.844801 107.82868 231.09962 112.288665 
C 234.35444 116.74865 238.389624 120.583068 243.009771 123.606238 
C 247.629918 126.629409 252.759228 128.791733 258.149318 129.988502 
C 263.539407 131.185271 269.101844 131.39685 274.56727 130.612993 
C 280.032697 129.829136 285.311445 128.062704 290.147895 125.399234 
C 294.984345 122.735765 299.299149 119.218957 302.883363 115.019108 
C 306.467577 110.81926 309.262399 106.005276 311.132491 100.810271 
C 313.002582 95.615267 313.917262 90.124472 313.832238 84.603775 
L 268.069665 85.308568 
L 307.705915 62.424568 
z
" style="fill: #1f77b4; stroke: #ffffff; stroke-linejoin: miter"/>
   </g>
   <g id="patch_5">
    <path d="M 318.243835 83.385207 
C 318.184059 79.50392 317.630746 75.645958 316.597236 71.904324 
C 315.563725 68.162691 314.058388 64.567696 312.117515 61.206004 
L 272.481262 84.09 
L 318.243835 83.385207 
z
" style="fill: #ff7f0e; stroke: #ffffff; stroke-linejoin: miter"/>
   </g>
   <g id="text_6">
    <!-- Yes -->
    <g style="fill: #262626" transform="translate(203.396782 101.472188)scale(0.1 -0.1)">
     <use xlink:href="#DejaVuSans-59"/>
     <use xlink:href="#DejaVuSans-65" x="47.833984"/>
     <use xlink:href="#DejaVuSans-73" x="109.357422"/>
    </g>
   </g>
   <g id="text_7">
    <!-- 92% -->
    <g style="fill: #262626" transform="translate(230.486799 95.379349)scale(0.1 -0.1)">
     <use xlink:href="#DejaVuSans-39"/>
     <use xlink:href="#DejaVuSans-32" x="63.623047"/>
     <use xlink:href="#DejaVuSans-25" x="127.246094"/>
    </g>
   </g>
   <g id="text_8">
    <!-- No -->
    <g style="fill: #262626" transform="translate(321.008833 73.445132)scale(0.1 -0.1)">
     <use xlink:href="#DejaVuSans-4e"/>
     <use xlink:href="#DejaVuSans-6f" x="74.804688"/>
    </g>
   </g>
   <g id="text_9">
    <!-- 8% -->
    <g style="fill: #262626" transform="translate(291.018815 79.53797)scale(0.1 -0.1)">
     <use xlink:href="#DejaVuSans-38"/>
     <use xlink:href="#DejaVuSans-25" x="63.623047"/>
    </g>
   </g>
   <g id="text_10">
    <!-- Homepage -->
    <g style="fill: #262626" transform="translate(239.774699 20.88)scale(0.12 -0.12)">
     <defs>
      <path id="DejaVuSans-48" d="M 628 4666 
L 1259 4666 
L 1259 2753 
L 3553 2753 
L 3553 4666 
L 4184 4666 
L 4184 0 
L 3553 0 
L 3553 2222 
L 1259 2222 
L 1259 0 
L 628 0 
L 628 4666 
z
" transform="scale(0.015625)"/>
      <path id="DejaVuSans-70" d="M 1159 525 
L 1159 -1331 
L 581 -1331 
L 581 3500 
L 1159 3500 
L 1159 2969 
Q 1341 3281 1617 3432 
Q 1894 3584 2278 3584 
Q 2916 3584 3314 3078 
Q 3713 2572 3713 1747 
Q 3713 922 3314 415 
Q 2916 -91 2278 -91 
Q 1894 -91 1617 61 
Q 1341 213 1159 525 
z
M 3116 1747 
Q 3116 2381 2855 2742 
Q 2594 3103 2138 3103 
Q 1681 3103 1420 2742 
Q 1159 2381 1159 1747 
Q 1159 1113 1420 752 
Q 1681 391 2138 391 
Q 2594 391 2855 752 
Q 3116 1113 3116 1747 
z
" transform="scale(0.015625)"/>
      <path id="DejaVuSans-67" d="M 2906 1791 
Q 2906 2416 2648 2759 
Q 2391 3103 1925 3103 
Q 1463 3103 1205 2759 
Q 947 2416 947 1791 
Q 947 1169 1205 825 
Q 1463 481 1925 481 
Q 2391 481 2648 825 
Q 2906 1169 2906 1791 
z
M 3481 434 
Q 3481 -459 3084 -895 
Q 2688 -1331 1869 -1331 
Q 1566 -1331 1297 -1286 
Q 1028 -1241 775 -1147 
L 775 -588 
Q 1028 -725 1275 -790 
Q 1522 -856 1778 -856 
Q 2344 -856 2625 -561 
Q 2906 -266 2906 331 
L 2906 616 
Q 2728 306 2450 153 
Q 2172 0 1784 0 
Q 1141 0 747 490 
Q 353 981 353 1791 
Q 353 2603 747 3093 
Q 1141 3584 1784 3584 
Q 2172 3584 2450 3431 
Q 2728 3278 2906 2969 
L 2906 3500 
L 3481 3500 
L 3481 434 
z
" transform="scale(0.015625)"/>
     </defs>
     <use xlink:href="#DejaVuSans-48"/>
     <use xlink:href="#DejaVuSans-6f" x="75.195312"/>
     <use xlink:href="#DejaVuSans-6d" x="136.376953"/>
     <use xlink:href="#DejaVuSans-65" x="233.789062"/>
     <use xlink:href="#DejaVuSans-70" x="295.3125"/>
     <use xlink:href="#DejaVuSans-61" x="358.789062"/>
     <use xlink:href="#DejaVuSans-67" x="420.068359"/>
     <use xlink:href="#DejaVuSans-65" x="483.544922"/>
    </g>
   </g>
  </g>
  <g id="axes_3">
   <g id="matplotlib.axis_5"/>
   <g id="matplotlib.axis_6"/>
   <g id="patch_6">
    <path d="M 485.76009 62.424568 
C 482.999414 57.642937 479.396117 53.400094 475.124685 49.901496 
C 470.853254 46.402897 465.983767 43.705943 460.752026 41.94123 
C 455.520286 40.176518 450.012126 39.373 444.494276 39.569587 
C 438.976425 39.766174 433.539413 40.959641 428.446522 43.092193 
C 423.353631 45.224746 418.688418 48.261398 414.676792 52.055101 
C 410.665167 55.848803 407.372946 60.337316 404.959552 65.303286 
C 402.546159 70.269255 401.051189 75.631207 400.547034 81.129493 
C 400.04288 86.627779 400.537813 92.172191 402.007866 97.494245 
C 403.477919 102.8163 405.898975 107.82868 409.153795 112.288665 
C 412.408615 116.74865 416.443799 120.583068 421.063946 123.606238 
C 425.684093 126.629409 430.813403 128.791733 436.203492 129.988502 
C 441.593582 131.185271 447.156018 131.39685 452.621445 130.612993 
C 458.086871 129.829136 463.36562 128.062704 468.20207 125.399234 
C 473.03852 122.735765 477.353323 119.218957 480.937538 115.019108 
C 484.521752 110.81926 487.316574 106.005276 489.186665 100.810271 
C 491.056757 95.615267 491.971437 90.124472 491.886412 84.603775 
L 446.123839 85.308568 
L 485.76009 62.424568 
z
" style="fill: #1f77b4; stroke: #ffffff; stroke-linejoin: miter"/>
   </g>
   <g id="patch_7">
    <path d="M 496.29801 83.385207 
C 496.238234 79.50392 495.684921 75.645958 494.65141 71.904324 
C 493.617899 68.162691 492.112563 64.567696 490.171689 61.206004 
L 450.535436 84.09 
L 496.29801 83.385207 
z
" style="fill: #ff7f0e; stroke: #ffffff; stroke-linejoin: miter"/>
   </g>
   <g id="text_11">
    <!-- Yes -->
    <g style="fill: #262626" transform="translate(381.450956 101.472188)scale(0.1 -0.1)">
     <use xlink:href="#DejaVuSans-59"/>
     <use xlink:href="#DejaVuSans-65" x="47.833984"/>
     <use xlink:href="#DejaVuSans-73" x="109.357422"/>
    </g>
   </g>
   <g id="text_12">
    <!-- 92% -->
    <g style="fill: #262626" transform="translate(408.540974 95.379349)scale(0.1 -0.1)">
     <use xlink:href="#DejaVuSans-39"/>
     <use xlink:href="#DejaVuSans-32" x="63.623047"/>
     <use xlink:href="#DejaVuSans-25" x="127.246094"/>
    </g>
   </g>
   <g id="text_13">
    <!-- No -->
    <g style="fill: #262626" transform="translate(499.063008 73.445132)scale(0.1 -0.1)">
     <use xlink:href="#DejaVuSans-4e"/>
     <use xlink:href="#DejaVuSans-6f" x="74.804688"/>
    </g>
   </g>
   <g id="text_14">
    <!-- 8% -->
    <g style="fill: #262626" transform="translate(469.072989 79.53797)scale(0.1 -0.1)">
     <use xlink:href="#DejaVuSans-38"/>
     <use xlink:href="#DejaVuSans-25" x="63.623047"/>
    </g>
   </g>
   <g id="text_15">
    <!-- Description -->
    <g style="fill: #262626" transform="translate(416.363561 20.88)scale(0.12 -0.12)">
     <defs>
      <path id="DejaVuSans-44" d="M 1259 4147 
L 1259 519 
L 2022 519 
Q 2988 519 3436 956 
Q 3884 1394 3884 2338 
Q 3884 3275 3436 3711 
Q 2988 4147 2022 4147 
L 1259 4147 
z
M 628 4666 
L 1925 4666 
Q 3281 4666 3915 4102 
Q 4550 3538 4550 2338 
Q 4550 1131 3912 565 
Q 3275 0 1925 0 
L 628 0 
L 628 4666 
z
" transform="scale(0.015625)"/>
      <path id="DejaVuSans-63" d="M 3122 3366 
L 3122 2828 
Q 2878 2963 2633 3030 
Q 2388 3097 2138 3097 
Q 1578 3097 1268 2742 
Q 959 2388 959 1747 
Q 959 1106 1268 751 
Q 1578 397 2138 397 
Q 2388 397 2633 464 
Q 2878 531 3122 666 
L 3122 134 
Q 2881 22 2623 -34 
Q 2366 -91 2075 -91 
Q 1284 -91 818 406 
Q 353 903 353 1747 
Q 353 2603 823 3093 
Q 1294 3584 2113 3584 
Q 2378 3584 2631 3529 
Q 2884 3475 3122 3366 
z
" transform="scale(0.015625)"/>
      <path id="DejaVuSans-72" d="M 2631 2963 
Q 2534 3019 2420 3045 
Q 2306 3072 2169 3072 
Q 1681 3072 1420 2755 
Q 1159 2438 1159 1844 
L 1159 0 
L 581 0 
L 581 3500 
L 1159 3500 
L 1159 2956 
Q 1341 3275 1631 3429 
Q 1922 3584 2338 3584 
Q 2397 3584 2469 3576 
Q 2541 3569 2628 3553 
L 2631 2963 
z
" transform="scale(0.015625)"/>
      <path id="DejaVuSans-69" d="M 603 3500 
L 1178 3500 
L 1178 0 
L 603 0 
L 603 3500 
z
M 603 4863 
L 1178 4863 
L 1178 4134 
L 603 4134 
L 603 4863 
z
" transform="scale(0.015625)"/>
      <path id="DejaVuSans-74" d="M 1172 4494 
L 1172 3500 
L 2356 3500 
L 2356 3053 
L 1172 3053 
L 1172 1153 
Q 1172 725 1289 603 
Q 1406 481 1766 481 
L 2356 481 
L 2356 0 
L 1766 0 
Q 1100 0 847 248 
Q 594 497 594 1153 
L 594 3053 
L 172 3053 
L 172 3500 
L 594 3500 
L 594 4494 
L 1172 4494 
z
" transform="scale(0.015625)"/>
      <path id="DejaVuSans-6e" d="M 3513 2113 
L 3513 0 
L 2938 0 
L 2938 2094 
Q 2938 2591 2744 2837 
Q 2550 3084 2163 3084 
Q 1697 3084 1428 2787 
Q 1159 2491 1159 1978 
L 1159 0 
L 581 0 
L 581 3500 
L 1159 3500 
L 1159 2956 
Q 1366 3272 1645 3428 
Q 1925 3584 2291 3584 
Q 2894 3584 3203 3211 
Q 3513 2838 3513 2113 
z
" transform="scale(0.015625)"/>
     </defs>
     <use xlink:href="#DejaVuSans-44"/>
     <use xlink:href="#DejaVuSans-65" x="77.001953"/>
     <use xlink:href="#DejaVuSans-73" x="138.525391"/>
     <use xlink:href="#DejaVuSans-63" x="190.625"/>
     <use xlink:href="#DejaVuSans-72" x="245.605469"/>
     <use xlink:href="#DejaVuSans-69" x="286.71875"/>
     <use xlink:href="#DejaVuSans-70" x="314.501953"/>
     <use xlink:href="#DejaVuSans-74" x="377.978516"/>
     <use xlink:href="#DejaVuSans-69" x="417.1875"/>
     <use xlink:href="#DejaVuSans-6f" x="444.970703"/>
     <use xlink:href="#DejaVuSans-6e" x="506.152344"/>
    </g>
   </g>
  </g>
  <g id="axes_4">
   <g id="matplotlib.axis_7"/>
   <g id="matplotlib.axis_8"/>
   <g id="patch_8">
    <path d="M 663.762694 62.219525 
C 661.046421 57.514803 657.51406 53.331062 653.33128 49.864522 
C 649.148499 46.397982 644.38173 43.703697 639.254534 41.908031 
C 634.127338 40.112365 628.721146 39.243836 623.289508 39.343178 
C 617.857871 39.44252 612.487053 40.508156 607.428948 42.490106 
C 602.370844 44.472057 597.705783 47.338845 593.652561 50.956018 
C 589.599338 54.57319 586.222325 58.8833 583.679906 63.684202 
C 581.137486 68.485103 579.470038 73.70055 578.755766 79.085934 
C 578.041493 84.471319 578.291739 89.941112 579.494768 95.238779 
C 580.697797 100.536446 582.834502 105.57785 585.804671 110.126547 
C 588.774841 114.675244 592.531302 118.658993 596.897877 121.890955 
C 601.264452 125.122917 606.17179 127.551762 611.389737 129.063577 
C 616.607684 130.575392 622.053368 131.146166 627.471386 130.74913 
C 632.889404 130.352093 638.193706 128.993553 643.135521 126.737223 
C 648.077335 124.480894 652.578177 121.362611 656.426953 117.528622 
C 660.27573 113.694633 663.411317 109.20583 665.686654 104.272738 
C 667.961991 99.339646 669.340942 94.040613 669.758833 88.624164 
L 624.126444 85.103525 
L 663.762694 62.219525 
z
" style="fill: #1f77b4; stroke: #ffffff; stroke-linejoin: miter"/>
   </g>
   <g id="patch_9">
    <path d="M 674.222 87.610638 
C 674.575076 83.034282 674.237725 78.430739 673.221286 73.954742 
C 672.204846 69.478745 670.520836 65.181011 668.225857 61.205993 
L 628.589611 84.09 
L 674.222 87.610638 
z
" style="fill: #ff7f0e; stroke: #ffffff; stroke-linejoin: miter"/>
   </g>
   <g id="text_16">
    <!-- Yes -->
    <g style="fill: #262626" transform="translate(558.886288 99.011679)scale(0.1 -0.1)">
     <use xlink:href="#DejaVuSans-59"/>
     <use xlink:href="#DejaVuSans-65" x="47.833984"/>
     <use xlink:href="#DejaVuSans-73" x="109.357422"/>
    </g>
   </g>
   <g id="text_17">
    <!-- 90% -->
    <g style="fill: #262626" transform="translate(586.234157 93.944052)scale(0.1 -0.1)">
     <defs>
      <path id="DejaVuSans-30" d="M 2034 4250 
Q 1547 4250 1301 3770 
Q 1056 3291 1056 2328 
Q 1056 1369 1301 889 
Q 1547 409 2034 409 
Q 2525 409 2770 889 
Q 3016 1369 3016 2328 
Q 3016 3291 2770 3770 
Q 2525 4250 2034 4250 
z
M 2034 4750 
Q 2819 4750 3233 4129 
Q 3647 3509 3647 2328 
Q 3647 1150 3233 529 
Q 2819 -91 2034 -91 
Q 1250 -91 836 529 
Q 422 1150 422 2328 
Q 422 3509 836 4129 
Q 1250 4750 2034 4750 
z
" transform="scale(0.015625)"/>
     </defs>
     <use xlink:href="#DejaVuSans-39"/>
     <use xlink:href="#DejaVuSans-30" x="63.623047"/>
     <use xlink:href="#DejaVuSans-25" x="127.246094"/>
    </g>
   </g>
   <g id="text_18">
    <!-- No -->
    <g style="fill: #262626" transform="translate(677.684453 75.700592)scale(0.1 -0.1)">
     <use xlink:href="#DejaVuSans-4e"/>
     <use xlink:href="#DejaVuSans-6f" x="74.804688"/>
    </g>
   </g>
   <g id="text_19">
    <!-- 10% -->
    <g style="fill: #262626" transform="translate(644.255335 80.76822)scale(0.1 -0.1)">
     <defs>
      <path id="DejaVuSans-31" d="M 794 531 
L 1825 531 
L 1825 4091 
L 703 3866 
L 703 4441 
L 1819 4666 
L 2450 4666 
L 2450 531 
L 3481 531 
L 3481 0 
L 794 0 
L 794 531 
z
" transform="scale(0.015625)"/>
     </defs>
     <use xlink:href="#DejaVuSans-31"/>
     <use xlink:href="#DejaVuSans-30" x="63.623047"/>
     <use xlink:href="#DejaVuSans-25" x="127.246094"/>
    </g>
   </g>
   <g id="text_20">
    <!-- Example -->
    <g style="fill: #262626" transform="translate(602.558049 20.88)scale(0.12 -0.12)">
     <defs>
      <path id="DejaVuSans-45" d="M 628 4666 
L 3578 4666 
L 3578 4134 
L 1259 4134 
L 1259 2753 
L 3481 2753 
L 3481 2222 
L 1259 2222 
L 1259 531 
L 3634 531 
L 3634 0 
L 628 0 
L 628 4666 
z
" transform="scale(0.015625)"/>
      <path id="DejaVuSans-78" d="M 3513 3500 
L 2247 1797 
L 3578 0 
L 2900 0 
L 1881 1375 
L 863 0 
L 184 0 
L 1544 1831 
L 300 3500 
L 978 3500 
L 1906 2253 
L 2834 3500 
L 3513 3500 
z
" transform="scale(0.015625)"/>
      <path id="DejaVuSans-6c" d="M 603 4863 
L 1178 4863 
L 1178 0 
L 603 0 
L 603 4863 
z
" transform="scale(0.015625)"/>
     </defs>
     <use xlink:href="#DejaVuSans-45"/>
     <use xlink:href="#DejaVuSans-78" x="63.183594"/>
     <use xlink:href="#DejaVuSans-61" x="122.363281"/>
     <use xlink:href="#DejaVuSans-6d" x="183.642578"/>
     <use xlink:href="#DejaVuSans-70" x="281.054688"/>
     <use xlink:href="#DejaVuSans-6c" x="344.53125"/>
     <use xlink:href="#DejaVuSans-65" x="372.314453"/>
    </g>
   </g>
  </g>
  <g id="axes_5">
   <g id="matplotlib.axis_9"/>
   <g id="matplotlib.axis_10"/>
   <g id="patch_10">
    <path d="M 129.509449 202.048628 
C 127.103693 197.881737 124.055829 194.12016 120.47832 190.902696 
C 116.900812 187.685231 112.838209 185.051947 108.440417 183.100007 
C 104.042625 181.148067 99.364409 179.901779 94.578391 179.40713 
C 89.792374 178.912481 84.958153 179.175631 80.254108 180.186869 
C 75.550063 181.198107 71.034772 182.944842 66.874845 185.362619 
C 62.714918 187.780397 58.962157 190.839109 55.755036 194.425893 
C 52.547915 198.012677 49.926372 202.082867 47.987139 206.486277 
C 46.047905 210.889687 44.815131 215.571481 44.334303 220.358907 
C 43.853476 225.146333 44.130583 229.979774 45.1554 234.680879 
C 46.180217 239.381985 47.939982 243.892214 50.369761 248.045142 
C 52.79954 252.198071 55.869076 255.941984 59.465105 259.138735 
C 63.061135 262.335485 67.138877 264.945265 71.547868 266.871776 
C 75.956859 268.798286 80.642194 270.017537 85.430988 270.484539 
C 90.219783 270.951541 95.052403 270.660478 99.75053 269.622091 
C 104.448657 268.583704 108.953785 266.810924 113.099681 264.369163 
C 117.245576 261.927403 120.980611 258.847069 124.166964 255.241824 
L 89.873198 224.932628 
L 129.509449 202.048628 
z
" style="fill: #1f77b4; stroke: #ffffff; stroke-linejoin: miter"/>
   </g>
   <g id="patch_11">
    <path d="M 128.720854 255.699197 
C 135.072731 248.512276 139.00747 239.507277 139.965981 229.963723 
C 140.924493 220.420168 138.859123 210.812546 134.06334 202.506004 
L 94.427087 225.39 
L 128.720854 255.699197 
z
" style="fill: #ff7f0e; stroke: #ffffff; stroke-linejoin: miter"/>
   </g>
   <g id="text_21">
    <!-- Yes -->
    <g style="fill: #262626" transform="translate(23.635102 222.66091)scale(0.1 -0.1)">
     <use xlink:href="#DejaVuSans-59"/>
     <use xlink:href="#DejaVuSans-65" x="47.833984"/>
     <use xlink:href="#DejaVuSans-73" x="109.357422"/>
    </g>
   </g>
   <g id="text_22">
    <!-- 80% -->
    <g style="fill: #262626" transform="translate(51.43658 224.947771)scale(0.1 -0.1)">
     <use xlink:href="#DejaVuSans-38"/>
     <use xlink:href="#DejaVuSans-30" x="63.623047"/>
     <use xlink:href="#DejaVuSans-25" x="127.246094"/>
    </g>
   </g>
   <g id="text_23">
    <!-- No -->
    <g style="fill: #262626" transform="translate(144.519871 233.18047)scale(0.1 -0.1)">
     <use xlink:href="#DejaVuSans-4e"/>
     <use xlink:href="#DejaVuSans-6f" x="74.804688"/>
    </g>
   </g>
   <g id="text_24">
    <!-- 20% -->
    <g style="fill: #262626" transform="translate(110.637143 230.893609)scale(0.1 -0.1)">
     <use xlink:href="#DejaVuSans-32"/>
     <use xlink:href="#DejaVuSans-30" x="63.623047"/>
     <use xlink:href="#DejaVuSans-25" x="127.246094"/>
    </g>
   </g>
   <g id="text_25">
    <!-- Pattern -->
    <g style="fill: #262626" transform="translate(72.842087 162.18)scale(0.12 -0.12)">
     <defs>
      <path id="DejaVuSans-50" d="M 1259 4147 
L 1259 2394 
L 2053 2394 
Q 2494 2394 2734 2622 
Q 2975 2850 2975 3272 
Q 2975 3691 2734 3919 
Q 2494 4147 2053 4147 
L 1259 4147 
z
M 628 4666 
L 2053 4666 
Q 2838 4666 3239 4311 
Q 3641 3956 3641 3272 
Q 3641 2581 3239 2228 
Q 2838 1875 2053 1875 
L 1259 1875 
L 1259 0 
L 628 0 
L 628 4666 
z
" transform="scale(0.015625)"/>
     </defs>
     <use xlink:href="#DejaVuSans-50"/>
     <use xlink:href="#DejaVuSans-61" x="55.802734"/>
     <use xlink:href="#DejaVuSans-74" x="117.082031"/>
     <use xlink:href="#DejaVuSans-74" x="156.291016"/>
     <use xlink:href="#DejaVuSans-65" x="195.5"/>
     <use xlink:href="#DejaVuSans-72" x="257.023438"/>
     <use xlink:href="#DejaVuSans-6e" x="296.386719"/>
    </g>
   </g>
  </g>
  <g id="axes_6">
   <g id="matplotlib.axis_11"/>
   <g id="matplotlib.axis_12"/>
   <g id="patch_12">
    <path d="M 307.544104 202.682162 
C 305.005333 198.284882 301.752411 194.340577 297.918846 191.011131 
C 294.08528 187.681685 289.724243 185.013278 285.014721 183.115427 
C 280.305199 181.217576 275.312514 180.116605 270.241577 179.8577 
C 265.17064 179.598794 260.091786 180.185546 255.213461 181.593873 
C 250.335136 183.0022 245.725005 185.212569 241.572277 188.134261 
C 237.419549 191.055953 233.781823 194.648444 230.8084 198.76429 
C 227.834976 202.880136 225.567098 207.462249 224.097842 212.322571 
C 222.628586 217.182892 221.978333 222.254007 222.173769 227.327787 
C 222.369205 232.401567 223.40762 237.407636 225.246396 242.140536 
C 227.085171 246.873436 229.698803 251.267519 232.980022 255.142444 
C 236.261241 259.017368 240.164535 262.319387 244.529706 264.91298 
C 248.894876 267.506572 253.661377 269.355764 258.63358 270.38466 
C 263.605784 271.413556 268.714725 271.607885 273.750721 270.959672 
C 278.786717 270.311459 283.679917 268.829695 288.229496 266.575194 
C 292.779074 264.320693 296.921925 261.324726 300.488019 257.710254 
C 304.054113 254.095781 306.993986 249.912938 309.186981 245.333395 
L 267.907853 225.566162 
L 307.544104 202.682162 
z
" style="fill: #1f77b4; stroke: #ffffff; stroke-linejoin: miter"/>
   </g>
   <g id="patch_13">
    <path d="M 313.760389 245.157232 
C 316.97233 238.449863 318.501589 231.059627 318.215347 223.62838 
C 317.929104 216.197133 315.835895 208.946429 312.117517 202.506007 
L 272.481262 225.39 
L 313.760389 245.157232 
z
" style="fill: #ff7f0e; stroke: #ffffff; stroke-linejoin: miter"/>
   </g>
   <g id="text_26">
    <!-- Yes -->
    <g style="fill: #262626" transform="translate(201.455048 230.263324)scale(0.1 -0.1)">
     <use xlink:href="#DejaVuSans-59"/>
     <use xlink:href="#DejaVuSans-65" x="47.833984"/>
     <use xlink:href="#DejaVuSans-73" x="109.357422"/>
    </g>
   </g>
   <g id="text_27">
    <!-- 85% -->
    <g style="fill: #262626" transform="translate(229.354121 229.382512)scale(0.1 -0.1)">
     <defs>
      <path id="DejaVuSans-35" d="M 691 4666 
L 3169 4666 
L 3169 4134 
L 1269 4134 
L 1269 2991 
Q 1406 3038 1543 3061 
Q 1681 3084 1819 3084 
Q 2600 3084 3056 2656 
Q 3513 2228 3513 1497 
Q 3513 744 3044 326 
Q 2575 -91 1722 -91 
Q 1428 -91 1123 -41 
Q 819 9 494 109 
L 494 744 
Q 775 591 1075 516 
Q 1375 441 1709 441 
Q 2250 441 2565 725 
Q 2881 1009 2881 1497 
Q 2881 1984 2565 2268 
Q 2250 2553 1709 2553 
Q 1456 2553 1204 2497 
Q 953 2441 691 2322 
L 691 4666 
z
" transform="scale(0.015625)"/>
     </defs>
     <use xlink:href="#DejaVuSans-38"/>
     <use xlink:href="#DejaVuSans-35" x="63.623047"/>
     <use xlink:href="#DejaVuSans-25" x="127.246094"/>
    </g>
   </g>
   <g id="text_28">
    <!-- No -->
    <g style="fill: #262626" transform="translate(322.788755 226.211593)scale(0.1 -0.1)">
     <use xlink:href="#DejaVuSans-4e"/>
     <use xlink:href="#DejaVuSans-6f" x="74.804688"/>
    </g>
   </g>
   <g id="text_29">
    <!-- 15% -->
    <g style="fill: #262626" transform="translate(288.808432 227.092403)scale(0.1 -0.1)">
     <use xlink:href="#DejaVuSans-31"/>
     <use xlink:href="#DejaVuSans-35" x="63.623047"/>
     <use xlink:href="#DejaVuSans-25" x="127.246094"/>
    </g>
   </g>
   <g id="text_30">
    <!-- Provider -->
    <g style="fill: #262626" transform="translate(247.780012 162.18)scale(0.12 -0.12)">
     <defs>
      <path id="DejaVuSans-76" d="M 191 3500 
L 800 3500 
L 1894 563 
L 2988 3500 
L 3597 3500 
L 2284 0 
L 1503 0 
L 191 3500 
z
" transform="scale(0.015625)"/>
      <path id="DejaVuSans-64" d="M 2906 2969 
L 2906 4863 
L 3481 4863 
L 3481 0 
L 2906 0 
L 2906 525 
Q 2725 213 2448 61 
Q 2172 -91 1784 -91 
Q 1150 -91 751 415 
Q 353 922 353 1747 
Q 353 2572 751 3078 
Q 1150 3584 1784 3584 
Q 2172 3584 2448 3432 
Q 2725 3281 2906 2969 
z
M 947 1747 
Q 947 1113 1208 752 
Q 1469 391 1925 391 
Q 2381 391 2643 752 
Q 2906 1113 2906 1747 
Q 2906 2381 2643 2742 
Q 2381 3103 1925 3103 
Q 1469 3103 1208 2742 
Q 947 2381 947 1747 
z
" transform="scale(0.015625)"/>
     </defs>
     <use xlink:href="#DejaVuSans-50"/>
     <use xlink:href="#DejaVuSans-72" x="58.552734"/>
     <use xlink:href="#DejaVuSans-6f" x="97.416016"/>
     <use xlink:href="#DejaVuSans-76" x="158.597656"/>
     <use xlink:href="#DejaVuSans-69" x="217.777344"/>
     <use xlink:href="#DejaVuSans-64" x="245.560547"/>
     <use xlink:href="#DejaVuSans-65" x="309.037109"/>
     <use xlink:href="#DejaVuSans-72" x="370.560547"/>
    </g>
   </g>
  </g>
  <g id="axes_7">
   <g id="matplotlib.axis_13"/>
   <g id="matplotlib.axis_14"/>
   <g id="patch_14">
    <path d="M 492.856157 198.799153 
C 489.637439 193.224168 485.278426 188.390484 480.064609 184.614678 
C 474.850792 180.838872 468.898536 178.205215 462.597679 176.886197 
L 453.219907 221.683153 
L 492.856157 198.799153 
z
" style="fill: #1f77b4; stroke: #ffffff; stroke-linejoin: miter"/>
   </g>
   <g id="patch_15">
    <path d="M 459.913209 180.593045 
C 454.821819 179.527216 449.585785 179.337137 444.430514 180.03099 
C 439.275244 180.724844 434.27579 182.29253 429.647374 184.666559 
C 425.018958 187.040588 420.828963 190.186399 417.257766 193.968567 
C 413.686568 197.750735 410.786159 202.114197 408.681397 206.871111 
C 406.576636 211.628025 405.298166 216.709136 404.901022 221.895708 
C 404.503879 227.08228 404.993845 232.298803 406.349828 237.320711 
C 407.705811 242.342619 409.90807 247.0968 412.861799 251.378591 
C 415.815528 255.660382 419.477725 259.407446 423.690736 262.458476 
C 427.903748 265.509506 432.606238 267.820083 437.595769 269.290738 
C 442.5853 270.761394 447.789231 271.370718 452.983539 271.092479 
C 458.177847 270.814241 463.286909 269.65249 468.090785 267.65724 
C 472.894661 265.66199 477.323413 262.862288 481.186389 259.378659 
C 485.049364 255.89503 488.290323 251.778191 490.769745 247.205367 
C 493.249167 242.632544 494.930955 237.67031 495.74271 232.532285 
C 496.554465 227.39426 496.484369 222.155246 495.53544 217.040778 
C 494.586511 211.92631 492.772563 207.010847 490.171685 202.505996 
L 450.535436 225.39 
L 459.913209 180.593045 
z
" style="fill: #ff7f0e; stroke: #ffffff; stroke-linejoin: miter"/>
   </g>
   <g id="text_31">
    <!-- Yes -->
    <g style="fill: #262626" transform="translate(482.749079 183.667206)scale(0.1 -0.1)">
     <use xlink:href="#DejaVuSans-59"/>
     <use xlink:href="#DejaVuSans-65" x="47.833984"/>
     <use xlink:href="#DejaVuSans-73" x="109.357422"/>
    </g>
   </g>
   <g id="text_32">
    <!-- 13% -->
    <g style="fill: #262626" transform="translate(458.213447 202.201443)scale(0.1 -0.1)">
     <defs>
      <path id="DejaVuSans-33" d="M 2597 2516 
Q 3050 2419 3304 2112 
Q 3559 1806 3559 1356 
Q 3559 666 3084 287 
Q 2609 -91 1734 -91 
Q 1441 -91 1130 -33 
Q 819 25 488 141 
L 488 750 
Q 750 597 1062 519 
Q 1375 441 1716 441 
Q 2309 441 2620 675 
Q 2931 909 2931 1356 
Q 2931 1769 2642 2001 
Q 2353 2234 1838 2234 
L 1294 2234 
L 1294 2753 
L 1863 2753 
Q 2328 2753 2575 2939 
Q 2822 3125 2822 3475 
Q 2822 3834 2567 4026 
Q 2313 4219 1838 4219 
Q 1578 4219 1281 4162 
Q 984 4106 628 3988 
L 628 4550 
Q 988 4650 1302 4700 
Q 1616 4750 1894 4750 
Q 2613 4750 3031 4423 
Q 3450 4097 3450 3541 
Q 3450 3153 3228 2886 
Q 3006 2619 2597 2516 
z
" transform="scale(0.015625)"/>
     </defs>
     <use xlink:href="#DejaVuSans-31"/>
     <use xlink:href="#DejaVuSans-33" x="63.623047"/>
     <use xlink:href="#DejaVuSans-25" x="127.246094"/>
    </g>
   </g>
   <g id="text_33">
    <!-- No -->
    <g style="fill: #262626" transform="translate(407.406266 268.924698)scale(0.1 -0.1)">
     <use xlink:href="#DejaVuSans-4e"/>
     <use xlink:href="#DejaVuSans-6f" x="74.804688"/>
    </g>
   </g>
   <g id="text_34">
    <!-- 87% -->
    <g style="fill: #262626" transform="translate(423.315335 250.39046)scale(0.1 -0.1)">
     <defs>
      <path id="DejaVuSans-37" d="M 525 4666 
L 3525 4666 
L 3525 4397 
L 1831 0 
L 1172 0 
L 2766 4134 
L 525 4134 
L 525 4666 
z
" transform="scale(0.015625)"/>
     </defs>
     <use xlink:href="#DejaVuSans-38"/>
     <use xlink:href="#DejaVuSans-37" x="63.623047"/>
     <use xlink:href="#DejaVuSans-25" x="127.246094"/>
    </g>
   </g>
   <g id="text_35">
    <!-- License -->
    <g style="fill: #262626" transform="translate(427.914499 162.18)scale(0.12 -0.12)">
     <defs>
      <path id="DejaVuSans-4c" d="M 628 4666 
L 1259 4666 
L 1259 531 
L 3531 531 
L 3531 0 
L 628 0 
L 628 4666 
z
" transform="scale(0.015625)"/>
     </defs>
     <use xlink:href="#DejaVuSans-4c"/>
     <use xlink:href="#DejaVuSans-69" x="55.712891"/>
     <use xlink:href="#DejaVuSans-63" x="83.496094"/>
     <use xlink:href="#DejaVuSans-65" x="138.476562"/>
     <use xlink:href="#DejaVuSans-6e" x="200"/>
     <use xlink:href="#DejaVuSans-73" x="263.378906"/>
     <use xlink:href="#DejaVuSans-65" x="315.478516"/>
    </g>
   </g>
  </g>
  <g id="axes_8">
   <g id="matplotlib.axis_15"/>
   <g id="matplotlib.axis_16"/>
   <g id="patch_16">
    <path d="M 668.225862 202.506 
C 663.479436 194.28495 656.29085 187.740758 647.661461 183.78502 
C 639.032073 179.829282 629.382079 178.654617 620.055709 180.424654 
C 610.729338 182.194691 602.180728 186.823241 595.600684 193.665553 
C 589.02064 200.507866 584.729571 209.230763 583.325215 218.61916 
L 628.589611 225.39 
L 668.225862 202.506 
z
" style="fill: #1f77b4; stroke: #ffffff; stroke-linejoin: miter"/>
   </g>
   <g id="patch_17">
    <path d="M 583.325215 218.61916 
C 582.046976 227.164443 583.214335 235.899516 586.691634 243.809266 
C 590.168933 251.719016 595.816042 258.484693 602.976703 263.320051 
C 610.137364 268.155408 618.523016 270.865589 627.15915 271.13564 
C 635.795285 271.405691 644.333882 269.224729 651.78266 264.846207 
L 628.589611 225.39 
L 583.325215 218.61916 
z
" style="fill: #ff7f0e; stroke: #ffffff; stroke-linejoin: miter"/>
   </g>
   <g id="patch_18">
    <path d="M 651.78266 264.846207 
C 660.071592 259.973828 666.618079 252.611167 670.487586 243.809271 
C 674.357093 235.007375 675.356292 225.206004 673.342543 215.80434 
L 628.589611 225.39 
L 651.78266 264.846207 
z
" style="fill: #2ca02c; stroke: #ffffff; stroke-linejoin: miter"/>
   </g>
   <g id="patch_19">
    <path d="M 673.342543 215.80434 
C 673.192714 215.104828 673.026506 214.408925 672.844054 213.717205 
C 672.661602 213.025485 672.462957 212.338137 672.248283 211.655729 
L 628.589611 225.39 
L 673.342543 215.80434 
z
" style="fill: #d62728; stroke: #ffffff; stroke-linejoin: miter"/>
   </g>
   <g id="patch_20">
    <path d="M 672.248283 211.655729 
C 672.033609 210.973321 671.802965 210.296039 671.556541 209.624444 
C 671.310117 208.952848 671.047981 208.287122 670.770348 207.627814 
L 628.589611 225.39 
L 672.248283 211.655729 
z
" style="fill: #9467bd; stroke: #ffffff; stroke-linejoin: miter"/>
   </g>
   <g id="patch_21">
    <path d="M 670.770348 207.627814 
C 670.677808 207.408054 670.583552 207.189021 670.487588 206.970734 
C 670.391624 206.752447 670.293956 206.534913 670.194592 206.318153 
L 628.589611 225.39 
L 670.770348 207.627814 
z
" style="fill: #8c564b; stroke: #ffffff; stroke-linejoin: miter"/>
   </g>
   <g id="patch_22">
    <path d="M 670.194592 206.318153 
C 670.095229 206.101392 669.994173 205.885411 669.891433 205.67023 
C 669.788694 205.455049 669.684275 205.240675 669.578185 205.027126 
L 628.589611 225.39 
L 670.194592 206.318153 
z
" style="fill: #e377c2; stroke: #ffffff; stroke-linejoin: miter"/>
   </g>
   <g id="patch_23">
    <path d="M 669.578185 205.027126 
C 669.472095 204.813577 669.364338 204.60086 669.254923 204.388995 
C 669.145509 204.17713 669.03444 203.966124 668.921728 203.755995 
L 628.589611 225.39 
L 669.578185 205.027126 
z
" style="fill: #7f7f7f; stroke: #ffffff; stroke-linejoin: miter"/>
   </g>
   <g id="patch_24">
    <path d="M 668.921728 203.755995 
C 668.809015 203.545866 668.694663 203.336621 668.57868 203.128279 
C 668.462697 202.919938 668.345088 202.712506 668.225863 202.506002 
L 628.589611 225.39 
L 668.921728 203.755995 
z
" style="fill: #bcbd22; stroke: #ffffff; stroke-linejoin: miter"/>
   </g>
   <g id="text_36">
    <!-- CC BY 4.0 -->
    <g style="fill: #262626" transform="translate(570.558568 178.687494)scale(0.1 -0.1)">
     <defs>
      <path id="DejaVuSans-43" d="M 4122 4306 
L 4122 3641 
Q 3803 3938 3442 4084 
Q 3081 4231 2675 4231 
Q 1875 4231 1450 3742 
Q 1025 3253 1025 2328 
Q 1025 1406 1450 917 
Q 1875 428 2675 428 
Q 3081 428 3442 575 
Q 3803 722 4122 1019 
L 4122 359 
Q 3791 134 3420 21 
Q 3050 -91 2638 -91 
Q 1578 -91 968 557 
Q 359 1206 359 2328 
Q 359 3453 968 4101 
Q 1578 4750 2638 4750 
Q 3056 4750 3426 4639 
Q 3797 4528 4122 4306 
z
" transform="scale(0.015625)"/>
      <path id="DejaVuSans-20" transform="scale(0.015625)"/>
      <path id="DejaVuSans-42" d="M 1259 2228 
L 1259 519 
L 2272 519 
Q 2781 519 3026 730 
Q 3272 941 3272 1375 
Q 3272 1813 3026 2020 
Q 2781 2228 2272 2228 
L 1259 2228 
z
M 1259 4147 
L 1259 2741 
L 2194 2741 
Q 2656 2741 2882 2914 
Q 3109 3088 3109 3444 
Q 3109 3797 2882 3972 
Q 2656 4147 2194 4147 
L 1259 4147 
z
M 628 4666 
L 2241 4666 
Q 2963 4666 3353 4366 
Q 3744 4066 3744 3513 
Q 3744 3084 3544 2831 
Q 3344 2578 2956 2516 
Q 3422 2416 3680 2098 
Q 3938 1781 3938 1306 
Q 3938 681 3513 340 
Q 3088 0 2303 0 
L 628 0 
L 628 4666 
z
" transform="scale(0.015625)"/>
      <path id="DejaVuSans-34" d="M 2419 4116 
L 825 1625 
L 2419 1625 
L 2419 4116 
z
M 2253 4666 
L 3047 4666 
L 3047 1625 
L 3713 1625 
L 3713 1100 
L 3047 1100 
L 3047 0 
L 2419 0 
L 2419 1100 
L 313 1100 
L 313 1709 
L 2253 4666 
z
" transform="scale(0.015625)"/>
      <path id="DejaVuSans-2e" d="M 684 794 
L 1344 794 
L 1344 0 
L 684 0 
L 684 794 
z
" transform="scale(0.015625)"/>
     </defs>
     <use xlink:href="#DejaVuSans-43"/>
     <use xlink:href="#DejaVuSans-43" x="69.824219"/>
     <use xlink:href="#DejaVuSans-20" x="139.648438"/>
     <use xlink:href="#DejaVuSans-42" x="171.435547"/>
     <use xlink:href="#DejaVuSans-59" x="234.539062"/>
     <use xlink:href="#DejaVuSans-20" x="295.623047"/>
     <use xlink:href="#DejaVuSans-34" x="327.410156"/>
     <use xlink:href="#DejaVuSans-2e" x="391.033203"/>
     <use xlink:href="#DejaVuSans-30" x="422.820312"/>
    </g>
   </g>
   <g id="text_37">
    <!-- 39% -->
    <g style="fill: #262626" transform="translate(612.355988 201.170167)scale(0.1 -0.1)">
     <use xlink:href="#DejaVuSans-33"/>
     <use xlink:href="#DejaVuSans-39" x="63.623047"/>
     <use xlink:href="#DejaVuSans-25" x="127.246094"/>
    </g>
   </g>
   <g id="text_38">
    <!-- CC BY 3.0 -->
    <g style="fill: #262626" transform="translate(551.771662 269.872431)scale(0.1 -0.1)">
     <use xlink:href="#DejaVuSans-43"/>
     <use xlink:href="#DejaVuSans-43" x="69.824219"/>
     <use xlink:href="#DejaVuSans-20" x="139.648438"/>
     <use xlink:href="#DejaVuSans-42" x="171.435547"/>
     <use xlink:href="#DejaVuSans-59" x="234.539062"/>
     <use xlink:href="#DejaVuSans-20" x="295.623047"/>
     <use xlink:href="#DejaVuSans-33" x="327.410156"/>
     <use xlink:href="#DejaVuSans-2e" x="391.033203"/>
     <use xlink:href="#DejaVuSans-30" x="422.820312"/>
    </g>
   </g>
   <g id="text_39">
    <!-- 36% -->
    <g style="fill: #262626" transform="translate(602.108585 250.907406)scale(0.1 -0.1)">
     <defs>
      <path id="DejaVuSans-36" d="M 2113 2584 
Q 1688 2584 1439 2293 
Q 1191 2003 1191 1497 
Q 1191 994 1439 701 
Q 1688 409 2113 409 
Q 2538 409 2786 701 
Q 3034 994 3034 1497 
Q 3034 2003 2786 2293 
Q 2538 2584 2113 2584 
z
M 3366 4563 
L 3366 3988 
Q 3128 4100 2886 4159 
Q 2644 4219 2406 4219 
Q 1781 4219 1451 3797 
Q 1122 3375 1075 2522 
Q 1259 2794 1537 2939 
Q 1816 3084 2150 3084 
Q 2853 3084 3261 2657 
Q 3669 2231 3669 1497 
Q 3669 778 3244 343 
Q 2819 -91 2113 -91 
Q 1303 -91 875 529 
Q 447 1150 447 2328 
Q 447 3434 972 4092 
Q 1497 4750 2381 4750 
Q 2619 4750 2861 4703 
Q 3103 4656 3366 4563 
z
" transform="scale(0.015625)"/>
     </defs>
     <use xlink:href="#DejaVuSans-33"/>
     <use xlink:href="#DejaVuSans-36" x="63.623047"/>
     <use xlink:href="#DejaVuSans-25" x="127.246094"/>
    </g>
   </g>
   <g id="text_40">
    <!-- CC0 1.0 -->
    <g style="fill: #262626" transform="translate(674.677383 248.410573)scale(0.1 -0.1)">
     <use xlink:href="#DejaVuSans-43"/>
     <use xlink:href="#DejaVuSans-43" x="69.824219"/>
     <use xlink:href="#DejaVuSans-30" x="139.648438"/>
     <use xlink:href="#DejaVuSans-20" x="203.271484"/>
     <use xlink:href="#DejaVuSans-31" x="235.058594"/>
     <use xlink:href="#DejaVuSans-2e" x="298.681641"/>
     <use xlink:href="#DejaVuSans-30" x="330.46875"/>
    </g>
   </g>
   <g id="text_41">
    <!-- 20% -->
    <g style="fill: #262626" transform="translate(642.615115 239.200938)scale(0.1 -0.1)">
     <use xlink:href="#DejaVuSans-32"/>
     <use xlink:href="#DejaVuSans-30" x="63.623047"/>
     <use xlink:href="#DejaVuSans-25" x="127.246094"/>
    </g>
   </g>
   <g id="text_42">
    <!-- Artistic License 2.0 -->
    <g style="fill: #262626" transform="translate(677.269498 215.3093)scale(0.1 -0.1)">
     <defs>
      <path id="DejaVuSans-41" d="M 2188 4044 
L 1331 1722 
L 3047 1722 
L 2188 4044 
z
M 1831 4666 
L 2547 4666 
L 4325 0 
L 3669 0 
L 3244 1197 
L 1141 1197 
L 716 0 
L 50 0 
L 1831 4666 
z
" transform="scale(0.015625)"/>
     </defs>
     <use xlink:href="#DejaVuSans-41"/>
     <use xlink:href="#DejaVuSans-72" x="68.408203"/>
     <use xlink:href="#DejaVuSans-74" x="109.521484"/>
     <use xlink:href="#DejaVuSans-69" x="148.730469"/>
     <use xlink:href="#DejaVuSans-73" x="176.513672"/>
     <use xlink:href="#DejaVuSans-74" x="228.613281"/>
     <use xlink:href="#DejaVuSans-69" x="267.822266"/>
     <use xlink:href="#DejaVuSans-63" x="295.605469"/>
     <use xlink:href="#DejaVuSans-20" x="350.585938"/>
     <use xlink:href="#DejaVuSans-4c" x="382.373047"/>
     <use xlink:href="#DejaVuSans-69" x="438.085938"/>
     <use xlink:href="#DejaVuSans-63" x="465.869141"/>
     <use xlink:href="#DejaVuSans-65" x="520.849609"/>
     <use xlink:href="#DejaVuSans-6e" x="582.373047"/>
     <use xlink:href="#DejaVuSans-73" x="645.751953"/>
     <use xlink:href="#DejaVuSans-65" x="697.851562"/>
     <use xlink:href="#DejaVuSans-20" x="759.375"/>
     <use xlink:href="#DejaVuSans-32" x="791.162109"/>
     <use xlink:href="#DejaVuSans-2e" x="854.785156"/>
     <use xlink:href="#DejaVuSans-30" x="886.572266"/>
    </g>
   </g>
   <g id="text_43">
    <!-- 1% -->
    <g style="fill: #262626" transform="translate(647.210245 221.145698)scale(0.1 -0.1)">
     <use xlink:href="#DejaVuSans-31"/>
     <use xlink:href="#DejaVuSans-25" x="63.623047"/>
    </g>
   </g>
   <g id="text_44">
    <!-- CC BY 2.0 -->
    <g style="fill: #262626" transform="translate(675.853234 210.807263)scale(0.1 -0.1)">
     <use xlink:href="#DejaVuSans-43"/>
     <use xlink:href="#DejaVuSans-43" x="69.824219"/>
     <use xlink:href="#DejaVuSans-20" x="139.648438"/>
     <use xlink:href="#DejaVuSans-42" x="171.435547"/>
     <use xlink:href="#DejaVuSans-59" x="234.539062"/>
     <use xlink:href="#DejaVuSans-20" x="295.623047"/>
     <use xlink:href="#DejaVuSans-32" x="327.410156"/>
     <use xlink:href="#DejaVuSans-2e" x="391.033203"/>
     <use xlink:href="#DejaVuSans-30" x="422.820312"/>
    </g>
   </g>
   <g id="text_45">
    <!-- 1% -->
    <g style="fill: #262626" transform="translate(646.437738 218.690041)scale(0.1 -0.1)">
     <use xlink:href="#DejaVuSans-31"/>
     <use xlink:href="#DejaVuSans-25" x="63.623047"/>
    </g>
   </g>
   <g id="text_46">
    <!-- CC BY-SA 2.0 -->
    <g style="fill: #262626" transform="translate(674.677385 207.888182)scale(0.1 -0.1)">
     <defs>
      <path id="DejaVuSans-2d" d="M 313 2009 
L 1997 2009 
L 1997 1497 
L 313 1497 
L 313 2009 
z
" transform="scale(0.015625)"/>
      <path id="DejaVuSans-53" d="M 3425 4513 
L 3425 3897 
Q 3066 4069 2747 4153 
Q 2428 4238 2131 4238 
Q 1616 4238 1336 4038 
Q 1056 3838 1056 3469 
Q 1056 3159 1242 3001 
Q 1428 2844 1947 2747 
L 2328 2669 
Q 3034 2534 3370 2195 
Q 3706 1856 3706 1288 
Q 3706 609 3251 259 
Q 2797 -91 1919 -91 
Q 1588 -91 1214 -16 
Q 841 59 441 206 
L 441 856 
Q 825 641 1194 531 
Q 1563 422 1919 422 
Q 2459 422 2753 634 
Q 3047 847 3047 1241 
Q 3047 1584 2836 1778 
Q 2625 1972 2144 2069 
L 1759 2144 
Q 1053 2284 737 2584 
Q 422 2884 422 3419 
Q 422 4038 858 4394 
Q 1294 4750 2059 4750 
Q 2388 4750 2728 4690 
Q 3069 4631 3425 4513 
z
" transform="scale(0.015625)"/>
     </defs>
     <use xlink:href="#DejaVuSans-43"/>
     <use xlink:href="#DejaVuSans-43" x="69.824219"/>
     <use xlink:href="#DejaVuSans-20" x="139.648438"/>
     <use xlink:href="#DejaVuSans-42" x="171.435547"/>
     <use xlink:href="#DejaVuSans-59" x="234.539062"/>
     <use xlink:href="#DejaVuSans-2d" x="283.748047"/>
     <use xlink:href="#DejaVuSans-53" x="319.832031"/>
     <use xlink:href="#DejaVuSans-41" x="385.183594"/>
     <use xlink:href="#DejaVuSans-20" x="453.591797"/>
     <use xlink:href="#DejaVuSans-32" x="485.378906"/>
     <use xlink:href="#DejaVuSans-2e" x="549.001953"/>
     <use xlink:href="#DejaVuSans-30" x="580.789062"/>
    </g>
   </g>
   <g id="text_47">
    <!-- 0% -->
    <g style="fill: #262626" transform="translate(645.796366 217.097815)scale(0.1 -0.1)">
     <use xlink:href="#DejaVuSans-30"/>
     <use xlink:href="#DejaVuSans-25" x="63.623047"/>
    </g>
   </g>
   <g id="text_48">
    <!-- Apache 2.0 License -->
    <g style="fill: #262626" transform="translate(674.021615 206.457629)scale(0.1 -0.1)">
     <defs>
      <path id="DejaVuSans-68" d="M 3513 2113 
L 3513 0 
L 2938 0 
L 2938 2094 
Q 2938 2591 2744 2837 
Q 2550 3084 2163 3084 
Q 1697 3084 1428 2787 
Q 1159 2491 1159 1978 
L 1159 0 
L 581 0 
L 581 4863 
L 1159 4863 
L 1159 2956 
Q 1366 3272 1645 3428 
Q 1925 3584 2291 3584 
Q 2894 3584 3203 3211 
Q 3513 2838 3513 2113 
z
" transform="scale(0.015625)"/>
     </defs>
     <use xlink:href="#DejaVuSans-41"/>
     <use xlink:href="#DejaVuSans-70" x="68.408203"/>
     <use xlink:href="#DejaVuSans-61" x="131.884766"/>
     <use xlink:href="#DejaVuSans-63" x="193.164062"/>
     <use xlink:href="#DejaVuSans-68" x="248.144531"/>
     <use xlink:href="#DejaVuSans-65" x="311.523438"/>
     <use xlink:href="#DejaVuSans-20" x="373.046875"/>
     <use xlink:href="#DejaVuSans-32" x="404.833984"/>
     <use xlink:href="#DejaVuSans-2e" x="468.457031"/>
     <use xlink:href="#DejaVuSans-30" x="500.244141"/>
     <use xlink:href="#DejaVuSans-20" x="563.867188"/>
     <use xlink:href="#DejaVuSans-4c" x="595.654297"/>
     <use xlink:href="#DejaVuSans-69" x="651.367188"/>
     <use xlink:href="#DejaVuSans-63" x="679.150391"/>
     <use xlink:href="#DejaVuSans-65" x="734.130859"/>
     <use xlink:href="#DejaVuSans-6e" x="795.654297"/>
     <use xlink:href="#DejaVuSans-73" x="859.033203"/>
     <use xlink:href="#DejaVuSans-65" x="911.132812"/>
    </g>
   </g>
   <g id="text_49">
    <!-- 0% -->
    <g style="fill: #262626" transform="translate(645.438673 216.317513)scale(0.1 -0.1)">
     <use xlink:href="#DejaVuSans-30"/>
     <use xlink:href="#DejaVuSans-25" x="63.623047"/>
    </g>
   </g>
   <g id="text_50">
    <!-- hpo -->
    <g style="fill: #262626" transform="translate(673.321454 205.04827)scale(0.1 -0.1)">
     <use xlink:href="#DejaVuSans-68"/>
     <use xlink:href="#DejaVuSans-70" x="63.378906"/>
     <use xlink:href="#DejaVuSans-6f" x="126.855469"/>
    </g>
   </g>
   <g id="text_51">
    <!-- 0% -->
    <g style="fill: #262626" transform="translate(645.056767 215.548772)scale(0.1 -0.1)">
     <use xlink:href="#DejaVuSans-30"/>
     <use xlink:href="#DejaVuSans-25" x="63.623047"/>
    </g>
   </g>
   <g id="text_52">
    <!-- GPL-3.0 -->
    <g style="fill: #262626" transform="translate(672.577587 203.661482)scale(0.1 -0.1)">
     <defs>
      <path id="DejaVuSans-47" d="M 3809 666 
L 3809 1919 
L 2778 1919 
L 2778 2438 
L 4434 2438 
L 4434 434 
Q 4069 175 3628 42 
Q 3188 -91 2688 -91 
Q 1594 -91 976 548 
Q 359 1188 359 2328 
Q 359 3472 976 4111 
Q 1594 4750 2688 4750 
Q 3144 4750 3555 4637 
Q 3966 4525 4313 4306 
L 4313 3634 
Q 3963 3931 3569 4081 
Q 3175 4231 2741 4231 
Q 1884 4231 1454 3753 
Q 1025 3275 1025 2328 
Q 1025 1384 1454 906 
Q 1884 428 2741 428 
Q 3075 428 3337 486 
Q 3600 544 3809 666 
z
" transform="scale(0.015625)"/>
     </defs>
     <use xlink:href="#DejaVuSans-47"/>
     <use xlink:href="#DejaVuSans-50" x="77.490234"/>
     <use xlink:href="#DejaVuSans-4c" x="137.792969"/>
     <use xlink:href="#DejaVuSans-2d" x="191.755859"/>
     <use xlink:href="#DejaVuSans-33" x="227.839844"/>
     <use xlink:href="#DejaVuSans-2e" x="291.462891"/>
     <use xlink:href="#DejaVuSans-30" x="323.25"/>
    </g>
   </g>
   <g id="text_53">
    <!-- 0% -->
    <g style="fill: #262626" transform="translate(644.651021 214.792343)scale(0.1 -0.1)">
     <use xlink:href="#DejaVuSans-30"/>
     <use xlink:href="#DejaVuSans-25" x="63.623047"/>
    </g>
   </g>
   <g id="text_54">
    <!-- License Type -->
    <g style="fill: #262626" transform="translate(590.282424 162.18)scale(0.12 -0.12)">
     <defs>
      <path id="DejaVuSans-54" d="M -19 4666 
L 3928 4666 
L 3928 4134 
L 2272 4134 
L 2272 0 
L 1638 0 
L 1638 4134 
L -19 4134 
L -19 4666 
z
" transform="scale(0.015625)"/>
      <path id="DejaVuSans-79" d="M 2059 -325 
Q 1816 -950 1584 -1140 
Q 1353 -1331 966 -1331 
L 506 -1331 
L 506 -850 
L 844 -850 
Q 1081 -850 1212 -737 
Q 1344 -625 1503 -206 
L 1606 56 
L 191 3500 
L 800 3500 
L 1894 763 
L 2988 3500 
L 3597 3500 
L 2059 -325 
z
" transform="scale(0.015625)"/>
     </defs>
     <use xlink:href="#DejaVuSans-4c"/>
     <use xlink:href="#DejaVuSans-69" x="55.712891"/>
     <use xlink:href="#DejaVuSans-63" x="83.496094"/>
     <use xlink:href="#DejaVuSans-65" x="138.476562"/>
     <use xlink:href="#DejaVuSans-6e" x="200"/>
     <use xlink:href="#DejaVuSans-73" x="263.378906"/>
     <use xlink:href="#DejaVuSans-65" x="315.478516"/>
     <use xlink:href="#DejaVuSans-20" x="377.001953"/>
     <use xlink:href="#DejaVuSans-54" x="408.789062"/>
     <use xlink:href="#DejaVuSans-79" x="454.248047"/>
     <use xlink:href="#DejaVuSans-70" x="513.427734"/>
     <use xlink:href="#DejaVuSans-65" x="576.904297"/>
    </g>
   </g>
  </g>
  <g id="axes_9">
   <g id="matplotlib.axis_17"/>
   <g id="matplotlib.axis_18"/>
   <g id="patch_25">
    <path d="M 136.37611 339.856547 
C 132.407204 332.982199 126.717351 327.257188 119.867582 323.246012 
C 113.017813 319.234835 105.240914 317.073811 97.303704 316.97602 
L 96.73986 362.740547 
L 136.37611 339.856547 
z
" style="fill: #1f77b4; stroke: #ffffff; stroke-linejoin: miter"/>
   </g>
   <g id="patch_26">
    <path d="M 94.990932 320.925473 
C 89.97586 320.863685 84.984566 321.626674 80.21698 323.183878 
C 75.449394 324.741082 70.970034 327.071428 66.958327 330.081572 
C 62.94662 333.091715 59.456853 336.740921 56.628814 340.883017 
C 53.800775 345.025112 51.672734 349.604044 50.329932 354.436398 
C 48.987131 359.268752 48.447739 364.289133 48.733365 369.296446 
C 49.01899 374.303759 50.125767 379.23024 52.009362 383.878555 
C 53.892957 388.52687 56.52788 392.834114 59.808587 396.627756 
C 63.089294 400.421399 66.971387 403.650102 71.299367 406.184536 
C 75.627346 408.71897 80.342642 410.524838 85.256378 411.529803 
C 90.170115 412.534768 95.215796 412.725231 100.191312 412.093563 
C 105.166827 411.461895 110.004846 410.016643 114.511575 407.8157 
C 119.018304 405.614756 123.132756 402.687905 126.690122 399.152384 
C 130.247489 395.616864 133.199628 391.520519 135.428291 387.027432 
C 137.656953 382.534346 139.131978 377.705322 139.794283 372.733791 
C 140.456587 367.762261 140.297208 362.715502 139.322529 357.795669 
C 138.34785 352.875835 136.571062 348.149505 134.063336 343.805996 
L 94.427087 366.69 
L 94.990932 320.925473 
z
" style="fill: #ff7f0e; stroke: #ffffff; stroke-linejoin: miter"/>
   </g>
   <g id="text_55">
    <!-- Yes -->
    <g style="fill: #262626" transform="translate(122.180354 322.055933)scale(0.1 -0.1)">
     <use xlink:href="#DejaVuSans-59"/>
     <use xlink:href="#DejaVuSans-65" x="47.833984"/>
     <use xlink:href="#DejaVuSans-73" x="109.357422"/>
    </g>
   </g>
   <g id="text_56">
    <!-- 16% -->
    <g style="fill: #262626" transform="translate(99.503212 341.803201)scale(0.1 -0.1)">
     <use xlink:href="#DejaVuSans-31"/>
     <use xlink:href="#DejaVuSans-36" x="63.623047"/>
     <use xlink:href="#DejaVuSans-25" x="127.246094"/>
    </g>
   </g>
   <g id="text_57">
    <!-- No -->
    <g style="fill: #262626" transform="translate(55.386595 412.893364)scale(0.1 -0.1)">
     <use xlink:href="#DejaVuSans-4e"/>
     <use xlink:href="#DejaVuSans-6f" x="74.804688"/>
    </g>
   </g>
   <g id="text_58">
    <!-- 84% -->
    <g style="fill: #262626" transform="translate(69.437174 393.146097)scale(0.1 -0.1)">
     <use xlink:href="#DejaVuSans-38"/>
     <use xlink:href="#DejaVuSans-34" x="63.623047"/>
     <use xlink:href="#DejaVuSans-25" x="127.246094"/>
    </g>
   </g>
   <g id="text_59">
    <!-- Version -->
    <g style="fill: #262626" transform="translate(72.363025 303.48)scale(0.12 -0.12)">
     <defs>
      <path id="DejaVuSans-56" d="M 1831 0 
L 50 4666 
L 709 4666 
L 2188 738 
L 3669 4666 
L 4325 4666 
L 2547 0 
L 1831 0 
z
" transform="scale(0.015625)"/>
     </defs>
     <use xlink:href="#DejaVuSans-56"/>
     <use xlink:href="#DejaVuSans-65" x="60.658203"/>
     <use xlink:href="#DejaVuSans-72" x="122.181641"/>
     <use xlink:href="#DejaVuSans-73" x="163.294922"/>
     <use xlink:href="#DejaVuSans-69" x="215.394531"/>
     <use xlink:href="#DejaVuSans-6f" x="243.177734"/>
     <use xlink:href="#DejaVuSans-6e" x="304.359375"/>
    </g>
   </g>
  </g>
  <g id="axes_10">
   <g id="matplotlib.axis_19"/>
   <g id="matplotlib.axis_20"/>
   <g id="patch_27">
    <path d="M 314.132292 339.696528 
C 309.588807 331.826981 302.802953 325.486032 294.643835 321.485805 
C 286.484717 317.485578 277.316197 316.004466 268.312543 317.232163 
L 274.496041 362.580528 
L 314.132292 339.696528 
z
" style="fill: #1f77b4; stroke: #ffffff; stroke-linejoin: miter"/>
   </g>
   <g id="patch_28">
    <path d="M 266.297764 321.341635 
C 261.468879 322.00008 256.776014 323.425619 252.396776 325.564299 
C 248.017539 327.70298 244.007881 330.527477 240.519553 333.930894 
C 237.031226 337.334312 234.108798 341.273164 231.862874 345.598381 
C 229.61695 349.923598 228.076224 354.579917 227.299008 359.391114 
C 226.521792 364.20231 226.518015 369.106913 227.287822 373.919301 
C 228.057628 378.731689 229.591182 383.390375 231.830443 387.719045 
C 234.069704 392.047715 236.986063 395.991064 240.469145 399.399849 
C 243.952227 402.808633 247.957531 405.639302 252.33347 407.784724 
C 256.709409 409.930145 261.400074 411.362909 266.227939 412.028789 
C 271.055804 412.694669 275.959185 412.585158 280.752508 411.704401 
C 285.545831 410.823644 290.167853 409.182894 294.443646 406.844247 
C 298.719439 404.5056 302.594373 401.498936 305.921797 397.938047 
C 309.24922 394.377158 311.98662 390.30754 314.030394 385.883214 
C 316.074168 381.458888 317.398205 376.736381 317.952393 371.894423 
C 318.506582 367.052466 318.283843 362.152922 317.292605 357.381222 
C 316.301367 352.609521 314.554295 348.026631 312.11751 343.805996 
L 272.481262 366.69 
L 266.297764 321.341635 
z
" style="fill: #ff7f0e; stroke: #ffffff; stroke-linejoin: miter"/>
   </g>
   <g id="text_60">
    <!-- Yes -->
    <g style="fill: #262626" transform="translate(296.658614 320.135708)scale(0.1 -0.1)">
     <use xlink:href="#DejaVuSans-59"/>
     <use xlink:href="#DejaVuSans-65" x="47.833984"/>
     <use xlink:href="#DejaVuSans-73" x="109.357422"/>
    </g>
   </g>
   <g id="text_61">
    <!-- 19% -->
    <g style="fill: #262626" transform="translate(275.471436 340.683069)scale(0.1 -0.1)">
     <use xlink:href="#DejaVuSans-31"/>
     <use xlink:href="#DejaVuSans-39" x="63.623047"/>
     <use xlink:href="#DejaVuSans-25" x="127.246094"/>
    </g>
   </g>
   <g id="text_62">
    <!-- No -->
    <g style="fill: #262626" transform="translate(236.718691 414.653571)scale(0.1 -0.1)">
     <use xlink:href="#DejaVuSans-4e"/>
     <use xlink:href="#DejaVuSans-6f" x="74.804688"/>
    </g>
   </g>
   <g id="text_63">
    <!-- 81% -->
    <g style="fill: #262626" transform="translate(249.279306 394.106209)scale(0.1 -0.1)">
     <use xlink:href="#DejaVuSans-38"/>
     <use xlink:href="#DejaVuSans-31" x="63.623047"/>
     <use xlink:href="#DejaVuSans-25" x="127.246094"/>
    </g>
   </g>
   <g id="text_64">
    <!-- Contact Email -->
    <g style="fill: #262626" transform="translate(230.584387 303.48)scale(0.12 -0.12)">
     <use xlink:href="#DejaVuSans-43"/>
     <use xlink:href="#DejaVuSans-6f" x="69.824219"/>
     <use xlink:href="#DejaVuSans-6e" x="131.005859"/>
     <use xlink:href="#DejaVuSans-74" x="194.384766"/>
     <use xlink:href="#DejaVuSans-61" x="233.59375"/>
     <use xlink:href="#DejaVuSans-63" x="294.873047"/>
     <use xlink:href="#DejaVuSans-74" x="349.853516"/>
     <use xlink:href="#DejaVuSans-20" x="389.0625"/>
     <use xlink:href="#DejaVuSans-45" x="420.849609"/>
     <use xlink:href="#DejaVuSans-6d" x="484.033203"/>
     <use xlink:href="#DejaVuSans-61" x="581.445312"/>
     <use xlink:href="#DejaVuSans-69" x="642.724609"/>
     <use xlink:href="#DejaVuSans-6c" x="670.507812"/>
    </g>
   </g>
  </g>
  <g id="axes_11">
   <g id="matplotlib.axis_21"/>
   <g id="matplotlib.axis_22"/>
   <g id="patch_29">
    <path d="M 493.695025 340.884838 
C 492.407957 338.655571 490.935108 336.538855 489.292155 334.557218 
C 487.649202 332.575582 485.841993 330.736081 483.889762 329.058292 
L 454.058775 363.768838 
L 493.695025 340.884838 
z
" style="fill: #1f77b4; stroke: #ffffff; stroke-linejoin: miter"/>
   </g>
   <g id="patch_30">
    <path d="M 480.366424 331.979454 
C 476.054376 328.273587 471.089279 325.403482 465.725876 323.516393 
C 460.362472 321.629303 454.694083 320.758065 449.011533 320.947377 
C 443.328984 321.13669 437.731149 322.383259 432.505234 324.623129 
C 427.279319 326.862999 422.516252 330.057196 418.460412 334.041836 
C 414.404571 338.026477 411.126525 342.73223 408.794461 347.917659 
C 406.462396 353.103089 405.116889 358.677971 404.826974 364.356276 
C 404.537058 370.034582 405.307778 375.717511 407.099591 381.113492 
C 408.891403 386.509474 411.673132 391.524619 415.302055 395.901618 
C 418.930978 400.278617 423.343954 403.941313 428.314568 406.701784 
C 433.285182 409.462255 438.726948 411.27247 444.360667 412.039554 
C 449.994385 412.806638 455.722033 412.517244 461.249743 411.186219 
C 466.777453 409.855194 472.009045 407.505697 476.676105 404.258274 
C 481.343166 401.010852 485.364488 396.922006 488.533753 392.201522 
C 491.703018 387.481039 493.965081 382.211052 495.203883 376.661946 
C 496.442686 371.11284 496.636673 365.381168 495.775892 359.761003 
C 494.915111 354.140837 493.01454 348.729966 490.171689 343.806004 
L 450.535436 366.69 
L 480.366424 331.979454 
z
" style="fill: #ff7f0e; stroke: #ffffff; stroke-linejoin: miter"/>
   </g>
   <g id="text_65">
    <!-- Yes -->
    <g style="fill: #262626" transform="translate(492.815493 334.395431)scale(0.1 -0.1)">
     <use xlink:href="#DejaVuSans-59"/>
     <use xlink:href="#DejaVuSans-65" x="47.833984"/>
     <use xlink:href="#DejaVuSans-73" x="109.357422"/>
    </g>
   </g>
   <g id="text_66">
    <!-- 5% -->
    <g style="fill: #262626" transform="translate(467.266772 349.001241)scale(0.1 -0.1)">
     <use xlink:href="#DejaVuSans-35"/>
     <use xlink:href="#DejaVuSans-25" x="63.623047"/>
    </g>
   </g>
   <g id="text_67">
    <!-- No -->
    <g style="fill: #262626" transform="translate(398.178716 401.582155)scale(0.1 -0.1)">
     <use xlink:href="#DejaVuSans-4e"/>
     <use xlink:href="#DejaVuSans-6f" x="74.804688"/>
    </g>
   </g>
   <g id="text_68">
    <!-- 95% -->
    <g style="fill: #262626" transform="translate(418.282126 386.976346)scale(0.1 -0.1)">
     <use xlink:href="#DejaVuSans-39"/>
     <use xlink:href="#DejaVuSans-35" x="63.623047"/>
     <use xlink:href="#DejaVuSans-25" x="127.246094"/>
    </g>
   </g>
   <g id="text_69">
    <!-- Wikidata Database -->
    <g style="fill: #262626" transform="translate(393.878561 303.48)scale(0.12 -0.12)">
     <defs>
      <path id="DejaVuSans-57" d="M 213 4666 
L 850 4666 
L 1831 722 
L 2809 4666 
L 3519 4666 
L 4500 722 
L 5478 4666 
L 6119 4666 
L 4947 0 
L 4153 0 
L 3169 4050 
L 2175 0 
L 1381 0 
L 213 4666 
z
" transform="scale(0.015625)"/>
      <path id="DejaVuSans-6b" d="M 581 4863 
L 1159 4863 
L 1159 1991 
L 2875 3500 
L 3609 3500 
L 1753 1863 
L 3688 0 
L 2938 0 
L 1159 1709 
L 1159 0 
L 581 0 
L 581 4863 
z
" transform="scale(0.015625)"/>
      <path id="DejaVuSans-62" d="M 3116 1747 
Q 3116 2381 2855 2742 
Q 2594 3103 2138 3103 
Q 1681 3103 1420 2742 
Q 1159 2381 1159 1747 
Q 1159 1113 1420 752 
Q 1681 391 2138 391 
Q 2594 391 2855 752 
Q 3116 1113 3116 1747 
z
M 1159 2969 
Q 1341 3281 1617 3432 
Q 1894 3584 2278 3584 
Q 2916 3584 3314 3078 
Q 3713 2572 3713 1747 
Q 3713 922 3314 415 
Q 2916 -91 2278 -91 
Q 1894 -91 1617 61 
Q 1341 213 1159 525 
L 1159 0 
L 581 0 
L 581 4863 
L 1159 4863 
L 1159 2969 
z
" transform="scale(0.015625)"/>
     </defs>
     <use xlink:href="#DejaVuSans-57"/>
     <use xlink:href="#DejaVuSans-69" x="96.626953"/>
     <use xlink:href="#DejaVuSans-6b" x="124.410156"/>
     <use xlink:href="#DejaVuSans-69" x="182.320312"/>
     <use xlink:href="#DejaVuSans-64" x="210.103516"/>
     <use xlink:href="#DejaVuSans-61" x="273.580078"/>
     <use xlink:href="#DejaVuSans-74" x="334.859375"/>
     <use xlink:href="#DejaVuSans-61" x="374.068359"/>
     <use xlink:href="#DejaVuSans-20" x="435.347656"/>
     <use xlink:href="#DejaVuSans-44" x="467.134766"/>
     <use xlink:href="#DejaVuSans-61" x="544.136719"/>
     <use xlink:href="#DejaVuSans-74" x="605.416016"/>
     <use xlink:href="#DejaVuSans-61" x="644.625"/>
     <use xlink:href="#DejaVuSans-62" x="705.904297"/>
     <use xlink:href="#DejaVuSans-61" x="769.380859"/>
     <use xlink:href="#DejaVuSans-73" x="830.660156"/>
     <use xlink:href="#DejaVuSans-65" x="882.759766"/>
    </g>
   </g>
  </g>
  <g id="axes_12">
   <g id="matplotlib.axis_23"/>
   <g id="matplotlib.axis_24"/>
   <g id="patch_31">
    <path d="M 671.342934 340.454737 
C 669.065675 336.510409 666.212349 332.928008 662.877402 329.826111 
C 659.542455 326.724215 655.763091 324.137428 651.664406 322.151371 
L 631.706683 363.338737 
L 671.342934 340.454737 
z
" style="fill: #1f77b4; stroke: #ffffff; stroke-linejoin: miter"/>
   </g>
   <g id="patch_32">
    <path d="M 648.547334 325.502634 
C 643.654503 323.131767 638.37812 321.651619 632.966048 321.131723 
C 627.553977 320.611826 622.092311 321.060451 616.837619 322.456523 
C 611.582926 323.852595 606.618797 326.173905 602.178427 329.311407 
C 597.738057 332.44891 593.892082 336.352694 590.821171 340.839376 
C 587.75026 345.326058 585.503264 350.324264 584.185738 355.599199 
C 582.868212 360.874133 582.501115 366.341884 583.101692 371.745597 
C 583.702269 377.14931 585.260966 382.403025 587.704561 387.259943 
C 590.148157 392.116861 593.437779 396.499719 597.418894 400.202627 
C 601.400008 403.905536 606.009286 406.869591 611.030199 408.955552 
C 616.051113 411.041513 621.403792 412.216197 626.836789 412.424423 
C 632.269785 412.632648 637.696672 411.871103 642.862517 410.175561 
C 648.028361 408.480018 652.850985 405.877452 657.103841 402.490119 
C 661.356697 399.102786 664.972132 394.984572 667.780307 390.328934 
C 670.588481 385.673296 672.544724 380.554295 673.557138 375.212402 
C 674.569552 369.870508 674.622033 364.3907 673.712114 359.030396 
C 672.802196 353.670092 670.944353 348.514563 668.22586 343.805996 
L 628.589611 366.69 
L 648.547334 325.502634 
z
" style="fill: #ff7f0e; stroke: #ffffff; stroke-linejoin: miter"/>
   </g>
   <g id="text_70">
    <!-- Yes -->
    <g style="fill: #262626" transform="translate(665.994474 329.234224)scale(0.1 -0.1)">
     <use xlink:href="#DejaVuSans-59"/>
     <use xlink:href="#DejaVuSans-65" x="47.833984"/>
     <use xlink:href="#DejaVuSans-73" x="109.357422"/>
    </g>
   </g>
   <g id="text_71">
    <!-- 9% -->
    <g style="fill: #262626" transform="translate(642.477083 345.990537)scale(0.1 -0.1)">
     <use xlink:href="#DejaVuSans-39"/>
     <use xlink:href="#DejaVuSans-25" x="63.623047"/>
    </g>
   </g>
   <g id="text_72">
    <!-- No -->
    <g style="fill: #262626" transform="translate(580.701822 406.313265)scale(0.1 -0.1)">
     <use xlink:href="#DejaVuSans-4e"/>
     <use xlink:href="#DejaVuSans-6f" x="74.804688"/>
    </g>
   </g>
   <g id="text_73">
    <!-- 91% -->
    <g style="fill: #262626" transform="translate(598.773899 389.556951)scale(0.1 -0.1)">
     <use xlink:href="#DejaVuSans-39"/>
     <use xlink:href="#DejaVuSans-31" x="63.623047"/>
     <use xlink:href="#DejaVuSans-25" x="127.246094"/>
    </g>
   </g>
   <g id="text_74">
    <!-- OBO -->
    <g style="fill: #262626" transform="translate(615.131799 303.48)scale(0.12 -0.12)">
     <defs>
      <path id="DejaVuSans-4f" d="M 2522 4238 
Q 1834 4238 1429 3725 
Q 1025 3213 1025 2328 
Q 1025 1447 1429 934 
Q 1834 422 2522 422 
Q 3209 422 3611 934 
Q 4013 1447 4013 2328 
Q 4013 3213 3611 3725 
Q 3209 4238 2522 4238 
z
M 2522 4750 
Q 3503 4750 4090 4092 
Q 4678 3434 4678 2328 
Q 4678 1225 4090 567 
Q 3503 -91 2522 -91 
Q 1538 -91 948 565 
Q 359 1222 359 2328 
Q 359 3434 948 4092 
Q 1538 4750 2522 4750 
z
" transform="scale(0.015625)"/>
     </defs>
     <use xlink:href="#DejaVuSans-4f"/>
     <use xlink:href="#DejaVuSans-42" x="78.710938"/>
     <use xlink:href="#DejaVuSans-4f" x="145.564453"/>
    </g>
   </g>
  </g>
  <g id="axes_13">
   <g id="matplotlib.axis_25"/>
   <g id="matplotlib.axis_26"/>
   <g id="patch_33">
    <path d="M 135.759305 480.855024 
C 130.620146 471.953739 122.629327 465.037976 113.082727 461.229268 
C 103.536126 457.420561 92.979293 456.936563 83.124239 459.855763 
L 96.123054 503.739024 
L 135.759305 480.855024 
z
" style="fill: #1f77b4; stroke: #ffffff; stroke-linejoin: miter"/>
   </g>
   <g id="patch_34">
    <path d="M 81.428271 464.106739 
C 76.895637 465.449367 72.598261 467.486178 68.689267 470.144598 
C 64.780274 472.803018 61.30665 476.051091 58.392168 479.773083 
C 55.477686 483.495074 53.157378 487.646245 51.513923 492.07868 
C 49.870467 496.511114 48.923617 501.171535 48.707112 505.893881 
C 48.490607 510.616227 49.007049 515.343735 50.238037 519.907954 
C 51.469024 524.472173 53.399759 528.818241 55.961447 532.791297 
C 58.523135 536.764354 61.684983 540.316644 65.334329 543.32159 
C 68.983675 546.326536 73.076652 548.748019 77.467419 550.499758 
C 81.858187 552.251496 86.493967 553.312432 91.209577 553.644764 
C 95.925188 553.977095 100.663946 553.576828 105.257 552.458222 
C 109.850055 551.339617 114.242196 549.516121 118.276923 547.052708 
C 122.31165 544.589295 125.940465 541.515577 129.034065 537.941075 
C 132.127666 534.366574 134.648866 530.334255 136.507831 525.9878 
C 138.366796 521.641344 139.541181 517.032997 139.989139 512.326963 
C 140.437097 507.620929 140.153245 502.873774 139.147696 498.254652 
C 138.142147 493.635529 136.426988 489.19996 134.063334 485.105993 
L 94.427087 507.99 
L 81.428271 464.106739 
z
" style="fill: #ff7f0e; stroke: #ffffff; stroke-linejoin: miter"/>
   </g>
   <g id="text_75">
    <!-- Yes -->
    <g style="fill: #262626" transform="translate(114.778694 459.737668)scale(0.1 -0.1)">
     <use xlink:href="#DejaVuSans-59"/>
     <use xlink:href="#DejaVuSans-65" x="47.833984"/>
     <use xlink:href="#DejaVuSans-73" x="109.357422"/>
    </g>
   </g>
   <g id="text_76">
    <!-- 21% -->
    <g style="fill: #262626" transform="translate(95.185576 480.992546)scale(0.1 -0.1)">
     <use xlink:href="#DejaVuSans-32"/>
     <use xlink:href="#DejaVuSans-31" x="63.623047"/>
     <use xlink:href="#DejaVuSans-25" x="127.246094"/>
    </g>
   </g>
   <g id="text_77">
    <!-- No -->
    <g style="fill: #262626" transform="translate(62.171452 557.510108)scale(0.1 -0.1)">
     <use xlink:href="#DejaVuSans-4e"/>
     <use xlink:href="#DejaVuSans-6f" x="74.804688"/>
    </g>
   </g>
   <g id="text_78">
    <!-- 79% -->
    <g style="fill: #262626" transform="translate(73.138005 536.25523)scale(0.1 -0.1)">
     <use xlink:href="#DejaVuSans-37"/>
     <use xlink:href="#DejaVuSans-39" x="63.623047"/>
     <use xlink:href="#DejaVuSans-25" x="127.246094"/>
    </g>
   </g>
   <g id="text_79">
    <!-- OWL -->
    <g style="fill: #262626" transform="translate(80.428337 444.78)scale(0.12 -0.12)">
     <use xlink:href="#DejaVuSans-4f"/>
     <use xlink:href="#DejaVuSans-57" x="78.710938"/>
     <use xlink:href="#DejaVuSans-4c" x="177.587891"/>
    </g>
   </g>
  </g>
  <g id="axes_14">
   <g id="matplotlib.axis_27"/>
   <g id="matplotlib.axis_28"/>
   <g id="patch_35">
    <path d="M 315.971222 482.636988 
C 315.618794 482.026564 315.252311 481.424363 314.872067 480.830867 
C 314.491823 480.23737 314.09792 479.652737 313.690672 479.077435 
L 276.334971 505.520988 
L 315.971222 482.636988 
z
" style="fill: #1f77b4; stroke: #ffffff; stroke-linejoin: miter"/>
   </g>
   <g id="patch_36">
    <path d="M 309.836962 481.546447 
C 306.415811 476.71353 302.089054 472.590144 297.097154 469.405448 
C 292.105254 466.220751 286.542431 464.034856 280.717842 462.969243 
C 274.893254 461.90363 268.916838 461.978414 263.120737 463.189437 
C 257.324637 464.400461 251.818252 466.724867 246.907603 470.033475 
C 241.996954 473.342083 237.774729 477.572444 234.475579 482.489453 
C 231.17643 487.406461 228.862628 492.91731 227.662764 498.715732 
C 226.4629 504.514153 226.39962 510.490701 227.476443 516.313228 
C 228.553266 522.135754 230.749866 527.694359 233.944165 532.68012 
C 237.138465 537.66588 241.270172 541.984692 246.109666 545.396533 
C 250.949159 548.808375 256.405094 551.248849 262.174254 552.582325 
C 267.943414 553.9158 273.916906 554.117108 279.762752 553.175061 
C 285.608597 552.233014 291.216456 550.165392 296.274668 547.087105 
C 301.33288 544.008819 305.745973 539.977969 309.268687 535.218573 
C 312.7914 530.459177 315.357244 525.061068 316.823619 519.324248 
C 318.289995 513.587428 318.629224 507.620179 317.822455 501.754134 
C 317.015686 495.888089 315.078146 490.233968 312.117515 485.106003 
L 272.481262 507.99 
L 309.836962 481.546447 
z
" style="fill: #ff7f0e; stroke: #ffffff; stroke-linejoin: miter"/>
   </g>
   <g id="text_80">
    <!-- Yes -->
    <g style="fill: #262626" transform="translate(318.725777 481.121229)scale(0.1 -0.1)">
     <use xlink:href="#DejaVuSans-59"/>
     <use xlink:href="#DejaVuSans-65" x="47.833984"/>
     <use xlink:href="#DejaVuSans-73" x="109.357422"/>
    </g>
   </g>
   <g id="text_81">
    <!-- 1% -->
    <g style="fill: #262626" transform="translate(291.525198 493.46629)scale(0.1 -0.1)">
     <use xlink:href="#DejaVuSans-31"/>
     <use xlink:href="#DejaVuSans-25" x="63.623047"/>
    </g>
   </g>
   <g id="text_82">
    <!-- No -->
    <g style="fill: #262626" transform="translate(216.490456 537.908507)scale(0.1 -0.1)">
     <use xlink:href="#DejaVuSans-4e"/>
     <use xlink:href="#DejaVuSans-6f" x="74.804688"/>
    </g>
   </g>
   <g id="text_83">
    <!-- 99% -->
    <g style="fill: #262626" transform="translate(238.245723 525.563447)scale(0.1 -0.1)">
     <use xlink:href="#DejaVuSans-39"/>
     <use xlink:href="#DejaVuSans-39" x="63.623047"/>
     <use xlink:href="#DejaVuSans-25" x="127.246094"/>
    </g>
   </g>
   <g id="text_84">
    <!-- JSON -->
    <g style="fill: #262626" transform="translate(257.690324 444.78)scale(0.12 -0.12)">
     <defs>
      <path id="DejaVuSans-4a" d="M 628 4666 
L 1259 4666 
L 1259 325 
Q 1259 -519 939 -900 
Q 619 -1281 -91 -1281 
L -331 -1281 
L -331 -750 
L -134 -750 
Q 284 -750 456 -515 
Q 628 -281 628 325 
L 628 4666 
z
" transform="scale(0.015625)"/>
     </defs>
     <use xlink:href="#DejaVuSans-4a"/>
     <use xlink:href="#DejaVuSans-53" x="29.492188"/>
     <use xlink:href="#DejaVuSans-4f" x="92.96875"/>
     <use xlink:href="#DejaVuSans-4e" x="171.679688"/>
    </g>
   </g>
  </g>
  <g id="axes_15"/>
  <g id="axes_16"/>
  <g id="text_85">
   <!-- https://github.com/biopragmatics/bioregistry (2022-06-08) -->
   <g style="fill: #808080; opacity: 0.5" transform="translate(278.67625 574.33625)scale(0.08 -0.08)">
    <defs>
     <path id="DejaVuSans-3a" d="M 750 794 
L 1409 794 
L 1409 0 
L 750 0 
L 750 794 
z
M 750 3309 
L 1409 3309 
L 1409 2516 
L 750 2516 
L 750 3309 
z
" transform="scale(0.015625)"/>
     <path id="DejaVuSans-2f" d="M 1625 4666 
L 2156 4666 
L 531 -594 
L 0 -594 
L 1625 4666 
z
" transform="scale(0.015625)"/>
     <path id="DejaVuSans-75" d="M 544 1381 
L 544 3500 
L 1119 3500 
L 1119 1403 
Q 1119 906 1312 657 
Q 1506 409 1894 409 
Q 2359 409 2629 706 
Q 2900 1003 2900 1516 
L 2900 3500 
L 3475 3500 
L 3475 0 
L 2900 0 
L 2900 538 
Q 2691 219 2414 64 
Q 2138 -91 1772 -91 
Q 1169 -91 856 284 
Q 544 659 544 1381 
z
M 1991 3584 
L 1991 3584 
z
" transform="scale(0.015625)"/>
     <path id="DejaVuSans-28" d="M 1984 4856 
Q 1566 4138 1362 3434 
Q 1159 2731 1159 2009 
Q 1159 1288 1364 580 
Q 1569 -128 1984 -844 
L 1484 -844 
Q 1016 -109 783 600 
Q 550 1309 550 2009 
Q 550 2706 781 3412 
Q 1013 4119 1484 4856 
L 1984 4856 
z
" transform="scale(0.015625)"/>
     <path id="DejaVuSans-29" d="M 513 4856 
L 1013 4856 
Q 1481 4119 1714 3412 
Q 1947 2706 1947 2009 
Q 1947 1309 1714 600 
Q 1481 -109 1013 -844 
L 513 -844 
Q 928 -128 1133 580 
Q 1338 1288 1338 2009 
Q 1338 2731 1133 3434 
Q 928 4138 513 4856 
z
" transform="scale(0.015625)"/>
    </defs>
    <use xlink:href="#DejaVuSans-68"/>
    <use xlink:href="#DejaVuSans-74" x="63.378906"/>
    <use xlink:href="#DejaVuSans-74" x="102.587891"/>
    <use xlink:href="#DejaVuSans-70" x="141.796875"/>
    <use xlink:href="#DejaVuSans-73" x="205.273438"/>
    <use xlink:href="#DejaVuSans-3a" x="257.373047"/>
    <use xlink:href="#DejaVuSans-2f" x="291.064453"/>
    <use xlink:href="#DejaVuSans-2f" x="324.755859"/>
    <use xlink:href="#DejaVuSans-67" x="358.447266"/>
    <use xlink:href="#DejaVuSans-69" x="421.923828"/>
    <use xlink:href="#DejaVuSans-74" x="449.707031"/>
    <use xlink:href="#DejaVuSans-68" x="488.916016"/>
    <use xlink:href="#DejaVuSans-75" x="552.294922"/>
    <use xlink:href="#DejaVuSans-62" x="615.673828"/>
    <use xlink:href="#DejaVuSans-2e" x="679.150391"/>
    <use xlink:href="#DejaVuSans-63" x="710.9375"/>
    <use xlink:href="#DejaVuSans-6f" x="765.917969"/>
    <use xlink:href="#DejaVuSans-6d" x="827.099609"/>
    <use xlink:href="#DejaVuSans-2f" x="924.511719"/>
    <use xlink:href="#DejaVuSans-62" x="958.203125"/>
    <use xlink:href="#DejaVuSans-69" x="1021.679688"/>
    <use xlink:href="#DejaVuSans-6f" x="1049.462891"/>
    <use xlink:href="#DejaVuSans-70" x="1110.644531"/>
    <use xlink:href="#DejaVuSans-72" x="1174.121094"/>
    <use xlink:href="#DejaVuSans-61" x="1215.234375"/>
    <use xlink:href="#DejaVuSans-67" x="1276.513672"/>
    <use xlink:href="#DejaVuSans-6d" x="1339.990234"/>
    <use xlink:href="#DejaVuSans-61" x="1437.402344"/>
    <use xlink:href="#DejaVuSans-74" x="1498.681641"/>
    <use xlink:href="#DejaVuSans-69" x="1537.890625"/>
    <use xlink:href="#DejaVuSans-63" x="1565.673828"/>
    <use xlink:href="#DejaVuSans-73" x="1620.654297"/>
    <use xlink:href="#DejaVuSans-2f" x="1672.753906"/>
    <use xlink:href="#DejaVuSans-62" x="1706.445312"/>
    <use xlink:href="#DejaVuSans-69" x="1769.921875"/>
    <use xlink:href="#DejaVuSans-6f" x="1797.705078"/>
    <use xlink:href="#DejaVuSans-72" x="1858.886719"/>
    <use xlink:href="#DejaVuSans-65" x="1897.75"/>
    <use xlink:href="#DejaVuSans-67" x="1959.273438"/>
    <use xlink:href="#DejaVuSans-69" x="2022.75"/>
    <use xlink:href="#DejaVuSans-73" x="2050.533203"/>
    <use xlink:href="#DejaVuSans-74" x="2102.632812"/>
    <use xlink:href="#DejaVuSans-72" x="2141.841797"/>
    <use xlink:href="#DejaVuSans-79" x="2182.955078"/>
    <use xlink:href="#DejaVuSans-20" x="2242.134766"/>
    <use xlink:href="#DejaVuSans-28" x="2273.921875"/>
    <use xlink:href="#DejaVuSans-32" x="2312.935547"/>
    <use xlink:href="#DejaVuSans-30" x="2376.558594"/>
    <use xlink:href="#DejaVuSans-32" x="2440.181641"/>
    <use xlink:href="#DejaVuSans-32" x="2503.804688"/>
    <use xlink:href="#DejaVuSans-2d" x="2567.427734"/>
    <use xlink:href="#DejaVuSans-30" x="2603.511719"/>
    <use xlink:href="#DejaVuSans-36" x="2667.134766"/>
    <use xlink:href="#DejaVuSans-2d" x="2730.757812"/>
    <use xlink:href="#DejaVuSans-30" x="2766.841797"/>
    <use xlink:href="#DejaVuSans-38" x="2830.464844"/>
    <use xlink:href="#DejaVuSans-29" x="2894.087891"/>
   </g>
  </g>
 </g>
</svg>
