<?xml version="1.0" encoding="utf-8" standalone="no"?>
<!DOCTYPE svg PUBLIC "-//W3C//DTD SVG 1.1//EN"
  "http://www.w3.org/Graphics/SVG/1.1/DTD/svg11.dtd">
<svg xmlns:xlink="http://www.w3.org/1999/xlink" width="792pt" height="576pt" viewBox="0 0 792 576" xmlns="http://www.w3.org/2000/svg" version="1.1">
 <metadata>
  <rdf:RDF xmlns:dc="http://purl.org/dc/elements/1.1/" xmlns:cc="http://creativecommons.org/ns#" xmlns:rdf="http://www.w3.org/1999/02/22-rdf-syntax-ns#">
   <cc:Work>
    <dc:type rdf:resource="http://purl.org/dc/dcmitype/StillImage"/>
    <dc:date>2025-12-20T02:38:54.741999</dc:date>
    <dc:format>image/svg+xml</dc:format>
    <dc:creator>
     <cc:Agent>
      <dc:title>Matplotlib v3.10.8, https://matplotlib.org/</dc:title>
     </cc:Agent>
    </dc:creator>
   </cc:Work>
  </rdf:RDF>
 </metadata>
 <defs>
  <style type="text/css">*{stroke-linejoin: round; stroke-linecap: butt}</style>
 </defs>
 <g id="figure_1">
  <g id="patch_1">
   <path d="M 0 576 
L 792 576 
L 792 0 
L 0 0 
z
" style="fill: #ffffff"/>
  </g>
  <g id="axes_1">
   <g id="matplotlib.axis_1"/>
   <g id="matplotlib.axis_2"/>
   <g id="patch_2">
    <path d="M 136.671193 62.263107 
C 133.945526 57.542112 130.398191 53.34584 126.196696 49.872442 
C 121.995202 46.399044 117.206738 43.704067 112.057421 41.91477 
C 106.908104 40.125472 101.480281 39.270469 96.03026 39.390135 
C 90.580239 39.509801 85.195176 40.602221 80.129359 42.615812 
C 75.063541 44.629402 70.397982 47.531961 66.352994 51.186426 
C 62.308005 54.840892 58.948274 59.188822 56.432451 64.024903 
C 53.916628 68.860985 52.284945 74.107879 51.614452 79.517822 
C 50.943959 84.927766 51.245379 90.414243 52.504478 95.718178 
C 53.763577 101.022112 55.96022 106.058683 58.990679 110.590059 
C 62.021138 115.121435 65.83695 119.07515 70.25793 122.264507 
C 74.678909 125.453863 79.634354 127.827856 84.890266 129.274385 
C 90.146178 130.720913 95.618503 131.216843 101.048833 130.738756 
C 106.479163 130.26067 111.780656 128.816213 116.702971 126.473593 
C 121.625286 124.130974 126.089705 120.927655 129.885414 117.014901 
C 133.681123 113.102148 136.747422 108.542531 138.939516 103.551362 
C 141.13161 98.560192 142.414443 93.217288 142.72744 87.774946 
L 97.034943 85.147107 
z
" style="fill: #1f77b4; stroke: #ffffff; stroke-linejoin: miter"/>
   </g>
   <g id="patch_3">
    <path d="M 147.180487 86.717844 
C 147.435414 82.285166 147.043968 77.838899 146.018458 73.518951 
C 144.992948 69.199003 143.344249 65.051172 141.12425 61.206016 
L 101.487989 84.09 
z
" style="fill: #ff7f0e; stroke: #ffffff; stroke-linejoin: miter"/>
   </g>
   <g id="text_1">
    <!-- Yes -->
    <g style="fill: #262626" transform="translate(31.906118 99.534655) scale(0.1 -0.1)">
     <defs>
      <path id="DejaVuSans-59" d="M -13 4666 
L 666 4666 
L 1959 2747 
L 3244 4666 
L 3922 4666 
L 2272 2222 
L 2272 0 
L 1638 0 
L 1638 2222 
L -13 4666 
z
" transform="scale(0.015625)"/>
      <path id="DejaVuSans-65" d="M 3597 1894 
L 3597 1613 
L 953 1613 
Q 991 1019 1311 708 
Q 1631 397 2203 397 
Q 2534 397 2845 478 
Q 3156 559 3463 722 
L 3463 178 
Q 3153 47 2828 -22 
Q 2503 -91 2169 -91 
Q 1331 -91 842 396 
Q 353 884 353 1716 
Q 353 2575 817 3079 
Q 1281 3584 2069 3584 
Q 2775 3584 3186 3129 
Q 3597 2675 3597 1894 
z
M 3022 2063 
Q 3016 2534 2758 2815 
Q 2500 3097 2075 3097 
Q 1594 3097 1305 2825 
Q 1016 2553 972 2059 
L 3022 2063 
z
" transform="scale(0.015625)"/>
      <path id="DejaVuSans-73" d="M 2834 3397 
L 2834 2853 
Q 2591 2978 2328 3040 
Q 2066 3103 1784 3103 
Q 1356 3103 1142 2972 
Q 928 2841 928 2578 
Q 928 2378 1081 2264 
Q 1234 2150 1697 2047 
L 1894 2003 
Q 2506 1872 2764 1633 
Q 3022 1394 3022 966 
Q 3022 478 2636 193 
Q 2250 -91 1575 -91 
Q 1294 -91 989 -36 
Q 684 19 347 128 
L 347 722 
Q 666 556 975 473 
Q 1284 391 1588 391 
Q 1994 391 2212 530 
Q 2431 669 2431 922 
Q 2431 1156 2273 1281 
Q 2116 1406 1581 1522 
L 1381 1569 
Q 847 1681 609 1914 
Q 372 2147 372 2553 
Q 372 3047 722 3315 
Q 1072 3584 1716 3584 
Q 2034 3584 2315 3537 
Q 2597 3491 2834 3397 
z
" transform="scale(0.015625)"/>
     </defs>
     <use xlink:href="#DejaVuSans-59"/>
     <use xlink:href="#DejaVuSans-65" transform="translate(47.833984 0)"/>
     <use xlink:href="#DejaVuSans-73" transform="translate(109.357422 0)"/>
    </g>
   </g>
   <g id="text_2">
    <!-- 91% -->
    <g style="fill: #262626" transform="translate(59.203382 94.249122) scale(0.1 -0.1)">
     <defs>
      <path id="DejaVuSans-39" d="M 703 97 
L 703 672 
Q 941 559 1184 500 
Q 1428 441 1663 441 
Q 2288 441 2617 861 
Q 2947 1281 2994 2138 
Q 2813 1869 2534 1725 
Q 2256 1581 1919 1581 
Q 1219 1581 811 2004 
Q 403 2428 403 3163 
Q 403 3881 828 4315 
Q 1253 4750 1959 4750 
Q 2769 4750 3195 4129 
Q 3622 3509 3622 2328 
Q 3622 1225 3098 567 
Q 2575 -91 1691 -91 
Q 1453 -91 1209 -44 
Q 966 3 703 97 
z
M 1959 2075 
Q 2384 2075 2632 2365 
Q 2881 2656 2881 3163 
Q 2881 3666 2632 3958 
Q 2384 4250 1959 4250 
Q 1534 4250 1286 3958 
Q 1038 3666 1038 3163 
Q 1038 2656 1286 2365 
Q 1534 2075 1959 2075 
z
" transform="scale(0.015625)"/>
      <path id="DejaVuSans-31" d="M 794 531 
L 1825 531 
L 1825 4091 
L 703 3866 
L 703 4441 
L 1819 4666 
L 2450 4666 
L 2450 531 
L 3481 531 
L 3481 0 
L 794 0 
L 794 531 
z
" transform="scale(0.015625)"/>
      <path id="DejaVuSans-25" d="M 4653 2053 
Q 4381 2053 4226 1822 
Q 4072 1591 4072 1178 
Q 4072 772 4226 539 
Q 4381 306 4653 306 
Q 4919 306 5073 539 
Q 5228 772 5228 1178 
Q 5228 1588 5073 1820 
Q 4919 2053 4653 2053 
z
M 4653 2450 
Q 5147 2450 5437 2106 
Q 5728 1763 5728 1178 
Q 5728 594 5436 251 
Q 5144 -91 4653 -91 
Q 4153 -91 3862 251 
Q 3572 594 3572 1178 
Q 3572 1766 3864 2108 
Q 4156 2450 4653 2450 
z
M 1428 4353 
Q 1159 4353 1004 4120 
Q 850 3888 850 3481 
Q 850 3069 1003 2837 
Q 1156 2606 1428 2606 
Q 1700 2606 1854 2837 
Q 2009 3069 2009 3481 
Q 2009 3884 1853 4118 
Q 1697 4353 1428 4353 
z
M 4250 4750 
L 4750 4750 
L 1831 -91 
L 1331 -91 
L 4250 4750 
z
M 1428 4750 
Q 1922 4750 2215 4408 
Q 2509 4066 2509 3481 
Q 2509 2891 2217 2550 
Q 1925 2209 1428 2209 
Q 931 2209 642 2551 
Q 353 2894 353 3481 
Q 353 4063 643 4406 
Q 934 4750 1428 4750 
z
" transform="scale(0.015625)"/>
     </defs>
     <use xlink:href="#DejaVuSans-39"/>
     <use xlink:href="#DejaVuSans-31" transform="translate(63.623047 0)"/>
     <use xlink:href="#DejaVuSans-25" transform="translate(127.246094 0)"/>
    </g>
   </g>
   <g id="text_3">
    <!-- No -->
    <g style="fill: #262626" transform="translate(150.471501 75.221198) scale(0.1 -0.1)">
     <defs>
      <path id="DejaVuSans-4e" d="M 628 4666 
L 1478 4666 
L 3547 763 
L 3547 4666 
L 4159 4666 
L 4159 0 
L 3309 0 
L 1241 3903 
L 1241 0 
L 628 0 
L 628 4666 
z
" transform="scale(0.015625)"/>
      <path id="DejaVuSans-6f" d="M 1959 3097 
Q 1497 3097 1228 2736 
Q 959 2375 959 1747 
Q 959 1119 1226 758 
Q 1494 397 1959 397 
Q 2419 397 2687 759 
Q 2956 1122 2956 1747 
Q 2956 2369 2687 2733 
Q 2419 3097 1959 3097 
z
M 1959 3584 
Q 2709 3584 3137 3096 
Q 3566 2609 3566 1747 
Q 3566 888 3137 398 
Q 2709 -91 1959 -91 
Q 1206 -91 779 398 
Q 353 888 353 1747 
Q 353 2609 779 3096 
Q 1206 3584 1959 3584 
z
" transform="scale(0.015625)"/>
     </defs>
     <use xlink:href="#DejaVuSans-4e"/>
     <use xlink:href="#DejaVuSans-6f" transform="translate(74.804688 0)"/>
    </g>
   </g>
   <g id="text_4">
    <!-- 9% -->
    <g style="fill: #262626" transform="translate(120.274237 80.506733) scale(0.1 -0.1)">
     <use xlink:href="#DejaVuSans-39"/>
     <use xlink:href="#DejaVuSans-25" transform="translate(63.623047 0)"/>
    </g>
   </g>
   <g id="text_5">
    <!-- Name -->
    <g style="fill: #262626" transform="translate(83.786114 20.88) scale(0.12 -0.12)">
     <defs>
      <path id="DejaVuSans-61" d="M 2194 1759 
Q 1497 1759 1228 1600 
Q 959 1441 959 1056 
Q 959 750 1161 570 
Q 1363 391 1709 391 
Q 2188 391 2477 730 
Q 2766 1069 2766 1631 
L 2766 1759 
L 2194 1759 
z
M 3341 1997 
L 3341 0 
L 2766 0 
L 2766 531 
Q 2569 213 2275 61 
Q 1981 -91 1556 -91 
Q 1019 -91 701 211 
Q 384 513 384 1019 
Q 384 1609 779 1909 
Q 1175 2209 1959 2209 
L 2766 2209 
L 2766 2266 
Q 2766 2663 2505 2880 
Q 2244 3097 1772 3097 
Q 1472 3097 1187 3025 
Q 903 2953 641 2809 
L 641 3341 
Q 956 3463 1253 3523 
Q 1550 3584 1831 3584 
Q 2591 3584 2966 3190 
Q 3341 2797 3341 1997 
z
" transform="scale(0.015625)"/>
      <path id="DejaVuSans-6d" d="M 3328 2828 
Q 3544 3216 3844 3400 
Q 4144 3584 4550 3584 
Q 5097 3584 5394 3201 
Q 5691 2819 5691 2113 
L 5691 0 
L 5113 0 
L 5113 2094 
Q 5113 2597 4934 2840 
Q 4756 3084 4391 3084 
Q 3944 3084 3684 2787 
Q 3425 2491 3425 1978 
L 3425 0 
L 2847 0 
L 2847 2094 
Q 2847 2600 2669 2842 
Q 2491 3084 2119 3084 
Q 1678 3084 1418 2786 
Q 1159 2488 1159 1978 
L 1159 0 
L 581 0 
L 581 3500 
L 1159 3500 
L 1159 2956 
Q 1356 3278 1631 3431 
Q 1906 3584 2284 3584 
Q 2666 3584 2933 3390 
Q 3200 3197 3328 2828 
z
" transform="scale(0.015625)"/>
     </defs>
     <use xlink:href="#DejaVuSans-4e"/>
     <use xlink:href="#DejaVuSans-61" transform="translate(74.804688 0)"/>
     <use xlink:href="#DejaVuSans-6d" transform="translate(136.083984 0)"/>
     <use xlink:href="#DejaVuSans-65" transform="translate(233.496094 0)"/>
    </g>
   </g>
  </g>
  <g id="axes_2">
   <g id="matplotlib.axis_3"/>
   <g id="matplotlib.axis_4"/>
   <g id="patch_4">
    <path d="M 328.847172 62.263107 
C 326.121505 57.542112 322.57417 53.34584 318.372675 49.872442 
C 314.17118 46.399044 309.382717 43.704067 304.2334 41.91477 
C 299.084083 40.125472 293.65626 39.270469 288.206239 39.390135 
C 282.756218 39.509801 277.371155 40.602221 272.305337 42.615812 
C 267.23952 44.629402 262.573961 47.531961 258.528972 51.186426 
C 254.483984 54.840892 251.124253 59.188822 248.60843 64.024903 
C 246.092606 68.860985 244.460924 74.107879 243.790431 79.517822 
C 243.119938 84.927766 243.421358 90.414243 244.680457 95.718178 
C 245.939556 101.022112 248.136199 106.058683 251.166658 110.590059 
C 254.197117 115.121435 258.012929 119.07515 262.433908 122.264507 
C 266.854887 125.453863 271.810333 127.827856 277.066245 129.274385 
C 282.322157 130.720913 287.794481 131.216843 293.224811 130.738756 
C 298.655142 130.26067 303.956635 128.816213 308.87895 126.473593 
C 313.801265 124.130974 318.265684 120.927655 322.061393 117.014901 
C 325.857102 113.102148 328.9234 108.542531 331.115494 103.551362 
C 333.307588 98.560192 334.590422 93.217288 334.903419 87.774946 
L 289.210922 85.147107 
z
" style="fill: #1f77b4; stroke: #ffffff; stroke-linejoin: miter"/>
   </g>
   <g id="patch_5">
    <path d="M 339.356466 86.717844 
C 339.611393 82.285166 339.219946 77.838899 338.194437 73.518951 
C 337.168927 69.199003 335.520228 65.051172 333.300229 61.206016 
L 293.663968 84.09 
z
" style="fill: #ff7f0e; stroke: #ffffff; stroke-linejoin: miter"/>
   </g>
   <g id="text_6">
    <!-- Yes -->
    <g style="fill: #262626" transform="translate(224.082097 99.534655) scale(0.1 -0.1)">
     <use xlink:href="#DejaVuSans-59"/>
     <use xlink:href="#DejaVuSans-65" transform="translate(47.833984 0)"/>
     <use xlink:href="#DejaVuSans-73" transform="translate(109.357422 0)"/>
    </g>
   </g>
   <g id="text_7">
    <!-- 91% -->
    <g style="fill: #262626" transform="translate(251.379361 94.249122) scale(0.1 -0.1)">
     <use xlink:href="#DejaVuSans-39"/>
     <use xlink:href="#DejaVuSans-31" transform="translate(63.623047 0)"/>
     <use xlink:href="#DejaVuSans-25" transform="translate(127.246094 0)"/>
    </g>
   </g>
   <g id="text_8">
    <!-- No -->
    <g style="fill: #262626" transform="translate(342.647479 75.221198) scale(0.1 -0.1)">
     <use xlink:href="#DejaVuSans-4e"/>
     <use xlink:href="#DejaVuSans-6f" transform="translate(74.804688 0)"/>
    </g>
   </g>
   <g id="text_9">
    <!-- 9% -->
    <g style="fill: #262626" transform="translate(312.450216 80.506733) scale(0.1 -0.1)">
     <use xlink:href="#DejaVuSans-39"/>
     <use xlink:href="#DejaVuSans-25" transform="translate(63.623047 0)"/>
    </g>
   </g>
   <g id="text_10">
    <!-- Homepage -->
    <g style="fill: #262626" transform="translate(260.957406 20.88) scale(0.12 -0.12)">
     <defs>
      <path id="DejaVuSans-48" d="M 628 4666 
L 1259 4666 
L 1259 2753 
L 3553 2753 
L 3553 4666 
L 4184 4666 
L 4184 0 
L 3553 0 
L 3553 2222 
L 1259 2222 
L 1259 0 
L 628 0 
L 628 4666 
z
" transform="scale(0.015625)"/>
      <path id="DejaVuSans-70" d="M 1159 525 
L 1159 -1331 
L 581 -1331 
L 581 3500 
L 1159 3500 
L 1159 2969 
Q 1341 3281 1617 3432 
Q 1894 3584 2278 3584 
Q 2916 3584 3314 3078 
Q 3713 2572 3713 1747 
Q 3713 922 3314 415 
Q 2916 -91 2278 -91 
Q 1894 -91 1617 61 
Q 1341 213 1159 525 
z
M 3116 1747 
Q 3116 2381 2855 2742 
Q 2594 3103 2138 3103 
Q 1681 3103 1420 2742 
Q 1159 2381 1159 1747 
Q 1159 1113 1420 752 
Q 1681 391 2138 391 
Q 2594 391 2855 752 
Q 3116 1113 3116 1747 
z
" transform="scale(0.015625)"/>
      <path id="DejaVuSans-67" d="M 2906 1791 
Q 2906 2416 2648 2759 
Q 2391 3103 1925 3103 
Q 1463 3103 1205 2759 
Q 947 2416 947 1791 
Q 947 1169 1205 825 
Q 1463 481 1925 481 
Q 2391 481 2648 825 
Q 2906 1169 2906 1791 
z
M 3481 434 
Q 3481 -459 3084 -895 
Q 2688 -1331 1869 -1331 
Q 1566 -1331 1297 -1286 
Q 1028 -1241 775 -1147 
L 775 -588 
Q 1028 -725 1275 -790 
Q 1522 -856 1778 -856 
Q 2344 -856 2625 -561 
Q 2906 -266 2906 331 
L 2906 616 
Q 2728 306 2450 153 
Q 2172 0 1784 0 
Q 1141 0 747 490 
Q 353 981 353 1791 
Q 353 2603 747 3093 
Q 1141 3584 1784 3584 
Q 2172 3584 2450 3431 
Q 2728 3278 2906 2969 
L 2906 3500 
L 3481 3500 
L 3481 434 
z
" transform="scale(0.015625)"/>
     </defs>
     <use xlink:href="#DejaVuSans-48"/>
     <use xlink:href="#DejaVuSans-6f" transform="translate(75.195312 0)"/>
     <use xlink:href="#DejaVuSans-6d" transform="translate(136.376953 0)"/>
     <use xlink:href="#DejaVuSans-65" transform="translate(233.789062 0)"/>
     <use xlink:href="#DejaVuSans-70" transform="translate(295.3125 0)"/>
     <use xlink:href="#DejaVuSans-61" transform="translate(358.789062 0)"/>
     <use xlink:href="#DejaVuSans-67" transform="translate(420.068359 0)"/>
     <use xlink:href="#DejaVuSans-65" transform="translate(483.544922 0)"/>
    </g>
   </g>
  </g>
  <g id="axes_3">
   <g id="matplotlib.axis_5"/>
   <g id="matplotlib.axis_6"/>
   <g id="patch_6">
    <path d="M 521.023151 62.263107 
C 518.297484 57.542112 514.750148 53.34584 510.548654 49.872442 
C 506.347159 46.399044 501.558695 43.704067 496.409378 41.91477 
C 491.260061 40.125472 485.832239 39.270469 480.382218 39.390135 
C 474.932196 39.509801 469.547133 40.602221 464.481316 42.615812 
C 459.415499 44.629402 454.74994 47.531961 450.704951 51.186426 
C 446.659963 54.840892 443.300232 59.188822 440.784408 64.024903 
C 438.268585 68.860985 436.636902 74.107879 435.96641 79.517822 
C 435.295917 84.927766 435.597337 90.414243 436.856436 95.718178 
C 438.115535 101.022112 440.312178 106.058683 443.342637 110.590059 
C 446.373096 115.121435 450.188908 119.07515 454.609887 122.264507 
C 459.030866 125.453863 463.986312 127.827856 469.242224 129.274385 
C 474.498135 130.720913 479.97046 131.216843 485.40079 130.738756 
C 490.83112 130.26067 496.132613 128.816213 501.054928 126.473593 
C 505.977243 124.130974 510.441663 120.927655 514.237372 117.014901 
C 518.033081 113.102148 521.099379 108.542531 523.291473 103.551362 
C 525.483567 98.560192 526.766401 93.217288 527.079397 87.774946 
L 481.3869 85.147107 
z
" style="fill: #1f77b4; stroke: #ffffff; stroke-linejoin: miter"/>
   </g>
   <g id="patch_7">
    <path d="M 531.532444 86.717844 
C 531.787372 82.285166 531.395925 77.838899 530.370415 73.518951 
C 529.344906 69.199003 527.696207 65.051172 525.476208 61.206016 
L 485.839947 84.09 
z
" style="fill: #ff7f0e; stroke: #ffffff; stroke-linejoin: miter"/>
   </g>
   <g id="text_11">
    <!-- Yes -->
    <g style="fill: #262626" transform="translate(416.258075 99.534655) scale(0.1 -0.1)">
     <use xlink:href="#DejaVuSans-59"/>
     <use xlink:href="#DejaVuSans-65" transform="translate(47.833984 0)"/>
     <use xlink:href="#DejaVuSans-73" transform="translate(109.357422 0)"/>
    </g>
   </g>
   <g id="text_12">
    <!-- 91% -->
    <g style="fill: #262626" transform="translate(443.55534 94.249122) scale(0.1 -0.1)">
     <use xlink:href="#DejaVuSans-39"/>
     <use xlink:href="#DejaVuSans-31" transform="translate(63.623047 0)"/>
     <use xlink:href="#DejaVuSans-25" transform="translate(127.246094 0)"/>
    </g>
   </g>
   <g id="text_13">
    <!-- No -->
    <g style="fill: #262626" transform="translate(534.823458 75.221198) scale(0.1 -0.1)">
     <use xlink:href="#DejaVuSans-4e"/>
     <use xlink:href="#DejaVuSans-6f" transform="translate(74.804688 0)"/>
    </g>
   </g>
   <g id="text_14">
    <!-- 9% -->
    <g style="fill: #262626" transform="translate(504.626194 80.506733) scale(0.1 -0.1)">
     <use xlink:href="#DejaVuSans-39"/>
     <use xlink:href="#DejaVuSans-25" transform="translate(63.623047 0)"/>
    </g>
   </g>
   <g id="text_15">
    <!-- Description -->
    <g style="fill: #262626" transform="translate(451.668072 20.88) scale(0.12 -0.12)">
     <defs>
      <path id="DejaVuSans-44" d="M 1259 4147 
L 1259 519 
L 2022 519 
Q 2988 519 3436 956 
Q 3884 1394 3884 2338 
Q 3884 3275 3436 3711 
Q 2988 4147 2022 4147 
L 1259 4147 
z
M 628 4666 
L 1925 4666 
Q 3281 4666 3915 4102 
Q 4550 3538 4550 2338 
Q 4550 1131 3912 565 
Q 3275 0 1925 0 
L 628 0 
L 628 4666 
z
" transform="scale(0.015625)"/>
      <path id="DejaVuSans-63" d="M 3122 3366 
L 3122 2828 
Q 2878 2963 2633 3030 
Q 2388 3097 2138 3097 
Q 1578 3097 1268 2742 
Q 959 2388 959 1747 
Q 959 1106 1268 751 
Q 1578 397 2138 397 
Q 2388 397 2633 464 
Q 2878 531 3122 666 
L 3122 134 
Q 2881 22 2623 -34 
Q 2366 -91 2075 -91 
Q 1284 -91 818 406 
Q 353 903 353 1747 
Q 353 2603 823 3093 
Q 1294 3584 2113 3584 
Q 2378 3584 2631 3529 
Q 2884 3475 3122 3366 
z
" transform="scale(0.015625)"/>
      <path id="DejaVuSans-72" d="M 2631 2963 
Q 2534 3019 2420 3045 
Q 2306 3072 2169 3072 
Q 1681 3072 1420 2755 
Q 1159 2438 1159 1844 
L 1159 0 
L 581 0 
L 581 3500 
L 1159 3500 
L 1159 2956 
Q 1341 3275 1631 3429 
Q 1922 3584 2338 3584 
Q 2397 3584 2469 3576 
Q 2541 3569 2628 3553 
L 2631 2963 
z
" transform="scale(0.015625)"/>
      <path id="DejaVuSans-69" d="M 603 3500 
L 1178 3500 
L 1178 0 
L 603 0 
L 603 3500 
z
M 603 4863 
L 1178 4863 
L 1178 4134 
L 603 4134 
L 603 4863 
z
" transform="scale(0.015625)"/>
      <path id="DejaVuSans-74" d="M 1172 4494 
L 1172 3500 
L 2356 3500 
L 2356 3053 
L 1172 3053 
L 1172 1153 
Q 1172 725 1289 603 
Q 1406 481 1766 481 
L 2356 481 
L 2356 0 
L 1766 0 
Q 1100 0 847 248 
Q 594 497 594 1153 
L 594 3053 
L 172 3053 
L 172 3500 
L 594 3500 
L 594 4494 
L 1172 4494 
z
" transform="scale(0.015625)"/>
      <path id="DejaVuSans-6e" d="M 3513 2113 
L 3513 0 
L 2938 0 
L 2938 2094 
Q 2938 2591 2744 2837 
Q 2550 3084 2163 3084 
Q 1697 3084 1428 2787 
Q 1159 2491 1159 1978 
L 1159 0 
L 581 0 
L 581 3500 
L 1159 3500 
L 1159 2956 
Q 1366 3272 1645 3428 
Q 1925 3584 2291 3584 
Q 2894 3584 3203 3211 
Q 3513 2838 3513 2113 
z
" transform="scale(0.015625)"/>
     </defs>
     <use xlink:href="#DejaVuSans-44"/>
     <use xlink:href="#DejaVuSans-65" transform="translate(77.001953 0)"/>
     <use xlink:href="#DejaVuSans-73" transform="translate(138.525391 0)"/>
     <use xlink:href="#DejaVuSans-63" transform="translate(190.625 0)"/>
     <use xlink:href="#DejaVuSans-72" transform="translate(245.605469 0)"/>
     <use xlink:href="#DejaVuSans-69" transform="translate(286.71875 0)"/>
     <use xlink:href="#DejaVuSans-70" transform="translate(314.501953 0)"/>
     <use xlink:href="#DejaVuSans-74" transform="translate(377.978516 0)"/>
     <use xlink:href="#DejaVuSans-69" transform="translate(417.1875 0)"/>
     <use xlink:href="#DejaVuSans-6f" transform="translate(444.970703 0)"/>
     <use xlink:href="#DejaVuSans-6e" transform="translate(506.152344 0)"/>
    </g>
   </g>
  </g>
  <g id="axes_4">
   <g id="matplotlib.axis_7"/>
   <g id="matplotlib.axis_8"/>
   <g id="patch_8">
    <path d="M 713.172137 62.142134 
C 710.472495 57.466217 706.966597 53.304695 702.816889 49.850394 
C 698.667182 46.396093 693.938765 43.703203 688.850731 41.8965 
C 683.762697 40.089797 678.394865 39.197623 672.995957 39.261319 
C 667.597049 39.325015 662.25176 40.343581 657.207767 42.269821 
C 652.163774 44.196061 647.500205 46.999757 643.433148 50.550999 
C 639.366092 54.10224 635.95935 58.345317 633.370776 63.083624 
C 630.782203 67.821931 629.052405 72.981136 628.261535 78.322183 
C 627.470665 83.663231 627.63113 89.102334 628.735493 94.387469 
C 629.839856 99.672603 631.870794 104.720859 634.734201 109.298321 
C 637.597609 113.875784 641.248566 117.910645 645.517904 121.215946 
C 649.787242 124.521248 654.607986 127.045138 659.756763 128.670671 
C 664.90554 130.296204 670.30158 130.99788 675.694853 130.743185 
C 681.088126 130.48849 686.394026 129.28142 691.366701 127.177906 
C 696.339376 125.074392 700.900817 122.107433 704.839667 118.414503 
C 708.778516 114.721574 712.032985 110.360607 714.452273 105.533672 
C 716.871562 100.706736 718.417719 95.489554 719.019103 90.123867 
L 673.535886 85.026134 
z
" style="fill: #1f77b4; stroke: #ffffff; stroke-linejoin: miter"/>
   </g>
   <g id="patch_9">
    <path d="M 723.499143 89.187731 
C 724.039963 84.362383 723.80947 79.48158 722.81632 74.728674 
C 721.82317 69.975768 720.079957 65.411035 717.652176 61.205997 
L 678.015926 84.09 
z
" style="fill: #ff7f0e; stroke: #ffffff; stroke-linejoin: miter"/>
   </g>
   <g id="text_16">
    <!-- Yes -->
    <g style="fill: #262626" transform="translate(608.110143 98.082987) scale(0.1 -0.1)">
     <use xlink:href="#DejaVuSans-59"/>
     <use xlink:href="#DejaVuSans-65" transform="translate(47.833984 0)"/>
     <use xlink:href="#DejaVuSans-73" transform="translate(109.357422 0)"/>
    </g>
   </g>
   <g id="text_17">
    <!-- 90% -->
    <g style="fill: #262626" transform="translate(635.54237 93.402316) scale(0.1 -0.1)">
     <defs>
      <path id="DejaVuSans-30" d="M 2034 4250 
Q 1547 4250 1301 3770 
Q 1056 3291 1056 2328 
Q 1056 1369 1301 889 
Q 1547 409 2034 409 
Q 2525 409 2770 889 
Q 3016 1369 3016 2328 
Q 3016 3291 2770 3770 
Q 2525 4250 2034 4250 
z
M 2034 4750 
Q 2819 4750 3233 4129 
Q 3647 3509 3647 2328 
Q 3647 1150 3233 529 
Q 2819 -91 2034 -91 
Q 1250 -91 836 529 
Q 422 1150 422 2328 
Q 422 3509 836 4129 
Q 1250 4750 2034 4750 
z
" transform="scale(0.015625)"/>
     </defs>
     <use xlink:href="#DejaVuSans-39"/>
     <use xlink:href="#DejaVuSans-30" transform="translate(63.623047 0)"/>
     <use xlink:href="#DejaVuSans-25" transform="translate(127.246094 0)"/>
    </g>
   </g>
   <g id="text_18">
    <!-- No -->
    <g style="fill: #262626" transform="translate(727.29636 76.551916) scale(0.1 -0.1)">
     <use xlink:href="#DejaVuSans-4e"/>
     <use xlink:href="#DejaVuSans-6f" transform="translate(74.804688 0)"/>
    </g>
   </g>
   <g id="text_19">
    <!-- 10% -->
    <g style="fill: #262626" transform="translate(693.782881 81.232579) scale(0.1 -0.1)">
     <use xlink:href="#DejaVuSans-31"/>
     <use xlink:href="#DejaVuSans-30" transform="translate(63.623047 0)"/>
     <use xlink:href="#DejaVuSans-25" transform="translate(127.246094 0)"/>
    </g>
   </g>
   <g id="text_20">
    <!-- Example -->
    <g style="fill: #262626" transform="translate(651.984363 20.88) scale(0.12 -0.12)">
     <defs>
      <path id="DejaVuSans-45" d="M 628 4666 
L 3578 4666 
L 3578 4134 
L 1259 4134 
L 1259 2753 
L 3481 2753 
L 3481 2222 
L 1259 2222 
L 1259 531 
L 3634 531 
L 3634 0 
L 628 0 
L 628 4666 
z
" transform="scale(0.015625)"/>
      <path id="DejaVuSans-78" d="M 3513 3500 
L 2247 1797 
L 3578 0 
L 2900 0 
L 1881 1375 
L 863 0 
L 184 0 
L 1544 1831 
L 300 3500 
L 978 3500 
L 1906 2253 
L 2834 3500 
L 3513 3500 
z
" transform="scale(0.015625)"/>
      <path id="DejaVuSans-6c" d="M 603 4863 
L 1178 4863 
L 1178 0 
L 603 0 
L 603 4863 
z
" transform="scale(0.015625)"/>
     </defs>
     <use xlink:href="#DejaVuSans-45"/>
     <use xlink:href="#DejaVuSans-78" transform="translate(63.183594 0)"/>
     <use xlink:href="#DejaVuSans-61" transform="translate(122.363281 0)"/>
     <use xlink:href="#DejaVuSans-6d" transform="translate(183.642578 0)"/>
     <use xlink:href="#DejaVuSans-70" transform="translate(281.054688 0)"/>
     <use xlink:href="#DejaVuSans-6c" transform="translate(344.53125 0)"/>
     <use xlink:href="#DejaVuSans-65" transform="translate(372.314453 0)"/>
    </g>
   </g>
  </g>
  <g id="axes_5">
   <g id="matplotlib.axis_9"/>
   <g id="matplotlib.axis_10"/>
   <g id="patch_10">
    <path d="M 137.950968 199.207903 
C 134.47825 193.19298 129.68149 188.04672 123.925244 184.160244 
C 118.168997 180.273768 111.602882 177.748092 104.725929 176.775171 
C 97.848975 175.80225 90.839928 176.407372 84.231483 178.544546 
C 77.623037 180.68172 71.586959 184.295398 66.581996 189.110936 
C 61.577032 193.926474 57.733273 199.818708 55.342846 206.339822 
C 52.952419 212.860936 52.077457 219.841433 52.784457 226.750791 
C 53.491458 233.660148 55.762044 240.318777 59.423651 246.220616 
C 63.085258 252.122455 68.042711 257.114104 73.919241 260.816192 
L 98.314717 222.091903 
z
" style="fill: #1f77b4; stroke: #ffffff; stroke-linejoin: miter"/>
   </g>
   <g id="patch_11">
    <path d="M 77.092514 264.11429 
C 85.743291 269.564095 95.975688 271.961026 106.146878 270.920259 
C 116.318068 269.879491 125.852939 265.45988 133.220696 258.37098 
C 140.588452 251.282081 145.372487 241.924719 146.804718 231.80123 
C 148.236951 221.677741 146.236397 211.360522 141.12425 202.506016 
L 101.487989 225.39 
z
" style="fill: #ff7f0e; stroke: #ffffff; stroke-linejoin: miter"/>
   </g>
   <g id="text_21">
    <!-- Yes -->
    <g style="fill: #262626" transform="translate(47.263412 188.572213) scale(0.1 -0.1)">
     <use xlink:href="#DejaVuSans-59"/>
     <use xlink:href="#DejaVuSans-65" transform="translate(47.833984 0)"/>
     <use xlink:href="#DejaVuSans-73" transform="translate(109.357422 0)"/>
    </g>
   </g>
   <g id="text_22">
    <!-- 58% -->
    <g style="fill: #262626" transform="translate(68.161804 205.062697) scale(0.1 -0.1)">
     <defs>
      <path id="DejaVuSans-35" d="M 691 4666 
L 3169 4666 
L 3169 4134 
L 1269 4134 
L 1269 2991 
Q 1406 3038 1543 3061 
Q 1681 3084 1819 3084 
Q 2600 3084 3056 2656 
Q 3513 2228 3513 1497 
Q 3513 744 3044 326 
Q 2575 -91 1722 -91 
Q 1428 -91 1123 -41 
Q 819 9 494 109 
L 494 744 
Q 775 591 1075 516 
Q 1375 441 1709 441 
Q 2250 441 2565 725 
Q 2881 1009 2881 1497 
Q 2881 1984 2565 2268 
Q 2250 2553 1709 2553 
Q 1456 2553 1204 2497 
Q 953 2441 691 2322 
L 691 4666 
z
" transform="scale(0.015625)"/>
      <path id="DejaVuSans-38" d="M 2034 2216 
Q 1584 2216 1326 1975 
Q 1069 1734 1069 1313 
Q 1069 891 1326 650 
Q 1584 409 2034 409 
Q 2484 409 2743 651 
Q 3003 894 3003 1313 
Q 3003 1734 2745 1975 
Q 2488 2216 2034 2216 
z
M 1403 2484 
Q 997 2584 770 2862 
Q 544 3141 544 3541 
Q 544 4100 942 4425 
Q 1341 4750 2034 4750 
Q 2731 4750 3128 4425 
Q 3525 4100 3525 3541 
Q 3525 3141 3298 2862 
Q 3072 2584 2669 2484 
Q 3125 2378 3379 2068 
Q 3634 1759 3634 1313 
Q 3634 634 3220 271 
Q 2806 -91 2034 -91 
Q 1263 -91 848 271 
Q 434 634 434 1313 
Q 434 1759 690 2068 
Q 947 2378 1403 2484 
z
M 1172 3481 
Q 1172 3119 1398 2916 
Q 1625 2713 2034 2713 
Q 2441 2713 2670 2916 
Q 2900 3119 2900 3481 
Q 2900 3844 2670 4047 
Q 2441 4250 2034 4250 
Q 1625 4250 1398 4047 
Q 1172 3844 1172 3481 
z
" transform="scale(0.015625)"/>
     </defs>
     <use xlink:href="#DejaVuSans-35"/>
     <use xlink:href="#DejaVuSans-38" transform="translate(63.623047 0)"/>
     <use xlink:href="#DejaVuSans-25" transform="translate(127.246094 0)"/>
    </g>
   </g>
   <g id="text_23">
    <!-- No -->
    <g style="fill: #262626" transform="translate(136.393985 264.428437) scale(0.1 -0.1)">
     <use xlink:href="#DejaVuSans-4e"/>
     <use xlink:href="#DejaVuSans-6f" transform="translate(74.804688 0)"/>
    </g>
   </g>
   <g id="text_24">
    <!-- 42% -->
    <g style="fill: #262626" transform="translate(109.414342 247.937954) scale(0.1 -0.1)">
     <defs>
      <path id="DejaVuSans-34" d="M 2419 4116 
L 825 1625 
L 2419 1625 
L 2419 4116 
z
M 2253 4666 
L 3047 4666 
L 3047 1625 
L 3713 1625 
L 3713 1100 
L 3047 1100 
L 3047 0 
L 2419 0 
L 2419 1100 
L 313 1100 
L 313 1709 
L 2253 4666 
z
" transform="scale(0.015625)"/>
      <path id="DejaVuSans-32" d="M 1228 531 
L 3431 531 
L 3431 0 
L 469 0 
L 469 531 
Q 828 903 1448 1529 
Q 2069 2156 2228 2338 
Q 2531 2678 2651 2914 
Q 2772 3150 2772 3378 
Q 2772 3750 2511 3984 
Q 2250 4219 1831 4219 
Q 1534 4219 1204 4116 
Q 875 4013 500 3803 
L 500 4441 
Q 881 4594 1212 4672 
Q 1544 4750 1819 4750 
Q 2544 4750 2975 4387 
Q 3406 4025 3406 3419 
Q 3406 3131 3298 2873 
Q 3191 2616 2906 2266 
Q 2828 2175 2409 1742 
Q 1991 1309 1228 531 
z
" transform="scale(0.015625)"/>
     </defs>
     <use xlink:href="#DejaVuSans-34"/>
     <use xlink:href="#DejaVuSans-32" transform="translate(63.623047 0)"/>
     <use xlink:href="#DejaVuSans-25" transform="translate(127.246094 0)"/>
    </g>
   </g>
   <g id="text_25">
    <!-- Pattern -->
    <g style="fill: #262626" transform="translate(79.902989 162.18) scale(0.12 -0.12)">
     <defs>
      <path id="DejaVuSans-50" d="M 1259 4147 
L 1259 2394 
L 2053 2394 
Q 2494 2394 2734 2622 
Q 2975 2850 2975 3272 
Q 2975 3691 2734 3919 
Q 2494 4147 2053 4147 
L 1259 4147 
z
M 628 4666 
L 2053 4666 
Q 2838 4666 3239 4311 
Q 3641 3956 3641 3272 
Q 3641 2581 3239 2228 
Q 2838 1875 2053 1875 
L 1259 1875 
L 1259 0 
L 628 0 
L 628 4666 
z
" transform="scale(0.015625)"/>
     </defs>
     <use xlink:href="#DejaVuSans-50"/>
     <use xlink:href="#DejaVuSans-61" transform="translate(55.802734 0)"/>
     <use xlink:href="#DejaVuSans-74" transform="translate(117.082031 0)"/>
     <use xlink:href="#DejaVuSans-74" transform="translate(156.291016 0)"/>
     <use xlink:href="#DejaVuSans-65" transform="translate(195.5 0)"/>
     <use xlink:href="#DejaVuSans-72" transform="translate(257.023438 0)"/>
     <use xlink:href="#DejaVuSans-6e" transform="translate(296.386719 0)"/>
    </g>
   </g>
  </g>
  <g id="axes_6">
   <g id="matplotlib.axis_11"/>
   <g id="matplotlib.axis_12"/>
   <g id="patch_12">
    <path d="M 328.742567 202.924224 
C 326.1529 198.43879 322.820531 194.425314 318.887696 191.055105 
C 314.954861 187.684897 310.478323 185.006598 305.649156 183.134528 
C 300.819989 181.262459 295.707893 180.223638 290.531069 180.062406 
C 285.354246 179.901174 280.187412 180.619858 275.251107 182.187782 
C 270.314801 183.755706 265.68027 186.15024 261.545331 189.269178 
C 257.410391 192.388116 253.834723 196.186441 250.970949 200.502029 
C 248.107174 204.817616 245.996626 209.588178 244.72939 214.610091 
C 243.462154 219.632004 243.056519 224.832786 243.529801 229.99045 
C 244.003082 235.148115 245.348448 240.18822 247.508475 244.895638 
C 249.668501 249.603056 252.612012 253.909844 256.213368 257.632173 
C 259.814724 261.354502 264.021946 264.438648 268.655456 266.752969 
C 273.288966 269.06729 278.281889 270.578382 283.421108 271.221749 
C 288.560328 271.865115 293.77167 271.631469 298.832696 270.530784 
C 303.893723 269.430099 308.731388 267.47826 313.139203 264.75858 
C 317.547018 262.038899 321.461366 258.59063 324.715167 254.560956 
C 327.968969 250.531282 330.515262 245.978364 332.245363 241.096535 
L 289.106317 225.808224 
z
" style="fill: #1f77b4; stroke: #ffffff; stroke-linejoin: miter"/>
   </g>
   <g id="patch_13">
    <path d="M 336.803011 240.67832 
C 339.013528 234.440906 339.845187 227.797633 339.240485 221.207788 
C 338.635784 214.617943 336.608992 208.236968 333.300229 202.506016 
L 293.663968 225.39 
z
" style="fill: #ff7f0e; stroke: #ffffff; stroke-linejoin: miter"/>
   </g>
   <g id="text_26">
    <!-- Yes -->
    <g style="fill: #262626" transform="translate(222.826838 233.168064) scale(0.1 -0.1)">
     <use xlink:href="#DejaVuSans-59"/>
     <use xlink:href="#DejaVuSans-65" transform="translate(47.833984 0)"/>
     <use xlink:href="#DejaVuSans-73" transform="translate(109.357422 0)"/>
    </g>
   </g>
   <g id="text_27">
    <!-- 86% -->
    <g style="fill: #262626" transform="translate(250.647127 231.076944) scale(0.1 -0.1)">
     <defs>
      <path id="DejaVuSans-36" d="M 2113 2584 
Q 1688 2584 1439 2293 
Q 1191 2003 1191 1497 
Q 1191 994 1439 701 
Q 1688 409 2113 409 
Q 2538 409 2786 701 
Q 3034 994 3034 1497 
Q 3034 2003 2786 2293 
Q 2538 2584 2113 2584 
z
M 3366 4563 
L 3366 3988 
Q 3128 4100 2886 4159 
Q 2644 4219 2406 4219 
Q 1781 4219 1451 3797 
Q 1122 3375 1075 2522 
Q 1259 2794 1537 2939 
Q 1816 3084 2150 3084 
Q 2853 3084 3261 2657 
Q 3669 2231 3669 1497 
Q 3669 778 3244 343 
Q 2819 -91 2113 -91 
Q 1303 -91 875 529 
Q 447 1150 447 2328 
Q 447 3434 972 4092 
Q 1497 4750 2381 4750 
Q 2619 4750 2861 4703 
Q 3103 4656 3366 4563 
z
" transform="scale(0.015625)"/>
     </defs>
     <use xlink:href="#DejaVuSans-38"/>
     <use xlink:href="#DejaVuSans-36" transform="translate(63.623047 0)"/>
     <use xlink:href="#DejaVuSans-25" transform="translate(127.246094 0)"/>
    </g>
   </g>
   <g id="text_28">
    <!-- No -->
    <g style="fill: #262626" transform="translate(343.798135 223.548917) scale(0.1 -0.1)">
     <use xlink:href="#DejaVuSans-4e"/>
     <use xlink:href="#DejaVuSans-6f" transform="translate(74.804688 0)"/>
    </g>
   </g>
   <g id="text_29">
    <!-- 14% -->
    <g style="fill: #262626" transform="translate(309.896596 225.640034) scale(0.1 -0.1)">
     <use xlink:href="#DejaVuSans-31"/>
     <use xlink:href="#DejaVuSans-34" transform="translate(63.623047 0)"/>
     <use xlink:href="#DejaVuSans-25" transform="translate(127.246094 0)"/>
    </g>
   </g>
   <g id="text_30">
    <!-- Provider -->
    <g style="fill: #262626" transform="translate(268.962718 162.18) scale(0.12 -0.12)">
     <defs>
      <path id="DejaVuSans-76" d="M 191 3500 
L 800 3500 
L 1894 563 
L 2988 3500 
L 3597 3500 
L 2284 0 
L 1503 0 
L 191 3500 
z
" transform="scale(0.015625)"/>
      <path id="DejaVuSans-64" d="M 2906 2969 
L 2906 4863 
L 3481 4863 
L 3481 0 
L 2906 0 
L 2906 525 
Q 2725 213 2448 61 
Q 2172 -91 1784 -91 
Q 1150 -91 751 415 
Q 353 922 353 1747 
Q 353 2572 751 3078 
Q 1150 3584 1784 3584 
Q 2172 3584 2448 3432 
Q 2725 3281 2906 2969 
z
M 947 1747 
Q 947 1113 1208 752 
Q 1469 391 1925 391 
Q 2381 391 2643 752 
Q 2906 1113 2906 1747 
Q 2906 2381 2643 2742 
Q 2381 3103 1925 3103 
Q 1469 3103 1208 2742 
Q 947 2381 947 1747 
z
" transform="scale(0.015625)"/>
     </defs>
     <use xlink:href="#DejaVuSans-50"/>
     <use xlink:href="#DejaVuSans-72" transform="translate(58.552734 0)"/>
     <use xlink:href="#DejaVuSans-6f" transform="translate(97.416016 0)"/>
     <use xlink:href="#DejaVuSans-76" transform="translate(158.597656 0)"/>
     <use xlink:href="#DejaVuSans-69" transform="translate(217.777344 0)"/>
     <use xlink:href="#DejaVuSans-64" transform="translate(245.560547 0)"/>
     <use xlink:href="#DejaVuSans-65" transform="translate(309.037109 0)"/>
     <use xlink:href="#DejaVuSans-72" transform="translate(370.560547 0)"/>
    </g>
   </g>
  </g>
  <g id="axes_7">
   <g id="matplotlib.axis_13"/>
   <g id="matplotlib.axis_14"/>
   <g id="patch_14">
    <path d="M 526.081037 197.969342 
C 522.577408 191.900878 517.726471 186.717324 511.903346 182.81952 
C 506.08022 178.921716 499.438977 176.412792 492.493177 175.48676 
C 485.547378 174.560727 478.480797 175.242089 471.839888 177.478156 
C 465.198979 179.714222 459.15945 183.44583 454.188332 188.384418 
L 486.444786 220.853342 
z
" style="fill: #1f77b4; stroke: #ffffff; stroke-linejoin: miter"/>
   </g>
   <g id="patch_15">
    <path d="M 453.583489 192.921079 
C 447.519336 198.945551 443.262528 206.550113 441.297579 214.869198 
C 439.33263 223.188283 439.737038 231.893814 442.464764 239.994907 
C 445.192493 248.095999 450.135971 255.27317 456.73252 260.709505 
C 463.32907 266.14584 471.318546 269.626943 479.79157 270.756585 
C 488.264593 271.88623 496.887011 270.619861 504.677405 267.101628 
C 512.467799 263.583394 519.118924 257.952057 523.873767 250.848561 
C 528.62861 243.745064 531.299638 235.449558 531.582825 226.906256 
C 531.866014 218.362954 529.750194 209.908777 525.476197 202.505997 
L 485.839947 225.39 
z
" style="fill: #ff7f0e; stroke: #ffffff; stroke-linejoin: miter"/>
   </g>
   <g id="text_31">
    <!-- Yes -->
    <g style="fill: #262626" transform="translate(493.098017 173.709476) scale(0.1 -0.1)">
     <use xlink:href="#DejaVuSans-59"/>
     <use xlink:href="#DejaVuSans-65" transform="translate(47.833984 0)"/>
     <use xlink:href="#DejaVuSans-73" transform="translate(109.357422 0)"/>
    </g>
   </g>
   <g id="text_32">
    <!-- 29% -->
    <g style="fill: #262626" transform="translate(478.96054 196.392767) scale(0.1 -0.1)">
     <use xlink:href="#DejaVuSans-32"/>
     <use xlink:href="#DejaVuSans-39" transform="translate(63.623047 0)"/>
     <use xlink:href="#DejaVuSans-25" transform="translate(127.246094 0)"/>
    </g>
   </g>
   <g id="text_33">
    <!-- No -->
    <g style="fill: #262626" transform="translate(465.586732 278.052618) scale(0.1 -0.1)">
     <use xlink:href="#DejaVuSans-4e"/>
     <use xlink:href="#DejaVuSans-6f" transform="translate(74.804688 0)"/>
    </g>
   </g>
   <g id="text_34">
    <!-- 71% -->
    <g style="fill: #262626" transform="translate(471.097639 255.369325) scale(0.1 -0.1)">
     <defs>
      <path id="DejaVuSans-37" d="M 525 4666 
L 3525 4666 
L 3525 4397 
L 1831 0 
L 1172 0 
L 2766 4134 
L 525 4134 
L 525 4666 
z
" transform="scale(0.015625)"/>
     </defs>
     <use xlink:href="#DejaVuSans-37"/>
     <use xlink:href="#DejaVuSans-31" transform="translate(63.623047 0)"/>
     <use xlink:href="#DejaVuSans-25" transform="translate(127.246094 0)"/>
    </g>
   </g>
   <g id="text_35">
    <!-- License -->
    <g style="fill: #262626" transform="translate(463.219009 162.18) scale(0.12 -0.12)">
     <defs>
      <path id="DejaVuSans-4c" d="M 628 4666 
L 1259 4666 
L 1259 531 
L 3531 531 
L 3531 0 
L 628 0 
L 628 4666 
z
" transform="scale(0.015625)"/>
     </defs>
     <use xlink:href="#DejaVuSans-4c"/>
     <use xlink:href="#DejaVuSans-69" transform="translate(55.712891 0)"/>
     <use xlink:href="#DejaVuSans-63" transform="translate(83.496094 0)"/>
     <use xlink:href="#DejaVuSans-65" transform="translate(138.476562 0)"/>
     <use xlink:href="#DejaVuSans-6e" transform="translate(200 0)"/>
     <use xlink:href="#DejaVuSans-73" transform="translate(263.378906 0)"/>
     <use xlink:href="#DejaVuSans-65" transform="translate(315.478516 0)"/>
    </g>
   </g>
  </g>
  <g id="axes_8">
   <g id="matplotlib.axis_15"/>
   <g id="matplotlib.axis_16"/>
   <g id="patch_16">
    <path d="M 717.652176 202.506 
C 712.164386 193.000868 703.436451 185.779773 693.071725 182.169256 
C 682.706999 178.558739 671.38156 178.794309 661.175932 182.832692 
C 650.970304 186.871075 642.550188 194.448852 637.462389 204.173957 
C 632.374589 213.899063 630.950978 225.137141 633.453078 235.823715 
L 678.015926 225.39 
z
" style="fill: #1f77b4; stroke: #ffffff; stroke-linejoin: miter"/>
   </g>
   <g id="patch_17">
    <path d="M 633.453079 235.823719 
C 635.120254 242.944297 638.470065 249.562646 643.220933 255.122446 
C 647.971801 260.682247 653.986777 265.023219 660.760235 267.780459 
C 667.533694 270.5377 674.870376 271.631731 682.153577 270.970585 
C 689.436778 270.309441 696.456531 267.912183 702.622777 263.980319 
L 678.015926 225.39 
z
" style="fill: #ff7f0e; stroke: #ffffff; stroke-linejoin: miter"/>
   </g>
   <g id="patch_18">
    <path d="M 702.622777 263.980319 
C 710.809673 258.759999 717.126741 251.067438 720.655115 242.021578 
C 724.183488 232.975717 724.743353 223.037513 722.253278 213.652604 
L 678.015926 225.39 
z
" style="fill: #2ca02c; stroke: #ffffff; stroke-linejoin: miter"/>
   </g>
   <g id="patch_19">
    <path d="M 722.253278 213.652604 
C 721.736163 211.703636 721.090809 209.790958 720.321444 207.9271 
C 719.552078 206.063242 718.660387 204.252275 717.652186 202.506016 
L 678.015926 225.39 
z
" style="fill: #d62728; stroke: #ffffff; stroke-linejoin: miter"/>
   </g>
   <g id="text_36">
    <!-- CC-BY-4.0 -->
    <g style="fill: #262626" transform="translate(611.538808 181.336336) scale(0.1 -0.1)">
     <defs>
      <path id="DejaVuSans-43" d="M 4122 4306 
L 4122 3641 
Q 3803 3938 3442 4084 
Q 3081 4231 2675 4231 
Q 1875 4231 1450 3742 
Q 1025 3253 1025 2328 
Q 1025 1406 1450 917 
Q 1875 428 2675 428 
Q 3081 428 3442 575 
Q 3803 722 4122 1019 
L 4122 359 
Q 3791 134 3420 21 
Q 3050 -91 2638 -91 
Q 1578 -91 968 557 
Q 359 1206 359 2328 
Q 359 3453 968 4101 
Q 1578 4750 2638 4750 
Q 3056 4750 3426 4639 
Q 3797 4528 4122 4306 
z
" transform="scale(0.015625)"/>
      <path id="DejaVuSans-2d" d="M 313 2009 
L 1997 2009 
L 1997 1497 
L 313 1497 
L 313 2009 
z
" transform="scale(0.015625)"/>
      <path id="DejaVuSans-42" d="M 1259 2228 
L 1259 519 
L 2272 519 
Q 2781 519 3026 730 
Q 3272 941 3272 1375 
Q 3272 1813 3026 2020 
Q 2781 2228 2272 2228 
L 1259 2228 
z
M 1259 4147 
L 1259 2741 
L 2194 2741 
Q 2656 2741 2882 2914 
Q 3109 3088 3109 3444 
Q 3109 3797 2882 3972 
Q 2656 4147 2194 4147 
L 1259 4147 
z
M 628 4666 
L 2241 4666 
Q 2963 4666 3353 4366 
Q 3744 4066 3744 3513 
Q 3744 3084 3544 2831 
Q 3344 2578 2956 2516 
Q 3422 2416 3680 2098 
Q 3938 1781 3938 1306 
Q 3938 681 3513 340 
Q 3088 0 2303 0 
L 628 0 
L 628 4666 
z
" transform="scale(0.015625)"/>
      <path id="DejaVuSans-2e" d="M 684 794 
L 1344 794 
L 1344 0 
L 684 0 
L 684 794 
z
" transform="scale(0.015625)"/>
     </defs>
     <use xlink:href="#DejaVuSans-43"/>
     <use xlink:href="#DejaVuSans-43" transform="translate(69.824219 0)"/>
     <use xlink:href="#DejaVuSans-2d" transform="translate(139.648438 0)"/>
     <use xlink:href="#DejaVuSans-42" transform="translate(172.107422 0)"/>
     <use xlink:href="#DejaVuSans-59" transform="translate(235.210938 0)"/>
     <use xlink:href="#DejaVuSans-2d" transform="translate(284.419922 0)"/>
     <use xlink:href="#DejaVuSans-34" transform="translate(320.503906 0)"/>
     <use xlink:href="#DejaVuSans-2e" transform="translate(384.126953 0)"/>
     <use xlink:href="#DejaVuSans-30" transform="translate(415.914062 0)"/>
    </g>
   </g>
   <g id="text_37">
    <!-- 45% -->
    <g style="fill: #262626" transform="translate(656.798649 202.61499) scale(0.1 -0.1)">
     <use xlink:href="#DejaVuSans-34"/>
     <use xlink:href="#DejaVuSans-35" transform="translate(63.623047 0)"/>
     <use xlink:href="#DejaVuSans-25" transform="translate(127.246094 0)"/>
    </g>
   </g>
   <g id="text_38">
    <!-- CC-BY-3.0 -->
    <g style="fill: #262626" transform="translate(611.081542 274.77888) scale(0.1 -0.1)">
     <defs>
      <path id="DejaVuSans-33" d="M 2597 2516 
Q 3050 2419 3304 2112 
Q 3559 1806 3559 1356 
Q 3559 666 3084 287 
Q 2609 -91 1734 -91 
Q 1441 -91 1130 -33 
Q 819 25 488 141 
L 488 750 
Q 750 597 1062 519 
Q 1375 441 1716 441 
Q 2309 441 2620 675 
Q 2931 909 2931 1356 
Q 2931 1769 2642 2001 
Q 2353 2234 1838 2234 
L 1294 2234 
L 1294 2753 
L 1863 2753 
Q 2328 2753 2575 2939 
Q 2822 3125 2822 3475 
Q 2822 3834 2567 4026 
Q 2313 4219 1838 4219 
Q 1578 4219 1281 4162 
Q 984 4106 628 3988 
L 628 4550 
Q 988 4650 1302 4700 
Q 1616 4750 1894 4750 
Q 2613 4750 3031 4423 
Q 3450 4097 3450 3541 
Q 3450 3153 3228 2886 
Q 3006 2619 2597 2516 
z
" transform="scale(0.015625)"/>
     </defs>
     <use xlink:href="#DejaVuSans-43"/>
     <use xlink:href="#DejaVuSans-43" transform="translate(69.824219 0)"/>
     <use xlink:href="#DejaVuSans-2d" transform="translate(139.648438 0)"/>
     <use xlink:href="#DejaVuSans-42" transform="translate(172.107422 0)"/>
     <use xlink:href="#DejaVuSans-59" transform="translate(235.210938 0)"/>
     <use xlink:href="#DejaVuSans-2d" transform="translate(284.419922 0)"/>
     <use xlink:href="#DejaVuSans-33" transform="translate(320.503906 0)"/>
     <use xlink:href="#DejaVuSans-2e" transform="translate(384.126953 0)"/>
     <use xlink:href="#DejaVuSans-30" transform="translate(415.914062 0)"/>
    </g>
   </g>
   <g id="text_39">
    <!-- 30% -->
    <g style="fill: #262626" transform="translate(656.549231 253.58365) scale(0.1 -0.1)">
     <use xlink:href="#DejaVuSans-33"/>
     <use xlink:href="#DejaVuSans-30" transform="translate(63.623047 0)"/>
     <use xlink:href="#DejaVuSans-25" transform="translate(127.246094 0)"/>
    </g>
   </g>
   <g id="text_40">
    <!-- CC0-1.0 -->
    <g style="fill: #262626" transform="translate(724.919042 246.444088) scale(0.1 -0.1)">
     <use xlink:href="#DejaVuSans-43"/>
     <use xlink:href="#DejaVuSans-43" transform="translate(69.824219 0)"/>
     <use xlink:href="#DejaVuSans-30" transform="translate(139.648438 0)"/>
     <use xlink:href="#DejaVuSans-2d" transform="translate(203.271484 0)"/>
     <use xlink:href="#DejaVuSans-31" transform="translate(239.355469 0)"/>
     <use xlink:href="#DejaVuSans-2e" transform="translate(302.978516 0)"/>
     <use xlink:href="#DejaVuSans-30" transform="translate(334.765625 0)"/>
    </g>
   </g>
   <g id="text_41">
    <!-- 20% -->
    <g style="fill: #262626" transform="translate(692.486163 238.128309) scale(0.1 -0.1)">
     <use xlink:href="#DejaVuSans-32"/>
     <use xlink:href="#DejaVuSans-30" transform="translate(63.623047 0)"/>
     <use xlink:href="#DejaVuSans-25" transform="translate(127.246094 0)"/>
    </g>
   </g>
   <g id="text_42">
    <!-- Other -->
    <g style="fill: #262626" transform="translate(724.551997 208.940186) scale(0.1 -0.1)">
     <defs>
      <path id="DejaVuSans-4f" d="M 2522 4238 
Q 1834 4238 1429 3725 
Q 1025 3213 1025 2328 
Q 1025 1447 1429 934 
Q 1834 422 2522 422 
Q 3209 422 3611 934 
Q 4013 1447 4013 2328 
Q 4013 3213 3611 3725 
Q 3209 4238 2522 4238 
z
M 2522 4750 
Q 3503 4750 4090 4092 
Q 4678 3434 4678 2328 
Q 4678 1225 4090 567 
Q 3503 -91 2522 -91 
Q 1538 -91 948 565 
Q 359 1222 359 2328 
Q 359 3434 948 4092 
Q 1538 4750 2522 4750 
z
" transform="scale(0.015625)"/>
      <path id="DejaVuSans-68" d="M 3513 2113 
L 3513 0 
L 2938 0 
L 2938 2094 
Q 2938 2591 2744 2837 
Q 2550 3084 2163 3084 
Q 1697 3084 1428 2787 
Q 1159 2491 1159 1978 
L 1159 0 
L 581 0 
L 581 4863 
L 1159 4863 
L 1159 2956 
Q 1366 3272 1645 3428 
Q 1925 3584 2291 3584 
Q 2894 3584 3203 3211 
Q 3513 2838 3513 2113 
z
" transform="scale(0.015625)"/>
     </defs>
     <use xlink:href="#DejaVuSans-4f"/>
     <use xlink:href="#DejaVuSans-74" transform="translate(78.710938 0)"/>
     <use xlink:href="#DejaVuSans-68" transform="translate(117.919922 0)"/>
     <use xlink:href="#DejaVuSans-65" transform="translate(181.298828 0)"/>
     <use xlink:href="#DejaVuSans-72" transform="translate(242.822266 0)"/>
    </g>
   </g>
   <g id="text_43">
    <!-- 4% -->
    <g style="fill: #262626" transform="translate(695.467206 217.671636) scale(0.1 -0.1)">
     <use xlink:href="#DejaVuSans-34"/>
     <use xlink:href="#DejaVuSans-25" transform="translate(63.623047 0)"/>
    </g>
   </g>
   <g id="text_44">
    <!-- License Type -->
    <g style="fill: #262626" transform="translate(639.708738 162.18) scale(0.12 -0.12)">
     <defs>
      <path id="DejaVuSans-20" transform="scale(0.015625)"/>
      <path id="DejaVuSans-54" d="M -19 4666 
L 3928 4666 
L 3928 4134 
L 2272 4134 
L 2272 0 
L 1638 0 
L 1638 4134 
L -19 4134 
L -19 4666 
z
" transform="scale(0.015625)"/>
      <path id="DejaVuSans-79" d="M 2059 -325 
Q 1816 -950 1584 -1140 
Q 1353 -1331 966 -1331 
L 506 -1331 
L 506 -850 
L 844 -850 
Q 1081 -850 1212 -737 
Q 1344 -625 1503 -206 
L 1606 56 
L 191 3500 
L 800 3500 
L 1894 763 
L 2988 3500 
L 3597 3500 
L 2059 -325 
z
" transform="scale(0.015625)"/>
     </defs>
     <use xlink:href="#DejaVuSans-4c"/>
     <use xlink:href="#DejaVuSans-69" transform="translate(55.712891 0)"/>
     <use xlink:href="#DejaVuSans-63" transform="translate(83.496094 0)"/>
     <use xlink:href="#DejaVuSans-65" transform="translate(138.476562 0)"/>
     <use xlink:href="#DejaVuSans-6e" transform="translate(200 0)"/>
     <use xlink:href="#DejaVuSans-73" transform="translate(263.378906 0)"/>
     <use xlink:href="#DejaVuSans-65" transform="translate(315.478516 0)"/>
     <use xlink:href="#DejaVuSans-20" transform="translate(377.001953 0)"/>
     <use xlink:href="#DejaVuSans-54" transform="translate(408.789062 0)"/>
     <use xlink:href="#DejaVuSans-79" transform="translate(454.248047 0)"/>
     <use xlink:href="#DejaVuSans-70" transform="translate(513.427734 0)"/>
     <use xlink:href="#DejaVuSans-65" transform="translate(576.904297 0)"/>
    </g>
   </g>
  </g>
  <g id="axes_9">
   <g id="matplotlib.axis_17"/>
   <g id="matplotlib.axis_18"/>
   <g id="patch_20">
    <path d="M 144.149692 340.371799 
C 141.665208 336.068547 138.496428 332.198479 134.767964 328.913788 
C 131.0395 325.629097 126.800877 322.973412 122.218779 321.051168 
L 104.513441 363.255799 
z
" style="fill: #1f77b4; stroke: #ffffff; stroke-linejoin: miter"/>
   </g>
   <g id="patch_21">
    <path d="M 119.193331 324.485371 
C 114.227509 322.40215 108.932767 321.211606 103.553162 320.968616 
C 98.173557 320.725629 92.79304 321.433986 87.659631 323.061038 
C 82.526221 324.68809 77.720032 327.208443 73.462594 330.505928 
C 69.205155 333.803413 65.56291 337.82657 62.703752 342.389946 
C 59.844594 346.953323 57.813137 351.985711 56.703024 357.255136 
C 55.592914 362.524561 55.421466 367.9488 56.196593 373.277812 
C 56.97172 378.606824 58.681321 383.757456 61.24659 388.492283 
C 63.81186 393.227111 67.192769 397.472249 71.233469 401.032013 
C 75.274169 404.591778 79.911612 407.410621 84.932025 409.358605 
C 89.952437 411.306588 95.277483 412.353319 100.661695 412.450542 
C 106.045907 412.547762 111.405247 411.693968 116.492715 409.928503 
C 121.580183 408.163038 126.316369 405.513452 130.482952 402.101888 
C 134.649535 398.690324 138.181504 394.570013 140.916039 389.930886 
C 143.650575 385.291759 145.545013 380.206205 146.512024 374.908651 
C 147.479035 369.611096 147.503527 364.184205 146.584381 358.878138 
C 145.665233 353.57207 143.816785 348.469622 141.124239 343.805997 
L 101.487989 366.69 
z
" style="fill: #ff7f0e; stroke: #ffffff; stroke-linejoin: miter"/>
   </g>
   <g id="text_45">
    <!-- Yes -->
    <g style="fill: #262626" transform="translate(137.793413 328.238959) scale(0.1 -0.1)">
     <use xlink:href="#DejaVuSans-59"/>
     <use xlink:href="#DejaVuSans-65" transform="translate(47.833984 0)"/>
     <use xlink:href="#DejaVuSans-73" transform="translate(109.357422 0)"/>
    </g>
   </g>
   <g id="text_46">
    <!-- 10% -->
    <g style="fill: #262626" transform="translate(111.552872 345.409966) scale(0.1 -0.1)">
     <use xlink:href="#DejaVuSans-31"/>
     <use xlink:href="#DejaVuSans-30" transform="translate(63.623047 0)"/>
     <use xlink:href="#DejaVuSans-25" transform="translate(127.246094 0)"/>
    </g>
   </g>
   <g id="text_47">
    <!-- No -->
    <g style="fill: #262626" transform="translate(54.608026 407.225597) scale(0.1 -0.1)">
     <use xlink:href="#DejaVuSans-4e"/>
     <use xlink:href="#DejaVuSans-6f" transform="translate(74.804688 0)"/>
    </g>
   </g>
   <g id="text_48">
    <!-- 90% -->
    <g style="fill: #262626" transform="translate(72.222001 390.054587) scale(0.1 -0.1)">
     <use xlink:href="#DejaVuSans-39"/>
     <use xlink:href="#DejaVuSans-30" transform="translate(63.623047 0)"/>
     <use xlink:href="#DejaVuSans-25" transform="translate(127.246094 0)"/>
    </g>
   </g>
   <g id="text_49">
    <!-- Version -->
    <g style="fill: #262626" transform="translate(79.423927 303.48) scale(0.12 -0.12)">
     <defs>
      <path id="DejaVuSans-56" d="M 1831 0 
L 50 4666 
L 709 4666 
L 2188 738 
L 3669 4666 
L 4325 4666 
L 2547 0 
L 1831 0 
z
" transform="scale(0.015625)"/>
     </defs>
     <use xlink:href="#DejaVuSans-56"/>
     <use xlink:href="#DejaVuSans-65" transform="translate(60.658203 0)"/>
     <use xlink:href="#DejaVuSans-72" transform="translate(122.181641 0)"/>
     <use xlink:href="#DejaVuSans-73" transform="translate(163.294922 0)"/>
     <use xlink:href="#DejaVuSans-69" transform="translate(215.394531 0)"/>
     <use xlink:href="#DejaVuSans-6f" transform="translate(243.177734 0)"/>
     <use xlink:href="#DejaVuSans-6e" transform="translate(304.359375 0)"/>
    </g>
   </g>
  </g>
  <g id="axes_10">
   <g id="matplotlib.axis_19"/>
   <g id="matplotlib.axis_20"/>
   <g id="patch_22">
    <path d="M 332.221197 339.358213 
C 327.277688 330.795804 319.690271 324.061533 310.601528 320.169507 
C 301.512785 316.27748 291.403047 315.433388 281.794728 317.764342 
C 272.18641 320.095295 263.587302 325.478106 257.292336 333.102181 
C 250.997369 340.726256 247.339228 350.188671 246.868786 360.06449 
L 292.584946 362.242213 
z
" style="fill: #1f77b4; stroke: #ffffff; stroke-linejoin: miter"/>
   </g>
   <g id="patch_23">
    <path d="M 247.947808 364.512279 
C 247.60941 371.616133 248.931432 378.702048 251.808636 385.205968 
C 254.685839 391.709887 259.039797 397.454522 264.523931 401.982607 
C 270.008066 406.510692 276.472892 409.69879 283.40379 411.293123 
C 290.334689 412.887456 297.542747 412.844572 304.454184 411.167873 
C 311.36562 409.491177 317.792033 406.226384 323.221897 401.633365 
C 328.651761 397.040346 332.937058 391.244296 335.736666 384.706602 
C 338.536275 378.168907 339.773883 371.067761 339.35098 363.968436 
C 338.928074 356.869111 336.856182 349.965112 333.300229 343.806016 
L 293.663968 366.69 
z
" style="fill: #ff7f0e; stroke: #ffffff; stroke-linejoin: miter"/>
   </g>
   <g id="text_50">
    <!-- Yes -->
    <g style="fill: #262626" transform="translate(264.570396 316.075929) scale(0.1 -0.1)">
     <use xlink:href="#DejaVuSans-59"/>
     <use xlink:href="#DejaVuSans-65" transform="translate(47.833984 0)"/>
     <use xlink:href="#DejaVuSans-73" transform="translate(109.357422 0)"/>
    </g>
   </g>
   <g id="text_51">
    <!-- 41% -->
    <g style="fill: #262626" transform="translate(274.997535 338.314865) scale(0.1 -0.1)">
     <use xlink:href="#DejaVuSans-34"/>
     <use xlink:href="#DejaVuSans-31" transform="translate(63.623047 0)"/>
     <use xlink:href="#DejaVuSans-25" transform="translate(127.246094 0)"/>
    </g>
   </g>
   <g id="text_52">
    <!-- No -->
    <g style="fill: #262626" transform="translate(305.533205 418.375034) scale(0.1 -0.1)">
     <use xlink:href="#DejaVuSans-4e"/>
     <use xlink:href="#DejaVuSans-6f" transform="translate(74.804688 0)"/>
    </g>
   </g>
   <g id="text_53">
    <!-- 59% -->
    <g style="fill: #262626" transform="translate(289.024816 396.136098) scale(0.1 -0.1)">
     <use xlink:href="#DejaVuSans-35"/>
     <use xlink:href="#DejaVuSans-39" transform="translate(63.623047 0)"/>
     <use xlink:href="#DejaVuSans-25" transform="translate(127.246094 0)"/>
    </g>
   </g>
   <g id="text_54">
    <!-- Contact Email -->
    <g style="fill: #262626" transform="translate(251.767093 303.48) scale(0.12 -0.12)">
     <use xlink:href="#DejaVuSans-43"/>
     <use xlink:href="#DejaVuSans-6f" transform="translate(69.824219 0)"/>
     <use xlink:href="#DejaVuSans-6e" transform="translate(131.005859 0)"/>
     <use xlink:href="#DejaVuSans-74" transform="translate(194.384766 0)"/>
     <use xlink:href="#DejaVuSans-61" transform="translate(233.59375 0)"/>
     <use xlink:href="#DejaVuSans-63" transform="translate(294.873047 0)"/>
     <use xlink:href="#DejaVuSans-74" transform="translate(349.853516 0)"/>
     <use xlink:href="#DejaVuSans-20" transform="translate(389.0625 0)"/>
     <use xlink:href="#DejaVuSans-45" transform="translate(420.849609 0)"/>
     <use xlink:href="#DejaVuSans-6d" transform="translate(484.033203 0)"/>
     <use xlink:href="#DejaVuSans-61" transform="translate(581.445312 0)"/>
     <use xlink:href="#DejaVuSans-69" transform="translate(642.724609 0)"/>
     <use xlink:href="#DejaVuSans-6c" transform="translate(670.507812 0)"/>
    </g>
   </g>
  </g>
  <g id="axes_11">
   <g id="matplotlib.axis_21"/>
   <g id="matplotlib.axis_22"/>
   <g id="patch_24">
    <path d="M 529.152458 341.079792 
C 528.278921 339.566781 527.319467 338.105029 526.278808 336.701712 
C 525.238149 335.298396 524.117991 333.955816 522.923836 332.680567 
L 489.516207 363.963792 
z
" style="fill: #1f77b4; stroke: #ffffff; stroke-linejoin: miter"/>
   </g>
   <g id="patch_25">
    <path d="M 519.247576 335.406776 
C 515.290109 331.180562 510.56639 327.743431 505.327606 325.278156 
C 500.088823 322.812881 494.429505 321.363939 488.650575 321.008382 
C 482.871646 320.652824 477.07739 321.397068 471.575905 323.201532 
C 466.074419 325.005996 460.964973 327.838125 456.519268 331.547323 
C 452.073563 335.256521 448.371812 339.775857 445.610854 344.865018 
C 442.849895 349.954178 441.07955 355.521325 440.393953 361.270447 
C 439.708356 367.019569 440.11988 372.84692 441.606641 378.442632 
C 443.093401 384.038343 445.628569 389.301447 449.077346 393.952081 
C 452.526122 398.602715 456.826273 402.55696 461.749138 405.604556 
C 466.672003 408.652152 472.128758 410.738106 477.82924 411.751495 
C 483.529721 412.764887 489.371071 412.687429 495.042677 411.523242 
C 500.714283 410.359055 506.113789 408.129156 510.954116 404.952101 
C 515.794443 401.775046 519.988232 397.70817 523.312482 392.967726 
C 526.636731 388.227282 529.03146 382.898807 530.369327 377.265641 
C 531.707191 371.632475 531.964058 365.796262 531.126261 360.06734 
C 530.288464 354.338419 528.371127 348.82016 525.476197 343.805997 
L 485.839947 366.69 
z
" style="fill: #ff7f0e; stroke: #ffffff; stroke-linejoin: miter"/>
   </g>
   <g id="text_55">
    <!-- Yes -->
    <g style="fill: #262626" transform="translate(529.955068 336.734879) scale(0.1 -0.1)">
     <use xlink:href="#DejaVuSans-59"/>
     <use xlink:href="#DejaVuSans-65" transform="translate(47.833984 0)"/>
     <use xlink:href="#DejaVuSans-73" transform="translate(109.357422 0)"/>
    </g>
   </g>
   <g id="text_56">
    <!-- 4% -->
    <g style="fill: #262626" transform="translate(503.641736 350.365919) scale(0.1 -0.1)">
     <use xlink:href="#DejaVuSans-34"/>
     <use xlink:href="#DejaVuSans-25" transform="translate(63.623047 0)"/>
    </g>
   </g>
   <g id="text_57">
    <!-- No -->
    <g style="fill: #262626" transform="translate(431.801087 399.437664) scale(0.1 -0.1)">
     <use xlink:href="#DejaVuSans-4e"/>
     <use xlink:href="#DejaVuSans-6f" transform="translate(74.804688 0)"/>
    </g>
   </g>
   <g id="text_58">
    <!-- 96% -->
    <g style="fill: #262626" transform="translate(452.669106 385.806624) scale(0.1 -0.1)">
     <use xlink:href="#DejaVuSans-39"/>
     <use xlink:href="#DejaVuSans-36" transform="translate(63.623047 0)"/>
     <use xlink:href="#DejaVuSans-25" transform="translate(127.246094 0)"/>
    </g>
   </g>
   <g id="text_59">
    <!-- Wikidata Database -->
    <g style="fill: #262626" transform="translate(429.183072 303.48) scale(0.12 -0.12)">
     <defs>
      <path id="DejaVuSans-57" d="M 213 4666 
L 850 4666 
L 1831 722 
L 2809 4666 
L 3519 4666 
L 4500 722 
L 5478 4666 
L 6119 4666 
L 4947 0 
L 4153 0 
L 3169 4050 
L 2175 0 
L 1381 0 
L 213 4666 
z
" transform="scale(0.015625)"/>
      <path id="DejaVuSans-6b" d="M 581 4863 
L 1159 4863 
L 1159 1991 
L 2875 3500 
L 3609 3500 
L 1753 1863 
L 3688 0 
L 2938 0 
L 1159 1709 
L 1159 0 
L 581 0 
L 581 4863 
z
" transform="scale(0.015625)"/>
      <path id="DejaVuSans-62" d="M 3116 1747 
Q 3116 2381 2855 2742 
Q 2594 3103 2138 3103 
Q 1681 3103 1420 2742 
Q 1159 2381 1159 1747 
Q 1159 1113 1420 752 
Q 1681 391 2138 391 
Q 2594 391 2855 752 
Q 3116 1113 3116 1747 
z
M 1159 2969 
Q 1341 3281 1617 3432 
Q 1894 3584 2278 3584 
Q 2916 3584 3314 3078 
Q 3713 2572 3713 1747 
Q 3713 922 3314 415 
Q 2916 -91 2278 -91 
Q 1894 -91 1617 61 
Q 1341 213 1159 525 
L 1159 0 
L 581 0 
L 581 4863 
L 1159 4863 
L 1159 2969 
z
" transform="scale(0.015625)"/>
     </defs>
     <use xlink:href="#DejaVuSans-57"/>
     <use xlink:href="#DejaVuSans-69" transform="translate(96.626953 0)"/>
     <use xlink:href="#DejaVuSans-6b" transform="translate(124.410156 0)"/>
     <use xlink:href="#DejaVuSans-69" transform="translate(182.320312 0)"/>
     <use xlink:href="#DejaVuSans-64" transform="translate(210.103516 0)"/>
     <use xlink:href="#DejaVuSans-61" transform="translate(273.580078 0)"/>
     <use xlink:href="#DejaVuSans-74" transform="translate(334.859375 0)"/>
     <use xlink:href="#DejaVuSans-61" transform="translate(374.068359 0)"/>
     <use xlink:href="#DejaVuSans-20" transform="translate(435.347656 0)"/>
     <use xlink:href="#DejaVuSans-44" transform="translate(467.134766 0)"/>
     <use xlink:href="#DejaVuSans-61" transform="translate(544.136719 0)"/>
     <use xlink:href="#DejaVuSans-74" transform="translate(605.416016 0)"/>
     <use xlink:href="#DejaVuSans-61" transform="translate(644.625 0)"/>
     <use xlink:href="#DejaVuSans-62" transform="translate(705.904297 0)"/>
     <use xlink:href="#DejaVuSans-61" transform="translate(769.380859 0)"/>
     <use xlink:href="#DejaVuSans-73" transform="translate(830.660156 0)"/>
     <use xlink:href="#DejaVuSans-65" transform="translate(882.759766 0)"/>
    </g>
   </g>
  </g>
  <g id="axes_12">
   <g id="matplotlib.axis_23"/>
   <g id="matplotlib.axis_24"/>
   <g id="patch_26">
    <path d="M 721.06894 340.760869 
C 719.508794 338.058616 717.676385 335.522981 715.600328 333.193558 
C 713.524271 330.864136 711.215428 328.753114 708.709853 326.893458 
L 681.432689 363.644869 
z
" style="fill: #1f77b4; stroke: #ffffff; stroke-linejoin: miter"/>
   </g>
   <g id="patch_27">
    <path d="M 705.29309 329.938589 
C 700.782673 326.590925 695.694276 324.102013 690.282785 322.59653 
C 684.871294 321.091048 679.228594 320.594554 673.637356 321.131927 
C 668.046117 321.669299 662.601279 323.231406 657.57558 325.740004 
C 652.549879 328.248602 648.028658 331.661094 644.238401 335.806532 
C 640.448143 339.95197 637.453208 344.759966 635.403615 349.989677 
C 633.354023 355.219389 632.284576 360.782019 632.24885 366.398908 
C 632.213127 372.015797 633.211728 377.591579 635.194633 382.846939 
C 637.177537 388.1023 640.111071 392.948 643.848291 397.141314 
C 647.585511 401.334629 652.062945 404.804345 657.056327 407.376669 
C 662.049709 409.948993 667.474258 411.580241 673.058208 412.188691 
C 678.642159 412.797138 684.290705 412.372467 689.720909 410.93594 
C 695.151112 409.499413 700.270755 407.075431 704.823391 403.785413 
C 709.376027 400.495394 713.284341 396.395205 716.352563 391.690237 
C 719.420786 386.985269 721.596821 381.755397 722.771647 376.26263 
C 723.946475 370.769862 724.100154 365.107458 723.224989 359.559052 
C 722.349824 354.010647 720.460677 348.670464 717.652176 343.805997 
L 678.015926 366.69 
z
" style="fill: #ff7f0e; stroke: #ffffff; stroke-linejoin: miter"/>
   </g>
   <g id="text_60">
    <!-- Yes -->
    <g style="fill: #262626" transform="translate(719.017091 332.907802) scale(0.1 -0.1)">
     <use xlink:href="#DejaVuSans-59"/>
     <use xlink:href="#DejaVuSans-65" transform="translate(47.833984 0)"/>
     <use xlink:href="#DejaVuSans-73" transform="translate(109.357422 0)"/>
    </g>
   </g>
   <g id="text_61">
    <!-- 7% -->
    <g style="fill: #262626" transform="translate(694.001241 348.133457) scale(0.1 -0.1)">
     <use xlink:href="#DejaVuSans-37"/>
     <use xlink:href="#DejaVuSans-25" transform="translate(63.623047 0)"/>
    </g>
   </g>
   <g id="text_62">
    <!-- No -->
    <g style="fill: #262626" transform="translate(626.831537 402.945832) scale(0.1 -0.1)">
     <use xlink:href="#DejaVuSans-4e"/>
     <use xlink:href="#DejaVuSans-6f" transform="translate(74.804688 0)"/>
    </g>
   </g>
   <g id="text_63">
    <!-- 93% -->
    <g style="fill: #262626" transform="translate(646.402069 387.72017) scale(0.1 -0.1)">
     <use xlink:href="#DejaVuSans-39"/>
     <use xlink:href="#DejaVuSans-33" transform="translate(63.623047 0)"/>
     <use xlink:href="#DejaVuSans-25" transform="translate(127.246094 0)"/>
    </g>
   </g>
   <g id="text_64">
    <!-- OBO -->
    <g style="fill: #262626" transform="translate(664.558113 303.48) scale(0.12 -0.12)">
     <use xlink:href="#DejaVuSans-4f"/>
     <use xlink:href="#DejaVuSans-42" transform="translate(78.710938 0)"/>
     <use xlink:href="#DejaVuSans-4f" transform="translate(145.564453 0)"/>
    </g>
   </g>
  </g>
  <g id="axes_13">
   <g id="matplotlib.axis_25"/>
   <g id="matplotlib.axis_26"/>
   <g id="patch_28">
    <path d="M 143.691126 481.316779 
C 140.230295 475.322444 135.454314 470.190568 129.723737 466.308572 
C 123.99316 462.426576 117.455914 459.894669 110.605514 458.903992 
L 104.054875 504.200779 
z
" style="fill: #1f77b4; stroke: #ffffff; stroke-linejoin: miter"/>
   </g>
   <g id="patch_29">
    <path d="M 108.03863 462.693213 
C 102.950059 461.957325 97.773671 462.084133 92.727237 463.0683 
C 87.680803 464.05247 82.836095 465.880005 78.39693 468.474019 
C 73.957767 471.068033 69.987282 474.391633 66.652514 478.304996 
C 63.317745 482.218359 60.666124 486.665831 58.809204 491.460299 
C 56.952283 496.254767 55.91647 501.328048 55.745346 506.466705 
C 55.574222 511.605364 56.270219 516.736316 57.804053 521.643702 
C 59.337887 526.551087 61.687749 531.165112 64.754777 535.291664 
C 67.821804 539.418217 71.562377 542.998607 75.819128 545.882208 
C 80.075881 548.765809 84.788269 550.911606 89.758048 552.22933 
C 94.727826 553.547053 99.884311 554.017961 105.010566 553.622239 
C 110.136822 553.226518 115.15994 551.9698 119.868601 549.90495 
C 124.577262 547.840099 128.904496 544.996486 132.668254 541.493744 
C 136.432012 537.991003 139.578767 533.878947 141.976135 529.33057 
C 144.373502 524.782194 145.987383 519.862187 146.749885 514.777536 
C 147.512387 509.692885 147.412663 504.515904 146.454908 499.46439 
C 145.497154 494.412875 143.694992 489.558672 141.124239 485.105997 
L 101.487989 507.99 
z
" style="fill: #ff7f0e; stroke: #ffffff; stroke-linejoin: miter"/>
   </g>
   <g id="text_65">
    <!-- Yes -->
    <g style="fill: #262626" transform="translate(132.290621 465.278725) scale(0.1 -0.1)">
     <use xlink:href="#DejaVuSans-59"/>
     <use xlink:href="#DejaVuSans-65" transform="translate(47.833984 0)"/>
     <use xlink:href="#DejaVuSans-73" transform="translate(109.357422 0)"/>
    </g>
   </g>
   <g id="text_66">
    <!-- 14% -->
    <g style="fill: #262626" transform="translate(108.34291 484.224829) scale(0.1 -0.1)">
     <use xlink:href="#DejaVuSans-31"/>
     <use xlink:href="#DejaVuSans-34" transform="translate(63.623047 0)"/>
     <use xlink:href="#DejaVuSans-25" transform="translate(127.246094 0)"/>
    </g>
   </g>
   <g id="text_67">
    <!-- No -->
    <g style="fill: #262626" transform="translate(59.652242 552.430803) scale(0.1 -0.1)">
     <use xlink:href="#DejaVuSans-4e"/>
     <use xlink:href="#DejaVuSans-6f" transform="translate(74.804688 0)"/>
    </g>
   </g>
   <g id="text_68">
    <!-- 86% -->
    <g style="fill: #262626" transform="translate(74.973391 533.4847) scale(0.1 -0.1)">
     <use xlink:href="#DejaVuSans-38"/>
     <use xlink:href="#DejaVuSans-36" transform="translate(63.623047 0)"/>
     <use xlink:href="#DejaVuSans-25" transform="translate(127.246094 0)"/>
    </g>
   </g>
   <g id="text_69">
    <!-- OWL -->
    <g style="fill: #262626" transform="translate(87.489239 444.78) scale(0.12 -0.12)">
     <use xlink:href="#DejaVuSans-4f"/>
     <use xlink:href="#DejaVuSans-57" transform="translate(78.710938 0)"/>
     <use xlink:href="#DejaVuSans-4c" transform="translate(177.587891 0)"/>
    </g>
   </g>
  </g>
  <g id="axes_14">
   <g id="matplotlib.axis_27"/>
   <g id="matplotlib.axis_28"/>
   <g id="patch_30">
    <path d="M 337.115572 482.57812 
C 336.646019 481.764831 336.151546 480.966186 335.632855 480.183321 
C 335.114164 479.400455 334.5715 478.633739 334.005635 477.884262 
L 297.479321 505.46212 
z
" style="fill: #1f77b4; stroke: #ffffff; stroke-linejoin: miter"/>
   </g>
   <g id="patch_31">
    <path d="M 330.190282 480.412144 
C 326.640183 475.710109 322.215311 471.73751 317.159179 468.712971 
C 312.103045 465.688432 306.510129 463.668468 300.688215 462.764236 
C 294.8663 461.860007 288.924173 462.088405 283.188847 463.436867 
C 277.453521 464.78533 272.032164 467.228655 267.223117 470.632387 
C 262.414069 474.036119 258.307199 478.336652 255.128509 483.297324 
C 251.94982 488.257995 249.758707 493.786114 248.67576 499.577448 
C 247.592813 505.368783 247.638261 511.315113 248.809603 517.089217 
C 249.980946 522.863321 252.256295 528.3573 255.510438 533.268806 
C 258.764581 538.180311 262.936699 542.417566 267.797211 545.747394 
C 272.657722 549.077222 278.11579 551.437396 283.871057 552.698039 
C 289.626325 553.958682 295.571238 554.096232 301.378651 553.10312 
C 307.186065 552.110008 312.74747 550.004786 317.756782 546.903317 
C 322.766094 543.801849 327.12972 539.762085 330.607536 535.006339 
C 334.085351 530.250591 336.612358 524.867736 338.049499 519.153985 
C 339.486637 513.440233 339.807055 507.502346 338.993109 501.667124 
C 338.179165 495.831901 336.246077 490.208373 333.300218 485.105997 
L 293.663968 507.99 
z
" style="fill: #ff7f0e; stroke: #ffffff; stroke-linejoin: miter"/>
   </g>
   <g id="text_70">
    <!-- Yes -->
    <g style="fill: #262626" transform="translate(339.448207 480.414814) scale(0.1 -0.1)">
     <use xlink:href="#DejaVuSans-59"/>
     <use xlink:href="#DejaVuSans-65" transform="translate(47.833984 0)"/>
     <use xlink:href="#DejaVuSans-73" transform="translate(109.357422 0)"/>
    </g>
   </g>
   <g id="text_71">
    <!-- 2% -->
    <g style="fill: #262626" transform="translate(312.43941 493.054215) scale(0.1 -0.1)">
     <use xlink:href="#DejaVuSans-32"/>
     <use xlink:href="#DejaVuSans-25" transform="translate(63.623047 0)"/>
    </g>
   </g>
   <g id="text_72">
    <!-- No -->
    <g style="fill: #262626" transform="translate(238.095086 538.556062) scale(0.1 -0.1)">
     <use xlink:href="#DejaVuSans-4e"/>
     <use xlink:href="#DejaVuSans-6f" transform="translate(74.804688 0)"/>
    </g>
   </g>
   <g id="text_73">
    <!-- 98% -->
    <g style="fill: #262626" transform="translate(259.658569 525.916659) scale(0.1 -0.1)">
     <use xlink:href="#DejaVuSans-39"/>
     <use xlink:href="#DejaVuSans-38" transform="translate(63.623047 0)"/>
     <use xlink:href="#DejaVuSans-25" transform="translate(127.246094 0)"/>
    </g>
   </g>
   <g id="text_74">
    <!-- JSON -->
    <g style="fill: #262626" transform="translate(278.873031 444.78) scale(0.12 -0.12)">
     <defs>
      <path id="DejaVuSans-4a" d="M 628 4666 
L 1259 4666 
L 1259 325 
Q 1259 -519 939 -900 
Q 619 -1281 -91 -1281 
L -331 -1281 
L -331 -750 
L -134 -750 
Q 284 -750 456 -515 
Q 628 -281 628 325 
L 628 4666 
z
" transform="scale(0.015625)"/>
      <path id="DejaVuSans-53" d="M 3425 4513 
L 3425 3897 
Q 3066 4069 2747 4153 
Q 2428 4238 2131 4238 
Q 1616 4238 1336 4038 
Q 1056 3838 1056 3469 
Q 1056 3159 1242 3001 
Q 1428 2844 1947 2747 
L 2328 2669 
Q 3034 2534 3370 2195 
Q 3706 1856 3706 1288 
Q 3706 609 3251 259 
Q 2797 -91 1919 -91 
Q 1588 -91 1214 -16 
Q 841 59 441 206 
L 441 856 
Q 825 641 1194 531 
Q 1563 422 1919 422 
Q 2459 422 2753 634 
Q 3047 847 3047 1241 
Q 3047 1584 2836 1778 
Q 2625 1972 2144 2069 
L 1759 2144 
Q 1053 2284 737 2584 
Q 422 2884 422 3419 
Q 422 4038 858 4394 
Q 1294 4750 2059 4750 
Q 2388 4750 2728 4690 
Q 3069 4631 3425 4513 
z
" transform="scale(0.015625)"/>
     </defs>
     <use xlink:href="#DejaVuSans-4a"/>
     <use xlink:href="#DejaVuSans-53" transform="translate(29.492188 0)"/>
     <use xlink:href="#DejaVuSans-4f" transform="translate(92.96875 0)"/>
     <use xlink:href="#DejaVuSans-4e" transform="translate(171.679688 0)"/>
    </g>
   </g>
  </g>
  <g id="axes_15"/>
  <g id="axes_16"/>
  <g id="text_75">
   <!-- https://github.com/biopragmatics/bioregistry (2025-12-20) -->
   <g style="fill: #808080; opacity: 0.5" transform="translate(278.67625 574.33625) scale(0.08 -0.08)">
    <defs>
     <path id="DejaVuSans-3a" d="M 750 794 
L 1409 794 
L 1409 0 
L 750 0 
L 750 794 
z
M 750 3309 
L 1409 3309 
L 1409 2516 
L 750 2516 
L 750 3309 
z
" transform="scale(0.015625)"/>
     <path id="DejaVuSans-2f" d="M 1625 4666 
L 2156 4666 
L 531 -594 
L 0 -594 
L 1625 4666 
z
" transform="scale(0.015625)"/>
     <path id="DejaVuSans-75" d="M 544 1381 
L 544 3500 
L 1119 3500 
L 1119 1403 
Q 1119 906 1312 657 
Q 1506 409 1894 409 
Q 2359 409 2629 706 
Q 2900 1003 2900 1516 
L 2900 3500 
L 3475 3500 
L 3475 0 
L 2900 0 
L 2900 538 
Q 2691 219 2414 64 
Q 2138 -91 1772 -91 
Q 1169 -91 856 284 
Q 544 659 544 1381 
z
M 1991 3584 
L 1991 3584 
z
" transform="scale(0.015625)"/>
     <path id="DejaVuSans-28" d="M 1984 4856 
Q 1566 4138 1362 3434 
Q 1159 2731 1159 2009 
Q 1159 1288 1364 580 
Q 1569 -128 1984 -844 
L 1484 -844 
Q 1016 -109 783 600 
Q 550 1309 550 2009 
Q 550 2706 781 3412 
Q 1013 4119 1484 4856 
L 1984 4856 
z
" transform="scale(0.015625)"/>
     <path id="DejaVuSans-29" d="M 513 4856 
L 1013 4856 
Q 1481 4119 1714 3412 
Q 1947 2706 1947 2009 
Q 1947 1309 1714 600 
Q 1481 -109 1013 -844 
L 513 -844 
Q 928 -128 1133 580 
Q 1338 1288 1338 2009 
Q 1338 2731 1133 3434 
Q 928 4138 513 4856 
z
" transform="scale(0.015625)"/>
    </defs>
    <use xlink:href="#DejaVuSans-68"/>
    <use xlink:href="#DejaVuSans-74" transform="translate(63.378906 0)"/>
    <use xlink:href="#DejaVuSans-74" transform="translate(102.587891 0)"/>
    <use xlink:href="#DejaVuSans-70" transform="translate(141.796875 0)"/>
    <use xlink:href="#DejaVuSans-73" transform="translate(205.273438 0)"/>
    <use xlink:href="#DejaVuSans-3a" transform="translate(257.373047 0)"/>
    <use xlink:href="#DejaVuSans-2f" transform="translate(291.064453 0)"/>
    <use xlink:href="#DejaVuSans-2f" transform="translate(324.755859 0)"/>
    <use xlink:href="#DejaVuSans-67" transform="translate(358.447266 0)"/>
    <use xlink:href="#DejaVuSans-69" transform="translate(421.923828 0)"/>
    <use xlink:href="#DejaVuSans-74" transform="translate(449.707031 0)"/>
    <use xlink:href="#DejaVuSans-68" transform="translate(488.916016 0)"/>
    <use xlink:href="#DejaVuSans-75" transform="translate(552.294922 0)"/>
    <use xlink:href="#DejaVuSans-62" transform="translate(615.673828 0)"/>
    <use xlink:href="#DejaVuSans-2e" transform="translate(679.150391 0)"/>
    <use xlink:href="#DejaVuSans-63" transform="translate(710.9375 0)"/>
    <use xlink:href="#DejaVuSans-6f" transform="translate(765.917969 0)"/>
    <use xlink:href="#DejaVuSans-6d" transform="translate(827.099609 0)"/>
    <use xlink:href="#DejaVuSans-2f" transform="translate(924.511719 0)"/>
    <use xlink:href="#DejaVuSans-62" transform="translate(958.203125 0)"/>
    <use xlink:href="#DejaVuSans-69" transform="translate(1021.679688 0)"/>
    <use xlink:href="#DejaVuSans-6f" transform="translate(1049.462891 0)"/>
    <use xlink:href="#DejaVuSans-70" transform="translate(1110.644531 0)"/>
    <use xlink:href="#DejaVuSans-72" transform="translate(1174.121094 0)"/>
    <use xlink:href="#DejaVuSans-61" transform="translate(1215.234375 0)"/>
    <use xlink:href="#DejaVuSans-67" transform="translate(1276.513672 0)"/>
    <use xlink:href="#DejaVuSans-6d" transform="translate(1339.990234 0)"/>
    <use xlink:href="#DejaVuSans-61" transform="translate(1437.402344 0)"/>
    <use xlink:href="#DejaVuSans-74" transform="translate(1498.681641 0)"/>
    <use xlink:href="#DejaVuSans-69" transform="translate(1537.890625 0)"/>
    <use xlink:href="#DejaVuSans-63" transform="translate(1565.673828 0)"/>
    <use xlink:href="#DejaVuSans-73" transform="translate(1620.654297 0)"/>
    <use xlink:href="#DejaVuSans-2f" transform="translate(1672.753906 0)"/>
    <use xlink:href="#DejaVuSans-62" transform="translate(1706.445312 0)"/>
    <use xlink:href="#DejaVuSans-69" transform="translate(1769.921875 0)"/>
    <use xlink:href="#DejaVuSans-6f" transform="translate(1797.705078 0)"/>
    <use xlink:href="#DejaVuSans-72" transform="translate(1858.886719 0)"/>
    <use xlink:href="#DejaVuSans-65" transform="translate(1897.75 0)"/>
    <use xlink:href="#DejaVuSans-67" transform="translate(1959.273438 0)"/>
    <use xlink:href="#DejaVuSans-69" transform="translate(2022.75 0)"/>
    <use xlink:href="#DejaVuSans-73" transform="translate(2050.533203 0)"/>
    <use xlink:href="#DejaVuSans-74" transform="translate(2102.632812 0)"/>
    <use xlink:href="#DejaVuSans-72" transform="translate(2141.841797 0)"/>
    <use xlink:href="#DejaVuSans-79" transform="translate(2182.955078 0)"/>
    <use xlink:href="#DejaVuSans-20" transform="translate(2242.134766 0)"/>
    <use xlink:href="#DejaVuSans-28" transform="translate(2273.921875 0)"/>
    <use xlink:href="#DejaVuSans-32" transform="translate(2312.935547 0)"/>
    <use xlink:href="#DejaVuSans-30" transform="translate(2376.558594 0)"/>
    <use xlink:href="#DejaVuSans-32" transform="translate(2440.181641 0)"/>
    <use xlink:href="#DejaVuSans-35" transform="translate(2503.804688 0)"/>
    <use xlink:href="#DejaVuSans-2d" transform="translate(2567.427734 0)"/>
    <use xlink:href="#DejaVuSans-31" transform="translate(2603.511719 0)"/>
    <use xlink:href="#DejaVuSans-32" transform="translate(2667.134766 0)"/>
    <use xlink:href="#DejaVuSans-2d" transform="translate(2730.757812 0)"/>
    <use xlink:href="#DejaVuSans-32" transform="translate(2766.841797 0)"/>
    <use xlink:href="#DejaVuSans-30" transform="translate(2830.464844 0)"/>
    <use xlink:href="#DejaVuSans-29" transform="translate(2894.087891 0)"/>
   </g>
  </g>
 </g>
</svg>
