<?xml version="1.0" encoding="utf-8" standalone="no"?>
<!DOCTYPE svg PUBLIC "-//W3C//DTD SVG 1.1//EN"
  "http://www.w3.org/Graphics/SVG/1.1/DTD/svg11.dtd">
<svg xmlns:xlink="http://www.w3.org/1999/xlink" width="792pt" height="576pt" viewBox="0 0 792 576" xmlns="http://www.w3.org/2000/svg" version="1.1">
 <metadata>
  <rdf:RDF xmlns:dc="http://purl.org/dc/elements/1.1/" xmlns:cc="http://creativecommons.org/ns#" xmlns:rdf="http://www.w3.org/1999/02/22-rdf-syntax-ns#">
   <cc:Work>
    <dc:type rdf:resource="http://purl.org/dc/dcmitype/StillImage"/>
    <dc:date>2022-09-05T01:25:16.704885</dc:date>
    <dc:format>image/svg+xml</dc:format>
    <dc:creator>
     <cc:Agent>
      <dc:title>Matplotlib v3.5.3, https://matplotlib.org/</dc:title>
     </cc:Agent>
    </dc:creator>
   </cc:Work>
  </rdf:RDF>
 </metadata>
 <defs>
  <style type="text/css">*{stroke-linejoin: round; stroke-linecap: butt}</style>
 </defs>
 <g id="figure_1">
  <g id="patch_1">
   <path d="M 0 576 
L 792 576 
L 792 0 
L 0 0 
z
" style="fill: #ffffff"/>
  </g>
  <g id="axes_1">
   <g id="matplotlib.axis_1"/>
   <g id="matplotlib.axis_2"/>
   <g id="patch_2">
    <path d="M 129.620806 62.462589 
C 126.851836 57.666592 123.235242 53.412744 118.947195 49.908257 
C 114.659147 46.40377 109.770422 43.706487 104.519156 41.947796 
C 99.267891 40.189106 93.740759 39.398036 88.206998 39.613121 
C 82.673236 39.828206 77.224181 41.045895 72.125264 43.206874 
C 67.026348 45.367853 62.361729 48.436454 58.35863 52.263199 
C 54.355531 56.089944 51.080024 60.611673 48.691665 65.608123 
C 46.303305 70.604574 44.841514 75.993279 44.377497 81.511745 
C 43.91348 87.030211 44.454896 92.587355 45.975371 97.912477 
C 47.495847 103.2376 49.970287 108.24281 53.278156 112.684294 
C 56.586026 117.125778 60.672728 120.930228 65.339192 123.912323 
C 70.005656 126.894419 75.174861 129.004939 80.595006 130.141077 
C 86.01515 131.277215 91.596774 131.420219 97.067987 130.563122 
C 102.539199 129.706024 107.809696 127.862974 112.622742 125.123747 
C 117.435789 122.38452 121.711945 118.79433 125.24291 114.52806 
C 128.773876 110.261789 131.501372 105.389855 133.292538 100.149578 
C 135.083703 94.909301 135.908975 89.387173 135.728151 83.852186 
L 89.984555 85.346589 
L 129.620806 62.462589 
z
" style="fill: #1f77b4; stroke: #ffffff; stroke-linejoin: miter"/>
   </g>
   <g id="patch_3">
    <path d="M 140.12907 82.595597 
C 140.006639 78.848002 139.424133 75.129615 138.394659 71.524115 
C 137.365185 67.918614 135.896524 64.453249 134.021728 61.206006 
L 94.385474 84.09 
L 140.12907 82.595597 
z
" style="fill: #ff7f0e; stroke: #ffffff; stroke-linejoin: miter"/>
   </g>
   <g id="text_1">
    <!-- Yes -->
    <g style="fill: #262626" transform="translate(25.429141 101.928441)scale(0.1 -0.1)">
     <defs>
      <path id="DejaVuSans-59" d="M -13 4666 
L 666 4666 
L 1959 2747 
L 3244 4666 
L 3922 4666 
L 2272 2222 
L 2272 0 
L 1638 0 
L 1638 2222 
L -13 4666 
z
" transform="scale(0.015625)"/>
      <path id="DejaVuSans-65" d="M 3597 1894 
L 3597 1613 
L 953 1613 
Q 991 1019 1311 708 
Q 1631 397 2203 397 
Q 2534 397 2845 478 
Q 3156 559 3463 722 
L 3463 178 
Q 3153 47 2828 -22 
Q 2503 -91 2169 -91 
Q 1331 -91 842 396 
Q 353 884 353 1716 
Q 353 2575 817 3079 
Q 1281 3584 2069 3584 
Q 2775 3584 3186 3129 
Q 3597 2675 3597 1894 
z
M 3022 2063 
Q 3016 2534 2758 2815 
Q 2500 3097 2075 3097 
Q 1594 3097 1305 2825 
Q 1016 2553 972 2059 
L 3022 2063 
z
" transform="scale(0.015625)"/>
      <path id="DejaVuSans-73" d="M 2834 3397 
L 2834 2853 
Q 2591 2978 2328 3040 
Q 2066 3103 1784 3103 
Q 1356 3103 1142 2972 
Q 928 2841 928 2578 
Q 928 2378 1081 2264 
Q 1234 2150 1697 2047 
L 1894 2003 
Q 2506 1872 2764 1633 
Q 3022 1394 3022 966 
Q 3022 478 2636 193 
Q 2250 -91 1575 -91 
Q 1294 -91 989 -36 
Q 684 19 347 128 
L 347 722 
Q 666 556 975 473 
Q 1284 391 1588 391 
Q 1994 391 2212 530 
Q 2431 669 2431 922 
Q 2431 1156 2273 1281 
Q 2116 1406 1581 1522 
L 1381 1569 
Q 847 1681 609 1914 
Q 372 2147 372 2553 
Q 372 3047 722 3315 
Q 1072 3584 1716 3584 
Q 2034 3584 2315 3537 
Q 2597 3491 2834 3397 
z
" transform="scale(0.015625)"/>
     </defs>
     <use xlink:href="#DejaVuSans-59"/>
     <use xlink:href="#DejaVuSans-65" x="47.833984"/>
     <use xlink:href="#DejaVuSans-73" x="109.357422"/>
    </g>
   </g>
   <g id="text_2">
    <!-- 92% -->
    <g style="fill: #262626" transform="translate(52.465764 95.645497)scale(0.1 -0.1)">
     <defs>
      <path id="DejaVuSans-39" d="M 703 97 
L 703 672 
Q 941 559 1184 500 
Q 1428 441 1663 441 
Q 2288 441 2617 861 
Q 2947 1281 2994 2138 
Q 2813 1869 2534 1725 
Q 2256 1581 1919 1581 
Q 1219 1581 811 2004 
Q 403 2428 403 3163 
Q 403 3881 828 4315 
Q 1253 4750 1959 4750 
Q 2769 4750 3195 4129 
Q 3622 3509 3622 2328 
Q 3622 1225 3098 567 
Q 2575 -91 1691 -91 
Q 1453 -91 1209 -44 
Q 966 3 703 97 
z
M 1959 2075 
Q 2384 2075 2632 2365 
Q 2881 2656 2881 3163 
Q 2881 3666 2632 3958 
Q 2384 4250 1959 4250 
Q 1534 4250 1286 3958 
Q 1038 3666 1038 3163 
Q 1038 2656 1286 2365 
Q 1534 2075 1959 2075 
z
" transform="scale(0.015625)"/>
      <path id="DejaVuSans-32" d="M 1228 531 
L 3431 531 
L 3431 0 
L 469 0 
L 469 531 
Q 828 903 1448 1529 
Q 2069 2156 2228 2338 
Q 2531 2678 2651 2914 
Q 2772 3150 2772 3378 
Q 2772 3750 2511 3984 
Q 2250 4219 1831 4219 
Q 1534 4219 1204 4116 
Q 875 4013 500 3803 
L 500 4441 
Q 881 4594 1212 4672 
Q 1544 4750 1819 4750 
Q 2544 4750 2975 4387 
Q 3406 4025 3406 3419 
Q 3406 3131 3298 2873 
Q 3191 2616 2906 2266 
Q 2828 2175 2409 1742 
Q 1991 1309 1228 531 
z
" transform="scale(0.015625)"/>
      <path id="DejaVuSans-25" d="M 4653 2053 
Q 4381 2053 4226 1822 
Q 4072 1591 4072 1178 
Q 4072 772 4226 539 
Q 4381 306 4653 306 
Q 4919 306 5073 539 
Q 5228 772 5228 1178 
Q 5228 1588 5073 1820 
Q 4919 2053 4653 2053 
z
M 4653 2450 
Q 5147 2450 5437 2106 
Q 5728 1763 5728 1178 
Q 5728 594 5436 251 
Q 5144 -91 4653 -91 
Q 4153 -91 3862 251 
Q 3572 594 3572 1178 
Q 3572 1766 3864 2108 
Q 4156 2450 4653 2450 
z
M 1428 4353 
Q 1159 4353 1004 4120 
Q 850 3888 850 3481 
Q 850 3069 1003 2837 
Q 1156 2606 1428 2606 
Q 1700 2606 1854 2837 
Q 2009 3069 2009 3481 
Q 2009 3884 1853 4118 
Q 1697 4353 1428 4353 
z
M 4250 4750 
L 4750 4750 
L 1831 -91 
L 1331 -91 
L 4250 4750 
z
M 1428 4750 
Q 1922 4750 2215 4408 
Q 2509 4066 2509 3481 
Q 2509 2891 2217 2550 
Q 1925 2209 1428 2209 
Q 931 2209 642 2551 
Q 353 2894 353 3481 
Q 353 4063 643 4406 
Q 934 4750 1428 4750 
z
" transform="scale(0.015625)"/>
     </defs>
     <use xlink:href="#DejaVuSans-39"/>
     <use xlink:href="#DejaVuSans-32" x="63.623047"/>
     <use xlink:href="#DejaVuSans-25" x="127.246094"/>
    </g>
   </g>
   <g id="text_3">
    <!-- No -->
    <g style="fill: #262626" transform="translate(142.795577 73.026901)scale(0.1 -0.1)">
     <defs>
      <path id="DejaVuSans-4e" d="M 628 4666 
L 1478 4666 
L 3547 763 
L 3547 4666 
L 4159 4666 
L 4159 0 
L 3309 0 
L 1241 3903 
L 1241 0 
L 628 0 
L 628 4666 
z
" transform="scale(0.015625)"/>
      <path id="DejaVuSans-6f" d="M 1959 3097 
Q 1497 3097 1228 2736 
Q 959 2375 959 1747 
Q 959 1119 1226 758 
Q 1494 397 1959 397 
Q 2419 397 2687 759 
Q 2956 1122 2956 1747 
Q 2956 2369 2687 2733 
Q 2419 3097 1959 3097 
z
M 1959 3584 
Q 2709 3584 3137 3096 
Q 3566 2609 3566 1747 
Q 3566 888 3137 398 
Q 2709 -91 1959 -91 
Q 1206 -91 779 398 
Q 353 888 353 1747 
Q 353 2609 779 3096 
Q 1206 3584 1959 3584 
z
" transform="scale(0.015625)"/>
     </defs>
     <use xlink:href="#DejaVuSans-4e"/>
     <use xlink:href="#DejaVuSans-6f" x="74.804688"/>
    </g>
   </g>
   <g id="text_4">
    <!-- 8% -->
    <g style="fill: #262626" transform="translate(112.858953 79.309844)scale(0.1 -0.1)">
     <defs>
      <path id="DejaVuSans-38" d="M 2034 2216 
Q 1584 2216 1326 1975 
Q 1069 1734 1069 1313 
Q 1069 891 1326 650 
Q 1584 409 2034 409 
Q 2484 409 2743 651 
Q 3003 894 3003 1313 
Q 3003 1734 2745 1975 
Q 2488 2216 2034 2216 
z
M 1403 2484 
Q 997 2584 770 2862 
Q 544 3141 544 3541 
Q 544 4100 942 4425 
Q 1341 4750 2034 4750 
Q 2731 4750 3128 4425 
Q 3525 4100 3525 3541 
Q 3525 3141 3298 2862 
Q 3072 2584 2669 2484 
Q 3125 2378 3379 2068 
Q 3634 1759 3634 1313 
Q 3634 634 3220 271 
Q 2806 -91 2034 -91 
Q 1263 -91 848 271 
Q 434 634 434 1313 
Q 434 1759 690 2068 
Q 947 2378 1403 2484 
z
M 1172 3481 
Q 1172 3119 1398 2916 
Q 1625 2713 2034 2713 
Q 2441 2713 2670 2916 
Q 2900 3119 2900 3481 
Q 2900 3844 2670 4047 
Q 2441 4250 2034 4250 
Q 1625 4250 1398 4047 
Q 1172 3844 1172 3481 
z
" transform="scale(0.015625)"/>
     </defs>
     <use xlink:href="#DejaVuSans-38"/>
     <use xlink:href="#DejaVuSans-25" x="63.623047"/>
    </g>
   </g>
   <g id="text_5">
    <!-- Name -->
    <g style="fill: #262626" transform="translate(76.683599 20.88)scale(0.12 -0.12)">
     <defs>
      <path id="DejaVuSans-61" d="M 2194 1759 
Q 1497 1759 1228 1600 
Q 959 1441 959 1056 
Q 959 750 1161 570 
Q 1363 391 1709 391 
Q 2188 391 2477 730 
Q 2766 1069 2766 1631 
L 2766 1759 
L 2194 1759 
z
M 3341 1997 
L 3341 0 
L 2766 0 
L 2766 531 
Q 2569 213 2275 61 
Q 1981 -91 1556 -91 
Q 1019 -91 701 211 
Q 384 513 384 1019 
Q 384 1609 779 1909 
Q 1175 2209 1959 2209 
L 2766 2209 
L 2766 2266 
Q 2766 2663 2505 2880 
Q 2244 3097 1772 3097 
Q 1472 3097 1187 3025 
Q 903 2953 641 2809 
L 641 3341 
Q 956 3463 1253 3523 
Q 1550 3584 1831 3584 
Q 2591 3584 2966 3190 
Q 3341 2797 3341 1997 
z
" transform="scale(0.015625)"/>
      <path id="DejaVuSans-6d" d="M 3328 2828 
Q 3544 3216 3844 3400 
Q 4144 3584 4550 3584 
Q 5097 3584 5394 3201 
Q 5691 2819 5691 2113 
L 5691 0 
L 5113 0 
L 5113 2094 
Q 5113 2597 4934 2840 
Q 4756 3084 4391 3084 
Q 3944 3084 3684 2787 
Q 3425 2491 3425 1978 
L 3425 0 
L 2847 0 
L 2847 2094 
Q 2847 2600 2669 2842 
Q 2491 3084 2119 3084 
Q 1678 3084 1418 2786 
Q 1159 2488 1159 1978 
L 1159 0 
L 581 0 
L 581 3500 
L 1159 3500 
L 1159 2956 
Q 1356 3278 1631 3431 
Q 1906 3584 2284 3584 
Q 2666 3584 2933 3390 
Q 3200 3197 3328 2828 
z
" transform="scale(0.015625)"/>
     </defs>
     <use xlink:href="#DejaVuSans-4e"/>
     <use xlink:href="#DejaVuSans-61" x="74.804688"/>
     <use xlink:href="#DejaVuSans-6d" x="136.083984"/>
     <use xlink:href="#DejaVuSans-65" x="233.496094"/>
    </g>
   </g>
  </g>
  <g id="axes_2">
   <g id="matplotlib.axis_3"/>
   <g id="matplotlib.axis_4"/>
   <g id="patch_4">
    <path d="M 307.591754 62.462589 
C 304.822784 57.666592 301.206189 53.412744 296.918142 49.908257 
C 292.630095 46.40377 287.741369 43.706487 282.490104 41.947796 
C 277.238839 40.189106 271.711707 39.398036 266.177945 39.613121 
C 260.644184 39.828206 255.195128 41.045895 250.096212 43.206874 
C 244.997295 45.367853 240.332676 48.436454 236.329578 52.263199 
C 232.326479 56.089944 229.050972 60.611673 226.662612 65.608123 
C 224.274253 70.604574 222.812461 75.993279 222.348444 81.511745 
C 221.884427 87.030211 222.425843 92.587355 223.946319 97.912477 
C 225.466795 103.2376 227.941234 108.24281 231.249104 112.684294 
C 234.556973 117.125778 238.643675 120.930228 243.310139 123.912323 
C 247.976603 126.894419 253.145808 129.004939 258.565953 130.141077 
C 263.986098 131.277215 269.567722 131.420219 275.038934 130.563122 
C 280.510146 129.706024 285.780643 127.862974 290.59369 125.123747 
C 295.406737 122.38452 299.682892 118.79433 303.213858 114.52806 
C 306.744823 110.261789 309.472319 105.389855 311.263485 100.149578 
C 313.054651 94.909301 313.879922 89.387173 313.699099 83.852186 
L 267.955503 85.346589 
L 307.591754 62.462589 
z
" style="fill: #1f77b4; stroke: #ffffff; stroke-linejoin: miter"/>
   </g>
   <g id="patch_5">
    <path d="M 318.100017 82.595597 
C 317.977587 78.848002 317.39508 75.129615 316.365606 71.524115 
C 315.336132 67.918614 313.867472 64.453249 311.992675 61.206006 
L 272.356421 84.09 
L 318.100017 82.595597 
z
" style="fill: #ff7f0e; stroke: #ffffff; stroke-linejoin: miter"/>
   </g>
   <g id="text_6">
    <!-- Yes -->
    <g style="fill: #262626" transform="translate(203.400088 101.928441)scale(0.1 -0.1)">
     <use xlink:href="#DejaVuSans-59"/>
     <use xlink:href="#DejaVuSans-65" x="47.833984"/>
     <use xlink:href="#DejaVuSans-73" x="109.357422"/>
    </g>
   </g>
   <g id="text_7">
    <!-- 92% -->
    <g style="fill: #262626" transform="translate(230.436711 95.645497)scale(0.1 -0.1)">
     <use xlink:href="#DejaVuSans-39"/>
     <use xlink:href="#DejaVuSans-32" x="63.623047"/>
     <use xlink:href="#DejaVuSans-25" x="127.246094"/>
    </g>
   </g>
   <g id="text_8">
    <!-- No -->
    <g style="fill: #262626" transform="translate(320.766525 73.026901)scale(0.1 -0.1)">
     <use xlink:href="#DejaVuSans-4e"/>
     <use xlink:href="#DejaVuSans-6f" x="74.804688"/>
    </g>
   </g>
   <g id="text_9">
    <!-- 8% -->
    <g style="fill: #262626" transform="translate(290.829901 79.309844)scale(0.1 -0.1)">
     <use xlink:href="#DejaVuSans-38"/>
     <use xlink:href="#DejaVuSans-25" x="63.623047"/>
    </g>
   </g>
   <g id="text_10">
    <!-- Homepage -->
    <g style="fill: #262626" transform="translate(239.649859 20.88)scale(0.12 -0.12)">
     <defs>
      <path id="DejaVuSans-48" d="M 628 4666 
L 1259 4666 
L 1259 2753 
L 3553 2753 
L 3553 4666 
L 4184 4666 
L 4184 0 
L 3553 0 
L 3553 2222 
L 1259 2222 
L 1259 0 
L 628 0 
L 628 4666 
z
" transform="scale(0.015625)"/>
      <path id="DejaVuSans-70" d="M 1159 525 
L 1159 -1331 
L 581 -1331 
L 581 3500 
L 1159 3500 
L 1159 2969 
Q 1341 3281 1617 3432 
Q 1894 3584 2278 3584 
Q 2916 3584 3314 3078 
Q 3713 2572 3713 1747 
Q 3713 922 3314 415 
Q 2916 -91 2278 -91 
Q 1894 -91 1617 61 
Q 1341 213 1159 525 
z
M 3116 1747 
Q 3116 2381 2855 2742 
Q 2594 3103 2138 3103 
Q 1681 3103 1420 2742 
Q 1159 2381 1159 1747 
Q 1159 1113 1420 752 
Q 1681 391 2138 391 
Q 2594 391 2855 752 
Q 3116 1113 3116 1747 
z
" transform="scale(0.015625)"/>
      <path id="DejaVuSans-67" d="M 2906 1791 
Q 2906 2416 2648 2759 
Q 2391 3103 1925 3103 
Q 1463 3103 1205 2759 
Q 947 2416 947 1791 
Q 947 1169 1205 825 
Q 1463 481 1925 481 
Q 2391 481 2648 825 
Q 2906 1169 2906 1791 
z
M 3481 434 
Q 3481 -459 3084 -895 
Q 2688 -1331 1869 -1331 
Q 1566 -1331 1297 -1286 
Q 1028 -1241 775 -1147 
L 775 -588 
Q 1028 -725 1275 -790 
Q 1522 -856 1778 -856 
Q 2344 -856 2625 -561 
Q 2906 -266 2906 331 
L 2906 616 
Q 2728 306 2450 153 
Q 2172 0 1784 0 
Q 1141 0 747 490 
Q 353 981 353 1791 
Q 353 2603 747 3093 
Q 1141 3584 1784 3584 
Q 2172 3584 2450 3431 
Q 2728 3278 2906 2969 
L 2906 3500 
L 3481 3500 
L 3481 434 
z
" transform="scale(0.015625)"/>
     </defs>
     <use xlink:href="#DejaVuSans-48"/>
     <use xlink:href="#DejaVuSans-6f" x="75.195312"/>
     <use xlink:href="#DejaVuSans-6d" x="136.376953"/>
     <use xlink:href="#DejaVuSans-65" x="233.789062"/>
     <use xlink:href="#DejaVuSans-70" x="295.3125"/>
     <use xlink:href="#DejaVuSans-61" x="358.789062"/>
     <use xlink:href="#DejaVuSans-67" x="420.068359"/>
     <use xlink:href="#DejaVuSans-65" x="483.544922"/>
    </g>
   </g>
  </g>
  <g id="axes_3">
   <g id="matplotlib.axis_5"/>
   <g id="matplotlib.axis_6"/>
   <g id="patch_6">
    <path d="M 485.562701 62.462589 
C 482.793731 57.666592 479.177137 53.412744 474.88909 49.908257 
C 470.601042 46.40377 465.712317 43.706487 460.461051 41.947796 
C 455.209786 40.189106 449.682654 39.398036 444.148893 39.613121 
C 438.615131 39.828206 433.166076 41.045895 428.067159 43.206874 
C 422.968243 45.367853 418.303624 48.436454 414.300525 52.263199 
C 410.297426 56.089944 407.021919 60.611673 404.63356 65.608123 
C 402.2452 70.604574 400.783409 75.993279 400.319392 81.511745 
C 399.855375 87.030211 400.396791 92.587355 401.917266 97.912477 
C 403.437742 103.2376 405.912182 108.24281 409.220051 112.684294 
C 412.527921 117.125778 416.614623 120.930228 421.281087 123.912323 
C 425.947551 126.894419 431.116756 129.004939 436.536901 130.141077 
C 441.957045 131.277215 447.538669 131.420219 453.009882 130.563122 
C 458.481094 129.706024 463.751591 127.862974 468.564637 125.123747 
C 473.377684 122.38452 477.65384 118.79433 481.184805 114.52806 
C 484.715771 110.261789 487.443267 105.389855 489.234433 100.149578 
C 491.025598 94.909301 491.85087 89.387173 491.670046 83.852186 
L 445.92645 85.346589 
L 485.562701 62.462589 
z
" style="fill: #1f77b4; stroke: #ffffff; stroke-linejoin: miter"/>
   </g>
   <g id="patch_7">
    <path d="M 496.070965 82.595597 
C 495.948534 78.848002 495.366027 75.129615 494.336553 71.524115 
C 493.30708 67.918614 491.838419 64.453249 489.963623 61.206006 
L 450.327369 84.09 
L 496.070965 82.595597 
z
" style="fill: #ff7f0e; stroke: #ffffff; stroke-linejoin: miter"/>
   </g>
   <g id="text_11">
    <!-- Yes -->
    <g style="fill: #262626" transform="translate(381.371035 101.928441)scale(0.1 -0.1)">
     <use xlink:href="#DejaVuSans-59"/>
     <use xlink:href="#DejaVuSans-65" x="47.833984"/>
     <use xlink:href="#DejaVuSans-73" x="109.357422"/>
    </g>
   </g>
   <g id="text_12">
    <!-- 92% -->
    <g style="fill: #262626" transform="translate(408.407659 95.645497)scale(0.1 -0.1)">
     <use xlink:href="#DejaVuSans-39"/>
     <use xlink:href="#DejaVuSans-32" x="63.623047"/>
     <use xlink:href="#DejaVuSans-25" x="127.246094"/>
    </g>
   </g>
   <g id="text_13">
    <!-- No -->
    <g style="fill: #262626" transform="translate(498.737472 73.026901)scale(0.1 -0.1)">
     <use xlink:href="#DejaVuSans-4e"/>
     <use xlink:href="#DejaVuSans-6f" x="74.804688"/>
    </g>
   </g>
   <g id="text_14">
    <!-- 8% -->
    <g style="fill: #262626" transform="translate(468.800848 79.309844)scale(0.1 -0.1)">
     <use xlink:href="#DejaVuSans-38"/>
     <use xlink:href="#DejaVuSans-25" x="63.623047"/>
    </g>
   </g>
   <g id="text_15">
    <!-- Description -->
    <g style="fill: #262626" transform="translate(416.155494 20.88)scale(0.12 -0.12)">
     <defs>
      <path id="DejaVuSans-44" d="M 1259 4147 
L 1259 519 
L 2022 519 
Q 2988 519 3436 956 
Q 3884 1394 3884 2338 
Q 3884 3275 3436 3711 
Q 2988 4147 2022 4147 
L 1259 4147 
z
M 628 4666 
L 1925 4666 
Q 3281 4666 3915 4102 
Q 4550 3538 4550 2338 
Q 4550 1131 3912 565 
Q 3275 0 1925 0 
L 628 0 
L 628 4666 
z
" transform="scale(0.015625)"/>
      <path id="DejaVuSans-63" d="M 3122 3366 
L 3122 2828 
Q 2878 2963 2633 3030 
Q 2388 3097 2138 3097 
Q 1578 3097 1268 2742 
Q 959 2388 959 1747 
Q 959 1106 1268 751 
Q 1578 397 2138 397 
Q 2388 397 2633 464 
Q 2878 531 3122 666 
L 3122 134 
Q 2881 22 2623 -34 
Q 2366 -91 2075 -91 
Q 1284 -91 818 406 
Q 353 903 353 1747 
Q 353 2603 823 3093 
Q 1294 3584 2113 3584 
Q 2378 3584 2631 3529 
Q 2884 3475 3122 3366 
z
" transform="scale(0.015625)"/>
      <path id="DejaVuSans-72" d="M 2631 2963 
Q 2534 3019 2420 3045 
Q 2306 3072 2169 3072 
Q 1681 3072 1420 2755 
Q 1159 2438 1159 1844 
L 1159 0 
L 581 0 
L 581 3500 
L 1159 3500 
L 1159 2956 
Q 1341 3275 1631 3429 
Q 1922 3584 2338 3584 
Q 2397 3584 2469 3576 
Q 2541 3569 2628 3553 
L 2631 2963 
z
" transform="scale(0.015625)"/>
      <path id="DejaVuSans-69" d="M 603 3500 
L 1178 3500 
L 1178 0 
L 603 0 
L 603 3500 
z
M 603 4863 
L 1178 4863 
L 1178 4134 
L 603 4134 
L 603 4863 
z
" transform="scale(0.015625)"/>
      <path id="DejaVuSans-74" d="M 1172 4494 
L 1172 3500 
L 2356 3500 
L 2356 3053 
L 1172 3053 
L 1172 1153 
Q 1172 725 1289 603 
Q 1406 481 1766 481 
L 2356 481 
L 2356 0 
L 1766 0 
Q 1100 0 847 248 
Q 594 497 594 1153 
L 594 3053 
L 172 3053 
L 172 3500 
L 594 3500 
L 594 4494 
L 1172 4494 
z
" transform="scale(0.015625)"/>
      <path id="DejaVuSans-6e" d="M 3513 2113 
L 3513 0 
L 2938 0 
L 2938 2094 
Q 2938 2591 2744 2837 
Q 2550 3084 2163 3084 
Q 1697 3084 1428 2787 
Q 1159 2491 1159 1978 
L 1159 0 
L 581 0 
L 581 3500 
L 1159 3500 
L 1159 2956 
Q 1366 3272 1645 3428 
Q 1925 3584 2291 3584 
Q 2894 3584 3203 3211 
Q 3513 2838 3513 2113 
z
" transform="scale(0.015625)"/>
     </defs>
     <use xlink:href="#DejaVuSans-44"/>
     <use xlink:href="#DejaVuSans-65" x="77.001953"/>
     <use xlink:href="#DejaVuSans-73" x="138.525391"/>
     <use xlink:href="#DejaVuSans-63" x="190.625"/>
     <use xlink:href="#DejaVuSans-72" x="245.605469"/>
     <use xlink:href="#DejaVuSans-69" x="286.71875"/>
     <use xlink:href="#DejaVuSans-70" x="314.501953"/>
     <use xlink:href="#DejaVuSans-74" x="377.978516"/>
     <use xlink:href="#DejaVuSans-69" x="417.1875"/>
     <use xlink:href="#DejaVuSans-6f" x="444.970703"/>
     <use xlink:href="#DejaVuSans-6e" x="506.152344"/>
    </g>
   </g>
  </g>
  <g id="axes_4">
   <g id="matplotlib.axis_7"/>
   <g id="matplotlib.axis_8"/>
   <g id="patch_8">
    <path d="M 663.483631 62.271957 
C 660.756053 57.547654 657.20567 53.348835 653.000367 49.874047 
C 648.795064 46.39926 644.002186 43.70415 638.848371 41.91616 
C 633.694556 40.128169 628.262338 39.275932 622.808588 39.399747 
C 617.354838 39.523562 611.966893 40.621447 606.899531 42.641486 
C 601.832168 44.661526 597.166538 47.571369 593.123261 51.233423 
C 589.079984 54.895476 585.723811 59.251092 583.213442 64.094311 
C 580.703073 68.937531 579.078711 74.190791 578.417166 79.605685 
C 577.755621 85.02058 578.067487 90.510391 579.338017 95.815528 
C 580.608547 101.120665 582.817394 106.156168 585.860111 110.683926 
C 588.902827 115.211685 592.730685 119.15919 597.16268 122.339779 
C 601.594675 125.520368 606.55983 127.883105 611.823363 129.316265 
C 617.086895 130.749426 622.564512 131.230058 627.997198 130.735435 
C 633.429883 130.240812 638.730635 128.778855 643.648802 126.418695 
C 648.566969 124.058534 653.023788 120.837966 656.808513 116.90928 
C 660.593239 112.980593 663.64526 108.406705 665.820259 103.403895 
C 667.995258 98.401085 669.258402 93.049473 669.549963 87.602114 
L 623.84738 85.155957 
L 663.483631 62.271957 
z
" style="fill: #1f77b4; stroke: #ffffff; stroke-linejoin: miter"/>
   </g>
   <g id="patch_9">
    <path d="M 674.0009 86.536157 
C 674.236575 82.13294 673.834676 77.718684 672.807679 73.430428 
C 671.780682 69.142172 670.139326 65.024754 667.934566 61.205998 
L 628.298316 84.09 
L 674.0009 86.536157 
z
" style="fill: #ff7f0e; stroke: #ffffff; stroke-linejoin: miter"/>
   </g>
   <g id="text_16">
    <!-- Yes -->
    <g style="fill: #262626" transform="translate(558.741768 99.64086)scale(0.1 -0.1)">
     <use xlink:href="#DejaVuSans-59"/>
     <use xlink:href="#DejaVuSans-65" x="47.833984"/>
     <use xlink:href="#DejaVuSans-73" x="109.357422"/>
    </g>
   </g>
   <g id="text_17">
    <!-- 91% -->
    <g style="fill: #262626" transform="translate(586.028481 94.311075)scale(0.1 -0.1)">
     <defs>
      <path id="DejaVuSans-31" d="M 794 531 
L 1825 531 
L 1825 4091 
L 703 3866 
L 703 4441 
L 1819 4666 
L 2450 4666 
L 2450 531 
L 3481 531 
L 3481 0 
L 794 0 
L 794 531 
z
" transform="scale(0.015625)"/>
     </defs>
     <use xlink:href="#DejaVuSans-39"/>
     <use xlink:href="#DejaVuSans-31" x="63.623047"/>
     <use xlink:href="#DejaVuSans-25" x="127.246094"/>
    </g>
   </g>
   <g id="text_18">
    <!-- No -->
    <g style="fill: #262626" transform="translate(677.258615 75.123846)scale(0.1 -0.1)">
     <use xlink:href="#DejaVuSans-4e"/>
     <use xlink:href="#DejaVuSans-6f" x="74.804688"/>
    </g>
   </g>
   <g id="text_19">
    <!-- 9% -->
    <g style="fill: #262626" transform="translate(647.071902 80.453632)scale(0.1 -0.1)">
     <use xlink:href="#DejaVuSans-39"/>
     <use xlink:href="#DejaVuSans-25" x="63.623047"/>
    </g>
   </g>
   <g id="text_20">
    <!-- Example -->
    <g style="fill: #262626" transform="translate(602.266754 20.88)scale(0.12 -0.12)">
     <defs>
      <path id="DejaVuSans-45" d="M 628 4666 
L 3578 4666 
L 3578 4134 
L 1259 4134 
L 1259 2753 
L 3481 2753 
L 3481 2222 
L 1259 2222 
L 1259 531 
L 3634 531 
L 3634 0 
L 628 0 
L 628 4666 
z
" transform="scale(0.015625)"/>
      <path id="DejaVuSans-78" d="M 3513 3500 
L 2247 1797 
L 3578 0 
L 2900 0 
L 1881 1375 
L 863 0 
L 184 0 
L 1544 1831 
L 300 3500 
L 978 3500 
L 1906 2253 
L 2834 3500 
L 3513 3500 
z
" transform="scale(0.015625)"/>
      <path id="DejaVuSans-6c" d="M 603 4863 
L 1178 4863 
L 1178 0 
L 603 0 
L 603 4863 
z
" transform="scale(0.015625)"/>
     </defs>
     <use xlink:href="#DejaVuSans-45"/>
     <use xlink:href="#DejaVuSans-78" x="63.183594"/>
     <use xlink:href="#DejaVuSans-61" x="122.363281"/>
     <use xlink:href="#DejaVuSans-6d" x="183.642578"/>
     <use xlink:href="#DejaVuSans-70" x="281.054688"/>
     <use xlink:href="#DejaVuSans-6c" x="344.53125"/>
     <use xlink:href="#DejaVuSans-65" x="372.314453"/>
    </g>
   </g>
  </g>
  <g id="axes_5">
   <g id="matplotlib.axis_9"/>
   <g id="matplotlib.axis_10"/>
   <g id="patch_10">
    <path d="M 129.485431 201.898431 
C 127.111373 197.786443 124.111825 194.068825 120.594598 190.879199 
C 117.077371 187.689574 113.085117 185.06662 108.76133 183.104614 
C 104.437543 181.142609 99.834656 179.865344 95.118109 179.318729 
C 90.401563 178.772114 85.628553 178.962777 80.970636 179.883865 
C 76.312718 180.804953 71.826378 182.445296 67.672867 184.745936 
C 63.519356 187.046576 59.749042 189.979614 56.497442 193.439627 
C 53.245842 196.89964 50.552385 200.844672 48.513884 205.132924 
C 46.475383 209.421177 45.116557 214.00065 44.486246 218.706742 
C 43.855935 223.412834 43.961783 228.188478 44.799985 232.862022 
C 45.638187 237.535566 47.198578 242.050337 49.425075 246.24406 
C 51.651571 250.437783 54.517172 254.259603 57.91888 257.572152 
C 61.320588 260.8847 65.217152 263.647809 69.468517 265.762163 
C 73.719882 267.876516 78.274495 269.316475 82.968648 270.030283 
C 87.662802 270.744091 92.439572 270.723092 97.127268 269.96804 
C 101.814964 269.212989 106.356741 267.733041 110.589352 265.581391 
C 114.821963 263.429741 118.694083 260.63248 122.066535 257.290151 
L 89.84918 224.782431 
L 129.485431 201.898431 
z
" style="fill: #1f77b4; stroke: #ffffff; stroke-linejoin: miter"/>
   </g>
   <g id="patch_11">
    <path d="M 126.602829 257.89772 
C 133.782526 250.782153 138.406522 241.48461 139.748408 231.465693 
C 141.090293 221.446777 139.075917 211.260122 134.021729 202.506007 
L 94.385474 225.39 
L 126.602829 257.89772 
z
" style="fill: #ff7f0e; stroke: #ffffff; stroke-linejoin: miter"/>
   </g>
   <g id="text_21">
    <!-- Yes -->
    <g style="fill: #262626" transform="translate(23.80464 220.858548)scale(0.1 -0.1)">
     <use xlink:href="#DejaVuSans-59"/>
     <use xlink:href="#DejaVuSans-65" x="47.833984"/>
     <use xlink:href="#DejaVuSans-73" x="109.357422"/>
    </g>
   </g>
   <g id="text_22">
    <!-- 79% -->
    <g style="fill: #262626" transform="translate(51.518138 223.896393)scale(0.1 -0.1)">
     <defs>
      <path id="DejaVuSans-37" d="M 525 4666 
L 3525 4666 
L 3525 4397 
L 1831 0 
L 1172 0 
L 2766 4134 
L 525 4134 
L 525 4666 
z
" transform="scale(0.015625)"/>
     </defs>
     <use xlink:href="#DejaVuSans-37"/>
     <use xlink:href="#DejaVuSans-39" x="63.623047"/>
     <use xlink:href="#DejaVuSans-25" x="127.246094"/>
    </g>
   </g>
   <g id="text_23">
    <!-- No -->
    <g style="fill: #262626" transform="translate(144.284701 234.832638)scale(0.1 -0.1)">
     <use xlink:href="#DejaVuSans-4e"/>
     <use xlink:href="#DejaVuSans-6f" x="74.804688"/>
    </g>
   </g>
   <g id="text_24">
    <!-- 21% -->
    <g style="fill: #262626" transform="translate(110.489953 231.794791)scale(0.1 -0.1)">
     <use xlink:href="#DejaVuSans-32"/>
     <use xlink:href="#DejaVuSans-31" x="63.623047"/>
     <use xlink:href="#DejaVuSans-25" x="127.246094"/>
    </g>
   </g>
   <g id="text_25">
    <!-- Pattern -->
    <g style="fill: #262626" transform="translate(72.800474 162.18)scale(0.12 -0.12)">
     <defs>
      <path id="DejaVuSans-50" d="M 1259 4147 
L 1259 2394 
L 2053 2394 
Q 2494 2394 2734 2622 
Q 2975 2850 2975 3272 
Q 2975 3691 2734 3919 
Q 2494 4147 2053 4147 
L 1259 4147 
z
M 628 4666 
L 2053 4666 
Q 2838 4666 3239 4311 
Q 3641 3956 3641 3272 
Q 3641 2581 3239 2228 
Q 2838 1875 2053 1875 
L 1259 1875 
L 1259 0 
L 628 0 
L 628 4666 
z
" transform="scale(0.015625)"/>
     </defs>
     <use xlink:href="#DejaVuSans-50"/>
     <use xlink:href="#DejaVuSans-61" x="55.802734"/>
     <use xlink:href="#DejaVuSans-74" x="117.082031"/>
     <use xlink:href="#DejaVuSans-74" x="156.291016"/>
     <use xlink:href="#DejaVuSans-65" x="195.5"/>
     <use xlink:href="#DejaVuSans-72" x="257.023438"/>
     <use xlink:href="#DejaVuSans-6e" x="296.386719"/>
    </g>
   </g>
  </g>
  <g id="axes_6">
   <g id="matplotlib.axis_11"/>
   <g id="matplotlib.axis_12"/>
   <g id="patch_12">
    <path d="M 307.471019 203.214343 
C 304.819991 198.622629 301.391114 194.52631 297.337669 191.108507 
C 293.284225 187.690704 288.667528 185.003115 283.693959 183.165886 
C 278.720391 181.328657 273.465185 180.369577 268.163267 180.331522 
C 262.861348 180.293467 257.592916 181.177011 252.593488 182.942657 
C 247.59406 184.708304 242.939259 187.329345 238.837171 190.68861 
C 234.735083 194.047876 231.247758 198.094552 228.531091 202.647739 
C 225.814425 207.200926 223.90951 212.19175 222.901503 217.397105 
C 221.893497 222.602459 221.797646 227.943605 222.618235 233.181774 
C 223.438825 238.419944 225.163442 243.475903 227.714991 248.123632 
C 230.266541 252.771362 233.606425 256.940557 237.585342 260.444843 
C 241.564258 263.949128 246.122019 266.735495 251.054876 268.679384 
C 255.987734 270.623273 261.221072 271.69528 266.520943 271.847482 
C 271.820813 271.999684 277.107047 271.229778 282.143332 269.572184 
C 287.179618 267.914589 291.889773 265.394378 296.063238 262.124213 
C 300.236703 258.854048 303.810348 254.883395 306.62442 250.389756 
C 309.438491 245.896117 311.450421 240.947464 312.57027 235.76502 
L 267.834768 226.098343 
L 307.471019 203.214343 
z
" style="fill: #1f77b4; stroke: #ffffff; stroke-linejoin: miter"/>
   </g>
   <g id="patch_13">
    <path d="M 317.091924 235.056677 
C 318.281707 229.550591 318.444789 223.871865 317.572955 218.306573 
C 316.70112 212.741281 314.809259 207.384473 311.992676 202.506007 
L 272.356421 225.39 
L 317.091924 235.056677 
z
" style="fill: #ff7f0e; stroke: #ffffff; stroke-linejoin: miter"/>
   </g>
   <g id="text_26">
    <!-- Yes -->
    <g style="fill: #262626" transform="translate(201.95127 236.649493)scale(0.1 -0.1)">
     <use xlink:href="#DejaVuSans-59"/>
     <use xlink:href="#DejaVuSans-65" x="47.833984"/>
     <use xlink:href="#DejaVuSans-73" x="109.357422"/>
    </g>
   </g>
   <g id="text_27">
    <!-- 88% -->
    <g style="fill: #262626" transform="translate(229.591567 233.107777)scale(0.1 -0.1)">
     <use xlink:href="#DejaVuSans-38"/>
     <use xlink:href="#DejaVuSans-38" x="63.623047"/>
     <use xlink:href="#DejaVuSans-25" x="127.246094"/>
    </g>
   </g>
   <g id="text_28">
    <!-- No -->
    <g style="fill: #262626" transform="translate(322.094608 220.357605)scale(0.1 -0.1)">
     <use xlink:href="#DejaVuSans-4e"/>
     <use xlink:href="#DejaVuSans-6f" x="74.804688"/>
    </g>
   </g>
   <g id="text_29">
    <!-- 12% -->
    <g style="fill: #262626" transform="translate(288.37306 223.899319)scale(0.1 -0.1)">
     <use xlink:href="#DejaVuSans-31"/>
     <use xlink:href="#DejaVuSans-32" x="63.623047"/>
     <use xlink:href="#DejaVuSans-25" x="127.246094"/>
    </g>
   </g>
   <g id="text_30">
    <!-- Provider -->
    <g style="fill: #262626" transform="translate(247.655171 162.18)scale(0.12 -0.12)">
     <defs>
      <path id="DejaVuSans-76" d="M 191 3500 
L 800 3500 
L 1894 563 
L 2988 3500 
L 3597 3500 
L 2284 0 
L 1503 0 
L 191 3500 
z
" transform="scale(0.015625)"/>
      <path id="DejaVuSans-64" d="M 2906 2969 
L 2906 4863 
L 3481 4863 
L 3481 0 
L 2906 0 
L 2906 525 
Q 2725 213 2448 61 
Q 2172 -91 1784 -91 
Q 1150 -91 751 415 
Q 353 922 353 1747 
Q 353 2572 751 3078 
Q 1150 3584 1784 3584 
Q 2172 3584 2448 3432 
Q 2725 3281 2906 2969 
z
M 947 1747 
Q 947 1113 1208 752 
Q 1469 391 1925 391 
Q 2381 391 2643 752 
Q 2906 1113 2906 1747 
Q 2906 2381 2643 2742 
Q 2381 3103 1925 3103 
Q 1469 3103 1208 2742 
Q 947 2381 947 1747 
z
" transform="scale(0.015625)"/>
     </defs>
     <use xlink:href="#DejaVuSans-50"/>
     <use xlink:href="#DejaVuSans-72" x="58.552734"/>
     <use xlink:href="#DejaVuSans-6f" x="97.416016"/>
     <use xlink:href="#DejaVuSans-76" x="158.597656"/>
     <use xlink:href="#DejaVuSans-69" x="217.777344"/>
     <use xlink:href="#DejaVuSans-64" x="245.560547"/>
     <use xlink:href="#DejaVuSans-65" x="309.037109"/>
     <use xlink:href="#DejaVuSans-72" x="370.560547"/>
    </g>
   </g>
  </g>
  <g id="axes_7">
   <g id="matplotlib.axis_13"/>
   <g id="matplotlib.axis_14"/>
   <g id="patch_14">
    <path d="M 492.601978 198.766192 
C 489.287724 193.025737 484.765619 188.073208 479.349314 184.252115 
C 473.933009 180.431022 467.750695 177.831798 461.231176 176.634726 
L 452.965727 221.650192 
L 492.601978 198.766192 
z
" style="fill: #1f77b4; stroke: #ffffff; stroke-linejoin: miter"/>
   </g>
   <g id="patch_15">
    <path d="M 458.592817 180.374534 
C 453.499987 179.439421 448.285199 179.375321 443.170922 180.184966 
C 438.056646 180.994611 433.116656 182.666323 428.561698 185.128785 
C 424.006741 187.591247 419.902524 190.808936 416.424137 194.644582 
C 412.945751 198.480228 410.143373 202.8785 408.136555 207.651763 
C 406.129737 212.425025 404.94743 217.504422 404.640071 222.67326 
C 404.332713 227.842098 404.904736 233.025813 406.331739 238.003264 
C 407.758743 242.980715 410.02014 247.680098 413.019457 251.900933 
C 416.018775 256.121768 419.712746 259.803167 423.943782 262.788077 
C 428.174818 265.772987 432.881884 268.01835 437.86417 269.428375 
C 442.846457 270.838401 448.032093 271.392749 453.199853 271.06777 
C 458.367613 270.742791 463.442949 269.543173 468.209342 267.520094 
C 472.975736 265.497015 477.364428 262.679658 481.188193 259.188215 
C 485.011958 255.696772 488.215636 251.581609 490.662554 247.018283 
C 493.109473 242.454957 494.764333 237.509296 495.556538 232.392289 
C 496.348743 227.275281 496.266864 222.060742 495.314394 216.97113 
C 494.361924 211.881518 492.552603 206.990252 489.963619 202.506 
L 450.327369 225.39 
L 458.592817 180.374534 
z
" style="fill: #ff7f0e; stroke: #ffffff; stroke-linejoin: miter"/>
   </g>
   <g id="text_31">
    <!-- Yes -->
    <g style="fill: #262626" transform="translate(481.987673 183.271682)scale(0.1 -0.1)">
     <use xlink:href="#DejaVuSans-59"/>
     <use xlink:href="#DejaVuSans-65" x="47.833984"/>
     <use xlink:href="#DejaVuSans-73" x="109.357422"/>
    </g>
   </g>
   <g id="text_32">
    <!-- 14% -->
    <g style="fill: #262626" transform="translate(457.682598 201.970721)scale(0.1 -0.1)">
     <defs>
      <path id="DejaVuSans-34" d="M 2419 4116 
L 825 1625 
L 2419 1625 
L 2419 4116 
z
M 2253 4666 
L 3047 4666 
L 3047 1625 
L 3713 1625 
L 3713 1100 
L 3047 1100 
L 3047 0 
L 2419 0 
L 2419 1100 
L 313 1100 
L 313 1709 
L 2253 4666 
z
" transform="scale(0.015625)"/>
     </defs>
     <use xlink:href="#DejaVuSans-31"/>
     <use xlink:href="#DejaVuSans-34" x="63.623047"/>
     <use xlink:href="#DejaVuSans-25" x="127.246094"/>
    </g>
   </g>
   <g id="text_33">
    <!-- No -->
    <g style="fill: #262626" transform="translate(407.705423 269.28726)scale(0.1 -0.1)">
     <use xlink:href="#DejaVuSans-4e"/>
     <use xlink:href="#DejaVuSans-6f" x="74.804688"/>
    </g>
   </g>
   <g id="text_34">
    <!-- 86% -->
    <g style="fill: #262626" transform="translate(423.383935 250.588221)scale(0.1 -0.1)">
     <defs>
      <path id="DejaVuSans-36" d="M 2113 2584 
Q 1688 2584 1439 2293 
Q 1191 2003 1191 1497 
Q 1191 994 1439 701 
Q 1688 409 2113 409 
Q 2538 409 2786 701 
Q 3034 994 3034 1497 
Q 3034 2003 2786 2293 
Q 2538 2584 2113 2584 
z
M 3366 4563 
L 3366 3988 
Q 3128 4100 2886 4159 
Q 2644 4219 2406 4219 
Q 1781 4219 1451 3797 
Q 1122 3375 1075 2522 
Q 1259 2794 1537 2939 
Q 1816 3084 2150 3084 
Q 2853 3084 3261 2657 
Q 3669 2231 3669 1497 
Q 3669 778 3244 343 
Q 2819 -91 2113 -91 
Q 1303 -91 875 529 
Q 447 1150 447 2328 
Q 447 3434 972 4092 
Q 1497 4750 2381 4750 
Q 2619 4750 2861 4703 
Q 3103 4656 3366 4563 
z
" transform="scale(0.015625)"/>
     </defs>
     <use xlink:href="#DejaVuSans-38"/>
     <use xlink:href="#DejaVuSans-36" x="63.623047"/>
     <use xlink:href="#DejaVuSans-25" x="127.246094"/>
    </g>
   </g>
   <g id="text_35">
    <!-- License -->
    <g style="fill: #262626" transform="translate(427.706431 162.18)scale(0.12 -0.12)">
     <defs>
      <path id="DejaVuSans-4c" d="M 628 4666 
L 1259 4666 
L 1259 531 
L 3531 531 
L 3531 0 
L 628 0 
L 628 4666 
z
" transform="scale(0.015625)"/>
     </defs>
     <use xlink:href="#DejaVuSans-4c"/>
     <use xlink:href="#DejaVuSans-69" x="55.712891"/>
     <use xlink:href="#DejaVuSans-63" x="83.496094"/>
     <use xlink:href="#DejaVuSans-65" x="138.476562"/>
     <use xlink:href="#DejaVuSans-6e" x="200"/>
     <use xlink:href="#DejaVuSans-73" x="263.378906"/>
     <use xlink:href="#DejaVuSans-65" x="315.478516"/>
    </g>
   </g>
  </g>
  <g id="axes_8">
   <g id="matplotlib.axis_15"/>
   <g id="matplotlib.axis_16"/>
   <g id="patch_16">
    <path d="M 667.934567 202.506 
C 663.512865 194.847388 656.964793 188.632025 649.086214 184.615337 
C 641.207635 180.598649 632.33122 178.95024 623.535825 179.87046 
C 614.74043 180.79068 606.397436 184.240674 599.520867 189.801122 
C 592.644298 195.36157 587.524515 202.797685 584.783784 211.205668 
L 628.298316 225.39 
L 667.934567 202.506 
z
" style="fill: #1f77b4; stroke: #ffffff; stroke-linejoin: miter"/>
   </g>
   <g id="patch_17">
    <path d="M 584.783784 211.205668 
C 582.351037 218.66882 581.878712 226.633829 583.412382 234.33219 
C 584.946052 242.030551 588.434752 249.206444 593.541874 255.167501 
C 598.648997 261.128559 605.204829 265.676692 612.576832 268.373075 
C 619.948835 271.069458 627.892032 271.824488 635.640025 270.565316 
L 628.298316 225.39 
L 584.783784 211.205668 
z
" style="fill: #ff7f0e; stroke: #ffffff; stroke-linejoin: miter"/>
   </g>
   <g id="patch_18">
    <path d="M 635.640025 270.565316 
C 644.696809 269.093444 653.105041 264.931472 659.76752 258.6225 
C 666.429998 252.313528 671.043747 244.144459 673.006711 235.181283 
L 628.298316 225.39 
L 635.640025 270.565316 
z
" style="fill: #2ca02c; stroke: #ffffff; stroke-linejoin: miter"/>
   </g>
   <g id="patch_19">
    <path d="M 673.006711 235.181283 
C 673.656784 232.212959 674.00963 229.187258 674.060022 226.149001 
C 674.110415 223.110744 673.858103 220.075007 673.306826 217.086757 
L 628.298316 225.39 
L 673.006711 235.181283 
z
" style="fill: #d62728; stroke: #ffffff; stroke-linejoin: miter"/>
   </g>
   <g id="patch_20">
    <path d="M 673.306826 217.086757 
C 673.188788 216.446921 673.05712 215.809674 672.911911 215.175452 
C 672.766702 214.541231 672.607986 213.910177 672.43587 213.282722 
L 628.298316 225.39 
L 673.306826 217.086757 
z
" style="fill: #9467bd; stroke: #ffffff; stroke-linejoin: miter"/>
   </g>
   <g id="patch_21">
    <path d="M 672.43587 213.282722 
C 672.263754 212.655268 672.078278 212.031555 671.879569 211.412008 
C 671.680859 210.792462 671.468961 210.177223 671.244019 209.566712 
L 628.298316 225.39 
L 672.43587 213.282722 
z
" style="fill: #8c564b; stroke: #ffffff; stroke-linejoin: miter"/>
   </g>
   <g id="patch_22">
    <path d="M 671.244019 209.566712 
C 671.094061 209.159713 670.938324 208.754866 670.776857 208.352295 
C 670.615389 207.949723 670.448207 207.549467 670.275362 207.151648 
L 628.298316 225.39 
L 671.244019 209.566712 
z
" style="fill: #e377c2; stroke: #ffffff; stroke-linejoin: miter"/>
   </g>
   <g id="patch_23">
    <path d="M 670.275362 207.151648 
C 670.18894 206.952741 670.101105 206.754451 670.011864 206.556792 
C 669.922624 206.359134 669.831979 206.162112 669.739938 205.965742 
L 628.298316 225.39 
L 670.275362 207.151648 
z
" style="fill: #7f7f7f; stroke: #ffffff; stroke-linejoin: miter"/>
   </g>
   <g id="patch_24">
    <path d="M 669.739938 205.965742 
C 669.647897 205.769372 669.554461 205.573659 669.459638 205.378617 
C 669.364814 205.183576 669.268606 204.98921 669.17102 204.795536 
L 628.298316 225.39 
L 669.739938 205.965742 
z
" style="fill: #bcbd22; stroke: #ffffff; stroke-linejoin: miter"/>
   </g>
   <g id="patch_25">
    <path d="M 669.17102 204.795536 
C 669.073433 204.601862 668.974472 204.408884 668.874142 204.216617 
C 668.773813 204.024349 668.672118 203.832798 668.569066 203.641976 
L 628.298316 225.39 
L 669.17102 204.795536 
z
" style="fill: #17becf; stroke: #ffffff; stroke-linejoin: miter"/>
   </g>
   <g id="patch_26">
    <path d="M 668.569066 203.641976 
C 668.466013 203.451154 668.361606 203.261067 668.255852 203.07173 
C 668.150097 202.882392 668.042998 202.693808 667.934563 202.505993 
L 628.298316 225.39 
L 668.569066 203.641976 
z
" style="fill: #1f77b4; stroke: #ffffff; stroke-linejoin: miter"/>
   </g>
   <g id="text_36">
    <!-- CC BY 4.0 -->
    <g style="fill: #262626" transform="translate(574.415826 178.077881)scale(0.1 -0.1)">
     <defs>
      <path id="DejaVuSans-43" d="M 4122 4306 
L 4122 3641 
Q 3803 3938 3442 4084 
Q 3081 4231 2675 4231 
Q 1875 4231 1450 3742 
Q 1025 3253 1025 2328 
Q 1025 1406 1450 917 
Q 1875 428 2675 428 
Q 3081 428 3442 575 
Q 3803 722 4122 1019 
L 4122 359 
Q 3791 134 3420 21 
Q 3050 -91 2638 -91 
Q 1578 -91 968 557 
Q 359 1206 359 2328 
Q 359 3453 968 4101 
Q 1578 4750 2638 4750 
Q 3056 4750 3426 4639 
Q 3797 4528 4122 4306 
z
" transform="scale(0.015625)"/>
      <path id="DejaVuSans-20" transform="scale(0.015625)"/>
      <path id="DejaVuSans-42" d="M 1259 2228 
L 1259 519 
L 2272 519 
Q 2781 519 3026 730 
Q 3272 941 3272 1375 
Q 3272 1813 3026 2020 
Q 2781 2228 2272 2228 
L 1259 2228 
z
M 1259 4147 
L 1259 2741 
L 2194 2741 
Q 2656 2741 2882 2914 
Q 3109 3088 3109 3444 
Q 3109 3797 2882 3972 
Q 2656 4147 2194 4147 
L 1259 4147 
z
M 628 4666 
L 2241 4666 
Q 2963 4666 3353 4366 
Q 3744 4066 3744 3513 
Q 3744 3084 3544 2831 
Q 3344 2578 2956 2516 
Q 3422 2416 3680 2098 
Q 3938 1781 3938 1306 
Q 3938 681 3513 340 
Q 3088 0 2303 0 
L 628 0 
L 628 4666 
z
" transform="scale(0.015625)"/>
      <path id="DejaVuSans-2e" d="M 684 794 
L 1344 794 
L 1344 0 
L 684 0 
L 684 794 
z
" transform="scale(0.015625)"/>
      <path id="DejaVuSans-30" d="M 2034 4250 
Q 1547 4250 1301 3770 
Q 1056 3291 1056 2328 
Q 1056 1369 1301 889 
Q 1547 409 2034 409 
Q 2525 409 2770 889 
Q 3016 1369 3016 2328 
Q 3016 3291 2770 3770 
Q 2525 4250 2034 4250 
z
M 2034 4750 
Q 2819 4750 3233 4129 
Q 3647 3509 3647 2328 
Q 3647 1150 3233 529 
Q 2819 -91 2034 -91 
Q 1250 -91 836 529 
Q 422 1150 422 2328 
Q 422 3509 836 4129 
Q 1250 4750 2034 4750 
z
" transform="scale(0.015625)"/>
     </defs>
     <use xlink:href="#DejaVuSans-43"/>
     <use xlink:href="#DejaVuSans-43" x="69.824219"/>
     <use xlink:href="#DejaVuSans-20" x="139.648438"/>
     <use xlink:href="#DejaVuSans-42" x="171.435547"/>
     <use xlink:href="#DejaVuSans-59" x="234.539062"/>
     <use xlink:href="#DejaVuSans-20" x="295.623047"/>
     <use xlink:href="#DejaVuSans-34" x="327.410156"/>
     <use xlink:href="#DejaVuSans-2e" x="391.033203"/>
     <use xlink:href="#DejaVuSans-30" x="422.820312"/>
    </g>
   </g>
   <g id="text_37">
    <!-- 37% -->
    <g style="fill: #262626" transform="translate(614.32754 200.837651)scale(0.1 -0.1)">
     <defs>
      <path id="DejaVuSans-33" d="M 2597 2516 
Q 3050 2419 3304 2112 
Q 3559 1806 3559 1356 
Q 3559 666 3084 287 
Q 2609 -91 1734 -91 
Q 1441 -91 1130 -33 
Q 819 25 488 141 
L 488 750 
Q 750 597 1062 519 
Q 1375 441 1716 441 
Q 2309 441 2620 675 
Q 2931 909 2931 1356 
Q 2931 1769 2642 2001 
Q 2353 2234 1838 2234 
L 1294 2234 
L 1294 2753 
L 1863 2753 
Q 2328 2753 2575 2939 
Q 2822 3125 2822 3475 
Q 2822 3834 2567 4026 
Q 2313 4219 1838 4219 
Q 1578 4219 1281 4162 
Q 984 4106 628 3988 
L 628 4550 
Q 988 4650 1302 4700 
Q 1616 4750 1894 4750 
Q 2613 4750 3031 4423 
Q 3450 4097 3450 3541 
Q 3450 3153 3228 2886 
Q 3006 2619 2597 2516 
z
" transform="scale(0.015625)"/>
     </defs>
     <use xlink:href="#DejaVuSans-33"/>
     <use xlink:href="#DejaVuSans-37" x="63.623047"/>
     <use xlink:href="#DejaVuSans-25" x="127.246094"/>
    </g>
   </g>
   <g id="text_38">
    <!-- CC BY 3.0 -->
    <g style="fill: #262626" transform="translate(541.42248 260.904626)scale(0.1 -0.1)">
     <use xlink:href="#DejaVuSans-43"/>
     <use xlink:href="#DejaVuSans-43" x="69.824219"/>
     <use xlink:href="#DejaVuSans-20" x="139.648438"/>
     <use xlink:href="#DejaVuSans-42" x="171.435547"/>
     <use xlink:href="#DejaVuSans-59" x="234.539062"/>
     <use xlink:href="#DejaVuSans-20" x="295.623047"/>
     <use xlink:href="#DejaVuSans-33" x="327.410156"/>
     <use xlink:href="#DejaVuSans-2e" x="391.033203"/>
     <use xlink:href="#DejaVuSans-30" x="422.820312"/>
    </g>
   </g>
   <g id="text_39">
    <!-- 33% -->
    <g style="fill: #262626" transform="translate(596.33117 246.015876)scale(0.1 -0.1)">
     <use xlink:href="#DejaVuSans-33"/>
     <use xlink:href="#DejaVuSans-33" x="63.623047"/>
     <use xlink:href="#DejaVuSans-25" x="127.246094"/>
    </g>
   </g>
   <g id="text_40">
    <!-- CC0 1.0 -->
    <g style="fill: #262626" transform="translate(662.91444 264.705125)scale(0.1 -0.1)">
     <use xlink:href="#DejaVuSans-43"/>
     <use xlink:href="#DejaVuSans-43" x="69.824219"/>
     <use xlink:href="#DejaVuSans-30" x="139.648438"/>
     <use xlink:href="#DejaVuSans-20" x="203.271484"/>
     <use xlink:href="#DejaVuSans-31" x="235.058594"/>
     <use xlink:href="#DejaVuSans-2e" x="298.681641"/>
     <use xlink:href="#DejaVuSans-30" x="330.46875"/>
    </g>
   </g>
   <g id="text_41">
    <!-- 19% -->
    <g style="fill: #262626" transform="translate(636.066557 248.088875)scale(0.1 -0.1)">
     <use xlink:href="#DejaVuSans-31"/>
     <use xlink:href="#DejaVuSans-39" x="63.623047"/>
     <use xlink:href="#DejaVuSans-25" x="127.246094"/>
    </g>
   </g>
   <g id="text_42">
    <!-- CC BY-4.0 -->
    <g style="fill: #262626" transform="translate(678.636193 228.984276)scale(0.1 -0.1)">
     <defs>
      <path id="DejaVuSans-2d" d="M 313 2009 
L 1997 2009 
L 1997 1497 
L 313 1497 
L 313 2009 
z
" transform="scale(0.015625)"/>
     </defs>
     <use xlink:href="#DejaVuSans-43"/>
     <use xlink:href="#DejaVuSans-43" x="69.824219"/>
     <use xlink:href="#DejaVuSans-20" x="139.648438"/>
     <use xlink:href="#DejaVuSans-42" x="171.435547"/>
     <use xlink:href="#DejaVuSans-59" x="234.539062"/>
     <use xlink:href="#DejaVuSans-2d" x="283.748047"/>
     <use xlink:href="#DejaVuSans-34" x="319.832031"/>
     <use xlink:href="#DejaVuSans-2e" x="383.455078"/>
     <use xlink:href="#DejaVuSans-30" x="415.242188"/>
    </g>
   </g>
   <g id="text_43">
    <!-- 6% -->
    <g style="fill: #262626" transform="translate(647.823309 228.604776)scale(0.1 -0.1)">
     <use xlink:href="#DejaVuSans-36"/>
     <use xlink:href="#DejaVuSans-25" x="63.623047"/>
    </g>
   </g>
   <g id="text_44">
    <!-- Artistic License 2.0 -->
    <g style="fill: #262626" transform="translate(677.37327 216.913373)scale(0.1 -0.1)">
     <defs>
      <path id="DejaVuSans-41" d="M 2188 4044 
L 1331 1722 
L 3047 1722 
L 2188 4044 
z
M 1831 4666 
L 2547 4666 
L 4325 0 
L 3669 0 
L 3244 1197 
L 1141 1197 
L 716 0 
L 50 0 
L 1831 4666 
z
" transform="scale(0.015625)"/>
     </defs>
     <use xlink:href="#DejaVuSans-41"/>
     <use xlink:href="#DejaVuSans-72" x="68.408203"/>
     <use xlink:href="#DejaVuSans-74" x="109.521484"/>
     <use xlink:href="#DejaVuSans-69" x="148.730469"/>
     <use xlink:href="#DejaVuSans-73" x="176.513672"/>
     <use xlink:href="#DejaVuSans-74" x="228.613281"/>
     <use xlink:href="#DejaVuSans-69" x="267.822266"/>
     <use xlink:href="#DejaVuSans-63" x="295.605469"/>
     <use xlink:href="#DejaVuSans-20" x="350.585938"/>
     <use xlink:href="#DejaVuSans-4c" x="382.373047"/>
     <use xlink:href="#DejaVuSans-69" x="438.085938"/>
     <use xlink:href="#DejaVuSans-63" x="465.869141"/>
     <use xlink:href="#DejaVuSans-65" x="520.849609"/>
     <use xlink:href="#DejaVuSans-6e" x="582.373047"/>
     <use xlink:href="#DejaVuSans-73" x="645.751953"/>
     <use xlink:href="#DejaVuSans-65" x="697.851562"/>
     <use xlink:href="#DejaVuSans-20" x="759.375"/>
     <use xlink:href="#DejaVuSans-32" x="791.162109"/>
     <use xlink:href="#DejaVuSans-2e" x="854.785156"/>
     <use xlink:href="#DejaVuSans-30" x="886.572266"/>
    </g>
   </g>
   <g id="text_45">
    <!-- 1% -->
    <g style="fill: #262626" transform="translate(647.134442 222.020646)scale(0.1 -0.1)">
     <use xlink:href="#DejaVuSans-31"/>
     <use xlink:href="#DejaVuSans-25" x="63.623047"/>
    </g>
   </g>
   <g id="text_46">
    <!-- CC BY 2.0 -->
    <g style="fill: #262626" transform="translate(676.237694 212.773584)scale(0.1 -0.1)">
     <use xlink:href="#DejaVuSans-43"/>
     <use xlink:href="#DejaVuSans-43" x="69.824219"/>
     <use xlink:href="#DejaVuSans-20" x="139.648438"/>
     <use xlink:href="#DejaVuSans-42" x="171.435547"/>
     <use xlink:href="#DejaVuSans-59" x="234.539062"/>
     <use xlink:href="#DejaVuSans-20" x="295.623047"/>
     <use xlink:href="#DejaVuSans-32" x="327.410156"/>
     <use xlink:href="#DejaVuSans-2e" x="391.033203"/>
     <use xlink:href="#DejaVuSans-30" x="422.820312"/>
    </g>
   </g>
   <g id="text_47">
    <!-- 1% -->
    <g style="fill: #262626" transform="translate(646.515036 219.76258)scale(0.1 -0.1)">
     <use xlink:href="#DejaVuSans-31"/>
     <use xlink:href="#DejaVuSans-25" x="63.623047"/>
    </g>
   </g>
   <g id="text_48">
    <!-- CC-BY-NC-SA-4.0 -->
    <g style="fill: #262626" transform="translate(675.024711 209.407899)scale(0.1 -0.1)">
     <defs>
      <path id="DejaVuSans-53" d="M 3425 4513 
L 3425 3897 
Q 3066 4069 2747 4153 
Q 2428 4238 2131 4238 
Q 1616 4238 1336 4038 
Q 1056 3838 1056 3469 
Q 1056 3159 1242 3001 
Q 1428 2844 1947 2747 
L 2328 2669 
Q 3034 2534 3370 2195 
Q 3706 1856 3706 1288 
Q 3706 609 3251 259 
Q 2797 -91 1919 -91 
Q 1588 -91 1214 -16 
Q 841 59 441 206 
L 441 856 
Q 825 641 1194 531 
Q 1563 422 1919 422 
Q 2459 422 2753 634 
Q 3047 847 3047 1241 
Q 3047 1584 2836 1778 
Q 2625 1972 2144 2069 
L 1759 2144 
Q 1053 2284 737 2584 
Q 422 2884 422 3419 
Q 422 4038 858 4394 
Q 1294 4750 2059 4750 
Q 2388 4750 2728 4690 
Q 3069 4631 3425 4513 
z
" transform="scale(0.015625)"/>
     </defs>
     <use xlink:href="#DejaVuSans-43"/>
     <use xlink:href="#DejaVuSans-43" x="69.824219"/>
     <use xlink:href="#DejaVuSans-2d" x="139.648438"/>
     <use xlink:href="#DejaVuSans-42" x="172.107422"/>
     <use xlink:href="#DejaVuSans-59" x="235.210938"/>
     <use xlink:href="#DejaVuSans-2d" x="284.419922"/>
     <use xlink:href="#DejaVuSans-4e" x="320.503906"/>
     <use xlink:href="#DejaVuSans-43" x="395.308594"/>
     <use xlink:href="#DejaVuSans-2d" x="465.132812"/>
     <use xlink:href="#DejaVuSans-53" x="501.216797"/>
     <use xlink:href="#DejaVuSans-41" x="566.568359"/>
     <use xlink:href="#DejaVuSans-2d" x="632.726562"/>
     <use xlink:href="#DejaVuSans-34" x="668.810547"/>
     <use xlink:href="#DejaVuSans-2e" x="732.433594"/>
     <use xlink:href="#DejaVuSans-30" x="764.220703"/>
    </g>
   </g>
   <g id="text_49">
    <!-- 1% -->
    <g style="fill: #262626" transform="translate(645.853409 217.926752)scale(0.1 -0.1)">
     <use xlink:href="#DejaVuSans-31"/>
     <use xlink:href="#DejaVuSans-25" x="63.623047"/>
    </g>
   </g>
   <g id="text_50">
    <!-- Apache 2.0 License -->
    <g style="fill: #262626" transform="translate(674.183219 207.432846)scale(0.1 -0.1)">
     <defs>
      <path id="DejaVuSans-68" d="M 3513 2113 
L 3513 0 
L 2938 0 
L 2938 2094 
Q 2938 2591 2744 2837 
Q 2550 3084 2163 3084 
Q 1697 3084 1428 2787 
Q 1159 2491 1159 1978 
L 1159 0 
L 581 0 
L 581 4863 
L 1159 4863 
L 1159 2956 
Q 1366 3272 1645 3428 
Q 1925 3584 2291 3584 
Q 2894 3584 3203 3211 
Q 3513 2838 3513 2113 
z
" transform="scale(0.015625)"/>
     </defs>
     <use xlink:href="#DejaVuSans-41"/>
     <use xlink:href="#DejaVuSans-70" x="68.408203"/>
     <use xlink:href="#DejaVuSans-61" x="131.884766"/>
     <use xlink:href="#DejaVuSans-63" x="193.164062"/>
     <use xlink:href="#DejaVuSans-68" x="248.144531"/>
     <use xlink:href="#DejaVuSans-65" x="311.523438"/>
     <use xlink:href="#DejaVuSans-20" x="373.046875"/>
     <use xlink:href="#DejaVuSans-32" x="404.833984"/>
     <use xlink:href="#DejaVuSans-2e" x="468.457031"/>
     <use xlink:href="#DejaVuSans-30" x="500.244141"/>
     <use xlink:href="#DejaVuSans-20" x="563.867188"/>
     <use xlink:href="#DejaVuSans-4c" x="595.654297"/>
     <use xlink:href="#DejaVuSans-69" x="651.367188"/>
     <use xlink:href="#DejaVuSans-63" x="679.150391"/>
     <use xlink:href="#DejaVuSans-65" x="734.130859"/>
     <use xlink:href="#DejaVuSans-6e" x="795.654297"/>
     <use xlink:href="#DejaVuSans-73" x="859.033203"/>
     <use xlink:href="#DejaVuSans-65" x="911.132812"/>
    </g>
   </g>
   <g id="text_51">
    <!-- 0% -->
    <g style="fill: #262626" transform="translate(645.394414 216.84945)scale(0.1 -0.1)">
     <use xlink:href="#DejaVuSans-30"/>
     <use xlink:href="#DejaVuSans-25" x="63.623047"/>
    </g>
   </g>
   <g id="text_52">
    <!-- hpo -->
    <g style="fill: #262626" transform="translate(673.57577 206.136854)scale(0.1 -0.1)">
     <use xlink:href="#DejaVuSans-68"/>
     <use xlink:href="#DejaVuSans-70" x="63.378906"/>
     <use xlink:href="#DejaVuSans-6f" x="126.855469"/>
    </g>
   </g>
   <g id="text_53">
    <!-- 0% -->
    <g style="fill: #262626" transform="translate(645.063078 216.142545)scale(0.1 -0.1)">
     <use xlink:href="#DejaVuSans-30"/>
     <use xlink:href="#DejaVuSans-25" x="63.623047"/>
    </g>
   </g>
   <g id="text_54">
    <!-- GPL-3.0 -->
    <g style="fill: #262626" transform="translate(672.931725 204.858653)scale(0.1 -0.1)">
     <defs>
      <path id="DejaVuSans-47" d="M 3809 666 
L 3809 1919 
L 2778 1919 
L 2778 2438 
L 4434 2438 
L 4434 434 
Q 4069 175 3628 42 
Q 3188 -91 2688 -91 
Q 1594 -91 976 548 
Q 359 1188 359 2328 
Q 359 3472 976 4111 
Q 1594 4750 2688 4750 
Q 3144 4750 3555 4637 
Q 3966 4525 4313 4306 
L 4313 3634 
Q 3963 3931 3569 4081 
Q 3175 4231 2741 4231 
Q 1884 4231 1454 3753 
Q 1025 3275 1025 2328 
Q 1025 1384 1454 906 
Q 1884 428 2741 428 
Q 3075 428 3337 486 
Q 3600 544 3809 666 
z
" transform="scale(0.015625)"/>
     </defs>
     <use xlink:href="#DejaVuSans-47"/>
     <use xlink:href="#DejaVuSans-50" x="77.490234"/>
     <use xlink:href="#DejaVuSans-4c" x="137.792969"/>
     <use xlink:href="#DejaVuSans-2d" x="191.755859"/>
     <use xlink:href="#DejaVuSans-33" x="227.839844"/>
     <use xlink:href="#DejaVuSans-2e" x="291.462891"/>
     <use xlink:href="#DejaVuSans-30" x="323.25"/>
    </g>
   </g>
   <g id="text_55">
    <!-- 0% -->
    <g style="fill: #262626" transform="translate(644.711781 215.445345)scale(0.1 -0.1)">
     <use xlink:href="#DejaVuSans-30"/>
     <use xlink:href="#DejaVuSans-25" x="63.623047"/>
    </g>
   </g>
   <g id="text_56">
    <!-- CC BY 4.0-NC-SA -->
    <g style="fill: #262626" transform="translate(672.251605 203.599278)scale(0.1 -0.1)">
     <use xlink:href="#DejaVuSans-43"/>
     <use xlink:href="#DejaVuSans-43" x="69.824219"/>
     <use xlink:href="#DejaVuSans-20" x="139.648438"/>
     <use xlink:href="#DejaVuSans-42" x="171.435547"/>
     <use xlink:href="#DejaVuSans-59" x="234.539062"/>
     <use xlink:href="#DejaVuSans-20" x="295.623047"/>
     <use xlink:href="#DejaVuSans-34" x="327.410156"/>
     <use xlink:href="#DejaVuSans-2e" x="391.033203"/>
     <use xlink:href="#DejaVuSans-30" x="422.820312"/>
     <use xlink:href="#DejaVuSans-2d" x="486.443359"/>
     <use xlink:href="#DejaVuSans-4e" x="522.527344"/>
     <use xlink:href="#DejaVuSans-43" x="597.332031"/>
     <use xlink:href="#DejaVuSans-2d" x="667.15625"/>
     <use xlink:href="#DejaVuSans-53" x="703.240234"/>
     <use xlink:href="#DejaVuSans-41" x="768.591797"/>
    </g>
   </g>
   <g id="text_57">
    <!-- 0% -->
    <g style="fill: #262626" transform="translate(644.340806 214.758413)scale(0.1 -0.1)">
     <use xlink:href="#DejaVuSans-30"/>
     <use xlink:href="#DejaVuSans-25" x="63.623047"/>
    </g>
   </g>
   <g id="text_58">
    <!-- License Type -->
    <g style="fill: #262626" transform="translate(589.991129 162.18)scale(0.12 -0.12)">
     <defs>
      <path id="DejaVuSans-54" d="M -19 4666 
L 3928 4666 
L 3928 4134 
L 2272 4134 
L 2272 0 
L 1638 0 
L 1638 4134 
L -19 4134 
L -19 4666 
z
" transform="scale(0.015625)"/>
      <path id="DejaVuSans-79" d="M 2059 -325 
Q 1816 -950 1584 -1140 
Q 1353 -1331 966 -1331 
L 506 -1331 
L 506 -850 
L 844 -850 
Q 1081 -850 1212 -737 
Q 1344 -625 1503 -206 
L 1606 56 
L 191 3500 
L 800 3500 
L 1894 763 
L 2988 3500 
L 3597 3500 
L 2059 -325 
z
" transform="scale(0.015625)"/>
     </defs>
     <use xlink:href="#DejaVuSans-4c"/>
     <use xlink:href="#DejaVuSans-69" x="55.712891"/>
     <use xlink:href="#DejaVuSans-63" x="83.496094"/>
     <use xlink:href="#DejaVuSans-65" x="138.476562"/>
     <use xlink:href="#DejaVuSans-6e" x="200"/>
     <use xlink:href="#DejaVuSans-73" x="263.378906"/>
     <use xlink:href="#DejaVuSans-65" x="315.478516"/>
     <use xlink:href="#DejaVuSans-20" x="377.001953"/>
     <use xlink:href="#DejaVuSans-54" x="408.789062"/>
     <use xlink:href="#DejaVuSans-79" x="454.248047"/>
     <use xlink:href="#DejaVuSans-70" x="513.427734"/>
     <use xlink:href="#DejaVuSans-65" x="576.904297"/>
    </g>
   </g>
  </g>
  <g id="axes_9">
   <g id="matplotlib.axis_17"/>
   <g id="matplotlib.axis_18"/>
   <g id="patch_27">
    <path d="M 136.480029 339.945451 
C 132.799752 333.571025 127.635481 328.177487 121.426826 324.223964 
C 115.21817 320.270442 108.146445 317.872391 100.813633 317.233946 
L 96.843778 362.829451 
L 136.480029 339.945451 
z
" style="fill: #1f77b4; stroke: #ffffff; stroke-linejoin: miter"/>
   </g>
   <g id="patch_28">
    <path d="M 98.355328 321.094495 
C 93.287503 320.653256 88.181392 321.060002 83.247331 322.297978 
C 78.313271 323.535954 73.619954 325.587925 69.360712 328.369364 
C 65.101471 331.150803 61.335603 334.622986 58.218237 338.642882 
C 55.100871 342.662779 52.675407 347.174423 51.041758 351.991967 
C 49.408109 356.809511 48.589019 361.865884 48.618228 366.952797 
C 48.647437 372.03971 49.52454 377.086343 51.213404 381.884809 
C 52.902269 386.683275 55.379383 391.166769 58.542706 395.150602 
C 61.70603 399.134435 65.511523 402.563142 69.802425 405.295486 
C 74.093327 408.027829 78.809899 410.025768 83.75785 411.207002 
C 88.705802 412.388235 93.816247 412.736317 98.878671 412.23691 
C 103.941094 411.737502 108.885016 410.397558 113.50678 408.272273 
C 118.128544 406.146989 122.363806 403.265952 126.038101 399.747843 
C 129.712397 396.229734 132.774572 392.123532 135.098485 387.598384 
C 137.422399 383.073236 138.975698 378.192142 139.694396 373.15617 
C 140.413095 368.120198 140.287187 362.99946 139.32186 358.004895 
C 138.356532 353.01033 136.565225 348.211473 134.021727 343.806004 
L 94.385474 366.69 
L 98.355328 321.094495 
z
" style="fill: #ff7f0e; stroke: #ffffff; stroke-linejoin: miter"/>
   </g>
   <g id="text_59">
    <!-- Yes -->
    <g style="fill: #262626" transform="translate(123.88513 323.122791)scale(0.1 -0.1)">
     <use xlink:href="#DejaVuSans-59"/>
     <use xlink:href="#DejaVuSans-65" x="47.833984"/>
     <use xlink:href="#DejaVuSans-73" x="109.357422"/>
    </g>
   </g>
   <g id="text_60">
    <!-- 15% -->
    <g style="fill: #262626" transform="translate(100.480326 342.425534)scale(0.1 -0.1)">
     <defs>
      <path id="DejaVuSans-35" d="M 691 4666 
L 3169 4666 
L 3169 4134 
L 1269 4134 
L 1269 2991 
Q 1406 3038 1543 3061 
Q 1681 3084 1819 3084 
Q 2600 3084 3056 2656 
Q 3513 2228 3513 1497 
Q 3513 744 3044 326 
Q 2575 -91 1722 -91 
Q 1428 -91 1123 -41 
Q 819 9 494 109 
L 494 744 
Q 775 591 1075 516 
Q 1375 441 1709 441 
Q 2250 441 2565 725 
Q 2881 1009 2881 1497 
Q 2881 1984 2565 2268 
Q 2250 2553 1709 2553 
Q 1456 2553 1204 2497 
Q 953 2441 691 2322 
L 691 4666 
z
" transform="scale(0.015625)"/>
     </defs>
     <use xlink:href="#DejaVuSans-31"/>
     <use xlink:href="#DejaVuSans-35" x="63.623047"/>
     <use xlink:href="#DejaVuSans-25" x="127.246094"/>
    </g>
   </g>
   <g id="text_61">
    <!-- No -->
    <g style="fill: #262626" transform="translate(53.74412 411.915409)scale(0.1 -0.1)">
     <use xlink:href="#DejaVuSans-4e"/>
     <use xlink:href="#DejaVuSans-6f" x="74.804688"/>
    </g>
   </g>
   <g id="text_62">
    <!-- 85% -->
    <g style="fill: #262626" transform="translate(68.522363 392.612666)scale(0.1 -0.1)">
     <use xlink:href="#DejaVuSans-38"/>
     <use xlink:href="#DejaVuSans-35" x="63.623047"/>
     <use xlink:href="#DejaVuSans-25" x="127.246094"/>
    </g>
   </g>
   <g id="text_63">
    <!-- Version -->
    <g style="fill: #262626" transform="translate(72.321411 303.48)scale(0.12 -0.12)">
     <defs>
      <path id="DejaVuSans-56" d="M 1831 0 
L 50 4666 
L 709 4666 
L 2188 738 
L 3669 4666 
L 4325 4666 
L 2547 0 
L 1831 0 
z
" transform="scale(0.015625)"/>
     </defs>
     <use xlink:href="#DejaVuSans-56"/>
     <use xlink:href="#DejaVuSans-65" x="60.658203"/>
     <use xlink:href="#DejaVuSans-72" x="122.181641"/>
     <use xlink:href="#DejaVuSans-73" x="163.294922"/>
     <use xlink:href="#DejaVuSans-69" x="215.394531"/>
     <use xlink:href="#DejaVuSans-6f" x="243.177734"/>
     <use xlink:href="#DejaVuSans-6e" x="304.359375"/>
    </g>
   </g>
  </g>
  <g id="axes_10">
   <g id="matplotlib.axis_19"/>
   <g id="matplotlib.axis_20"/>
   <g id="patch_29">
    <path d="M 313.798241 339.600406 
C 308.862005 331.050594 301.289441 324.323209 292.217686 320.428471 
C 283.145931 316.533733 273.053001 315.676868 263.454506 317.986546 
L 274.161991 362.484406 
L 313.798241 339.600406 
z
" style="fill: #1f77b4; stroke: #ffffff; stroke-linejoin: miter"/>
   </g>
   <g id="patch_30">
    <path d="M 261.648937 322.192139 
C 257.004475 323.309732 252.563491 325.147615 248.487538 327.638928 
C 244.411584 330.130242 240.750692 333.244406 237.638037 336.868136 
C 234.525381 340.491865 231.999169 344.580679 230.151298 348.985837 
C 228.303427 353.390994 227.156579 358.058423 226.752474 362.818333 
C 226.348369 367.578242 226.691967 372.372206 227.770769 377.025831 
C 228.84957 381.679456 230.650334 386.135621 233.107552 390.232219 
C 235.56477 394.328818 238.64828 398.015566 242.245912 401.158349 
C 245.843544 404.301132 249.911138 406.861372 254.300724 408.745935 
C 258.69031 410.630497 263.348007 411.816249 268.104379 412.260056 
C 272.860751 412.703862 277.657415 412.400276 282.31988 411.36034 
C 286.982344 410.320405 291.453379 408.556885 295.570337 406.133934 
C 299.687296 403.710983 303.399644 400.658341 306.572335 397.087057 
C 309.745026 393.515773 312.339116 389.469683 314.260239 385.095974 
C 316.181362 380.722265 317.405935 376.074624 317.889412 371.32212 
C 318.37289 366.569617 318.109336 361.770587 317.10834 357.099608 
C 316.107343 352.428629 314.38119 347.943035 311.992674 343.806004 
L 272.356421 366.69 
L 261.648937 322.192139 
z
" style="fill: #ff7f0e; stroke: #ffffff; stroke-linejoin: miter"/>
   </g>
   <g id="text_64">
    <!-- Yes -->
    <g style="fill: #262626" transform="translate(294.023255 318.982253)scale(0.1 -0.1)">
     <use xlink:href="#DejaVuSans-59"/>
     <use xlink:href="#DejaVuSans-65" x="47.833984"/>
     <use xlink:href="#DejaVuSans-73" x="109.357422"/>
    </g>
   </g>
   <g id="text_65">
    <!-- 20% -->
    <g style="fill: #262626" transform="translate(273.882127 340.01022)scale(0.1 -0.1)">
     <use xlink:href="#DejaVuSans-32"/>
     <use xlink:href="#DejaVuSans-30" x="63.623047"/>
     <use xlink:href="#DejaVuSans-25" x="127.246094"/>
    </g>
   </g>
   <g id="text_66">
    <!-- No -->
    <g style="fill: #262626" transform="translate(238.895154 415.710903)scale(0.1 -0.1)">
     <use xlink:href="#DejaVuSans-4e"/>
     <use xlink:href="#DejaVuSans-6f" x="74.804688"/>
    </g>
   </g>
   <g id="text_67">
    <!-- 80% -->
    <g style="fill: #262626" transform="translate(250.409722 394.682936)scale(0.1 -0.1)">
     <use xlink:href="#DejaVuSans-38"/>
     <use xlink:href="#DejaVuSans-30" x="63.623047"/>
     <use xlink:href="#DejaVuSans-25" x="127.246094"/>
    </g>
   </g>
   <g id="text_68">
    <!-- Contact Email -->
    <g style="fill: #262626" transform="translate(230.459546 303.48)scale(0.12 -0.12)">
     <use xlink:href="#DejaVuSans-43"/>
     <use xlink:href="#DejaVuSans-6f" x="69.824219"/>
     <use xlink:href="#DejaVuSans-6e" x="131.005859"/>
     <use xlink:href="#DejaVuSans-74" x="194.384766"/>
     <use xlink:href="#DejaVuSans-61" x="233.59375"/>
     <use xlink:href="#DejaVuSans-63" x="294.873047"/>
     <use xlink:href="#DejaVuSans-74" x="349.853516"/>
     <use xlink:href="#DejaVuSans-20" x="389.0625"/>
     <use xlink:href="#DejaVuSans-45" x="420.849609"/>
     <use xlink:href="#DejaVuSans-6d" x="484.033203"/>
     <use xlink:href="#DejaVuSans-61" x="581.445312"/>
     <use xlink:href="#DejaVuSans-69" x="642.724609"/>
     <use xlink:href="#DejaVuSans-6c" x="670.507812"/>
    </g>
   </g>
  </g>
  <g id="axes_11">
   <g id="matplotlib.axis_21"/>
   <g id="matplotlib.axis_22"/>
   <g id="patch_31">
    <path d="M 493.470003 340.864509 
C 492.138736 338.558687 490.608794 336.373425 488.897594 334.3336 
C 487.186394 332.293776 485.300454 330.407159 483.261244 328.695227 
L 453.833753 363.748509 
L 493.470003 340.864509 
z
" style="fill: #1f77b4; stroke: #ffffff; stroke-linejoin: miter"/>
   </g>
   <g id="patch_32">
    <path d="M 479.75486 331.636718 
C 475.408754 327.988129 470.421751 325.179442 465.048731 323.354203 
C 459.675712 321.528964 454.009798 320.718809 448.34057 320.965144 
C 442.671341 321.211479 437.097054 322.510034 431.902603 324.794441 
C 426.708153 327.078849 421.983567 330.309517 417.970314 334.321329 
C 413.957062 338.333141 410.724698 343.056567 408.438426 348.250197 
C 406.152154 353.443828 404.851598 359.017648 404.603229 364.686788 
C 404.354859 370.355928 405.16298 376.022132 406.98629 381.395806 
C 408.8096 386.769481 411.616498 391.757491 415.263526 396.104907 
C 418.910554 400.452322 423.334504 404.083795 428.309272 406.813724 
C 433.28404 409.543653 438.723407 411.324726 444.349371 412.065912 
C 449.975336 412.807098 455.690392 412.495553 461.202449 411.147198 
C 466.714506 409.798843 471.928032 407.437049 476.576569 404.182523 
C 481.225106 400.927998 485.228088 396.837147 488.380927 392.119049 
C 491.533765 387.400952 493.781817 382.13738 495.010187 376.597349 
C 496.238557 371.057318 496.425955 365.336846 495.562803 359.728298 
C 494.699652 354.119751 492.80091 348.720334 489.963622 343.806005 
L 450.327369 366.69 
L 479.75486 331.636718 
z
" style="fill: #ff7f0e; stroke: #ffffff; stroke-linejoin: miter"/>
   </g>
   <g id="text_69">
    <!-- Yes -->
    <g style="fill: #262626" transform="translate(492.403978 334.151484)scale(0.1 -0.1)">
     <use xlink:href="#DejaVuSans-59"/>
     <use xlink:href="#DejaVuSans-65" x="47.833984"/>
     <use xlink:href="#DejaVuSans-73" x="109.357422"/>
    </g>
   </g>
   <g id="text_70">
    <!-- 6% -->
    <g style="fill: #262626" transform="translate(466.940026 348.858939)scale(0.1 -0.1)">
     <use xlink:href="#DejaVuSans-36"/>
     <use xlink:href="#DejaVuSans-25" x="63.623047"/>
    </g>
   </g>
   <g id="text_71">
    <!-- No -->
    <g style="fill: #262626" transform="translate(398.157141 401.805772)scale(0.1 -0.1)">
     <use xlink:href="#DejaVuSans-4e"/>
     <use xlink:href="#DejaVuSans-6f" x="74.804688"/>
    </g>
   </g>
   <g id="text_72">
    <!-- 94% -->
    <g style="fill: #262626" transform="translate(418.175782 387.098319)scale(0.1 -0.1)">
     <use xlink:href="#DejaVuSans-39"/>
     <use xlink:href="#DejaVuSans-34" x="63.623047"/>
     <use xlink:href="#DejaVuSans-25" x="127.246094"/>
    </g>
   </g>
   <g id="text_73">
    <!-- Wikidata Database -->
    <g style="fill: #262626" transform="translate(393.670494 303.48)scale(0.12 -0.12)">
     <defs>
      <path id="DejaVuSans-57" d="M 213 4666 
L 850 4666 
L 1831 722 
L 2809 4666 
L 3519 4666 
L 4500 722 
L 5478 4666 
L 6119 4666 
L 4947 0 
L 4153 0 
L 3169 4050 
L 2175 0 
L 1381 0 
L 213 4666 
z
" transform="scale(0.015625)"/>
      <path id="DejaVuSans-6b" d="M 581 4863 
L 1159 4863 
L 1159 1991 
L 2875 3500 
L 3609 3500 
L 1753 1863 
L 3688 0 
L 2938 0 
L 1159 1709 
L 1159 0 
L 581 0 
L 581 4863 
z
" transform="scale(0.015625)"/>
      <path id="DejaVuSans-62" d="M 3116 1747 
Q 3116 2381 2855 2742 
Q 2594 3103 2138 3103 
Q 1681 3103 1420 2742 
Q 1159 2381 1159 1747 
Q 1159 1113 1420 752 
Q 1681 391 2138 391 
Q 2594 391 2855 752 
Q 3116 1113 3116 1747 
z
M 1159 2969 
Q 1341 3281 1617 3432 
Q 1894 3584 2278 3584 
Q 2916 3584 3314 3078 
Q 3713 2572 3713 1747 
Q 3713 922 3314 415 
Q 2916 -91 2278 -91 
Q 1894 -91 1617 61 
Q 1341 213 1159 525 
L 1159 0 
L 581 0 
L 581 4863 
L 1159 4863 
L 1159 2969 
z
" transform="scale(0.015625)"/>
     </defs>
     <use xlink:href="#DejaVuSans-57"/>
     <use xlink:href="#DejaVuSans-69" x="96.626953"/>
     <use xlink:href="#DejaVuSans-6b" x="124.410156"/>
     <use xlink:href="#DejaVuSans-69" x="182.320312"/>
     <use xlink:href="#DejaVuSans-64" x="210.103516"/>
     <use xlink:href="#DejaVuSans-61" x="273.580078"/>
     <use xlink:href="#DejaVuSans-74" x="334.859375"/>
     <use xlink:href="#DejaVuSans-61" x="374.068359"/>
     <use xlink:href="#DejaVuSans-20" x="435.347656"/>
     <use xlink:href="#DejaVuSans-44" x="467.134766"/>
     <use xlink:href="#DejaVuSans-61" x="544.136719"/>
     <use xlink:href="#DejaVuSans-74" x="605.416016"/>
     <use xlink:href="#DejaVuSans-61" x="644.625"/>
     <use xlink:href="#DejaVuSans-62" x="705.904297"/>
     <use xlink:href="#DejaVuSans-61" x="769.380859"/>
     <use xlink:href="#DejaVuSans-73" x="830.660156"/>
     <use xlink:href="#DejaVuSans-65" x="882.759766"/>
    </g>
   </g>
  </g>
  <g id="axes_12">
   <g id="matplotlib.axis_23"/>
   <g id="matplotlib.axis_24"/>
   <g id="patch_33">
    <path d="M 671.076021 340.477583 
C 668.85475 336.630229 666.085094 333.126709 662.854314 330.077408 
C 659.623534 327.028107 655.965922 324.465389 651.996718 322.469997 
L 631.439771 363.361583 
L 671.076021 340.477583 
z
" style="fill: #1f77b4; stroke: #ffffff; stroke-linejoin: miter"/>
   </g>
   <g id="patch_34">
    <path d="M 648.855263 325.798415 
C 643.985032 323.350061 638.716337 321.791356 633.297941 321.195895 
C 627.879546 320.600435 622.39809 320.97774 617.112385 322.309996 
C 611.82668 323.642252 606.821244 325.908156 602.332412 329.000723 
C 597.843579 332.093289 593.943127 335.963068 590.815217 340.427344 
C 587.687307 344.891621 585.381955 349.879011 584.008009 355.154033 
C 582.634063 360.429055 582.213493 365.907361 582.766157 371.330289 
C 583.31882 376.753217 584.835879 382.034054 587.245706 386.923463 
C 589.655533 391.812873 592.919594 396.232671 596.883774 399.974176 
C 600.847955 403.715681 605.448867 406.719065 610.469277 408.842523 
C 615.489686 410.96598 620.849317 412.175556 626.29511 412.41414 
C 631.740903 412.652724 637.18578 411.916501 642.372659 410.240232 
C 647.559537 408.563963 652.405478 405.974452 656.681678 402.593964 
C 660.957878 399.213475 664.595959 395.096065 667.424149 390.436137 
C 670.252339 385.776209 672.225414 380.648277 673.250214 375.294458 
C 674.275014 369.94064 674.335153 364.446544 673.42779 359.071576 
C 672.520428 353.696608 670.660074 348.526715 667.934565 343.805996 
L 628.298316 366.69 
L 648.855263 325.798415 
z
" style="fill: #ff7f0e; stroke: #ffffff; stroke-linejoin: miter"/>
   </g>
   <g id="text_74">
    <!-- Yes -->
    <g style="fill: #262626" transform="translate(665.995768 329.508366)scale(0.1 -0.1)">
     <use xlink:href="#DejaVuSans-59"/>
     <use xlink:href="#DejaVuSans-65" x="47.833984"/>
     <use xlink:href="#DejaVuSans-73" x="109.357422"/>
    </g>
   </g>
   <g id="text_75">
    <!-- 9% -->
    <g style="fill: #262626" transform="translate(642.356465 346.150453)scale(0.1 -0.1)">
     <use xlink:href="#DejaVuSans-39"/>
     <use xlink:href="#DejaVuSans-25" x="63.623047"/>
    </g>
   </g>
   <g id="text_76">
    <!-- No -->
    <g style="fill: #262626" transform="translate(580.14232 406.061969)scale(0.1 -0.1)">
     <use xlink:href="#DejaVuSans-4e"/>
     <use xlink:href="#DejaVuSans-6f" x="74.804688"/>
    </g>
   </g>
   <g id="text_77">
    <!-- 91% -->
    <g style="fill: #262626" transform="translate(598.33631 389.419881)scale(0.1 -0.1)">
     <use xlink:href="#DejaVuSans-39"/>
     <use xlink:href="#DejaVuSans-31" x="63.623047"/>
     <use xlink:href="#DejaVuSans-25" x="127.246094"/>
    </g>
   </g>
   <g id="text_78">
    <!-- OBO -->
    <g style="fill: #262626" transform="translate(614.840504 303.48)scale(0.12 -0.12)">
     <defs>
      <path id="DejaVuSans-4f" d="M 2522 4238 
Q 1834 4238 1429 3725 
Q 1025 3213 1025 2328 
Q 1025 1447 1429 934 
Q 1834 422 2522 422 
Q 3209 422 3611 934 
Q 4013 1447 4013 2328 
Q 4013 3213 3611 3725 
Q 3209 4238 2522 4238 
z
M 2522 4750 
Q 3503 4750 4090 4092 
Q 4678 3434 4678 2328 
Q 4678 1225 4090 567 
Q 3503 -91 2522 -91 
Q 1538 -91 948 565 
Q 359 1222 359 2328 
Q 359 3434 948 4092 
Q 1538 4750 2522 4750 
z
" transform="scale(0.015625)"/>
     </defs>
     <use xlink:href="#DejaVuSans-4f"/>
     <use xlink:href="#DejaVuSans-42" x="78.710938"/>
     <use xlink:href="#DejaVuSans-4f" x="145.564453"/>
    </g>
   </g>
  </g>
  <g id="axes_13">
   <g id="matplotlib.axis_25"/>
   <g id="matplotlib.axis_26"/>
   <g id="patch_35">
    <path d="M 135.827294 480.900406 
C 130.891058 472.350594 123.318493 465.623209 114.246738 461.728471 
C 105.174984 457.833733 95.082054 456.976868 85.483559 459.286546 
L 96.191043 503.784406 
L 135.827294 480.900406 
z
" style="fill: #1f77b4; stroke: #ffffff; stroke-linejoin: miter"/>
   </g>
   <g id="patch_36">
    <path d="M 83.677989 463.492139 
C 79.033528 464.609732 74.592544 466.447615 70.51659 468.938928 
C 66.440637 471.430242 62.779745 474.544406 59.667089 478.168136 
C 56.554434 481.791865 54.028222 485.880679 52.18035 490.285837 
C 50.332479 494.690994 49.185631 499.358423 48.781526 504.118333 
C 48.377421 508.878242 48.721019 513.672206 49.799821 518.325831 
C 50.878623 522.979456 52.679387 527.435621 55.136604 531.532219 
C 57.593822 535.628818 60.677333 539.315566 64.274965 542.458349 
C 67.872597 545.601132 71.940191 548.161372 76.329777 550.045935 
C 80.719363 551.930497 85.37706 553.116249 90.133432 553.560056 
C 94.889804 554.003862 99.686468 553.700276 104.348932 552.66034 
C 109.011397 551.620405 113.482431 549.856885 117.59939 547.433934 
C 121.716348 545.010983 125.428696 541.958341 128.601387 538.387057 
C 131.774079 534.815773 134.368169 530.769683 136.289292 526.395974 
C 138.210414 522.022265 139.434988 517.374624 139.918465 512.62212 
C 140.401942 507.869617 140.138389 503.070587 139.137392 498.399608 
C 138.136395 493.728629 136.410242 489.243035 134.021727 485.106004 
L 94.385474 507.99 
L 83.677989 463.492139 
z
" style="fill: #ff7f0e; stroke: #ffffff; stroke-linejoin: miter"/>
   </g>
   <g id="text_79">
    <!-- Yes -->
    <g style="fill: #262626" transform="translate(116.052308 460.282253)scale(0.1 -0.1)">
     <use xlink:href="#DejaVuSans-59"/>
     <use xlink:href="#DejaVuSans-65" x="47.833984"/>
     <use xlink:href="#DejaVuSans-73" x="109.357422"/>
    </g>
   </g>
   <g id="text_80">
    <!-- 20% -->
    <g style="fill: #262626" transform="translate(95.911179 481.31022)scale(0.1 -0.1)">
     <use xlink:href="#DejaVuSans-32"/>
     <use xlink:href="#DejaVuSans-30" x="63.623047"/>
     <use xlink:href="#DejaVuSans-25" x="127.246094"/>
    </g>
   </g>
   <g id="text_81">
    <!-- No -->
    <g style="fill: #262626" transform="translate(60.924207 557.010903)scale(0.1 -0.1)">
     <use xlink:href="#DejaVuSans-4e"/>
     <use xlink:href="#DejaVuSans-6f" x="74.804688"/>
    </g>
   </g>
   <g id="text_82">
    <!-- 80% -->
    <g style="fill: #262626" transform="translate(72.438774 535.982936)scale(0.1 -0.1)">
     <use xlink:href="#DejaVuSans-38"/>
     <use xlink:href="#DejaVuSans-30" x="63.623047"/>
     <use xlink:href="#DejaVuSans-25" x="127.246094"/>
    </g>
   </g>
   <g id="text_83">
    <!-- OWL -->
    <g style="fill: #262626" transform="translate(80.386724 444.78)scale(0.12 -0.12)">
     <use xlink:href="#DejaVuSans-4f"/>
     <use xlink:href="#DejaVuSans-57" x="78.710938"/>
     <use xlink:href="#DejaVuSans-4c" x="177.587891"/>
    </g>
   </g>
  </g>
  <g id="axes_14">
   <g id="matplotlib.axis_27"/>
   <g id="matplotlib.axis_28"/>
   <g id="patch_37">
    <path d="M 315.854103 482.649081 
C 315.52559 482.08008 315.184863 481.51822 314.832158 480.96389 
C 314.479454 480.40956 314.114854 479.862889 313.738611 479.324258 
L 276.217852 505.533081 
L 315.854103 482.649081 
z
" style="fill: #1f77b4; stroke: #ffffff; stroke-linejoin: miter"/>
   </g>
   <g id="patch_38">
    <path d="M 309.877181 481.781177 
C 306.482943 476.921958 302.176845 472.768061 297.198682 469.550803 
C 292.220519 466.333544 286.664445 464.113775 280.839861 463.015106 
C 275.015276 461.916437 269.032345 461.959649 263.224237 463.142335 
C 257.41613 464.325021 251.892698 466.624813 246.961526 469.913641 
C 242.030353 473.20247 237.784705 477.418132 234.461009 482.325871 
C 231.137312 487.23361 228.79843 492.740603 227.574608 498.540182 
C 226.350786 504.33976 226.265171 510.322236 227.322529 516.154461 
C 228.379888 521.986686 230.560223 527.558353 233.742117 532.559194 
C 236.924011 537.560035 241.047284 541.895465 245.882323 545.324059 
C 250.717362 548.752652 256.17272 551.209562 261.944605 552.557969 
C 267.71649 553.906377 273.695734 554.120781 279.549373 553.18924 
C 285.403012 552.257699 291.020333 550.197832 296.088523 547.124348 
C 301.156713 544.050864 305.579916 540.021892 309.111817 535.261794 
C 312.643717 530.501696 315.217516 525.100501 316.689884 519.358987 
C 318.162253 513.617473 318.505345 507.64423 317.700053 501.771891 
C 316.894762 495.899553 314.956318 490.239184 311.992668 485.105994 
L 272.356421 507.99 
L 309.877181 481.781177 
z
" style="fill: #ff7f0e; stroke: #ffffff; stroke-linejoin: miter"/>
   </g>
   <g id="text_84">
    <!-- Yes -->
    <g style="fill: #262626" transform="translate(318.693589 481.266346)scale(0.1 -0.1)">
     <use xlink:href="#DejaVuSans-59"/>
     <use xlink:href="#DejaVuSans-65" x="47.833984"/>
     <use xlink:href="#DejaVuSans-73" x="109.357422"/>
    </g>
   </g>
   <g id="text_85">
    <!-- 1% -->
    <g style="fill: #262626" transform="translate(291.454405 493.550941)scale(0.1 -0.1)">
     <use xlink:href="#DejaVuSans-31"/>
     <use xlink:href="#DejaVuSans-25" x="63.623047"/>
    </g>
   </g>
   <g id="text_86">
    <!-- No -->
    <g style="fill: #262626" transform="translate(216.280686 537.775488)scale(0.1 -0.1)">
     <use xlink:href="#DejaVuSans-4e"/>
     <use xlink:href="#DejaVuSans-6f" x="74.804688"/>
    </g>
   </g>
   <g id="text_87">
    <!-- 99% -->
    <g style="fill: #262626" transform="translate(238.074557 525.490891)scale(0.1 -0.1)">
     <use xlink:href="#DejaVuSans-39"/>
     <use xlink:href="#DejaVuSans-39" x="63.623047"/>
     <use xlink:href="#DejaVuSans-25" x="127.246094"/>
    </g>
   </g>
   <g id="text_88">
    <!-- JSON -->
    <g style="fill: #262626" transform="translate(257.565484 444.78)scale(0.12 -0.12)">
     <defs>
      <path id="DejaVuSans-4a" d="M 628 4666 
L 1259 4666 
L 1259 325 
Q 1259 -519 939 -900 
Q 619 -1281 -91 -1281 
L -331 -1281 
L -331 -750 
L -134 -750 
Q 284 -750 456 -515 
Q 628 -281 628 325 
L 628 4666 
z
" transform="scale(0.015625)"/>
     </defs>
     <use xlink:href="#DejaVuSans-4a"/>
     <use xlink:href="#DejaVuSans-53" x="29.492188"/>
     <use xlink:href="#DejaVuSans-4f" x="92.96875"/>
     <use xlink:href="#DejaVuSans-4e" x="171.679688"/>
    </g>
   </g>
  </g>
  <g id="axes_15"/>
  <g id="axes_16"/>
  <g id="text_89">
   <!-- https://github.com/biopragmatics/bioregistry (2022-09-05) -->
   <g style="fill: #808080; opacity: 0.5" transform="translate(278.67625 574.33625)scale(0.08 -0.08)">
    <defs>
     <path id="DejaVuSans-3a" d="M 750 794 
L 1409 794 
L 1409 0 
L 750 0 
L 750 794 
z
M 750 3309 
L 1409 3309 
L 1409 2516 
L 750 2516 
L 750 3309 
z
" transform="scale(0.015625)"/>
     <path id="DejaVuSans-2f" d="M 1625 4666 
L 2156 4666 
L 531 -594 
L 0 -594 
L 1625 4666 
z
" transform="scale(0.015625)"/>
     <path id="DejaVuSans-75" d="M 544 1381 
L 544 3500 
L 1119 3500 
L 1119 1403 
Q 1119 906 1312 657 
Q 1506 409 1894 409 
Q 2359 409 2629 706 
Q 2900 1003 2900 1516 
L 2900 3500 
L 3475 3500 
L 3475 0 
L 2900 0 
L 2900 538 
Q 2691 219 2414 64 
Q 2138 -91 1772 -91 
Q 1169 -91 856 284 
Q 544 659 544 1381 
z
M 1991 3584 
L 1991 3584 
z
" transform="scale(0.015625)"/>
     <path id="DejaVuSans-28" d="M 1984 4856 
Q 1566 4138 1362 3434 
Q 1159 2731 1159 2009 
Q 1159 1288 1364 580 
Q 1569 -128 1984 -844 
L 1484 -844 
Q 1016 -109 783 600 
Q 550 1309 550 2009 
Q 550 2706 781 3412 
Q 1013 4119 1484 4856 
L 1984 4856 
z
" transform="scale(0.015625)"/>
     <path id="DejaVuSans-29" d="M 513 4856 
L 1013 4856 
Q 1481 4119 1714 3412 
Q 1947 2706 1947 2009 
Q 1947 1309 1714 600 
Q 1481 -109 1013 -844 
L 513 -844 
Q 928 -128 1133 580 
Q 1338 1288 1338 2009 
Q 1338 2731 1133 3434 
Q 928 4138 513 4856 
z
" transform="scale(0.015625)"/>
    </defs>
    <use xlink:href="#DejaVuSans-68"/>
    <use xlink:href="#DejaVuSans-74" x="63.378906"/>
    <use xlink:href="#DejaVuSans-74" x="102.587891"/>
    <use xlink:href="#DejaVuSans-70" x="141.796875"/>
    <use xlink:href="#DejaVuSans-73" x="205.273438"/>
    <use xlink:href="#DejaVuSans-3a" x="257.373047"/>
    <use xlink:href="#DejaVuSans-2f" x="291.064453"/>
    <use xlink:href="#DejaVuSans-2f" x="324.755859"/>
    <use xlink:href="#DejaVuSans-67" x="358.447266"/>
    <use xlink:href="#DejaVuSans-69" x="421.923828"/>
    <use xlink:href="#DejaVuSans-74" x="449.707031"/>
    <use xlink:href="#DejaVuSans-68" x="488.916016"/>
    <use xlink:href="#DejaVuSans-75" x="552.294922"/>
    <use xlink:href="#DejaVuSans-62" x="615.673828"/>
    <use xlink:href="#DejaVuSans-2e" x="679.150391"/>
    <use xlink:href="#DejaVuSans-63" x="710.9375"/>
    <use xlink:href="#DejaVuSans-6f" x="765.917969"/>
    <use xlink:href="#DejaVuSans-6d" x="827.099609"/>
    <use xlink:href="#DejaVuSans-2f" x="924.511719"/>
    <use xlink:href="#DejaVuSans-62" x="958.203125"/>
    <use xlink:href="#DejaVuSans-69" x="1021.679688"/>
    <use xlink:href="#DejaVuSans-6f" x="1049.462891"/>
    <use xlink:href="#DejaVuSans-70" x="1110.644531"/>
    <use xlink:href="#DejaVuSans-72" x="1174.121094"/>
    <use xlink:href="#DejaVuSans-61" x="1215.234375"/>
    <use xlink:href="#DejaVuSans-67" x="1276.513672"/>
    <use xlink:href="#DejaVuSans-6d" x="1339.990234"/>
    <use xlink:href="#DejaVuSans-61" x="1437.402344"/>
    <use xlink:href="#DejaVuSans-74" x="1498.681641"/>
    <use xlink:href="#DejaVuSans-69" x="1537.890625"/>
    <use xlink:href="#DejaVuSans-63" x="1565.673828"/>
    <use xlink:href="#DejaVuSans-73" x="1620.654297"/>
    <use xlink:href="#DejaVuSans-2f" x="1672.753906"/>
    <use xlink:href="#DejaVuSans-62" x="1706.445312"/>
    <use xlink:href="#DejaVuSans-69" x="1769.921875"/>
    <use xlink:href="#DejaVuSans-6f" x="1797.705078"/>
    <use xlink:href="#DejaVuSans-72" x="1858.886719"/>
    <use xlink:href="#DejaVuSans-65" x="1897.75"/>
    <use xlink:href="#DejaVuSans-67" x="1959.273438"/>
    <use xlink:href="#DejaVuSans-69" x="2022.75"/>
    <use xlink:href="#DejaVuSans-73" x="2050.533203"/>
    <use xlink:href="#DejaVuSans-74" x="2102.632812"/>
    <use xlink:href="#DejaVuSans-72" x="2141.841797"/>
    <use xlink:href="#DejaVuSans-79" x="2182.955078"/>
    <use xlink:href="#DejaVuSans-20" x="2242.134766"/>
    <use xlink:href="#DejaVuSans-28" x="2273.921875"/>
    <use xlink:href="#DejaVuSans-32" x="2312.935547"/>
    <use xlink:href="#DejaVuSans-30" x="2376.558594"/>
    <use xlink:href="#DejaVuSans-32" x="2440.181641"/>
    <use xlink:href="#DejaVuSans-32" x="2503.804688"/>
    <use xlink:href="#DejaVuSans-2d" x="2567.427734"/>
    <use xlink:href="#DejaVuSans-30" x="2603.511719"/>
    <use xlink:href="#DejaVuSans-39" x="2667.134766"/>
    <use xlink:href="#DejaVuSans-2d" x="2730.757812"/>
    <use xlink:href="#DejaVuSans-30" x="2766.841797"/>
    <use xlink:href="#DejaVuSans-35" x="2830.464844"/>
    <use xlink:href="#DejaVuSans-29" x="2894.087891"/>
   </g>
  </g>
 </g>
</svg>
