<?xml version="1.0" encoding="utf-8" standalone="no"?>
<!DOCTYPE svg PUBLIC "-//W3C//DTD SVG 1.1//EN"
  "http://www.w3.org/Graphics/SVG/1.1/DTD/svg11.dtd">
<svg xmlns:xlink="http://www.w3.org/1999/xlink" width="792pt" height="576pt" viewBox="0 0 792 576" xmlns="http://www.w3.org/2000/svg" version="1.1">
 <metadata>
  <rdf:RDF xmlns:dc="http://purl.org/dc/elements/1.1/" xmlns:cc="http://creativecommons.org/ns#" xmlns:rdf="http://www.w3.org/1999/02/22-rdf-syntax-ns#">
   <cc:Work>
    <dc:type rdf:resource="http://purl.org/dc/dcmitype/StillImage"/>
    <dc:date>2022-11-10T13:41:55.736589</dc:date>
    <dc:format>image/svg+xml</dc:format>
    <dc:creator>
     <cc:Agent>
      <dc:title>Matplotlib v3.6.0, https://matplotlib.org/</dc:title>
     </cc:Agent>
    </dc:creator>
   </cc:Work>
  </rdf:RDF>
 </metadata>
 <defs>
  <style type="text/css">*{stroke-linejoin: round; stroke-linecap: butt}</style>
 </defs>
 <g id="figure_1">
  <g id="patch_1">
   <path d="M 0 576 
L 792 576 
L 792 0 
L 0 0 
z
" style="fill: #ffffff"/>
  </g>
  <g id="axes_1">
   <g id="matplotlib.axis_1"/>
   <g id="matplotlib.axis_2"/>
   <g id="patch_2">
    <path d="M 137.54192 61.360479 
C 134.773606 56.565619 131.168215 52.305489 126.897053 48.782505 
C 122.625891 45.259521 117.757695 42.530379 112.523772 40.724751 
C 107.289849 38.919124 101.774429 38.066068 96.239574 38.206118 
C 90.704719 38.346168 85.239499 39.477069 80.103592 41.545087 
C 74.967685 43.613105 70.243743 46.584959 66.156218 50.319445 
C 62.068694 54.053931 58.683368 58.490948 56.161093 63.419677 
C 53.638818 68.348406 52.020184 73.689527 51.382099 79.189262 
C 50.744014 84.688998 51.096747 90.258839 52.423537 95.634141 
C 53.750328 101.009442 56.029825 106.103698 59.15372 110.674861 
C 62.277614 115.246023 66.195633 119.220527 70.721615 122.409527 
C 75.247598 125.598527 80.308706 127.950704 85.664467 129.354294 
C 91.020228 130.757885 96.58445 131.190301 102.092755 130.630998 
C 107.601059 130.071695 112.964801 128.529673 117.929125 126.0782 
C 122.89345 123.626727 127.378467 120.305254 131.171074 116.2716 
C 134.963681 112.237945 138.002844 107.557021 140.144159 102.451239 
C 142.285474 97.345458 143.494482 91.896985 143.713736 86.364701 
L 97.41171 84.529666 
L 137.54192 61.360479 
z
" style="fill: #1f77b4; stroke: #ffffff; stroke-linejoin: miter"/>
   </g>
   <g id="patch_3">
    <path d="M 148.212553 85.254253 
C 148.385089 80.900792 147.942777 76.544673 146.898699 72.314744 
C 145.854622 68.084816 144.219176 64.023199 142.040737 60.250031 
L 101.910527 83.419219 
L 148.212553 85.254253 
z
" style="fill: #ff7f0e; stroke: #ffffff; stroke-linejoin: miter"/>
   </g>
   <g id="text_1">
    <!-- Yes -->
    <g style="fill: #262626" transform="translate(31.60597 99.329744) scale(0.1 -0.1)">
     <defs>
      <path id="ArialMT-59" d="M 1784 0 
L 1784 1941 
L 19 4581 
L 756 4581 
L 1659 3200 
Q 1909 2813 2125 2425 
Q 2331 2784 2625 3234 
L 3513 4581 
L 4219 4581 
L 2391 1941 
L 2391 0 
L 1784 0 
z
" transform="scale(0.015625)"/>
      <path id="ArialMT-65" d="M 2694 1069 
L 3275 997 
Q 3138 488 2766 206 
Q 2394 -75 1816 -75 
Q 1088 -75 661 373 
Q 234 822 234 1631 
Q 234 2469 665 2931 
Q 1097 3394 1784 3394 
Q 2450 3394 2872 2941 
Q 3294 2488 3294 1666 
Q 3294 1616 3291 1516 
L 816 1516 
Q 847 969 1125 678 
Q 1403 388 1819 388 
Q 2128 388 2347 550 
Q 2566 713 2694 1069 
z
M 847 1978 
L 2700 1978 
Q 2663 2397 2488 2606 
Q 2219 2931 1791 2931 
Q 1403 2931 1139 2672 
Q 875 2413 847 1978 
z
" transform="scale(0.015625)"/>
      <path id="ArialMT-73" d="M 197 991 
L 753 1078 
Q 800 744 1014 566 
Q 1228 388 1613 388 
Q 2000 388 2187 545 
Q 2375 703 2375 916 
Q 2375 1106 2209 1216 
Q 2094 1291 1634 1406 
Q 1016 1563 777 1677 
Q 538 1791 414 1992 
Q 291 2194 291 2438 
Q 291 2659 392 2848 
Q 494 3038 669 3163 
Q 800 3259 1026 3326 
Q 1253 3394 1513 3394 
Q 1903 3394 2198 3281 
Q 2494 3169 2634 2976 
Q 2775 2784 2828 2463 
L 2278 2388 
Q 2241 2644 2061 2787 
Q 1881 2931 1553 2931 
Q 1166 2931 1000 2803 
Q 834 2675 834 2503 
Q 834 2394 903 2306 
Q 972 2216 1119 2156 
Q 1203 2125 1616 2013 
Q 2213 1853 2448 1751 
Q 2684 1650 2818 1456 
Q 2953 1263 2953 975 
Q 2953 694 2789 445 
Q 2625 197 2315 61 
Q 2006 -75 1616 -75 
Q 969 -75 630 194 
Q 291 463 197 991 
z
" transform="scale(0.015625)"/>
     </defs>
     <use xlink:href="#ArialMT-59"/>
     <use xlink:href="#ArialMT-65" x="57.574219"/>
     <use xlink:href="#ArialMT-73" x="113.189453"/>
    </g>
   </g>
   <g id="text_2">
    <!-- 91% -->
    <g style="fill: #262626" transform="translate(60.411775 93.777507) scale(0.1 -0.1)">
     <defs>
      <path id="ArialMT-39" d="M 350 1059 
L 891 1109 
Q 959 728 1153 556 
Q 1347 384 1650 384 
Q 1909 384 2104 503 
Q 2300 622 2425 820 
Q 2550 1019 2634 1356 
Q 2719 1694 2719 2044 
Q 2719 2081 2716 2156 
Q 2547 1888 2255 1720 
Q 1963 1553 1622 1553 
Q 1053 1553 659 1965 
Q 266 2378 266 3053 
Q 266 3750 677 4175 
Q 1088 4600 1706 4600 
Q 2153 4600 2523 4359 
Q 2894 4119 3086 3673 
Q 3278 3228 3278 2384 
Q 3278 1506 3087 986 
Q 2897 466 2520 194 
Q 2144 -78 1638 -78 
Q 1100 -78 759 220 
Q 419 519 350 1059 
z
M 2653 3081 
Q 2653 3566 2395 3850 
Q 2138 4134 1775 4134 
Q 1400 4134 1122 3828 
Q 844 3522 844 3034 
Q 844 2597 1108 2323 
Q 1372 2050 1759 2050 
Q 2150 2050 2401 2323 
Q 2653 2597 2653 3081 
z
" transform="scale(0.015625)"/>
      <path id="ArialMT-31" d="M 2384 0 
L 1822 0 
L 1822 3584 
Q 1619 3391 1289 3197 
Q 959 3003 697 2906 
L 697 3450 
Q 1169 3672 1522 3987 
Q 1875 4303 2022 4600 
L 2384 4600 
L 2384 0 
z
" transform="scale(0.015625)"/>
      <path id="ArialMT-25" d="M 372 3481 
Q 372 3972 619 4315 
Q 866 4659 1334 4659 
Q 1766 4659 2048 4351 
Q 2331 4044 2331 3447 
Q 2331 2866 2045 2552 
Q 1759 2238 1341 2238 
Q 925 2238 648 2547 
Q 372 2856 372 3481 
z
M 1350 4272 
Q 1141 4272 1002 4090 
Q 863 3909 863 3425 
Q 863 2984 1003 2804 
Q 1144 2625 1350 2625 
Q 1563 2625 1702 2806 
Q 1841 2988 1841 3469 
Q 1841 3913 1700 4092 
Q 1559 4272 1350 4272 
z
M 1353 -169 
L 3859 4659 
L 4316 4659 
L 1819 -169 
L 1353 -169 
z
M 3334 1075 
Q 3334 1569 3581 1911 
Q 3828 2253 4300 2253 
Q 4731 2253 5014 1945 
Q 5297 1638 5297 1041 
Q 5297 459 5011 145 
Q 4725 -169 4303 -169 
Q 3888 -169 3611 142 
Q 3334 453 3334 1075 
z
M 4316 1866 
Q 4103 1866 3964 1684 
Q 3825 1503 3825 1019 
Q 3825 581 3965 400 
Q 4106 219 4313 219 
Q 4528 219 4667 400 
Q 4806 581 4806 1063 
Q 4806 1506 4665 1686 
Q 4525 1866 4316 1866 
z
" transform="scale(0.015625)"/>
     </defs>
     <use xlink:href="#ArialMT-39"/>
     <use xlink:href="#ArialMT-31" x="55.615234"/>
     <use xlink:href="#ArialMT-25" x="111.230469"/>
    </g>
   </g>
   <g id="text_3">
    <!-- No -->
    <g style="fill: #262626" transform="translate(151.397517 73.789453) scale(0.1 -0.1)">
     <defs>
      <path id="ArialMT-4e" d="M 488 0 
L 488 4581 
L 1109 4581 
L 3516 984 
L 3516 4581 
L 4097 4581 
L 4097 0 
L 3475 0 
L 1069 3600 
L 1069 0 
L 488 0 
z
" transform="scale(0.015625)"/>
      <path id="ArialMT-6f" d="M 213 1659 
Q 213 2581 725 3025 
Q 1153 3394 1769 3394 
Q 2453 3394 2887 2945 
Q 3322 2497 3322 1706 
Q 3322 1066 3130 698 
Q 2938 331 2570 128 
Q 2203 -75 1769 -75 
Q 1072 -75 642 372 
Q 213 819 213 1659 
z
M 791 1659 
Q 791 1022 1069 705 
Q 1347 388 1769 388 
Q 2188 388 2466 706 
Q 2744 1025 2744 1678 
Q 2744 2294 2464 2611 
Q 2184 2928 1769 2928 
Q 1347 2928 1069 2612 
Q 791 2297 791 1659 
z
" transform="scale(0.015625)"/>
     </defs>
     <use xlink:href="#ArialMT-4e"/>
     <use xlink:href="#ArialMT-6f" x="72.216797"/>
    </g>
   </g>
   <g id="text_4">
    <!-- 9% -->
    <g style="fill: #262626" transform="translate(121.676868 79.34169) scale(0.1 -0.1)">
     <use xlink:href="#ArialMT-39"/>
     <use xlink:href="#ArialMT-25" x="55.615234"/>
    </g>
   </g>
   <g id="text_5">
    <!-- Name -->
    <g style="fill: #262626" transform="translate(85.906464 19.49625) scale(0.12 -0.12)">
     <defs>
      <path id="ArialMT-61" d="M 2588 409 
Q 2275 144 1986 34 
Q 1697 -75 1366 -75 
Q 819 -75 525 192 
Q 231 459 231 875 
Q 231 1119 342 1320 
Q 453 1522 633 1644 
Q 813 1766 1038 1828 
Q 1203 1872 1538 1913 
Q 2219 1994 2541 2106 
Q 2544 2222 2544 2253 
Q 2544 2597 2384 2738 
Q 2169 2928 1744 2928 
Q 1347 2928 1158 2789 
Q 969 2650 878 2297 
L 328 2372 
Q 403 2725 575 2942 
Q 747 3159 1072 3276 
Q 1397 3394 1825 3394 
Q 2250 3394 2515 3294 
Q 2781 3194 2906 3042 
Q 3031 2891 3081 2659 
Q 3109 2516 3109 2141 
L 3109 1391 
Q 3109 606 3145 398 
Q 3181 191 3288 0 
L 2700 0 
Q 2613 175 2588 409 
z
M 2541 1666 
Q 2234 1541 1622 1453 
Q 1275 1403 1131 1340 
Q 988 1278 909 1158 
Q 831 1038 831 891 
Q 831 666 1001 516 
Q 1172 366 1500 366 
Q 1825 366 2078 508 
Q 2331 650 2450 897 
Q 2541 1088 2541 1459 
L 2541 1666 
z
" transform="scale(0.015625)"/>
      <path id="ArialMT-6d" d="M 422 0 
L 422 3319 
L 925 3319 
L 925 2853 
Q 1081 3097 1340 3245 
Q 1600 3394 1931 3394 
Q 2300 3394 2536 3241 
Q 2772 3088 2869 2813 
Q 3263 3394 3894 3394 
Q 4388 3394 4653 3120 
Q 4919 2847 4919 2278 
L 4919 0 
L 4359 0 
L 4359 2091 
Q 4359 2428 4304 2576 
Q 4250 2725 4106 2815 
Q 3963 2906 3769 2906 
Q 3419 2906 3187 2673 
Q 2956 2441 2956 1928 
L 2956 0 
L 2394 0 
L 2394 2156 
Q 2394 2531 2256 2718 
Q 2119 2906 1806 2906 
Q 1569 2906 1367 2781 
Q 1166 2656 1075 2415 
Q 984 2175 984 1722 
L 984 0 
L 422 0 
z
" transform="scale(0.015625)"/>
     </defs>
     <use xlink:href="#ArialMT-4e"/>
     <use xlink:href="#ArialMT-61" x="72.216797"/>
     <use xlink:href="#ArialMT-6d" x="127.832031"/>
     <use xlink:href="#ArialMT-65" x="211.132812"/>
    </g>
   </g>
  </g>
  <g id="axes_2">
   <g id="matplotlib.axis_3"/>
   <g id="matplotlib.axis_4"/>
   <g id="patch_4">
    <path d="M 330.562974 61.360479 
C 327.79466 56.565619 324.189269 52.305489 319.918107 48.782505 
C 315.646945 45.259521 310.778748 42.530379 305.544826 40.724751 
C 300.310903 38.919124 294.795483 38.066068 289.260628 38.206118 
C 283.725772 38.346168 278.260553 39.477069 273.124646 41.545087 
C 267.988739 43.613105 263.264796 46.584959 259.177272 50.319445 
C 255.089748 54.053931 251.704422 58.490948 249.182147 63.419677 
C 246.659872 68.348406 245.041238 73.689527 244.403153 79.189262 
C 243.765068 84.688998 244.117801 90.258839 245.444591 95.634141 
C 246.771382 101.009442 249.050879 106.103698 252.174774 110.674861 
C 255.298668 115.246023 259.216687 119.220527 263.742669 122.409527 
C 268.268651 125.598527 273.32976 127.950704 278.685521 129.354294 
C 284.041282 130.757885 289.605504 131.190301 295.113809 130.630998 
C 300.622113 130.071695 305.985855 128.529673 310.950179 126.0782 
C 315.914504 123.626727 320.399521 120.305254 324.192128 116.2716 
C 327.984735 112.237945 331.023898 107.557021 333.165213 102.451239 
C 335.306528 97.345458 336.515535 91.896985 336.73479 86.364701 
L 290.432764 84.529666 
L 330.562974 61.360479 
z
" style="fill: #1f77b4; stroke: #ffffff; stroke-linejoin: miter"/>
   </g>
   <g id="patch_5">
    <path d="M 341.233607 85.254253 
C 341.406143 80.900792 340.963831 76.544673 339.919753 72.314744 
C 338.875676 68.084816 337.24023 64.023199 335.061791 60.250031 
L 294.931581 83.419219 
L 341.233607 85.254253 
z
" style="fill: #ff7f0e; stroke: #ffffff; stroke-linejoin: miter"/>
   </g>
   <g id="text_6">
    <!-- Yes -->
    <g style="fill: #262626" transform="translate(224.627024 99.329744) scale(0.1 -0.1)">
     <use xlink:href="#ArialMT-59"/>
     <use xlink:href="#ArialMT-65" x="57.574219"/>
     <use xlink:href="#ArialMT-73" x="113.189453"/>
    </g>
   </g>
   <g id="text_7">
    <!-- 91% -->
    <g style="fill: #262626" transform="translate(253.432829 93.777507) scale(0.1 -0.1)">
     <use xlink:href="#ArialMT-39"/>
     <use xlink:href="#ArialMT-31" x="55.615234"/>
     <use xlink:href="#ArialMT-25" x="111.230469"/>
    </g>
   </g>
   <g id="text_8">
    <!-- No -->
    <g style="fill: #262626" transform="translate(344.41857 73.789453) scale(0.1 -0.1)">
     <use xlink:href="#ArialMT-4e"/>
     <use xlink:href="#ArialMT-6f" x="72.216797"/>
    </g>
   </g>
   <g id="text_9">
    <!-- 9% -->
    <g style="fill: #262626" transform="translate(314.697922 79.34169) scale(0.1 -0.1)">
     <use xlink:href="#ArialMT-39"/>
     <use xlink:href="#ArialMT-25" x="55.615234"/>
    </g>
   </g>
   <g id="text_10">
    <!-- Homepage -->
    <g style="fill: #262626" transform="translate(265.581268 19.49625) scale(0.12 -0.12)">
     <defs>
      <path id="ArialMT-48" d="M 513 0 
L 513 4581 
L 1119 4581 
L 1119 2700 
L 3500 2700 
L 3500 4581 
L 4106 4581 
L 4106 0 
L 3500 0 
L 3500 2159 
L 1119 2159 
L 1119 0 
L 513 0 
z
" transform="scale(0.015625)"/>
      <path id="ArialMT-70" d="M 422 -1272 
L 422 3319 
L 934 3319 
L 934 2888 
Q 1116 3141 1344 3267 
Q 1572 3394 1897 3394 
Q 2322 3394 2647 3175 
Q 2972 2956 3137 2557 
Q 3303 2159 3303 1684 
Q 3303 1175 3120 767 
Q 2938 359 2589 142 
Q 2241 -75 1856 -75 
Q 1575 -75 1351 44 
Q 1128 163 984 344 
L 984 -1272 
L 422 -1272 
z
M 931 1641 
Q 931 1000 1190 694 
Q 1450 388 1819 388 
Q 2194 388 2461 705 
Q 2728 1022 2728 1688 
Q 2728 2322 2467 2637 
Q 2206 2953 1844 2953 
Q 1484 2953 1207 2617 
Q 931 2281 931 1641 
z
" transform="scale(0.015625)"/>
      <path id="ArialMT-67" d="M 319 -275 
L 866 -356 
Q 900 -609 1056 -725 
Q 1266 -881 1628 -881 
Q 2019 -881 2231 -725 
Q 2444 -569 2519 -288 
Q 2563 -116 2559 434 
Q 2191 0 1641 0 
Q 956 0 581 494 
Q 206 988 206 1678 
Q 206 2153 378 2554 
Q 550 2956 876 3175 
Q 1203 3394 1644 3394 
Q 2231 3394 2613 2919 
L 2613 3319 
L 3131 3319 
L 3131 450 
Q 3131 -325 2973 -648 
Q 2816 -972 2473 -1159 
Q 2131 -1347 1631 -1347 
Q 1038 -1347 672 -1080 
Q 306 -813 319 -275 
z
M 784 1719 
Q 784 1066 1043 766 
Q 1303 466 1694 466 
Q 2081 466 2343 764 
Q 2606 1063 2606 1700 
Q 2606 2309 2336 2618 
Q 2066 2928 1684 2928 
Q 1309 2928 1046 2623 
Q 784 2319 784 1719 
z
" transform="scale(0.015625)"/>
     </defs>
     <use xlink:href="#ArialMT-48"/>
     <use xlink:href="#ArialMT-6f" x="72.216797"/>
     <use xlink:href="#ArialMT-6d" x="127.832031"/>
     <use xlink:href="#ArialMT-65" x="211.132812"/>
     <use xlink:href="#ArialMT-70" x="266.748047"/>
     <use xlink:href="#ArialMT-61" x="322.363281"/>
     <use xlink:href="#ArialMT-67" x="377.978516"/>
     <use xlink:href="#ArialMT-65" x="433.59375"/>
    </g>
   </g>
  </g>
  <g id="axes_3">
   <g id="matplotlib.axis_5"/>
   <g id="matplotlib.axis_6"/>
   <g id="patch_6">
    <path d="M 523.584028 61.360479 
C 520.815714 56.565619 517.210323 52.305489 512.939161 48.782505 
C 508.667999 45.259521 503.799802 42.530379 498.56588 40.724751 
C 493.331957 38.919124 487.816537 38.066068 482.281682 38.206118 
C 476.746826 38.346168 471.281607 39.477069 466.1457 41.545087 
C 461.009793 43.613105 456.28585 46.584959 452.198326 50.319445 
C 448.110802 54.053931 444.725476 58.490948 442.203201 63.419677 
C 439.680926 68.348406 438.062292 73.689527 437.424207 79.189262 
C 436.786122 84.688998 437.138854 90.258839 438.465645 95.634141 
C 439.792436 101.009442 442.071933 106.103698 445.195827 110.674861 
C 448.319722 115.246023 452.237741 119.220527 456.763723 122.409527 
C 461.289705 125.598527 466.350814 127.950704 471.706575 129.354294 
C 477.062336 130.757885 482.626558 131.190301 488.134863 130.630998 
C 493.643167 130.071695 499.006909 128.529673 503.971233 126.0782 
C 508.935558 123.626727 513.420575 120.305254 517.213182 116.2716 
C 521.005789 112.237945 524.044952 107.557021 526.186267 102.451239 
C 528.327582 97.345458 529.536589 91.896985 529.755844 86.364701 
L 483.453818 84.529666 
L 523.584028 61.360479 
z
" style="fill: #1f77b4; stroke: #ffffff; stroke-linejoin: miter"/>
   </g>
   <g id="patch_7">
    <path d="M 534.254661 85.254253 
C 534.427197 80.900792 533.984885 76.544673 532.940807 72.314744 
C 531.89673 68.084816 530.261284 64.023199 528.082845 60.250031 
L 487.952635 83.419219 
L 534.254661 85.254253 
z
" style="fill: #ff7f0e; stroke: #ffffff; stroke-linejoin: miter"/>
   </g>
   <g id="text_11">
    <!-- Yes -->
    <g style="fill: #262626" transform="translate(417.648078 99.329744) scale(0.1 -0.1)">
     <use xlink:href="#ArialMT-59"/>
     <use xlink:href="#ArialMT-65" x="57.574219"/>
     <use xlink:href="#ArialMT-73" x="113.189453"/>
    </g>
   </g>
   <g id="text_12">
    <!-- 91% -->
    <g style="fill: #262626" transform="translate(446.453883 93.777507) scale(0.1 -0.1)">
     <use xlink:href="#ArialMT-39"/>
     <use xlink:href="#ArialMT-31" x="55.615234"/>
     <use xlink:href="#ArialMT-25" x="111.230469"/>
    </g>
   </g>
   <g id="text_13">
    <!-- No -->
    <g style="fill: #262626" transform="translate(537.439624 73.789453) scale(0.1 -0.1)">
     <use xlink:href="#ArialMT-4e"/>
     <use xlink:href="#ArialMT-6f" x="72.216797"/>
    </g>
   </g>
   <g id="text_14">
    <!-- 9% -->
    <g style="fill: #262626" transform="translate(507.718976 79.34169) scale(0.1 -0.1)">
     <use xlink:href="#ArialMT-39"/>
     <use xlink:href="#ArialMT-25" x="55.615234"/>
    </g>
   </g>
   <g id="text_15">
    <!-- Description -->
    <g style="fill: #262626" transform="translate(457.942322 19.49625) scale(0.12 -0.12)">
     <defs>
      <path id="ArialMT-44" d="M 494 0 
L 494 4581 
L 2072 4581 
Q 2606 4581 2888 4516 
Q 3281 4425 3559 4188 
Q 3922 3881 4101 3404 
Q 4281 2928 4281 2316 
Q 4281 1794 4159 1391 
Q 4038 988 3847 723 
Q 3656 459 3429 307 
Q 3203 156 2883 78 
Q 2563 0 2147 0 
L 494 0 
z
M 1100 541 
L 2078 541 
Q 2531 541 2789 625 
Q 3047 709 3200 863 
Q 3416 1078 3536 1442 
Q 3656 1806 3656 2325 
Q 3656 3044 3420 3430 
Q 3184 3816 2847 3947 
Q 2603 4041 2063 4041 
L 1100 4041 
L 1100 541 
z
" transform="scale(0.015625)"/>
      <path id="ArialMT-63" d="M 2588 1216 
L 3141 1144 
Q 3050 572 2676 248 
Q 2303 -75 1759 -75 
Q 1078 -75 664 370 
Q 250 816 250 1647 
Q 250 2184 428 2587 
Q 606 2991 970 3192 
Q 1334 3394 1763 3394 
Q 2303 3394 2647 3120 
Q 2991 2847 3088 2344 
L 2541 2259 
Q 2463 2594 2264 2762 
Q 2066 2931 1784 2931 
Q 1359 2931 1093 2626 
Q 828 2322 828 1663 
Q 828 994 1084 691 
Q 1341 388 1753 388 
Q 2084 388 2306 591 
Q 2528 794 2588 1216 
z
" transform="scale(0.015625)"/>
      <path id="ArialMT-72" d="M 416 0 
L 416 3319 
L 922 3319 
L 922 2816 
Q 1116 3169 1280 3281 
Q 1444 3394 1641 3394 
Q 1925 3394 2219 3213 
L 2025 2691 
Q 1819 2813 1613 2813 
Q 1428 2813 1281 2702 
Q 1134 2591 1072 2394 
Q 978 2094 978 1738 
L 978 0 
L 416 0 
z
" transform="scale(0.015625)"/>
      <path id="ArialMT-69" d="M 425 3934 
L 425 4581 
L 988 4581 
L 988 3934 
L 425 3934 
z
M 425 0 
L 425 3319 
L 988 3319 
L 988 0 
L 425 0 
z
" transform="scale(0.015625)"/>
      <path id="ArialMT-74" d="M 1650 503 
L 1731 6 
Q 1494 -44 1306 -44 
Q 1000 -44 831 53 
Q 663 150 594 308 
Q 525 466 525 972 
L 525 2881 
L 113 2881 
L 113 3319 
L 525 3319 
L 525 4141 
L 1084 4478 
L 1084 3319 
L 1650 3319 
L 1650 2881 
L 1084 2881 
L 1084 941 
Q 1084 700 1114 631 
Q 1144 563 1211 522 
Q 1278 481 1403 481 
Q 1497 481 1650 503 
z
" transform="scale(0.015625)"/>
      <path id="ArialMT-6e" d="M 422 0 
L 422 3319 
L 928 3319 
L 928 2847 
Q 1294 3394 1984 3394 
Q 2284 3394 2536 3286 
Q 2788 3178 2913 3003 
Q 3038 2828 3088 2588 
Q 3119 2431 3119 2041 
L 3119 0 
L 2556 0 
L 2556 2019 
Q 2556 2363 2490 2533 
Q 2425 2703 2258 2804 
Q 2091 2906 1866 2906 
Q 1506 2906 1245 2678 
Q 984 2450 984 1813 
L 984 0 
L 422 0 
z
" transform="scale(0.015625)"/>
     </defs>
     <use xlink:href="#ArialMT-44"/>
     <use xlink:href="#ArialMT-65" x="72.216797"/>
     <use xlink:href="#ArialMT-73" x="127.832031"/>
     <use xlink:href="#ArialMT-63" x="177.832031"/>
     <use xlink:href="#ArialMT-72" x="227.832031"/>
     <use xlink:href="#ArialMT-69" x="261.132812"/>
     <use xlink:href="#ArialMT-70" x="283.349609"/>
     <use xlink:href="#ArialMT-74" x="338.964844"/>
     <use xlink:href="#ArialMT-69" x="366.748047"/>
     <use xlink:href="#ArialMT-6f" x="388.964844"/>
     <use xlink:href="#ArialMT-6e" x="444.580078"/>
    </g>
   </g>
  </g>
  <g id="axes_4">
   <g id="matplotlib.axis_7"/>
   <g id="matplotlib.axis_8"/>
   <g id="patch_8">
    <path d="M 716.566192 61.189005 
C 713.834799 56.458093 710.288217 52.24724 706.090554 48.751292 
C 701.892892 45.255343 697.109907 42.529065 691.962922 40.69861 
C 686.815936 38.868154 681.38558 37.962196 675.923128 38.022655 
C 670.460677 38.083115 665.051704 39.109046 659.946494 41.052976 
C 654.841284 42.996906 650.119815 45.828381 646.000559 49.416384 
C 641.881303 53.004386 638.428792 57.292707 635.802781 62.082916 
C 633.17677 66.873124 631.418399 72.090179 630.609029 77.492674 
C 629.79966 82.895169 629.951973 88.39847 631.058919 93.747928 
C 632.165866 99.097386 634.210106 104.209197 637.097047 108.846826 
C 639.983988 113.484454 643.668405 117.575249 647.97981 120.92992 
C 652.291216 124.28459 657.162069 126.850583 662.366984 128.509164 
C 667.571899 130.167744 673.029337 130.89293 678.486771 130.651164 
C 683.944204 130.409399 689.316138 129.20447 694.354 127.092132 
C 699.391863 124.979795 704.016733 121.993139 708.014606 118.270366 
C 712.012479 114.547593 715.320726 110.147022 717.786267 105.272277 
C 720.251809 100.397532 721.836019 95.12498 722.465594 89.698594 
L 676.435982 84.358192 
L 716.566192 61.189005 
z
" style="fill: #1f77b4; stroke: #ffffff; stroke-linejoin: miter"/>
   </g>
   <g id="patch_9">
    <path d="M 727.0033 88.75962 
C 727.573352 83.846267 727.353043 78.87318 726.350752 74.029482 
C 725.34846 69.185784 723.577054 64.533661 721.103898 60.250029 
L 680.973689 83.419219 
L 727.0033 88.75962 
z
" style="fill: #ff7f0e; stroke: #ffffff; stroke-linejoin: miter"/>
   </g>
   <g id="text_16">
    <!-- Yes -->
    <g style="fill: #262626" transform="translate(610.202463 97.272058) scale(0.1 -0.1)">
     <use xlink:href="#ArialMT-59"/>
     <use xlink:href="#ArialMT-65" x="57.574219"/>
     <use xlink:href="#ArialMT-73" x="113.189453"/>
    </g>
   </g>
   <g id="text_17">
    <!-- 90% -->
    <g style="fill: #262626" transform="translate(639.202713 92.57719) scale(0.1 -0.1)">
     <defs>
      <path id="ArialMT-30" d="M 266 2259 
Q 266 3072 433 3567 
Q 600 4063 929 4331 
Q 1259 4600 1759 4600 
Q 2128 4600 2406 4451 
Q 2684 4303 2865 4023 
Q 3047 3744 3150 3342 
Q 3253 2941 3253 2259 
Q 3253 1453 3087 958 
Q 2922 463 2592 192 
Q 2263 -78 1759 -78 
Q 1097 -78 719 397 
Q 266 969 266 2259 
z
M 844 2259 
Q 844 1131 1108 757 
Q 1372 384 1759 384 
Q 2147 384 2411 759 
Q 2675 1134 2675 2259 
Q 2675 3391 2411 3762 
Q 2147 4134 1753 4134 
Q 1366 4134 1134 3806 
Q 844 3388 844 2259 
z
" transform="scale(0.015625)"/>
     </defs>
     <use xlink:href="#ArialMT-39"/>
     <use xlink:href="#ArialMT-30" x="55.615234"/>
     <use xlink:href="#ArialMT-25" x="111.230469"/>
    </g>
   </g>
   <g id="text_18">
    <!-- No -->
    <g style="fill: #262626" transform="translate(730.888458 75.675665) scale(0.1 -0.1)">
     <use xlink:href="#ArialMT-4e"/>
     <use xlink:href="#ArialMT-6f" x="72.216797"/>
    </g>
   </g>
   <g id="text_19">
    <!-- 10% -->
    <g style="fill: #262626" transform="translate(698.192895 80.370533) scale(0.1 -0.1)">
     <use xlink:href="#ArialMT-31"/>
     <use xlink:href="#ArialMT-30" x="55.615234"/>
     <use xlink:href="#ArialMT-25" x="111.230469"/>
    </g>
   </g>
   <g id="text_20">
    <!-- Example -->
    <g style="fill: #262626" transform="translate(657.630876 19.49625) scale(0.12 -0.12)">
     <defs>
      <path id="ArialMT-45" d="M 506 0 
L 506 4581 
L 3819 4581 
L 3819 4041 
L 1113 4041 
L 1113 2638 
L 3647 2638 
L 3647 2100 
L 1113 2100 
L 1113 541 
L 3925 541 
L 3925 0 
L 506 0 
z
" transform="scale(0.015625)"/>
      <path id="ArialMT-78" d="M 47 0 
L 1259 1725 
L 138 3319 
L 841 3319 
L 1350 2541 
Q 1494 2319 1581 2169 
Q 1719 2375 1834 2534 
L 2394 3319 
L 3066 3319 
L 1919 1756 
L 3153 0 
L 2463 0 
L 1781 1031 
L 1600 1309 
L 728 0 
L 47 0 
z
" transform="scale(0.015625)"/>
      <path id="ArialMT-6c" d="M 409 0 
L 409 4581 
L 972 4581 
L 972 0 
L 409 0 
z
" transform="scale(0.015625)"/>
     </defs>
     <use xlink:href="#ArialMT-45"/>
     <use xlink:href="#ArialMT-78" x="66.699219"/>
     <use xlink:href="#ArialMT-61" x="116.699219"/>
     <use xlink:href="#ArialMT-6d" x="172.314453"/>
     <use xlink:href="#ArialMT-70" x="255.615234"/>
     <use xlink:href="#ArialMT-6c" x="311.230469"/>
     <use xlink:href="#ArialMT-65" x="333.447266"/>
    </g>
   </g>
  </g>
  <g id="axes_5">
   <g id="matplotlib.axis_9"/>
   <g id="matplotlib.axis_10"/>
   <g id="patch_10">
    <path d="M 137.526139 200.491528 
C 135.213965 196.486726 132.315272 192.850505 128.926545 189.703901 
C 125.537818 186.557297 121.697076 183.935612 117.532163 181.926113 
C 113.36725 179.916613 108.924893 178.541844 104.352961 177.847566 
C 99.781028 177.153287 95.130815 177.147289 90.557106 177.829771 
C 85.983397 178.512253 81.537509 179.875557 77.367426 181.874306 
C 73.197343 183.873054 69.349851 186.484822 65.953018 189.622674 
C 62.556184 192.760525 59.64812 196.389256 57.325623 200.38808 
C 55.003125 204.386905 53.292252 208.710958 52.249951 213.21631 
C 51.207649 217.721662 50.845613 222.357765 51.175894 226.970303 
C 51.506175 231.582841 52.525067 236.120062 54.198655 240.430943 
C 55.872244 244.741824 58.181751 248.777997 61.050305 252.405116 
C 63.918858 256.032236 67.314273 259.209605 71.123531 261.831465 
C 74.932788 264.453324 79.11315 266.490257 83.52547 267.874462 
C 87.93779 269.258667 92.532563 269.974615 97.156849 269.998474 
C 101.781135 270.022333 106.383051 269.353836 110.80942 268.015234 
C 115.235788 266.676632 119.436946 264.682943 123.273055 262.10053 
L 97.395929 223.660716 
L 137.526139 200.491528 
z
" style="fill: #1f77b4; stroke: #ffffff; stroke-linejoin: miter"/>
   </g>
   <g id="patch_11">
    <path d="M 127.787653 263.144971 
C 137.521282 256.592433 144.4118 246.581309 147.056506 235.149562 
C 149.701211 223.717815 147.907578 211.697636 142.040737 201.535969 
L 101.910527 224.705156 
L 127.787653 263.144971 
z
" style="fill: #ff7f0e; stroke: #ffffff; stroke-linejoin: miter"/>
   </g>
   <g id="text_21">
    <!-- Yes -->
    <g style="fill: #262626" transform="translate(31.416603 214.757025) scale(0.1 -0.1)">
     <use xlink:href="#ArialMT-59"/>
     <use xlink:href="#ArialMT-65" x="57.574219"/>
     <use xlink:href="#ArialMT-73" x="113.189453"/>
    </g>
   </g>
   <g id="text_22">
    <!-- 76% -->
    <g style="fill: #262626" transform="translate(60.301311 219.979228) scale(0.1 -0.1)">
     <defs>
      <path id="ArialMT-37" d="M 303 3981 
L 303 4522 
L 3269 4522 
L 3269 4084 
Q 2831 3619 2401 2847 
Q 1972 2075 1738 1259 
Q 1569 684 1522 0 
L 944 0 
Q 953 541 1156 1306 
Q 1359 2072 1739 2783 
Q 2119 3494 2547 3981 
L 303 3981 
z
" transform="scale(0.015625)"/>
      <path id="ArialMT-36" d="M 3184 3459 
L 2625 3416 
Q 2550 3747 2413 3897 
Q 2184 4138 1850 4138 
Q 1581 4138 1378 3988 
Q 1113 3794 959 3422 
Q 806 3050 800 2363 
Q 1003 2672 1297 2822 
Q 1591 2972 1913 2972 
Q 2475 2972 2870 2558 
Q 3266 2144 3266 1488 
Q 3266 1056 3080 686 
Q 2894 316 2569 119 
Q 2244 -78 1831 -78 
Q 1128 -78 684 439 
Q 241 956 241 2144 
Q 241 3472 731 4075 
Q 1159 4600 1884 4600 
Q 2425 4600 2770 4297 
Q 3116 3994 3184 3459 
z
M 888 1484 
Q 888 1194 1011 928 
Q 1134 663 1356 523 
Q 1578 384 1822 384 
Q 2178 384 2434 671 
Q 2691 959 2691 1453 
Q 2691 1928 2437 2201 
Q 2184 2475 1800 2475 
Q 1419 2475 1153 2201 
Q 888 1928 888 1484 
z
" transform="scale(0.015625)"/>
     </defs>
     <use xlink:href="#ArialMT-37"/>
     <use xlink:href="#ArialMT-36" x="55.615234"/>
     <use xlink:href="#ArialMT-25" x="111.230469"/>
    </g>
   </g>
   <g id="text_23">
    <!-- No -->
    <g style="fill: #262626" transform="translate(151.571103 238.779159) scale(0.1 -0.1)">
     <use xlink:href="#ArialMT-4e"/>
     <use xlink:href="#ArialMT-6f" x="72.216797"/>
    </g>
   </g>
   <g id="text_24">
    <!-- 24% -->
    <g style="fill: #262626" transform="translate(118.991083 233.556956) scale(0.1 -0.1)">
     <defs>
      <path id="ArialMT-32" d="M 3222 541 
L 3222 0 
L 194 0 
Q 188 203 259 391 
Q 375 700 629 1000 
Q 884 1300 1366 1694 
Q 2113 2306 2375 2664 
Q 2638 3022 2638 3341 
Q 2638 3675 2398 3904 
Q 2159 4134 1775 4134 
Q 1369 4134 1125 3890 
Q 881 3647 878 3216 
L 300 3275 
Q 359 3922 746 4261 
Q 1134 4600 1788 4600 
Q 2447 4600 2831 4234 
Q 3216 3869 3216 3328 
Q 3216 3053 3103 2787 
Q 2991 2522 2730 2228 
Q 2469 1934 1863 1422 
Q 1356 997 1212 845 
Q 1069 694 975 541 
L 3222 541 
z
" transform="scale(0.015625)"/>
      <path id="ArialMT-34" d="M 2069 0 
L 2069 1097 
L 81 1097 
L 81 1613 
L 2172 4581 
L 2631 4581 
L 2631 1613 
L 3250 1613 
L 3250 1097 
L 2631 1097 
L 2631 0 
L 2069 0 
z
M 2069 1613 
L 2069 3678 
L 634 1613 
L 2069 1613 
z
" transform="scale(0.015625)"/>
     </defs>
     <use xlink:href="#ArialMT-32"/>
     <use xlink:href="#ArialMT-34" x="55.615234"/>
     <use xlink:href="#ArialMT-25" x="111.230469"/>
    </g>
   </g>
   <g id="text_25">
    <!-- Pattern -->
    <g style="fill: #262626" transform="translate(82.567089 160.782188) scale(0.12 -0.12)">
     <defs>
      <path id="ArialMT-50" d="M 494 0 
L 494 4581 
L 2222 4581 
Q 2678 4581 2919 4538 
Q 3256 4481 3484 4323 
Q 3713 4166 3852 3881 
Q 3991 3597 3991 3256 
Q 3991 2672 3619 2267 
Q 3247 1863 2275 1863 
L 1100 1863 
L 1100 0 
L 494 0 
z
M 1100 2403 
L 2284 2403 
Q 2872 2403 3119 2622 
Q 3366 2841 3366 3238 
Q 3366 3525 3220 3729 
Q 3075 3934 2838 4000 
Q 2684 4041 2272 4041 
L 1100 4041 
L 1100 2403 
z
" transform="scale(0.015625)"/>
     </defs>
     <use xlink:href="#ArialMT-50"/>
     <use xlink:href="#ArialMT-61" x="66.699219"/>
     <use xlink:href="#ArialMT-74" x="122.314453"/>
     <use xlink:href="#ArialMT-74" x="150.097656"/>
     <use xlink:href="#ArialMT-65" x="177.880859"/>
     <use xlink:href="#ArialMT-72" x="233.496094"/>
     <use xlink:href="#ArialMT-6e" x="266.796875"/>
    </g>
   </g>
  </g>
  <g id="axes_6">
   <g id="matplotlib.axis_11"/>
   <g id="matplotlib.axis_12"/>
   <g id="patch_12">
    <path d="M 330.467145 202.137365 
C 327.807628 197.530947 324.374725 193.416649 320.31914 189.975088 
C 316.263554 186.533527 311.645514 183.815811 306.66775 181.94125 
C 301.689986 180.066688 296.426421 179.063117 291.108125 178.974595 
C 285.789828 178.886072 280.495779 179.713913 275.458386 181.421773 
C 270.420994 183.129634 265.715065 185.692153 261.547189 188.996836 
C 257.379313 192.301518 253.811386 196.299288 251.000038 200.814644 
C 248.188691 205.33 246.175673 210.295887 245.049356 215.494303 
C 243.92304 220.692719 243.700151 226.046464 244.390474 231.320511 
C 245.080797 236.594558 246.67408 241.710583 249.100379 246.443995 
C 251.526679 251.177407 254.749962 255.457911 258.628727 259.097595 
C 262.507492 262.737278 266.984138 265.682089 271.86214 267.802752 
C 276.740143 269.923414 281.947061 271.188434 287.254311 271.542279 
C 292.561562 271.896123 297.89033 271.333537 303.006683 269.879217 
C 308.123036 268.424898 312.950994 266.100442 317.27861 263.007893 
C 321.606226 259.915345 325.369233 256.10063 328.402435 251.731213 
C 331.435637 247.361797 333.693989 242.502567 335.078352 237.366844 
L 290.336935 225.306552 
L 330.467145 202.137365 
z
" style="fill: #1f77b4; stroke: #ffffff; stroke-linejoin: miter"/>
   </g>
   <g id="patch_13">
    <path d="M 339.672998 236.765448 
C 341.25978 230.878781 341.669304 224.736415 340.878042 218.6912 
C 340.086781 212.645985 338.110182 206.815939 335.061793 201.535973 
L 294.931581 224.705156 
L 339.672998 236.765448 
z
" style="fill: #ff7f0e; stroke: #ffffff; stroke-linejoin: miter"/>
   </g>
   <g id="text_26">
    <!-- Yes -->
    <g style="fill: #262626" transform="translate(223.477077 234.507063) scale(0.1 -0.1)">
     <use xlink:href="#ArialMT-59"/>
     <use xlink:href="#ArialMT-65" x="57.574219"/>
     <use xlink:href="#ArialMT-73" x="113.189453"/>
    </g>
   </g>
   <g id="text_27">
    <!-- 87% -->
    <g style="fill: #262626" transform="translate(252.762027 231.500084) scale(0.1 -0.1)">
     <defs>
      <path id="ArialMT-38" d="M 1131 2484 
Q 781 2613 612 2850 
Q 444 3088 444 3419 
Q 444 3919 803 4259 
Q 1163 4600 1759 4600 
Q 2359 4600 2725 4251 
Q 3091 3903 3091 3403 
Q 3091 3084 2923 2848 
Q 2756 2613 2416 2484 
Q 2838 2347 3058 2040 
Q 3278 1734 3278 1309 
Q 3278 722 2862 322 
Q 2447 -78 1769 -78 
Q 1091 -78 675 323 
Q 259 725 259 1325 
Q 259 1772 486 2073 
Q 713 2375 1131 2484 
z
M 1019 3438 
Q 1019 3113 1228 2906 
Q 1438 2700 1772 2700 
Q 2097 2700 2305 2904 
Q 2513 3109 2513 3406 
Q 2513 3716 2298 3927 
Q 2084 4138 1766 4138 
Q 1444 4138 1231 3931 
Q 1019 3725 1019 3438 
z
M 838 1322 
Q 838 1081 952 856 
Q 1066 631 1291 507 
Q 1516 384 1775 384 
Q 2178 384 2440 643 
Q 2703 903 2703 1303 
Q 2703 1709 2433 1975 
Q 2163 2241 1756 2241 
Q 1359 2241 1098 1978 
Q 838 1716 838 1322 
z
" transform="scale(0.015625)"/>
     </defs>
     <use xlink:href="#ArialMT-38"/>
     <use xlink:href="#ArialMT-37" x="55.615234"/>
     <use xlink:href="#ArialMT-25" x="111.230469"/>
    </g>
   </g>
   <g id="text_28">
    <!-- No -->
    <g style="fill: #262626" transform="translate(345.472689 220.67496) scale(0.1 -0.1)">
     <use xlink:href="#ArialMT-4e"/>
     <use xlink:href="#ArialMT-6f" x="72.216797"/>
    </g>
   </g>
   <g id="text_29">
    <!-- 13% -->
    <g style="fill: #262626" transform="translate(312.492427 223.681939) scale(0.1 -0.1)">
     <defs>
      <path id="ArialMT-33" d="M 269 1209 
L 831 1284 
Q 928 806 1161 595 
Q 1394 384 1728 384 
Q 2125 384 2398 659 
Q 2672 934 2672 1341 
Q 2672 1728 2419 1979 
Q 2166 2231 1775 2231 
Q 1616 2231 1378 2169 
L 1441 2663 
Q 1497 2656 1531 2656 
Q 1891 2656 2178 2843 
Q 2466 3031 2466 3422 
Q 2466 3731 2256 3934 
Q 2047 4138 1716 4138 
Q 1388 4138 1169 3931 
Q 950 3725 888 3313 
L 325 3413 
Q 428 3978 793 4289 
Q 1159 4600 1703 4600 
Q 2078 4600 2393 4439 
Q 2709 4278 2876 4000 
Q 3044 3722 3044 3409 
Q 3044 3113 2884 2869 
Q 2725 2625 2413 2481 
Q 2819 2388 3044 2092 
Q 3269 1797 3269 1353 
Q 3269 753 2831 336 
Q 2394 -81 1725 -81 
Q 1122 -81 723 278 
Q 325 638 269 1209 
z
" transform="scale(0.015625)"/>
     </defs>
     <use xlink:href="#ArialMT-31"/>
     <use xlink:href="#ArialMT-33" x="55.615234"/>
     <use xlink:href="#ArialMT-25" x="111.230469"/>
    </g>
   </g>
   <g id="text_30">
    <!-- Provider -->
    <g style="fill: #262626" transform="translate(272.590956 160.782188) scale(0.12 -0.12)">
     <defs>
      <path id="ArialMT-76" d="M 1344 0 
L 81 3319 
L 675 3319 
L 1388 1331 
Q 1503 1009 1600 663 
Q 1675 925 1809 1294 
L 2547 3319 
L 3125 3319 
L 1869 0 
L 1344 0 
z
" transform="scale(0.015625)"/>
      <path id="ArialMT-64" d="M 2575 0 
L 2575 419 
Q 2259 -75 1647 -75 
Q 1250 -75 917 144 
Q 584 363 401 755 
Q 219 1147 219 1656 
Q 219 2153 384 2558 
Q 550 2963 881 3178 
Q 1213 3394 1622 3394 
Q 1922 3394 2156 3267 
Q 2391 3141 2538 2938 
L 2538 4581 
L 3097 4581 
L 3097 0 
L 2575 0 
z
M 797 1656 
Q 797 1019 1065 703 
Q 1334 388 1700 388 
Q 2069 388 2326 689 
Q 2584 991 2584 1609 
Q 2584 2291 2321 2609 
Q 2059 2928 1675 2928 
Q 1300 2928 1048 2622 
Q 797 2316 797 1656 
z
" transform="scale(0.015625)"/>
     </defs>
     <use xlink:href="#ArialMT-50"/>
     <use xlink:href="#ArialMT-72" x="66.699219"/>
     <use xlink:href="#ArialMT-6f" x="100"/>
     <use xlink:href="#ArialMT-76" x="155.615234"/>
     <use xlink:href="#ArialMT-69" x="205.615234"/>
     <use xlink:href="#ArialMT-64" x="227.832031"/>
     <use xlink:href="#ArialMT-65" x="283.447266"/>
     <use xlink:href="#ArialMT-72" x="339.0625"/>
    </g>
   </g>
  </g>
  <g id="axes_7">
   <g id="matplotlib.axis_13"/>
   <g id="matplotlib.axis_14"/>
   <g id="patch_14">
    <path d="M 530.528106 197.599835 
C 526.714704 190.99483 521.328964 185.432326 514.850507 181.407686 
C 508.37205 177.383047 500.999071 175.019397 493.388165 174.527231 
L 490.397896 220.769023 
L 530.528106 197.599835 
z
" style="fill: #1f77b4; stroke: #ffffff; stroke-linejoin: miter"/>
   </g>
   <g id="patch_15">
    <path d="M 490.942904 178.463365 
C 485.824849 178.132401 480.687175 178.653423 475.739765 180.005147 
C 470.792355 181.356871 466.103509 183.520636 461.864774 186.408048 
C 457.626039 189.29546 453.895932 192.866658 450.826833 196.975752 
C 447.757735 201.084846 445.392015 205.675111 443.826317 210.559024 
C 442.260619 215.442938 441.516558 220.553078 441.62453 225.680686 
C 441.732501 230.808294 442.691016 235.882582 444.460916 240.696259 
C 446.230815 245.509935 448.787667 249.996544 452.027018 253.972802 
C 455.26637 257.949059 459.143501 261.360072 463.500026 264.066494 
C 467.85655 266.772916 472.632324 268.737384 477.63225 269.879647 
C 482.632176 271.021911 487.787228 271.326199 492.886814 270.780083 
C 497.9864 270.233967 502.96012 268.844984 507.604787 266.669878 
C 512.249455 264.494773 516.50095 261.563571 520.185592 257.996018 
C 523.870234 254.428465 526.937156 250.273811 529.261069 245.701782 
C 531.584981 241.129752 533.133803 236.203465 533.844261 231.124167 
C 534.554718 226.044868 534.417005 220.88268 533.436746 215.848485 
C 532.456487 210.81429 530.647215 205.977588 528.082843 201.535965 
L 487.952635 224.705156 
L 490.942904 178.463365 
z
" style="fill: #ff7f0e; stroke: #ffffff; stroke-linejoin: miter"/>
   </g>
   <g id="text_31">
    <!-- Yes -->
    <g style="fill: #262626" transform="translate(517.295768 180.056709) scale(0.1 -0.1)">
     <use xlink:href="#ArialMT-59"/>
     <use xlink:href="#ArialMT-65" x="57.574219"/>
     <use xlink:href="#ArialMT-73" x="113.189453"/>
    </g>
   </g>
   <g id="text_32">
    <!-- 16% -->
    <g style="fill: #262626" transform="translate(495.062431 199.737377) scale(0.1 -0.1)">
     <use xlink:href="#ArialMT-31"/>
     <use xlink:href="#ArialMT-36" x="55.615234"/>
     <use xlink:href="#ArialMT-25" x="111.230469"/>
    </g>
   </g>
   <g id="text_33">
    <!-- No -->
    <g style="fill: #262626" transform="translate(448.271952 270.587784) scale(0.1 -0.1)">
     <use xlink:href="#ArialMT-4e"/>
     <use xlink:href="#ArialMT-6f" x="72.216797"/>
    </g>
   </g>
   <g id="text_34">
    <!-- 84% -->
    <g style="fill: #262626" transform="translate(463.274038 250.907115) scale(0.1 -0.1)">
     <use xlink:href="#ArialMT-38"/>
     <use xlink:href="#ArialMT-34" x="55.615234"/>
     <use xlink:href="#ArialMT-25" x="111.230469"/>
    </g>
   </g>
   <g id="text_35">
    <!-- License -->
    <g style="fill: #262626" transform="translate(467.27326 160.782188) scale(0.12 -0.12)">
     <defs>
      <path id="ArialMT-4c" d="M 469 0 
L 469 4581 
L 1075 4581 
L 1075 541 
L 3331 541 
L 3331 0 
L 469 0 
z
" transform="scale(0.015625)"/>
     </defs>
     <use xlink:href="#ArialMT-4c"/>
     <use xlink:href="#ArialMT-69" x="55.615234"/>
     <use xlink:href="#ArialMT-63" x="77.832031"/>
     <use xlink:href="#ArialMT-65" x="127.832031"/>
     <use xlink:href="#ArialMT-6e" x="183.447266"/>
     <use xlink:href="#ArialMT-73" x="239.0625"/>
     <use xlink:href="#ArialMT-65" x="289.0625"/>
    </g>
   </g>
  </g>
  <g id="axes_8">
   <g id="matplotlib.axis_15"/>
   <g id="matplotlib.axis_16"/>
   <g id="patch_16">
    <path d="M 721.103899 201.535969 
C 716.126496 192.914854 708.501064 186.122949 699.363778 182.172232 
C 690.226492 178.221516 680.05488 177.31846 670.364494 179.597618 
C 660.674107 181.876776 651.97138 187.219036 645.553002 194.82841 
C 639.134624 202.437785 635.33603 211.916596 634.723203 221.852521 
L 680.973689 224.705156 
L 721.103899 201.535969 
z
" style="fill: #1f77b4; stroke: #ffffff; stroke-linejoin: miter"/>
   </g>
   <g id="patch_17">
    <path d="M 634.723203 221.852521 
C 634.207599 230.212135 635.967971 238.557207 639.816265 245.996268 
C 643.664559 253.435329 649.458683 259.693703 656.579677 264.102836 
C 663.70067 268.511969 671.885601 270.909059 680.260107 271.038037 
C 688.634614 271.167014 696.889481 269.023116 704.142876 264.835366 
L 680.973689 224.705156 
L 634.723203 221.852521 
z
" style="fill: #ff7f0e; stroke: #ffffff; stroke-linejoin: miter"/>
   </g>
   <g id="patch_18">
    <path d="M 704.142876 264.835366 
C 712.86961 259.796984 719.719174 252.046948 723.646954 242.7672 
C 727.574734 233.487452 728.370364 223.175005 725.912503 213.40259 
L 680.973689 224.705156 
L 704.142876 264.835366 
z
" style="fill: #2ca02c; stroke: #ffffff; stroke-linejoin: miter"/>
   </g>
   <g id="patch_19">
    <path d="M 725.912503 213.40259 
C 725.390116 211.325591 724.724365 209.287304 723.920037 207.302394 
C 723.11571 205.317484 722.17474 203.390721 721.103898 201.535968 
L 680.973689 224.705156 
L 725.912503 213.40259 
z
" style="fill: #d62728; stroke: #ffffff; stroke-linejoin: miter"/>
   </g>
   <g id="text_36">
    <!-- CC BY 4.0 -->
    <g style="fill: #262626" transform="translate(622.237949 177.672021) scale(0.1 -0.1)">
     <defs>
      <path id="ArialMT-43" d="M 3763 1606 
L 4369 1453 
Q 4178 706 3683 314 
Q 3188 -78 2472 -78 
Q 1731 -78 1267 223 
Q 803 525 561 1097 
Q 319 1669 319 2325 
Q 319 3041 592 3573 
Q 866 4106 1370 4382 
Q 1875 4659 2481 4659 
Q 3169 4659 3637 4309 
Q 4106 3959 4291 3325 
L 3694 3184 
Q 3534 3684 3231 3912 
Q 2928 4141 2469 4141 
Q 1941 4141 1586 3887 
Q 1231 3634 1087 3207 
Q 944 2781 944 2328 
Q 944 1744 1114 1308 
Q 1284 872 1643 656 
Q 2003 441 2422 441 
Q 2931 441 3284 734 
Q 3638 1028 3763 1606 
z
" transform="scale(0.015625)"/>
      <path id="ArialMT-20" transform="scale(0.015625)"/>
      <path id="ArialMT-42" d="M 469 0 
L 469 4581 
L 2188 4581 
Q 2713 4581 3030 4442 
Q 3347 4303 3526 4014 
Q 3706 3725 3706 3409 
Q 3706 3116 3547 2856 
Q 3388 2597 3066 2438 
Q 3481 2316 3704 2022 
Q 3928 1728 3928 1328 
Q 3928 1006 3792 729 
Q 3656 453 3456 303 
Q 3256 153 2954 76 
Q 2653 0 2216 0 
L 469 0 
z
M 1075 2656 
L 2066 2656 
Q 2469 2656 2644 2709 
Q 2875 2778 2992 2937 
Q 3109 3097 3109 3338 
Q 3109 3566 3000 3739 
Q 2891 3913 2687 3977 
Q 2484 4041 1991 4041 
L 1075 4041 
L 1075 2656 
z
M 1075 541 
L 2216 541 
Q 2509 541 2628 563 
Q 2838 600 2978 687 
Q 3119 775 3209 942 
Q 3300 1109 3300 1328 
Q 3300 1584 3169 1773 
Q 3038 1963 2805 2039 
Q 2572 2116 2134 2116 
L 1075 2116 
L 1075 541 
z
" transform="scale(0.015625)"/>
      <path id="ArialMT-2e" d="M 581 0 
L 581 641 
L 1222 641 
L 1222 0 
L 581 0 
z
" transform="scale(0.015625)"/>
     </defs>
     <use xlink:href="#ArialMT-43"/>
     <use xlink:href="#ArialMT-43" x="72.216797"/>
     <use xlink:href="#ArialMT-20" x="144.433594"/>
     <use xlink:href="#ArialMT-42" x="172.216797"/>
     <use xlink:href="#ArialMT-59" x="238.916016"/>
     <use xlink:href="#ArialMT-20" x="303.865234"/>
     <use xlink:href="#ArialMT-34" x="331.648438"/>
     <use xlink:href="#ArialMT-2e" x="387.263672"/>
     <use xlink:href="#ArialMT-30" x="415.046875"/>
    </g>
   </g>
   <g id="text_37">
    <!-- 41% -->
    <g style="fill: #262626" transform="translate(664.60114 200.22579) scale(0.1 -0.1)">
     <use xlink:href="#ArialMT-34"/>
     <use xlink:href="#ArialMT-31" x="55.615234"/>
     <use xlink:href="#ArialMT-25" x="111.230469"/>
    </g>
   </g>
   <g id="text_38">
    <!-- CC BY 3.0 -->
    <g style="fill: #262626" transform="translate(607.07465 270.62776) scale(0.1 -0.1)">
     <use xlink:href="#ArialMT-43"/>
     <use xlink:href="#ArialMT-43" x="72.216797"/>
     <use xlink:href="#ArialMT-20" x="144.433594"/>
     <use xlink:href="#ArialMT-42" x="172.216797"/>
     <use xlink:href="#ArialMT-59" x="238.916016"/>
     <use xlink:href="#ArialMT-20" x="303.865234"/>
     <use xlink:href="#ArialMT-33" x="331.648438"/>
     <use xlink:href="#ArialMT-2e" x="387.263672"/>
     <use xlink:href="#ArialMT-30" x="415.046875"/>
    </g>
   </g>
   <g id="text_39">
    <!-- 34% -->
    <g style="fill: #262626" transform="translate(656.33025 250.92892) scale(0.1 -0.1)">
     <use xlink:href="#ArialMT-33"/>
     <use xlink:href="#ArialMT-34" x="55.615234"/>
     <use xlink:href="#ArialMT-25" x="111.230469"/>
    </g>
   </g>
   <g id="text_40">
    <!-- CC0 1.0 -->
    <g style="fill: #262626" transform="translate(727.914281 247.15856) scale(0.1 -0.1)">
     <use xlink:href="#ArialMT-43"/>
     <use xlink:href="#ArialMT-43" x="72.216797"/>
     <use xlink:href="#ArialMT-30" x="144.433594"/>
     <use xlink:href="#ArialMT-20" x="200.048828"/>
     <use xlink:href="#ArialMT-31" x="227.832031"/>
     <use xlink:href="#ArialMT-2e" x="283.447266"/>
     <use xlink:href="#ArialMT-30" x="311.230469"/>
    </g>
   </g>
   <g id="text_41">
    <!-- 21% -->
    <g style="fill: #262626" transform="translate(696.570617 238.127539) scale(0.1 -0.1)">
     <use xlink:href="#ArialMT-32"/>
     <use xlink:href="#ArialMT-31" x="55.615234"/>
     <use xlink:href="#ArialMT-25" x="111.230469"/>
    </g>
   </g>
   <g id="text_42">
    <!-- Other -->
    <g style="fill: #262626" transform="translate(728.214672 208.147274) scale(0.1 -0.1)">
     <defs>
      <path id="ArialMT-4f" d="M 309 2231 
Q 309 3372 921 4017 
Q 1534 4663 2503 4663 
Q 3138 4663 3647 4359 
Q 4156 4056 4423 3514 
Q 4691 2972 4691 2284 
Q 4691 1588 4409 1038 
Q 4128 488 3612 205 
Q 3097 -78 2500 -78 
Q 1853 -78 1343 234 
Q 834 547 571 1087 
Q 309 1628 309 2231 
z
M 934 2222 
Q 934 1394 1379 917 
Q 1825 441 2497 441 
Q 3181 441 3623 922 
Q 4066 1403 4066 2288 
Q 4066 2847 3877 3264 
Q 3688 3681 3323 3911 
Q 2959 4141 2506 4141 
Q 1863 4141 1398 3698 
Q 934 3256 934 2222 
z
" transform="scale(0.015625)"/>
      <path id="ArialMT-68" d="M 422 0 
L 422 4581 
L 984 4581 
L 984 2938 
Q 1378 3394 1978 3394 
Q 2347 3394 2619 3248 
Q 2891 3103 3008 2847 
Q 3125 2591 3125 2103 
L 3125 0 
L 2563 0 
L 2563 2103 
Q 2563 2525 2380 2717 
Q 2197 2909 1863 2909 
Q 1613 2909 1392 2779 
Q 1172 2650 1078 2428 
Q 984 2206 984 1816 
L 984 0 
L 422 0 
z
" transform="scale(0.015625)"/>
     </defs>
     <use xlink:href="#ArialMT-4f"/>
     <use xlink:href="#ArialMT-74" x="77.783203"/>
     <use xlink:href="#ArialMT-68" x="105.566406"/>
     <use xlink:href="#ArialMT-65" x="161.181641"/>
     <use xlink:href="#ArialMT-72" x="216.796875"/>
    </g>
   </g>
   <g id="text_43">
    <!-- 4% -->
    <g style="fill: #262626" transform="translate(699.514936 216.848655) scale(0.1 -0.1)">
     <use xlink:href="#ArialMT-34"/>
     <use xlink:href="#ArialMT-25" x="55.615234"/>
    </g>
   </g>
   <g id="text_44">
    <!-- License Type -->
    <g style="fill: #262626" transform="translate(645.724626 160.782188) scale(0.12 -0.12)">
     <defs>
      <path id="ArialMT-54" d="M 1659 0 
L 1659 4041 
L 150 4041 
L 150 4581 
L 3781 4581 
L 3781 4041 
L 2266 4041 
L 2266 0 
L 1659 0 
z
" transform="scale(0.015625)"/>
      <path id="ArialMT-79" d="M 397 -1278 
L 334 -750 
Q 519 -800 656 -800 
Q 844 -800 956 -737 
Q 1069 -675 1141 -563 
Q 1194 -478 1313 -144 
Q 1328 -97 1363 -6 
L 103 3319 
L 709 3319 
L 1400 1397 
Q 1534 1031 1641 628 
Q 1738 1016 1872 1384 
L 2581 3319 
L 3144 3319 
L 1881 -56 
Q 1678 -603 1566 -809 
Q 1416 -1088 1222 -1217 
Q 1028 -1347 759 -1347 
Q 597 -1347 397 -1278 
z
" transform="scale(0.015625)"/>
     </defs>
     <use xlink:href="#ArialMT-4c"/>
     <use xlink:href="#ArialMT-69" x="55.615234"/>
     <use xlink:href="#ArialMT-63" x="77.832031"/>
     <use xlink:href="#ArialMT-65" x="127.832031"/>
     <use xlink:href="#ArialMT-6e" x="183.447266"/>
     <use xlink:href="#ArialMT-73" x="239.0625"/>
     <use xlink:href="#ArialMT-65" x="289.0625"/>
     <use xlink:href="#ArialMT-20" x="344.677734"/>
     <use xlink:href="#ArialMT-54" x="370.710938"/>
     <use xlink:href="#ArialMT-79" x="426.294922"/>
     <use xlink:href="#ArialMT-70" x="476.294922"/>
     <use xlink:href="#ArialMT-65" x="531.910156"/>
    </g>
   </g>
  </g>
  <g id="axes_9">
   <g id="matplotlib.axis_17"/>
   <g id="matplotlib.axis_18"/>
   <g id="patch_20">
    <path d="M 144.65653 338.996978 
C 141.187103 332.987755 136.411815 327.83385 130.684248 323.91688 
C 124.95668 319.99991 118.421774 317.418998 111.563401 316.365243 
L 104.52632 362.166165 
L 144.65653 338.996978 
z
" style="fill: #1f77b4; stroke: #ffffff; stroke-linejoin: miter"/>
   </g>
   <g id="patch_21">
    <path d="M 108.947608 320.190171 
C 103.793916 319.398333 98.543344 319.482013 93.417502 320.43768 
C 88.29166 321.393347 83.363694 323.207364 78.841597 325.803167 
C 74.3195 328.39897 70.267802 331.739517 66.857513 335.683814 
C 63.447224 339.628111 60.727007 344.119874 58.811676 348.969519 
C 56.896344 353.819164 55.813228 358.957488 55.608044 364.167618 
C 55.40286 369.377748 56.078534 374.585336 57.60655 379.570586 
C 59.134566 384.555837 61.493118 389.247611 64.582659 393.447883 
C 67.6722 397.648155 71.448644 401.296989 75.752597 404.240377 
C 80.056551 407.183766 84.826598 409.379709 89.861409 410.735521 
C 94.89622 412.091333 100.123951 412.587668 105.323953 412.203576 
C 110.523956 411.819484 115.622028 410.560448 120.402995 408.479605 
C 125.183962 406.398763 129.579602 403.525809 133.404387 399.982001 
C 137.229172 396.438194 140.428523 392.274102 142.867407 387.665479 
C 145.30629 383.056857 146.949903 378.069468 147.728874 372.913815 
C 148.507845 367.758162 148.411057 362.507815 147.442597 357.384375 
C 146.474137 352.260935 144.647823 347.337513 142.040739 342.82191 
L 101.910527 365.991094 
L 108.947608 320.190171 
z
" style="fill: #ff7f0e; stroke: #ffffff; stroke-linejoin: miter"/>
   </g>
   <g id="text_45">
    <!-- Yes -->
    <g style="fill: #262626" transform="translate(133.300041 322.677108) scale(0.1 -0.1)">
     <use xlink:href="#ArialMT-59"/>
     <use xlink:href="#ArialMT-65" x="57.574219"/>
     <use xlink:href="#ArialMT-73" x="113.189453"/>
    </g>
   </g>
   <g id="text_46">
    <!-- 14% -->
    <g style="fill: #262626" transform="translate(110.214045 341.801751) scale(0.1 -0.1)">
     <use xlink:href="#ArialMT-31"/>
     <use xlink:href="#ArialMT-34" x="55.615234"/>
     <use xlink:href="#ArialMT-25" x="111.230469"/>
    </g>
   </g>
   <g id="text_47">
    <!-- No -->
    <g style="fill: #262626" transform="translate(60.353992 410.650462) scale(0.1 -0.1)">
     <use xlink:href="#ArialMT-4e"/>
     <use xlink:href="#ArialMT-6f" x="72.216797"/>
    </g>
   </g>
   <g id="text_48">
    <!-- 86% -->
    <g style="fill: #262626" transform="translate(76.208738 391.52582) scale(0.1 -0.1)">
     <use xlink:href="#ArialMT-38"/>
     <use xlink:href="#ArialMT-36" x="55.615234"/>
     <use xlink:href="#ArialMT-25" x="111.230469"/>
    </g>
   </g>
   <g id="text_49">
    <!-- Version -->
    <g style="fill: #262626" transform="translate(81.897714 302.068125) scale(0.12 -0.12)">
     <defs>
      <path id="ArialMT-56" d="M 1803 0 
L 28 4581 
L 684 4581 
L 1875 1253 
Q 2019 853 2116 503 
Q 2222 878 2363 1253 
L 3600 4581 
L 4219 4581 
L 2425 0 
L 1803 0 
z
" transform="scale(0.015625)"/>
     </defs>
     <use xlink:href="#ArialMT-56"/>
     <use xlink:href="#ArialMT-65" x="61.199219"/>
     <use xlink:href="#ArialMT-72" x="116.814453"/>
     <use xlink:href="#ArialMT-73" x="150.115234"/>
     <use xlink:href="#ArialMT-69" x="200.115234"/>
     <use xlink:href="#ArialMT-6f" x="222.332031"/>
     <use xlink:href="#ArialMT-6e" x="277.947266"/>
    </g>
   </g>
  </g>
  <g id="axes_10">
   <g id="matplotlib.axis_19"/>
   <g id="matplotlib.axis_20"/>
   <g id="patch_22">
    <path d="M 336.44994 338.400878 
C 330.646901 328.349718 321.274295 320.836593 310.201225 317.359783 
C 299.128155 313.882973 287.143106 314.690052 276.636156 319.620072 
L 296.31973 361.570065 
L 336.44994 338.400878 
z
" style="fill: #1f77b4; stroke: #ffffff; stroke-linejoin: miter"/>
   </g>
   <g id="patch_23">
    <path d="M 275.248007 324.041101 
C 271.047557 326.012016 267.166851 328.602686 263.73592 331.726305 
C 260.304989 334.849924 257.362587 338.471211 255.007303 342.468826 
C 252.65202 346.466441 250.910461 350.795231 249.840978 355.31015 
C 248.771496 359.825069 248.386172 364.47512 248.697916 369.104494 
C 249.009661 373.733867 250.014953 378.290274 251.680108 382.62104 
C 253.345264 386.951807 255.651474 391.008018 258.521465 394.65376 
C 261.391456 398.299503 264.79281 401.493597 268.611558 404.12902 
C 272.430306 406.764442 276.623314 408.811423 281.050086 410.201377 
C 285.476859 411.59133 290.087395 412.308554 294.727208 412.329018 
C 299.367021 412.349482 303.983704 411.672954 308.422565 410.322103 
C 312.861425 408.971251 317.072326 406.961335 320.914172 404.3597 
C 324.756018 401.758065 328.185414 398.594097 331.087452 394.973812 
C 333.98949 391.353528 336.331389 387.317817 338.034681 383.001907 
C 339.737972 378.685997 340.783417 374.138635 341.135984 369.512191 
C 341.488551 364.885748 341.144259 360.232479 340.114644 355.708302 
C 339.085029 351.184125 337.38172 346.840141 335.061791 342.821906 
L 294.931581 365.991094 
L 275.248007 324.041101 
z
" style="fill: #ff7f0e; stroke: #ffffff; stroke-linejoin: miter"/>
   </g>
   <g id="text_50">
    <!-- Yes -->
    <g style="fill: #262626" transform="translate(311.589375 315.523911) scale(0.1 -0.1)">
     <use xlink:href="#ArialMT-59"/>
     <use xlink:href="#ArialMT-65" x="57.574219"/>
     <use xlink:href="#ArialMT-73" x="113.189453"/>
    </g>
   </g>
   <g id="text_51">
    <!-- 24% -->
    <g style="fill: #262626" transform="translate(294.641596 337.629052) scale(0.1 -0.1)">
     <use xlink:href="#ArialMT-32"/>
     <use xlink:href="#ArialMT-34" x="55.615234"/>
     <use xlink:href="#ArialMT-25" x="111.230469"/>
    </g>
   </g>
   <g id="text_52">
    <!-- No -->
    <g style="fill: #262626" transform="translate(266.879124 417.207561) scale(0.1 -0.1)">
     <use xlink:href="#ArialMT-4e"/>
     <use xlink:href="#ArialMT-6f" x="72.216797"/>
    </g>
   </g>
   <g id="text_53">
    <!-- 76% -->
    <g style="fill: #262626" transform="translate(276.595653 395.10242) scale(0.1 -0.1)">
     <use xlink:href="#ArialMT-37"/>
     <use xlink:href="#ArialMT-36" x="55.615234"/>
     <use xlink:href="#ArialMT-25" x="111.230469"/>
    </g>
   </g>
   <g id="text_54">
    <!-- Contact Email -->
    <g style="fill: #262626" transform="translate(257.585331 302.068125) scale(0.12 -0.12)">
     <use xlink:href="#ArialMT-43"/>
     <use xlink:href="#ArialMT-6f" x="72.216797"/>
     <use xlink:href="#ArialMT-6e" x="127.832031"/>
     <use xlink:href="#ArialMT-74" x="183.447266"/>
     <use xlink:href="#ArialMT-61" x="211.230469"/>
     <use xlink:href="#ArialMT-63" x="266.845703"/>
     <use xlink:href="#ArialMT-74" x="316.845703"/>
     <use xlink:href="#ArialMT-20" x="344.628906"/>
     <use xlink:href="#ArialMT-45" x="372.412109"/>
     <use xlink:href="#ArialMT-6d" x="439.111328"/>
     <use xlink:href="#ArialMT-61" x="522.412109"/>
     <use xlink:href="#ArialMT-69" x="578.027344"/>
     <use xlink:href="#ArialMT-6c" x="600.244141"/>
    </g>
   </g>
  </g>
  <g id="axes_11">
   <g id="matplotlib.axis_21"/>
   <g id="matplotlib.axis_22"/>
   <g id="patch_24">
    <path d="M 531.646741 339.860303 
C 530.334873 337.588081 528.832388 335.431378 527.155491 333.413456 
C 525.478595 331.395534 523.633338 329.523675 521.639624 327.818068 
L 491.516531 363.02949 
L 531.646741 339.860303 
z
" style="fill: #1f77b4; stroke: #ffffff; stroke-linejoin: miter"/>
   </g>
   <g id="patch_25">
    <path d="M 518.075728 330.779672 
C 513.703132 327.03895 508.671757 324.145239 503.23955 322.246892 
C 497.807343 320.348544 492.068751 319.478567 486.317978 319.68156 
C 480.567206 319.884554 474.904238 321.156989 469.619402 323.433632 
C 464.334566 325.710275 459.519746 328.951542 455.421788 332.991261 
C 451.323829 337.03098 448.013981 341.798915 445.661931 347.050625 
C 443.309881 352.302334 441.956523 357.946511 441.671241 363.693789 
C 441.385959 369.441067 442.173713 375.191523 443.994116 380.650344 
C 445.814519 386.109165 448.635921 391.181442 452.313676 395.60713 
C 455.99143 400.032818 460.461594 403.734971 465.494992 406.523788 
C 470.52839 409.312604 476.037509 411.139597 481.73991 411.911101 
C 487.442311 412.682604 493.238849 412.385205 498.832349 411.034149 
C 504.425849 409.683093 509.71906 407.301871 514.440611 404.012563 
C 519.162162 400.723255 523.229963 396.583049 526.435465 391.804206 
C 529.640968 387.025362 531.928441 381.690968 533.180611 376.074504 
C 534.432781 370.45804 534.627877 364.657158 533.755896 358.969254 
C 532.883916 353.281351 530.96002 347.805319 528.082843 342.821902 
L 487.952635 365.991094 
L 518.075728 330.779672 
z
" style="fill: #ff7f0e; stroke: #ffffff; stroke-linejoin: miter"/>
   </g>
   <g id="text_55">
    <!-- Yes -->
    <g style="fill: #262626" transform="translate(530.719387 333.037009) scale(0.1 -0.1)">
     <use xlink:href="#ArialMT-59"/>
     <use xlink:href="#ArialMT-65" x="57.574219"/>
     <use xlink:href="#ArialMT-73" x="113.189453"/>
    </g>
   </g>
   <g id="text_56">
    <!-- 5% -->
    <g style="fill: #262626" transform="translate(505.673345 347.845026) scale(0.1 -0.1)">
     <defs>
      <path id="ArialMT-35" d="M 266 1200 
L 856 1250 
Q 922 819 1161 601 
Q 1400 384 1738 384 
Q 2144 384 2425 690 
Q 2706 997 2706 1503 
Q 2706 1984 2436 2262 
Q 2166 2541 1728 2541 
Q 1456 2541 1237 2417 
Q 1019 2294 894 2097 
L 366 2166 
L 809 4519 
L 3088 4519 
L 3088 3981 
L 1259 3981 
L 1013 2750 
Q 1425 3038 1878 3038 
Q 2478 3038 2890 2622 
Q 3303 2206 3303 1553 
Q 3303 931 2941 478 
Q 2500 -78 1738 -78 
Q 1113 -78 717 272 
Q 322 622 266 1200 
z
" transform="scale(0.015625)"/>
     </defs>
     <use xlink:href="#ArialMT-35"/>
     <use xlink:href="#ArialMT-25" x="55.615234"/>
    </g>
   </g>
   <g id="text_57">
    <!-- No -->
    <g style="fill: #262626" transform="translate(435.966967 401.15389) scale(0.1 -0.1)">
     <use xlink:href="#ArialMT-4e"/>
     <use xlink:href="#ArialMT-6f" x="72.216797"/>
    </g>
   </g>
   <g id="text_58">
    <!-- 95% -->
    <g style="fill: #262626" transform="translate(456.562228 386.345872) scale(0.1 -0.1)">
     <use xlink:href="#ArialMT-39"/>
     <use xlink:href="#ArialMT-35" x="55.615234"/>
     <use xlink:href="#ArialMT-25" x="111.230469"/>
    </g>
   </g>
   <g id="text_59">
    <!-- Wikidata Database -->
    <g style="fill: #262626" transform="translate(437.596697 302.068125) scale(0.12 -0.12)">
     <defs>
      <path id="ArialMT-57" d="M 1294 0 
L 78 4581 
L 700 4581 
L 1397 1578 
Q 1509 1106 1591 641 
Q 1766 1375 1797 1488 
L 2669 4581 
L 3400 4581 
L 4056 2263 
Q 4303 1400 4413 641 
Q 4500 1075 4641 1638 
L 5359 4581 
L 5969 4581 
L 4713 0 
L 4128 0 
L 3163 3491 
Q 3041 3928 3019 4028 
Q 2947 3713 2884 3491 
L 1913 0 
L 1294 0 
z
" transform="scale(0.015625)"/>
      <path id="ArialMT-6b" d="M 425 0 
L 425 4581 
L 988 4581 
L 988 1969 
L 2319 3319 
L 3047 3319 
L 1778 2088 
L 3175 0 
L 2481 0 
L 1384 1697 
L 988 1316 
L 988 0 
L 425 0 
z
" transform="scale(0.015625)"/>
      <path id="ArialMT-62" d="M 941 0 
L 419 0 
L 419 4581 
L 981 4581 
L 981 2947 
Q 1338 3394 1891 3394 
Q 2197 3394 2470 3270 
Q 2744 3147 2920 2923 
Q 3097 2700 3197 2384 
Q 3297 2069 3297 1709 
Q 3297 856 2875 390 
Q 2453 -75 1863 -75 
Q 1275 -75 941 416 
L 941 0 
z
M 934 1684 
Q 934 1088 1097 822 
Q 1363 388 1816 388 
Q 2184 388 2453 708 
Q 2722 1028 2722 1663 
Q 2722 2313 2464 2622 
Q 2206 2931 1841 2931 
Q 1472 2931 1203 2611 
Q 934 2291 934 1684 
z
" transform="scale(0.015625)"/>
     </defs>
     <use xlink:href="#ArialMT-57"/>
     <use xlink:href="#ArialMT-69" x="94.384766"/>
     <use xlink:href="#ArialMT-6b" x="116.601562"/>
     <use xlink:href="#ArialMT-69" x="166.601562"/>
     <use xlink:href="#ArialMT-64" x="188.818359"/>
     <use xlink:href="#ArialMT-61" x="244.433594"/>
     <use xlink:href="#ArialMT-74" x="300.048828"/>
     <use xlink:href="#ArialMT-61" x="327.832031"/>
     <use xlink:href="#ArialMT-20" x="383.447266"/>
     <use xlink:href="#ArialMT-44" x="411.230469"/>
     <use xlink:href="#ArialMT-61" x="483.447266"/>
     <use xlink:href="#ArialMT-74" x="539.0625"/>
     <use xlink:href="#ArialMT-61" x="566.845703"/>
     <use xlink:href="#ArialMT-62" x="622.460938"/>
     <use xlink:href="#ArialMT-61" x="678.076172"/>
     <use xlink:href="#ArialMT-73" x="733.691406"/>
     <use xlink:href="#ArialMT-65" x="783.691406"/>
    </g>
   </g>
  </g>
  <g id="axes_12">
   <g id="matplotlib.axis_23"/>
   <g id="matplotlib.axis_24"/>
   <g id="patch_26">
    <path d="M 724.247623 339.417579 
C 721.914122 335.375836 718.983353 331.709717 715.55466 328.543492 
C 712.125967 325.377267 708.238532 322.747119 704.024127 320.7422 
L 684.117413 362.586766 
L 724.247623 339.417579 
z
" style="fill: #1f77b4; stroke: #ffffff; stroke-linejoin: miter"/>
   </g>
   <g id="patch_27">
    <path d="M 700.880402 324.146527 
C 695.915803 321.784719 690.570271 320.325176 685.094289 319.836293 
C 679.618307 319.347409 674.098766 319.836941 668.794303 321.28195 
C 663.489839 322.726959 658.484622 325.104516 654.013188 328.303213 
C 649.541754 331.501909 645.675053 335.47099 642.594274 340.024471 
C 639.513495 344.577951 637.267521 349.643578 635.961596 354.983984 
C 634.65567 360.324391 634.310515 365.854838 634.942303 371.316177 
C 635.574091 376.777516 637.172798 382.08309 639.663511 386.984287 
C 642.154223 391.885485 645.49742 396.304536 649.536445 400.03437 
C 653.575469 403.764205 658.246231 406.74564 663.329867 408.83897 
C 668.413502 410.932301 673.829347 412.10431 679.323622 412.300081 
C 684.817896 412.495851 690.303422 411.712276 695.523154 409.986072 
C 700.742886 408.259868 705.614001 405.618425 709.908245 402.185519 
C 714.20249 398.752613 717.851726 394.582714 720.684955 389.871218 
C 723.518184 385.159722 725.49045 379.981388 726.509336 374.578865 
C 727.528222 369.176342 727.577561 363.635354 726.65504 358.215545 
C 725.732519 352.795735 723.852777 347.583101 721.103895 342.821901 
L 680.973689 365.991094 
L 700.880402 324.146527 
z
" style="fill: #ff7f0e; stroke: #ffffff; stroke-linejoin: miter"/>
   </g>
   <g id="text_60">
    <!-- Yes -->
    <g style="fill: #262626" transform="translate(718.698385 327.724321) scale(0.1 -0.1)">
     <use xlink:href="#ArialMT-59"/>
     <use xlink:href="#ArialMT-65" x="57.574219"/>
     <use xlink:href="#ArialMT-73" x="113.189453"/>
    </g>
   </g>
   <g id="text_61">
    <!-- 10% -->
    <g style="fill: #262626" transform="translate(692.97273 344.745958) scale(0.1 -0.1)">
     <use xlink:href="#ArialMT-31"/>
     <use xlink:href="#ArialMT-30" x="55.615234"/>
     <use xlink:href="#ArialMT-25" x="111.230469"/>
    </g>
   </g>
   <g id="text_62">
    <!-- No -->
    <g style="fill: #262626" transform="translate(633.609908 406.023854) scale(0.1 -0.1)">
     <use xlink:href="#ArialMT-4e"/>
     <use xlink:href="#ArialMT-6f" x="72.216797"/>
    </g>
   </g>
   <g id="text_63">
    <!-- 90% -->
    <g style="fill: #262626" transform="translate(652.104311 389.002216) scale(0.1 -0.1)">
     <use xlink:href="#ArialMT-39"/>
     <use xlink:href="#ArialMT-30" x="55.615234"/>
     <use xlink:href="#ArialMT-25" x="111.230469"/>
    </g>
   </g>
   <g id="text_64">
    <!-- OBO -->
    <g style="fill: #262626" transform="translate(667.637751 302.068125) scale(0.12 -0.12)">
     <use xlink:href="#ArialMT-4f"/>
     <use xlink:href="#ArialMT-42" x="77.783203"/>
     <use xlink:href="#ArialMT-4f" x="144.482422"/>
    </g>
   </g>
  </g>
  <g id="axes_13">
   <g id="matplotlib.axis_25"/>
   <g id="matplotlib.axis_26"/>
   <g id="patch_28">
    <path d="M 143.964299 479.892116 
C 139.144859 471.544601 131.838881 464.905247 123.069715 460.90403 
C 114.300549 456.902813 104.497682 455.735701 95.034205 457.566172 
L 103.834089 503.061304 
L 143.964299 479.892116 
z
" style="fill: #1f77b4; stroke: #ffffff; stroke-linejoin: miter"/>
   </g>
   <g id="patch_29">
    <path d="M 93.110643 461.781899 
C 88.319106 462.708701 83.703929 464.386676 79.43602 466.753686 
C 75.168111 469.120696 71.300812 472.147156 67.977337 475.720992 
C 64.653863 479.294827 61.91575 483.371371 59.864398 487.799659 
C 57.813046 492.227947 56.474092 496.952634 55.897121 501.798755 
C 55.320151 506.644876 55.512374 511.551862 56.466673 516.337998 
C 57.420972 521.124134 59.125419 525.729601 61.516896 529.983849 
C 63.908372 534.238096 66.956989 538.087954 70.549848 541.390853 
C 74.142708 544.693752 78.234906 547.408412 82.6749 549.434304 
C 87.114894 551.460196 91.847191 552.771999 96.696545 553.321134 
C 101.545899 553.870269 106.451701 553.649874 111.232278 552.668109 
C 116.012856 551.686345 120.60846 549.955481 124.848906 547.539617 
C 129.089352 545.123752 132.921641 542.05308 136.203856 538.441315 
C 139.486071 534.82955 142.177189 530.721832 144.177554 526.270279 
C 146.177918 521.818726 147.462527 517.078974 147.983809 512.226547 
C 148.505091 507.37412 148.25653 502.469665 147.247332 497.694803 
C 146.238134 492.919942 144.480912 488.334352 142.040739 484.107848 
L 101.910527 507.277031 
L 93.110643 461.781899 
z
" style="fill: #ff7f0e; stroke: #ffffff; stroke-linejoin: miter"/>
   </g>
   <g id="text_65">
    <!-- Yes -->
    <g style="fill: #262626" transform="translate(124.993277 459.273459) scale(0.1 -0.1)">
     <use xlink:href="#ArialMT-59"/>
     <use xlink:href="#ArialMT-65" x="57.574219"/>
     <use xlink:href="#ArialMT-73" x="113.189453"/>
    </g>
   </g>
   <g id="text_66">
    <!-- 20% -->
    <g style="fill: #262626" transform="translate(105.368433 480.352096) scale(0.1 -0.1)">
     <use xlink:href="#ArialMT-32"/>
     <use xlink:href="#ArialMT-30" x="55.615234"/>
     <use xlink:href="#ArialMT-25" x="111.230469"/>
    </g>
   </g>
   <g id="text_67">
    <!-- No -->
    <g style="fill: #262626" transform="translate(67.968525 556.235188) scale(0.1 -0.1)">
     <use xlink:href="#ArialMT-4e"/>
     <use xlink:href="#ArialMT-6f" x="72.216797"/>
    </g>
   </g>
   <g id="text_68">
    <!-- 80% -->
    <g style="fill: #262626" transform="translate(80.362119 535.156551) scale(0.1 -0.1)">
     <use xlink:href="#ArialMT-38"/>
     <use xlink:href="#ArialMT-30" x="55.615234"/>
     <use xlink:href="#ArialMT-25" x="111.230469"/>
    </g>
   </g>
   <g id="text_69">
    <!-- OWL -->
    <g style="fill: #262626" transform="translate(88.243652 443.354062) scale(0.12 -0.12)">
     <use xlink:href="#ArialMT-4f"/>
     <use xlink:href="#ArialMT-57" x="77.783203"/>
     <use xlink:href="#ArialMT-4c" x="172.167969"/>
    </g>
   </g>
  </g>
  <g id="axes_14">
   <g id="matplotlib.axis_27"/>
   <g id="matplotlib.axis_28"/>
   <g id="patch_30">
    <path d="M 338.88236 481.485689 
C 338.28073 480.443633 337.638738 479.425407 336.957847 478.433325 
C 336.276956 477.441243 335.557681 476.476058 334.801658 475.539966 
L 298.752151 504.654876 
L 338.88236 481.485689 
z
" style="fill: #1f77b4; stroke: #ffffff; stroke-linejoin: miter"/>
   </g>
   <g id="patch_31">
    <path d="M 330.981089 478.162121 
C 327.253128 473.546234 322.673079 469.689022 317.490346 466.80053 
C 312.307612 463.912038 306.618009 462.045665 300.731362 461.303044 
C 294.844714 460.560422 288.869848 460.955281 283.132124 462.466119 
C 277.3944 463.976957 271.999892 466.575843 267.242354 470.121255 
C 262.484817 473.666667 258.452204 478.093061 255.364109 483.159399 
C 252.276015 488.225737 250.18953 493.838358 249.218272 499.691627 
C 248.247014 505.544897 248.408939 511.530606 249.69523 517.322805 
C 250.981521 523.115003 253.368398 528.60661 256.725885 533.498583 
C 260.083371 538.390555 264.349396 542.592454 269.291656 545.875467 
C 274.233916 549.15848 279.761043 551.461914 285.572058 552.660336 
C 291.383073 553.858757 297.370547 553.930011 303.208436 552.870218 
C 309.046325 551.810424 314.626702 549.639176 319.645691 546.474707 
C 324.664679 543.310238 329.029492 539.21105 332.502445 534.400364 
C 335.975398 529.589677 338.492287 524.156427 339.916054 518.39648 
C 341.339822 512.636532 341.644148 506.656372 340.812459 500.781646 
C 339.98077 494.906921 338.028443 489.246236 335.061791 484.107843 
L 294.931581 507.277031 
L 330.981089 478.162121 
z
" style="fill: #ff7f0e; stroke: #ffffff; stroke-linejoin: miter"/>
   </g>
   <g id="text_70">
    <!-- Yes -->
    <g style="fill: #262626" transform="translate(340.778417 478.396326) scale(0.1 -0.1)">
     <use xlink:href="#ArialMT-59"/>
     <use xlink:href="#ArialMT-65" x="57.574219"/>
     <use xlink:href="#ArialMT-73" x="113.189453"/>
    </g>
   </g>
   <g id="text_71">
    <!-- 2% -->
    <g style="fill: #262626" transform="translate(314.449006 491.507102) scale(0.1 -0.1)">
     <use xlink:href="#ArialMT-32"/>
     <use xlink:href="#ArialMT-25" x="55.615234"/>
    </g>
   </g>
   <g id="text_72">
    <!-- No -->
    <g style="fill: #262626" transform="translate(240.122502 538.705894) scale(0.1 -0.1)">
     <use xlink:href="#ArialMT-4e"/>
     <use xlink:href="#ArialMT-6f" x="72.216797"/>
    </g>
   </g>
   <g id="text_73">
    <!-- 98% -->
    <g style="fill: #262626" transform="translate(262.001132 525.595118) scale(0.1 -0.1)">
     <use xlink:href="#ArialMT-39"/>
     <use xlink:href="#ArialMT-38" x="55.615234"/>
     <use xlink:href="#ArialMT-25" x="111.230469"/>
    </g>
   </g>
   <g id="text_74">
    <!-- JSON -->
    <g style="fill: #262626" transform="translate(278.929393 443.354062) scale(0.12 -0.12)">
     <defs>
      <path id="ArialMT-4a" d="M 184 1300 
L 731 1375 
Q 753 850 928 656 
Q 1103 463 1413 463 
Q 1641 463 1806 567 
Q 1972 672 2034 851 
Q 2097 1031 2097 1425 
L 2097 4581 
L 2703 4581 
L 2703 1459 
Q 2703 884 2564 568 
Q 2425 253 2123 87 
Q 1822 -78 1416 -78 
Q 813 -78 492 269 
Q 172 616 184 1300 
z
" transform="scale(0.015625)"/>
      <path id="ArialMT-53" d="M 288 1472 
L 859 1522 
Q 900 1178 1048 958 
Q 1197 738 1509 602 
Q 1822 466 2213 466 
Q 2559 466 2825 569 
Q 3091 672 3220 851 
Q 3350 1031 3350 1244 
Q 3350 1459 3225 1620 
Q 3100 1781 2813 1891 
Q 2628 1963 1997 2114 
Q 1366 2266 1113 2400 
Q 784 2572 623 2826 
Q 463 3081 463 3397 
Q 463 3744 659 4045 
Q 856 4347 1234 4503 
Q 1613 4659 2075 4659 
Q 2584 4659 2973 4495 
Q 3363 4331 3572 4012 
Q 3781 3694 3797 3291 
L 3216 3247 
Q 3169 3681 2898 3903 
Q 2628 4125 2100 4125 
Q 1550 4125 1298 3923 
Q 1047 3722 1047 3438 
Q 1047 3191 1225 3031 
Q 1400 2872 2139 2705 
Q 2878 2538 3153 2413 
Q 3553 2228 3743 1945 
Q 3934 1663 3934 1294 
Q 3934 928 3725 604 
Q 3516 281 3123 101 
Q 2731 -78 2241 -78 
Q 1619 -78 1198 103 
Q 778 284 539 648 
Q 300 1013 288 1472 
z
" transform="scale(0.015625)"/>
     </defs>
     <use xlink:href="#ArialMT-4a"/>
     <use xlink:href="#ArialMT-53" x="50"/>
     <use xlink:href="#ArialMT-4f" x="116.699219"/>
     <use xlink:href="#ArialMT-4e" x="194.482422"/>
    </g>
   </g>
  </g>
  <g id="axes_15"/>
  <g id="axes_16"/>
  <g id="text_75">
   <!-- https://github.com/biopragmatics/bioregistry (2022-11-10) -->
   <g style="fill: #808080; opacity: 0.5" transform="translate(294.92 574.31625) scale(0.08 -0.08)">
    <defs>
     <path id="ArialMT-3a" d="M 578 2678 
L 578 3319 
L 1219 3319 
L 1219 2678 
L 578 2678 
z
M 578 0 
L 578 641 
L 1219 641 
L 1219 0 
L 578 0 
z
" transform="scale(0.015625)"/>
     <path id="ArialMT-2f" d="M 0 -78 
L 1328 4659 
L 1778 4659 
L 453 -78 
L 0 -78 
z
" transform="scale(0.015625)"/>
     <path id="ArialMT-75" d="M 2597 0 
L 2597 488 
Q 2209 -75 1544 -75 
Q 1250 -75 995 37 
Q 741 150 617 320 
Q 494 491 444 738 
Q 409 903 409 1263 
L 409 3319 
L 972 3319 
L 972 1478 
Q 972 1038 1006 884 
Q 1059 663 1231 536 
Q 1403 409 1656 409 
Q 1909 409 2131 539 
Q 2353 669 2445 892 
Q 2538 1116 2538 1541 
L 2538 3319 
L 3100 3319 
L 3100 0 
L 2597 0 
z
" transform="scale(0.015625)"/>
     <path id="ArialMT-28" d="M 1497 -1347 
Q 1031 -759 709 28 
Q 388 816 388 1659 
Q 388 2403 628 3084 
Q 909 3875 1497 4659 
L 1900 4659 
Q 1522 4009 1400 3731 
Q 1209 3300 1100 2831 
Q 966 2247 966 1656 
Q 966 153 1900 -1347 
L 1497 -1347 
z
" transform="scale(0.015625)"/>
     <path id="ArialMT-2d" d="M 203 1375 
L 203 1941 
L 1931 1941 
L 1931 1375 
L 203 1375 
z
" transform="scale(0.015625)"/>
     <path id="ArialMT-29" d="M 791 -1347 
L 388 -1347 
Q 1322 153 1322 1656 
Q 1322 2244 1188 2822 
Q 1081 3291 891 3722 
Q 769 4003 388 4659 
L 791 4659 
Q 1378 3875 1659 3084 
Q 1900 2403 1900 1659 
Q 1900 816 1576 28 
Q 1253 -759 791 -1347 
z
" transform="scale(0.015625)"/>
    </defs>
    <use xlink:href="#ArialMT-68"/>
    <use xlink:href="#ArialMT-74" x="55.615234"/>
    <use xlink:href="#ArialMT-74" x="83.398438"/>
    <use xlink:href="#ArialMT-70" x="111.181641"/>
    <use xlink:href="#ArialMT-73" x="166.796875"/>
    <use xlink:href="#ArialMT-3a" x="216.796875"/>
    <use xlink:href="#ArialMT-2f" x="244.580078"/>
    <use xlink:href="#ArialMT-2f" x="272.363281"/>
    <use xlink:href="#ArialMT-67" x="300.146484"/>
    <use xlink:href="#ArialMT-69" x="355.761719"/>
    <use xlink:href="#ArialMT-74" x="377.978516"/>
    <use xlink:href="#ArialMT-68" x="405.761719"/>
    <use xlink:href="#ArialMT-75" x="461.376953"/>
    <use xlink:href="#ArialMT-62" x="516.992188"/>
    <use xlink:href="#ArialMT-2e" x="572.607422"/>
    <use xlink:href="#ArialMT-63" x="600.390625"/>
    <use xlink:href="#ArialMT-6f" x="650.390625"/>
    <use xlink:href="#ArialMT-6d" x="706.005859"/>
    <use xlink:href="#ArialMT-2f" x="789.306641"/>
    <use xlink:href="#ArialMT-62" x="817.089844"/>
    <use xlink:href="#ArialMT-69" x="872.705078"/>
    <use xlink:href="#ArialMT-6f" x="894.921875"/>
    <use xlink:href="#ArialMT-70" x="950.537109"/>
    <use xlink:href="#ArialMT-72" x="1006.152344"/>
    <use xlink:href="#ArialMT-61" x="1039.453125"/>
    <use xlink:href="#ArialMT-67" x="1095.068359"/>
    <use xlink:href="#ArialMT-6d" x="1150.683594"/>
    <use xlink:href="#ArialMT-61" x="1233.984375"/>
    <use xlink:href="#ArialMT-74" x="1289.599609"/>
    <use xlink:href="#ArialMT-69" x="1317.382812"/>
    <use xlink:href="#ArialMT-63" x="1339.599609"/>
    <use xlink:href="#ArialMT-73" x="1389.599609"/>
    <use xlink:href="#ArialMT-2f" x="1439.599609"/>
    <use xlink:href="#ArialMT-62" x="1467.382812"/>
    <use xlink:href="#ArialMT-69" x="1522.998047"/>
    <use xlink:href="#ArialMT-6f" x="1545.214844"/>
    <use xlink:href="#ArialMT-72" x="1600.830078"/>
    <use xlink:href="#ArialMT-65" x="1634.130859"/>
    <use xlink:href="#ArialMT-67" x="1689.746094"/>
    <use xlink:href="#ArialMT-69" x="1745.361328"/>
    <use xlink:href="#ArialMT-73" x="1767.578125"/>
    <use xlink:href="#ArialMT-74" x="1817.578125"/>
    <use xlink:href="#ArialMT-72" x="1845.361328"/>
    <use xlink:href="#ArialMT-79" x="1878.662109"/>
    <use xlink:href="#ArialMT-20" x="1928.662109"/>
    <use xlink:href="#ArialMT-28" x="1956.445312"/>
    <use xlink:href="#ArialMT-32" x="1989.746094"/>
    <use xlink:href="#ArialMT-30" x="2045.361328"/>
    <use xlink:href="#ArialMT-32" x="2100.976562"/>
    <use xlink:href="#ArialMT-32" x="2156.591797"/>
    <use xlink:href="#ArialMT-2d" x="2212.207031"/>
    <use xlink:href="#ArialMT-31" x="2245.507812"/>
    <use xlink:href="#ArialMT-31" x="2293.748047"/>
    <use xlink:href="#ArialMT-2d" x="2349.363281"/>
    <use xlink:href="#ArialMT-31" x="2382.664062"/>
    <use xlink:href="#ArialMT-30" x="2438.279297"/>
    <use xlink:href="#ArialMT-29" x="2493.894531"/>
   </g>
  </g>
 </g>
</svg>
