<?xml version="1.0" encoding="utf-8" standalone="no"?>
<!DOCTYPE svg PUBLIC "-//W3C//DTD SVG 1.1//EN"
  "http://www.w3.org/Graphics/SVG/1.1/DTD/svg11.dtd">
<svg xmlns:xlink="http://www.w3.org/1999/xlink" width="792pt" height="576pt" viewBox="0 0 792 576" xmlns="http://www.w3.org/2000/svg" version="1.1">
 <metadata>
  <rdf:RDF xmlns:dc="http://purl.org/dc/elements/1.1/" xmlns:cc="http://creativecommons.org/ns#" xmlns:rdf="http://www.w3.org/1999/02/22-rdf-syntax-ns#">
   <cc:Work>
    <dc:type rdf:resource="http://purl.org/dc/dcmitype/StillImage"/>
    <dc:date>2022-05-12T13:36:12.533881</dc:date>
    <dc:format>image/svg+xml</dc:format>
    <dc:creator>
     <cc:Agent>
      <dc:title>Matplotlib v3.5.2, https://matplotlib.org/</dc:title>
     </cc:Agent>
    </dc:creator>
   </cc:Work>
  </rdf:RDF>
 </metadata>
 <defs>
  <style type="text/css">*{stroke-linejoin: round; stroke-linecap: butt}</style>
 </defs>
 <g id="figure_1">
  <g id="patch_1">
   <path d="M 0 576 
L 792 576 
L 792 0 
L 0 0 
z
" style="fill: #ffffff"/>
  </g>
  <g id="axes_1">
   <g id="matplotlib.axis_1"/>
   <g id="matplotlib.axis_2"/>
   <g id="patch_2">
    <path d="M 131.334764 61.642589 
C 128.5049 56.741121 124.800842 52.399326 120.406383 48.832641 
C 116.011924 45.265956 111.000971 42.534366 105.622165 40.773412 
C 100.24336 39.012458 94.587162 38.251756 88.934232 38.529051 
C 83.281302 38.806346 77.726711 40.116975 72.546075 42.395905 
C 67.365439 44.674834 62.645887 47.883738 58.621601 51.86339 
C 54.597315 55.843042 51.335976 60.526514 48.99941 65.681411 
C 46.662845 70.836309 45.29035 76.375938 44.950027 82.025424 
C 44.609705 87.67491 45.307279 93.339239 47.008136 98.73735 
C 48.708992 104.13546 51.384527 109.176566 54.901981 113.610529 
C 58.419434 118.044493 62.71965 121.796743 67.589252 124.681094 
C 72.458855 127.565446 77.815946 129.533389 83.39471 130.487277 
C 88.973475 131.441164 94.680087 131.364952 100.231388 130.262423 
C 105.782688 129.159893 111.085315 127.049589 115.876153 124.036222 
C 120.666992 121.022855 124.865469 117.157105 128.263258 112.630789 
C 131.661047 108.104472 134.201003 102.993714 135.757096 97.552107 
C 137.313188 92.1105 137.859246 86.429562 137.368174 80.791179 
L 91.204554 84.811776 
L 131.334764 61.642589 
z
" style="fill: #1f77b4; stroke: #ffffff; stroke-linejoin: miter"/>
   </g>
   <g id="patch_3">
    <path d="M 141.787816 79.398622 
C 141.494877 76.035163 140.835224 72.713771 139.820613 69.493642 
C 138.806002 66.273513 137.442498 63.173893 135.754402 60.250026 
L 95.624196 83.419219 
L 141.787816 79.398622 
z
" style="fill: #ff7f0e; stroke: #ffffff; stroke-linejoin: miter"/>
   </g>
   <g id="text_1">
    <!-- Yes -->
    <g style="fill: #262626" transform="translate(26.269744 102.715063)scale(0.1 -0.1)">
     <defs>
      <path id="ArialMT-59" d="M 1784 0 
L 1784 1941 
L 19 4581 
L 756 4581 
L 1659 3200 
Q 1909 2813 2125 2425 
Q 2331 2784 2625 3234 
L 3513 4581 
L 4219 4581 
L 2391 1941 
L 2391 0 
L 1784 0 
z
" transform="scale(0.015625)"/>
      <path id="ArialMT-65" d="M 2694 1069 
L 3275 997 
Q 3138 488 2766 206 
Q 2394 -75 1816 -75 
Q 1088 -75 661 373 
Q 234 822 234 1631 
Q 234 2469 665 2931 
Q 1097 3394 1784 3394 
Q 2450 3394 2872 2941 
Q 3294 2488 3294 1666 
Q 3294 1616 3291 1516 
L 816 1516 
Q 847 969 1125 678 
Q 1403 388 1819 388 
Q 2128 388 2347 550 
Q 2566 713 2694 1069 
z
M 847 1978 
L 2700 1978 
Q 2663 2397 2488 2606 
Q 2219 2931 1791 2931 
Q 1403 2931 1139 2672 
Q 875 2413 847 1978 
z
" transform="scale(0.015625)"/>
      <path id="ArialMT-73" d="M 197 991 
L 753 1078 
Q 800 744 1014 566 
Q 1228 388 1613 388 
Q 2000 388 2187 545 
Q 2375 703 2375 916 
Q 2375 1106 2209 1216 
Q 2094 1291 1634 1406 
Q 1016 1563 777 1677 
Q 538 1791 414 1992 
Q 291 2194 291 2438 
Q 291 2659 392 2848 
Q 494 3038 669 3163 
Q 800 3259 1026 3326 
Q 1253 3394 1513 3394 
Q 1903 3394 2198 3281 
Q 2494 3169 2634 2976 
Q 2775 2784 2828 2463 
L 2278 2388 
Q 2241 2644 2061 2787 
Q 1881 2931 1553 2931 
Q 1166 2931 1000 2803 
Q 834 2675 834 2503 
Q 834 2394 903 2306 
Q 972 2216 1119 2156 
Q 1203 2125 1616 2013 
Q 2213 1853 2448 1751 
Q 2684 1650 2818 1456 
Q 2953 1263 2953 975 
Q 2953 694 2789 445 
Q 2625 197 2315 61 
Q 2006 -75 1616 -75 
Q 969 -75 630 194 
Q 291 463 197 991 
z
" transform="scale(0.015625)"/>
     </defs>
     <use xlink:href="#ArialMT-59"/>
     <use xlink:href="#ArialMT-65" x="57.574219"/>
     <use xlink:href="#ArialMT-73" x="113.189453"/>
    </g>
   </g>
   <g id="text_2">
    <!-- 93% -->
    <g style="fill: #262626" transform="translate(54.679672 95.752277)scale(0.1 -0.1)">
     <defs>
      <path id="ArialMT-39" d="M 350 1059 
L 891 1109 
Q 959 728 1153 556 
Q 1347 384 1650 384 
Q 1909 384 2104 503 
Q 2300 622 2425 820 
Q 2550 1019 2634 1356 
Q 2719 1694 2719 2044 
Q 2719 2081 2716 2156 
Q 2547 1888 2255 1720 
Q 1963 1553 1622 1553 
Q 1053 1553 659 1965 
Q 266 2378 266 3053 
Q 266 3750 677 4175 
Q 1088 4600 1706 4600 
Q 2153 4600 2523 4359 
Q 2894 4119 3086 3673 
Q 3278 3228 3278 2384 
Q 3278 1506 3087 986 
Q 2897 466 2520 194 
Q 2144 -78 1638 -78 
Q 1100 -78 759 220 
Q 419 519 350 1059 
z
M 2653 3081 
Q 2653 3566 2395 3850 
Q 2138 4134 1775 4134 
Q 1400 4134 1122 3828 
Q 844 3522 844 3034 
Q 844 2597 1108 2323 
Q 1372 2050 1759 2050 
Q 2150 2050 2401 2323 
Q 2653 2597 2653 3081 
z
" transform="scale(0.015625)"/>
      <path id="ArialMT-33" d="M 269 1209 
L 831 1284 
Q 928 806 1161 595 
Q 1394 384 1728 384 
Q 2125 384 2398 659 
Q 2672 934 2672 1341 
Q 2672 1728 2419 1979 
Q 2166 2231 1775 2231 
Q 1616 2231 1378 2169 
L 1441 2663 
Q 1497 2656 1531 2656 
Q 1891 2656 2178 2843 
Q 2466 3031 2466 3422 
Q 2466 3731 2256 3934 
Q 2047 4138 1716 4138 
Q 1388 4138 1169 3931 
Q 950 3725 888 3313 
L 325 3413 
Q 428 3978 793 4289 
Q 1159 4600 1703 4600 
Q 2078 4600 2393 4439 
Q 2709 4278 2876 4000 
Q 3044 3722 3044 3409 
Q 3044 3113 2884 2869 
Q 2725 2625 2413 2481 
Q 2819 2388 3044 2092 
Q 3269 1797 3269 1353 
Q 3269 753 2831 336 
Q 2394 -81 1725 -81 
Q 1122 -81 723 278 
Q 325 638 269 1209 
z
" transform="scale(0.015625)"/>
      <path id="ArialMT-25" d="M 372 3481 
Q 372 3972 619 4315 
Q 866 4659 1334 4659 
Q 1766 4659 2048 4351 
Q 2331 4044 2331 3447 
Q 2331 2866 2045 2552 
Q 1759 2238 1341 2238 
Q 925 2238 648 2547 
Q 372 2856 372 3481 
z
M 1350 4272 
Q 1141 4272 1002 4090 
Q 863 3909 863 3425 
Q 863 2984 1003 2804 
Q 1144 2625 1350 2625 
Q 1563 2625 1702 2806 
Q 1841 2988 1841 3469 
Q 1841 3913 1700 4092 
Q 1559 4272 1350 4272 
z
M 1353 -169 
L 3859 4659 
L 4316 4659 
L 1819 -169 
L 1353 -169 
z
M 3334 1075 
Q 3334 1569 3581 1911 
Q 3828 2253 4300 2253 
Q 4731 2253 5014 1945 
Q 5297 1638 5297 1041 
Q 5297 459 5011 145 
Q 4725 -169 4303 -169 
Q 3888 -169 3611 142 
Q 3334 453 3334 1075 
z
M 4316 1866 
Q 4103 1866 3964 1684 
Q 3825 1503 3825 1019 
Q 3825 581 3965 400 
Q 4106 219 4313 219 
Q 4528 219 4667 400 
Q 4806 581 4806 1063 
Q 4806 1506 4665 1686 
Q 4525 1866 4316 1866 
z
" transform="scale(0.015625)"/>
     </defs>
     <use xlink:href="#ArialMT-39"/>
     <use xlink:href="#ArialMT-33" x="55.615234"/>
     <use xlink:href="#ArialMT-25" x="111.230469"/>
    </g>
   </g>
   <g id="text_3">
    <!-- No -->
    <g style="fill: #262626" transform="translate(144.240255 70.686241)scale(0.1 -0.1)">
     <defs>
      <path id="ArialMT-4e" d="M 488 0 
L 488 4581 
L 1109 4581 
L 3516 984 
L 3516 4581 
L 4097 4581 
L 4097 0 
L 3475 0 
L 1069 3600 
L 1069 0 
L 488 0 
z
" transform="scale(0.015625)"/>
      <path id="ArialMT-6f" d="M 213 1659 
Q 213 2581 725 3025 
Q 1153 3394 1769 3394 
Q 2453 3394 2887 2945 
Q 3322 2497 3322 1706 
Q 3322 1066 3130 698 
Q 2938 331 2570 128 
Q 2203 -75 1769 -75 
Q 1072 -75 642 372 
Q 213 819 213 1659 
z
M 791 1659 
Q 791 1022 1069 705 
Q 1347 388 1769 388 
Q 2188 388 2466 706 
Q 2744 1025 2744 1678 
Q 2744 2294 2464 2611 
Q 2184 2928 1769 2928 
Q 1347 2928 1069 2612 
Q 791 2297 791 1659 
z
" transform="scale(0.015625)"/>
     </defs>
     <use xlink:href="#ArialMT-4e"/>
     <use xlink:href="#ArialMT-6f" x="72.216797"/>
    </g>
   </g>
   <g id="text_4">
    <!-- 7% -->
    <g style="fill: #262626" transform="translate(114.915484 77.649029)scale(0.1 -0.1)">
     <defs>
      <path id="ArialMT-37" d="M 303 3981 
L 303 4522 
L 3269 4522 
L 3269 4084 
Q 2831 3619 2401 2847 
Q 1972 2075 1738 1259 
Q 1569 684 1522 0 
L 944 0 
Q 953 541 1156 1306 
Q 1359 2072 1739 2783 
Q 2119 3494 2547 3981 
L 303 3981 
z
" transform="scale(0.015625)"/>
     </defs>
     <use xlink:href="#ArialMT-37"/>
     <use xlink:href="#ArialMT-25" x="55.615234"/>
    </g>
   </g>
   <g id="text_5">
    <!-- Name -->
    <g style="fill: #262626" transform="translate(79.620133 19.49625)scale(0.12 -0.12)">
     <defs>
      <path id="ArialMT-61" d="M 2588 409 
Q 2275 144 1986 34 
Q 1697 -75 1366 -75 
Q 819 -75 525 192 
Q 231 459 231 875 
Q 231 1119 342 1320 
Q 453 1522 633 1644 
Q 813 1766 1038 1828 
Q 1203 1872 1538 1913 
Q 2219 1994 2541 2106 
Q 2544 2222 2544 2253 
Q 2544 2597 2384 2738 
Q 2169 2928 1744 2928 
Q 1347 2928 1158 2789 
Q 969 2650 878 2297 
L 328 2372 
Q 403 2725 575 2942 
Q 747 3159 1072 3276 
Q 1397 3394 1825 3394 
Q 2250 3394 2515 3294 
Q 2781 3194 2906 3042 
Q 3031 2891 3081 2659 
Q 3109 2516 3109 2141 
L 3109 1391 
Q 3109 606 3145 398 
Q 3181 191 3288 0 
L 2700 0 
Q 2613 175 2588 409 
z
M 2541 1666 
Q 2234 1541 1622 1453 
Q 1275 1403 1131 1340 
Q 988 1278 909 1158 
Q 831 1038 831 891 
Q 831 666 1001 516 
Q 1172 366 1500 366 
Q 1825 366 2078 508 
Q 2331 650 2450 897 
Q 2541 1088 2541 1459 
L 2541 1666 
z
" transform="scale(0.015625)"/>
      <path id="ArialMT-6d" d="M 422 0 
L 422 3319 
L 925 3319 
L 925 2853 
Q 1081 3097 1340 3245 
Q 1600 3394 1931 3394 
Q 2300 3394 2536 3241 
Q 2772 3088 2869 2813 
Q 3263 3394 3894 3394 
Q 4388 3394 4653 3120 
Q 4919 2847 4919 2278 
L 4919 0 
L 4359 0 
L 4359 2091 
Q 4359 2428 4304 2576 
Q 4250 2725 4106 2815 
Q 3963 2906 3769 2906 
Q 3419 2906 3187 2673 
Q 2956 2441 2956 1928 
L 2956 0 
L 2394 0 
L 2394 2156 
Q 2394 2531 2256 2718 
Q 2119 2906 1806 2906 
Q 1569 2906 1367 2781 
Q 1166 2656 1075 2415 
Q 984 2175 984 1722 
L 984 0 
L 422 0 
z
" transform="scale(0.015625)"/>
     </defs>
     <use xlink:href="#ArialMT-4e"/>
     <use xlink:href="#ArialMT-61" x="72.216797"/>
     <use xlink:href="#ArialMT-6d" x="127.832031"/>
     <use xlink:href="#ArialMT-65" x="211.132812"/>
    </g>
   </g>
  </g>
  <g id="axes_2">
   <g id="matplotlib.axis_3"/>
   <g id="matplotlib.axis_4"/>
   <g id="patch_4">
    <path d="M 311.783155 61.642589 
C 308.953292 56.741121 305.249233 52.399326 300.854774 48.832641 
C 296.460316 45.265956 291.449362 42.534366 286.070557 40.773412 
C 280.691751 39.012458 275.035554 38.251756 269.382624 38.529051 
C 263.729694 38.806346 258.175102 40.116975 252.994466 42.395905 
C 247.81383 44.674834 243.094278 47.883738 239.069992 51.86339 
C 235.045706 55.843042 231.784367 60.526514 229.447802 65.681411 
C 227.111236 70.836309 225.738741 76.375938 225.398419 82.025424 
C 225.058096 87.67491 225.75567 93.339239 227.456527 98.73735 
C 229.157384 104.13546 231.832919 109.176566 235.350372 113.610529 
C 238.867826 118.044493 243.168041 121.796743 248.037644 124.681094 
C 252.907246 127.565446 258.264338 129.533389 263.843102 130.487277 
C 269.421866 131.441164 275.128478 131.364952 280.679779 130.262423 
C 286.23108 129.159893 291.533707 127.049589 296.324545 124.036222 
C 301.115383 121.022855 305.31386 117.157105 308.711649 112.630789 
C 312.109438 108.104472 314.649395 102.993714 316.205487 97.552107 
C 317.761579 92.1105 318.307637 86.429562 317.816565 80.791179 
L 271.652945 84.811776 
L 311.783155 61.642589 
z
" style="fill: #1f77b4; stroke: #ffffff; stroke-linejoin: miter"/>
   </g>
   <g id="patch_5">
    <path d="M 322.236207 79.398622 
C 321.943268 76.035163 321.283615 72.713771 320.269004 69.493642 
C 319.254394 66.273513 317.89089 63.173893 316.202794 60.250026 
L 276.072587 83.419219 
L 322.236207 79.398622 
z
" style="fill: #ff7f0e; stroke: #ffffff; stroke-linejoin: miter"/>
   </g>
   <g id="text_6">
    <!-- Yes -->
    <g style="fill: #262626" transform="translate(206.718135 102.715063)scale(0.1 -0.1)">
     <use xlink:href="#ArialMT-59"/>
     <use xlink:href="#ArialMT-65" x="57.574219"/>
     <use xlink:href="#ArialMT-73" x="113.189453"/>
    </g>
   </g>
   <g id="text_7">
    <!-- 93% -->
    <g style="fill: #262626" transform="translate(235.128063 95.752277)scale(0.1 -0.1)">
     <use xlink:href="#ArialMT-39"/>
     <use xlink:href="#ArialMT-33" x="55.615234"/>
     <use xlink:href="#ArialMT-25" x="111.230469"/>
    </g>
   </g>
   <g id="text_8">
    <!-- No -->
    <g style="fill: #262626" transform="translate(324.688646 70.686241)scale(0.1 -0.1)">
     <use xlink:href="#ArialMT-4e"/>
     <use xlink:href="#ArialMT-6f" x="72.216797"/>
    </g>
   </g>
   <g id="text_9">
    <!-- 7% -->
    <g style="fill: #262626" transform="translate(295.363875 77.649029)scale(0.1 -0.1)">
     <use xlink:href="#ArialMT-37"/>
     <use xlink:href="#ArialMT-25" x="55.615234"/>
    </g>
   </g>
   <g id="text_10">
    <!-- Homepage -->
    <g style="fill: #262626" transform="translate(246.722275 19.49625)scale(0.12 -0.12)">
     <defs>
      <path id="ArialMT-48" d="M 513 0 
L 513 4581 
L 1119 4581 
L 1119 2700 
L 3500 2700 
L 3500 4581 
L 4106 4581 
L 4106 0 
L 3500 0 
L 3500 2159 
L 1119 2159 
L 1119 0 
L 513 0 
z
" transform="scale(0.015625)"/>
      <path id="ArialMT-70" d="M 422 -1272 
L 422 3319 
L 934 3319 
L 934 2888 
Q 1116 3141 1344 3267 
Q 1572 3394 1897 3394 
Q 2322 3394 2647 3175 
Q 2972 2956 3137 2557 
Q 3303 2159 3303 1684 
Q 3303 1175 3120 767 
Q 2938 359 2589 142 
Q 2241 -75 1856 -75 
Q 1575 -75 1351 44 
Q 1128 163 984 344 
L 984 -1272 
L 422 -1272 
z
M 931 1641 
Q 931 1000 1190 694 
Q 1450 388 1819 388 
Q 2194 388 2461 705 
Q 2728 1022 2728 1688 
Q 2728 2322 2467 2637 
Q 2206 2953 1844 2953 
Q 1484 2953 1207 2617 
Q 931 2281 931 1641 
z
" transform="scale(0.015625)"/>
      <path id="ArialMT-67" d="M 319 -275 
L 866 -356 
Q 900 -609 1056 -725 
Q 1266 -881 1628 -881 
Q 2019 -881 2231 -725 
Q 2444 -569 2519 -288 
Q 2563 -116 2559 434 
Q 2191 0 1641 0 
Q 956 0 581 494 
Q 206 988 206 1678 
Q 206 2153 378 2554 
Q 550 2956 876 3175 
Q 1203 3394 1644 3394 
Q 2231 3394 2613 2919 
L 2613 3319 
L 3131 3319 
L 3131 450 
Q 3131 -325 2973 -648 
Q 2816 -972 2473 -1159 
Q 2131 -1347 1631 -1347 
Q 1038 -1347 672 -1080 
Q 306 -813 319 -275 
z
M 784 1719 
Q 784 1066 1043 766 
Q 1303 466 1694 466 
Q 2081 466 2343 764 
Q 2606 1063 2606 1700 
Q 2606 2309 2336 2618 
Q 2066 2928 1684 2928 
Q 1309 2928 1046 2623 
Q 784 2319 784 1719 
z
" transform="scale(0.015625)"/>
     </defs>
     <use xlink:href="#ArialMT-48"/>
     <use xlink:href="#ArialMT-6f" x="72.216797"/>
     <use xlink:href="#ArialMT-6d" x="127.832031"/>
     <use xlink:href="#ArialMT-65" x="211.132812"/>
     <use xlink:href="#ArialMT-70" x="266.748047"/>
     <use xlink:href="#ArialMT-61" x="322.363281"/>
     <use xlink:href="#ArialMT-67" x="377.978516"/>
     <use xlink:href="#ArialMT-65" x="433.59375"/>
    </g>
   </g>
  </g>
  <g id="axes_3">
   <g id="matplotlib.axis_5"/>
   <g id="matplotlib.axis_6"/>
   <g id="patch_6">
    <path d="M 492.231547 61.642589 
C 489.401683 56.741121 485.697625 52.399326 481.303166 48.832641 
C 476.908707 45.265956 471.897754 42.534366 466.518948 40.773412 
C 461.140142 39.012458 455.483945 38.251756 449.831015 38.529051 
C 444.178085 38.806346 438.623494 40.116975 433.442858 42.395905 
C 428.262222 44.674834 423.542669 47.883738 419.518383 51.86339 
C 415.494097 55.843042 412.232758 60.526514 409.896193 65.681411 
C 407.559628 70.836309 406.187132 76.375938 405.84681 82.025424 
C 405.506487 87.67491 406.204061 93.339239 407.904918 98.73735 
C 409.605775 104.13546 412.28131 109.176566 415.798764 113.610529 
C 419.316217 118.044493 423.616433 121.796743 428.486035 124.681094 
C 433.355637 127.565446 438.712729 129.533389 444.291493 130.487277 
C 449.870257 131.441164 455.57687 131.364952 461.128171 130.262423 
C 466.679471 129.159893 471.982098 127.049589 476.772936 124.036222 
C 481.563774 121.022855 485.762251 117.157105 489.16004 112.630789 
C 492.557829 108.104472 495.097786 102.993714 496.653878 97.552107 
C 498.209971 92.1105 498.756029 86.429562 498.264956 80.791179 
L 452.101337 84.811776 
L 492.231547 61.642589 
z
" style="fill: #1f77b4; stroke: #ffffff; stroke-linejoin: miter"/>
   </g>
   <g id="patch_7">
    <path d="M 502.684598 79.398622 
C 502.39166 76.035163 501.732006 72.713771 500.717396 69.493642 
C 499.702785 66.273513 498.339281 63.173893 496.651185 60.250026 
L 456.520978 83.419219 
L 502.684598 79.398622 
z
" style="fill: #ff7f0e; stroke: #ffffff; stroke-linejoin: miter"/>
   </g>
   <g id="text_11">
    <!-- Yes -->
    <g style="fill: #262626" transform="translate(387.166526 102.715063)scale(0.1 -0.1)">
     <use xlink:href="#ArialMT-59"/>
     <use xlink:href="#ArialMT-65" x="57.574219"/>
     <use xlink:href="#ArialMT-73" x="113.189453"/>
    </g>
   </g>
   <g id="text_12">
    <!-- 93% -->
    <g style="fill: #262626" transform="translate(415.576454 95.752277)scale(0.1 -0.1)">
     <use xlink:href="#ArialMT-39"/>
     <use xlink:href="#ArialMT-33" x="55.615234"/>
     <use xlink:href="#ArialMT-25" x="111.230469"/>
    </g>
   </g>
   <g id="text_13">
    <!-- No -->
    <g style="fill: #262626" transform="translate(505.137038 70.686241)scale(0.1 -0.1)">
     <use xlink:href="#ArialMT-4e"/>
     <use xlink:href="#ArialMT-6f" x="72.216797"/>
    </g>
   </g>
   <g id="text_14">
    <!-- 7% -->
    <g style="fill: #262626" transform="translate(475.812266 77.649029)scale(0.1 -0.1)">
     <use xlink:href="#ArialMT-37"/>
     <use xlink:href="#ArialMT-25" x="55.615234"/>
    </g>
   </g>
   <g id="text_15">
    <!-- Description -->
    <g style="fill: #262626" transform="translate(426.510666 19.49625)scale(0.12 -0.12)">
     <defs>
      <path id="ArialMT-44" d="M 494 0 
L 494 4581 
L 2072 4581 
Q 2606 4581 2888 4516 
Q 3281 4425 3559 4188 
Q 3922 3881 4101 3404 
Q 4281 2928 4281 2316 
Q 4281 1794 4159 1391 
Q 4038 988 3847 723 
Q 3656 459 3429 307 
Q 3203 156 2883 78 
Q 2563 0 2147 0 
L 494 0 
z
M 1100 541 
L 2078 541 
Q 2531 541 2789 625 
Q 3047 709 3200 863 
Q 3416 1078 3536 1442 
Q 3656 1806 3656 2325 
Q 3656 3044 3420 3430 
Q 3184 3816 2847 3947 
Q 2603 4041 2063 4041 
L 1100 4041 
L 1100 541 
z
" transform="scale(0.015625)"/>
      <path id="ArialMT-63" d="M 2588 1216 
L 3141 1144 
Q 3050 572 2676 248 
Q 2303 -75 1759 -75 
Q 1078 -75 664 370 
Q 250 816 250 1647 
Q 250 2184 428 2587 
Q 606 2991 970 3192 
Q 1334 3394 1763 3394 
Q 2303 3394 2647 3120 
Q 2991 2847 3088 2344 
L 2541 2259 
Q 2463 2594 2264 2762 
Q 2066 2931 1784 2931 
Q 1359 2931 1093 2626 
Q 828 2322 828 1663 
Q 828 994 1084 691 
Q 1341 388 1753 388 
Q 2084 388 2306 591 
Q 2528 794 2588 1216 
z
" transform="scale(0.015625)"/>
      <path id="ArialMT-72" d="M 416 0 
L 416 3319 
L 922 3319 
L 922 2816 
Q 1116 3169 1280 3281 
Q 1444 3394 1641 3394 
Q 1925 3394 2219 3213 
L 2025 2691 
Q 1819 2813 1613 2813 
Q 1428 2813 1281 2702 
Q 1134 2591 1072 2394 
Q 978 2094 978 1738 
L 978 0 
L 416 0 
z
" transform="scale(0.015625)"/>
      <path id="ArialMT-69" d="M 425 3934 
L 425 4581 
L 988 4581 
L 988 3934 
L 425 3934 
z
M 425 0 
L 425 3319 
L 988 3319 
L 988 0 
L 425 0 
z
" transform="scale(0.015625)"/>
      <path id="ArialMT-74" d="M 1650 503 
L 1731 6 
Q 1494 -44 1306 -44 
Q 1000 -44 831 53 
Q 663 150 594 308 
Q 525 466 525 972 
L 525 2881 
L 113 2881 
L 113 3319 
L 525 3319 
L 525 4141 
L 1084 4478 
L 1084 3319 
L 1650 3319 
L 1650 2881 
L 1084 2881 
L 1084 941 
Q 1084 700 1114 631 
Q 1144 563 1211 522 
Q 1278 481 1403 481 
Q 1497 481 1650 503 
z
" transform="scale(0.015625)"/>
      <path id="ArialMT-6e" d="M 422 0 
L 422 3319 
L 928 3319 
L 928 2847 
Q 1294 3394 1984 3394 
Q 2284 3394 2536 3286 
Q 2788 3178 2913 3003 
Q 3038 2828 3088 2588 
Q 3119 2431 3119 2041 
L 3119 0 
L 2556 0 
L 2556 2019 
Q 2556 2363 2490 2533 
Q 2425 2703 2258 2804 
Q 2091 2906 1866 2906 
Q 1506 2906 1245 2678 
Q 984 2450 984 1813 
L 984 0 
L 422 0 
z
" transform="scale(0.015625)"/>
     </defs>
     <use xlink:href="#ArialMT-44"/>
     <use xlink:href="#ArialMT-65" x="72.216797"/>
     <use xlink:href="#ArialMT-73" x="127.832031"/>
     <use xlink:href="#ArialMT-63" x="177.832031"/>
     <use xlink:href="#ArialMT-72" x="227.832031"/>
     <use xlink:href="#ArialMT-69" x="261.132812"/>
     <use xlink:href="#ArialMT-70" x="283.349609"/>
     <use xlink:href="#ArialMT-74" x="338.964844"/>
     <use xlink:href="#ArialMT-69" x="366.748047"/>
     <use xlink:href="#ArialMT-6f" x="388.964844"/>
     <use xlink:href="#ArialMT-6e" x="444.580078"/>
    </g>
   </g>
  </g>
  <g id="axes_4">
   <g id="matplotlib.axis_7"/>
   <g id="matplotlib.axis_8"/>
   <g id="patch_8">
    <path d="M 672.61944 61.433585 
C 669.835281 56.61128 666.204564 52.330068 661.901751 48.79567 
C 657.598939 45.261271 652.694073 42.53122 647.422843 40.736701 
C 642.151612 38.942182 636.599823 38.112406 631.034251 38.287246 
C 625.468678 38.462085 619.979919 39.638695 614.831719 41.760535 
C 609.68352 43.882376 604.959683 46.914908 600.887198 50.712412 
C 596.814714 54.509916 593.459874 59.010576 590.983887 63.998126 
C 588.5079 68.985675 586.951069 74.378927 586.388203 79.918724 
C 585.825338 85.458521 586.2656 91.054685 587.687835 96.43831 
C 589.110069 101.821935 591.491125 106.905385 594.716587 111.444389 
C 597.942049 115.983394 601.959412 119.904067 606.575635 123.018012 
C 611.191858 126.131956 616.331797 128.388484 621.748467 129.679163 
C 627.165137 130.969843 632.770365 131.273664 638.294808 130.576028 
C 643.819251 129.878393 649.172982 128.190656 654.098742 125.593918 
C 659.024503 122.997179 663.442111 119.533709 667.139292 115.369934 
C 670.836472 111.206159 673.753042 106.409858 675.748855 101.211502 
C 677.744667 96.013147 678.787233 90.497356 678.826456 84.929176 
L 632.48923 84.602773 
L 672.61944 61.433585 
z
" style="fill: #1f77b4; stroke: #ffffff; stroke-linejoin: miter"/>
   </g>
   <g id="patch_9">
    <path d="M 683.306595 83.745623 
C 683.335505 79.641537 682.819039 75.55174 681.770766 71.583682 
C 680.722493 67.615625 679.151675 63.804364 677.099581 60.250033 
L 636.96937 83.419219 
L 683.306595 83.745623 
z
" style="fill: #ff7f0e; stroke: #ffffff; stroke-linejoin: miter"/>
   </g>
   <g id="text_16">
    <!-- Yes -->
    <g style="fill: #262626" transform="translate(566.888945 100.20702)scale(0.1 -0.1)">
     <use xlink:href="#ArialMT-59"/>
     <use xlink:href="#ArialMT-65" x="57.574219"/>
     <use xlink:href="#ArialMT-73" x="113.189453"/>
    </g>
   </g>
   <g id="text_17">
    <!-- 92% -->
    <g style="fill: #262626" transform="translate(595.601362 94.289251)scale(0.1 -0.1)">
     <defs>
      <path id="ArialMT-32" d="M 3222 541 
L 3222 0 
L 194 0 
Q 188 203 259 391 
Q 375 700 629 1000 
Q 884 1300 1366 1694 
Q 2113 2306 2375 2664 
Q 2638 3022 2638 3341 
Q 2638 3675 2398 3904 
Q 2159 4134 1775 4134 
Q 1369 4134 1125 3890 
Q 881 3647 878 3216 
L 300 3275 
Q 359 3922 746 4261 
Q 1134 4600 1788 4600 
Q 2447 4600 2831 4234 
Q 3216 3869 3216 3328 
Q 3216 3053 3103 2787 
Q 2991 2522 2730 2228 
Q 2469 1934 1863 1422 
Q 1356 997 1212 845 
Q 1069 694 975 541 
L 3222 541 
z
" transform="scale(0.015625)"/>
     </defs>
     <use xlink:href="#ArialMT-39"/>
     <use xlink:href="#ArialMT-32" x="55.615234"/>
     <use xlink:href="#ArialMT-25" x="111.230469"/>
    </g>
   </g>
   <g id="text_18">
    <!-- No -->
    <g style="fill: #262626" transform="translate(686.250905 72.985285)scale(0.1 -0.1)">
     <use xlink:href="#ArialMT-4e"/>
     <use xlink:href="#ArialMT-6f" x="72.216797"/>
    </g>
   </g>
   <g id="text_19">
    <!-- 8% -->
    <g style="fill: #262626" transform="translate(656.623645 78.903053)scale(0.1 -0.1)">
     <defs>
      <path id="ArialMT-38" d="M 1131 2484 
Q 781 2613 612 2850 
Q 444 3088 444 3419 
Q 444 3919 803 4259 
Q 1163 4600 1759 4600 
Q 2359 4600 2725 4251 
Q 3091 3903 3091 3403 
Q 3091 3084 2923 2848 
Q 2756 2613 2416 2484 
Q 2838 2347 3058 2040 
Q 3278 1734 3278 1309 
Q 3278 722 2862 322 
Q 2447 -78 1769 -78 
Q 1091 -78 675 323 
Q 259 725 259 1325 
Q 259 1772 486 2073 
Q 713 2375 1131 2484 
z
M 1019 3438 
Q 1019 3113 1228 2906 
Q 1438 2700 1772 2700 
Q 2097 2700 2305 2904 
Q 2513 3109 2513 3406 
Q 2513 3716 2298 3927 
Q 2084 4138 1766 4138 
Q 1444 4138 1231 3931 
Q 1019 3725 1019 3438 
z
M 838 1322 
Q 838 1081 952 856 
Q 1066 631 1291 507 
Q 1516 384 1775 384 
Q 2178 384 2440 643 
Q 2703 903 2703 1303 
Q 2703 1709 2433 1975 
Q 2163 2241 1756 2241 
Q 1359 2241 1098 1978 
Q 838 1716 838 1322 
z
" transform="scale(0.015625)"/>
     </defs>
     <use xlink:href="#ArialMT-38"/>
     <use xlink:href="#ArialMT-25" x="55.615234"/>
    </g>
   </g>
   <g id="text_20">
    <!-- Example -->
    <g style="fill: #262626" transform="translate(613.626557 19.49625)scale(0.12 -0.12)">
     <defs>
      <path id="ArialMT-45" d="M 506 0 
L 506 4581 
L 3819 4581 
L 3819 4041 
L 1113 4041 
L 1113 2638 
L 3647 2638 
L 3647 2100 
L 1113 2100 
L 1113 541 
L 3925 541 
L 3925 0 
L 506 0 
z
" transform="scale(0.015625)"/>
      <path id="ArialMT-78" d="M 47 0 
L 1259 1725 
L 138 3319 
L 841 3319 
L 1350 2541 
Q 1494 2319 1581 2169 
Q 1719 2375 1834 2534 
L 2394 3319 
L 3066 3319 
L 1919 1756 
L 3153 0 
L 2463 0 
L 1781 1031 
L 1600 1309 
L 728 0 
L 47 0 
z
" transform="scale(0.015625)"/>
      <path id="ArialMT-6c" d="M 409 0 
L 409 4581 
L 972 4581 
L 972 0 
L 409 0 
z
" transform="scale(0.015625)"/>
     </defs>
     <use xlink:href="#ArialMT-45"/>
     <use xlink:href="#ArialMT-78" x="66.699219"/>
     <use xlink:href="#ArialMT-61" x="116.699219"/>
     <use xlink:href="#ArialMT-6d" x="172.314453"/>
     <use xlink:href="#ArialMT-70" x="255.615234"/>
     <use xlink:href="#ArialMT-6c" x="311.230469"/>
     <use xlink:href="#ArialMT-65" x="333.447266"/>
    </g>
   </g>
  </g>
  <g id="axes_5">
   <g id="matplotlib.axis_9"/>
   <g id="matplotlib.axis_10"/>
   <g id="patch_10">
    <path d="M 131.127923 201.274984 
C 128.649687 196.982553 125.498732 193.115409 121.795371 189.821212 
C 118.09201 186.527015 113.883987 183.848234 109.331978 181.887154 
C 104.77997 179.926074 99.94266 178.707976 95.004754 178.279373 
C 90.066848 177.850769 85.092005 178.217185 80.270181 179.36463 
C 75.448357 180.512075 70.841715 182.425755 66.626151 185.0326 
C 62.410588 187.639445 58.64045 190.905848 55.459695 194.707086 
C 52.27894 198.508324 49.728573 202.795393 47.905976 207.404596 
C 46.083379 212.013799 45.012049 216.885717 44.732892 221.834321 
C 44.453736 226.782926 44.970353 231.744421 46.263015 236.52936 
C 47.555678 241.314299 49.607723 245.860994 52.340795 249.995838 
C 55.073867 254.130681 58.452733 257.800367 62.348374 260.864775 
C 66.244016 263.929182 70.606212 266.348804 75.268398 268.031252 
C 79.930585 269.713701 84.832658 270.637284 89.787439 270.766738 
C 94.742221 270.896193 99.685834 270.229848 104.429515 268.793148 
C 109.173196 267.356448 113.655789 265.167914 117.706135 262.311112 
C 121.756481 259.454311 125.322362 255.966071 128.267621 251.979585 
L 90.997714 224.444171 
L 131.127923 201.274984 
z
" style="fill: #1f77b4; stroke: #ffffff; stroke-linejoin: miter"/>
   </g>
   <g id="patch_11">
    <path d="M 132.894103 252.24057 
C 138.254172 244.985575 141.380982 236.320957 141.889017 227.315004 
C 142.397052 218.309051 140.26454 209.347749 135.754403 201.535965 
L 95.624196 224.705156 
L 132.894103 252.24057 
z
" style="fill: #ff7f0e; stroke: #ffffff; stroke-linejoin: miter"/>
   </g>
   <g id="text_21">
    <!-- Yes -->
    <g style="fill: #262626" transform="translate(23.78766 224.158493)scale(0.1 -0.1)">
     <use xlink:href="#ArialMT-59"/>
     <use xlink:href="#ArialMT-65" x="57.574219"/>
     <use xlink:href="#ArialMT-73" x="113.189453"/>
    </g>
   </g>
   <g id="text_22">
    <!-- 82% -->
    <g style="fill: #262626" transform="translate(53.23179 225.463418)scale(0.1 -0.1)">
     <use xlink:href="#ArialMT-38"/>
     <use xlink:href="#ArialMT-32" x="55.615234"/>
     <use xlink:href="#ArialMT-25" x="111.230469"/>
    </g>
   </g>
   <g id="text_23">
    <!-- No -->
    <g style="fill: #262626" transform="translate(146.515499 230.161145)scale(0.1 -0.1)">
     <use xlink:href="#ArialMT-4e"/>
     <use xlink:href="#ArialMT-6f" x="72.216797"/>
    </g>
   </g>
   <g id="text_24">
    <!-- 18% -->
    <g style="fill: #262626" transform="translate(113.376057 228.856221)scale(0.1 -0.1)">
     <defs>
      <path id="ArialMT-31" d="M 2384 0 
L 1822 0 
L 1822 3584 
Q 1619 3391 1289 3197 
Q 959 3003 697 2906 
L 697 3450 
Q 1169 3672 1522 3987 
Q 1875 4303 2022 4600 
L 2384 4600 
L 2384 0 
z
" transform="scale(0.015625)"/>
     </defs>
     <use xlink:href="#ArialMT-31"/>
     <use xlink:href="#ArialMT-38" x="55.615234"/>
     <use xlink:href="#ArialMT-25" x="111.230469"/>
    </g>
   </g>
   <g id="text_25">
    <!-- Pattern -->
    <g style="fill: #262626" transform="translate(76.280758 160.782188)scale(0.12 -0.12)">
     <defs>
      <path id="ArialMT-50" d="M 494 0 
L 494 4581 
L 2222 4581 
Q 2678 4581 2919 4538 
Q 3256 4481 3484 4323 
Q 3713 4166 3852 3881 
Q 3991 3597 3991 3256 
Q 3991 2672 3619 2267 
Q 3247 1863 2275 1863 
L 1100 1863 
L 1100 0 
L 494 0 
z
M 1100 2403 
L 2284 2403 
Q 2872 2403 3119 2622 
Q 3366 2841 3366 3238 
Q 3366 3525 3220 3729 
Q 3075 3934 2838 4000 
Q 2684 4041 2272 4041 
L 1100 4041 
L 1100 2403 
z
" transform="scale(0.015625)"/>
     </defs>
     <use xlink:href="#ArialMT-50"/>
     <use xlink:href="#ArialMT-61" x="66.699219"/>
     <use xlink:href="#ArialMT-74" x="122.314453"/>
     <use xlink:href="#ArialMT-74" x="150.097656"/>
     <use xlink:href="#ArialMT-65" x="177.880859"/>
     <use xlink:href="#ArialMT-72" x="233.496094"/>
     <use xlink:href="#ArialMT-6e" x="266.796875"/>
    </g>
   </g>
  </g>
  <g id="axes_6">
   <g id="matplotlib.axis_11"/>
   <g id="matplotlib.axis_12"/>
   <g id="patch_12">
    <path d="M 311.582033 201.883806 
C 308.97601 197.370041 305.627016 193.328135 301.676289 189.928548 
C 297.725563 186.528961 293.229433 183.820165 288.377516 181.916397 
C 283.525598 180.012629 278.387073 178.941034 273.178646 178.746805 
C 267.97022 178.552575 262.766154 179.23848 257.785922 180.775593 
C 252.805689 182.312706 248.120298 184.679111 243.927346 187.775008 
C 239.734393 190.870906 236.093663 194.652155 233.158696 198.959289 
C 230.223729 203.266422 228.036372 208.038029 226.688872 213.072875 
C 225.341373 218.107722 224.852944 223.33402 225.244184 228.531362 
C 225.635424 233.728704 226.900754 238.822985 228.986813 243.599364 
C 231.072871 248.375743 233.949914 252.766117 237.496607 256.585331 
C 241.043301 260.404545 245.209076 263.598144 249.81825 266.031445 
C 254.427424 268.464746 259.414277 270.103053 264.5685 270.877276 
C 269.722723 271.651498 274.970825 271.550596 280.091479 270.578825 
C 285.212132 269.607054 290.132326 267.778269 294.644561 265.169597 
C 299.156796 262.560925 303.196735 259.209559 306.594002 255.256838 
C 309.99127 251.304117 312.697427 246.806398 314.598346 241.953364 
L 271.451823 225.052993 
L 311.582033 201.883806 
z
" style="fill: #1f77b4; stroke: #ffffff; stroke-linejoin: miter"/>
   </g>
   <g id="patch_13">
    <path d="M 319.21911 241.605527 
C 321.756048 235.128744 322.802369 228.163081 322.280227 221.226789 
C 321.758084 214.290497 319.680757 207.559973 316.202799 201.535973 
L 276.072587 224.705156 
L 319.21911 241.605527 
z
" style="fill: #ff7f0e; stroke: #ffffff; stroke-linejoin: miter"/>
   </g>
   <g id="text_26">
    <!-- Yes -->
    <g style="fill: #262626" transform="translate(204.30467 231.464356)scale(0.1 -0.1)">
     <use xlink:href="#ArialMT-59"/>
     <use xlink:href="#ArialMT-65" x="57.574219"/>
     <use xlink:href="#ArialMT-73" x="113.189453"/>
    </g>
   </g>
   <g id="text_27">
    <!-- 86% -->
    <g style="fill: #262626" transform="translate(233.720208 229.725171)scale(0.1 -0.1)">
     <defs>
      <path id="ArialMT-36" d="M 3184 3459 
L 2625 3416 
Q 2550 3747 2413 3897 
Q 2184 4138 1850 4138 
Q 1581 4138 1378 3988 
Q 1113 3794 959 3422 
Q 806 3050 800 2363 
Q 1003 2672 1297 2822 
Q 1591 2972 1913 2972 
Q 2475 2972 2870 2558 
Q 3266 2144 3266 1488 
Q 3266 1056 3080 686 
Q 2894 316 2569 119 
Q 2244 -78 1831 -78 
Q 1128 -78 684 439 
Q 241 956 241 2144 
Q 241 3472 731 4075 
Q 1159 4600 1884 4600 
Q 2425 4600 2770 4297 
Q 3116 3994 3184 3459 
z
M 888 1484 
Q 888 1194 1011 928 
Q 1134 663 1356 523 
Q 1578 384 1822 384 
Q 2178 384 2434 671 
Q 2691 959 2691 1453 
Q 2691 1928 2437 2201 
Q 2184 2475 1800 2475 
Q 1419 2475 1153 2201 
Q 888 1928 888 1484 
z
" transform="scale(0.015625)"/>
     </defs>
     <use xlink:href="#ArialMT-38"/>
     <use xlink:href="#ArialMT-36" x="55.615234"/>
     <use xlink:href="#ArialMT-25" x="111.230469"/>
    </g>
   </g>
   <g id="text_28">
    <!-- No -->
    <g style="fill: #262626" transform="translate(326.900991 223.464109)scale(0.1 -0.1)">
     <use xlink:href="#ArialMT-4e"/>
     <use xlink:href="#ArialMT-6f" x="72.216797"/>
    </g>
   </g>
   <g id="text_29">
    <!-- 14% -->
    <g style="fill: #262626" transform="translate(293.79014 225.203292)scale(0.1 -0.1)">
     <defs>
      <path id="ArialMT-34" d="M 2069 0 
L 2069 1097 
L 81 1097 
L 81 1613 
L 2172 4581 
L 2631 4581 
L 2631 1613 
L 3250 1613 
L 3250 1097 
L 2631 1097 
L 2631 0 
L 2069 0 
z
M 2069 1613 
L 2069 3678 
L 634 1613 
L 2069 1613 
z
" transform="scale(0.015625)"/>
     </defs>
     <use xlink:href="#ArialMT-31"/>
     <use xlink:href="#ArialMT-34" x="55.615234"/>
     <use xlink:href="#ArialMT-25" x="111.230469"/>
    </g>
   </g>
   <g id="text_30">
    <!-- Provider -->
    <g style="fill: #262626" transform="translate(253.731962 160.782188)scale(0.12 -0.12)">
     <defs>
      <path id="ArialMT-76" d="M 1344 0 
L 81 3319 
L 675 3319 
L 1388 1331 
Q 1503 1009 1600 663 
Q 1675 925 1809 1294 
L 2547 3319 
L 3125 3319 
L 1869 0 
L 1344 0 
z
" transform="scale(0.015625)"/>
      <path id="ArialMT-64" d="M 2575 0 
L 2575 419 
Q 2259 -75 1647 -75 
Q 1250 -75 917 144 
Q 584 363 401 755 
Q 219 1147 219 1656 
Q 219 2153 384 2558 
Q 550 2963 881 3178 
Q 1213 3394 1622 3394 
Q 1922 3394 2156 3267 
Q 2391 3141 2538 2938 
L 2538 4581 
L 3097 4581 
L 3097 0 
L 2575 0 
z
M 797 1656 
Q 797 1019 1065 703 
Q 1334 388 1700 388 
Q 2069 388 2326 689 
Q 2584 991 2584 1609 
Q 2584 2291 2321 2609 
Q 2059 2928 1675 2928 
Q 1300 2928 1048 2622 
Q 797 2316 797 1656 
z
" transform="scale(0.015625)"/>
     </defs>
     <use xlink:href="#ArialMT-50"/>
     <use xlink:href="#ArialMT-72" x="66.699219"/>
     <use xlink:href="#ArialMT-6f" x="100"/>
     <use xlink:href="#ArialMT-76" x="155.615234"/>
     <use xlink:href="#ArialMT-69" x="205.615234"/>
     <use xlink:href="#ArialMT-64" x="227.832031"/>
     <use xlink:href="#ArialMT-65" x="283.447266"/>
     <use xlink:href="#ArialMT-72" x="339.0625"/>
    </g>
   </g>
  </g>
  <g id="axes_7">
   <g id="matplotlib.axis_13"/>
   <g id="matplotlib.axis_14"/>
   <g id="patch_14">
    <path d="M 499.244802 197.695966 
C 495.730119 191.608357 490.875876 186.399551 485.05073 182.465131 
C 479.225584 178.530712 472.580829 175.972867 465.621104 174.985852 
L 459.114592 220.865154 
L 499.244802 197.695966 
z
" style="fill: #1f77b4; stroke: #ffffff; stroke-linejoin: miter"/>
   </g>
   <g id="patch_15">
    <path d="M 463.02749 178.825855 
C 457.876119 178.095298 452.638302 178.237531 447.53417 179.246579 
C 442.430038 180.255626 437.532112 182.11715 433.046237 184.752916 
C 428.560362 187.388682 424.550274 190.761241 421.184506 194.728853 
C 417.818739 198.696465 415.145113 203.202759 413.275994 208.058346 
C 411.406874 212.913934 410.368818 218.049827 410.205452 223.250178 
C 410.042085 228.450528 410.75573 233.64145 412.316393 238.604782 
C 413.877056 243.568115 416.262563 248.233338 419.372659 252.404387 
C 422.482755 256.575435 426.27325 260.193045 430.58484 263.105179 
C 434.896431 266.017313 439.667857 268.182595 444.69859 269.510023 
C 449.729323 270.837452 454.947884 271.308168 460.134952 270.902388 
C 465.322021 270.496607 470.403898 269.220096 475.167007 267.126503 
C 479.930115 265.032909 484.306781 262.151979 488.113063 258.60479 
C 491.919346 255.057601 495.101166 250.894552 497.524801 246.290604 
C 499.948435 241.686657 501.579448 236.707224 502.349294 231.561578 
C 503.119139 226.415931 503.016879 221.177182 502.04681 216.065499 
C 501.076741 210.953815 499.252647 206.041826 496.651188 201.535969 
L 456.520978 224.705156 
L 463.02749 178.825855 
z
" style="fill: #ff7f0e; stroke: #ffffff; stroke-linejoin: miter"/>
   </g>
   <g id="text_31">
    <!-- Yes -->
    <g style="fill: #262626" transform="translate(487.644344 181.210285)scale(0.1 -0.1)">
     <use xlink:href="#ArialMT-59"/>
     <use xlink:href="#ArialMT-65" x="57.574219"/>
     <use xlink:href="#ArialMT-73" x="113.189453"/>
    </g>
   </g>
   <g id="text_32">
    <!-- 14% -->
    <g style="fill: #262626" transform="translate(464.669244 200.410297)scale(0.1 -0.1)">
     <use xlink:href="#ArialMT-31"/>
     <use xlink:href="#ArialMT-34" x="55.615234"/>
     <use xlink:href="#ArialMT-25" x="111.230469"/>
    </g>
   </g>
   <g id="text_33">
    <!-- No -->
    <g style="fill: #262626" transform="translate(415.208414 269.530337)scale(0.1 -0.1)">
     <use xlink:href="#ArialMT-4e"/>
     <use xlink:href="#ArialMT-6f" x="72.216797"/>
    </g>
   </g>
   <g id="text_34">
    <!-- 86% -->
    <g style="fill: #262626" transform="translate(430.952264 250.330326)scale(0.1 -0.1)">
     <use xlink:href="#ArialMT-38"/>
     <use xlink:href="#ArialMT-36" x="55.615234"/>
     <use xlink:href="#ArialMT-25" x="111.230469"/>
    </g>
   </g>
   <g id="text_35">
    <!-- License -->
    <g style="fill: #262626" transform="translate(435.841603 160.782188)scale(0.12 -0.12)">
     <defs>
      <path id="ArialMT-4c" d="M 469 0 
L 469 4581 
L 1075 4581 
L 1075 541 
L 3331 541 
L 3331 0 
L 469 0 
z
" transform="scale(0.015625)"/>
     </defs>
     <use xlink:href="#ArialMT-4c"/>
     <use xlink:href="#ArialMT-69" x="55.615234"/>
     <use xlink:href="#ArialMT-63" x="77.832031"/>
     <use xlink:href="#ArialMT-65" x="127.832031"/>
     <use xlink:href="#ArialMT-6e" x="183.447266"/>
     <use xlink:href="#ArialMT-73" x="239.0625"/>
     <use xlink:href="#ArialMT-65" x="289.0625"/>
    </g>
   </g>
  </g>
  <g id="axes_8">
   <g id="matplotlib.axis_15"/>
   <g id="matplotlib.axis_16"/>
   <g id="patch_16">
    <path d="M 677.09958 201.535969 
C 672.47916 193.533167 665.568795 187.092513 657.261075 183.045923 
C 648.953354 178.999334 639.622066 177.528877 630.472504 178.824488 
C 621.322941 180.120099 612.766768 184.123483 605.909159 190.317538 
C 599.051551 196.511592 594.201049 204.617627 591.984178 213.588613 
L 636.96937 224.705156 
L 677.09958 201.535969 
z
" style="fill: #1f77b4; stroke: #ffffff; stroke-linejoin: miter"/>
   </g>
   <g id="patch_17">
    <path d="M 591.984178 213.588613 
C 589.796887 222.439898 590.269859 231.742926 593.343562 240.326739 
C 596.417264 248.910552 601.957088 256.399235 609.265746 261.850199 
C 616.574403 267.301164 625.331823 270.475692 634.435721 270.974213 
C 643.53962 271.472734 652.591305 269.273414 660.451458 264.653079 
L 636.96937 224.705156 
L 591.984178 213.588613 
z
" style="fill: #ff7f0e; stroke: #ffffff; stroke-linejoin: miter"/>
   </g>
   <g id="patch_18">
    <path d="M 660.451458 264.653079 
C 668.843689 259.719979 675.47176 252.265562 679.38949 243.353974 
C 683.30722 234.442386 684.318872 224.518867 682.280027 215.000037 
L 636.96937 224.705156 
L 660.451458 264.653079 
z
" style="fill: #2ca02c; stroke: #ffffff; stroke-linejoin: miter"/>
   </g>
   <g id="patch_19">
    <path d="M 682.280027 215.000037 
C 682.128331 214.291808 681.960051 213.587232 681.775325 212.886891 
C 681.590599 212.18655 681.389479 211.490637 681.172129 210.799724 
L 636.96937 224.705156 
L 682.280027 215.000037 
z
" style="fill: #d62728; stroke: #ffffff; stroke-linejoin: miter"/>
   </g>
   <g id="patch_20">
    <path d="M 681.172129 210.799724 
C 680.95478 210.108812 680.721262 209.42309 680.471767 208.743125 
C 680.222272 208.063159 679.956869 207.389137 679.675776 206.721613 
L 636.96937 224.705156 
L 681.172129 210.799724 
z
" style="fill: #9467bd; stroke: #ffffff; stroke-linejoin: miter"/>
   </g>
   <g id="patch_21">
    <path d="M 679.675776 206.721613 
C 679.582083 206.499114 679.486652 206.277351 679.389492 206.056343 
C 679.292333 205.835336 679.193447 205.615091 679.092845 205.39563 
L 636.96937 224.705156 
L 679.675776 206.721613 
z
" style="fill: #8c564b; stroke: #ffffff; stroke-linejoin: miter"/>
   </g>
   <g id="patch_22">
    <path d="M 679.092845 205.39563 
C 678.992243 205.176168 678.889928 204.957496 678.785908 204.739633 
C 678.681888 204.52177 678.576168 204.304724 678.468756 204.088513 
L 636.96937 224.705156 
L 679.092845 205.39563 
z
" style="fill: #e377c2; stroke: #ffffff; stroke-linejoin: miter"/>
   </g>
   <g id="patch_23">
    <path d="M 678.468756 204.088513 
C 678.361344 203.872303 678.252244 203.656935 678.141466 203.44243 
C 678.030688 203.227925 677.918235 203.014289 677.804118 202.801541 
L 636.96937 224.705156 
L 678.468756 204.088513 
z
" style="fill: #7f7f7f; stroke: #ffffff; stroke-linejoin: miter"/>
   </g>
   <g id="patch_24">
    <path d="M 677.804118 202.801541 
C 677.690001 202.588794 677.574223 202.376941 677.456795 202.166003 
C 677.339367 201.955065 677.220292 201.745048 677.099581 201.535971 
L 636.96937 224.705156 
L 677.804118 202.801541 
z
" style="fill: #bcbd22; stroke: #ffffff; stroke-linejoin: miter"/>
   </g>
   <g id="text_36">
    <!-- CC BY 3.0 -->
    <g style="fill: #262626" transform="translate(582.757192 176.821577)scale(0.1 -0.1)">
     <defs>
      <path id="ArialMT-43" d="M 3763 1606 
L 4369 1453 
Q 4178 706 3683 314 
Q 3188 -78 2472 -78 
Q 1731 -78 1267 223 
Q 803 525 561 1097 
Q 319 1669 319 2325 
Q 319 3041 592 3573 
Q 866 4106 1370 4382 
Q 1875 4659 2481 4659 
Q 3169 4659 3637 4309 
Q 4106 3959 4291 3325 
L 3694 3184 
Q 3534 3684 3231 3912 
Q 2928 4141 2469 4141 
Q 1941 4141 1586 3887 
Q 1231 3634 1087 3207 
Q 944 2781 944 2328 
Q 944 1744 1114 1308 
Q 1284 872 1643 656 
Q 2003 441 2422 441 
Q 2931 441 3284 734 
Q 3638 1028 3763 1606 
z
" transform="scale(0.015625)"/>
      <path id="ArialMT-20" transform="scale(0.015625)"/>
      <path id="ArialMT-42" d="M 469 0 
L 469 4581 
L 2188 4581 
Q 2713 4581 3030 4442 
Q 3347 4303 3526 4014 
Q 3706 3725 3706 3409 
Q 3706 3116 3547 2856 
Q 3388 2597 3066 2438 
Q 3481 2316 3704 2022 
Q 3928 1728 3928 1328 
Q 3928 1006 3792 729 
Q 3656 453 3456 303 
Q 3256 153 2954 76 
Q 2653 0 2216 0 
L 469 0 
z
M 1075 2656 
L 2066 2656 
Q 2469 2656 2644 2709 
Q 2875 2778 2992 2937 
Q 3109 3097 3109 3338 
Q 3109 3566 3000 3739 
Q 2891 3913 2687 3977 
Q 2484 4041 1991 4041 
L 1075 4041 
L 1075 2656 
z
M 1075 541 
L 2216 541 
Q 2509 541 2628 563 
Q 2838 600 2978 687 
Q 3119 775 3209 942 
Q 3300 1109 3300 1328 
Q 3300 1584 3169 1773 
Q 3038 1963 2805 2039 
Q 2572 2116 2134 2116 
L 1075 2116 
L 1075 541 
z
" transform="scale(0.015625)"/>
      <path id="ArialMT-2e" d="M 581 0 
L 581 641 
L 1222 641 
L 1222 0 
L 581 0 
z
" transform="scale(0.015625)"/>
      <path id="ArialMT-30" d="M 266 2259 
Q 266 3072 433 3567 
Q 600 4063 929 4331 
Q 1259 4600 1759 4600 
Q 2128 4600 2406 4451 
Q 2684 4303 2865 4023 
Q 3047 3744 3150 3342 
Q 3253 2941 3253 2259 
Q 3253 1453 3087 958 
Q 2922 463 2592 192 
Q 2263 -78 1759 -78 
Q 1097 -78 719 397 
Q 266 969 266 2259 
z
M 844 2259 
Q 844 1131 1108 757 
Q 1372 384 1759 384 
Q 2147 384 2411 759 
Q 2675 1134 2675 2259 
Q 2675 3391 2411 3762 
Q 2147 4134 1753 4134 
Q 1366 4134 1134 3806 
Q 844 3388 844 2259 
z
" transform="scale(0.015625)"/>
     </defs>
     <use xlink:href="#ArialMT-43"/>
     <use xlink:href="#ArialMT-43" x="72.216797"/>
     <use xlink:href="#ArialMT-20" x="144.433594"/>
     <use xlink:href="#ArialMT-42" x="172.216797"/>
     <use xlink:href="#ArialMT-59" x="238.916016"/>
     <use xlink:href="#ArialMT-20" x="303.865234"/>
     <use xlink:href="#ArialMT-33" x="331.648438"/>
     <use xlink:href="#ArialMT-2e" x="387.263672"/>
     <use xlink:href="#ArialMT-30" x="415.046875"/>
    </g>
   </g>
   <g id="text_37">
    <!-- 38% -->
    <g style="fill: #262626" transform="translate(623.064219 199.761912)scale(0.1 -0.1)">
     <use xlink:href="#ArialMT-33"/>
     <use xlink:href="#ArialMT-38" x="55.615234"/>
     <use xlink:href="#ArialMT-25" x="111.230469"/>
    </g>
   </g>
   <g id="text_38">
    <!-- CC BY 4.0 -->
    <g style="fill: #262626" transform="translate(559.429758 268.14986)scale(0.1 -0.1)">
     <use xlink:href="#ArialMT-43"/>
     <use xlink:href="#ArialMT-43" x="72.216797"/>
     <use xlink:href="#ArialMT-20" x="144.433594"/>
     <use xlink:href="#ArialMT-42" x="172.216797"/>
     <use xlink:href="#ArialMT-59" x="238.916016"/>
     <use xlink:href="#ArialMT-20" x="303.865234"/>
     <use xlink:href="#ArialMT-34" x="331.648438"/>
     <use xlink:href="#ArialMT-2e" x="387.263672"/>
     <use xlink:href="#ArialMT-30" x="415.046875"/>
    </g>
   </g>
   <g id="text_39">
    <!-- 37% -->
    <g style="fill: #262626" transform="translate(610.340164 249.577338)scale(0.1 -0.1)">
     <use xlink:href="#ArialMT-33"/>
     <use xlink:href="#ArialMT-37" x="55.615234"/>
     <use xlink:href="#ArialMT-25" x="111.230469"/>
    </g>
   </g>
   <g id="text_40">
    <!-- CC0 1.0 -->
    <g style="fill: #262626" transform="translate(683.631502 247.804012)scale(0.1 -0.1)">
     <use xlink:href="#ArialMT-43"/>
     <use xlink:href="#ArialMT-43" x="72.216797"/>
     <use xlink:href="#ArialMT-30" x="144.433594"/>
     <use xlink:href="#ArialMT-20" x="200.048828"/>
     <use xlink:href="#ArialMT-31" x="227.832031"/>
     <use xlink:href="#ArialMT-2e" x="283.447266"/>
     <use xlink:href="#ArialMT-30" x="311.230469"/>
    </g>
   </g>
   <g id="text_41">
    <!-- 20% -->
    <g style="fill: #262626" transform="translate(652.414411 238.479603)scale(0.1 -0.1)">
     <use xlink:href="#ArialMT-32"/>
     <use xlink:href="#ArialMT-30" x="55.615234"/>
     <use xlink:href="#ArialMT-25" x="111.230469"/>
    </g>
   </g>
   <g id="text_42">
    <!-- Artistic License 2.0 -->
    <g style="fill: #262626" transform="translate(686.25592 214.290221)scale(0.1 -0.1)">
     <defs>
      <path id="ArialMT-41" d="M -9 0 
L 1750 4581 
L 2403 4581 
L 4278 0 
L 3588 0 
L 3053 1388 
L 1138 1388 
L 634 0 
L -9 0 
z
M 1313 1881 
L 2866 1881 
L 2388 3150 
Q 2169 3728 2063 4100 
Q 1975 3659 1816 3225 
L 1313 1881 
z
" transform="scale(0.015625)"/>
     </defs>
     <use xlink:href="#ArialMT-41"/>
     <use xlink:href="#ArialMT-72" x="66.699219"/>
     <use xlink:href="#ArialMT-74" x="100"/>
     <use xlink:href="#ArialMT-69" x="127.783203"/>
     <use xlink:href="#ArialMT-73" x="150"/>
     <use xlink:href="#ArialMT-74" x="200"/>
     <use xlink:href="#ArialMT-69" x="227.783203"/>
     <use xlink:href="#ArialMT-63" x="250"/>
     <use xlink:href="#ArialMT-20" x="300"/>
     <use xlink:href="#ArialMT-4c" x="327.783203"/>
     <use xlink:href="#ArialMT-69" x="383.398438"/>
     <use xlink:href="#ArialMT-63" x="405.615234"/>
     <use xlink:href="#ArialMT-65" x="455.615234"/>
     <use xlink:href="#ArialMT-6e" x="511.230469"/>
     <use xlink:href="#ArialMT-73" x="566.845703"/>
     <use xlink:href="#ArialMT-65" x="616.845703"/>
     <use xlink:href="#ArialMT-20" x="672.460938"/>
     <use xlink:href="#ArialMT-32" x="700.244141"/>
     <use xlink:href="#ArialMT-2e" x="755.859375"/>
     <use xlink:href="#ArialMT-30" x="783.642578"/>
    </g>
   </g>
   <g id="text_43">
    <!-- 1% -->
    <g style="fill: #262626" transform="translate(656.62638 220.199353)scale(0.1 -0.1)">
     <use xlink:href="#ArialMT-31"/>
     <use xlink:href="#ArialMT-25" x="55.615234"/>
    </g>
   </g>
   <g id="text_44">
    <!-- CC BY 2.0 -->
    <g style="fill: #262626" transform="translate(684.822007 209.732078)scale(0.1 -0.1)">
     <use xlink:href="#ArialMT-43"/>
     <use xlink:href="#ArialMT-43" x="72.216797"/>
     <use xlink:href="#ArialMT-20" x="144.433594"/>
     <use xlink:href="#ArialMT-42" x="172.216797"/>
     <use xlink:href="#ArialMT-59" x="238.916016"/>
     <use xlink:href="#ArialMT-20" x="303.865234"/>
     <use xlink:href="#ArialMT-32" x="331.648438"/>
     <use xlink:href="#ArialMT-2e" x="387.263672"/>
     <use xlink:href="#ArialMT-30" x="415.046875"/>
    </g>
   </g>
   <g id="text_45">
    <!-- 1% -->
    <g style="fill: #262626" transform="translate(655.844246 217.713093)scale(0.1 -0.1)">
     <use xlink:href="#ArialMT-31"/>
     <use xlink:href="#ArialMT-25" x="55.615234"/>
    </g>
   </g>
   <g id="text_46">
    <!-- CC BY-SA 2.0 -->
    <g style="fill: #262626" transform="translate(683.631504 206.776618)scale(0.1 -0.1)">
     <defs>
      <path id="ArialMT-2d" d="M 203 1375 
L 203 1941 
L 1931 1941 
L 1931 1375 
L 203 1375 
z
" transform="scale(0.015625)"/>
      <path id="ArialMT-53" d="M 288 1472 
L 859 1522 
Q 900 1178 1048 958 
Q 1197 738 1509 602 
Q 1822 466 2213 466 
Q 2559 466 2825 569 
Q 3091 672 3220 851 
Q 3350 1031 3350 1244 
Q 3350 1459 3225 1620 
Q 3100 1781 2813 1891 
Q 2628 1963 1997 2114 
Q 1366 2266 1113 2400 
Q 784 2572 623 2826 
Q 463 3081 463 3397 
Q 463 3744 659 4045 
Q 856 4347 1234 4503 
Q 1613 4659 2075 4659 
Q 2584 4659 2973 4495 
Q 3363 4331 3572 4012 
Q 3781 3694 3797 3291 
L 3216 3247 
Q 3169 3681 2898 3903 
Q 2628 4125 2100 4125 
Q 1550 4125 1298 3923 
Q 1047 3722 1047 3438 
Q 1047 3191 1225 3031 
Q 1400 2872 2139 2705 
Q 2878 2538 3153 2413 
Q 3553 2228 3743 1945 
Q 3934 1663 3934 1294 
Q 3934 928 3725 604 
Q 3516 281 3123 101 
Q 2731 -78 2241 -78 
Q 1619 -78 1198 103 
Q 778 284 539 648 
Q 300 1013 288 1472 
z
" transform="scale(0.015625)"/>
     </defs>
     <use xlink:href="#ArialMT-43"/>
     <use xlink:href="#ArialMT-43" x="72.216797"/>
     <use xlink:href="#ArialMT-20" x="144.433594"/>
     <use xlink:href="#ArialMT-42" x="172.216797"/>
     <use xlink:href="#ArialMT-59" x="238.916016"/>
     <use xlink:href="#ArialMT-2d" x="296.490234"/>
     <use xlink:href="#ArialMT-53" x="329.791016"/>
     <use xlink:href="#ArialMT-41" x="396.490234"/>
     <use xlink:href="#ArialMT-20" x="457.689453"/>
     <use xlink:href="#ArialMT-32" x="485.472656"/>
     <use xlink:href="#ArialMT-2e" x="541.087891"/>
     <use xlink:href="#ArialMT-30" x="568.871094"/>
    </g>
   </g>
   <g id="text_47">
    <!-- 0% -->
    <g style="fill: #262626" transform="translate(655.194881 216.101025)scale(0.1 -0.1)">
     <use xlink:href="#ArialMT-30"/>
     <use xlink:href="#ArialMT-25" x="55.615234"/>
    </g>
   </g>
   <g id="text_48">
    <!-- Apache 2.0 License -->
    <g style="fill: #262626" transform="translate(682.967562 205.34308)scale(0.1 -0.1)">
     <defs>
      <path id="ArialMT-68" d="M 422 0 
L 422 4581 
L 984 4581 
L 984 2938 
Q 1378 3394 1978 3394 
Q 2347 3394 2619 3248 
Q 2891 3103 3008 2847 
Q 3125 2591 3125 2103 
L 3125 0 
L 2563 0 
L 2563 2103 
Q 2563 2525 2380 2717 
Q 2197 2909 1863 2909 
Q 1613 2909 1392 2779 
Q 1172 2650 1078 2428 
Q 984 2206 984 1816 
L 984 0 
L 422 0 
z
" transform="scale(0.015625)"/>
     </defs>
     <use xlink:href="#ArialMT-41"/>
     <use xlink:href="#ArialMT-70" x="66.699219"/>
     <use xlink:href="#ArialMT-61" x="122.314453"/>
     <use xlink:href="#ArialMT-63" x="177.929688"/>
     <use xlink:href="#ArialMT-68" x="227.929688"/>
     <use xlink:href="#ArialMT-65" x="283.544922"/>
     <use xlink:href="#ArialMT-20" x="339.160156"/>
     <use xlink:href="#ArialMT-32" x="366.943359"/>
     <use xlink:href="#ArialMT-2e" x="422.558594"/>
     <use xlink:href="#ArialMT-30" x="450.341797"/>
     <use xlink:href="#ArialMT-20" x="505.957031"/>
     <use xlink:href="#ArialMT-4c" x="533.740234"/>
     <use xlink:href="#ArialMT-69" x="589.355469"/>
     <use xlink:href="#ArialMT-63" x="611.572266"/>
     <use xlink:href="#ArialMT-65" x="661.572266"/>
     <use xlink:href="#ArialMT-6e" x="717.1875"/>
     <use xlink:href="#ArialMT-73" x="772.802734"/>
     <use xlink:href="#ArialMT-65" x="822.802734"/>
    </g>
   </g>
   <g id="text_49">
    <!-- 0% -->
    <g style="fill: #262626" transform="translate(654.83273 215.310998)scale(0.1 -0.1)">
     <use xlink:href="#ArialMT-30"/>
     <use xlink:href="#ArialMT-25" x="55.615234"/>
    </g>
   </g>
   <g id="text_50">
    <!-- hpo -->
    <g style="fill: #262626" transform="translate(682.258675 203.901314)scale(0.1 -0.1)">
     <use xlink:href="#ArialMT-68"/>
     <use xlink:href="#ArialMT-70" x="55.615234"/>
     <use xlink:href="#ArialMT-6f" x="111.230469"/>
    </g>
   </g>
   <g id="text_51">
    <!-- 0% -->
    <g style="fill: #262626" transform="translate(654.446065 214.532677)scale(0.1 -0.1)">
     <use xlink:href="#ArialMT-30"/>
     <use xlink:href="#ArialMT-25" x="55.615234"/>
    </g>
   </g>
   <g id="text_52">
    <!-- GPL-3.0 -->
    <g style="fill: #262626" transform="translate(681.505537 202.497244)scale(0.1 -0.1)">
     <defs>
      <path id="ArialMT-47" d="M 2638 1797 
L 2638 2334 
L 4578 2338 
L 4578 638 
Q 4131 281 3656 101 
Q 3181 -78 2681 -78 
Q 2006 -78 1454 211 
Q 903 500 622 1047 
Q 341 1594 341 2269 
Q 341 2938 620 3517 
Q 900 4097 1425 4378 
Q 1950 4659 2634 4659 
Q 3131 4659 3532 4498 
Q 3934 4338 4162 4050 
Q 4391 3763 4509 3300 
L 3963 3150 
Q 3859 3500 3706 3700 
Q 3553 3900 3268 4020 
Q 2984 4141 2638 4141 
Q 2222 4141 1919 4014 
Q 1616 3888 1430 3681 
Q 1244 3475 1141 3228 
Q 966 2803 966 2306 
Q 966 1694 1177 1281 
Q 1388 869 1791 669 
Q 2194 469 2647 469 
Q 3041 469 3416 620 
Q 3791 772 3984 944 
L 3984 1797 
L 2638 1797 
z
" transform="scale(0.015625)"/>
     </defs>
     <use xlink:href="#ArialMT-47"/>
     <use xlink:href="#ArialMT-50" x="77.783203"/>
     <use xlink:href="#ArialMT-4c" x="144.482422"/>
     <use xlink:href="#ArialMT-2d" x="200.097656"/>
     <use xlink:href="#ArialMT-33" x="233.398438"/>
     <use xlink:href="#ArialMT-2e" x="289.013672"/>
     <use xlink:href="#ArialMT-30" x="316.796875"/>
    </g>
   </g>
   <g id="text_53">
    <!-- 0% -->
    <g style="fill: #262626" transform="translate(654.035262 213.766821)scale(0.1 -0.1)">
     <use xlink:href="#ArialMT-30"/>
     <use xlink:href="#ArialMT-25" x="55.615234"/>
    </g>
   </g>
   <g id="text_54">
    <!-- License Type -->
    <g style="fill: #262626" transform="translate(601.720307 160.782188)scale(0.12 -0.12)">
     <defs>
      <path id="ArialMT-54" d="M 1659 0 
L 1659 4041 
L 150 4041 
L 150 4581 
L 3781 4581 
L 3781 4041 
L 2266 4041 
L 2266 0 
L 1659 0 
z
" transform="scale(0.015625)"/>
      <path id="ArialMT-79" d="M 397 -1278 
L 334 -750 
Q 519 -800 656 -800 
Q 844 -800 956 -737 
Q 1069 -675 1141 -563 
Q 1194 -478 1313 -144 
Q 1328 -97 1363 -6 
L 103 3319 
L 709 3319 
L 1400 1397 
Q 1534 1031 1641 628 
Q 1738 1016 1872 1384 
L 2581 3319 
L 3144 3319 
L 1881 -56 
Q 1678 -603 1566 -809 
Q 1416 -1088 1222 -1217 
Q 1028 -1347 759 -1347 
Q 597 -1347 397 -1278 
z
" transform="scale(0.015625)"/>
     </defs>
     <use xlink:href="#ArialMT-4c"/>
     <use xlink:href="#ArialMT-69" x="55.615234"/>
     <use xlink:href="#ArialMT-63" x="77.832031"/>
     <use xlink:href="#ArialMT-65" x="127.832031"/>
     <use xlink:href="#ArialMT-6e" x="183.447266"/>
     <use xlink:href="#ArialMT-73" x="239.0625"/>
     <use xlink:href="#ArialMT-65" x="289.0625"/>
     <use xlink:href="#ArialMT-20" x="344.677734"/>
     <use xlink:href="#ArialMT-54" x="370.710938"/>
     <use xlink:href="#ArialMT-79" x="426.294922"/>
     <use xlink:href="#ArialMT-70" x="476.294922"/>
     <use xlink:href="#ArialMT-65" x="531.910156"/>
    </g>
   </g>
  </g>
  <g id="axes_9">
   <g id="matplotlib.axis_17"/>
   <g id="matplotlib.axis_18"/>
   <g id="patch_25">
    <path d="M 137.918965 338.724696 
C 133.556813 331.169227 127.148329 324.997083 119.434354 320.921782 
C 111.720378 316.846482 103.010077 315.031358 94.310386 315.686244 
L 97.788756 361.893884 
L 137.918965 338.724696 
z
" style="fill: #1f77b4; stroke: #ffffff; stroke-linejoin: miter"/>
   </g>
   <g id="patch_26">
    <path d="M 92.145826 319.783454 
C 87.166941 320.15825 82.2812 321.335307 77.677886 323.269027 
C 73.074572 325.202747 68.813908 327.86783 65.060959 331.161027 
C 61.30801 334.454224 58.111875 338.332451 55.596376 342.645459 
C 53.080878 346.958467 51.278926 351.649831 50.260331 356.5378 
C 49.241736 361.425768 49.019824 366.446394 49.603192 371.405169 
C 50.18656 376.363945 51.567576 381.195996 53.692738 385.714122 
C 55.817899 390.232248 58.659404 394.377339 62.107166 397.988808 
C 65.554928 401.600277 69.563842 404.630876 73.978597 406.963195 
C 78.393352 409.295514 83.156191 410.89904 88.082593 411.71165 
C 93.008995 412.524259 98.03451 412.535322 102.964442 411.744408 
C 107.894374 410.953495 112.664226 409.370952 117.089206 407.058092 
C 121.514186 404.745231 125.536404 401.732311 129.000032 398.136055 
C 132.46366 394.5398 135.323385 390.407259 137.468417 385.898533 
C 139.613449 381.389806 141.015725 376.563882 141.620918 371.607723 
C 142.226111 366.651563 142.026305 361.63001 141.029239 356.737604 
C 140.032173 351.845198 138.250892 347.145947 135.754406 342.821906 
L 95.624196 365.991094 
L 92.145826 319.783454 
z
" style="fill: #ff7f0e; stroke: #ffffff; stroke-linejoin: miter"/>
   </g>
   <g id="text_55">
    <!-- Yes -->
    <g style="fill: #262626" transform="translate(121.598914 319.409729)scale(0.1 -0.1)">
     <use xlink:href="#ArialMT-59"/>
     <use xlink:href="#ArialMT-65" x="57.574219"/>
     <use xlink:href="#ArialMT-73" x="113.189453"/>
    </g>
   </g>
   <g id="text_56">
    <!-- 18% -->
    <g style="fill: #262626" transform="translate(100.769083 339.895779)scale(0.1 -0.1)">
     <use xlink:href="#ArialMT-31"/>
     <use xlink:href="#ArialMT-38" x="55.615234"/>
     <use xlink:href="#ArialMT-25" x="111.230469"/>
    </g>
   </g>
   <g id="text_57">
    <!-- No -->
    <g style="fill: #262626" transform="translate(59.031225 413.645561)scale(0.1 -0.1)">
     <use xlink:href="#ArialMT-4e"/>
     <use xlink:href="#ArialMT-6f" x="72.216797"/>
    </g>
   </g>
   <g id="text_58">
    <!-- 82% -->
    <g style="fill: #262626" transform="translate(72.629805 393.159511)scale(0.1 -0.1)">
     <use xlink:href="#ArialMT-38"/>
     <use xlink:href="#ArialMT-32" x="55.615234"/>
     <use xlink:href="#ArialMT-25" x="111.230469"/>
    </g>
   </g>
   <g id="text_59">
    <!-- Version -->
    <g style="fill: #262626" transform="translate(75.611383 302.068125)scale(0.12 -0.12)">
     <defs>
      <path id="ArialMT-56" d="M 1803 0 
L 28 4581 
L 684 4581 
L 1875 1253 
Q 2019 853 2116 503 
Q 2222 878 2363 1253 
L 3600 4581 
L 4219 4581 
L 2425 0 
L 1803 0 
z
" transform="scale(0.015625)"/>
     </defs>
     <use xlink:href="#ArialMT-56"/>
     <use xlink:href="#ArialMT-65" x="61.199219"/>
     <use xlink:href="#ArialMT-72" x="116.814453"/>
     <use xlink:href="#ArialMT-73" x="150.115234"/>
     <use xlink:href="#ArialMT-69" x="200.115234"/>
     <use xlink:href="#ArialMT-6f" x="222.332031"/>
     <use xlink:href="#ArialMT-6e" x="277.947266"/>
    </g>
   </g>
  </g>
  <g id="axes_10">
   <g id="matplotlib.axis_19"/>
   <g id="matplotlib.axis_20"/>
   <g id="patch_27">
    <path d="M 318.073623 338.582512 
C 313.155525 330.064116 305.65059 323.328945 296.651674 319.357762 
C 287.652759 315.38658 277.618948 314.381979 268.011348 316.490247 
L 277.943413 361.7517 
L 318.073623 338.582512 
z
" style="fill: #1f77b4; stroke: #ffffff; stroke-linejoin: miter"/>
   </g>
   <g id="patch_28">
    <path d="M 266.140522 320.729641 
C 261.397267 321.77049 256.846975 323.550515 252.656503 326.004446 
C 248.46603 328.458377 244.68723 331.555847 241.45867 335.183275 
C 238.230109 338.810702 235.591738 342.923201 233.640304 347.369968 
C 231.688869 351.816736 230.448519 356.542747 229.964736 361.374702 
C 229.480953 366.206657 229.759723 371.084764 230.790825 375.830148 
C 231.821926 380.575532 233.592599 385.129471 236.037916 389.324976 
C 238.483232 393.520482 241.572932 397.305637 245.193719 400.541644 
C 248.814506 403.77765 252.921575 406.424465 257.364324 408.385031 
C 261.807073 410.345597 266.530525 411.595654 271.361476 412.089363 
C 276.192427 412.583072 281.071097 412.314325 285.818589 411.292975 
C 290.566082 410.271625 295.123649 408.510312 299.324169 406.07362 
C 303.52469 403.636929 307.316185 400.555012 310.559623 396.940881 
C 313.803062 393.32675 316.458309 389.225127 318.427998 384.786416 
C 320.397688 380.347704 321.657447 375.62683 322.16108 370.796903 
C 322.664714 365.966977 322.40599 361.087765 321.394396 356.338185 
C 320.382802 351.588604 318.630855 347.027428 316.202799 342.82191 
L 276.072587 365.991094 
L 266.140522 320.729641 
z
" style="fill: #ff7f0e; stroke: #ffffff; stroke-linejoin: miter"/>
   </g>
   <g id="text_60">
    <!-- Yes -->
    <g style="fill: #262626" transform="translate(298.5225 317.703525)scale(0.1 -0.1)">
     <use xlink:href="#ArialMT-59"/>
     <use xlink:href="#ArialMT-65" x="57.574219"/>
     <use xlink:href="#ArialMT-73" x="113.189453"/>
    </g>
   </g>
   <g id="text_61">
    <!-- 20% -->
    <g style="fill: #262626" transform="translate(279.161339 338.900494)scale(0.1 -0.1)">
     <use xlink:href="#ArialMT-32"/>
     <use xlink:href="#ArialMT-30" x="55.615234"/>
     <use xlink:href="#ArialMT-25" x="111.230469"/>
    </g>
   </g>
   <g id="text_62">
    <!-- No -->
    <g style="fill: #262626" transform="translate(242.710685 415.209581)scale(0.1 -0.1)">
     <use xlink:href="#ArialMT-4e"/>
     <use xlink:href="#ArialMT-6f" x="72.216797"/>
    </g>
   </g>
   <g id="text_63">
    <!-- 80% -->
    <g style="fill: #262626" transform="translate(254.840598 394.012612)scale(0.1 -0.1)">
     <use xlink:href="#ArialMT-38"/>
     <use xlink:href="#ArialMT-30" x="55.615234"/>
     <use xlink:href="#ArialMT-25" x="111.230469"/>
    </g>
   </g>
   <g id="text_64">
    <!-- Contact Email -->
    <g style="fill: #262626" transform="translate(238.726337 302.068125)scale(0.12 -0.12)">
     <use xlink:href="#ArialMT-43"/>
     <use xlink:href="#ArialMT-6f" x="72.216797"/>
     <use xlink:href="#ArialMT-6e" x="127.832031"/>
     <use xlink:href="#ArialMT-74" x="183.447266"/>
     <use xlink:href="#ArialMT-61" x="211.230469"/>
     <use xlink:href="#ArialMT-63" x="266.845703"/>
     <use xlink:href="#ArialMT-74" x="316.845703"/>
     <use xlink:href="#ArialMT-20" x="344.628906"/>
     <use xlink:href="#ArialMT-45" x="372.412109"/>
     <use xlink:href="#ArialMT-6d" x="439.111328"/>
     <use xlink:href="#ArialMT-61" x="522.412109"/>
     <use xlink:href="#ArialMT-69" x="578.027344"/>
     <use xlink:href="#ArialMT-6c" x="600.244141"/>
    </g>
   </g>
  </g>
  <g id="axes_11">
   <g id="matplotlib.axis_21"/>
   <g id="matplotlib.axis_22"/>
   <g id="patch_29">
    <path d="M 500.210221 339.85446 
C 498.885661 337.560255 497.366801 335.383854 495.67034 333.349189 
C 493.97388 331.314524 492.10606 329.429079 490.087417 327.713584 
L 460.080011 363.023648 
L 500.210221 339.85446 
z
" style="fill: #1f77b4; stroke: #ffffff; stroke-linejoin: miter"/>
   </g>
   <g id="patch_30">
    <path d="M 486.528384 330.68103 
C 482.145973 326.956744 477.108272 324.080663 471.673271 322.200078 
C 466.23827 320.319493 460.500358 319.467064 454.753384 319.686444 
C 449.00641 319.905824 443.350182 321.193204 438.074364 323.482654 
C 432.798546 325.772105 427.994765 329.023866 423.909029 333.071408 
C 419.823293 337.11895 416.526559 341.89198 414.18766 347.146063 
C 411.848761 352.400146 410.508316 358.044034 410.234972 363.788694 
C 409.961627 369.533355 410.76013 375.279019 412.589587 380.731442 
C 414.419045 386.183866 417.247686 391.248356 420.930649 395.665552 
C 424.613613 400.082747 429.086937 403.775935 434.121536 406.55598 
C 439.156135 409.336025 444.664572 411.154646 450.364752 411.918709 
C 456.064931 412.682772 461.857857 412.379008 467.446865 411.022971 
C 473.035872 409.666935 478.323896 407.282178 483.040128 403.990827 
C 487.75636 400.699476 491.818893 396.558692 495.019678 391.780532 
C 498.220463 387.002372 500.503912 381.669818 501.753085 376.05596 
C 503.002258 370.442102 503.195461 364.644435 502.3228 358.959868 
C 501.450139 353.275301 499.526769 347.802559 496.651189 342.821908 
L 456.520978 365.991094 
L 486.528384 330.68103 
z
" style="fill: #ff7f0e; stroke: #ffffff; stroke-linejoin: miter"/>
   </g>
   <g id="text_65">
    <!-- Yes -->
    <g style="fill: #262626" transform="translate(499.229373 332.9669)scale(0.1 -0.1)">
     <use xlink:href="#ArialMT-59"/>
     <use xlink:href="#ArialMT-65" x="57.574219"/>
     <use xlink:href="#ArialMT-73" x="113.189453"/>
    </g>
   </g>
   <g id="text_66">
    <!-- 5% -->
    <g style="fill: #262626" transform="translate(474.207646 347.804129)scale(0.1 -0.1)">
     <defs>
      <path id="ArialMT-35" d="M 266 1200 
L 856 1250 
Q 922 819 1161 601 
Q 1400 384 1738 384 
Q 2144 384 2425 690 
Q 2706 997 2706 1503 
Q 2706 1984 2436 2262 
Q 2166 2541 1728 2541 
Q 1456 2541 1237 2417 
Q 1019 2294 894 2097 
L 366 2166 
L 809 4519 
L 3088 4519 
L 3088 3981 
L 1259 3981 
L 1013 2750 
Q 1425 3038 1878 3038 
Q 2478 3038 2890 2622 
Q 3303 2206 3303 1553 
Q 3303 931 2941 478 
Q 2500 -78 1738 -78 
Q 1113 -78 717 272 
Q 322 622 266 1200 
z
" transform="scale(0.015625)"/>
     </defs>
     <use xlink:href="#ArialMT-35"/>
     <use xlink:href="#ArialMT-25" x="55.615234"/>
    </g>
   </g>
   <g id="text_67">
    <!-- No -->
    <g style="fill: #262626" transform="translate(404.588804 401.218154)scale(0.1 -0.1)">
     <use xlink:href="#ArialMT-4e"/>
     <use xlink:href="#ArialMT-6f" x="72.216797"/>
    </g>
   </g>
   <g id="text_68">
    <!-- 95% -->
    <g style="fill: #262626" transform="translate(425.15975 386.380925)scale(0.1 -0.1)">
     <use xlink:href="#ArialMT-39"/>
     <use xlink:href="#ArialMT-35" x="55.615234"/>
     <use xlink:href="#ArialMT-25" x="111.230469"/>
    </g>
   </g>
   <g id="text_69">
    <!-- Wikidata Database -->
    <g style="fill: #262626" transform="translate(406.165041 302.068125)scale(0.12 -0.12)">
     <defs>
      <path id="ArialMT-57" d="M 1294 0 
L 78 4581 
L 700 4581 
L 1397 1578 
Q 1509 1106 1591 641 
Q 1766 1375 1797 1488 
L 2669 4581 
L 3400 4581 
L 4056 2263 
Q 4303 1400 4413 641 
Q 4500 1075 4641 1638 
L 5359 4581 
L 5969 4581 
L 4713 0 
L 4128 0 
L 3163 3491 
Q 3041 3928 3019 4028 
Q 2947 3713 2884 3491 
L 1913 0 
L 1294 0 
z
" transform="scale(0.015625)"/>
      <path id="ArialMT-6b" d="M 425 0 
L 425 4581 
L 988 4581 
L 988 1969 
L 2319 3319 
L 3047 3319 
L 1778 2088 
L 3175 0 
L 2481 0 
L 1384 1697 
L 988 1316 
L 988 0 
L 425 0 
z
" transform="scale(0.015625)"/>
      <path id="ArialMT-62" d="M 941 0 
L 419 0 
L 419 4581 
L 981 4581 
L 981 2947 
Q 1338 3394 1891 3394 
Q 2197 3394 2470 3270 
Q 2744 3147 2920 2923 
Q 3097 2700 3197 2384 
Q 3297 2069 3297 1709 
Q 3297 856 2875 390 
Q 2453 -75 1863 -75 
Q 1275 -75 941 416 
L 941 0 
z
M 934 1684 
Q 934 1088 1097 822 
Q 1363 388 1816 388 
Q 2184 388 2453 708 
Q 2722 1028 2722 1663 
Q 2722 2313 2464 2622 
Q 2206 2931 1841 2931 
Q 1472 2931 1203 2611 
Q 934 2291 934 1684 
z
" transform="scale(0.015625)"/>
     </defs>
     <use xlink:href="#ArialMT-57"/>
     <use xlink:href="#ArialMT-69" x="94.384766"/>
     <use xlink:href="#ArialMT-6b" x="116.601562"/>
     <use xlink:href="#ArialMT-69" x="166.601562"/>
     <use xlink:href="#ArialMT-64" x="188.818359"/>
     <use xlink:href="#ArialMT-61" x="244.433594"/>
     <use xlink:href="#ArialMT-74" x="300.048828"/>
     <use xlink:href="#ArialMT-61" x="327.832031"/>
     <use xlink:href="#ArialMT-20" x="383.447266"/>
     <use xlink:href="#ArialMT-44" x="411.230469"/>
     <use xlink:href="#ArialMT-61" x="483.447266"/>
     <use xlink:href="#ArialMT-74" x="539.0625"/>
     <use xlink:href="#ArialMT-61" x="566.845703"/>
     <use xlink:href="#ArialMT-62" x="622.460938"/>
     <use xlink:href="#ArialMT-61" x="678.076172"/>
     <use xlink:href="#ArialMT-73" x="733.691406"/>
     <use xlink:href="#ArialMT-65" x="783.691406"/>
    </g>
   </g>
  </g>
  <g id="axes_12">
   <g id="matplotlib.axis_23"/>
   <g id="matplotlib.axis_24"/>
   <g id="patch_31">
    <path d="M 680.182393 339.362323 
C 677.711 335.081746 674.570554 331.224033 670.880313 327.935682 
C 667.190073 324.647331 662.997349 321.970501 658.461361 320.006846 
L 640.052183 362.531511 
L 680.182393 339.362323 
z
" style="fill: #1f77b4; stroke: #ffffff; stroke-linejoin: miter"/>
   </g>
   <g id="patch_32">
    <path d="M 655.378548 323.466428 
C 650.364951 321.296013 645.006799 320.029244 639.552063 319.724749 
C 634.097328 319.420253 628.631476 320.082801 623.407466 321.681729 
C 618.183456 323.280658 613.283139 325.790916 608.933299 329.096328 
C 604.583459 332.40174 600.852252 336.450517 597.912356 341.055283 
C 594.97246 345.660049 592.869938 350.748654 591.702095 356.085601 
C 590.534251 361.422547 590.319384 366.924214 591.067438 372.335985 
C 591.815491 377.747757 593.514745 382.98484 596.086557 387.804865 
C 598.658369 392.624889 602.062444 396.952334 606.141243 400.586926 
C 610.220041 404.221517 614.909656 407.106308 619.993052 409.107792 
C 625.076449 411.109275 630.473979 412.196091 635.935848 412.317942 
C 641.397716 412.439792 646.838345 411.594769 652.005943 409.821979 
C 657.173541 408.049188 661.987141 405.376408 666.223972 401.927332 
C 670.460803 398.478257 674.05448 394.306928 676.83869 389.606393 
C 679.622899 384.905857 681.554018 379.749765 682.542673 374.376739 
C 683.531328 369.003712 683.56203 363.497937 682.633358 358.114218 
C 681.704686 352.7305 679.83119 347.553192 677.099575 342.821899 
L 636.96937 365.991094 
L 655.378548 323.466428 
z
" style="fill: #ff7f0e; stroke: #ffffff; stroke-linejoin: miter"/>
   </g>
   <g id="text_70">
    <!-- Yes -->
    <g style="fill: #262626" transform="translate(673.963126 327.061255)scale(0.1 -0.1)">
     <use xlink:href="#ArialMT-59"/>
     <use xlink:href="#ArialMT-65" x="57.574219"/>
     <use xlink:href="#ArialMT-73" x="113.189453"/>
    </g>
   </g>
   <g id="text_71">
    <!-- 10% -->
    <g style="fill: #262626" transform="translate(648.54203 344.35917)scale(0.1 -0.1)">
     <use xlink:href="#ArialMT-31"/>
     <use xlink:href="#ArialMT-30" x="55.615234"/>
     <use xlink:href="#ArialMT-25" x="111.230469"/>
    </g>
   </g>
   <g id="text_72">
    <!-- No -->
    <g style="fill: #262626" transform="translate(590.275618 406.631665)scale(0.1 -0.1)">
     <use xlink:href="#ArialMT-4e"/>
     <use xlink:href="#ArialMT-6f" x="72.216797"/>
    </g>
   </g>
   <g id="text_73">
    <!-- 90% -->
    <g style="fill: #262626" transform="translate(608.465462 389.333749)scale(0.1 -0.1)">
     <use xlink:href="#ArialMT-39"/>
     <use xlink:href="#ArialMT-30" x="55.615234"/>
     <use xlink:href="#ArialMT-25" x="111.230469"/>
    </g>
   </g>
   <g id="text_74">
    <!-- OBO -->
    <g style="fill: #262626" transform="translate(623.633432 302.068125)scale(0.12 -0.12)">
     <defs>
      <path id="ArialMT-4f" d="M 309 2231 
Q 309 3372 921 4017 
Q 1534 4663 2503 4663 
Q 3138 4663 3647 4359 
Q 4156 4056 4423 3514 
Q 4691 2972 4691 2284 
Q 4691 1588 4409 1038 
Q 4128 488 3612 205 
Q 3097 -78 2500 -78 
Q 1853 -78 1343 234 
Q 834 547 571 1087 
Q 309 1628 309 2231 
z
M 934 2222 
Q 934 1394 1379 917 
Q 1825 441 2497 441 
Q 3181 441 3623 922 
Q 4066 1403 4066 2288 
Q 4066 2847 3877 3264 
Q 3688 3681 3323 3911 
Q 2959 4141 2506 4141 
Q 1863 4141 1398 3698 
Q 934 3256 934 2222 
z
" transform="scale(0.015625)"/>
     </defs>
     <use xlink:href="#ArialMT-4f"/>
     <use xlink:href="#ArialMT-42" x="77.783203"/>
     <use xlink:href="#ArialMT-4f" x="144.482422"/>
    </g>
   </g>
  </g>
  <g id="axes_13">
   <g id="matplotlib.axis_25"/>
   <g id="matplotlib.axis_26"/>
   <g id="patch_33">
    <path d="M 137.615273 479.864069 
C 132.678594 471.313491 125.13598 464.560474 116.093733 460.595509 
C 107.051485 456.630544 96.974416 455.657446 87.340563 457.818943 
L 97.485063 503.033257 
L 137.615273 479.864069 
z
" style="fill: #1f77b4; stroke: #ffffff; stroke-linejoin: miter"/>
   </g>
   <g id="patch_34">
    <path d="M 85.479696 462.062718 
C 80.745831 463.124831 76.208003 464.923826 72.0323 467.393859 
C 67.856597 469.863892 64.094593 472.974455 60.883983 476.611699 
C 57.673373 480.248942 55.05381 484.367942 53.121173 488.817939 
C 51.188536 493.267936 49.966696 497.993968 49.500372 502.823057 
C 49.034048 507.652146 49.329001 512.524648 50.374434 517.262225 
C 51.419868 521.999801 53.20287 526.543937 55.658181 530.728314 
C 58.113492 534.91269 61.210786 538.685625 64.836699 541.909026 
C 68.462612 545.132427 72.572361 547.76648 77.015524 549.714778 
C 81.458687 551.663075 86.180386 552.901553 91.007803 553.384882 
C 95.835219 553.868211 100.70873 553.590421 105.449959 552.56168 
C 110.191187 551.532938 114.741575 549.765952 118.934573 547.325393 
C 123.127571 544.884835 126.911392 541.800848 130.147543 538.18631 
C 133.383694 534.571772 136.032206 530.471326 137.99614 526.035052 
C 139.960074 521.598779 141.215174 516.881471 141.715502 512.055786 
C 142.21583 507.230102 141.955206 502.355643 140.943169 497.610821 
C 139.931133 492.865998 138.180183 488.309415 135.754408 484.107848 
L 95.624196 507.277031 
L 85.479696 462.062718 
z
" style="fill: #ff7f0e; stroke: #ffffff; stroke-linejoin: miter"/>
   </g>
   <g id="text_75">
    <!-- Yes -->
    <g style="fill: #262626" transform="translate(117.9546 458.936891)scale(0.1 -0.1)">
     <use xlink:href="#ArialMT-59"/>
     <use xlink:href="#ArialMT-65" x="57.574219"/>
     <use xlink:href="#ArialMT-73" x="113.189453"/>
    </g>
   </g>
   <g id="text_76">
    <!-- 20% -->
    <g style="fill: #262626" transform="translate(98.643233 480.155764)scale(0.1 -0.1)">
     <use xlink:href="#ArialMT-32"/>
     <use xlink:href="#ArialMT-30" x="55.615234"/>
     <use xlink:href="#ArialMT-25" x="111.230469"/>
    </g>
   </g>
   <g id="text_77">
    <!-- No -->
    <g style="fill: #262626" transform="translate(62.371844 556.543709)scale(0.1 -0.1)">
     <use xlink:href="#ArialMT-4e"/>
     <use xlink:href="#ArialMT-6f" x="72.216797"/>
    </g>
   </g>
   <g id="text_78">
    <!-- 80% -->
    <g style="fill: #262626" transform="translate(74.451961 535.324835)scale(0.1 -0.1)">
     <use xlink:href="#ArialMT-38"/>
     <use xlink:href="#ArialMT-30" x="55.615234"/>
     <use xlink:href="#ArialMT-25" x="111.230469"/>
    </g>
   </g>
   <g id="text_79">
    <!-- OWL -->
    <g style="fill: #262626" transform="translate(81.957321 443.354062)scale(0.12 -0.12)">
     <use xlink:href="#ArialMT-4f"/>
     <use xlink:href="#ArialMT-57" x="77.783203"/>
     <use xlink:href="#ArialMT-4c" x="172.167969"/>
    </g>
   </g>
  </g>
  <g id="axes_14">
   <g id="matplotlib.axis_27"/>
   <g id="matplotlib.axis_28"/>
   <g id="patch_35">
    <path d="M 320.102633 481.605099 
C 319.739945 480.976905 319.362556 480.357313 318.970779 479.746837 
C 318.579002 479.136361 318.172944 478.535168 317.752942 477.943756 
L 279.972423 504.774286 
L 320.102633 481.605099 
z
" style="fill: #1f77b4; stroke: #ffffff; stroke-linejoin: miter"/>
   </g>
   <g id="patch_36">
    <path d="M 313.853106 480.446501 
C 310.382747 475.559829 305.997032 471.392557 300.939583 468.176168 
C 295.882134 464.959779 290.248361 462.754954 284.351212 461.684166 
C 278.454064 460.613378 272.404792 460.696829 266.539425 461.929883 
C 260.674058 463.162938 255.10325 465.522333 250.13645 468.877008 
C 245.16965 472.231683 240.900559 476.518351 237.56632 481.498893 
C 234.232081 486.479435 231.895596 492.059891 230.686652 497.930274 
C 229.477708 503.800658 229.419113 509.850222 230.514122 515.742921 
C 231.609132 521.63562 233.837087 527.260286 237.074229 532.304477 
C 240.31137 537.348668 244.496628 541.717223 249.397517 545.167474 
C 254.298406 548.617726 259.822469 551.084583 265.662851 552.431017 
C 271.503234 553.77745 277.549754 553.978058 283.466537 553.021698 
C 289.38332 552.065337 295.058743 549.97005 300.177544 546.852226 
C 305.296345 543.734402 309.761956 539.652861 313.326318 534.834327 
C 316.89068 530.015793 319.486549 524.551169 320.96973 518.744007 
C 322.452911 512.936846 322.795422 506.896702 321.978237 500.959097 
C 321.161052 495.021491 319.199588 489.29844 316.202801 484.107851 
L 276.072587 507.277031 
L 313.853106 480.446501 
z
" style="fill: #ff7f0e; stroke: #ffffff; stroke-linejoin: miter"/>
   </g>
   <g id="text_80">
    <!-- Yes -->
    <g style="fill: #262626" transform="translate(322.870614 479.829248)scale(0.1 -0.1)">
     <use xlink:href="#ArialMT-59"/>
     <use xlink:href="#ArialMT-65" x="57.574219"/>
     <use xlink:href="#ArialMT-73" x="113.189453"/>
    </g>
   </g>
   <g id="text_81">
    <!-- 1% -->
    <g style="fill: #262626" transform="translate(296.144874 492.342973)scale(0.1 -0.1)">
     <use xlink:href="#ArialMT-31"/>
     <use xlink:href="#ArialMT-25" x="55.615234"/>
    </g>
   </g>
   <g id="text_82">
    <!-- No -->
    <g style="fill: #262626" transform="translate(220.39158 537.392378)scale(0.1 -0.1)">
     <use xlink:href="#ArialMT-4e"/>
     <use xlink:href="#ArialMT-6f" x="72.216797"/>
    </g>
   </g>
   <g id="text_83">
    <!-- 99% -->
    <g style="fill: #262626" transform="translate(242.666541 524.878655)scale(0.1 -0.1)">
     <use xlink:href="#ArialMT-39"/>
     <use xlink:href="#ArialMT-39" x="55.615234"/>
     <use xlink:href="#ArialMT-25" x="111.230469"/>
    </g>
   </g>
   <g id="text_84">
    <!-- JSON -->
    <g style="fill: #262626" transform="translate(260.0704 443.354062)scale(0.12 -0.12)">
     <defs>
      <path id="ArialMT-4a" d="M 184 1300 
L 731 1375 
Q 753 850 928 656 
Q 1103 463 1413 463 
Q 1641 463 1806 567 
Q 1972 672 2034 851 
Q 2097 1031 2097 1425 
L 2097 4581 
L 2703 4581 
L 2703 1459 
Q 2703 884 2564 568 
Q 2425 253 2123 87 
Q 1822 -78 1416 -78 
Q 813 -78 492 269 
Q 172 616 184 1300 
z
" transform="scale(0.015625)"/>
     </defs>
     <use xlink:href="#ArialMT-4a"/>
     <use xlink:href="#ArialMT-53" x="50"/>
     <use xlink:href="#ArialMT-4f" x="116.699219"/>
     <use xlink:href="#ArialMT-4e" x="194.482422"/>
    </g>
   </g>
  </g>
  <g id="axes_15"/>
  <g id="axes_16"/>
  <g id="text_85">
   <!-- https://github.com/biopragmatics/bioregistry (2022-05-12) -->
   <g style="fill: #808080; opacity: 0.5" transform="translate(294.625 574.31625)scale(0.08 -0.08)">
    <defs>
     <path id="ArialMT-3a" d="M 578 2678 
L 578 3319 
L 1219 3319 
L 1219 2678 
L 578 2678 
z
M 578 0 
L 578 641 
L 1219 641 
L 1219 0 
L 578 0 
z
" transform="scale(0.015625)"/>
     <path id="ArialMT-2f" d="M 0 -78 
L 1328 4659 
L 1778 4659 
L 453 -78 
L 0 -78 
z
" transform="scale(0.015625)"/>
     <path id="ArialMT-75" d="M 2597 0 
L 2597 488 
Q 2209 -75 1544 -75 
Q 1250 -75 995 37 
Q 741 150 617 320 
Q 494 491 444 738 
Q 409 903 409 1263 
L 409 3319 
L 972 3319 
L 972 1478 
Q 972 1038 1006 884 
Q 1059 663 1231 536 
Q 1403 409 1656 409 
Q 1909 409 2131 539 
Q 2353 669 2445 892 
Q 2538 1116 2538 1541 
L 2538 3319 
L 3100 3319 
L 3100 0 
L 2597 0 
z
" transform="scale(0.015625)"/>
     <path id="ArialMT-28" d="M 1497 -1347 
Q 1031 -759 709 28 
Q 388 816 388 1659 
Q 388 2403 628 3084 
Q 909 3875 1497 4659 
L 1900 4659 
Q 1522 4009 1400 3731 
Q 1209 3300 1100 2831 
Q 966 2247 966 1656 
Q 966 153 1900 -1347 
L 1497 -1347 
z
" transform="scale(0.015625)"/>
     <path id="ArialMT-29" d="M 791 -1347 
L 388 -1347 
Q 1322 153 1322 1656 
Q 1322 2244 1188 2822 
Q 1081 3291 891 3722 
Q 769 4003 388 4659 
L 791 4659 
Q 1378 3875 1659 3084 
Q 1900 2403 1900 1659 
Q 1900 816 1576 28 
Q 1253 -759 791 -1347 
z
" transform="scale(0.015625)"/>
    </defs>
    <use xlink:href="#ArialMT-68"/>
    <use xlink:href="#ArialMT-74" x="55.615234"/>
    <use xlink:href="#ArialMT-74" x="83.398438"/>
    <use xlink:href="#ArialMT-70" x="111.181641"/>
    <use xlink:href="#ArialMT-73" x="166.796875"/>
    <use xlink:href="#ArialMT-3a" x="216.796875"/>
    <use xlink:href="#ArialMT-2f" x="244.580078"/>
    <use xlink:href="#ArialMT-2f" x="272.363281"/>
    <use xlink:href="#ArialMT-67" x="300.146484"/>
    <use xlink:href="#ArialMT-69" x="355.761719"/>
    <use xlink:href="#ArialMT-74" x="377.978516"/>
    <use xlink:href="#ArialMT-68" x="405.761719"/>
    <use xlink:href="#ArialMT-75" x="461.376953"/>
    <use xlink:href="#ArialMT-62" x="516.992188"/>
    <use xlink:href="#ArialMT-2e" x="572.607422"/>
    <use xlink:href="#ArialMT-63" x="600.390625"/>
    <use xlink:href="#ArialMT-6f" x="650.390625"/>
    <use xlink:href="#ArialMT-6d" x="706.005859"/>
    <use xlink:href="#ArialMT-2f" x="789.306641"/>
    <use xlink:href="#ArialMT-62" x="817.089844"/>
    <use xlink:href="#ArialMT-69" x="872.705078"/>
    <use xlink:href="#ArialMT-6f" x="894.921875"/>
    <use xlink:href="#ArialMT-70" x="950.537109"/>
    <use xlink:href="#ArialMT-72" x="1006.152344"/>
    <use xlink:href="#ArialMT-61" x="1039.453125"/>
    <use xlink:href="#ArialMT-67" x="1095.068359"/>
    <use xlink:href="#ArialMT-6d" x="1150.683594"/>
    <use xlink:href="#ArialMT-61" x="1233.984375"/>
    <use xlink:href="#ArialMT-74" x="1289.599609"/>
    <use xlink:href="#ArialMT-69" x="1317.382812"/>
    <use xlink:href="#ArialMT-63" x="1339.599609"/>
    <use xlink:href="#ArialMT-73" x="1389.599609"/>
    <use xlink:href="#ArialMT-2f" x="1439.599609"/>
    <use xlink:href="#ArialMT-62" x="1467.382812"/>
    <use xlink:href="#ArialMT-69" x="1522.998047"/>
    <use xlink:href="#ArialMT-6f" x="1545.214844"/>
    <use xlink:href="#ArialMT-72" x="1600.830078"/>
    <use xlink:href="#ArialMT-65" x="1634.130859"/>
    <use xlink:href="#ArialMT-67" x="1689.746094"/>
    <use xlink:href="#ArialMT-69" x="1745.361328"/>
    <use xlink:href="#ArialMT-73" x="1767.578125"/>
    <use xlink:href="#ArialMT-74" x="1817.578125"/>
    <use xlink:href="#ArialMT-72" x="1845.361328"/>
    <use xlink:href="#ArialMT-79" x="1878.662109"/>
    <use xlink:href="#ArialMT-20" x="1928.662109"/>
    <use xlink:href="#ArialMT-28" x="1956.445312"/>
    <use xlink:href="#ArialMT-32" x="1989.746094"/>
    <use xlink:href="#ArialMT-30" x="2045.361328"/>
    <use xlink:href="#ArialMT-32" x="2100.976562"/>
    <use xlink:href="#ArialMT-32" x="2156.591797"/>
    <use xlink:href="#ArialMT-2d" x="2212.207031"/>
    <use xlink:href="#ArialMT-30" x="2245.507812"/>
    <use xlink:href="#ArialMT-35" x="2301.123047"/>
    <use xlink:href="#ArialMT-2d" x="2356.738281"/>
    <use xlink:href="#ArialMT-31" x="2390.039062"/>
    <use xlink:href="#ArialMT-32" x="2445.654297"/>
    <use xlink:href="#ArialMT-29" x="2501.269531"/>
   </g>
  </g>
 </g>
</svg>
