<?xml version="1.0" encoding="utf-8" standalone="no"?>
<!DOCTYPE svg PUBLIC "-//W3C//DTD SVG 1.1//EN"
  "http://www.w3.org/Graphics/SVG/1.1/DTD/svg11.dtd">
<svg height="576pt" version="1.1" viewBox="0 0 792 576" width="792pt" xmlns="http://www.w3.org/2000/svg" xmlns:xlink="http://www.w3.org/1999/xlink">
 <metadata>
  <rdf:RDF xmlns:cc="http://creativecommons.org/ns#" xmlns:dc="http://purl.org/dc/elements/1.1/" xmlns:rdf="http://www.w3.org/1999/02/22-rdf-syntax-ns#">
   <cc:Work>
    <dc:type rdf:resource="http://purl.org/dc/dcmitype/StillImage"/>
    <dc:date>2021-06-24T00:36:19.694751</dc:date>
    <dc:format>image/svg+xml</dc:format>
    <dc:creator>
     <cc:Agent>
      <dc:title>Matplotlib v3.4.2, https://matplotlib.org/</dc:title>
     </cc:Agent>
    </dc:creator>
   </cc:Work>
  </rdf:RDF>
 </metadata>
 <defs>
  <style type="text/css">*{stroke-linecap:butt;stroke-linejoin:round;}</style>
 </defs>
 <g id="figure_1">
  <g id="patch_1">
   <path d="M 0 576 
L 792 576 
L 792 0 
L 0 0 
z
" style="fill:#ffffff;"/>
  </g>
  <g id="axes_1">
   <g id="matplotlib.axis_1"/>
   <g id="matplotlib.axis_2"/>
   <g id="patch_2">
    <path d="M 141.931515 86.3784 
C 141.931515 80.368201 140.747637 74.416444 138.447634 68.863745 
C 136.14763 63.311045 132.776231 58.265389 128.526378 54.015537 
C 124.276526 49.765685 119.23087 46.394285 113.678171 44.094282 
C 108.125471 41.794278 102.173714 40.6104 96.163515 40.6104 
C 90.153317 40.6104 84.20156 41.794278 78.64886 44.094282 
C 73.09616 46.394285 68.050504 49.765685 63.800652 54.015537 
C 59.5508 58.265389 56.1794 63.311045 53.879397 68.863745 
C 51.579393 74.416444 50.395515 80.368201 50.395515 86.3784 
C 50.395515 92.388599 51.579393 98.340356 53.879397 103.893055 
C 56.1794 109.445755 59.5508 114.491411 63.800652 118.741263 
C 68.050504 122.991115 73.09616 126.362515 78.64886 128.662518 
C 84.20156 130.962522 90.153317 132.1464 96.163515 132.1464 
C 102.173714 132.1464 108.125471 130.962522 113.678171 128.662518 
C 119.23087 126.362515 124.276526 122.991115 128.526378 118.741263 
C 132.776231 114.491411 136.14763 109.445755 138.447634 103.893055 
C 140.747637 98.340356 141.931515 92.388599 141.931515 86.3784 
M 96.163515 86.3784 
M 141.931515 86.3784 
z
" style="fill:#1f77b4;stroke:#ffffff;stroke-linejoin:miter;"/>
   </g>
   <g id="patch_3">
    <path d="M 139.763391 61.206 
C 139.763391 61.206 139.763391 61.206 139.763391 61.206 
L 100.12714 84.09 
L 139.763391 61.206 
z
" style="fill:#ff7f0e;stroke:#ffffff;stroke-linejoin:miter;"/>
   </g>
   <g id="text_1">
    <!-- Yes -->
    <g style="fill:#262626;" transform="translate(36.418327 114.310175)scale(0.1 -0.1)">
     <defs>
      <path d="M -13 4666 
L 666 4666 
L 1959 2747 
L 3244 4666 
L 3922 4666 
L 2272 2222 
L 2272 0 
L 1638 0 
L 1638 2222 
L -13 4666 
z
" id="DejaVuSans-59" transform="scale(0.015625)"/>
      <path d="M 3597 1894 
L 3597 1613 
L 953 1613 
Q 991 1019 1311 708 
Q 1631 397 2203 397 
Q 2534 397 2845 478 
Q 3156 559 3463 722 
L 3463 178 
Q 3153 47 2828 -22 
Q 2503 -91 2169 -91 
Q 1331 -91 842 396 
Q 353 884 353 1716 
Q 353 2575 817 3079 
Q 1281 3584 2069 3584 
Q 2775 3584 3186 3129 
Q 3597 2675 3597 1894 
z
M 3022 2063 
Q 3016 2534 2758 2815 
Q 2500 3097 2075 3097 
Q 1594 3097 1305 2825 
Q 1016 2553 972 2059 
L 3022 2063 
z
" id="DejaVuSans-65" transform="scale(0.015625)"/>
      <path d="M 2834 3397 
L 2834 2853 
Q 2591 2978 2328 3040 
Q 2066 3103 1784 3103 
Q 1356 3103 1142 2972 
Q 928 2841 928 2578 
Q 928 2378 1081 2264 
Q 1234 2150 1697 2047 
L 1894 2003 
Q 2506 1872 2764 1633 
Q 3022 1394 3022 966 
Q 3022 478 2636 193 
Q 2250 -91 1575 -91 
Q 1294 -91 989 -36 
Q 684 19 347 128 
L 347 722 
Q 666 556 975 473 
Q 1284 391 1588 391 
Q 1994 391 2212 530 
Q 2431 669 2431 922 
Q 2431 1156 2273 1281 
Q 2116 1406 1581 1522 
L 1381 1569 
Q 847 1681 609 1914 
Q 372 2147 372 2553 
Q 372 3047 722 3315 
Q 1072 3584 1716 3584 
Q 2034 3584 2315 3537 
Q 2597 3491 2834 3397 
z
" id="DejaVuSans-73" transform="scale(0.015625)"/>
     </defs>
     <use xlink:href="#DejaVuSans-59"/>
     <use x="47.833984" xlink:href="#DejaVuSans-65"/>
     <use x="109.357422" xlink:href="#DejaVuSans-73"/>
    </g>
   </g>
   <g id="text_2">
    <!-- 100% -->
    <g style="fill:#262626;" transform="translate(58.087234 102.868175)scale(0.1 -0.1)">
     <defs>
      <path d="M 794 531 
L 1825 531 
L 1825 4091 
L 703 3866 
L 703 4441 
L 1819 4666 
L 2450 4666 
L 2450 531 
L 3481 531 
L 3481 0 
L 794 0 
L 794 531 
z
" id="DejaVuSans-31" transform="scale(0.015625)"/>
      <path d="M 2034 4250 
Q 1547 4250 1301 3770 
Q 1056 3291 1056 2328 
Q 1056 1369 1301 889 
Q 1547 409 2034 409 
Q 2525 409 2770 889 
Q 3016 1369 3016 2328 
Q 3016 3291 2770 3770 
Q 2525 4250 2034 4250 
z
M 2034 4750 
Q 2819 4750 3233 4129 
Q 3647 3509 3647 2328 
Q 3647 1150 3233 529 
Q 2819 -91 2034 -91 
Q 1250 -91 836 529 
Q 422 1150 422 2328 
Q 422 3509 836 4129 
Q 1250 4750 2034 4750 
z
" id="DejaVuSans-30" transform="scale(0.015625)"/>
      <path d="M 4653 2053 
Q 4381 2053 4226 1822 
Q 4072 1591 4072 1178 
Q 4072 772 4226 539 
Q 4381 306 4653 306 
Q 4919 306 5073 539 
Q 5228 772 5228 1178 
Q 5228 1588 5073 1820 
Q 4919 2053 4653 2053 
z
M 4653 2450 
Q 5147 2450 5437 2106 
Q 5728 1763 5728 1178 
Q 5728 594 5436 251 
Q 5144 -91 4653 -91 
Q 4153 -91 3862 251 
Q 3572 594 3572 1178 
Q 3572 1766 3864 2108 
Q 4156 2450 4653 2450 
z
M 1428 4353 
Q 1159 4353 1004 4120 
Q 850 3888 850 3481 
Q 850 3069 1003 2837 
Q 1156 2606 1428 2606 
Q 1700 2606 1854 2837 
Q 2009 3069 2009 3481 
Q 2009 3884 1853 4118 
Q 1697 4353 1428 4353 
z
M 4250 4750 
L 4750 4750 
L 1831 -91 
L 1331 -91 
L 4250 4750 
z
M 1428 4750 
Q 1922 4750 2215 4408 
Q 2509 4066 2509 3481 
Q 2509 2891 2217 2550 
Q 1925 2209 1428 2209 
Q 931 2209 642 2551 
Q 353 2894 353 3481 
Q 353 4063 643 4406 
Q 934 4750 1428 4750 
z
" id="DejaVuSans-25" transform="scale(0.015625)"/>
     </defs>
     <use xlink:href="#DejaVuSans-31"/>
     <use x="63.623047" xlink:href="#DejaVuSans-30"/>
     <use x="127.246094" xlink:href="#DejaVuSans-30"/>
     <use x="190.869141" xlink:href="#DejaVuSans-25"/>
    </g>
   </g>
   <g id="text_3">
    <!-- No -->
    <g style="fill:#262626;" transform="translate(143.727016 61.676975)scale(0.1 -0.1)">
     <defs>
      <path d="M 628 4666 
L 1478 4666 
L 3547 763 
L 3547 4666 
L 4159 4666 
L 4159 0 
L 3309 0 
L 1241 3903 
L 1241 0 
L 628 0 
L 628 4666 
z
" id="DejaVuSans-4e" transform="scale(0.015625)"/>
      <path d="M 1959 3097 
Q 1497 3097 1228 2736 
Q 959 2375 959 1747 
Q 959 1119 1226 758 
Q 1494 397 1959 397 
Q 2419 397 2687 759 
Q 2956 1122 2956 1747 
Q 2956 2369 2687 2733 
Q 2419 3097 1959 3097 
z
M 1959 3584 
Q 2709 3584 3137 3096 
Q 3566 2609 3566 1747 
Q 3566 888 3137 398 
Q 2709 -91 1959 -91 
Q 1206 -91 779 398 
Q 353 888 353 1747 
Q 353 2609 779 3096 
Q 1206 3584 1959 3584 
z
" id="DejaVuSans-6f" transform="scale(0.015625)"/>
     </defs>
     <use xlink:href="#DejaVuSans-4e"/>
     <use x="74.804688" xlink:href="#DejaVuSans-6f"/>
    </g>
   </g>
   <g id="text_4">
    <!-- 0% -->
    <g style="fill:#262626;" transform="translate(115.97686 73.118975)scale(0.1 -0.1)">
     <use xlink:href="#DejaVuSans-30"/>
     <use x="63.623047" xlink:href="#DejaVuSans-25"/>
    </g>
   </g>
   <g id="text_5">
    <!-- Name -->
    <g style="fill:#262626;" transform="translate(82.425265 20.88)scale(0.12 -0.12)">
     <defs>
      <path d="M 2194 1759 
Q 1497 1759 1228 1600 
Q 959 1441 959 1056 
Q 959 750 1161 570 
Q 1363 391 1709 391 
Q 2188 391 2477 730 
Q 2766 1069 2766 1631 
L 2766 1759 
L 2194 1759 
z
M 3341 1997 
L 3341 0 
L 2766 0 
L 2766 531 
Q 2569 213 2275 61 
Q 1981 -91 1556 -91 
Q 1019 -91 701 211 
Q 384 513 384 1019 
Q 384 1609 779 1909 
Q 1175 2209 1959 2209 
L 2766 2209 
L 2766 2266 
Q 2766 2663 2505 2880 
Q 2244 3097 1772 3097 
Q 1472 3097 1187 3025 
Q 903 2953 641 2809 
L 641 3341 
Q 956 3463 1253 3523 
Q 1550 3584 1831 3584 
Q 2591 3584 2966 3190 
Q 3341 2797 3341 1997 
z
" id="DejaVuSans-61" transform="scale(0.015625)"/>
      <path d="M 3328 2828 
Q 3544 3216 3844 3400 
Q 4144 3584 4550 3584 
Q 5097 3584 5394 3201 
Q 5691 2819 5691 2113 
L 5691 0 
L 5113 0 
L 5113 2094 
Q 5113 2597 4934 2840 
Q 4756 3084 4391 3084 
Q 3944 3084 3684 2787 
Q 3425 2491 3425 1978 
L 3425 0 
L 2847 0 
L 2847 2094 
Q 2847 2600 2669 2842 
Q 2491 3084 2119 3084 
Q 1678 3084 1418 2786 
Q 1159 2488 1159 1978 
L 1159 0 
L 581 0 
L 581 3500 
L 1159 3500 
L 1159 2956 
Q 1356 3278 1631 3431 
Q 1906 3584 2284 3584 
Q 2666 3584 2933 3390 
Q 3200 3197 3328 2828 
z
" id="DejaVuSans-6d" transform="scale(0.015625)"/>
     </defs>
     <use xlink:href="#DejaVuSans-4e"/>
     <use x="74.804688" xlink:href="#DejaVuSans-61"/>
     <use x="136.083984" xlink:href="#DejaVuSans-6d"/>
     <use x="233.496094" xlink:href="#DejaVuSans-65"/>
    </g>
   </g>
  </g>
  <g id="axes_2">
   <g id="matplotlib.axis_3"/>
   <g id="matplotlib.axis_4"/>
   <g id="patch_4">
    <path d="M 324.669699 61.718879 
C 322.060067 57.198862 318.696382 53.158365 314.724413 49.772483 
C 310.752444 46.386602 306.230407 43.704963 301.354269 41.843779 
C 296.478131 39.982594 291.319361 38.969143 286.101517 38.847343 
C 280.883673 38.725543 275.683233 39.49718 270.725562 41.128815 
C 265.767891 42.76045 261.125654 45.228167 257.000024 48.425027 
C 252.874395 51.621887 249.325843 55.501033 246.508146 59.89436 
C 243.69045 64.287686 241.644909 69.130801 240.460168 74.213824 
C 239.275427 79.296846 238.96885 84.545275 239.553724 89.731667 
C 240.138598 94.918058 241.606349 99.966394 243.893373 104.657903 
C 246.180397 109.349412 249.253171 113.61533 252.978536 117.27079 
C 256.703901 120.92625 261.027253 123.917674 265.761238 126.115428 
C 270.495223 128.313181 275.570454 129.685051 280.766992 130.171587 
C 285.963531 130.658123 291.205212 130.252193 296.264883 128.971389 
C 301.324554 127.690585 306.128056 125.55368 310.467226 122.653277 
C 314.806396 119.752874 318.617635 116.131485 321.735779 111.946045 
C 324.853924 107.760606 327.233272 103.072461 328.770713 98.084776 
L 285.033449 84.602879 
L 324.669699 61.718879 
z
" style="fill:#1f77b4;stroke:#ffffff;stroke-linejoin:miter;"/>
   </g>
   <g id="patch_5">
    <path d="M 333.318685 97.571897 
C 335.173554 91.554429 335.766776 85.218409 335.061146 78.96121 
C 334.355516 72.704011 332.3661 66.659237 329.21767 61.205996 
L 289.581421 84.09 
L 333.318685 97.571897 
z
" style="fill:#ff7f0e;stroke:#ffffff;stroke-linejoin:miter;"/>
   </g>
   <g id="text_6">
    <!-- Yes -->
    <g style="fill:#262626;" transform="translate(218.860439 93.00392)scale(0.1 -0.1)">
     <use xlink:href="#DejaVuSans-59"/>
     <use x="47.833984" xlink:href="#DejaVuSans-65"/>
     <use x="109.357422" xlink:href="#DejaVuSans-73"/>
    </g>
   </g>
   <g id="text_7">
    <!-- 87% -->
    <g style="fill:#262626;" transform="translate(246.632333 90.439526)scale(0.1 -0.1)">
     <defs>
      <path d="M 2034 2216 
Q 1584 2216 1326 1975 
Q 1069 1734 1069 1313 
Q 1069 891 1326 650 
Q 1584 409 2034 409 
Q 2484 409 2743 651 
Q 3003 894 3003 1313 
Q 3003 1734 2745 1975 
Q 2488 2216 2034 2216 
z
M 1403 2484 
Q 997 2584 770 2862 
Q 544 3141 544 3541 
Q 544 4100 942 4425 
Q 1341 4750 2034 4750 
Q 2731 4750 3128 4425 
Q 3525 4100 3525 3541 
Q 3525 3141 3298 2862 
Q 3072 2584 2669 2484 
Q 3125 2378 3379 2068 
Q 3634 1759 3634 1313 
Q 3634 634 3220 271 
Q 2806 -91 2034 -91 
Q 1263 -91 848 271 
Q 434 634 434 1313 
Q 434 1759 690 2068 
Q 947 2378 1403 2484 
z
M 1172 3481 
Q 1172 3119 1398 2916 
Q 1625 2713 2034 2713 
Q 2441 2713 2670 2916 
Q 2900 3119 2900 3481 
Q 2900 3844 2670 4047 
Q 2441 4250 2034 4250 
Q 1625 4250 1398 4047 
Q 1172 3844 1172 3481 
z
" id="DejaVuSans-38" transform="scale(0.015625)"/>
      <path d="M 525 4666 
L 3525 4666 
L 3525 4397 
L 1831 0 
L 1172 0 
L 2766 4134 
L 525 4134 
L 525 4666 
z
" id="DejaVuSans-37" transform="scale(0.015625)"/>
     </defs>
     <use xlink:href="#DejaVuSans-38"/>
     <use x="63.623047" xlink:href="#DejaVuSans-37"/>
     <use x="127.246094" xlink:href="#DejaVuSans-25"/>
    </g>
   </g>
   <g id="text_8">
    <!-- No -->
    <g style="fill:#262626;" transform="translate(339.609118 81.207706)scale(0.1 -0.1)">
     <use xlink:href="#DejaVuSans-4e"/>
     <use x="74.804688" xlink:href="#DejaVuSans-6f"/>
    </g>
   </g>
   <g id="text_9">
    <!-- 13% -->
    <g style="fill:#262626;" transform="translate(305.755975 83.772101)scale(0.1 -0.1)">
     <defs>
      <path d="M 2597 2516 
Q 3050 2419 3304 2112 
Q 3559 1806 3559 1356 
Q 3559 666 3084 287 
Q 2609 -91 1734 -91 
Q 1441 -91 1130 -33 
Q 819 25 488 141 
L 488 750 
Q 750 597 1062 519 
Q 1375 441 1716 441 
Q 2309 441 2620 675 
Q 2931 909 2931 1356 
Q 2931 1769 2642 2001 
Q 2353 2234 1838 2234 
L 1294 2234 
L 1294 2753 
L 1863 2753 
Q 2328 2753 2575 2939 
Q 2822 3125 2822 3475 
Q 2822 3834 2567 4026 
Q 2313 4219 1838 4219 
Q 1578 4219 1281 4162 
Q 984 4106 628 3988 
L 628 4550 
Q 988 4650 1302 4700 
Q 1616 4750 1894 4750 
Q 2613 4750 3031 4423 
Q 3450 4097 3450 3541 
Q 3450 3153 3228 2886 
Q 3006 2619 2597 2516 
z
" id="DejaVuSans-33" transform="scale(0.015625)"/>
     </defs>
     <use xlink:href="#DejaVuSans-31"/>
     <use x="63.623047" xlink:href="#DejaVuSans-33"/>
     <use x="127.246094" xlink:href="#DejaVuSans-25"/>
    </g>
   </g>
   <g id="text_10">
    <!-- Homepage -->
    <g style="fill:#262626;" transform="translate(256.874859 20.88)scale(0.12 -0.12)">
     <defs>
      <path d="M 628 4666 
L 1259 4666 
L 1259 2753 
L 3553 2753 
L 3553 4666 
L 4184 4666 
L 4184 0 
L 3553 0 
L 3553 2222 
L 1259 2222 
L 1259 0 
L 628 0 
L 628 4666 
z
" id="DejaVuSans-48" transform="scale(0.015625)"/>
      <path d="M 1159 525 
L 1159 -1331 
L 581 -1331 
L 581 3500 
L 1159 3500 
L 1159 2969 
Q 1341 3281 1617 3432 
Q 1894 3584 2278 3584 
Q 2916 3584 3314 3078 
Q 3713 2572 3713 1747 
Q 3713 922 3314 415 
Q 2916 -91 2278 -91 
Q 1894 -91 1617 61 
Q 1341 213 1159 525 
z
M 3116 1747 
Q 3116 2381 2855 2742 
Q 2594 3103 2138 3103 
Q 1681 3103 1420 2742 
Q 1159 2381 1159 1747 
Q 1159 1113 1420 752 
Q 1681 391 2138 391 
Q 2594 391 2855 752 
Q 3116 1113 3116 1747 
z
" id="DejaVuSans-70" transform="scale(0.015625)"/>
      <path d="M 2906 1791 
Q 2906 2416 2648 2759 
Q 2391 3103 1925 3103 
Q 1463 3103 1205 2759 
Q 947 2416 947 1791 
Q 947 1169 1205 825 
Q 1463 481 1925 481 
Q 2391 481 2648 825 
Q 2906 1169 2906 1791 
z
M 3481 434 
Q 3481 -459 3084 -895 
Q 2688 -1331 1869 -1331 
Q 1566 -1331 1297 -1286 
Q 1028 -1241 775 -1147 
L 775 -588 
Q 1028 -725 1275 -790 
Q 1522 -856 1778 -856 
Q 2344 -856 2625 -561 
Q 2906 -266 2906 331 
L 2906 616 
Q 2728 306 2450 153 
Q 2172 0 1784 0 
Q 1141 0 747 490 
Q 353 981 353 1791 
Q 353 2603 747 3093 
Q 1141 3584 1784 3584 
Q 2172 3584 2450 3431 
Q 2728 3278 2906 2969 
L 2906 3500 
L 3481 3500 
L 3481 434 
z
" id="DejaVuSans-67" transform="scale(0.015625)"/>
     </defs>
     <use xlink:href="#DejaVuSans-48"/>
     <use x="75.195312" xlink:href="#DejaVuSans-6f"/>
     <use x="136.376953" xlink:href="#DejaVuSans-6d"/>
     <use x="233.789062" xlink:href="#DejaVuSans-65"/>
     <use x="295.3125" xlink:href="#DejaVuSans-70"/>
     <use x="358.789062" xlink:href="#DejaVuSans-61"/>
     <use x="420.068359" xlink:href="#DejaVuSans-67"/>
     <use x="483.544922" xlink:href="#DejaVuSans-65"/>
    </g>
   </g>
  </g>
  <g id="axes_3">
   <g id="matplotlib.axis_5"/>
   <g id="matplotlib.axis_6"/>
   <g id="patch_6">
    <path d="M 514.098206 61.373154 
C 511.561326 56.979148 508.311345 53.037422 504.481454 49.709513 
C 500.651563 46.381604 496.294805 43.713602 491.589725 41.814848 
C 486.884645 39.916093 481.896408 38.812883 476.829441 38.550427 
C 471.762473 38.287972 466.68695 38.869907 461.810876 40.272384 
C 456.934801 41.67486 452.325706 43.878454 448.17248 46.79286 
C 444.019254 49.707265 440.379417 53.292117 437.402136 57.400504 
C 434.424855 61.508891 432.151364 66.083912 430.674834 70.938075 
C 429.198304 75.792239 428.539186 80.858316 428.724489 85.928692 
C 428.909793 90.999067 429.936953 96.003517 431.763875 100.736952 
C 433.590796 105.470386 436.192177 109.867248 439.461408 113.747348 
C 442.73064 117.627447 446.622443 120.937046 450.977328 123.54051 
C 455.332212 126.143975 460.089862 128.005249 465.055303 129.048054 
C 470.020744 130.090859 475.125205 130.300752 480.159498 129.669133 
C 485.19379 129.037513 490.088191 127.573128 494.642118 125.335991 
C 499.196046 123.098853 503.346431 120.119947 506.923184 116.521352 
C 510.499936 112.922757 513.453519 108.754312 515.662891 104.186849 
L 474.461955 84.257154 
L 514.098206 61.373154 
z
" style="fill:#1f77b4;stroke:#ffffff;stroke-linejoin:miter;"/>
   </g>
   <g id="patch_7">
    <path d="M 520.236637 104.019695 
C 523.488254 97.297583 525.045886 89.880731 524.773168 82.418464 
C 524.500449 74.956198 522.405578 67.672831 518.671955 61.206004 
L 479.035702 84.09 
L 520.236637 104.019695 
z
" style="fill:#ff7f0e;stroke:#ffffff;stroke-linejoin:miter;"/>
   </g>
   <g id="text_11">
    <!-- Yes -->
    <g style="fill:#262626;" transform="translate(408.00543 88.85522)scale(0.1 -0.1)">
     <use xlink:href="#DejaVuSans-59"/>
     <use x="47.833984" xlink:href="#DejaVuSans-65"/>
     <use x="109.357422" xlink:href="#DejaVuSans-73"/>
    </g>
   </g>
   <g id="text_12">
    <!-- 84% -->
    <g style="fill:#262626;" transform="translate(435.906194 88.019452)scale(0.1 -0.1)">
     <defs>
      <path d="M 2419 4116 
L 825 1625 
L 2419 1625 
L 2419 4116 
z
M 2253 4666 
L 3047 4666 
L 3047 1625 
L 3713 1625 
L 3713 1100 
L 3047 1100 
L 3047 0 
L 2419 0 
L 2419 1100 
L 313 1100 
L 313 1709 
L 2253 4666 
z
" id="DejaVuSans-34" transform="scale(0.015625)"/>
     </defs>
     <use xlink:href="#DejaVuSans-38"/>
     <use x="63.623047" xlink:href="#DejaVuSans-34"/>
     <use x="127.246094" xlink:href="#DejaVuSans-25"/>
    </g>
   </g>
   <g id="text_13">
    <!-- No -->
    <g style="fill:#262626;" transform="translate(529.346914 85.010686)scale(0.1 -0.1)">
     <use xlink:href="#DejaVuSans-4e"/>
     <use x="74.804688" xlink:href="#DejaVuSans-6f"/>
    </g>
   </g>
   <g id="text_14">
    <!-- 16% -->
    <g style="fill:#262626;" transform="translate(495.3649 85.846454)scale(0.1 -0.1)">
     <defs>
      <path d="M 2113 2584 
Q 1688 2584 1439 2293 
Q 1191 2003 1191 1497 
Q 1191 994 1439 701 
Q 1688 409 2113 409 
Q 2538 409 2786 701 
Q 3034 994 3034 1497 
Q 3034 2003 2786 2293 
Q 2538 2584 2113 2584 
z
M 3366 4563 
L 3366 3988 
Q 3128 4100 2886 4159 
Q 2644 4219 2406 4219 
Q 1781 4219 1451 3797 
Q 1122 3375 1075 2522 
Q 1259 2794 1537 2939 
Q 1816 3084 2150 3084 
Q 2853 3084 3261 2657 
Q 3669 2231 3669 1497 
Q 3669 778 3244 343 
Q 2819 -91 2113 -91 
Q 1303 -91 875 529 
Q 447 1150 447 2328 
Q 447 3434 972 4092 
Q 1497 4750 2381 4750 
Q 2619 4750 2861 4703 
Q 3103 4656 3366 4563 
z
" id="DejaVuSans-36" transform="scale(0.015625)"/>
     </defs>
     <use xlink:href="#DejaVuSans-31"/>
     <use x="63.623047" xlink:href="#DejaVuSans-36"/>
     <use x="127.246094" xlink:href="#DejaVuSans-25"/>
    </g>
   </g>
   <g id="text_15">
    <!-- Description -->
    <g style="fill:#262626;" transform="translate(444.863827 20.88)scale(0.12 -0.12)">
     <defs>
      <path d="M 1259 4147 
L 1259 519 
L 2022 519 
Q 2988 519 3436 956 
Q 3884 1394 3884 2338 
Q 3884 3275 3436 3711 
Q 2988 4147 2022 4147 
L 1259 4147 
z
M 628 4666 
L 1925 4666 
Q 3281 4666 3915 4102 
Q 4550 3538 4550 2338 
Q 4550 1131 3912 565 
Q 3275 0 1925 0 
L 628 0 
L 628 4666 
z
" id="DejaVuSans-44" transform="scale(0.015625)"/>
      <path d="M 3122 3366 
L 3122 2828 
Q 2878 2963 2633 3030 
Q 2388 3097 2138 3097 
Q 1578 3097 1268 2742 
Q 959 2388 959 1747 
Q 959 1106 1268 751 
Q 1578 397 2138 397 
Q 2388 397 2633 464 
Q 2878 531 3122 666 
L 3122 134 
Q 2881 22 2623 -34 
Q 2366 -91 2075 -91 
Q 1284 -91 818 406 
Q 353 903 353 1747 
Q 353 2603 823 3093 
Q 1294 3584 2113 3584 
Q 2378 3584 2631 3529 
Q 2884 3475 3122 3366 
z
" id="DejaVuSans-63" transform="scale(0.015625)"/>
      <path d="M 2631 2963 
Q 2534 3019 2420 3045 
Q 2306 3072 2169 3072 
Q 1681 3072 1420 2755 
Q 1159 2438 1159 1844 
L 1159 0 
L 581 0 
L 581 3500 
L 1159 3500 
L 1159 2956 
Q 1341 3275 1631 3429 
Q 1922 3584 2338 3584 
Q 2397 3584 2469 3576 
Q 2541 3569 2628 3553 
L 2631 2963 
z
" id="DejaVuSans-72" transform="scale(0.015625)"/>
      <path d="M 603 3500 
L 1178 3500 
L 1178 0 
L 603 0 
L 603 3500 
z
M 603 4863 
L 1178 4863 
L 1178 4134 
L 603 4134 
L 603 4863 
z
" id="DejaVuSans-69" transform="scale(0.015625)"/>
      <path d="M 1172 4494 
L 1172 3500 
L 2356 3500 
L 2356 3053 
L 1172 3053 
L 1172 1153 
Q 1172 725 1289 603 
Q 1406 481 1766 481 
L 2356 481 
L 2356 0 
L 1766 0 
Q 1100 0 847 248 
Q 594 497 594 1153 
L 594 3053 
L 172 3053 
L 172 3500 
L 594 3500 
L 594 4494 
L 1172 4494 
z
" id="DejaVuSans-74" transform="scale(0.015625)"/>
      <path d="M 3513 2113 
L 3513 0 
L 2938 0 
L 2938 2094 
Q 2938 2591 2744 2837 
Q 2550 3084 2163 3084 
Q 1697 3084 1428 2787 
Q 1159 2491 1159 1978 
L 1159 0 
L 581 0 
L 581 3500 
L 1159 3500 
L 1159 2956 
Q 1366 3272 1645 3428 
Q 1925 3584 2291 3584 
Q 2894 3584 3203 3211 
Q 3513 2838 3513 2113 
z
" id="DejaVuSans-6e" transform="scale(0.015625)"/>
     </defs>
     <use xlink:href="#DejaVuSans-44"/>
     <use x="77.001953" xlink:href="#DejaVuSans-65"/>
     <use x="138.525391" xlink:href="#DejaVuSans-73"/>
     <use x="190.625" xlink:href="#DejaVuSans-63"/>
     <use x="245.605469" xlink:href="#DejaVuSans-72"/>
     <use x="286.71875" xlink:href="#DejaVuSans-69"/>
     <use x="314.501953" xlink:href="#DejaVuSans-70"/>
     <use x="377.978516" xlink:href="#DejaVuSans-74"/>
     <use x="417.1875" xlink:href="#DejaVuSans-69"/>
     <use x="444.970703" xlink:href="#DejaVuSans-6f"/>
     <use x="506.152344" xlink:href="#DejaVuSans-6e"/>
    </g>
   </g>
  </g>
  <g id="axes_4">
   <g id="matplotlib.axis_7"/>
   <g id="matplotlib.axis_8"/>
   <g id="patch_8">
    <path d="M 703.575552 60.717742 
C 701.176305 56.562124 698.13838 52.809561 694.573273 49.597778 
C 691.008167 46.385994 686.960034 43.754769 682.577449 41.800674 
C 678.194864 39.846579 673.532107 38.593815 668.760309 38.088362 
C 663.988511 37.582909 659.166773 37.831027 654.472061 38.823609 
C 649.777349 39.816191 645.267809 41.540943 641.10895 43.934565 
C 636.95009 46.328187 633.19342 49.361032 629.976816 52.92179 
C 626.760212 56.482548 624.123512 60.527117 622.163489 64.907054 
C 620.203466 69.286991 618.944395 73.948049 618.432486 78.719158 
C 617.920577 83.490268 618.162171 88.312338 619.1484 93.008388 
C 620.134629 97.704439 621.853279 102.216308 624.241271 106.378402 
C 626.629264 110.540497 629.657024 114.301267 633.213426 117.522686 
C 636.769829 120.744105 640.810826 123.386274 645.188108 125.352222 
C 649.565389 127.318169 654.224739 128.583545 658.995152 129.101909 
C 663.765564 129.620272 668.587956 129.385203 673.285337 128.405329 
C 677.982717 127.425455 682.496908 125.712911 686.662229 123.330552 
C 690.827551 120.948192 694.592414 117.925524 697.818642 114.373483 
L 663.939301 83.601742 
L 703.575552 60.717742 
z
" style="fill:#1f77b4;stroke:#ffffff;stroke-linejoin:miter;"/>
   </g>
   <g id="patch_9">
    <path d="M 702.369323 114.861742 
C 708.889413 107.683196 712.962248 98.614825 713.996797 88.972585 
C 715.031347 79.330346 712.975025 69.604356 708.126235 61.206004 
L 668.489983 84.09 
L 702.369323 114.861742 
z
" style="fill:#ff7f0e;stroke:#ffffff;stroke-linejoin:miter;"/>
   </g>
   <g id="text_16">
    <!-- Yes -->
    <g style="fill:#262626;" transform="translate(597.736492 80.990275)scale(0.1 -0.1)">
     <use xlink:href="#DejaVuSans-59"/>
     <use x="47.833984" xlink:href="#DejaVuSans-65"/>
     <use x="109.357422" xlink:href="#DejaVuSans-73"/>
    </g>
   </g>
   <g id="text_17">
    <!-- 80% -->
    <g style="fill:#262626;" transform="translate(625.521931 83.431567)scale(0.1 -0.1)">
     <use xlink:href="#DejaVuSans-38"/>
     <use x="63.623047" xlink:href="#DejaVuSans-30"/>
     <use x="127.246094" xlink:href="#DejaVuSans-25"/>
    </g>
   </g>
   <g id="text_18">
    <!-- No -->
    <g style="fill:#262626;" transform="translate(718.547479 92.220219)scale(0.1 -0.1)">
     <use xlink:href="#DejaVuSans-4e"/>
     <use x="74.804688" xlink:href="#DejaVuSans-6f"/>
    </g>
   </g>
   <g id="text_19">
    <!-- 20% -->
    <g style="fill:#262626;" transform="translate(684.68079 89.778926)scale(0.1 -0.1)">
     <defs>
      <path d="M 1228 531 
L 3431 531 
L 3431 0 
L 469 0 
L 469 531 
Q 828 903 1448 1529 
Q 2069 2156 2228 2338 
Q 2531 2678 2651 2914 
Q 2772 3150 2772 3378 
Q 2772 3750 2511 3984 
Q 2250 4219 1831 4219 
Q 1534 4219 1204 4116 
Q 875 4013 500 3803 
L 500 4441 
Q 881 4594 1212 4672 
Q 1544 4750 1819 4750 
Q 2544 4750 2975 4387 
Q 3406 4025 3406 3419 
Q 3406 3131 3298 2873 
Q 3191 2616 2906 2266 
Q 2828 2175 2409 1742 
Q 1991 1309 1228 531 
z
" id="DejaVuSans-32" transform="scale(0.015625)"/>
     </defs>
     <use xlink:href="#DejaVuSans-32"/>
     <use x="63.623047" xlink:href="#DejaVuSans-30"/>
     <use x="127.246094" xlink:href="#DejaVuSans-25"/>
    </g>
   </g>
   <g id="text_20">
    <!-- Example -->
    <g style="fill:#262626;" transform="translate(642.45842 20.88)scale(0.12 -0.12)">
     <defs>
      <path d="M 628 4666 
L 3578 4666 
L 3578 4134 
L 1259 4134 
L 1259 2753 
L 3481 2753 
L 3481 2222 
L 1259 2222 
L 1259 531 
L 3634 531 
L 3634 0 
L 628 0 
L 628 4666 
z
" id="DejaVuSans-45" transform="scale(0.015625)"/>
      <path d="M 3513 3500 
L 2247 1797 
L 3578 0 
L 2900 0 
L 1881 1375 
L 863 0 
L 184 0 
L 1544 1831 
L 300 3500 
L 978 3500 
L 1906 2253 
L 2834 3500 
L 3513 3500 
z
" id="DejaVuSans-78" transform="scale(0.015625)"/>
      <path d="M 603 4863 
L 1178 4863 
L 1178 0 
L 603 0 
L 603 4863 
z
" id="DejaVuSans-6c" transform="scale(0.015625)"/>
     </defs>
     <use xlink:href="#DejaVuSans-45"/>
     <use x="63.183594" xlink:href="#DejaVuSans-78"/>
     <use x="122.363281" xlink:href="#DejaVuSans-61"/>
     <use x="183.642578" xlink:href="#DejaVuSans-6d"/>
     <use x="281.054688" xlink:href="#DejaVuSans-70"/>
     <use x="344.53125" xlink:href="#DejaVuSans-6c"/>
     <use x="372.314453" xlink:href="#DejaVuSans-65"/>
    </g>
   </g>
  </g>
  <g id="axes_5">
   <g id="matplotlib.axis_9"/>
   <g id="matplotlib.axis_10"/>
   <g id="patch_10">
    <path d="M 135.522645 200.784613 
C 131.238033 193.363447 124.954112 187.29267 117.38957 183.266592 
C 109.825028 179.240515 101.279678 177.418706 92.730846 178.009525 
C 84.182013 178.600344 75.968524 181.580374 69.029748 186.608792 
C 62.090971 191.63721 56.70192 198.514718 53.478937 206.454742 
C 50.255953 214.394766 49.326777 223.082609 50.797676 231.52465 
C 52.268576 239.966691 56.081255 247.828337 61.799659 254.210457 
C 67.518062 260.592577 74.915548 265.242223 83.14607 267.627616 
C 91.376593 270.01301 100.113943 270.039609 108.358836 267.704371 
L 95.886395 223.668613 
L 135.522645 200.784613 
z
" style="fill:#1f77b4;stroke:#ffffff;stroke-linejoin:miter;"/>
   </g>
   <g id="patch_11">
    <path d="M 112.599582 269.425758 
C 119.301025 267.527679 125.481601 264.124651 130.668983 259.476737 
C 135.856365 254.828824 139.914957 249.057519 142.534597 242.603875 
C 145.154236 236.15023 146.266445 229.182942 145.786229 222.234458 
C 145.306013 215.285974 143.245923 208.537925 139.763395 202.506007 
L 100.12714 225.39 
L 112.599582 269.425758 
z
" style="fill:#ff7f0e;stroke:#ffffff;stroke-linejoin:miter;"/>
   </g>
   <g id="text_21">
    <!-- Yes -->
    <g style="fill:#262626;" transform="translate(33.092879 207.49273)scale(0.1 -0.1)">
     <use xlink:href="#DejaVuSans-59"/>
     <use x="47.833984" xlink:href="#DejaVuSans-65"/>
     <use x="109.357422" xlink:href="#DejaVuSans-73"/>
    </g>
   </g>
   <g id="text_22">
    <!-- 71% -->
    <g style="fill:#262626;" transform="translate(59.328639 216.099665)scale(0.1 -0.1)">
     <use xlink:href="#DejaVuSans-37"/>
     <use x="63.623047" xlink:href="#DejaVuSans-31"/>
     <use x="127.246094" xlink:href="#DejaVuSans-25"/>
    </g>
   </g>
   <g id="text_23">
    <!-- No -->
    <g style="fill:#262626;" transform="translate(146.775342 247.084637)scale(0.1 -0.1)">
     <use xlink:href="#DejaVuSans-4e"/>
     <use x="74.804688" xlink:href="#DejaVuSans-6f"/>
    </g>
   </g>
   <g id="text_24">
    <!-- 29% -->
    <g style="fill:#262626;" transform="translate(114.458333 238.4777)scale(0.1 -0.1)">
     <defs>
      <path d="M 703 97 
L 703 672 
Q 941 559 1184 500 
Q 1428 441 1663 441 
Q 2288 441 2617 861 
Q 2947 1281 2994 2138 
Q 2813 1869 2534 1725 
Q 2256 1581 1919 1581 
Q 1219 1581 811 2004 
Q 403 2428 403 3163 
Q 403 3881 828 4315 
Q 1253 4750 1959 4750 
Q 2769 4750 3195 4129 
Q 3622 3509 3622 2328 
Q 3622 1225 3098 567 
Q 2575 -91 1691 -91 
Q 1453 -91 1209 -44 
Q 966 3 703 97 
z
M 1959 2075 
Q 2384 2075 2632 2365 
Q 2881 2656 2881 3163 
Q 2881 3666 2632 3958 
Q 2384 4250 1959 4250 
Q 1534 4250 1286 3958 
Q 1038 3666 1038 3163 
Q 1038 2656 1286 2365 
Q 1534 2075 1959 2075 
z
" id="DejaVuSans-39" transform="scale(0.015625)"/>
     </defs>
     <use xlink:href="#DejaVuSans-32"/>
     <use x="63.623047" xlink:href="#DejaVuSans-39"/>
     <use x="127.246094" xlink:href="#DejaVuSans-25"/>
    </g>
   </g>
   <g id="text_25">
    <!-- Pattern -->
    <g style="fill:#262626;" transform="translate(78.54214 162.18)scale(0.12 -0.12)">
     <defs>
      <path d="M 1259 4147 
L 1259 2394 
L 2053 2394 
Q 2494 2394 2734 2622 
Q 2975 2850 2975 3272 
Q 2975 3691 2734 3919 
Q 2494 4147 2053 4147 
L 1259 4147 
z
M 628 4666 
L 2053 4666 
Q 2838 4666 3239 4311 
Q 3641 3956 3641 3272 
Q 3641 2581 3239 2228 
Q 2838 1875 2053 1875 
L 1259 1875 
L 1259 0 
L 628 0 
L 628 4666 
z
" id="DejaVuSans-50" transform="scale(0.015625)"/>
     </defs>
     <use xlink:href="#DejaVuSans-50"/>
     <use x="55.802734" xlink:href="#DejaVuSans-61"/>
     <use x="117.082031" xlink:href="#DejaVuSans-74"/>
     <use x="156.291016" xlink:href="#DejaVuSans-74"/>
     <use x="195.5" xlink:href="#DejaVuSans-65"/>
     <use x="257.023438" xlink:href="#DejaVuSans-72"/>
     <use x="296.386719" xlink:href="#DejaVuSans-6e"/>
    </g>
   </g>
  </g>
  <g id="axes_6">
   <g id="matplotlib.axis_11"/>
   <g id="matplotlib.axis_12"/>
   <g id="patch_12">
    <path d="M 324.700064 203.239701 
C 322.043646 198.638651 318.606255 194.535085 314.542168 191.113182 
C 310.478082 187.69128 305.849028 185.003014 300.862771 183.169041 
C 295.876514 181.335069 290.608787 180.383245 285.296021 180.35629 
C 279.983254 180.329335 274.70614 181.227658 269.701531 183.01094 
C 264.696921 184.794223 260.040827 187.435379 255.942228 190.815867 
C 251.843629 194.196355 248.364775 198.26483 245.661808 202.838688 
C 242.95884 207.412547 241.072812 212.422319 240.088374 217.643151 
C 239.103936 222.863984 239.03604 228.216582 239.887733 233.460706 
C 240.739427 238.704829 242.497773 243.760829 245.083854 248.401777 
C 247.669935 253.042725 251.044471 257.198134 255.056005 260.681496 
C 259.067538 264.164859 263.65514 266.923269 268.612906 268.832921 
C 273.570672 270.742573 278.823302 271.774462 284.135042 271.882276 
C 289.446783 271.990089 294.736958 271.172189 299.76813 269.465284 
C 304.799302 267.75838 309.495056 265.188396 313.644632 261.870681 
C 317.794208 258.552967 321.334582 254.537911 324.106851 250.005723 
C 326.879121 245.473534 328.84118 240.493048 329.904967 235.287803 
L 285.063813 226.123701 
L 324.700064 203.239701 
z
" style="fill:#1f77b4;stroke:#ffffff;stroke-linejoin:miter;"/>
   </g>
   <g id="patch_13">
    <path d="M 334.422575 234.554103 
C 335.53322 229.119567 335.646711 223.528118 334.7575 218.052991 
C 333.86829 212.577865 331.991102 207.30972 329.217669 202.505994 
L 289.581421 225.39 
L 334.422575 234.554103 
z
" style="fill:#ff7f0e;stroke:#ffffff;stroke-linejoin:miter;"/>
   </g>
   <g id="text_26">
    <!-- Yes -->
    <g style="fill:#262626;" transform="translate(219.224813 236.953781)scale(0.1 -0.1)">
     <use xlink:href="#DejaVuSans-59"/>
     <use x="47.833984" xlink:href="#DejaVuSans-65"/>
     <use x="109.357422" xlink:href="#DejaVuSans-73"/>
    </g>
   </g>
   <g id="text_27">
    <!-- 88% -->
    <g style="fill:#262626;" transform="translate(246.844884 233.285279)scale(0.1 -0.1)">
     <use xlink:href="#DejaVuSans-38"/>
     <use x="63.623047" xlink:href="#DejaVuSans-38"/>
     <use x="127.246094" xlink:href="#DejaVuSans-25"/>
    </g>
   </g>
   <g id="text_28">
    <!-- No -->
    <g style="fill:#262626;" transform="translate(339.275108 220.078666)scale(0.1 -0.1)">
     <use xlink:href="#DejaVuSans-4e"/>
     <use x="74.804688" xlink:href="#DejaVuSans-6f"/>
    </g>
   </g>
   <g id="text_29">
    <!-- 12% -->
    <g style="fill:#262626;" transform="translate(305.573787 223.74717)scale(0.1 -0.1)">
     <use xlink:href="#DejaVuSans-31"/>
     <use x="63.623047" xlink:href="#DejaVuSans-32"/>
     <use x="127.246094" xlink:href="#DejaVuSans-25"/>
    </g>
   </g>
   <g id="text_30">
    <!-- Provider -->
    <g style="fill:#262626;" transform="translate(264.880171 162.18)scale(0.12 -0.12)">
     <defs>
      <path d="M 191 3500 
L 800 3500 
L 1894 563 
L 2988 3500 
L 3597 3500 
L 2284 0 
L 1503 0 
L 191 3500 
z
" id="DejaVuSans-76" transform="scale(0.015625)"/>
      <path d="M 2906 2969 
L 2906 4863 
L 3481 4863 
L 3481 0 
L 2906 0 
L 2906 525 
Q 2725 213 2448 61 
Q 2172 -91 1784 -91 
Q 1150 -91 751 415 
Q 353 922 353 1747 
Q 353 2572 751 3078 
Q 1150 3584 1784 3584 
Q 2172 3584 2448 3432 
Q 2725 3281 2906 2969 
z
M 947 1747 
Q 947 1113 1208 752 
Q 1469 391 1925 391 
Q 2381 391 2643 752 
Q 2906 1113 2906 1747 
Q 2906 2381 2643 2742 
Q 2381 3103 1925 3103 
Q 1469 3103 1208 2742 
Q 947 2381 947 1747 
z
" id="DejaVuSans-64" transform="scale(0.015625)"/>
     </defs>
     <use xlink:href="#DejaVuSans-50"/>
     <use x="58.552734" xlink:href="#DejaVuSans-72"/>
     <use x="97.416016" xlink:href="#DejaVuSans-6f"/>
     <use x="158.597656" xlink:href="#DejaVuSans-76"/>
     <use x="217.777344" xlink:href="#DejaVuSans-69"/>
     <use x="245.560547" xlink:href="#DejaVuSans-64"/>
     <use x="309.037109" xlink:href="#DejaVuSans-65"/>
     <use x="370.560547" xlink:href="#DejaVuSans-72"/>
    </g>
   </g>
  </g>
  <g id="axes_7">
   <g id="matplotlib.axis_13"/>
   <g id="matplotlib.axis_14"/>
   <g id="patch_14">
    <path d="M 520.835923 198.473094 
C 516.577606 191.097472 510.343923 185.054814 502.839381 181.028037 
C 495.334839 177.001261 486.853216 175.148 478.353069 175.677704 
L 481.199673 221.357094 
L 520.835923 198.473094 
z
" style="fill:#1f77b4;stroke:#ffffff;stroke-linejoin:miter;"/>
   </g>
   <g id="patch_15">
    <path d="M 476.189098 179.71061 
C 471.254777 180.018102 466.402718 181.123086 461.821833 182.982541 
C 457.240948 184.841996 452.991469 187.431472 449.238845 190.650151 
C 445.486221 193.868829 442.279793 197.674389 439.744402 201.918664 
C 437.209011 206.162939 435.377993 210.790124 434.322637 215.620062 
C 433.267281 220.45 433.001464 225.419185 433.535534 230.334147 
C 434.069605 235.249109 435.396541 240.045222 437.464679 244.535754 
C 439.532818 249.026287 442.314966 253.152195 445.702803 256.752839 
C 449.09064 260.353483 453.039621 263.381521 457.395995 265.719058 
C 461.75237 268.056595 466.458858 269.672896 471.332217 270.505032 
C 476.205576 271.337169 481.181728 271.374198 486.066932 270.614679 
C 490.952135 269.855161 495.682156 268.309081 500.072835 266.036634 
C 504.463515 263.764187 508.457121 260.795254 511.898168 257.245426 
C 515.339214 253.695598 518.182456 249.611551 520.317194 245.152294 
C 522.451931 240.693037 523.850096 235.917202 524.457252 231.010733 
C 525.064407 226.104263 524.872571 221.131672 523.889211 216.286563 
C 522.905851 211.441454 521.143897 206.787533 518.67195 202.505996 
L 479.035702 225.39 
L 476.189098 179.71061 
z
" style="fill:#ff7f0e;stroke:#ffffff;stroke-linejoin:miter;"/>
   </g>
   <g id="text_31">
    <!-- Yes -->
    <g style="fill:#262626;" transform="translate(505.003352 179.754507)scale(0.1 -0.1)">
     <use xlink:href="#DejaVuSans-59"/>
     <use x="47.833984" xlink:href="#DejaVuSans-65"/>
     <use x="109.357422" xlink:href="#DejaVuSans-73"/>
    </g>
   </g>
   <g id="text_32">
    <!-- 18% -->
    <g style="fill:#262626;" transform="translate(483.070216 199.919035)scale(0.1 -0.1)">
     <use xlink:href="#DejaVuSans-31"/>
     <use x="63.623047" xlink:href="#DejaVuSans-38"/>
     <use x="127.246094" xlink:href="#DejaVuSans-25"/>
    </g>
   </g>
   <g id="text_33">
    <!-- No -->
    <g style="fill:#262626;" transform="translate(441.632025 272.511339)scale(0.1 -0.1)">
     <use xlink:href="#DejaVuSans-4e"/>
     <use x="74.804688" xlink:href="#DejaVuSans-6f"/>
    </g>
   </g>
   <g id="text_34">
    <!-- 82% -->
    <g style="fill:#262626;" transform="translate(454.938597 252.34681)scale(0.1 -0.1)">
     <use xlink:href="#DejaVuSans-38"/>
     <use x="63.623047" xlink:href="#DejaVuSans-32"/>
     <use x="127.246094" xlink:href="#DejaVuSans-25"/>
    </g>
   </g>
   <g id="text_35">
    <!-- License -->
    <g style="fill:#262626;" transform="translate(456.414764 162.18)scale(0.12 -0.12)">
     <defs>
      <path d="M 628 4666 
L 1259 4666 
L 1259 531 
L 3531 531 
L 3531 0 
L 628 0 
L 628 4666 
z
" id="DejaVuSans-4c" transform="scale(0.015625)"/>
     </defs>
     <use xlink:href="#DejaVuSans-4c"/>
     <use x="55.712891" xlink:href="#DejaVuSans-69"/>
     <use x="83.496094" xlink:href="#DejaVuSans-63"/>
     <use x="138.476562" xlink:href="#DejaVuSans-65"/>
     <use x="200" xlink:href="#DejaVuSans-6e"/>
     <use x="263.378906" xlink:href="#DejaVuSans-73"/>
     <use x="315.478516" xlink:href="#DejaVuSans-65"/>
    </g>
   </g>
  </g>
  <g id="axes_8">
   <g id="matplotlib.axis_15"/>
   <g id="matplotlib.axis_16"/>
   <g id="patch_16">
    <path d="M 708.126233 202.506 
C 702.39228 192.574501 693.129899 185.151993 682.187636 181.719826 
C 671.245373 178.287659 659.403039 179.09043 649.024073 183.967926 
C 638.645108 188.845422 630.469179 197.450043 626.128001 208.064517 
C 621.786823 218.678992 621.589775 230.546868 625.576183 241.299609 
L 668.489983 225.39 
L 708.126233 202.506 
z
" style="fill:#1f77b4;stroke:#ffffff;stroke-linejoin:miter;"/>
   </g>
   <g id="patch_17">
    <path d="M 625.576183 241.299609 
C 629.436693 251.712758 636.958432 260.372972 646.728469 265.653462 
C 656.498506 270.933951 667.86422 272.481989 678.690601 270.006782 
L 668.489983 225.39 
L 625.576183 241.299609 
z
" style="fill:#ff7f0e;stroke:#ffffff;stroke-linejoin:miter;"/>
   </g>
   <g id="patch_18">
    <path d="M 678.690601 270.006782 
C 687.644895 267.959585 695.778868 263.263433 702.02894 256.532386 
C 708.279011 249.801338 712.360353 241.342142 713.739298 232.260902 
L 668.489983 225.39 
L 678.690601 270.006782 
z
" style="fill:#2ca02c;stroke:#ffffff;stroke-linejoin:miter;"/>
   </g>
   <g id="patch_19">
    <path d="M 713.739298 232.260902 
C 714.160776 229.485195 714.325959 226.676584 714.232755 223.870607 
C 714.139552 221.06463 713.788357 218.273171 713.183615 215.531551 
L 668.489983 225.39 
L 713.739298 232.260902 
z
" style="fill:#d62728;stroke:#ffffff;stroke-linejoin:miter;"/>
   </g>
   <g id="patch_20">
    <path d="M 713.183615 215.531551 
C 712.679772 213.247358 712.001559 211.005148 711.15494 208.824637 
C 710.308321 206.644125 709.295784 204.531722 708.126234 202.506001 
L 668.489983 225.39 
L 713.183615 215.531551 
z
" style="fill:#9467bd;stroke:#ffffff;stroke-linejoin:miter;"/>
   </g>
   <g id="text_36">
    <!-- CC-BY -->
    <g style="fill:#262626;" transform="translate(617.447795 182.585094)scale(0.1 -0.1)">
     <defs>
      <path d="M 4122 4306 
L 4122 3641 
Q 3803 3938 3442 4084 
Q 3081 4231 2675 4231 
Q 1875 4231 1450 3742 
Q 1025 3253 1025 2328 
Q 1025 1406 1450 917 
Q 1875 428 2675 428 
Q 3081 428 3442 575 
Q 3803 722 4122 1019 
L 4122 359 
Q 3791 134 3420 21 
Q 3050 -91 2638 -91 
Q 1578 -91 968 557 
Q 359 1206 359 2328 
Q 359 3453 968 4101 
Q 1578 4750 2638 4750 
Q 3056 4750 3426 4639 
Q 3797 4528 4122 4306 
z
" id="DejaVuSans-43" transform="scale(0.015625)"/>
      <path d="M 313 2009 
L 1997 2009 
L 1997 1497 
L 313 1497 
L 313 2009 
z
" id="DejaVuSans-2d" transform="scale(0.015625)"/>
      <path d="M 1259 2228 
L 1259 519 
L 2272 519 
Q 2781 519 3026 730 
Q 3272 941 3272 1375 
Q 3272 1813 3026 2020 
Q 2781 2228 2272 2228 
L 1259 2228 
z
M 1259 4147 
L 1259 2741 
L 2194 2741 
Q 2656 2741 2882 2914 
Q 3109 3088 3109 3444 
Q 3109 3797 2882 3972 
Q 2656 4147 2194 4147 
L 1259 4147 
z
M 628 4666 
L 2241 4666 
Q 2963 4666 3353 4366 
Q 3744 4066 3744 3513 
Q 3744 3084 3544 2831 
Q 3344 2578 2956 2516 
Q 3422 2416 3680 2098 
Q 3938 1781 3938 1306 
Q 3938 681 3513 340 
Q 3088 0 2303 0 
L 628 0 
L 628 4666 
z
" id="DejaVuSans-42" transform="scale(0.015625)"/>
     </defs>
     <use xlink:href="#DejaVuSans-43"/>
     <use x="69.824219" xlink:href="#DejaVuSans-43"/>
     <use x="139.648438" xlink:href="#DejaVuSans-2d"/>
     <use x="172.107422" xlink:href="#DejaVuSans-42"/>
     <use x="235.210938" xlink:href="#DejaVuSans-59"/>
    </g>
   </g>
   <g id="text_37">
    <!-- 47% -->
    <g style="fill:#262626;" transform="translate(645.697156 203.296131)scale(0.1 -0.1)">
     <use xlink:href="#DejaVuSans-34"/>
     <use x="63.623047" xlink:href="#DejaVuSans-37"/>
     <use x="127.246094" xlink:href="#DejaVuSans-25"/>
    </g>
   </g>
   <g id="text_38">
    <!-- CC-BY-4.0 -->
    <g style="fill:#262626;" transform="translate(596.599192 272.439183)scale(0.1 -0.1)">
     <defs>
      <path d="M 684 794 
L 1344 794 
L 1344 0 
L 684 0 
L 684 794 
z
" id="DejaVuSans-2e" transform="scale(0.015625)"/>
     </defs>
     <use xlink:href="#DejaVuSans-43"/>
     <use x="69.824219" xlink:href="#DejaVuSans-43"/>
     <use x="139.648438" xlink:href="#DejaVuSans-2d"/>
     <use x="172.107422" xlink:href="#DejaVuSans-42"/>
     <use x="235.210938" xlink:href="#DejaVuSans-59"/>
     <use x="284.419922" xlink:href="#DejaVuSans-2d"/>
     <use x="320.503906" xlink:href="#DejaVuSans-34"/>
     <use x="384.126953" xlink:href="#DejaVuSans-2e"/>
     <use x="415.914062" xlink:href="#DejaVuSans-30"/>
    </g>
   </g>
   <g id="text_39">
    <!-- 23% -->
    <g style="fill:#262626;" transform="translate(644.319793 252.307452)scale(0.1 -0.1)">
     <use xlink:href="#DejaVuSans-32"/>
     <use x="63.623047" xlink:href="#DejaVuSans-33"/>
     <use x="127.246094" xlink:href="#DejaVuSans-25"/>
    </g>
   </g>
   <g id="text_40">
    <!-- CC-0 -->
    <g style="fill:#262626;" transform="translate(705.382835 262.405999)scale(0.1 -0.1)">
     <use xlink:href="#DejaVuSans-43"/>
     <use x="69.824219" xlink:href="#DejaVuSans-43"/>
     <use x="139.648438" xlink:href="#DejaVuSans-2d"/>
     <use x="175.732422" xlink:href="#DejaVuSans-30"/>
    </g>
   </g>
   <g id="text_41">
    <!-- 19% -->
    <g style="fill:#262626;" transform="translate(677.500075 246.834806)scale(0.1 -0.1)">
     <use xlink:href="#DejaVuSans-31"/>
     <use x="63.623047" xlink:href="#DejaVuSans-39"/>
     <use x="127.246094" xlink:href="#DejaVuSans-25"/>
    </g>
   </g>
   <g id="text_42">
    <!-- CC-BY-3.0 -->
    <g style="fill:#262626;" transform="translate(718.807033 226.478043)scale(0.1 -0.1)">
     <use xlink:href="#DejaVuSans-43"/>
     <use x="69.824219" xlink:href="#DejaVuSans-43"/>
     <use x="139.648438" xlink:href="#DejaVuSans-2d"/>
     <use x="172.107422" xlink:href="#DejaVuSans-42"/>
     <use x="235.210938" xlink:href="#DejaVuSans-59"/>
     <use x="284.419922" xlink:href="#DejaVuSans-2d"/>
     <use x="320.503906" xlink:href="#DejaVuSans-33"/>
     <use x="384.126953" xlink:href="#DejaVuSans-2e"/>
     <use x="415.914062" xlink:href="#DejaVuSans-30"/>
    </g>
   </g>
   <g id="text_43">
    <!-- 6% -->
    <g style="fill:#262626;" transform="translate(688.003615 227.237739)scale(0.1 -0.1)">
     <use xlink:href="#DejaVuSans-36"/>
     <use x="63.623047" xlink:href="#DejaVuSans-25"/>
    </g>
   </g>
   <g id="text_44">
    <!-- Other -->
    <g style="fill:#262626;" transform="translate(715.421435 209.927476)scale(0.1 -0.1)">
     <defs>
      <path d="M 2522 4238 
Q 1834 4238 1429 3725 
Q 1025 3213 1025 2328 
Q 1025 1447 1429 934 
Q 1834 422 2522 422 
Q 3209 422 3611 934 
Q 4013 1447 4013 2328 
Q 4013 3213 3611 3725 
Q 3209 4238 2522 4238 
z
M 2522 4750 
Q 3503 4750 4090 4092 
Q 4678 3434 4678 2328 
Q 4678 1225 4090 567 
Q 3503 -91 2522 -91 
Q 1538 -91 948 565 
Q 359 1222 359 2328 
Q 359 3434 948 4092 
Q 1538 4750 2522 4750 
z
" id="DejaVuSans-4f" transform="scale(0.015625)"/>
      <path d="M 3513 2113 
L 3513 0 
L 2938 0 
L 2938 2094 
Q 2938 2591 2744 2837 
Q 2550 3084 2163 3084 
Q 1697 3084 1428 2787 
Q 1159 2491 1159 1978 
L 1159 0 
L 581 0 
L 581 4863 
L 1159 4863 
L 1159 2956 
Q 1366 3272 1645 3428 
Q 1925 3584 2291 3584 
Q 2894 3584 3203 3211 
Q 3513 2838 3513 2113 
z
" id="DejaVuSans-68" transform="scale(0.015625)"/>
     </defs>
     <use xlink:href="#DejaVuSans-4f"/>
     <use x="78.710938" xlink:href="#DejaVuSans-74"/>
     <use x="117.919922" xlink:href="#DejaVuSans-68"/>
     <use x="181.298828" xlink:href="#DejaVuSans-65"/>
     <use x="242.822266" xlink:href="#DejaVuSans-72"/>
    </g>
   </g>
   <g id="text_45">
    <!-- 5% -->
    <g style="fill:#262626;" transform="translate(686.156926 218.210157)scale(0.1 -0.1)">
     <defs>
      <path d="M 691 4666 
L 3169 4666 
L 3169 4134 
L 1269 4134 
L 1269 2991 
Q 1406 3038 1543 3061 
Q 1681 3084 1819 3084 
Q 2600 3084 3056 2656 
Q 3513 2228 3513 1497 
Q 3513 744 3044 326 
Q 2575 -91 1722 -91 
Q 1428 -91 1123 -41 
Q 819 9 494 109 
L 494 744 
Q 775 591 1075 516 
Q 1375 441 1709 441 
Q 2250 441 2565 725 
Q 2881 1009 2881 1497 
Q 2881 1984 2565 2268 
Q 2250 2553 1709 2553 
Q 1456 2553 1204 2497 
Q 953 2441 691 2322 
L 691 4666 
z
" id="DejaVuSans-35" transform="scale(0.015625)"/>
     </defs>
     <use xlink:href="#DejaVuSans-35"/>
     <use x="63.623047" xlink:href="#DejaVuSans-25"/>
    </g>
   </g>
   <g id="text_46">
    <!-- License Type -->
    <g style="fill:#262626;" transform="translate(630.182795 162.18)scale(0.12 -0.12)">
     <defs>
      <path id="DejaVuSans-20" transform="scale(0.015625)"/>
      <path d="M -19 4666 
L 3928 4666 
L 3928 4134 
L 2272 4134 
L 2272 0 
L 1638 0 
L 1638 4134 
L -19 4134 
L -19 4666 
z
" id="DejaVuSans-54" transform="scale(0.015625)"/>
      <path d="M 2059 -325 
Q 1816 -950 1584 -1140 
Q 1353 -1331 966 -1331 
L 506 -1331 
L 506 -850 
L 844 -850 
Q 1081 -850 1212 -737 
Q 1344 -625 1503 -206 
L 1606 56 
L 191 3500 
L 800 3500 
L 1894 763 
L 2988 3500 
L 3597 3500 
L 2059 -325 
z
" id="DejaVuSans-79" transform="scale(0.015625)"/>
     </defs>
     <use xlink:href="#DejaVuSans-4c"/>
     <use x="55.712891" xlink:href="#DejaVuSans-69"/>
     <use x="83.496094" xlink:href="#DejaVuSans-63"/>
     <use x="138.476562" xlink:href="#DejaVuSans-65"/>
     <use x="200" xlink:href="#DejaVuSans-6e"/>
     <use x="263.378906" xlink:href="#DejaVuSans-73"/>
     <use x="315.478516" xlink:href="#DejaVuSans-65"/>
     <use x="377.001953" xlink:href="#DejaVuSans-20"/>
     <use x="408.789062" xlink:href="#DejaVuSans-54"/>
     <use x="454.248047" xlink:href="#DejaVuSans-79"/>
     <use x="513.427734" xlink:href="#DejaVuSans-70"/>
     <use x="576.904297" xlink:href="#DejaVuSans-65"/>
    </g>
   </g>
  </g>
  <g id="axes_9">
   <g id="matplotlib.axis_17"/>
   <g id="matplotlib.axis_18"/>
   <g id="patch_21">
    <path d="M 141.409927 339.535635 
C 136.179807 330.476801 127.99892 323.479128 118.239034 319.715984 
C 108.479148 315.952839 97.71807 315.647009 87.760213 318.849775 
L 101.773676 362.419635 
L 141.409927 339.535635 
z
" style="fill:#1f77b4;stroke:#ffffff;stroke-linejoin:miter;"/>
   </g>
   <g id="patch_22">
    <path d="M 86.113677 323.12014 
C 81.6346 324.560755 77.404337 326.683481 73.57222 329.413385 
C 69.740102 332.143289 66.351759 335.447865 63.526803 339.21046 
C 60.701846 342.973055 58.473912 347.148867 56.921649 351.590486 
C 55.369386 356.032104 54.511276 360.686644 54.377613 365.389796 
C 54.243949 370.092947 54.836322 374.78871 56.133821 379.311319 
C 57.43132 383.833928 59.418496 388.129534 62.025199 392.046497 
C 64.631903 395.963459 67.827095 399.45514 71.497985 402.39828 
C 75.168874 405.34142 79.27175 407.700974 83.661779 409.39365 
C 88.051807 411.086325 92.676716 412.091966 97.373241 412.375073 
C 102.069766 412.65818 106.781987 412.215381 111.343557 411.062309 
C 115.905127 409.909237 120.261733 408.059621 124.259582 405.578753 
C 128.257431 403.097885 131.84892 400.015306 134.907268 396.439833 
C 137.965616 392.86436 140.454406 388.838566 142.285782 384.504565 
C 144.117159 380.170565 145.269315 375.579963 145.701578 370.894811 
C 146.133842 366.209659 145.841066 361.485744 144.833587 356.889823 
C 143.826107 352.293903 142.11592 347.880701 139.763395 343.806007 
L 100.12714 366.69 
L 86.113677 323.12014 
z
" style="fill:#ff7f0e;stroke:#ffffff;stroke-linejoin:miter;"/>
   </g>
   <g id="text_47">
    <!-- Yes -->
    <g style="fill:#262626;" transform="translate(119.88557 318.204994)scale(0.1 -0.1)">
     <use xlink:href="#DejaVuSans-59"/>
     <use x="47.833984" xlink:href="#DejaVuSans-65"/>
     <use x="109.357422" xlink:href="#DejaVuSans-73"/>
    </g>
   </g>
   <g id="text_48">
    <!-- 22% -->
    <g style="fill:#262626;" transform="translate(100.53961 339.556819)scale(0.1 -0.1)">
     <use xlink:href="#DejaVuSans-32"/>
     <use x="63.623047" xlink:href="#DejaVuSans-32"/>
     <use x="127.246094" xlink:href="#DejaVuSans-25"/>
    </g>
   </g>
   <g id="text_49">
    <!-- No -->
    <g style="fill:#262626;" transform="translate(68.415242 416.42339)scale(0.1 -0.1)">
     <use xlink:href="#DejaVuSans-4e"/>
     <use x="74.804688" xlink:href="#DejaVuSans-6f"/>
    </g>
   </g>
   <g id="text_50">
    <!-- 78% -->
    <g style="fill:#262626;" transform="translate(79.134642 395.071565)scale(0.1 -0.1)">
     <use xlink:href="#DejaVuSans-37"/>
     <use x="63.623047" xlink:href="#DejaVuSans-38"/>
     <use x="127.246094" xlink:href="#DejaVuSans-25"/>
    </g>
   </g>
   <g id="text_51">
    <!-- Version -->
    <g style="fill:#262626;" transform="translate(78.063078 303.48)scale(0.12 -0.12)">
     <defs>
      <path d="M 1831 0 
L 50 4666 
L 709 4666 
L 2188 738 
L 3669 4666 
L 4325 4666 
L 2547 0 
L 1831 0 
z
" id="DejaVuSans-56" transform="scale(0.015625)"/>
     </defs>
     <use xlink:href="#DejaVuSans-56"/>
     <use x="60.658203" xlink:href="#DejaVuSans-65"/>
     <use x="122.181641" xlink:href="#DejaVuSans-72"/>
     <use x="163.294922" xlink:href="#DejaVuSans-73"/>
     <use x="215.394531" xlink:href="#DejaVuSans-69"/>
     <use x="243.177734" xlink:href="#DejaVuSans-6f"/>
     <use x="304.359375" xlink:href="#DejaVuSans-6e"/>
    </g>
   </g>
  </g>
  <g id="axes_10">
   <g id="matplotlib.axis_19"/>
   <g id="matplotlib.axis_20"/>
   <g id="patch_23">
    <path d="M 330.441067 339.395739 
C 324.443758 329.008095 314.596929 321.383333 303.038766 318.177128 
C 291.480604 314.970924 279.112984 316.433455 268.621467 322.247142 
L 290.804816 362.279739 
L 330.441067 339.395739 
z
" style="fill:#1f77b4;stroke:#ffffff;stroke-linejoin:miter;"/>
   </g>
   <g id="patch_24">
    <path d="M 267.398072 326.657403 
C 263.446043 328.847349 259.839997 331.610491 256.697416 334.856809 
C 253.554835 338.103127 250.910221 341.796979 248.849734 345.818022 
C 246.789246 349.839065 245.335508 354.143153 244.53588 358.590061 
C 243.736251 363.036968 243.599513 367.577874 244.130118 372.064839 
C 244.660724 376.551804 245.852848 380.935566 247.667653 385.073304 
C 249.482458 389.211042 251.900018 393.05733 254.841572 396.486857 
C 257.783125 399.916384 261.216377 402.891499 265.029475 405.315274 
C 268.842572 407.739048 272.993651 409.584873 277.347473 410.792611 
C 281.701294 412.00035 286.210058 412.556743 290.726872 412.443664 
C 295.243686 412.330585 299.71896 411.549275 304.006894 410.125188 
C 308.294827 408.701101 312.348343 406.649874 316.03538 404.038332 
C 319.722418 401.42679 323.002497 398.283606 325.768755 394.711182 
C 328.535014 391.138759 330.757081 387.176318 332.362564 382.952952 
C 333.968047 378.729586 334.939319 374.291663 335.244737 369.783768 
C 335.550155 365.275874 335.186365 360.747498 334.16522 356.346174 
C 333.144074 351.944849 331.476785 347.718897 329.21767 343.805996 
L 289.581421 366.69 
L 267.398072 326.657403 
z
" style="fill:#ff7f0e;stroke:#ffffff;stroke-linejoin:miter;"/>
   </g>
   <g id="text_52">
    <!-- Yes -->
    <g style="fill:#262626;" transform="translate(304.262162 316.526242)scale(0.1 -0.1)">
     <use xlink:href="#DejaVuSans-59"/>
     <use x="47.833984" xlink:href="#DejaVuSans-65"/>
     <use x="109.357422" xlink:href="#DejaVuSans-73"/>
    </g>
   </g>
   <g id="text_53">
    <!-- 25% -->
    <g style="fill:#262626;" transform="translate(287.031905 338.577547)scale(0.1 -0.1)">
     <use xlink:href="#DejaVuSans-32"/>
     <use x="63.623047" xlink:href="#DejaVuSans-35"/>
     <use x="127.246094" xlink:href="#DejaVuSans-25"/>
    </g>
   </g>
   <g id="text_54">
    <!-- No -->
    <g style="fill:#262626;" transform="translate(262.524078 417.962248)scale(0.1 -0.1)">
     <use xlink:href="#DejaVuSans-4e"/>
     <use x="74.804688" xlink:href="#DejaVuSans-6f"/>
    </g>
   </g>
   <g id="text_55">
    <!-- 75% -->
    <g style="fill:#262626;" transform="translate(271.127771 395.910942)scale(0.1 -0.1)">
     <use xlink:href="#DejaVuSans-37"/>
     <use x="63.623047" xlink:href="#DejaVuSans-35"/>
     <use x="127.246094" xlink:href="#DejaVuSans-25"/>
    </g>
   </g>
   <g id="text_56">
    <!-- Contact Email -->
    <g style="fill:#262626;" transform="translate(247.684546 303.48)scale(0.12 -0.12)">
     <use xlink:href="#DejaVuSans-43"/>
     <use x="69.824219" xlink:href="#DejaVuSans-6f"/>
     <use x="131.005859" xlink:href="#DejaVuSans-6e"/>
     <use x="194.384766" xlink:href="#DejaVuSans-74"/>
     <use x="233.59375" xlink:href="#DejaVuSans-61"/>
     <use x="294.873047" xlink:href="#DejaVuSans-63"/>
     <use x="349.853516" xlink:href="#DejaVuSans-74"/>
     <use x="389.0625" xlink:href="#DejaVuSans-20"/>
     <use x="420.849609" xlink:href="#DejaVuSans-45"/>
     <use x="484.033203" xlink:href="#DejaVuSans-6d"/>
     <use x="581.445312" xlink:href="#DejaVuSans-61"/>
     <use x="642.724609" xlink:href="#DejaVuSans-69"/>
     <use x="670.507812" xlink:href="#DejaVuSans-6c"/>
    </g>
   </g>
  </g>
  <g id="axes_11">
   <g id="matplotlib.axis_21"/>
   <g id="matplotlib.axis_22"/>
   <g id="patch_25">
    <path d="M 522.189897 340.878345 
C 520.888734 338.624665 519.397726 336.48606 517.733088 334.48579 
C 516.068451 332.48552 514.236242 330.630864 512.25639 328.941994 
L 482.553646 363.762345 
L 522.189897 340.878345 
z
" style="fill:#1f77b4;stroke:#ffffff;stroke-linejoin:miter;"/>
   </g>
   <g id="patch_26">
    <path d="M 508.738446 331.869649 
C 504.415456 328.182016 499.443292 325.331482 494.076744 323.464118 
C 488.710197 321.596754 483.042526 320.745011 477.364163 320.952534 
C 471.685799 321.160058 466.095421 322.423242 460.879499 324.677357 
C 455.663577 326.931473 450.912753 330.137347 446.870475 334.1307 
C 442.828197 338.124053 439.564713 342.835489 437.247253 348.023577 
C 434.929793 353.211665 433.598631 358.786247 433.32198 364.461663 
C 433.045329 370.137078 433.827997 375.8147 435.629877 381.203588 
C 437.431757 386.592475 440.221537 391.59898 443.856257 395.966552 
C 447.490978 400.334124 451.907475 403.986864 456.879434 406.737592 
C 461.851393 409.48832 467.292409 411.289235 472.923668 412.048052 
C 478.554927 412.806868 484.278568 412.5104 489.801292 411.173839 
C 495.324016 409.837277 500.54985 407.483849 505.211003 404.234153 
C 509.872157 400.984456 513.887629 396.894965 517.051653 392.175237 
C 520.215677 387.455509 522.473269 382.187564 523.708741 376.641351 
C 524.944214 371.095137 525.136097 365.367036 524.274559 359.750575 
C 523.413021 354.134115 521.513033 348.726897 518.671956 343.806006 
L 479.035702 366.69 
L 508.738446 331.869649 
z
" style="fill:#ff7f0e;stroke:#ffffff;stroke-linejoin:miter;"/>
   </g>
   <g id="text_57">
    <!-- Yes -->
    <g style="fill:#262626;" transform="translate(521.251033 334.317509)scale(0.1 -0.1)">
     <use xlink:href="#DejaVuSans-59"/>
     <use x="47.833984" xlink:href="#DejaVuSans-65"/>
     <use x="109.357422" xlink:href="#DejaVuSans-73"/>
    </g>
   </g>
   <g id="text_58">
    <!-- 5% -->
    <g style="fill:#262626;" transform="translate(495.72928 348.955787)scale(0.1 -0.1)">
     <use xlink:href="#DejaVuSans-35"/>
     <use x="63.623047" xlink:href="#DejaVuSans-25"/>
    </g>
   </g>
   <g id="text_59">
    <!-- No -->
    <g style="fill:#262626;" transform="translate(426.738313 401.653582)scale(0.1 -0.1)">
     <use xlink:href="#DejaVuSans-4e"/>
     <use x="74.804688" xlink:href="#DejaVuSans-6f"/>
    </g>
   </g>
   <g id="text_60">
    <!-- 95% -->
    <g style="fill:#262626;" transform="translate(446.814754 387.015306)scale(0.1 -0.1)">
     <use xlink:href="#DejaVuSans-39"/>
     <use x="63.623047" xlink:href="#DejaVuSans-35"/>
     <use x="127.246094" xlink:href="#DejaVuSans-25"/>
    </g>
   </g>
   <g id="text_61">
    <!-- Wikidata Database -->
    <g style="fill:#262626;" transform="translate(422.378827 303.48)scale(0.12 -0.12)">
     <defs>
      <path d="M 213 4666 
L 850 4666 
L 1831 722 
L 2809 4666 
L 3519 4666 
L 4500 722 
L 5478 4666 
L 6119 4666 
L 4947 0 
L 4153 0 
L 3169 4050 
L 2175 0 
L 1381 0 
L 213 4666 
z
" id="DejaVuSans-57" transform="scale(0.015625)"/>
      <path d="M 581 4863 
L 1159 4863 
L 1159 1991 
L 2875 3500 
L 3609 3500 
L 1753 1863 
L 3688 0 
L 2938 0 
L 1159 1709 
L 1159 0 
L 581 0 
L 581 4863 
z
" id="DejaVuSans-6b" transform="scale(0.015625)"/>
      <path d="M 3116 1747 
Q 3116 2381 2855 2742 
Q 2594 3103 2138 3103 
Q 1681 3103 1420 2742 
Q 1159 2381 1159 1747 
Q 1159 1113 1420 752 
Q 1681 391 2138 391 
Q 2594 391 2855 752 
Q 3116 1113 3116 1747 
z
M 1159 2969 
Q 1341 3281 1617 3432 
Q 1894 3584 2278 3584 
Q 2916 3584 3314 3078 
Q 3713 2572 3713 1747 
Q 3713 922 3314 415 
Q 2916 -91 2278 -91 
Q 1894 -91 1617 61 
Q 1341 213 1159 525 
L 1159 0 
L 581 0 
L 581 4863 
L 1159 4863 
L 1159 2969 
z
" id="DejaVuSans-62" transform="scale(0.015625)"/>
     </defs>
     <use xlink:href="#DejaVuSans-57"/>
     <use x="96.626953" xlink:href="#DejaVuSans-69"/>
     <use x="124.410156" xlink:href="#DejaVuSans-6b"/>
     <use x="182.320312" xlink:href="#DejaVuSans-69"/>
     <use x="210.103516" xlink:href="#DejaVuSans-64"/>
     <use x="273.580078" xlink:href="#DejaVuSans-61"/>
     <use x="334.859375" xlink:href="#DejaVuSans-74"/>
     <use x="374.068359" xlink:href="#DejaVuSans-61"/>
     <use x="435.347656" xlink:href="#DejaVuSans-20"/>
     <use x="467.134766" xlink:href="#DejaVuSans-44"/>
     <use x="544.136719" xlink:href="#DejaVuSans-61"/>
     <use x="605.416016" xlink:href="#DejaVuSans-74"/>
     <use x="644.625" xlink:href="#DejaVuSans-61"/>
     <use x="705.904297" xlink:href="#DejaVuSans-62"/>
     <use x="769.380859" xlink:href="#DejaVuSans-61"/>
     <use x="830.660156" xlink:href="#DejaVuSans-73"/>
     <use x="882.759766" xlink:href="#DejaVuSans-65"/>
    </g>
   </g>
  </g>
  <g id="axes_12">
   <g id="matplotlib.axis_23"/>
   <g id="matplotlib.axis_24"/>
   <g id="patch_27">
    <path d="M 711.377808 340.585075 
C 709.414229 337.184055 707.021049 334.049865 704.257308 331.259825 
C 701.493568 328.469785 698.382184 326.04703 694.999913 324.051328 
L 671.741558 363.469075 
L 711.377808 340.585075 
z
" style="fill:#1f77b4;stroke:#ffffff;stroke-linejoin:miter;"/>
   </g>
   <g id="patch_28">
    <path d="M 691.748338 327.272253 
C 686.997976 324.469313 681.779814 322.54804 676.346024 321.601283 
C 670.912235 320.654525 665.351783 320.697784 659.933381 321.728968 
C 654.51498 322.760152 649.327341 324.762379 644.621164 327.638888 
C 639.914986 330.515398 635.767321 334.219095 632.378607 338.570996 
C 628.989894 342.922896 626.415614 347.851748 624.780171 353.119361 
C 623.144729 358.386974 622.474901 363.907104 622.803057 369.412985 
C 623.131213 374.918866 624.45198 380.320355 626.701531 385.356418 
C 628.951083 390.392481 632.092587 394.980667 635.974229 398.899248 
C 639.855872 402.817828 644.414099 406.002645 649.428632 408.299791 
C 654.443164 410.596937 659.831902 411.968802 665.334428 412.349088 
C 670.836954 412.729374 676.363181 412.111856 681.646046 410.526376 
C 686.928911 408.940895 691.881923 406.413411 696.265722 403.066065 
C 700.649521 399.71872 704.392334 395.606317 707.313286 390.927593 
C 710.234238 386.24887 712.285506 381.080427 713.36796 375.672034 
C 714.450415 370.263642 714.546333 364.703849 713.651081 359.261337 
C 712.755828 353.818824 710.884062 348.582701 708.126236 343.806006 
L 668.489983 366.69 
L 691.748338 327.272253 
z
" style="fill:#ff7f0e;stroke:#ffffff;stroke-linejoin:miter;"/>
   </g>
   <g id="text_62">
    <!-- Yes -->
    <g style="fill:#262626;" transform="translate(707.508884 330.798275)scale(0.1 -0.1)">
     <use xlink:href="#DejaVuSans-59"/>
     <use x="47.833984" xlink:href="#DejaVuSans-65"/>
     <use x="109.357422" xlink:href="#DejaVuSans-73"/>
    </g>
   </g>
   <g id="text_63">
    <!-- 8% -->
    <g style="fill:#262626;" transform="translate(683.318977 346.9029)scale(0.1 -0.1)">
     <use xlink:href="#DejaVuSans-38"/>
     <use x="63.623047" xlink:href="#DejaVuSans-25"/>
    </g>
   </g>
   <g id="text_64">
    <!-- No -->
    <g style="fill:#262626;" transform="translate(619.122654 404.879547)scale(0.1 -0.1)">
     <use xlink:href="#DejaVuSans-4e"/>
     <use x="74.804688" xlink:href="#DejaVuSans-6f"/>
    </g>
   </g>
   <g id="text_65">
    <!-- 92% -->
    <g style="fill:#262626;" transform="translate(637.867249 388.774924)scale(0.1 -0.1)">
     <use xlink:href="#DejaVuSans-39"/>
     <use x="63.623047" xlink:href="#DejaVuSans-32"/>
     <use x="127.246094" xlink:href="#DejaVuSans-25"/>
    </g>
   </g>
   <g id="text_66">
    <!-- OBO -->
    <g style="fill:#262626;" transform="translate(655.03217 303.48)scale(0.12 -0.12)">
     <use xlink:href="#DejaVuSans-4f"/>
     <use x="78.710938" xlink:href="#DejaVuSans-42"/>
     <use x="145.564453" xlink:href="#DejaVuSans-4f"/>
    </g>
   </g>
  </g>
  <g id="axes_13">
   <g id="matplotlib.axis_25"/>
   <g id="matplotlib.axis_26"/>
   <g id="patch_29">
    <path d="M 141.694824 480.956703 
C 136.99395 472.814551 129.896465 466.315319 121.372902 462.347733 
C 112.849339 458.380148 103.306767 457.133694 94.050071 458.778815 
L 102.058573 503.840703 
L 141.694824 480.956703 
z
" style="fill:#1f77b4;stroke:#ffffff;stroke-linejoin:miter;"/>
   </g>
   <g id="patch_30">
    <path d="M 92.118638 462.928112 
C 87.358392 463.774114 82.762128 465.369091 78.501076 467.653625 
C 74.240023 469.938158 70.36776 472.883522 67.028543 476.379991 
C 63.689326 479.876459 60.925142 483.880067 58.838969 488.241666 
C 56.752795 492.603264 55.370862 497.26801 54.744654 502.062124 
C 54.118445 506.856237 54.255834 511.719437 55.151702 516.470551 
C 56.04757 521.221665 57.690653 525.800952 60.019739 530.037816 
C 62.348825 534.27468 65.334629 538.115847 68.865918 541.418219 
C 72.397207 544.720591 76.429579 547.442643 80.812812 549.48297 
C 85.196045 551.523296 89.875024 552.856241 94.67544 553.432148 
C 99.475856 554.008054 104.337348 553.819681 109.078807 552.874045 
C 113.820266 551.928409 118.382073 550.237401 122.594283 547.864018 
C 126.806493 545.490635 130.616142 542.464719 133.881306 538.898998 
C 137.146469 535.333276 139.826092 531.272585 141.820346 526.868199 
C 143.814601 522.463814 145.098412 517.771116 145.623953 512.964925 
C 146.149494 508.158734 145.910156 503.299485 144.914857 498.568201 
C 143.919557 493.836918 142.18081 489.293093 139.763391 485.106 
L 100.12714 507.99 
L 92.118638 462.928112 
z
" style="fill:#ff7f0e;stroke:#ffffff;stroke-linejoin:miter;"/>
   </g>
   <g id="text_67">
    <!-- Yes -->
    <g style="fill:#262626;" transform="translate(123.304335 460.957811)scale(0.1 -0.1)">
     <use xlink:href="#DejaVuSans-59"/>
     <use x="47.833984" xlink:href="#DejaVuSans-65"/>
     <use x="109.357422" xlink:href="#DejaVuSans-73"/>
    </g>
   </g>
   <g id="text_68">
    <!-- 19% -->
    <g style="fill:#262626;" transform="translate(102.533889 481.704296)scale(0.1 -0.1)">
     <use xlink:href="#DejaVuSans-31"/>
     <use x="63.623047" xlink:href="#DejaVuSans-39"/>
     <use x="127.246094" xlink:href="#DejaVuSans-25"/>
    </g>
   </g>
   <g id="text_69">
    <!-- No -->
    <g style="fill:#262626;" transform="translate(65.281379 556.391642)scale(0.1 -0.1)">
     <use xlink:href="#DejaVuSans-4e"/>
     <use x="74.804688" xlink:href="#DejaVuSans-6f"/>
    </g>
   </g>
   <g id="text_70">
    <!-- 81% -->
    <g style="fill:#262626;" transform="translate(77.425262 535.645157)scale(0.1 -0.1)">
     <use xlink:href="#DejaVuSans-38"/>
     <use x="63.623047" xlink:href="#DejaVuSans-31"/>
     <use x="127.246094" xlink:href="#DejaVuSans-25"/>
    </g>
   </g>
   <g id="text_71">
    <!-- OWL -->
    <g style="fill:#262626;" transform="translate(86.12839 444.78)scale(0.12 -0.12)">
     <use xlink:href="#DejaVuSans-4f"/>
     <use x="78.710938" xlink:href="#DejaVuSans-57"/>
     <use x="177.587891" xlink:href="#DejaVuSans-4c"/>
    </g>
   </g>
  </g>
  <g id="axes_14">
   <g id="matplotlib.axis_27"/>
   <g id="matplotlib.axis_28"/>
   <g id="patch_31">
    <path d="M 333.065179 482.627334 
C 332.693625 481.983784 332.306452 481.349377 331.904006 480.724679 
C 331.501559 480.099982 331.083958 479.485178 330.651574 478.880816 
L 293.428929 505.511334 
L 333.065179 482.627334 
z
" style="fill:#1f77b4;stroke:#ffffff;stroke-linejoin:miter;"/>
   </g>
   <g id="patch_32">
    <path d="M 326.804066 481.359481 
C 323.361534 476.547703 319.018408 472.448786 314.015672 469.290166 
C 309.012937 466.131545 303.444865 463.972742 297.620408 462.933541 
C 291.79595 461.894339 285.824865 461.994322 280.038465 463.227942 
C 274.252065 464.461562 268.75939 466.805572 263.865209 470.129912 
C 258.971028 473.454252 254.767567 477.696277 251.488062 482.620613 
C 248.208556 487.544949 245.914805 493.058801 244.73408 498.856226 
C 243.553355 504.65365 243.507907 510.6254 244.600256 516.440124 
C 245.692605 522.254848 247.902168 527.802973 251.106343 532.776654 
C 254.310519 537.750335 258.448928 542.055847 263.291944 545.454293 
C 268.134961 548.852739 273.591323 551.280078 279.358276 552.601626 
C 285.12523 553.923173 291.094102 554.114027 296.933702 553.163596 
C 302.773301 552.213166 308.373586 550.139361 313.423817 547.057249 
C 318.474048 543.975138 322.879058 539.9428 326.394429 535.183976 
C 329.909799 530.425151 332.469286 525.029515 333.930874 519.296453 
C 335.392461 513.56339 335.728606 507.600935 334.920658 501.739924 
C 334.112709 495.878912 332.175892 490.229788 329.217673 485.106002 
L 289.581421 507.99 
L 326.804066 481.359481 
z
" style="fill:#ff7f0e;stroke:#ffffff;stroke-linejoin:miter;"/>
   </g>
   <g id="text_72">
    <!-- Yes -->
    <g style="fill:#262626;" transform="translate(335.751514 481.005389)scale(0.1 -0.1)">
     <use xlink:href="#DejaVuSans-59"/>
     <use x="47.833984" xlink:href="#DejaVuSans-65"/>
     <use x="109.357422" xlink:href="#DejaVuSans-73"/>
    </g>
   </g>
   <g id="text_73">
    <!-- 2% -->
    <g style="fill:#262626;" transform="translate(308.581944 493.398716)scale(0.1 -0.1)">
     <use xlink:href="#DejaVuSans-32"/>
     <use x="63.623047" xlink:href="#DejaVuSans-25"/>
    </g>
   </g>
   <g id="text_74">
    <!-- No -->
    <g style="fill:#262626;" transform="translate(233.658836 538.014695)scale(0.1 -0.1)">
     <use xlink:href="#DejaVuSans-4e"/>
     <use x="74.804688" xlink:href="#DejaVuSans-6f"/>
    </g>
   </g>
   <g id="text_75">
    <!-- 98% -->
    <g style="fill:#262626;" transform="translate(255.383093 525.621367)scale(0.1 -0.1)">
     <use xlink:href="#DejaVuSans-39"/>
     <use x="63.623047" xlink:href="#DejaVuSans-38"/>
     <use x="127.246094" xlink:href="#DejaVuSans-25"/>
    </g>
   </g>
   <g id="text_76">
    <!-- JSON -->
    <g style="fill:#262626;" transform="translate(274.790484 444.78)scale(0.12 -0.12)">
     <defs>
      <path d="M 628 4666 
L 1259 4666 
L 1259 325 
Q 1259 -519 939 -900 
Q 619 -1281 -91 -1281 
L -331 -1281 
L -331 -750 
L -134 -750 
Q 284 -750 456 -515 
Q 628 -281 628 325 
L 628 4666 
z
" id="DejaVuSans-4a" transform="scale(0.015625)"/>
      <path d="M 3425 4513 
L 3425 3897 
Q 3066 4069 2747 4153 
Q 2428 4238 2131 4238 
Q 1616 4238 1336 4038 
Q 1056 3838 1056 3469 
Q 1056 3159 1242 3001 
Q 1428 2844 1947 2747 
L 2328 2669 
Q 3034 2534 3370 2195 
Q 3706 1856 3706 1288 
Q 3706 609 3251 259 
Q 2797 -91 1919 -91 
Q 1588 -91 1214 -16 
Q 841 59 441 206 
L 441 856 
Q 825 641 1194 531 
Q 1563 422 1919 422 
Q 2459 422 2753 634 
Q 3047 847 3047 1241 
Q 3047 1584 2836 1778 
Q 2625 1972 2144 2069 
L 1759 2144 
Q 1053 2284 737 2584 
Q 422 2884 422 3419 
Q 422 4038 858 4394 
Q 1294 4750 2059 4750 
Q 2388 4750 2728 4690 
Q 3069 4631 3425 4513 
z
" id="DejaVuSans-53" transform="scale(0.015625)"/>
     </defs>
     <use xlink:href="#DejaVuSans-4a"/>
     <use x="29.492188" xlink:href="#DejaVuSans-53"/>
     <use x="92.96875" xlink:href="#DejaVuSans-4f"/>
     <use x="171.679688" xlink:href="#DejaVuSans-4e"/>
    </g>
   </g>
  </g>
  <g id="axes_15"/>
  <g id="axes_16"/>
  <g id="text_77">
   <!-- https://github.com/bioregistry/bioregistry (2021-06-24) -->
   <g style="fill:#808080;opacity:0.5;" transform="translate(285.830625 574.33625)scale(0.08 -0.08)">
    <defs>
     <path d="M 750 794 
L 1409 794 
L 1409 0 
L 750 0 
L 750 794 
z
M 750 3309 
L 1409 3309 
L 1409 2516 
L 750 2516 
L 750 3309 
z
" id="DejaVuSans-3a" transform="scale(0.015625)"/>
     <path d="M 1625 4666 
L 2156 4666 
L 531 -594 
L 0 -594 
L 1625 4666 
z
" id="DejaVuSans-2f" transform="scale(0.015625)"/>
     <path d="M 544 1381 
L 544 3500 
L 1119 3500 
L 1119 1403 
Q 1119 906 1312 657 
Q 1506 409 1894 409 
Q 2359 409 2629 706 
Q 2900 1003 2900 1516 
L 2900 3500 
L 3475 3500 
L 3475 0 
L 2900 0 
L 2900 538 
Q 2691 219 2414 64 
Q 2138 -91 1772 -91 
Q 1169 -91 856 284 
Q 544 659 544 1381 
z
M 1991 3584 
L 1991 3584 
z
" id="DejaVuSans-75" transform="scale(0.015625)"/>
     <path d="M 1984 4856 
Q 1566 4138 1362 3434 
Q 1159 2731 1159 2009 
Q 1159 1288 1364 580 
Q 1569 -128 1984 -844 
L 1484 -844 
Q 1016 -109 783 600 
Q 550 1309 550 2009 
Q 550 2706 781 3412 
Q 1013 4119 1484 4856 
L 1984 4856 
z
" id="DejaVuSans-28" transform="scale(0.015625)"/>
     <path d="M 513 4856 
L 1013 4856 
Q 1481 4119 1714 3412 
Q 1947 2706 1947 2009 
Q 1947 1309 1714 600 
Q 1481 -109 1013 -844 
L 513 -844 
Q 928 -128 1133 580 
Q 1338 1288 1338 2009 
Q 1338 2731 1133 3434 
Q 928 4138 513 4856 
z
" id="DejaVuSans-29" transform="scale(0.015625)"/>
    </defs>
    <use xlink:href="#DejaVuSans-68"/>
    <use x="63.378906" xlink:href="#DejaVuSans-74"/>
    <use x="102.587891" xlink:href="#DejaVuSans-74"/>
    <use x="141.796875" xlink:href="#DejaVuSans-70"/>
    <use x="205.273438" xlink:href="#DejaVuSans-73"/>
    <use x="257.373047" xlink:href="#DejaVuSans-3a"/>
    <use x="291.064453" xlink:href="#DejaVuSans-2f"/>
    <use x="324.755859" xlink:href="#DejaVuSans-2f"/>
    <use x="358.447266" xlink:href="#DejaVuSans-67"/>
    <use x="421.923828" xlink:href="#DejaVuSans-69"/>
    <use x="449.707031" xlink:href="#DejaVuSans-74"/>
    <use x="488.916016" xlink:href="#DejaVuSans-68"/>
    <use x="552.294922" xlink:href="#DejaVuSans-75"/>
    <use x="615.673828" xlink:href="#DejaVuSans-62"/>
    <use x="679.150391" xlink:href="#DejaVuSans-2e"/>
    <use x="710.9375" xlink:href="#DejaVuSans-63"/>
    <use x="765.917969" xlink:href="#DejaVuSans-6f"/>
    <use x="827.099609" xlink:href="#DejaVuSans-6d"/>
    <use x="924.511719" xlink:href="#DejaVuSans-2f"/>
    <use x="958.203125" xlink:href="#DejaVuSans-62"/>
    <use x="1021.679688" xlink:href="#DejaVuSans-69"/>
    <use x="1049.462891" xlink:href="#DejaVuSans-6f"/>
    <use x="1110.644531" xlink:href="#DejaVuSans-72"/>
    <use x="1149.507812" xlink:href="#DejaVuSans-65"/>
    <use x="1211.03125" xlink:href="#DejaVuSans-67"/>
    <use x="1274.507812" xlink:href="#DejaVuSans-69"/>
    <use x="1302.291016" xlink:href="#DejaVuSans-73"/>
    <use x="1354.390625" xlink:href="#DejaVuSans-74"/>
    <use x="1393.599609" xlink:href="#DejaVuSans-72"/>
    <use x="1434.712891" xlink:href="#DejaVuSans-79"/>
    <use x="1493.892578" xlink:href="#DejaVuSans-2f"/>
    <use x="1527.583984" xlink:href="#DejaVuSans-62"/>
    <use x="1591.060547" xlink:href="#DejaVuSans-69"/>
    <use x="1618.84375" xlink:href="#DejaVuSans-6f"/>
    <use x="1680.025391" xlink:href="#DejaVuSans-72"/>
    <use x="1718.888672" xlink:href="#DejaVuSans-65"/>
    <use x="1780.412109" xlink:href="#DejaVuSans-67"/>
    <use x="1843.888672" xlink:href="#DejaVuSans-69"/>
    <use x="1871.671875" xlink:href="#DejaVuSans-73"/>
    <use x="1923.771484" xlink:href="#DejaVuSans-74"/>
    <use x="1962.980469" xlink:href="#DejaVuSans-72"/>
    <use x="2004.09375" xlink:href="#DejaVuSans-79"/>
    <use x="2063.273438" xlink:href="#DejaVuSans-20"/>
    <use x="2095.060547" xlink:href="#DejaVuSans-28"/>
    <use x="2134.074219" xlink:href="#DejaVuSans-32"/>
    <use x="2197.697266" xlink:href="#DejaVuSans-30"/>
    <use x="2261.320312" xlink:href="#DejaVuSans-32"/>
    <use x="2324.943359" xlink:href="#DejaVuSans-31"/>
    <use x="2388.566406" xlink:href="#DejaVuSans-2d"/>
    <use x="2424.650391" xlink:href="#DejaVuSans-30"/>
    <use x="2488.273438" xlink:href="#DejaVuSans-36"/>
    <use x="2551.896484" xlink:href="#DejaVuSans-2d"/>
    <use x="2587.980469" xlink:href="#DejaVuSans-32"/>
    <use x="2651.603516" xlink:href="#DejaVuSans-34"/>
    <use x="2715.226562" xlink:href="#DejaVuSans-29"/>
   </g>
  </g>
 </g>
</svg>
