<?xml version="1.0" encoding="utf-8" standalone="no"?>
<!DOCTYPE svg PUBLIC "-//W3C//DTD SVG 1.1//EN"
  "http://www.w3.org/Graphics/SVG/1.1/DTD/svg11.dtd">
<svg height="345.6pt" version="1.1" viewBox="0 0 460.8 345.6" width="460.8pt" xmlns="http://www.w3.org/2000/svg" xmlns:xlink="http://www.w3.org/1999/xlink">
 <metadata>
  <rdf:RDF xmlns:cc="http://creativecommons.org/ns#" xmlns:dc="http://purl.org/dc/elements/1.1/" xmlns:rdf="http://www.w3.org/1999/02/22-rdf-syntax-ns#">
   <cc:Work>
    <dc:type rdf:resource="http://purl.org/dc/dcmitype/StillImage"/>
    <dc:date>2021-05-15T00:58:36.798005</dc:date>
    <dc:format>image/svg+xml</dc:format>
    <dc:creator>
     <cc:Agent>
      <dc:title>Matplotlib v3.4.2, https://matplotlib.org/</dc:title>
     </cc:Agent>
    </dc:creator>
   </cc:Work>
  </rdf:RDF>
 </metadata>
 <defs>
  <style type="text/css">*{stroke-linecap:butt;stroke-linejoin:round;}</style>
 </defs>
 <g id="figure_1">
  <g id="patch_1">
   <path d="M 0 345.6 
L 460.8 345.6 
L 460.8 0 
L 0 0 
z
" style="fill:#ffffff;"/>
  </g>
  <g id="axes_1">
   <g id="matplotlib.axis_1"/>
   <g id="matplotlib.axis_2"/>
   <g id="patch_2">
    <path d="M 105.359319 44.97366 
C 103.875183 42.403062 101.899559 40.149493 99.545308 38.341694 
C 97.191057 36.533895 94.503882 35.20696 91.637295 34.436694 
C 88.770708 33.666428 85.780355 33.467783 82.83707 33.852107 
C 79.893785 34.236432 77.054703 35.196266 74.482015 36.676775 
C 71.909327 38.157285 69.652974 40.12973 67.841857 42.481429 
C 66.030741 44.833128 64.700018 47.51843 63.925711 50.383928 
C 63.151403 53.249427 62.948542 56.239496 63.328716 59.18332 
C 63.708891 62.127144 64.66472 64.967577 66.141601 67.54235 
C 67.618481 70.117123 69.587743 72.376255 71.936886 74.190685 
C 74.286029 76.005116 76.969452 77.339624 79.833855 78.117971 
C 82.698259 78.896318 85.688039 79.103395 88.632397 78.727372 
C 91.576754 78.351349 94.418531 77.399525 96.995384 75.926277 
C 99.572237 74.453028 101.834144 72.486954 103.651885 70.140371 
C 105.469626 67.793789 106.807916 65.112251 107.590301 62.248947 
C 108.372686 59.385644 108.583979 56.396159 108.212108 53.451274 
C 107.840237 50.50639 106.892421 47.663273 105.422807 45.084345 
L 85.766371 56.285654 
L 105.359319 44.97366 
z
" style="fill:#1f77b4;stroke:#ffffff;stroke-linejoin:miter;"/>
   </g>
   <g id="patch_3">
    <path d="M 107.385284 43.958676 
C 107.374755 43.940198 107.364199 43.921735 107.353617 43.903287 
C 107.343036 43.884839 107.332428 43.866406 107.321794 43.847988 
L 87.728848 55.159984 
L 107.385284 43.958676 
z
" style="fill:#ff7f0e;stroke:#ffffff;stroke-linejoin:miter;"/>
   </g>
   <g id="text_1">
    <!-- Yes -->
    <g style="fill:#262626;" transform="translate(48.033811 71.427394)scale(0.1 -0.1)">
     <defs>
      <path d="M -13 4666 
L 666 4666 
L 1959 2747 
L 3244 4666 
L 3922 4666 
L 2272 2222 
L 2272 0 
L 1638 0 
L 1638 2222 
L -13 4666 
z
" id="DejaVuSans-59" transform="scale(0.015625)"/>
      <path d="M 3597 1894 
L 3597 1613 
L 953 1613 
Q 991 1019 1311 708 
Q 1631 397 2203 397 
Q 2534 397 2845 478 
Q 3156 559 3463 722 
L 3463 178 
Q 3153 47 2828 -22 
Q 2503 -91 2169 -91 
Q 1331 -91 842 396 
Q 353 884 353 1716 
Q 353 2575 817 3079 
Q 1281 3584 2069 3584 
Q 2775 3584 3186 3129 
Q 3597 2675 3597 1894 
z
M 3022 2063 
Q 3016 2534 2758 2815 
Q 2500 3097 2075 3097 
Q 1594 3097 1305 2825 
Q 1016 2553 972 2059 
L 3022 2063 
z
" id="DejaVuSans-65" transform="scale(0.015625)"/>
      <path d="M 2834 3397 
L 2834 2853 
Q 2591 2978 2328 3040 
Q 2066 3103 1784 3103 
Q 1356 3103 1142 2972 
Q 928 2841 928 2578 
Q 928 2378 1081 2264 
Q 1234 2150 1697 2047 
L 1894 2003 
Q 2506 1872 2764 1633 
Q 3022 1394 3022 966 
Q 3022 478 2636 193 
Q 2250 -91 1575 -91 
Q 1294 -91 989 -36 
Q 684 19 347 128 
L 347 722 
Q 666 556 975 473 
Q 1284 391 1588 391 
Q 1994 391 2212 530 
Q 2431 669 2431 922 
Q 2431 1156 2273 1281 
Q 2116 1406 1581 1522 
L 1381 1569 
Q 847 1681 609 1914 
Q 372 2147 372 2553 
Q 372 3047 722 3315 
Q 1072 3584 1716 3584 
Q 2034 3584 2315 3537 
Q 2597 3491 2834 3397 
z
" id="DejaVuSans-73" transform="scale(0.015625)"/>
     </defs>
     <use xlink:href="#DejaVuSans-59"/>
     <use x="47.833984" xlink:href="#DejaVuSans-65"/>
     <use x="109.357422" xlink:href="#DejaVuSans-73"/>
    </g>
   </g>
   <g id="text_2">
    <!-- 100% -->
    <g style="fill:#262626;" transform="translate(59.696978 65.799046)scale(0.1 -0.1)">
     <defs>
      <path d="M 794 531 
L 1825 531 
L 1825 4091 
L 703 3866 
L 703 4441 
L 1819 4666 
L 2450 4666 
L 2450 531 
L 3481 531 
L 3481 0 
L 794 0 
L 794 531 
z
" id="DejaVuSans-31" transform="scale(0.015625)"/>
      <path d="M 2034 4250 
Q 1547 4250 1301 3770 
Q 1056 3291 1056 2328 
Q 1056 1369 1301 889 
Q 1547 409 2034 409 
Q 2525 409 2770 889 
Q 3016 1369 3016 2328 
Q 3016 3291 2770 3770 
Q 2525 4250 2034 4250 
z
M 2034 4750 
Q 2819 4750 3233 4129 
Q 3647 3509 3647 2328 
Q 3647 1150 3233 529 
Q 2819 -91 2034 -91 
Q 1250 -91 836 529 
Q 422 1150 422 2328 
Q 422 3509 836 4129 
Q 1250 4750 2034 4750 
z
" id="DejaVuSans-30" transform="scale(0.015625)"/>
      <path d="M 4653 2053 
Q 4381 2053 4226 1822 
Q 4072 1591 4072 1178 
Q 4072 772 4226 539 
Q 4381 306 4653 306 
Q 4919 306 5073 539 
Q 5228 772 5228 1178 
Q 5228 1588 5073 1820 
Q 4919 2053 4653 2053 
z
M 4653 2450 
Q 5147 2450 5437 2106 
Q 5728 1763 5728 1178 
Q 5728 594 5436 251 
Q 5144 -91 4653 -91 
Q 4153 -91 3862 251 
Q 3572 594 3572 1178 
Q 3572 1766 3864 2108 
Q 4156 2450 4653 2450 
z
M 1428 4353 
Q 1159 4353 1004 4120 
Q 850 3888 850 3481 
Q 850 3069 1003 2837 
Q 1156 2606 1428 2606 
Q 1700 2606 1854 2837 
Q 2009 3069 2009 3481 
Q 2009 3884 1853 4118 
Q 1697 4353 1428 4353 
z
M 4250 4750 
L 4750 4750 
L 1831 -91 
L 1331 -91 
L 4250 4750 
z
M 1428 4750 
Q 1922 4750 2215 4408 
Q 2509 4066 2509 3481 
Q 2509 2891 2217 2550 
Q 1925 2209 1428 2209 
Q 931 2209 642 2551 
Q 353 2894 353 3481 
Q 353 4063 643 4406 
Q 934 4750 1428 4750 
z
" id="DejaVuSans-25" transform="scale(0.015625)"/>
     </defs>
     <use xlink:href="#DejaVuSans-31"/>
     <use x="63.623047" xlink:href="#DejaVuSans-30"/>
     <use x="127.246094" xlink:href="#DejaVuSans-30"/>
     <use x="190.869141" xlink:href="#DejaVuSans-25"/>
    </g>
   </g>
   <g id="text_3">
    <!-- No -->
    <g style="fill:#262626;" transform="translate(109.316094 45.536992)scale(0.1 -0.1)">
     <defs>
      <path d="M 628 4666 
L 1478 4666 
L 3547 763 
L 3547 4666 
L 4159 4666 
L 4159 0 
L 3309 0 
L 1241 3903 
L 1241 0 
L 628 0 
L 628 4666 
z
" id="DejaVuSans-4e" transform="scale(0.015625)"/>
      <path d="M 1959 3097 
Q 1497 3097 1228 2736 
Q 959 2375 959 1747 
Q 959 1119 1226 758 
Q 1494 397 1959 397 
Q 2419 397 2687 759 
Q 2956 1122 2956 1747 
Q 2956 2369 2687 2733 
Q 2419 3097 1959 3097 
z
M 1959 3584 
Q 2709 3584 3137 3096 
Q 3566 2609 3566 1747 
Q 3566 888 3137 398 
Q 2709 -91 1959 -91 
Q 1206 -91 779 398 
Q 353 888 353 1747 
Q 353 2609 779 3096 
Q 1206 3584 1959 3584 
z
" id="DejaVuSans-6f" transform="scale(0.015625)"/>
     </defs>
     <use xlink:href="#DejaVuSans-4e"/>
     <use x="74.804688" xlink:href="#DejaVuSans-6f"/>
    </g>
   </g>
   <g id="text_4">
    <!-- 0% -->
    <g style="fill:#262626;" transform="translate(91.571678 51.165341)scale(0.1 -0.1)">
     <use xlink:href="#DejaVuSans-30"/>
     <use x="63.623047" xlink:href="#DejaVuSans-25"/>
    </g>
   </g>
   <g id="text_5">
    <!-- Name -->
    <g style="fill:#262626;" transform="translate(70.026973 20.88)scale(0.12 -0.12)">
     <defs>
      <path d="M 2194 1759 
Q 1497 1759 1228 1600 
Q 959 1441 959 1056 
Q 959 750 1161 570 
Q 1363 391 1709 391 
Q 2188 391 2477 730 
Q 2766 1069 2766 1631 
L 2766 1759 
L 2194 1759 
z
M 3341 1997 
L 3341 0 
L 2766 0 
L 2766 531 
Q 2569 213 2275 61 
Q 1981 -91 1556 -91 
Q 1019 -91 701 211 
Q 384 513 384 1019 
Q 384 1609 779 1909 
Q 1175 2209 1959 2209 
L 2766 2209 
L 2766 2266 
Q 2766 2663 2505 2880 
Q 2244 3097 1772 3097 
Q 1472 3097 1187 3025 
Q 903 2953 641 2809 
L 641 3341 
Q 956 3463 1253 3523 
Q 1550 3584 1831 3584 
Q 2591 3584 2966 3190 
Q 3341 2797 3341 1997 
z
" id="DejaVuSans-61" transform="scale(0.015625)"/>
      <path d="M 3328 2828 
Q 3544 3216 3844 3400 
Q 4144 3584 4550 3584 
Q 5097 3584 5394 3201 
Q 5691 2819 5691 2113 
L 5691 0 
L 5113 0 
L 5113 2094 
Q 5113 2597 4934 2840 
Q 4756 3084 4391 3084 
Q 3944 3084 3684 2787 
Q 3425 2491 3425 1978 
L 3425 0 
L 2847 0 
L 2847 2094 
Q 2847 2600 2669 2842 
Q 2491 3084 2119 3084 
Q 1678 3084 1418 2786 
Q 1159 2488 1159 1978 
L 1159 0 
L 581 0 
L 581 3500 
L 1159 3500 
L 1159 2956 
Q 1356 3278 1631 3431 
Q 1906 3584 2284 3584 
Q 2666 3584 2933 3390 
Q 3200 3197 3328 2828 
z
" id="DejaVuSans-6d" transform="scale(0.015625)"/>
     </defs>
     <use xlink:href="#DejaVuSans-4e"/>
     <use x="74.804688" xlink:href="#DejaVuSans-61"/>
     <use x="136.083984" xlink:href="#DejaVuSans-6d"/>
     <use x="233.496094" xlink:href="#DejaVuSans-65"/>
    </g>
   </g>
  </g>
  <g id="axes_2">
   <g id="matplotlib.axis_3"/>
   <g id="matplotlib.axis_4"/>
   <g id="patch_4">
    <path d="M 247.736944 44.017969 
C 246.464561 41.814138 244.829417 39.840697 242.900474 38.180877 
C 240.971531 36.521056 238.776294 35.198522 236.407346 34.269054 
C 234.038398 33.339586 231.529518 32.816436 228.986519 32.721668 
C 226.443519 32.626901 223.902661 32.961866 221.471104 33.712439 
C 219.039548 34.463011 216.751964 35.618487 214.704833 37.130135 
C 212.657702 38.641783 210.880212 40.488048 209.447331 42.591064 
C 208.014449 44.69408 206.946607 47.02386 206.288839 49.482146 
C 205.631072 51.940432 205.39276 54.492171 205.583952 57.029743 
C 205.775145 59.567314 206.393117 62.054537 207.411805 64.38651 
C 208.430492 66.718484 209.835371 68.861958 211.56719 70.72653 
C 213.299008 72.591103 215.333073 74.150188 217.583596 75.33803 
C 219.83412 76.525872 222.269013 77.325535 224.785583 77.703292 
C 227.302153 78.081049 229.864517 78.031514 232.364607 77.556776 
C 234.864697 77.082038 237.266865 76.188867 239.469798 74.914931 
C 241.672731 73.640996 243.645019 72.004461 245.303479 70.074349 
C 246.96194 68.144236 248.282925 65.948067 249.210724 63.578464 
L 228.143996 55.329962 
L 247.736944 44.017969 
z
" style="fill:#1f77b4;stroke:#ffffff;stroke-linejoin:miter;"/>
   </g>
   <g id="patch_5">
    <path d="M 251.466728 63.408486 
C 252.704734 60.24661 253.215161 56.846211 252.960043 53.460205 
C 252.704926 50.0742 251.69075 46.788671 249.992949 43.847992 
L 230.4 55.159984 
L 251.466728 63.408486 
z
" style="fill:#ff7f0e;stroke:#ffffff;stroke-linejoin:miter;"/>
   </g>
   <g id="text_6">
    <!-- Yes -->
    <g style="fill:#262626;" transform="translate(187.182636 59.959096)scale(0.1 -0.1)">
     <use xlink:href="#DejaVuSans-59"/>
     <use x="47.833984" xlink:href="#DejaVuSans-65"/>
     <use x="109.357422" xlink:href="#DejaVuSans-73"/>
    </g>
   </g>
   <g id="text_7">
    <!-- 86% -->
    <g style="fill:#262626;" transform="translate(203.494688 59.109205)scale(0.1 -0.1)">
     <defs>
      <path d="M 2034 2216 
Q 1584 2216 1326 1975 
Q 1069 1734 1069 1313 
Q 1069 891 1326 650 
Q 1584 409 2034 409 
Q 2484 409 2743 651 
Q 3003 894 3003 1313 
Q 3003 1734 2745 1975 
Q 2488 2216 2034 2216 
z
M 1403 2484 
Q 997 2584 770 2862 
Q 544 3141 544 3541 
Q 544 4100 942 4425 
Q 1341 4750 2034 4750 
Q 2731 4750 3128 4425 
Q 3525 4100 3525 3541 
Q 3525 3141 3298 2862 
Q 3072 2584 2669 2484 
Q 3125 2378 3379 2068 
Q 3634 1759 3634 1313 
Q 3634 634 3220 271 
Q 2806 -91 2034 -91 
Q 1263 -91 848 271 
Q 434 634 434 1313 
Q 434 1759 690 2068 
Q 947 2378 1403 2484 
z
M 1172 3481 
Q 1172 3119 1398 2916 
Q 1625 2713 2034 2713 
Q 2441 2713 2670 2916 
Q 2900 3119 2900 3481 
Q 2900 3844 2670 4047 
Q 2441 4250 2034 4250 
Q 1625 4250 1398 4047 
Q 1172 3844 1172 3481 
z
" id="DejaVuSans-38" transform="scale(0.015625)"/>
      <path d="M 2113 2584 
Q 1688 2584 1439 2293 
Q 1191 2003 1191 1497 
Q 1191 994 1439 701 
Q 1688 409 2113 409 
Q 2538 409 2786 701 
Q 3034 994 3034 1497 
Q 3034 2003 2786 2293 
Q 2538 2584 2113 2584 
z
M 3366 4563 
L 3366 3988 
Q 3128 4100 2886 4159 
Q 2644 4219 2406 4219 
Q 1781 4219 1451 3797 
Q 1122 3375 1075 2522 
Q 1259 2794 1537 2939 
Q 1816 3084 2150 3084 
Q 2853 3084 3261 2657 
Q 3669 2231 3669 1497 
Q 3669 778 3244 343 
Q 2819 -91 2113 -91 
Q 1303 -91 875 529 
Q 447 1150 447 2328 
Q 447 3434 972 4092 
Q 1497 4750 2381 4750 
Q 2619 4750 2861 4703 
Q 3103 4656 3366 4563 
z
" id="DejaVuSans-36" transform="scale(0.015625)"/>
     </defs>
     <use xlink:href="#DejaVuSans-38"/>
     <use x="63.623047" xlink:href="#DejaVuSans-36"/>
     <use x="127.246094" xlink:href="#DejaVuSans-25"/>
    </g>
   </g>
   <g id="text_8">
    <!-- No -->
    <g style="fill:#262626;" transform="translate(255.216048 56.049602)scale(0.1 -0.1)">
     <use xlink:href="#DejaVuSans-4e"/>
     <use x="74.804688" xlink:href="#DejaVuSans-6f"/>
    </g>
   </g>
   <g id="text_9">
    <!-- 14% -->
    <g style="fill:#262626;" transform="translate(232.822745 56.899492)scale(0.1 -0.1)">
     <defs>
      <path d="M 2419 4116 
L 825 1625 
L 2419 1625 
L 2419 4116 
z
M 2253 4666 
L 3047 4666 
L 3047 1625 
L 3713 1625 
L 3713 1100 
L 3047 1100 
L 3047 0 
L 2419 0 
L 2419 1100 
L 313 1100 
L 313 1709 
L 2253 4666 
z
" id="DejaVuSans-34" transform="scale(0.015625)"/>
     </defs>
     <use xlink:href="#DejaVuSans-31"/>
     <use x="63.623047" xlink:href="#DejaVuSans-34"/>
     <use x="127.246094" xlink:href="#DejaVuSans-25"/>
    </g>
   </g>
   <g id="text_10">
    <!-- Description -->
    <g style="fill:#262626;" transform="translate(196.228125 20.88)scale(0.12 -0.12)">
     <defs>
      <path d="M 1259 4147 
L 1259 519 
L 2022 519 
Q 2988 519 3436 956 
Q 3884 1394 3884 2338 
Q 3884 3275 3436 3711 
Q 2988 4147 2022 4147 
L 1259 4147 
z
M 628 4666 
L 1925 4666 
Q 3281 4666 3915 4102 
Q 4550 3538 4550 2338 
Q 4550 1131 3912 565 
Q 3275 0 1925 0 
L 628 0 
L 628 4666 
z
" id="DejaVuSans-44" transform="scale(0.015625)"/>
      <path d="M 3122 3366 
L 3122 2828 
Q 2878 2963 2633 3030 
Q 2388 3097 2138 3097 
Q 1578 3097 1268 2742 
Q 959 2388 959 1747 
Q 959 1106 1268 751 
Q 1578 397 2138 397 
Q 2388 397 2633 464 
Q 2878 531 3122 666 
L 3122 134 
Q 2881 22 2623 -34 
Q 2366 -91 2075 -91 
Q 1284 -91 818 406 
Q 353 903 353 1747 
Q 353 2603 823 3093 
Q 1294 3584 2113 3584 
Q 2378 3584 2631 3529 
Q 2884 3475 3122 3366 
z
" id="DejaVuSans-63" transform="scale(0.015625)"/>
      <path d="M 2631 2963 
Q 2534 3019 2420 3045 
Q 2306 3072 2169 3072 
Q 1681 3072 1420 2755 
Q 1159 2438 1159 1844 
L 1159 0 
L 581 0 
L 581 3500 
L 1159 3500 
L 1159 2956 
Q 1341 3275 1631 3429 
Q 1922 3584 2338 3584 
Q 2397 3584 2469 3576 
Q 2541 3569 2628 3553 
L 2631 2963 
z
" id="DejaVuSans-72" transform="scale(0.015625)"/>
      <path d="M 603 3500 
L 1178 3500 
L 1178 0 
L 603 0 
L 603 3500 
z
M 603 4863 
L 1178 4863 
L 1178 4134 
L 603 4134 
L 603 4863 
z
" id="DejaVuSans-69" transform="scale(0.015625)"/>
      <path d="M 1159 525 
L 1159 -1331 
L 581 -1331 
L 581 3500 
L 1159 3500 
L 1159 2969 
Q 1341 3281 1617 3432 
Q 1894 3584 2278 3584 
Q 2916 3584 3314 3078 
Q 3713 2572 3713 1747 
Q 3713 922 3314 415 
Q 2916 -91 2278 -91 
Q 1894 -91 1617 61 
Q 1341 213 1159 525 
z
M 3116 1747 
Q 3116 2381 2855 2742 
Q 2594 3103 2138 3103 
Q 1681 3103 1420 2742 
Q 1159 2381 1159 1747 
Q 1159 1113 1420 752 
Q 1681 391 2138 391 
Q 2594 391 2855 752 
Q 3116 1113 3116 1747 
z
" id="DejaVuSans-70" transform="scale(0.015625)"/>
      <path d="M 1172 4494 
L 1172 3500 
L 2356 3500 
L 2356 3053 
L 1172 3053 
L 1172 1153 
Q 1172 725 1289 603 
Q 1406 481 1766 481 
L 2356 481 
L 2356 0 
L 1766 0 
Q 1100 0 847 248 
Q 594 497 594 1153 
L 594 3053 
L 172 3053 
L 172 3500 
L 594 3500 
L 594 4494 
L 1172 4494 
z
" id="DejaVuSans-74" transform="scale(0.015625)"/>
      <path d="M 3513 2113 
L 3513 0 
L 2938 0 
L 2938 2094 
Q 2938 2591 2744 2837 
Q 2550 3084 2163 3084 
Q 1697 3084 1428 2787 
Q 1159 2491 1159 1978 
L 1159 0 
L 581 0 
L 581 3500 
L 1159 3500 
L 1159 2956 
Q 1366 3272 1645 3428 
Q 1925 3584 2291 3584 
Q 2894 3584 3203 3211 
Q 3513 2838 3513 2113 
z
" id="DejaVuSans-6e" transform="scale(0.015625)"/>
     </defs>
     <use xlink:href="#DejaVuSans-44"/>
     <use x="77.001953" xlink:href="#DejaVuSans-65"/>
     <use x="138.525391" xlink:href="#DejaVuSans-73"/>
     <use x="190.625" xlink:href="#DejaVuSans-63"/>
     <use x="245.605469" xlink:href="#DejaVuSans-72"/>
     <use x="286.71875" xlink:href="#DejaVuSans-69"/>
     <use x="314.501953" xlink:href="#DejaVuSans-70"/>
     <use x="377.978516" xlink:href="#DejaVuSans-74"/>
     <use x="417.1875" xlink:href="#DejaVuSans-69"/>
     <use x="444.970703" xlink:href="#DejaVuSans-6f"/>
     <use x="506.152344" xlink:href="#DejaVuSans-6e"/>
    </g>
   </g>
  </g>
  <g id="axes_3">
   <g id="matplotlib.axis_5"/>
   <g id="matplotlib.axis_6"/>
   <g id="patch_6">
    <path d="M 393.417199 41.714615 
C 390.720616 37.043996 386.440836 33.488113 381.35524 31.692856 
C 376.269643 29.897599 370.705989 29.97867 365.67486 31.921344 
L 373.824251 53.026609 
L 393.417199 41.714615 
z
" style="fill:#1f77b4;stroke:#ffffff;stroke-linejoin:miter;"/>
   </g>
   <g id="patch_7">
    <path d="M 364.921761 34.054719 
C 362.777439 34.882707 360.771774 36.03268 358.973939 37.464974 
C 357.176104 38.897269 355.607007 40.595228 354.320766 42.500291 
C 353.034526 44.405353 352.0461 46.495363 351.389578 48.698239 
C 350.733057 50.901114 350.416075 53.191234 350.449566 55.489616 
C 350.483057 57.787997 350.866631 60.067909 351.587059 62.25072 
C 352.307486 64.433531 353.356389 66.493854 354.697591 68.360631 
C 356.038794 70.227408 357.656697 71.878928 359.495502 73.258231 
C 361.334306 74.637534 363.372626 75.728579 365.540163 76.493737 
C 367.707699 77.258895 369.979242 77.689267 372.276449 77.77001 
C 374.573656 77.850753 376.86981 77.580927 379.085718 76.96984 
C 381.301627 76.358752 383.411519 75.41351 385.342627 74.166712 
C 387.273734 72.919915 389.003598 71.386064 390.472557 69.618059 
C 391.941515 67.850055 393.132484 65.868459 394.004389 63.741616 
C 394.876293 61.614773 395.418993 59.367418 395.61377 57.077059 
C 395.808547 54.786701 395.653137 52.479977 395.152899 50.236444 
C 394.652661 47.99291 393.813414 45.838661 392.664101 43.847992 
L 373.071152 55.159984 
L 364.921761 34.054719 
z
" style="fill:#ff7f0e;stroke:#ffffff;stroke-linejoin:miter;"/>
   </g>
   <g id="text_11">
    <!-- Yes -->
    <g style="fill:#262626;" transform="translate(382.108338 32.318856)scale(0.1 -0.1)">
     <use xlink:href="#DejaVuSans-59"/>
     <use x="47.833984" xlink:href="#DejaVuSans-65"/>
     <use x="109.357422" xlink:href="#DejaVuSans-73"/>
    </g>
   </g>
   <g id="text_12">
    <!-- 23% -->
    <g style="fill:#262626;" transform="translate(367.229563 42.985732)scale(0.1 -0.1)">
     <defs>
      <path d="M 1228 531 
L 3431 531 
L 3431 0 
L 469 0 
L 469 531 
Q 828 903 1448 1529 
Q 2069 2156 2228 2338 
Q 2531 2678 2651 2914 
Q 2772 3150 2772 3378 
Q 2772 3750 2511 3984 
Q 2250 4219 1831 4219 
Q 1534 4219 1204 4116 
Q 875 4013 500 3803 
L 500 4441 
Q 881 4594 1212 4672 
Q 1544 4750 1819 4750 
Q 2544 4750 2975 4387 
Q 3406 4025 3406 3419 
Q 3406 3131 3298 2873 
Q 3191 2616 2906 2266 
Q 2828 2175 2409 1742 
Q 1991 1309 1228 531 
z
" id="DejaVuSans-32" transform="scale(0.015625)"/>
      <path d="M 2597 2516 
Q 3050 2419 3304 2112 
Q 3559 1806 3559 1356 
Q 3559 666 3084 287 
Q 2609 -91 1734 -91 
Q 1441 -91 1130 -33 
Q 819 25 488 141 
L 488 750 
Q 750 597 1062 519 
Q 1375 441 1716 441 
Q 2309 441 2620 675 
Q 2931 909 2931 1356 
Q 2931 1769 2642 2001 
Q 2353 2234 1838 2234 
L 1294 2234 
L 1294 2753 
L 1863 2753 
Q 2328 2753 2575 2939 
Q 2822 3125 2822 3475 
Q 2822 3834 2567 4026 
Q 2313 4219 1838 4219 
Q 1578 4219 1281 4162 
Q 984 4106 628 3988 
L 628 4550 
Q 988 4650 1302 4700 
Q 1616 4750 1894 4750 
Q 2613 4750 3031 4423 
Q 3450 4097 3450 3541 
Q 3450 3153 3228 2886 
Q 3006 2619 2597 2516 
z
" id="DejaVuSans-33" transform="scale(0.015625)"/>
     </defs>
     <use xlink:href="#DejaVuSans-32"/>
     <use x="63.623047" xlink:href="#DejaVuSans-33"/>
     <use x="127.246094" xlink:href="#DejaVuSans-25"/>
    </g>
   </g>
   <g id="text_13">
    <!-- No -->
    <g style="fill:#262626;" transform="translate(351.187064 81.386487)scale(0.1 -0.1)">
     <use xlink:href="#DejaVuSans-4e"/>
     <use x="74.804688" xlink:href="#DejaVuSans-6f"/>
    </g>
   </g>
   <g id="text_14">
    <!-- 77% -->
    <g style="fill:#262626;" transform="translate(357.439277 70.719611)scale(0.1 -0.1)">
     <defs>
      <path d="M 525 4666 
L 3525 4666 
L 3525 4397 
L 1831 0 
L 1172 0 
L 2766 4134 
L 525 4134 
L 525 4666 
z
" id="DejaVuSans-37" transform="scale(0.015625)"/>
     </defs>
     <use xlink:href="#DejaVuSans-37"/>
     <use x="63.623047" xlink:href="#DejaVuSans-37"/>
     <use x="127.246094" xlink:href="#DejaVuSans-25"/>
    </g>
   </g>
   <g id="text_15">
    <!-- Version -->
    <g style="fill:#262626;" transform="translate(351.00709 20.88)scale(0.12 -0.12)">
     <defs>
      <path d="M 1831 0 
L 50 4666 
L 709 4666 
L 2188 738 
L 3669 4666 
L 4325 4666 
L 2547 0 
L 1831 0 
z
" id="DejaVuSans-56" transform="scale(0.015625)"/>
     </defs>
     <use xlink:href="#DejaVuSans-56"/>
     <use x="60.658203" xlink:href="#DejaVuSans-65"/>
     <use x="122.181641" xlink:href="#DejaVuSans-72"/>
     <use x="163.294922" xlink:href="#DejaVuSans-73"/>
     <use x="215.394531" xlink:href="#DejaVuSans-69"/>
     <use x="243.177734" xlink:href="#DejaVuSans-6f"/>
     <use x="304.359375" xlink:href="#DejaVuSans-6e"/>
    </g>
   </g>
  </g>
  <g id="axes_4">
   <g id="matplotlib.axis_7"/>
   <g id="matplotlib.axis_8"/>
   <g id="patch_8">
    <path d="M 106.614994 125.48551 
C 104.01695 120.985564 99.946307 117.515189 95.092021 115.661744 
C 90.237736 113.808299 84.890042 113.682601 79.954034 115.305924 
C 75.018026 116.929246 70.788826 120.204532 67.982223 124.577441 
C 65.175621 128.950349 63.959421 134.159427 64.539465 139.32304 
L 87.022047 136.797503 
L 106.614994 125.48551 
z
" style="fill:#1f77b4;stroke:#ffffff;stroke-linejoin:miter;"/>
   </g>
   <g id="patch_9">
    <path d="M 65.246266 141.472198 
C 65.621715 144.814484 66.737785 148.031369 68.513001 150.888019 
C 70.288216 153.744669 72.678304 156.169837 75.508786 157.986485 
C 78.339268 159.803134 81.539551 160.965954 84.876012 161.39006 
C 88.212473 161.814166 91.6019 161.48898 94.796863 160.438241 
C 97.991825 159.387501 100.91264 157.637415 103.346086 155.315739 
C 105.779531 152.994062 107.664917 150.158699 108.864608 147.016633 
C 110.064299 143.874567 110.548375 140.504162 110.281499 137.151459 
C 110.014622 133.798756 109.003448 130.547374 107.321794 127.634664 
L 87.728848 138.946661 
L 65.246266 141.472198 
z
" style="fill:#ff7f0e;stroke:#ffffff;stroke-linejoin:miter;"/>
   </g>
   <g id="text_16">
    <!-- Yes -->
    <g style="fill:#262626;" transform="translate(63.10192 115.916141)scale(0.1 -0.1)">
     <use xlink:href="#DejaVuSans-59"/>
     <use x="47.833984" xlink:href="#DejaVuSans-65"/>
     <use x="109.357422" xlink:href="#DejaVuSans-73"/>
    </g>
   </g>
   <g id="text_17">
    <!-- 43% -->
    <g style="fill:#262626;" transform="translate(71.667958 126.661931)scale(0.1 -0.1)">
     <use xlink:href="#DejaVuSans-34"/>
     <use x="63.623047" xlink:href="#DejaVuSans-33"/>
     <use x="127.246094" xlink:href="#DejaVuSans-25"/>
    </g>
   </g>
   <g id="text_18">
    <!-- No -->
    <g style="fill:#262626;" transform="translate(95.503664 165.346774)scale(0.1 -0.1)">
     <use xlink:href="#DejaVuSans-4e"/>
     <use x="74.804688" xlink:href="#DejaVuSans-6f"/>
    </g>
   </g>
   <g id="text_19">
    <!-- 57% -->
    <g style="fill:#262626;" transform="translate(80.856376 154.600984)scale(0.1 -0.1)">
     <defs>
      <path d="M 691 4666 
L 3169 4666 
L 3169 4134 
L 1269 4134 
L 1269 2991 
Q 1406 3038 1543 3061 
Q 1681 3084 1819 3084 
Q 2600 3084 3056 2656 
Q 3513 2228 3513 1497 
Q 3513 744 3044 326 
Q 2575 -91 1722 -91 
Q 1428 -91 1123 -41 
Q 819 9 494 109 
L 494 744 
Q 775 591 1075 516 
Q 1375 441 1709 441 
Q 2250 441 2565 725 
Q 2881 1009 2881 1497 
Q 2881 1984 2565 2268 
Q 2250 2553 1709 2553 
Q 1456 2553 1204 2497 
Q 953 2441 691 2322 
L 691 4666 
z
" id="DejaVuSans-35" transform="scale(0.015625)"/>
     </defs>
     <use xlink:href="#DejaVuSans-35"/>
     <use x="63.623047" xlink:href="#DejaVuSans-37"/>
     <use x="127.246094" xlink:href="#DejaVuSans-25"/>
    </g>
   </g>
   <g id="text_20">
    <!-- Homepage -->
    <g style="fill:#262626;" transform="translate(55.022285 104.666677)scale(0.12 -0.12)">
     <defs>
      <path d="M 628 4666 
L 1259 4666 
L 1259 2753 
L 3553 2753 
L 3553 4666 
L 4184 4666 
L 4184 0 
L 3553 0 
L 3553 2222 
L 1259 2222 
L 1259 0 
L 628 0 
L 628 4666 
z
" id="DejaVuSans-48" transform="scale(0.015625)"/>
      <path d="M 2906 1791 
Q 2906 2416 2648 2759 
Q 2391 3103 1925 3103 
Q 1463 3103 1205 2759 
Q 947 2416 947 1791 
Q 947 1169 1205 825 
Q 1463 481 1925 481 
Q 2391 481 2648 825 
Q 2906 1169 2906 1791 
z
M 3481 434 
Q 3481 -459 3084 -895 
Q 2688 -1331 1869 -1331 
Q 1566 -1331 1297 -1286 
Q 1028 -1241 775 -1147 
L 775 -588 
Q 1028 -725 1275 -790 
Q 1522 -856 1778 -856 
Q 2344 -856 2625 -561 
Q 2906 -266 2906 331 
L 2906 616 
Q 2728 306 2450 153 
Q 2172 0 1784 0 
Q 1141 0 747 490 
Q 353 981 353 1791 
Q 353 2603 747 3093 
Q 1141 3584 1784 3584 
Q 2172 3584 2450 3431 
Q 2728 3278 2906 2969 
L 2906 3500 
L 3481 3500 
L 3481 434 
z
" id="DejaVuSans-67" transform="scale(0.015625)"/>
     </defs>
     <use xlink:href="#DejaVuSans-48"/>
     <use x="75.195312" xlink:href="#DejaVuSans-6f"/>
     <use x="136.376953" xlink:href="#DejaVuSans-6d"/>
     <use x="233.789062" xlink:href="#DejaVuSans-65"/>
     <use x="295.3125" xlink:href="#DejaVuSans-70"/>
     <use x="358.789062" xlink:href="#DejaVuSans-61"/>
     <use x="420.068359" xlink:href="#DejaVuSans-67"/>
     <use x="483.544922" xlink:href="#DejaVuSans-65"/>
    </g>
   </g>
  </g>
  <g id="axes_5">
   <g id="matplotlib.axis_9"/>
   <g id="matplotlib.axis_10"/>
   <g id="patch_10">
    <path d="M 250.685592 125.480905 
C 247.87928 120.620231 243.362201 116.973607 238.019085 115.255276 
C 232.675969 113.536944 226.880024 113.866927 221.766464 116.180593 
L 231.092644 136.792899 
L 250.685592 125.480905 
z
" style="fill:#1f77b4;stroke:#ffffff;stroke-linejoin:miter;"/>
   </g>
   <g id="patch_11">
    <path d="M 221.07382 118.334355 
C 219.003942 119.270886 217.086891 120.513881 215.387269 122.021452 
C 213.687648 123.529023 212.224765 125.284043 211.04792 127.22737 
C 209.871074 129.170697 208.993635 131.280252 208.445172 133.484945 
C 207.896709 135.689638 207.683453 137.964423 207.812591 140.23264 
C 207.941728 142.500856 208.411791 144.736737 209.206941 146.864934 
C 210.00209 148.993131 211.113291 150.989466 212.503097 152.786664 
C 213.892904 154.583863 215.545526 156.161507 217.405273 157.466431 
C 219.265019 158.771355 221.310761 159.788735 223.473559 160.484285 
C 225.636357 161.179835 227.891639 161.545653 230.163405 161.569412 
C 232.435171 161.59317 234.697611 161.2746 236.874483 160.624435 
C 239.051354 159.974271 241.117927 158.999899 243.004558 157.734155 
C 244.891189 156.468412 246.576445 154.925676 248.003535 153.157938 
C 249.430624 151.390199 250.583334 149.417541 251.422819 147.306439 
C 252.262304 145.195338 252.779027 142.969777 252.955574 140.704757 
C 253.132121 138.439737 252.966487 136.16099 252.464253 133.945309 
C 251.96202 131.729627 251.128893 129.602182 249.992948 127.634668 
L 230.4 138.946661 
L 221.07382 118.334355 
z
" style="fill:#ff7f0e;stroke:#ffffff;stroke-linejoin:miter;"/>
   </g>
   <g id="text_21">
    <!-- Yes -->
    <g style="fill:#262626;" transform="translate(238.711729 115.860888)scale(0.1 -0.1)">
     <use xlink:href="#DejaVuSans-59"/>
     <use x="47.833984" xlink:href="#DejaVuSans-65"/>
     <use x="109.357422" xlink:href="#DejaVuSans-73"/>
    </g>
   </g>
   <g id="text_22">
    <!-- 23% -->
    <g style="fill:#262626;" transform="translate(224.135227 126.6297)scale(0.1 -0.1)">
     <use xlink:href="#DejaVuSans-32"/>
     <use x="63.623047" xlink:href="#DejaVuSans-33"/>
     <use x="127.246094" xlink:href="#DejaVuSans-25"/>
    </g>
   </g>
   <g id="text_23">
    <!-- No -->
    <g style="fill:#262626;" transform="translate(209.180915 165.397422)scale(0.1 -0.1)">
     <use xlink:href="#DejaVuSans-4e"/>
     <use x="74.804688" xlink:href="#DejaVuSans-6f"/>
    </g>
   </g>
   <g id="text_24">
    <!-- 77% -->
    <g style="fill:#262626;" transform="translate(215.130854 154.628611)scale(0.1 -0.1)">
     <use xlink:href="#DejaVuSans-37"/>
     <use x="63.623047" xlink:href="#DejaVuSans-37"/>
     <use x="127.246094" xlink:href="#DejaVuSans-25"/>
    </g>
   </g>
   <g id="text_25">
    <!-- Contact Email -->
    <g style="fill:#262626;" transform="translate(188.503125 104.666677)scale(0.12 -0.12)">
     <defs>
      <path d="M 4122 4306 
L 4122 3641 
Q 3803 3938 3442 4084 
Q 3081 4231 2675 4231 
Q 1875 4231 1450 3742 
Q 1025 3253 1025 2328 
Q 1025 1406 1450 917 
Q 1875 428 2675 428 
Q 3081 428 3442 575 
Q 3803 722 4122 1019 
L 4122 359 
Q 3791 134 3420 21 
Q 3050 -91 2638 -91 
Q 1578 -91 968 557 
Q 359 1206 359 2328 
Q 359 3453 968 4101 
Q 1578 4750 2638 4750 
Q 3056 4750 3426 4639 
Q 3797 4528 4122 4306 
z
" id="DejaVuSans-43" transform="scale(0.015625)"/>
      <path id="DejaVuSans-20" transform="scale(0.015625)"/>
      <path d="M 628 4666 
L 3578 4666 
L 3578 4134 
L 1259 4134 
L 1259 2753 
L 3481 2753 
L 3481 2222 
L 1259 2222 
L 1259 531 
L 3634 531 
L 3634 0 
L 628 0 
L 628 4666 
z
" id="DejaVuSans-45" transform="scale(0.015625)"/>
      <path d="M 603 4863 
L 1178 4863 
L 1178 0 
L 603 0 
L 603 4863 
z
" id="DejaVuSans-6c" transform="scale(0.015625)"/>
     </defs>
     <use xlink:href="#DejaVuSans-43"/>
     <use x="69.824219" xlink:href="#DejaVuSans-6f"/>
     <use x="131.005859" xlink:href="#DejaVuSans-6e"/>
     <use x="194.384766" xlink:href="#DejaVuSans-74"/>
     <use x="233.59375" xlink:href="#DejaVuSans-61"/>
     <use x="294.873047" xlink:href="#DejaVuSans-63"/>
     <use x="349.853516" xlink:href="#DejaVuSans-74"/>
     <use x="389.0625" xlink:href="#DejaVuSans-20"/>
     <use x="420.849609" xlink:href="#DejaVuSans-45"/>
     <use x="484.033203" xlink:href="#DejaVuSans-6d"/>
     <use x="581.445312" xlink:href="#DejaVuSans-61"/>
     <use x="642.724609" xlink:href="#DejaVuSans-69"/>
     <use x="670.507812" xlink:href="#DejaVuSans-6c"/>
    </g>
   </g>
  </g>
  <g id="axes_6">
   <g id="matplotlib.axis_11"/>
   <g id="matplotlib.axis_12"/>
   <g id="patch_12">
    <path d="M 390.514279 126.929887 
C 388.330168 123.146897 385.096476 120.076215 381.205669 118.090523 
C 377.314861 116.104832 372.930982 115.287851 368.586094 115.738737 
C 364.241206 116.189622 360.118497 117.889364 356.718331 120.631667 
C 353.318166 123.373971 350.783901 127.043215 349.423117 131.194073 
C 348.062332 135.34493 347.932399 139.802392 349.049089 144.025467 
C 350.165779 148.248541 352.48201 152.059174 355.716665 154.994879 
C 358.95132 157.930583 362.96802 159.867583 367.279267 160.57079 
C 371.590514 161.273996 376.014539 160.713761 380.014405 158.958078 
L 370.921331 138.241881 
L 390.514279 126.929887 
z
" style="fill:#1f77b4;stroke:#ffffff;stroke-linejoin:miter;"/>
   </g>
   <g id="patch_13">
    <path d="M 382.164226 159.662858 
C 385.076472 158.38457 387.686705 156.506434 389.824149 154.151328 
C 391.961594 151.796222 393.578597 149.016652 394.569366 145.994471 
C 395.560134 142.972291 395.902579 139.77488 395.574296 136.611428 
C 395.246013 133.447976 394.254321 130.389013 392.664102 127.634671 
L 373.071152 138.946661 
L 382.164226 159.662858 
z
" style="fill:#ff7f0e;stroke:#ffffff;stroke-linejoin:miter;"/>
   </g>
   <g id="text_26">
    <!-- Yes -->
    <g style="fill:#262626;" transform="translate(331.127983 133.248667)scale(0.1 -0.1)">
     <use xlink:href="#DejaVuSans-59"/>
     <use x="47.833984" xlink:href="#DejaVuSans-65"/>
     <use x="109.357422" xlink:href="#DejaVuSans-73"/>
    </g>
   </g>
   <g id="text_27">
    <!-- 73% -->
    <g style="fill:#262626;" transform="translate(346.909121 136.772571)scale(0.1 -0.1)">
     <use xlink:href="#DejaVuSans-37"/>
     <use x="63.623047" xlink:href="#DejaVuSans-33"/>
     <use x="127.246094" xlink:href="#DejaVuSans-25"/>
    </g>
   </g>
   <g id="text_28">
    <!-- No -->
    <g style="fill:#262626;" transform="translate(396.719187 149.458627)scale(0.1 -0.1)">
     <use xlink:href="#DejaVuSans-4e"/>
     <use x="74.804688" xlink:href="#DejaVuSans-6f"/>
    </g>
   </g>
   <g id="text_29">
    <!-- 27% -->
    <g style="fill:#262626;" transform="translate(374.856799 145.934722)scale(0.1 -0.1)">
     <use xlink:href="#DejaVuSans-32"/>
     <use x="63.623047" xlink:href="#DejaVuSans-37"/>
     <use x="127.246094" xlink:href="#DejaVuSans-25"/>
    </g>
   </g>
   <g id="text_30">
    <!-- Pattern -->
    <g style="fill:#262626;" transform="translate(351.486152 104.666677)scale(0.12 -0.12)">
     <defs>
      <path d="M 1259 4147 
L 1259 2394 
L 2053 2394 
Q 2494 2394 2734 2622 
Q 2975 2850 2975 3272 
Q 2975 3691 2734 3919 
Q 2494 4147 2053 4147 
L 1259 4147 
z
M 628 4666 
L 2053 4666 
Q 2838 4666 3239 4311 
Q 3641 3956 3641 3272 
Q 3641 2581 3239 2228 
Q 2838 1875 2053 1875 
L 1259 1875 
L 1259 0 
L 628 0 
L 628 4666 
z
" id="DejaVuSans-50" transform="scale(0.015625)"/>
     </defs>
     <use xlink:href="#DejaVuSans-50"/>
     <use x="55.802734" xlink:href="#DejaVuSans-61"/>
     <use x="117.082031" xlink:href="#DejaVuSans-74"/>
     <use x="156.291016" xlink:href="#DejaVuSans-74"/>
     <use x="195.5" xlink:href="#DejaVuSans-65"/>
     <use x="257.023438" xlink:href="#DejaVuSans-72"/>
     <use x="296.386719" xlink:href="#DejaVuSans-6e"/>
    </g>
   </g>
  </g>
  <g id="axes_7">
   <g id="matplotlib.axis_13"/>
   <g id="matplotlib.axis_14"/>
   <g id="patch_14">
    <path d="M 105.128187 211.974995 
C 103.774114 209.629672 102.009866 207.546418 99.919573 205.824579 
C 97.829281 204.10274 95.446707 202.770126 92.88547 201.890285 
C 90.324233 201.010445 87.625703 200.597589 84.918563 200.671407 
C 82.211424 200.745225 79.539402 201.304523 77.029917 202.32263 
C 74.520433 203.340738 72.214021 204.80121 70.220666 206.634401 
C 68.227311 208.467592 66.579211 210.643892 65.354959 213.059521 
C 64.130706 215.475149 63.350076 218.091087 63.050293 220.782589 
C 62.75051 223.474091 62.936418 226.197684 63.59915 228.823486 
C 64.261882 231.449289 65.390734 233.934889 66.931875 236.161757 
C 68.473016 238.388624 70.401552 240.32079 72.625518 241.866114 
C 74.849485 243.411439 77.332958 244.544962 79.95751 245.21263 
C 82.582062 245.880297 85.3053 246.071325 87.997361 245.776603 
C 90.689422 245.481881 93.306824 244.70617 95.724749 243.486461 
C 98.142675 242.266752 100.322069 240.622746 102.159005 238.632842 
C 103.995941 236.642937 105.460746 234.339274 106.48357 231.831709 
C 107.506393 229.324143 108.070714 226.653177 108.149621 223.946181 
L 85.535239 223.286988 
L 105.128187 211.974995 
z
" style="fill:#1f77b4;stroke:#ffffff;stroke-linejoin:miter;"/>
   </g>
   <g id="patch_15">
    <path d="M 110.34323 223.392531 
C 110.404053 221.30591 110.175788 219.220875 109.664937 217.19684 
C 109.154086 215.172805 108.365549 213.229178 107.321795 211.421344 
L 87.728848 222.733339 
L 110.34323 223.392531 
z
" style="fill:#ff7f0e;stroke:#ffffff;stroke-linejoin:miter;"/>
   </g>
   <g id="text_31">
    <!-- Yes -->
    <g style="fill:#262626;" transform="translate(45.260229 232.136511)scale(0.1 -0.1)">
     <use xlink:href="#DejaVuSans-59"/>
     <use x="47.833984" xlink:href="#DejaVuSans-65"/>
     <use x="109.357422" xlink:href="#DejaVuSans-73"/>
    </g>
   </g>
   <g id="text_32">
    <!-- 91% -->
    <g style="fill:#262626;" transform="translate(61.260304 229.368262)scale(0.1 -0.1)">
     <defs>
      <path d="M 703 97 
L 703 672 
Q 941 559 1184 500 
Q 1428 441 1663 441 
Q 2288 441 2617 861 
Q 2947 1281 2994 2138 
Q 2813 1869 2534 1725 
Q 2256 1581 1919 1581 
Q 1219 1581 811 2004 
Q 403 2428 403 3163 
Q 403 3881 828 4315 
Q 1253 4750 1959 4750 
Q 2769 4750 3195 4129 
Q 3622 3509 3622 2328 
Q 3622 1225 3098 567 
Q 2575 -91 1691 -91 
Q 1453 -91 1209 -44 
Q 966 3 703 97 
z
M 1959 2075 
Q 2384 2075 2632 2365 
Q 2881 2656 2881 3163 
Q 2881 3666 2632 3958 
Q 2384 4250 1959 4250 
Q 1534 4250 1286 3958 
Q 1038 3666 1038 3163 
Q 1038 2656 1286 2365 
Q 1534 2075 1959 2075 
z
" id="DejaVuSans-39" transform="scale(0.015625)"/>
     </defs>
     <use xlink:href="#DejaVuSans-39"/>
     <use x="63.623047" xlink:href="#DejaVuSans-31"/>
     <use x="127.246094" xlink:href="#DejaVuSans-25"/>
    </g>
   </g>
   <g id="text_33">
    <!-- No -->
    <g style="fill:#262626;" transform="translate(111.858546 219.402565)scale(0.1 -0.1)">
     <use xlink:href="#DejaVuSans-4e"/>
     <use x="74.804688" xlink:href="#DejaVuSans-6f"/>
    </g>
   </g>
   <g id="text_34">
    <!-- 9% -->
    <g style="fill:#262626;" transform="translate(92.95847 222.170815)scale(0.1 -0.1)">
     <use xlink:href="#DejaVuSans-39"/>
     <use x="63.623047" xlink:href="#DejaVuSans-25"/>
    </g>
   </g>
   <g id="text_35">
    <!-- Format URL -->
    <g style="fill:#262626;" transform="translate(52.778848 188.453354)scale(0.12 -0.12)">
     <defs>
      <path d="M 628 4666 
L 3309 4666 
L 3309 4134 
L 1259 4134 
L 1259 2759 
L 3109 2759 
L 3109 2228 
L 1259 2228 
L 1259 0 
L 628 0 
L 628 4666 
z
" id="DejaVuSans-46" transform="scale(0.015625)"/>
      <path d="M 556 4666 
L 1191 4666 
L 1191 1831 
Q 1191 1081 1462 751 
Q 1734 422 2344 422 
Q 2950 422 3222 751 
Q 3494 1081 3494 1831 
L 3494 4666 
L 4128 4666 
L 4128 1753 
Q 4128 841 3676 375 
Q 3225 -91 2344 -91 
Q 1459 -91 1007 375 
Q 556 841 556 1753 
L 556 4666 
z
" id="DejaVuSans-55" transform="scale(0.015625)"/>
      <path d="M 2841 2188 
Q 3044 2119 3236 1894 
Q 3428 1669 3622 1275 
L 4263 0 
L 3584 0 
L 2988 1197 
Q 2756 1666 2539 1819 
Q 2322 1972 1947 1972 
L 1259 1972 
L 1259 0 
L 628 0 
L 628 4666 
L 2053 4666 
Q 2853 4666 3247 4331 
Q 3641 3997 3641 3322 
Q 3641 2881 3436 2590 
Q 3231 2300 2841 2188 
z
M 1259 4147 
L 1259 2491 
L 2053 2491 
Q 2509 2491 2742 2702 
Q 2975 2913 2975 3322 
Q 2975 3731 2742 3939 
Q 2509 4147 2053 4147 
L 1259 4147 
z
" id="DejaVuSans-52" transform="scale(0.015625)"/>
      <path d="M 628 4666 
L 1259 4666 
L 1259 531 
L 3531 531 
L 3531 0 
L 628 0 
L 628 4666 
z
" id="DejaVuSans-4c" transform="scale(0.015625)"/>
     </defs>
     <use xlink:href="#DejaVuSans-46"/>
     <use x="53.894531" xlink:href="#DejaVuSans-6f"/>
     <use x="115.076172" xlink:href="#DejaVuSans-72"/>
     <use x="154.439453" xlink:href="#DejaVuSans-6d"/>
     <use x="251.851562" xlink:href="#DejaVuSans-61"/>
     <use x="313.130859" xlink:href="#DejaVuSans-74"/>
     <use x="352.339844" xlink:href="#DejaVuSans-20"/>
     <use x="384.126953" xlink:href="#DejaVuSans-55"/>
     <use x="457.320312" xlink:href="#DejaVuSans-52"/>
     <use x="526.802734" xlink:href="#DejaVuSans-4c"/>
    </g>
   </g>
  </g>
  <g id="axes_8">
   <g id="matplotlib.axis_15"/>
   <g id="matplotlib.axis_16"/>
   <g id="patch_16">
    <path d="M 247.733252 211.310799 
C 246.519748 209.208949 244.975897 207.315998 243.160989 205.704641 
C 241.34608 204.093285 239.28365 202.784421 237.052906 201.828314 
C 234.822162 200.872208 232.45203 200.281258 230.033537 200.078159 
C 227.615043 199.875061 225.179549 200.062449 222.82059 200.633125 
C 220.461631 201.203802 218.209797 202.150367 216.151568 203.436468 
C 214.09334 204.72257 212.255408 206.331529 210.708358 208.201555 
C 209.161308 210.071581 207.925202 212.178423 207.047512 214.44117 
C 206.169822 216.703916 205.661929 219.093223 205.54334 221.517331 
C 205.424751 223.941438 205.697002 226.368911 206.349639 228.706522 
C 207.002276 231.044133 208.026835 233.261569 209.383968 235.27367 
C 210.741101 237.285771 212.41321 239.066444 214.336076 240.547304 
C 216.258942 242.028163 218.407632 243.190006 220.699624 243.988211 
C 222.991617 244.786415 225.39719 245.210632 227.823959 245.244568 
C 230.250729 245.278504 232.667224 244.92172 234.98064 244.187917 
C 237.294056 243.454115 239.474393 242.35281 241.437917 240.926297 
C 243.40144 239.499785 245.122687 237.766565 246.535553 235.7932 
L 228.140304 222.622792 
L 247.733252 211.310799 
z
" style="fill:#1f77b4;stroke:#ffffff;stroke-linejoin:miter;"/>
   </g>
   <g id="patch_17">
    <path d="M 248.795249 235.903746 
C 251.325548 232.36965 252.784582 228.180132 252.996963 223.838803 
C 253.209345 219.497473 252.16621 215.185547 249.99295 211.421349 
L 230.4 222.733339 
L 248.795249 235.903746 
z
" style="fill:#ff7f0e;stroke:#ffffff;stroke-linejoin:miter;"/>
   </g>
   <g id="text_36">
    <!-- Yes -->
    <g style="fill:#262626;" transform="translate(187.138331 224.166159)scale(0.1 -0.1)">
     <use xlink:href="#DejaVuSans-59"/>
     <use x="47.833984" xlink:href="#DejaVuSans-65"/>
     <use x="109.357422" xlink:href="#DejaVuSans-73"/>
    </g>
   </g>
   <g id="text_37">
    <!-- 82% -->
    <g style="fill:#262626;" transform="translate(203.468844 224.71889)scale(0.1 -0.1)">
     <use xlink:href="#DejaVuSans-38"/>
     <use x="63.623047" xlink:href="#DejaVuSans-32"/>
     <use x="127.246094" xlink:href="#DejaVuSans-25"/>
    </g>
   </g>
   <g id="text_38">
    <!-- No -->
    <g style="fill:#262626;" transform="translate(255.25666 226.708724)scale(0.1 -0.1)">
     <use xlink:href="#DejaVuSans-4e"/>
     <use x="74.804688" xlink:href="#DejaVuSans-6f"/>
    </g>
   </g>
   <g id="text_39">
    <!-- 18% -->
    <g style="fill:#262626;" transform="translate(232.844897 226.155992)scale(0.1 -0.1)">
     <use xlink:href="#DejaVuSans-31"/>
     <use x="63.623047" xlink:href="#DejaVuSans-38"/>
     <use x="127.246094" xlink:href="#DejaVuSans-25"/>
    </g>
   </g>
   <g id="text_40">
    <!-- Example -->
    <g style="fill:#262626;" transform="translate(204.368437 188.453354)scale(0.12 -0.12)">
     <defs>
      <path d="M 3513 3500 
L 2247 1797 
L 3578 0 
L 2900 0 
L 1881 1375 
L 863 0 
L 184 0 
L 1544 1831 
L 300 3500 
L 978 3500 
L 1906 2253 
L 2834 3500 
L 3513 3500 
z
" id="DejaVuSans-78" transform="scale(0.015625)"/>
     </defs>
     <use xlink:href="#DejaVuSans-45"/>
     <use x="63.183594" xlink:href="#DejaVuSans-78"/>
     <use x="122.363281" xlink:href="#DejaVuSans-61"/>
     <use x="183.642578" xlink:href="#DejaVuSans-6d"/>
     <use x="281.054688" xlink:href="#DejaVuSans-70"/>
     <use x="344.53125" xlink:href="#DejaVuSans-6c"/>
     <use x="372.314453" xlink:href="#DejaVuSans-65"/>
    </g>
   </g>
  </g>
  <g id="axes_9">
   <g id="matplotlib.axis_17"/>
   <g id="matplotlib.axis_18"/>
   <g id="patch_18">
    <path d="M 394.475996 210.066546 
C 394.029252 209.292763 393.537062 208.546123 393.002012 207.830552 
C 392.466962 207.114981 391.889991 206.431733 391.274133 205.784401 
L 374.883048 221.37854 
L 394.475996 210.066546 
z
" style="fill:#1f77b4;stroke:#ffffff;stroke-linejoin:miter;"/>
   </g>
   <g id="patch_19">
    <path d="M 389.462236 207.1392 
C 387.492103 205.068382 385.147263 203.389552 382.552078 202.19175 
C 379.956893 200.993948 377.158069 200.298731 374.304045 200.142969 
C 371.450021 199.987208 368.592161 200.373706 365.882036 201.281965 
C 363.17191 202.190224 360.658294 203.603899 358.474499 205.448012 
C 356.290704 207.292125 354.476032 209.533489 353.126728 212.053229 
C 351.777423 214.572969 350.917769 217.325739 350.593358 220.16554 
C 350.268947 223.005341 350.485618 225.881067 351.23188 228.640199 
C 351.978141 231.39933 353.240562 233.992212 354.952189 236.281327 
C 356.663816 238.570442 358.793845 240.514593 361.229305 242.010669 
C 363.664766 243.506745 366.361829 244.527822 369.177451 245.019745 
C 371.993073 245.511667 374.876581 245.465583 377.675045 244.883936 
C 380.473509 244.302289 383.136565 243.195547 385.522973 241.622408 
C 387.909382 240.049269 389.976196 238.038044 391.613798 235.695402 
C 393.2514 233.35276 394.430319 230.72086 395.088029 227.93929 
C 395.745739 225.15772 395.870403 222.27654 395.45541 219.448555 
C 395.040417 216.620571 394.093235 213.896679 392.664099 211.421343 
L 373.071152 222.733339 
L 389.462236 207.1392 
z
" style="fill:#ff7f0e;stroke:#ffffff;stroke-linejoin:miter;"/>
   </g>
   <g id="text_41">
    <!-- Yes -->
    <g style="fill:#262626;" transform="translate(394.813908 209.235128)scale(0.1 -0.1)">
     <use xlink:href="#DejaVuSans-59"/>
     <use x="47.833984" xlink:href="#DejaVuSans-65"/>
     <use x="109.357422" xlink:href="#DejaVuSans-73"/>
    </g>
   </g>
   <g id="text_42">
    <!-- 4% -->
    <g style="fill:#262626;" transform="translate(377.822395 216.009122)scale(0.1 -0.1)">
     <use xlink:href="#DejaVuSans-34"/>
     <use x="63.623047" xlink:href="#DejaVuSans-25"/>
    </g>
   </g>
   <g id="text_43">
    <!-- No -->
    <g style="fill:#262626;" transform="translate(339.540293 240.395501)scale(0.1 -0.1)">
     <use xlink:href="#DejaVuSans-4e"/>
     <use x="74.804688" xlink:href="#DejaVuSans-6f"/>
    </g>
   </g>
   <g id="text_44">
    <!-- 96% -->
    <g style="fill:#262626;" transform="translate(351.086493 233.621507)scale(0.1 -0.1)">
     <use xlink:href="#DejaVuSans-39"/>
     <use x="63.623047" xlink:href="#DejaVuSans-36"/>
     <use x="127.246094" xlink:href="#DejaVuSans-25"/>
    </g>
   </g>
   <g id="text_45">
    <!-- Wikidata Database -->
    <g style="fill:#262626;" transform="translate(316.414277 188.453354)scale(0.12 -0.12)">
     <defs>
      <path d="M 213 4666 
L 850 4666 
L 1831 722 
L 2809 4666 
L 3519 4666 
L 4500 722 
L 5478 4666 
L 6119 4666 
L 4947 0 
L 4153 0 
L 3169 4050 
L 2175 0 
L 1381 0 
L 213 4666 
z
" id="DejaVuSans-57" transform="scale(0.015625)"/>
      <path d="M 581 4863 
L 1159 4863 
L 1159 1991 
L 2875 3500 
L 3609 3500 
L 1753 1863 
L 3688 0 
L 2938 0 
L 1159 1709 
L 1159 0 
L 581 0 
L 581 4863 
z
" id="DejaVuSans-6b" transform="scale(0.015625)"/>
      <path d="M 2906 2969 
L 2906 4863 
L 3481 4863 
L 3481 0 
L 2906 0 
L 2906 525 
Q 2725 213 2448 61 
Q 2172 -91 1784 -91 
Q 1150 -91 751 415 
Q 353 922 353 1747 
Q 353 2572 751 3078 
Q 1150 3584 1784 3584 
Q 2172 3584 2448 3432 
Q 2725 3281 2906 2969 
z
M 947 1747 
Q 947 1113 1208 752 
Q 1469 391 1925 391 
Q 2381 391 2643 752 
Q 2906 1113 2906 1747 
Q 2906 2381 2643 2742 
Q 2381 3103 1925 3103 
Q 1469 3103 1208 2742 
Q 947 2381 947 1747 
z
" id="DejaVuSans-64" transform="scale(0.015625)"/>
      <path d="M 3116 1747 
Q 3116 2381 2855 2742 
Q 2594 3103 2138 3103 
Q 1681 3103 1420 2742 
Q 1159 2381 1159 1747 
Q 1159 1113 1420 752 
Q 1681 391 2138 391 
Q 2594 391 2855 752 
Q 3116 1113 3116 1747 
z
M 1159 2969 
Q 1341 3281 1617 3432 
Q 1894 3584 2278 3584 
Q 2916 3584 3314 3078 
Q 3713 2572 3713 1747 
Q 3713 922 3314 415 
Q 2916 -91 2278 -91 
Q 1894 -91 1617 61 
Q 1341 213 1159 525 
L 1159 0 
L 581 0 
L 581 4863 
L 1159 4863 
L 1159 2969 
z
" id="DejaVuSans-62" transform="scale(0.015625)"/>
     </defs>
     <use xlink:href="#DejaVuSans-57"/>
     <use x="96.626953" xlink:href="#DejaVuSans-69"/>
     <use x="124.410156" xlink:href="#DejaVuSans-6b"/>
     <use x="182.320312" xlink:href="#DejaVuSans-69"/>
     <use x="210.103516" xlink:href="#DejaVuSans-64"/>
     <use x="273.580078" xlink:href="#DejaVuSans-61"/>
     <use x="334.859375" xlink:href="#DejaVuSans-74"/>
     <use x="374.068359" xlink:href="#DejaVuSans-61"/>
     <use x="435.347656" xlink:href="#DejaVuSans-20"/>
     <use x="467.134766" xlink:href="#DejaVuSans-44"/>
     <use x="544.136719" xlink:href="#DejaVuSans-61"/>
     <use x="605.416016" xlink:href="#DejaVuSans-74"/>
     <use x="644.625" xlink:href="#DejaVuSans-61"/>
     <use x="705.904297" xlink:href="#DejaVuSans-62"/>
     <use x="769.380859" xlink:href="#DejaVuSans-61"/>
     <use x="830.660156" xlink:href="#DejaVuSans-73"/>
     <use x="882.759766" xlink:href="#DejaVuSans-65"/>
    </g>
   </g>
  </g>
  <g id="axes_10">
   <g id="matplotlib.axis_19"/>
   <g id="matplotlib.axis_20"/>
   <g id="patch_20">
    <path d="M 108.911749 293.59852 
C 107.900043 291.846194 106.657812 290.237487 105.218329 288.815489 
C 103.778846 287.39349 102.155079 286.17101 100.390521 285.180794 
L 89.318801 304.910513 
L 108.911749 293.59852 
z
" style="fill:#1f77b4;stroke:#ffffff;stroke-linejoin:miter;"/>
   </g>
   <g id="patch_21">
    <path d="M 98.800568 286.790296 
C 96.431863 285.461051 93.843022 284.569176 91.158223 284.157453 
C 88.473424 283.74573 85.736292 283.820849 83.078116 284.379205 
C 80.41994 284.937561 77.883913 285.970083 75.591678 287.427245 
C 73.299443 288.884406 71.288246 290.74253 69.654557 292.912488 
C 68.020868 295.082447 66.791232 297.528982 66.02463 300.134741 
C 65.258028 302.7405 64.966917 305.463145 65.16526 308.172078 
C 65.363603 310.881012 66.048177 313.532218 67.186146 315.998528 
C 68.324115 318.464839 69.896988 320.706179 71.82932 322.615041 
C 73.761653 324.523902 76.022047 326.069268 78.502079 327.177013 
C 80.982112 328.284758 83.641486 328.936883 86.352641 329.102107 
C 89.063795 329.267332 91.782679 328.942971 94.378876 328.144584 
C 96.975073 327.346196 99.406398 326.086755 101.556231 324.426671 
C 103.706063 322.766586 105.539471 320.732833 106.968512 318.422962 
C 108.397553 316.113091 109.399007 313.564636 109.924838 310.899835 
C 110.45067 308.235035 110.492334 305.497189 110.047833 302.817622 
C 109.603332 300.138055 108.679888 297.560306 107.321795 295.208021 
L 87.728848 306.520016 
L 98.800568 286.790296 
z
" style="fill:#ff7f0e;stroke:#ffffff;stroke-linejoin:miter;"/>
   </g>
   <g id="text_46">
    <!-- Yes -->
    <g style="fill:#262626;" transform="translate(106.808282 289.965361)scale(0.1 -0.1)">
     <use xlink:href="#DejaVuSans-59"/>
     <use x="47.833984" xlink:href="#DejaVuSans-65"/>
     <use x="109.357422" xlink:href="#DejaVuSans-73"/>
    </g>
   </g>
   <g id="text_47">
    <!-- 9% -->
    <g style="fill:#262626;" transform="translate(90.926486 298.012874)scale(0.1 -0.1)">
     <use xlink:href="#DejaVuSans-39"/>
     <use x="63.623047" xlink:href="#DejaVuSans-25"/>
    </g>
   </g>
   <g id="text_48">
    <!-- No -->
    <g style="fill:#262626;" transform="translate(56.639367 326.983918)scale(0.1 -0.1)">
     <use xlink:href="#DejaVuSans-4e"/>
     <use x="74.804688" xlink:href="#DejaVuSans-6f"/>
    </g>
   </g>
   <g id="text_49">
    <!-- 91% -->
    <g style="fill:#262626;" transform="translate(67.07585 318.936406)scale(0.1 -0.1)">
     <use xlink:href="#DejaVuSans-39"/>
     <use x="63.623047" xlink:href="#DejaVuSans-31"/>
     <use x="127.246094" xlink:href="#DejaVuSans-25"/>
    </g>
   </g>
   <g id="text_50">
    <!-- OBO -->
    <g style="fill:#262626;" transform="translate(74.271035 272.240031)scale(0.12 -0.12)">
     <defs>
      <path d="M 2522 4238 
Q 1834 4238 1429 3725 
Q 1025 3213 1025 2328 
Q 1025 1447 1429 934 
Q 1834 422 2522 422 
Q 3209 422 3611 934 
Q 4013 1447 4013 2328 
Q 4013 3213 3611 3725 
Q 3209 4238 2522 4238 
z
M 2522 4750 
Q 3503 4750 4090 4092 
Q 4678 3434 4678 2328 
Q 4678 1225 4090 567 
Q 3503 -91 2522 -91 
Q 1538 -91 948 565 
Q 359 1222 359 2328 
Q 359 3434 948 4092 
Q 1538 4750 2522 4750 
z
" id="DejaVuSans-4f" transform="scale(0.015625)"/>
      <path d="M 1259 2228 
L 1259 519 
L 2272 519 
Q 2781 519 3026 730 
Q 3272 941 3272 1375 
Q 3272 1813 3026 2020 
Q 2781 2228 2272 2228 
L 1259 2228 
z
M 1259 4147 
L 1259 2741 
L 2194 2741 
Q 2656 2741 2882 2914 
Q 3109 3088 3109 3444 
Q 3109 3797 2882 3972 
Q 2656 4147 2194 4147 
L 1259 4147 
z
M 628 4666 
L 2241 4666 
Q 2963 4666 3353 4366 
Q 3744 4066 3744 3513 
Q 3744 3084 3544 2831 
Q 3344 2578 2956 2516 
Q 3422 2416 3680 2098 
Q 3938 1781 3938 1306 
Q 3938 681 3513 340 
Q 3088 0 2303 0 
L 628 0 
L 628 4666 
z
" id="DejaVuSans-42" transform="scale(0.015625)"/>
     </defs>
     <use xlink:href="#DejaVuSans-4f"/>
     <use x="78.710938" xlink:href="#DejaVuSans-42"/>
     <use x="145.564453" xlink:href="#DejaVuSans-4f"/>
    </g>
   </g>
  </g>
  <g id="axes_11">
   <g id="matplotlib.axis_21"/>
   <g id="matplotlib.axis_22"/>
   <g id="patch_22">
    <path d="M 251.182564 293.283636 
C 249.312284 290.044216 246.667484 287.318636 243.485781 285.351772 
C 240.304078 283.384907 236.683697 282.237478 232.949904 282.012574 
L 231.589616 304.59563 
L 251.182564 293.283636 
z
" style="fill:#1f77b4;stroke:#ffffff;stroke-linejoin:miter;"/>
   </g>
   <g id="patch_23">
    <path d="M 231.760288 283.93696 
C 229.262879 283.786528 226.757727 284.051408 224.347001 284.720795 
C 221.936275 285.390183 219.653201 286.454852 217.590891 287.871382 
C 215.528582 289.287912 213.71546 291.036779 212.225472 293.046659 
C 210.735485 295.056538 209.589166 297.299729 208.833269 299.684744 
C 208.077372 302.069759 207.722314 304.563728 207.782576 307.064937 
C 207.842838 309.566146 208.317588 312.040123 209.187466 314.385969 
C 210.057344 316.731814 211.31036 318.917197 212.89541 320.85299 
C 214.480461 322.788782 216.375701 324.448304 218.503835 325.763874 
C 220.63197 327.079443 222.963667 328.032929 225.403832 328.585444 
C 227.843997 329.137958 230.358999 329.281887 232.846265 329.011361 
C 235.333532 328.740834 237.758782 328.059579 240.023106 326.995382 
C 242.28743 325.931185 244.35962 324.498712 246.155162 322.756384 
C 247.950705 321.014057 249.444855 318.985889 250.576674 316.754597 
C 251.708492 314.523305 252.462382 312.119641 252.807594 309.641637 
C 253.152807 307.163632 253.084586 304.645439 252.605713 302.18976 
C 252.12684 299.734082 251.243915 297.374761 249.992948 295.208022 
L 230.4 306.520016 
L 231.760288 283.93696 
z
" style="fill:#ff7f0e;stroke:#ffffff;stroke-linejoin:miter;"/>
   </g>
   <g id="text_51">
    <!-- Yes -->
    <g style="fill:#262626;" transform="translate(244.675397 286.186761)scale(0.1 -0.1)">
     <use xlink:href="#DejaVuSans-59"/>
     <use x="47.833984" xlink:href="#DejaVuSans-65"/>
     <use x="109.357422" xlink:href="#DejaVuSans-73"/>
    </g>
   </g>
   <g id="text_52">
    <!-- 16% -->
    <g style="fill:#262626;" transform="translate(227.614034 295.80869)scale(0.1 -0.1)">
     <use xlink:href="#DejaVuSans-31"/>
     <use x="63.623047" xlink:href="#DejaVuSans-36"/>
     <use x="127.246094" xlink:href="#DejaVuSans-25"/>
    </g>
   </g>
   <g id="text_53">
    <!-- No -->
    <g style="fill:#262626;" transform="translate(203.714219 330.447635)scale(0.1 -0.1)">
     <use xlink:href="#DejaVuSans-4e"/>
     <use x="74.804688" xlink:href="#DejaVuSans-6f"/>
    </g>
   </g>
   <g id="text_54">
    <!-- 84% -->
    <g style="fill:#262626;" transform="translate(212.14902 320.825706)scale(0.1 -0.1)">
     <use xlink:href="#DejaVuSans-38"/>
     <use x="63.623047" xlink:href="#DejaVuSans-34"/>
     <use x="127.246094" xlink:href="#DejaVuSans-25"/>
    </g>
   </g>
   <g id="text_55">
    <!-- OWL -->
    <g style="fill:#262626;" transform="translate(216.40125 272.240031)scale(0.12 -0.12)">
     <use xlink:href="#DejaVuSans-4f"/>
     <use x="78.710938" xlink:href="#DejaVuSans-57"/>
     <use x="177.587891" xlink:href="#DejaVuSans-4c"/>
    </g>
   </g>
  </g>
  <g id="axes_12"/>
  <g id="text_56">
   <!-- https://github.com/bioregistry/bioregistry (2021-05-15) -->
   <g style="fill:#808080;opacity:0.5;" transform="translate(120.230625 343.93625)scale(0.08 -0.08)">
    <defs>
     <path d="M 3513 2113 
L 3513 0 
L 2938 0 
L 2938 2094 
Q 2938 2591 2744 2837 
Q 2550 3084 2163 3084 
Q 1697 3084 1428 2787 
Q 1159 2491 1159 1978 
L 1159 0 
L 581 0 
L 581 4863 
L 1159 4863 
L 1159 2956 
Q 1366 3272 1645 3428 
Q 1925 3584 2291 3584 
Q 2894 3584 3203 3211 
Q 3513 2838 3513 2113 
z
" id="DejaVuSans-68" transform="scale(0.015625)"/>
     <path d="M 750 794 
L 1409 794 
L 1409 0 
L 750 0 
L 750 794 
z
M 750 3309 
L 1409 3309 
L 1409 2516 
L 750 2516 
L 750 3309 
z
" id="DejaVuSans-3a" transform="scale(0.015625)"/>
     <path d="M 1625 4666 
L 2156 4666 
L 531 -594 
L 0 -594 
L 1625 4666 
z
" id="DejaVuSans-2f" transform="scale(0.015625)"/>
     <path d="M 544 1381 
L 544 3500 
L 1119 3500 
L 1119 1403 
Q 1119 906 1312 657 
Q 1506 409 1894 409 
Q 2359 409 2629 706 
Q 2900 1003 2900 1516 
L 2900 3500 
L 3475 3500 
L 3475 0 
L 2900 0 
L 2900 538 
Q 2691 219 2414 64 
Q 2138 -91 1772 -91 
Q 1169 -91 856 284 
Q 544 659 544 1381 
z
M 1991 3584 
L 1991 3584 
z
" id="DejaVuSans-75" transform="scale(0.015625)"/>
     <path d="M 684 794 
L 1344 794 
L 1344 0 
L 684 0 
L 684 794 
z
" id="DejaVuSans-2e" transform="scale(0.015625)"/>
     <path d="M 2059 -325 
Q 1816 -950 1584 -1140 
Q 1353 -1331 966 -1331 
L 506 -1331 
L 506 -850 
L 844 -850 
Q 1081 -850 1212 -737 
Q 1344 -625 1503 -206 
L 1606 56 
L 191 3500 
L 800 3500 
L 1894 763 
L 2988 3500 
L 3597 3500 
L 2059 -325 
z
" id="DejaVuSans-79" transform="scale(0.015625)"/>
     <path d="M 1984 4856 
Q 1566 4138 1362 3434 
Q 1159 2731 1159 2009 
Q 1159 1288 1364 580 
Q 1569 -128 1984 -844 
L 1484 -844 
Q 1016 -109 783 600 
Q 550 1309 550 2009 
Q 550 2706 781 3412 
Q 1013 4119 1484 4856 
L 1984 4856 
z
" id="DejaVuSans-28" transform="scale(0.015625)"/>
     <path d="M 313 2009 
L 1997 2009 
L 1997 1497 
L 313 1497 
L 313 2009 
z
" id="DejaVuSans-2d" transform="scale(0.015625)"/>
     <path d="M 513 4856 
L 1013 4856 
Q 1481 4119 1714 3412 
Q 1947 2706 1947 2009 
Q 1947 1309 1714 600 
Q 1481 -109 1013 -844 
L 513 -844 
Q 928 -128 1133 580 
Q 1338 1288 1338 2009 
Q 1338 2731 1133 3434 
Q 928 4138 513 4856 
z
" id="DejaVuSans-29" transform="scale(0.015625)"/>
    </defs>
    <use xlink:href="#DejaVuSans-68"/>
    <use x="63.378906" xlink:href="#DejaVuSans-74"/>
    <use x="102.587891" xlink:href="#DejaVuSans-74"/>
    <use x="141.796875" xlink:href="#DejaVuSans-70"/>
    <use x="205.273438" xlink:href="#DejaVuSans-73"/>
    <use x="257.373047" xlink:href="#DejaVuSans-3a"/>
    <use x="291.064453" xlink:href="#DejaVuSans-2f"/>
    <use x="324.755859" xlink:href="#DejaVuSans-2f"/>
    <use x="358.447266" xlink:href="#DejaVuSans-67"/>
    <use x="421.923828" xlink:href="#DejaVuSans-69"/>
    <use x="449.707031" xlink:href="#DejaVuSans-74"/>
    <use x="488.916016" xlink:href="#DejaVuSans-68"/>
    <use x="552.294922" xlink:href="#DejaVuSans-75"/>
    <use x="615.673828" xlink:href="#DejaVuSans-62"/>
    <use x="679.150391" xlink:href="#DejaVuSans-2e"/>
    <use x="710.9375" xlink:href="#DejaVuSans-63"/>
    <use x="765.917969" xlink:href="#DejaVuSans-6f"/>
    <use x="827.099609" xlink:href="#DejaVuSans-6d"/>
    <use x="924.511719" xlink:href="#DejaVuSans-2f"/>
    <use x="958.203125" xlink:href="#DejaVuSans-62"/>
    <use x="1021.679688" xlink:href="#DejaVuSans-69"/>
    <use x="1049.462891" xlink:href="#DejaVuSans-6f"/>
    <use x="1110.644531" xlink:href="#DejaVuSans-72"/>
    <use x="1149.507812" xlink:href="#DejaVuSans-65"/>
    <use x="1211.03125" xlink:href="#DejaVuSans-67"/>
    <use x="1274.507812" xlink:href="#DejaVuSans-69"/>
    <use x="1302.291016" xlink:href="#DejaVuSans-73"/>
    <use x="1354.390625" xlink:href="#DejaVuSans-74"/>
    <use x="1393.599609" xlink:href="#DejaVuSans-72"/>
    <use x="1434.712891" xlink:href="#DejaVuSans-79"/>
    <use x="1493.892578" xlink:href="#DejaVuSans-2f"/>
    <use x="1527.583984" xlink:href="#DejaVuSans-62"/>
    <use x="1591.060547" xlink:href="#DejaVuSans-69"/>
    <use x="1618.84375" xlink:href="#DejaVuSans-6f"/>
    <use x="1680.025391" xlink:href="#DejaVuSans-72"/>
    <use x="1718.888672" xlink:href="#DejaVuSans-65"/>
    <use x="1780.412109" xlink:href="#DejaVuSans-67"/>
    <use x="1843.888672" xlink:href="#DejaVuSans-69"/>
    <use x="1871.671875" xlink:href="#DejaVuSans-73"/>
    <use x="1923.771484" xlink:href="#DejaVuSans-74"/>
    <use x="1962.980469" xlink:href="#DejaVuSans-72"/>
    <use x="2004.09375" xlink:href="#DejaVuSans-79"/>
    <use x="2063.273438" xlink:href="#DejaVuSans-20"/>
    <use x="2095.060547" xlink:href="#DejaVuSans-28"/>
    <use x="2134.074219" xlink:href="#DejaVuSans-32"/>
    <use x="2197.697266" xlink:href="#DejaVuSans-30"/>
    <use x="2261.320312" xlink:href="#DejaVuSans-32"/>
    <use x="2324.943359" xlink:href="#DejaVuSans-31"/>
    <use x="2388.566406" xlink:href="#DejaVuSans-2d"/>
    <use x="2424.650391" xlink:href="#DejaVuSans-30"/>
    <use x="2488.273438" xlink:href="#DejaVuSans-35"/>
    <use x="2551.896484" xlink:href="#DejaVuSans-2d"/>
    <use x="2587.980469" xlink:href="#DejaVuSans-31"/>
    <use x="2651.603516" xlink:href="#DejaVuSans-35"/>
    <use x="2715.226562" xlink:href="#DejaVuSans-29"/>
   </g>
  </g>
 </g>
</svg>
