<?xml version="1.0" encoding="utf-8" standalone="no"?>
<!DOCTYPE svg PUBLIC "-//W3C//DTD SVG 1.1//EN"
  "http://www.w3.org/Graphics/SVG/1.1/DTD/svg11.dtd">
<svg xmlns:xlink="http://www.w3.org/1999/xlink" width="792pt" height="576pt" viewBox="0 0 792 576" xmlns="http://www.w3.org/2000/svg" version="1.1">
 <metadata>
  <rdf:RDF xmlns:dc="http://purl.org/dc/elements/1.1/" xmlns:cc="http://creativecommons.org/ns#" xmlns:rdf="http://www.w3.org/1999/02/22-rdf-syntax-ns#">
   <cc:Work>
    <dc:type rdf:resource="http://purl.org/dc/dcmitype/StillImage"/>
    <dc:date>2026-05-30T04:37:02.124756</dc:date>
    <dc:format>image/svg+xml</dc:format>
    <dc:creator>
     <cc:Agent>
      <dc:title>Matplotlib v3.10.9, https://matplotlib.org/</dc:title>
     </cc:Agent>
    </dc:creator>
   </cc:Work>
  </rdf:RDF>
 </metadata>
 <defs>
  <style type="text/css">*{stroke-linejoin: round; stroke-linecap: butt}</style>
 </defs>
 <g id="figure_1">
  <g id="patch_1">
   <path d="M 0 576 
L 792 576 
L 792 0 
L 0 0 
z
" style="fill: #ffffff"/>
  </g>
  <g id="axes_1">
   <g id="matplotlib.axis_1"/>
   <g id="matplotlib.axis_2"/>
   <g id="patch_2">
    <path d="M 133.755835 62.26965 
C 131.028755 57.54621 127.479168 53.348055 123.274859 49.87363 
C 119.070549 46.399205 114.278823 43.704129 109.126181 41.915798 
C 103.97354 40.127466 98.542469 39.274507 93.089691 39.397239 
C 87.636913 39.519971 82.24972 40.616429 77.18276 42.634786 
C 72.115799 44.653142 67.450187 47.561085 63.406462 51.221158 
C 59.362737 54.881232 56.005635 59.234843 53.493841 64.076201 
C 50.982048 68.917558 49.355775 74.169159 48.691894 79.582763 
C 48.028013 84.996367 48.337152 90.485311 49.604699 95.790136 
C 50.872246 101.094962 53.077909 106.130746 56.117428 110.659452 
C 59.156947 115.188157 62.981663 119.137286 67.410785 122.320165 
C 71.839908 125.503045 76.802532 127.868722 82.06408 129.305373 
C 87.325628 130.742024 92.801868 131.226649 98.233944 130.736342 
C 103.66602 130.246035 108.966971 128.788645 113.886226 126.43306 
C 118.805481 124.077475 123.264289 120.861406 127.051886 116.936874 
C 130.839483 113.012341 133.895235 108.442172 136.074699 103.442393 
C 138.254163 98.442615 139.522449 93.093267 139.819606 87.647209 
L 94.119584 85.15365 
z
" style="fill: #1f77b4; stroke: #ffffff; stroke-linejoin: miter"/>
   </g>
   <g id="patch_3">
    <path d="M 144.271094 86.583554 
C 144.51177 82.172644 144.112579 77.750042 143.085959 73.45352 
C 142.059339 69.156997 140.416058 65.031639 138.207322 61.205997 
L 98.571072 84.09 
z
" style="fill: #ff7f0e; stroke: #ffffff; stroke-linejoin: miter"/>
   </g>
   <g id="text_1">
    <!-- Yes -->
    <g style="fill: #262626" transform="translate(29.007901 99.613172) scale(0.1 -0.1)">
     <defs>
      <path id="DejaVuSans-59" d="M -13 4666 
L 666 4666 
L 1959 2747 
L 3244 4666 
L 3922 4666 
L 2272 2222 
L 2272 0 
L 1638 0 
L 1638 2222 
L -13 4666 
z
" transform="scale(0.015625)"/>
      <path id="DejaVuSans-65" d="M 3597 1894 
L 3597 1613 
L 953 1613 
Q 991 1019 1311 708 
Q 1631 397 2203 397 
Q 2534 397 2845 478 
Q 3156 559 3463 722 
L 3463 178 
Q 3153 47 2828 -22 
Q 2503 -91 2169 -91 
Q 1331 -91 842 396 
Q 353 884 353 1716 
Q 353 2575 817 3079 
Q 1281 3584 2069 3584 
Q 2775 3584 3186 3129 
Q 3597 2675 3597 1894 
z
M 3022 2063 
Q 3016 2534 2758 2815 
Q 2500 3097 2075 3097 
Q 1594 3097 1305 2825 
Q 1016 2553 972 2059 
L 3022 2063 
z
" transform="scale(0.015625)"/>
      <path id="DejaVuSans-73" d="M 2834 3397 
L 2834 2853 
Q 2591 2978 2328 3040 
Q 2066 3103 1784 3103 
Q 1356 3103 1142 2972 
Q 928 2841 928 2578 
Q 928 2378 1081 2264 
Q 1234 2150 1697 2047 
L 1894 2003 
Q 2506 1872 2764 1633 
Q 3022 1394 3022 966 
Q 3022 478 2636 193 
Q 2250 -91 1575 -91 
Q 1294 -91 989 -36 
Q 684 19 347 128 
L 347 722 
Q 666 556 975 473 
Q 1284 391 1588 391 
Q 1994 391 2212 530 
Q 2431 669 2431 922 
Q 2431 1156 2273 1281 
Q 2116 1406 1581 1522 
L 1381 1569 
Q 847 1681 609 1914 
Q 372 2147 372 2553 
Q 372 3047 722 3315 
Q 1072 3584 1716 3584 
Q 2034 3584 2315 3537 
Q 2597 3491 2834 3397 
z
" transform="scale(0.015625)"/>
     </defs>
     <use xlink:href="#DejaVuSans-59"/>
     <use xlink:href="#DejaVuSans-65" transform="translate(47.833984 0)"/>
     <use xlink:href="#DejaVuSans-73" transform="translate(109.357422 0)"/>
    </g>
   </g>
   <g id="text_2">
    <!-- 91% -->
    <g style="fill: #262626" transform="translate(56.297374 94.294923) scale(0.1 -0.1)">
     <defs>
      <path id="DejaVuSans-39" d="M 703 97 
L 703 672 
Q 941 559 1184 500 
Q 1428 441 1663 441 
Q 2288 441 2617 861 
Q 2947 1281 2994 2138 
Q 2813 1869 2534 1725 
Q 2256 1581 1919 1581 
Q 1219 1581 811 2004 
Q 403 2428 403 3163 
Q 403 3881 828 4315 
Q 1253 4750 1959 4750 
Q 2769 4750 3195 4129 
Q 3622 3509 3622 2328 
Q 3622 1225 3098 567 
Q 2575 -91 1691 -91 
Q 1453 -91 1209 -44 
Q 966 3 703 97 
z
M 1959 2075 
Q 2384 2075 2632 2365 
Q 2881 2656 2881 3163 
Q 2881 3666 2632 3958 
Q 2384 4250 1959 4250 
Q 1534 4250 1286 3958 
Q 1038 3666 1038 3163 
Q 1038 2656 1286 2365 
Q 1534 2075 1959 2075 
z
" transform="scale(0.015625)"/>
      <path id="DejaVuSans-31" d="M 794 531 
L 1825 531 
L 1825 4091 
L 703 3866 
L 703 4441 
L 1819 4666 
L 2450 4666 
L 2450 531 
L 3481 531 
L 3481 0 
L 794 0 
L 794 531 
z
" transform="scale(0.015625)"/>
      <path id="DejaVuSans-25" d="M 4653 2053 
Q 4381 2053 4226 1822 
Q 4072 1591 4072 1178 
Q 4072 772 4226 539 
Q 4381 306 4653 306 
Q 4919 306 5073 539 
Q 5228 772 5228 1178 
Q 5228 1588 5073 1820 
Q 4919 2053 4653 2053 
z
M 4653 2450 
Q 5147 2450 5437 2106 
Q 5728 1763 5728 1178 
Q 5728 594 5436 251 
Q 5144 -91 4653 -91 
Q 4153 -91 3862 251 
Q 3572 594 3572 1178 
Q 3572 1766 3864 2108 
Q 4156 2450 4653 2450 
z
M 1428 4353 
Q 1159 4353 1004 4120 
Q 850 3888 850 3481 
Q 850 3069 1003 2837 
Q 1156 2606 1428 2606 
Q 1700 2606 1854 2837 
Q 2009 3069 2009 3481 
Q 2009 3884 1853 4118 
Q 1697 4353 1428 4353 
z
M 4250 4750 
L 4750 4750 
L 1831 -91 
L 1331 -91 
L 4250 4750 
z
M 1428 4750 
Q 1922 4750 2215 4408 
Q 2509 4066 2509 3481 
Q 2509 2891 2217 2550 
Q 1925 2209 1428 2209 
Q 931 2209 642 2551 
Q 353 2894 353 3481 
Q 353 4063 643 4406 
Q 934 4750 1428 4750 
z
" transform="scale(0.015625)"/>
     </defs>
     <use xlink:href="#DejaVuSans-39"/>
     <use xlink:href="#DejaVuSans-31" transform="translate(63.623047 0)"/>
     <use xlink:href="#DejaVuSans-25" transform="translate(127.246094 0)"/>
    </g>
   </g>
   <g id="text_3">
    <!-- No -->
    <g style="fill: #262626" transform="translate(147.537442 75.149223) scale(0.1 -0.1)">
     <defs>
      <path id="DejaVuSans-4e" d="M 628 4666 
L 1478 4666 
L 3547 763 
L 3547 4666 
L 4159 4666 
L 4159 0 
L 3309 0 
L 1241 3903 
L 1241 0 
L 628 0 
L 628 4666 
z
" transform="scale(0.015625)"/>
      <path id="DejaVuSans-6f" d="M 1959 3097 
Q 1497 3097 1228 2736 
Q 959 2375 959 1747 
Q 959 1119 1226 758 
Q 1494 397 1959 397 
Q 2419 397 2687 759 
Q 2956 1122 2956 1747 
Q 2956 2369 2687 2733 
Q 2419 3097 1959 3097 
z
M 1959 3584 
Q 2709 3584 3137 3096 
Q 3566 2609 3566 1747 
Q 3566 888 3137 398 
Q 2709 -91 1959 -91 
Q 1206 -91 779 398 
Q 353 888 353 1747 
Q 353 2609 779 3096 
Q 1206 3584 1959 3584 
z
" transform="scale(0.015625)"/>
     </defs>
     <use xlink:href="#DejaVuSans-4e"/>
     <use xlink:href="#DejaVuSans-6f" transform="translate(74.804688 0)"/>
    </g>
   </g>
   <g id="text_4">
    <!-- 9% -->
    <g style="fill: #262626" transform="translate(117.34797 80.467474) scale(0.1 -0.1)">
     <use xlink:href="#DejaVuSans-39"/>
     <use xlink:href="#DejaVuSans-25" transform="translate(63.623047 0)"/>
    </g>
   </g>
   <g id="text_5">
    <!-- Name -->
    <g style="fill: #262626" transform="translate(80.869197 20.88) scale(0.12 -0.12)">
     <defs>
      <path id="DejaVuSans-61" d="M 2194 1759 
Q 1497 1759 1228 1600 
Q 959 1441 959 1056 
Q 959 750 1161 570 
Q 1363 391 1709 391 
Q 2188 391 2477 730 
Q 2766 1069 2766 1631 
L 2766 1759 
L 2194 1759 
z
M 3341 1997 
L 3341 0 
L 2766 0 
L 2766 531 
Q 2569 213 2275 61 
Q 1981 -91 1556 -91 
Q 1019 -91 701 211 
Q 384 513 384 1019 
Q 384 1609 779 1909 
Q 1175 2209 1959 2209 
L 2766 2209 
L 2766 2266 
Q 2766 2663 2505 2880 
Q 2244 3097 1772 3097 
Q 1472 3097 1187 3025 
Q 903 2953 641 2809 
L 641 3341 
Q 956 3463 1253 3523 
Q 1550 3584 1831 3584 
Q 2591 3584 2966 3190 
Q 3341 2797 3341 1997 
z
" transform="scale(0.015625)"/>
      <path id="DejaVuSans-6d" d="M 3328 2828 
Q 3544 3216 3844 3400 
Q 4144 3584 4550 3584 
Q 5097 3584 5394 3201 
Q 5691 2819 5691 2113 
L 5691 0 
L 5113 0 
L 5113 2094 
Q 5113 2597 4934 2840 
Q 4756 3084 4391 3084 
Q 3944 3084 3684 2787 
Q 3425 2491 3425 1978 
L 3425 0 
L 2847 0 
L 2847 2094 
Q 2847 2600 2669 2842 
Q 2491 3084 2119 3084 
Q 1678 3084 1418 2786 
Q 1159 2488 1159 1978 
L 1159 0 
L 581 0 
L 581 3500 
L 1159 3500 
L 1159 2956 
Q 1356 3278 1631 3431 
Q 1906 3584 2284 3584 
Q 2666 3584 2933 3390 
Q 3200 3197 3328 2828 
z
" transform="scale(0.015625)"/>
     </defs>
     <use xlink:href="#DejaVuSans-4e"/>
     <use xlink:href="#DejaVuSans-61" transform="translate(74.804688 0)"/>
     <use xlink:href="#DejaVuSans-6d" transform="translate(136.083984 0)"/>
     <use xlink:href="#DejaVuSans-65" transform="translate(233.496094 0)"/>
    </g>
   </g>
  </g>
  <g id="axes_2">
   <g id="matplotlib.axis_3"/>
   <g id="matplotlib.axis_4"/>
   <g id="patch_4">
    <path d="M 320.09798 62.26965 
C 317.3709 57.54621 313.821313 53.348055 309.617004 49.87363 
C 305.412694 46.399205 300.620968 43.704129 295.468326 41.915798 
C 290.315684 40.127466 284.884613 39.274507 279.431836 39.397239 
C 273.979058 39.519971 268.591865 40.616429 263.524905 42.634786 
C 258.457944 44.653142 253.792332 47.561085 249.748607 51.221158 
C 245.704882 54.881232 242.34778 59.234843 239.835986 64.076201 
C 237.324193 68.917558 235.69792 74.169159 235.034039 79.582763 
C 234.370158 84.996367 234.679297 90.485311 235.946844 95.790136 
C 237.214391 101.094962 239.420054 106.130746 242.459573 110.659452 
C 245.499091 115.188157 249.323808 119.137286 253.75293 122.320165 
C 258.182053 125.503045 263.144677 127.868722 268.406225 129.305373 
C 273.667772 130.742024 279.144013 131.226649 284.576089 130.736342 
C 290.008164 130.246035 295.309116 128.788645 300.22837 126.43306 
C 305.147625 124.077475 309.606434 120.861406 313.394031 116.936874 
C 317.181628 113.012341 320.23738 108.442172 322.416844 103.442393 
C 324.596308 98.442615 325.864594 93.093267 326.161751 87.647209 
L 280.461729 85.15365 
z
" style="fill: #1f77b4; stroke: #ffffff; stroke-linejoin: miter"/>
   </g>
   <g id="patch_5">
    <path d="M 330.613239 86.583554 
C 330.853915 82.172644 330.454724 77.750042 329.428104 73.45352 
C 328.401484 69.156997 326.758202 65.031639 324.549467 61.205997 
L 284.913217 84.09 
z
" style="fill: #ff7f0e; stroke: #ffffff; stroke-linejoin: miter"/>
   </g>
   <g id="text_6">
    <!-- Yes -->
    <g style="fill: #262626" transform="translate(215.350046 99.613172) scale(0.1 -0.1)">
     <use xlink:href="#DejaVuSans-59"/>
     <use xlink:href="#DejaVuSans-65" transform="translate(47.833984 0)"/>
     <use xlink:href="#DejaVuSans-73" transform="translate(109.357422 0)"/>
    </g>
   </g>
   <g id="text_7">
    <!-- 91% -->
    <g style="fill: #262626" transform="translate(242.639518 94.294923) scale(0.1 -0.1)">
     <use xlink:href="#DejaVuSans-39"/>
     <use xlink:href="#DejaVuSans-31" transform="translate(63.623047 0)"/>
     <use xlink:href="#DejaVuSans-25" transform="translate(127.246094 0)"/>
    </g>
   </g>
   <g id="text_8">
    <!-- No -->
    <g style="fill: #262626" transform="translate(333.879587 75.149223) scale(0.1 -0.1)">
     <use xlink:href="#DejaVuSans-4e"/>
     <use xlink:href="#DejaVuSans-6f" transform="translate(74.804688 0)"/>
    </g>
   </g>
   <g id="text_9">
    <!-- 9% -->
    <g style="fill: #262626" transform="translate(303.690115 80.467474) scale(0.1 -0.1)">
     <use xlink:href="#DejaVuSans-39"/>
     <use xlink:href="#DejaVuSans-25" transform="translate(63.623047 0)"/>
    </g>
   </g>
   <g id="text_10">
    <!-- Homepage -->
    <g style="fill: #262626" transform="translate(252.206655 20.88) scale(0.12 -0.12)">
     <defs>
      <path id="DejaVuSans-48" d="M 628 4666 
L 1259 4666 
L 1259 2753 
L 3553 2753 
L 3553 4666 
L 4184 4666 
L 4184 0 
L 3553 0 
L 3553 2222 
L 1259 2222 
L 1259 0 
L 628 0 
L 628 4666 
z
" transform="scale(0.015625)"/>
      <path id="DejaVuSans-70" d="M 1159 525 
L 1159 -1331 
L 581 -1331 
L 581 3500 
L 1159 3500 
L 1159 2969 
Q 1341 3281 1617 3432 
Q 1894 3584 2278 3584 
Q 2916 3584 3314 3078 
Q 3713 2572 3713 1747 
Q 3713 922 3314 415 
Q 2916 -91 2278 -91 
Q 1894 -91 1617 61 
Q 1341 213 1159 525 
z
M 3116 1747 
Q 3116 2381 2855 2742 
Q 2594 3103 2138 3103 
Q 1681 3103 1420 2742 
Q 1159 2381 1159 1747 
Q 1159 1113 1420 752 
Q 1681 391 2138 391 
Q 2594 391 2855 752 
Q 3116 1113 3116 1747 
z
" transform="scale(0.015625)"/>
      <path id="DejaVuSans-67" d="M 2906 1791 
Q 2906 2416 2648 2759 
Q 2391 3103 1925 3103 
Q 1463 3103 1205 2759 
Q 947 2416 947 1791 
Q 947 1169 1205 825 
Q 1463 481 1925 481 
Q 2391 481 2648 825 
Q 2906 1169 2906 1791 
z
M 3481 434 
Q 3481 -459 3084 -895 
Q 2688 -1331 1869 -1331 
Q 1566 -1331 1297 -1286 
Q 1028 -1241 775 -1147 
L 775 -588 
Q 1028 -725 1275 -790 
Q 1522 -856 1778 -856 
Q 2344 -856 2625 -561 
Q 2906 -266 2906 331 
L 2906 616 
Q 2728 306 2450 153 
Q 2172 0 1784 0 
Q 1141 0 747 490 
Q 353 981 353 1791 
Q 353 2603 747 3093 
Q 1141 3584 1784 3584 
Q 2172 3584 2450 3431 
Q 2728 3278 2906 2969 
L 2906 3500 
L 3481 3500 
L 3481 434 
z
" transform="scale(0.015625)"/>
     </defs>
     <use xlink:href="#DejaVuSans-48"/>
     <use xlink:href="#DejaVuSans-6f" transform="translate(75.195312 0)"/>
     <use xlink:href="#DejaVuSans-6d" transform="translate(136.376953 0)"/>
     <use xlink:href="#DejaVuSans-65" transform="translate(233.789062 0)"/>
     <use xlink:href="#DejaVuSans-70" transform="translate(295.3125 0)"/>
     <use xlink:href="#DejaVuSans-61" transform="translate(358.789062 0)"/>
     <use xlink:href="#DejaVuSans-67" transform="translate(420.068359 0)"/>
     <use xlink:href="#DejaVuSans-65" transform="translate(483.544922 0)"/>
    </g>
   </g>
  </g>
  <g id="axes_3">
   <g id="matplotlib.axis_5"/>
   <g id="matplotlib.axis_6"/>
   <g id="patch_6">
    <path d="M 506.440125 62.26965 
C 503.713045 57.54621 500.163458 53.348055 495.959148 49.87363 
C 491.754839 46.399205 486.963113 43.704129 481.810471 41.915798 
C 476.657829 40.127466 471.226758 39.274507 465.773981 39.397239 
C 460.321203 39.519971 454.93401 40.616429 449.867049 42.634786 
C 444.800089 44.653142 440.134477 47.561085 436.090752 51.221158 
C 432.047027 54.881232 428.689924 59.234843 426.178131 64.076201 
C 423.666338 68.917558 422.040065 74.169159 421.376184 79.582763 
C 420.712303 84.996367 421.021442 90.485311 422.288989 95.790136 
C 423.556536 101.094962 425.762199 106.130746 428.801718 110.659452 
C 431.841236 115.188157 435.665953 119.137286 440.095075 122.320165 
C 444.524198 125.503045 449.486822 127.868722 454.74837 129.305373 
C 460.009917 130.742024 465.486158 131.226649 470.918233 130.736342 
C 476.350309 130.246035 481.65126 128.788645 486.570515 126.43306 
C 491.48977 124.077475 495.948578 120.861406 499.736176 116.936874 
C 503.523773 113.012341 506.579525 108.442172 508.758989 103.442393 
C 510.938453 98.442615 512.206739 93.093267 512.503896 87.647209 
L 466.803874 85.15365 
z
" style="fill: #1f77b4; stroke: #ffffff; stroke-linejoin: miter"/>
   </g>
   <g id="patch_7">
    <path d="M 516.955384 86.583554 
C 517.19606 82.172644 516.796868 77.750042 515.770248 73.45352 
C 514.743628 69.156997 513.100347 65.031639 510.891612 61.205997 
L 471.255362 84.09 
z
" style="fill: #ff7f0e; stroke: #ffffff; stroke-linejoin: miter"/>
   </g>
   <g id="text_11">
    <!-- Yes -->
    <g style="fill: #262626" transform="translate(401.692191 99.613172) scale(0.1 -0.1)">
     <use xlink:href="#DejaVuSans-59"/>
     <use xlink:href="#DejaVuSans-65" transform="translate(47.833984 0)"/>
     <use xlink:href="#DejaVuSans-73" transform="translate(109.357422 0)"/>
    </g>
   </g>
   <g id="text_12">
    <!-- 91% -->
    <g style="fill: #262626" transform="translate(428.981663 94.294923) scale(0.1 -0.1)">
     <use xlink:href="#DejaVuSans-39"/>
     <use xlink:href="#DejaVuSans-31" transform="translate(63.623047 0)"/>
     <use xlink:href="#DejaVuSans-25" transform="translate(127.246094 0)"/>
    </g>
   </g>
   <g id="text_13">
    <!-- No -->
    <g style="fill: #262626" transform="translate(520.221732 75.149223) scale(0.1 -0.1)">
     <use xlink:href="#DejaVuSans-4e"/>
     <use xlink:href="#DejaVuSans-6f" transform="translate(74.804688 0)"/>
    </g>
   </g>
   <g id="text_14">
    <!-- 9% -->
    <g style="fill: #262626" transform="translate(490.03226 80.467474) scale(0.1 -0.1)">
     <use xlink:href="#DejaVuSans-39"/>
     <use xlink:href="#DejaVuSans-25" transform="translate(63.623047 0)"/>
    </g>
   </g>
   <g id="text_15">
    <!-- Description -->
    <g style="fill: #262626" transform="translate(437.083487 20.88) scale(0.12 -0.12)">
     <defs>
      <path id="DejaVuSans-44" d="M 1259 4147 
L 1259 519 
L 2022 519 
Q 2988 519 3436 956 
Q 3884 1394 3884 2338 
Q 3884 3275 3436 3711 
Q 2988 4147 2022 4147 
L 1259 4147 
z
M 628 4666 
L 1925 4666 
Q 3281 4666 3915 4102 
Q 4550 3538 4550 2338 
Q 4550 1131 3912 565 
Q 3275 0 1925 0 
L 628 0 
L 628 4666 
z
" transform="scale(0.015625)"/>
      <path id="DejaVuSans-63" d="M 3122 3366 
L 3122 2828 
Q 2878 2963 2633 3030 
Q 2388 3097 2138 3097 
Q 1578 3097 1268 2742 
Q 959 2388 959 1747 
Q 959 1106 1268 751 
Q 1578 397 2138 397 
Q 2388 397 2633 464 
Q 2878 531 3122 666 
L 3122 134 
Q 2881 22 2623 -34 
Q 2366 -91 2075 -91 
Q 1284 -91 818 406 
Q 353 903 353 1747 
Q 353 2603 823 3093 
Q 1294 3584 2113 3584 
Q 2378 3584 2631 3529 
Q 2884 3475 3122 3366 
z
" transform="scale(0.015625)"/>
      <path id="DejaVuSans-72" d="M 2631 2963 
Q 2534 3019 2420 3045 
Q 2306 3072 2169 3072 
Q 1681 3072 1420 2755 
Q 1159 2438 1159 1844 
L 1159 0 
L 581 0 
L 581 3500 
L 1159 3500 
L 1159 2956 
Q 1341 3275 1631 3429 
Q 1922 3584 2338 3584 
Q 2397 3584 2469 3576 
Q 2541 3569 2628 3553 
L 2631 2963 
z
" transform="scale(0.015625)"/>
      <path id="DejaVuSans-69" d="M 603 3500 
L 1178 3500 
L 1178 0 
L 603 0 
L 603 3500 
z
M 603 4863 
L 1178 4863 
L 1178 4134 
L 603 4134 
L 603 4863 
z
" transform="scale(0.015625)"/>
      <path id="DejaVuSans-74" d="M 1172 4494 
L 1172 3500 
L 2356 3500 
L 2356 3053 
L 1172 3053 
L 1172 1153 
Q 1172 725 1289 603 
Q 1406 481 1766 481 
L 2356 481 
L 2356 0 
L 1766 0 
Q 1100 0 847 248 
Q 594 497 594 1153 
L 594 3053 
L 172 3053 
L 172 3500 
L 594 3500 
L 594 4494 
L 1172 4494 
z
" transform="scale(0.015625)"/>
      <path id="DejaVuSans-6e" d="M 3513 2113 
L 3513 0 
L 2938 0 
L 2938 2094 
Q 2938 2591 2744 2837 
Q 2550 3084 2163 3084 
Q 1697 3084 1428 2787 
Q 1159 2491 1159 1978 
L 1159 0 
L 581 0 
L 581 3500 
L 1159 3500 
L 1159 2956 
Q 1366 3272 1645 3428 
Q 1925 3584 2291 3584 
Q 2894 3584 3203 3211 
Q 3513 2838 3513 2113 
z
" transform="scale(0.015625)"/>
     </defs>
     <use xlink:href="#DejaVuSans-44"/>
     <use xlink:href="#DejaVuSans-65" transform="translate(77.001953 0)"/>
     <use xlink:href="#DejaVuSans-73" transform="translate(138.525391 0)"/>
     <use xlink:href="#DejaVuSans-63" transform="translate(190.625 0)"/>
     <use xlink:href="#DejaVuSans-72" transform="translate(245.605469 0)"/>
     <use xlink:href="#DejaVuSans-69" transform="translate(286.71875 0)"/>
     <use xlink:href="#DejaVuSans-70" transform="translate(314.501953 0)"/>
     <use xlink:href="#DejaVuSans-74" transform="translate(377.978516 0)"/>
     <use xlink:href="#DejaVuSans-69" transform="translate(417.1875 0)"/>
     <use xlink:href="#DejaVuSans-6f" transform="translate(444.970703 0)"/>
     <use xlink:href="#DejaVuSans-6e" transform="translate(506.152344 0)"/>
    </g>
   </g>
  </g>
  <g id="axes_4">
   <g id="matplotlib.axis_7"/>
   <g id="matplotlib.axis_8"/>
   <g id="patch_8">
    <path d="M 692.75785 62.161693 
C 690.054011 57.478506 686.541439 53.311373 682.383392 49.853971 
C 678.225344 46.396569 673.487253 43.703307 668.389336 41.89936 
C 663.291418 40.095414 657.913896 39.209172 652.506706 39.281824 
C 647.099516 39.354476 641.747746 40.38488 636.700137 42.325144 
C 631.652527 44.265407 626.988508 47.084999 622.924854 50.652869 
C 618.861199 54.220739 615.461857 58.480743 612.884819 63.234885 
C 610.307782 67.989027 608.593604 73.162494 607.821956 78.514834 
C 607.050308 83.867174 607.233333 89.314161 608.362525 94.602631 
C 609.491717 99.891101 611.549305 104.937832 614.439659 109.508263 
C 617.330013 114.078694 621.007648 118.100904 625.301636 121.387947 
C 629.595623 124.674991 634.438391 127.175143 639.604859 128.772202 
C 644.771327 130.369261 650.180193 131.038094 655.580064 130.747617 
C 660.979935 130.457139 666.285837 129.211921 671.251164 127.069838 
C 676.21649 124.927755 680.763105 121.922516 684.67969 118.193797 
C 688.596276 114.465078 691.821199 110.071556 694.204574 105.217433 
C 696.587948 100.363309 698.092267 95.124971 698.647614 89.745884 
L 653.1216 85.045693 
z
" style="fill: #1f77b4; stroke: #ffffff; stroke-linejoin: miter"/>
   </g>
   <g id="patch_9">
    <path d="M 703.123521 88.790194 
C 703.615281 84.027008 703.356486 79.216028 702.356586 74.533083 
C 701.356687 69.850137 699.628017 65.352984 697.233768 61.206016 
L 657.597507 84.09 
z
" style="fill: #ff7f0e; stroke: #ffffff; stroke-linejoin: miter"/>
   </g>
   <g id="text_16">
    <!-- Yes -->
    <g style="fill: #262626" transform="translate(587.741304 98.317696) scale(0.1 -0.1)">
     <use xlink:href="#DejaVuSans-59"/>
     <use xlink:href="#DejaVuSans-65" transform="translate(47.833984 0)"/>
     <use xlink:href="#DejaVuSans-73" transform="translate(109.357422 0)"/>
    </g>
   </g>
   <g id="text_17">
    <!-- 90% -->
    <g style="fill: #262626" transform="translate(615.152873 93.539229) scale(0.1 -0.1)">
     <defs>
      <path id="DejaVuSans-30" d="M 2034 4250 
Q 1547 4250 1301 3770 
Q 1056 3291 1056 2328 
Q 1056 1369 1301 889 
Q 1547 409 2034 409 
Q 2525 409 2770 889 
Q 3016 1369 3016 2328 
Q 3016 3291 2770 3770 
Q 2525 4250 2034 4250 
z
M 2034 4750 
Q 2819 4750 3233 4129 
Q 3647 3509 3647 2328 
Q 3647 1150 3233 529 
Q 2819 -91 2034 -91 
Q 1250 -91 836 529 
Q 422 1150 422 2328 
Q 422 3509 836 4129 
Q 1250 4750 2034 4750 
z
" transform="scale(0.015625)"/>
     </defs>
     <use xlink:href="#DejaVuSans-39"/>
     <use xlink:href="#DejaVuSans-30" transform="translate(63.623047 0)"/>
     <use xlink:href="#DejaVuSans-25" transform="translate(127.246094 0)"/>
    </g>
   </g>
   <g id="text_18">
    <!-- No -->
    <g style="fill: #262626" transform="translate(706.832489 76.336743) scale(0.1 -0.1)">
     <use xlink:href="#DejaVuSans-4e"/>
     <use xlink:href="#DejaVuSans-6f" transform="translate(74.804688 0)"/>
    </g>
   </g>
   <g id="text_19">
    <!-- 10% -->
    <g style="fill: #262626" transform="translate(673.339671 81.115212) scale(0.1 -0.1)">
     <use xlink:href="#DejaVuSans-31"/>
     <use xlink:href="#DejaVuSans-30" transform="translate(63.623047 0)"/>
     <use xlink:href="#DejaVuSans-25" transform="translate(127.246094 0)"/>
    </g>
   </g>
   <g id="text_20">
    <!-- Example -->
    <g style="fill: #262626" transform="translate(631.565945 20.88) scale(0.12 -0.12)">
     <defs>
      <path id="DejaVuSans-45" d="M 628 4666 
L 3578 4666 
L 3578 4134 
L 1259 4134 
L 1259 2753 
L 3481 2753 
L 3481 2222 
L 1259 2222 
L 1259 531 
L 3634 531 
L 3634 0 
L 628 0 
L 628 4666 
z
" transform="scale(0.015625)"/>
      <path id="DejaVuSans-78" d="M 3513 3500 
L 2247 1797 
L 3578 0 
L 2900 0 
L 1881 1375 
L 863 0 
L 184 0 
L 1544 1831 
L 300 3500 
L 978 3500 
L 1906 2253 
L 2834 3500 
L 3513 3500 
z
" transform="scale(0.015625)"/>
      <path id="DejaVuSans-6c" d="M 603 4863 
L 1178 4863 
L 1178 0 
L 603 0 
L 603 4863 
z
" transform="scale(0.015625)"/>
     </defs>
     <use xlink:href="#DejaVuSans-45"/>
     <use xlink:href="#DejaVuSans-78" transform="translate(63.183594 0)"/>
     <use xlink:href="#DejaVuSans-61" transform="translate(122.363281 0)"/>
     <use xlink:href="#DejaVuSans-6d" transform="translate(183.642578 0)"/>
     <use xlink:href="#DejaVuSans-70" transform="translate(281.054688 0)"/>
     <use xlink:href="#DejaVuSans-6c" transform="translate(344.53125 0)"/>
     <use xlink:href="#DejaVuSans-65" transform="translate(372.314453 0)"/>
    </g>
   </g>
  </g>
  <g id="axes_5">
   <g id="matplotlib.axis_9"/>
   <g id="matplotlib.axis_10"/>
   <g id="patch_10">
    <path d="M 135.219462 199.039044 
C 131.852541 193.207367 127.239723 188.189979 121.710987 184.345802 
C 116.182252 180.501625 109.872654 177.924564 103.233554 176.79897 
C 96.594454 175.673376 89.78803 176.026745 83.301184 177.833798 
C 76.814338 179.640851 70.805529 182.857447 65.7046 187.253484 
C 60.603672 191.64952 56.535228 197.117613 53.790307 203.266598 
C 51.045386 209.415584 49.69104 216.095256 49.824154 222.827781 
C 49.957268 229.560306 51.574589 236.181223 54.560422 242.216902 
C 57.546255 248.25258 61.827663 253.555582 67.098372 257.746553 
L 95.583211 221.923044 
z
" style="fill: #1f77b4; stroke: #ffffff; stroke-linejoin: miter"/>
   </g>
   <g id="patch_11">
    <path d="M 70.086227 261.213503 
C 78.425405 267.844352 88.823761 271.359664 99.475789 271.149058 
C 110.127816 270.938454 120.379114 267.014861 128.449673 260.059568 
C 136.520233 253.104275 141.914259 243.54456 143.695145 233.040347 
C 145.476031 222.536135 143.534385 211.732748 138.207333 202.506016 
L 98.571072 225.39 
z
" style="fill: #ff7f0e; stroke: #ffffff; stroke-linejoin: miter"/>
   </g>
   <g id="text_21">
    <!-- Yes -->
    <g style="fill: #262626" transform="translate(46.571422 186.545906) scale(0.1 -0.1)">
     <use xlink:href="#DejaVuSans-59"/>
     <use xlink:href="#DejaVuSans-65" transform="translate(47.833984 0)"/>
     <use xlink:href="#DejaVuSans-73" transform="translate(109.357422 0)"/>
    </g>
   </g>
   <g id="text_22">
    <!-- 56% -->
    <g style="fill: #262626" transform="translate(66.542761 203.880685) scale(0.1 -0.1)">
     <defs>
      <path id="DejaVuSans-35" d="M 691 4666 
L 3169 4666 
L 3169 4134 
L 1269 4134 
L 1269 2991 
Q 1406 3038 1543 3061 
Q 1681 3084 1819 3084 
Q 2600 3084 3056 2656 
Q 3513 2228 3513 1497 
Q 3513 744 3044 326 
Q 2575 -91 1722 -91 
Q 1428 -91 1123 -41 
Q 819 9 494 109 
L 494 744 
Q 775 591 1075 516 
Q 1375 441 1709 441 
Q 2250 441 2565 725 
Q 2881 1009 2881 1497 
Q 2881 1984 2565 2268 
Q 2250 2553 1709 2553 
Q 1456 2553 1204 2497 
Q 953 2441 691 2322 
L 691 4666 
z
" transform="scale(0.015625)"/>
      <path id="DejaVuSans-36" d="M 2113 2584 
Q 1688 2584 1439 2293 
Q 1191 2003 1191 1497 
Q 1191 994 1439 701 
Q 1688 409 2113 409 
Q 2538 409 2786 701 
Q 3034 994 3034 1497 
Q 3034 2003 2786 2293 
Q 2538 2584 2113 2584 
z
M 3366 4563 
L 3366 3988 
Q 3128 4100 2886 4159 
Q 2644 4219 2406 4219 
Q 1781 4219 1451 3797 
Q 1122 3375 1075 2522 
Q 1259 2794 1537 2939 
Q 1816 3084 2150 3084 
Q 2853 3084 3261 2657 
Q 3669 2231 3669 1497 
Q 3669 778 3244 343 
Q 2819 -91 2113 -91 
Q 1303 -91 875 529 
Q 447 1150 447 2328 
Q 447 3434 972 4092 
Q 1497 4750 2381 4750 
Q 2619 4750 2861 4703 
Q 3103 4656 3366 4563 
z
" transform="scale(0.015625)"/>
     </defs>
     <use xlink:href="#DejaVuSans-35"/>
     <use xlink:href="#DejaVuSans-36" transform="translate(63.623047 0)"/>
     <use xlink:href="#DejaVuSans-25" transform="translate(127.246094 0)"/>
    </g>
   </g>
   <g id="text_23">
    <!-- No -->
    <g style="fill: #262626" transform="translate(131.437534 266.285901) scale(0.1 -0.1)">
     <use xlink:href="#DejaVuSans-4e"/>
     <use xlink:href="#DejaVuSans-6f" transform="translate(74.804688 0)"/>
    </g>
   </g>
   <g id="text_24">
    <!-- 44% -->
    <g style="fill: #262626" transform="translate(105.384952 248.951116) scale(0.1 -0.1)">
     <defs>
      <path id="DejaVuSans-34" d="M 2419 4116 
L 825 1625 
L 2419 1625 
L 2419 4116 
z
M 2253 4666 
L 3047 4666 
L 3047 1625 
L 3713 1625 
L 3713 1100 
L 3047 1100 
L 3047 0 
L 2419 0 
L 2419 1100 
L 313 1100 
L 313 1709 
L 2253 4666 
z
" transform="scale(0.015625)"/>
     </defs>
     <use xlink:href="#DejaVuSans-34"/>
     <use xlink:href="#DejaVuSans-34" transform="translate(63.623047 0)"/>
     <use xlink:href="#DejaVuSans-25" transform="translate(127.246094 0)"/>
    </g>
   </g>
   <g id="text_25">
    <!-- Pattern -->
    <g style="fill: #262626" transform="translate(76.986072 162.18) scale(0.12 -0.12)">
     <defs>
      <path id="DejaVuSans-50" d="M 1259 4147 
L 1259 2394 
L 2053 2394 
Q 2494 2394 2734 2622 
Q 2975 2850 2975 3272 
Q 2975 3691 2734 3919 
Q 2494 4147 2053 4147 
L 1259 4147 
z
M 628 4666 
L 2053 4666 
Q 2838 4666 3239 4311 
Q 3641 3956 3641 3272 
Q 3641 2581 3239 2228 
Q 2838 1875 2053 1875 
L 1259 1875 
L 1259 0 
L 628 0 
L 628 4666 
z
" transform="scale(0.015625)"/>
     </defs>
     <use xlink:href="#DejaVuSans-50"/>
     <use xlink:href="#DejaVuSans-61" transform="translate(55.802734 0)"/>
     <use xlink:href="#DejaVuSans-74" transform="translate(117.082031 0)"/>
     <use xlink:href="#DejaVuSans-74" transform="translate(156.291016 0)"/>
     <use xlink:href="#DejaVuSans-65" transform="translate(195.5 0)"/>
     <use xlink:href="#DejaVuSans-72" transform="translate(257.023438 0)"/>
     <use xlink:href="#DejaVuSans-6e" transform="translate(296.386719 0)"/>
    </g>
   </g>
  </g>
  <g id="axes_6">
   <g id="matplotlib.axis_11"/>
   <g id="matplotlib.axis_12"/>
   <g id="patch_12">
    <path d="M 319.993392 202.941052 
C 317.400178 198.449474 314.062252 194.431194 310.122473 191.058188 
C 306.182694 187.685182 301.698082 185.006268 296.860572 183.1361 
C 292.023062 181.265932 286.902668 180.231577 281.718536 180.077304 
C 276.534404 179.923031 271.361562 180.651073 266.421404 182.23027 
C 261.481246 183.809467 256.845268 186.216964 252.711886 189.349722 
C 248.578504 192.482481 245.007538 196.295162 242.151823 200.624587 
C 239.296107 204.954011 237.196972 209.737521 235.944258 214.770386 
C 234.691544 219.803251 234.303381 225.012633 234.796382 230.175576 
C 235.289383 235.338519 236.656414 240.3803 238.838965 245.085137 
C 241.021517 249.789975 243.988003 254.089776 247.611461 257.800515 
C 251.234918 261.511253 255.462906 264.579225 260.114471 266.873123 
C 264.766036 269.167021 269.773858 270.653647 274.923606 271.269375 
C 280.073354 271.885103 285.290498 271.621022 290.35175 270.488433 
C 295.413001 269.355845 300.245111 267.371141 304.641269 264.619265 
C 309.037427 261.867389 312.934009 258.388168 316.164246 254.330509 
C 319.394483 250.27285 321.911624 245.695479 323.607938 240.794301 
L 280.357141 225.825052 
z
" style="fill: #1f77b4; stroke: #ffffff; stroke-linejoin: miter"/>
   </g>
   <g id="patch_13">
    <path d="M 328.164012 240.359251 
C 330.309756 234.159533 331.097595 227.570313 330.473978 221.039476 
C 329.850358 214.508639 327.829739 208.187594 324.549467 202.505997 
L 284.913217 225.39 
z
" style="fill: #ff7f0e; stroke: #ffffff; stroke-linejoin: miter"/>
   </g>
   <g id="text_26">
    <!-- Yes -->
    <g style="fill: #262626" transform="translate(214.094994 233.369999) scale(0.1 -0.1)">
     <use xlink:href="#DejaVuSans-59"/>
     <use xlink:href="#DejaVuSans-65" transform="translate(47.833984 0)"/>
     <use xlink:href="#DejaVuSans-73" transform="translate(109.357422 0)"/>
    </g>
   </g>
   <g id="text_27">
    <!-- 86% -->
    <g style="fill: #262626" transform="translate(241.907404 231.194739) scale(0.1 -0.1)">
     <defs>
      <path id="DejaVuSans-38" d="M 2034 2216 
Q 1584 2216 1326 1975 
Q 1069 1734 1069 1313 
Q 1069 891 1326 650 
Q 1584 409 2034 409 
Q 2484 409 2743 651 
Q 3003 894 3003 1313 
Q 3003 1734 2745 1975 
Q 2488 2216 2034 2216 
z
M 1403 2484 
Q 997 2584 770 2862 
Q 544 3141 544 3541 
Q 544 4100 942 4425 
Q 1341 4750 2034 4750 
Q 2731 4750 3128 4425 
Q 3525 4100 3525 3541 
Q 3525 3141 3298 2862 
Q 3072 2584 2669 2484 
Q 3125 2378 3379 2068 
Q 3634 1759 3634 1313 
Q 3634 634 3220 271 
Q 2806 -91 2034 -91 
Q 1263 -91 848 271 
Q 434 634 434 1313 
Q 434 1759 690 2068 
Q 947 2378 1403 2484 
z
M 1172 3481 
Q 1172 3119 1398 2916 
Q 1625 2713 2034 2713 
Q 2441 2713 2670 2916 
Q 2900 3119 2900 3481 
Q 2900 3844 2670 4047 
Q 2441 4250 2034 4250 
Q 1625 4250 1398 4047 
Q 1172 3844 1172 3481 
z
" transform="scale(0.015625)"/>
     </defs>
     <use xlink:href="#DejaVuSans-38"/>
     <use xlink:href="#DejaVuSans-36" transform="translate(63.623047 0)"/>
     <use xlink:href="#DejaVuSans-25" transform="translate(127.246094 0)"/>
    </g>
   </g>
   <g id="text_28">
    <!-- No -->
    <g style="fill: #262626" transform="translate(335.030052 223.363798) scale(0.1 -0.1)">
     <use xlink:href="#DejaVuSans-4e"/>
     <use xlink:href="#DejaVuSans-6f" transform="translate(74.804688 0)"/>
    </g>
   </g>
   <g id="text_29">
    <!-- 14% -->
    <g style="fill: #262626" transform="translate(301.136391 225.53906) scale(0.1 -0.1)">
     <use xlink:href="#DejaVuSans-31"/>
     <use xlink:href="#DejaVuSans-34" transform="translate(63.623047 0)"/>
     <use xlink:href="#DejaVuSans-25" transform="translate(127.246094 0)"/>
    </g>
   </g>
   <g id="text_30">
    <!-- Provider -->
    <g style="fill: #262626" transform="translate(260.211967 162.18) scale(0.12 -0.12)">
     <defs>
      <path id="DejaVuSans-76" d="M 191 3500 
L 800 3500 
L 1894 563 
L 2988 3500 
L 3597 3500 
L 2284 0 
L 1503 0 
L 191 3500 
z
" transform="scale(0.015625)"/>
      <path id="DejaVuSans-64" d="M 2906 2969 
L 2906 4863 
L 3481 4863 
L 3481 0 
L 2906 0 
L 2906 525 
Q 2725 213 2448 61 
Q 2172 -91 1784 -91 
Q 1150 -91 751 415 
Q 353 922 353 1747 
Q 353 2572 751 3078 
Q 1150 3584 1784 3584 
Q 2172 3584 2448 3432 
Q 2725 3281 2906 2969 
z
M 947 1747 
Q 947 1113 1208 752 
Q 1469 391 1925 391 
Q 2381 391 2643 752 
Q 2906 1113 2906 1747 
Q 2906 2381 2643 2742 
Q 2381 3103 1925 3103 
Q 1469 3103 1208 2742 
Q 947 2381 947 1747 
z
" transform="scale(0.015625)"/>
     </defs>
     <use xlink:href="#DejaVuSans-50"/>
     <use xlink:href="#DejaVuSans-72" transform="translate(58.552734 0)"/>
     <use xlink:href="#DejaVuSans-6f" transform="translate(97.416016 0)"/>
     <use xlink:href="#DejaVuSans-76" transform="translate(158.597656 0)"/>
     <use xlink:href="#DejaVuSans-69" transform="translate(217.777344 0)"/>
     <use xlink:href="#DejaVuSans-64" transform="translate(245.560547 0)"/>
     <use xlink:href="#DejaVuSans-65" transform="translate(309.037109 0)"/>
     <use xlink:href="#DejaVuSans-72" transform="translate(370.560547 0)"/>
    </g>
   </g>
  </g>
  <g id="axes_7">
   <g id="matplotlib.axis_13"/>
   <g id="matplotlib.axis_14"/>
   <g id="patch_14">
    <path d="M 510.070344 198.003488 
C 505.351781 189.830697 498.218966 183.31396 489.654324 179.350847 
C 481.089683 175.387734 471.505347 174.168952 462.221399 175.862367 
C 452.937451 177.555782 444.400636 182.079907 437.786757 188.81162 
C 431.172879 195.543332 426.800197 204.158701 425.270977 213.471103 
L 470.434093 220.887488 
z
" style="fill: #1f77b4; stroke: #ffffff; stroke-linejoin: miter"/>
   </g>
   <g id="patch_15">
    <path d="M 426.092247 217.973617 
C 424.903737 225.211227 425.472249 232.629595 427.749724 239.601586 
C 430.027199 246.573576 433.947603 252.897027 439.179497 258.03734 
C 444.411391 263.177652 450.80308 266.985786 457.814199 269.139798 
C 464.825318 271.29381 472.252557 271.731242 479.468053 270.41512 
C 486.683549 269.098996 493.478063 266.067473 499.277182 261.576841 
C 505.0763 257.086208 509.711876 251.266671 512.792009 244.610222 
C 515.872141 237.953772 517.307526 230.653435 516.976815 223.326349 
C 516.646104 215.999264 514.558884 208.8579 510.891612 202.505997 
L 471.255362 225.39 
z
" style="fill: #ff7f0e; stroke: #ffffff; stroke-linejoin: miter"/>
   </g>
   <g id="text_31">
    <!-- Yes -->
    <g style="fill: #262626" transform="translate(445.254819 174.11923) scale(0.1 -0.1)">
     <use xlink:href="#DejaVuSans-59"/>
     <use xlink:href="#DejaVuSans-65" transform="translate(47.833984 0)"/>
     <use xlink:href="#DejaVuSans-73" transform="translate(109.357422 0)"/>
    </g>
   </g>
   <g id="text_32">
    <!-- 39% -->
    <g style="fill: #262626" transform="translate(454.393196 196.63179) scale(0.1 -0.1)">
     <defs>
      <path id="DejaVuSans-33" d="M 2597 2516 
Q 3050 2419 3304 2112 
Q 3559 1806 3559 1356 
Q 3559 666 3084 287 
Q 2609 -91 1734 -91 
Q 1441 -91 1130 -33 
Q 819 25 488 141 
L 488 750 
Q 750 597 1062 519 
Q 1375 441 1716 441 
Q 2309 441 2620 675 
Q 2931 909 2931 1356 
Q 2931 1769 2642 2001 
Q 2353 2234 1838 2234 
L 1294 2234 
L 1294 2753 
L 1863 2753 
Q 2328 2753 2575 2939 
Q 2822 3125 2822 3475 
Q 2822 3834 2567 4026 
Q 2313 4219 1838 4219 
Q 1578 4219 1281 4162 
Q 984 4106 628 3988 
L 628 4550 
Q 988 4650 1302 4700 
Q 1616 4750 1894 4750 
Q 2613 4750 3031 4423 
Q 3450 4097 3450 3541 
Q 3450 3153 3228 2886 
Q 3006 2619 2597 2516 
z
" transform="scale(0.015625)"/>
     </defs>
     <use xlink:href="#DejaVuSans-33"/>
     <use xlink:href="#DejaVuSans-39" transform="translate(63.623047 0)"/>
     <use xlink:href="#DejaVuSans-25" transform="translate(127.246094 0)"/>
    </g>
   </g>
   <g id="text_33">
    <!-- No -->
    <g style="fill: #262626" transform="translate(480.289346 277.677004) scale(0.1 -0.1)">
     <use xlink:href="#DejaVuSans-4e"/>
     <use xlink:href="#DejaVuSans-6f" transform="translate(74.804688 0)"/>
    </g>
   </g>
   <g id="text_34">
    <!-- 61% -->
    <g style="fill: #262626" transform="translate(465.069708 255.164445) scale(0.1 -0.1)">
     <use xlink:href="#DejaVuSans-36"/>
     <use xlink:href="#DejaVuSans-31" transform="translate(63.623047 0)"/>
     <use xlink:href="#DejaVuSans-25" transform="translate(127.246094 0)"/>
    </g>
   </g>
   <g id="text_35">
    <!-- License -->
    <g style="fill: #262626" transform="translate(448.634425 162.18) scale(0.12 -0.12)">
     <defs>
      <path id="DejaVuSans-4c" d="M 628 4666 
L 1259 4666 
L 1259 531 
L 3531 531 
L 3531 0 
L 628 0 
L 628 4666 
z
" transform="scale(0.015625)"/>
     </defs>
     <use xlink:href="#DejaVuSans-4c"/>
     <use xlink:href="#DejaVuSans-69" transform="translate(55.712891 0)"/>
     <use xlink:href="#DejaVuSans-63" transform="translate(83.496094 0)"/>
     <use xlink:href="#DejaVuSans-65" transform="translate(138.476562 0)"/>
     <use xlink:href="#DejaVuSans-6e" transform="translate(200 0)"/>
     <use xlink:href="#DejaVuSans-73" transform="translate(263.378906 0)"/>
     <use xlink:href="#DejaVuSans-65" transform="translate(315.478516 0)"/>
    </g>
   </g>
  </g>
  <g id="axes_8">
   <g id="matplotlib.axis_15"/>
   <g id="matplotlib.axis_16"/>
   <g id="patch_16">
    <path d="M 697.233758 202.506 
C 693.165882 195.460233 687.291945 189.624924 680.219492 185.603625 
C 673.147039 181.582326 665.128614 179.518629 656.993572 179.625985 
C 648.858529 179.733341 640.897356 182.007916 633.933483 186.214449 
C 626.969611 190.420982 621.251706 196.409265 617.371177 203.559925 
L 657.597507 225.39 
z
" style="fill: #1f77b4; stroke: #ffffff; stroke-linejoin: miter"/>
   </g>
   <g id="patch_17">
    <path d="M 617.371177 203.559926 
C 613.710251 210.305924 611.804431 217.865692 611.829755 225.540992 
C 611.855076 233.216292 613.810728 240.763311 617.516085 247.485007 
C 621.221442 254.206703 626.558792 259.889549 633.035185 264.008676 
C 639.511578 268.127803 646.921287 270.552363 654.579928 271.058415 
L 657.597507 225.39 
z
" style="fill: #ff7f0e; stroke: #ffffff; stroke-linejoin: miter"/>
   </g>
   <g id="patch_18">
    <path d="M 654.579928 271.058415 
C 665.807347 271.800277 676.923325 268.376369 685.787553 261.445944 
C 694.651782 254.515519 700.656315 244.553882 702.644994 233.479115 
L 657.597507 225.39 
z
" style="fill: #2ca02c; stroke: #ffffff; stroke-linejoin: miter"/>
   </g>
   <g id="patch_19">
    <path d="M 702.644994 233.479115 
C 703.393398 229.311338 703.559789 225.059791 703.139403 220.846271 
C 702.719018 216.632751 701.715911 212.497885 700.158818 208.560128 
L 657.597507 225.39 
z
" style="fill: #d62728; stroke: #ffffff; stroke-linejoin: miter"/>
   </g>
   <g id="patch_20">
    <path d="M 700.158818 208.560128 
C 699.746324 207.516965 699.295617 206.48932 698.807614 205.479275 
C 698.31961 204.46923 697.794636 203.477468 697.233757 202.505997 
L 657.597507 225.39 
z
" style="fill: #9467bd; stroke: #ffffff; stroke-linejoin: miter"/>
   </g>
   <g id="text_36">
    <!-- CC-BY-4.0 -->
    <g style="fill: #262626" transform="translate(608.98005 177.808958) scale(0.1 -0.1)">
     <defs>
      <path id="DejaVuSans-43" d="M 4122 4306 
L 4122 3641 
Q 3803 3938 3442 4084 
Q 3081 4231 2675 4231 
Q 1875 4231 1450 3742 
Q 1025 3253 1025 2328 
Q 1025 1406 1450 917 
Q 1875 428 2675 428 
Q 3081 428 3442 575 
Q 3803 722 4122 1019 
L 4122 359 
Q 3791 134 3420 21 
Q 3050 -91 2638 -91 
Q 1578 -91 968 557 
Q 359 1206 359 2328 
Q 359 3453 968 4101 
Q 1578 4750 2638 4750 
Q 3056 4750 3426 4639 
Q 3797 4528 4122 4306 
z
" transform="scale(0.015625)"/>
      <path id="DejaVuSans-2d" d="M 313 2009 
L 1997 2009 
L 1997 1497 
L 313 1497 
L 313 2009 
z
" transform="scale(0.015625)"/>
      <path id="DejaVuSans-42" d="M 1259 2228 
L 1259 519 
L 2272 519 
Q 2781 519 3026 730 
Q 3272 941 3272 1375 
Q 3272 1813 3026 2020 
Q 2781 2228 2272 2228 
L 1259 2228 
z
M 1259 4147 
L 1259 2741 
L 2194 2741 
Q 2656 2741 2882 2914 
Q 3109 3088 3109 3444 
Q 3109 3797 2882 3972 
Q 2656 4147 2194 4147 
L 1259 4147 
z
M 628 4666 
L 2241 4666 
Q 2963 4666 3353 4366 
Q 3744 4066 3744 3513 
Q 3744 3084 3544 2831 
Q 3344 2578 2956 2516 
Q 3422 2416 3680 2098 
Q 3938 1781 3938 1306 
Q 3938 681 3513 340 
Q 3088 0 2303 0 
L 628 0 
L 628 4666 
z
" transform="scale(0.015625)"/>
      <path id="DejaVuSans-2e" d="M 684 794 
L 1344 794 
L 1344 0 
L 684 0 
L 684 794 
z
" transform="scale(0.015625)"/>
     </defs>
     <use xlink:href="#DejaVuSans-43"/>
     <use xlink:href="#DejaVuSans-43" transform="translate(69.824219 0)"/>
     <use xlink:href="#DejaVuSans-2d" transform="translate(139.648438 0)"/>
     <use xlink:href="#DejaVuSans-42" transform="translate(172.107422 0)"/>
     <use xlink:href="#DejaVuSans-59" transform="translate(235.210938 0)"/>
     <use xlink:href="#DejaVuSans-2d" transform="translate(284.419922 0)"/>
     <use xlink:href="#DejaVuSans-34" transform="translate(320.503906 0)"/>
     <use xlink:href="#DejaVuSans-2e" transform="translate(384.126953 0)"/>
     <use xlink:href="#DejaVuSans-30" transform="translate(415.914062 0)"/>
    </g>
   </g>
   <g id="text_37">
    <!-- 34% -->
    <g style="fill: #262626" transform="translate(646.121863 200.690966) scale(0.1 -0.1)">
     <use xlink:href="#DejaVuSans-33"/>
     <use xlink:href="#DejaVuSans-34" transform="translate(63.623047 0)"/>
     <use xlink:href="#DejaVuSans-25" transform="translate(127.246094 0)"/>
    </g>
   </g>
   <g id="text_38">
    <!-- CC0-1.0 -->
    <g style="fill: #262626" transform="translate(573.668886 252.453895) scale(0.1 -0.1)">
     <use xlink:href="#DejaVuSans-43"/>
     <use xlink:href="#DejaVuSans-43" transform="translate(69.824219 0)"/>
     <use xlink:href="#DejaVuSans-30" transform="translate(139.648438 0)"/>
     <use xlink:href="#DejaVuSans-2d" transform="translate(203.271484 0)"/>
     <use xlink:href="#DejaVuSans-31" transform="translate(239.355469 0)"/>
     <use xlink:href="#DejaVuSans-2e" transform="translate(302.978516 0)"/>
     <use xlink:href="#DejaVuSans-30" transform="translate(334.765625 0)"/>
    </g>
   </g>
   <g id="text_39">
    <!-- 32% -->
    <g style="fill: #262626" transform="translate(622.435375 241.406386) scale(0.1 -0.1)">
     <defs>
      <path id="DejaVuSans-32" d="M 1228 531 
L 3431 531 
L 3431 0 
L 469 0 
L 469 531 
Q 828 903 1448 1529 
Q 2069 2156 2228 2338 
Q 2531 2678 2651 2914 
Q 2772 3150 2772 3378 
Q 2772 3750 2511 3984 
Q 2250 4219 1831 4219 
Q 1534 4219 1204 4116 
Q 875 4013 500 3803 
L 500 4441 
Q 881 4594 1212 4672 
Q 1544 4750 1819 4750 
Q 2544 4750 2975 4387 
Q 3406 4025 3406 3419 
Q 3406 3131 3298 2873 
Q 3191 2616 2906 2266 
Q 2828 2175 2409 1742 
Q 1991 1309 1228 531 
z
" transform="scale(0.015625)"/>
     </defs>
     <use xlink:href="#DejaVuSans-33"/>
     <use xlink:href="#DejaVuSans-32" transform="translate(63.623047 0)"/>
     <use xlink:href="#DejaVuSans-25" transform="translate(127.246094 0)"/>
    </g>
   </g>
   <g id="text_40">
    <!-- Other -->
    <g style="fill: #262626" transform="translate(688.606596 267.810884) scale(0.1 -0.1)">
     <defs>
      <path id="DejaVuSans-4f" d="M 2522 4238 
Q 1834 4238 1429 3725 
Q 1025 3213 1025 2328 
Q 1025 1447 1429 934 
Q 1834 422 2522 422 
Q 3209 422 3611 934 
Q 4013 1447 4013 2328 
Q 4013 3213 3611 3725 
Q 3209 4238 2522 4238 
z
M 2522 4750 
Q 3503 4750 4090 4092 
Q 4678 3434 4678 2328 
Q 4678 1225 4090 567 
Q 3503 -91 2522 -91 
Q 1538 -91 948 565 
Q 359 1222 359 2328 
Q 359 3434 948 4092 
Q 1538 4750 2522 4750 
z
" transform="scale(0.015625)"/>
      <path id="DejaVuSans-68" d="M 3513 2113 
L 3513 0 
L 2938 0 
L 2938 2094 
Q 2938 2591 2744 2837 
Q 2550 3084 2163 3084 
Q 1697 3084 1428 2787 
Q 1159 2491 1159 1978 
L 1159 0 
L 581 0 
L 581 4863 
L 1159 4863 
L 1159 2956 
Q 1366 3272 1645 3428 
Q 1925 3584 2291 3584 
Q 2894 3584 3203 3211 
Q 3513 2838 3513 2113 
z
" transform="scale(0.015625)"/>
     </defs>
     <use xlink:href="#DejaVuSans-4f"/>
     <use xlink:href="#DejaVuSans-74" transform="translate(78.710938 0)"/>
     <use xlink:href="#DejaVuSans-68" transform="translate(117.919922 0)"/>
     <use xlink:href="#DejaVuSans-65" transform="translate(181.298828 0)"/>
     <use xlink:href="#DejaVuSans-72" transform="translate(242.822266 0)"/>
    </g>
   </g>
   <g id="text_41">
    <!-- 23% -->
    <g style="fill: #262626" transform="translate(663.398274 249.782925) scale(0.1 -0.1)">
     <use xlink:href="#DejaVuSans-32"/>
     <use xlink:href="#DejaVuSans-33" transform="translate(63.623047 0)"/>
     <use xlink:href="#DejaVuSans-25" transform="translate(127.246094 0)"/>
    </g>
   </g>
   <g id="text_42">
    <!-- CC-BY-3.0 -->
    <g style="fill: #262626" transform="translate(707.693591 223.151249) scale(0.1 -0.1)">
     <use xlink:href="#DejaVuSans-43"/>
     <use xlink:href="#DejaVuSans-43" transform="translate(69.824219 0)"/>
     <use xlink:href="#DejaVuSans-2d" transform="translate(139.648438 0)"/>
     <use xlink:href="#DejaVuSans-42" transform="translate(172.107422 0)"/>
     <use xlink:href="#DejaVuSans-59" transform="translate(235.210938 0)"/>
     <use xlink:href="#DejaVuSans-2d" transform="translate(284.419922 0)"/>
     <use xlink:href="#DejaVuSans-33" transform="translate(320.503906 0)"/>
     <use xlink:href="#DejaVuSans-2e" transform="translate(384.126953 0)"/>
     <use xlink:href="#DejaVuSans-30" transform="translate(415.914062 0)"/>
    </g>
   </g>
   <g id="text_43">
    <!-- 9% -->
    <g style="fill: #262626" transform="translate(676.990613 225.423125) scale(0.1 -0.1)">
     <use xlink:href="#DejaVuSans-39"/>
     <use xlink:href="#DejaVuSans-25" transform="translate(63.623047 0)"/>
    </g>
   </g>
   <g id="text_44">
    <!-- CC-BY-SA-4.0 -->
    <g style="fill: #262626" transform="translate(702.928624 206.247578) scale(0.1 -0.1)">
     <defs>
      <path id="DejaVuSans-53" d="M 3425 4513 
L 3425 3897 
Q 3066 4069 2747 4153 
Q 2428 4238 2131 4238 
Q 1616 4238 1336 4038 
Q 1056 3838 1056 3469 
Q 1056 3159 1242 3001 
Q 1428 2844 1947 2747 
L 2328 2669 
Q 3034 2534 3370 2195 
Q 3706 1856 3706 1288 
Q 3706 609 3251 259 
Q 2797 -91 1919 -91 
Q 1588 -91 1214 -16 
Q 841 59 441 206 
L 441 856 
Q 825 641 1194 531 
Q 1563 422 1919 422 
Q 2459 422 2753 634 
Q 3047 847 3047 1241 
Q 3047 1584 2836 1778 
Q 2625 1972 2144 2069 
L 1759 2144 
Q 1053 2284 737 2584 
Q 422 2884 422 3419 
Q 422 4038 858 4394 
Q 1294 4750 2059 4750 
Q 2388 4750 2728 4690 
Q 3069 4631 3425 4513 
z
" transform="scale(0.015625)"/>
      <path id="DejaVuSans-41" d="M 2188 4044 
L 1331 1722 
L 3047 1722 
L 2188 4044 
z
M 1831 4666 
L 2547 4666 
L 4325 0 
L 3669 0 
L 3244 1197 
L 1141 1197 
L 716 0 
L 50 0 
L 1831 4666 
z
" transform="scale(0.015625)"/>
     </defs>
     <use xlink:href="#DejaVuSans-43"/>
     <use xlink:href="#DejaVuSans-43" transform="translate(69.824219 0)"/>
     <use xlink:href="#DejaVuSans-2d" transform="translate(139.648438 0)"/>
     <use xlink:href="#DejaVuSans-42" transform="translate(172.107422 0)"/>
     <use xlink:href="#DejaVuSans-59" transform="translate(235.210938 0)"/>
     <use xlink:href="#DejaVuSans-2d" transform="translate(284.419922 0)"/>
     <use xlink:href="#DejaVuSans-53" transform="translate(320.503906 0)"/>
     <use xlink:href="#DejaVuSans-41" transform="translate(385.855469 0)"/>
     <use xlink:href="#DejaVuSans-2d" transform="translate(452.013672 0)"/>
     <use xlink:href="#DejaVuSans-34" transform="translate(488.097656 0)"/>
     <use xlink:href="#DejaVuSans-2e" transform="translate(551.720703 0)"/>
     <use xlink:href="#DejaVuSans-30" transform="translate(583.507812 0)"/>
    </g>
   </g>
   <g id="text_45">
    <!-- 2% -->
    <g style="fill: #262626" transform="translate(674.39154 216.20294) scale(0.1 -0.1)">
     <use xlink:href="#DejaVuSans-32"/>
     <use xlink:href="#DejaVuSans-25" transform="translate(63.623047 0)"/>
    </g>
   </g>
   <g id="text_46">
    <!-- License Type -->
    <g style="fill: #262626" transform="translate(619.29032 162.18) scale(0.12 -0.12)">
     <defs>
      <path id="DejaVuSans-20" transform="scale(0.015625)"/>
      <path id="DejaVuSans-54" d="M -19 4666 
L 3928 4666 
L 3928 4134 
L 2272 4134 
L 2272 0 
L 1638 0 
L 1638 4134 
L -19 4134 
L -19 4666 
z
" transform="scale(0.015625)"/>
      <path id="DejaVuSans-79" d="M 2059 -325 
Q 1816 -950 1584 -1140 
Q 1353 -1331 966 -1331 
L 506 -1331 
L 506 -850 
L 844 -850 
Q 1081 -850 1212 -737 
Q 1344 -625 1503 -206 
L 1606 56 
L 191 3500 
L 800 3500 
L 1894 763 
L 2988 3500 
L 3597 3500 
L 2059 -325 
z
" transform="scale(0.015625)"/>
     </defs>
     <use xlink:href="#DejaVuSans-4c"/>
     <use xlink:href="#DejaVuSans-69" transform="translate(55.712891 0)"/>
     <use xlink:href="#DejaVuSans-63" transform="translate(83.496094 0)"/>
     <use xlink:href="#DejaVuSans-65" transform="translate(138.476562 0)"/>
     <use xlink:href="#DejaVuSans-6e" transform="translate(200 0)"/>
     <use xlink:href="#DejaVuSans-73" transform="translate(263.378906 0)"/>
     <use xlink:href="#DejaVuSans-65" transform="translate(315.478516 0)"/>
     <use xlink:href="#DejaVuSans-20" transform="translate(377.001953 0)"/>
     <use xlink:href="#DejaVuSans-54" transform="translate(408.789062 0)"/>
     <use xlink:href="#DejaVuSans-79" transform="translate(454.248047 0)"/>
     <use xlink:href="#DejaVuSans-70" transform="translate(513.427734 0)"/>
     <use xlink:href="#DejaVuSans-65" transform="translate(576.904297 0)"/>
    </g>
   </g>
  </g>
  <g id="axes_9">
   <g id="matplotlib.axis_17"/>
   <g id="matplotlib.axis_18"/>
   <g id="patch_21">
    <path d="M 141.380902 340.508198 
C 139.233968 336.7896 136.57437 333.391568 133.480435 330.414177 
C 130.386499 327.436786 126.888902 324.909555 123.090649 322.906914 
L 101.744651 363.392198 
z
" style="fill: #1f77b4; stroke: #ffffff; stroke-linejoin: miter"/>
   </g>
   <g id="patch_22">
    <path d="M 119.917072 326.204716 
C 115.078746 323.653693 109.822069 321.990538 104.396908 321.294302 
C 98.971747 320.598068 93.465447 320.879962 88.139751 322.126591 
C 82.814056 323.37322 77.754708 325.56451 73.202197 328.5963 
C 68.649686 331.62809 64.677311 335.451564 61.473889 339.884985 
C 58.270468 344.318404 55.887581 349.290388 54.438494 354.564596 
C 52.989407 359.838804 52.497456 365.330318 52.986017 370.778109 
C 53.47458 376.225899 54.935792 381.542252 57.3002 386.474462 
C 59.664608 391.406671 62.894139 395.875327 66.835284 399.668015 
C 70.776429 403.460703 75.365732 406.516361 80.385048 408.689741 
C 85.404364 410.863122 90.772878 412.119231 96.235405 412.398364 
C 101.697932 412.677494 107.166521 411.975155 112.381231 410.324726 
C 117.595942 408.674298 122.472829 406.102345 126.780043 402.731139 
C 131.087256 399.359933 134.755466 395.243747 137.610308 390.578237 
C 140.46515 385.912726 142.460658 380.773008 143.501982 375.403393 
C 144.543306 370.033779 144.613677 364.520722 143.709748 359.126277 
C 142.805822 353.731832 140.94215 348.542856 138.207322 343.805997 
L 98.571072 366.69 
z
" style="fill: #ff7f0e; stroke: #ffffff; stroke-linejoin: miter"/>
   </g>
   <g id="text_47">
    <!-- Yes -->
    <g style="fill: #262626" transform="translate(136.654013 329.87575) scale(0.1 -0.1)">
     <use xlink:href="#DejaVuSans-59"/>
     <use xlink:href="#DejaVuSans-65" transform="translate(47.833984 0)"/>
     <use xlink:href="#DejaVuSans-73" transform="translate(109.357422 0)"/>
    </g>
   </g>
   <g id="text_48">
    <!-- 9% -->
    <g style="fill: #262626" transform="translate(112.85409 346.364761) scale(0.1 -0.1)">
     <use xlink:href="#DejaVuSans-39"/>
     <use xlink:href="#DejaVuSans-25" transform="translate(63.623047 0)"/>
    </g>
   </g>
   <g id="text_49">
    <!-- No -->
    <g style="fill: #262626" transform="translate(50.061713 405.725201) scale(0.1 -0.1)">
     <use xlink:href="#DejaVuSans-4e"/>
     <use xlink:href="#DejaVuSans-6f" transform="translate(74.804688 0)"/>
    </g>
   </g>
   <g id="text_50">
    <!-- 91% -->
    <g style="fill: #262626" transform="translate(68.416322 389.236189) scale(0.1 -0.1)">
     <use xlink:href="#DejaVuSans-39"/>
     <use xlink:href="#DejaVuSans-31" transform="translate(63.623047 0)"/>
     <use xlink:href="#DejaVuSans-25" transform="translate(127.246094 0)"/>
    </g>
   </g>
   <g id="text_51">
    <!-- Version -->
    <g style="fill: #262626" transform="translate(76.50701 303.48) scale(0.12 -0.12)">
     <defs>
      <path id="DejaVuSans-56" d="M 1831 0 
L 50 4666 
L 709 4666 
L 2188 738 
L 3669 4666 
L 4325 4666 
L 2547 0 
L 1831 0 
z
" transform="scale(0.015625)"/>
     </defs>
     <use xlink:href="#DejaVuSans-56"/>
     <use xlink:href="#DejaVuSans-65" transform="translate(60.658203 0)"/>
     <use xlink:href="#DejaVuSans-72" transform="translate(122.181641 0)"/>
     <use xlink:href="#DejaVuSans-73" transform="translate(163.294922 0)"/>
     <use xlink:href="#DejaVuSans-69" transform="translate(215.394531 0)"/>
     <use xlink:href="#DejaVuSans-6f" transform="translate(243.177734 0)"/>
     <use xlink:href="#DejaVuSans-6e" transform="translate(304.359375 0)"/>
    </g>
   </g>
  </g>
  <g id="axes_10">
   <g id="matplotlib.axis_19"/>
   <g id="matplotlib.axis_20"/>
   <g id="patch_23">
    <path d="M 323.936402 339.270446 
C 319.397456 331.408762 312.620518 325.072446 304.471881 321.071467 
C 296.323244 317.070489 287.165574 315.582917 278.169493 316.798908 
C 269.173411 318.014898 260.739301 321.880332 253.945291 327.901092 
C 247.151282 333.921851 242.299749 341.829975 240.010863 350.61457 
L 284.300151 362.154446 
z
" style="fill: #1f77b4; stroke: #ffffff; stroke-linejoin: miter"/>
   </g>
   <g id="patch_24">
    <path d="M 240.62393 355.15012 
C 238.729669 362.420176 238.654284 370.046045 240.404466 377.352127 
C 242.154646 384.658209 245.67713 391.422194 250.659861 397.044858 
C 255.642592 402.667522 261.933942 406.977775 268.976567 409.593765 
C 276.019191 412.209756 283.598794 413.051882 291.043875 412.04554 
C 298.488957 411.039197 305.572987 408.215001 311.66837 403.82316 
C 317.763754 399.431319 322.685028 393.605463 325.996202 386.861718 
C 329.307377 380.117973 330.9077 372.661556 330.655402 365.153007 
C 330.403105 357.644457 328.305862 350.312262 324.549467 343.805997 
L 284.913217 366.69 
z
" style="fill: #ff7f0e; stroke: #ffffff; stroke-linejoin: miter"/>
   </g>
   <g id="text_52">
    <!-- Yes -->
    <g style="fill: #262626" transform="translate(261.411113 315.022729) scale(0.1 -0.1)">
     <use xlink:href="#DejaVuSans-59"/>
     <use xlink:href="#DejaVuSans-65" transform="translate(47.833984 0)"/>
     <use xlink:href="#DejaVuSans-73" transform="translate(109.357422 0)"/>
    </g>
   </g>
   <g id="text_53">
    <!-- 38% -->
    <g style="fill: #262626" transform="translate(269.508474 337.700498) scale(0.1 -0.1)">
     <use xlink:href="#DejaVuSans-33"/>
     <use xlink:href="#DejaVuSans-38" transform="translate(63.623047 0)"/>
     <use xlink:href="#DejaVuSans-25" transform="translate(127.246094 0)"/>
    </g>
   </g>
   <g id="text_54">
    <!-- No -->
    <g style="fill: #262626" transform="translate(291.656965 419.340464) scale(0.1 -0.1)">
     <use xlink:href="#DejaVuSans-4e"/>
     <use xlink:href="#DejaVuSans-6f" transform="translate(74.804688 0)"/>
    </g>
   </g>
   <g id="text_55">
    <!-- 62% -->
    <g style="fill: #262626" transform="translate(277.478344 396.662696) scale(0.1 -0.1)">
     <use xlink:href="#DejaVuSans-36"/>
     <use xlink:href="#DejaVuSans-32" transform="translate(63.623047 0)"/>
     <use xlink:href="#DejaVuSans-25" transform="translate(127.246094 0)"/>
    </g>
   </g>
   <g id="text_56">
    <!-- Contact Email -->
    <g style="fill: #262626" transform="translate(243.016342 303.48) scale(0.12 -0.12)">
     <use xlink:href="#DejaVuSans-43"/>
     <use xlink:href="#DejaVuSans-6f" transform="translate(69.824219 0)"/>
     <use xlink:href="#DejaVuSans-6e" transform="translate(131.005859 0)"/>
     <use xlink:href="#DejaVuSans-74" transform="translate(194.384766 0)"/>
     <use xlink:href="#DejaVuSans-61" transform="translate(233.59375 0)"/>
     <use xlink:href="#DejaVuSans-63" transform="translate(294.873047 0)"/>
     <use xlink:href="#DejaVuSans-74" transform="translate(349.853516 0)"/>
     <use xlink:href="#DejaVuSans-20" transform="translate(389.0625 0)"/>
     <use xlink:href="#DejaVuSans-45" transform="translate(420.849609 0)"/>
     <use xlink:href="#DejaVuSans-6d" transform="translate(484.033203 0)"/>
     <use xlink:href="#DejaVuSans-61" transform="translate(581.445312 0)"/>
     <use xlink:href="#DejaVuSans-69" transform="translate(642.724609 0)"/>
     <use xlink:href="#DejaVuSans-6c" transform="translate(670.507812 0)"/>
    </g>
   </g>
  </g>
  <g id="axes_11">
   <g id="matplotlib.axis_21"/>
   <g id="matplotlib.axis_22"/>
   <g id="patch_25">
    <path d="M 514.080349 340.522852 
C 511.968723 336.865409 509.360987 333.517781 506.331456 330.575369 
C 503.301924 327.632957 499.879653 325.123981 496.162171 323.119942 
L 474.444098 363.406852 
z
" style="fill: #1f77b4; stroke: #ffffff; stroke-linejoin: miter"/>
   </g>
   <g id="patch_26">
    <path d="M 492.973436 326.40309 
C 488.151024 323.803399 482.900779 322.090579 477.473061 321.346311 
C 472.045344 320.60204 466.527824 320.838344 461.183615 322.043949 
C 455.839406 323.249555 450.754822 325.404994 446.172339 328.407475 
C 441.589855 331.409955 437.583487 335.21098 434.344274 339.629302 
C 431.105062 344.047622 428.68533 349.011866 427.200469 354.285313 
C 425.715607 359.55876 425.189597 365.056236 425.647525 370.515572 
C 426.105453 375.974908 427.539917 381.30793 429.88252 386.26033 
C 432.225123 391.212731 435.438019 395.704512 439.368004 399.521484 
C 443.297989 403.338457 447.881572 406.418955 452.900197 408.616099 
C 457.918823 410.813243 463.29143 412.091539 468.761801 412.390021 
C 474.232172 412.688504 479.711965 412.002358 484.939853 410.364301 
C 490.167743 408.726244 495.059299 406.162732 499.381252 402.796013 
C 503.703204 399.429295 507.385739 395.313763 510.253272 390.645645 
C 513.120805 385.977529 515.127009 380.832231 516.176208 375.455128 
C 517.225408 370.078026 517.300662 364.555977 516.398386 359.15228 
C 515.496108 353.748582 513.630867 348.550524 510.891612 343.805997 
L 471.255362 366.69 
z
" style="fill: #ff7f0e; stroke: #ffffff; stroke-linejoin: miter"/>
   </g>
   <g id="text_57">
    <!-- Yes -->
    <g style="fill: #262626" transform="translate(509.520191 330.051596) scale(0.1 -0.1)">
     <use xlink:href="#DejaVuSans-59"/>
     <use xlink:href="#DejaVuSans-65" transform="translate(47.833984 0)"/>
     <use xlink:href="#DejaVuSans-73" transform="translate(109.357422 0)"/>
    </g>
   </g>
   <g id="text_58">
    <!-- 9% -->
    <g style="fill: #262626" transform="translate(485.644481 346.467337) scale(0.1 -0.1)">
     <use xlink:href="#DejaVuSans-39"/>
     <use xlink:href="#DejaVuSans-25" transform="translate(63.623047 0)"/>
    </g>
   </g>
   <g id="text_59">
    <!-- No -->
    <g style="fill: #262626" transform="translate(422.57927 405.564007) scale(0.1 -0.1)">
     <use xlink:href="#DejaVuSans-4e"/>
     <use xlink:href="#DejaVuSans-6f" transform="translate(74.804688 0)"/>
    </g>
   </g>
   <g id="text_60">
    <!-- 91% -->
    <g style="fill: #262626" transform="translate(441.009667 389.148265) scale(0.1 -0.1)">
     <use xlink:href="#DejaVuSans-39"/>
     <use xlink:href="#DejaVuSans-31" transform="translate(63.623047 0)"/>
     <use xlink:href="#DejaVuSans-25" transform="translate(127.246094 0)"/>
    </g>
   </g>
   <g id="text_61">
    <!-- OBO -->
    <g style="fill: #262626" transform="translate(457.79755 303.48) scale(0.12 -0.12)">
     <use xlink:href="#DejaVuSans-4f"/>
     <use xlink:href="#DejaVuSans-42" transform="translate(78.710938 0)"/>
     <use xlink:href="#DejaVuSans-4f" transform="translate(145.564453 0)"/>
    </g>
   </g>
  </g>
  <g id="axes_12">
   <g id="matplotlib.axis_23"/>
   <g id="matplotlib.axis_24"/>
   <g id="patch_27">
    <path d="M 699.227242 339.686155 
C 694.643419 331.746742 687.778162 325.364794 679.525831 321.371709 
C 671.2735 317.378624 662.008715 315.955671 652.938434 317.288224 
L 659.590991 362.570155 
z
" style="fill: #1f77b4; stroke: #ffffff; stroke-linejoin: miter"/>
   </g>
   <g id="patch_28">
    <path d="M 650.944952 321.40807 
C 646.132967 322.115019 641.464285 323.584503 637.114888 325.761132 
C 632.765491 327.937762 628.790729 330.79384 625.340414 334.221712 
C 621.890099 337.649584 619.008143 341.605629 616.803175 345.940728 
C 614.598208 350.275828 613.098288 354.934822 612.359953 359.742091 
C 611.621618 364.549359 611.654261 369.443736 612.456657 374.240729 
C 613.259053 379.037721 614.820986 383.676292 617.083585 387.981594 
C 619.346184 392.286897 622.280648 396.204139 625.776381 399.585682 
C 629.272115 402.967224 633.284618 405.770025 637.662662 407.888444 
C 642.040707 410.006864 646.728576 411.413945 651.549563 412.056642 
C 656.37055 412.699339 661.263312 412.569476 666.043419 411.671956 
C 670.823525 410.774432 675.430157 409.120665 679.689664 406.772993 
C 683.949172 404.425322 687.807362 401.413618 691.118798 397.851403 
C 694.430234 394.289189 697.152782 390.221793 699.183816 385.80253 
C 701.214851 381.383269 702.528531 376.668374 703.075337 371.835572 
C 703.622145 367.002769 703.395117 362.113552 702.402815 357.352217 
C 701.410515 352.590881 699.665576 348.018031 697.233757 343.805997 
L 657.597507 366.69 
z
" style="fill: #ff7f0e; stroke: #ffffff; stroke-linejoin: miter"/>
   </g>
   <g id="text_62">
    <!-- Yes -->
    <g style="fill: #262626" transform="translate(681.519313 320.011238) scale(0.1 -0.1)">
     <use xlink:href="#DejaVuSans-59"/>
     <use xlink:href="#DejaVuSans-65" transform="translate(47.833984 0)"/>
     <use xlink:href="#DejaVuSans-73" transform="translate(109.357422 0)"/>
    </g>
   </g>
   <g id="text_63">
    <!-- 19% -->
    <g style="fill: #262626" transform="translate(660.438613 340.610462) scale(0.1 -0.1)">
     <use xlink:href="#DejaVuSans-31"/>
     <use xlink:href="#DejaVuSans-39" transform="translate(63.623047 0)"/>
     <use xlink:href="#DejaVuSans-25" transform="translate(127.246094 0)"/>
    </g>
   </g>
   <g id="text_64">
    <!-- No -->
    <g style="fill: #262626" transform="translate(622.0692 414.767674) scale(0.1 -0.1)">
     <use xlink:href="#DejaVuSans-4e"/>
     <use xlink:href="#DejaVuSans-6f" transform="translate(74.804688 0)"/>
    </g>
   </g>
   <g id="text_65">
    <!-- 81% -->
    <g style="fill: #262626" transform="translate(634.523331 394.168447) scale(0.1 -0.1)">
     <use xlink:href="#DejaVuSans-38"/>
     <use xlink:href="#DejaVuSans-31" transform="translate(63.623047 0)"/>
     <use xlink:href="#DejaVuSans-25" transform="translate(127.246094 0)"/>
    </g>
   </g>
   <g id="text_66">
    <!-- OWL -->
    <g style="fill: #262626" transform="translate(643.598757 303.48) scale(0.12 -0.12)">
     <defs>
      <path id="DejaVuSans-57" d="M 213 4666 
L 850 4666 
L 1831 722 
L 2809 4666 
L 3519 4666 
L 4500 722 
L 5478 4666 
L 6119 4666 
L 4947 0 
L 4153 0 
L 3169 4050 
L 2175 0 
L 1381 0 
L 213 4666 
z
" transform="scale(0.015625)"/>
     </defs>
     <use xlink:href="#DejaVuSans-4f"/>
     <use xlink:href="#DejaVuSans-57" transform="translate(78.710938 0)"/>
     <use xlink:href="#DejaVuSans-4c" transform="translate(177.587891 0)"/>
    </g>
   </g>
  </g>
  <g id="axes_13">
   <g id="matplotlib.axis_25"/>
   <g id="matplotlib.axis_26"/>
   <g id="patch_29">
    <path d="M 141.821162 482.297572 
C 140.7754 480.486259 139.606705 478.748758 138.323298 477.097292 
C 137.039891 475.445825 135.644789 473.884273 134.147803 472.42362 
L 102.184911 505.181572 
z
" style="fill: #1f77b4; stroke: #ffffff; stroke-linejoin: miter"/>
   </g>
   <g id="patch_30">
    <path d="M 130.533963 475.232049 
C 126.420993 471.218904 121.588766 468.016039 116.290445 465.791261 
C 110.992125 463.566482 105.321889 462.35933 99.576814 462.233051 
C 93.831739 462.106775 88.113939 463.063616 82.722982 465.053444 
C 77.332024 467.043272 72.363732 470.030722 68.078402 473.859269 
C 63.793073 477.687817 60.266873 482.289415 57.684554 487.422978 
C 55.102235 492.55654 53.509689 498.130818 52.99036 503.853766 
C 52.471028 509.576714 53.034141 515.346609 54.650197 520.861153 
C 56.266253 526.375698 58.906525 531.536873 62.432684 536.074277 
C 65.958842 540.61168 70.308205 544.444658 75.252916 547.3724 
C 80.197627 550.300142 85.649787 552.270607 91.323748 553.180554 
C 96.997709 554.090503 102.792618 553.923758 108.404869 552.689063 
C 114.017121 551.454369 119.346958 549.173664 124.115142 545.966445 
C 128.883325 542.759227 133.005106 538.682495 136.264528 533.949842 
C 139.523949 529.217189 141.863085 523.912735 143.159377 518.314391 
C 144.455672 512.716046 144.686078 506.923319 143.838536 501.239702 
C 142.990995 495.556084 141.080562 490.082601 138.207333 485.106016 
L 98.571072 507.99 
z
" style="fill: #ff7f0e; stroke: #ffffff; stroke-linejoin: miter"/>
   </g>
   <g id="text_67">
    <!-- Yes -->
    <g style="fill: #262626" transform="translate(141.937136 477.048237) scale(0.1 -0.1)">
     <use xlink:href="#DejaVuSans-59"/>
     <use xlink:href="#DejaVuSans-65" transform="translate(47.833984 0)"/>
     <use xlink:href="#DejaVuSans-73" transform="translate(109.357422 0)"/>
    </g>
   </g>
   <g id="text_68">
    <!-- 4% -->
    <g style="fill: #262626" transform="translate(115.935912 491.090378) scale(0.1 -0.1)">
     <use xlink:href="#DejaVuSans-34"/>
     <use xlink:href="#DejaVuSans-25" transform="translate(63.623047 0)"/>
    </g>
   </g>
   <g id="text_69">
    <!-- No -->
    <g style="fill: #262626" transform="translate(45.218845 541.642081) scale(0.1 -0.1)">
     <use xlink:href="#DejaVuSans-4e"/>
     <use xlink:href="#DejaVuSans-6f" transform="translate(74.804688 0)"/>
    </g>
   </g>
   <g id="text_70">
    <!-- 96% -->
    <g style="fill: #262626" transform="translate(65.774758 527.599942) scale(0.1 -0.1)">
     <use xlink:href="#DejaVuSans-39"/>
     <use xlink:href="#DejaVuSans-36" transform="translate(63.623047 0)"/>
     <use xlink:href="#DejaVuSans-25" transform="translate(127.246094 0)"/>
    </g>
   </g>
   <g id="text_71">
    <!-- JSON -->
    <g style="fill: #262626" transform="translate(83.780135 444.78) scale(0.12 -0.12)">
     <defs>
      <path id="DejaVuSans-4a" d="M 628 4666 
L 1259 4666 
L 1259 325 
Q 1259 -519 939 -900 
Q 619 -1281 -91 -1281 
L -331 -1281 
L -331 -750 
L -134 -750 
Q 284 -750 456 -515 
Q 628 -281 628 325 
L 628 4666 
z
" transform="scale(0.015625)"/>
     </defs>
     <use xlink:href="#DejaVuSans-4a"/>
     <use xlink:href="#DejaVuSans-53" transform="translate(29.492188 0)"/>
     <use xlink:href="#DejaVuSans-4f" transform="translate(92.96875 0)"/>
     <use xlink:href="#DejaVuSans-4e" transform="translate(171.679688 0)"/>
    </g>
   </g>
  </g>
  <g id="axes_14"/>
  <g id="axes_15"/>
  <g id="axes_16"/>
  <g id="text_72">
   <!-- https://github.com/biopragmatics/bioregistry (2026-05-30) -->
   <g style="fill: #808080; opacity: 0.5" transform="translate(278.67625 574.33625) scale(0.08 -0.08)">
    <defs>
     <path id="DejaVuSans-3a" d="M 750 794 
L 1409 794 
L 1409 0 
L 750 0 
L 750 794 
z
M 750 3309 
L 1409 3309 
L 1409 2516 
L 750 2516 
L 750 3309 
z
" transform="scale(0.015625)"/>
     <path id="DejaVuSans-2f" d="M 1625 4666 
L 2156 4666 
L 531 -594 
L 0 -594 
L 1625 4666 
z
" transform="scale(0.015625)"/>
     <path id="DejaVuSans-75" d="M 544 1381 
L 544 3500 
L 1119 3500 
L 1119 1403 
Q 1119 906 1312 657 
Q 1506 409 1894 409 
Q 2359 409 2629 706 
Q 2900 1003 2900 1516 
L 2900 3500 
L 3475 3500 
L 3475 0 
L 2900 0 
L 2900 538 
Q 2691 219 2414 64 
Q 2138 -91 1772 -91 
Q 1169 -91 856 284 
Q 544 659 544 1381 
z
M 1991 3584 
L 1991 3584 
z
" transform="scale(0.015625)"/>
     <path id="DejaVuSans-62" d="M 3116 1747 
Q 3116 2381 2855 2742 
Q 2594 3103 2138 3103 
Q 1681 3103 1420 2742 
Q 1159 2381 1159 1747 
Q 1159 1113 1420 752 
Q 1681 391 2138 391 
Q 2594 391 2855 752 
Q 3116 1113 3116 1747 
z
M 1159 2969 
Q 1341 3281 1617 3432 
Q 1894 3584 2278 3584 
Q 2916 3584 3314 3078 
Q 3713 2572 3713 1747 
Q 3713 922 3314 415 
Q 2916 -91 2278 -91 
Q 1894 -91 1617 61 
Q 1341 213 1159 525 
L 1159 0 
L 581 0 
L 581 4863 
L 1159 4863 
L 1159 2969 
z
" transform="scale(0.015625)"/>
     <path id="DejaVuSans-28" d="M 1984 4856 
Q 1566 4138 1362 3434 
Q 1159 2731 1159 2009 
Q 1159 1288 1364 580 
Q 1569 -128 1984 -844 
L 1484 -844 
Q 1016 -109 783 600 
Q 550 1309 550 2009 
Q 550 2706 781 3412 
Q 1013 4119 1484 4856 
L 1984 4856 
z
" transform="scale(0.015625)"/>
     <path id="DejaVuSans-29" d="M 513 4856 
L 1013 4856 
Q 1481 4119 1714 3412 
Q 1947 2706 1947 2009 
Q 1947 1309 1714 600 
Q 1481 -109 1013 -844 
L 513 -844 
Q 928 -128 1133 580 
Q 1338 1288 1338 2009 
Q 1338 2731 1133 3434 
Q 928 4138 513 4856 
z
" transform="scale(0.015625)"/>
    </defs>
    <use xlink:href="#DejaVuSans-68"/>
    <use xlink:href="#DejaVuSans-74" transform="translate(63.378906 0)"/>
    <use xlink:href="#DejaVuSans-74" transform="translate(102.587891 0)"/>
    <use xlink:href="#DejaVuSans-70" transform="translate(141.796875 0)"/>
    <use xlink:href="#DejaVuSans-73" transform="translate(205.273438 0)"/>
    <use xlink:href="#DejaVuSans-3a" transform="translate(257.373047 0)"/>
    <use xlink:href="#DejaVuSans-2f" transform="translate(291.064453 0)"/>
    <use xlink:href="#DejaVuSans-2f" transform="translate(324.755859 0)"/>
    <use xlink:href="#DejaVuSans-67" transform="translate(358.447266 0)"/>
    <use xlink:href="#DejaVuSans-69" transform="translate(421.923828 0)"/>
    <use xlink:href="#DejaVuSans-74" transform="translate(449.707031 0)"/>
    <use xlink:href="#DejaVuSans-68" transform="translate(488.916016 0)"/>
    <use xlink:href="#DejaVuSans-75" transform="translate(552.294922 0)"/>
    <use xlink:href="#DejaVuSans-62" transform="translate(615.673828 0)"/>
    <use xlink:href="#DejaVuSans-2e" transform="translate(679.150391 0)"/>
    <use xlink:href="#DejaVuSans-63" transform="translate(710.9375 0)"/>
    <use xlink:href="#DejaVuSans-6f" transform="translate(765.917969 0)"/>
    <use xlink:href="#DejaVuSans-6d" transform="translate(827.099609 0)"/>
    <use xlink:href="#DejaVuSans-2f" transform="translate(924.511719 0)"/>
    <use xlink:href="#DejaVuSans-62" transform="translate(958.203125 0)"/>
    <use xlink:href="#DejaVuSans-69" transform="translate(1021.679688 0)"/>
    <use xlink:href="#DejaVuSans-6f" transform="translate(1049.462891 0)"/>
    <use xlink:href="#DejaVuSans-70" transform="translate(1110.644531 0)"/>
    <use xlink:href="#DejaVuSans-72" transform="translate(1174.121094 0)"/>
    <use xlink:href="#DejaVuSans-61" transform="translate(1215.234375 0)"/>
    <use xlink:href="#DejaVuSans-67" transform="translate(1276.513672 0)"/>
    <use xlink:href="#DejaVuSans-6d" transform="translate(1339.990234 0)"/>
    <use xlink:href="#DejaVuSans-61" transform="translate(1437.402344 0)"/>
    <use xlink:href="#DejaVuSans-74" transform="translate(1498.681641 0)"/>
    <use xlink:href="#DejaVuSans-69" transform="translate(1537.890625 0)"/>
    <use xlink:href="#DejaVuSans-63" transform="translate(1565.673828 0)"/>
    <use xlink:href="#DejaVuSans-73" transform="translate(1620.654297 0)"/>
    <use xlink:href="#DejaVuSans-2f" transform="translate(1672.753906 0)"/>
    <use xlink:href="#DejaVuSans-62" transform="translate(1706.445312 0)"/>
    <use xlink:href="#DejaVuSans-69" transform="translate(1769.921875 0)"/>
    <use xlink:href="#DejaVuSans-6f" transform="translate(1797.705078 0)"/>
    <use xlink:href="#DejaVuSans-72" transform="translate(1858.886719 0)"/>
    <use xlink:href="#DejaVuSans-65" transform="translate(1897.75 0)"/>
    <use xlink:href="#DejaVuSans-67" transform="translate(1959.273438 0)"/>
    <use xlink:href="#DejaVuSans-69" transform="translate(2022.75 0)"/>
    <use xlink:href="#DejaVuSans-73" transform="translate(2050.533203 0)"/>
    <use xlink:href="#DejaVuSans-74" transform="translate(2102.632812 0)"/>
    <use xlink:href="#DejaVuSans-72" transform="translate(2141.841797 0)"/>
    <use xlink:href="#DejaVuSans-79" transform="translate(2182.955078 0)"/>
    <use xlink:href="#DejaVuSans-20" transform="translate(2242.134766 0)"/>
    <use xlink:href="#DejaVuSans-28" transform="translate(2273.921875 0)"/>
    <use xlink:href="#DejaVuSans-32" transform="translate(2312.935547 0)"/>
    <use xlink:href="#DejaVuSans-30" transform="translate(2376.558594 0)"/>
    <use xlink:href="#DejaVuSans-32" transform="translate(2440.181641 0)"/>
    <use xlink:href="#DejaVuSans-36" transform="translate(2503.804688 0)"/>
    <use xlink:href="#DejaVuSans-2d" transform="translate(2567.427734 0)"/>
    <use xlink:href="#DejaVuSans-30" transform="translate(2603.511719 0)"/>
    <use xlink:href="#DejaVuSans-35" transform="translate(2667.134766 0)"/>
    <use xlink:href="#DejaVuSans-2d" transform="translate(2730.757812 0)"/>
    <use xlink:href="#DejaVuSans-33" transform="translate(2766.841797 0)"/>
    <use xlink:href="#DejaVuSans-30" transform="translate(2830.464844 0)"/>
    <use xlink:href="#DejaVuSans-29" transform="translate(2894.087891 0)"/>
   </g>
  </g>
 </g>
</svg>
