<?xml version="1.0" encoding="utf-8" standalone="no"?>
<!DOCTYPE svg PUBLIC "-//W3C//DTD SVG 1.1//EN"
  "http://www.w3.org/Graphics/SVG/1.1/DTD/svg11.dtd">
<svg height="576pt" version="1.1" viewBox="0 0 792 576" width="792pt" xmlns="http://www.w3.org/2000/svg" xmlns:xlink="http://www.w3.org/1999/xlink">
 <metadata>
  <rdf:RDF xmlns:cc="http://creativecommons.org/ns#" xmlns:dc="http://purl.org/dc/elements/1.1/" xmlns:rdf="http://www.w3.org/1999/02/22-rdf-syntax-ns#">
   <cc:Work>
    <dc:type rdf:resource="http://purl.org/dc/dcmitype/StillImage"/>
    <dc:date>2021-11-02T01:20:00.150770</dc:date>
    <dc:format>image/svg+xml</dc:format>
    <dc:creator>
     <cc:Agent>
      <dc:title>Matplotlib v3.4.2, https://matplotlib.org/</dc:title>
     </cc:Agent>
    </dc:creator>
   </cc:Work>
  </rdf:RDF>
 </metadata>
 <defs>
  <style type="text/css">*{stroke-linecap:butt;stroke-linejoin:round;}</style>
 </defs>
 <g id="figure_1">
  <g id="patch_1">
   <path d="M 0 576 
L 792 576 
L 792 0 
L 0 0 
z
" style="fill:#ffffff;"/>
  </g>
  <g id="axes_1">
   <g id="matplotlib.axis_1"/>
   <g id="matplotlib.axis_2"/>
   <g id="patch_2">
    <path d="M 135.843319 61.623165 
C 133.017731 56.729102 129.320551 52.392959 124.934686 48.829254 
C 120.548821 45.265549 115.547811 42.534035 110.179064 40.769845 
C 104.810318 39.005656 99.163855 38.238371 93.519016 38.505951 
C 87.874177 38.773531 82.325611 40.071488 77.147817 42.335611 
C 71.970023 44.599733 67.249818 47.792058 63.220719 51.754653 
C 59.19162 55.717249 55.921185 60.383675 53.571208 65.523073 
C 51.221231 70.662471 49.831115 76.188668 49.469632 81.828272 
C 49.108149 87.467876 49.781359 93.126326 51.455959 98.523689 
C 53.130558 103.921051 55.778468 108.966826 59.26869 113.41139 
C 62.758913 117.855954 67.032928 121.624783 71.87929 124.531427 
C 76.725652 127.43807 82.063102 129.433792 87.627585 130.419858 
C 93.192069 131.405925 98.890285 131.365804 104.440331 130.301479 
C 109.990378 129.237154 115.299196 127.166472 120.104148 124.191873 
C 124.9091 121.217274 129.12962 117.388634 132.556911 112.895364 
C 135.984202 108.402093 138.560798 103.319532 140.159229 97.899124 
C 141.75766 92.478716 142.351125 86.811347 141.910264 81.177392 
L 95.713109 84.792352 
L 135.843319 61.623165 
z
" style="fill:#1f77b4;stroke:#ffffff;stroke-linejoin:miter;"/>
   </g>
   <g id="patch_3">
    <path d="M 146.335979 79.804259 
C 146.067287 76.370524 145.416597 72.977425 144.395977 69.687887 
C 143.375356 66.398348 141.991154 63.232831 140.269039 60.250039 
L 100.138824 83.419219 
L 146.335979 79.804259 
z
" style="fill:#ff7f0e;stroke:#ffffff;stroke-linejoin:miter;"/>
   </g>
   <g id="text_1">
    <!-- Yes -->
    <g style="fill:#262626;" transform="translate(30.711493 102.481978)scale(0.1 -0.1)">
     <defs>
      <path d="M 1784 0 
L 1784 1941 
L 19 4581 
L 756 4581 
L 1659 3200 
Q 1909 2813 2125 2425 
Q 2331 2784 2625 3234 
L 3513 4581 
L 4219 4581 
L 2391 1941 
L 2391 0 
L 1784 0 
z
" id="ArialMT-59" transform="scale(0.015625)"/>
      <path d="M 2694 1069 
L 3275 997 
Q 3138 488 2766 206 
Q 2394 -75 1816 -75 
Q 1088 -75 661 373 
Q 234 822 234 1631 
Q 234 2469 665 2931 
Q 1097 3394 1784 3394 
Q 2450 3394 2872 2941 
Q 3294 2488 3294 1666 
Q 3294 1616 3291 1516 
L 816 1516 
Q 847 969 1125 678 
Q 1403 388 1819 388 
Q 2128 388 2347 550 
Q 2566 713 2694 1069 
z
M 847 1978 
L 2700 1978 
Q 2663 2397 2488 2606 
Q 2219 2931 1791 2931 
Q 1403 2931 1139 2672 
Q 875 2413 847 1978 
z
" id="ArialMT-65" transform="scale(0.015625)"/>
      <path d="M 197 991 
L 753 1078 
Q 800 744 1014 566 
Q 1228 388 1613 388 
Q 2000 388 2187 545 
Q 2375 703 2375 916 
Q 2375 1106 2209 1216 
Q 2094 1291 1634 1406 
Q 1016 1563 777 1677 
Q 538 1791 414 1992 
Q 291 2194 291 2438 
Q 291 2659 392 2848 
Q 494 3038 669 3163 
Q 800 3259 1026 3326 
Q 1253 3394 1513 3394 
Q 1903 3394 2198 3281 
Q 2494 3169 2634 2976 
Q 2775 2784 2828 2463 
L 2278 2388 
Q 2241 2644 2061 2787 
Q 1881 2931 1553 2931 
Q 1166 2931 1000 2803 
Q 834 2675 834 2503 
Q 834 2394 903 2306 
Q 972 2216 1119 2156 
Q 1203 2125 1616 2013 
Q 2213 1853 2448 1751 
Q 2684 1650 2818 1456 
Q 2953 1263 2953 975 
Q 2953 694 2789 445 
Q 2625 197 2315 61 
Q 2006 -75 1616 -75 
Q 969 -75 630 194 
Q 291 463 197 991 
z
" id="ArialMT-73" transform="scale(0.015625)"/>
     </defs>
     <use xlink:href="#ArialMT-59"/>
     <use x="57.574219" xlink:href="#ArialMT-65"/>
     <use x="113.189453" xlink:href="#ArialMT-73"/>
    </g>
   </g>
   <g id="text_2">
    <!-- 93% -->
    <g style="fill:#262626;" transform="translate(59.151788 95.61631)scale(0.1 -0.1)">
     <defs>
      <path d="M 350 1059 
L 891 1109 
Q 959 728 1153 556 
Q 1347 384 1650 384 
Q 1909 384 2104 503 
Q 2300 622 2425 820 
Q 2550 1019 2634 1356 
Q 2719 1694 2719 2044 
Q 2719 2081 2716 2156 
Q 2547 1888 2255 1720 
Q 1963 1553 1622 1553 
Q 1053 1553 659 1965 
Q 266 2378 266 3053 
Q 266 3750 677 4175 
Q 1088 4600 1706 4600 
Q 2153 4600 2523 4359 
Q 2894 4119 3086 3673 
Q 3278 3228 3278 2384 
Q 3278 1506 3087 986 
Q 2897 466 2520 194 
Q 2144 -78 1638 -78 
Q 1100 -78 759 220 
Q 419 519 350 1059 
z
M 2653 3081 
Q 2653 3566 2395 3850 
Q 2138 4134 1775 4134 
Q 1400 4134 1122 3828 
Q 844 3522 844 3034 
Q 844 2597 1108 2323 
Q 1372 2050 1759 2050 
Q 2150 2050 2401 2323 
Q 2653 2597 2653 3081 
z
" id="ArialMT-39" transform="scale(0.015625)"/>
      <path d="M 269 1209 
L 831 1284 
Q 928 806 1161 595 
Q 1394 384 1728 384 
Q 2125 384 2398 659 
Q 2672 934 2672 1341 
Q 2672 1728 2419 1979 
Q 2166 2231 1775 2231 
Q 1616 2231 1378 2169 
L 1441 2663 
Q 1497 2656 1531 2656 
Q 1891 2656 2178 2843 
Q 2466 3031 2466 3422 
Q 2466 3731 2256 3934 
Q 2047 4138 1716 4138 
Q 1388 4138 1169 3931 
Q 950 3725 888 3313 
L 325 3413 
Q 428 3978 793 4289 
Q 1159 4600 1703 4600 
Q 2078 4600 2393 4439 
Q 2709 4278 2876 4000 
Q 3044 3722 3044 3409 
Q 3044 3113 2884 2869 
Q 2725 2625 2413 2481 
Q 2819 2388 3044 2092 
Q 3269 1797 3269 1353 
Q 3269 753 2831 336 
Q 2394 -81 1725 -81 
Q 1122 -81 723 278 
Q 325 638 269 1209 
z
" id="ArialMT-33" transform="scale(0.015625)"/>
      <path d="M 372 3481 
Q 372 3972 619 4315 
Q 866 4659 1334 4659 
Q 1766 4659 2048 4351 
Q 2331 4044 2331 3447 
Q 2331 2866 2045 2552 
Q 1759 2238 1341 2238 
Q 925 2238 648 2547 
Q 372 2856 372 3481 
z
M 1350 4272 
Q 1141 4272 1002 4090 
Q 863 3909 863 3425 
Q 863 2984 1003 2804 
Q 1144 2625 1350 2625 
Q 1563 2625 1702 2806 
Q 1841 2988 1841 3469 
Q 1841 3913 1700 4092 
Q 1559 4272 1350 4272 
z
M 1353 -169 
L 3859 4659 
L 4316 4659 
L 1819 -169 
L 1353 -169 
z
M 3334 1075 
Q 3334 1569 3581 1911 
Q 3828 2253 4300 2253 
Q 4731 2253 5014 1945 
Q 5297 1638 5297 1041 
Q 5297 459 5011 145 
Q 4725 -169 4303 -169 
Q 3888 -169 3611 142 
Q 3334 453 3334 1075 
z
M 4316 1866 
Q 4103 1866 3964 1684 
Q 3825 1503 3825 1019 
Q 3825 581 3965 400 
Q 4106 219 4313 219 
Q 4528 219 4667 400 
Q 4806 581 4806 1063 
Q 4806 1506 4665 1686 
Q 4525 1866 4316 1866 
z
" id="ArialMT-25" transform="scale(0.015625)"/>
     </defs>
     <use xlink:href="#ArialMT-39"/>
     <use x="55.615234" xlink:href="#ArialMT-33"/>
     <use x="111.230469" xlink:href="#ArialMT-25"/>
    </g>
   </g>
   <g id="text_3">
    <!-- No -->
    <g style="fill:#262626;" transform="translate(148.821692 70.89991)scale(0.1 -0.1)">
     <defs>
      <path d="M 488 0 
L 488 4581 
L 1109 4581 
L 3516 984 
L 3516 4581 
L 4097 4581 
L 4097 0 
L 3475 0 
L 1069 3600 
L 1069 0 
L 488 0 
z
" id="ArialMT-4e" transform="scale(0.015625)"/>
      <path d="M 213 1659 
Q 213 2581 725 3025 
Q 1153 3394 1769 3394 
Q 2453 3394 2887 2945 
Q 3322 2497 3322 1706 
Q 3322 1066 3130 698 
Q 2938 331 2570 128 
Q 2203 -75 1769 -75 
Q 1072 -75 642 372 
Q 213 819 213 1659 
z
M 791 1659 
Q 791 1022 1069 705 
Q 1347 388 1769 388 
Q 2188 388 2466 706 
Q 2744 1025 2744 1678 
Q 2744 2294 2464 2611 
Q 2184 2928 1769 2928 
Q 1347 2928 1069 2612 
Q 791 2297 791 1659 
z
" id="ArialMT-6f" transform="scale(0.015625)"/>
     </defs>
     <use xlink:href="#ArialMT-4e"/>
     <use x="72.216797" xlink:href="#ArialMT-6f"/>
    </g>
   </g>
   <g id="text_4">
    <!-- 7% -->
    <g style="fill:#262626;" transform="translate(119.466553 77.765576)scale(0.1 -0.1)">
     <defs>
      <path d="M 303 3981 
L 303 4522 
L 3269 4522 
L 3269 4084 
Q 2831 3619 2401 2847 
Q 1972 2075 1738 1259 
Q 1569 684 1522 0 
L 944 0 
Q 953 541 1156 1306 
Q 1359 2072 1739 2783 
Q 2119 3494 2547 3981 
L 303 3981 
z
" id="ArialMT-37" transform="scale(0.015625)"/>
     </defs>
     <use xlink:href="#ArialMT-37"/>
     <use x="55.615234" xlink:href="#ArialMT-25"/>
    </g>
   </g>
   <g id="text_5">
    <!-- Name -->
    <g style="fill:#262626;" transform="translate(84.134762 19.49625)scale(0.12 -0.12)">
     <defs>
      <path d="M 2588 409 
Q 2275 144 1986 34 
Q 1697 -75 1366 -75 
Q 819 -75 525 192 
Q 231 459 231 875 
Q 231 1119 342 1320 
Q 453 1522 633 1644 
Q 813 1766 1038 1828 
Q 1203 1872 1538 1913 
Q 2219 1994 2541 2106 
Q 2544 2222 2544 2253 
Q 2544 2597 2384 2738 
Q 2169 2928 1744 2928 
Q 1347 2928 1158 2789 
Q 969 2650 878 2297 
L 328 2372 
Q 403 2725 575 2942 
Q 747 3159 1072 3276 
Q 1397 3394 1825 3394 
Q 2250 3394 2515 3294 
Q 2781 3194 2906 3042 
Q 3031 2891 3081 2659 
Q 3109 2516 3109 2141 
L 3109 1391 
Q 3109 606 3145 398 
Q 3181 191 3288 0 
L 2700 0 
Q 2613 175 2588 409 
z
M 2541 1666 
Q 2234 1541 1622 1453 
Q 1275 1403 1131 1340 
Q 988 1278 909 1158 
Q 831 1038 831 891 
Q 831 666 1001 516 
Q 1172 366 1500 366 
Q 1825 366 2078 508 
Q 2331 650 2450 897 
Q 2541 1088 2541 1459 
L 2541 1666 
z
" id="ArialMT-61" transform="scale(0.015625)"/>
      <path d="M 422 0 
L 422 3319 
L 925 3319 
L 925 2853 
Q 1081 3097 1340 3245 
Q 1600 3394 1931 3394 
Q 2300 3394 2536 3241 
Q 2772 3088 2869 2813 
Q 3263 3394 3894 3394 
Q 4388 3394 4653 3120 
Q 4919 2847 4919 2278 
L 4919 0 
L 4359 0 
L 4359 2091 
Q 4359 2428 4304 2576 
Q 4250 2725 4106 2815 
Q 3963 2906 3769 2906 
Q 3419 2906 3187 2673 
Q 2956 2441 2956 1928 
L 2956 0 
L 2394 0 
L 2394 2156 
Q 2394 2531 2256 2718 
Q 2119 2906 1806 2906 
Q 1569 2906 1367 2781 
Q 1166 2656 1075 2415 
Q 984 2175 984 1722 
L 984 0 
L 422 0 
z
" id="ArialMT-6d" transform="scale(0.015625)"/>
     </defs>
     <use xlink:href="#ArialMT-4e"/>
     <use x="72.216797" xlink:href="#ArialMT-61"/>
     <use x="127.832031" xlink:href="#ArialMT-6d"/>
     <use x="211.132812" xlink:href="#ArialMT-65"/>
    </g>
   </g>
  </g>
  <g id="axes_2">
   <g id="matplotlib.axis_3"/>
   <g id="matplotlib.axis_4"/>
   <g id="patch_4">
    <path d="M 325.320968 61.623165 
C 322.49538 56.729102 318.7982 52.392959 314.412335 48.829254 
C 310.02647 45.265549 305.02546 42.534035 299.656713 40.769845 
C 294.287967 39.005656 288.641503 38.238371 282.996665 38.505951 
C 277.351826 38.773531 271.80326 40.071488 266.625466 42.335611 
C 261.447672 44.599733 256.727466 47.792058 252.698368 51.754653 
C 248.669269 55.717249 245.398834 60.383675 243.048857 65.523073 
C 240.69888 70.662471 239.308764 76.188668 238.947281 81.828272 
C 238.585797 87.467876 239.259008 93.126326 240.933607 98.523689 
C 242.608207 103.921051 245.256117 108.966826 248.746339 113.41139 
C 252.236562 117.855954 256.510577 121.624783 261.356939 124.531427 
C 266.203301 127.43807 271.540751 129.433792 277.105234 130.419858 
C 282.669718 131.405925 288.367934 131.365804 293.91798 130.301479 
C 299.468027 129.237154 304.776845 127.166472 309.581797 124.191873 
C 314.386749 121.217274 318.607269 117.388634 322.03456 112.895364 
C 325.461851 108.402093 328.038447 103.319532 329.636878 97.899124 
C 331.235309 92.478716 331.828774 86.811347 331.387913 81.177392 
L 285.190758 84.792352 
L 325.320968 61.623165 
z
" style="fill:#1f77b4;stroke:#ffffff;stroke-linejoin:miter;"/>
   </g>
   <g id="patch_5">
    <path d="M 335.813628 79.804259 
C 335.544935 76.370524 334.894246 72.977425 333.873626 69.687887 
C 332.853005 66.398348 331.468803 63.232831 329.746688 60.250039 
L 289.616473 83.419219 
L 335.813628 79.804259 
z
" style="fill:#ff7f0e;stroke:#ffffff;stroke-linejoin:miter;"/>
   </g>
   <g id="text_6">
    <!-- Yes -->
    <g style="fill:#262626;" transform="translate(220.189142 102.481978)scale(0.1 -0.1)">
     <use xlink:href="#ArialMT-59"/>
     <use x="57.574219" xlink:href="#ArialMT-65"/>
     <use x="113.189453" xlink:href="#ArialMT-73"/>
    </g>
   </g>
   <g id="text_7">
    <!-- 93% -->
    <g style="fill:#262626;" transform="translate(248.629437 95.61631)scale(0.1 -0.1)">
     <use xlink:href="#ArialMT-39"/>
     <use x="55.615234" xlink:href="#ArialMT-33"/>
     <use x="111.230469" xlink:href="#ArialMT-25"/>
    </g>
   </g>
   <g id="text_8">
    <!-- No -->
    <g style="fill:#262626;" transform="translate(338.299341 70.89991)scale(0.1 -0.1)">
     <use xlink:href="#ArialMT-4e"/>
     <use x="72.216797" xlink:href="#ArialMT-6f"/>
    </g>
   </g>
   <g id="text_9">
    <!-- 7% -->
    <g style="fill:#262626;" transform="translate(308.944202 77.765576)scale(0.1 -0.1)">
     <use xlink:href="#ArialMT-37"/>
     <use x="55.615234" xlink:href="#ArialMT-25"/>
    </g>
   </g>
   <g id="text_10">
    <!-- Homepage -->
    <g style="fill:#262626;" transform="translate(260.266161 19.49625)scale(0.12 -0.12)">
     <defs>
      <path d="M 513 0 
L 513 4581 
L 1119 4581 
L 1119 2700 
L 3500 2700 
L 3500 4581 
L 4106 4581 
L 4106 0 
L 3500 0 
L 3500 2159 
L 1119 2159 
L 1119 0 
L 513 0 
z
" id="ArialMT-48" transform="scale(0.015625)"/>
      <path d="M 422 -1272 
L 422 3319 
L 934 3319 
L 934 2888 
Q 1116 3141 1344 3267 
Q 1572 3394 1897 3394 
Q 2322 3394 2647 3175 
Q 2972 2956 3137 2557 
Q 3303 2159 3303 1684 
Q 3303 1175 3120 767 
Q 2938 359 2589 142 
Q 2241 -75 1856 -75 
Q 1575 -75 1351 44 
Q 1128 163 984 344 
L 984 -1272 
L 422 -1272 
z
M 931 1641 
Q 931 1000 1190 694 
Q 1450 388 1819 388 
Q 2194 388 2461 705 
Q 2728 1022 2728 1688 
Q 2728 2322 2467 2637 
Q 2206 2953 1844 2953 
Q 1484 2953 1207 2617 
Q 931 2281 931 1641 
z
" id="ArialMT-70" transform="scale(0.015625)"/>
      <path d="M 319 -275 
L 866 -356 
Q 900 -609 1056 -725 
Q 1266 -881 1628 -881 
Q 2019 -881 2231 -725 
Q 2444 -569 2519 -288 
Q 2563 -116 2559 434 
Q 2191 0 1641 0 
Q 956 0 581 494 
Q 206 988 206 1678 
Q 206 2153 378 2554 
Q 550 2956 876 3175 
Q 1203 3394 1644 3394 
Q 2231 3394 2613 2919 
L 2613 3319 
L 3131 3319 
L 3131 450 
Q 3131 -325 2973 -648 
Q 2816 -972 2473 -1159 
Q 2131 -1347 1631 -1347 
Q 1038 -1347 672 -1080 
Q 306 -813 319 -275 
z
M 784 1719 
Q 784 1066 1043 766 
Q 1303 466 1694 466 
Q 2081 466 2343 764 
Q 2606 1063 2606 1700 
Q 2606 2309 2336 2618 
Q 2066 2928 1684 2928 
Q 1309 2928 1046 2623 
Q 784 2319 784 1719 
z
" id="ArialMT-67" transform="scale(0.015625)"/>
     </defs>
     <use xlink:href="#ArialMT-48"/>
     <use x="72.216797" xlink:href="#ArialMT-6f"/>
     <use x="127.832031" xlink:href="#ArialMT-6d"/>
     <use x="211.132812" xlink:href="#ArialMT-65"/>
     <use x="266.748047" xlink:href="#ArialMT-70"/>
     <use x="322.363281" xlink:href="#ArialMT-61"/>
     <use x="377.978516" xlink:href="#ArialMT-67"/>
     <use x="433.59375" xlink:href="#ArialMT-65"/>
    </g>
   </g>
  </g>
  <g id="axes_3">
   <g id="matplotlib.axis_5"/>
   <g id="matplotlib.axis_6"/>
   <g id="patch_6">
    <path d="M 514.798617 61.623165 
C 511.973029 56.729102 508.275849 52.392959 503.889984 48.829254 
C 499.504119 45.265549 494.503109 42.534035 489.134362 40.769845 
C 483.765616 39.005656 478.119152 38.238371 472.474314 38.505951 
C 466.829475 38.773531 461.280909 40.071488 456.103115 42.335611 
C 450.925321 44.599733 446.205115 47.792058 442.176017 51.754653 
C 438.146918 55.717249 434.876483 60.383675 432.526506 65.523073 
C 430.176529 70.662471 428.786413 76.188668 428.42493 81.828272 
C 428.063446 87.467876 428.736657 93.126326 430.411256 98.523689 
C 432.085856 103.921051 434.733766 108.966826 438.223988 113.41139 
C 441.714211 117.855954 445.988226 121.624783 450.834588 124.531427 
C 455.68095 127.43807 461.0184 129.433792 466.582883 130.419858 
C 472.147367 131.405925 477.845583 131.365804 483.395629 130.301479 
C 488.945676 129.237154 494.254494 127.166472 499.059446 124.191873 
C 503.864398 121.217274 508.084918 117.388634 511.512209 112.895364 
C 514.9395 108.402093 517.516096 103.319532 519.114527 97.899124 
C 520.712958 92.478716 521.306422 86.811347 520.865562 81.177392 
L 474.668407 84.792352 
L 514.798617 61.623165 
z
" style="fill:#1f77b4;stroke:#ffffff;stroke-linejoin:miter;"/>
   </g>
   <g id="patch_7">
    <path d="M 525.291277 79.804259 
C 525.022584 76.370524 524.371895 72.977425 523.351274 69.687887 
C 522.330654 66.398348 520.946452 63.232831 519.224337 60.250039 
L 479.094122 83.419219 
L 525.291277 79.804259 
z
" style="fill:#ff7f0e;stroke:#ffffff;stroke-linejoin:miter;"/>
   </g>
   <g id="text_11">
    <!-- Yes -->
    <g style="fill:#262626;" transform="translate(409.666791 102.481978)scale(0.1 -0.1)">
     <use xlink:href="#ArialMT-59"/>
     <use x="57.574219" xlink:href="#ArialMT-65"/>
     <use x="113.189453" xlink:href="#ArialMT-73"/>
    </g>
   </g>
   <g id="text_12">
    <!-- 93% -->
    <g style="fill:#262626;" transform="translate(438.107085 95.61631)scale(0.1 -0.1)">
     <use xlink:href="#ArialMT-39"/>
     <use x="55.615234" xlink:href="#ArialMT-33"/>
     <use x="111.230469" xlink:href="#ArialMT-25"/>
    </g>
   </g>
   <g id="text_13">
    <!-- No -->
    <g style="fill:#262626;" transform="translate(527.77699 70.89991)scale(0.1 -0.1)">
     <use xlink:href="#ArialMT-4e"/>
     <use x="72.216797" xlink:href="#ArialMT-6f"/>
    </g>
   </g>
   <g id="text_14">
    <!-- 7% -->
    <g style="fill:#262626;" transform="translate(498.421851 77.765576)scale(0.1 -0.1)">
     <use xlink:href="#ArialMT-37"/>
     <use x="55.615234" xlink:href="#ArialMT-25"/>
    </g>
   </g>
   <g id="text_15">
    <!-- Description -->
    <g style="fill:#262626;" transform="translate(449.08381 19.49625)scale(0.12 -0.12)">
     <defs>
      <path d="M 494 0 
L 494 4581 
L 2072 4581 
Q 2606 4581 2888 4516 
Q 3281 4425 3559 4188 
Q 3922 3881 4101 3404 
Q 4281 2928 4281 2316 
Q 4281 1794 4159 1391 
Q 4038 988 3847 723 
Q 3656 459 3429 307 
Q 3203 156 2883 78 
Q 2563 0 2147 0 
L 494 0 
z
M 1100 541 
L 2078 541 
Q 2531 541 2789 625 
Q 3047 709 3200 863 
Q 3416 1078 3536 1442 
Q 3656 1806 3656 2325 
Q 3656 3044 3420 3430 
Q 3184 3816 2847 3947 
Q 2603 4041 2063 4041 
L 1100 4041 
L 1100 541 
z
" id="ArialMT-44" transform="scale(0.015625)"/>
      <path d="M 2588 1216 
L 3141 1144 
Q 3050 572 2676 248 
Q 2303 -75 1759 -75 
Q 1078 -75 664 370 
Q 250 816 250 1647 
Q 250 2184 428 2587 
Q 606 2991 970 3192 
Q 1334 3394 1763 3394 
Q 2303 3394 2647 3120 
Q 2991 2847 3088 2344 
L 2541 2259 
Q 2463 2594 2264 2762 
Q 2066 2931 1784 2931 
Q 1359 2931 1093 2626 
Q 828 2322 828 1663 
Q 828 994 1084 691 
Q 1341 388 1753 388 
Q 2084 388 2306 591 
Q 2528 794 2588 1216 
z
" id="ArialMT-63" transform="scale(0.015625)"/>
      <path d="M 416 0 
L 416 3319 
L 922 3319 
L 922 2816 
Q 1116 3169 1280 3281 
Q 1444 3394 1641 3394 
Q 1925 3394 2219 3213 
L 2025 2691 
Q 1819 2813 1613 2813 
Q 1428 2813 1281 2702 
Q 1134 2591 1072 2394 
Q 978 2094 978 1738 
L 978 0 
L 416 0 
z
" id="ArialMT-72" transform="scale(0.015625)"/>
      <path d="M 425 3934 
L 425 4581 
L 988 4581 
L 988 3934 
L 425 3934 
z
M 425 0 
L 425 3319 
L 988 3319 
L 988 0 
L 425 0 
z
" id="ArialMT-69" transform="scale(0.015625)"/>
      <path d="M 1650 503 
L 1731 6 
Q 1494 -44 1306 -44 
Q 1000 -44 831 53 
Q 663 150 594 308 
Q 525 466 525 972 
L 525 2881 
L 113 2881 
L 113 3319 
L 525 3319 
L 525 4141 
L 1084 4478 
L 1084 3319 
L 1650 3319 
L 1650 2881 
L 1084 2881 
L 1084 941 
Q 1084 700 1114 631 
Q 1144 563 1211 522 
Q 1278 481 1403 481 
Q 1497 481 1650 503 
z
" id="ArialMT-74" transform="scale(0.015625)"/>
      <path d="M 422 0 
L 422 3319 
L 928 3319 
L 928 2847 
Q 1294 3394 1984 3394 
Q 2284 3394 2536 3286 
Q 2788 3178 2913 3003 
Q 3038 2828 3088 2588 
Q 3119 2431 3119 2041 
L 3119 0 
L 2556 0 
L 2556 2019 
Q 2556 2363 2490 2533 
Q 2425 2703 2258 2804 
Q 2091 2906 1866 2906 
Q 1506 2906 1245 2678 
Q 984 2450 984 1813 
L 984 0 
L 422 0 
z
" id="ArialMT-6e" transform="scale(0.015625)"/>
     </defs>
     <use xlink:href="#ArialMT-44"/>
     <use x="72.216797" xlink:href="#ArialMT-65"/>
     <use x="127.832031" xlink:href="#ArialMT-73"/>
     <use x="177.832031" xlink:href="#ArialMT-63"/>
     <use x="227.832031" xlink:href="#ArialMT-72"/>
     <use x="261.132812" xlink:href="#ArialMT-69"/>
     <use x="283.349609" xlink:href="#ArialMT-70"/>
     <use x="338.964844" xlink:href="#ArialMT-74"/>
     <use x="366.748047" xlink:href="#ArialMT-69"/>
     <use x="388.964844" xlink:href="#ArialMT-6f"/>
     <use x="444.580078" xlink:href="#ArialMT-6e"/>
    </g>
   </g>
  </g>
  <g id="axes_4">
   <g id="matplotlib.axis_7"/>
   <g id="matplotlib.axis_8"/>
   <g id="patch_8">
    <path d="M 704.214729 61.406327 
C 701.436486 56.594269 697.81523 52.320923 693.524242 48.790773 
C 689.233254 45.260623 684.342086 42.530889 679.084784 40.73219 
C 673.827482 38.933492 668.289262 38.094984 662.735132 38.256791 
C 657.181002 38.418597 651.700989 39.578095 646.557317 41.679802 
C 641.413644 43.781508 636.689685 46.791357 632.611485 50.565323 
C 628.533285 54.33929 625.166948 58.816203 622.673555 63.781837 
C 620.180162 68.747472 618.600128 74.121342 618.009061 79.646301 
C 617.417994 85.171261 617.825472 90.757757 619.211999 96.138471 
C 620.598526 101.519184 622.941627 106.606901 626.129183 111.158167 
C 629.316738 115.709434 633.297082 119.65048 637.87975 122.792723 
C 642.462418 125.934966 647.573131 128.227474 652.967336 129.560548 
C 658.361541 130.893622 663.951805 131.245654 669.470629 130.5998 
C 674.989452 129.953945 680.347381 128.320673 685.288033 125.778136 
C 690.228685 123.235599 694.671978 119.825009 698.405297 115.709567 
C 702.138616 111.594124 705.101447 106.840535 707.152017 101.676263 
C 709.202587 96.511992 710.307658 91.020744 710.414351 85.465283 
L 664.084519 84.575514 
L 704.214729 61.406327 
z
" style="fill:#1f77b4;stroke:#ffffff;stroke-linejoin:miter;"/>
   </g>
   <g id="patch_9">
    <path d="M 714.901603 84.308987 
C 714.982221 80.111247 714.491958 75.921957 713.44429 71.856258 
C 712.396622 67.790559 710.801234 63.886043 708.701977 60.250024 
L 668.571771 83.419219 
L 714.901603 84.308987 
z
" style="fill:#ff7f0e;stroke:#ffffff;stroke-linejoin:miter;"/>
   </g>
   <g id="text_16">
    <!-- Yes -->
    <g style="fill:#262626;" transform="translate(598.405997 99.879923)scale(0.1 -0.1)">
     <use xlink:href="#ArialMT-59"/>
     <use x="57.574219" xlink:href="#ArialMT-65"/>
     <use x="113.189453" xlink:href="#ArialMT-73"/>
    </g>
   </g>
   <g id="text_17">
    <!-- 91% -->
    <g style="fill:#262626;" transform="translate(627.153976 94.098444)scale(0.1 -0.1)">
     <defs>
      <path d="M 2384 0 
L 1822 0 
L 1822 3584 
Q 1619 3391 1289 3197 
Q 959 3003 697 2906 
L 697 3450 
Q 1169 3672 1522 3987 
Q 1875 4303 2022 4600 
L 2384 4600 
L 2384 0 
z
" id="ArialMT-31" transform="scale(0.015625)"/>
     </defs>
     <use xlink:href="#ArialMT-39"/>
     <use x="55.615234" xlink:href="#ArialMT-31"/>
     <use x="111.230469" xlink:href="#ArialMT-25"/>
    </g>
   </g>
   <g id="text_18">
    <!-- No -->
    <g style="fill:#262626;" transform="translate(717.931542 73.285118)scale(0.1 -0.1)">
     <use xlink:href="#ArialMT-4e"/>
     <use x="72.216797" xlink:href="#ArialMT-6f"/>
    </g>
   </g>
   <g id="text_19">
    <!-- 9% -->
    <g style="fill:#262626;" transform="translate(688.26872 79.066599)scale(0.1 -0.1)">
     <use xlink:href="#ArialMT-39"/>
     <use x="55.615234" xlink:href="#ArialMT-25"/>
    </g>
   </g>
   <g id="text_20">
    <!-- Example -->
    <g style="fill:#262626;" transform="translate(645.228959 19.49625)scale(0.12 -0.12)">
     <defs>
      <path d="M 506 0 
L 506 4581 
L 3819 4581 
L 3819 4041 
L 1113 4041 
L 1113 2638 
L 3647 2638 
L 3647 2100 
L 1113 2100 
L 1113 541 
L 3925 541 
L 3925 0 
L 506 0 
z
" id="ArialMT-45" transform="scale(0.015625)"/>
      <path d="M 47 0 
L 1259 1725 
L 138 3319 
L 841 3319 
L 1350 2541 
Q 1494 2319 1581 2169 
Q 1719 2375 1834 2534 
L 2394 3319 
L 3066 3319 
L 1919 1756 
L 3153 0 
L 2463 0 
L 1781 1031 
L 1600 1309 
L 728 0 
L 47 0 
z
" id="ArialMT-78" transform="scale(0.015625)"/>
      <path d="M 409 0 
L 409 4581 
L 972 4581 
L 972 0 
L 409 0 
z
" id="ArialMT-6c" transform="scale(0.015625)"/>
     </defs>
     <use xlink:href="#ArialMT-45"/>
     <use x="66.699219" xlink:href="#ArialMT-78"/>
     <use x="116.699219" xlink:href="#ArialMT-61"/>
     <use x="172.314453" xlink:href="#ArialMT-6d"/>
     <use x="255.615234" xlink:href="#ArialMT-70"/>
     <use x="311.230469" xlink:href="#ArialMT-6c"/>
     <use x="333.447266" xlink:href="#ArialMT-65"/>
    </g>
   </g>
  </g>
  <g id="axes_5">
   <g id="matplotlib.axis_9"/>
   <g id="matplotlib.axis_10"/>
   <g id="patch_10">
    <path d="M 136.040168 199.641467 
C 131.772171 192.249081 125.543405 186.177787 118.044176 182.100443 
C 110.544947 178.023098 102.062917 176.096104 93.538114 176.533021 
C 85.01331 176.969939 76.772734 179.754008 69.729653 184.576682 
C 62.686572 189.399357 57.111151 196.075644 53.62129 203.86564 
C 50.131428 211.655637 48.860994 220.260526 49.950782 228.726667 
C 51.040571 237.192808 54.44878 245.195447 59.797693 251.847688 
C 65.146605 258.499929 72.231043 263.546599 80.265868 266.428397 
C 88.300693 269.310195 96.977699 269.916579 105.33525 268.180346 
L 95.909958 222.810655 
L 136.040168 199.641467 
z
" style="fill:#1f77b4;stroke:#ffffff;stroke-linejoin:miter;"/>
   </g>
   <g id="patch_11">
    <path d="M 109.564117 270.074847 
C 116.741243 268.583841 123.463184 265.41085 129.175858 260.817421 
C 134.888532 256.223993 139.430541 250.339903 142.427492 243.650171 
C 145.424443 236.960439 146.791665 229.654067 146.416458 222.333312 
C 146.041251 215.012557 143.934216 207.88425 140.269034 201.535969 
L 100.138824 224.705156 
L 109.564117 270.074847 
z
" style="fill:#ff7f0e;stroke:#ffffff;stroke-linejoin:miter;"/>
   </g>
   <g id="text_21">
    <!-- Yes -->
    <g style="fill:#262626;" transform="translate(33.073673 204.556295)scale(0.1 -0.1)">
     <use xlink:href="#ArialMT-59"/>
     <use x="57.574219" xlink:href="#ArialMT-65"/>
     <use x="113.189453" xlink:href="#ArialMT-73"/>
    </g>
   </g>
   <g id="text_22">
    <!-- 70% -->
    <g style="fill:#262626;" transform="translate(60.529726 214.028802)scale(0.1 -0.1)">
     <defs>
      <path d="M 266 2259 
Q 266 3072 433 3567 
Q 600 4063 929 4331 
Q 1259 4600 1759 4600 
Q 2128 4600 2406 4451 
Q 2684 4303 2865 4023 
Q 3047 3744 3150 3342 
Q 3253 2941 3253 2259 
Q 3253 1453 3087 958 
Q 2922 463 2592 192 
Q 2263 -78 1759 -78 
Q 1097 -78 719 397 
Q 266 969 266 2259 
z
M 844 2259 
Q 844 1131 1108 757 
Q 1372 384 1759 384 
Q 2147 384 2411 759 
Q 2675 1134 2675 2259 
Q 2675 3391 2411 3762 
Q 2147 4134 1753 4134 
Q 1366 4134 1134 3806 
Q 844 3388 844 2259 
z
" id="ArialMT-30" transform="scale(0.015625)"/>
     </defs>
     <use xlink:href="#ArialMT-37"/>
     <use x="55.615234" xlink:href="#ArialMT-30"/>
     <use x="111.230469" xlink:href="#ArialMT-25"/>
    </g>
   </g>
   <g id="text_23">
    <!-- No -->
    <g style="fill:#262626;" transform="translate(146.656359 248.129828)scale(0.1 -0.1)">
     <use xlink:href="#ArialMT-4e"/>
     <use x="72.216797" xlink:href="#ArialMT-6f"/>
    </g>
   </g>
   <g id="text_24">
    <!-- 30% -->
    <g style="fill:#262626;" transform="translate(115.504994 238.657321)scale(0.1 -0.1)">
     <use xlink:href="#ArialMT-33"/>
     <use x="55.615234" xlink:href="#ArialMT-30"/>
     <use x="111.230469" xlink:href="#ArialMT-25"/>
    </g>
   </g>
   <g id="text_25">
    <!-- Pattern -->
    <g style="fill:#262626;" transform="translate(80.795387 160.782188)scale(0.12 -0.12)">
     <defs>
      <path d="M 494 0 
L 494 4581 
L 2222 4581 
Q 2678 4581 2919 4538 
Q 3256 4481 3484 4323 
Q 3713 4166 3852 3881 
Q 3991 3597 3991 3256 
Q 3991 2672 3619 2267 
Q 3247 1863 2275 1863 
L 1100 1863 
L 1100 0 
L 494 0 
z
M 1100 2403 
L 2284 2403 
Q 2872 2403 3119 2622 
Q 3366 2841 3366 3238 
Q 3366 3525 3220 3729 
Q 3075 3934 2838 4000 
Q 2684 4041 2272 4041 
L 1100 4041 
L 1100 2403 
z
" id="ArialMT-50" transform="scale(0.015625)"/>
     </defs>
     <use xlink:href="#ArialMT-50"/>
     <use x="66.699219" xlink:href="#ArialMT-61"/>
     <use x="122.314453" xlink:href="#ArialMT-74"/>
     <use x="150.097656" xlink:href="#ArialMT-74"/>
     <use x="177.880859" xlink:href="#ArialMT-65"/>
     <use x="233.496094" xlink:href="#ArialMT-72"/>
     <use x="266.796875" xlink:href="#ArialMT-6e"/>
    </g>
   </g>
  </g>
  <g id="axes_6">
   <g id="matplotlib.axis_11"/>
   <g id="matplotlib.axis_12"/>
   <g id="patch_12">
    <path d="M 325.130912 201.944758 
C 322.512058 197.408769 319.142991 193.349457 315.167181 189.939686 
C 311.191371 186.529915 306.666067 183.818782 301.783974 181.921738 
C 296.901881 180.024695 291.733298 178.969057 286.498324 178.799778 
C 281.263351 178.630499 276.037366 179.350017 271.042914 180.927691 
C 266.048463 182.505365 261.35746 184.918478 257.169668 188.06427 
C 252.981877 191.210061 249.357597 195.043235 246.451167 199.400558 
C 243.544737 203.757882 241.398005 208.576613 240.10239 213.651549 
C 238.806775 218.726486 238.380931 223.984554 238.842994 229.201843 
C 239.305056 234.419132 240.648371 239.520517 242.815734 244.288759 
C 244.983098 249.057002 247.943302 253.423444 251.570289 257.202144 
C 255.197275 260.980843 259.438819 264.117391 264.114297 266.478219 
C 268.789775 268.839047 273.831865 270.390161 279.025852 271.065509 
C 284.21984 271.740857 289.490937 271.530714 294.614678 270.44403 
C 299.738418 269.357345 304.641026 267.409765 309.113725 264.684227 
C 313.586425 261.958689 317.564815 258.494437 320.879478 254.438995 
C 324.194141 250.383552 326.797349 245.795314 328.578246 240.869666 
L 285.000703 225.113946 
L 325.130912 201.944758 
z
" style="fill:#1f77b4;stroke:#ffffff;stroke-linejoin:miter;"/>
   </g>
   <g id="patch_13">
    <path d="M 333.194017 240.460876 
C 335.488975 234.113426 336.36962 227.340535 335.774183 220.617261 
C 335.178745 213.893988 333.121479 207.381288 329.746685 201.535973 
L 289.616473 224.705156 
L 333.194017 240.460876 
z
" style="fill:#ff7f0e;stroke:#ffffff;stroke-linejoin:miter;"/>
   </g>
   <g id="text_26">
    <!-- Yes -->
    <g style="fill:#262626;" transform="translate(217.908473 232.195789)scale(0.1 -0.1)">
     <use xlink:href="#ArialMT-59"/>
     <use x="57.574219" xlink:href="#ArialMT-65"/>
     <use x="113.189453" xlink:href="#ArialMT-73"/>
    </g>
   </g>
   <g id="text_27">
    <!-- 86% -->
    <g style="fill:#262626;" transform="translate(247.299046 230.15184)scale(0.1 -0.1)">
     <defs>
      <path d="M 1131 2484 
Q 781 2613 612 2850 
Q 444 3088 444 3419 
Q 444 3919 803 4259 
Q 1163 4600 1759 4600 
Q 2359 4600 2725 4251 
Q 3091 3903 3091 3403 
Q 3091 3084 2923 2848 
Q 2756 2613 2416 2484 
Q 2838 2347 3058 2040 
Q 3278 1734 3278 1309 
Q 3278 722 2862 322 
Q 2447 -78 1769 -78 
Q 1091 -78 675 323 
Q 259 725 259 1325 
Q 259 1772 486 2073 
Q 713 2375 1131 2484 
z
M 1019 3438 
Q 1019 3113 1228 2906 
Q 1438 2700 1772 2700 
Q 2097 2700 2305 2904 
Q 2513 3109 2513 3406 
Q 2513 3716 2298 3927 
Q 2084 4138 1766 4138 
Q 1444 4138 1231 3931 
Q 1019 3725 1019 3438 
z
M 838 1322 
Q 838 1081 952 856 
Q 1066 631 1291 507 
Q 1516 384 1775 384 
Q 2178 384 2440 643 
Q 2703 903 2703 1303 
Q 2703 1709 2433 1975 
Q 2163 2241 1756 2241 
Q 1359 2241 1098 1978 
Q 838 1716 838 1322 
z
" id="ArialMT-38" transform="scale(0.015625)"/>
      <path d="M 3184 3459 
L 2625 3416 
Q 2550 3747 2413 3897 
Q 2184 4138 1850 4138 
Q 1581 4138 1378 3988 
Q 1113 3794 959 3422 
Q 806 3050 800 2363 
Q 1003 2672 1297 2822 
Q 1591 2972 1913 2972 
Q 2475 2972 2870 2558 
Q 3266 2144 3266 1488 
Q 3266 1056 3080 686 
Q 2894 316 2569 119 
Q 2244 -78 1831 -78 
Q 1128 -78 684 439 
Q 241 956 241 2144 
Q 241 3472 731 4075 
Q 1159 4600 1884 4600 
Q 2425 4600 2770 4297 
Q 3116 3994 3184 3459 
z
M 888 1484 
Q 888 1194 1011 928 
Q 1134 663 1356 523 
Q 1578 384 1822 384 
Q 2178 384 2434 671 
Q 2691 959 2691 1453 
Q 2691 1928 2437 2201 
Q 2184 2475 1800 2475 
Q 1419 2475 1153 2201 
Q 888 1928 888 1484 
z
" id="ArialMT-36" transform="scale(0.015625)"/>
     </defs>
     <use xlink:href="#ArialMT-38"/>
     <use x="55.615234" xlink:href="#ArialMT-36"/>
     <use x="111.230469" xlink:href="#ArialMT-25"/>
    </g>
   </g>
   <g id="text_28">
    <!-- No -->
    <g style="fill:#262626;" transform="translate(340.389953 222.793628)scale(0.1 -0.1)">
     <use xlink:href="#ArialMT-4e"/>
     <use x="72.216797" xlink:href="#ArialMT-6f"/>
    </g>
   </g>
   <g id="text_29">
    <!-- 14% -->
    <g style="fill:#262626;" transform="translate(307.304068 224.837576)scale(0.1 -0.1)">
     <defs>
      <path d="M 2069 0 
L 2069 1097 
L 81 1097 
L 81 1613 
L 2172 4581 
L 2631 4581 
L 2631 1613 
L 3250 1613 
L 3250 1097 
L 2631 1097 
L 2631 0 
L 2069 0 
z
M 2069 1613 
L 2069 3678 
L 634 1613 
L 2069 1613 
z
" id="ArialMT-34" transform="scale(0.015625)"/>
     </defs>
     <use xlink:href="#ArialMT-31"/>
     <use x="55.615234" xlink:href="#ArialMT-34"/>
     <use x="111.230469" xlink:href="#ArialMT-25"/>
    </g>
   </g>
   <g id="text_30">
    <!-- Provider -->
    <g style="fill:#262626;" transform="translate(267.275848 160.782188)scale(0.12 -0.12)">
     <defs>
      <path d="M 1344 0 
L 81 3319 
L 675 3319 
L 1388 1331 
Q 1503 1009 1600 663 
Q 1675 925 1809 1294 
L 2547 3319 
L 3125 3319 
L 1869 0 
L 1344 0 
z
" id="ArialMT-76" transform="scale(0.015625)"/>
      <path d="M 2575 0 
L 2575 419 
Q 2259 -75 1647 -75 
Q 1250 -75 917 144 
Q 584 363 401 755 
Q 219 1147 219 1656 
Q 219 2153 384 2558 
Q 550 2963 881 3178 
Q 1213 3394 1622 3394 
Q 1922 3394 2156 3267 
Q 2391 3141 2538 2938 
L 2538 4581 
L 3097 4581 
L 3097 0 
L 2575 0 
z
M 797 1656 
Q 797 1019 1065 703 
Q 1334 388 1700 388 
Q 2069 388 2326 689 
Q 2584 991 2584 1609 
Q 2584 2291 2321 2609 
Q 2059 2928 1675 2928 
Q 1300 2928 1048 2622 
Q 797 2316 797 1656 
z
" id="ArialMT-64" transform="scale(0.015625)"/>
     </defs>
     <use xlink:href="#ArialMT-50"/>
     <use x="66.699219" xlink:href="#ArialMT-72"/>
     <use x="100" xlink:href="#ArialMT-6f"/>
     <use x="155.615234" xlink:href="#ArialMT-76"/>
     <use x="205.615234" xlink:href="#ArialMT-69"/>
     <use x="227.832031" xlink:href="#ArialMT-64"/>
     <use x="283.447266" xlink:href="#ArialMT-65"/>
     <use x="339.0625" xlink:href="#ArialMT-72"/>
    </g>
   </g>
  </g>
  <g id="axes_7">
   <g id="matplotlib.axis_13"/>
   <g id="matplotlib.axis_14"/>
   <g id="patch_14">
    <path d="M 521.617881 197.568176 
C 517.701871 190.785449 512.129438 185.104968 505.423155 181.059441 
C 498.716872 177.013913 491.093138 174.73388 483.266894 174.433159 
L 481.487671 220.737364 
L 521.617881 197.568176 
z
" style="fill:#1f77b4;stroke:#ffffff;stroke-linejoin:miter;"/>
   </g>
   <g id="patch_15">
    <path d="M 480.873345 178.400952 
C 475.7738 178.205003 470.676735 178.852824 465.78834 180.318208 
C 460.899945 181.783592 456.287034 184.04651 452.136212 187.015422 
C 447.98539 189.984333 444.353391 193.618658 441.387137 197.77138 
C 438.420884 201.924102 436.160919 206.53846 434.698665 211.427793 
C 433.236411 216.317125 432.591853 221.414603 432.791066 226.514022 
C 432.990279 231.613441 434.03054 236.645101 435.869767 241.405458 
C 437.708994 246.165816 440.322048 250.589805 443.603226 254.498466 
C 446.884405 258.407127 450.788858 261.747035 455.158642 264.383082 
C 459.528426 267.019129 464.303814 268.915286 469.29163 269.994848 
C 474.279446 271.074409 479.411514 271.322621 484.480232 270.729441 
C 489.548949 270.136262 494.485035 268.709799 499.088813 266.507756 
C 503.69259 264.305714 507.901134 261.35819 511.544198 257.784418 
C 515.187263 254.210647 518.215053 250.059476 520.505089 245.498829 
C 522.795125 240.938183 524.316104 236.030397 525.006501 230.974004 
C 525.696898 225.917611 525.547275 220.781723 524.563686 215.774097 
C 523.580096 210.766472 521.775983 205.955556 519.224328 201.535961 
L 479.094122 224.705156 
L 480.873345 178.400952 
z
" style="fill:#ff7f0e;stroke:#ffffff;stroke-linejoin:miter;"/>
   </g>
   <g id="text_31">
    <!-- Yes -->
    <g style="fill:#262626;" transform="translate(507.816703 179.676804)scale(0.1 -0.1)">
     <use xlink:href="#ArialMT-59"/>
     <use x="57.574219" xlink:href="#ArialMT-65"/>
     <use x="113.189453" xlink:href="#ArialMT-73"/>
    </g>
   </g>
   <g id="text_32">
    <!-- 16% -->
    <g style="fill:#262626;" transform="translate(485.84193 199.515766)scale(0.1 -0.1)">
     <use xlink:href="#ArialMT-31"/>
     <use x="55.615234" xlink:href="#ArialMT-36"/>
     <use x="111.230469" xlink:href="#ArialMT-25"/>
    </g>
   </g>
   <g id="text_33">
    <!-- No -->
    <g style="fill:#262626;" transform="translate(439.982282 270.936031)scale(0.1 -0.1)">
     <use xlink:href="#ArialMT-4e"/>
     <use x="72.216797" xlink:href="#ArialMT-6f"/>
    </g>
   </g>
   <g id="text_34">
    <!-- 84% -->
    <g style="fill:#262626;" transform="translate(454.725803 251.097068)scale(0.1 -0.1)">
     <use xlink:href="#ArialMT-38"/>
     <use x="55.615234" xlink:href="#ArialMT-34"/>
     <use x="111.230469" xlink:href="#ArialMT-25"/>
    </g>
   </g>
   <g id="text_35">
    <!-- License -->
    <g style="fill:#262626;" transform="translate(458.414747 160.782188)scale(0.12 -0.12)">
     <defs>
      <path d="M 469 0 
L 469 4581 
L 1075 4581 
L 1075 541 
L 3331 541 
L 3331 0 
L 469 0 
z
" id="ArialMT-4c" transform="scale(0.015625)"/>
     </defs>
     <use xlink:href="#ArialMT-4c"/>
     <use x="55.615234" xlink:href="#ArialMT-69"/>
     <use x="77.832031" xlink:href="#ArialMT-63"/>
     <use x="127.832031" xlink:href="#ArialMT-65"/>
     <use x="183.447266" xlink:href="#ArialMT-6e"/>
     <use x="239.0625" xlink:href="#ArialMT-73"/>
     <use x="289.0625" xlink:href="#ArialMT-65"/>
    </g>
   </g>
  </g>
  <g id="axes_8">
   <g id="matplotlib.axis_15"/>
   <g id="matplotlib.axis_16"/>
   <g id="patch_16">
    <path d="M 708.701981 201.535969 
C 702.98621 191.635963 693.80436 184.192916 682.935915 180.649324 
C 672.06747 177.105732 660.263038 177.706325 649.810373 182.334708 
C 639.357707 186.96309 630.9787 195.29961 626.297242 205.728613 
C 621.615785 216.157616 620.955191 227.958842 624.443489 238.84516 
L 668.571771 224.705156 
L 708.701981 201.535969 
z
" style="fill:#1f77b4;stroke:#ffffff;stroke-linejoin:miter;"/>
   </g>
   <g id="patch_17">
    <path d="M 624.443489 238.84516 
C 628.006071 249.963306 635.642122 259.334456 645.811778 265.068849 
C 655.981433 270.803242 667.951835 272.487641 679.309066 269.782373 
L 668.571771 224.705156 
L 624.443489 238.84516 
z
" style="fill:#ff7f0e;stroke:#ffffff;stroke-linejoin:miter;"/>
   </g>
   <g id="patch_18">
    <path d="M 679.309066 269.782373 
C 688.311217 267.638081 696.467932 262.845502 702.722741 256.025378 
C 708.977549 249.205255 713.048223 240.665324 714.407523 231.511689 
L 668.571771 224.705156 
L 679.309066 269.782373 
z
" style="fill:#2ca02c;stroke:#ffffff;stroke-linejoin:miter;"/>
   </g>
   <g id="patch_19">
    <path d="M 714.407523 231.511689 
C 714.823023 228.713676 714.981448 225.883486 714.880811 223.056581 
C 714.780175 220.229677 714.4209 217.417916 713.807489 214.656532 
L 668.571771 224.705156 
L 714.407523 231.511689 
z
" style="fill:#d62728;stroke:#ffffff;stroke-linejoin:miter;"/>
   </g>
   <g id="patch_20">
    <path d="M 713.807489 214.656532 
C 713.296421 212.355868 712.610582 210.097542 711.755943 207.901219 
C 710.901304 205.704896 709.880353 203.576969 708.701981 201.535969 
L 668.571771 224.705156 
L 713.807489 214.656532 
z
" style="fill:#9467bd;stroke:#ffffff;stroke-linejoin:miter;"/>
   </g>
   <g id="text_36">
    <!-- CC-BY -->
    <g style="fill:#262626;" transform="translate(616.82017 180.682819)scale(0.1 -0.1)">
     <defs>
      <path d="M 3763 1606 
L 4369 1453 
Q 4178 706 3683 314 
Q 3188 -78 2472 -78 
Q 1731 -78 1267 223 
Q 803 525 561 1097 
Q 319 1669 319 2325 
Q 319 3041 592 3573 
Q 866 4106 1370 4382 
Q 1875 4659 2481 4659 
Q 3169 4659 3637 4309 
Q 4106 3959 4291 3325 
L 3694 3184 
Q 3534 3684 3231 3912 
Q 2928 4141 2469 4141 
Q 1941 4141 1586 3887 
Q 1231 3634 1087 3207 
Q 944 2781 944 2328 
Q 944 1744 1114 1308 
Q 1284 872 1643 656 
Q 2003 441 2422 441 
Q 2931 441 3284 734 
Q 3638 1028 3763 1606 
z
" id="ArialMT-43" transform="scale(0.015625)"/>
      <path d="M 203 1375 
L 203 1941 
L 1931 1941 
L 1931 1375 
L 203 1375 
z
" id="ArialMT-2d" transform="scale(0.015625)"/>
      <path d="M 469 0 
L 469 4581 
L 2188 4581 
Q 2713 4581 3030 4442 
Q 3347 4303 3526 4014 
Q 3706 3725 3706 3409 
Q 3706 3116 3547 2856 
Q 3388 2597 3066 2438 
Q 3481 2316 3704 2022 
Q 3928 1728 3928 1328 
Q 3928 1006 3792 729 
Q 3656 453 3456 303 
Q 3256 153 2954 76 
Q 2653 0 2216 0 
L 469 0 
z
M 1075 2656 
L 2066 2656 
Q 2469 2656 2644 2709 
Q 2875 2778 2992 2937 
Q 3109 3097 3109 3338 
Q 3109 3566 3000 3739 
Q 2891 3913 2687 3977 
Q 2484 4041 1991 4041 
L 1075 4041 
L 1075 2656 
z
M 1075 541 
L 2216 541 
Q 2509 541 2628 563 
Q 2838 600 2978 687 
Q 3119 775 3209 942 
Q 3300 1109 3300 1328 
Q 3300 1584 3169 1773 
Q 3038 1963 2805 2039 
Q 2572 2116 2134 2116 
L 1075 2116 
L 1075 541 
z
" id="ArialMT-42" transform="scale(0.015625)"/>
     </defs>
     <use xlink:href="#ArialMT-43"/>
     <use x="72.216797" xlink:href="#ArialMT-43"/>
     <use x="144.433594" xlink:href="#ArialMT-2d"/>
     <use x="177.734375" xlink:href="#ArialMT-42"/>
     <use x="244.433594" xlink:href="#ArialMT-59"/>
    </g>
   </g>
   <g id="text_37">
    <!-- 47% -->
    <g style="fill:#262626;" transform="translate(647.307901 201.868043)scale(0.1 -0.1)">
     <use xlink:href="#ArialMT-34"/>
     <use x="55.615234" xlink:href="#ArialMT-37"/>
     <use x="111.230469" xlink:href="#ArialMT-25"/>
    </g>
   </g>
   <g id="text_38">
    <!-- CC-BY-4.0 -->
    <g style="fill:#262626;" transform="translate(596.104528 271.690375)scale(0.1 -0.1)">
     <defs>
      <path d="M 581 0 
L 581 641 
L 1222 641 
L 1222 0 
L 581 0 
z
" id="ArialMT-2e" transform="scale(0.015625)"/>
     </defs>
     <use xlink:href="#ArialMT-43"/>
     <use x="72.216797" xlink:href="#ArialMT-43"/>
     <use x="144.433594" xlink:href="#ArialMT-2d"/>
     <use x="177.734375" xlink:href="#ArialMT-42"/>
     <use x="244.433594" xlink:href="#ArialMT-59"/>
     <use x="302.007812" xlink:href="#ArialMT-2d"/>
     <use x="335.308594" xlink:href="#ArialMT-34"/>
     <use x="390.923828" xlink:href="#ArialMT-2e"/>
     <use x="418.707031" xlink:href="#ArialMT-30"/>
    </g>
   </g>
   <g id="text_39">
    <!-- 24% -->
    <g style="fill:#262626;" transform="translate(644.908744 251.508528)scale(0.1 -0.1)">
     <defs>
      <path d="M 3222 541 
L 3222 0 
L 194 0 
Q 188 203 259 391 
Q 375 700 629 1000 
Q 884 1300 1366 1694 
Q 2113 2306 2375 2664 
Q 2638 3022 2638 3341 
Q 2638 3675 2398 3904 
Q 2159 4134 1775 4134 
Q 1369 4134 1125 3890 
Q 881 3647 878 3216 
L 300 3275 
Q 359 3922 746 4261 
Q 1134 4600 1788 4600 
Q 2447 4600 2831 4234 
Q 3216 3869 3216 3328 
Q 3216 3053 3103 2787 
Q 2991 2522 2730 2228 
Q 2469 1934 1863 1422 
Q 1356 997 1212 845 
Q 1069 694 975 541 
L 3222 541 
z
" id="ArialMT-32" transform="scale(0.015625)"/>
     </defs>
     <use xlink:href="#ArialMT-32"/>
     <use x="55.615234" xlink:href="#ArialMT-34"/>
     <use x="111.230469" xlink:href="#ArialMT-25"/>
    </g>
   </g>
   <g id="text_40">
    <!-- CC-0 -->
    <g style="fill:#262626;" transform="translate(706.137837 261.742557)scale(0.1 -0.1)">
     <use xlink:href="#ArialMT-43"/>
     <use x="72.216797" xlink:href="#ArialMT-43"/>
     <use x="144.433594" xlink:href="#ArialMT-2d"/>
     <use x="177.734375" xlink:href="#ArialMT-30"/>
    </g>
   </g>
   <g id="text_41">
    <!-- 19% -->
    <g style="fill:#262626;" transform="translate(679.055322 246.082446)scale(0.1 -0.1)">
     <use xlink:href="#ArialMT-31"/>
     <use x="55.615234" xlink:href="#ArialMT-39"/>
     <use x="111.230469" xlink:href="#ArialMT-25"/>
    </g>
   </g>
   <g id="text_42">
    <!-- CC-BY-3.0 -->
    <g style="fill:#262626;" transform="translate(719.511715 225.47688)scale(0.1 -0.1)">
     <use xlink:href="#ArialMT-43"/>
     <use x="72.216797" xlink:href="#ArialMT-43"/>
     <use x="144.433594" xlink:href="#ArialMT-2d"/>
     <use x="177.734375" xlink:href="#ArialMT-42"/>
     <use x="244.433594" xlink:href="#ArialMT-59"/>
     <use x="302.007812" xlink:href="#ArialMT-2d"/>
     <use x="335.308594" xlink:href="#ArialMT-33"/>
     <use x="390.923828" xlink:href="#ArialMT-2e"/>
     <use x="418.707031" xlink:href="#ArialMT-30"/>
    </g>
   </g>
   <g id="text_43">
    <!-- 6% -->
    <g style="fill:#262626;" transform="translate(689.130633 226.301168)scale(0.1 -0.1)">
     <use xlink:href="#ArialMT-36"/>
     <use x="55.615234" xlink:href="#ArialMT-25"/>
    </g>
   </g>
   <g id="text_44">
    <!-- Other -->
    <g style="fill:#262626;" transform="translate(716.07436 208.805982)scale(0.1 -0.1)">
     <defs>
      <path d="M 309 2231 
Q 309 3372 921 4017 
Q 1534 4663 2503 4663 
Q 3138 4663 3647 4359 
Q 4156 4056 4423 3514 
Q 4691 2972 4691 2284 
Q 4691 1588 4409 1038 
Q 4128 488 3612 205 
Q 3097 -78 2500 -78 
Q 1853 -78 1343 234 
Q 834 547 571 1087 
Q 309 1628 309 2231 
z
M 934 2222 
Q 934 1394 1379 917 
Q 1825 441 2497 441 
Q 3181 441 3623 922 
Q 4066 1403 4066 2288 
Q 4066 2847 3877 3264 
Q 3688 3681 3323 3911 
Q 2959 4141 2506 4141 
Q 1863 4141 1398 3698 
Q 934 3256 934 2222 
z
" id="ArialMT-4f" transform="scale(0.015625)"/>
      <path d="M 422 0 
L 422 4581 
L 984 4581 
L 984 2938 
Q 1378 3394 1978 3394 
Q 2347 3394 2619 3248 
Q 2891 3103 3008 2847 
Q 3125 2591 3125 2103 
L 3125 0 
L 2563 0 
L 2563 2103 
Q 2563 2525 2380 2717 
Q 2197 2909 1863 2909 
Q 1613 2909 1392 2779 
Q 1172 2650 1078 2428 
Q 984 2206 984 1816 
L 984 0 
L 422 0 
z
" id="ArialMT-68" transform="scale(0.015625)"/>
     </defs>
     <use xlink:href="#ArialMT-4f"/>
     <use x="77.783203" xlink:href="#ArialMT-74"/>
     <use x="105.566406" xlink:href="#ArialMT-68"/>
     <use x="161.181641" xlink:href="#ArialMT-65"/>
     <use x="216.796875" xlink:href="#ArialMT-72"/>
    </g>
   </g>
   <g id="text_45">
    <!-- 5% -->
    <g style="fill:#262626;" transform="translate(687.255712 217.20795)scale(0.1 -0.1)">
     <defs>
      <path d="M 266 1200 
L 856 1250 
Q 922 819 1161 601 
Q 1400 384 1738 384 
Q 2144 384 2425 690 
Q 2706 997 2706 1503 
Q 2706 1984 2436 2262 
Q 2166 2541 1728 2541 
Q 1456 2541 1237 2417 
Q 1019 2294 894 2097 
L 366 2166 
L 809 4519 
L 3088 4519 
L 3088 3981 
L 1259 3981 
L 1013 2750 
Q 1425 3038 1878 3038 
Q 2478 3038 2890 2622 
Q 3303 2206 3303 1553 
Q 3303 931 2941 478 
Q 2500 -78 1738 -78 
Q 1113 -78 717 272 
Q 322 622 266 1200 
z
" id="ArialMT-35" transform="scale(0.015625)"/>
     </defs>
     <use xlink:href="#ArialMT-35"/>
     <use x="55.615234" xlink:href="#ArialMT-25"/>
    </g>
   </g>
   <g id="text_46">
    <!-- License Type -->
    <g style="fill:#262626;" transform="translate(633.322709 160.782188)scale(0.12 -0.12)">
     <defs>
      <path id="ArialMT-20" transform="scale(0.015625)"/>
      <path d="M 1659 0 
L 1659 4041 
L 150 4041 
L 150 4581 
L 3781 4581 
L 3781 4041 
L 2266 4041 
L 2266 0 
L 1659 0 
z
" id="ArialMT-54" transform="scale(0.015625)"/>
      <path d="M 397 -1278 
L 334 -750 
Q 519 -800 656 -800 
Q 844 -800 956 -737 
Q 1069 -675 1141 -563 
Q 1194 -478 1313 -144 
Q 1328 -97 1363 -6 
L 103 3319 
L 709 3319 
L 1400 1397 
Q 1534 1031 1641 628 
Q 1738 1016 1872 1384 
L 2581 3319 
L 3144 3319 
L 1881 -56 
Q 1678 -603 1566 -809 
Q 1416 -1088 1222 -1217 
Q 1028 -1347 759 -1347 
Q 597 -1347 397 -1278 
z
" id="ArialMT-79" transform="scale(0.015625)"/>
     </defs>
     <use xlink:href="#ArialMT-4c"/>
     <use x="55.615234" xlink:href="#ArialMT-69"/>
     <use x="77.832031" xlink:href="#ArialMT-63"/>
     <use x="127.832031" xlink:href="#ArialMT-65"/>
     <use x="183.447266" xlink:href="#ArialMT-6e"/>
     <use x="239.0625" xlink:href="#ArialMT-73"/>
     <use x="289.0625" xlink:href="#ArialMT-65"/>
     <use x="344.677734" xlink:href="#ArialMT-20"/>
     <use x="370.710938" xlink:href="#ArialMT-54"/>
     <use x="426.294922" xlink:href="#ArialMT-79"/>
     <use x="476.294922" xlink:href="#ArialMT-70"/>
     <use x="531.910156" xlink:href="#ArialMT-65"/>
    </g>
   </g>
  </g>
  <g id="axes_9">
   <g id="matplotlib.axis_17"/>
   <g id="matplotlib.axis_18"/>
   <g id="patch_21">
    <path d="M 142.15812 338.590618 
C 137.27413 330.131299 129.838192 323.429051 120.918771 319.446918 
C 111.999351 315.464786 102.04515 314.403093 92.486484 316.414395 
L 102.027911 361.759805 
L 142.15812 338.590618 
z
" style="fill:#1f77b4;stroke:#ffffff;stroke-linejoin:miter;"/>
   </g>
   <g id="patch_22">
    <path d="M 90.597398 320.645684 
C 85.837148 321.64732 81.264177 323.392315 77.046743 325.816465 
C 72.829309 328.240615 69.019782 331.313818 65.758329 334.922998 
C 62.496877 338.532178 59.823998 342.632519 57.838039 347.073151 
C 55.85208 351.513784 54.577701 356.239568 54.061792 361.076621 
C 53.545882 365.913675 53.794849 370.801936 54.799531 375.561543 
C 55.804214 380.321151 57.552136 384.893004 59.978985 389.108885 
C 62.405834 393.324767 65.481475 397.132326 69.092742 400.391468 
C 72.704008 403.650609 76.806059 406.320863 81.247962 408.30398 
C 85.689864 410.287096 90.416463 411.55845 95.253846 412.071263 
C 100.091229 412.584076 104.979329 412.33198 109.738293 411.324252 
C 114.497256 410.316523 119.06799 408.565675 123.282317 406.136128 
C 127.496644 403.706581 131.302234 400.628503 134.559063 397.015151 
C 137.815893 393.401799 140.483521 389.29804 142.463793 384.854869 
C 144.444066 380.411698 145.712394 375.684286 146.222111 370.846576 
C 146.731827 366.008866 146.476603 361.120928 145.465829 356.362611 
C 144.455054 351.604293 142.70128 347.034681 140.269037 342.82191 
L 100.138824 365.991094 
L 90.597398 320.645684 
z
" style="fill:#ff7f0e;stroke:#ffffff;stroke-linejoin:miter;"/>
   </g>
   <g id="text_47">
    <!-- Yes -->
    <g style="fill:#262626;" transform="translate(122.807857 317.800786)scale(0.1 -0.1)">
     <use xlink:href="#ArialMT-59"/>
     <use x="57.574219" xlink:href="#ArialMT-65"/>
     <use x="113.189453" xlink:href="#ArialMT-73"/>
    </g>
   </g>
   <g id="text_48">
    <!-- 20% -->
    <g style="fill:#262626;" transform="translate(103.355396 338.957229)scale(0.1 -0.1)">
     <use xlink:href="#ArialMT-32"/>
     <use x="55.615234" xlink:href="#ArialMT-30"/>
     <use x="111.230469" xlink:href="#ArialMT-25"/>
    </g>
   </g>
   <g id="text_49">
    <!-- No -->
    <g style="fill:#262626;" transform="translate(66.576063 415.120424)scale(0.1 -0.1)">
     <use xlink:href="#ArialMT-4e"/>
     <use x="72.216797" xlink:href="#ArialMT-6f"/>
    </g>
   </g>
   <g id="text_50">
    <!-- 80% -->
    <g style="fill:#262626;" transform="translate(78.797276 393.963981)scale(0.1 -0.1)">
     <use xlink:href="#ArialMT-38"/>
     <use x="55.615234" xlink:href="#ArialMT-30"/>
     <use x="111.230469" xlink:href="#ArialMT-25"/>
    </g>
   </g>
   <g id="text_51">
    <!-- Version -->
    <g style="fill:#262626;" transform="translate(80.126012 302.068125)scale(0.12 -0.12)">
     <defs>
      <path d="M 1803 0 
L 28 4581 
L 684 4581 
L 1875 1253 
Q 2019 853 2116 503 
Q 2222 878 2363 1253 
L 3600 4581 
L 4219 4581 
L 2425 0 
L 1803 0 
z
" id="ArialMT-56" transform="scale(0.015625)"/>
     </defs>
     <use xlink:href="#ArialMT-56"/>
     <use x="61.199219" xlink:href="#ArialMT-65"/>
     <use x="116.814453" xlink:href="#ArialMT-72"/>
     <use x="150.115234" xlink:href="#ArialMT-73"/>
     <use x="200.115234" xlink:href="#ArialMT-69"/>
     <use x="222.332031" xlink:href="#ArialMT-6f"/>
     <use x="277.947266" xlink:href="#ArialMT-6e"/>
    </g>
   </g>
  </g>
  <g id="axes_10">
   <g id="matplotlib.axis_19"/>
   <g id="matplotlib.axis_20"/>
   <g id="patch_23">
    <path d="M 331.592336 338.571493 
C 326.627304 329.971804 319.027062 323.191679 309.918654 319.236544 
C 300.810246 315.281409 290.667312 314.356933 280.993951 316.600207 
L 291.462126 361.74068 
L 331.592336 338.571493 
z
" style="fill:#1f77b4;stroke:#ffffff;stroke-linejoin:miter;"/>
   </g>
   <g id="patch_24">
    <path d="M 279.148298 320.850621 
C 274.428943 321.945049 269.91028 323.772839 265.757227 326.26728 
C 261.604174 328.761722 257.867878 331.892094 254.684705 335.544148 
C 251.501531 339.196201 248.910683 343.324959 247.006718 347.779732 
C 245.102752 352.234505 243.909119 356.960431 243.469383 361.785026 
C 243.029646 366.609621 243.349221 371.473468 244.416444 376.19905 
C 245.483668 380.924631 247.285396 385.453749 249.755871 389.621104 
C 252.226346 393.788458 255.335142 397.542725 258.968798 400.746884 
C 262.602453 403.951043 266.716216 406.565634 271.159947 408.495231 
C 275.603678 410.424827 280.322649 411.645665 285.144631 412.113189 
C 289.966613 412.580712 294.83222 412.289161 299.563872 411.249179 
C 304.295523 410.209196 308.834945 408.433589 313.016462 405.987163 
C 317.197979 403.540736 320.970093 400.453619 324.195132 396.838482 
C 327.420171 393.223346 330.058417 389.124713 332.013581 384.692171 
C 333.968745 380.25963 335.216748 375.54777 335.712041 370.728562 
C 336.207335 365.909353 335.94382 361.042147 334.931112 356.304583 
C 333.918405 351.567019 332.168978 347.017443 329.746681 342.821902 
L 289.616473 365.991094 
L 279.148298 320.850621 
z
" style="fill:#ff7f0e;stroke:#ffffff;stroke-linejoin:miter;"/>
   </g>
   <g id="text_52">
    <!-- Yes -->
    <g style="fill:#262626;" transform="translate(311.764307 317.571287)scale(0.1 -0.1)">
     <use xlink:href="#ArialMT-59"/>
     <use x="57.574219" xlink:href="#ArialMT-65"/>
     <use x="113.189453" xlink:href="#ArialMT-73"/>
    </g>
   </g>
   <g id="text_53">
    <!-- 20% -->
    <g style="fill:#262626;" transform="translate(292.529012 338.823355)scale(0.1 -0.1)">
     <use xlink:href="#ArialMT-32"/>
     <use x="55.615234" xlink:href="#ArialMT-30"/>
     <use x="111.230469" xlink:href="#ArialMT-25"/>
    </g>
   </g>
   <g id="text_54">
    <!-- No -->
    <g style="fill:#262626;" transform="translate(256.531482 415.3308)scale(0.1 -0.1)">
     <use xlink:href="#ArialMT-4e"/>
     <use x="72.216797" xlink:href="#ArialMT-6f"/>
    </g>
   </g>
   <g id="text_55">
    <!-- 80% -->
    <g style="fill:#262626;" transform="translate(268.535527 394.078732)scale(0.1 -0.1)">
     <use xlink:href="#ArialMT-38"/>
     <use x="55.615234" xlink:href="#ArialMT-30"/>
     <use x="111.230469" xlink:href="#ArialMT-25"/>
    </g>
   </g>
   <g id="text_56">
    <!-- Contact Email -->
    <g style="fill:#262626;" transform="translate(252.270223 302.068125)scale(0.12 -0.12)">
     <use xlink:href="#ArialMT-43"/>
     <use x="72.216797" xlink:href="#ArialMT-6f"/>
     <use x="127.832031" xlink:href="#ArialMT-6e"/>
     <use x="183.447266" xlink:href="#ArialMT-74"/>
     <use x="211.230469" xlink:href="#ArialMT-61"/>
     <use x="266.845703" xlink:href="#ArialMT-63"/>
     <use x="316.845703" xlink:href="#ArialMT-74"/>
     <use x="344.628906" xlink:href="#ArialMT-20"/>
     <use x="372.412109" xlink:href="#ArialMT-45"/>
     <use x="439.111328" xlink:href="#ArialMT-6d"/>
     <use x="522.412109" xlink:href="#ArialMT-61"/>
     <use x="578.027344" xlink:href="#ArialMT-69"/>
     <use x="600.244141" xlink:href="#ArialMT-6c"/>
    </g>
   </g>
  </g>
  <g id="axes_11">
   <g id="matplotlib.axis_21"/>
   <g id="matplotlib.axis_22"/>
   <g id="patch_25">
    <path d="M 522.782939 339.85395 
C 521.457268 337.557821 519.936974 335.379698 518.238799 333.343571 
C 516.540624 331.307444 514.670826 329.420815 512.649998 327.704462 
L 482.652729 363.023137 
L 522.782939 339.85395 
z
" style="fill:#1f77b4;stroke:#ffffff;stroke-linejoin:miter;"/>
   </g>
   <g id="patch_26">
    <path d="M 509.091391 330.672418 
C 504.708124 326.949571 499.669873 324.075033 494.23463 322.196002 
C 488.799387 320.316971 483.061537 319.466076 477.314898 319.686889 
C 471.568258 319.907702 465.912621 321.196388 460.637594 323.486958 
C 455.362566 325.777528 450.559751 329.030205 446.475085 333.07843 
C 442.390419 337.126656 439.094834 341.90013 436.757085 347.15442 
C 434.419337 352.408709 433.080021 358.052571 432.807721 363.797001 
C 432.53542 369.541431 433.334863 375.286675 435.165113 380.738538 
C 436.995362 386.190402 439.824636 391.25421 443.508055 395.670662 
C 447.191473 400.087114 451.665074 403.779517 456.699778 406.558794 
C 461.734482 409.338072 467.242859 411.15596 472.942844 411.919372 
C 478.642829 412.682784 484.435439 412.378462 490.024053 411.02199 
C 495.612667 409.665518 500.900237 407.280451 505.616003 403.98892 
C 510.33177 400.69739 514.393842 396.556555 517.594213 391.778455 
C 520.794585 387.000354 523.077681 381.667961 524.326591 376.054331 
C 525.575502 370.4407 525.768538 364.643315 524.895817 358.95904 
C 524.023095 353.274765 522.09977 347.80231 519.22433 342.821902 
L 479.094122 365.991094 
L 509.091391 330.672418 
z
" style="fill:#ff7f0e;stroke:#ffffff;stroke-linejoin:miter;"/>
   </g>
   <g id="text_57">
    <!-- Yes -->
    <g style="fill:#262626;" transform="translate(521.797406 332.960771)scale(0.1 -0.1)">
     <use xlink:href="#ArialMT-59"/>
     <use x="57.574219" xlink:href="#ArialMT-65"/>
     <use x="113.189453" xlink:href="#ArialMT-73"/>
    </g>
   </g>
   <g id="text_58">
    <!-- 5% -->
    <g style="fill:#262626;" transform="translate(496.777809 347.800554)scale(0.1 -0.1)">
     <use xlink:href="#ArialMT-35"/>
     <use x="55.615234" xlink:href="#ArialMT-25"/>
    </g>
   </g>
   <g id="text_59">
    <!-- No -->
    <g style="fill:#262626;" transform="translate(427.166635 401.223775)scale(0.1 -0.1)">
     <use xlink:href="#ArialMT-4e"/>
     <use x="72.216797" xlink:href="#ArialMT-6f"/>
    </g>
   </g>
   <g id="text_60">
    <!-- 95% -->
    <g style="fill:#262626;" transform="translate(447.73545 386.383991)scale(0.1 -0.1)">
     <use xlink:href="#ArialMT-39"/>
     <use x="55.615234" xlink:href="#ArialMT-35"/>
     <use x="111.230469" xlink:href="#ArialMT-25"/>
    </g>
   </g>
   <g id="text_61">
    <!-- Wikidata Database -->
    <g style="fill:#262626;" transform="translate(428.738185 302.068125)scale(0.12 -0.12)">
     <defs>
      <path d="M 1294 0 
L 78 4581 
L 700 4581 
L 1397 1578 
Q 1509 1106 1591 641 
Q 1766 1375 1797 1488 
L 2669 4581 
L 3400 4581 
L 4056 2263 
Q 4303 1400 4413 641 
Q 4500 1075 4641 1638 
L 5359 4581 
L 5969 4581 
L 4713 0 
L 4128 0 
L 3163 3491 
Q 3041 3928 3019 4028 
Q 2947 3713 2884 3491 
L 1913 0 
L 1294 0 
z
" id="ArialMT-57" transform="scale(0.015625)"/>
      <path d="M 425 0 
L 425 4581 
L 988 4581 
L 988 1969 
L 2319 3319 
L 3047 3319 
L 1778 2088 
L 3175 0 
L 2481 0 
L 1384 1697 
L 988 1316 
L 988 0 
L 425 0 
z
" id="ArialMT-6b" transform="scale(0.015625)"/>
      <path d="M 941 0 
L 419 0 
L 419 4581 
L 981 4581 
L 981 2947 
Q 1338 3394 1891 3394 
Q 2197 3394 2470 3270 
Q 2744 3147 2920 2923 
Q 3097 2700 3197 2384 
Q 3297 2069 3297 1709 
Q 3297 856 2875 390 
Q 2453 -75 1863 -75 
Q 1275 -75 941 416 
L 941 0 
z
M 934 1684 
Q 934 1088 1097 822 
Q 1363 388 1816 388 
Q 2184 388 2453 708 
Q 2722 1028 2722 1663 
Q 2722 2313 2464 2622 
Q 2206 2931 1841 2931 
Q 1472 2931 1203 2611 
Q 934 2291 934 1684 
z
" id="ArialMT-62" transform="scale(0.015625)"/>
     </defs>
     <use xlink:href="#ArialMT-57"/>
     <use x="94.384766" xlink:href="#ArialMT-69"/>
     <use x="116.601562" xlink:href="#ArialMT-6b"/>
     <use x="166.601562" xlink:href="#ArialMT-69"/>
     <use x="188.818359" xlink:href="#ArialMT-64"/>
     <use x="244.433594" xlink:href="#ArialMT-61"/>
     <use x="300.048828" xlink:href="#ArialMT-74"/>
     <use x="327.832031" xlink:href="#ArialMT-61"/>
     <use x="383.447266" xlink:href="#ArialMT-20"/>
     <use x="411.230469" xlink:href="#ArialMT-44"/>
     <use x="483.447266" xlink:href="#ArialMT-61"/>
     <use x="539.0625" xlink:href="#ArialMT-74"/>
     <use x="566.845703" xlink:href="#ArialMT-61"/>
     <use x="622.460938" xlink:href="#ArialMT-62"/>
     <use x="678.076172" xlink:href="#ArialMT-61"/>
     <use x="733.691406" xlink:href="#ArialMT-73"/>
     <use x="783.691406" xlink:href="#ArialMT-65"/>
    </g>
   </g>
  </g>
  <g id="axes_12">
   <g id="matplotlib.axis_23"/>
   <g id="matplotlib.axis_24"/>
   <g id="patch_27">
    <path d="M 711.887183 339.456355 
C 709.64883 335.579413 706.860422 332.04722 703.608995 328.970027 
C 700.357567 325.892833 696.677305 323.302992 692.683081 321.28134 
L 671.756973 362.625542 
L 711.887183 339.456355 
z
" style="fill:#1f77b4;stroke:#ffffff;stroke-linejoin:miter;"/>
   </g>
   <g id="patch_28">
    <path d="M 689.497879 324.646892 
C 684.57137 322.153371 679.238602 320.560357 673.751601 319.943137 
C 668.264601 319.325916 662.711192 319.694369 657.353829 321.031081 
C 651.996466 322.367793 646.920898 324.651369 642.366998 327.773888 
C 637.813097 330.896406 633.853752 334.807889 630.676082 339.323479 
C 627.498411 343.839068 625.153277 348.886489 623.75151 354.227199 
C 622.349744 359.567909 621.913781 365.116427 622.464225 370.610528 
C 623.014669 376.104629 624.542711 381.456376 626.976134 386.412845 
C 629.409557 391.369315 632.709413 395.851174 636.71975 399.646609 
C 640.730087 403.442045 645.386717 406.490308 650.469566 408.647338 
C 655.552416 410.804368 660.98013 412.035639 666.496194 412.282961 
C 672.012259 412.530283 677.528385 411.789699 682.783879 410.096207 
C 688.039373 408.402715 692.950118 405.783421 697.28403 402.362115 
C 701.617943 398.940808 705.305655 394.772249 708.172886 390.053444 
C 711.040117 385.334639 713.040974 380.141115 714.080897 374.718321 
C 715.120819 369.295527 715.183162 363.730258 714.264979 358.285529 
C 713.346797 352.8408 711.462784 347.603757 708.701981 342.821906 
L 668.571771 365.991094 
L 689.497879 324.646892 
z
" style="fill:#ff7f0e;stroke:#ffffff;stroke-linejoin:miter;"/>
   </g>
   <g id="text_62">
    <!-- Yes -->
    <g style="fill:#262626;" transform="translate(706.794197 328.189631)scale(0.1 -0.1)">
     <use xlink:href="#ArialMT-59"/>
     <use x="57.574219" xlink:href="#ArialMT-65"/>
     <use x="113.189453" xlink:href="#ArialMT-73"/>
    </g>
   </g>
   <g id="text_63">
    <!-- 9% -->
    <g style="fill:#262626;" transform="translate(683.641624 345.017389)scale(0.1 -0.1)">
     <use xlink:href="#ArialMT-39"/>
     <use x="55.615234" xlink:href="#ArialMT-25"/>
    </g>
   </g>
   <g id="text_64">
    <!-- No -->
    <g style="fill:#262626;" transform="translate(620.751735 405.597317)scale(0.1 -0.1)">
     <use xlink:href="#ArialMT-4e"/>
     <use x="72.216797" xlink:href="#ArialMT-6f"/>
    </g>
   </g>
   <g id="text_65">
    <!-- 91% -->
    <g style="fill:#262626;" transform="translate(639.453527 388.769559)scale(0.1 -0.1)">
     <use xlink:href="#ArialMT-39"/>
     <use x="55.615234" xlink:href="#ArialMT-31"/>
     <use x="111.230469" xlink:href="#ArialMT-25"/>
    </g>
   </g>
   <g id="text_66">
    <!-- OBO -->
    <g style="fill:#262626;" transform="translate(655.235834 302.068125)scale(0.12 -0.12)">
     <use xlink:href="#ArialMT-4f"/>
     <use x="77.783203" xlink:href="#ArialMT-42"/>
     <use x="144.482422" xlink:href="#ArialMT-4f"/>
    </g>
   </g>
  </g>
  <g id="axes_13">
   <g id="matplotlib.axis_25"/>
   <g id="matplotlib.axis_26"/>
   <g id="patch_29">
    <path d="M 142.005267 479.811573 
C 136.837353 470.860483 128.820266 463.890735 119.237384 460.018048 
C 109.654502 456.145362 99.045993 455.588031 89.110072 458.435276 
L 101.875057 502.98076 
L 142.005267 479.811573 
z
" style="fill:#1f77b4;stroke:#ffffff;stroke-linejoin:miter;"/>
   </g>
   <g id="patch_30">
    <path d="M 87.37384 462.731547 
C 82.764499 464.052403 78.387974 466.080718 74.400768 468.743962 
C 70.413561 471.407205 66.863773 474.673249 63.878342 478.425299 
C 60.892912 482.17735 58.507853 486.370145 56.808455 490.853752 
C 55.109058 495.337358 54.115822 500.057688 53.864265 504.845945 
C 53.612709 509.634201 54.105867 514.432621 55.326103 519.069614 
C 56.54634 523.706607 58.478935 528.126235 61.05478 532.170453 
C 63.630625 536.214672 66.818646 539.834693 70.50484 542.901068 
C 74.191035 545.967442 78.330934 548.443177 82.776497 550.239743 
C 87.222061 552.036308 91.919659 553.132031 96.701307 553.487728 
C 101.482955 553.843425 106.29097 553.454805 110.95342 552.335765 
C 115.615869 551.216726 120.076506 549.380767 124.175821 546.89354 
C 128.275137 544.406314 131.963677 541.297825 135.109543 537.679233 
C 138.255408 534.06064 140.820648 529.975597 142.713531 525.570182 
C 144.606413 521.164768 145.804103 516.492127 146.263772 511.719352 
C 146.723441 506.946576 146.439543 502.131243 145.422231 497.445546 
C 144.404919 492.759849 142.666464 488.260314 140.269034 484.107844 
L 100.138824 507.277031 
L 87.37384 462.731547 
z
" style="fill:#ff7f0e;stroke:#ffffff;stroke-linejoin:miter;"/>
   </g>
   <g id="text_67">
    <!-- Yes -->
    <g style="fill:#262626;" transform="translate(120.973617 458.306933)scale(0.1 -0.1)">
     <use xlink:href="#ArialMT-59"/>
     <use x="57.574219" xlink:href="#ArialMT-65"/>
     <use x="113.189453" xlink:href="#ArialMT-73"/>
    </g>
   </g>
   <g id="text_68">
    <!-- 21% -->
    <g style="fill:#262626;" transform="translate(102.285422 479.788289)scale(0.1 -0.1)">
     <use xlink:href="#ArialMT-32"/>
     <use x="55.615234" xlink:href="#ArialMT-31"/>
     <use x="111.230469" xlink:href="#ArialMT-25"/>
    </g>
   </g>
   <g id="text_69">
    <!-- No -->
    <g style="fill:#262626;" transform="translate(68.257452 557.12117)scale(0.1 -0.1)">
     <use xlink:href="#ArialMT-4e"/>
     <use x="72.216797" xlink:href="#ArialMT-6f"/>
    </g>
   </g>
   <g id="text_70">
    <!-- 79% -->
    <g style="fill:#262626;" transform="translate(79.714397 535.639815)scale(0.1 -0.1)">
     <use xlink:href="#ArialMT-37"/>
     <use x="55.615234" xlink:href="#ArialMT-39"/>
     <use x="111.230469" xlink:href="#ArialMT-25"/>
    </g>
   </g>
   <g id="text_71">
    <!-- OWL -->
    <g style="fill:#262626;" transform="translate(86.471949 443.354062)scale(0.12 -0.12)">
     <use xlink:href="#ArialMT-4f"/>
     <use x="77.783203" xlink:href="#ArialMT-57"/>
     <use x="172.167969" xlink:href="#ArialMT-4c"/>
    </g>
   </g>
  </g>
  <g id="axes_14">
   <g id="matplotlib.axis_27"/>
   <g id="matplotlib.axis_28"/>
   <g id="patch_31">
    <path d="M 333.642289 481.59852 
C 333.266564 480.947746 332.875065 480.306207 332.468139 479.674473 
C 332.061213 479.04274 331.63898 478.420998 331.201815 477.809799 
L 293.512079 504.767708 
L 333.642289 481.59852 
z
" style="fill:#1f77b4;stroke:#ffffff;stroke-linejoin:miter;"/>
   </g>
   <g id="patch_32">
    <path d="M 327.306209 480.319123 
C 323.821287 475.446869 319.424428 471.296281 314.359606 468.09767 
C 309.294784 464.899058 303.657446 462.7127 297.760398 461.659913 
C 291.86335 460.607126 285.817721 460.707749 279.958975 461.9562 
C 274.100229 463.204651 268.538772 465.577403 263.583202 468.942794 
C 258.627631 472.308185 254.371334 476.602796 251.050486 481.588326 
C 247.729637 486.573855 245.406819 492.156351 244.210919 498.02605 
C 243.01502 503.895748 242.968577 509.942036 244.074166 515.829413 
C 245.179755 521.71679 247.416543 527.33431 250.660413 532.370265 
C 253.904283 537.40622 258.094106 541.765709 262.997393 545.206829 
C 267.90068 548.647949 273.425031 551.105854 279.263908 552.444158 
C 285.102784 553.782463 291.146154 553.975946 297.058678 553.013872 
C 302.971203 552.051798 308.641463 549.952297 313.754823 546.831867 
C 318.868184 543.711438 323.328285 539.628883 326.887641 534.810739 
C 330.446998 529.992594 333.038535 524.529657 334.518452 518.725057 
C 335.998369 512.920457 336.338778 506.883581 335.520789 500.949406 
C 334.702799 495.015231 332.741827 489.295586 329.746684 484.107845 
L 289.616473 507.277031 
L 327.306209 480.319123 
z
" style="fill:#ff7f0e;stroke:#ffffff;stroke-linejoin:miter;"/>
   </g>
   <g id="text_72">
    <!-- Yes -->
    <g style="fill:#262626;" transform="translate(336.363745 479.750306)scale(0.1 -0.1)">
     <use xlink:href="#ArialMT-59"/>
     <use x="57.574219" xlink:href="#ArialMT-65"/>
     <use x="113.189453" xlink:href="#ArialMT-73"/>
    </g>
   </g>
   <g id="text_73">
    <!-- 2% -->
    <g style="fill:#262626;" transform="translate(309.659153 492.296923)scale(0.1 -0.1)">
     <use xlink:href="#ArialMT-32"/>
     <use x="55.615234" xlink:href="#ArialMT-25"/>
    </g>
   </g>
   <g id="text_74">
    <!-- No -->
    <g style="fill:#262626;" transform="translate(233.981995 537.464745)scale(0.1 -0.1)">
     <use xlink:href="#ArialMT-4e"/>
     <use x="72.216797" xlink:href="#ArialMT-6f"/>
    </g>
   </g>
   <g id="text_75">
    <!-- 98% -->
    <g style="fill:#262626;" transform="translate(256.235806 524.918128)scale(0.1 -0.1)">
     <use xlink:href="#ArialMT-39"/>
     <use x="55.615234" xlink:href="#ArialMT-38"/>
     <use x="111.230469" xlink:href="#ArialMT-25"/>
    </g>
   </g>
   <g id="text_76">
    <!-- JSON -->
    <g style="fill:#262626;" transform="translate(273.614286 443.354062)scale(0.12 -0.12)">
     <defs>
      <path d="M 184 1300 
L 731 1375 
Q 753 850 928 656 
Q 1103 463 1413 463 
Q 1641 463 1806 567 
Q 1972 672 2034 851 
Q 2097 1031 2097 1425 
L 2097 4581 
L 2703 4581 
L 2703 1459 
Q 2703 884 2564 568 
Q 2425 253 2123 87 
Q 1822 -78 1416 -78 
Q 813 -78 492 269 
Q 172 616 184 1300 
z
" id="ArialMT-4a" transform="scale(0.015625)"/>
      <path d="M 288 1472 
L 859 1522 
Q 900 1178 1048 958 
Q 1197 738 1509 602 
Q 1822 466 2213 466 
Q 2559 466 2825 569 
Q 3091 672 3220 851 
Q 3350 1031 3350 1244 
Q 3350 1459 3225 1620 
Q 3100 1781 2813 1891 
Q 2628 1963 1997 2114 
Q 1366 2266 1113 2400 
Q 784 2572 623 2826 
Q 463 3081 463 3397 
Q 463 3744 659 4045 
Q 856 4347 1234 4503 
Q 1613 4659 2075 4659 
Q 2584 4659 2973 4495 
Q 3363 4331 3572 4012 
Q 3781 3694 3797 3291 
L 3216 3247 
Q 3169 3681 2898 3903 
Q 2628 4125 2100 4125 
Q 1550 4125 1298 3923 
Q 1047 3722 1047 3438 
Q 1047 3191 1225 3031 
Q 1400 2872 2139 2705 
Q 2878 2538 3153 2413 
Q 3553 2228 3743 1945 
Q 3934 1663 3934 1294 
Q 3934 928 3725 604 
Q 3516 281 3123 101 
Q 2731 -78 2241 -78 
Q 1619 -78 1198 103 
Q 778 284 539 648 
Q 300 1013 288 1472 
z
" id="ArialMT-53" transform="scale(0.015625)"/>
     </defs>
     <use xlink:href="#ArialMT-4a"/>
     <use x="50" xlink:href="#ArialMT-53"/>
     <use x="116.699219" xlink:href="#ArialMT-4f"/>
     <use x="194.482422" xlink:href="#ArialMT-4e"/>
    </g>
   </g>
  </g>
  <g id="axes_15"/>
  <g id="axes_16"/>
  <g id="text_77">
   <!-- https://github.com/biopragmatics/bioregistry (2021-11-02) -->
   <g style="fill:#808080;opacity:0.5;" transform="translate(294.92 574.31625)scale(0.08 -0.08)">
    <defs>
     <path d="M 578 2678 
L 578 3319 
L 1219 3319 
L 1219 2678 
L 578 2678 
z
M 578 0 
L 578 641 
L 1219 641 
L 1219 0 
L 578 0 
z
" id="ArialMT-3a" transform="scale(0.015625)"/>
     <path d="M 0 -78 
L 1328 4659 
L 1778 4659 
L 453 -78 
L 0 -78 
z
" id="ArialMT-2f" transform="scale(0.015625)"/>
     <path d="M 2597 0 
L 2597 488 
Q 2209 -75 1544 -75 
Q 1250 -75 995 37 
Q 741 150 617 320 
Q 494 491 444 738 
Q 409 903 409 1263 
L 409 3319 
L 972 3319 
L 972 1478 
Q 972 1038 1006 884 
Q 1059 663 1231 536 
Q 1403 409 1656 409 
Q 1909 409 2131 539 
Q 2353 669 2445 892 
Q 2538 1116 2538 1541 
L 2538 3319 
L 3100 3319 
L 3100 0 
L 2597 0 
z
" id="ArialMT-75" transform="scale(0.015625)"/>
     <path d="M 1497 -1347 
Q 1031 -759 709 28 
Q 388 816 388 1659 
Q 388 2403 628 3084 
Q 909 3875 1497 4659 
L 1900 4659 
Q 1522 4009 1400 3731 
Q 1209 3300 1100 2831 
Q 966 2247 966 1656 
Q 966 153 1900 -1347 
L 1497 -1347 
z
" id="ArialMT-28" transform="scale(0.015625)"/>
     <path d="M 791 -1347 
L 388 -1347 
Q 1322 153 1322 1656 
Q 1322 2244 1188 2822 
Q 1081 3291 891 3722 
Q 769 4003 388 4659 
L 791 4659 
Q 1378 3875 1659 3084 
Q 1900 2403 1900 1659 
Q 1900 816 1576 28 
Q 1253 -759 791 -1347 
z
" id="ArialMT-29" transform="scale(0.015625)"/>
    </defs>
    <use xlink:href="#ArialMT-68"/>
    <use x="55.615234" xlink:href="#ArialMT-74"/>
    <use x="83.398438" xlink:href="#ArialMT-74"/>
    <use x="111.181641" xlink:href="#ArialMT-70"/>
    <use x="166.796875" xlink:href="#ArialMT-73"/>
    <use x="216.796875" xlink:href="#ArialMT-3a"/>
    <use x="244.580078" xlink:href="#ArialMT-2f"/>
    <use x="272.363281" xlink:href="#ArialMT-2f"/>
    <use x="300.146484" xlink:href="#ArialMT-67"/>
    <use x="355.761719" xlink:href="#ArialMT-69"/>
    <use x="377.978516" xlink:href="#ArialMT-74"/>
    <use x="405.761719" xlink:href="#ArialMT-68"/>
    <use x="461.376953" xlink:href="#ArialMT-75"/>
    <use x="516.992188" xlink:href="#ArialMT-62"/>
    <use x="572.607422" xlink:href="#ArialMT-2e"/>
    <use x="600.390625" xlink:href="#ArialMT-63"/>
    <use x="650.390625" xlink:href="#ArialMT-6f"/>
    <use x="706.005859" xlink:href="#ArialMT-6d"/>
    <use x="789.306641" xlink:href="#ArialMT-2f"/>
    <use x="817.089844" xlink:href="#ArialMT-62"/>
    <use x="872.705078" xlink:href="#ArialMT-69"/>
    <use x="894.921875" xlink:href="#ArialMT-6f"/>
    <use x="950.537109" xlink:href="#ArialMT-70"/>
    <use x="1006.152344" xlink:href="#ArialMT-72"/>
    <use x="1039.453125" xlink:href="#ArialMT-61"/>
    <use x="1095.068359" xlink:href="#ArialMT-67"/>
    <use x="1150.683594" xlink:href="#ArialMT-6d"/>
    <use x="1233.984375" xlink:href="#ArialMT-61"/>
    <use x="1289.599609" xlink:href="#ArialMT-74"/>
    <use x="1317.382812" xlink:href="#ArialMT-69"/>
    <use x="1339.599609" xlink:href="#ArialMT-63"/>
    <use x="1389.599609" xlink:href="#ArialMT-73"/>
    <use x="1439.599609" xlink:href="#ArialMT-2f"/>
    <use x="1467.382812" xlink:href="#ArialMT-62"/>
    <use x="1522.998047" xlink:href="#ArialMT-69"/>
    <use x="1545.214844" xlink:href="#ArialMT-6f"/>
    <use x="1600.830078" xlink:href="#ArialMT-72"/>
    <use x="1634.130859" xlink:href="#ArialMT-65"/>
    <use x="1689.746094" xlink:href="#ArialMT-67"/>
    <use x="1745.361328" xlink:href="#ArialMT-69"/>
    <use x="1767.578125" xlink:href="#ArialMT-73"/>
    <use x="1817.578125" xlink:href="#ArialMT-74"/>
    <use x="1845.361328" xlink:href="#ArialMT-72"/>
    <use x="1878.662109" xlink:href="#ArialMT-79"/>
    <use x="1928.662109" xlink:href="#ArialMT-20"/>
    <use x="1956.445312" xlink:href="#ArialMT-28"/>
    <use x="1989.746094" xlink:href="#ArialMT-32"/>
    <use x="2045.361328" xlink:href="#ArialMT-30"/>
    <use x="2100.976562" xlink:href="#ArialMT-32"/>
    <use x="2156.591797" xlink:href="#ArialMT-31"/>
    <use x="2212.207031" xlink:href="#ArialMT-2d"/>
    <use x="2245.507812" xlink:href="#ArialMT-31"/>
    <use x="2293.748047" xlink:href="#ArialMT-31"/>
    <use x="2349.363281" xlink:href="#ArialMT-2d"/>
    <use x="2382.664062" xlink:href="#ArialMT-30"/>
    <use x="2438.279297" xlink:href="#ArialMT-32"/>
    <use x="2493.894531" xlink:href="#ArialMT-29"/>
   </g>
  </g>
 </g>
</svg>
