<?xml version="1.0" encoding="utf-8" standalone="no"?>
<!DOCTYPE svg PUBLIC "-//W3C//DTD SVG 1.1//EN"
  "http://www.w3.org/Graphics/SVG/1.1/DTD/svg11.dtd">
<!-- Created with matplotlib (https://matplotlib.org/) -->
<svg height="345.6pt" version="1.1" viewBox="0 0 460.8 345.6" width="460.8pt" xmlns="http://www.w3.org/2000/svg" xmlns:xlink="http://www.w3.org/1999/xlink">
 <metadata>
  <rdf:RDF xmlns:cc="http://creativecommons.org/ns#" xmlns:dc="http://purl.org/dc/elements/1.1/" xmlns:rdf="http://www.w3.org/1999/02/22-rdf-syntax-ns#">
   <cc:Work>
    <dc:type rdf:resource="http://purl.org/dc/dcmitype/StillImage"/>
    <dc:date>2021-04-02T22:47:43.450422</dc:date>
    <dc:format>image/svg+xml</dc:format>
    <dc:creator>
     <cc:Agent>
      <dc:title>Matplotlib v3.3.4, https://matplotlib.org/</dc:title>
     </cc:Agent>
    </dc:creator>
   </cc:Work>
  </rdf:RDF>
 </metadata>
 <defs>
  <style type="text/css">*{stroke-linecap:butt;stroke-linejoin:round;}</style>
 </defs>
 <g id="figure_1">
  <g id="patch_1">
   <path d="M 0 345.6 
L 460.8 345.6 
L 460.8 0 
L 0 0 
z
" style="fill:#ffffff;"/>
  </g>
  <g id="axes_1">
   <g id="matplotlib.axis_1"/>
   <g id="matplotlib.axis_2"/>
   <g id="patch_2">
    <path d="M 160.252756 50.303414 
C 156.88594 44.471918 151.882762 39.753042 145.864488 36.732749 
C 139.846214 33.712456 133.072706 32.521159 126.385062 33.306787 
C 119.697419 34.092415 113.384403 36.821046 108.229931 41.153853 
C 103.07546 45.48666 99.302096 51.236557 97.378396 57.689554 
C 95.454697 64.142551 95.463724 71.020015 97.404356 77.46794 
C 99.344989 83.915865 103.133434 89.655837 108.299261 93.975098 
C 113.465089 98.294359 119.785246 101.006408 126.474929 101.774478 
C 133.164612 102.542548 139.934969 101.333475 145.945294 98.297394 
L 130.406057 67.535414 
L 160.252756 50.303414 
z
" style="fill:#1f77b4;stroke:#ffffff;stroke-linejoin:miter;"/>
   </g>
   <g id="patch_3">
    <path d="M 149.24806 99.28198 
C 153.432263 97.168353 157.14157 94.223086 160.148507 90.626795 
C 163.155444 87.030505 165.397262 82.858238 166.736483 78.36586 
C 168.075704 73.873481 168.48438 69.154738 167.93745 64.499006 
C 167.390519 59.843273 165.899396 55.347708 163.555522 51.288 
L 133.708823 68.52 
L 149.24806 99.28198 
z
" style="fill:#ff7f0e;stroke:#ffffff;stroke-linejoin:miter;"/>
   </g>
   <g id="text_1">
    <!-- Yes -->
    <g style="fill:#262626;" transform="translate(77.75688 59.290124)scale(0.1 -0.1)">
     <defs>
      <path d="M 27.875 0 
L 27.875 30.328125 
L 0.296875 71.578125 
L 11.8125 71.578125 
L 25.921875 50 
Q 29.828125 43.953125 33.203125 37.890625 
Q 36.421875 43.5 41.015625 50.53125 
L 54.890625 71.578125 
L 65.921875 71.578125 
L 37.359375 30.328125 
L 37.359375 0 
z
" id="ArialMT-89"/>
      <path d="M 42.09375 16.703125 
L 51.171875 15.578125 
Q 49.03125 7.625 43.21875 3.21875 
Q 37.40625 -1.171875 28.375 -1.171875 
Q 17 -1.171875 10.328125 5.828125 
Q 3.65625 12.84375 3.65625 25.484375 
Q 3.65625 38.578125 10.390625 45.796875 
Q 17.140625 53.03125 27.875 53.03125 
Q 38.28125 53.03125 44.875 45.953125 
Q 51.46875 38.875 51.46875 26.03125 
Q 51.46875 25.25 51.421875 23.6875 
L 12.75 23.6875 
Q 13.234375 15.140625 17.578125 10.59375 
Q 21.921875 6.0625 28.421875 6.0625 
Q 33.25 6.0625 36.671875 8.59375 
Q 40.09375 11.140625 42.09375 16.703125 
z
M 13.234375 30.90625 
L 42.1875 30.90625 
Q 41.609375 37.453125 38.875 40.71875 
Q 34.671875 45.796875 27.984375 45.796875 
Q 21.921875 45.796875 17.796875 41.75 
Q 13.671875 37.703125 13.234375 30.90625 
z
" id="ArialMT-101"/>
      <path d="M 3.078125 15.484375 
L 11.765625 16.84375 
Q 12.5 11.625 15.84375 8.84375 
Q 19.1875 6.0625 25.203125 6.0625 
Q 31.25 6.0625 34.171875 8.515625 
Q 37.109375 10.984375 37.109375 14.3125 
Q 37.109375 17.28125 34.515625 19 
Q 32.71875 20.171875 25.53125 21.96875 
Q 15.875 24.421875 12.140625 26.203125 
Q 8.40625 27.984375 6.46875 31.125 
Q 4.546875 34.28125 4.546875 38.09375 
Q 4.546875 41.546875 6.125 44.5 
Q 7.71875 47.46875 10.453125 49.421875 
Q 12.5 50.921875 16.03125 51.96875 
Q 19.578125 53.03125 23.640625 53.03125 
Q 29.734375 53.03125 34.34375 51.265625 
Q 38.96875 49.515625 41.15625 46.5 
Q 43.359375 43.5 44.1875 38.484375 
L 35.59375 37.3125 
Q 35.015625 41.3125 32.203125 43.546875 
Q 29.390625 45.796875 24.265625 45.796875 
Q 18.21875 45.796875 15.625 43.796875 
Q 13.03125 41.796875 13.03125 39.109375 
Q 13.03125 37.40625 14.109375 36.03125 
Q 15.1875 34.625 17.484375 33.6875 
Q 18.796875 33.203125 25.25 31.453125 
Q 34.578125 28.953125 38.25 27.359375 
Q 41.9375 25.78125 44.03125 22.75 
Q 46.140625 19.734375 46.140625 15.234375 
Q 46.140625 10.84375 43.578125 6.953125 
Q 41.015625 3.078125 36.171875 0.953125 
Q 31.34375 -1.171875 25.25 -1.171875 
Q 15.140625 -1.171875 9.84375 3.03125 
Q 4.546875 7.234375 3.078125 15.484375 
z
" id="ArialMT-115"/>
     </defs>
     <use xlink:href="#ArialMT-89"/>
     <use x="57.574219" xlink:href="#ArialMT-101"/>
     <use x="113.189453" xlink:href="#ArialMT-115"/>
    </g>
   </g>
   <g id="text_2">
    <!-- 74% -->
    <g style="fill:#262626;" transform="translate(100.582429 64.213054)scale(0.1 -0.1)">
     <defs>
      <path d="M 4.734375 62.203125 
L 4.734375 70.65625 
L 51.078125 70.65625 
L 51.078125 63.8125 
Q 44.234375 56.546875 37.515625 44.484375 
Q 30.8125 32.421875 27.15625 19.671875 
Q 24.515625 10.6875 23.78125 0 
L 14.75 0 
Q 14.890625 8.453125 18.0625 20.40625 
Q 21.234375 32.375 27.171875 43.484375 
Q 33.109375 54.59375 39.796875 62.203125 
z
" id="ArialMT-55"/>
      <path d="M 32.328125 0 
L 32.328125 17.140625 
L 1.265625 17.140625 
L 1.265625 25.203125 
L 33.9375 71.578125 
L 41.109375 71.578125 
L 41.109375 25.203125 
L 50.78125 25.203125 
L 50.78125 17.140625 
L 41.109375 17.140625 
L 41.109375 0 
z
M 32.328125 25.203125 
L 32.328125 57.46875 
L 9.90625 25.203125 
z
" id="ArialMT-52"/>
      <path d="M 5.8125 54.390625 
Q 5.8125 62.0625 9.671875 67.421875 
Q 13.53125 72.796875 20.84375 72.796875 
Q 27.59375 72.796875 32 67.984375 
Q 36.421875 63.1875 36.421875 53.859375 
Q 36.421875 44.78125 31.953125 39.875 
Q 27.484375 34.96875 20.953125 34.96875 
Q 14.453125 34.96875 10.125 39.796875 
Q 5.8125 44.625 5.8125 54.390625 
z
M 21.09375 66.75 
Q 17.828125 66.75 15.65625 63.90625 
Q 13.484375 61.078125 13.484375 53.515625 
Q 13.484375 46.625 15.671875 43.8125 
Q 17.875 41.015625 21.09375 41.015625 
Q 24.421875 41.015625 26.59375 43.84375 
Q 28.765625 46.6875 28.765625 54.203125 
Q 28.765625 61.140625 26.5625 63.9375 
Q 24.359375 66.75 21.09375 66.75 
z
M 21.140625 -2.640625 
L 60.296875 72.796875 
L 67.4375 72.796875 
L 28.421875 -2.640625 
z
M 52.09375 16.796875 
Q 52.09375 24.515625 55.953125 29.859375 
Q 59.8125 35.203125 67.1875 35.203125 
Q 73.921875 35.203125 78.34375 30.390625 
Q 82.765625 25.59375 82.765625 16.265625 
Q 82.765625 7.171875 78.296875 2.265625 
Q 73.828125 -2.640625 67.234375 -2.640625 
Q 60.75 -2.640625 56.421875 2.21875 
Q 52.09375 7.078125 52.09375 16.796875 
z
M 67.4375 29.15625 
Q 64.109375 29.15625 61.9375 26.3125 
Q 59.765625 23.484375 59.765625 15.921875 
Q 59.765625 9.078125 61.953125 6.25 
Q 64.15625 3.421875 67.390625 3.421875 
Q 70.75 3.421875 72.921875 6.25 
Q 75.09375 9.078125 75.09375 16.609375 
Q 75.09375 23.53125 72.890625 26.34375 
Q 70.703125 29.15625 67.4375 29.15625 
z
" id="ArialMT-37"/>
     </defs>
     <use xlink:href="#ArialMT-55"/>
     <use x="55.615234" xlink:href="#ArialMT-52"/>
     <use x="111.230469" xlink:href="#ArialMT-37"/>
    </g>
   </g>
   <g id="text_3">
    <!-- No -->
    <g style="fill:#262626;" transform="translate(170.039249 81.935602)scale(0.1 -0.1)">
     <defs>
      <path d="M 7.625 0 
L 7.625 71.578125 
L 17.328125 71.578125 
L 54.9375 15.375 
L 54.9375 71.578125 
L 64.015625 71.578125 
L 64.015625 0 
L 54.296875 0 
L 16.703125 56.25 
L 16.703125 0 
z
" id="ArialMT-78"/>
      <path d="M 3.328125 25.921875 
Q 3.328125 40.328125 11.328125 47.265625 
Q 18.015625 53.03125 27.640625 53.03125 
Q 38.328125 53.03125 45.109375 46.015625 
Q 51.90625 39.015625 51.90625 26.65625 
Q 51.90625 16.65625 48.90625 10.90625 
Q 45.90625 5.171875 40.15625 2 
Q 34.421875 -1.171875 27.640625 -1.171875 
Q 16.75 -1.171875 10.03125 5.8125 
Q 3.328125 12.796875 3.328125 25.921875 
z
M 12.359375 25.921875 
Q 12.359375 15.96875 16.703125 11.015625 
Q 21.046875 6.0625 27.640625 6.0625 
Q 34.1875 6.0625 38.53125 11.03125 
Q 42.875 16.015625 42.875 26.21875 
Q 42.875 35.84375 38.5 40.796875 
Q 34.125 45.75 27.640625 45.75 
Q 21.046875 45.75 16.703125 40.8125 
Q 12.359375 35.890625 12.359375 25.921875 
z
" id="ArialMT-111"/>
     </defs>
     <use xlink:href="#ArialMT-78"/>
     <use x="72.216797" xlink:href="#ArialMT-111"/>
    </g>
   </g>
   <g id="text_4">
    <!-- 26% -->
    <g style="fill:#262626;" transform="translate(143.518387 77.012672)scale(0.1 -0.1)">
     <defs>
      <path d="M 50.34375 8.453125 
L 50.34375 0 
L 3.03125 0 
Q 2.9375 3.171875 4.046875 6.109375 
Q 5.859375 10.9375 9.828125 15.625 
Q 13.8125 20.3125 21.34375 26.46875 
Q 33.015625 36.03125 37.109375 41.625 
Q 41.21875 47.21875 41.21875 52.203125 
Q 41.21875 57.421875 37.46875 61 
Q 33.734375 64.59375 27.734375 64.59375 
Q 21.390625 64.59375 17.578125 60.78125 
Q 13.765625 56.984375 13.71875 50.25 
L 4.6875 51.171875 
Q 5.609375 61.28125 11.65625 66.578125 
Q 17.71875 71.875 27.9375 71.875 
Q 38.234375 71.875 44.234375 66.15625 
Q 50.25 60.453125 50.25 52 
Q 50.25 47.703125 48.484375 43.546875 
Q 46.734375 39.40625 42.65625 34.8125 
Q 38.578125 30.21875 29.109375 22.21875 
Q 21.1875 15.578125 18.9375 13.203125 
Q 16.703125 10.84375 15.234375 8.453125 
z
" id="ArialMT-50"/>
      <path d="M 49.75 54.046875 
L 41.015625 53.375 
Q 39.84375 58.546875 37.703125 60.890625 
Q 34.125 64.65625 28.90625 64.65625 
Q 24.703125 64.65625 21.53125 62.3125 
Q 17.390625 59.28125 14.984375 53.46875 
Q 12.59375 47.65625 12.5 36.921875 
Q 15.671875 41.75 20.265625 44.09375 
Q 24.859375 46.4375 29.890625 46.4375 
Q 38.671875 46.4375 44.84375 39.96875 
Q 51.03125 33.5 51.03125 23.25 
Q 51.03125 16.5 48.125 10.71875 
Q 45.21875 4.9375 40.140625 1.859375 
Q 35.0625 -1.21875 28.609375 -1.21875 
Q 17.625 -1.21875 10.6875 6.859375 
Q 3.765625 14.9375 3.765625 33.5 
Q 3.765625 54.25 11.421875 63.671875 
Q 18.109375 71.875 29.4375 71.875 
Q 37.890625 71.875 43.28125 67.140625 
Q 48.6875 62.40625 49.75 54.046875 
z
M 13.875 23.1875 
Q 13.875 18.65625 15.796875 14.5 
Q 17.71875 10.359375 21.1875 8.171875 
Q 24.65625 6 28.46875 6 
Q 34.03125 6 38.03125 10.484375 
Q 42.046875 14.984375 42.046875 22.703125 
Q 42.046875 30.125 38.078125 34.390625 
Q 34.125 38.671875 28.125 38.671875 
Q 22.171875 38.671875 18.015625 34.390625 
Q 13.875 30.125 13.875 23.1875 
z
" id="ArialMT-54"/>
     </defs>
     <use xlink:href="#ArialMT-50"/>
     <use x="55.615234" xlink:href="#ArialMT-54"/>
     <use x="111.230469" xlink:href="#ArialMT-37"/>
    </g>
   </g>
   <g id="text_5">
    <!-- Has Pattern -->
    <g style="fill:#262626;" transform="translate(102.028823 19.44)scale(0.12 -0.12)">
     <defs>
      <path d="M 8.015625 0 
L 8.015625 71.578125 
L 17.484375 71.578125 
L 17.484375 42.1875 
L 54.6875 42.1875 
L 54.6875 71.578125 
L 64.15625 71.578125 
L 64.15625 0 
L 54.6875 0 
L 54.6875 33.734375 
L 17.484375 33.734375 
L 17.484375 0 
z
" id="ArialMT-72"/>
      <path d="M 40.4375 6.390625 
Q 35.546875 2.25 31.03125 0.53125 
Q 26.515625 -1.171875 21.34375 -1.171875 
Q 12.796875 -1.171875 8.203125 3 
Q 3.609375 7.171875 3.609375 13.671875 
Q 3.609375 17.484375 5.34375 20.625 
Q 7.078125 23.78125 9.890625 25.6875 
Q 12.703125 27.59375 16.21875 28.5625 
Q 18.796875 29.25 24.03125 29.890625 
Q 34.671875 31.15625 39.703125 32.90625 
Q 39.75 34.71875 39.75 35.203125 
Q 39.75 40.578125 37.25 42.78125 
Q 33.890625 45.75 27.25 45.75 
Q 21.046875 45.75 18.09375 43.578125 
Q 15.140625 41.40625 13.71875 35.890625 
L 5.125 37.0625 
Q 6.296875 42.578125 8.984375 45.96875 
Q 11.671875 49.359375 16.75 51.1875 
Q 21.828125 53.03125 28.515625 53.03125 
Q 35.15625 53.03125 39.296875 51.46875 
Q 43.453125 49.90625 45.40625 47.53125 
Q 47.359375 45.171875 48.140625 41.546875 
Q 48.578125 39.3125 48.578125 33.453125 
L 48.578125 21.734375 
Q 48.578125 9.46875 49.140625 6.21875 
Q 49.703125 2.984375 51.375 0 
L 42.1875 0 
Q 40.828125 2.734375 40.4375 6.390625 
z
M 39.703125 26.03125 
Q 34.90625 24.078125 25.34375 22.703125 
Q 19.921875 21.921875 17.671875 20.9375 
Q 15.4375 19.96875 14.203125 18.09375 
Q 12.984375 16.21875 12.984375 13.921875 
Q 12.984375 10.40625 15.640625 8.0625 
Q 18.3125 5.71875 23.4375 5.71875 
Q 28.515625 5.71875 32.46875 7.9375 
Q 36.421875 10.15625 38.28125 14.015625 
Q 39.703125 17 39.703125 22.796875 
z
" id="ArialMT-97"/>
      <path id="ArialMT-32"/>
      <path d="M 7.71875 0 
L 7.71875 71.578125 
L 34.71875 71.578125 
Q 41.84375 71.578125 45.609375 70.90625 
Q 50.875 70.015625 54.4375 67.546875 
Q 58.015625 65.09375 60.1875 60.640625 
Q 62.359375 56.203125 62.359375 50.875 
Q 62.359375 41.75 56.546875 35.421875 
Q 50.734375 29.109375 35.546875 29.109375 
L 17.1875 29.109375 
L 17.1875 0 
z
M 17.1875 37.546875 
L 35.6875 37.546875 
Q 44.875 37.546875 48.734375 40.96875 
Q 52.59375 44.390625 52.59375 50.59375 
Q 52.59375 55.078125 50.3125 58.265625 
Q 48.046875 61.46875 44.34375 62.5 
Q 41.9375 63.140625 35.5 63.140625 
L 17.1875 63.140625 
z
" id="ArialMT-80"/>
      <path d="M 25.78125 7.859375 
L 27.046875 0.09375 
Q 23.34375 -0.6875 20.40625 -0.6875 
Q 15.625 -0.6875 12.984375 0.828125 
Q 10.359375 2.34375 9.28125 4.8125 
Q 8.203125 7.28125 8.203125 15.1875 
L 8.203125 45.015625 
L 1.765625 45.015625 
L 1.765625 51.859375 
L 8.203125 51.859375 
L 8.203125 64.703125 
L 16.9375 69.96875 
L 16.9375 51.859375 
L 25.78125 51.859375 
L 25.78125 45.015625 
L 16.9375 45.015625 
L 16.9375 14.703125 
Q 16.9375 10.9375 17.40625 9.859375 
Q 17.875 8.796875 18.921875 8.15625 
Q 19.96875 7.515625 21.921875 7.515625 
Q 23.390625 7.515625 25.78125 7.859375 
z
" id="ArialMT-116"/>
      <path d="M 6.5 0 
L 6.5 51.859375 
L 14.40625 51.859375 
L 14.40625 44 
Q 17.4375 49.515625 20 51.265625 
Q 22.5625 53.03125 25.640625 53.03125 
Q 30.078125 53.03125 34.671875 50.203125 
L 31.640625 42.046875 
Q 28.421875 43.953125 25.203125 43.953125 
Q 22.3125 43.953125 20.015625 42.21875 
Q 17.71875 40.484375 16.75 37.40625 
Q 15.28125 32.71875 15.28125 27.15625 
L 15.28125 0 
z
" id="ArialMT-114"/>
      <path d="M 6.59375 0 
L 6.59375 51.859375 
L 14.5 51.859375 
L 14.5 44.484375 
Q 20.21875 53.03125 31 53.03125 
Q 35.6875 53.03125 39.625 51.34375 
Q 43.5625 49.65625 45.515625 46.921875 
Q 47.46875 44.1875 48.25 40.4375 
Q 48.734375 37.984375 48.734375 31.890625 
L 48.734375 0 
L 39.9375 0 
L 39.9375 31.546875 
Q 39.9375 36.921875 38.90625 39.578125 
Q 37.890625 42.234375 35.28125 43.8125 
Q 32.671875 45.40625 29.15625 45.40625 
Q 23.53125 45.40625 19.453125 41.84375 
Q 15.375 38.28125 15.375 28.328125 
L 15.375 0 
z
" id="ArialMT-110"/>
     </defs>
     <use xlink:href="#ArialMT-72"/>
     <use x="72.216797" xlink:href="#ArialMT-97"/>
     <use x="127.832031" xlink:href="#ArialMT-115"/>
     <use x="177.832031" xlink:href="#ArialMT-32"/>
     <use x="205.615234" xlink:href="#ArialMT-80"/>
     <use x="272.314453" xlink:href="#ArialMT-97"/>
     <use x="327.929688" xlink:href="#ArialMT-116"/>
     <use x="355.712891" xlink:href="#ArialMT-116"/>
     <use x="383.496094" xlink:href="#ArialMT-101"/>
     <use x="439.111328" xlink:href="#ArialMT-114"/>
     <use x="472.412109" xlink:href="#ArialMT-110"/>
    </g>
   </g>
  </g>
  <g id="axes_2">
   <g id="matplotlib.axis_3"/>
   <g id="matplotlib.axis_4"/>
   <g id="patch_4">
    <path d="M 358.058722 48.028954 
C 353.902909 40.830875 347.280265 35.373623 339.420478 32.670498 
C 331.560691 29.967373 322.982323 30.196718 315.278198 33.315948 
L 328.212023 65.260954 
L 358.058722 48.028954 
z
" style="fill:#1f77b4;stroke:#ffffff;stroke-linejoin:miter;"/>
   </g>
   <g id="patch_5">
    <path d="M 314.157352 36.574993 
C 310.92255 37.884693 307.905366 39.678169 305.209173 41.893976 
C 302.512979 44.109782 300.168923 46.722321 298.257316 49.642084 
C 296.345708 52.561846 294.888632 55.755103 293.936008 59.112448 
C 292.983384 62.469793 292.546218 65.952442 292.639488 69.441074 
C 292.732757 72.929707 293.355385 76.384022 294.486038 79.68567 
C 295.616692 82.987318 297.242309 86.098158 299.307196 88.911608 
C 301.372083 91.725058 303.852384 94.208617 306.663121 96.277194 
C 309.473859 98.345771 312.582562 99.975471 315.882724 101.110457 
C 319.182885 102.245442 322.63638 102.872603 326.124887 102.970451 
C 329.613394 103.068299 333.096614 102.635704 336.455206 101.687488 
C 339.813799 100.739271 343.008965 99.286387 345.931234 97.378613 
C 348.853503 95.470839 351.469116 93.130215 353.688459 90.436932 
C 355.907802 87.743649 357.705237 84.728821 359.019181 81.495741 
C 360.333126 78.262661 361.1484 74.848677 361.437072 71.370757 
C 361.725744 67.892837 361.484479 64.391159 360.721544 60.985695 
C 359.958608 57.580231 358.682815 54.310321 356.937875 51.287997 
L 327.091177 68.52 
L 314.157352 36.574993 
z
" style="fill:#ff7f0e;stroke:#ffffff;stroke-linejoin:miter;"/>
   </g>
   <g id="text_6">
    <!-- Yes -->
    <g style="fill:#262626;" transform="translate(340.541324 31.996609)scale(0.1 -0.1)">
     <use xlink:href="#ArialMT-89"/>
     <use x="57.574219" xlink:href="#ArialMT-101"/>
     <use x="113.189453" xlink:href="#ArialMT-115"/>
    </g>
   </g>
   <g id="text_7">
    <!-- 23% -->
    <g style="fill:#262626;" transform="translate(324.930065 48.291837)scale(0.1 -0.1)">
     <defs>
      <path d="M 4.203125 18.890625 
L 12.984375 20.0625 
Q 14.5 12.59375 18.140625 9.296875 
Q 21.78125 6 27 6 
Q 33.203125 6 37.46875 10.296875 
Q 41.75 14.59375 41.75 20.953125 
Q 41.75 27 37.796875 30.921875 
Q 33.84375 34.859375 27.734375 34.859375 
Q 25.25 34.859375 21.53125 33.890625 
L 22.515625 41.609375 
Q 23.390625 41.5 23.921875 41.5 
Q 29.546875 41.5 34.03125 44.421875 
Q 38.53125 47.359375 38.53125 53.46875 
Q 38.53125 58.296875 35.25 61.46875 
Q 31.984375 64.65625 26.8125 64.65625 
Q 21.6875 64.65625 18.265625 61.421875 
Q 14.84375 58.203125 13.875 51.765625 
L 5.078125 53.328125 
Q 6.6875 62.15625 12.390625 67.015625 
Q 18.109375 71.875 26.609375 71.875 
Q 32.46875 71.875 37.390625 69.359375 
Q 42.328125 66.84375 44.9375 62.5 
Q 47.5625 58.15625 47.5625 53.265625 
Q 47.5625 48.640625 45.0625 44.828125 
Q 42.578125 41.015625 37.703125 38.765625 
Q 44.046875 37.3125 47.5625 32.6875 
Q 51.078125 28.078125 51.078125 21.140625 
Q 51.078125 11.765625 44.234375 5.25 
Q 37.40625 -1.265625 26.953125 -1.265625 
Q 17.53125 -1.265625 11.296875 4.34375 
Q 5.078125 9.96875 4.203125 18.890625 
z
" id="ArialMT-51"/>
     </defs>
     <use xlink:href="#ArialMT-50"/>
     <use x="55.615234" xlink:href="#ArialMT-51"/>
     <use x="111.230469" xlink:href="#ArialMT-37"/>
    </g>
   </g>
   <g id="text_8">
    <!-- No -->
    <g style="fill:#262626;" transform="translate(301.979066 106.954658)scale(0.1 -0.1)">
     <use xlink:href="#ArialMT-78"/>
     <use x="72.216797" xlink:href="#ArialMT-111"/>
    </g>
   </g>
   <g id="text_9">
    <!-- 77% -->
    <g style="fill:#262626;" transform="translate(310.359074 90.65943)scale(0.1 -0.1)">
     <use xlink:href="#ArialMT-55"/>
     <use x="55.615234" xlink:href="#ArialMT-55"/>
     <use x="111.230469" xlink:href="#ArialMT-37"/>
    </g>
   </g>
   <g id="text_10">
    <!-- Has Version -->
    <g style="fill:#262626;" transform="translate(294.741802 19.44)scale(0.12 -0.12)">
     <defs>
      <path d="M 28.171875 0 
L 0.4375 71.578125 
L 10.6875 71.578125 
L 29.296875 19.578125 
Q 31.546875 13.328125 33.0625 7.859375 
Q 34.71875 13.71875 36.921875 19.578125 
L 56.25 71.578125 
L 65.921875 71.578125 
L 37.890625 0 
z
" id="ArialMT-86"/>
      <path d="M 6.640625 61.46875 
L 6.640625 71.578125 
L 15.4375 71.578125 
L 15.4375 61.46875 
z
M 6.640625 0 
L 6.640625 51.859375 
L 15.4375 51.859375 
L 15.4375 0 
z
" id="ArialMT-105"/>
     </defs>
     <use xlink:href="#ArialMT-72"/>
     <use x="72.216797" xlink:href="#ArialMT-97"/>
     <use x="127.832031" xlink:href="#ArialMT-115"/>
     <use x="177.832031" xlink:href="#ArialMT-32"/>
     <use x="205.615234" xlink:href="#ArialMT-86"/>
     <use x="266.814453" xlink:href="#ArialMT-101"/>
     <use x="322.429688" xlink:href="#ArialMT-114"/>
     <use x="355.730469" xlink:href="#ArialMT-115"/>
     <use x="405.730469" xlink:href="#ArialMT-105"/>
     <use x="427.947266" xlink:href="#ArialMT-111"/>
     <use x="483.5625" xlink:href="#ArialMT-110"/>
    </g>
   </g>
  </g>
  <g id="axes_3">
   <g id="matplotlib.axis_5"/>
   <g id="matplotlib.axis_6"/>
   <g id="patch_6">
    <path d="M 166.311861 160.81912 
C 165.620766 159.622108 164.858287 158.467754 164.028556 157.362315 
C 163.198824 156.256876 162.303343 155.202352 161.346964 154.204459 
L 136.465162 178.05112 
L 166.311861 160.81912 
z
" style="fill:#1f77b4;stroke:#ffffff;stroke-linejoin:miter;"/>
   </g>
   <g id="patch_7">
    <path d="M 158.590625 156.27334 
C 155.579724 153.13174 152.000891 150.588615 148.043707 148.778679 
C 144.086523 146.968743 139.822117 145.924531 135.476388 145.701357 
C 131.130658 145.478182 126.781718 146.080057 122.659943 147.475099 
C 118.538167 148.870141 114.717645 151.033274 111.400759 153.84991 
C 108.083874 156.666547 105.330245 160.086059 103.28574 163.927305 
C 101.241236 167.768552 99.942605 171.962487 99.45864 176.286946 
C 98.974675 180.611406 99.314075 184.988659 100.458862 189.186829 
C 101.603648 193.385 103.533243 197.328627 106.145431 200.808807 
C 108.757619 204.288986 112.005446 207.243162 115.716866 209.514843 
C 119.428286 211.786524 123.536586 213.334877 127.82414 214.077883 
C 132.111693 214.820888 136.501432 214.74519 140.760819 213.854799 
C 145.020205 212.964407 149.072679 211.275327 152.703568 208.877033 
C 156.334458 206.478739 159.478499 203.41434 161.969142 199.846166 
C 164.459786 196.277992 166.252264 192.27018 167.251624 188.035035 
C 168.250984 183.79989 168.439261 179.413538 167.806484 175.108336 
C 167.173707 170.803133 165.731248 166.656467 163.555519 162.887995 
L 133.708823 180.12 
L 158.590625 156.27334 
z
" style="fill:#ff7f0e;stroke:#ffffff;stroke-linejoin:miter;"/>
   </g>
   <g id="text_11">
    <!-- Yes -->
    <g style="fill:#262626;" transform="translate(166.784895 157.878591)scale(0.1 -0.1)">
     <use xlink:href="#ArialMT-89"/>
     <use x="57.574219" xlink:href="#ArialMT-101"/>
     <use x="113.189453" xlink:href="#ArialMT-115"/>
    </g>
   </g>
   <g id="text_12">
    <!-- 4% -->
    <g style="fill:#262626;" transform="translate(145.776636 168.222993)scale(0.1 -0.1)">
     <use xlink:href="#ArialMT-52"/>
     <use x="55.615234" xlink:href="#ArialMT-37"/>
    </g>
   </g>
   <g id="text_13">
    <!-- No -->
    <g style="fill:#262626;" transform="translate(90.606279 205.462844)scale(0.1 -0.1)">
     <use xlink:href="#ArialMT-78"/>
     <use x="72.216797" xlink:href="#ArialMT-111"/>
    </g>
   </g>
   <g id="text_14">
    <!-- 96% -->
    <g style="fill:#262626;" transform="translate(107.163756 195.11844)scale(0.1 -0.1)">
     <defs>
      <path d="M 5.46875 16.546875 
L 13.921875 17.328125 
Q 14.984375 11.375 18.015625 8.6875 
Q 21.046875 6 25.78125 6 
Q 29.828125 6 32.875 7.859375 
Q 35.9375 9.71875 37.890625 12.8125 
Q 39.84375 15.921875 41.15625 21.1875 
Q 42.484375 26.46875 42.484375 31.9375 
Q 42.484375 32.515625 42.4375 33.6875 
Q 39.796875 29.5 35.234375 26.875 
Q 30.671875 24.265625 25.34375 24.265625 
Q 16.453125 24.265625 10.296875 30.703125 
Q 4.15625 37.15625 4.15625 47.703125 
Q 4.15625 58.59375 10.578125 65.234375 
Q 17 71.875 26.65625 71.875 
Q 33.640625 71.875 39.421875 68.109375 
Q 45.21875 64.359375 48.21875 57.390625 
Q 51.21875 50.4375 51.21875 37.25 
Q 51.21875 23.53125 48.234375 15.40625 
Q 45.265625 7.28125 39.375 3.03125 
Q 33.5 -1.21875 25.59375 -1.21875 
Q 17.1875 -1.21875 11.859375 3.4375 
Q 6.546875 8.109375 5.46875 16.546875 
z
M 41.453125 48.140625 
Q 41.453125 55.71875 37.421875 60.15625 
Q 33.40625 64.59375 27.734375 64.59375 
Q 21.875 64.59375 17.53125 59.8125 
Q 13.1875 55.03125 13.1875 47.40625 
Q 13.1875 40.578125 17.3125 36.296875 
Q 21.4375 32.03125 27.484375 32.03125 
Q 33.59375 32.03125 37.515625 36.296875 
Q 41.453125 40.578125 41.453125 48.140625 
z
" id="ArialMT-57"/>
     </defs>
     <use xlink:href="#ArialMT-57"/>
     <use x="55.615234" xlink:href="#ArialMT-54"/>
     <use x="111.230469" xlink:href="#ArialMT-37"/>
    </g>
   </g>
   <g id="text_15">
    <!-- Has Wikidata Database -->
    <g style="fill:#262626;" transform="translate(71.016323 131.04)scale(0.12 -0.12)">
     <defs>
      <path d="M 20.21875 0 
L 1.21875 71.578125 
L 10.9375 71.578125 
L 21.828125 24.65625 
Q 23.578125 17.28125 24.859375 10.015625 
Q 27.59375 21.484375 28.078125 23.25 
L 41.703125 71.578125 
L 53.125 71.578125 
L 63.375 35.359375 
Q 67.234375 21.875 68.953125 10.015625 
Q 70.3125 16.796875 72.515625 25.59375 
L 83.734375 71.578125 
L 93.265625 71.578125 
L 73.640625 0 
L 64.5 0 
L 49.421875 54.546875 
Q 47.515625 61.375 47.171875 62.9375 
Q 46.046875 58.015625 45.0625 54.546875 
L 29.890625 0 
z
" id="ArialMT-87"/>
      <path d="M 6.640625 0 
L 6.640625 71.578125 
L 15.4375 71.578125 
L 15.4375 30.765625 
L 36.234375 51.859375 
L 47.609375 51.859375 
L 27.78125 32.625 
L 49.609375 0 
L 38.765625 0 
L 21.625 26.515625 
L 15.4375 20.5625 
L 15.4375 0 
z
" id="ArialMT-107"/>
      <path d="M 40.234375 0 
L 40.234375 6.546875 
Q 35.296875 -1.171875 25.734375 -1.171875 
Q 19.53125 -1.171875 14.328125 2.25 
Q 9.125 5.671875 6.265625 11.796875 
Q 3.421875 17.921875 3.421875 25.875 
Q 3.421875 33.640625 6 39.96875 
Q 8.59375 46.296875 13.765625 49.65625 
Q 18.953125 53.03125 25.34375 53.03125 
Q 30.03125 53.03125 33.6875 51.046875 
Q 37.359375 49.078125 39.65625 45.90625 
L 39.65625 71.578125 
L 48.390625 71.578125 
L 48.390625 0 
z
M 12.453125 25.875 
Q 12.453125 15.921875 16.640625 10.984375 
Q 20.84375 6.0625 26.5625 6.0625 
Q 32.328125 6.0625 36.34375 10.765625 
Q 40.375 15.484375 40.375 25.140625 
Q 40.375 35.796875 36.265625 40.765625 
Q 32.171875 45.75 26.171875 45.75 
Q 20.3125 45.75 16.375 40.96875 
Q 12.453125 36.1875 12.453125 25.875 
z
" id="ArialMT-100"/>
      <path d="M 7.71875 0 
L 7.71875 71.578125 
L 32.375 71.578125 
Q 40.71875 71.578125 45.125 70.5625 
Q 51.265625 69.140625 55.609375 65.4375 
Q 61.28125 60.640625 64.078125 53.1875 
Q 66.890625 45.75 66.890625 36.1875 
Q 66.890625 28.03125 64.984375 21.734375 
Q 63.09375 15.4375 60.109375 11.296875 
Q 57.125 7.171875 53.578125 4.796875 
Q 50.046875 2.4375 45.046875 1.21875 
Q 40.046875 0 33.546875 0 
z
M 17.1875 8.453125 
L 32.46875 8.453125 
Q 39.546875 8.453125 43.578125 9.765625 
Q 47.609375 11.078125 50 13.484375 
Q 53.375 16.84375 55.25 22.53125 
Q 57.125 28.21875 57.125 36.328125 
Q 57.125 47.5625 53.4375 53.59375 
Q 49.75 59.625 44.484375 61.671875 
Q 40.671875 63.140625 32.234375 63.140625 
L 17.1875 63.140625 
z
" id="ArialMT-68"/>
      <path d="M 14.703125 0 
L 6.546875 0 
L 6.546875 71.578125 
L 15.328125 71.578125 
L 15.328125 46.046875 
Q 20.90625 53.03125 29.546875 53.03125 
Q 34.328125 53.03125 38.59375 51.09375 
Q 42.875 49.171875 45.625 45.671875 
Q 48.390625 42.1875 49.953125 37.25 
Q 51.515625 32.328125 51.515625 26.703125 
Q 51.515625 13.375 44.921875 6.09375 
Q 38.328125 -1.171875 29.109375 -1.171875 
Q 19.921875 -1.171875 14.703125 6.5 
z
M 14.59375 26.3125 
Q 14.59375 17 17.140625 12.84375 
Q 21.296875 6.0625 28.375 6.0625 
Q 34.125 6.0625 38.328125 11.0625 
Q 42.53125 16.0625 42.53125 25.984375 
Q 42.53125 36.140625 38.5 40.96875 
Q 34.46875 45.796875 28.765625 45.796875 
Q 23 45.796875 18.796875 40.796875 
Q 14.59375 35.796875 14.59375 26.3125 
z
" id="ArialMT-98"/>
     </defs>
     <use xlink:href="#ArialMT-72"/>
     <use x="72.216797" xlink:href="#ArialMT-97"/>
     <use x="127.832031" xlink:href="#ArialMT-115"/>
     <use x="177.832031" xlink:href="#ArialMT-32"/>
     <use x="205.615234" xlink:href="#ArialMT-87"/>
     <use x="300" xlink:href="#ArialMT-105"/>
     <use x="322.216797" xlink:href="#ArialMT-107"/>
     <use x="372.216797" xlink:href="#ArialMT-105"/>
     <use x="394.433594" xlink:href="#ArialMT-100"/>
     <use x="450.048828" xlink:href="#ArialMT-97"/>
     <use x="505.664062" xlink:href="#ArialMT-116"/>
     <use x="533.447266" xlink:href="#ArialMT-97"/>
     <use x="589.0625" xlink:href="#ArialMT-32"/>
     <use x="616.845703" xlink:href="#ArialMT-68"/>
     <use x="689.0625" xlink:href="#ArialMT-97"/>
     <use x="744.677734" xlink:href="#ArialMT-116"/>
     <use x="772.460938" xlink:href="#ArialMT-97"/>
     <use x="828.076172" xlink:href="#ArialMT-98"/>
     <use x="883.691406" xlink:href="#ArialMT-97"/>
     <use x="939.306641" xlink:href="#ArialMT-115"/>
     <use x="989.306641" xlink:href="#ArialMT-101"/>
    </g>
   </g>
  </g>
  <g id="axes_4">
   <g id="matplotlib.axis_7"/>
   <g id="matplotlib.axis_8"/>
   <g id="patch_8">
    <path d="M 353.592686 163.717077 
C 351.533073 160.149724 348.850476 156.98035 345.67244 154.359644 
C 342.494403 151.738939 338.872106 149.709106 334.977772 148.366654 
C 331.083438 147.024203 326.979781 146.390751 322.861912 146.496418 
C 318.744043 146.602085 314.678275 147.445168 310.857917 148.985583 
C 307.037559 150.525997 303.524134 152.738937 300.484689 155.519186 
C 297.445244 158.299436 294.928726 161.602222 293.054784 165.270512 
C 291.180842 168.938802 289.979654 172.913524 289.508331 177.005695 
C 289.037008 181.097866 289.30314 185.241589 290.294074 189.239846 
C 291.285007 193.238103 292.984785 197.026509 295.31259 200.424941 
C 297.640394 203.823372 300.558739 206.777102 303.928871 209.145694 
C 307.299002 211.514286 311.066647 213.259596 315.052672 214.298643 
C 319.038697 215.33769 323.178911 215.653741 327.276465 215.23177 
C 331.37402 214.809798 335.362928 213.656598 339.053536 211.827001 
C 342.744144 209.997404 346.077018 207.520872 348.893696 204.515154 
C 351.710373 201.509436 353.965494 198.022935 355.551838 194.221419 
C 357.138182 190.419903 358.030203 186.364591 358.185489 182.248294 
L 323.745986 180.949077 
L 353.592686 163.717077 
z
" style="fill:#1f77b4;stroke:#ffffff;stroke-linejoin:miter;"/>
   </g>
   <g id="patch_9">
    <path d="M 361.53068 181.419217 
C 361.652422 178.192092 361.319969 174.963814 360.54309 171.829231 
C 359.76621 168.694647 358.552587 165.68476 356.937877 162.888 
L 327.091177 180.12 
L 361.53068 181.419217 
z
" style="fill:#ff7f0e;stroke:#ffffff;stroke-linejoin:miter;"/>
   </g>
   <g id="text_16">
    <!-- Yes -->
    <g style="fill:#262626;" transform="translate(270.630132 192.654079)scale(0.1 -0.1)">
     <use xlink:href="#ArialMT-89"/>
     <use x="57.574219" xlink:href="#ArialMT-101"/>
     <use x="113.189453" xlink:href="#ArialMT-115"/>
    </g>
   </g>
   <g id="text_17">
    <!-- 91% -->
    <g style="fill:#262626;" transform="translate(293.667807 188.508695)scale(0.1 -0.1)">
     <defs>
      <path d="M 37.25 0 
L 28.46875 0 
L 28.46875 56 
Q 25.296875 52.984375 20.140625 49.953125 
Q 14.984375 46.921875 10.890625 45.40625 
L 10.890625 53.90625 
Q 18.265625 57.375 23.78125 62.296875 
Q 29.296875 67.234375 31.59375 71.875 
L 37.25 71.875 
z
" id="ArialMT-49"/>
     </defs>
     <use xlink:href="#ArialMT-57"/>
     <use x="55.615234" xlink:href="#ArialMT-49"/>
     <use x="111.230469" xlink:href="#ArialMT-37"/>
    </g>
   </g>
   <g id="text_18">
    <!-- No -->
    <g style="fill:#262626;" transform="translate(363.888281 173.58531)scale(0.1 -0.1)">
     <use xlink:href="#ArialMT-78"/>
     <use x="72.216797" xlink:href="#ArialMT-111"/>
    </g>
   </g>
   <g id="text_19">
    <!-- 9% -->
    <g style="fill:#262626;" transform="translate(339.935762 177.730695)scale(0.1 -0.1)">
     <use xlink:href="#ArialMT-57"/>
     <use x="55.615234" xlink:href="#ArialMT-37"/>
    </g>
   </g>
   <g id="text_20">
    <!-- Has Format URL -->
    <g style="fill:#262626;" transform="translate(282.084615 131.04)scale(0.12 -0.12)">
     <defs>
      <path d="M 8.203125 0 
L 8.203125 71.578125 
L 56.5 71.578125 
L 56.5 63.140625 
L 17.671875 63.140625 
L 17.671875 40.96875 
L 51.265625 40.96875 
L 51.265625 32.515625 
L 17.671875 32.515625 
L 17.671875 0 
z
" id="ArialMT-70"/>
      <path d="M 6.59375 0 
L 6.59375 51.859375 
L 14.453125 51.859375 
L 14.453125 44.578125 
Q 16.890625 48.390625 20.9375 50.703125 
Q 25 53.03125 30.171875 53.03125 
Q 35.9375 53.03125 39.625 50.640625 
Q 43.3125 48.25 44.828125 43.953125 
Q 50.984375 53.03125 60.84375 53.03125 
Q 68.5625 53.03125 72.703125 48.75 
Q 76.859375 44.484375 76.859375 35.59375 
L 76.859375 0 
L 68.109375 0 
L 68.109375 32.671875 
Q 68.109375 37.9375 67.25 40.25 
Q 66.40625 42.578125 64.15625 43.984375 
Q 61.921875 45.40625 58.890625 45.40625 
Q 53.421875 45.40625 49.796875 41.765625 
Q 46.1875 38.140625 46.1875 30.125 
L 46.1875 0 
L 37.40625 0 
L 37.40625 33.6875 
Q 37.40625 39.546875 35.25 42.46875 
Q 33.109375 45.40625 28.21875 45.40625 
Q 24.515625 45.40625 21.359375 43.453125 
Q 18.21875 41.5 16.796875 37.734375 
Q 15.375 33.984375 15.375 26.90625 
L 15.375 0 
z
" id="ArialMT-109"/>
      <path d="M 54.6875 71.578125 
L 64.15625 71.578125 
L 64.15625 30.21875 
Q 64.15625 19.4375 61.71875 13.078125 
Q 59.28125 6.734375 52.90625 2.75 
Q 46.53125 -1.21875 36.1875 -1.21875 
Q 26.125 -1.21875 19.71875 2.25 
Q 13.328125 5.71875 10.59375 12.28125 
Q 7.859375 18.84375 7.859375 30.21875 
L 7.859375 71.578125 
L 17.328125 71.578125 
L 17.328125 30.28125 
Q 17.328125 20.953125 19.0625 16.53125 
Q 20.796875 12.109375 25.015625 9.71875 
Q 29.25 7.328125 35.359375 7.328125 
Q 45.796875 7.328125 50.234375 12.0625 
Q 54.6875 16.796875 54.6875 30.28125 
z
" id="ArialMT-85"/>
      <path d="M 7.859375 0 
L 7.859375 71.578125 
L 39.59375 71.578125 
Q 49.171875 71.578125 54.140625 69.640625 
Q 59.125 67.71875 62.109375 62.828125 
Q 65.09375 57.953125 65.09375 52.046875 
Q 65.09375 44.4375 60.15625 39.203125 
Q 55.21875 33.984375 44.921875 32.5625 
Q 48.6875 30.765625 50.640625 29 
Q 54.78125 25.203125 58.5 19.484375 
L 70.953125 0 
L 59.03125 0 
L 49.5625 14.890625 
Q 45.40625 21.34375 42.71875 24.75 
Q 40.046875 28.171875 37.921875 29.53125 
Q 35.796875 30.90625 33.59375 31.453125 
Q 31.984375 31.78125 28.328125 31.78125 
L 17.328125 31.78125 
L 17.328125 0 
z
M 17.328125 39.984375 
L 37.703125 39.984375 
Q 44.1875 39.984375 47.84375 41.328125 
Q 51.515625 42.671875 53.421875 45.625 
Q 55.328125 48.578125 55.328125 52.046875 
Q 55.328125 57.125 51.640625 60.390625 
Q 47.953125 63.671875 39.984375 63.671875 
L 17.328125 63.671875 
z
" id="ArialMT-82"/>
      <path d="M 7.328125 0 
L 7.328125 71.578125 
L 16.796875 71.578125 
L 16.796875 8.453125 
L 52.046875 8.453125 
L 52.046875 0 
z
" id="ArialMT-76"/>
     </defs>
     <use xlink:href="#ArialMT-72"/>
     <use x="72.216797" xlink:href="#ArialMT-97"/>
     <use x="127.832031" xlink:href="#ArialMT-115"/>
     <use x="177.832031" xlink:href="#ArialMT-32"/>
     <use x="205.615234" xlink:href="#ArialMT-70"/>
     <use x="266.699219" xlink:href="#ArialMT-111"/>
     <use x="322.314453" xlink:href="#ArialMT-114"/>
     <use x="355.615234" xlink:href="#ArialMT-109"/>
     <use x="438.916016" xlink:href="#ArialMT-97"/>
     <use x="494.53125" xlink:href="#ArialMT-116"/>
     <use x="522.314453" xlink:href="#ArialMT-32"/>
     <use x="550.097656" xlink:href="#ArialMT-85"/>
     <use x="622.314453" xlink:href="#ArialMT-82"/>
     <use x="694.53125" xlink:href="#ArialMT-76"/>
    </g>
   </g>
  </g>
  <g id="axes_5">
   <g id="matplotlib.axis_9"/>
   <g id="matplotlib.axis_10"/>
   <g id="patch_10">
    <path d="M 160.114868 274.289069 
C 158.272702 271.098344 155.930746 268.223565 153.178328 265.774382 
C 150.425909 263.325199 147.298473 261.333152 143.915305 259.874222 
C 140.532137 258.415291 136.936805 257.508265 133.266442 257.187738 
C 129.596078 256.867211 125.89795 257.137312 122.313109 257.987738 
C 118.728269 258.838164 115.302882 260.257964 112.167598 262.192983 
C 109.032314 264.128003 106.22751 266.553324 103.860165 269.37644 
C 101.49282 272.199555 99.593421 275.384111 98.234414 278.808641 
C 96.875407 282.23317 96.074293 285.853575 95.861629 289.531764 
C 95.648965 293.209954 96.027489 296.898562 96.982762 300.456898 
C 97.938036 304.015234 99.457759 307.397475 101.483965 310.474616 
C 103.510171 313.551756 106.016767 316.28417 108.908148 318.567637 
C 111.799529 320.851104 115.038459 322.656219 118.5014 323.914131 
C 121.964341 325.172043 125.606698 325.866554 129.289545 325.971172 
C 132.972392 326.075791 136.648301 325.589171 140.177067 324.529872 
C 143.705833 323.470573 147.042014 321.852237 150.05836 319.736591 
C 153.074706 317.620944 155.732374 315.035232 157.929997 312.078077 
L 130.268169 291.521069 
L 160.114868 274.289069 
z
" style="fill:#1f77b4;stroke:#ffffff;stroke-linejoin:miter;"/>
   </g>
   <g id="patch_11">
    <path d="M 161.370651 312.277008 
C 165.382103 306.879135 167.727173 300.423327 168.115362 293.709305 
C 168.503551 286.995283 166.918139 280.312224 163.555522 274.488 
L 133.708823 291.72 
L 161.370651 312.277008 
z
" style="fill:#ff7f0e;stroke:#ffffff;stroke-linejoin:miter;"/>
   </g>
   <g id="text_21">
    <!-- Yes -->
    <g style="fill:#262626;" transform="translate(76.102225 291.91799)scale(0.1 -0.1)">
     <use xlink:href="#ArialMT-89"/>
     <use x="57.574219" xlink:href="#ArialMT-101"/>
     <use x="113.189453" xlink:href="#ArialMT-115"/>
    </g>
   </g>
   <g id="text_22">
    <!-- 81% -->
    <g style="fill:#262626;" transform="translate(99.617214 292.912643)scale(0.1 -0.1)">
     <defs>
      <path d="M 17.671875 38.8125 
Q 12.203125 40.828125 9.5625 44.53125 
Q 6.9375 48.25 6.9375 53.421875 
Q 6.9375 61.234375 12.546875 66.546875 
Q 18.171875 71.875 27.484375 71.875 
Q 36.859375 71.875 42.578125 66.421875 
Q 48.296875 60.984375 48.296875 53.171875 
Q 48.296875 48.1875 45.671875 44.5 
Q 43.0625 40.828125 37.75 38.8125 
Q 44.34375 36.671875 47.78125 31.875 
Q 51.21875 27.09375 51.21875 20.453125 
Q 51.21875 11.28125 44.71875 5.03125 
Q 38.234375 -1.21875 27.640625 -1.21875 
Q 17.046875 -1.21875 10.546875 5.046875 
Q 4.046875 11.328125 4.046875 20.703125 
Q 4.046875 27.6875 7.59375 32.390625 
Q 11.140625 37.109375 17.671875 38.8125 
z
M 15.921875 53.71875 
Q 15.921875 48.640625 19.1875 45.40625 
Q 22.46875 42.1875 27.6875 42.1875 
Q 32.765625 42.1875 36.015625 45.375 
Q 39.265625 48.578125 39.265625 53.21875 
Q 39.265625 58.0625 35.90625 61.359375 
Q 32.5625 64.65625 27.59375 64.65625 
Q 22.5625 64.65625 19.234375 61.421875 
Q 15.921875 58.203125 15.921875 53.71875 
z
M 13.09375 20.65625 
Q 13.09375 16.890625 14.875 13.375 
Q 16.65625 9.859375 20.171875 7.921875 
Q 23.6875 6 27.734375 6 
Q 34.03125 6 38.125 10.046875 
Q 42.234375 14.109375 42.234375 20.359375 
Q 42.234375 26.703125 38.015625 30.859375 
Q 33.796875 35.015625 27.4375 35.015625 
Q 21.234375 35.015625 17.15625 30.90625 
Q 13.09375 26.8125 13.09375 20.65625 
z
" id="ArialMT-56"/>
     </defs>
     <use xlink:href="#ArialMT-56"/>
     <use x="55.615234" xlink:href="#ArialMT-49"/>
     <use x="111.230469" xlink:href="#ArialMT-37"/>
    </g>
   </g>
   <g id="text_23">
    <!-- No -->
    <g style="fill:#262626;" transform="translate(171.556016 296.493392)scale(0.1 -0.1)">
     <use xlink:href="#ArialMT-78"/>
     <use x="72.216797" xlink:href="#ArialMT-111"/>
    </g>
   </g>
   <g id="text_24">
    <!-- 19% -->
    <g style="fill:#262626;" transform="translate(144.345715 295.498739)scale(0.1 -0.1)">
     <use xlink:href="#ArialMT-49"/>
     <use x="55.615234" xlink:href="#ArialMT-57"/>
     <use x="111.230469" xlink:href="#ArialMT-37"/>
    </g>
   </g>
   <g id="text_25">
    <!-- Has Example -->
    <g style="fill:#262626;" transform="translate(98.029448 242.64)scale(0.12 -0.12)">
     <defs>
      <path d="M 7.90625 0 
L 7.90625 71.578125 
L 59.671875 71.578125 
L 59.671875 63.140625 
L 17.390625 63.140625 
L 17.390625 41.21875 
L 56.984375 41.21875 
L 56.984375 32.8125 
L 17.390625 32.8125 
L 17.390625 8.453125 
L 61.328125 8.453125 
L 61.328125 0 
z
" id="ArialMT-69"/>
      <path d="M 0.734375 0 
L 19.671875 26.953125 
L 2.15625 51.859375 
L 13.140625 51.859375 
L 21.09375 39.703125 
Q 23.34375 36.234375 24.703125 33.890625 
Q 26.859375 37.109375 28.65625 39.59375 
L 37.40625 51.859375 
L 47.90625 51.859375 
L 29.984375 27.4375 
L 49.265625 0 
L 38.484375 0 
L 27.828125 16.109375 
L 25 20.453125 
L 11.375 0 
z
" id="ArialMT-120"/>
      <path d="M 6.59375 -19.875 
L 6.59375 51.859375 
L 14.59375 51.859375 
L 14.59375 45.125 
Q 17.4375 49.078125 21 51.046875 
Q 24.5625 53.03125 29.640625 53.03125 
Q 36.28125 53.03125 41.359375 49.609375 
Q 46.4375 46.1875 49.015625 39.953125 
Q 51.609375 33.734375 51.609375 26.3125 
Q 51.609375 18.359375 48.75 11.984375 
Q 45.90625 5.609375 40.453125 2.21875 
Q 35.015625 -1.171875 29 -1.171875 
Q 24.609375 -1.171875 21.109375 0.6875 
Q 17.625 2.546875 15.375 5.375 
L 15.375 -19.875 
z
M 14.546875 25.640625 
Q 14.546875 15.625 18.59375 10.84375 
Q 22.65625 6.0625 28.421875 6.0625 
Q 34.28125 6.0625 38.453125 11.015625 
Q 42.625 15.96875 42.625 26.375 
Q 42.625 36.28125 38.546875 41.203125 
Q 34.46875 46.140625 28.8125 46.140625 
Q 23.1875 46.140625 18.859375 40.890625 
Q 14.546875 35.640625 14.546875 25.640625 
z
" id="ArialMT-112"/>
      <path d="M 6.390625 0 
L 6.390625 71.578125 
L 15.1875 71.578125 
L 15.1875 0 
z
" id="ArialMT-108"/>
     </defs>
     <use xlink:href="#ArialMT-72"/>
     <use x="72.216797" xlink:href="#ArialMT-97"/>
     <use x="127.832031" xlink:href="#ArialMT-115"/>
     <use x="177.832031" xlink:href="#ArialMT-32"/>
     <use x="205.615234" xlink:href="#ArialMT-69"/>
     <use x="272.314453" xlink:href="#ArialMT-120"/>
     <use x="322.314453" xlink:href="#ArialMT-97"/>
     <use x="377.929688" xlink:href="#ArialMT-109"/>
     <use x="461.230469" xlink:href="#ArialMT-112"/>
     <use x="516.845703" xlink:href="#ArialMT-108"/>
     <use x="539.0625" xlink:href="#ArialMT-101"/>
    </g>
   </g>
  </g>
  <g id="axes_6">
   <g id="matplotlib.axis_11"/>
   <g id="matplotlib.axis_12"/>
   <g id="patch_12">
    <path d="M 357.993169 271.207142 
C 353.718494 263.803188 346.838084 258.248378 338.699388 255.630557 
C 330.560692 253.012736 321.732104 253.514729 313.942603 257.038226 
L 328.146469 288.439142 
L 357.993169 271.207142 
z
" style="fill:#1f77b4;stroke:#ffffff;stroke-linejoin:miter;"/>
   </g>
   <g id="patch_13">
    <path d="M 312.887311 260.319085 
C 309.733982 261.745459 306.813423 263.638725 304.224061 265.935076 
C 301.634699 268.231428 299.40595 270.904777 297.612926 273.865029 
C 295.819902 276.825281 294.482973 280.038805 293.647194 283.397302 
C 292.811416 286.755799 292.486284 290.221114 292.682755 293.676461 
C 292.879226 297.131809 293.595068 300.537934 294.806156 303.780046 
C 296.017245 307.022158 297.709821 310.063425 299.826843 312.801352 
C 301.943866 315.539279 304.461283 317.942761 307.294255 319.930799 
C 310.127228 321.918837 313.243571 323.468844 316.53826 324.528585 
C 319.83295 325.588325 323.268555 326.145759 326.729293 326.1821 
C 330.190031 326.218441 333.636584 325.733276 336.952801 324.742957 
C 340.269018 323.752637 343.417223 322.268413 346.291319 320.340305 
C 349.165415 318.412197 351.732749 316.062109 353.9068 313.369243 
C 356.08085 310.676376 357.836919 307.671324 359.115823 304.455358 
C 360.394728 301.239393 361.181939 297.849052 361.450928 294.398592 
C 361.719916 290.948132 361.467626 287.476755 360.702559 284.101447 
C 359.937492 280.726139 358.66834 277.485249 356.937875 274.487997 
L 327.091177 291.72 
L 312.887311 260.319085 
z
" style="fill:#ff7f0e;stroke:#ffffff;stroke-linejoin:miter;"/>
   </g>
   <g id="text_26">
    <!-- Yes -->
    <g style="fill:#262626;" transform="translate(339.75468 254.934855)scale(0.1 -0.1)">
     <use xlink:href="#ArialMT-89"/>
     <use x="57.574219" xlink:href="#ArialMT-101"/>
     <use x="113.189453" xlink:href="#ArialMT-115"/>
    </g>
   </g>
   <g id="text_27">
    <!-- 23% -->
    <g style="fill:#262626;" transform="translate(324.471189 271.339147)scale(0.1 -0.1)">
     <use xlink:href="#ArialMT-50"/>
     <use x="55.615234" xlink:href="#ArialMT-51"/>
     <use x="111.230469" xlink:href="#ArialMT-37"/>
    </g>
   </g>
   <g id="text_28">
    <!-- No -->
    <g style="fill:#262626;" transform="translate(302.700156 330.394599)scale(0.1 -0.1)">
     <use xlink:href="#ArialMT-78"/>
     <use x="72.216797" xlink:href="#ArialMT-111"/>
    </g>
   </g>
   <g id="text_29">
    <!-- 77% -->
    <g style="fill:#262626;" transform="translate(310.752396 313.990307)scale(0.1 -0.1)">
     <use xlink:href="#ArialMT-55"/>
     <use x="55.615234" xlink:href="#ArialMT-55"/>
     <use x="111.230469" xlink:href="#ArialMT-37"/>
    </g>
   </g>
   <g id="text_30">
    <!-- Has Contact Email -->
    <g style="fill:#262626;" transform="translate(277.408365 242.64)scale(0.12 -0.12)">
     <defs>
      <path d="M 58.796875 25.09375 
L 68.265625 22.703125 
Q 65.28125 11.03125 57.546875 4.90625 
Q 49.8125 -1.21875 38.625 -1.21875 
Q 27.046875 -1.21875 19.796875 3.484375 
Q 12.546875 8.203125 8.765625 17.140625 
Q 4.984375 26.078125 4.984375 36.328125 
Q 4.984375 47.515625 9.25 55.828125 
Q 13.53125 64.15625 21.40625 68.46875 
Q 29.296875 72.796875 38.765625 72.796875 
Q 49.515625 72.796875 56.828125 67.328125 
Q 64.15625 61.859375 67.046875 51.953125 
L 57.71875 49.75 
Q 55.21875 57.5625 50.484375 61.125 
Q 45.75 64.703125 38.578125 64.703125 
Q 30.328125 64.703125 24.78125 60.734375 
Q 19.234375 56.78125 16.984375 50.109375 
Q 14.75 43.453125 14.75 36.375 
Q 14.75 27.25 17.40625 20.4375 
Q 20.0625 13.625 25.671875 10.25 
Q 31.296875 6.890625 37.84375 6.890625 
Q 45.796875 6.890625 51.3125 11.46875 
Q 56.84375 16.0625 58.796875 25.09375 
z
" id="ArialMT-67"/>
      <path d="M 40.4375 19 
L 49.078125 17.875 
Q 47.65625 8.9375 41.8125 3.875 
Q 35.984375 -1.171875 27.484375 -1.171875 
Q 16.84375 -1.171875 10.375 5.78125 
Q 3.90625 12.75 3.90625 25.734375 
Q 3.90625 34.125 6.6875 40.421875 
Q 9.46875 46.734375 15.15625 49.875 
Q 20.84375 53.03125 27.546875 53.03125 
Q 35.984375 53.03125 41.359375 48.75 
Q 46.734375 44.484375 48.25 36.625 
L 39.703125 35.296875 
Q 38.484375 40.53125 35.375 43.15625 
Q 32.28125 45.796875 27.875 45.796875 
Q 21.234375 45.796875 17.078125 41.03125 
Q 12.9375 36.28125 12.9375 25.984375 
Q 12.9375 15.53125 16.9375 10.796875 
Q 20.953125 6.0625 27.390625 6.0625 
Q 32.5625 6.0625 36.03125 9.234375 
Q 39.5 12.40625 40.4375 19 
z
" id="ArialMT-99"/>
     </defs>
     <use xlink:href="#ArialMT-72"/>
     <use x="72.216797" xlink:href="#ArialMT-97"/>
     <use x="127.832031" xlink:href="#ArialMT-115"/>
     <use x="177.832031" xlink:href="#ArialMT-32"/>
     <use x="205.615234" xlink:href="#ArialMT-67"/>
     <use x="277.832031" xlink:href="#ArialMT-111"/>
     <use x="333.447266" xlink:href="#ArialMT-110"/>
     <use x="389.0625" xlink:href="#ArialMT-116"/>
     <use x="416.845703" xlink:href="#ArialMT-97"/>
     <use x="472.460938" xlink:href="#ArialMT-99"/>
     <use x="522.460938" xlink:href="#ArialMT-116"/>
     <use x="550.244141" xlink:href="#ArialMT-32"/>
     <use x="578.027344" xlink:href="#ArialMT-69"/>
     <use x="644.726562" xlink:href="#ArialMT-109"/>
     <use x="728.027344" xlink:href="#ArialMT-97"/>
     <use x="783.642578" xlink:href="#ArialMT-105"/>
     <use x="805.859375" xlink:href="#ArialMT-108"/>
    </g>
   </g>
  </g>
  <g id="text_31">
   <!-- https://github.com/cthoyt/bioregistry (2021-04-02) -->
   <g style="fill:#808080;opacity:0.5;" transform="translate(143.2525 343.91625)scale(0.08 -0.08)">
    <defs>
     <path d="M 6.59375 0 
L 6.59375 71.578125 
L 15.375 71.578125 
L 15.375 45.90625 
Q 21.53125 53.03125 30.90625 53.03125 
Q 36.671875 53.03125 40.921875 50.75 
Q 45.171875 48.484375 47 44.484375 
Q 48.828125 40.484375 48.828125 32.859375 
L 48.828125 0 
L 40.046875 0 
L 40.046875 32.859375 
Q 40.046875 39.453125 37.1875 42.453125 
Q 34.328125 45.453125 29.109375 45.453125 
Q 25.203125 45.453125 21.75 43.421875 
Q 18.3125 41.40625 16.84375 37.9375 
Q 15.375 34.46875 15.375 28.375 
L 15.375 0 
z
" id="ArialMT-104"/>
     <path d="M 9.03125 41.84375 
L 9.03125 51.859375 
L 19.046875 51.859375 
L 19.046875 41.84375 
z
M 9.03125 0 
L 9.03125 10.015625 
L 19.046875 10.015625 
L 19.046875 0 
z
" id="ArialMT-58"/>
     <path d="M 0 -1.21875 
L 20.75 72.796875 
L 27.78125 72.796875 
L 7.078125 -1.21875 
z
" id="ArialMT-47"/>
     <path d="M 4.984375 -4.296875 
L 13.53125 -5.5625 
Q 14.0625 -9.515625 16.5 -11.328125 
Q 19.78125 -13.765625 25.4375 -13.765625 
Q 31.546875 -13.765625 34.859375 -11.328125 
Q 38.1875 -8.890625 39.359375 -4.5 
Q 40.046875 -1.8125 39.984375 6.78125 
Q 34.234375 0 25.640625 0 
Q 14.9375 0 9.078125 7.71875 
Q 3.21875 15.4375 3.21875 26.21875 
Q 3.21875 33.640625 5.90625 39.90625 
Q 8.59375 46.1875 13.6875 49.609375 
Q 18.796875 53.03125 25.6875 53.03125 
Q 34.859375 53.03125 40.828125 45.609375 
L 40.828125 51.859375 
L 48.921875 51.859375 
L 48.921875 7.03125 
Q 48.921875 -5.078125 46.453125 -10.125 
Q 44 -15.1875 38.640625 -18.109375 
Q 33.296875 -21.046875 25.484375 -21.046875 
Q 16.21875 -21.046875 10.5 -16.875 
Q 4.78125 -12.703125 4.984375 -4.296875 
z
M 12.25 26.859375 
Q 12.25 16.65625 16.296875 11.96875 
Q 20.359375 7.28125 26.46875 7.28125 
Q 32.515625 7.28125 36.609375 11.9375 
Q 40.71875 16.609375 40.71875 26.5625 
Q 40.71875 36.078125 36.5 40.90625 
Q 32.28125 45.75 26.3125 45.75 
Q 20.453125 45.75 16.34375 40.984375 
Q 12.25 36.234375 12.25 26.859375 
z
" id="ArialMT-103"/>
     <path d="M 40.578125 0 
L 40.578125 7.625 
Q 34.515625 -1.171875 24.125 -1.171875 
Q 19.53125 -1.171875 15.546875 0.578125 
Q 11.578125 2.34375 9.640625 5 
Q 7.71875 7.671875 6.9375 11.53125 
Q 6.390625 14.109375 6.390625 19.734375 
L 6.390625 51.859375 
L 15.1875 51.859375 
L 15.1875 23.09375 
Q 15.1875 16.21875 15.71875 13.8125 
Q 16.546875 10.359375 19.234375 8.375 
Q 21.921875 6.390625 25.875 6.390625 
Q 29.828125 6.390625 33.296875 8.421875 
Q 36.765625 10.453125 38.203125 13.9375 
Q 39.65625 17.4375 39.65625 24.078125 
L 39.65625 51.859375 
L 48.4375 51.859375 
L 48.4375 0 
z
" id="ArialMT-117"/>
     <path d="M 9.078125 0 
L 9.078125 10.015625 
L 19.09375 10.015625 
L 19.09375 0 
z
" id="ArialMT-46"/>
     <path d="M 6.203125 -19.96875 
L 5.21875 -11.71875 
Q 8.109375 -12.5 10.25 -12.5 
Q 13.1875 -12.5 14.9375 -11.515625 
Q 16.703125 -10.546875 17.828125 -8.796875 
Q 18.65625 -7.46875 20.515625 -2.25 
Q 20.75 -1.515625 21.296875 -0.09375 
L 1.609375 51.859375 
L 11.078125 51.859375 
L 21.875 21.828125 
Q 23.96875 16.109375 25.640625 9.8125 
Q 27.15625 15.875 29.25 21.625 
L 40.328125 51.859375 
L 49.125 51.859375 
L 29.390625 -0.875 
Q 26.21875 -9.421875 24.46875 -12.640625 
Q 22.125 -17 19.09375 -19.015625 
Q 16.0625 -21.046875 11.859375 -21.046875 
Q 9.328125 -21.046875 6.203125 -19.96875 
z
" id="ArialMT-121"/>
     <path d="M 23.390625 -21.046875 
Q 16.109375 -11.859375 11.078125 0.4375 
Q 6.0625 12.75 6.0625 25.921875 
Q 6.0625 37.546875 9.8125 48.1875 
Q 14.203125 60.546875 23.390625 72.796875 
L 29.6875 72.796875 
Q 23.78125 62.640625 21.875 58.296875 
Q 18.890625 51.5625 17.1875 44.234375 
Q 15.09375 35.109375 15.09375 25.875 
Q 15.09375 2.390625 29.6875 -21.046875 
z
" id="ArialMT-40"/>
     <path d="M 4.15625 35.296875 
Q 4.15625 48 6.765625 55.734375 
Q 9.375 63.484375 14.515625 67.671875 
Q 19.671875 71.875 27.484375 71.875 
Q 33.25 71.875 37.59375 69.546875 
Q 41.9375 67.234375 44.765625 62.859375 
Q 47.609375 58.5 49.21875 52.21875 
Q 50.828125 45.953125 50.828125 35.296875 
Q 50.828125 22.703125 48.234375 14.96875 
Q 45.65625 7.234375 40.5 3 
Q 35.359375 -1.21875 27.484375 -1.21875 
Q 17.140625 -1.21875 11.234375 6.203125 
Q 4.15625 15.140625 4.15625 35.296875 
z
M 13.1875 35.296875 
Q 13.1875 17.671875 17.3125 11.828125 
Q 21.4375 6 27.484375 6 
Q 33.546875 6 37.671875 11.859375 
Q 41.796875 17.71875 41.796875 35.296875 
Q 41.796875 52.984375 37.671875 58.78125 
Q 33.546875 64.59375 27.390625 64.59375 
Q 21.34375 64.59375 17.71875 59.46875 
Q 13.1875 52.9375 13.1875 35.296875 
z
" id="ArialMT-48"/>
     <path d="M 3.171875 21.484375 
L 3.171875 30.328125 
L 30.171875 30.328125 
L 30.171875 21.484375 
z
" id="ArialMT-45"/>
     <path d="M 12.359375 -21.046875 
L 6.0625 -21.046875 
Q 20.65625 2.390625 20.65625 25.875 
Q 20.65625 35.0625 18.5625 44.09375 
Q 16.890625 51.421875 13.921875 58.15625 
Q 12.015625 62.546875 6.0625 72.796875 
L 12.359375 72.796875 
Q 21.53125 60.546875 25.921875 48.1875 
Q 29.6875 37.546875 29.6875 25.921875 
Q 29.6875 12.75 24.625 0.4375 
Q 19.578125 -11.859375 12.359375 -21.046875 
z
" id="ArialMT-41"/>
    </defs>
    <use xlink:href="#ArialMT-104"/>
    <use x="55.615234" xlink:href="#ArialMT-116"/>
    <use x="83.398438" xlink:href="#ArialMT-116"/>
    <use x="111.181641" xlink:href="#ArialMT-112"/>
    <use x="166.796875" xlink:href="#ArialMT-115"/>
    <use x="216.796875" xlink:href="#ArialMT-58"/>
    <use x="244.580078" xlink:href="#ArialMT-47"/>
    <use x="272.363281" xlink:href="#ArialMT-47"/>
    <use x="300.146484" xlink:href="#ArialMT-103"/>
    <use x="355.761719" xlink:href="#ArialMT-105"/>
    <use x="377.978516" xlink:href="#ArialMT-116"/>
    <use x="405.761719" xlink:href="#ArialMT-104"/>
    <use x="461.376953" xlink:href="#ArialMT-117"/>
    <use x="516.992188" xlink:href="#ArialMT-98"/>
    <use x="572.607422" xlink:href="#ArialMT-46"/>
    <use x="600.390625" xlink:href="#ArialMT-99"/>
    <use x="650.390625" xlink:href="#ArialMT-111"/>
    <use x="706.005859" xlink:href="#ArialMT-109"/>
    <use x="789.306641" xlink:href="#ArialMT-47"/>
    <use x="817.089844" xlink:href="#ArialMT-99"/>
    <use x="867.089844" xlink:href="#ArialMT-116"/>
    <use x="894.873047" xlink:href="#ArialMT-104"/>
    <use x="950.488281" xlink:href="#ArialMT-111"/>
    <use x="1006.103516" xlink:href="#ArialMT-121"/>
    <use x="1056.103516" xlink:href="#ArialMT-116"/>
    <use x="1083.886719" xlink:href="#ArialMT-47"/>
    <use x="1111.669922" xlink:href="#ArialMT-98"/>
    <use x="1167.285156" xlink:href="#ArialMT-105"/>
    <use x="1189.501953" xlink:href="#ArialMT-111"/>
    <use x="1245.117188" xlink:href="#ArialMT-114"/>
    <use x="1278.417969" xlink:href="#ArialMT-101"/>
    <use x="1334.033203" xlink:href="#ArialMT-103"/>
    <use x="1389.648438" xlink:href="#ArialMT-105"/>
    <use x="1411.865234" xlink:href="#ArialMT-115"/>
    <use x="1461.865234" xlink:href="#ArialMT-116"/>
    <use x="1489.648438" xlink:href="#ArialMT-114"/>
    <use x="1522.949219" xlink:href="#ArialMT-121"/>
    <use x="1572.949219" xlink:href="#ArialMT-32"/>
    <use x="1600.732422" xlink:href="#ArialMT-40"/>
    <use x="1634.033203" xlink:href="#ArialMT-50"/>
    <use x="1689.648438" xlink:href="#ArialMT-48"/>
    <use x="1745.263672" xlink:href="#ArialMT-50"/>
    <use x="1800.878906" xlink:href="#ArialMT-49"/>
    <use x="1856.494141" xlink:href="#ArialMT-45"/>
    <use x="1889.794922" xlink:href="#ArialMT-48"/>
    <use x="1945.410156" xlink:href="#ArialMT-52"/>
    <use x="2001.025391" xlink:href="#ArialMT-45"/>
    <use x="2034.326172" xlink:href="#ArialMT-48"/>
    <use x="2089.941406" xlink:href="#ArialMT-50"/>
    <use x="2145.556641" xlink:href="#ArialMT-41"/>
   </g>
  </g>
 </g>
</svg>
