<?xml version="1.0" encoding="utf-8" standalone="no"?>
<!DOCTYPE svg PUBLIC "-//W3C//DTD SVG 1.1//EN"
  "http://www.w3.org/Graphics/SVG/1.1/DTD/svg11.dtd">
<svg xmlns:xlink="http://www.w3.org/1999/xlink" width="792pt" height="576pt" viewBox="0 0 792 576" xmlns="http://www.w3.org/2000/svg" version="1.1">
 <metadata>
  <rdf:RDF xmlns:dc="http://purl.org/dc/elements/1.1/" xmlns:cc="http://creativecommons.org/ns#" xmlns:rdf="http://www.w3.org/1999/02/22-rdf-syntax-ns#">
   <cc:Work>
    <dc:type rdf:resource="http://purl.org/dc/dcmitype/StillImage"/>
    <dc:date>2026-06-13T05:08:25.377309</dc:date>
    <dc:format>image/svg+xml</dc:format>
    <dc:creator>
     <cc:Agent>
      <dc:title>Matplotlib v3.11.0, https://matplotlib.org/</dc:title>
     </cc:Agent>
    </dc:creator>
   </cc:Work>
  </rdf:RDF>
 </metadata>
 <defs>
  <style type="text/css">*{stroke-linejoin: round; stroke-linecap: butt}</style>
 </defs>
 <g id="figure_1">
  <g id="patch_1">
   <path d="M 0 576 
L 792 576 
L 792 0 
L 0 0 
z
" style="fill: #ffffff"/>
  </g>
  <g id="axes_1">
   <g id="matplotlib.axis_1"/>
   <g id="matplotlib.axis_2"/>
   <g id="patch_2">
    <path d="M 133.739387 61.776127 
C 130.99433 57.021549 127.421102 52.795888 123.188707 49.299005 
C 118.956312 45.802122 114.132545 43.090032 108.945555 41.291007 
C 103.758565 39.491982 98.291438 38.634839 92.802753 38.76012 
C 87.314068 38.885401 81.891744 39.991098 76.79224 42.024915 
C 71.692735 44.058733 66.997736 46.988092 62.9293 50.674444 
C 58.860864 54.360795 55.484162 58.74509 52.9589 63.619966 
C 50.433637 68.494841 48.800266 73.782209 48.136039 79.231994 
C 47.471812 84.68178 47.787368 90.206686 49.067784 95.545402 
C 50.3482 100.884119 52.572965 105.951129 55.636854 110.506778 
C 58.700744 115.062427 62.55468 119.033742 67.016383 122.232892 
C 71.478086 125.432042 76.476088 127.807783 81.773998 129.247748 
C 87.071909 130.687714 92.584865 131.168839 98.052121 130.668368 
C 103.519377 130.167897 108.853356 128.693846 113.801779 126.315934 
C 118.750203 123.938022 123.233804 120.694338 127.040523 116.738299 
C 130.847242 112.78226 133.916102 108.177234 136.101956 103.141025 
C 138.287809 98.104816 139.555642 92.718094 139.845491 87.235636 
L 93.853721 84.804127 
z
" style="fill: #1f77b4; stroke: #ffffff; stroke-linejoin: miter"/>
   </g>
   <g id="patch_3">
    <path d="M 144.324085 86.161509 
C 144.558082 81.735463 144.151945 77.298727 143.118252 72.988725 
C 142.084559 68.678723 140.434094 64.540421 138.217981 60.702 
L 98.332315 83.73 
z
" style="fill: #ff7f0e; stroke: #ffffff; stroke-linejoin: miter"/>
   </g>
   <g id="text_1">
    <!-- Yes -->
    <g style="fill: #262626" transform="translate(28.447003 99.217186) scale(0.1 -0.1)">
     <defs>
      <path id="DejaVuSans-3c" d="M -13 4666 
L 666 4666 
L 1959 2747 
L 3244 4666 
L 3922 4666 
L 2272 2222 
L 2272 0 
L 1638 0 
L 1638 2222 
L -13 4666 
z
" transform="scale(0.015625)"/>
      <path id="DejaVuSans-48" d="M 3597 1894 
L 3597 1613 
L 953 1613 
Q 991 1019 1311 708 
Q 1631 397 2203 397 
Q 2534 397 2845 478 
Q 3156 559 3463 722 
L 3463 178 
Q 3153 47 2828 -22 
Q 2503 -91 2169 -91 
Q 1331 -91 842 396 
Q 353 884 353 1716 
Q 353 2575 817 3079 
Q 1281 3584 2069 3584 
Q 2775 3584 3186 3129 
Q 3597 2675 3597 1894 
z
M 3022 2063 
Q 3016 2534 2758 2815 
Q 2500 3097 2075 3097 
Q 1594 3097 1305 2825 
Q 1016 2553 972 2059 
L 3022 2063 
z
" transform="scale(0.015625)"/>
      <path id="DejaVuSans-56" d="M 2834 3397 
L 2834 2853 
Q 2591 2978 2328 3040 
Q 2066 3103 1784 3103 
Q 1356 3103 1142 2972 
Q 928 2841 928 2578 
Q 928 2378 1081 2264 
Q 1234 2150 1697 2047 
L 1894 2003 
Q 2506 1872 2764 1633 
Q 3022 1394 3022 966 
Q 3022 478 2636 193 
Q 2250 -91 1575 -91 
Q 1294 -91 989 -36 
Q 684 19 347 128 
L 347 722 
Q 666 556 975 473 
Q 1284 391 1588 391 
Q 1994 391 2212 530 
Q 2431 669 2431 922 
Q 2431 1156 2273 1281 
Q 2116 1406 1581 1522 
L 1381 1569 
Q 847 1681 609 1914 
Q 372 2147 372 2553 
Q 372 3047 722 3315 
Q 1072 3584 1716 3584 
Q 2034 3584 2315 3537 
Q 2597 3491 2834 3397 
z
" transform="scale(0.015625)"/>
     </defs>
     <use xlink:href="#DejaVuSans-3c"/>
     <use xlink:href="#DejaVuSans-48" transform="translate(47.796875 0)"/>
     <use xlink:href="#DejaVuSans-56" transform="translate(109.328125 0)"/>
    </g>
   </g>
   <g id="text_2">
    <!-- No -->
    <g style="fill: #262626" transform="translate(147.596845 74.512254) scale(0.1 -0.1)">
     <defs>
      <path id="DejaVuSans-31" d="M 628 4666 
L 1478 4666 
L 3547 763 
L 3547 4666 
L 4159 4666 
L 4159 0 
L 3309 0 
L 1241 3903 
L 1241 0 
L 628 0 
L 628 4666 
z
" transform="scale(0.015625)"/>
      <path id="DejaVuSans-52" d="M 1959 3097 
Q 1497 3097 1228 2736 
Q 959 2375 959 1747 
Q 959 1119 1226 758 
Q 1494 397 1959 397 
Q 2419 397 2687 759 
Q 2956 1122 2956 1747 
Q 2956 2369 2687 2733 
Q 2419 3097 1959 3097 
z
M 1959 3584 
Q 2709 3584 3137 3096 
Q 3566 2609 3566 1747 
Q 3566 888 3137 398 
Q 2709 -91 1959 -91 
Q 1206 -91 779 398 
Q 353 888 353 1747 
Q 353 2609 779 3096 
Q 1206 3584 1959 3584 
z
" transform="scale(0.015625)"/>
     </defs>
     <use xlink:href="#DejaVuSans-31"/>
     <use xlink:href="#DejaVuSans-52" transform="translate(74.8125 0)"/>
    </g>
   </g>
   <g id="text_3">
    <!-- 91% -->
    <g style="fill: #262626" transform="translate(55.868878 93.846549) scale(0.1 -0.1)">
     <defs>
      <path id="DejaVuSans-1c" d="M 703 97 
L 703 672 
Q 941 559 1184 500 
Q 1428 441 1663 441 
Q 2288 441 2617 861 
Q 2947 1281 2994 2138 
Q 2813 1869 2534 1725 
Q 2256 1581 1919 1581 
Q 1219 1581 811 2004 
Q 403 2428 403 3163 
Q 403 3881 828 4315 
Q 1253 4750 1959 4750 
Q 2769 4750 3195 4129 
Q 3622 3509 3622 2328 
Q 3622 1225 3098 567 
Q 2575 -91 1691 -91 
Q 1453 -91 1209 -44 
Q 966 3 703 97 
z
M 1959 2075 
Q 2384 2075 2632 2365 
Q 2881 2656 2881 3163 
Q 2881 3666 2632 3958 
Q 2384 4250 1959 4250 
Q 1534 4250 1286 3958 
Q 1038 3666 1038 3163 
Q 1038 2656 1286 2365 
Q 1534 2075 1959 2075 
z
" transform="scale(0.015625)"/>
      <path id="DejaVuSans-14" d="M 794 531 
L 1825 531 
L 1825 4091 
L 703 3866 
L 703 4441 
L 1819 4666 
L 2450 4666 
L 2450 531 
L 3481 531 
L 3481 0 
L 794 0 
L 794 531 
z
" transform="scale(0.015625)"/>
      <path id="DejaVuSans-8" d="M 4653 2053 
Q 4381 2053 4226 1822 
Q 4072 1591 4072 1178 
Q 4072 772 4226 539 
Q 4381 306 4653 306 
Q 4919 306 5073 539 
Q 5228 772 5228 1178 
Q 5228 1588 5073 1820 
Q 4919 2053 4653 2053 
z
M 4653 2450 
Q 5147 2450 5437 2106 
Q 5728 1763 5728 1178 
Q 5728 594 5436 251 
Q 5144 -91 4653 -91 
Q 4153 -91 3862 251 
Q 3572 594 3572 1178 
Q 3572 1766 3864 2108 
Q 4156 2450 4653 2450 
z
M 1428 4353 
Q 1159 4353 1004 4120 
Q 850 3888 850 3481 
Q 850 3069 1003 2837 
Q 1156 2606 1428 2606 
Q 1700 2606 1854 2837 
Q 2009 3069 2009 3481 
Q 2009 3884 1853 4118 
Q 1697 4353 1428 4353 
z
M 4250 4750 
L 4750 4750 
L 1831 -91 
L 1331 -91 
L 4250 4750 
z
M 1428 4750 
Q 1922 4750 2215 4408 
Q 2509 4066 2509 3481 
Q 2509 2891 2217 2550 
Q 1925 2209 1428 2209 
Q 931 2209 642 2551 
Q 353 2894 353 3481 
Q 353 4063 643 4406 
Q 934 4750 1428 4750 
z
" transform="scale(0.015625)"/>
     </defs>
     <use xlink:href="#DejaVuSans-1c"/>
     <use xlink:href="#DejaVuSans-14" transform="translate(63.625 0)"/>
     <use xlink:href="#DejaVuSans-8" transform="translate(127.25 0)"/>
    </g>
   </g>
   <g id="text_4">
    <!-- 9% -->
    <g style="fill: #262626" transform="translate(117.271846 79.882891) scale(0.1 -0.1)">
     <use xlink:href="#DejaVuSans-1c"/>
     <use xlink:href="#DejaVuSans-8" transform="translate(63.625 0)"/>
    </g>
   </g>
   <g id="text_5">
    <!-- Name -->
    <g style="fill: #262626" transform="translate(80.63044 20.16) scale(0.12 -0.12)">
     <defs>
      <path id="DejaVuSans-44" d="M 2194 1759 
Q 1497 1759 1228 1600 
Q 959 1441 959 1056 
Q 959 750 1161 570 
Q 1363 391 1709 391 
Q 2188 391 2477 730 
Q 2766 1069 2766 1631 
L 2766 1759 
L 2194 1759 
z
M 3341 1997 
L 3341 0 
L 2766 0 
L 2766 531 
Q 2569 213 2275 61 
Q 1981 -91 1556 -91 
Q 1019 -91 701 211 
Q 384 513 384 1019 
Q 384 1609 779 1909 
Q 1175 2209 1959 2209 
L 2766 2209 
L 2766 2266 
Q 2766 2663 2505 2880 
Q 2244 3097 1772 3097 
Q 1472 3097 1187 3025 
Q 903 2953 641 2809 
L 641 3341 
Q 956 3463 1253 3523 
Q 1550 3584 1831 3584 
Q 2591 3584 2966 3190 
Q 3341 2797 3341 1997 
z
" transform="scale(0.015625)"/>
      <path id="DejaVuSans-50" d="M 3328 2828 
Q 3544 3216 3844 3400 
Q 4144 3584 4550 3584 
Q 5097 3584 5394 3201 
Q 5691 2819 5691 2113 
L 5691 0 
L 5113 0 
L 5113 2094 
Q 5113 2597 4934 2840 
Q 4756 3084 4391 3084 
Q 3944 3084 3684 2787 
Q 3425 2491 3425 1978 
L 3425 0 
L 2847 0 
L 2847 2094 
Q 2847 2600 2669 2842 
Q 2491 3084 2119 3084 
Q 1678 3084 1418 2786 
Q 1159 2488 1159 1978 
L 1159 0 
L 581 0 
L 581 3500 
L 1159 3500 
L 1159 2956 
Q 1356 3278 1631 3431 
Q 1906 3584 2284 3584 
Q 2666 3584 2933 3390 
Q 3200 3197 3328 2828 
z
" transform="scale(0.015625)"/>
     </defs>
     <use xlink:href="#DejaVuSans-31"/>
     <use xlink:href="#DejaVuSans-44" transform="translate(74.8125 0)"/>
     <use xlink:href="#DejaVuSans-50" transform="translate(136.09375 0)"/>
     <use xlink:href="#DejaVuSans-48" transform="translate(233.5 0)"/>
    </g>
   </g>
  </g>
  <g id="axes_2">
   <g id="matplotlib.axis_3"/>
   <g id="matplotlib.axis_4"/>
   <g id="patch_4">
    <path d="M 319.604016 61.776127 
C 316.858959 57.021549 313.285732 52.795888 309.053337 49.299005 
C 304.820941 45.802122 299.997174 43.090032 294.810184 41.291007 
C 289.623194 39.491982 284.156067 38.634839 278.667383 38.76012 
C 273.178698 38.885401 267.756373 39.991098 262.656869 42.024915 
C 257.557365 44.058733 252.862365 46.988092 248.793929 50.674444 
C 244.725494 54.360795 241.348791 58.74509 238.823529 63.619966 
C 236.298267 68.494841 234.664895 73.782209 234.000668 79.231994 
C 233.336441 84.68178 233.651998 90.206686 234.932413 95.545402 
C 236.212829 100.884119 238.437594 105.951129 241.501484 110.506778 
C 244.565373 115.062427 248.419309 119.033742 252.881012 122.232892 
C 257.342715 125.432042 262.340717 127.807783 267.638628 129.247748 
C 272.936538 130.687714 278.449494 131.168839 283.91675 130.668368 
C 289.384006 130.167897 294.717986 128.693846 299.666409 126.315934 
C 304.614832 123.938022 309.098433 120.694338 312.905152 116.738299 
C 316.711872 112.78226 319.780732 108.177234 321.966585 103.141025 
C 324.152439 98.104816 325.420272 92.718094 325.71012 87.235636 
L 279.71835 84.804127 
z
" style="fill: #1f77b4; stroke: #ffffff; stroke-linejoin: miter"/>
   </g>
   <g id="patch_5">
    <path d="M 330.188714 86.161509 
C 330.422712 81.735463 330.016574 77.298727 328.982881 72.988725 
C 327.949188 68.678723 326.298724 64.540421 324.08261 60.702 
L 284.196944 83.73 
z
" style="fill: #ff7f0e; stroke: #ffffff; stroke-linejoin: miter"/>
   </g>
   <g id="text_6">
    <!-- Yes -->
    <g style="fill: #262626" transform="translate(214.311632 99.217186) scale(0.1 -0.1)">
     <use xlink:href="#DejaVuSans-3c"/>
     <use xlink:href="#DejaVuSans-48" transform="translate(47.796875 0)"/>
     <use xlink:href="#DejaVuSans-56" transform="translate(109.328125 0)"/>
    </g>
   </g>
   <g id="text_7">
    <!-- No -->
    <g style="fill: #262626" transform="translate(333.461475 74.512254) scale(0.1 -0.1)">
     <use xlink:href="#DejaVuSans-31"/>
     <use xlink:href="#DejaVuSans-52" transform="translate(74.8125 0)"/>
    </g>
   </g>
   <g id="text_8">
    <!-- 91% -->
    <g style="fill: #262626" transform="translate(241.733507 93.846549) scale(0.1 -0.1)">
     <use xlink:href="#DejaVuSans-1c"/>
     <use xlink:href="#DejaVuSans-14" transform="translate(63.625 0)"/>
     <use xlink:href="#DejaVuSans-8" transform="translate(127.25 0)"/>
    </g>
   </g>
   <g id="text_9">
    <!-- 9% -->
    <g style="fill: #262626" transform="translate(303.136475 79.882891) scale(0.1 -0.1)">
     <use xlink:href="#DejaVuSans-1c"/>
     <use xlink:href="#DejaVuSans-8" transform="translate(63.625 0)"/>
    </g>
   </g>
   <g id="text_10">
    <!-- Homepage -->
    <g style="fill: #262626" transform="translate(251.490382 20.16) scale(0.12 -0.12)">
     <defs>
      <path id="DejaVuSans-2b" d="M 628 4666 
L 1259 4666 
L 1259 2753 
L 3553 2753 
L 3553 4666 
L 4184 4666 
L 4184 0 
L 3553 0 
L 3553 2222 
L 1259 2222 
L 1259 0 
L 628 0 
L 628 4666 
z
" transform="scale(0.015625)"/>
      <path id="DejaVuSans-53" d="M 1159 525 
L 1159 -1331 
L 581 -1331 
L 581 3500 
L 1159 3500 
L 1159 2969 
Q 1341 3281 1617 3432 
Q 1894 3584 2278 3584 
Q 2916 3584 3314 3078 
Q 3713 2572 3713 1747 
Q 3713 922 3314 415 
Q 2916 -91 2278 -91 
Q 1894 -91 1617 61 
Q 1341 213 1159 525 
z
M 3116 1747 
Q 3116 2381 2855 2742 
Q 2594 3103 2138 3103 
Q 1681 3103 1420 2742 
Q 1159 2381 1159 1747 
Q 1159 1113 1420 752 
Q 1681 391 2138 391 
Q 2594 391 2855 752 
Q 3116 1113 3116 1747 
z
" transform="scale(0.015625)"/>
      <path id="DejaVuSans-4a" d="M 2906 1791 
Q 2906 2416 2648 2759 
Q 2391 3103 1925 3103 
Q 1463 3103 1205 2759 
Q 947 2416 947 1791 
Q 947 1169 1205 825 
Q 1463 481 1925 481 
Q 2391 481 2648 825 
Q 2906 1169 2906 1791 
z
M 3481 434 
Q 3481 -459 3084 -895 
Q 2688 -1331 1869 -1331 
Q 1566 -1331 1297 -1286 
Q 1028 -1241 775 -1147 
L 775 -588 
Q 1028 -725 1275 -790 
Q 1522 -856 1778 -856 
Q 2344 -856 2625 -561 
Q 2906 -266 2906 331 
L 2906 616 
Q 2728 306 2450 153 
Q 2172 0 1784 0 
Q 1141 0 747 490 
Q 353 981 353 1791 
Q 353 2603 747 3093 
Q 1141 3584 1784 3584 
Q 2172 3584 2450 3431 
Q 2728 3278 2906 2969 
L 2906 3500 
L 3481 3500 
L 3481 434 
z
" transform="scale(0.015625)"/>
     </defs>
     <use xlink:href="#DejaVuSans-2b"/>
     <use xlink:href="#DejaVuSans-52" transform="translate(75.203125 0)"/>
     <use xlink:href="#DejaVuSans-50" transform="translate(136.390625 0)"/>
     <use xlink:href="#DejaVuSans-48" transform="translate(233.796875 0)"/>
     <use xlink:href="#DejaVuSans-53" transform="translate(295.328125 0)"/>
     <use xlink:href="#DejaVuSans-44" transform="translate(358.8125 0)"/>
     <use xlink:href="#DejaVuSans-4a" transform="translate(420.09375 0)"/>
     <use xlink:href="#DejaVuSans-48" transform="translate(483.578125 0)"/>
    </g>
   </g>
  </g>
  <g id="axes_3">
   <g id="matplotlib.axis_5"/>
   <g id="matplotlib.axis_6"/>
   <g id="patch_6">
    <path d="M 505.468646 61.776127 
C 502.723589 57.021549 499.150361 52.795888 494.917966 49.299005 
C 490.685571 45.802122 485.861804 43.090032 480.674814 41.291007 
C 475.487823 39.491982 470.020697 38.634839 464.532012 38.76012 
C 459.043327 38.885401 453.621003 39.991098 448.521498 42.024915 
C 443.421994 44.058733 438.726994 46.988092 434.658559 50.674444 
C 430.590123 54.360795 427.21342 58.74509 424.688158 63.619966 
C 422.162896 68.494841 420.529525 73.782209 419.865298 79.231994 
C 419.20107 84.68178 419.516627 90.206686 420.797043 95.545402 
C 422.077459 100.884119 424.302223 105.951129 427.366113 110.506778 
C 430.430002 115.062427 434.283938 119.033742 438.745642 122.232892 
C 443.207345 125.432042 448.205347 127.807783 453.503257 129.247748 
C 458.801168 130.687714 464.314124 131.168839 469.78138 130.668368 
C 475.248635 130.167897 480.582615 128.693846 485.531038 126.315934 
C 490.479461 123.938022 494.963063 120.694338 498.769782 116.738299 
C 502.576501 112.78226 505.645361 108.177234 507.831214 103.141025 
C 510.017068 98.104816 511.284901 92.718094 511.57475 87.235636 
L 465.58298 84.804127 
z
" style="fill: #1f77b4; stroke: #ffffff; stroke-linejoin: miter"/>
   </g>
   <g id="patch_7">
    <path d="M 516.053343 86.161509 
C 516.287341 81.735463 515.881203 77.298727 514.84751 72.988725 
C 513.813817 68.678723 512.163353 64.540421 509.947239 60.702 
L 470.061573 83.73 
z
" style="fill: #ff7f0e; stroke: #ffffff; stroke-linejoin: miter"/>
   </g>
   <g id="text_11">
    <!-- Yes -->
    <g style="fill: #262626" transform="translate(400.176262 99.217186) scale(0.1 -0.1)">
     <use xlink:href="#DejaVuSans-3c"/>
     <use xlink:href="#DejaVuSans-48" transform="translate(47.796875 0)"/>
     <use xlink:href="#DejaVuSans-56" transform="translate(109.328125 0)"/>
    </g>
   </g>
   <g id="text_12">
    <!-- No -->
    <g style="fill: #262626" transform="translate(519.326104 74.512254) scale(0.1 -0.1)">
     <use xlink:href="#DejaVuSans-31"/>
     <use xlink:href="#DejaVuSans-52" transform="translate(74.8125 0)"/>
    </g>
   </g>
   <g id="text_13">
    <!-- 91% -->
    <g style="fill: #262626" transform="translate(427.598136 93.846549) scale(0.1 -0.1)">
     <use xlink:href="#DejaVuSans-1c"/>
     <use xlink:href="#DejaVuSans-14" transform="translate(63.625 0)"/>
     <use xlink:href="#DejaVuSans-8" transform="translate(127.25 0)"/>
    </g>
   </g>
   <g id="text_14">
    <!-- 9% -->
    <g style="fill: #262626" transform="translate(489.001104 79.882891) scale(0.1 -0.1)">
     <use xlink:href="#DejaVuSans-1c"/>
     <use xlink:href="#DejaVuSans-8" transform="translate(63.625 0)"/>
    </g>
   </g>
   <g id="text_15">
    <!-- Description -->
    <g style="fill: #262626" transform="translate(435.889698 20.16) scale(0.12 -0.12)">
     <defs>
      <path id="DejaVuSans-27" d="M 1259 4147 
L 1259 519 
L 2022 519 
Q 2988 519 3436 956 
Q 3884 1394 3884 2338 
Q 3884 3275 3436 3711 
Q 2988 4147 2022 4147 
L 1259 4147 
z
M 628 4666 
L 1925 4666 
Q 3281 4666 3915 4102 
Q 4550 3538 4550 2338 
Q 4550 1131 3912 565 
Q 3275 0 1925 0 
L 628 0 
L 628 4666 
z
" transform="scale(0.015625)"/>
      <path id="DejaVuSans-46" d="M 3122 3366 
L 3122 2828 
Q 2878 2963 2633 3030 
Q 2388 3097 2138 3097 
Q 1578 3097 1268 2742 
Q 959 2388 959 1747 
Q 959 1106 1268 751 
Q 1578 397 2138 397 
Q 2388 397 2633 464 
Q 2878 531 3122 666 
L 3122 134 
Q 2881 22 2623 -34 
Q 2366 -91 2075 -91 
Q 1284 -91 818 406 
Q 353 903 353 1747 
Q 353 2603 823 3093 
Q 1294 3584 2113 3584 
Q 2378 3584 2631 3529 
Q 2884 3475 3122 3366 
z
" transform="scale(0.015625)"/>
      <path id="DejaVuSans-55" d="M 2631 2963 
Q 2534 3019 2420 3045 
Q 2306 3072 2169 3072 
Q 1681 3072 1420 2755 
Q 1159 2438 1159 1844 
L 1159 0 
L 581 0 
L 581 3500 
L 1159 3500 
L 1159 2956 
Q 1341 3275 1631 3429 
Q 1922 3584 2338 3584 
Q 2397 3584 2469 3576 
Q 2541 3569 2628 3553 
L 2631 2963 
z
" transform="scale(0.015625)"/>
      <path id="DejaVuSans-4c" d="M 603 3500 
L 1178 3500 
L 1178 0 
L 603 0 
L 603 3500 
z
M 603 4863 
L 1178 4863 
L 1178 4134 
L 603 4134 
L 603 4863 
z
" transform="scale(0.015625)"/>
      <path id="DejaVuSans-57" d="M 1172 4494 
L 1172 3500 
L 2356 3500 
L 2356 3053 
L 1172 3053 
L 1172 1153 
Q 1172 725 1289 603 
Q 1406 481 1766 481 
L 2356 481 
L 2356 0 
L 1766 0 
Q 1100 0 847 248 
Q 594 497 594 1153 
L 594 3053 
L 172 3053 
L 172 3500 
L 594 3500 
L 594 4494 
L 1172 4494 
z
" transform="scale(0.015625)"/>
      <path id="DejaVuSans-51" d="M 3513 2113 
L 3513 0 
L 2938 0 
L 2938 2094 
Q 2938 2591 2744 2837 
Q 2550 3084 2163 3084 
Q 1697 3084 1428 2787 
Q 1159 2491 1159 1978 
L 1159 0 
L 581 0 
L 581 3500 
L 1159 3500 
L 1159 2956 
Q 1366 3272 1645 3428 
Q 1925 3584 2291 3584 
Q 2894 3584 3203 3211 
Q 3513 2838 3513 2113 
z
" transform="scale(0.015625)"/>
     </defs>
     <use xlink:href="#DejaVuSans-27"/>
     <use xlink:href="#DejaVuSans-48" transform="translate(77 0)"/>
     <use xlink:href="#DejaVuSans-56" transform="translate(138.53125 0)"/>
     <use xlink:href="#DejaVuSans-46" transform="translate(190.625 0)"/>
     <use xlink:href="#DejaVuSans-55" transform="translate(245.609375 0)"/>
     <use xlink:href="#DejaVuSans-4c" transform="translate(286.71875 0)"/>
     <use xlink:href="#DejaVuSans-53" transform="translate(314.5 0)"/>
     <use xlink:href="#DejaVuSans-57" transform="translate(377.984375 0)"/>
     <use xlink:href="#DejaVuSans-4c" transform="translate(417.1875 0)"/>
     <use xlink:href="#DejaVuSans-52" transform="translate(444.96875 0)"/>
     <use xlink:href="#DejaVuSans-51" transform="translate(506.15625 0)"/>
    </g>
   </g>
  </g>
  <g id="axes_4">
   <g id="matplotlib.axis_7"/>
   <g id="matplotlib.axis_8"/>
   <g id="patch_8">
    <path d="M 691.308679 61.667833 
C 688.58694 56.953642 685.050856 52.759102 680.864883 49.279291 
C 676.67891 45.79948 671.908963 43.089193 666.77688 41.27448 
C 661.644798 39.459766 656.231393 38.569202 650.788431 38.644205 
C 645.34547 38.719208 639.95866 39.758597 634.878529 41.714032 
C 629.798398 43.669468 625.104942 46.510158 621.016442 50.10399 
C 616.927943 53.697822 613.508779 57.988203 610.91797 62.7756 
C 608.327161 67.562996 606.605502 72.772021 605.833064 78.160416 
C 605.060626 83.54881 605.249572 89.031725 606.391115 94.354162 
C 607.532658 99.676599 609.608823 104.754748 612.523051 109.352436 
C 615.437279 113.950123 619.143681 117.994951 623.469881 121.298805 
C 627.796081 124.602658 632.673957 127.113512 637.876648 128.714592 
C 643.07934 130.315672 648.524922 130.981767 653.960135 130.681898 
C 659.395347 130.382029 664.734603 129.120918 669.729586 126.957216 
C 674.724569 124.793515 679.296624 121.761294 683.233116 118.001575 
C 687.169608 114.241856 690.408551 109.813843 692.799308 104.923471 
C 695.190065 100.033099 696.69499 94.757376 697.244093 89.341664 
L 651.423013 84.695833 
z
" style="fill: #1f77b4; stroke: #ffffff; stroke-linejoin: miter"/>
   </g>
   <g id="patch_9">
    <path d="M 701.747283 88.375831 
C 702.231929 83.595846 701.965643 78.769329 700.958101 74.071671 
C 699.950558 69.374012 698.214114 64.862812 695.811869 60.702 
L 655.926203 83.73 
z
" style="fill: #ff7f0e; stroke: #ffffff; stroke-linejoin: miter"/>
   </g>
   <g id="text_16">
    <!-- Yes -->
    <g style="fill: #262626" transform="translate(585.745738 97.917651) scale(0.1 -0.1)">
     <use xlink:href="#DejaVuSans-3c"/>
     <use xlink:href="#DejaVuSans-48" transform="translate(47.796875 0)"/>
     <use xlink:href="#DejaVuSans-56" transform="translate(109.328125 0)"/>
    </g>
   </g>
   <g id="text_17">
    <!-- No -->
    <g style="fill: #262626" transform="translate(705.46129 75.703494) scale(0.1 -0.1)">
     <use xlink:href="#DejaVuSans-31"/>
     <use xlink:href="#DejaVuSans-52" transform="translate(74.8125 0)"/>
    </g>
   </g>
   <g id="text_18">
    <!-- 90% -->
    <g style="fill: #262626" transform="translate(613.290593 93.088487) scale(0.1 -0.1)">
     <defs>
      <path id="DejaVuSans-13" d="M 2034 4250 
Q 1547 4250 1301 3770 
Q 1056 3291 1056 2328 
Q 1056 1369 1301 889 
Q 1547 409 2034 409 
Q 2525 409 2770 889 
Q 3016 1369 3016 2328 
Q 3016 3291 2770 3770 
Q 2525 4250 2034 4250 
z
M 2034 4750 
Q 2819 4750 3233 4129 
Q 3647 3509 3647 2328 
Q 3647 1150 3233 529 
Q 2819 -91 2034 -91 
Q 1250 -91 836 529 
Q 422 1150 422 2328 
Q 422 3509 836 4129 
Q 1250 4750 2034 4750 
z
" transform="scale(0.015625)"/>
     </defs>
     <use xlink:href="#DejaVuSans-1c"/>
     <use xlink:href="#DejaVuSans-13" transform="translate(63.625 0)"/>
     <use xlink:href="#DejaVuSans-8" transform="translate(127.25 0)"/>
    </g>
   </g>
   <g id="text_19">
    <!-- 10% -->
    <g style="fill: #262626" transform="translate(671.83206 80.532659) scale(0.1 -0.1)">
     <use xlink:href="#DejaVuSans-14"/>
     <use xlink:href="#DejaVuSans-13" transform="translate(63.625 0)"/>
     <use xlink:href="#DejaVuSans-8" transform="translate(127.25 0)"/>
    </g>
   </g>
   <g id="text_20">
    <!-- Example -->
    <g style="fill: #262626" transform="translate(629.89464 20.16) scale(0.12 -0.12)">
     <defs>
      <path id="DejaVuSans-28" d="M 628 4666 
L 3578 4666 
L 3578 4134 
L 1259 4134 
L 1259 2753 
L 3481 2753 
L 3481 2222 
L 1259 2222 
L 1259 531 
L 3634 531 
L 3634 0 
L 628 0 
L 628 4666 
z
" transform="scale(0.015625)"/>
      <path id="DejaVuSans-5b" d="M 3513 3500 
L 2247 1797 
L 3578 0 
L 2900 0 
L 1881 1375 
L 863 0 
L 184 0 
L 1544 1831 
L 300 3500 
L 978 3500 
L 1906 2253 
L 2834 3500 
L 3513 3500 
z
" transform="scale(0.015625)"/>
      <path id="DejaVuSans-4f" d="M 603 4863 
L 1178 4863 
L 1178 0 
L 603 0 
L 603 4863 
z
" transform="scale(0.015625)"/>
     </defs>
     <use xlink:href="#DejaVuSans-28"/>
     <use xlink:href="#DejaVuSans-5b" transform="translate(63.1875 0)"/>
     <use xlink:href="#DejaVuSans-44" transform="translate(122.375 0)"/>
     <use xlink:href="#DejaVuSans-50" transform="translate(183.65625 0)"/>
     <use xlink:href="#DejaVuSans-53" transform="translate(281.0625 0)"/>
     <use xlink:href="#DejaVuSans-4f" transform="translate(344.546875 0)"/>
     <use xlink:href="#DejaVuSans-48" transform="translate(372.328125 0)"/>
    </g>
   </g>
  </g>
  <g id="axes_5">
   <g id="matplotlib.axis_9"/>
   <g id="matplotlib.axis_10"/>
   <g id="patch_10">
    <path d="M 135.201227 198.521949 
C 131.807496 192.643835 127.155931 187.587976 121.580366 183.717223 
C 116.004802 179.846471 109.64189 177.255694 102.948287 176.130828 
C 96.254684 175.005961 89.394444 175.374576 82.859915 177.210216 
C 76.325386 179.045855 70.276723 182.303531 65.14803 186.749444 
C 60.019336 191.195358 55.936311 196.720544 53.191986 202.928468 
C 50.447662 209.136393 49.109299 215.874906 49.27295 222.660395 
C 49.436601 229.445884 51.098255 236.112043 54.138657 242.180453 
C 57.179059 248.248863 61.523693 253.570792 66.86075 257.764295 
L 95.315561 221.549949 
z
" style="fill: #1f77b4; stroke: #ffffff; stroke-linejoin: miter"/>
   </g>
   <g id="patch_11">
    <path d="M 69.877503 261.244346 
C 78.289673 267.854067 88.747598 271.330555 99.44276 271.072611 
C 110.137922 270.814668 120.416095 266.838071 128.499847 259.830505 
C 136.583598 252.822939 141.978443 243.213058 143.751437 232.662726 
C 145.52443 222.112393 143.567117 211.266975 138.217981 202.002 
L 98.332315 225.03 
z
" style="fill: #ff7f0e; stroke: #ffffff; stroke-linejoin: miter"/>
   </g>
   <g id="text_21">
    <!-- Yes -->
    <g style="fill: #262626" transform="translate(45.989089 185.86705) scale(0.1 -0.1)">
     <use xlink:href="#DejaVuSans-3c"/>
     <use xlink:href="#DejaVuSans-48" transform="translate(47.796875 0)"/>
     <use xlink:href="#DejaVuSans-56" transform="translate(109.328125 0)"/>
    </g>
   </g>
   <g id="text_22">
    <!-- No -->
    <g style="fill: #262626" transform="translate(131.5166 265.908212) scale(0.1 -0.1)">
     <use xlink:href="#DejaVuSans-31"/>
     <use xlink:href="#DejaVuSans-52" transform="translate(74.8125 0)"/>
    </g>
   </g>
   <g id="text_23">
    <!-- 56% -->
    <g style="fill: #262626" transform="translate(66.101761 203.267303) scale(0.1 -0.1)">
     <defs>
      <path id="DejaVuSans-18" d="M 691 4666 
L 3169 4666 
L 3169 4134 
L 1269 4134 
L 1269 2991 
Q 1406 3038 1543 3061 
Q 1681 3084 1819 3084 
Q 2600 3084 3056 2656 
Q 3513 2228 3513 1497 
Q 3513 744 3044 326 
Q 2575 -91 1722 -91 
Q 1428 -91 1123 -41 
Q 819 9 494 109 
L 494 744 
Q 775 591 1075 516 
Q 1375 441 1709 441 
Q 2250 441 2565 725 
Q 2881 1009 2881 1497 
Q 2881 1984 2565 2268 
Q 2250 2553 1709 2553 
Q 1456 2553 1204 2497 
Q 953 2441 691 2322 
L 691 4666 
z
" transform="scale(0.015625)"/>
      <path id="DejaVuSans-19" d="M 2113 2584 
Q 1688 2584 1439 2293 
Q 1191 2003 1191 1497 
Q 1191 994 1439 701 
Q 1688 409 2113 409 
Q 2538 409 2786 701 
Q 3034 994 3034 1497 
Q 3034 2003 2786 2293 
Q 2538 2584 2113 2584 
z
M 3366 4563 
L 3366 3988 
Q 3128 4100 2886 4159 
Q 2644 4219 2406 4219 
Q 1781 4219 1451 3797 
Q 1122 3375 1075 2522 
Q 1259 2794 1537 2939 
Q 1816 3084 2150 3084 
Q 2853 3084 3261 2657 
Q 3669 2231 3669 1497 
Q 3669 778 3244 343 
Q 2819 -91 2113 -91 
Q 1303 -91 875 529 
Q 447 1150 447 2328 
Q 447 3434 972 4092 
Q 1497 4750 2381 4750 
Q 2619 4750 2861 4703 
Q 3103 4656 3366 4563 
z
" transform="scale(0.015625)"/>
     </defs>
     <use xlink:href="#DejaVuSans-18"/>
     <use xlink:href="#DejaVuSans-19" transform="translate(63.625 0)"/>
     <use xlink:href="#DejaVuSans-8" transform="translate(127.25 0)"/>
    </g>
   </g>
   <g id="text_24">
    <!-- 44% -->
    <g style="fill: #262626" transform="translate(105.319553 248.507959) scale(0.1 -0.1)">
     <defs>
      <path id="DejaVuSans-17" d="M 2419 4116 
L 825 1625 
L 2419 1625 
L 2419 4116 
z
M 2253 4666 
L 3047 4666 
L 3047 1625 
L 3713 1625 
L 3713 1100 
L 3047 1100 
L 3047 0 
L 2419 0 
L 2419 1100 
L 313 1100 
L 313 1709 
L 2253 4666 
z
" transform="scale(0.015625)"/>
     </defs>
     <use xlink:href="#DejaVuSans-17"/>
     <use xlink:href="#DejaVuSans-17" transform="translate(63.625 0)"/>
     <use xlink:href="#DejaVuSans-8" transform="translate(127.25 0)"/>
    </g>
   </g>
   <g id="text_25">
    <!-- Pattern -->
    <g style="fill: #262626" transform="translate(76.746377 161.46) scale(0.12 -0.12)">
     <defs>
      <path id="DejaVuSans-33" d="M 1259 4147 
L 1259 2394 
L 2053 2394 
Q 2494 2394 2734 2622 
Q 2975 2850 2975 3272 
Q 2975 3691 2734 3919 
Q 2494 4147 2053 4147 
L 1259 4147 
z
M 628 4666 
L 2053 4666 
Q 2838 4666 3239 4311 
Q 3641 3956 3641 3272 
Q 3641 2581 3239 2228 
Q 2838 1875 2053 1875 
L 1259 1875 
L 1259 0 
L 628 0 
L 628 4666 
z
" transform="scale(0.015625)"/>
     </defs>
     <use xlink:href="#DejaVuSans-33"/>
     <use xlink:href="#DejaVuSans-44" transform="translate(55.8125 0)"/>
     <use xlink:href="#DejaVuSans-57" transform="translate(117.09375 0)"/>
     <use xlink:href="#DejaVuSans-57" transform="translate(156.296875 0)"/>
     <use xlink:href="#DejaVuSans-48" transform="translate(195.5 0)"/>
     <use xlink:href="#DejaVuSans-55" transform="translate(257.03125 0)"/>
     <use xlink:href="#DejaVuSans-51" transform="translate(296.390625 0)"/>
    </g>
   </g>
  </g>
  <g id="axes_6">
   <g id="matplotlib.axis_11"/>
   <g id="matplotlib.axis_12"/>
   <g id="patch_12">
    <path d="M 319.498417 202.445533 
C 316.887674 197.923595 313.526847 193.878389 309.559906 190.483205 
C 305.592964 187.088021 301.077375 184.392041 296.206577 182.510758 
C 291.33578 180.629474 286.180333 179.590138 280.961087 179.437274 
C 275.74184 179.28441 270.534402 180.020231 265.561848 181.613217 
C 260.589293 183.206204 255.923657 185.633278 251.764806 188.790469 
C 247.605955 191.947661 244.014135 195.789233 241.143213 200.150621 
C 238.272291 204.512009 236.163856 209.330033 234.908229 214.398297 
C 233.652601 219.466561 233.267971 224.711645 233.770816 229.90886 
C 234.27366 235.106076 235.656694 240.180134 237.860671 244.913672 
C 240.064649 249.64721 243.057642 253.971657 246.711437 257.701761 
C 250.365232 261.431866 254.6269 264.513593 259.313877 266.814927 
C 264.000855 269.116261 269.045247 270.603865 274.23096 271.214012 
C 279.416673 271.824159 284.668586 271.548011 289.761717 270.397397 
C 294.854849 269.246784 299.715418 267.238372 304.135207 264.4582 
C 308.554997 261.678027 312.469981 258.166368 315.712448 254.073654 
C 318.954916 249.980941 321.477896 245.366461 323.173309 240.427892 
L 279.612751 225.473533 
z
" style="fill: #1f77b4; stroke: #ffffff; stroke-linejoin: miter"/>
   </g>
   <g id="patch_13">
    <path d="M 327.757503 239.984359 
C 329.894797 233.758635 330.672781 227.146453 330.038879 220.594672 
C 329.404977 214.042892 327.373798 207.702504 324.08261 202.002 
L 284.196944 225.03 
z
" style="fill: #ff7f0e; stroke: #ffffff; stroke-linejoin: miter"/>
   </g>
   <g id="text_26">
    <!-- Yes -->
    <g style="fill: #262626" transform="translate(213.044435 232.950049) scale(0.1 -0.1)">
     <use xlink:href="#DejaVuSans-3c"/>
     <use xlink:href="#DejaVuSans-48" transform="translate(47.796875 0)"/>
     <use xlink:href="#DejaVuSans-56" transform="translate(109.328125 0)"/>
    </g>
   </g>
   <g id="text_27">
    <!-- No -->
    <g style="fill: #262626" transform="translate(334.623073 222.748796) scale(0.1 -0.1)">
     <use xlink:href="#DejaVuSans-31"/>
     <use xlink:href="#DejaVuSans-52" transform="translate(74.8125 0)"/>
    </g>
   </g>
   <g id="text_28">
    <!-- 86% -->
    <g style="fill: #262626" transform="translate(240.994308 230.732386) scale(0.1 -0.1)">
     <defs>
      <path id="DejaVuSans-1b" d="M 2034 2216 
Q 1584 2216 1326 1975 
Q 1069 1734 1069 1313 
Q 1069 891 1326 650 
Q 1584 409 2034 409 
Q 2484 409 2743 651 
Q 3003 894 3003 1313 
Q 3003 1734 2745 1975 
Q 2488 2216 2034 2216 
z
M 1403 2484 
Q 997 2584 770 2862 
Q 544 3141 544 3541 
Q 544 4100 942 4425 
Q 1341 4750 2034 4750 
Q 2731 4750 3128 4425 
Q 3525 4100 3525 3541 
Q 3525 3141 3298 2862 
Q 3072 2584 2669 2484 
Q 3125 2378 3379 2068 
Q 3634 1759 3634 1313 
Q 3634 634 3220 271 
Q 2806 -91 2034 -91 
Q 1263 -91 848 271 
Q 434 634 434 1313 
Q 434 1759 690 2068 
Q 947 2378 1403 2484 
z
M 1172 3481 
Q 1172 3119 1398 2916 
Q 1625 2713 2034 2713 
Q 2441 2713 2670 2916 
Q 2900 3119 2900 3481 
Q 2900 3844 2670 4047 
Q 2441 4250 2034 4250 
Q 1625 4250 1398 4047 
Q 1172 3844 1172 3481 
z
" transform="scale(0.015625)"/>
     </defs>
     <use xlink:href="#DejaVuSans-1b"/>
     <use xlink:href="#DejaVuSans-19" transform="translate(63.625 0)"/>
     <use xlink:href="#DejaVuSans-8" transform="translate(127.25 0)"/>
    </g>
   </g>
   <g id="text_29">
    <!-- 14% -->
    <g style="fill: #262626" transform="translate(300.588824 224.96646) scale(0.1 -0.1)">
     <use xlink:href="#DejaVuSans-14"/>
     <use xlink:href="#DejaVuSans-17" transform="translate(63.625 0)"/>
     <use xlink:href="#DejaVuSans-8" transform="translate(127.25 0)"/>
    </g>
   </g>
   <g id="text_30">
    <!-- Provider -->
    <g style="fill: #262626" transform="translate(259.492882 161.46) scale(0.12 -0.12)">
     <defs>
      <path id="DejaVuSans-59" d="M 191 3500 
L 800 3500 
L 1894 563 
L 2988 3500 
L 3597 3500 
L 2284 0 
L 1503 0 
L 191 3500 
z
" transform="scale(0.015625)"/>
      <path id="DejaVuSans-47" d="M 2906 2969 
L 2906 4863 
L 3481 4863 
L 3481 0 
L 2906 0 
L 2906 525 
Q 2725 213 2448 61 
Q 2172 -91 1784 -91 
Q 1150 -91 751 415 
Q 353 922 353 1747 
Q 353 2572 751 3078 
Q 1150 3584 1784 3584 
Q 2172 3584 2448 3432 
Q 2725 3281 2906 2969 
z
M 947 1747 
Q 947 1113 1208 752 
Q 1469 391 1925 391 
Q 2381 391 2643 752 
Q 2906 1113 2906 1747 
Q 2906 2381 2643 2742 
Q 2381 3103 1925 3103 
Q 1469 3103 1208 2742 
Q 947 2381 947 1747 
z
" transform="scale(0.015625)"/>
     </defs>
     <use xlink:href="#DejaVuSans-33"/>
     <use xlink:href="#DejaVuSans-55" transform="translate(58.546875 0)"/>
     <use xlink:href="#DejaVuSans-52" transform="translate(97.453125 0)"/>
     <use xlink:href="#DejaVuSans-59" transform="translate(158.640625 0)"/>
     <use xlink:href="#DejaVuSans-4c" transform="translate(217.828125 0)"/>
     <use xlink:href="#DejaVuSans-47" transform="translate(245.609375 0)"/>
     <use xlink:href="#DejaVuSans-48" transform="translate(309.09375 0)"/>
     <use xlink:href="#DejaVuSans-55" transform="translate(370.625 0)"/>
    </g>
   </g>
  </g>
  <g id="axes_7">
   <g id="matplotlib.axis_13"/>
   <g id="matplotlib.axis_14"/>
   <g id="patch_14">
    <path d="M 509.126662 197.47009 
C 504.383485 189.254667 497.215934 182.701942 488.609194 178.71259 
C 480.002453 174.723238 470.369791 173.488816 461.03522 175.178995 
C 451.70065 176.869175 443.112388 181.402798 436.450895 188.156717 
C 429.789402 194.910636 425.374542 203.56055 423.81314 212.917522 
L 469.240996 220.49809 
z
" style="fill: #1f77b4; stroke: #ffffff; stroke-linejoin: miter"/>
   </g>
   <g id="patch_15">
    <path d="M 424.633717 217.449432 
C 423.418066 224.734432 423.972443 232.206087 426.24992 239.231906 
C 428.527397 246.257726 432.461843 252.633703 437.7202 257.820101 
C 442.978557 263.006498 449.408141 266.85272 456.464673 269.033175 
C 463.521206 271.213631 470.99979 271.665008 478.267349 270.349095 
C 485.534908 269.033183 492.380417 265.988191 498.224389 261.471885 
C 504.068362 256.955578 508.741109 251.099095 511.847074 244.398198 
C 514.953039 237.697301 516.402035 230.346561 516.071401 222.968234 
C 515.740768 215.589906 513.640106 208.398232 509.947239 202.002 
L 470.061573 225.03 
z
" style="fill: #ff7f0e; stroke: #ffffff; stroke-linejoin: miter"/>
   </g>
   <g id="text_31">
    <!-- Yes -->
    <g style="fill: #262626" transform="translate(444.072455 173.244742) scale(0.1 -0.1)">
     <use xlink:href="#DejaVuSans-3c"/>
     <use xlink:href="#DejaVuSans-48" transform="translate(47.796875 0)"/>
     <use xlink:href="#DejaVuSans-56" transform="translate(109.328125 0)"/>
    </g>
   </g>
   <g id="text_32">
    <!-- No -->
    <g style="fill: #262626" transform="translate(479.087927 277.478661) scale(0.1 -0.1)">
     <use xlink:href="#DejaVuSans-31"/>
     <use xlink:href="#DejaVuSans-52" transform="translate(74.8125 0)"/>
    </g>
   </g>
   <g id="text_33">
    <!-- 39% -->
    <g style="fill: #262626" transform="translate(453.204249 195.90429) scale(0.1 -0.1)">
     <defs>
      <path id="DejaVuSans-16" d="M 2597 2516 
Q 3050 2419 3304 2112 
Q 3559 1806 3559 1356 
Q 3559 666 3084 287 
Q 2609 -91 1734 -91 
Q 1441 -91 1130 -33 
Q 819 25 488 141 
L 488 750 
Q 750 597 1062 519 
Q 1375 441 1716 441 
Q 2309 441 2620 675 
Q 2931 909 2931 1356 
Q 2931 1769 2642 2001 
Q 2353 2234 1838 2234 
L 1294 2234 
L 1294 2753 
L 1863 2753 
Q 2328 2753 2575 2939 
Q 2822 3125 2822 3475 
Q 2822 3834 2567 4026 
Q 2313 4219 1838 4219 
Q 1578 4219 1281 4162 
Q 984 4106 628 3988 
L 628 4550 
Q 988 4650 1302 4700 
Q 1616 4750 1894 4750 
Q 2613 4750 3031 4423 
Q 3450 4097 3450 3541 
Q 3450 3153 3228 2886 
Q 3006 2619 2597 2516 
z
" transform="scale(0.015625)"/>
     </defs>
     <use xlink:href="#DejaVuSans-16"/>
     <use xlink:href="#DejaVuSans-1c" transform="translate(63.625 0)"/>
     <use xlink:href="#DejaVuSans-8" transform="translate(127.25 0)"/>
    </g>
   </g>
   <g id="text_34">
    <!-- 61% -->
    <g style="fill: #262626" transform="translate(463.871758 254.819113) scale(0.1 -0.1)">
     <use xlink:href="#DejaVuSans-19"/>
     <use xlink:href="#DejaVuSans-14" transform="translate(63.625 0)"/>
     <use xlink:href="#DejaVuSans-8" transform="translate(127.25 0)"/>
    </g>
   </g>
   <g id="text_35">
    <!-- License -->
    <g style="fill: #262626" transform="translate(447.440636 161.46) scale(0.12 -0.12)">
     <defs>
      <path id="DejaVuSans-2f" d="M 628 4666 
L 1259 4666 
L 1259 531 
L 3531 531 
L 3531 0 
L 628 0 
L 628 4666 
z
" transform="scale(0.015625)"/>
     </defs>
     <use xlink:href="#DejaVuSans-2f"/>
     <use xlink:href="#DejaVuSans-4c" transform="translate(55.71875 0)"/>
     <use xlink:href="#DejaVuSans-46" transform="translate(83.5 0)"/>
     <use xlink:href="#DejaVuSans-48" transform="translate(138.484375 0)"/>
     <use xlink:href="#DejaVuSans-51" transform="translate(200.015625 0)"/>
     <use xlink:href="#DejaVuSans-56" transform="translate(263.390625 0)"/>
     <use xlink:href="#DejaVuSans-48" transform="translate(315.484375 0)"/>
    </g>
   </g>
  </g>
  <g id="axes_8">
   <g id="matplotlib.axis_15"/>
   <g id="matplotlib.axis_16"/>
   <g id="patch_16">
    <path d="M 695.811869 202.002 
C 691.714814 194.905694 685.797216 189.029706 678.672175 184.982829 
C 671.547134 180.935952 663.469521 178.862946 655.276228 178.978587 
C 647.082935 179.094228 639.067045 181.39438 632.059056 185.640732 
C 625.051067 189.887084 619.301661 195.927741 615.406515 203.13685 
L 655.926203 225.03 
z
" style="fill: #1f77b4; stroke: #ffffff; stroke-linejoin: miter"/>
   </g>
   <g id="patch_17">
    <path d="M 615.406515 203.13685 
C 611.741676 209.919708 609.837974 217.51545 609.870616 225.224998 
C 609.903258 232.934546 611.871211 240.513897 615.593354 247.265478 
C 619.315497 254.017059 624.674026 259.727187 631.175764 263.870326 
C 637.677502 268.013465 645.116672 270.458486 652.808606 270.980362 
L 655.926203 225.03 
z
" style="fill: #ff7f0e; stroke: #ffffff; stroke-linejoin: miter"/>
   </g>
   <g id="patch_18">
    <path d="M 652.808606 270.980362 
C 664.129254 271.748434 675.343879 268.306506 684.284522 261.319955 
C 693.225166 254.333404 699.276026 244.283441 701.267379 233.112876 
L 655.926203 225.03 
z
" style="fill: #2ca02c; stroke: #ffffff; stroke-linejoin: miter"/>
   </g>
   <g id="patch_19">
    <path d="M 701.267379 233.112876 
C 702.013855 228.925491 702.176671 224.65481 701.751178 220.422745 
C 701.325685 216.19068 700.315971 212.037886 698.750859 208.082908 
L 655.926203 225.03 
z
" style="fill: #d62728; stroke: #ffffff; stroke-linejoin: miter"/>
   </g>
   <g id="patch_20">
    <path d="M 698.750859 208.082908 
C 698.336239 207.035178 697.883308 206.003017 697.392981 204.988508 
C 696.902655 203.973999 696.375262 202.977826 695.811869 202.002 
L 655.926203 225.03 
z
" style="fill: #9467bd; stroke: #ffffff; stroke-linejoin: miter"/>
   </g>
   <g id="text_36">
    <!-- CC-BY-4.0 -->
    <g style="fill: #262626" transform="translate(607.247168 176.971102) scale(0.1 -0.1)">
     <defs>
      <path id="DejaVuSans-26" d="M 4122 4306 
L 4122 3641 
Q 3803 3938 3442 4084 
Q 3081 4231 2675 4231 
Q 1875 4231 1450 3742 
Q 1025 3253 1025 2328 
Q 1025 1406 1450 917 
Q 1875 428 2675 428 
Q 3081 428 3442 575 
Q 3803 722 4122 1019 
L 4122 359 
Q 3791 134 3420 21 
Q 3050 -91 2638 -91 
Q 1578 -91 968 557 
Q 359 1206 359 2328 
Q 359 3453 968 4101 
Q 1578 4750 2638 4750 
Q 3056 4750 3426 4639 
Q 3797 4528 4122 4306 
z
" transform="scale(0.015625)"/>
      <path id="DejaVuSans-10" d="M 313 2009 
L 1997 2009 
L 1997 1497 
L 313 1497 
L 313 2009 
z
" transform="scale(0.015625)"/>
      <path id="DejaVuSans-25" d="M 1259 2228 
L 1259 519 
L 2272 519 
Q 2781 519 3026 730 
Q 3272 941 3272 1375 
Q 3272 1813 3026 2020 
Q 2781 2228 2272 2228 
L 1259 2228 
z
M 1259 4147 
L 1259 2741 
L 2194 2741 
Q 2656 2741 2882 2914 
Q 3109 3088 3109 3444 
Q 3109 3797 2882 3972 
Q 2656 4147 2194 4147 
L 1259 4147 
z
M 628 4666 
L 2241 4666 
Q 2963 4666 3353 4366 
Q 3744 4066 3744 3513 
Q 3744 3084 3544 2831 
Q 3344 2578 2956 2516 
Q 3422 2416 3680 2098 
Q 3938 1781 3938 1306 
Q 3938 681 3513 340 
Q 3088 0 2303 0 
L 628 0 
L 628 4666 
z
" transform="scale(0.015625)"/>
      <path id="DejaVuSans-11" d="M 684 794 
L 1344 794 
L 1344 0 
L 684 0 
L 684 794 
z
" transform="scale(0.015625)"/>
     </defs>
     <use xlink:href="#DejaVuSans-26"/>
     <use xlink:href="#DejaVuSans-26" transform="translate(69.828125 0)"/>
     <use xlink:href="#DejaVuSans-10" transform="translate(139.65625 0)"/>
     <use xlink:href="#DejaVuSans-25" transform="translate(172.171875 0)"/>
     <use xlink:href="#DejaVuSans-3c" transform="translate(235.3125 0)"/>
     <use xlink:href="#DejaVuSans-10" transform="translate(284.53125 0)"/>
     <use xlink:href="#DejaVuSans-17" transform="translate(320.609375 0)"/>
     <use xlink:href="#DejaVuSans-11" transform="translate(384.234375 0)"/>
     <use xlink:href="#DejaVuSans-13" transform="translate(416.015625 0)"/>
    </g>
   </g>
   <g id="text_37">
    <!-- CC0-1.0 -->
    <g style="fill: #262626" transform="translate(571.721007 252.086682) scale(0.1 -0.1)">
     <use xlink:href="#DejaVuSans-26"/>
     <use xlink:href="#DejaVuSans-26" transform="translate(69.828125 0)"/>
     <use xlink:href="#DejaVuSans-13" transform="translate(139.65625 0)"/>
     <use xlink:href="#DejaVuSans-10" transform="translate(203.28125 0)"/>
     <use xlink:href="#DejaVuSans-14" transform="translate(239.359375 0)"/>
     <use xlink:href="#DejaVuSans-11" transform="translate(302.984375 0)"/>
     <use xlink:href="#DejaVuSans-13" transform="translate(334.765625 0)"/>
    </g>
   </g>
   <g id="text_38">
    <!-- Other -->
    <g style="fill: #262626" transform="translate(687.120354 267.546998) scale(0.1 -0.1)">
     <defs>
      <path id="DejaVuSans-32" d="M 2522 4238 
Q 1834 4238 1429 3725 
Q 1025 3213 1025 2328 
Q 1025 1447 1429 934 
Q 1834 422 2522 422 
Q 3209 422 3611 934 
Q 4013 1447 4013 2328 
Q 4013 3213 3611 3725 
Q 3209 4238 2522 4238 
z
M 2522 4750 
Q 3503 4750 4090 4092 
Q 4678 3434 4678 2328 
Q 4678 1225 4090 567 
Q 3503 -91 2522 -91 
Q 1538 -91 948 565 
Q 359 1222 359 2328 
Q 359 3434 948 4092 
Q 1538 4750 2522 4750 
z
" transform="scale(0.015625)"/>
      <path id="DejaVuSans-4b" d="M 3513 2113 
L 3513 0 
L 2938 0 
L 2938 2094 
Q 2938 2591 2744 2837 
Q 2550 3084 2163 3084 
Q 1697 3084 1428 2787 
Q 1159 2491 1159 1978 
L 1159 0 
L 581 0 
L 581 4863 
L 1159 4863 
L 1159 2956 
Q 1366 3272 1645 3428 
Q 1925 3584 2291 3584 
Q 2894 3584 3203 3211 
Q 3513 2838 3513 2113 
z
" transform="scale(0.015625)"/>
     </defs>
     <use xlink:href="#DejaVuSans-32"/>
     <use xlink:href="#DejaVuSans-57" transform="translate(78.71875 0)"/>
     <use xlink:href="#DejaVuSans-4b" transform="translate(117.921875 0)"/>
     <use xlink:href="#DejaVuSans-48" transform="translate(181.296875 0)"/>
     <use xlink:href="#DejaVuSans-55" transform="translate(242.828125 0)"/>
    </g>
   </g>
   <g id="text_39">
    <!-- CC-BY-3.0 -->
    <g style="fill: #262626" transform="translate(706.333675 222.559676) scale(0.1 -0.1)">
     <use xlink:href="#DejaVuSans-26"/>
     <use xlink:href="#DejaVuSans-26" transform="translate(69.828125 0)"/>
     <use xlink:href="#DejaVuSans-10" transform="translate(139.65625 0)"/>
     <use xlink:href="#DejaVuSans-25" transform="translate(172.171875 0)"/>
     <use xlink:href="#DejaVuSans-3c" transform="translate(235.3125 0)"/>
     <use xlink:href="#DejaVuSans-10" transform="translate(284.53125 0)"/>
     <use xlink:href="#DejaVuSans-16" transform="translate(320.609375 0)"/>
     <use xlink:href="#DejaVuSans-11" transform="translate(384.234375 0)"/>
     <use xlink:href="#DejaVuSans-13" transform="translate(416.015625 0)"/>
    </g>
   </g>
   <g id="text_40">
    <!-- CC-BY-SA-4.0 -->
    <g style="fill: #262626" transform="translate(701.539659 205.582015) scale(0.1 -0.1)">
     <defs>
      <path id="DejaVuSans-36" d="M 3425 4513 
L 3425 3897 
Q 3066 4069 2747 4153 
Q 2428 4238 2131 4238 
Q 1616 4238 1336 4038 
Q 1056 3838 1056 3469 
Q 1056 3159 1242 3001 
Q 1428 2844 1947 2747 
L 2328 2669 
Q 3034 2534 3370 2195 
Q 3706 1856 3706 1288 
Q 3706 609 3251 259 
Q 2797 -91 1919 -91 
Q 1588 -91 1214 -16 
Q 841 59 441 206 
L 441 856 
Q 825 641 1194 531 
Q 1563 422 1919 422 
Q 2459 422 2753 634 
Q 3047 847 3047 1241 
Q 3047 1584 2836 1778 
Q 2625 1972 2144 2069 
L 1759 2144 
Q 1053 2284 737 2584 
Q 422 2884 422 3419 
Q 422 4038 858 4394 
Q 1294 4750 2059 4750 
Q 2388 4750 2728 4690 
Q 3069 4631 3425 4513 
z
" transform="scale(0.015625)"/>
      <path id="DejaVuSans-24" d="M 2188 4044 
L 1331 1722 
L 3047 1722 
L 2188 4044 
z
M 1831 4666 
L 2547 4666 
L 4325 0 
L 3669 0 
L 3244 1197 
L 1141 1197 
L 716 0 
L 50 0 
L 1831 4666 
z
" transform="scale(0.015625)"/>
     </defs>
     <use xlink:href="#DejaVuSans-26"/>
     <use xlink:href="#DejaVuSans-26" transform="translate(69.828125 0)"/>
     <use xlink:href="#DejaVuSans-10" transform="translate(139.65625 0)"/>
     <use xlink:href="#DejaVuSans-25" transform="translate(172.171875 0)"/>
     <use xlink:href="#DejaVuSans-3c" transform="translate(235.3125 0)"/>
     <use xlink:href="#DejaVuSans-10" transform="translate(284.53125 0)"/>
     <use xlink:href="#DejaVuSans-36" transform="translate(320.609375 0)"/>
     <use xlink:href="#DejaVuSans-24" transform="translate(385.953125 0)"/>
     <use xlink:href="#DejaVuSans-10" transform="translate(452.15625 0)"/>
     <use xlink:href="#DejaVuSans-17" transform="translate(488.234375 0)"/>
     <use xlink:href="#DejaVuSans-11" transform="translate(551.859375 0)"/>
     <use xlink:href="#DejaVuSans-13" transform="translate(583.640625 0)"/>
    </g>
   </g>
   <g id="text_41">
    <!-- 34% -->
    <g style="fill: #262626" transform="translate(644.422937 199.996808) scale(0.1 -0.1)">
     <use xlink:href="#DejaVuSans-16"/>
     <use xlink:href="#DejaVuSans-17" transform="translate(63.625 0)"/>
     <use xlink:href="#DejaVuSans-8" transform="translate(127.25 0)"/>
    </g>
   </g>
   <g id="text_42">
    <!-- 32% -->
    <g style="fill: #262626" transform="translate(620.613212 240.968943) scale(0.1 -0.1)">
     <defs>
      <path id="DejaVuSans-15" d="M 1228 531 
L 3431 531 
L 3431 0 
L 469 0 
L 469 531 
Q 828 903 1448 1529 
Q 2069 2156 2228 2338 
Q 2531 2678 2651 2914 
Q 2772 3150 2772 3378 
Q 2772 3750 2511 3984 
Q 2250 4219 1831 4219 
Q 1534 4219 1204 4116 
Q 875 4013 500 3803 
L 500 4441 
Q 881 4594 1212 4672 
Q 1544 4750 1819 4750 
Q 2544 4750 2975 4387 
Q 3406 4025 3406 3419 
Q 3406 3131 3298 2873 
Q 3191 2616 2906 2266 
Q 2828 2175 2409 1742 
Q 1991 1309 1228 531 
z
" transform="scale(0.015625)"/>
     </defs>
     <use xlink:href="#DejaVuSans-16"/>
     <use xlink:href="#DejaVuSans-15" transform="translate(63.625 0)"/>
     <use xlink:href="#DejaVuSans-8" transform="translate(127.25 0)"/>
    </g>
   </g>
   <g id="text_43">
    <!-- 23% -->
    <g style="fill: #262626" transform="translate(661.827913 249.401629) scale(0.1 -0.1)">
     <use xlink:href="#DejaVuSans-15"/>
     <use xlink:href="#DejaVuSans-16" transform="translate(63.625 0)"/>
     <use xlink:href="#DejaVuSans-8" transform="translate(127.25 0)"/>
    </g>
   </g>
   <g id="text_44">
    <!-- 9% -->
    <g style="fill: #262626" transform="translate(675.489157 224.863303) scale(0.1 -0.1)">
     <use xlink:href="#DejaVuSans-1c"/>
     <use xlink:href="#DejaVuSans-8" transform="translate(63.625 0)"/>
    </g>
   </g>
   <g id="text_45">
    <!-- 2% -->
    <g style="fill: #262626" transform="translate(672.874239 215.602761) scale(0.1 -0.1)">
     <use xlink:href="#DejaVuSans-15"/>
     <use xlink:href="#DejaVuSans-8" transform="translate(63.625 0)"/>
    </g>
   </g>
   <g id="text_46">
    <!-- License Type -->
    <g style="fill: #262626" transform="translate(617.616203 161.46) scale(0.12 -0.12)">
     <defs>
      <path id="DejaVuSans-3" transform="scale(0.015625)"/>
      <path id="DejaVuSans-37" d="M -19 4666 
L 3928 4666 
L 3928 4134 
L 2272 4134 
L 2272 0 
L 1638 0 
L 1638 4134 
L -19 4134 
L -19 4666 
z
" transform="scale(0.015625)"/>
      <path id="DejaVuSans-5c" d="M 2059 -325 
Q 1816 -950 1584 -1140 
Q 1353 -1331 966 -1331 
L 506 -1331 
L 506 -850 
L 844 -850 
Q 1081 -850 1212 -737 
Q 1344 -625 1503 -206 
L 1606 56 
L 191 3500 
L 800 3500 
L 1894 763 
L 2988 3500 
L 3597 3500 
L 2059 -325 
z
" transform="scale(0.015625)"/>
     </defs>
     <use xlink:href="#DejaVuSans-2f"/>
     <use xlink:href="#DejaVuSans-4c" transform="translate(55.71875 0)"/>
     <use xlink:href="#DejaVuSans-46" transform="translate(83.5 0)"/>
     <use xlink:href="#DejaVuSans-48" transform="translate(138.484375 0)"/>
     <use xlink:href="#DejaVuSans-51" transform="translate(200.015625 0)"/>
     <use xlink:href="#DejaVuSans-56" transform="translate(263.390625 0)"/>
     <use xlink:href="#DejaVuSans-48" transform="translate(315.484375 0)"/>
     <use xlink:href="#DejaVuSans-3" transform="translate(377.015625 0)"/>
     <use xlink:href="#DejaVuSans-37" transform="translate(408.796875 0)"/>
     <use xlink:href="#DejaVuSans-5c" transform="translate(454.296875 0)"/>
     <use xlink:href="#DejaVuSans-53" transform="translate(513.484375 0)"/>
     <use xlink:href="#DejaVuSans-48" transform="translate(576.96875 0)"/>
    </g>
   </g>
  </g>
  <g id="axes_9">
   <g id="matplotlib.axis_17"/>
   <g id="matplotlib.axis_18"/>
   <g id="patch_21">
    <path d="M 141.414255 339.986071 
C 139.260149 336.255051 136.593144 332.844669 133.491328 329.854783 
C 130.389513 326.864896 126.883459 324.324972 123.075825 322.309382 
L 101.528589 363.014071 
z
" style="fill: #1f77b4; stroke: #ffffff; stroke-linejoin: miter"/>
   </g>
   <g id="patch_22">
    <path d="M 119.879551 325.625311 
C 115.0136 323.049495 109.724963 321.366959 104.265174 320.657729 
C 98.805384 319.948499 93.262397 320.223999 87.899843 321.471125 
C 82.537289 322.718251 77.441557 324.916914 72.855005 327.962542 
C 68.268453 331.00817 64.264968 334.8517 61.034962 339.310328 
C 57.804956 343.768957 55.400462 348.770858 53.93584 354.078135 
C 52.471219 359.385412 51.970064 364.912569 52.456211 370.396724 
C 52.942358 375.88088 54.407977 381.23369 56.783359 386.200567 
C 59.158742 391.167444 62.405622 395.668375 66.369575 399.489289 
C 70.333528 403.310203 74.950697 406.389548 80.001482 408.580866 
C 85.052267 410.772185 90.455304 412.040175 95.953617 412.324532 
C 101.45193 412.608888 106.956946 411.905028 112.206837 410.246429 
C 117.456728 408.587831 122.366923 406.001212 126.703886 402.609596 
C 131.040849 399.21798 134.734714 395.076004 137.609797 390.380665 
C 140.48488 385.685327 142.494865 380.512264 143.544153 375.107516 
C 144.593442 369.702769 144.665131 364.153402 143.755811 358.723352 
C 142.846492 353.293302 140.970811 348.070042 138.217981 343.302 
L 98.332315 366.33 
z
" style="fill: #ff7f0e; stroke: #ffffff; stroke-linejoin: miter"/>
   </g>
   <g id="text_47">
    <!-- Yes -->
    <g style="fill: #262626" transform="translate(136.687602 329.13651) scale(0.1 -0.1)">
     <use xlink:href="#DejaVuSans-3c"/>
     <use xlink:href="#DejaVuSans-48" transform="translate(47.796875 0)"/>
     <use xlink:href="#DejaVuSans-56" transform="translate(109.328125 0)"/>
    </g>
   </g>
   <g id="text_48">
    <!-- No -->
    <g style="fill: #262626" transform="translate(49.573301 405.402874) scale(0.1 -0.1)">
     <use xlink:href="#DejaVuSans-31"/>
     <use xlink:href="#DejaVuSans-52" transform="translate(74.8125 0)"/>
    </g>
   </g>
   <g id="text_49">
    <!-- 9% -->
    <g style="fill: #262626" transform="translate(112.774201 345.716154) scale(0.1 -0.1)">
     <use xlink:href="#DejaVuSans-1c"/>
     <use xlink:href="#DejaVuSans-8" transform="translate(63.625 0)"/>
    </g>
   </g>
   <g id="text_50">
    <!-- 91% -->
    <g style="fill: #262626" transform="translate(68.04139 388.823229) scale(0.1 -0.1)">
     <use xlink:href="#DejaVuSans-1c"/>
     <use xlink:href="#DejaVuSans-14" transform="translate(63.625 0)"/>
     <use xlink:href="#DejaVuSans-8" transform="translate(127.25 0)"/>
    </g>
   </g>
   <g id="text_51">
    <!-- Version -->
    <g style="fill: #262626" transform="translate(76.26919 302.76) scale(0.12 -0.12)">
     <defs>
      <path id="DejaVuSans-39" d="M 1831 0 
L 50 4666 
L 709 4666 
L 2188 738 
L 3669 4666 
L 4325 4666 
L 2547 0 
L 1831 0 
z
" transform="scale(0.015625)"/>
     </defs>
     <use xlink:href="#DejaVuSans-39"/>
     <use xlink:href="#DejaVuSans-48" transform="translate(60.640625 0)"/>
     <use xlink:href="#DejaVuSans-55" transform="translate(122.171875 0)"/>
     <use xlink:href="#DejaVuSans-56" transform="translate(163.28125 0)"/>
     <use xlink:href="#DejaVuSans-4c" transform="translate(215.375 0)"/>
     <use xlink:href="#DejaVuSans-52" transform="translate(243.15625 0)"/>
     <use xlink:href="#DejaVuSans-51" transform="translate(304.34375 0)"/>
    </g>
   </g>
  </g>
  <g id="axes_10">
   <g id="matplotlib.axis_19"/>
   <g id="matplotlib.axis_20"/>
   <g id="patch_23">
    <path d="M 323.455253 338.739328 
C 318.878782 330.812647 312.041589 324.427315 303.820977 320.402653 
C 295.600365 316.377991 286.363648 314.893831 277.296018 316.140609 
C 268.228388 317.387388 259.735007 321.309396 252.905687 327.403388 
C 246.076366 333.497381 241.216256 341.491066 238.94897 350.358748 
L 283.569587 361.767328 
z
" style="fill: #1f77b4; stroke: #ffffff; stroke-linejoin: miter"/>
   </g>
   <g id="patch_24">
    <path d="M 239.576327 354.92142 
C 237.705822 362.237237 237.662917 369.902032 239.451403 377.238331 
C 241.239889 384.574631 244.805474 391.359727 249.833004 396.9939 
C 254.860534 402.628074 261.197389 406.940289 268.283468 409.549399 
C 275.369547 412.158508 282.989739 412.985308 290.470513 411.956719 
C 297.951287 410.92813 305.065549 408.075376 311.184486 403.650607 
C 317.303423 399.225838 322.241283 393.363376 325.561619 386.58139 
C 328.881956 379.799404 330.483974 372.303774 330.226075 364.757023 
C 329.968176 357.210271 327.858189 349.841494 324.08261 343.302 
L 284.196944 366.33 
z
" style="fill: #ff7f0e; stroke: #ffffff; stroke-linejoin: miter"/>
   </g>
   <g id="text_52">
    <!-- Yes -->
    <g style="fill: #262626" transform="translate(260.526474 314.175594) scale(0.1 -0.1)">
     <use xlink:href="#DejaVuSans-3c"/>
     <use xlink:href="#DejaVuSans-48" transform="translate(47.796875 0)"/>
     <use xlink:href="#DejaVuSans-56" transform="translate(109.328125 0)"/>
    </g>
   </g>
   <g id="text_53">
    <!-- No -->
    <g style="fill: #262626" transform="translate(291.09787 419.117047) scale(0.1 -0.1)">
     <use xlink:href="#DejaVuSans-31"/>
     <use xlink:href="#DejaVuSans-52" transform="translate(74.8125 0)"/>
    </g>
   </g>
   <g id="text_54">
    <!-- 38% -->
    <g style="fill: #262626" transform="translate(268.692164 336.988953) scale(0.1 -0.1)">
     <use xlink:href="#DejaVuSans-16"/>
     <use xlink:href="#DejaVuSans-1b" transform="translate(63.625 0)"/>
     <use xlink:href="#DejaVuSans-8" transform="translate(127.25 0)"/>
    </g>
   </g>
   <g id="text_55">
    <!-- 62% -->
    <g style="fill: #262626" transform="translate(276.847804 396.303688) scale(0.1 -0.1)">
     <use xlink:href="#DejaVuSans-19"/>
     <use xlink:href="#DejaVuSans-15" transform="translate(63.625 0)"/>
     <use xlink:href="#DejaVuSans-8" transform="translate(127.25 0)"/>
    </g>
   </g>
   <g id="text_56">
    <!-- Contact Email -->
    <g style="fill: #262626" transform="translate(242.300069 302.76) scale(0.12 -0.12)">
     <use xlink:href="#DejaVuSans-26"/>
     <use xlink:href="#DejaVuSans-52" transform="translate(69.828125 0)"/>
     <use xlink:href="#DejaVuSans-51" transform="translate(131.015625 0)"/>
     <use xlink:href="#DejaVuSans-57" transform="translate(194.390625 0)"/>
     <use xlink:href="#DejaVuSans-44" transform="translate(233.59375 0)"/>
     <use xlink:href="#DejaVuSans-46" transform="translate(294.875 0)"/>
     <use xlink:href="#DejaVuSans-57" transform="translate(349.859375 0)"/>
     <use xlink:href="#DejaVuSans-3" transform="translate(389.0625 0)"/>
     <use xlink:href="#DejaVuSans-28" transform="translate(420.84375 0)"/>
     <use xlink:href="#DejaVuSans-50" transform="translate(484.03125 0)"/>
     <use xlink:href="#DejaVuSans-44" transform="translate(581.4375 0)"/>
     <use xlink:href="#DejaVuSans-4c" transform="translate(642.71875 0)"/>
     <use xlink:href="#DejaVuSans-4f" transform="translate(670.5 0)"/>
    </g>
   </g>
  </g>
  <g id="axes_11">
   <g id="matplotlib.axis_21"/>
   <g id="matplotlib.axis_22"/>
   <g id="patch_25">
    <path d="M 513.15871 340.000786 
C 511.040029 336.331125 508.425011 332.971349 505.387745 330.016651 
C 502.350479 327.061953 498.919924 324.540504 495.193277 322.523743 
L 473.273044 363.028786 
z
" style="fill: #1f77b4; stroke: #ffffff; stroke-linejoin: miter"/>
   </g>
   <g id="patch_26">
    <path d="M 491.981807 325.824957 
C 487.131909 323.200323 481.849808 321.467957 476.387529 320.710515 
C 470.92525 319.953072 465.371071 320.182795 459.989997 321.388722 
C 454.608924 322.594649 449.487922 324.75729 444.871329 327.773461 
C 440.254737 330.789631 436.217164 334.610585 432.951256 339.054013 
C 429.685348 343.497441 427.243885 348.491532 425.743358 353.798003 
C 424.242832 359.104473 423.70749 364.637564 424.162878 370.133274 
C 424.618266 375.628985 426.057022 380.998497 428.4105 385.985616 
C 430.763978 390.972734 433.994142 395.496861 437.946872 399.342135 
C 441.899602 403.18741 446.511015 406.291689 451.561089 408.506856 
C 456.611163 410.722024 462.01828 412.012281 467.524452 412.316065 
C 473.030623 412.619849 478.546862 411.93225 483.809972 410.286077 
C 489.073081 408.639903 493.998003 406.061759 498.349754 402.674655 
C 502.701505 399.287551 506.409756 395.146228 509.297574 390.44828 
C 512.185392 385.750331 514.206106 380.571684 515.263303 375.159425 
C 516.3205 369.747166 516.397094 364.188766 515.48943 358.749432 
C 514.581765 353.310097 512.704512 348.077736 509.947239 343.302 
L 470.061573 366.33 
z
" style="fill: #ff7f0e; stroke: #ffffff; stroke-linejoin: miter"/>
   </g>
   <g id="text_57">
    <!-- Yes -->
    <g style="fill: #262626" transform="translate(508.599215 329.313094) scale(0.1 -0.1)">
     <use xlink:href="#DejaVuSans-3c"/>
     <use xlink:href="#DejaVuSans-48" transform="translate(47.796875 0)"/>
     <use xlink:href="#DejaVuSans-56" transform="translate(109.328125 0)"/>
    </g>
   </g>
   <g id="text_58">
    <!-- No -->
    <g style="fill: #262626" transform="translate(421.135402 405.241005) scale(0.1 -0.1)">
     <use xlink:href="#DejaVuSans-31"/>
     <use xlink:href="#DejaVuSans-52" transform="translate(74.8125 0)"/>
    </g>
   </g>
   <g id="text_59">
    <!-- 9% -->
    <g style="fill: #262626" transform="translate(484.609833 345.819161) scale(0.1 -0.1)">
     <use xlink:href="#DejaVuSans-1c"/>
     <use xlink:href="#DejaVuSans-8" transform="translate(63.625 0)"/>
    </g>
   </g>
   <g id="text_60">
    <!-- 91% -->
    <g style="fill: #262626" transform="translate(439.679471 388.734938) scale(0.1 -0.1)">
     <use xlink:href="#DejaVuSans-1c"/>
     <use xlink:href="#DejaVuSans-14" transform="translate(63.625 0)"/>
     <use xlink:href="#DejaVuSans-8" transform="translate(127.25 0)"/>
    </g>
   </g>
   <g id="text_61">
    <!-- OBO -->
    <g style="fill: #262626" transform="translate(456.603761 302.76) scale(0.12 -0.12)">
     <use xlink:href="#DejaVuSans-32"/>
     <use xlink:href="#DejaVuSans-25" transform="translate(78.71875 0)"/>
     <use xlink:href="#DejaVuSans-32" transform="translate(145.578125 0)"/>
    </g>
   </g>
  </g>
  <g id="axes_12">
   <g id="matplotlib.axis_23"/>
   <g id="matplotlib.axis_24"/>
   <g id="patch_27">
    <path d="M 697.825125 339.159736 
C 693.226141 331.194061 686.344652 324.785827 678.072024 320.765098 
C 669.799396 316.744369 660.508935 315.292581 651.404042 316.597787 
L 657.939459 362.187736 
z
" style="fill: #1f77b4; stroke: #ffffff; stroke-linejoin: miter"/>
   </g>
   <g id="patch_28">
    <path d="M 649.390786 320.740051 
C 644.542735 321.435029 639.836428 322.898895 635.449506 325.076394 
C 631.062584 327.253893 627.050945 330.117279 623.566009 333.558472 
C 620.081074 336.999666 617.167248 340.97482 614.934515 345.33389 
C 612.701781 349.69296 611.17859 354.380402 610.422435 359.219288 
C 609.666279 364.058174 609.686794 368.986846 610.483206 373.819269 
C 611.279617 378.651693 612.841777 383.326293 615.110721 387.666625 
C 617.379665 392.006957 620.326481 395.957716 623.839943 399.36978 
C 627.353404 402.781843 631.388741 405.611735 635.793638 407.752638 
C 640.198535 409.893542 644.916865 411.318179 649.770533 411.972775 
C 654.624201 412.627371 659.551361 412.503585 664.366036 411.60609 
C 669.18071 410.708596 673.821551 409.048828 678.113387 406.689435 
C 682.405222 404.330043 686.293367 401.301089 689.631061 397.716903 
C 692.968755 394.132717 695.713468 390.038969 697.761602 385.590179 
C 699.809736 381.141388 701.135193 376.394242 701.687941 371.527924 
C 702.24069 366.661605 702.013689 361.738121 701.015505 356.943309 
C 700.017321 352.148498 698.260674 347.543455 695.811869 343.302 
L 655.926203 366.33 
z
" style="fill: #ff7f0e; stroke: #ffffff; stroke-linejoin: miter"/>
   </g>
   <g id="text_62">
    <!-- Yes -->
    <g style="fill: #262626" transform="translate(680.085281 319.22049) scale(0.1 -0.1)">
     <use xlink:href="#DejaVuSans-3c"/>
     <use xlink:href="#DejaVuSans-48" transform="translate(47.796875 0)"/>
     <use xlink:href="#DejaVuSans-56" transform="translate(109.328125 0)"/>
    </g>
   </g>
   <g id="text_63">
    <!-- No -->
    <g style="fill: #262626" transform="translate(620.180382 414.492558) scale(0.1 -0.1)">
     <use xlink:href="#DejaVuSans-31"/>
     <use xlink:href="#DejaVuSans-52" transform="translate(74.8125 0)"/>
    </g>
   </g>
   <g id="text_64">
    <!-- 19% -->
    <g style="fill: #262626" transform="translate(658.905717 339.931809) scale(0.1 -0.1)">
     <use xlink:href="#DejaVuSans-14"/>
     <use xlink:href="#DejaVuSans-1c" transform="translate(63.625 0)"/>
     <use xlink:href="#DejaVuSans-8" transform="translate(127.25 0)"/>
    </g>
   </g>
   <g id="text_65">
    <!-- 81% -->
    <g style="fill: #262626" transform="translate(632.733383 393.781239) scale(0.1 -0.1)">
     <use xlink:href="#DejaVuSans-1b"/>
     <use xlink:href="#DejaVuSans-14" transform="translate(63.625 0)"/>
     <use xlink:href="#DejaVuSans-8" transform="translate(127.25 0)"/>
    </g>
   </g>
   <g id="text_66">
    <!-- OWL -->
    <g style="fill: #262626" transform="translate(641.927453 302.76) scale(0.12 -0.12)">
     <defs>
      <path id="DejaVuSans-3a" d="M 213 4666 
L 850 4666 
L 1831 722 
L 2809 4666 
L 3519 4666 
L 4500 722 
L 5478 4666 
L 6119 4666 
L 4947 0 
L 4153 0 
L 3169 4050 
L 2175 0 
L 1381 0 
L 213 4666 
z
" transform="scale(0.015625)"/>
     </defs>
     <use xlink:href="#DejaVuSans-32"/>
     <use xlink:href="#DejaVuSans-3a" transform="translate(78.71875 0)"/>
     <use xlink:href="#DejaVuSans-2f" transform="translate(177.59375 0)"/>
    </g>
   </g>
  </g>
  <g id="axes_13">
   <g id="matplotlib.axis_25"/>
   <g id="matplotlib.axis_26"/>
   <g id="patch_29">
    <path d="M 141.855692 481.777357 
C 140.806429 479.959979 139.634179 478.216439 138.347139 476.558927 
C 137.0601 474.901416 135.661278 473.333806 134.160455 471.86706 
L 101.970026 504.805357 
z
" style="fill: #1f77b4; stroke: #ffffff; stroke-linejoin: miter"/>
   </g>
   <g id="patch_30">
    <path d="M 130.522743 474.691703 
C 126.386576 470.649448 121.52578 467.422214 116.195088 465.179129 
C 110.864397 462.936043 105.158586 461.716986 99.376674 461.585842 
C 93.594762 461.454699 87.839547 462.413801 82.412636 464.412886 
C 76.985725 466.411971 71.983604 469.415496 67.668414 473.26606 
C 63.353225 477.116624 59.801687 481.745766 57.199922 486.910892 
C 54.598158 492.076018 52.992424 497.685296 52.466871 503.444766 
C 51.941318 509.204236 52.505289 515.0115 54.129229 520.562223 
C 55.75317 526.112946 58.408207 531.308439 61.955202 535.87643 
C 65.502196 540.44442 69.878085 544.303691 74.853545 547.251995 
C 79.829006 550.200299 85.315578 552.185218 91.025734 553.102728 
C 96.73589 554.020239 102.568106 553.85403 108.216742 552.61281 
C 113.865377 551.371591 119.230002 549.077431 124.029479 545.850556 
C 128.828957 542.623681 132.977955 538.521463 136.259042 533.758882 
C 139.540129 528.996302 141.89497 523.658034 143.200157 518.023836 
C 144.505345 512.389638 144.737673 506.559681 143.884967 500.839489 
C 143.03226 495.119297 141.10968 489.61057 138.217981 484.602 
L 98.332315 507.63 
z
" style="fill: #ff7f0e; stroke: #ffffff; stroke-linejoin: miter"/>
   </g>
   <g id="text_67">
    <!-- Yes -->
    <g style="fill: #262626" transform="translate(141.98485 476.331941) scale(0.1 -0.1)">
     <use xlink:href="#DejaVuSans-3c"/>
     <use xlink:href="#DejaVuSans-48" transform="translate(47.796875 0)"/>
     <use xlink:href="#DejaVuSans-56" transform="translate(109.328125 0)"/>
    </g>
   </g>
   <g id="text_68">
    <!-- No -->
    <g style="fill: #262626" transform="translate(44.71749 541.298729) scale(0.1 -0.1)">
     <use xlink:href="#DejaVuSans-31"/>
     <use xlink:href="#DejaVuSans-52" transform="translate(74.8125 0)"/>
    </g>
   </g>
   <g id="text_69">
    <!-- 4% -->
    <g style="fill: #262626" transform="translate(115.864263 490.455156) scale(0.1 -0.1)">
     <use xlink:href="#DejaVuSans-17"/>
     <use xlink:href="#DejaVuSans-8" transform="translate(63.625 0)"/>
    </g>
   </g>
   <g id="text_70">
    <!-- 96% -->
    <g style="fill: #262626" transform="translate(65.392766 527.175514) scale(0.1 -0.1)">
     <use xlink:href="#DejaVuSans-1c"/>
     <use xlink:href="#DejaVuSans-19" transform="translate(63.625 0)"/>
     <use xlink:href="#DejaVuSans-8" transform="translate(127.25 0)"/>
    </g>
   </g>
   <g id="text_71">
    <!-- JSON -->
    <g style="fill: #262626" transform="translate(83.541377 444.06) scale(0.12 -0.12)">
     <defs>
      <path id="DejaVuSans-2d" d="M 628 4666 
L 1259 4666 
L 1259 325 
Q 1259 -519 939 -900 
Q 619 -1281 -91 -1281 
L -331 -1281 
L -331 -750 
L -134 -750 
Q 284 -750 456 -515 
Q 628 -281 628 325 
L 628 4666 
z
" transform="scale(0.015625)"/>
     </defs>
     <use xlink:href="#DejaVuSans-2d"/>
     <use xlink:href="#DejaVuSans-36" transform="translate(29.5 0)"/>
     <use xlink:href="#DejaVuSans-32" transform="translate(92.984375 0)"/>
     <use xlink:href="#DejaVuSans-31" transform="translate(171.703125 0)"/>
    </g>
   </g>
  </g>
  <g id="axes_14"/>
  <g id="axes_15"/>
  <g id="axes_16"/>
  <g id="text_72">
   <!-- https://github.com/biopragmatics/bioregistry (2026-06-13) -->
   <g style="fill: #808080; opacity: 0.5" transform="translate(278.674375 574.078125) scale(0.08 -0.08)">
    <defs>
     <path id="DejaVuSans-1d" d="M 750 794 
L 1409 794 
L 1409 0 
L 750 0 
L 750 794 
z
M 750 3309 
L 1409 3309 
L 1409 2516 
L 750 2516 
L 750 3309 
z
" transform="scale(0.015625)"/>
     <path id="DejaVuSans-12" d="M 1625 4666 
L 2156 4666 
L 531 -594 
L 0 -594 
L 1625 4666 
z
" transform="scale(0.015625)"/>
     <path id="DejaVuSans-58" d="M 544 1381 
L 544 3500 
L 1119 3500 
L 1119 1403 
Q 1119 906 1312 657 
Q 1506 409 1894 409 
Q 2359 409 2629 706 
Q 2900 1003 2900 1516 
L 2900 3500 
L 3475 3500 
L 3475 0 
L 2900 0 
L 2900 538 
Q 2691 219 2414 64 
Q 2138 -91 1772 -91 
Q 1169 -91 856 284 
Q 544 659 544 1381 
z
M 1991 3584 
L 1991 3584 
z
" transform="scale(0.015625)"/>
     <path id="DejaVuSans-45" d="M 3116 1747 
Q 3116 2381 2855 2742 
Q 2594 3103 2138 3103 
Q 1681 3103 1420 2742 
Q 1159 2381 1159 1747 
Q 1159 1113 1420 752 
Q 1681 391 2138 391 
Q 2594 391 2855 752 
Q 3116 1113 3116 1747 
z
M 1159 2969 
Q 1341 3281 1617 3432 
Q 1894 3584 2278 3584 
Q 2916 3584 3314 3078 
Q 3713 2572 3713 1747 
Q 3713 922 3314 415 
Q 2916 -91 2278 -91 
Q 1894 -91 1617 61 
Q 1341 213 1159 525 
L 1159 0 
L 581 0 
L 581 4863 
L 1159 4863 
L 1159 2969 
z
" transform="scale(0.015625)"/>
     <path id="DejaVuSans-b" d="M 1984 4856 
Q 1566 4138 1362 3434 
Q 1159 2731 1159 2009 
Q 1159 1288 1364 580 
Q 1569 -128 1984 -844 
L 1484 -844 
Q 1016 -109 783 600 
Q 550 1309 550 2009 
Q 550 2706 781 3412 
Q 1013 4119 1484 4856 
L 1984 4856 
z
" transform="scale(0.015625)"/>
     <path id="DejaVuSans-c" d="M 513 4856 
L 1013 4856 
Q 1481 4119 1714 3412 
Q 1947 2706 1947 2009 
Q 1947 1309 1714 600 
Q 1481 -109 1013 -844 
L 513 -844 
Q 928 -128 1133 580 
Q 1338 1288 1338 2009 
Q 1338 2731 1133 3434 
Q 928 4138 513 4856 
z
" transform="scale(0.015625)"/>
    </defs>
    <use xlink:href="#DejaVuSans-4b"/>
    <use xlink:href="#DejaVuSans-57" transform="translate(63.375 0)"/>
    <use xlink:href="#DejaVuSans-57" transform="translate(102.578125 0)"/>
    <use xlink:href="#DejaVuSans-53" transform="translate(141.78125 0)"/>
    <use xlink:href="#DejaVuSans-56" transform="translate(205.265625 0)"/>
    <use xlink:href="#DejaVuSans-1d" transform="translate(257.359375 0)"/>
    <use xlink:href="#DejaVuSans-12" transform="translate(291.046875 0)"/>
    <use xlink:href="#DejaVuSans-12" transform="translate(324.734375 0)"/>
    <use xlink:href="#DejaVuSans-4a" transform="translate(358.421875 0)"/>
    <use xlink:href="#DejaVuSans-4c" transform="translate(421.90625 0)"/>
    <use xlink:href="#DejaVuSans-57" transform="translate(449.6875 0)"/>
    <use xlink:href="#DejaVuSans-4b" transform="translate(488.890625 0)"/>
    <use xlink:href="#DejaVuSans-58" transform="translate(552.265625 0)"/>
    <use xlink:href="#DejaVuSans-45" transform="translate(615.640625 0)"/>
    <use xlink:href="#DejaVuSans-11" transform="translate(679.125 0)"/>
    <use xlink:href="#DejaVuSans-46" transform="translate(710.90625 0)"/>
    <use xlink:href="#DejaVuSans-52" transform="translate(765.890625 0)"/>
    <use xlink:href="#DejaVuSans-50" transform="translate(827.078125 0)"/>
    <use xlink:href="#DejaVuSans-12" transform="translate(924.484375 0)"/>
    <use xlink:href="#DejaVuSans-45" transform="translate(958.171875 0)"/>
    <use xlink:href="#DejaVuSans-4c" transform="translate(1021.65625 0)"/>
    <use xlink:href="#DejaVuSans-52" transform="translate(1049.4375 0)"/>
    <use xlink:href="#DejaVuSans-53" transform="translate(1110.625 0)"/>
    <use xlink:href="#DejaVuSans-55" transform="translate(1174.109375 0)"/>
    <use xlink:href="#DejaVuSans-44" transform="translate(1215.21875 0)"/>
    <use xlink:href="#DejaVuSans-4a" transform="translate(1276.5 0)"/>
    <use xlink:href="#DejaVuSans-50" transform="translate(1339.984375 0)"/>
    <use xlink:href="#DejaVuSans-44" transform="translate(1437.390625 0)"/>
    <use xlink:href="#DejaVuSans-57" transform="translate(1498.671875 0)"/>
    <use xlink:href="#DejaVuSans-4c" transform="translate(1537.875 0)"/>
    <use xlink:href="#DejaVuSans-46" transform="translate(1565.65625 0)"/>
    <use xlink:href="#DejaVuSans-56" transform="translate(1620.640625 0)"/>
    <use xlink:href="#DejaVuSans-12" transform="translate(1672.734375 0)"/>
    <use xlink:href="#DejaVuSans-45" transform="translate(1706.421875 0)"/>
    <use xlink:href="#DejaVuSans-4c" transform="translate(1769.90625 0)"/>
    <use xlink:href="#DejaVuSans-52" transform="translate(1797.6875 0)"/>
    <use xlink:href="#DejaVuSans-55" transform="translate(1858.875 0)"/>
    <use xlink:href="#DejaVuSans-48" transform="translate(1897.78125 0)"/>
    <use xlink:href="#DejaVuSans-4a" transform="translate(1959.3125 0)"/>
    <use xlink:href="#DejaVuSans-4c" transform="translate(2022.796875 0)"/>
    <use xlink:href="#DejaVuSans-56" transform="translate(2050.578125 0)"/>
    <use xlink:href="#DejaVuSans-57" transform="translate(2102.671875 0)"/>
    <use xlink:href="#DejaVuSans-55" transform="translate(2141.875 0)"/>
    <use xlink:href="#DejaVuSans-5c" transform="translate(2182.984375 0)"/>
    <use xlink:href="#DejaVuSans-3" transform="translate(2242.171875 0)"/>
    <use xlink:href="#DejaVuSans-b" transform="translate(2273.953125 0)"/>
    <use xlink:href="#DejaVuSans-15" transform="translate(2312.96875 0)"/>
    <use xlink:href="#DejaVuSans-13" transform="translate(2376.59375 0)"/>
    <use xlink:href="#DejaVuSans-15" transform="translate(2440.21875 0)"/>
    <use xlink:href="#DejaVuSans-19" transform="translate(2503.84375 0)"/>
    <use xlink:href="#DejaVuSans-10" transform="translate(2567.46875 0)"/>
    <use xlink:href="#DejaVuSans-13" transform="translate(2603.546875 0)"/>
    <use xlink:href="#DejaVuSans-19" transform="translate(2667.171875 0)"/>
    <use xlink:href="#DejaVuSans-10" transform="translate(2730.796875 0)"/>
    <use xlink:href="#DejaVuSans-14" transform="translate(2766.875 0)"/>
    <use xlink:href="#DejaVuSans-16" transform="translate(2830.5 0)"/>
    <use xlink:href="#DejaVuSans-c" transform="translate(2894.125 0)"/>
   </g>
  </g>
 </g>
</svg>
