<?xml version="1.0" encoding="utf-8" standalone="no"?>
<!DOCTYPE svg PUBLIC "-//W3C//DTD SVG 1.1//EN"
  "http://www.w3.org/Graphics/SVG/1.1/DTD/svg11.dtd">
<svg xmlns:xlink="http://www.w3.org/1999/xlink" width="792pt" height="576pt" viewBox="0 0 792 576" xmlns="http://www.w3.org/2000/svg" version="1.1">
 <metadata>
  <rdf:RDF xmlns:dc="http://purl.org/dc/elements/1.1/" xmlns:cc="http://creativecommons.org/ns#" xmlns:rdf="http://www.w3.org/1999/02/22-rdf-syntax-ns#">
   <cc:Work>
    <dc:type rdf:resource="http://purl.org/dc/dcmitype/StillImage"/>
    <dc:date>2026-04-14T22:09:31.258009</dc:date>
    <dc:format>image/svg+xml</dc:format>
    <dc:creator>
     <cc:Agent>
      <dc:title>Matplotlib v3.10.8, https://matplotlib.org/</dc:title>
     </cc:Agent>
    </dc:creator>
   </cc:Work>
  </rdf:RDF>
 </metadata>
 <defs>
  <style type="text/css">*{stroke-linejoin: round; stroke-linecap: butt}</style>
 </defs>
 <g id="figure_1">
  <g id="patch_1">
   <path d="M 0 576 
L 792 576 
L 792 0 
L 0 0 
z
" style="fill: #ffffff"/>
  </g>
  <g id="axes_1">
   <g id="matplotlib.axis_1"/>
   <g id="matplotlib.axis_2"/>
   <g id="patch_2">
    <path d="M 135.43883 62.268026 
C 132.712101 57.545193 129.163073 53.347505 124.959462 49.873335 
C 120.755851 46.399164 115.964934 43.704113 110.813118 41.915542 
C 105.661301 40.12697 100.231036 39.273504 94.778942 39.395475 
C 89.326848 39.517445 83.940183 40.612902 78.873506 42.630075 
C 73.806829 44.647248 69.141229 47.553855 65.09719 51.212537 
C 61.053151 54.871219 57.695396 59.22342 55.182602 64.063469 
C 52.669808 68.903518 51.042191 74.153951 50.376669 79.566647 
C 49.711146 84.979344 50.018369 90.467677 51.28382 95.772282 
C 52.54927 101.076888 54.752694 106.112869 57.789965 110.642239 
C 60.827235 115.171609 64.649743 119.121877 69.076845 122.306366 
C 73.503948 125.490854 78.464792 127.858596 83.724943 129.2977 
C 88.985094 130.736803 94.460365 131.224235 99.89201 130.736962 
C 105.323655 130.249688 110.624744 128.795507 115.544761 126.44314 
C 120.464779 124.090772 124.924982 120.877866 128.714596 116.956255 
C 132.504209 113.034644 135.562582 108.467091 137.745183 103.469446 
C 139.927784 98.4718 141.199682 93.124048 141.500771 87.678908 
L 95.802579 85.152026 
z
" style="fill: #1f77b4; stroke: #ffffff; stroke-linejoin: miter"/>
   </g>
   <g id="patch_3">
    <path d="M 145.952646 86.616894 
C 146.19685 82.200578 145.799568 77.772094 144.773218 73.469759 
C 143.746868 69.167423 142.102245 65.036502 139.890716 61.206016 
L 100.254455 84.09 
z
" style="fill: #ff7f0e; stroke: #ffffff; stroke-linejoin: miter"/>
   </g>
   <g id="text_1">
    <!-- Yes -->
    <g style="fill: #262626" transform="translate(30.686632 99.593685) scale(0.1 -0.1)">
     <defs>
      <path id="DejaVuSans-59" d="M -13 4666 
L 666 4666 
L 1959 2747 
L 3244 4666 
L 3922 4666 
L 2272 2222 
L 2272 0 
L 1638 0 
L 1638 2222 
L -13 4666 
z
" transform="scale(0.015625)"/>
      <path id="DejaVuSans-65" d="M 3597 1894 
L 3597 1613 
L 953 1613 
Q 991 1019 1311 708 
Q 1631 397 2203 397 
Q 2534 397 2845 478 
Q 3156 559 3463 722 
L 3463 178 
Q 3153 47 2828 -22 
Q 2503 -91 2169 -91 
Q 1331 -91 842 396 
Q 353 884 353 1716 
Q 353 2575 817 3079 
Q 1281 3584 2069 3584 
Q 2775 3584 3186 3129 
Q 3597 2675 3597 1894 
z
M 3022 2063 
Q 3016 2534 2758 2815 
Q 2500 3097 2075 3097 
Q 1594 3097 1305 2825 
Q 1016 2553 972 2059 
L 3022 2063 
z
" transform="scale(0.015625)"/>
      <path id="DejaVuSans-73" d="M 2834 3397 
L 2834 2853 
Q 2591 2978 2328 3040 
Q 2066 3103 1784 3103 
Q 1356 3103 1142 2972 
Q 928 2841 928 2578 
Q 928 2378 1081 2264 
Q 1234 2150 1697 2047 
L 1894 2003 
Q 2506 1872 2764 1633 
Q 3022 1394 3022 966 
Q 3022 478 2636 193 
Q 2250 -91 1575 -91 
Q 1294 -91 989 -36 
Q 684 19 347 128 
L 347 722 
Q 666 556 975 473 
Q 1284 391 1588 391 
Q 1994 391 2212 530 
Q 2431 669 2431 922 
Q 2431 1156 2273 1281 
Q 2116 1406 1581 1522 
L 1381 1569 
Q 847 1681 609 1914 
Q 372 2147 372 2553 
Q 372 3047 722 3315 
Q 1072 3584 1716 3584 
Q 2034 3584 2315 3537 
Q 2597 3491 2834 3397 
z
" transform="scale(0.015625)"/>
     </defs>
     <use xlink:href="#DejaVuSans-59"/>
     <use xlink:href="#DejaVuSans-65" transform="translate(47.833984 0)"/>
     <use xlink:href="#DejaVuSans-73" transform="translate(109.357422 0)"/>
    </g>
   </g>
   <g id="text_2">
    <!-- 91% -->
    <g style="fill: #262626" transform="translate(57.978043 94.283556) scale(0.1 -0.1)">
     <defs>
      <path id="DejaVuSans-39" d="M 703 97 
L 703 672 
Q 941 559 1184 500 
Q 1428 441 1663 441 
Q 2288 441 2617 861 
Q 2947 1281 2994 2138 
Q 2813 1869 2534 1725 
Q 2256 1581 1919 1581 
Q 1219 1581 811 2004 
Q 403 2428 403 3163 
Q 403 3881 828 4315 
Q 1253 4750 1959 4750 
Q 2769 4750 3195 4129 
Q 3622 3509 3622 2328 
Q 3622 1225 3098 567 
Q 2575 -91 1691 -91 
Q 1453 -91 1209 -44 
Q 966 3 703 97 
z
M 1959 2075 
Q 2384 2075 2632 2365 
Q 2881 2656 2881 3163 
Q 2881 3666 2632 3958 
Q 2384 4250 1959 4250 
Q 1534 4250 1286 3958 
Q 1038 3666 1038 3163 
Q 1038 2656 1286 2365 
Q 1534 2075 1959 2075 
z
" transform="scale(0.015625)"/>
      <path id="DejaVuSans-31" d="M 794 531 
L 1825 531 
L 1825 4091 
L 703 3866 
L 703 4441 
L 1819 4666 
L 2450 4666 
L 2450 531 
L 3481 531 
L 3481 0 
L 794 0 
L 794 531 
z
" transform="scale(0.015625)"/>
      <path id="DejaVuSans-25" d="M 4653 2053 
Q 4381 2053 4226 1822 
Q 4072 1591 4072 1178 
Q 4072 772 4226 539 
Q 4381 306 4653 306 
Q 4919 306 5073 539 
Q 5228 772 5228 1178 
Q 5228 1588 5073 1820 
Q 4919 2053 4653 2053 
z
M 4653 2450 
Q 5147 2450 5437 2106 
Q 5728 1763 5728 1178 
Q 5728 594 5436 251 
Q 5144 -91 4653 -91 
Q 4153 -91 3862 251 
Q 3572 594 3572 1178 
Q 3572 1766 3864 2108 
Q 4156 2450 4653 2450 
z
M 1428 4353 
Q 1159 4353 1004 4120 
Q 850 3888 850 3481 
Q 850 3069 1003 2837 
Q 1156 2606 1428 2606 
Q 1700 2606 1854 2837 
Q 2009 3069 2009 3481 
Q 2009 3884 1853 4118 
Q 1697 4353 1428 4353 
z
M 4250 4750 
L 4750 4750 
L 1831 -91 
L 1331 -91 
L 4250 4750 
z
M 1428 4750 
Q 1922 4750 2215 4408 
Q 2509 4066 2509 3481 
Q 2509 2891 2217 2550 
Q 1925 2209 1428 2209 
Q 931 2209 642 2551 
Q 353 2894 353 3481 
Q 353 4063 643 4406 
Q 934 4750 1428 4750 
z
" transform="scale(0.015625)"/>
     </defs>
     <use xlink:href="#DejaVuSans-39"/>
     <use xlink:href="#DejaVuSans-31" transform="translate(63.623047 0)"/>
     <use xlink:href="#DejaVuSans-25" transform="translate(127.246094 0)"/>
    </g>
   </g>
   <g id="text_3">
    <!-- No -->
    <g style="fill: #262626" transform="translate(149.22509 75.167086) scale(0.1 -0.1)">
     <defs>
      <path id="DejaVuSans-4e" d="M 628 4666 
L 1478 4666 
L 3547 763 
L 3547 4666 
L 4159 4666 
L 4159 0 
L 3309 0 
L 1241 3903 
L 1241 0 
L 628 0 
L 628 4666 
z
" transform="scale(0.015625)"/>
      <path id="DejaVuSans-6f" d="M 1959 3097 
Q 1497 3097 1228 2736 
Q 959 2375 959 1747 
Q 959 1119 1226 758 
Q 1494 397 1959 397 
Q 2419 397 2687 759 
Q 2956 1122 2956 1747 
Q 2956 2369 2687 2733 
Q 2419 3097 1959 3097 
z
M 1959 3584 
Q 2709 3584 3137 3096 
Q 3566 2609 3566 1747 
Q 3566 888 3137 398 
Q 2709 -91 1959 -91 
Q 1206 -91 779 398 
Q 353 888 353 1747 
Q 353 2609 779 3096 
Q 1206 3584 1959 3584 
z
" transform="scale(0.015625)"/>
     </defs>
     <use xlink:href="#DejaVuSans-4e"/>
     <use xlink:href="#DejaVuSans-6f" transform="translate(74.804688 0)"/>
    </g>
   </g>
   <g id="text_4">
    <!-- 9% -->
    <g style="fill: #262626" transform="translate(119.033679 80.477217) scale(0.1 -0.1)">
     <use xlink:href="#DejaVuSans-39"/>
     <use xlink:href="#DejaVuSans-25" transform="translate(63.623047 0)"/>
    </g>
   </g>
   <g id="text_5">
    <!-- Name -->
    <g style="fill: #262626" transform="translate(82.55258 20.88) scale(0.12 -0.12)">
     <defs>
      <path id="DejaVuSans-61" d="M 2194 1759 
Q 1497 1759 1228 1600 
Q 959 1441 959 1056 
Q 959 750 1161 570 
Q 1363 391 1709 391 
Q 2188 391 2477 730 
Q 2766 1069 2766 1631 
L 2766 1759 
L 2194 1759 
z
M 3341 1997 
L 3341 0 
L 2766 0 
L 2766 531 
Q 2569 213 2275 61 
Q 1981 -91 1556 -91 
Q 1019 -91 701 211 
Q 384 513 384 1019 
Q 384 1609 779 1909 
Q 1175 2209 1959 2209 
L 2766 2209 
L 2766 2266 
Q 2766 2663 2505 2880 
Q 2244 3097 1772 3097 
Q 1472 3097 1187 3025 
Q 903 2953 641 2809 
L 641 3341 
Q 956 3463 1253 3523 
Q 1550 3584 1831 3584 
Q 2591 3584 2966 3190 
Q 3341 2797 3341 1997 
z
" transform="scale(0.015625)"/>
      <path id="DejaVuSans-6d" d="M 3328 2828 
Q 3544 3216 3844 3400 
Q 4144 3584 4550 3584 
Q 5097 3584 5394 3201 
Q 5691 2819 5691 2113 
L 5691 0 
L 5113 0 
L 5113 2094 
Q 5113 2597 4934 2840 
Q 4756 3084 4391 3084 
Q 3944 3084 3684 2787 
Q 3425 2491 3425 1978 
L 3425 0 
L 2847 0 
L 2847 2094 
Q 2847 2600 2669 2842 
Q 2491 3084 2119 3084 
Q 1678 3084 1418 2786 
Q 1159 2488 1159 1978 
L 1159 0 
L 581 0 
L 581 3500 
L 1159 3500 
L 1159 2956 
Q 1356 3278 1631 3431 
Q 1906 3584 2284 3584 
Q 2666 3584 2933 3390 
Q 3200 3197 3328 2828 
z
" transform="scale(0.015625)"/>
     </defs>
     <use xlink:href="#DejaVuSans-4e"/>
     <use xlink:href="#DejaVuSans-61" transform="translate(74.804688 0)"/>
     <use xlink:href="#DejaVuSans-6d" transform="translate(136.083984 0)"/>
     <use xlink:href="#DejaVuSans-65" transform="translate(233.496094 0)"/>
    </g>
   </g>
  </g>
  <g id="axes_2">
   <g id="matplotlib.axis_3"/>
   <g id="matplotlib.axis_4"/>
   <g id="patch_4">
    <path d="M 325.147741 62.268026 
C 322.421012 57.545193 318.871983 53.347505 314.668373 49.873335 
C 310.464762 46.399164 305.673845 43.704113 300.522028 41.915542 
C 295.370212 40.12697 289.939947 39.273504 284.487853 39.395475 
C 279.035759 39.517445 273.649094 40.612902 268.582417 42.630075 
C 263.51574 44.647248 258.85014 47.553855 254.806101 51.212537 
C 250.762062 54.871219 247.404307 59.22342 244.891512 64.063469 
C 242.378718 68.903518 240.751102 74.153951 240.085579 79.566647 
C 239.420057 84.979344 239.72728 90.467677 240.99273 95.772282 
C 242.258181 101.076888 244.461605 106.112869 247.498876 110.642239 
C 250.536146 115.171609 254.358653 119.121877 258.785756 122.306366 
C 263.212859 125.490854 268.173703 127.858596 273.433854 129.2977 
C 278.694005 130.736803 284.169276 131.224235 289.600921 130.736962 
C 295.032566 130.249688 300.333655 128.795507 305.253672 126.44314 
C 310.173689 124.090772 314.633893 120.877866 318.423507 116.956255 
C 322.21312 113.034644 325.271493 108.467091 327.454093 103.469446 
C 329.636694 98.4718 330.908593 93.124048 331.209682 87.678908 
L 285.51149 85.152026 
z
" style="fill: #1f77b4; stroke: #ffffff; stroke-linejoin: miter"/>
   </g>
   <g id="patch_5">
    <path d="M 335.661557 86.616894 
C 335.905761 82.200578 335.508479 77.772094 334.482129 73.469759 
C 333.455779 69.167423 331.811156 65.036502 329.599627 61.206016 
L 289.963366 84.09 
z
" style="fill: #ff7f0e; stroke: #ffffff; stroke-linejoin: miter"/>
   </g>
   <g id="text_6">
    <!-- Yes -->
    <g style="fill: #262626" transform="translate(220.395543 99.593685) scale(0.1 -0.1)">
     <use xlink:href="#DejaVuSans-59"/>
     <use xlink:href="#DejaVuSans-65" transform="translate(47.833984 0)"/>
     <use xlink:href="#DejaVuSans-73" transform="translate(109.357422 0)"/>
    </g>
   </g>
   <g id="text_7">
    <!-- 91% -->
    <g style="fill: #262626" transform="translate(247.686953 94.283556) scale(0.1 -0.1)">
     <use xlink:href="#DejaVuSans-39"/>
     <use xlink:href="#DejaVuSans-31" transform="translate(63.623047 0)"/>
     <use xlink:href="#DejaVuSans-25" transform="translate(127.246094 0)"/>
    </g>
   </g>
   <g id="text_8">
    <!-- No -->
    <g style="fill: #262626" transform="translate(338.934 75.167086) scale(0.1 -0.1)">
     <use xlink:href="#DejaVuSans-4e"/>
     <use xlink:href="#DejaVuSans-6f" transform="translate(74.804688 0)"/>
    </g>
   </g>
   <g id="text_9">
    <!-- 9% -->
    <g style="fill: #262626" transform="translate(308.74259 80.477217) scale(0.1 -0.1)">
     <use xlink:href="#DejaVuSans-39"/>
     <use xlink:href="#DejaVuSans-25" transform="translate(63.623047 0)"/>
    </g>
   </g>
   <g id="text_10">
    <!-- Homepage -->
    <g style="fill: #262626" transform="translate(257.256804 20.88) scale(0.12 -0.12)">
     <defs>
      <path id="DejaVuSans-48" d="M 628 4666 
L 1259 4666 
L 1259 2753 
L 3553 2753 
L 3553 4666 
L 4184 4666 
L 4184 0 
L 3553 0 
L 3553 2222 
L 1259 2222 
L 1259 0 
L 628 0 
L 628 4666 
z
" transform="scale(0.015625)"/>
      <path id="DejaVuSans-70" d="M 1159 525 
L 1159 -1331 
L 581 -1331 
L 581 3500 
L 1159 3500 
L 1159 2969 
Q 1341 3281 1617 3432 
Q 1894 3584 2278 3584 
Q 2916 3584 3314 3078 
Q 3713 2572 3713 1747 
Q 3713 922 3314 415 
Q 2916 -91 2278 -91 
Q 1894 -91 1617 61 
Q 1341 213 1159 525 
z
M 3116 1747 
Q 3116 2381 2855 2742 
Q 2594 3103 2138 3103 
Q 1681 3103 1420 2742 
Q 1159 2381 1159 1747 
Q 1159 1113 1420 752 
Q 1681 391 2138 391 
Q 2594 391 2855 752 
Q 3116 1113 3116 1747 
z
" transform="scale(0.015625)"/>
      <path id="DejaVuSans-67" d="M 2906 1791 
Q 2906 2416 2648 2759 
Q 2391 3103 1925 3103 
Q 1463 3103 1205 2759 
Q 947 2416 947 1791 
Q 947 1169 1205 825 
Q 1463 481 1925 481 
Q 2391 481 2648 825 
Q 2906 1169 2906 1791 
z
M 3481 434 
Q 3481 -459 3084 -895 
Q 2688 -1331 1869 -1331 
Q 1566 -1331 1297 -1286 
Q 1028 -1241 775 -1147 
L 775 -588 
Q 1028 -725 1275 -790 
Q 1522 -856 1778 -856 
Q 2344 -856 2625 -561 
Q 2906 -266 2906 331 
L 2906 616 
Q 2728 306 2450 153 
Q 2172 0 1784 0 
Q 1141 0 747 490 
Q 353 981 353 1791 
Q 353 2603 747 3093 
Q 1141 3584 1784 3584 
Q 2172 3584 2450 3431 
Q 2728 3278 2906 2969 
L 2906 3500 
L 3481 3500 
L 3481 434 
z
" transform="scale(0.015625)"/>
     </defs>
     <use xlink:href="#DejaVuSans-48"/>
     <use xlink:href="#DejaVuSans-6f" transform="translate(75.195312 0)"/>
     <use xlink:href="#DejaVuSans-6d" transform="translate(136.376953 0)"/>
     <use xlink:href="#DejaVuSans-65" transform="translate(233.789062 0)"/>
     <use xlink:href="#DejaVuSans-70" transform="translate(295.3125 0)"/>
     <use xlink:href="#DejaVuSans-61" transform="translate(358.789062 0)"/>
     <use xlink:href="#DejaVuSans-67" transform="translate(420.068359 0)"/>
     <use xlink:href="#DejaVuSans-65" transform="translate(483.544922 0)"/>
    </g>
   </g>
  </g>
  <g id="axes_3">
   <g id="matplotlib.axis_5"/>
   <g id="matplotlib.axis_6"/>
   <g id="patch_6">
    <path d="M 514.856652 62.268026 
C 512.129923 57.545193 508.580894 53.347505 504.377283 49.873335 
C 500.173672 46.399164 495.382756 43.704113 490.230939 41.915542 
C 485.079122 40.12697 479.648857 39.273504 474.196763 39.395475 
C 468.74467 39.517445 463.358005 40.612902 458.291328 42.630075 
C 453.224651 44.647248 448.559051 47.553855 444.515012 51.212537 
C 440.470973 54.871219 437.113217 59.22342 434.600423 64.063469 
C 432.087629 68.903518 430.460013 74.153951 429.79449 79.566647 
C 429.128968 84.979344 429.436191 90.467677 430.701641 95.772282 
C 431.967091 101.076888 434.170516 106.112869 437.207786 110.642239 
C 440.245057 115.171609 444.067564 119.121877 448.494667 122.306366 
C 452.921769 125.490854 457.882614 127.858596 463.142765 129.2977 
C 468.402916 130.736803 473.878187 131.224235 479.309832 130.736962 
C 484.741477 130.249688 490.042565 128.795507 494.962583 126.44314 
C 499.8826 124.090772 504.342804 120.877866 508.132418 116.956255 
C 511.922031 113.034644 514.980403 108.467091 517.163004 103.469446 
C 519.345605 98.4718 520.617503 93.124048 520.918592 87.678908 
L 475.220401 85.152026 
z
" style="fill: #1f77b4; stroke: #ffffff; stroke-linejoin: miter"/>
   </g>
   <g id="patch_7">
    <path d="M 525.370468 86.616894 
C 525.614672 82.200578 525.21739 77.772094 524.19104 73.469759 
C 523.16469 69.167423 521.520067 65.036502 519.308538 61.206016 
L 479.672277 84.09 
z
" style="fill: #ff7f0e; stroke: #ffffff; stroke-linejoin: miter"/>
   </g>
   <g id="text_11">
    <!-- Yes -->
    <g style="fill: #262626" transform="translate(410.104453 99.593685) scale(0.1 -0.1)">
     <use xlink:href="#DejaVuSans-59"/>
     <use xlink:href="#DejaVuSans-65" transform="translate(47.833984 0)"/>
     <use xlink:href="#DejaVuSans-73" transform="translate(109.357422 0)"/>
    </g>
   </g>
   <g id="text_12">
    <!-- 91% -->
    <g style="fill: #262626" transform="translate(437.395864 94.283556) scale(0.1 -0.1)">
     <use xlink:href="#DejaVuSans-39"/>
     <use xlink:href="#DejaVuSans-31" transform="translate(63.623047 0)"/>
     <use xlink:href="#DejaVuSans-25" transform="translate(127.246094 0)"/>
    </g>
   </g>
   <g id="text_13">
    <!-- No -->
    <g style="fill: #262626" transform="translate(528.642911 75.167086) scale(0.1 -0.1)">
     <use xlink:href="#DejaVuSans-4e"/>
     <use xlink:href="#DejaVuSans-6f" transform="translate(74.804688 0)"/>
    </g>
   </g>
   <g id="text_14">
    <!-- 9% -->
    <g style="fill: #262626" transform="translate(498.451501 80.477217) scale(0.1 -0.1)">
     <use xlink:href="#DejaVuSans-39"/>
     <use xlink:href="#DejaVuSans-25" transform="translate(63.623047 0)"/>
    </g>
   </g>
   <g id="text_15">
    <!-- Description -->
    <g style="fill: #262626" transform="translate(445.500402 20.88) scale(0.12 -0.12)">
     <defs>
      <path id="DejaVuSans-44" d="M 1259 4147 
L 1259 519 
L 2022 519 
Q 2988 519 3436 956 
Q 3884 1394 3884 2338 
Q 3884 3275 3436 3711 
Q 2988 4147 2022 4147 
L 1259 4147 
z
M 628 4666 
L 1925 4666 
Q 3281 4666 3915 4102 
Q 4550 3538 4550 2338 
Q 4550 1131 3912 565 
Q 3275 0 1925 0 
L 628 0 
L 628 4666 
z
" transform="scale(0.015625)"/>
      <path id="DejaVuSans-63" d="M 3122 3366 
L 3122 2828 
Q 2878 2963 2633 3030 
Q 2388 3097 2138 3097 
Q 1578 3097 1268 2742 
Q 959 2388 959 1747 
Q 959 1106 1268 751 
Q 1578 397 2138 397 
Q 2388 397 2633 464 
Q 2878 531 3122 666 
L 3122 134 
Q 2881 22 2623 -34 
Q 2366 -91 2075 -91 
Q 1284 -91 818 406 
Q 353 903 353 1747 
Q 353 2603 823 3093 
Q 1294 3584 2113 3584 
Q 2378 3584 2631 3529 
Q 2884 3475 3122 3366 
z
" transform="scale(0.015625)"/>
      <path id="DejaVuSans-72" d="M 2631 2963 
Q 2534 3019 2420 3045 
Q 2306 3072 2169 3072 
Q 1681 3072 1420 2755 
Q 1159 2438 1159 1844 
L 1159 0 
L 581 0 
L 581 3500 
L 1159 3500 
L 1159 2956 
Q 1341 3275 1631 3429 
Q 1922 3584 2338 3584 
Q 2397 3584 2469 3576 
Q 2541 3569 2628 3553 
L 2631 2963 
z
" transform="scale(0.015625)"/>
      <path id="DejaVuSans-69" d="M 603 3500 
L 1178 3500 
L 1178 0 
L 603 0 
L 603 3500 
z
M 603 4863 
L 1178 4863 
L 1178 4134 
L 603 4134 
L 603 4863 
z
" transform="scale(0.015625)"/>
      <path id="DejaVuSans-74" d="M 1172 4494 
L 1172 3500 
L 2356 3500 
L 2356 3053 
L 1172 3053 
L 1172 1153 
Q 1172 725 1289 603 
Q 1406 481 1766 481 
L 2356 481 
L 2356 0 
L 1766 0 
Q 1100 0 847 248 
Q 594 497 594 1153 
L 594 3053 
L 172 3053 
L 172 3500 
L 594 3500 
L 594 4494 
L 1172 4494 
z
" transform="scale(0.015625)"/>
      <path id="DejaVuSans-6e" d="M 3513 2113 
L 3513 0 
L 2938 0 
L 2938 2094 
Q 2938 2591 2744 2837 
Q 2550 3084 2163 3084 
Q 1697 3084 1428 2787 
Q 1159 2491 1159 1978 
L 1159 0 
L 581 0 
L 581 3500 
L 1159 3500 
L 1159 2956 
Q 1366 3272 1645 3428 
Q 1925 3584 2291 3584 
Q 2894 3584 3203 3211 
Q 3513 2838 3513 2113 
z
" transform="scale(0.015625)"/>
     </defs>
     <use xlink:href="#DejaVuSans-44"/>
     <use xlink:href="#DejaVuSans-65" transform="translate(77.001953 0)"/>
     <use xlink:href="#DejaVuSans-73" transform="translate(138.525391 0)"/>
     <use xlink:href="#DejaVuSans-63" transform="translate(190.625 0)"/>
     <use xlink:href="#DejaVuSans-72" transform="translate(245.605469 0)"/>
     <use xlink:href="#DejaVuSans-69" transform="translate(286.71875 0)"/>
     <use xlink:href="#DejaVuSans-70" transform="translate(314.501953 0)"/>
     <use xlink:href="#DejaVuSans-74" transform="translate(377.978516 0)"/>
     <use xlink:href="#DejaVuSans-69" transform="translate(417.1875 0)"/>
     <use xlink:href="#DejaVuSans-6f" transform="translate(444.970703 0)"/>
     <use xlink:href="#DejaVuSans-6e" transform="translate(506.152344 0)"/>
    </g>
   </g>
  </g>
  <g id="axes_4">
   <g id="matplotlib.axis_7"/>
   <g id="matplotlib.axis_8"/>
   <g id="patch_8">
    <path d="M 704.540875 62.158616 
C 701.837697 57.476574 698.326176 53.310323 694.169442 49.853409 
C 690.012708 46.396495 685.276141 43.70329 680.17978 41.898909 
C 675.083419 40.094527 669.707423 39.207349 664.301536 39.278589 
C 658.895649 39.349829 653.544898 40.378366 648.497856 42.31642 
C 643.450813 44.254474 638.786862 47.071561 634.722668 50.636812 
C 630.658474 54.202063 627.257961 58.459401 624.679102 63.211051 
C 622.100243 67.962701 620.3836 73.133925 619.60892 78.484491 
C 618.83424 83.835058 619.013708 89.280809 620.138986 94.568762 
C 621.264264 99.856714 623.317654 104.903694 626.203764 109.475243 
C 629.089875 114.046792 632.76331 118.071004 637.053421 121.360935 
C 641.343531 124.650865 646.182839 127.154767 651.346531 128.75632 
C 656.510223 130.357873 661.917082 131.031887 667.31593 130.747051 
C 672.714778 130.462215 678.020698 129.223009 682.987201 127.087 
C 687.953705 124.950991 692.502675 121.951776 696.422788 118.228685 
C 700.3429 114.505594 703.572497 110.117186 705.961547 105.267327 
C 708.350596 100.417468 709.86152 95.182439 710.424129 89.805436 
L 664.904624 85.042616 
z
" style="fill: #1f77b4; stroke: #ffffff; stroke-linejoin: miter"/>
   </g>
   <g id="patch_9">
    <path d="M 714.900693 88.852818 
C 715.400102 84.079808 715.145704 79.257824 714.146828 74.563861 
C 713.147951 69.869899 711.416971 65.36211 709.017438 61.205997 
L 669.381188 84.09 
z
" style="fill: #ff7f0e; stroke: #ffffff; stroke-linejoin: miter"/>
   </g>
   <g id="text_16">
    <!-- Yes -->
    <g style="fill: #262626" transform="translate(599.517112 98.280762) scale(0.1 -0.1)">
     <use xlink:href="#DejaVuSans-59"/>
     <use xlink:href="#DejaVuSans-65" transform="translate(47.833984 0)"/>
     <use xlink:href="#DejaVuSans-73" transform="translate(109.357422 0)"/>
    </g>
   </g>
   <g id="text_17">
    <!-- 90% -->
    <g style="fill: #262626" transform="translate(626.931961 93.517684) scale(0.1 -0.1)">
     <defs>
      <path id="DejaVuSans-30" d="M 2034 4250 
Q 1547 4250 1301 3770 
Q 1056 3291 1056 2328 
Q 1056 1369 1301 889 
Q 1547 409 2034 409 
Q 2525 409 2770 889 
Q 3016 1369 3016 2328 
Q 3016 3291 2770 3770 
Q 2525 4250 2034 4250 
z
M 2034 4750 
Q 2819 4750 3233 4129 
Q 3647 3509 3647 2328 
Q 3647 1150 3233 529 
Q 2819 -91 2034 -91 
Q 1250 -91 836 529 
Q 422 1150 422 2328 
Q 422 3509 836 4129 
Q 1250 4750 2034 4750 
z
" transform="scale(0.015625)"/>
     </defs>
     <use xlink:href="#DejaVuSans-39"/>
     <use xlink:href="#DejaVuSans-30" transform="translate(63.623047 0)"/>
     <use xlink:href="#DejaVuSans-25" transform="translate(127.246094 0)"/>
    </g>
   </g>
   <g id="text_18">
    <!-- No -->
    <g style="fill: #262626" transform="translate(718.623387 76.3706) scale(0.1 -0.1)">
     <use xlink:href="#DejaVuSans-4e"/>
     <use xlink:href="#DejaVuSans-6f" transform="translate(74.804688 0)"/>
    </g>
   </g>
   <g id="text_19">
    <!-- 10% -->
    <g style="fill: #262626" transform="translate(685.127288 81.133679) scale(0.1 -0.1)">
     <use xlink:href="#DejaVuSans-31"/>
     <use xlink:href="#DejaVuSans-30" transform="translate(63.623047 0)"/>
     <use xlink:href="#DejaVuSans-25" transform="translate(127.246094 0)"/>
    </g>
   </g>
   <g id="text_20">
    <!-- Example -->
    <g style="fill: #262626" transform="translate(643.349625 20.88) scale(0.12 -0.12)">
     <defs>
      <path id="DejaVuSans-45" d="M 628 4666 
L 3578 4666 
L 3578 4134 
L 1259 4134 
L 1259 2753 
L 3481 2753 
L 3481 2222 
L 1259 2222 
L 1259 531 
L 3634 531 
L 3634 0 
L 628 0 
L 628 4666 
z
" transform="scale(0.015625)"/>
      <path id="DejaVuSans-78" d="M 3513 3500 
L 2247 1797 
L 3578 0 
L 2900 0 
L 1881 1375 
L 863 0 
L 184 0 
L 1544 1831 
L 300 3500 
L 978 3500 
L 1906 2253 
L 2834 3500 
L 3513 3500 
z
" transform="scale(0.015625)"/>
      <path id="DejaVuSans-6c" d="M 603 4863 
L 1178 4863 
L 1178 0 
L 603 0 
L 603 4863 
z
" transform="scale(0.015625)"/>
     </defs>
     <use xlink:href="#DejaVuSans-45"/>
     <use xlink:href="#DejaVuSans-78" transform="translate(63.183594 0)"/>
     <use xlink:href="#DejaVuSans-61" transform="translate(122.363281 0)"/>
     <use xlink:href="#DejaVuSans-6d" transform="translate(183.642578 0)"/>
     <use xlink:href="#DejaVuSans-70" transform="translate(281.054688 0)"/>
     <use xlink:href="#DejaVuSans-6c" transform="translate(344.53125 0)"/>
     <use xlink:href="#DejaVuSans-65" transform="translate(372.314453 0)"/>
    </g>
   </g>
  </g>
  <g id="axes_5">
   <g id="matplotlib.axis_9"/>
   <g id="matplotlib.axis_10"/>
   <g id="patch_10">
    <path d="M 136.886085 199.053559 
C 133.509816 193.205688 128.880835 188.176836 123.332083 184.328702 
C 117.783331 180.480567 111.451107 177.907677 104.790858 176.795087 
C 98.130608 175.682496 91.305935 176.057534 84.807703 177.893227 
C 78.309471 179.728919 72.297303 182.980174 67.203626 187.413145 
C 62.109948 191.846115 58.05988 197.35191 55.344726 203.534524 
C 52.629571 209.717139 51.316023 216.424702 51.49856 223.174774 
C 51.681097 229.924845 53.355234 236.551616 56.400559 242.578454 
C 59.445885 248.605292 63.787593 253.884154 69.113406 258.035359 
L 97.249834 221.937559 
z
" style="fill: #1f77b4; stroke: #ffffff; stroke-linejoin: miter"/>
   </g>
   <g id="patch_11">
    <path d="M 72.118031 261.487805 
C 80.491065 268.014163 90.879479 271.428251 101.491676 271.141275 
C 112.103872 270.854296 122.292567 266.883765 130.30065 259.914425 
C 138.308733 252.945086 143.64775 243.402023 145.396926 232.931041 
C 147.146102 222.460059 145.198751 211.69981 139.890716 202.506016 
L 100.254455 225.39 
z
" style="fill: #ff7f0e; stroke: #ffffff; stroke-linejoin: miter"/>
   </g>
   <g id="text_21">
    <!-- Yes -->
    <g style="fill: #262626" transform="translate(48.053692 186.720079) scale(0.1 -0.1)">
     <use xlink:href="#DejaVuSans-59"/>
     <use xlink:href="#DejaVuSans-65" transform="translate(47.833984 0)"/>
     <use xlink:href="#DejaVuSans-73" transform="translate(109.357422 0)"/>
    </g>
   </g>
   <g id="text_22">
    <!-- 56% -->
    <g style="fill: #262626" transform="translate(68.108828 203.982286) scale(0.1 -0.1)">
     <defs>
      <path id="DejaVuSans-35" d="M 691 4666 
L 3169 4666 
L 3169 4134 
L 1269 4134 
L 1269 2991 
Q 1406 3038 1543 3061 
Q 1681 3084 1819 3084 
Q 2600 3084 3056 2656 
Q 3513 2228 3513 1497 
Q 3513 744 3044 326 
Q 2575 -91 1722 -91 
Q 1428 -91 1123 -41 
Q 819 9 494 109 
L 494 744 
Q 775 591 1075 516 
Q 1375 441 1709 441 
Q 2250 441 2565 725 
Q 2881 1009 2881 1497 
Q 2881 1984 2565 2268 
Q 2250 2553 1709 2553 
Q 1456 2553 1204 2497 
Q 953 2441 691 2322 
L 691 4666 
z
" transform="scale(0.015625)"/>
      <path id="DejaVuSans-36" d="M 2113 2584 
Q 1688 2584 1439 2293 
Q 1191 2003 1191 1497 
Q 1191 994 1439 701 
Q 1688 409 2113 409 
Q 2538 409 2786 701 
Q 3034 994 3034 1497 
Q 3034 2003 2786 2293 
Q 2538 2584 2113 2584 
z
M 3366 4563 
L 3366 3988 
Q 3128 4100 2886 4159 
Q 2644 4219 2406 4219 
Q 1781 4219 1451 3797 
Q 1122 3375 1075 2522 
Q 1259 2794 1537 2939 
Q 1816 3084 2150 3084 
Q 2853 3084 3261 2657 
Q 3669 2231 3669 1497 
Q 3669 778 3244 343 
Q 2819 -91 2113 -91 
Q 1303 -91 875 529 
Q 447 1150 447 2328 
Q 447 3434 972 4092 
Q 1497 4750 2381 4750 
Q 2619 4750 2861 4703 
Q 3103 4656 3366 4563 
z
" transform="scale(0.015625)"/>
     </defs>
     <use xlink:href="#DejaVuSans-35"/>
     <use xlink:href="#DejaVuSans-36" transform="translate(63.623047 0)"/>
     <use xlink:href="#DejaVuSans-25" transform="translate(127.246094 0)"/>
    </g>
   </g>
   <g id="text_23">
    <!-- No -->
    <g style="fill: #262626" transform="translate(133.305289 266.126227) scale(0.1 -0.1)">
     <use xlink:href="#DejaVuSans-4e"/>
     <use xlink:href="#DejaVuSans-6f" transform="translate(74.804688 0)"/>
    </g>
   </g>
   <g id="text_24">
    <!-- 44% -->
    <g style="fill: #262626" transform="translate(107.168902 248.864022) scale(0.1 -0.1)">
     <defs>
      <path id="DejaVuSans-34" d="M 2419 4116 
L 825 1625 
L 2419 1625 
L 2419 4116 
z
M 2253 4666 
L 3047 4666 
L 3047 1625 
L 3713 1625 
L 3713 1100 
L 3047 1100 
L 3047 0 
L 2419 0 
L 2419 1100 
L 313 1100 
L 313 1709 
L 2253 4666 
z
" transform="scale(0.015625)"/>
     </defs>
     <use xlink:href="#DejaVuSans-34"/>
     <use xlink:href="#DejaVuSans-34" transform="translate(63.623047 0)"/>
     <use xlink:href="#DejaVuSans-25" transform="translate(127.246094 0)"/>
    </g>
   </g>
   <g id="text_25">
    <!-- Pattern -->
    <g style="fill: #262626" transform="translate(78.669455 162.18) scale(0.12 -0.12)">
     <defs>
      <path id="DejaVuSans-50" d="M 1259 4147 
L 1259 2394 
L 2053 2394 
Q 2494 2394 2734 2622 
Q 2975 2850 2975 3272 
Q 2975 3691 2734 3919 
Q 2494 4147 2053 4147 
L 1259 4147 
z
M 628 4666 
L 2053 4666 
Q 2838 4666 3239 4311 
Q 3641 3956 3641 3272 
Q 3641 2581 3239 2228 
Q 2838 1875 2053 1875 
L 1259 1875 
L 1259 0 
L 628 0 
L 628 4666 
z
" transform="scale(0.015625)"/>
     </defs>
     <use xlink:href="#DejaVuSans-50"/>
     <use xlink:href="#DejaVuSans-61" transform="translate(55.802734 0)"/>
     <use xlink:href="#DejaVuSans-74" transform="translate(117.082031 0)"/>
     <use xlink:href="#DejaVuSans-74" transform="translate(156.291016 0)"/>
     <use xlink:href="#DejaVuSans-65" transform="translate(195.5 0)"/>
     <use xlink:href="#DejaVuSans-72" transform="translate(257.023438 0)"/>
     <use xlink:href="#DejaVuSans-6e" transform="translate(296.386719 0)"/>
    </g>
   </g>
  </g>
  <g id="axes_6">
   <g id="matplotlib.axis_11"/>
   <g id="matplotlib.axis_12"/>
   <g id="patch_12">
    <path d="M 325.044616 202.95217 
C 322.449059 198.456533 319.107461 194.435079 315.163092 191.060229 
C 311.218724 187.685378 306.728775 185.006063 301.885753 183.137159 
C 297.042731 181.268255 291.916856 180.23686 286.7279 180.087195 
C 281.538945 179.937531 276.362143 180.671766 271.419453 182.258421 
C 266.476763 183.845076 261.839848 186.261146 257.707518 189.403041 
C 253.575187 192.544936 250.007355 196.367102 247.156994 200.705662 
C 244.306633 205.044222 242.215071 209.836271 240.971982 214.87635 
C 239.728894 219.916428 239.352303 225.13146 239.858357 230.297848 
C 240.364411 235.464237 241.745772 240.507075 243.943215 245.210149 
C 246.140657 249.913223 249.122319 254.208344 252.760362 257.911357 
C 256.398404 261.61437 260.64008 264.671585 265.303525 266.951923 
C 269.96697 269.232261 274.984569 270.70266 280.141191 271.300075 
C 285.297814 271.89749 290.518694 271.61326 295.579984 270.459572 
C 300.641275 269.305883 305.469592 267.299462 309.857922 264.526337 
C 314.246251 261.753211 318.130965 258.253587 321.345507 254.177512 
C 324.560048 250.101438 327.057809 245.508011 328.731697 240.594178 
L 285.408366 225.83617 
z
" style="fill: #1f77b4; stroke: #ffffff; stroke-linejoin: miter"/>
   </g>
   <g id="patch_13">
    <path d="M 333.286696 240.148012 
C 335.390019 233.973535 336.149255 227.420147 335.513376 220.928322 
C 334.877493 214.436497 332.861073 208.155008 329.599627 202.506016 
L 289.963366 225.39 
z
" style="fill: #ff7f0e; stroke: #ffffff; stroke-linejoin: miter"/>
   </g>
   <g id="text_26">
    <!-- Yes -->
    <g style="fill: #262626" transform="translate(219.158046 233.50341) scale(0.1 -0.1)">
     <use xlink:href="#DejaVuSans-59"/>
     <use xlink:href="#DejaVuSans-65" transform="translate(47.833984 0)"/>
     <use xlink:href="#DejaVuSans-73" transform="translate(109.357422 0)"/>
    </g>
   </g>
   <g id="text_27">
    <!-- 86% -->
    <g style="fill: #262626" transform="translate(246.96508 231.272562) scale(0.1 -0.1)">
     <defs>
      <path id="DejaVuSans-38" d="M 2034 2216 
Q 1584 2216 1326 1975 
Q 1069 1734 1069 1313 
Q 1069 891 1326 650 
Q 1584 409 2034 409 
Q 2484 409 2743 651 
Q 3003 894 3003 1313 
Q 3003 1734 2745 1975 
Q 2488 2216 2034 2216 
z
M 1403 2484 
Q 997 2584 770 2862 
Q 544 3141 544 3541 
Q 544 4100 942 4425 
Q 1341 4750 2034 4750 
Q 2731 4750 3128 4425 
Q 3525 4100 3525 3541 
Q 3525 3141 3298 2862 
Q 3072 2584 2669 2484 
Q 3125 2378 3379 2068 
Q 3634 1759 3634 1313 
Q 3634 634 3220 271 
Q 2806 -91 2034 -91 
Q 1263 -91 848 271 
Q 434 634 434 1313 
Q 434 1759 690 2068 
Q 947 2378 1403 2484 
z
M 1172 3481 
Q 1172 3119 1398 2916 
Q 1625 2713 2034 2713 
Q 2441 2713 2670 2916 
Q 2900 3119 2900 3481 
Q 2900 3844 2670 4047 
Q 2441 4250 2034 4250 
Q 1625 4250 1398 4047 
Q 1172 3844 1172 3481 
z
" transform="scale(0.015625)"/>
     </defs>
     <use xlink:href="#DejaVuSans-38"/>
     <use xlink:href="#DejaVuSans-36" transform="translate(63.623047 0)"/>
     <use xlink:href="#DejaVuSans-25" transform="translate(127.246094 0)"/>
    </g>
   </g>
   <g id="text_28">
    <!-- No -->
    <g style="fill: #262626" transform="translate(340.068373 223.241505) scale(0.1 -0.1)">
     <use xlink:href="#DejaVuSans-4e"/>
     <use xlink:href="#DejaVuSans-6f" transform="translate(74.804688 0)"/>
    </g>
   </g>
   <g id="text_29">
    <!-- 14% -->
    <g style="fill: #262626" transform="translate(306.180089 225.472355) scale(0.1 -0.1)">
     <use xlink:href="#DejaVuSans-31"/>
     <use xlink:href="#DejaVuSans-34" transform="translate(63.623047 0)"/>
     <use xlink:href="#DejaVuSans-25" transform="translate(127.246094 0)"/>
    </g>
   </g>
   <g id="text_30">
    <!-- Provider -->
    <g style="fill: #262626" transform="translate(265.262116 162.18) scale(0.12 -0.12)">
     <defs>
      <path id="DejaVuSans-76" d="M 191 3500 
L 800 3500 
L 1894 563 
L 2988 3500 
L 3597 3500 
L 2284 0 
L 1503 0 
L 191 3500 
z
" transform="scale(0.015625)"/>
      <path id="DejaVuSans-64" d="M 2906 2969 
L 2906 4863 
L 3481 4863 
L 3481 0 
L 2906 0 
L 2906 525 
Q 2725 213 2448 61 
Q 2172 -91 1784 -91 
Q 1150 -91 751 415 
Q 353 922 353 1747 
Q 353 2572 751 3078 
Q 1150 3584 1784 3584 
Q 2172 3584 2448 3432 
Q 2725 3281 2906 2969 
z
M 947 1747 
Q 947 1113 1208 752 
Q 1469 391 1925 391 
Q 2381 391 2643 752 
Q 2906 1113 2906 1747 
Q 2906 2381 2643 2742 
Q 2381 3103 1925 3103 
Q 1469 3103 1208 2742 
Q 947 2381 947 1747 
z
" transform="scale(0.015625)"/>
     </defs>
     <use xlink:href="#DejaVuSans-50"/>
     <use xlink:href="#DejaVuSans-72" transform="translate(58.552734 0)"/>
     <use xlink:href="#DejaVuSans-6f" transform="translate(97.416016 0)"/>
     <use xlink:href="#DejaVuSans-76" transform="translate(158.597656 0)"/>
     <use xlink:href="#DejaVuSans-69" transform="translate(217.777344 0)"/>
     <use xlink:href="#DejaVuSans-64" transform="translate(245.560547 0)"/>
     <use xlink:href="#DejaVuSans-65" transform="translate(309.037109 0)"/>
     <use xlink:href="#DejaVuSans-72" transform="translate(370.560547 0)"/>
    </g>
   </g>
  </g>
  <g id="axes_7">
   <g id="matplotlib.axis_13"/>
   <g id="matplotlib.axis_14"/>
   <g id="patch_14">
    <path d="M 519.150104 197.931943 
C 514.999063 190.742129 508.968918 184.815477 501.708329 180.789513 
C 494.447739 176.763548 486.226726 174.787998 477.92962 175.07537 
C 469.632513 175.362742 461.567884 177.902349 454.603239 182.421007 
C 447.638593 186.939665 442.032948 193.269325 438.389299 200.729109 
L 479.513853 220.815943 
z
" style="fill: #1f77b4; stroke: #ffffff; stroke-linejoin: miter"/>
   </g>
   <g id="patch_15">
    <path d="M 438.547723 205.303164 
C 435.080928 212.400867 433.509963 220.276639 433.988255 228.161261 
C 434.466548 236.045884 436.97801 243.674019 441.277342 250.300615 
C 445.576674 256.927211 451.519201 262.329276 458.524502 265.979179 
C 465.529803 269.629081 473.362124 271.403993 481.256506 271.130573 
C 489.150889 270.85715 496.841677 268.544574 503.577662 264.418736 
C 510.313647 260.292898 515.868158 254.492645 519.698711 247.584466 
C 523.529263 240.676289 525.506933 232.892692 525.438564 224.993872 
C 525.370195 217.095052 523.258085 209.346833 519.308527 202.505997 
L 479.672277 225.39 
z
" style="fill: #ff7f0e; stroke: #ffffff; stroke-linejoin: miter"/>
   </g>
   <g id="text_31">
    <!-- Yes -->
    <g style="fill: #262626" transform="translate(461.625882 173.260687) scale(0.1 -0.1)">
     <use xlink:href="#DejaVuSans-59"/>
     <use xlink:href="#DejaVuSans-65" transform="translate(47.833984 0)"/>
     <use xlink:href="#DejaVuSans-73" transform="translate(109.357422 0)"/>
    </g>
   </g>
   <g id="text_32">
    <!-- 34% -->
    <g style="fill: #262626" transform="translate(467.450031 196.130974) scale(0.1 -0.1)">
     <defs>
      <path id="DejaVuSans-33" d="M 2597 2516 
Q 3050 2419 3304 2112 
Q 3559 1806 3559 1356 
Q 3559 666 3084 287 
Q 2609 -91 1734 -91 
Q 1441 -91 1130 -33 
Q 819 25 488 141 
L 488 750 
Q 750 597 1062 519 
Q 1375 441 1716 441 
Q 2309 441 2620 675 
Q 2931 909 2931 1356 
Q 2931 1769 2642 2001 
Q 2353 2234 1838 2234 
L 1294 2234 
L 1294 2753 
L 1863 2753 
Q 2328 2753 2575 2939 
Q 2822 3125 2822 3475 
Q 2822 3834 2567 4026 
Q 2313 4219 1838 4219 
Q 1578 4219 1281 4162 
Q 984 4106 628 3988 
L 628 4550 
Q 988 4650 1302 4700 
Q 1616 4750 1894 4750 
Q 2613 4750 3031 4423 
Q 3450 4097 3450 3541 
Q 3450 3153 3228 2886 
Q 3006 2619 2597 2516 
z
" transform="scale(0.015625)"/>
     </defs>
     <use xlink:href="#DejaVuSans-33"/>
     <use xlink:href="#DejaVuSans-34" transform="translate(63.623047 0)"/>
     <use xlink:href="#DejaVuSans-25" transform="translate(127.246094 0)"/>
    </g>
   </g>
   <g id="text_33">
    <!-- No -->
    <g style="fill: #262626" transform="translate(481.414953 278.464005) scale(0.1 -0.1)">
     <use xlink:href="#DejaVuSans-4e"/>
     <use xlink:href="#DejaVuSans-6f" transform="translate(74.804688 0)"/>
    </g>
   </g>
   <g id="text_34">
    <!-- 66% -->
    <g style="fill: #262626" transform="translate(469.509546 255.593719) scale(0.1 -0.1)">
     <use xlink:href="#DejaVuSans-36"/>
     <use xlink:href="#DejaVuSans-36" transform="translate(63.623047 0)"/>
     <use xlink:href="#DejaVuSans-25" transform="translate(127.246094 0)"/>
    </g>
   </g>
   <g id="text_35">
    <!-- License -->
    <g style="fill: #262626" transform="translate(457.051339 162.18) scale(0.12 -0.12)">
     <defs>
      <path id="DejaVuSans-4c" d="M 628 4666 
L 1259 4666 
L 1259 531 
L 3531 531 
L 3531 0 
L 628 0 
L 628 4666 
z
" transform="scale(0.015625)"/>
     </defs>
     <use xlink:href="#DejaVuSans-4c"/>
     <use xlink:href="#DejaVuSans-69" transform="translate(55.712891 0)"/>
     <use xlink:href="#DejaVuSans-63" transform="translate(83.496094 0)"/>
     <use xlink:href="#DejaVuSans-65" transform="translate(138.476562 0)"/>
     <use xlink:href="#DejaVuSans-6e" transform="translate(200 0)"/>
     <use xlink:href="#DejaVuSans-73" transform="translate(263.378906 0)"/>
     <use xlink:href="#DejaVuSans-65" transform="translate(315.478516 0)"/>
    </g>
   </g>
  </g>
  <g id="axes_8">
   <g id="matplotlib.axis_15"/>
   <g id="matplotlib.axis_16"/>
   <g id="patch_16">
    <path d="M 709.017438 202.506 
C 704.761595 195.134662 698.532632 189.094657 691.033731 185.067833 
C 683.53483 181.041008 675.059206 179.184819 666.563663 179.708807 
C 658.068119 180.232795 649.88484 183.116473 642.937628 188.034305 
C 635.990416 192.952136 630.550913 199.71183 627.23318 207.550291 
L 669.381188 225.39 
z
" style="fill: #1f77b4; stroke: #ffffff; stroke-linejoin: miter"/>
   </g>
   <g id="patch_17">
    <path d="M 627.233181 207.550288 
C 624.356441 214.346857 623.165902 221.739476 623.763442 229.095557 
C 624.36098 236.451637 626.729052 243.555188 630.665016 249.798357 
C 634.600981 256.041526 639.989273 261.240998 646.368812 264.951855 
C 652.74835 268.662712 659.93182 270.775992 667.30453 271.110863 
L 669.381188 225.39 
z
" style="fill: #ff7f0e; stroke: #ffffff; stroke-linejoin: miter"/>
   </g>
   <g id="patch_18">
    <path d="M 667.30453 271.110863 
C 679.156852 271.649201 690.766175 267.55823 699.662589 259.708313 
C 708.559003 251.858395 714.063455 240.848727 715.00488 229.021593 
L 669.381188 225.39 
z
" style="fill: #2ca02c; stroke: #ffffff; stroke-linejoin: miter"/>
   </g>
   <g id="patch_19">
    <path d="M 715.00488 229.021593 
C 715.370564 224.427515 715.040259 219.804443 714.025154 215.309018 
C 713.010049 210.813593 711.321742 206.497171 709.017438 202.505997 
L 669.381188 225.39 
z
" style="fill: #d62728; stroke: #ffffff; stroke-linejoin: miter"/>
   </g>
   <g id="text_36">
    <!-- CC0-1.0 -->
    <g style="fill: #262626" transform="translate(626.442852 177.900063) scale(0.1 -0.1)">
     <defs>
      <path id="DejaVuSans-43" d="M 4122 4306 
L 4122 3641 
Q 3803 3938 3442 4084 
Q 3081 4231 2675 4231 
Q 1875 4231 1450 3742 
Q 1025 3253 1025 2328 
Q 1025 1406 1450 917 
Q 1875 428 2675 428 
Q 3081 428 3442 575 
Q 3803 722 4122 1019 
L 4122 359 
Q 3791 134 3420 21 
Q 3050 -91 2638 -91 
Q 1578 -91 968 557 
Q 359 1206 359 2328 
Q 359 3453 968 4101 
Q 1578 4750 2638 4750 
Q 3056 4750 3426 4639 
Q 3797 4528 4122 4306 
z
" transform="scale(0.015625)"/>
      <path id="DejaVuSans-2d" d="M 313 2009 
L 1997 2009 
L 1997 1497 
L 313 1497 
L 313 2009 
z
" transform="scale(0.015625)"/>
      <path id="DejaVuSans-2e" d="M 684 794 
L 1344 794 
L 1344 0 
L 684 0 
L 684 794 
z
" transform="scale(0.015625)"/>
     </defs>
     <use xlink:href="#DejaVuSans-43"/>
     <use xlink:href="#DejaVuSans-43" transform="translate(69.824219 0)"/>
     <use xlink:href="#DejaVuSans-30" transform="translate(139.648438 0)"/>
     <use xlink:href="#DejaVuSans-2d" transform="translate(203.271484 0)"/>
     <use xlink:href="#DejaVuSans-31" transform="translate(239.355469 0)"/>
     <use xlink:href="#DejaVuSans-2e" transform="translate(302.978516 0)"/>
     <use xlink:href="#DejaVuSans-30" transform="translate(334.765625 0)"/>
    </g>
   </g>
   <g id="text_37">
    <!-- 35% -->
    <g style="fill: #262626" transform="translate(656.577394 200.740659) scale(0.1 -0.1)">
     <use xlink:href="#DejaVuSans-33"/>
     <use xlink:href="#DejaVuSans-35" transform="translate(63.623047 0)"/>
     <use xlink:href="#DejaVuSans-25" transform="translate(127.246094 0)"/>
    </g>
   </g>
   <g id="text_38">
    <!-- CC-BY-4.0 -->
    <g style="fill: #262626" transform="translate(578.840274 254.998568) scale(0.1 -0.1)">
     <defs>
      <path id="DejaVuSans-42" d="M 1259 2228 
L 1259 519 
L 2272 519 
Q 2781 519 3026 730 
Q 3272 941 3272 1375 
Q 3272 1813 3026 2020 
Q 2781 2228 2272 2228 
L 1259 2228 
z
M 1259 4147 
L 1259 2741 
L 2194 2741 
Q 2656 2741 2882 2914 
Q 3109 3088 3109 3444 
Q 3109 3797 2882 3972 
Q 2656 4147 2194 4147 
L 1259 4147 
z
M 628 4666 
L 2241 4666 
Q 2963 4666 3353 4366 
Q 3744 4066 3744 3513 
Q 3744 3084 3544 2831 
Q 3344 2578 2956 2516 
Q 3422 2416 3680 2098 
Q 3938 1781 3938 1306 
Q 3938 681 3513 340 
Q 3088 0 2303 0 
L 628 0 
L 628 4666 
z
" transform="scale(0.015625)"/>
     </defs>
     <use xlink:href="#DejaVuSans-43"/>
     <use xlink:href="#DejaVuSans-43" transform="translate(69.824219 0)"/>
     <use xlink:href="#DejaVuSans-2d" transform="translate(139.648438 0)"/>
     <use xlink:href="#DejaVuSans-42" transform="translate(172.107422 0)"/>
     <use xlink:href="#DejaVuSans-59" transform="translate(235.210938 0)"/>
     <use xlink:href="#DejaVuSans-2d" transform="translate(284.419922 0)"/>
     <use xlink:href="#DejaVuSans-34" transform="translate(320.503906 0)"/>
     <use xlink:href="#DejaVuSans-2e" transform="translate(384.126953 0)"/>
     <use xlink:href="#DejaVuSans-30" transform="translate(415.914062 0)"/>
    </g>
   </g>
   <g id="text_39">
    <!-- 31% -->
    <g style="fill: #262626" transform="translate(635.038204 242.794389) scale(0.1 -0.1)">
     <use xlink:href="#DejaVuSans-33"/>
     <use xlink:href="#DejaVuSans-31" transform="translate(63.623047 0)"/>
     <use xlink:href="#DejaVuSans-25" transform="translate(127.246094 0)"/>
    </g>
   </g>
   <g id="text_40">
    <!-- Other -->
    <g style="fill: #262626" transform="translate(702.69071 265.899535) scale(0.1 -0.1)">
     <defs>
      <path id="DejaVuSans-4f" d="M 2522 4238 
Q 1834 4238 1429 3725 
Q 1025 3213 1025 2328 
Q 1025 1447 1429 934 
Q 1834 422 2522 422 
Q 3209 422 3611 934 
Q 4013 1447 4013 2328 
Q 4013 3213 3611 3725 
Q 3209 4238 2522 4238 
z
M 2522 4750 
Q 3503 4750 4090 4092 
Q 4678 3434 4678 2328 
Q 4678 1225 4090 567 
Q 3503 -91 2522 -91 
Q 1538 -91 948 565 
Q 359 1222 359 2328 
Q 359 3434 948 4092 
Q 1538 4750 2522 4750 
z
" transform="scale(0.015625)"/>
      <path id="DejaVuSans-68" d="M 3513 2113 
L 3513 0 
L 2938 0 
L 2938 2094 
Q 2938 2591 2744 2837 
Q 2550 3084 2163 3084 
Q 1697 3084 1428 2787 
Q 1159 2491 1159 1978 
L 1159 0 
L 581 0 
L 581 4863 
L 1159 4863 
L 1159 2956 
Q 1366 3272 1645 3428 
Q 1925 3584 2291 3584 
Q 2894 3584 3203 3211 
Q 3513 2838 3513 2113 
z
" transform="scale(0.015625)"/>
     </defs>
     <use xlink:href="#DejaVuSans-4f"/>
     <use xlink:href="#DejaVuSans-74" transform="translate(78.710938 0)"/>
     <use xlink:href="#DejaVuSans-68" transform="translate(117.919922 0)"/>
     <use xlink:href="#DejaVuSans-65" transform="translate(181.298828 0)"/>
     <use xlink:href="#DejaVuSans-72" transform="translate(242.822266 0)"/>
    </g>
   </g>
   <g id="text_41">
    <!-- 24% -->
    <g style="fill: #262626" transform="translate(676.436737 248.740371) scale(0.1 -0.1)">
     <defs>
      <path id="DejaVuSans-32" d="M 1228 531 
L 3431 531 
L 3431 0 
L 469 0 
L 469 531 
Q 828 903 1448 1529 
Q 2069 2156 2228 2338 
Q 2531 2678 2651 2914 
Q 2772 3150 2772 3378 
Q 2772 3750 2511 3984 
Q 2250 4219 1831 4219 
Q 1534 4219 1204 4116 
Q 875 4013 500 3803 
L 500 4441 
Q 881 4594 1212 4672 
Q 1544 4750 1819 4750 
Q 2544 4750 2975 4387 
Q 3406 4025 3406 3419 
Q 3406 3131 3298 2873 
Q 3191 2616 2906 2266 
Q 2828 2175 2409 1742 
Q 1991 1309 1228 531 
z
" transform="scale(0.015625)"/>
     </defs>
     <use xlink:href="#DejaVuSans-32"/>
     <use xlink:href="#DejaVuSans-34" transform="translate(63.623047 0)"/>
     <use xlink:href="#DejaVuSans-25" transform="translate(127.246094 0)"/>
    </g>
   </g>
   <g id="text_42">
    <!-- CC-BY-3.0 -->
    <g style="fill: #262626" transform="translate(718.489544 217.060272) scale(0.1 -0.1)">
     <use xlink:href="#DejaVuSans-43"/>
     <use xlink:href="#DejaVuSans-43" transform="translate(69.824219 0)"/>
     <use xlink:href="#DejaVuSans-2d" transform="translate(139.648438 0)"/>
     <use xlink:href="#DejaVuSans-42" transform="translate(172.107422 0)"/>
     <use xlink:href="#DejaVuSans-59" transform="translate(235.210938 0)"/>
     <use xlink:href="#DejaVuSans-2d" transform="translate(284.419922 0)"/>
     <use xlink:href="#DejaVuSans-33" transform="translate(320.503906 0)"/>
     <use xlink:href="#DejaVuSans-2e" transform="translate(384.126953 0)"/>
     <use xlink:href="#DejaVuSans-30" transform="translate(415.914062 0)"/>
    </g>
   </g>
   <g id="text_43">
    <!-- 10% -->
    <g style="fill: #262626" transform="translate(685.054283 222.100773) scale(0.1 -0.1)">
     <use xlink:href="#DejaVuSans-31"/>
     <use xlink:href="#DejaVuSans-30" transform="translate(63.623047 0)"/>
     <use xlink:href="#DejaVuSans-25" transform="translate(127.246094 0)"/>
    </g>
   </g>
   <g id="text_44">
    <!-- License Type -->
    <g style="fill: #262626" transform="translate(631.074 162.18) scale(0.12 -0.12)">
     <defs>
      <path id="DejaVuSans-20" transform="scale(0.015625)"/>
      <path id="DejaVuSans-54" d="M -19 4666 
L 3928 4666 
L 3928 4134 
L 2272 4134 
L 2272 0 
L 1638 0 
L 1638 4134 
L -19 4134 
L -19 4666 
z
" transform="scale(0.015625)"/>
      <path id="DejaVuSans-79" d="M 2059 -325 
Q 1816 -950 1584 -1140 
Q 1353 -1331 966 -1331 
L 506 -1331 
L 506 -850 
L 844 -850 
Q 1081 -850 1212 -737 
Q 1344 -625 1503 -206 
L 1606 56 
L 191 3500 
L 800 3500 
L 1894 763 
L 2988 3500 
L 3597 3500 
L 2059 -325 
z
" transform="scale(0.015625)"/>
     </defs>
     <use xlink:href="#DejaVuSans-4c"/>
     <use xlink:href="#DejaVuSans-69" transform="translate(55.712891 0)"/>
     <use xlink:href="#DejaVuSans-63" transform="translate(83.496094 0)"/>
     <use xlink:href="#DejaVuSans-65" transform="translate(138.476562 0)"/>
     <use xlink:href="#DejaVuSans-6e" transform="translate(200 0)"/>
     <use xlink:href="#DejaVuSans-73" transform="translate(263.378906 0)"/>
     <use xlink:href="#DejaVuSans-65" transform="translate(315.478516 0)"/>
     <use xlink:href="#DejaVuSans-20" transform="translate(377.001953 0)"/>
     <use xlink:href="#DejaVuSans-54" transform="translate(408.789062 0)"/>
     <use xlink:href="#DejaVuSans-79" transform="translate(454.248047 0)"/>
     <use xlink:href="#DejaVuSans-70" transform="translate(513.427734 0)"/>
     <use xlink:href="#DejaVuSans-65" transform="translate(576.904297 0)"/>
    </g>
   </g>
  </g>
  <g id="axes_9">
   <g id="matplotlib.axis_17"/>
   <g id="matplotlib.axis_18"/>
   <g id="patch_20">
    <path d="M 143.063438 340.507383 
C 140.914537 336.785378 138.252041 333.384543 135.154506 330.405218 
C 132.05697 327.425894 128.555162 324.897672 124.752401 322.895148 
L 103.427187 363.391383 
z
" style="fill: #1f77b4; stroke: #ffffff; stroke-linejoin: miter"/>
   </g>
   <g id="patch_21">
    <path d="M 121.579671 326.193766 
C 116.740473 323.645457 111.483449 321.985066 106.058443 321.291503 
C 100.633438 320.597943 95.127773 320.882373 89.803119 322.13128 
C 84.478464 323.380188 79.420523 325.573472 74.869687 328.606888 
C 70.318851 331.640304 66.348377 335.465018 63.146952 339.899271 
C 59.945528 344.333524 57.564698 349.305928 56.117602 354.58017 
C 54.670507 359.854412 54.180446 365.345596 54.670714 370.792737 
C 55.160983 376.239879 56.623682 381.555305 58.989301 386.486387 
C 61.35492 391.417469 64.585378 395.88484 68.527142 399.676172 
C 72.468907 403.467504 77.058532 406.521778 82.077883 408.693833 
C 87.097235 410.865888 92.465505 412.120758 97.927593 412.398814 
C 103.389681 412.676866 108.857651 411.973622 114.071625 410.322506 
C 119.285599 408.67139 124.161657 406.098973 128.46805 402.727522 
C 132.774442 399.35607 136.441858 395.23984 139.295994 390.574475 
C 142.150129 385.90911 144.145037 380.769719 145.185921 375.400523 
C 146.226809 370.031326 146.296907 364.518764 145.392888 359.124836 
C 144.488869 353.730907 142.625287 348.542429 139.890705 343.805997 
L 100.254455 366.69 
z
" style="fill: #ff7f0e; stroke: #ffffff; stroke-linejoin: miter"/>
   </g>
   <g id="text_45">
    <!-- Yes -->
    <g style="fill: #262626" transform="translate(138.327236 329.865975) scale(0.1 -0.1)">
     <use xlink:href="#DejaVuSans-59"/>
     <use xlink:href="#DejaVuSans-65" transform="translate(47.833984 0)"/>
     <use xlink:href="#DejaVuSans-73" transform="translate(109.357422 0)"/>
    </g>
   </g>
   <g id="text_46">
    <!-- 9% -->
    <g style="fill: #262626" transform="translate(114.531546 346.359058) scale(0.1 -0.1)">
     <use xlink:href="#DejaVuSans-39"/>
     <use xlink:href="#DejaVuSans-25" transform="translate(63.623047 0)"/>
    </g>
   </g>
   <g id="text_47">
    <!-- No -->
    <g style="fill: #262626" transform="translate(51.754421 405.734172) scale(0.1 -0.1)">
     <use xlink:href="#DejaVuSans-4e"/>
     <use xlink:href="#DejaVuSans-6f" transform="translate(74.804688 0)"/>
    </g>
   </g>
   <g id="text_48">
    <!-- 91% -->
    <g style="fill: #262626" transform="translate(70.104792 389.241082) scale(0.1 -0.1)">
     <use xlink:href="#DejaVuSans-39"/>
     <use xlink:href="#DejaVuSans-31" transform="translate(63.623047 0)"/>
     <use xlink:href="#DejaVuSans-25" transform="translate(127.246094 0)"/>
    </g>
   </g>
   <g id="text_49">
    <!-- Version -->
    <g style="fill: #262626" transform="translate(78.190393 303.48) scale(0.12 -0.12)">
     <defs>
      <path id="DejaVuSans-56" d="M 1831 0 
L 50 4666 
L 709 4666 
L 2188 738 
L 3669 4666 
L 4325 4666 
L 2547 0 
L 1831 0 
z
" transform="scale(0.015625)"/>
     </defs>
     <use xlink:href="#DejaVuSans-56"/>
     <use xlink:href="#DejaVuSans-65" transform="translate(60.658203 0)"/>
     <use xlink:href="#DejaVuSans-72" transform="translate(122.181641 0)"/>
     <use xlink:href="#DejaVuSans-73" transform="translate(163.294922 0)"/>
     <use xlink:href="#DejaVuSans-69" transform="translate(215.394531 0)"/>
     <use xlink:href="#DejaVuSans-6f" transform="translate(243.177734 0)"/>
     <use xlink:href="#DejaVuSans-6e" transform="translate(304.359375 0)"/>
    </g>
   </g>
  </g>
  <g id="axes_10">
   <g id="matplotlib.axis_19"/>
   <g id="matplotlib.axis_20"/>
   <g id="patch_22">
    <path d="M 329.026062 339.265281 
C 324.521032 331.46234 317.810577 325.160755 309.740192 321.154502 
C 301.669806 317.14825 292.593294 315.612965 283.654263 316.742086 
C 274.715233 317.871207 266.30557 321.615235 259.484862 327.502436 
C 252.664154 333.389636 247.731421 341.161914 245.308168 349.839992 
L 289.389811 362.149281 
z
" style="fill: #1f77b4; stroke: #ffffff; stroke-linejoin: miter"/>
   </g>
   <g id="patch_23">
    <path d="M 245.881722 354.380713 
C 243.852098 361.649147 243.651324 369.307984 245.297339 376.672774 
C 246.943356 384.037565 250.385626 390.882184 255.316525 396.594953 
C 260.247424 402.307723 266.515552 406.713234 273.560754 409.417791 
C 280.605956 412.122349 288.21193 413.042907 295.698927 412.097194 
C 303.185925 411.151481 310.324074 408.368543 316.475478 403.997074 
C 322.626883 399.625606 327.602657 393.799835 330.958145 387.040382 
C 334.313632 380.28093 335.945797 372.795347 335.708789 365.25258 
C 335.471779 357.709813 333.372862 350.341448 329.599616 343.805997 
L 289.963366 366.69 
z
" style="fill: #ff7f0e; stroke: #ffffff; stroke-linejoin: miter"/>
   </g>
   <g id="text_50">
    <!-- Yes -->
    <g style="fill: #262626" transform="translate(266.935391 314.960742) scale(0.1 -0.1)">
     <use xlink:href="#DejaVuSans-59"/>
     <use xlink:href="#DejaVuSans-65" transform="translate(47.833984 0)"/>
     <use xlink:href="#DejaVuSans-73" transform="translate(109.357422 0)"/>
    </g>
   </g>
   <g id="text_51">
    <!-- 37% -->
    <g style="fill: #262626" transform="translate(274.835199 337.664339) scale(0.1 -0.1)">
     <defs>
      <path id="DejaVuSans-37" d="M 525 4666 
L 3525 4666 
L 3525 4397 
L 1831 0 
L 1172 0 
L 2766 4134 
L 525 4134 
L 525 4666 
z
" transform="scale(0.015625)"/>
     </defs>
     <use xlink:href="#DejaVuSans-33"/>
     <use xlink:href="#DejaVuSans-37" transform="translate(63.623047 0)"/>
     <use xlink:href="#DejaVuSans-25" transform="translate(127.246094 0)"/>
    </g>
   </g>
   <g id="text_52">
    <!-- No -->
    <g style="fill: #262626" transform="translate(296.272484 419.397287) scale(0.1 -0.1)">
     <use xlink:href="#DejaVuSans-4e"/>
     <use xlink:href="#DejaVuSans-6f" transform="translate(74.804688 0)"/>
    </g>
   </g>
   <g id="text_53">
    <!-- 63% -->
    <g style="fill: #262626" transform="translate(282.291422 396.693691) scale(0.1 -0.1)">
     <use xlink:href="#DejaVuSans-36"/>
     <use xlink:href="#DejaVuSans-33" transform="translate(63.623047 0)"/>
     <use xlink:href="#DejaVuSans-25" transform="translate(127.246094 0)"/>
    </g>
   </g>
   <g id="text_54">
    <!-- Contact Email -->
    <g style="fill: #262626" transform="translate(248.066491 303.48) scale(0.12 -0.12)">
     <use xlink:href="#DejaVuSans-43"/>
     <use xlink:href="#DejaVuSans-6f" transform="translate(69.824219 0)"/>
     <use xlink:href="#DejaVuSans-6e" transform="translate(131.005859 0)"/>
     <use xlink:href="#DejaVuSans-74" transform="translate(194.384766 0)"/>
     <use xlink:href="#DejaVuSans-61" transform="translate(233.59375 0)"/>
     <use xlink:href="#DejaVuSans-63" transform="translate(294.873047 0)"/>
     <use xlink:href="#DejaVuSans-74" transform="translate(349.853516 0)"/>
     <use xlink:href="#DejaVuSans-20" transform="translate(389.0625 0)"/>
     <use xlink:href="#DejaVuSans-45" transform="translate(420.849609 0)"/>
     <use xlink:href="#DejaVuSans-6d" transform="translate(484.033203 0)"/>
     <use xlink:href="#DejaVuSans-61" transform="translate(581.445312 0)"/>
     <use xlink:href="#DejaVuSans-69" transform="translate(642.724609 0)"/>
     <use xlink:href="#DejaVuSans-6c" transform="translate(670.507812 0)"/>
    </g>
   </g>
  </g>
  <g id="axes_11">
   <g id="matplotlib.axis_21"/>
   <g id="matplotlib.axis_22"/>
   <g id="patch_24">
    <path d="M 522.496623 340.52223 
C 520.383502 336.862197 517.773575 333.512431 514.741324 330.568527 
C 511.709074 327.624623 508.283622 325.114856 504.562725 323.110849 
L 482.860372 363.40623 
z
" style="fill: #1f77b4; stroke: #ffffff; stroke-linejoin: miter"/>
   </g>
   <g id="patch_25">
    <path d="M 501.374631 326.39462 
C 496.551535 323.796988 491.301005 322.086274 485.873387 321.344041 
C 480.445769 320.601811 474.928718 320.840046 469.585287 322.047392 
C 464.241856 323.254738 459.158334 325.411702 454.577117 328.415429 
C 449.995899 331.419157 445.990974 335.221134 442.753275 339.640099 
C 439.515577 344.059064 437.0974 349.023657 435.614055 354.29714 
C 434.130711 359.570624 433.606146 365.067834 434.065373 370.526685 
C 434.524599 375.985537 435.960204 381.317868 438.303734 386.269415 
C 440.647265 391.220961 443.860864 395.711757 447.791324 399.527701 
C 451.721783 403.343645 456.305631 406.423104 461.324289 408.619239 
C 466.342948 410.815374 471.715366 412.092725 477.185406 412.390387 
C 482.655446 412.688051 488.134769 412.001212 493.3621 410.362629 
C 498.589432 408.724045 503.480349 406.160184 507.801677 402.793277 
C 512.123005 399.42637 515.804954 395.31079 518.671946 390.642781 
C 521.538939 385.974772 523.544682 380.829729 524.593549 375.452944 
C 525.642415 370.076159 525.717468 364.554487 524.815118 359.151182 
C 523.912772 353.747875 522.047593 348.5502 519.308527 343.805997 
L 479.672277 366.69 
z
" style="fill: #ff7f0e; stroke: #ffffff; stroke-linejoin: miter"/>
   </g>
   <g id="text_55">
    <!-- Yes -->
    <g style="fill: #262626" transform="translate(517.929417 330.044129) scale(0.1 -0.1)">
     <use xlink:href="#DejaVuSans-59"/>
     <use xlink:href="#DejaVuSans-65" transform="translate(47.833984 0)"/>
     <use xlink:href="#DejaVuSans-73" transform="translate(109.357422 0)"/>
    </g>
   </g>
   <g id="text_56">
    <!-- 9% -->
    <g style="fill: #262626" transform="translate(494.056911 346.462982) scale(0.1 -0.1)">
     <use xlink:href="#DejaVuSans-39"/>
     <use xlink:href="#DejaVuSans-25" transform="translate(63.623047 0)"/>
    </g>
   </g>
   <g id="text_57">
    <!-- No -->
    <g style="fill: #262626" transform="translate(431.003237 405.570855) scale(0.1 -0.1)">
     <use xlink:href="#DejaVuSans-4e"/>
     <use xlink:href="#DejaVuSans-6f" transform="translate(74.804688 0)"/>
    </g>
   </g>
   <g id="text_58">
    <!-- 91% -->
    <g style="fill: #262626" transform="translate(449.430429 389.152001) scale(0.1 -0.1)">
     <use xlink:href="#DejaVuSans-39"/>
     <use xlink:href="#DejaVuSans-31" transform="translate(63.623047 0)"/>
     <use xlink:href="#DejaVuSans-25" transform="translate(127.246094 0)"/>
    </g>
   </g>
   <g id="text_59">
    <!-- OBO -->
    <g style="fill: #262626" transform="translate(466.214464 303.48) scale(0.12 -0.12)">
     <use xlink:href="#DejaVuSans-4f"/>
     <use xlink:href="#DejaVuSans-42" transform="translate(78.710938 0)"/>
     <use xlink:href="#DejaVuSans-4f" transform="translate(145.564453 0)"/>
    </g>
   </g>
  </g>
  <g id="axes_12">
   <g id="matplotlib.axis_23"/>
   <g id="matplotlib.axis_24"/>
   <g id="patch_26">
    <path d="M 711.149959 339.756376 
C 706.831136 332.275955 700.481645 326.168779 692.838922 322.144141 
C 685.196199 318.119502 676.568037 316.339485 667.95652 317.010822 
L 671.513709 362.640376 
z
" style="fill: #1f77b4; stroke: #ffffff; stroke-linejoin: miter"/>
   </g>
   <g id="patch_27">
    <path d="M 665.823997 321.060445 
C 660.909952 321.443534 656.089899 322.617945 651.550389 324.53822 
C 647.01088 326.458495 642.811243 329.099543 639.114004 332.359147 
C 635.416766 335.618751 632.270248 339.454318 629.796227 343.717395 
C 627.322206 347.980472 625.553015 352.615354 624.557128 357.442653 
C 623.561241 362.269951 623.351672 367.226587 623.936528 372.120721 
C 624.521386 377.014855 625.893031 381.782533 627.998372 386.239229 
C 630.103714 390.695925 632.915233 394.783391 636.324132 398.34345 
C 639.733031 401.903509 643.694764 404.889636 648.05598 407.186239 
C 652.417197 409.482843 657.120916 411.059927 661.985088 411.856444 
C 666.84926 412.652964 671.810321 412.658507 676.676261 411.872869 
C 681.542202 411.087231 686.249415 409.520683 690.615758 407.23384 
C 694.9821 404.946997 698.950495 401.969745 702.367349 398.417321 
C 705.784202 394.864898 708.604857 390.783739 710.720164 386.331765 
C 712.835472 381.87979 714.217777 377.115194 714.813583 372.222381 
C 715.409388 367.329568 715.210911 362.372475 714.225825 357.54296 
C 713.240741 352.713445 711.481916 348.074599 709.017438 343.805997 
L 669.381188 366.69 
z
" style="fill: #ff7f0e; stroke: #ffffff; stroke-linejoin: miter"/>
   </g>
   <g id="text_60">
    <!-- Yes -->
    <g style="fill: #262626" transform="translate(694.97144 320.85389) scale(0.1 -0.1)">
     <use xlink:href="#DejaVuSans-59"/>
     <use xlink:href="#DejaVuSans-65" transform="translate(47.833984 0)"/>
     <use xlink:href="#DejaVuSans-73" transform="translate(109.357422 0)"/>
    </g>
   </g>
   <g id="text_61">
    <!-- 18% -->
    <g style="fill: #262626" transform="translate(673.195554 341.102009) scale(0.1 -0.1)">
     <use xlink:href="#DejaVuSans-31"/>
     <use xlink:href="#DejaVuSans-38" transform="translate(63.623047 0)"/>
     <use xlink:href="#DejaVuSans-25" transform="translate(127.246094 0)"/>
    </g>
   </g>
   <g id="text_62">
    <!-- No -->
    <g style="fill: #262626" transform="translate(632.32346 413.995238) scale(0.1 -0.1)">
     <use xlink:href="#DejaVuSans-4e"/>
     <use xlink:href="#DejaVuSans-6f" transform="translate(74.804688 0)"/>
    </g>
   </g>
   <g id="text_63">
    <!-- 82% -->
    <g style="fill: #262626" transform="translate(645.472782 393.747118) scale(0.1 -0.1)">
     <use xlink:href="#DejaVuSans-38"/>
     <use xlink:href="#DejaVuSans-32" transform="translate(63.623047 0)"/>
     <use xlink:href="#DejaVuSans-25" transform="translate(127.246094 0)"/>
    </g>
   </g>
   <g id="text_64">
    <!-- OWL -->
    <g style="fill: #262626" transform="translate(655.382438 303.48) scale(0.12 -0.12)">
     <defs>
      <path id="DejaVuSans-57" d="M 213 4666 
L 850 4666 
L 1831 722 
L 2809 4666 
L 3519 4666 
L 4500 722 
L 5478 4666 
L 6119 4666 
L 4947 0 
L 4153 0 
L 3169 4050 
L 2175 0 
L 1381 0 
L 213 4666 
z
" transform="scale(0.015625)"/>
     </defs>
     <use xlink:href="#DejaVuSans-4f"/>
     <use xlink:href="#DejaVuSans-57" transform="translate(78.710938 0)"/>
     <use xlink:href="#DejaVuSans-4c" transform="translate(177.587891 0)"/>
    </g>
   </g>
  </g>
  <g id="axes_13">
   <g id="matplotlib.axis_25"/>
   <g id="matplotlib.axis_26"/>
   <g id="patch_28">
    <path d="M 143.499392 482.290954 
C 142.439633 480.455398 141.253647 478.695674 139.949999 477.024491 
C 138.64635 475.353308 137.228187 473.7747 135.70575 472.300069 
L 103.863141 505.174954 
z
" style="fill: #1f77b4; stroke: #ffffff; stroke-linejoin: miter"/>
   </g>
   <g id="patch_29">
    <path d="M 132.097064 475.115114 
C 127.971946 471.119523 123.131398 467.935828 117.82872 465.73062 
C 112.526041 463.525412 106.855372 462.337847 101.113446 462.230061 
C 95.371519 462.122276 89.660271 463.096188 84.278567 465.100832 
C 78.896863 467.105476 73.940243 470.105261 69.668076 473.94322 
C 65.395909 477.781179 61.884042 482.389172 59.316242 487.526071 
C 56.748441 492.66297 55.170296 498.237579 54.664388 503.95819 
C 54.158481 509.678801 54.733788 515.443853 56.36021 520.951673 
C 57.986633 526.459494 60.635291 531.612297 64.16759 536.140452 
C 67.699889 540.668608 72.053121 544.491721 76.999482 547.409741 
C 81.945845 550.32776 87.397537 552.288879 93.069262 553.190473 
C 98.740986 554.092064 104.532051 553.918133 110.139442 552.67777 
C 115.746833 551.437409 121.070998 549.152637 125.833318 545.943018 
C 130.595638 542.733398 134.711565 538.655922 137.965738 533.923937 
C 141.219911 529.19195 143.554551 523.88946 144.847485 518.293957 
C 146.140419 512.698454 146.368697 506.909278 145.520372 501.229341 
C 144.672048 495.549405 142.762183 490.079548 139.890716 485.106016 
L 100.254455 507.99 
z
" style="fill: #ff7f0e; stroke: #ffffff; stroke-linejoin: miter"/>
   </g>
   <g id="text_65">
    <!-- Yes -->
    <g style="fill: #262626" transform="translate(143.558683 476.968818) scale(0.1 -0.1)">
     <use xlink:href="#DejaVuSans-59"/>
     <use xlink:href="#DejaVuSans-65" transform="translate(47.833984 0)"/>
     <use xlink:href="#DejaVuSans-73" transform="translate(109.357422 0)"/>
    </g>
   </g>
   <g id="text_66">
    <!-- 4% -->
    <g style="fill: #262626" transform="translate(117.583224 491.04405) scale(0.1 -0.1)">
     <use xlink:href="#DejaVuSans-34"/>
     <use xlink:href="#DejaVuSans-25" transform="translate(63.623047 0)"/>
    </g>
   </g>
   <g id="text_67">
    <!-- No -->
    <g style="fill: #262626" transform="translate(46.958912 541.714884) scale(0.1 -0.1)">
     <use xlink:href="#DejaVuSans-4e"/>
     <use xlink:href="#DejaVuSans-6f" transform="translate(74.804688 0)"/>
    </g>
   </g>
   <g id="text_68">
    <!-- 96% -->
    <g style="fill: #262626" transform="translate(67.48906 527.639653) scale(0.1 -0.1)">
     <use xlink:href="#DejaVuSans-39"/>
     <use xlink:href="#DejaVuSans-36" transform="translate(63.623047 0)"/>
     <use xlink:href="#DejaVuSans-25" transform="translate(127.246094 0)"/>
    </g>
   </g>
   <g id="text_69">
    <!-- JSON -->
    <g style="fill: #262626" transform="translate(85.463518 444.78) scale(0.12 -0.12)">
     <defs>
      <path id="DejaVuSans-4a" d="M 628 4666 
L 1259 4666 
L 1259 325 
Q 1259 -519 939 -900 
Q 619 -1281 -91 -1281 
L -331 -1281 
L -331 -750 
L -134 -750 
Q 284 -750 456 -515 
Q 628 -281 628 325 
L 628 4666 
z
" transform="scale(0.015625)"/>
      <path id="DejaVuSans-53" d="M 3425 4513 
L 3425 3897 
Q 3066 4069 2747 4153 
Q 2428 4238 2131 4238 
Q 1616 4238 1336 4038 
Q 1056 3838 1056 3469 
Q 1056 3159 1242 3001 
Q 1428 2844 1947 2747 
L 2328 2669 
Q 3034 2534 3370 2195 
Q 3706 1856 3706 1288 
Q 3706 609 3251 259 
Q 2797 -91 1919 -91 
Q 1588 -91 1214 -16 
Q 841 59 441 206 
L 441 856 
Q 825 641 1194 531 
Q 1563 422 1919 422 
Q 2459 422 2753 634 
Q 3047 847 3047 1241 
Q 3047 1584 2836 1778 
Q 2625 1972 2144 2069 
L 1759 2144 
Q 1053 2284 737 2584 
Q 422 2884 422 3419 
Q 422 4038 858 4394 
Q 1294 4750 2059 4750 
Q 2388 4750 2728 4690 
Q 3069 4631 3425 4513 
z
" transform="scale(0.015625)"/>
     </defs>
     <use xlink:href="#DejaVuSans-4a"/>
     <use xlink:href="#DejaVuSans-53" transform="translate(29.492188 0)"/>
     <use xlink:href="#DejaVuSans-4f" transform="translate(92.96875 0)"/>
     <use xlink:href="#DejaVuSans-4e" transform="translate(171.679688 0)"/>
    </g>
   </g>
  </g>
  <g id="axes_14"/>
  <g id="axes_15"/>
  <g id="axes_16"/>
  <g id="text_70">
   <!-- https://github.com/biopragmatics/bioregistry (2026-04-14) -->
   <g style="fill: #808080; opacity: 0.5" transform="translate(278.67625 574.33625) scale(0.08 -0.08)">
    <defs>
     <path id="DejaVuSans-3a" d="M 750 794 
L 1409 794 
L 1409 0 
L 750 0 
L 750 794 
z
M 750 3309 
L 1409 3309 
L 1409 2516 
L 750 2516 
L 750 3309 
z
" transform="scale(0.015625)"/>
     <path id="DejaVuSans-2f" d="M 1625 4666 
L 2156 4666 
L 531 -594 
L 0 -594 
L 1625 4666 
z
" transform="scale(0.015625)"/>
     <path id="DejaVuSans-75" d="M 544 1381 
L 544 3500 
L 1119 3500 
L 1119 1403 
Q 1119 906 1312 657 
Q 1506 409 1894 409 
Q 2359 409 2629 706 
Q 2900 1003 2900 1516 
L 2900 3500 
L 3475 3500 
L 3475 0 
L 2900 0 
L 2900 538 
Q 2691 219 2414 64 
Q 2138 -91 1772 -91 
Q 1169 -91 856 284 
Q 544 659 544 1381 
z
M 1991 3584 
L 1991 3584 
z
" transform="scale(0.015625)"/>
     <path id="DejaVuSans-62" d="M 3116 1747 
Q 3116 2381 2855 2742 
Q 2594 3103 2138 3103 
Q 1681 3103 1420 2742 
Q 1159 2381 1159 1747 
Q 1159 1113 1420 752 
Q 1681 391 2138 391 
Q 2594 391 2855 752 
Q 3116 1113 3116 1747 
z
M 1159 2969 
Q 1341 3281 1617 3432 
Q 1894 3584 2278 3584 
Q 2916 3584 3314 3078 
Q 3713 2572 3713 1747 
Q 3713 922 3314 415 
Q 2916 -91 2278 -91 
Q 1894 -91 1617 61 
Q 1341 213 1159 525 
L 1159 0 
L 581 0 
L 581 4863 
L 1159 4863 
L 1159 2969 
z
" transform="scale(0.015625)"/>
     <path id="DejaVuSans-28" d="M 1984 4856 
Q 1566 4138 1362 3434 
Q 1159 2731 1159 2009 
Q 1159 1288 1364 580 
Q 1569 -128 1984 -844 
L 1484 -844 
Q 1016 -109 783 600 
Q 550 1309 550 2009 
Q 550 2706 781 3412 
Q 1013 4119 1484 4856 
L 1984 4856 
z
" transform="scale(0.015625)"/>
     <path id="DejaVuSans-29" d="M 513 4856 
L 1013 4856 
Q 1481 4119 1714 3412 
Q 1947 2706 1947 2009 
Q 1947 1309 1714 600 
Q 1481 -109 1013 -844 
L 513 -844 
Q 928 -128 1133 580 
Q 1338 1288 1338 2009 
Q 1338 2731 1133 3434 
Q 928 4138 513 4856 
z
" transform="scale(0.015625)"/>
    </defs>
    <use xlink:href="#DejaVuSans-68"/>
    <use xlink:href="#DejaVuSans-74" transform="translate(63.378906 0)"/>
    <use xlink:href="#DejaVuSans-74" transform="translate(102.587891 0)"/>
    <use xlink:href="#DejaVuSans-70" transform="translate(141.796875 0)"/>
    <use xlink:href="#DejaVuSans-73" transform="translate(205.273438 0)"/>
    <use xlink:href="#DejaVuSans-3a" transform="translate(257.373047 0)"/>
    <use xlink:href="#DejaVuSans-2f" transform="translate(291.064453 0)"/>
    <use xlink:href="#DejaVuSans-2f" transform="translate(324.755859 0)"/>
    <use xlink:href="#DejaVuSans-67" transform="translate(358.447266 0)"/>
    <use xlink:href="#DejaVuSans-69" transform="translate(421.923828 0)"/>
    <use xlink:href="#DejaVuSans-74" transform="translate(449.707031 0)"/>
    <use xlink:href="#DejaVuSans-68" transform="translate(488.916016 0)"/>
    <use xlink:href="#DejaVuSans-75" transform="translate(552.294922 0)"/>
    <use xlink:href="#DejaVuSans-62" transform="translate(615.673828 0)"/>
    <use xlink:href="#DejaVuSans-2e" transform="translate(679.150391 0)"/>
    <use xlink:href="#DejaVuSans-63" transform="translate(710.9375 0)"/>
    <use xlink:href="#DejaVuSans-6f" transform="translate(765.917969 0)"/>
    <use xlink:href="#DejaVuSans-6d" transform="translate(827.099609 0)"/>
    <use xlink:href="#DejaVuSans-2f" transform="translate(924.511719 0)"/>
    <use xlink:href="#DejaVuSans-62" transform="translate(958.203125 0)"/>
    <use xlink:href="#DejaVuSans-69" transform="translate(1021.679688 0)"/>
    <use xlink:href="#DejaVuSans-6f" transform="translate(1049.462891 0)"/>
    <use xlink:href="#DejaVuSans-70" transform="translate(1110.644531 0)"/>
    <use xlink:href="#DejaVuSans-72" transform="translate(1174.121094 0)"/>
    <use xlink:href="#DejaVuSans-61" transform="translate(1215.234375 0)"/>
    <use xlink:href="#DejaVuSans-67" transform="translate(1276.513672 0)"/>
    <use xlink:href="#DejaVuSans-6d" transform="translate(1339.990234 0)"/>
    <use xlink:href="#DejaVuSans-61" transform="translate(1437.402344 0)"/>
    <use xlink:href="#DejaVuSans-74" transform="translate(1498.681641 0)"/>
    <use xlink:href="#DejaVuSans-69" transform="translate(1537.890625 0)"/>
    <use xlink:href="#DejaVuSans-63" transform="translate(1565.673828 0)"/>
    <use xlink:href="#DejaVuSans-73" transform="translate(1620.654297 0)"/>
    <use xlink:href="#DejaVuSans-2f" transform="translate(1672.753906 0)"/>
    <use xlink:href="#DejaVuSans-62" transform="translate(1706.445312 0)"/>
    <use xlink:href="#DejaVuSans-69" transform="translate(1769.921875 0)"/>
    <use xlink:href="#DejaVuSans-6f" transform="translate(1797.705078 0)"/>
    <use xlink:href="#DejaVuSans-72" transform="translate(1858.886719 0)"/>
    <use xlink:href="#DejaVuSans-65" transform="translate(1897.75 0)"/>
    <use xlink:href="#DejaVuSans-67" transform="translate(1959.273438 0)"/>
    <use xlink:href="#DejaVuSans-69" transform="translate(2022.75 0)"/>
    <use xlink:href="#DejaVuSans-73" transform="translate(2050.533203 0)"/>
    <use xlink:href="#DejaVuSans-74" transform="translate(2102.632812 0)"/>
    <use xlink:href="#DejaVuSans-72" transform="translate(2141.841797 0)"/>
    <use xlink:href="#DejaVuSans-79" transform="translate(2182.955078 0)"/>
    <use xlink:href="#DejaVuSans-20" transform="translate(2242.134766 0)"/>
    <use xlink:href="#DejaVuSans-28" transform="translate(2273.921875 0)"/>
    <use xlink:href="#DejaVuSans-32" transform="translate(2312.935547 0)"/>
    <use xlink:href="#DejaVuSans-30" transform="translate(2376.558594 0)"/>
    <use xlink:href="#DejaVuSans-32" transform="translate(2440.181641 0)"/>
    <use xlink:href="#DejaVuSans-36" transform="translate(2503.804688 0)"/>
    <use xlink:href="#DejaVuSans-2d" transform="translate(2567.427734 0)"/>
    <use xlink:href="#DejaVuSans-30" transform="translate(2603.511719 0)"/>
    <use xlink:href="#DejaVuSans-34" transform="translate(2667.134766 0)"/>
    <use xlink:href="#DejaVuSans-2d" transform="translate(2730.757812 0)"/>
    <use xlink:href="#DejaVuSans-31" transform="translate(2766.841797 0)"/>
    <use xlink:href="#DejaVuSans-34" transform="translate(2830.464844 0)"/>
    <use xlink:href="#DejaVuSans-29" transform="translate(2894.087891 0)"/>
   </g>
  </g>
 </g>
</svg>
