<?xml version="1.0" encoding="utf-8" standalone="no"?>
<!DOCTYPE svg PUBLIC "-//W3C//DTD SVG 1.1//EN"
  "http://www.w3.org/Graphics/SVG/1.1/DTD/svg11.dtd">
<svg xmlns:xlink="http://www.w3.org/1999/xlink" width="792pt" height="576pt" viewBox="0 0 792 576" xmlns="http://www.w3.org/2000/svg" version="1.1">
 <metadata>
  <rdf:RDF xmlns:dc="http://purl.org/dc/elements/1.1/" xmlns:cc="http://creativecommons.org/ns#" xmlns:rdf="http://www.w3.org/1999/02/22-rdf-syntax-ns#">
   <cc:Work>
    <dc:type rdf:resource="http://purl.org/dc/dcmitype/StillImage"/>
    <dc:date>2022-05-04T13:01:50.751450</dc:date>
    <dc:format>image/svg+xml</dc:format>
    <dc:creator>
     <cc:Agent>
      <dc:title>Matplotlib v3.5.1, https://matplotlib.org/</dc:title>
     </cc:Agent>
    </dc:creator>
   </cc:Work>
  </rdf:RDF>
 </metadata>
 <defs>
  <style type="text/css">*{stroke-linejoin: round; stroke-linecap: butt}</style>
 </defs>
 <g id="figure_1">
  <g id="patch_1">
   <path d="M 0 576 
L 792 576 
L 792 0 
L 0 0 
z
" style="fill: #ffffff"/>
  </g>
  <g id="axes_1">
   <g id="matplotlib.axis_1"/>
   <g id="matplotlib.axis_2"/>
   <g id="patch_2">
    <path d="M 131.094187 61.642589 
C 128.264324 56.741121 124.560266 52.399326 120.165807 48.832641 
C 115.771348 45.265956 110.760395 42.534366 105.381589 40.773412 
C 100.002783 39.012458 94.346586 38.251756 88.693656 38.529051 
C 83.040726 38.806346 77.486134 40.116975 72.305498 42.395905 
C 67.124862 44.674834 62.40531 47.883738 58.381024 51.86339 
C 54.356738 55.843042 51.095399 60.526514 48.758834 65.681411 
C 46.422269 70.836309 45.049773 76.375938 44.709451 82.025424 
C 44.369128 87.67491 45.066702 93.339239 46.767559 98.73735 
C 48.468416 104.13546 51.143951 109.176566 54.661404 113.610529 
C 58.178858 118.044493 62.479074 121.796743 67.348676 124.681094 
C 72.218278 127.565446 77.57537 129.533389 83.154134 130.487277 
C 88.732898 131.441164 94.439511 131.364952 99.990811 130.262423 
C 105.542112 129.159893 110.844739 127.049589 115.635577 124.036222 
C 120.426415 121.022855 124.624892 117.157105 128.022681 112.630789 
C 131.42047 108.104472 133.960427 102.993714 135.516519 97.552107 
C 137.072612 92.1105 137.618669 86.429562 137.127597 80.791179 
L 90.963977 84.811776 
L 131.094187 61.642589 
z
" style="fill: #1f77b4; stroke: #ffffff; stroke-linejoin: miter"/>
   </g>
   <g id="patch_3">
    <path d="M 141.547239 79.398622 
C 141.2543 76.035163 140.594647 72.713771 139.580037 69.493642 
C 138.565426 66.273513 137.201922 63.173893 135.513826 60.250026 
L 95.383619 83.419219 
L 141.547239 79.398622 
z
" style="fill: #ff7f0e; stroke: #ffffff; stroke-linejoin: miter"/>
   </g>
   <g id="text_1">
    <!-- Yes -->
    <g style="fill: #262626" transform="translate(26.029167 102.715063)scale(0.1 -0.1)">
     <defs>
      <path id="ArialMT-59" d="M 1784 0 
L 1784 1941 
L 19 4581 
L 756 4581 
L 1659 3200 
Q 1909 2813 2125 2425 
Q 2331 2784 2625 3234 
L 3513 4581 
L 4219 4581 
L 2391 1941 
L 2391 0 
L 1784 0 
z
" transform="scale(0.015625)"/>
      <path id="ArialMT-65" d="M 2694 1069 
L 3275 997 
Q 3138 488 2766 206 
Q 2394 -75 1816 -75 
Q 1088 -75 661 373 
Q 234 822 234 1631 
Q 234 2469 665 2931 
Q 1097 3394 1784 3394 
Q 2450 3394 2872 2941 
Q 3294 2488 3294 1666 
Q 3294 1616 3291 1516 
L 816 1516 
Q 847 969 1125 678 
Q 1403 388 1819 388 
Q 2128 388 2347 550 
Q 2566 713 2694 1069 
z
M 847 1978 
L 2700 1978 
Q 2663 2397 2488 2606 
Q 2219 2931 1791 2931 
Q 1403 2931 1139 2672 
Q 875 2413 847 1978 
z
" transform="scale(0.015625)"/>
      <path id="ArialMT-73" d="M 197 991 
L 753 1078 
Q 800 744 1014 566 
Q 1228 388 1613 388 
Q 2000 388 2187 545 
Q 2375 703 2375 916 
Q 2375 1106 2209 1216 
Q 2094 1291 1634 1406 
Q 1016 1563 777 1677 
Q 538 1791 414 1992 
Q 291 2194 291 2438 
Q 291 2659 392 2848 
Q 494 3038 669 3163 
Q 800 3259 1026 3326 
Q 1253 3394 1513 3394 
Q 1903 3394 2198 3281 
Q 2494 3169 2634 2976 
Q 2775 2784 2828 2463 
L 2278 2388 
Q 2241 2644 2061 2787 
Q 1881 2931 1553 2931 
Q 1166 2931 1000 2803 
Q 834 2675 834 2503 
Q 834 2394 903 2306 
Q 972 2216 1119 2156 
Q 1203 2125 1616 2013 
Q 2213 1853 2448 1751 
Q 2684 1650 2818 1456 
Q 2953 1263 2953 975 
Q 2953 694 2789 445 
Q 2625 197 2315 61 
Q 2006 -75 1616 -75 
Q 969 -75 630 194 
Q 291 463 197 991 
z
" transform="scale(0.015625)"/>
     </defs>
     <use xlink:href="#ArialMT-59"/>
     <use xlink:href="#ArialMT-65" x="57.574219"/>
     <use xlink:href="#ArialMT-73" x="113.189453"/>
    </g>
   </g>
   <g id="text_2">
    <!-- 93% -->
    <g style="fill: #262626" transform="translate(54.439095 95.752277)scale(0.1 -0.1)">
     <defs>
      <path id="ArialMT-39" d="M 350 1059 
L 891 1109 
Q 959 728 1153 556 
Q 1347 384 1650 384 
Q 1909 384 2104 503 
Q 2300 622 2425 820 
Q 2550 1019 2634 1356 
Q 2719 1694 2719 2044 
Q 2719 2081 2716 2156 
Q 2547 1888 2255 1720 
Q 1963 1553 1622 1553 
Q 1053 1553 659 1965 
Q 266 2378 266 3053 
Q 266 3750 677 4175 
Q 1088 4600 1706 4600 
Q 2153 4600 2523 4359 
Q 2894 4119 3086 3673 
Q 3278 3228 3278 2384 
Q 3278 1506 3087 986 
Q 2897 466 2520 194 
Q 2144 -78 1638 -78 
Q 1100 -78 759 220 
Q 419 519 350 1059 
z
M 2653 3081 
Q 2653 3566 2395 3850 
Q 2138 4134 1775 4134 
Q 1400 4134 1122 3828 
Q 844 3522 844 3034 
Q 844 2597 1108 2323 
Q 1372 2050 1759 2050 
Q 2150 2050 2401 2323 
Q 2653 2597 2653 3081 
z
" transform="scale(0.015625)"/>
      <path id="ArialMT-33" d="M 269 1209 
L 831 1284 
Q 928 806 1161 595 
Q 1394 384 1728 384 
Q 2125 384 2398 659 
Q 2672 934 2672 1341 
Q 2672 1728 2419 1979 
Q 2166 2231 1775 2231 
Q 1616 2231 1378 2169 
L 1441 2663 
Q 1497 2656 1531 2656 
Q 1891 2656 2178 2843 
Q 2466 3031 2466 3422 
Q 2466 3731 2256 3934 
Q 2047 4138 1716 4138 
Q 1388 4138 1169 3931 
Q 950 3725 888 3313 
L 325 3413 
Q 428 3978 793 4289 
Q 1159 4600 1703 4600 
Q 2078 4600 2393 4439 
Q 2709 4278 2876 4000 
Q 3044 3722 3044 3409 
Q 3044 3113 2884 2869 
Q 2725 2625 2413 2481 
Q 2819 2388 3044 2092 
Q 3269 1797 3269 1353 
Q 3269 753 2831 336 
Q 2394 -81 1725 -81 
Q 1122 -81 723 278 
Q 325 638 269 1209 
z
" transform="scale(0.015625)"/>
      <path id="ArialMT-25" d="M 372 3481 
Q 372 3972 619 4315 
Q 866 4659 1334 4659 
Q 1766 4659 2048 4351 
Q 2331 4044 2331 3447 
Q 2331 2866 2045 2552 
Q 1759 2238 1341 2238 
Q 925 2238 648 2547 
Q 372 2856 372 3481 
z
M 1350 4272 
Q 1141 4272 1002 4090 
Q 863 3909 863 3425 
Q 863 2984 1003 2804 
Q 1144 2625 1350 2625 
Q 1563 2625 1702 2806 
Q 1841 2988 1841 3469 
Q 1841 3913 1700 4092 
Q 1559 4272 1350 4272 
z
M 1353 -169 
L 3859 4659 
L 4316 4659 
L 1819 -169 
L 1353 -169 
z
M 3334 1075 
Q 3334 1569 3581 1911 
Q 3828 2253 4300 2253 
Q 4731 2253 5014 1945 
Q 5297 1638 5297 1041 
Q 5297 459 5011 145 
Q 4725 -169 4303 -169 
Q 3888 -169 3611 142 
Q 3334 453 3334 1075 
z
M 4316 1866 
Q 4103 1866 3964 1684 
Q 3825 1503 3825 1019 
Q 3825 581 3965 400 
Q 4106 219 4313 219 
Q 4528 219 4667 400 
Q 4806 581 4806 1063 
Q 4806 1506 4665 1686 
Q 4525 1866 4316 1866 
z
" transform="scale(0.015625)"/>
     </defs>
     <use xlink:href="#ArialMT-39"/>
     <use xlink:href="#ArialMT-33" x="55.615234"/>
     <use xlink:href="#ArialMT-25" x="111.230469"/>
    </g>
   </g>
   <g id="text_3">
    <!-- No -->
    <g style="fill: #262626" transform="translate(143.999678 70.686241)scale(0.1 -0.1)">
     <defs>
      <path id="ArialMT-4e" d="M 488 0 
L 488 4581 
L 1109 4581 
L 3516 984 
L 3516 4581 
L 4097 4581 
L 4097 0 
L 3475 0 
L 1069 3600 
L 1069 0 
L 488 0 
z
" transform="scale(0.015625)"/>
      <path id="ArialMT-6f" d="M 213 1659 
Q 213 2581 725 3025 
Q 1153 3394 1769 3394 
Q 2453 3394 2887 2945 
Q 3322 2497 3322 1706 
Q 3322 1066 3130 698 
Q 2938 331 2570 128 
Q 2203 -75 1769 -75 
Q 1072 -75 642 372 
Q 213 819 213 1659 
z
M 791 1659 
Q 791 1022 1069 705 
Q 1347 388 1769 388 
Q 2188 388 2466 706 
Q 2744 1025 2744 1678 
Q 2744 2294 2464 2611 
Q 2184 2928 1769 2928 
Q 1347 2928 1069 2612 
Q 791 2297 791 1659 
z
" transform="scale(0.015625)"/>
     </defs>
     <use xlink:href="#ArialMT-4e"/>
     <use xlink:href="#ArialMT-6f" x="72.216797"/>
    </g>
   </g>
   <g id="text_4">
    <!-- 7% -->
    <g style="fill: #262626" transform="translate(114.674907 77.649029)scale(0.1 -0.1)">
     <defs>
      <path id="ArialMT-37" d="M 303 3981 
L 303 4522 
L 3269 4522 
L 3269 4084 
Q 2831 3619 2401 2847 
Q 1972 2075 1738 1259 
Q 1569 684 1522 0 
L 944 0 
Q 953 541 1156 1306 
Q 1359 2072 1739 2783 
Q 2119 3494 2547 3981 
L 303 3981 
z
" transform="scale(0.015625)"/>
     </defs>
     <use xlink:href="#ArialMT-37"/>
     <use xlink:href="#ArialMT-25" x="55.615234"/>
    </g>
   </g>
   <g id="text_5">
    <!-- Name -->
    <g style="fill: #262626" transform="translate(79.379557 19.49625)scale(0.12 -0.12)">
     <defs>
      <path id="ArialMT-61" d="M 2588 409 
Q 2275 144 1986 34 
Q 1697 -75 1366 -75 
Q 819 -75 525 192 
Q 231 459 231 875 
Q 231 1119 342 1320 
Q 453 1522 633 1644 
Q 813 1766 1038 1828 
Q 1203 1872 1538 1913 
Q 2219 1994 2541 2106 
Q 2544 2222 2544 2253 
Q 2544 2597 2384 2738 
Q 2169 2928 1744 2928 
Q 1347 2928 1158 2789 
Q 969 2650 878 2297 
L 328 2372 
Q 403 2725 575 2942 
Q 747 3159 1072 3276 
Q 1397 3394 1825 3394 
Q 2250 3394 2515 3294 
Q 2781 3194 2906 3042 
Q 3031 2891 3081 2659 
Q 3109 2516 3109 2141 
L 3109 1391 
Q 3109 606 3145 398 
Q 3181 191 3288 0 
L 2700 0 
Q 2613 175 2588 409 
z
M 2541 1666 
Q 2234 1541 1622 1453 
Q 1275 1403 1131 1340 
Q 988 1278 909 1158 
Q 831 1038 831 891 
Q 831 666 1001 516 
Q 1172 366 1500 366 
Q 1825 366 2078 508 
Q 2331 650 2450 897 
Q 2541 1088 2541 1459 
L 2541 1666 
z
" transform="scale(0.015625)"/>
      <path id="ArialMT-6d" d="M 422 0 
L 422 3319 
L 925 3319 
L 925 2853 
Q 1081 3097 1340 3245 
Q 1600 3394 1931 3394 
Q 2300 3394 2536 3241 
Q 2772 3088 2869 2813 
Q 3263 3394 3894 3394 
Q 4388 3394 4653 3120 
Q 4919 2847 4919 2278 
L 4919 0 
L 4359 0 
L 4359 2091 
Q 4359 2428 4304 2576 
Q 4250 2725 4106 2815 
Q 3963 2906 3769 2906 
Q 3419 2906 3187 2673 
Q 2956 2441 2956 1928 
L 2956 0 
L 2394 0 
L 2394 2156 
Q 2394 2531 2256 2718 
Q 2119 2906 1806 2906 
Q 1569 2906 1367 2781 
Q 1166 2656 1075 2415 
Q 984 2175 984 1722 
L 984 0 
L 422 0 
z
" transform="scale(0.015625)"/>
     </defs>
     <use xlink:href="#ArialMT-4e"/>
     <use xlink:href="#ArialMT-61" x="72.216797"/>
     <use xlink:href="#ArialMT-6d" x="127.832031"/>
     <use xlink:href="#ArialMT-65" x="211.132812"/>
    </g>
   </g>
  </g>
  <g id="axes_2">
   <g id="matplotlib.axis_3"/>
   <g id="matplotlib.axis_4"/>
   <g id="patch_4">
    <path d="M 311.061426 61.642589 
C 308.231562 56.741121 304.527504 52.399326 300.133045 48.832641 
C 295.738586 45.265956 290.727633 42.534366 285.348827 40.773412 
C 279.970022 39.012458 274.313825 38.251756 268.660895 38.529051 
C 263.007965 38.806346 257.453373 40.116975 252.272737 42.395905 
C 247.092101 44.674834 242.372549 47.883738 238.348263 51.86339 
C 234.323977 55.843042 231.062638 60.526514 228.726073 65.681411 
C 226.389507 70.836309 225.017012 76.375938 224.676689 82.025424 
C 224.336367 87.67491 225.033941 93.339239 226.734798 98.73735 
C 228.435655 104.13546 231.111189 109.176566 234.628643 113.610529 
C 238.146097 118.044493 242.446312 121.796743 247.315914 124.681094 
C 252.185517 127.565446 257.542609 129.533389 263.121373 130.487277 
C 268.700137 131.441164 274.406749 131.364952 279.95805 130.262423 
C 285.509351 129.159893 290.811977 127.049589 295.602816 124.036222 
C 300.393654 121.022855 304.592131 117.157105 307.98992 112.630789 
C 311.387709 108.104472 313.927665 102.993714 315.483758 97.552107 
C 317.03985 92.1105 317.585908 86.429562 317.094836 80.791179 
L 270.931216 84.811776 
L 311.061426 61.642589 
z
" style="fill: #1f77b4; stroke: #ffffff; stroke-linejoin: miter"/>
   </g>
   <g id="patch_5">
    <path d="M 321.514478 79.398622 
C 321.221539 76.035163 320.561886 72.713771 319.547275 69.493642 
C 318.532665 66.273513 317.16916 63.173893 315.481065 60.250026 
L 275.350858 83.419219 
L 321.514478 79.398622 
z
" style="fill: #ff7f0e; stroke: #ffffff; stroke-linejoin: miter"/>
   </g>
   <g id="text_6">
    <!-- Yes -->
    <g style="fill: #262626" transform="translate(205.996406 102.715063)scale(0.1 -0.1)">
     <use xlink:href="#ArialMT-59"/>
     <use xlink:href="#ArialMT-65" x="57.574219"/>
     <use xlink:href="#ArialMT-73" x="113.189453"/>
    </g>
   </g>
   <g id="text_7">
    <!-- 93% -->
    <g style="fill: #262626" transform="translate(234.406334 95.752277)scale(0.1 -0.1)">
     <use xlink:href="#ArialMT-39"/>
     <use xlink:href="#ArialMT-33" x="55.615234"/>
     <use xlink:href="#ArialMT-25" x="111.230469"/>
    </g>
   </g>
   <g id="text_8">
    <!-- No -->
    <g style="fill: #262626" transform="translate(323.966917 70.686241)scale(0.1 -0.1)">
     <use xlink:href="#ArialMT-4e"/>
     <use xlink:href="#ArialMT-6f" x="72.216797"/>
    </g>
   </g>
   <g id="text_9">
    <!-- 7% -->
    <g style="fill: #262626" transform="translate(294.642146 77.649029)scale(0.1 -0.1)">
     <use xlink:href="#ArialMT-37"/>
     <use xlink:href="#ArialMT-25" x="55.615234"/>
    </g>
   </g>
   <g id="text_10">
    <!-- Homepage -->
    <g style="fill: #262626" transform="translate(246.000545 19.49625)scale(0.12 -0.12)">
     <defs>
      <path id="ArialMT-48" d="M 513 0 
L 513 4581 
L 1119 4581 
L 1119 2700 
L 3500 2700 
L 3500 4581 
L 4106 4581 
L 4106 0 
L 3500 0 
L 3500 2159 
L 1119 2159 
L 1119 0 
L 513 0 
z
" transform="scale(0.015625)"/>
      <path id="ArialMT-70" d="M 422 -1272 
L 422 3319 
L 934 3319 
L 934 2888 
Q 1116 3141 1344 3267 
Q 1572 3394 1897 3394 
Q 2322 3394 2647 3175 
Q 2972 2956 3137 2557 
Q 3303 2159 3303 1684 
Q 3303 1175 3120 767 
Q 2938 359 2589 142 
Q 2241 -75 1856 -75 
Q 1575 -75 1351 44 
Q 1128 163 984 344 
L 984 -1272 
L 422 -1272 
z
M 931 1641 
Q 931 1000 1190 694 
Q 1450 388 1819 388 
Q 2194 388 2461 705 
Q 2728 1022 2728 1688 
Q 2728 2322 2467 2637 
Q 2206 2953 1844 2953 
Q 1484 2953 1207 2617 
Q 931 2281 931 1641 
z
" transform="scale(0.015625)"/>
      <path id="ArialMT-67" d="M 319 -275 
L 866 -356 
Q 900 -609 1056 -725 
Q 1266 -881 1628 -881 
Q 2019 -881 2231 -725 
Q 2444 -569 2519 -288 
Q 2563 -116 2559 434 
Q 2191 0 1641 0 
Q 956 0 581 494 
Q 206 988 206 1678 
Q 206 2153 378 2554 
Q 550 2956 876 3175 
Q 1203 3394 1644 3394 
Q 2231 3394 2613 2919 
L 2613 3319 
L 3131 3319 
L 3131 450 
Q 3131 -325 2973 -648 
Q 2816 -972 2473 -1159 
Q 2131 -1347 1631 -1347 
Q 1038 -1347 672 -1080 
Q 306 -813 319 -275 
z
M 784 1719 
Q 784 1066 1043 766 
Q 1303 466 1694 466 
Q 2081 466 2343 764 
Q 2606 1063 2606 1700 
Q 2606 2309 2336 2618 
Q 2066 2928 1684 2928 
Q 1309 2928 1046 2623 
Q 784 2319 784 1719 
z
" transform="scale(0.015625)"/>
     </defs>
     <use xlink:href="#ArialMT-48"/>
     <use xlink:href="#ArialMT-6f" x="72.216797"/>
     <use xlink:href="#ArialMT-6d" x="127.832031"/>
     <use xlink:href="#ArialMT-65" x="211.132812"/>
     <use xlink:href="#ArialMT-70" x="266.748047"/>
     <use xlink:href="#ArialMT-61" x="322.363281"/>
     <use xlink:href="#ArialMT-67" x="377.978516"/>
     <use xlink:href="#ArialMT-65" x="433.59375"/>
    </g>
   </g>
  </g>
  <g id="axes_3">
   <g id="matplotlib.axis_5"/>
   <g id="matplotlib.axis_6"/>
   <g id="patch_6">
    <path d="M 491.028665 61.642589 
C 488.198801 56.741121 484.494743 52.399326 480.100284 48.832641 
C 475.705825 45.265956 470.694872 42.534366 465.316066 40.773412 
C 459.93726 39.012458 454.281063 38.251756 448.628133 38.529051 
C 442.975203 38.806346 437.420612 40.116975 432.239976 42.395905 
C 427.05934 44.674834 422.339787 47.883738 418.315501 51.86339 
C 414.291215 55.843042 411.029876 60.526514 408.693311 65.681411 
C 406.356746 70.836309 404.98425 76.375938 404.643928 82.025424 
C 404.303605 87.67491 405.001179 93.339239 406.702036 98.73735 
C 408.402893 104.13546 411.078428 109.176566 414.595882 113.610529 
C 418.113335 118.044493 422.413551 121.796743 427.283153 124.681094 
C 432.152755 127.565446 437.509847 129.533389 443.088611 130.487277 
C 448.667375 131.441164 454.373988 131.364952 459.925289 130.262423 
C 465.476589 129.159893 470.779216 127.049589 475.570054 124.036222 
C 480.360892 121.022855 484.55937 117.157105 487.957158 112.630789 
C 491.354947 108.104472 493.894904 102.993714 495.450996 97.552107 
C 497.007089 92.1105 497.553147 86.429562 497.062075 80.791179 
L 450.898455 84.811776 
L 491.028665 61.642589 
z
" style="fill: #1f77b4; stroke: #ffffff; stroke-linejoin: miter"/>
   </g>
   <g id="patch_7">
    <path d="M 501.481716 79.398622 
C 501.188778 76.035163 500.529124 72.713771 499.514514 69.493642 
C 498.499903 66.273513 497.136399 63.173893 495.448303 60.250026 
L 455.318097 83.419219 
L 501.481716 79.398622 
z
" style="fill: #ff7f0e; stroke: #ffffff; stroke-linejoin: miter"/>
   </g>
   <g id="text_11">
    <!-- Yes -->
    <g style="fill: #262626" transform="translate(385.963644 102.715063)scale(0.1 -0.1)">
     <use xlink:href="#ArialMT-59"/>
     <use xlink:href="#ArialMT-65" x="57.574219"/>
     <use xlink:href="#ArialMT-73" x="113.189453"/>
    </g>
   </g>
   <g id="text_12">
    <!-- 93% -->
    <g style="fill: #262626" transform="translate(414.373572 95.752277)scale(0.1 -0.1)">
     <use xlink:href="#ArialMT-39"/>
     <use xlink:href="#ArialMT-33" x="55.615234"/>
     <use xlink:href="#ArialMT-25" x="111.230469"/>
    </g>
   </g>
   <g id="text_13">
    <!-- No -->
    <g style="fill: #262626" transform="translate(503.934156 70.686241)scale(0.1 -0.1)">
     <use xlink:href="#ArialMT-4e"/>
     <use xlink:href="#ArialMT-6f" x="72.216797"/>
    </g>
   </g>
   <g id="text_14">
    <!-- 7% -->
    <g style="fill: #262626" transform="translate(474.609384 77.649029)scale(0.1 -0.1)">
     <use xlink:href="#ArialMT-37"/>
     <use xlink:href="#ArialMT-25" x="55.615234"/>
    </g>
   </g>
   <g id="text_15">
    <!-- Description -->
    <g style="fill: #262626" transform="translate(425.307784 19.49625)scale(0.12 -0.12)">
     <defs>
      <path id="ArialMT-44" d="M 494 0 
L 494 4581 
L 2072 4581 
Q 2606 4581 2888 4516 
Q 3281 4425 3559 4188 
Q 3922 3881 4101 3404 
Q 4281 2928 4281 2316 
Q 4281 1794 4159 1391 
Q 4038 988 3847 723 
Q 3656 459 3429 307 
Q 3203 156 2883 78 
Q 2563 0 2147 0 
L 494 0 
z
M 1100 541 
L 2078 541 
Q 2531 541 2789 625 
Q 3047 709 3200 863 
Q 3416 1078 3536 1442 
Q 3656 1806 3656 2325 
Q 3656 3044 3420 3430 
Q 3184 3816 2847 3947 
Q 2603 4041 2063 4041 
L 1100 4041 
L 1100 541 
z
" transform="scale(0.015625)"/>
      <path id="ArialMT-63" d="M 2588 1216 
L 3141 1144 
Q 3050 572 2676 248 
Q 2303 -75 1759 -75 
Q 1078 -75 664 370 
Q 250 816 250 1647 
Q 250 2184 428 2587 
Q 606 2991 970 3192 
Q 1334 3394 1763 3394 
Q 2303 3394 2647 3120 
Q 2991 2847 3088 2344 
L 2541 2259 
Q 2463 2594 2264 2762 
Q 2066 2931 1784 2931 
Q 1359 2931 1093 2626 
Q 828 2322 828 1663 
Q 828 994 1084 691 
Q 1341 388 1753 388 
Q 2084 388 2306 591 
Q 2528 794 2588 1216 
z
" transform="scale(0.015625)"/>
      <path id="ArialMT-72" d="M 416 0 
L 416 3319 
L 922 3319 
L 922 2816 
Q 1116 3169 1280 3281 
Q 1444 3394 1641 3394 
Q 1925 3394 2219 3213 
L 2025 2691 
Q 1819 2813 1613 2813 
Q 1428 2813 1281 2702 
Q 1134 2591 1072 2394 
Q 978 2094 978 1738 
L 978 0 
L 416 0 
z
" transform="scale(0.015625)"/>
      <path id="ArialMT-69" d="M 425 3934 
L 425 4581 
L 988 4581 
L 988 3934 
L 425 3934 
z
M 425 0 
L 425 3319 
L 988 3319 
L 988 0 
L 425 0 
z
" transform="scale(0.015625)"/>
      <path id="ArialMT-74" d="M 1650 503 
L 1731 6 
Q 1494 -44 1306 -44 
Q 1000 -44 831 53 
Q 663 150 594 308 
Q 525 466 525 972 
L 525 2881 
L 113 2881 
L 113 3319 
L 525 3319 
L 525 4141 
L 1084 4478 
L 1084 3319 
L 1650 3319 
L 1650 2881 
L 1084 2881 
L 1084 941 
Q 1084 700 1114 631 
Q 1144 563 1211 522 
Q 1278 481 1403 481 
Q 1497 481 1650 503 
z
" transform="scale(0.015625)"/>
      <path id="ArialMT-6e" d="M 422 0 
L 422 3319 
L 928 3319 
L 928 2847 
Q 1294 3394 1984 3394 
Q 2284 3394 2536 3286 
Q 2788 3178 2913 3003 
Q 3038 2828 3088 2588 
Q 3119 2431 3119 2041 
L 3119 0 
L 2556 0 
L 2556 2019 
Q 2556 2363 2490 2533 
Q 2425 2703 2258 2804 
Q 2091 2906 1866 2906 
Q 1506 2906 1245 2678 
Q 984 2450 984 1813 
L 984 0 
L 422 0 
z
" transform="scale(0.015625)"/>
     </defs>
     <use xlink:href="#ArialMT-44"/>
     <use xlink:href="#ArialMT-65" x="72.216797"/>
     <use xlink:href="#ArialMT-73" x="127.832031"/>
     <use xlink:href="#ArialMT-63" x="177.832031"/>
     <use xlink:href="#ArialMT-72" x="227.832031"/>
     <use xlink:href="#ArialMT-69" x="261.132812"/>
     <use xlink:href="#ArialMT-70" x="283.349609"/>
     <use xlink:href="#ArialMT-74" x="338.964844"/>
     <use xlink:href="#ArialMT-69" x="366.748047"/>
     <use xlink:href="#ArialMT-6f" x="388.964844"/>
     <use xlink:href="#ArialMT-6e" x="444.580078"/>
    </g>
   </g>
  </g>
  <g id="axes_4">
   <g id="matplotlib.axis_7"/>
   <g id="matplotlib.axis_8"/>
   <g id="patch_8">
    <path d="M 670.935405 61.433585 
C 668.151246 56.61128 664.520529 52.330068 660.217716 48.79567 
C 655.914904 45.261271 651.010038 42.53122 645.738808 40.736701 
C 640.467578 38.942182 634.915789 38.112406 629.350216 38.287246 
C 623.784644 38.462085 618.295884 39.638695 613.147685 41.760535 
C 607.999485 43.882376 603.275648 46.914908 599.203163 50.712412 
C 595.130679 54.509916 591.77584 59.010576 589.299852 63.998126 
C 586.823865 68.985675 585.267034 74.378927 584.704169 79.918724 
C 584.141303 85.458521 584.581565 91.054685 586.0038 96.43831 
C 587.426035 101.821935 589.80709 106.905385 593.032552 111.444389 
C 596.258014 115.983394 600.275378 119.904067 604.891601 123.018012 
C 609.507824 126.131956 614.647762 128.388484 620.064432 129.679163 
C 625.481102 130.969843 631.08633 131.273664 636.610773 130.576028 
C 642.135216 129.878393 647.488947 128.190656 652.414708 125.593918 
C 657.340468 122.997179 661.758076 119.533709 665.455257 115.369934 
C 669.152438 111.206159 672.069008 106.409858 674.06482 101.211502 
C 676.060632 96.013147 677.103198 90.497356 677.142421 84.929176 
L 630.805196 84.602773 
L 670.935405 61.433585 
z
" style="fill: #1f77b4; stroke: #ffffff; stroke-linejoin: miter"/>
   </g>
   <g id="patch_9">
    <path d="M 681.622561 83.745623 
C 681.65147 79.641537 681.135004 75.55174 680.086731 71.583682 
C 679.038458 67.615625 677.46764 63.804364 675.415546 60.250033 
L 635.285335 83.419219 
L 681.622561 83.745623 
z
" style="fill: #ff7f0e; stroke: #ffffff; stroke-linejoin: miter"/>
   </g>
   <g id="text_16">
    <!-- Yes -->
    <g style="fill: #262626" transform="translate(565.20491 100.20702)scale(0.1 -0.1)">
     <use xlink:href="#ArialMT-59"/>
     <use xlink:href="#ArialMT-65" x="57.574219"/>
     <use xlink:href="#ArialMT-73" x="113.189453"/>
    </g>
   </g>
   <g id="text_17">
    <!-- 92% -->
    <g style="fill: #262626" transform="translate(593.917327 94.289251)scale(0.1 -0.1)">
     <defs>
      <path id="ArialMT-32" d="M 3222 541 
L 3222 0 
L 194 0 
Q 188 203 259 391 
Q 375 700 629 1000 
Q 884 1300 1366 1694 
Q 2113 2306 2375 2664 
Q 2638 3022 2638 3341 
Q 2638 3675 2398 3904 
Q 2159 4134 1775 4134 
Q 1369 4134 1125 3890 
Q 881 3647 878 3216 
L 300 3275 
Q 359 3922 746 4261 
Q 1134 4600 1788 4600 
Q 2447 4600 2831 4234 
Q 3216 3869 3216 3328 
Q 3216 3053 3103 2787 
Q 2991 2522 2730 2228 
Q 2469 1934 1863 1422 
Q 1356 997 1212 845 
Q 1069 694 975 541 
L 3222 541 
z
" transform="scale(0.015625)"/>
     </defs>
     <use xlink:href="#ArialMT-39"/>
     <use xlink:href="#ArialMT-32" x="55.615234"/>
     <use xlink:href="#ArialMT-25" x="111.230469"/>
    </g>
   </g>
   <g id="text_18">
    <!-- No -->
    <g style="fill: #262626" transform="translate(684.566871 72.985285)scale(0.1 -0.1)">
     <use xlink:href="#ArialMT-4e"/>
     <use xlink:href="#ArialMT-6f" x="72.216797"/>
    </g>
   </g>
   <g id="text_19">
    <!-- 8% -->
    <g style="fill: #262626" transform="translate(654.93961 78.903053)scale(0.1 -0.1)">
     <defs>
      <path id="ArialMT-38" d="M 1131 2484 
Q 781 2613 612 2850 
Q 444 3088 444 3419 
Q 444 3919 803 4259 
Q 1163 4600 1759 4600 
Q 2359 4600 2725 4251 
Q 3091 3903 3091 3403 
Q 3091 3084 2923 2848 
Q 2756 2613 2416 2484 
Q 2838 2347 3058 2040 
Q 3278 1734 3278 1309 
Q 3278 722 2862 322 
Q 2447 -78 1769 -78 
Q 1091 -78 675 323 
Q 259 725 259 1325 
Q 259 1772 486 2073 
Q 713 2375 1131 2484 
z
M 1019 3438 
Q 1019 3113 1228 2906 
Q 1438 2700 1772 2700 
Q 2097 2700 2305 2904 
Q 2513 3109 2513 3406 
Q 2513 3716 2298 3927 
Q 2084 4138 1766 4138 
Q 1444 4138 1231 3931 
Q 1019 3725 1019 3438 
z
M 838 1322 
Q 838 1081 952 856 
Q 1066 631 1291 507 
Q 1516 384 1775 384 
Q 2178 384 2440 643 
Q 2703 903 2703 1303 
Q 2703 1709 2433 1975 
Q 2163 2241 1756 2241 
Q 1359 2241 1098 1978 
Q 838 1716 838 1322 
z
" transform="scale(0.015625)"/>
     </defs>
     <use xlink:href="#ArialMT-38"/>
     <use xlink:href="#ArialMT-25" x="55.615234"/>
    </g>
   </g>
   <g id="text_20">
    <!-- Example -->
    <g style="fill: #262626" transform="translate(611.942523 19.49625)scale(0.12 -0.12)">
     <defs>
      <path id="ArialMT-45" d="M 506 0 
L 506 4581 
L 3819 4581 
L 3819 4041 
L 1113 4041 
L 1113 2638 
L 3647 2638 
L 3647 2100 
L 1113 2100 
L 1113 541 
L 3925 541 
L 3925 0 
L 506 0 
z
" transform="scale(0.015625)"/>
      <path id="ArialMT-78" d="M 47 0 
L 1259 1725 
L 138 3319 
L 841 3319 
L 1350 2541 
Q 1494 2319 1581 2169 
Q 1719 2375 1834 2534 
L 2394 3319 
L 3066 3319 
L 1919 1756 
L 3153 0 
L 2463 0 
L 1781 1031 
L 1600 1309 
L 728 0 
L 47 0 
z
" transform="scale(0.015625)"/>
      <path id="ArialMT-6c" d="M 409 0 
L 409 4581 
L 972 4581 
L 972 0 
L 409 0 
z
" transform="scale(0.015625)"/>
     </defs>
     <use xlink:href="#ArialMT-45"/>
     <use xlink:href="#ArialMT-78" x="66.699219"/>
     <use xlink:href="#ArialMT-61" x="116.699219"/>
     <use xlink:href="#ArialMT-6d" x="172.314453"/>
     <use xlink:href="#ArialMT-70" x="255.615234"/>
     <use xlink:href="#ArialMT-6c" x="311.230469"/>
     <use xlink:href="#ArialMT-65" x="333.447266"/>
    </g>
   </g>
  </g>
  <g id="axes_5">
   <g id="matplotlib.axis_9"/>
   <g id="matplotlib.axis_10"/>
   <g id="patch_10">
    <path d="M 130.887347 201.274984 
C 128.409111 196.982553 125.258155 193.115409 121.554794 189.821212 
C 117.851433 186.527015 113.64341 183.848234 109.091402 181.887154 
C 104.539393 179.926074 99.702084 178.707976 94.764178 178.279373 
C 89.826272 177.850769 84.851429 178.217185 80.029605 179.36463 
C 75.207781 180.512075 70.601138 182.425755 66.385575 185.0326 
C 62.170012 187.639445 58.399874 190.905848 55.219119 194.707086 
C 52.038363 198.508324 49.487996 202.795393 47.665399 207.404596 
C 45.842802 212.013799 44.771472 216.885717 44.492316 221.834321 
C 44.21316 226.782926 44.729776 231.744421 46.022439 236.52936 
C 47.315102 241.314299 49.367147 245.860994 52.100219 249.995838 
C 54.833291 254.130681 58.212156 257.800367 62.107798 260.864775 
C 66.00344 263.929182 70.365635 266.348804 75.027822 268.031252 
C 79.690009 269.713701 84.592082 270.637284 89.546863 270.766738 
C 94.501644 270.896193 99.445257 270.229848 104.188938 268.793148 
C 108.932619 267.356448 113.415213 265.167914 117.465559 262.311112 
C 121.515904 259.454311 125.081785 255.966071 128.027044 251.979585 
L 90.757137 224.444171 
L 130.887347 201.274984 
z
" style="fill: #1f77b4; stroke: #ffffff; stroke-linejoin: miter"/>
   </g>
   <g id="patch_11">
    <path d="M 132.653526 252.24057 
C 138.013596 244.985575 141.140405 236.320957 141.648441 227.315004 
C 142.156476 218.309051 140.023963 209.347749 135.513827 201.535965 
L 95.383619 224.705156 
L 132.653526 252.24057 
z
" style="fill: #ff7f0e; stroke: #ffffff; stroke-linejoin: miter"/>
   </g>
   <g id="text_21">
    <!-- Yes -->
    <g style="fill: #262626" transform="translate(23.547084 224.158493)scale(0.1 -0.1)">
     <use xlink:href="#ArialMT-59"/>
     <use xlink:href="#ArialMT-65" x="57.574219"/>
     <use xlink:href="#ArialMT-73" x="113.189453"/>
    </g>
   </g>
   <g id="text_22">
    <!-- 82% -->
    <g style="fill: #262626" transform="translate(52.991213 225.463418)scale(0.1 -0.1)">
     <use xlink:href="#ArialMT-38"/>
     <use xlink:href="#ArialMT-32" x="55.615234"/>
     <use xlink:href="#ArialMT-25" x="111.230469"/>
    </g>
   </g>
   <g id="text_23">
    <!-- No -->
    <g style="fill: #262626" transform="translate(146.274923 230.161145)scale(0.1 -0.1)">
     <use xlink:href="#ArialMT-4e"/>
     <use xlink:href="#ArialMT-6f" x="72.216797"/>
    </g>
   </g>
   <g id="text_24">
    <!-- 18% -->
    <g style="fill: #262626" transform="translate(113.135481 228.856221)scale(0.1 -0.1)">
     <defs>
      <path id="ArialMT-31" d="M 2384 0 
L 1822 0 
L 1822 3584 
Q 1619 3391 1289 3197 
Q 959 3003 697 2906 
L 697 3450 
Q 1169 3672 1522 3987 
Q 1875 4303 2022 4600 
L 2384 4600 
L 2384 0 
z
" transform="scale(0.015625)"/>
     </defs>
     <use xlink:href="#ArialMT-31"/>
     <use xlink:href="#ArialMT-38" x="55.615234"/>
     <use xlink:href="#ArialMT-25" x="111.230469"/>
    </g>
   </g>
   <g id="text_25">
    <!-- Pattern -->
    <g style="fill: #262626" transform="translate(76.040182 160.782188)scale(0.12 -0.12)">
     <defs>
      <path id="ArialMT-50" d="M 494 0 
L 494 4581 
L 2222 4581 
Q 2678 4581 2919 4538 
Q 3256 4481 3484 4323 
Q 3713 4166 3852 3881 
Q 3991 3597 3991 3256 
Q 3991 2672 3619 2267 
Q 3247 1863 2275 1863 
L 1100 1863 
L 1100 0 
L 494 0 
z
M 1100 2403 
L 2284 2403 
Q 2872 2403 3119 2622 
Q 3366 2841 3366 3238 
Q 3366 3525 3220 3729 
Q 3075 3934 2838 4000 
Q 2684 4041 2272 4041 
L 1100 4041 
L 1100 2403 
z
" transform="scale(0.015625)"/>
     </defs>
     <use xlink:href="#ArialMT-50"/>
     <use xlink:href="#ArialMT-61" x="66.699219"/>
     <use xlink:href="#ArialMT-74" x="122.314453"/>
     <use xlink:href="#ArialMT-74" x="150.097656"/>
     <use xlink:href="#ArialMT-65" x="177.880859"/>
     <use xlink:href="#ArialMT-72" x="233.496094"/>
     <use xlink:href="#ArialMT-6e" x="266.796875"/>
    </g>
   </g>
  </g>
  <g id="axes_6">
   <g id="matplotlib.axis_11"/>
   <g id="matplotlib.axis_12"/>
   <g id="patch_12">
    <path d="M 310.860304 201.883806 
C 308.25428 197.370041 304.905287 193.328135 300.95456 189.928548 
C 297.003833 186.528961 292.507704 183.820165 287.655786 181.916397 
C 282.803869 180.012629 277.665344 178.941034 272.456917 178.746805 
C 267.24849 178.552575 262.044425 179.23848 257.064193 180.775593 
C 252.08396 182.312706 247.398569 184.679111 243.205617 187.775008 
C 239.012664 190.870906 235.371934 194.652155 232.436967 198.959289 
C 229.502 203.266422 227.314642 208.038029 225.967143 213.072875 
C 224.619644 218.107722 224.131215 223.33402 224.522454 228.531362 
C 224.913694 233.728704 226.179025 238.822985 228.265083 243.599364 
C 230.351142 248.375743 233.228185 252.766117 236.774878 256.585331 
C 240.321572 260.404545 244.487347 263.598144 249.096521 266.031445 
C 253.705694 268.464746 258.692548 270.103053 263.846771 270.877276 
C 269.000993 271.651498 274.249096 271.550596 279.36975 270.578825 
C 284.490403 269.607054 289.410597 267.778269 293.922832 265.169597 
C 298.435066 262.560925 302.475006 259.209559 305.872273 255.256838 
C 309.269541 251.304117 311.975698 246.806398 313.876617 241.953364 
L 270.730094 225.052993 
L 310.860304 201.883806 
z
" style="fill: #1f77b4; stroke: #ffffff; stroke-linejoin: miter"/>
   </g>
   <g id="patch_13">
    <path d="M 318.497381 241.605527 
C 321.034319 235.128744 322.08064 228.163081 321.558498 221.226789 
C 321.036355 214.290497 318.959028 207.559973 315.48107 201.535973 
L 275.350858 224.705156 
L 318.497381 241.605527 
z
" style="fill: #ff7f0e; stroke: #ffffff; stroke-linejoin: miter"/>
   </g>
   <g id="text_26">
    <!-- Yes -->
    <g style="fill: #262626" transform="translate(203.582941 231.464356)scale(0.1 -0.1)">
     <use xlink:href="#ArialMT-59"/>
     <use xlink:href="#ArialMT-65" x="57.574219"/>
     <use xlink:href="#ArialMT-73" x="113.189453"/>
    </g>
   </g>
   <g id="text_27">
    <!-- 86% -->
    <g style="fill: #262626" transform="translate(232.998479 229.725171)scale(0.1 -0.1)">
     <defs>
      <path id="ArialMT-36" d="M 3184 3459 
L 2625 3416 
Q 2550 3747 2413 3897 
Q 2184 4138 1850 4138 
Q 1581 4138 1378 3988 
Q 1113 3794 959 3422 
Q 806 3050 800 2363 
Q 1003 2672 1297 2822 
Q 1591 2972 1913 2972 
Q 2475 2972 2870 2558 
Q 3266 2144 3266 1488 
Q 3266 1056 3080 686 
Q 2894 316 2569 119 
Q 2244 -78 1831 -78 
Q 1128 -78 684 439 
Q 241 956 241 2144 
Q 241 3472 731 4075 
Q 1159 4600 1884 4600 
Q 2425 4600 2770 4297 
Q 3116 3994 3184 3459 
z
M 888 1484 
Q 888 1194 1011 928 
Q 1134 663 1356 523 
Q 1578 384 1822 384 
Q 2178 384 2434 671 
Q 2691 959 2691 1453 
Q 2691 1928 2437 2201 
Q 2184 2475 1800 2475 
Q 1419 2475 1153 2201 
Q 888 1928 888 1484 
z
" transform="scale(0.015625)"/>
     </defs>
     <use xlink:href="#ArialMT-38"/>
     <use xlink:href="#ArialMT-36" x="55.615234"/>
     <use xlink:href="#ArialMT-25" x="111.230469"/>
    </g>
   </g>
   <g id="text_28">
    <!-- No -->
    <g style="fill: #262626" transform="translate(326.179262 223.464109)scale(0.1 -0.1)">
     <use xlink:href="#ArialMT-4e"/>
     <use xlink:href="#ArialMT-6f" x="72.216797"/>
    </g>
   </g>
   <g id="text_29">
    <!-- 14% -->
    <g style="fill: #262626" transform="translate(293.06841 225.203292)scale(0.1 -0.1)">
     <defs>
      <path id="ArialMT-34" d="M 2069 0 
L 2069 1097 
L 81 1097 
L 81 1613 
L 2172 4581 
L 2631 4581 
L 2631 1613 
L 3250 1613 
L 3250 1097 
L 2631 1097 
L 2631 0 
L 2069 0 
z
M 2069 1613 
L 2069 3678 
L 634 1613 
L 2069 1613 
z
" transform="scale(0.015625)"/>
     </defs>
     <use xlink:href="#ArialMT-31"/>
     <use xlink:href="#ArialMT-34" x="55.615234"/>
     <use xlink:href="#ArialMT-25" x="111.230469"/>
    </g>
   </g>
   <g id="text_30">
    <!-- Provider -->
    <g style="fill: #262626" transform="translate(253.010233 160.782188)scale(0.12 -0.12)">
     <defs>
      <path id="ArialMT-76" d="M 1344 0 
L 81 3319 
L 675 3319 
L 1388 1331 
Q 1503 1009 1600 663 
Q 1675 925 1809 1294 
L 2547 3319 
L 3125 3319 
L 1869 0 
L 1344 0 
z
" transform="scale(0.015625)"/>
      <path id="ArialMT-64" d="M 2575 0 
L 2575 419 
Q 2259 -75 1647 -75 
Q 1250 -75 917 144 
Q 584 363 401 755 
Q 219 1147 219 1656 
Q 219 2153 384 2558 
Q 550 2963 881 3178 
Q 1213 3394 1622 3394 
Q 1922 3394 2156 3267 
Q 2391 3141 2538 2938 
L 2538 4581 
L 3097 4581 
L 3097 0 
L 2575 0 
z
M 797 1656 
Q 797 1019 1065 703 
Q 1334 388 1700 388 
Q 2069 388 2326 689 
Q 2584 991 2584 1609 
Q 2584 2291 2321 2609 
Q 2059 2928 1675 2928 
Q 1300 2928 1048 2622 
Q 797 2316 797 1656 
z
" transform="scale(0.015625)"/>
     </defs>
     <use xlink:href="#ArialMT-50"/>
     <use xlink:href="#ArialMT-72" x="66.699219"/>
     <use xlink:href="#ArialMT-6f" x="100"/>
     <use xlink:href="#ArialMT-76" x="155.615234"/>
     <use xlink:href="#ArialMT-69" x="205.615234"/>
     <use xlink:href="#ArialMT-64" x="227.832031"/>
     <use xlink:href="#ArialMT-65" x="283.447266"/>
     <use xlink:href="#ArialMT-72" x="339.0625"/>
    </g>
   </g>
  </g>
  <g id="axes_7">
   <g id="matplotlib.axis_13"/>
   <g id="matplotlib.axis_14"/>
   <g id="patch_14">
    <path d="M 497.858803 197.57845 
C 493.976339 190.853826 488.465174 185.211716 481.833555 181.172445 
C 475.201935 177.133174 467.660187 174.824848 459.90382 174.460345 
L 457.728593 220.747637 
L 497.858803 197.57845 
z
" style="fill: #1f77b4; stroke: #ffffff; stroke-linejoin: miter"/>
   </g>
   <g id="patch_15">
    <path d="M 457.493324 178.417864 
C 452.387336 178.177913 447.276655 178.784476 442.368683 180.212936 
C 437.460711 181.641396 432.822753 183.872165 428.643029 186.814712 
C 424.463304 189.75726 420.79913 193.371235 417.799208 197.509973 
C 414.799286 201.64871 412.504754 206.255457 411.008731 211.143257 
C 409.512707 216.031058 408.835707 221.132887 409.005204 226.241698 
C 409.174701 231.35051 410.188371 236.396246 412.005078 241.174139 
C 413.821784 245.952032 416.416614 250.396562 419.684262 254.327358 
C 422.95191 258.258154 426.847568 261.621314 431.213138 264.28035 
C 435.578709 266.939387 440.354327 268.857838 445.346187 269.957847 
C 450.338047 271.057856 455.477694 271.324339 460.556549 270.746481 
C 465.635403 270.168624 470.583819 268.754349 475.200975 266.561053 
C 479.818132 264.367758 484.040715 261.425517 487.69736 257.853735 
C 491.354006 254.281953 494.394571 250.12961 496.69566 245.565219 
C 498.99675 241.000827 500.52681 236.086979 501.223746 231.023091 
C 501.920683 225.959203 501.774938 220.814716 500.792428 215.798407 
C 499.809917 210.782098 498.004114 205.962756 495.448302 201.535961 
L 455.318097 224.705156 
L 457.493324 178.417864 
z
" style="fill: #ff7f0e; stroke: #ffffff; stroke-linejoin: miter"/>
   </g>
   <g id="text_31">
    <!-- Yes -->
    <g style="fill: #262626" transform="translate(484.244051 179.800082)scale(0.1 -0.1)">
     <use xlink:href="#ArialMT-59"/>
     <use xlink:href="#ArialMT-65" x="57.574219"/>
     <use xlink:href="#ArialMT-73" x="113.189453"/>
    </g>
   </g>
   <g id="text_32">
    <!-- 16% -->
    <g style="fill: #262626" transform="translate(462.184539 199.587678)scale(0.1 -0.1)">
     <use xlink:href="#ArialMT-31"/>
     <use xlink:href="#ArialMT-36" x="55.615234"/>
     <use xlink:href="#ArialMT-25" x="111.230469"/>
    </g>
   </g>
   <g id="text_33">
    <!-- No -->
    <g style="fill: #262626" transform="translate(416.01983 270.823026)scale(0.1 -0.1)">
     <use xlink:href="#ArialMT-4e"/>
     <use xlink:href="#ArialMT-6f" x="72.216797"/>
    </g>
   </g>
   <g id="text_34">
    <!-- 84% -->
    <g style="fill: #262626" transform="translate(430.84809 251.035429)scale(0.1 -0.1)">
     <use xlink:href="#ArialMT-38"/>
     <use xlink:href="#ArialMT-34" x="55.615234"/>
     <use xlink:href="#ArialMT-25" x="111.230469"/>
    </g>
   </g>
   <g id="text_35">
    <!-- License -->
    <g style="fill: #262626" transform="translate(434.638722 160.782188)scale(0.12 -0.12)">
     <defs>
      <path id="ArialMT-4c" d="M 469 0 
L 469 4581 
L 1075 4581 
L 1075 541 
L 3331 541 
L 3331 0 
L 469 0 
z
" transform="scale(0.015625)"/>
     </defs>
     <use xlink:href="#ArialMT-4c"/>
     <use xlink:href="#ArialMT-69" x="55.615234"/>
     <use xlink:href="#ArialMT-63" x="77.832031"/>
     <use xlink:href="#ArialMT-65" x="127.832031"/>
     <use xlink:href="#ArialMT-6e" x="183.447266"/>
     <use xlink:href="#ArialMT-73" x="239.0625"/>
     <use xlink:href="#ArialMT-65" x="289.0625"/>
    </g>
   </g>
  </g>
  <g id="axes_8">
   <g id="matplotlib.axis_15"/>
   <g id="matplotlib.axis_16"/>
   <g id="patch_16">
    <path d="M 675.415545 201.535969 
C 670.545942 193.101568 663.139037 186.413272 654.253127 182.4267 
C 645.367217 178.440128 635.446669 177.354643 625.908927 179.325337 
C 616.371186 181.296032 607.693215 186.224355 601.11492 193.406151 
C 594.536625 200.587946 590.386975 209.664066 589.258869 219.337717 
L 635.285335 224.705156 
L 675.415545 201.535969 
z
" style="fill: #1f77b4; stroke: #ffffff; stroke-linejoin: miter"/>
   </g>
   <g id="patch_17">
    <path d="M 589.258869 219.337717 
C 588.2477 228.008615 589.707078 236.79128 593.468093 244.669205 
C 597.229108 252.547131 603.140839 259.204189 610.51906 263.869893 
C 617.897281 268.535597 626.445919 271.022719 635.175553 271.043401 
C 643.905187 271.064083 652.465513 268.617494 659.865759 263.986803 
L 635.285335 224.705156 
L 589.258869 219.337717 
z
" style="fill: #ff7f0e; stroke: #ffffff; stroke-linejoin: miter"/>
   </g>
   <g id="patch_18">
    <path d="M 659.865759 263.986803 
C 667.360906 259.296727 673.359431 252.558024 677.149762 244.570069 
C 680.940093 236.582113 682.366185 227.673764 681.258868 218.901769 
L 635.285335 224.705156 
L 659.865759 263.986803 
z
" style="fill: #2ca02c; stroke: #ffffff; stroke-linejoin: miter"/>
   </g>
   <g id="patch_19">
    <path d="M 681.258868 218.901769 
C 681.176367 218.248215 681.07994 217.596493 680.969652 216.94705 
C 680.859363 216.297607 680.735239 215.650589 680.597363 215.006439 
L 635.285335 224.705156 
L 681.258868 218.901769 
z
" style="fill: #d62728; stroke: #ffffff; stroke-linejoin: miter"/>
   </g>
   <g id="patch_20">
    <path d="M 680.597363 215.006439 
C 680.459487 214.362288 680.307891 213.72115 680.142678 213.083463 
C 679.977466 212.445776 679.798674 211.811685 679.606425 211.181621 
L 635.285335 224.705156 
L 680.597363 215.006439 
z
" style="fill: #9467bd; stroke: #ffffff; stroke-linejoin: miter"/>
   </g>
   <g id="patch_21">
    <path d="M 679.606425 211.181621 
C 679.478261 210.761587 679.344133 210.343397 679.204082 209.927176 
C 679.06403 209.510955 678.918068 209.096747 678.766241 208.684675 
L 635.285335 224.705156 
L 679.606425 211.181621 
z
" style="fill: #8c564b; stroke: #ffffff; stroke-linejoin: miter"/>
   </g>
   <g id="patch_22">
    <path d="M 678.766241 208.684675 
C 678.690329 208.478642 678.612953 208.273152 678.534119 208.068219 
C 678.455285 207.863285 678.374996 207.658915 678.293257 207.455123 
L 635.285335 224.705156 
L 678.766241 208.684675 
z
" style="fill: #e377c2; stroke: #ffffff; stroke-linejoin: miter"/>
   </g>
   <g id="patch_23">
    <path d="M 678.293257 207.455123 
C 678.211518 207.251332 678.128332 207.048123 678.043705 206.845514 
C 677.959077 206.642905 677.873011 206.4409 677.785512 206.239514 
L 635.285335 224.705156 
L 678.293257 207.455123 
z
" style="fill: #7f7f7f; stroke: #ffffff; stroke-linejoin: miter"/>
   </g>
   <g id="patch_24">
    <path d="M 677.785512 206.239514 
C 677.698013 206.038128 677.609084 205.837367 677.518731 205.637245 
C 677.428379 205.437123 677.336605 205.237646 677.243416 205.038829 
L 635.285335 224.705156 
L 677.785512 206.239514 
z
" style="fill: #bcbd22; stroke: #ffffff; stroke-linejoin: miter"/>
   </g>
   <g id="patch_25">
    <path d="M 677.243416 205.038829 
C 677.150228 204.840012 677.055628 204.64186 676.959623 204.444387 
C 676.863618 204.246915 676.76621 204.050127 676.667408 203.85404 
L 635.285335 224.705156 
L 677.243416 205.038829 
z
" style="fill: #17becf; stroke: #ffffff; stroke-linejoin: miter"/>
   </g>
   <g id="patch_26">
    <path d="M 676.667408 203.85404 
C 676.568605 203.657952 676.46841 203.462569 676.366831 203.267905 
C 676.265251 203.073242 676.162289 202.879303 676.057952 202.686103 
L 635.285335 224.705156 
L 676.667408 203.85404 
z
" style="fill: #1f77b4; stroke: #ffffff; stroke-linejoin: miter"/>
   </g>
   <g id="patch_27">
    <path d="M 676.057952 202.686103 
C 675.953616 202.492903 675.847907 202.300448 675.740835 202.10875 
C 675.633762 201.917053 675.525329 201.726119 675.415542 201.535964 
L 635.285335 224.705156 
L 676.057952 202.686103 
z
" style="fill: #ff7f0e; stroke: #ffffff; stroke-linejoin: miter"/>
   </g>
   <g id="text_36">
    <!-- CC BY 4.0 -->
    <g style="fill: #262626" transform="translate(577.905662 177.372512)scale(0.1 -0.1)">
     <defs>
      <path id="ArialMT-43" d="M 3763 1606 
L 4369 1453 
Q 4178 706 3683 314 
Q 3188 -78 2472 -78 
Q 1731 -78 1267 223 
Q 803 525 561 1097 
Q 319 1669 319 2325 
Q 319 3041 592 3573 
Q 866 4106 1370 4382 
Q 1875 4659 2481 4659 
Q 3169 4659 3637 4309 
Q 4106 3959 4291 3325 
L 3694 3184 
Q 3534 3684 3231 3912 
Q 2928 4141 2469 4141 
Q 1941 4141 1586 3887 
Q 1231 3634 1087 3207 
Q 944 2781 944 2328 
Q 944 1744 1114 1308 
Q 1284 872 1643 656 
Q 2003 441 2422 441 
Q 2931 441 3284 734 
Q 3638 1028 3763 1606 
z
" transform="scale(0.015625)"/>
      <path id="ArialMT-20" transform="scale(0.015625)"/>
      <path id="ArialMT-42" d="M 469 0 
L 469 4581 
L 2188 4581 
Q 2713 4581 3030 4442 
Q 3347 4303 3526 4014 
Q 3706 3725 3706 3409 
Q 3706 3116 3547 2856 
Q 3388 2597 3066 2438 
Q 3481 2316 3704 2022 
Q 3928 1728 3928 1328 
Q 3928 1006 3792 729 
Q 3656 453 3456 303 
Q 3256 153 2954 76 
Q 2653 0 2216 0 
L 469 0 
z
M 1075 2656 
L 2066 2656 
Q 2469 2656 2644 2709 
Q 2875 2778 2992 2937 
Q 3109 3097 3109 3338 
Q 3109 3566 3000 3739 
Q 2891 3913 2687 3977 
Q 2484 4041 1991 4041 
L 1075 4041 
L 1075 2656 
z
M 1075 541 
L 2216 541 
Q 2509 541 2628 563 
Q 2838 600 2978 687 
Q 3119 775 3209 942 
Q 3300 1109 3300 1328 
Q 3300 1584 3169 1773 
Q 3038 1963 2805 2039 
Q 2572 2116 2134 2116 
L 1075 2116 
L 1075 541 
z
" transform="scale(0.015625)"/>
      <path id="ArialMT-2e" d="M 581 0 
L 581 641 
L 1222 641 
L 1222 0 
L 581 0 
z
" transform="scale(0.015625)"/>
      <path id="ArialMT-30" d="M 266 2259 
Q 266 3072 433 3567 
Q 600 4063 929 4331 
Q 1259 4600 1759 4600 
Q 2128 4600 2406 4451 
Q 2684 4303 2865 4023 
Q 3047 3744 3150 3342 
Q 3253 2941 3253 2259 
Q 3253 1453 3087 958 
Q 2922 463 2592 192 
Q 2263 -78 1759 -78 
Q 1097 -78 719 397 
Q 266 969 266 2259 
z
M 844 2259 
Q 844 1131 1108 757 
Q 1372 384 1759 384 
Q 2147 384 2411 759 
Q 2675 1134 2675 2259 
Q 2675 3391 2411 3762 
Q 2147 4134 1753 4134 
Q 1366 4134 1134 3806 
Q 844 3388 844 2259 
z
" transform="scale(0.015625)"/>
     </defs>
     <use xlink:href="#ArialMT-43"/>
     <use xlink:href="#ArialMT-43" x="72.216797"/>
     <use xlink:href="#ArialMT-20" x="144.433594"/>
     <use xlink:href="#ArialMT-42" x="172.216797"/>
     <use xlink:href="#ArialMT-59" x="238.916016"/>
     <use xlink:href="#ArialMT-20" x="303.865234"/>
     <use xlink:href="#ArialMT-34" x="331.648438"/>
     <use xlink:href="#ArialMT-2e" x="387.263672"/>
     <use xlink:href="#ArialMT-30" x="415.046875"/>
    </g>
   </g>
   <g id="text_37">
    <!-- 40% -->
    <g style="fill: #262626" transform="translate(619.652459 200.062421)scale(0.1 -0.1)">
     <use xlink:href="#ArialMT-34"/>
     <use xlink:href="#ArialMT-30" x="55.615234"/>
     <use xlink:href="#ArialMT-25" x="111.230469"/>
    </g>
   </g>
   <g id="text_38">
    <!-- CC BY 3.0 -->
    <g style="fill: #262626" transform="translate(560.976807 270.371523)scale(0.1 -0.1)">
     <use xlink:href="#ArialMT-43"/>
     <use xlink:href="#ArialMT-43" x="72.216797"/>
     <use xlink:href="#ArialMT-20" x="144.433594"/>
     <use xlink:href="#ArialMT-42" x="172.216797"/>
     <use xlink:href="#ArialMT-59" x="238.916016"/>
     <use xlink:href="#ArialMT-20" x="303.865234"/>
     <use xlink:href="#ArialMT-33" x="331.648438"/>
     <use xlink:href="#ArialMT-2e" x="387.263672"/>
     <use xlink:href="#ArialMT-30" x="415.046875"/>
    </g>
   </g>
   <g id="text_39">
    <!-- 36% -->
    <g style="fill: #262626" transform="translate(610.418539 250.789155)scale(0.1 -0.1)">
     <use xlink:href="#ArialMT-33"/>
     <use xlink:href="#ArialMT-36" x="55.615234"/>
     <use xlink:href="#ArialMT-25" x="111.230469"/>
    </g>
   </g>
   <g id="text_40">
    <!-- CC0 1.0 -->
    <g style="fill: #262626" transform="translate(681.336205 249.141716)scale(0.1 -0.1)">
     <use xlink:href="#ArialMT-43"/>
     <use xlink:href="#ArialMT-43" x="72.216797"/>
     <use xlink:href="#ArialMT-30" x="144.433594"/>
     <use xlink:href="#ArialMT-20" x="200.048828"/>
     <use xlink:href="#ArialMT-31" x="227.832031"/>
     <use xlink:href="#ArialMT-2e" x="283.447266"/>
     <use xlink:href="#ArialMT-30" x="311.230469"/>
    </g>
   </g>
   <g id="text_41">
    <!-- 18% -->
    <g style="fill: #262626" transform="translate(650.39696 239.20926)scale(0.1 -0.1)">
     <use xlink:href="#ArialMT-31"/>
     <use xlink:href="#ArialMT-38" x="55.615234"/>
     <use xlink:href="#ArialMT-25" x="111.230469"/>
    </g>
   </g>
   <g id="text_42">
    <!-- Artistic License 2.0 -->
    <g style="fill: #262626" transform="translate(685.538083 218.756396)scale(0.1 -0.1)">
     <defs>
      <path id="ArialMT-41" d="M -9 0 
L 1750 4581 
L 2403 4581 
L 4278 0 
L 3588 0 
L 3053 1388 
L 1138 1388 
L 634 0 
L -9 0 
z
M 1313 1881 
L 2866 1881 
L 2388 3150 
Q 2169 3728 2063 4100 
Q 1975 3659 1816 3225 
L 1313 1881 
z
" transform="scale(0.015625)"/>
     </defs>
     <use xlink:href="#ArialMT-41"/>
     <use xlink:href="#ArialMT-72" x="66.699219"/>
     <use xlink:href="#ArialMT-74" x="100"/>
     <use xlink:href="#ArialMT-69" x="127.783203"/>
     <use xlink:href="#ArialMT-73" x="150"/>
     <use xlink:href="#ArialMT-74" x="200"/>
     <use xlink:href="#ArialMT-69" x="227.783203"/>
     <use xlink:href="#ArialMT-63" x="250"/>
     <use xlink:href="#ArialMT-20" x="300"/>
     <use xlink:href="#ArialMT-4c" x="327.783203"/>
     <use xlink:href="#ArialMT-69" x="383.398438"/>
     <use xlink:href="#ArialMT-63" x="405.615234"/>
     <use xlink:href="#ArialMT-65" x="455.615234"/>
     <use xlink:href="#ArialMT-6e" x="511.230469"/>
     <use xlink:href="#ArialMT-73" x="566.845703"/>
     <use xlink:href="#ArialMT-65" x="616.845703"/>
     <use xlink:href="#ArialMT-20" x="672.460938"/>
     <use xlink:href="#ArialMT-32" x="700.244141"/>
     <use xlink:href="#ArialMT-2e" x="755.859375"/>
     <use xlink:href="#ArialMT-30" x="783.642578"/>
    </g>
   </g>
   <g id="text_43">
    <!-- 1% -->
    <g style="fill: #262626" transform="translate(655.469363 222.635449)scale(0.1 -0.1)">
     <use xlink:href="#ArialMT-31"/>
     <use xlink:href="#ArialMT-25" x="55.615234"/>
    </g>
   </g>
   <g id="text_44">
    <!-- CC BY 2.0 -->
    <g style="fill: #262626" transform="translate(684.628413 214.50645)scale(0.1 -0.1)">
     <use xlink:href="#ArialMT-43"/>
     <use xlink:href="#ArialMT-43" x="72.216797"/>
     <use xlink:href="#ArialMT-20" x="144.433594"/>
     <use xlink:href="#ArialMT-42" x="172.216797"/>
     <use xlink:href="#ArialMT-59" x="238.916016"/>
     <use xlink:href="#ArialMT-20" x="303.865234"/>
     <use xlink:href="#ArialMT-32" x="331.648438"/>
     <use xlink:href="#ArialMT-2e" x="387.263672"/>
     <use xlink:href="#ArialMT-30" x="415.046875"/>
    </g>
   </g>
   <g id="text_45">
    <!-- 1% -->
    <g style="fill: #262626" transform="translate(654.973179 220.317297)scale(0.1 -0.1)">
     <use xlink:href="#ArialMT-31"/>
     <use xlink:href="#ArialMT-25" x="55.615234"/>
    </g>
   </g>
   <g id="text_46">
    <!-- Apache 2.0 License -->
    <g style="fill: #262626" transform="translate(683.595956 211.049378)scale(0.1 -0.1)">
     <defs>
      <path id="ArialMT-68" d="M 422 0 
L 422 4581 
L 984 4581 
L 984 2938 
Q 1378 3394 1978 3394 
Q 2347 3394 2619 3248 
Q 2891 3103 3008 2847 
Q 3125 2591 3125 2103 
L 3125 0 
L 2563 0 
L 2563 2103 
Q 2563 2525 2380 2717 
Q 2197 2909 1863 2909 
Q 1613 2909 1392 2779 
Q 1172 2650 1078 2428 
Q 984 2206 984 1816 
L 984 0 
L 422 0 
z
" transform="scale(0.015625)"/>
     </defs>
     <use xlink:href="#ArialMT-41"/>
     <use xlink:href="#ArialMT-70" x="66.699219"/>
     <use xlink:href="#ArialMT-61" x="122.314453"/>
     <use xlink:href="#ArialMT-63" x="177.929688"/>
     <use xlink:href="#ArialMT-68" x="227.929688"/>
     <use xlink:href="#ArialMT-65" x="283.544922"/>
     <use xlink:href="#ArialMT-20" x="339.160156"/>
     <use xlink:href="#ArialMT-32" x="366.943359"/>
     <use xlink:href="#ArialMT-2e" x="422.558594"/>
     <use xlink:href="#ArialMT-30" x="450.341797"/>
     <use xlink:href="#ArialMT-20" x="505.957031"/>
     <use xlink:href="#ArialMT-4c" x="533.740234"/>
     <use xlink:href="#ArialMT-69" x="589.355469"/>
     <use xlink:href="#ArialMT-63" x="611.572266"/>
     <use xlink:href="#ArialMT-65" x="661.572266"/>
     <use xlink:href="#ArialMT-6e" x="717.1875"/>
     <use xlink:href="#ArialMT-73" x="772.802734"/>
     <use xlink:href="#ArialMT-65" x="822.802734"/>
    </g>
   </g>
   <g id="text_47">
    <!-- 1% -->
    <g style="fill: #262626" transform="translate(654.410021 218.423524)scale(0.1 -0.1)">
     <use xlink:href="#ArialMT-31"/>
     <use xlink:href="#ArialMT-25" x="55.615234"/>
    </g>
   </g>
   <g id="text_48">
    <!-- CC-BY -->
    <g style="fill: #262626" transform="translate(682.858997 208.989681)scale(0.1 -0.1)">
     <defs>
      <path id="ArialMT-2d" d="M 203 1375 
L 203 1941 
L 1931 1941 
L 1931 1375 
L 203 1375 
z
" transform="scale(0.015625)"/>
     </defs>
     <use xlink:href="#ArialMT-43"/>
     <use xlink:href="#ArialMT-43" x="72.216797"/>
     <use xlink:href="#ArialMT-2d" x="144.433594"/>
     <use xlink:href="#ArialMT-42" x="177.734375"/>
     <use xlink:href="#ArialMT-59" x="244.433594"/>
    </g>
   </g>
   <g id="text_49">
    <!-- 0% -->
    <g style="fill: #262626" transform="translate(654.008043 217.30815)scale(0.1 -0.1)">
     <use xlink:href="#ArialMT-30"/>
     <use xlink:href="#ArialMT-25" x="55.615234"/>
    </g>
   </g>
   <g id="text_50">
    <!-- CC BY-SA 4.0 -->
    <g style="fill: #262626" transform="translate(682.319542 207.644706)scale(0.1 -0.1)">
     <defs>
      <path id="ArialMT-53" d="M 288 1472 
L 859 1522 
Q 900 1178 1048 958 
Q 1197 738 1509 602 
Q 1822 466 2213 466 
Q 2559 466 2825 569 
Q 3091 672 3220 851 
Q 3350 1031 3350 1244 
Q 3350 1459 3225 1620 
Q 3100 1781 2813 1891 
Q 2628 1963 1997 2114 
Q 1366 2266 1113 2400 
Q 784 2572 623 2826 
Q 463 3081 463 3397 
Q 463 3744 659 4045 
Q 856 4347 1234 4503 
Q 1613 4659 2075 4659 
Q 2584 4659 2973 4495 
Q 3363 4331 3572 4012 
Q 3781 3694 3797 3291 
L 3216 3247 
Q 3169 3681 2898 3903 
Q 2628 4125 2100 4125 
Q 1550 4125 1298 3923 
Q 1047 3722 1047 3438 
Q 1047 3191 1225 3031 
Q 1400 2872 2139 2705 
Q 2878 2538 3153 2413 
Q 3553 2228 3743 1945 
Q 3934 1663 3934 1294 
Q 3934 928 3725 604 
Q 3516 281 3123 101 
Q 2731 -78 2241 -78 
Q 1619 -78 1198 103 
Q 778 284 539 648 
Q 300 1013 288 1472 
z
" transform="scale(0.015625)"/>
     </defs>
     <use xlink:href="#ArialMT-43"/>
     <use xlink:href="#ArialMT-43" x="72.216797"/>
     <use xlink:href="#ArialMT-20" x="144.433594"/>
     <use xlink:href="#ArialMT-42" x="172.216797"/>
     <use xlink:href="#ArialMT-59" x="238.916016"/>
     <use xlink:href="#ArialMT-2d" x="296.490234"/>
     <use xlink:href="#ArialMT-53" x="329.791016"/>
     <use xlink:href="#ArialMT-41" x="396.490234"/>
     <use xlink:href="#ArialMT-20" x="457.689453"/>
     <use xlink:href="#ArialMT-34" x="485.472656"/>
     <use xlink:href="#ArialMT-2e" x="541.087891"/>
     <use xlink:href="#ArialMT-30" x="568.871094"/>
    </g>
   </g>
   <g id="text_51">
    <!-- 0% -->
    <g style="fill: #262626" transform="translate(653.713794 216.574527)scale(0.1 -0.1)">
     <use xlink:href="#ArialMT-30"/>
     <use xlink:href="#ArialMT-25" x="55.615234"/>
    </g>
   </g>
   <g id="text_52">
    <!-- CC BY-SA 2.0 -->
    <g style="fill: #262626" transform="translate(681.742071 206.31561)scale(0.1 -0.1)">
     <use xlink:href="#ArialMT-43"/>
     <use xlink:href="#ArialMT-43" x="72.216797"/>
     <use xlink:href="#ArialMT-20" x="144.433594"/>
     <use xlink:href="#ArialMT-42" x="172.216797"/>
     <use xlink:href="#ArialMT-59" x="238.916016"/>
     <use xlink:href="#ArialMT-2d" x="296.490234"/>
     <use xlink:href="#ArialMT-53" x="329.791016"/>
     <use xlink:href="#ArialMT-41" x="396.490234"/>
     <use xlink:href="#ArialMT-20" x="457.689453"/>
     <use xlink:href="#ArialMT-32" x="485.472656"/>
     <use xlink:href="#ArialMT-2e" x="541.087891"/>
     <use xlink:href="#ArialMT-30" x="568.871094"/>
    </g>
   </g>
   <g id="text_53">
    <!-- 0% -->
    <g style="fill: #262626" transform="translate(653.39881 215.849566)scale(0.1 -0.1)">
     <use xlink:href="#ArialMT-30"/>
     <use xlink:href="#ArialMT-25" x="55.615234"/>
    </g>
   </g>
   <g id="text_54">
    <!-- hpo -->
    <g style="fill: #262626" transform="translate(681.127051 205.003467)scale(0.1 -0.1)">
     <use xlink:href="#ArialMT-68"/>
     <use xlink:href="#ArialMT-70" x="55.615234"/>
     <use xlink:href="#ArialMT-6f" x="111.230469"/>
    </g>
   </g>
   <g id="text_55">
    <!-- 0% -->
    <g style="fill: #262626" transform="translate(653.063345 215.133851)scale(0.1 -0.1)">
     <use xlink:href="#ArialMT-30"/>
     <use xlink:href="#ArialMT-25" x="55.615234"/>
    </g>
   </g>
   <g id="text_56">
    <!-- CC BY-NC-SA 2.0 -->
    <g style="fill: #262626" transform="translate(680.47498 203.709337)scale(0.1 -0.1)">
     <use xlink:href="#ArialMT-43"/>
     <use xlink:href="#ArialMT-43" x="72.216797"/>
     <use xlink:href="#ArialMT-20" x="144.433594"/>
     <use xlink:href="#ArialMT-42" x="172.216797"/>
     <use xlink:href="#ArialMT-59" x="238.916016"/>
     <use xlink:href="#ArialMT-2d" x="296.490234"/>
     <use xlink:href="#ArialMT-4e" x="329.791016"/>
     <use xlink:href="#ArialMT-43" x="402.007812"/>
     <use xlink:href="#ArialMT-2d" x="474.224609"/>
     <use xlink:href="#ArialMT-53" x="507.525391"/>
     <use xlink:href="#ArialMT-41" x="574.224609"/>
     <use xlink:href="#ArialMT-20" x="635.423828"/>
     <use xlink:href="#ArialMT-32" x="663.207031"/>
     <use xlink:href="#ArialMT-2e" x="718.822266"/>
     <use xlink:href="#ArialMT-30" x="746.605469"/>
    </g>
   </g>
   <g id="text_57">
    <!-- 0% -->
    <g style="fill: #262626" transform="translate(652.70767 214.427962)scale(0.1 -0.1)">
     <use xlink:href="#ArialMT-30"/>
     <use xlink:href="#ArialMT-25" x="55.615234"/>
    </g>
   </g>
   <g id="text_58">
    <!-- GPL-3.0 -->
    <g style="fill: #262626" transform="translate(679.786385 202.434266)scale(0.1 -0.1)">
     <defs>
      <path id="ArialMT-47" d="M 2638 1797 
L 2638 2334 
L 4578 2338 
L 4578 638 
Q 4131 281 3656 101 
Q 3181 -78 2681 -78 
Q 2006 -78 1454 211 
Q 903 500 622 1047 
Q 341 1594 341 2269 
Q 341 2938 620 3517 
Q 900 4097 1425 4378 
Q 1950 4659 2634 4659 
Q 3131 4659 3532 4498 
Q 3934 4338 4162 4050 
Q 4391 3763 4509 3300 
L 3963 3150 
Q 3859 3500 3706 3700 
Q 3553 3900 3268 4020 
Q 2984 4141 2638 4141 
Q 2222 4141 1919 4014 
Q 1616 3888 1430 3681 
Q 1244 3475 1141 3228 
Q 966 2803 966 2306 
Q 966 1694 1177 1281 
Q 1388 869 1791 669 
Q 2194 469 2647 469 
Q 3041 469 3416 620 
Q 3791 772 3984 944 
L 3984 1797 
L 2638 1797 
z
" transform="scale(0.015625)"/>
     </defs>
     <use xlink:href="#ArialMT-47"/>
     <use xlink:href="#ArialMT-50" x="77.783203"/>
     <use xlink:href="#ArialMT-4c" x="144.482422"/>
     <use xlink:href="#ArialMT-2d" x="200.097656"/>
     <use xlink:href="#ArialMT-33" x="233.398438"/>
     <use xlink:href="#ArialMT-2e" x="289.013672"/>
     <use xlink:href="#ArialMT-30" x="316.796875"/>
    </g>
   </g>
   <g id="text_59">
    <!-- 0% -->
    <g style="fill: #262626" transform="translate(652.332072 213.732469)scale(0.1 -0.1)">
     <use xlink:href="#ArialMT-30"/>
     <use xlink:href="#ArialMT-25" x="55.615234"/>
    </g>
   </g>
   <g id="text_60">
    <!-- License Type -->
    <g style="fill: #262626" transform="translate(600.036273 160.782188)scale(0.12 -0.12)">
     <defs>
      <path id="ArialMT-54" d="M 1659 0 
L 1659 4041 
L 150 4041 
L 150 4581 
L 3781 4581 
L 3781 4041 
L 2266 4041 
L 2266 0 
L 1659 0 
z
" transform="scale(0.015625)"/>
      <path id="ArialMT-79" d="M 397 -1278 
L 334 -750 
Q 519 -800 656 -800 
Q 844 -800 956 -737 
Q 1069 -675 1141 -563 
Q 1194 -478 1313 -144 
Q 1328 -97 1363 -6 
L 103 3319 
L 709 3319 
L 1400 1397 
Q 1534 1031 1641 628 
Q 1738 1016 1872 1384 
L 2581 3319 
L 3144 3319 
L 1881 -56 
Q 1678 -603 1566 -809 
Q 1416 -1088 1222 -1217 
Q 1028 -1347 759 -1347 
Q 597 -1347 397 -1278 
z
" transform="scale(0.015625)"/>
     </defs>
     <use xlink:href="#ArialMT-4c"/>
     <use xlink:href="#ArialMT-69" x="55.615234"/>
     <use xlink:href="#ArialMT-63" x="77.832031"/>
     <use xlink:href="#ArialMT-65" x="127.832031"/>
     <use xlink:href="#ArialMT-6e" x="183.447266"/>
     <use xlink:href="#ArialMT-73" x="239.0625"/>
     <use xlink:href="#ArialMT-65" x="289.0625"/>
     <use xlink:href="#ArialMT-20" x="344.677734"/>
     <use xlink:href="#ArialMT-54" x="370.710938"/>
     <use xlink:href="#ArialMT-79" x="426.294922"/>
     <use xlink:href="#ArialMT-70" x="476.294922"/>
     <use xlink:href="#ArialMT-65" x="531.910156"/>
    </g>
   </g>
  </g>
  <g id="axes_9">
   <g id="matplotlib.axis_17"/>
   <g id="matplotlib.axis_18"/>
   <g id="patch_28">
    <path d="M 137.678389 338.724696 
C 133.316237 331.169227 126.907753 324.997083 119.193777 320.921782 
C 111.479802 316.846482 102.769501 315.031358 94.06981 315.686244 
L 97.548179 361.893884 
L 137.678389 338.724696 
z
" style="fill: #1f77b4; stroke: #ffffff; stroke-linejoin: miter"/>
   </g>
   <g id="patch_29">
    <path d="M 91.90525 319.783454 
C 86.926364 320.15825 82.040624 321.335307 77.43731 323.269027 
C 72.833996 325.202747 68.573332 327.86783 64.820383 331.161027 
C 61.067434 334.454224 57.871298 338.332451 55.3558 342.645459 
C 52.840301 346.958467 51.038349 351.649831 50.019755 356.5378 
C 49.00116 361.425768 48.779247 366.446394 49.362616 371.405169 
C 49.945984 376.363945 51.327 381.195996 53.452161 385.714122 
C 55.577323 390.232248 58.418827 394.377339 61.866589 397.988808 
C 65.314352 401.600277 69.323266 404.630876 73.738021 406.963195 
C 78.152776 409.295514 82.915614 410.89904 87.842017 411.71165 
C 92.768419 412.524259 97.793934 412.535322 102.723866 411.744408 
C 107.653798 410.953495 112.423649 409.370952 116.84863 407.058092 
C 121.27361 404.745231 125.295827 401.732311 128.759456 398.136055 
C 132.223084 394.5398 135.082809 390.407259 137.227841 385.898533 
C 139.372873 381.389806 140.775148 376.563882 141.380342 371.607723 
C 141.985535 366.651563 141.785728 361.63001 140.788662 356.737604 
C 139.791596 351.845198 138.010315 347.145947 135.513829 342.821906 
L 95.383619 365.991094 
L 91.90525 319.783454 
z
" style="fill: #ff7f0e; stroke: #ffffff; stroke-linejoin: miter"/>
   </g>
   <g id="text_61">
    <!-- Yes -->
    <g style="fill: #262626" transform="translate(121.358337 319.409729)scale(0.1 -0.1)">
     <use xlink:href="#ArialMT-59"/>
     <use xlink:href="#ArialMT-65" x="57.574219"/>
     <use xlink:href="#ArialMT-73" x="113.189453"/>
    </g>
   </g>
   <g id="text_62">
    <!-- 18% -->
    <g style="fill: #262626" transform="translate(100.528507 339.895779)scale(0.1 -0.1)">
     <use xlink:href="#ArialMT-31"/>
     <use xlink:href="#ArialMT-38" x="55.615234"/>
     <use xlink:href="#ArialMT-25" x="111.230469"/>
    </g>
   </g>
   <g id="text_63">
    <!-- No -->
    <g style="fill: #262626" transform="translate(58.790649 413.645561)scale(0.1 -0.1)">
     <use xlink:href="#ArialMT-4e"/>
     <use xlink:href="#ArialMT-6f" x="72.216797"/>
    </g>
   </g>
   <g id="text_64">
    <!-- 82% -->
    <g style="fill: #262626" transform="translate(72.389229 393.159511)scale(0.1 -0.1)">
     <use xlink:href="#ArialMT-38"/>
     <use xlink:href="#ArialMT-32" x="55.615234"/>
     <use xlink:href="#ArialMT-25" x="111.230469"/>
    </g>
   </g>
   <g id="text_65">
    <!-- Version -->
    <g style="fill: #262626" transform="translate(75.370807 302.068125)scale(0.12 -0.12)">
     <defs>
      <path id="ArialMT-56" d="M 1803 0 
L 28 4581 
L 684 4581 
L 1875 1253 
Q 2019 853 2116 503 
Q 2222 878 2363 1253 
L 3600 4581 
L 4219 4581 
L 2425 0 
L 1803 0 
z
" transform="scale(0.015625)"/>
     </defs>
     <use xlink:href="#ArialMT-56"/>
     <use xlink:href="#ArialMT-65" x="61.199219"/>
     <use xlink:href="#ArialMT-72" x="116.814453"/>
     <use xlink:href="#ArialMT-73" x="150.115234"/>
     <use xlink:href="#ArialMT-69" x="200.115234"/>
     <use xlink:href="#ArialMT-6f" x="222.332031"/>
     <use xlink:href="#ArialMT-6e" x="277.947266"/>
    </g>
   </g>
  </g>
  <g id="axes_10">
   <g id="matplotlib.axis_19"/>
   <g id="matplotlib.axis_20"/>
   <g id="patch_30">
    <path d="M 317.351894 338.582512 
C 312.433795 330.064116 304.928861 323.328945 295.929945 319.357762 
C 286.93103 315.38658 276.897219 314.381979 267.289619 316.490247 
L 277.221684 361.7517 
L 317.351894 338.582512 
z
" style="fill: #1f77b4; stroke: #ffffff; stroke-linejoin: miter"/>
   </g>
   <g id="patch_31">
    <path d="M 265.418793 320.729641 
C 260.675538 321.77049 256.125246 323.550515 251.934773 326.004446 
C 247.744301 328.458377 243.965501 331.555847 240.736941 335.183275 
C 237.50838 338.810702 234.870009 342.923201 232.918574 347.369968 
C 230.96714 351.816736 229.72679 356.542747 229.243007 361.374702 
C 228.759224 366.206657 229.037994 371.084764 230.069096 375.830148 
C 231.100197 380.575532 232.87087 385.129471 235.316186 389.324976 
C 237.761503 393.520482 240.851203 397.305637 244.47199 400.541644 
C 248.092777 403.77765 252.199846 406.424465 256.642595 408.385031 
C 261.085344 410.345597 265.808796 411.595654 270.639747 412.089363 
C 275.470698 412.583072 280.349368 412.314325 285.09686 411.292975 
C 289.844352 410.271625 294.40192 408.510312 298.60244 406.07362 
C 302.802961 403.636929 306.594456 400.555012 309.837894 396.940881 
C 313.081333 393.32675 315.73658 389.225127 317.706269 384.786416 
C 319.675959 380.347704 320.935718 375.62683 321.439351 370.796903 
C 321.942984 365.966977 321.684261 361.087765 320.672667 356.338185 
C 319.661073 351.588604 317.909126 347.027428 315.48107 342.82191 
L 275.350858 365.991094 
L 265.418793 320.729641 
z
" style="fill: #ff7f0e; stroke: #ffffff; stroke-linejoin: miter"/>
   </g>
   <g id="text_66">
    <!-- Yes -->
    <g style="fill: #262626" transform="translate(297.800771 317.703525)scale(0.1 -0.1)">
     <use xlink:href="#ArialMT-59"/>
     <use xlink:href="#ArialMT-65" x="57.574219"/>
     <use xlink:href="#ArialMT-73" x="113.189453"/>
    </g>
   </g>
   <g id="text_67">
    <!-- 20% -->
    <g style="fill: #262626" transform="translate(278.439609 338.900494)scale(0.1 -0.1)">
     <use xlink:href="#ArialMT-32"/>
     <use xlink:href="#ArialMT-30" x="55.615234"/>
     <use xlink:href="#ArialMT-25" x="111.230469"/>
    </g>
   </g>
   <g id="text_68">
    <!-- No -->
    <g style="fill: #262626" transform="translate(241.988956 415.209581)scale(0.1 -0.1)">
     <use xlink:href="#ArialMT-4e"/>
     <use xlink:href="#ArialMT-6f" x="72.216797"/>
    </g>
   </g>
   <g id="text_69">
    <!-- 80% -->
    <g style="fill: #262626" transform="translate(254.118869 394.012612)scale(0.1 -0.1)">
     <use xlink:href="#ArialMT-38"/>
     <use xlink:href="#ArialMT-30" x="55.615234"/>
     <use xlink:href="#ArialMT-25" x="111.230469"/>
    </g>
   </g>
   <g id="text_70">
    <!-- Contact Email -->
    <g style="fill: #262626" transform="translate(238.004608 302.068125)scale(0.12 -0.12)">
     <use xlink:href="#ArialMT-43"/>
     <use xlink:href="#ArialMT-6f" x="72.216797"/>
     <use xlink:href="#ArialMT-6e" x="127.832031"/>
     <use xlink:href="#ArialMT-74" x="183.447266"/>
     <use xlink:href="#ArialMT-61" x="211.230469"/>
     <use xlink:href="#ArialMT-63" x="266.845703"/>
     <use xlink:href="#ArialMT-74" x="316.845703"/>
     <use xlink:href="#ArialMT-20" x="344.628906"/>
     <use xlink:href="#ArialMT-45" x="372.412109"/>
     <use xlink:href="#ArialMT-6d" x="439.111328"/>
     <use xlink:href="#ArialMT-61" x="522.412109"/>
     <use xlink:href="#ArialMT-69" x="578.027344"/>
     <use xlink:href="#ArialMT-6c" x="600.244141"/>
    </g>
   </g>
  </g>
  <g id="axes_11">
   <g id="matplotlib.axis_21"/>
   <g id="matplotlib.axis_22"/>
   <g id="patch_32">
    <path d="M 499.007339 339.85446 
C 497.682779 337.560255 496.163919 335.383854 494.467458 333.349189 
C 492.770998 331.314524 490.903178 329.429079 488.884535 327.713584 
L 458.877129 363.023648 
L 499.007339 339.85446 
z
" style="fill: #1f77b4; stroke: #ffffff; stroke-linejoin: miter"/>
   </g>
   <g id="patch_33">
    <path d="M 485.325502 330.68103 
C 480.943091 326.956744 475.90539 324.080663 470.470389 322.200078 
C 465.035388 320.319493 459.297476 319.467064 453.550502 319.686444 
C 447.803528 319.905824 442.1473 321.193204 436.871482 323.482654 
C 431.595665 325.772105 426.791883 329.023866 422.706147 333.071408 
C 418.620411 337.11895 415.323677 341.89198 412.984778 347.146063 
C 410.645879 352.400146 409.305434 358.044034 409.03209 363.788694 
C 408.758745 369.533355 409.557248 375.279019 411.386705 380.731442 
C 413.216163 386.183866 416.044804 391.248356 419.727767 395.665552 
C 423.410731 400.082747 427.884055 403.775935 432.918654 406.55598 
C 437.953253 409.336025 443.46169 411.154646 449.16187 411.918709 
C 454.862049 412.682772 460.654975 412.379008 466.243983 411.022971 
C 471.83299 409.666935 477.121014 407.282178 481.837246 403.990827 
C 486.553478 400.699476 490.616011 396.558692 493.816796 391.780532 
C 497.017581 387.002372 499.30103 381.669818 500.550203 376.05596 
C 501.799376 370.442102 501.992579 364.644435 501.119918 358.959868 
C 500.247257 353.275301 498.323887 347.802559 495.448308 342.821908 
L 455.318097 365.991094 
L 485.325502 330.68103 
z
" style="fill: #ff7f0e; stroke: #ffffff; stroke-linejoin: miter"/>
   </g>
   <g id="text_71">
    <!-- Yes -->
    <g style="fill: #262626" transform="translate(498.026491 332.9669)scale(0.1 -0.1)">
     <use xlink:href="#ArialMT-59"/>
     <use xlink:href="#ArialMT-65" x="57.574219"/>
     <use xlink:href="#ArialMT-73" x="113.189453"/>
    </g>
   </g>
   <g id="text_72">
    <!-- 5% -->
    <g style="fill: #262626" transform="translate(473.004764 347.804129)scale(0.1 -0.1)">
     <defs>
      <path id="ArialMT-35" d="M 266 1200 
L 856 1250 
Q 922 819 1161 601 
Q 1400 384 1738 384 
Q 2144 384 2425 690 
Q 2706 997 2706 1503 
Q 2706 1984 2436 2262 
Q 2166 2541 1728 2541 
Q 1456 2541 1237 2417 
Q 1019 2294 894 2097 
L 366 2166 
L 809 4519 
L 3088 4519 
L 3088 3981 
L 1259 3981 
L 1013 2750 
Q 1425 3038 1878 3038 
Q 2478 3038 2890 2622 
Q 3303 2206 3303 1553 
Q 3303 931 2941 478 
Q 2500 -78 1738 -78 
Q 1113 -78 717 272 
Q 322 622 266 1200 
z
" transform="scale(0.015625)"/>
     </defs>
     <use xlink:href="#ArialMT-35"/>
     <use xlink:href="#ArialMT-25" x="55.615234"/>
    </g>
   </g>
   <g id="text_73">
    <!-- No -->
    <g style="fill: #262626" transform="translate(403.385922 401.218154)scale(0.1 -0.1)">
     <use xlink:href="#ArialMT-4e"/>
     <use xlink:href="#ArialMT-6f" x="72.216797"/>
    </g>
   </g>
   <g id="text_74">
    <!-- 95% -->
    <g style="fill: #262626" transform="translate(423.956868 386.380925)scale(0.1 -0.1)">
     <use xlink:href="#ArialMT-39"/>
     <use xlink:href="#ArialMT-35" x="55.615234"/>
     <use xlink:href="#ArialMT-25" x="111.230469"/>
    </g>
   </g>
   <g id="text_75">
    <!-- Wikidata Database -->
    <g style="fill: #262626" transform="translate(404.962159 302.068125)scale(0.12 -0.12)">
     <defs>
      <path id="ArialMT-57" d="M 1294 0 
L 78 4581 
L 700 4581 
L 1397 1578 
Q 1509 1106 1591 641 
Q 1766 1375 1797 1488 
L 2669 4581 
L 3400 4581 
L 4056 2263 
Q 4303 1400 4413 641 
Q 4500 1075 4641 1638 
L 5359 4581 
L 5969 4581 
L 4713 0 
L 4128 0 
L 3163 3491 
Q 3041 3928 3019 4028 
Q 2947 3713 2884 3491 
L 1913 0 
L 1294 0 
z
" transform="scale(0.015625)"/>
      <path id="ArialMT-6b" d="M 425 0 
L 425 4581 
L 988 4581 
L 988 1969 
L 2319 3319 
L 3047 3319 
L 1778 2088 
L 3175 0 
L 2481 0 
L 1384 1697 
L 988 1316 
L 988 0 
L 425 0 
z
" transform="scale(0.015625)"/>
      <path id="ArialMT-62" d="M 941 0 
L 419 0 
L 419 4581 
L 981 4581 
L 981 2947 
Q 1338 3394 1891 3394 
Q 2197 3394 2470 3270 
Q 2744 3147 2920 2923 
Q 3097 2700 3197 2384 
Q 3297 2069 3297 1709 
Q 3297 856 2875 390 
Q 2453 -75 1863 -75 
Q 1275 -75 941 416 
L 941 0 
z
M 934 1684 
Q 934 1088 1097 822 
Q 1363 388 1816 388 
Q 2184 388 2453 708 
Q 2722 1028 2722 1663 
Q 2722 2313 2464 2622 
Q 2206 2931 1841 2931 
Q 1472 2931 1203 2611 
Q 934 2291 934 1684 
z
" transform="scale(0.015625)"/>
     </defs>
     <use xlink:href="#ArialMT-57"/>
     <use xlink:href="#ArialMT-69" x="94.384766"/>
     <use xlink:href="#ArialMT-6b" x="116.601562"/>
     <use xlink:href="#ArialMT-69" x="166.601562"/>
     <use xlink:href="#ArialMT-64" x="188.818359"/>
     <use xlink:href="#ArialMT-61" x="244.433594"/>
     <use xlink:href="#ArialMT-74" x="300.048828"/>
     <use xlink:href="#ArialMT-61" x="327.832031"/>
     <use xlink:href="#ArialMT-20" x="383.447266"/>
     <use xlink:href="#ArialMT-44" x="411.230469"/>
     <use xlink:href="#ArialMT-61" x="483.447266"/>
     <use xlink:href="#ArialMT-74" x="539.0625"/>
     <use xlink:href="#ArialMT-61" x="566.845703"/>
     <use xlink:href="#ArialMT-62" x="622.460938"/>
     <use xlink:href="#ArialMT-61" x="678.076172"/>
     <use xlink:href="#ArialMT-73" x="733.691406"/>
     <use xlink:href="#ArialMT-65" x="783.691406"/>
    </g>
   </g>
  </g>
  <g id="axes_12">
   <g id="matplotlib.axis_23"/>
   <g id="matplotlib.axis_24"/>
   <g id="patch_34">
    <path d="M 678.498358 339.362323 
C 676.026965 335.081746 672.886519 331.224033 669.196278 327.935682 
C 665.506038 324.647331 661.313314 321.970501 656.777326 320.006846 
L 638.368148 362.531511 
L 678.498358 339.362323 
z
" style="fill: #1f77b4; stroke: #ffffff; stroke-linejoin: miter"/>
   </g>
   <g id="patch_35">
    <path d="M 653.694513 323.466428 
C 648.680917 321.296013 643.322764 320.029244 637.868029 319.724749 
C 632.413293 319.420253 626.947442 320.082801 621.723431 321.681729 
C 616.499421 323.280658 611.599104 325.790916 607.249264 329.096328 
C 602.899425 332.40174 599.168217 336.450517 596.228321 341.055283 
C 593.288425 345.660049 591.185903 350.748654 590.01806 356.085601 
C 588.850217 361.422547 588.63535 366.924214 589.383403 372.335985 
C 590.131457 377.747757 591.83071 382.98484 594.402522 387.804865 
C 596.974334 392.624889 600.378409 396.952334 604.457208 400.586926 
C 608.536007 404.221517 613.225621 407.106308 618.309018 409.107792 
C 623.392414 411.109275 628.789945 412.196091 634.251813 412.317942 
C 639.713682 412.439792 645.15431 411.594769 650.321908 409.821979 
C 655.489506 408.049188 660.303107 405.376408 664.539937 401.927332 
C 668.776768 398.478257 672.370445 394.306928 675.154655 389.606393 
C 677.938865 384.905857 679.869983 379.749765 680.858638 374.376739 
C 681.847294 369.003712 681.877996 363.497937 680.949323 358.114218 
C 680.020651 352.7305 678.147155 347.553192 675.415541 342.821899 
L 635.285335 365.991094 
L 653.694513 323.466428 
z
" style="fill: #ff7f0e; stroke: #ffffff; stroke-linejoin: miter"/>
   </g>
   <g id="text_76">
    <!-- Yes -->
    <g style="fill: #262626" transform="translate(672.279092 327.061255)scale(0.1 -0.1)">
     <use xlink:href="#ArialMT-59"/>
     <use xlink:href="#ArialMT-65" x="57.574219"/>
     <use xlink:href="#ArialMT-73" x="113.189453"/>
    </g>
   </g>
   <g id="text_77">
    <!-- 10% -->
    <g style="fill: #262626" transform="translate(646.857995 344.35917)scale(0.1 -0.1)">
     <use xlink:href="#ArialMT-31"/>
     <use xlink:href="#ArialMT-30" x="55.615234"/>
     <use xlink:href="#ArialMT-25" x="111.230469"/>
    </g>
   </g>
   <g id="text_78">
    <!-- No -->
    <g style="fill: #262626" transform="translate(588.591583 406.631665)scale(0.1 -0.1)">
     <use xlink:href="#ArialMT-4e"/>
     <use xlink:href="#ArialMT-6f" x="72.216797"/>
    </g>
   </g>
   <g id="text_79">
    <!-- 90% -->
    <g style="fill: #262626" transform="translate(606.781428 389.333749)scale(0.1 -0.1)">
     <use xlink:href="#ArialMT-39"/>
     <use xlink:href="#ArialMT-30" x="55.615234"/>
     <use xlink:href="#ArialMT-25" x="111.230469"/>
    </g>
   </g>
   <g id="text_80">
    <!-- OBO -->
    <g style="fill: #262626" transform="translate(621.949398 302.068125)scale(0.12 -0.12)">
     <defs>
      <path id="ArialMT-4f" d="M 309 2231 
Q 309 3372 921 4017 
Q 1534 4663 2503 4663 
Q 3138 4663 3647 4359 
Q 4156 4056 4423 3514 
Q 4691 2972 4691 2284 
Q 4691 1588 4409 1038 
Q 4128 488 3612 205 
Q 3097 -78 2500 -78 
Q 1853 -78 1343 234 
Q 834 547 571 1087 
Q 309 1628 309 2231 
z
M 934 2222 
Q 934 1394 1379 917 
Q 1825 441 2497 441 
Q 3181 441 3623 922 
Q 4066 1403 4066 2288 
Q 4066 2847 3877 3264 
Q 3688 3681 3323 3911 
Q 2959 4141 2506 4141 
Q 1863 4141 1398 3698 
Q 934 3256 934 2222 
z
" transform="scale(0.015625)"/>
     </defs>
     <use xlink:href="#ArialMT-4f"/>
     <use xlink:href="#ArialMT-42" x="77.783203"/>
     <use xlink:href="#ArialMT-4f" x="144.482422"/>
    </g>
   </g>
  </g>
  <g id="axes_13">
   <g id="matplotlib.axis_25"/>
   <g id="matplotlib.axis_26"/>
   <g id="patch_36">
    <path d="M 137.374696 479.864069 
C 132.438017 471.313491 124.895404 464.560474 115.853156 460.595509 
C 106.810909 456.630544 96.733839 455.657446 87.099986 457.818943 
L 97.244486 503.033257 
L 137.374696 479.864069 
z
" style="fill: #1f77b4; stroke: #ffffff; stroke-linejoin: miter"/>
   </g>
   <g id="patch_37">
    <path d="M 85.23912 462.062718 
C 80.505255 463.124831 75.967426 464.923826 71.791723 467.393859 
C 67.61602 469.863892 63.854017 472.974455 60.643407 476.611699 
C 57.432796 480.248942 54.813234 484.367942 52.880597 488.817939 
C 50.94796 493.267936 49.726119 497.993968 49.259796 502.823057 
C 48.793472 507.652146 49.088424 512.524648 50.133858 517.262225 
C 51.179291 521.999801 52.962293 526.543937 55.417604 530.728314 
C 57.872915 534.91269 60.970209 538.685625 64.596123 541.909026 
C 68.222036 545.132427 72.331785 547.76648 76.774947 549.714778 
C 81.21811 551.663075 85.939809 552.901553 90.767226 553.384882 
C 95.594643 553.868211 100.468153 553.590421 105.209382 552.56168 
C 109.950611 551.532938 114.500999 549.765952 118.693997 547.325393 
C 122.886995 544.884835 126.670815 541.800848 129.906966 538.18631 
C 133.143117 534.571772 135.791629 530.471326 137.755563 526.035052 
C 139.719498 521.598779 140.974598 516.881471 141.474925 512.055786 
C 141.975253 507.230102 141.714629 502.355643 140.702593 497.610821 
C 139.690556 492.865998 137.939607 488.309415 135.513831 484.107848 
L 95.383619 507.277031 
L 85.23912 462.062718 
z
" style="fill: #ff7f0e; stroke: #ffffff; stroke-linejoin: miter"/>
   </g>
   <g id="text_81">
    <!-- Yes -->
    <g style="fill: #262626" transform="translate(117.714023 458.936891)scale(0.1 -0.1)">
     <use xlink:href="#ArialMT-59"/>
     <use xlink:href="#ArialMT-65" x="57.574219"/>
     <use xlink:href="#ArialMT-73" x="113.189453"/>
    </g>
   </g>
   <g id="text_82">
    <!-- 20% -->
    <g style="fill: #262626" transform="translate(98.402657 480.155764)scale(0.1 -0.1)">
     <use xlink:href="#ArialMT-32"/>
     <use xlink:href="#ArialMT-30" x="55.615234"/>
     <use xlink:href="#ArialMT-25" x="111.230469"/>
    </g>
   </g>
   <g id="text_83">
    <!-- No -->
    <g style="fill: #262626" transform="translate(62.131268 556.543709)scale(0.1 -0.1)">
     <use xlink:href="#ArialMT-4e"/>
     <use xlink:href="#ArialMT-6f" x="72.216797"/>
    </g>
   </g>
   <g id="text_84">
    <!-- 80% -->
    <g style="fill: #262626" transform="translate(74.211385 535.324835)scale(0.1 -0.1)">
     <use xlink:href="#ArialMT-38"/>
     <use xlink:href="#ArialMT-30" x="55.615234"/>
     <use xlink:href="#ArialMT-25" x="111.230469"/>
    </g>
   </g>
   <g id="text_85">
    <!-- OWL -->
    <g style="fill: #262626" transform="translate(81.716744 443.354062)scale(0.12 -0.12)">
     <use xlink:href="#ArialMT-4f"/>
     <use xlink:href="#ArialMT-57" x="77.783203"/>
     <use xlink:href="#ArialMT-4c" x="172.167969"/>
    </g>
   </g>
  </g>
  <g id="axes_14">
   <g id="matplotlib.axis_27"/>
   <g id="matplotlib.axis_28"/>
   <g id="patch_38">
    <path d="M 319.380903 481.605099 
C 319.018215 480.976905 318.640827 480.357313 318.24905 479.746837 
C 317.857273 479.136361 317.451215 478.535168 317.031213 477.943756 
L 279.250694 504.774286 
L 319.380903 481.605099 
z
" style="fill: #1f77b4; stroke: #ffffff; stroke-linejoin: miter"/>
   </g>
   <g id="patch_39">
    <path d="M 313.131377 480.446501 
C 309.661018 475.559829 305.275303 471.392557 300.217854 468.176168 
C 295.160405 464.959779 289.526632 462.754954 283.629483 461.684166 
C 277.732334 460.613378 271.683063 460.696829 265.817696 461.929883 
C 259.952329 463.162938 254.381521 465.522333 249.414721 468.877008 
C 244.447921 472.231683 240.17883 476.518351 236.844591 481.498893 
C 233.510352 486.479435 231.173866 492.059891 229.964922 497.930274 
C 228.755979 503.800658 228.697384 509.850222 229.792393 515.742921 
C 230.887402 521.63562 233.115358 527.260286 236.352499 532.304477 
C 239.589641 537.348668 243.774899 541.717223 248.675788 545.167474 
C 253.576677 548.617726 259.10074 551.084583 264.941122 552.431017 
C 270.781504 553.77745 276.828025 553.978058 282.744808 553.021698 
C 288.661591 552.065337 294.337014 549.97005 299.455815 546.852226 
C 304.574616 543.734402 309.040227 539.652861 312.604589 534.834327 
C 316.16895 530.015793 318.76482 524.551169 320.248001 518.744007 
C 321.731182 512.936846 322.073693 506.896702 321.256508 500.959097 
C 320.439323 495.021491 318.477859 489.29844 315.481072 484.107851 
L 275.350858 507.277031 
L 313.131377 480.446501 
z
" style="fill: #ff7f0e; stroke: #ffffff; stroke-linejoin: miter"/>
   </g>
   <g id="text_86">
    <!-- Yes -->
    <g style="fill: #262626" transform="translate(322.148885 479.829248)scale(0.1 -0.1)">
     <use xlink:href="#ArialMT-59"/>
     <use xlink:href="#ArialMT-65" x="57.574219"/>
     <use xlink:href="#ArialMT-73" x="113.189453"/>
    </g>
   </g>
   <g id="text_87">
    <!-- 1% -->
    <g style="fill: #262626" transform="translate(295.423145 492.342973)scale(0.1 -0.1)">
     <use xlink:href="#ArialMT-31"/>
     <use xlink:href="#ArialMT-25" x="55.615234"/>
    </g>
   </g>
   <g id="text_88">
    <!-- No -->
    <g style="fill: #262626" transform="translate(219.669851 537.392378)scale(0.1 -0.1)">
     <use xlink:href="#ArialMT-4e"/>
     <use xlink:href="#ArialMT-6f" x="72.216797"/>
    </g>
   </g>
   <g id="text_89">
    <!-- 99% -->
    <g style="fill: #262626" transform="translate(241.944812 524.878655)scale(0.1 -0.1)">
     <use xlink:href="#ArialMT-39"/>
     <use xlink:href="#ArialMT-39" x="55.615234"/>
     <use xlink:href="#ArialMT-25" x="111.230469"/>
    </g>
   </g>
   <g id="text_90">
    <!-- JSON -->
    <g style="fill: #262626" transform="translate(259.34867 443.354062)scale(0.12 -0.12)">
     <defs>
      <path id="ArialMT-4a" d="M 184 1300 
L 731 1375 
Q 753 850 928 656 
Q 1103 463 1413 463 
Q 1641 463 1806 567 
Q 1972 672 2034 851 
Q 2097 1031 2097 1425 
L 2097 4581 
L 2703 4581 
L 2703 1459 
Q 2703 884 2564 568 
Q 2425 253 2123 87 
Q 1822 -78 1416 -78 
Q 813 -78 492 269 
Q 172 616 184 1300 
z
" transform="scale(0.015625)"/>
     </defs>
     <use xlink:href="#ArialMT-4a"/>
     <use xlink:href="#ArialMT-53" x="50"/>
     <use xlink:href="#ArialMT-4f" x="116.699219"/>
     <use xlink:href="#ArialMT-4e" x="194.482422"/>
    </g>
   </g>
  </g>
  <g id="axes_15"/>
  <g id="axes_16"/>
  <g id="text_91">
   <!-- https://github.com/biopragmatics/bioregistry (2022-05-04) -->
   <g style="fill: #808080; opacity: 0.5" transform="translate(294.625 574.31625)scale(0.08 -0.08)">
    <defs>
     <path id="ArialMT-3a" d="M 578 2678 
L 578 3319 
L 1219 3319 
L 1219 2678 
L 578 2678 
z
M 578 0 
L 578 641 
L 1219 641 
L 1219 0 
L 578 0 
z
" transform="scale(0.015625)"/>
     <path id="ArialMT-2f" d="M 0 -78 
L 1328 4659 
L 1778 4659 
L 453 -78 
L 0 -78 
z
" transform="scale(0.015625)"/>
     <path id="ArialMT-75" d="M 2597 0 
L 2597 488 
Q 2209 -75 1544 -75 
Q 1250 -75 995 37 
Q 741 150 617 320 
Q 494 491 444 738 
Q 409 903 409 1263 
L 409 3319 
L 972 3319 
L 972 1478 
Q 972 1038 1006 884 
Q 1059 663 1231 536 
Q 1403 409 1656 409 
Q 1909 409 2131 539 
Q 2353 669 2445 892 
Q 2538 1116 2538 1541 
L 2538 3319 
L 3100 3319 
L 3100 0 
L 2597 0 
z
" transform="scale(0.015625)"/>
     <path id="ArialMT-28" d="M 1497 -1347 
Q 1031 -759 709 28 
Q 388 816 388 1659 
Q 388 2403 628 3084 
Q 909 3875 1497 4659 
L 1900 4659 
Q 1522 4009 1400 3731 
Q 1209 3300 1100 2831 
Q 966 2247 966 1656 
Q 966 153 1900 -1347 
L 1497 -1347 
z
" transform="scale(0.015625)"/>
     <path id="ArialMT-29" d="M 791 -1347 
L 388 -1347 
Q 1322 153 1322 1656 
Q 1322 2244 1188 2822 
Q 1081 3291 891 3722 
Q 769 4003 388 4659 
L 791 4659 
Q 1378 3875 1659 3084 
Q 1900 2403 1900 1659 
Q 1900 816 1576 28 
Q 1253 -759 791 -1347 
z
" transform="scale(0.015625)"/>
    </defs>
    <use xlink:href="#ArialMT-68"/>
    <use xlink:href="#ArialMT-74" x="55.615234"/>
    <use xlink:href="#ArialMT-74" x="83.398438"/>
    <use xlink:href="#ArialMT-70" x="111.181641"/>
    <use xlink:href="#ArialMT-73" x="166.796875"/>
    <use xlink:href="#ArialMT-3a" x="216.796875"/>
    <use xlink:href="#ArialMT-2f" x="244.580078"/>
    <use xlink:href="#ArialMT-2f" x="272.363281"/>
    <use xlink:href="#ArialMT-67" x="300.146484"/>
    <use xlink:href="#ArialMT-69" x="355.761719"/>
    <use xlink:href="#ArialMT-74" x="377.978516"/>
    <use xlink:href="#ArialMT-68" x="405.761719"/>
    <use xlink:href="#ArialMT-75" x="461.376953"/>
    <use xlink:href="#ArialMT-62" x="516.992188"/>
    <use xlink:href="#ArialMT-2e" x="572.607422"/>
    <use xlink:href="#ArialMT-63" x="600.390625"/>
    <use xlink:href="#ArialMT-6f" x="650.390625"/>
    <use xlink:href="#ArialMT-6d" x="706.005859"/>
    <use xlink:href="#ArialMT-2f" x="789.306641"/>
    <use xlink:href="#ArialMT-62" x="817.089844"/>
    <use xlink:href="#ArialMT-69" x="872.705078"/>
    <use xlink:href="#ArialMT-6f" x="894.921875"/>
    <use xlink:href="#ArialMT-70" x="950.537109"/>
    <use xlink:href="#ArialMT-72" x="1006.152344"/>
    <use xlink:href="#ArialMT-61" x="1039.453125"/>
    <use xlink:href="#ArialMT-67" x="1095.068359"/>
    <use xlink:href="#ArialMT-6d" x="1150.683594"/>
    <use xlink:href="#ArialMT-61" x="1233.984375"/>
    <use xlink:href="#ArialMT-74" x="1289.599609"/>
    <use xlink:href="#ArialMT-69" x="1317.382812"/>
    <use xlink:href="#ArialMT-63" x="1339.599609"/>
    <use xlink:href="#ArialMT-73" x="1389.599609"/>
    <use xlink:href="#ArialMT-2f" x="1439.599609"/>
    <use xlink:href="#ArialMT-62" x="1467.382812"/>
    <use xlink:href="#ArialMT-69" x="1522.998047"/>
    <use xlink:href="#ArialMT-6f" x="1545.214844"/>
    <use xlink:href="#ArialMT-72" x="1600.830078"/>
    <use xlink:href="#ArialMT-65" x="1634.130859"/>
    <use xlink:href="#ArialMT-67" x="1689.746094"/>
    <use xlink:href="#ArialMT-69" x="1745.361328"/>
    <use xlink:href="#ArialMT-73" x="1767.578125"/>
    <use xlink:href="#ArialMT-74" x="1817.578125"/>
    <use xlink:href="#ArialMT-72" x="1845.361328"/>
    <use xlink:href="#ArialMT-79" x="1878.662109"/>
    <use xlink:href="#ArialMT-20" x="1928.662109"/>
    <use xlink:href="#ArialMT-28" x="1956.445312"/>
    <use xlink:href="#ArialMT-32" x="1989.746094"/>
    <use xlink:href="#ArialMT-30" x="2045.361328"/>
    <use xlink:href="#ArialMT-32" x="2100.976562"/>
    <use xlink:href="#ArialMT-32" x="2156.591797"/>
    <use xlink:href="#ArialMT-2d" x="2212.207031"/>
    <use xlink:href="#ArialMT-30" x="2245.507812"/>
    <use xlink:href="#ArialMT-35" x="2301.123047"/>
    <use xlink:href="#ArialMT-2d" x="2356.738281"/>
    <use xlink:href="#ArialMT-30" x="2390.039062"/>
    <use xlink:href="#ArialMT-34" x="2445.654297"/>
    <use xlink:href="#ArialMT-29" x="2501.269531"/>
   </g>
  </g>
 </g>
</svg>
