<?xml version="1.0" encoding="utf-8" standalone="no"?>
<!DOCTYPE svg PUBLIC "-//W3C//DTD SVG 1.1//EN"
  "http://www.w3.org/Graphics/SVG/1.1/DTD/svg11.dtd">
<svg xmlns:xlink="http://www.w3.org/1999/xlink" width="792pt" height="576pt" viewBox="0 0 792 576" xmlns="http://www.w3.org/2000/svg" version="1.1">
 <metadata>
  <rdf:RDF xmlns:dc="http://purl.org/dc/elements/1.1/" xmlns:cc="http://creativecommons.org/ns#" xmlns:rdf="http://www.w3.org/1999/02/22-rdf-syntax-ns#">
   <cc:Work>
    <dc:type rdf:resource="http://purl.org/dc/dcmitype/StillImage"/>
    <dc:date>2026-03-18T14:38:29.595645</dc:date>
    <dc:format>image/svg+xml</dc:format>
    <dc:creator>
     <cc:Agent>
      <dc:title>Matplotlib v3.10.8, https://matplotlib.org/</dc:title>
     </cc:Agent>
    </dc:creator>
   </cc:Work>
  </rdf:RDF>
 </metadata>
 <defs>
  <style type="text/css">*{stroke-linejoin: round; stroke-linecap: butt}</style>
 </defs>
 <g id="figure_1">
  <g id="patch_1">
   <path d="M 0 576 
L 792 576 
L 792 0 
L 0 0 
z
" style="fill: #ffffff"/>
  </g>
  <g id="axes_1">
   <g id="matplotlib.axis_1"/>
   <g id="matplotlib.axis_2"/>
   <g id="patch_2">
    <path d="M 135.448053 62.287495 
C 132.717119 57.557378 129.161382 53.354088 124.949386 49.876863 
C 120.73739 46.399638 115.936756 43.704302 110.775038 41.918617 
C 105.613321 40.132933 100.173386 39.285566 94.713092 39.416684 
C 89.252798 39.547803 83.859805 40.6553 78.789746 42.68668 
C 73.719688 44.718061 69.053958 47.640713 65.013719 51.316098 
C 60.973479 54.991484 57.62359 59.3606 55.122842 64.216345 
C 52.622093 69.07209 51.010632 74.336509 50.364842 79.760065 
C 49.719052 85.183621 50.049301 90.679242 51.339936 95.986432 
C 52.63057 101.293622 54.86087 106.327178 57.925116 110.848504 
C 60.989363 115.369831 64.838363 119.306343 69.289669 122.471445 
C 73.740976 125.636547 78.723128 127.979426 83.999966 129.389029 
C 89.276804 130.798631 94.763614 131.252327 100.200315 130.72861 
C 105.637016 130.204893 110.936328 128.712172 115.847057 126.321202 
C 120.757787 123.930232 125.201097 120.679398 128.96637 116.722794 
C 132.731643 112.766189 135.758432 108.167334 137.903263 103.144217 
C 140.048094 98.121101 141.276535 92.754364 141.530356 87.298398 
L 95.811802 85.171495 
z
" style="fill: #1f77b4; stroke: #ffffff; stroke-linejoin: miter"/>
   </g>
   <g id="patch_3">
    <path d="M 145.977542 86.216902 
C 146.179969 81.865641 145.760167 77.507679 144.730858 73.275071 
C 143.701548 69.042463 142.073232 64.978395 139.89525 61.206016 
L 100.258989 84.09 
z
" style="fill: #ff7f0e; stroke: #ffffff; stroke-linejoin: miter"/>
   </g>
   <g id="text_1">
    <!-- Yes -->
    <g style="fill: #262626" transform="translate(30.747439 99.827311) scale(0.1 -0.1)">
     <defs>
      <path id="DejaVuSans-59" d="M -13 4666 
L 666 4666 
L 1959 2747 
L 3244 4666 
L 3922 4666 
L 2272 2222 
L 2272 0 
L 1638 0 
L 1638 2222 
L -13 4666 
z
" transform="scale(0.015625)"/>
      <path id="DejaVuSans-65" d="M 3597 1894 
L 3597 1613 
L 953 1613 
Q 991 1019 1311 708 
Q 1631 397 2203 397 
Q 2534 397 2845 478 
Q 3156 559 3463 722 
L 3463 178 
Q 3153 47 2828 -22 
Q 2503 -91 2169 -91 
Q 1331 -91 842 396 
Q 353 884 353 1716 
Q 353 2575 817 3079 
Q 1281 3584 2069 3584 
Q 2775 3584 3186 3129 
Q 3597 2675 3597 1894 
z
M 3022 2063 
Q 3016 2534 2758 2815 
Q 2500 3097 2075 3097 
Q 1594 3097 1305 2825 
Q 1016 2553 972 2059 
L 3022 2063 
z
" transform="scale(0.015625)"/>
      <path id="DejaVuSans-73" d="M 2834 3397 
L 2834 2853 
Q 2591 2978 2328 3040 
Q 2066 3103 1784 3103 
Q 1356 3103 1142 2972 
Q 928 2841 928 2578 
Q 928 2378 1081 2264 
Q 1234 2150 1697 2047 
L 1894 2003 
Q 2506 1872 2764 1633 
Q 3022 1394 3022 966 
Q 3022 478 2636 193 
Q 2250 -91 1575 -91 
Q 1294 -91 989 -36 
Q 684 19 347 128 
L 347 722 
Q 666 556 975 473 
Q 1284 391 1588 391 
Q 1994 391 2212 530 
Q 2431 669 2431 922 
Q 2431 1156 2273 1281 
Q 2116 1406 1581 1522 
L 1381 1569 
Q 847 1681 609 1914 
Q 372 2147 372 2553 
Q 372 3047 722 3315 
Q 1072 3584 1716 3584 
Q 2034 3584 2315 3537 
Q 2597 3491 2834 3397 
z
" transform="scale(0.015625)"/>
     </defs>
     <use xlink:href="#DejaVuSans-59"/>
     <use xlink:href="#DejaVuSans-65" transform="translate(47.833984 0)"/>
     <use xlink:href="#DejaVuSans-73" transform="translate(109.357422 0)"/>
    </g>
   </g>
   <g id="text_2">
    <!-- 91% -->
    <g style="fill: #262626" transform="translate(58.015402 94.419837) scale(0.1 -0.1)">
     <defs>
      <path id="DejaVuSans-39" d="M 703 97 
L 703 672 
Q 941 559 1184 500 
Q 1428 441 1663 441 
Q 2288 441 2617 861 
Q 2947 1281 2994 2138 
Q 2813 1869 2534 1725 
Q 2256 1581 1919 1581 
Q 1219 1581 811 2004 
Q 403 2428 403 3163 
Q 403 3881 828 4315 
Q 1253 4750 1959 4750 
Q 2769 4750 3195 4129 
Q 3622 3509 3622 2328 
Q 3622 1225 3098 567 
Q 2575 -91 1691 -91 
Q 1453 -91 1209 -44 
Q 966 3 703 97 
z
M 1959 2075 
Q 2384 2075 2632 2365 
Q 2881 2656 2881 3163 
Q 2881 3666 2632 3958 
Q 2384 4250 1959 4250 
Q 1534 4250 1286 3958 
Q 1038 3666 1038 3163 
Q 1038 2656 1286 2365 
Q 1534 2075 1959 2075 
z
" transform="scale(0.015625)"/>
      <path id="DejaVuSans-31" d="M 794 531 
L 1825 531 
L 1825 4091 
L 703 3866 
L 703 4441 
L 1819 4666 
L 2450 4666 
L 2450 531 
L 3481 531 
L 3481 0 
L 794 0 
L 794 531 
z
" transform="scale(0.015625)"/>
      <path id="DejaVuSans-25" d="M 4653 2053 
Q 4381 2053 4226 1822 
Q 4072 1591 4072 1178 
Q 4072 772 4226 539 
Q 4381 306 4653 306 
Q 4919 306 5073 539 
Q 5228 772 5228 1178 
Q 5228 1588 5073 1820 
Q 4919 2053 4653 2053 
z
M 4653 2450 
Q 5147 2450 5437 2106 
Q 5728 1763 5728 1178 
Q 5728 594 5436 251 
Q 5144 -91 4653 -91 
Q 4153 -91 3862 251 
Q 3572 594 3572 1178 
Q 3572 1766 3864 2108 
Q 4156 2450 4653 2450 
z
M 1428 4353 
Q 1159 4353 1004 4120 
Q 850 3888 850 3481 
Q 850 3069 1003 2837 
Q 1156 2606 1428 2606 
Q 1700 2606 1854 2837 
Q 2009 3069 2009 3481 
Q 2009 3884 1853 4118 
Q 1697 4353 1428 4353 
z
M 4250 4750 
L 4750 4750 
L 1831 -91 
L 1331 -91 
L 4250 4750 
z
M 1428 4750 
Q 1922 4750 2215 4408 
Q 2509 4066 2509 3481 
Q 2509 2891 2217 2550 
Q 1925 2209 1428 2209 
Q 931 2209 642 2551 
Q 353 2894 353 3481 
Q 353 4063 643 4406 
Q 934 4750 1428 4750 
z
" transform="scale(0.015625)"/>
     </defs>
     <use xlink:href="#DejaVuSans-39"/>
     <use xlink:href="#DejaVuSans-31" transform="translate(63.623047 0)"/>
     <use xlink:href="#DejaVuSans-25" transform="translate(127.246094 0)"/>
    </g>
   </g>
   <g id="text_3">
    <!-- No -->
    <g style="fill: #262626" transform="translate(149.178045 74.952953) scale(0.1 -0.1)">
     <defs>
      <path id="DejaVuSans-4e" d="M 628 4666 
L 1478 4666 
L 3547 763 
L 3547 4666 
L 4159 4666 
L 4159 0 
L 3309 0 
L 1241 3903 
L 1241 0 
L 628 0 
L 628 4666 
z
" transform="scale(0.015625)"/>
      <path id="DejaVuSans-6f" d="M 1959 3097 
Q 1497 3097 1228 2736 
Q 959 2375 959 1747 
Q 959 1119 1226 758 
Q 1494 397 1959 397 
Q 2419 397 2687 759 
Q 2956 1122 2956 1747 
Q 2956 2369 2687 2733 
Q 2419 3097 1959 3097 
z
M 1959 3584 
Q 2709 3584 3137 3096 
Q 3566 2609 3566 1747 
Q 3566 888 3137 398 
Q 2709 -91 1959 -91 
Q 1206 -91 779 398 
Q 353 888 353 1747 
Q 353 2609 779 3096 
Q 1206 3584 1959 3584 
z
" transform="scale(0.015625)"/>
     </defs>
     <use xlink:href="#DejaVuSans-4e"/>
     <use xlink:href="#DejaVuSans-6f" transform="translate(74.804688 0)"/>
    </g>
   </g>
   <g id="text_4">
    <!-- 9% -->
    <g style="fill: #262626" transform="translate(119.010079 80.360418) scale(0.1 -0.1)">
     <use xlink:href="#DejaVuSans-39"/>
     <use xlink:href="#DejaVuSans-25" transform="translate(63.623047 0)"/>
    </g>
   </g>
   <g id="text_5">
    <!-- Name -->
    <g style="fill: #262626" transform="translate(82.557114 20.88) scale(0.12 -0.12)">
     <defs>
      <path id="DejaVuSans-61" d="M 2194 1759 
Q 1497 1759 1228 1600 
Q 959 1441 959 1056 
Q 959 750 1161 570 
Q 1363 391 1709 391 
Q 2188 391 2477 730 
Q 2766 1069 2766 1631 
L 2766 1759 
L 2194 1759 
z
M 3341 1997 
L 3341 0 
L 2766 0 
L 2766 531 
Q 2569 213 2275 61 
Q 1981 -91 1556 -91 
Q 1019 -91 701 211 
Q 384 513 384 1019 
Q 384 1609 779 1909 
Q 1175 2209 1959 2209 
L 2766 2209 
L 2766 2266 
Q 2766 2663 2505 2880 
Q 2244 3097 1772 3097 
Q 1472 3097 1187 3025 
Q 903 2953 641 2809 
L 641 3341 
Q 956 3463 1253 3523 
Q 1550 3584 1831 3584 
Q 2591 3584 2966 3190 
Q 3341 2797 3341 1997 
z
" transform="scale(0.015625)"/>
      <path id="DejaVuSans-6d" d="M 3328 2828 
Q 3544 3216 3844 3400 
Q 4144 3584 4550 3584 
Q 5097 3584 5394 3201 
Q 5691 2819 5691 2113 
L 5691 0 
L 5113 0 
L 5113 2094 
Q 5113 2597 4934 2840 
Q 4756 3084 4391 3084 
Q 3944 3084 3684 2787 
Q 3425 2491 3425 1978 
L 3425 0 
L 2847 0 
L 2847 2094 
Q 2847 2600 2669 2842 
Q 2491 3084 2119 3084 
Q 1678 3084 1418 2786 
Q 1159 2488 1159 1978 
L 1159 0 
L 581 0 
L 581 3500 
L 1159 3500 
L 1159 2956 
Q 1356 3278 1631 3431 
Q 1906 3584 2284 3584 
Q 2666 3584 2933 3390 
Q 3200 3197 3328 2828 
z
" transform="scale(0.015625)"/>
     </defs>
     <use xlink:href="#DejaVuSans-4e"/>
     <use xlink:href="#DejaVuSans-61" transform="translate(74.804688 0)"/>
     <use xlink:href="#DejaVuSans-6d" transform="translate(136.083984 0)"/>
     <use xlink:href="#DejaVuSans-65" transform="translate(233.496094 0)"/>
    </g>
   </g>
  </g>
  <g id="axes_2">
   <g id="matplotlib.axis_3"/>
   <g id="matplotlib.axis_4"/>
   <g id="patch_4">
    <path d="M 325.166031 62.287495 
C 322.435097 57.557378 318.87936 53.354088 314.667364 49.876863 
C 310.455368 46.399638 305.654734 43.704302 300.493016 41.918617 
C 295.331299 40.132933 289.891363 39.285566 284.43107 39.416684 
C 278.970776 39.547803 273.577783 40.6553 268.507724 42.68668 
C 263.437666 44.718061 258.771936 47.640713 254.731697 51.316098 
C 250.691457 54.991484 247.341568 59.3606 244.84082 64.216345 
C 242.340071 69.07209 240.72861 74.336509 240.08282 79.760065 
C 239.43703 85.183621 239.767279 90.679242 241.057913 95.986432 
C 242.348548 101.293622 244.578848 106.327178 247.643094 110.848504 
C 250.707341 115.369831 254.556341 119.306343 259.007647 122.471445 
C 263.458954 125.636547 268.441105 127.979426 273.717944 129.389029 
C 278.994782 130.798631 284.481592 131.252327 289.918293 130.72861 
C 295.354994 130.204893 300.654306 128.712172 305.565035 126.321202 
C 310.475765 123.930232 314.919075 120.679398 318.684348 116.722794 
C 322.449621 112.766189 325.47641 108.167334 327.621241 103.144217 
C 329.766072 98.121101 330.994513 92.754364 331.248334 87.298398 
L 285.52978 85.171495 
z
" style="fill: #1f77b4; stroke: #ffffff; stroke-linejoin: miter"/>
   </g>
   <g id="patch_5">
    <path d="M 335.695519 86.216902 
C 335.897947 81.865641 335.478145 77.507679 334.448836 73.275071 
C 333.419526 69.042463 331.79121 64.978395 329.613228 61.206016 
L 289.976967 84.09 
z
" style="fill: #ff7f0e; stroke: #ffffff; stroke-linejoin: miter"/>
   </g>
   <g id="text_6">
    <!-- Yes -->
    <g style="fill: #262626" transform="translate(220.465417 99.827311) scale(0.1 -0.1)">
     <use xlink:href="#DejaVuSans-59"/>
     <use xlink:href="#DejaVuSans-65" transform="translate(47.833984 0)"/>
     <use xlink:href="#DejaVuSans-73" transform="translate(109.357422 0)"/>
    </g>
   </g>
   <g id="text_7">
    <!-- 91% -->
    <g style="fill: #262626" transform="translate(247.73338 94.419837) scale(0.1 -0.1)">
     <use xlink:href="#DejaVuSans-39"/>
     <use xlink:href="#DejaVuSans-31" transform="translate(63.623047 0)"/>
     <use xlink:href="#DejaVuSans-25" transform="translate(127.246094 0)"/>
    </g>
   </g>
   <g id="text_8">
    <!-- No -->
    <g style="fill: #262626" transform="translate(338.896023 74.952953) scale(0.1 -0.1)">
     <use xlink:href="#DejaVuSans-4e"/>
     <use xlink:href="#DejaVuSans-6f" transform="translate(74.804688 0)"/>
    </g>
   </g>
   <g id="text_9">
    <!-- 9% -->
    <g style="fill: #262626" transform="translate(308.728057 80.360418) scale(0.1 -0.1)">
     <use xlink:href="#DejaVuSans-39"/>
     <use xlink:href="#DejaVuSans-25" transform="translate(63.623047 0)"/>
    </g>
   </g>
   <g id="text_10">
    <!-- Homepage -->
    <g style="fill: #262626" transform="translate(257.270404 20.88) scale(0.12 -0.12)">
     <defs>
      <path id="DejaVuSans-48" d="M 628 4666 
L 1259 4666 
L 1259 2753 
L 3553 2753 
L 3553 4666 
L 4184 4666 
L 4184 0 
L 3553 0 
L 3553 2222 
L 1259 2222 
L 1259 0 
L 628 0 
L 628 4666 
z
" transform="scale(0.015625)"/>
      <path id="DejaVuSans-70" d="M 1159 525 
L 1159 -1331 
L 581 -1331 
L 581 3500 
L 1159 3500 
L 1159 2969 
Q 1341 3281 1617 3432 
Q 1894 3584 2278 3584 
Q 2916 3584 3314 3078 
Q 3713 2572 3713 1747 
Q 3713 922 3314 415 
Q 2916 -91 2278 -91 
Q 1894 -91 1617 61 
Q 1341 213 1159 525 
z
M 3116 1747 
Q 3116 2381 2855 2742 
Q 2594 3103 2138 3103 
Q 1681 3103 1420 2742 
Q 1159 2381 1159 1747 
Q 1159 1113 1420 752 
Q 1681 391 2138 391 
Q 2594 391 2855 752 
Q 3116 1113 3116 1747 
z
" transform="scale(0.015625)"/>
      <path id="DejaVuSans-67" d="M 2906 1791 
Q 2906 2416 2648 2759 
Q 2391 3103 1925 3103 
Q 1463 3103 1205 2759 
Q 947 2416 947 1791 
Q 947 1169 1205 825 
Q 1463 481 1925 481 
Q 2391 481 2648 825 
Q 2906 1169 2906 1791 
z
M 3481 434 
Q 3481 -459 3084 -895 
Q 2688 -1331 1869 -1331 
Q 1566 -1331 1297 -1286 
Q 1028 -1241 775 -1147 
L 775 -588 
Q 1028 -725 1275 -790 
Q 1522 -856 1778 -856 
Q 2344 -856 2625 -561 
Q 2906 -266 2906 331 
L 2906 616 
Q 2728 306 2450 153 
Q 2172 0 1784 0 
Q 1141 0 747 490 
Q 353 981 353 1791 
Q 353 2603 747 3093 
Q 1141 3584 1784 3584 
Q 2172 3584 2450 3431 
Q 2728 3278 2906 2969 
L 2906 3500 
L 3481 3500 
L 3481 434 
z
" transform="scale(0.015625)"/>
     </defs>
     <use xlink:href="#DejaVuSans-48"/>
     <use xlink:href="#DejaVuSans-6f" transform="translate(75.195312 0)"/>
     <use xlink:href="#DejaVuSans-6d" transform="translate(136.376953 0)"/>
     <use xlink:href="#DejaVuSans-65" transform="translate(233.789062 0)"/>
     <use xlink:href="#DejaVuSans-70" transform="translate(295.3125 0)"/>
     <use xlink:href="#DejaVuSans-61" transform="translate(358.789062 0)"/>
     <use xlink:href="#DejaVuSans-67" transform="translate(420.068359 0)"/>
     <use xlink:href="#DejaVuSans-65" transform="translate(483.544922 0)"/>
    </g>
   </g>
  </g>
  <g id="axes_3">
   <g id="matplotlib.axis_5"/>
   <g id="matplotlib.axis_6"/>
   <g id="patch_6">
    <path d="M 514.884009 62.287495 
C 512.153075 57.557378 508.597338 53.354088 504.385342 49.876863 
C 500.173346 46.399638 495.372712 43.704302 490.210994 41.918617 
C 485.049277 40.132933 479.609341 39.285566 474.149048 39.416684 
C 468.688754 39.547803 463.295761 40.6553 458.225702 42.68668 
C 453.155644 44.718061 448.489914 47.640713 444.449674 51.316098 
C 440.409435 54.991484 437.059546 59.3606 434.558798 64.216345 
C 432.058049 69.07209 430.446587 74.336509 429.800798 79.760065 
C 429.155008 85.183621 429.485257 90.679242 430.775891 95.986432 
C 432.066526 101.293622 434.296826 106.327178 437.361072 110.848504 
C 440.425319 115.369831 444.274318 119.306343 448.725625 122.471445 
C 453.176932 125.636547 458.159083 127.979426 463.435922 129.389029 
C 468.71276 130.798631 474.19957 131.252327 479.636271 130.72861 
C 485.072972 130.204893 490.372284 128.712172 495.283013 126.321202 
C 500.193743 123.930232 504.637053 120.679398 508.402326 116.722794 
C 512.167599 112.766189 515.194388 108.167334 517.339219 103.144217 
C 519.48405 98.121101 520.712491 92.754364 520.966312 87.298398 
L 475.247758 85.171495 
z
" style="fill: #1f77b4; stroke: #ffffff; stroke-linejoin: miter"/>
   </g>
   <g id="patch_7">
    <path d="M 525.413497 86.216902 
C 525.615925 81.865641 525.196123 77.507679 524.166814 73.275071 
C 523.137504 69.042463 521.509188 64.978395 519.331206 61.206016 
L 479.694945 84.09 
z
" style="fill: #ff7f0e; stroke: #ffffff; stroke-linejoin: miter"/>
   </g>
   <g id="text_11">
    <!-- Yes -->
    <g style="fill: #262626" transform="translate(410.183395 99.827311) scale(0.1 -0.1)">
     <use xlink:href="#DejaVuSans-59"/>
     <use xlink:href="#DejaVuSans-65" transform="translate(47.833984 0)"/>
     <use xlink:href="#DejaVuSans-73" transform="translate(109.357422 0)"/>
    </g>
   </g>
   <g id="text_12">
    <!-- 91% -->
    <g style="fill: #262626" transform="translate(437.451358 94.419837) scale(0.1 -0.1)">
     <use xlink:href="#DejaVuSans-39"/>
     <use xlink:href="#DejaVuSans-31" transform="translate(63.623047 0)"/>
     <use xlink:href="#DejaVuSans-25" transform="translate(127.246094 0)"/>
    </g>
   </g>
   <g id="text_13">
    <!-- No -->
    <g style="fill: #262626" transform="translate(528.614001 74.952953) scale(0.1 -0.1)">
     <use xlink:href="#DejaVuSans-4e"/>
     <use xlink:href="#DejaVuSans-6f" transform="translate(74.804688 0)"/>
    </g>
   </g>
   <g id="text_14">
    <!-- 9% -->
    <g style="fill: #262626" transform="translate(498.446035 80.360418) scale(0.1 -0.1)">
     <use xlink:href="#DejaVuSans-39"/>
     <use xlink:href="#DejaVuSans-25" transform="translate(63.623047 0)"/>
    </g>
   </g>
   <g id="text_15">
    <!-- Description -->
    <g style="fill: #262626" transform="translate(445.52307 20.88) scale(0.12 -0.12)">
     <defs>
      <path id="DejaVuSans-44" d="M 1259 4147 
L 1259 519 
L 2022 519 
Q 2988 519 3436 956 
Q 3884 1394 3884 2338 
Q 3884 3275 3436 3711 
Q 2988 4147 2022 4147 
L 1259 4147 
z
M 628 4666 
L 1925 4666 
Q 3281 4666 3915 4102 
Q 4550 3538 4550 2338 
Q 4550 1131 3912 565 
Q 3275 0 1925 0 
L 628 0 
L 628 4666 
z
" transform="scale(0.015625)"/>
      <path id="DejaVuSans-63" d="M 3122 3366 
L 3122 2828 
Q 2878 2963 2633 3030 
Q 2388 3097 2138 3097 
Q 1578 3097 1268 2742 
Q 959 2388 959 1747 
Q 959 1106 1268 751 
Q 1578 397 2138 397 
Q 2388 397 2633 464 
Q 2878 531 3122 666 
L 3122 134 
Q 2881 22 2623 -34 
Q 2366 -91 2075 -91 
Q 1284 -91 818 406 
Q 353 903 353 1747 
Q 353 2603 823 3093 
Q 1294 3584 2113 3584 
Q 2378 3584 2631 3529 
Q 2884 3475 3122 3366 
z
" transform="scale(0.015625)"/>
      <path id="DejaVuSans-72" d="M 2631 2963 
Q 2534 3019 2420 3045 
Q 2306 3072 2169 3072 
Q 1681 3072 1420 2755 
Q 1159 2438 1159 1844 
L 1159 0 
L 581 0 
L 581 3500 
L 1159 3500 
L 1159 2956 
Q 1341 3275 1631 3429 
Q 1922 3584 2338 3584 
Q 2397 3584 2469 3576 
Q 2541 3569 2628 3553 
L 2631 2963 
z
" transform="scale(0.015625)"/>
      <path id="DejaVuSans-69" d="M 603 3500 
L 1178 3500 
L 1178 0 
L 603 0 
L 603 3500 
z
M 603 4863 
L 1178 4863 
L 1178 4134 
L 603 4134 
L 603 4863 
z
" transform="scale(0.015625)"/>
      <path id="DejaVuSans-74" d="M 1172 4494 
L 1172 3500 
L 2356 3500 
L 2356 3053 
L 1172 3053 
L 1172 1153 
Q 1172 725 1289 603 
Q 1406 481 1766 481 
L 2356 481 
L 2356 0 
L 1766 0 
Q 1100 0 847 248 
Q 594 497 594 1153 
L 594 3053 
L 172 3053 
L 172 3500 
L 594 3500 
L 594 4494 
L 1172 4494 
z
" transform="scale(0.015625)"/>
      <path id="DejaVuSans-6e" d="M 3513 2113 
L 3513 0 
L 2938 0 
L 2938 2094 
Q 2938 2591 2744 2837 
Q 2550 3084 2163 3084 
Q 1697 3084 1428 2787 
Q 1159 2491 1159 1978 
L 1159 0 
L 581 0 
L 581 3500 
L 1159 3500 
L 1159 2956 
Q 1366 3272 1645 3428 
Q 1925 3584 2291 3584 
Q 2894 3584 3203 3211 
Q 3513 2838 3513 2113 
z
" transform="scale(0.015625)"/>
     </defs>
     <use xlink:href="#DejaVuSans-44"/>
     <use xlink:href="#DejaVuSans-65" transform="translate(77.001953 0)"/>
     <use xlink:href="#DejaVuSans-73" transform="translate(138.525391 0)"/>
     <use xlink:href="#DejaVuSans-63" transform="translate(190.625 0)"/>
     <use xlink:href="#DejaVuSans-72" transform="translate(245.605469 0)"/>
     <use xlink:href="#DejaVuSans-69" transform="translate(286.71875 0)"/>
     <use xlink:href="#DejaVuSans-70" transform="translate(314.501953 0)"/>
     <use xlink:href="#DejaVuSans-74" transform="translate(377.978516 0)"/>
     <use xlink:href="#DejaVuSans-69" transform="translate(417.1875 0)"/>
     <use xlink:href="#DejaVuSans-6f" transform="translate(444.970703 0)"/>
     <use xlink:href="#DejaVuSans-6e" transform="translate(506.152344 0)"/>
    </g>
   </g>
  </g>
  <g id="axes_4">
   <g id="matplotlib.axis_7"/>
   <g id="matplotlib.axis_8"/>
   <g id="patch_8">
    <path d="M 704.575673 62.1729 
C 701.869428 57.485545 698.353029 53.315195 694.190198 49.856019 
C 690.027367 46.396843 685.283729 43.703374 680.180145 41.901017 
C 675.076561 40.09866 669.693486 39.215829 664.281554 39.293628 
C 658.869622 39.371427 653.514149 40.40863 648.464483 42.356944 
C 643.414817 44.305259 638.750563 47.133971 634.688886 50.711378 
C 630.627209 54.288785 627.232139 58.558491 624.66175 63.3217 
C 622.091361 68.084909 620.386173 73.266531 619.625578 78.625314 
C 618.864983 83.984097 619.060972 89.435562 620.204421 94.725892 
C 621.347869 100.016221 623.42075 105.062016 626.326552 109.628347 
C 629.232353 114.194677 632.925268 118.209558 637.233354 121.486058 
C 641.54144 124.762558 646.396784 127.249025 651.573323 128.82969 
C 656.749862 130.410356 662.165991 131.060301 667.569538 130.749266 
C 672.973084 130.43823 678.278865 129.171117 683.239844 127.006922 
C 688.200824 124.842727 692.738796 121.815568 696.642475 118.066388 
C 700.546153 114.317208 703.753999 109.90511 706.116656 105.03552 
C 708.479314 100.165929 709.959537 94.915613 710.488407 89.529023 
L 664.939423 85.0569 
z
" style="fill: #1f77b4; stroke: #ffffff; stroke-linejoin: miter"/>
   </g>
   <g id="patch_9">
    <path d="M 714.961907 88.562131 
C 715.426049 83.834792 715.151431 79.063881 714.147928 74.421021 
C 713.144424 69.778161 711.424217 65.319698 709.049184 61.206016 
L 669.412923 84.09 
z
" style="fill: #ff7f0e; stroke: #ffffff; stroke-linejoin: miter"/>
   </g>
   <g id="text_16">
    <!-- Yes -->
    <g style="fill: #262626" transform="translate(599.585609 98.452171) scale(0.1 -0.1)">
     <use xlink:href="#DejaVuSans-59"/>
     <use xlink:href="#DejaVuSans-65" transform="translate(47.833984 0)"/>
     <use xlink:href="#DejaVuSans-73" transform="translate(109.357422 0)"/>
    </g>
   </g>
   <g id="text_17">
    <!-- 90% -->
    <g style="fill: #262626" transform="translate(626.985141 93.617672) scale(0.1 -0.1)">
     <defs>
      <path id="DejaVuSans-30" d="M 2034 4250 
Q 1547 4250 1301 3770 
Q 1056 3291 1056 2328 
Q 1056 1369 1301 889 
Q 1547 409 2034 409 
Q 2525 409 2770 889 
Q 3016 1369 3016 2328 
Q 3016 3291 2770 3770 
Q 2525 4250 2034 4250 
z
M 2034 4750 
Q 2819 4750 3233 4129 
Q 3647 3509 3647 2328 
Q 3647 1150 3233 529 
Q 2819 -91 2034 -91 
Q 1250 -91 836 529 
Q 422 1150 422 2328 
Q 422 3509 836 4129 
Q 1250 4750 2034 4750 
z
" transform="scale(0.015625)"/>
     </defs>
     <use xlink:href="#DejaVuSans-39"/>
     <use xlink:href="#DejaVuSans-30" transform="translate(63.623047 0)"/>
     <use xlink:href="#DejaVuSans-25" transform="translate(127.246094 0)"/>
    </g>
   </g>
   <g id="text_18">
    <!-- No -->
    <g style="fill: #262626" transform="translate(718.621428 76.213498) scale(0.1 -0.1)">
     <use xlink:href="#DejaVuSans-4e"/>
     <use xlink:href="#DejaVuSans-6f" transform="translate(74.804688 0)"/>
    </g>
   </g>
   <g id="text_19">
    <!-- 10% -->
    <g style="fill: #262626" transform="translate(685.140645 81.047988) scale(0.1 -0.1)">
     <use xlink:href="#DejaVuSans-31"/>
     <use xlink:href="#DejaVuSans-30" transform="translate(63.623047 0)"/>
     <use xlink:href="#DejaVuSans-25" transform="translate(127.246094 0)"/>
    </g>
   </g>
   <g id="text_20">
    <!-- Example -->
    <g style="fill: #262626" transform="translate(643.38136 20.88) scale(0.12 -0.12)">
     <defs>
      <path id="DejaVuSans-45" d="M 628 4666 
L 3578 4666 
L 3578 4134 
L 1259 4134 
L 1259 2753 
L 3481 2753 
L 3481 2222 
L 1259 2222 
L 1259 531 
L 3634 531 
L 3634 0 
L 628 0 
L 628 4666 
z
" transform="scale(0.015625)"/>
      <path id="DejaVuSans-78" d="M 3513 3500 
L 2247 1797 
L 3578 0 
L 2900 0 
L 1881 1375 
L 863 0 
L 184 0 
L 1544 1831 
L 300 3500 
L 978 3500 
L 1906 2253 
L 2834 3500 
L 3513 3500 
z
" transform="scale(0.015625)"/>
      <path id="DejaVuSans-6c" d="M 603 4863 
L 1178 4863 
L 1178 0 
L 603 0 
L 603 4863 
z
" transform="scale(0.015625)"/>
     </defs>
     <use xlink:href="#DejaVuSans-45"/>
     <use xlink:href="#DejaVuSans-78" transform="translate(63.183594 0)"/>
     <use xlink:href="#DejaVuSans-61" transform="translate(122.363281 0)"/>
     <use xlink:href="#DejaVuSans-6d" transform="translate(183.642578 0)"/>
     <use xlink:href="#DejaVuSans-70" transform="translate(281.054688 0)"/>
     <use xlink:href="#DejaVuSans-6c" transform="translate(344.53125 0)"/>
     <use xlink:href="#DejaVuSans-65" transform="translate(372.314453 0)"/>
    </g>
   </g>
  </g>
  <g id="axes_5">
   <g id="matplotlib.axis_9"/>
   <g id="matplotlib.axis_10"/>
   <g id="patch_10">
    <path d="M 136.702796 199.226457 
C 133.21882 193.192034 128.40235 188.032172 122.621766 184.141516 
C 116.841182 180.250859 110.247712 177.731194 103.345648 176.775231 
C 96.443583 175.819269 89.413492 176.452019 82.793059 178.625087 
C 76.172626 180.798155 70.135051 184.45469 65.142109 189.315028 
C 60.149167 194.175365 56.331479 200.112353 53.981037 206.671909 
C 51.630594 213.231465 50.808887 220.241982 51.578762 227.167273 
C 52.348637 234.092563 54.689954 240.751452 58.42364 246.634643 
C 62.157326 252.517835 67.185704 257.471417 73.124185 261.116523 
L 97.066545 222.110457 
z
" style="fill: #1f77b4; stroke: #ffffff; stroke-linejoin: miter"/>
   </g>
   <g id="patch_11">
    <path d="M 76.316634 264.396069 
C 84.991442 269.720761 95.199483 272.002399 105.315801 270.877784 
C 115.432119 269.753167 124.889846 265.285305 132.183429 258.185426 
C 139.477012 251.085546 144.197763 241.751497 145.594213 231.669109 
C 146.990666 221.586721 144.984566 211.320977 139.89525 202.506016 
L 100.258989 225.39 
z
" style="fill: #ff7f0e; stroke: #ffffff; stroke-linejoin: miter"/>
   </g>
   <g id="text_21">
    <!-- Yes -->
    <g style="fill: #262626" transform="translate(45.804352 188.794861) scale(0.1 -0.1)">
     <use xlink:href="#DejaVuSans-59"/>
     <use xlink:href="#DejaVuSans-65" transform="translate(47.833984 0)"/>
     <use xlink:href="#DejaVuSans-73" transform="translate(109.357422 0)"/>
    </g>
   </g>
   <g id="text_22">
    <!-- 58% -->
    <g style="fill: #262626" transform="translate(66.798602 205.192575) scale(0.1 -0.1)">
     <defs>
      <path id="DejaVuSans-35" d="M 691 4666 
L 3169 4666 
L 3169 4134 
L 1269 4134 
L 1269 2991 
Q 1406 3038 1543 3061 
Q 1681 3084 1819 3084 
Q 2600 3084 3056 2656 
Q 3513 2228 3513 1497 
Q 3513 744 3044 326 
Q 2575 -91 1722 -91 
Q 1428 -91 1123 -41 
Q 819 9 494 109 
L 494 744 
Q 775 591 1075 516 
Q 1375 441 1709 441 
Q 2250 441 2565 725 
Q 2881 1009 2881 1497 
Q 2881 1984 2565 2268 
Q 2250 2553 1709 2553 
Q 1456 2553 1204 2497 
Q 953 2441 691 2322 
L 691 4666 
z
" transform="scale(0.015625)"/>
      <path id="DejaVuSans-38" d="M 2034 2216 
Q 1584 2216 1326 1975 
Q 1069 1734 1069 1313 
Q 1069 891 1326 650 
Q 1584 409 2034 409 
Q 2484 409 2743 651 
Q 3003 894 3003 1313 
Q 3003 1734 2745 1975 
Q 2488 2216 2034 2216 
z
M 1403 2484 
Q 997 2584 770 2862 
Q 544 3141 544 3541 
Q 544 4100 942 4425 
Q 1341 4750 2034 4750 
Q 2731 4750 3128 4425 
Q 3525 4100 3525 3541 
Q 3525 3141 3298 2862 
Q 3072 2584 2669 2484 
Q 3125 2378 3379 2068 
Q 3634 1759 3634 1313 
Q 3634 634 3220 271 
Q 2806 -91 2034 -91 
Q 1263 -91 848 271 
Q 434 634 434 1313 
Q 434 1759 690 2068 
Q 947 2378 1403 2484 
z
M 1172 3481 
Q 1172 3119 1398 2916 
Q 1625 2713 2034 2713 
Q 2441 2713 2670 2916 
Q 2900 3119 2900 3481 
Q 2900 3844 2670 4047 
Q 2441 4250 2034 4250 
Q 1625 4250 1398 4047 
Q 1172 3844 1172 3481 
z
" transform="scale(0.015625)"/>
     </defs>
     <use xlink:href="#DejaVuSans-35"/>
     <use xlink:href="#DejaVuSans-38" transform="translate(63.623047 0)"/>
     <use xlink:href="#DejaVuSans-25" transform="translate(127.246094 0)"/>
    </g>
   </g>
   <g id="text_23">
    <!-- No -->
    <g style="fill: #262626" transform="translate(135.375856 264.22436) scale(0.1 -0.1)">
     <use xlink:href="#DejaVuSans-4e"/>
     <use xlink:href="#DejaVuSans-6f" transform="translate(74.804688 0)"/>
    </g>
   </g>
   <g id="text_24">
    <!-- 42% -->
    <g style="fill: #262626" transform="translate(108.300362 247.82664) scale(0.1 -0.1)">
     <defs>
      <path id="DejaVuSans-34" d="M 2419 4116 
L 825 1625 
L 2419 1625 
L 2419 4116 
z
M 2253 4666 
L 3047 4666 
L 3047 1625 
L 3713 1625 
L 3713 1100 
L 3047 1100 
L 3047 0 
L 2419 0 
L 2419 1100 
L 313 1100 
L 313 1709 
L 2253 4666 
z
" transform="scale(0.015625)"/>
      <path id="DejaVuSans-32" d="M 1228 531 
L 3431 531 
L 3431 0 
L 469 0 
L 469 531 
Q 828 903 1448 1529 
Q 2069 2156 2228 2338 
Q 2531 2678 2651 2914 
Q 2772 3150 2772 3378 
Q 2772 3750 2511 3984 
Q 2250 4219 1831 4219 
Q 1534 4219 1204 4116 
Q 875 4013 500 3803 
L 500 4441 
Q 881 4594 1212 4672 
Q 1544 4750 1819 4750 
Q 2544 4750 2975 4387 
Q 3406 4025 3406 3419 
Q 3406 3131 3298 2873 
Q 3191 2616 2906 2266 
Q 2828 2175 2409 1742 
Q 1991 1309 1228 531 
z
" transform="scale(0.015625)"/>
     </defs>
     <use xlink:href="#DejaVuSans-34"/>
     <use xlink:href="#DejaVuSans-32" transform="translate(63.623047 0)"/>
     <use xlink:href="#DejaVuSans-25" transform="translate(127.246094 0)"/>
    </g>
   </g>
   <g id="text_25">
    <!-- Pattern -->
    <g style="fill: #262626" transform="translate(78.673989 162.18) scale(0.12 -0.12)">
     <defs>
      <path id="DejaVuSans-50" d="M 1259 4147 
L 1259 2394 
L 2053 2394 
Q 2494 2394 2734 2622 
Q 2975 2850 2975 3272 
Q 2975 3691 2734 3919 
Q 2494 4147 2053 4147 
L 1259 4147 
z
M 628 4666 
L 2053 4666 
Q 2838 4666 3239 4311 
Q 3641 3956 3641 3272 
Q 3641 2581 3239 2228 
Q 2838 1875 2053 1875 
L 1259 1875 
L 1259 0 
L 628 0 
L 628 4666 
z
" transform="scale(0.015625)"/>
     </defs>
     <use xlink:href="#DejaVuSans-50"/>
     <use xlink:href="#DejaVuSans-61" transform="translate(55.802734 0)"/>
     <use xlink:href="#DejaVuSans-74" transform="translate(117.082031 0)"/>
     <use xlink:href="#DejaVuSans-74" transform="translate(156.291016 0)"/>
     <use xlink:href="#DejaVuSans-65" transform="translate(195.5 0)"/>
     <use xlink:href="#DejaVuSans-72" transform="translate(257.023438 0)"/>
     <use xlink:href="#DejaVuSans-6e" transform="translate(296.386719 0)"/>
    </g>
   </g>
  </g>
  <g id="axes_6">
   <g id="matplotlib.axis_11"/>
   <g id="matplotlib.axis_12"/>
   <g id="patch_12">
    <path d="M 325.059427 202.964355 
C 322.461301 198.464268 319.115673 194.439335 315.16627 191.062464 
C 311.216867 187.685593 306.721064 185.005843 301.871998 183.138332 
C 297.022931 181.270821 291.891047 180.242681 286.696807 180.09808 
C 281.502567 179.953479 276.321431 180.694517 271.375977 182.289361 
C 266.430523 183.884204 261.792597 186.309683 257.66144 189.461602 
C 253.530284 192.61352 249.965913 196.446087 247.121451 200.794659 
C 244.276989 205.143231 242.193759 209.944633 240.961255 214.9926 
C 239.728751 220.040568 239.364879 225.261765 239.885269 230.431895 
C 240.40566 235.602024 241.802753 240.645974 244.016531 245.347062 
C 246.23031 250.04815 249.228612 254.338079 252.882633 258.032558 
C 256.536655 261.727036 260.793311 264.772391 265.469738 267.037797 
C 270.146166 269.303203 275.174428 270.755749 280.338514 271.333034 
C 285.5026 271.910319 290.727488 271.603957 295.78872 270.427109 
C 300.849952 269.250261 305.674 267.220024 310.053628 264.423615 
C 314.433256 261.627206 318.304836 258.10525 321.50205 254.009049 
C 324.699264 249.912848 327.175663 245.301909 328.824862 240.374315 
L 285.423176 225.848355 
z
" style="fill: #1f77b4; stroke: #ffffff; stroke-linejoin: miter"/>
   </g>
   <g id="patch_13">
    <path d="M 333.378655 239.915955 
C 335.435804 233.769454 336.163991 227.255497 335.514875 220.806468 
C 334.865759 214.357438 332.854034 208.119261 329.613228 202.506016 
L 289.976967 225.39 
z
" style="fill: #ff7f0e; stroke: #ffffff; stroke-linejoin: miter"/>
   </g>
   <g id="text_26">
    <!-- Yes -->
    <g style="fill: #262626" transform="translate(219.186167 233.649636) scale(0.1 -0.1)">
     <use xlink:href="#DejaVuSans-59"/>
     <use xlink:href="#DejaVuSans-65" transform="translate(47.833984 0)"/>
     <use xlink:href="#DejaVuSans-73" transform="translate(109.357422 0)"/>
    </g>
   </g>
   <g id="text_27">
    <!-- 87% -->
    <g style="fill: #262626" transform="translate(246.987151 231.35786) scale(0.1 -0.1)">
     <defs>
      <path id="DejaVuSans-37" d="M 525 4666 
L 3525 4666 
L 3525 4397 
L 1831 0 
L 1172 0 
L 2766 4134 
L 525 4134 
L 525 4666 
z
" transform="scale(0.015625)"/>
     </defs>
     <use xlink:href="#DejaVuSans-38"/>
     <use xlink:href="#DejaVuSans-37" transform="translate(63.623047 0)"/>
     <use xlink:href="#DejaVuSans-25" transform="translate(127.246094 0)"/>
    </g>
   </g>
   <g id="text_28">
    <!-- No -->
    <g style="fill: #262626" transform="translate(340.068663 223.107465) scale(0.1 -0.1)">
     <use xlink:href="#DejaVuSans-4e"/>
     <use xlink:href="#DejaVuSans-6f" transform="translate(74.804688 0)"/>
    </g>
   </g>
   <g id="text_29">
    <!-- 13% -->
    <g style="fill: #262626" transform="translate(306.186429 225.399242) scale(0.1 -0.1)">
     <defs>
      <path id="DejaVuSans-33" d="M 2597 2516 
Q 3050 2419 3304 2112 
Q 3559 1806 3559 1356 
Q 3559 666 3084 287 
Q 2609 -91 1734 -91 
Q 1441 -91 1130 -33 
Q 819 25 488 141 
L 488 750 
Q 750 597 1062 519 
Q 1375 441 1716 441 
Q 2309 441 2620 675 
Q 2931 909 2931 1356 
Q 2931 1769 2642 2001 
Q 2353 2234 1838 2234 
L 1294 2234 
L 1294 2753 
L 1863 2753 
Q 2328 2753 2575 2939 
Q 2822 3125 2822 3475 
Q 2822 3834 2567 4026 
Q 2313 4219 1838 4219 
Q 1578 4219 1281 4162 
Q 984 4106 628 3988 
L 628 4550 
Q 988 4650 1302 4700 
Q 1616 4750 1894 4750 
Q 2613 4750 3031 4423 
Q 3450 4097 3450 3541 
Q 3450 3153 3228 2886 
Q 3006 2619 2597 2516 
z
" transform="scale(0.015625)"/>
     </defs>
     <use xlink:href="#DejaVuSans-31"/>
     <use xlink:href="#DejaVuSans-33" transform="translate(63.623047 0)"/>
     <use xlink:href="#DejaVuSans-25" transform="translate(127.246094 0)"/>
    </g>
   </g>
   <g id="text_30">
    <!-- Provider -->
    <g style="fill: #262626" transform="translate(265.275717 162.18) scale(0.12 -0.12)">
     <defs>
      <path id="DejaVuSans-76" d="M 191 3500 
L 800 3500 
L 1894 563 
L 2988 3500 
L 3597 3500 
L 2284 0 
L 1503 0 
L 191 3500 
z
" transform="scale(0.015625)"/>
      <path id="DejaVuSans-64" d="M 2906 2969 
L 2906 4863 
L 3481 4863 
L 3481 0 
L 2906 0 
L 2906 525 
Q 2725 213 2448 61 
Q 2172 -91 1784 -91 
Q 1150 -91 751 415 
Q 353 922 353 1747 
Q 353 2572 751 3078 
Q 1150 3584 1784 3584 
Q 2172 3584 2448 3432 
Q 2725 3281 2906 2969 
z
M 947 1747 
Q 947 1113 1208 752 
Q 1469 391 1925 391 
Q 2381 391 2643 752 
Q 2906 1113 2906 1747 
Q 2906 2381 2643 2742 
Q 2381 3103 1925 3103 
Q 1469 3103 1208 2742 
Q 947 2381 947 1747 
z
" transform="scale(0.015625)"/>
     </defs>
     <use xlink:href="#DejaVuSans-50"/>
     <use xlink:href="#DejaVuSans-72" transform="translate(58.552734 0)"/>
     <use xlink:href="#DejaVuSans-6f" transform="translate(97.416016 0)"/>
     <use xlink:href="#DejaVuSans-76" transform="translate(158.597656 0)"/>
     <use xlink:href="#DejaVuSans-69" transform="translate(217.777344 0)"/>
     <use xlink:href="#DejaVuSans-64" transform="translate(245.560547 0)"/>
     <use xlink:href="#DejaVuSans-65" transform="translate(309.037109 0)"/>
     <use xlink:href="#DejaVuSans-72" transform="translate(370.560547 0)"/>
    </g>
   </g>
  </g>
  <g id="axes_7">
   <g id="matplotlib.axis_13"/>
   <g id="matplotlib.axis_14"/>
   <g id="patch_14">
    <path d="M 519.906375 197.965486 
C 516.377497 191.853289 511.482163 186.639393 505.604276 182.732684 
C 499.726389 178.825974 493.023726 176.331317 486.021924 175.444347 
C 479.020123 174.557378 471.907129 175.301906 465.240759 177.619543 
C 458.574388 179.93718 452.533584 183.765715 447.592077 188.804907 
L 480.270125 220.849486 
z
" style="fill: #1f77b4; stroke: #ffffff; stroke-linejoin: miter"/>
   </g>
   <g id="patch_15">
    <path d="M 447.016899 193.34542 
C 441.049783 199.430494 436.899303 207.063034 435.035175 215.379261 
C 433.171047 223.695488 433.66634 232.369392 436.465002 240.419366 
C 439.263665 248.46934 444.255979 255.579804 450.876982 260.946081 
C 457.497985 266.312359 465.488121 269.724081 473.943146 270.79514 
C 482.39817 271.866201 490.986641 270.554611 498.736602 267.008808 
C 506.486563 263.463005 513.09421 257.821982 517.811753 250.72414 
C 522.529297 243.626297 525.171806 235.349892 525.440237 226.831526 
C 525.708665 218.313161 523.592491 209.88678 519.331195 202.505997 
L 479.694945 225.39 
z
" style="fill: #ff7f0e; stroke: #ffffff; stroke-linejoin: miter"/>
   </g>
   <g id="text_31">
    <!-- Yes -->
    <g style="fill: #262626" transform="translate(486.597102 173.663208) scale(0.1 -0.1)">
     <use xlink:href="#DejaVuSans-59"/>
     <use xlink:href="#DejaVuSans-65" transform="translate(47.833984 0)"/>
     <use xlink:href="#DejaVuSans-73" transform="translate(109.357422 0)"/>
    </g>
   </g>
   <g id="text_32">
    <!-- 29% -->
    <g style="fill: #262626" transform="translate(472.607922 196.365778) scale(0.1 -0.1)">
     <use xlink:href="#DejaVuSans-32"/>
     <use xlink:href="#DejaVuSans-39" transform="translate(63.623047 0)"/>
     <use xlink:href="#DejaVuSans-25" transform="translate(127.246094 0)"/>
    </g>
   </g>
   <g id="text_33">
    <!-- No -->
    <g style="fill: #262626" transform="translate(459.76799 278.095031) scale(0.1 -0.1)">
     <use xlink:href="#DejaVuSans-4e"/>
     <use xlink:href="#DejaVuSans-6f" transform="translate(74.804688 0)"/>
    </g>
   </g>
   <g id="text_34">
    <!-- 71% -->
    <g style="fill: #262626" transform="translate(465.130597 255.39246) scale(0.1 -0.1)">
     <use xlink:href="#DejaVuSans-37"/>
     <use xlink:href="#DejaVuSans-31" transform="translate(63.623047 0)"/>
     <use xlink:href="#DejaVuSans-25" transform="translate(127.246094 0)"/>
    </g>
   </g>
   <g id="text_35">
    <!-- License -->
    <g style="fill: #262626" transform="translate(457.074007 162.18) scale(0.12 -0.12)">
     <defs>
      <path id="DejaVuSans-4c" d="M 628 4666 
L 1259 4666 
L 1259 531 
L 3531 531 
L 3531 0 
L 628 0 
L 628 4666 
z
" transform="scale(0.015625)"/>
     </defs>
     <use xlink:href="#DejaVuSans-4c"/>
     <use xlink:href="#DejaVuSans-69" transform="translate(55.712891 0)"/>
     <use xlink:href="#DejaVuSans-63" transform="translate(83.496094 0)"/>
     <use xlink:href="#DejaVuSans-65" transform="translate(138.476562 0)"/>
     <use xlink:href="#DejaVuSans-6e" transform="translate(200 0)"/>
     <use xlink:href="#DejaVuSans-73" transform="translate(263.378906 0)"/>
     <use xlink:href="#DejaVuSans-65" transform="translate(315.478516 0)"/>
    </g>
   </g>
  </g>
  <g id="axes_8">
   <g id="matplotlib.axis_15"/>
   <g id="matplotlib.axis_16"/>
   <g id="patch_16">
    <path d="M 709.049174 202.506 
C 704.05059 193.848199 696.350368 187.062109 687.132894 183.191511 
C 677.91542 179.320914 667.678818 178.57498 657.9976 181.068445 
C 648.316381 183.56191 639.713732 189.160023 633.512843 197.001727 
C 627.311953 204.843431 623.847927 214.50495 623.653573 224.500228 
L 669.412923 225.39 
z
" style="fill: #1f77b4; stroke: #ffffff; stroke-linejoin: miter"/>
   </g>
   <g id="patch_17">
    <path d="M 623.653573 224.500224 
C 623.507296 232.023016 625.218359 239.467077 628.63473 246.170972 
C 632.051101 252.874867 637.068504 258.63398 643.241128 262.936597 
C 649.413751 267.239214 656.553186 269.954009 664.025083 270.839764 
C 671.496979 271.725519 679.073284 270.755197 686.080795 268.015014 
L 669.412923 225.39 
z
" style="fill: #ff7f0e; stroke: #ffffff; stroke-linejoin: miter"/>
   </g>
   <g id="patch_18">
    <path d="M 686.080795 268.015014 
C 694.134761 264.865632 701.133563 259.49712 706.262484 252.53442 
C 711.391405 245.57172 714.443401 237.29591 715.063216 228.670319 
L 669.412923 225.39 
z
" style="fill: #2ca02c; stroke: #ffffff; stroke-linejoin: miter"/>
   </g>
   <g id="patch_19">
    <path d="M 715.063216 228.670319 
C 715.389297 224.132453 715.036932 219.571221 714.017759 215.137278 
C 712.998586 210.703336 711.323955 206.446037 709.049173 202.505997 
L 669.412923 225.39 
z
" style="fill: #d62728; stroke: #ffffff; stroke-linejoin: miter"/>
   </g>
   <g id="text_36">
    <!-- CC0-1.0 -->
    <g style="fill: #262626" transform="translate(617.017004 179.395665) scale(0.1 -0.1)">
     <defs>
      <path id="DejaVuSans-43" d="M 4122 4306 
L 4122 3641 
Q 3803 3938 3442 4084 
Q 3081 4231 2675 4231 
Q 1875 4231 1450 3742 
Q 1025 3253 1025 2328 
Q 1025 1406 1450 917 
Q 1875 428 2675 428 
Q 3081 428 3442 575 
Q 3803 722 4122 1019 
L 4122 359 
Q 3791 134 3420 21 
Q 3050 -91 2638 -91 
Q 1578 -91 968 557 
Q 359 1206 359 2328 
Q 359 3453 968 4101 
Q 1578 4750 2638 4750 
Q 3056 4750 3426 4639 
Q 3797 4528 4122 4306 
z
" transform="scale(0.015625)"/>
      <path id="DejaVuSans-2d" d="M 313 2009 
L 1997 2009 
L 1997 1497 
L 313 1497 
L 313 2009 
z
" transform="scale(0.015625)"/>
      <path id="DejaVuSans-2e" d="M 684 794 
L 1344 794 
L 1344 0 
L 684 0 
L 684 794 
z
" transform="scale(0.015625)"/>
     </defs>
     <use xlink:href="#DejaVuSans-43"/>
     <use xlink:href="#DejaVuSans-43" transform="translate(69.824219 0)"/>
     <use xlink:href="#DejaVuSans-30" transform="translate(139.648438 0)"/>
     <use xlink:href="#DejaVuSans-2d" transform="translate(203.271484 0)"/>
     <use xlink:href="#DejaVuSans-31" transform="translate(239.355469 0)"/>
     <use xlink:href="#DejaVuSans-2e" transform="translate(302.978516 0)"/>
     <use xlink:href="#DejaVuSans-30" transform="translate(334.765625 0)"/>
    </g>
   </g>
   <g id="text_37">
    <!-- 41% -->
    <g style="fill: #262626" transform="translate(651.450447 201.556442) scale(0.1 -0.1)">
     <use xlink:href="#DejaVuSans-34"/>
     <use xlink:href="#DejaVuSans-31" transform="translate(63.623047 0)"/>
     <use xlink:href="#DejaVuSans-25" transform="translate(127.246094 0)"/>
    </g>
   </g>
   <g id="text_38">
    <!-- CC-BY-4.0 -->
    <g style="fill: #262626" transform="translate(592.670845 269.450647) scale(0.1 -0.1)">
     <defs>
      <path id="DejaVuSans-42" d="M 1259 2228 
L 1259 519 
L 2272 519 
Q 2781 519 3026 730 
Q 3272 941 3272 1375 
Q 3272 1813 3026 2020 
Q 2781 2228 2272 2228 
L 1259 2228 
z
M 1259 4147 
L 1259 2741 
L 2194 2741 
Q 2656 2741 2882 2914 
Q 3109 3088 3109 3444 
Q 3109 3797 2882 3972 
Q 2656 4147 2194 4147 
L 1259 4147 
z
M 628 4666 
L 2241 4666 
Q 2963 4666 3353 4366 
Q 3744 4066 3744 3513 
Q 3744 3084 3544 2831 
Q 3344 2578 2956 2516 
Q 3422 2416 3680 2098 
Q 3938 1781 3938 1306 
Q 3938 681 3513 340 
Q 3088 0 2303 0 
L 628 0 
L 628 4666 
z
" transform="scale(0.015625)"/>
     </defs>
     <use xlink:href="#DejaVuSans-43"/>
     <use xlink:href="#DejaVuSans-43" transform="translate(69.824219 0)"/>
     <use xlink:href="#DejaVuSans-2d" transform="translate(139.648438 0)"/>
     <use xlink:href="#DejaVuSans-42" transform="translate(172.107422 0)"/>
     <use xlink:href="#DejaVuSans-59" transform="translate(235.210938 0)"/>
     <use xlink:href="#DejaVuSans-2d" transform="translate(284.419922 0)"/>
     <use xlink:href="#DejaVuSans-34" transform="translate(320.503906 0)"/>
     <use xlink:href="#DejaVuSans-2e" transform="translate(384.126953 0)"/>
     <use xlink:href="#DejaVuSans-30" transform="translate(415.914062 0)"/>
    </g>
   </g>
   <g id="text_39">
    <!-- 31% -->
    <g style="fill: #262626" transform="translate(642.596576 250.677342) scale(0.1 -0.1)">
     <use xlink:href="#DejaVuSans-33"/>
     <use xlink:href="#DejaVuSans-31" transform="translate(63.623047 0)"/>
     <use xlink:href="#DejaVuSans-25" transform="translate(127.246094 0)"/>
    </g>
   </g>
   <g id="text_40">
    <!-- Other -->
    <g style="fill: #262626" transform="translate(709.947441 258.008239) scale(0.1 -0.1)">
     <defs>
      <path id="DejaVuSans-4f" d="M 2522 4238 
Q 1834 4238 1429 3725 
Q 1025 3213 1025 2328 
Q 1025 1447 1429 934 
Q 1834 422 2522 422 
Q 3209 422 3611 934 
Q 4013 1447 4013 2328 
Q 4013 3213 3611 3725 
Q 3209 4238 2522 4238 
z
M 2522 4750 
Q 3503 4750 4090 4092 
Q 4678 3434 4678 2328 
Q 4678 1225 4090 567 
Q 3503 -91 2522 -91 
Q 1538 -91 948 565 
Q 359 1222 359 2328 
Q 359 3434 948 4092 
Q 1538 4750 2522 4750 
z
" transform="scale(0.015625)"/>
      <path id="DejaVuSans-68" d="M 3513 2113 
L 3513 0 
L 2938 0 
L 2938 2094 
Q 2938 2591 2744 2837 
Q 2550 3084 2163 3084 
Q 1697 3084 1428 2787 
Q 1159 2491 1159 1978 
L 1159 0 
L 581 0 
L 581 4863 
L 1159 4863 
L 1159 2956 
Q 1366 3272 1645 3428 
Q 1925 3584 2291 3584 
Q 2894 3584 3203 3211 
Q 3513 2838 3513 2113 
z
" transform="scale(0.015625)"/>
     </defs>
     <use xlink:href="#DejaVuSans-4f"/>
     <use xlink:href="#DejaVuSans-74" transform="translate(78.710938 0)"/>
     <use xlink:href="#DejaVuSans-68" transform="translate(117.919922 0)"/>
     <use xlink:href="#DejaVuSans-65" transform="translate(181.298828 0)"/>
     <use xlink:href="#DejaVuSans-72" transform="translate(242.822266 0)"/>
    </g>
   </g>
   <g id="text_41">
    <!-- 18% -->
    <g style="fill: #262626" transform="translate(680.409379 244.436028) scale(0.1 -0.1)">
     <use xlink:href="#DejaVuSans-31"/>
     <use xlink:href="#DejaVuSans-38" transform="translate(63.623047 0)"/>
     <use xlink:href="#DejaVuSans-25" transform="translate(127.246094 0)"/>
    </g>
   </g>
   <g id="text_42">
    <!-- CC-BY-3.0 -->
    <g style="fill: #262626" transform="translate(718.478239 216.871358) scale(0.1 -0.1)">
     <use xlink:href="#DejaVuSans-43"/>
     <use xlink:href="#DejaVuSans-43" transform="translate(69.824219 0)"/>
     <use xlink:href="#DejaVuSans-2d" transform="translate(139.648438 0)"/>
     <use xlink:href="#DejaVuSans-42" transform="translate(172.107422 0)"/>
     <use xlink:href="#DejaVuSans-59" transform="translate(235.210938 0)"/>
     <use xlink:href="#DejaVuSans-2d" transform="translate(284.419922 0)"/>
     <use xlink:href="#DejaVuSans-33" transform="translate(320.503906 0)"/>
     <use xlink:href="#DejaVuSans-2e" transform="translate(384.126953 0)"/>
     <use xlink:href="#DejaVuSans-30" transform="translate(415.914062 0)"/>
    </g>
   </g>
   <g id="text_43">
    <!-- 9% -->
    <g style="fill: #262626" transform="translate(688.243791 221.997729) scale(0.1 -0.1)">
     <use xlink:href="#DejaVuSans-39"/>
     <use xlink:href="#DejaVuSans-25" transform="translate(63.623047 0)"/>
    </g>
   </g>
   <g id="text_44">
    <!-- License Type -->
    <g style="fill: #262626" transform="translate(631.105735 162.18) scale(0.12 -0.12)">
     <defs>
      <path id="DejaVuSans-20" transform="scale(0.015625)"/>
      <path id="DejaVuSans-54" d="M -19 4666 
L 3928 4666 
L 3928 4134 
L 2272 4134 
L 2272 0 
L 1638 0 
L 1638 4134 
L -19 4134 
L -19 4666 
z
" transform="scale(0.015625)"/>
      <path id="DejaVuSans-79" d="M 2059 -325 
Q 1816 -950 1584 -1140 
Q 1353 -1331 966 -1331 
L 506 -1331 
L 506 -850 
L 844 -850 
Q 1081 -850 1212 -737 
Q 1344 -625 1503 -206 
L 1606 56 
L 191 3500 
L 800 3500 
L 1894 763 
L 2988 3500 
L 3597 3500 
L 2059 -325 
z
" transform="scale(0.015625)"/>
     </defs>
     <use xlink:href="#DejaVuSans-4c"/>
     <use xlink:href="#DejaVuSans-69" transform="translate(55.712891 0)"/>
     <use xlink:href="#DejaVuSans-63" transform="translate(83.496094 0)"/>
     <use xlink:href="#DejaVuSans-65" transform="translate(138.476562 0)"/>
     <use xlink:href="#DejaVuSans-6e" transform="translate(200 0)"/>
     <use xlink:href="#DejaVuSans-73" transform="translate(263.378906 0)"/>
     <use xlink:href="#DejaVuSans-65" transform="translate(315.478516 0)"/>
     <use xlink:href="#DejaVuSans-20" transform="translate(377.001953 0)"/>
     <use xlink:href="#DejaVuSans-54" transform="translate(408.789062 0)"/>
     <use xlink:href="#DejaVuSans-79" transform="translate(454.248047 0)"/>
     <use xlink:href="#DejaVuSans-70" transform="translate(513.427734 0)"/>
     <use xlink:href="#DejaVuSans-65" transform="translate(576.904297 0)"/>
    </g>
   </g>
  </g>
  <g id="axes_9">
   <g id="matplotlib.axis_17"/>
   <g id="matplotlib.axis_18"/>
   <g id="patch_20">
    <path d="M 143.035125 340.476102 
C 140.810241 336.62249 138.035205 333.113865 134.797731 330.061129 
C 131.560257 327.008393 127.89482 324.444053 123.917277 322.449163 
L 103.398874 363.360102 
z
" style="fill: #1f77b4; stroke: #ffffff; stroke-linejoin: miter"/>
   </g>
   <g id="patch_21">
    <path d="M 120.777391 325.779061 
C 115.905664 323.335702 110.636438 321.782071 105.218419 321.191495 
C 99.800399 320.600922 94.320195 320.982842 89.036468 322.319233 
C 83.752742 323.655624 78.749958 325.925125 74.26424 329.020611 
C 69.778521 332.116097 65.881577 335.988096 62.757341 340.453838 
C 59.633105 344.919581 57.331517 349.907696 55.961218 355.18273 
C 54.590918 360.457765 54.173806 365.935398 54.72957 371.357099 
C 55.285335 376.778799 56.805087 382.05789 59.217104 386.94521 
C 61.62912 391.832529 64.894843 396.249948 68.860125 399.988965 
C 72.825408 403.727983 77.426873 406.728832 82.447323 408.849868 
C 87.467774 410.970904 92.826967 412.178226 98.271939 412.414846 
C 103.716911 412.651469 109.160613 411.913606 114.346136 410.236091 
C 119.53166 408.558577 124.376101 405.968218 128.650794 402.587287 
C 132.925487 399.206355 136.562115 395.088887 139.389012 390.429234 
C 142.215909 385.769582 144.18789 380.642242 145.211894 375.289193 
C 146.235898 369.936144 146.295543 364.442966 145.388018 359.068944 
C 144.480494 353.694922 142.620303 348.525952 139.89525 343.806016 
L 100.258989 366.69 
z
" style="fill: #ff7f0e; stroke: #ffffff; stroke-linejoin: miter"/>
   </g>
   <g id="text_45">
    <!-- Yes -->
    <g style="fill: #262626" transform="translate(137.937614 329.490604) scale(0.1 -0.1)">
     <use xlink:href="#DejaVuSans-59"/>
     <use xlink:href="#DejaVuSans-65" transform="translate(47.833984 0)"/>
     <use xlink:href="#DejaVuSans-73" transform="translate(109.357422 0)"/>
    </g>
   </g>
   <g id="text_46">
    <!-- 9% -->
    <g style="fill: #262626" transform="translate(114.306156 346.140092) scale(0.1 -0.1)">
     <use xlink:href="#DejaVuSans-39"/>
     <use xlink:href="#DejaVuSans-25" transform="translate(63.623047 0)"/>
    </g>
   </g>
   <g id="text_47">
    <!-- No -->
    <g style="fill: #262626" transform="translate(52.120248 406.078247) scale(0.1 -0.1)">
     <use xlink:href="#DejaVuSans-4e"/>
     <use xlink:href="#DejaVuSans-6f" transform="translate(74.804688 0)"/>
    </g>
   </g>
   <g id="text_48">
    <!-- 91% -->
    <g style="fill: #262626" transform="translate(70.306395 389.42876) scale(0.1 -0.1)">
     <use xlink:href="#DejaVuSans-39"/>
     <use xlink:href="#DejaVuSans-31" transform="translate(63.623047 0)"/>
     <use xlink:href="#DejaVuSans-25" transform="translate(127.246094 0)"/>
    </g>
   </g>
   <g id="text_49">
    <!-- Version -->
    <g style="fill: #262626" transform="translate(78.194926 303.48) scale(0.12 -0.12)">
     <defs>
      <path id="DejaVuSans-56" d="M 1831 0 
L 50 4666 
L 709 4666 
L 2188 738 
L 3669 4666 
L 4325 4666 
L 2547 0 
L 1831 0 
z
" transform="scale(0.015625)"/>
     </defs>
     <use xlink:href="#DejaVuSans-56"/>
     <use xlink:href="#DejaVuSans-65" transform="translate(60.658203 0)"/>
     <use xlink:href="#DejaVuSans-72" transform="translate(122.181641 0)"/>
     <use xlink:href="#DejaVuSans-73" transform="translate(163.294922 0)"/>
     <use xlink:href="#DejaVuSans-69" transform="translate(215.394531 0)"/>
     <use xlink:href="#DejaVuSans-6f" transform="translate(243.177734 0)"/>
     <use xlink:href="#DejaVuSans-6e" transform="translate(304.359375 0)"/>
    </g>
   </g>
  </g>
  <g id="axes_10">
   <g id="matplotlib.axis_19"/>
   <g id="matplotlib.axis_20"/>
   <g id="patch_22">
    <path d="M 328.971445 339.274419 
C 324.407827 331.37 317.58238 325.00855 309.376753 321.011782 
C 301.171127 317.015014 291.954526 315.562761 282.917467 316.842609 
C 273.880407 318.122458 265.429504 322.076824 258.656367 328.194918 
C 251.88323 334.313013 247.092612 342.319556 244.903319 351.180338 
L 289.335195 362.158419 
z
" style="fill: #1f77b4; stroke: #ffffff; stroke-linejoin: miter"/>
   </g>
   <g id="patch_23">
    <path d="M 245.545093 355.711914 
C 243.748925 362.981584 243.764038 370.582191 245.589093 377.844663 
C 247.414151 385.107134 250.993985 391.811925 256.013464 397.368825 
C 261.032944 402.925726 267.340328 407.166742 274.380397 409.718557 
C 281.420465 412.270372 288.980394 413.055838 296.394688 412.005809 
C 303.808982 410.95578 310.853513 408.102002 316.908157 403.695686 
C 322.9628 399.289371 327.844528 393.46372 331.123604 386.731561 
C 334.402681 379.999401 335.979983 372.564242 335.716661 365.080594 
C 335.45334 357.596947 333.357358 350.291038 329.613217 343.805997 
L 289.976967 366.69 
z
" style="fill: #ff7f0e; stroke: #ffffff; stroke-linejoin: miter"/>
   </g>
   <g id="text_50">
    <!-- Yes -->
    <g style="fill: #262626" transform="translate(266.130387 315.070403) scale(0.1 -0.1)">
     <use xlink:href="#DejaVuSans-59"/>
     <use xlink:href="#DejaVuSans-65" transform="translate(47.833984 0)"/>
     <use xlink:href="#DejaVuSans-73" transform="translate(109.357422 0)"/>
    </g>
   </g>
   <g id="text_51">
    <!-- 38% -->
    <g style="fill: #262626" transform="translate(274.37128 337.728308) scale(0.1 -0.1)">
     <use xlink:href="#DejaVuSans-33"/>
     <use xlink:href="#DejaVuSans-38" transform="translate(63.623047 0)"/>
     <use xlink:href="#DejaVuSans-25" transform="translate(127.246094 0)"/>
    </g>
   </g>
   <g id="text_52">
    <!-- No -->
    <g style="fill: #262626" transform="translate(297.03646 419.296767) scale(0.1 -0.1)">
     <use xlink:href="#DejaVuSans-4e"/>
     <use xlink:href="#DejaVuSans-6f" transform="translate(74.804688 0)"/>
    </g>
   </g>
   <g id="text_53">
    <!-- 62% -->
    <g style="fill: #262626" transform="translate(282.714318 396.638861) scale(0.1 -0.1)">
     <defs>
      <path id="DejaVuSans-36" d="M 2113 2584 
Q 1688 2584 1439 2293 
Q 1191 2003 1191 1497 
Q 1191 994 1439 701 
Q 1688 409 2113 409 
Q 2538 409 2786 701 
Q 3034 994 3034 1497 
Q 3034 2003 2786 2293 
Q 2538 2584 2113 2584 
z
M 3366 4563 
L 3366 3988 
Q 3128 4100 2886 4159 
Q 2644 4219 2406 4219 
Q 1781 4219 1451 3797 
Q 1122 3375 1075 2522 
Q 1259 2794 1537 2939 
Q 1816 3084 2150 3084 
Q 2853 3084 3261 2657 
Q 3669 2231 3669 1497 
Q 3669 778 3244 343 
Q 2819 -91 2113 -91 
Q 1303 -91 875 529 
Q 447 1150 447 2328 
Q 447 3434 972 4092 
Q 1497 4750 2381 4750 
Q 2619 4750 2861 4703 
Q 3103 4656 3366 4563 
z
" transform="scale(0.015625)"/>
     </defs>
     <use xlink:href="#DejaVuSans-36"/>
     <use xlink:href="#DejaVuSans-32" transform="translate(63.623047 0)"/>
     <use xlink:href="#DejaVuSans-25" transform="translate(127.246094 0)"/>
    </g>
   </g>
   <g id="text_54">
    <!-- Contact Email -->
    <g style="fill: #262626" transform="translate(248.080092 303.48) scale(0.12 -0.12)">
     <use xlink:href="#DejaVuSans-43"/>
     <use xlink:href="#DejaVuSans-6f" transform="translate(69.824219 0)"/>
     <use xlink:href="#DejaVuSans-6e" transform="translate(131.005859 0)"/>
     <use xlink:href="#DejaVuSans-74" transform="translate(194.384766 0)"/>
     <use xlink:href="#DejaVuSans-61" transform="translate(233.59375 0)"/>
     <use xlink:href="#DejaVuSans-63" transform="translate(294.873047 0)"/>
     <use xlink:href="#DejaVuSans-74" transform="translate(349.853516 0)"/>
     <use xlink:href="#DejaVuSans-20" transform="translate(389.0625 0)"/>
     <use xlink:href="#DejaVuSans-45" transform="translate(420.849609 0)"/>
     <use xlink:href="#DejaVuSans-6d" transform="translate(484.033203 0)"/>
     <use xlink:href="#DejaVuSans-61" transform="translate(581.445312 0)"/>
     <use xlink:href="#DejaVuSans-69" transform="translate(642.724609 0)"/>
     <use xlink:href="#DejaVuSans-6c" transform="translate(670.507812 0)"/>
    </g>
   </g>
  </g>
  <g id="axes_11">
   <g id="matplotlib.axis_21"/>
   <g id="matplotlib.axis_22"/>
   <g id="patch_24">
    <path d="M 522.479219 340.483795 
C 520.273096 336.662678 517.525962 333.180584 514.323203 330.145744 
C 511.120444 327.110905 507.495592 324.555093 503.561316 322.557748 
L 482.842968 363.367795 
z
" style="fill: #1f77b4; stroke: #ffffff; stroke-linejoin: miter"/>
   </g>
   <g id="patch_25">
    <path d="M 500.413294 325.879955 
C 495.549389 323.410659 490.282974 321.830681 484.863048 321.214726 
C 479.443122 320.598772 473.956475 320.9567 468.662511 322.271589 
C 463.368547 323.586478 458.352041 325.837276 453.85017 328.917559 
C 449.348298 331.997842 445.433148 335.858296 442.289835 340.316386 
C 439.146522 344.774477 436.825369 349.758832 435.436135 355.033774 
C 434.0469 360.308716 433.611819 365.789785 434.151466 371.21784 
C 434.691114 376.645894 436.196842 381.934011 438.597466 386.832173 
C 440.99809 391.730336 444.255168 396.160104 448.214706 399.912044 
C 452.174243 403.663984 456.772829 406.678016 461.793056 408.811636 
C 466.813282 410.945256 472.174772 412.1643 477.623999 412.411122 
C 483.073226 412.657945 488.522946 411.928604 493.715505 410.257577 
C 498.908064 408.58655 503.760307 406.000597 508.042824 402.621984 
C 512.325341 399.243371 515.969556 395.126198 518.803171 390.465124 
C 521.636787 385.804048 523.614432 380.673691 524.642591 375.31665 
C 525.670752 369.959609 525.732966 364.461653 524.826299 359.082717 
C 523.919631 353.70378 522.058602 348.530005 519.331195 343.805997 
L 479.694945 366.69 
z
" style="fill: #ff7f0e; stroke: #ffffff; stroke-linejoin: miter"/>
   </g>
   <g id="text_55">
    <!-- Yes -->
    <g style="fill: #262626" transform="translate(517.471227 329.582915) scale(0.1 -0.1)">
     <use xlink:href="#DejaVuSans-59"/>
     <use xlink:href="#DejaVuSans-65" transform="translate(47.833984 0)"/>
     <use xlink:href="#DejaVuSans-73" transform="translate(109.357422 0)"/>
    </g>
   </g>
   <g id="text_56">
    <!-- 9% -->
    <g style="fill: #262626" transform="translate(493.799078 346.19394) scale(0.1 -0.1)">
     <use xlink:href="#DejaVuSans-39"/>
     <use xlink:href="#DejaVuSans-25" transform="translate(63.623047 0)"/>
    </g>
   </g>
   <g id="text_57">
    <!-- No -->
    <g style="fill: #262626" transform="translate(431.46669 405.993633) scale(0.1 -0.1)">
     <use xlink:href="#DejaVuSans-4e"/>
     <use xlink:href="#DejaVuSans-6f" transform="translate(74.804688 0)"/>
    </g>
   </g>
   <g id="text_58">
    <!-- 91% -->
    <g style="fill: #262626" transform="translate(449.693524 389.382607) scale(0.1 -0.1)">
     <use xlink:href="#DejaVuSans-39"/>
     <use xlink:href="#DejaVuSans-31" transform="translate(63.623047 0)"/>
     <use xlink:href="#DejaVuSans-25" transform="translate(127.246094 0)"/>
    </g>
   </g>
   <g id="text_59">
    <!-- OBO -->
    <g style="fill: #262626" transform="translate(466.237132 303.48) scale(0.12 -0.12)">
     <use xlink:href="#DejaVuSans-4f"/>
     <use xlink:href="#DejaVuSans-42" transform="translate(78.710938 0)"/>
     <use xlink:href="#DejaVuSans-4f" transform="translate(145.564453 0)"/>
    </g>
   </g>
  </g>
  <g id="axes_12">
   <g id="matplotlib.axis_23"/>
   <g id="matplotlib.axis_24"/>
   <g id="patch_26">
    <path d="M 711.150907 339.740313 
C 706.773062 332.157662 700.309899 325.988184 692.531997 321.967441 
C 684.754096 317.946699 675.983357 316.241097 667.265483 317.05399 
L 671.514657 362.624313 
z
" style="fill: #1f77b4; stroke: #ffffff; stroke-linejoin: miter"/>
   </g>
   <g id="patch_27">
    <path d="M 665.163752 321.119678 
C 660.270584 321.575939 655.482692 322.817347 650.984289 324.796143 
C 646.485886 326.774939 642.335415 329.465417 638.692575 332.764051 
C 635.049735 336.062684 631.961852 339.926622 629.547735 344.207194 
C 627.133618 348.487766 625.424628 353.129365 624.486523 357.95339 
C 623.548418 362.777416 623.393386 367.721202 624.027392 372.594528 
C 624.661397 377.467854 626.076202 382.207399 628.21737 386.63082 
C 630.358539 391.054243 633.198249 395.104057 636.62725 398.624457 
C 640.056251 402.144857 644.02999 405.090102 648.39557 407.346866 
C 652.76115 409.60363 657.461858 411.142595 662.316823 411.904546 
C 667.171789 412.6665 672.117943 412.641539 676.964972 411.830629 
C 681.812001 411.019719 686.496937 409.433393 690.839518 407.132686 
C 695.1821 404.83198 699.125913 401.846781 702.519211 398.291954 
C 705.912508 394.737127 708.7112 390.658871 710.807619 386.214065 
C 712.904037 381.76926 714.270941 377.015667 714.855731 372.136192 
C 715.440523 367.256716 715.235608 362.314745 714.248866 357.500432 
C 713.262126 352.686119 711.506378 348.062008 709.049184 343.806016 
L 669.412923 366.69 
z
" style="fill: #ff7f0e; stroke: #ffffff; stroke-linejoin: miter"/>
   </g>
   <g id="text_60">
    <!-- Yes -->
    <g style="fill: #262626" transform="translate(694.633727 320.661127) scale(0.1 -0.1)">
     <use xlink:href="#DejaVuSans-59"/>
     <use xlink:href="#DejaVuSans-65" transform="translate(47.833984 0)"/>
     <use xlink:href="#DejaVuSans-73" transform="translate(109.357422 0)"/>
    </g>
   </g>
   <g id="text_61">
    <!-- 18% -->
    <g style="fill: #262626" transform="translate(673.011777 340.989563) scale(0.1 -0.1)">
     <use xlink:href="#DejaVuSans-31"/>
     <use xlink:href="#DejaVuSans-38" transform="translate(63.623047 0)"/>
     <use xlink:href="#DejaVuSans-25" transform="translate(127.246094 0)"/>
    </g>
   </g>
   <g id="text_62">
    <!-- No -->
    <g style="fill: #262626" transform="translate(632.693835 414.171927) scale(0.1 -0.1)">
     <use xlink:href="#DejaVuSans-4e"/>
     <use xlink:href="#DejaVuSans-6f" transform="translate(74.804688 0)"/>
    </g>
   </g>
   <g id="text_63">
    <!-- 82% -->
    <g style="fill: #262626" transform="translate(645.68923 393.843494) scale(0.1 -0.1)">
     <use xlink:href="#DejaVuSans-38"/>
     <use xlink:href="#DejaVuSans-32" transform="translate(63.623047 0)"/>
     <use xlink:href="#DejaVuSans-25" transform="translate(127.246094 0)"/>
    </g>
   </g>
   <g id="text_64">
    <!-- OWL -->
    <g style="fill: #262626" transform="translate(655.414173 303.48) scale(0.12 -0.12)">
     <defs>
      <path id="DejaVuSans-57" d="M 213 4666 
L 850 4666 
L 1831 722 
L 2809 4666 
L 3519 4666 
L 4500 722 
L 5478 4666 
L 6119 4666 
L 4947 0 
L 4153 0 
L 3169 4050 
L 2175 0 
L 1381 0 
L 213 4666 
z
" transform="scale(0.015625)"/>
     </defs>
     <use xlink:href="#DejaVuSans-4f"/>
     <use xlink:href="#DejaVuSans-57" transform="translate(78.710938 0)"/>
     <use xlink:href="#DejaVuSans-4c" transform="translate(177.587891 0)"/>
    </g>
   </g>
  </g>
  <g id="axes_13">
   <g id="matplotlib.axis_25"/>
   <g id="matplotlib.axis_26"/>
   <g id="patch_28">
    <path d="M 143.484967 482.266818 
C 142.373993 480.342554 141.124362 478.501745 139.745994 476.759 
C 138.367625 475.016256 136.864174 473.376198 135.247572 471.851844 
L 103.848717 505.150818 
z
" style="fill: #1f77b4; stroke: #ffffff; stroke-linejoin: miter"/>
   </g>
   <g id="patch_29">
    <path d="M 131.657844 474.691026 
C 127.488899 470.75997 122.618549 467.646558 117.300536 465.513001 
C 111.982524 463.379443 106.310831 462.263438 100.580936 462.223132 
C 94.85104 462.182826 89.164199 463.218929 83.816698 465.277461 
C 78.469198 467.335993 73.555537 470.380578 69.331699 474.252596 
C 65.107861 478.124613 61.648494 482.755644 59.133829 487.90441 
C 56.619164 493.053175 55.093636 498.628686 54.636726 504.340477 
C 54.179813 510.052269 54.799595 515.799392 56.463775 521.282442 
C 58.127955 526.76549 60.807126 531.887569 64.36171 536.381816 
C 67.916294 540.876063 72.283477 544.663066 77.235728 547.545521 
C 82.187979 550.427976 87.637793 552.354945 93.30123 553.22604 
C 98.964667 554.097132 104.741634 553.896964 110.331192 552.635947 
C 115.920751 551.374933 121.224113 549.075361 125.96497 545.857037 
C 130.705827 542.638712 134.800407 538.558506 138.035383 533.828997 
C 141.270359 529.099489 143.588566 523.80427 144.869232 518.219181 
C 146.149901 512.634092 146.370393 506.857842 145.519221 501.191376 
C 144.668051 495.52491 142.760259 490.068355 139.895239 485.105997 
L 100.258989 507.99 
z
" style="fill: #ff7f0e; stroke: #ffffff; stroke-linejoin: miter"/>
   </g>
   <g id="text_65">
    <!-- Yes -->
    <g style="fill: #262626" transform="translate(143.33572 476.679192) scale(0.1 -0.1)">
     <use xlink:href="#DejaVuSans-59"/>
     <use xlink:href="#DejaVuSans-65" transform="translate(47.833984 0)"/>
     <use xlink:href="#DejaVuSans-73" transform="translate(109.357422 0)"/>
    </g>
   </g>
   <g id="text_66">
    <!-- 5% -->
    <g style="fill: #262626" transform="translate(117.455051 490.875102) scale(0.1 -0.1)">
     <use xlink:href="#DejaVuSans-35"/>
     <use xlink:href="#DejaVuSans-25" transform="translate(63.623047 0)"/>
    </g>
   </g>
   <g id="text_67">
    <!-- No -->
    <g style="fill: #262626" transform="translate(47.171992 541.980384) scale(0.1 -0.1)">
     <use xlink:href="#DejaVuSans-4e"/>
     <use xlink:href="#DejaVuSans-6f" transform="translate(74.804688 0)"/>
    </g>
   </g>
   <g id="text_68">
    <!-- 95% -->
    <g style="fill: #262626" transform="translate(67.607346 527.784471) scale(0.1 -0.1)">
     <use xlink:href="#DejaVuSans-39"/>
     <use xlink:href="#DejaVuSans-35" transform="translate(63.623047 0)"/>
     <use xlink:href="#DejaVuSans-25" transform="translate(127.246094 0)"/>
    </g>
   </g>
   <g id="text_69">
    <!-- JSON -->
    <g style="fill: #262626" transform="translate(85.468051 444.78) scale(0.12 -0.12)">
     <defs>
      <path id="DejaVuSans-4a" d="M 628 4666 
L 1259 4666 
L 1259 325 
Q 1259 -519 939 -900 
Q 619 -1281 -91 -1281 
L -331 -1281 
L -331 -750 
L -134 -750 
Q 284 -750 456 -515 
Q 628 -281 628 325 
L 628 4666 
z
" transform="scale(0.015625)"/>
      <path id="DejaVuSans-53" d="M 3425 4513 
L 3425 3897 
Q 3066 4069 2747 4153 
Q 2428 4238 2131 4238 
Q 1616 4238 1336 4038 
Q 1056 3838 1056 3469 
Q 1056 3159 1242 3001 
Q 1428 2844 1947 2747 
L 2328 2669 
Q 3034 2534 3370 2195 
Q 3706 1856 3706 1288 
Q 3706 609 3251 259 
Q 2797 -91 1919 -91 
Q 1588 -91 1214 -16 
Q 841 59 441 206 
L 441 856 
Q 825 641 1194 531 
Q 1563 422 1919 422 
Q 2459 422 2753 634 
Q 3047 847 3047 1241 
Q 3047 1584 2836 1778 
Q 2625 1972 2144 2069 
L 1759 2144 
Q 1053 2284 737 2584 
Q 422 2884 422 3419 
Q 422 4038 858 4394 
Q 1294 4750 2059 4750 
Q 2388 4750 2728 4690 
Q 3069 4631 3425 4513 
z
" transform="scale(0.015625)"/>
     </defs>
     <use xlink:href="#DejaVuSans-4a"/>
     <use xlink:href="#DejaVuSans-53" transform="translate(29.492188 0)"/>
     <use xlink:href="#DejaVuSans-4f" transform="translate(92.96875 0)"/>
     <use xlink:href="#DejaVuSans-4e" transform="translate(171.679688 0)"/>
    </g>
   </g>
  </g>
  <g id="axes_14"/>
  <g id="axes_15"/>
  <g id="axes_16"/>
  <g id="text_70">
   <!-- https://github.com/biopragmatics/bioregistry (2026-03-18) -->
   <g style="fill: #808080; opacity: 0.5" transform="translate(278.67625 574.33625) scale(0.08 -0.08)">
    <defs>
     <path id="DejaVuSans-3a" d="M 750 794 
L 1409 794 
L 1409 0 
L 750 0 
L 750 794 
z
M 750 3309 
L 1409 3309 
L 1409 2516 
L 750 2516 
L 750 3309 
z
" transform="scale(0.015625)"/>
     <path id="DejaVuSans-2f" d="M 1625 4666 
L 2156 4666 
L 531 -594 
L 0 -594 
L 1625 4666 
z
" transform="scale(0.015625)"/>
     <path id="DejaVuSans-75" d="M 544 1381 
L 544 3500 
L 1119 3500 
L 1119 1403 
Q 1119 906 1312 657 
Q 1506 409 1894 409 
Q 2359 409 2629 706 
Q 2900 1003 2900 1516 
L 2900 3500 
L 3475 3500 
L 3475 0 
L 2900 0 
L 2900 538 
Q 2691 219 2414 64 
Q 2138 -91 1772 -91 
Q 1169 -91 856 284 
Q 544 659 544 1381 
z
M 1991 3584 
L 1991 3584 
z
" transform="scale(0.015625)"/>
     <path id="DejaVuSans-62" d="M 3116 1747 
Q 3116 2381 2855 2742 
Q 2594 3103 2138 3103 
Q 1681 3103 1420 2742 
Q 1159 2381 1159 1747 
Q 1159 1113 1420 752 
Q 1681 391 2138 391 
Q 2594 391 2855 752 
Q 3116 1113 3116 1747 
z
M 1159 2969 
Q 1341 3281 1617 3432 
Q 1894 3584 2278 3584 
Q 2916 3584 3314 3078 
Q 3713 2572 3713 1747 
Q 3713 922 3314 415 
Q 2916 -91 2278 -91 
Q 1894 -91 1617 61 
Q 1341 213 1159 525 
L 1159 0 
L 581 0 
L 581 4863 
L 1159 4863 
L 1159 2969 
z
" transform="scale(0.015625)"/>
     <path id="DejaVuSans-28" d="M 1984 4856 
Q 1566 4138 1362 3434 
Q 1159 2731 1159 2009 
Q 1159 1288 1364 580 
Q 1569 -128 1984 -844 
L 1484 -844 
Q 1016 -109 783 600 
Q 550 1309 550 2009 
Q 550 2706 781 3412 
Q 1013 4119 1484 4856 
L 1984 4856 
z
" transform="scale(0.015625)"/>
     <path id="DejaVuSans-29" d="M 513 4856 
L 1013 4856 
Q 1481 4119 1714 3412 
Q 1947 2706 1947 2009 
Q 1947 1309 1714 600 
Q 1481 -109 1013 -844 
L 513 -844 
Q 928 -128 1133 580 
Q 1338 1288 1338 2009 
Q 1338 2731 1133 3434 
Q 928 4138 513 4856 
z
" transform="scale(0.015625)"/>
    </defs>
    <use xlink:href="#DejaVuSans-68"/>
    <use xlink:href="#DejaVuSans-74" transform="translate(63.378906 0)"/>
    <use xlink:href="#DejaVuSans-74" transform="translate(102.587891 0)"/>
    <use xlink:href="#DejaVuSans-70" transform="translate(141.796875 0)"/>
    <use xlink:href="#DejaVuSans-73" transform="translate(205.273438 0)"/>
    <use xlink:href="#DejaVuSans-3a" transform="translate(257.373047 0)"/>
    <use xlink:href="#DejaVuSans-2f" transform="translate(291.064453 0)"/>
    <use xlink:href="#DejaVuSans-2f" transform="translate(324.755859 0)"/>
    <use xlink:href="#DejaVuSans-67" transform="translate(358.447266 0)"/>
    <use xlink:href="#DejaVuSans-69" transform="translate(421.923828 0)"/>
    <use xlink:href="#DejaVuSans-74" transform="translate(449.707031 0)"/>
    <use xlink:href="#DejaVuSans-68" transform="translate(488.916016 0)"/>
    <use xlink:href="#DejaVuSans-75" transform="translate(552.294922 0)"/>
    <use xlink:href="#DejaVuSans-62" transform="translate(615.673828 0)"/>
    <use xlink:href="#DejaVuSans-2e" transform="translate(679.150391 0)"/>
    <use xlink:href="#DejaVuSans-63" transform="translate(710.9375 0)"/>
    <use xlink:href="#DejaVuSans-6f" transform="translate(765.917969 0)"/>
    <use xlink:href="#DejaVuSans-6d" transform="translate(827.099609 0)"/>
    <use xlink:href="#DejaVuSans-2f" transform="translate(924.511719 0)"/>
    <use xlink:href="#DejaVuSans-62" transform="translate(958.203125 0)"/>
    <use xlink:href="#DejaVuSans-69" transform="translate(1021.679688 0)"/>
    <use xlink:href="#DejaVuSans-6f" transform="translate(1049.462891 0)"/>
    <use xlink:href="#DejaVuSans-70" transform="translate(1110.644531 0)"/>
    <use xlink:href="#DejaVuSans-72" transform="translate(1174.121094 0)"/>
    <use xlink:href="#DejaVuSans-61" transform="translate(1215.234375 0)"/>
    <use xlink:href="#DejaVuSans-67" transform="translate(1276.513672 0)"/>
    <use xlink:href="#DejaVuSans-6d" transform="translate(1339.990234 0)"/>
    <use xlink:href="#DejaVuSans-61" transform="translate(1437.402344 0)"/>
    <use xlink:href="#DejaVuSans-74" transform="translate(1498.681641 0)"/>
    <use xlink:href="#DejaVuSans-69" transform="translate(1537.890625 0)"/>
    <use xlink:href="#DejaVuSans-63" transform="translate(1565.673828 0)"/>
    <use xlink:href="#DejaVuSans-73" transform="translate(1620.654297 0)"/>
    <use xlink:href="#DejaVuSans-2f" transform="translate(1672.753906 0)"/>
    <use xlink:href="#DejaVuSans-62" transform="translate(1706.445312 0)"/>
    <use xlink:href="#DejaVuSans-69" transform="translate(1769.921875 0)"/>
    <use xlink:href="#DejaVuSans-6f" transform="translate(1797.705078 0)"/>
    <use xlink:href="#DejaVuSans-72" transform="translate(1858.886719 0)"/>
    <use xlink:href="#DejaVuSans-65" transform="translate(1897.75 0)"/>
    <use xlink:href="#DejaVuSans-67" transform="translate(1959.273438 0)"/>
    <use xlink:href="#DejaVuSans-69" transform="translate(2022.75 0)"/>
    <use xlink:href="#DejaVuSans-73" transform="translate(2050.533203 0)"/>
    <use xlink:href="#DejaVuSans-74" transform="translate(2102.632812 0)"/>
    <use xlink:href="#DejaVuSans-72" transform="translate(2141.841797 0)"/>
    <use xlink:href="#DejaVuSans-79" transform="translate(2182.955078 0)"/>
    <use xlink:href="#DejaVuSans-20" transform="translate(2242.134766 0)"/>
    <use xlink:href="#DejaVuSans-28" transform="translate(2273.921875 0)"/>
    <use xlink:href="#DejaVuSans-32" transform="translate(2312.935547 0)"/>
    <use xlink:href="#DejaVuSans-30" transform="translate(2376.558594 0)"/>
    <use xlink:href="#DejaVuSans-32" transform="translate(2440.181641 0)"/>
    <use xlink:href="#DejaVuSans-36" transform="translate(2503.804688 0)"/>
    <use xlink:href="#DejaVuSans-2d" transform="translate(2567.427734 0)"/>
    <use xlink:href="#DejaVuSans-30" transform="translate(2603.511719 0)"/>
    <use xlink:href="#DejaVuSans-33" transform="translate(2667.134766 0)"/>
    <use xlink:href="#DejaVuSans-2d" transform="translate(2730.757812 0)"/>
    <use xlink:href="#DejaVuSans-31" transform="translate(2766.841797 0)"/>
    <use xlink:href="#DejaVuSans-38" transform="translate(2830.464844 0)"/>
    <use xlink:href="#DejaVuSans-29" transform="translate(2894.087891 0)"/>
   </g>
  </g>
 </g>
</svg>
