<?xml version="1.0" encoding="utf-8" standalone="no"?>
<!DOCTYPE svg PUBLIC "-//W3C//DTD SVG 1.1//EN"
  "http://www.w3.org/Graphics/SVG/1.1/DTD/svg11.dtd">
<svg xmlns:xlink="http://www.w3.org/1999/xlink" width="792pt" height="576pt" viewBox="0 0 792 576" xmlns="http://www.w3.org/2000/svg" version="1.1">
 <metadata>
  <rdf:RDF xmlns:dc="http://purl.org/dc/elements/1.1/" xmlns:cc="http://creativecommons.org/ns#" xmlns:rdf="http://www.w3.org/1999/02/22-rdf-syntax-ns#">
   <cc:Work>
    <dc:type rdf:resource="http://purl.org/dc/dcmitype/StillImage"/>
    <dc:date>2022-04-25T00:52:08.654852</dc:date>
    <dc:format>image/svg+xml</dc:format>
    <dc:creator>
     <cc:Agent>
      <dc:title>Matplotlib v3.5.1, https://matplotlib.org/</dc:title>
     </cc:Agent>
    </dc:creator>
   </cc:Work>
  </rdf:RDF>
 </metadata>
 <defs>
  <style type="text/css">*{stroke-linejoin: round; stroke-linecap: butt}</style>
 </defs>
 <g id="figure_1">
  <g id="patch_1">
   <path d="M 0 576 
L 792 576 
L 792 0 
L 0 0 
z
" style="fill: #ffffff"/>
  </g>
  <g id="axes_1">
   <g id="matplotlib.axis_1"/>
   <g id="matplotlib.axis_2"/>
   <g id="patch_2">
    <path d="M 129.520274 62.587417 
C 126.723921 57.743992 123.063329 53.453892 118.720303 49.930189 
C 114.377277 46.406487 109.424928 43.7085 104.109219 41.970225 
C 98.793511 40.231951 93.203927 39.482653 87.61808 39.759544 
C 82.032233 40.036435 76.544155 41.334855 71.426416 43.590316 
C 66.308678 45.845778 61.647431 49.020312 57.67418 52.956254 
C 53.70093 56.892195 50.482561 61.523286 48.178919 66.619518 
C 45.875276 71.715751 44.525139 77.191335 44.195562 82.774321 
C 43.865986 88.357307 44.562518 93.953711 46.250566 99.285583 
C 47.938613 104.617454 50.589759 109.595035 54.072332 113.971111 
C 57.554905 118.347187 61.81028 122.048091 66.627108 124.890012 
C 71.443936 127.731934 76.741132 129.667034 82.255605 130.599202 
C 87.770079 131.531371 93.408999 131.444917 98.892304 130.344133 
C 104.375608 129.24335 109.610992 127.146768 114.338433 124.158516 
C 119.065875 121.170264 123.205793 117.340647 126.552576 112.859865 
C 129.899358 108.379083 132.396664 103.322567 133.920463 97.941453 
C 135.444262 92.560339 135.968903 86.945212 135.468328 81.374954 
L 89.884024 85.471417 
L 129.520274 62.587417 
z
" style="fill: #1f77b4; stroke: #ffffff; stroke-linejoin: miter"/>
   </g>
   <g id="patch_3">
    <path d="M 139.831674 79.993537 
C 139.535091 76.693241 138.880971 73.434891 137.880828 70.275836 
C 136.880685 67.116781 135.54042 64.075662 133.883622 61.206004 
L 94.247369 84.09 
L 139.831674 79.993537 
z
" style="fill: #ff7f0e; stroke: #ffffff; stroke-linejoin: miter"/>
   </g>
   <g id="text_1">
    <!-- Yes -->
    <g style="fill: #262626" transform="translate(25.741907 103.426374)scale(0.1 -0.1)">
     <defs>
      <path id="DejaVuSans-59" d="M -13 4666 
L 666 4666 
L 1959 2747 
L 3244 4666 
L 3922 4666 
L 2272 2222 
L 2272 0 
L 1638 0 
L 1638 2222 
L -13 4666 
z
" transform="scale(0.015625)"/>
      <path id="DejaVuSans-65" d="M 3597 1894 
L 3597 1613 
L 953 1613 
Q 991 1019 1311 708 
Q 1631 397 2203 397 
Q 2534 397 2845 478 
Q 3156 559 3463 722 
L 3463 178 
Q 3153 47 2828 -22 
Q 2503 -91 2169 -91 
Q 1331 -91 842 396 
Q 353 884 353 1716 
Q 353 2575 817 3079 
Q 1281 3584 2069 3584 
Q 2775 3584 3186 3129 
Q 3597 2675 3597 1894 
z
M 3022 2063 
Q 3016 2534 2758 2815 
Q 2500 3097 2075 3097 
Q 1594 3097 1305 2825 
Q 1016 2553 972 2059 
L 3022 2063 
z
" transform="scale(0.015625)"/>
      <path id="DejaVuSans-73" d="M 2834 3397 
L 2834 2853 
Q 2591 2978 2328 3040 
Q 2066 3103 1784 3103 
Q 1356 3103 1142 2972 
Q 928 2841 928 2578 
Q 928 2378 1081 2264 
Q 1234 2150 1697 2047 
L 1894 2003 
Q 2506 1872 2764 1633 
Q 3022 1394 3022 966 
Q 3022 478 2636 193 
Q 2250 -91 1575 -91 
Q 1294 -91 989 -36 
Q 684 19 347 128 
L 347 722 
Q 666 556 975 473 
Q 1284 391 1588 391 
Q 1994 391 2212 530 
Q 2431 669 2431 922 
Q 2431 1156 2273 1281 
Q 2116 1406 1581 1522 
L 1381 1569 
Q 847 1681 609 1914 
Q 372 2147 372 2553 
Q 372 3047 722 3315 
Q 1072 3584 1716 3584 
Q 2034 3584 2315 3537 
Q 2597 3491 2834 3397 
z
" transform="scale(0.015625)"/>
     </defs>
     <use xlink:href="#DejaVuSans-59"/>
     <use xlink:href="#DejaVuSans-65" x="47.833984"/>
     <use xlink:href="#DejaVuSans-73" x="109.357422"/>
    </g>
   </g>
   <g id="text_2">
    <!-- 93% -->
    <g style="fill: #262626" transform="translate(52.590668 96.519291)scale(0.1 -0.1)">
     <defs>
      <path id="DejaVuSans-39" d="M 703 97 
L 703 672 
Q 941 559 1184 500 
Q 1428 441 1663 441 
Q 2288 441 2617 861 
Q 2947 1281 2994 2138 
Q 2813 1869 2534 1725 
Q 2256 1581 1919 1581 
Q 1219 1581 811 2004 
Q 403 2428 403 3163 
Q 403 3881 828 4315 
Q 1253 4750 1959 4750 
Q 2769 4750 3195 4129 
Q 3622 3509 3622 2328 
Q 3622 1225 3098 567 
Q 2575 -91 1691 -91 
Q 1453 -91 1209 -44 
Q 966 3 703 97 
z
M 1959 2075 
Q 2384 2075 2632 2365 
Q 2881 2656 2881 3163 
Q 2881 3666 2632 3958 
Q 2384 4250 1959 4250 
Q 1534 4250 1286 3958 
Q 1038 3666 1038 3163 
Q 1038 2656 1286 2365 
Q 1534 2075 1959 2075 
z
" transform="scale(0.015625)"/>
      <path id="DejaVuSans-33" d="M 2597 2516 
Q 3050 2419 3304 2112 
Q 3559 1806 3559 1356 
Q 3559 666 3084 287 
Q 2609 -91 1734 -91 
Q 1441 -91 1130 -33 
Q 819 25 488 141 
L 488 750 
Q 750 597 1062 519 
Q 1375 441 1716 441 
Q 2309 441 2620 675 
Q 2931 909 2931 1356 
Q 2931 1769 2642 2001 
Q 2353 2234 1838 2234 
L 1294 2234 
L 1294 2753 
L 1863 2753 
Q 2328 2753 2575 2939 
Q 2822 3125 2822 3475 
Q 2822 3834 2567 4026 
Q 2313 4219 1838 4219 
Q 1578 4219 1281 4162 
Q 984 4106 628 3988 
L 628 4550 
Q 988 4650 1302 4700 
Q 1616 4750 1894 4750 
Q 2613 4750 3031 4423 
Q 3450 4097 3450 3541 
Q 3450 3153 3228 2886 
Q 3006 2619 2597 2516 
z
" transform="scale(0.015625)"/>
      <path id="DejaVuSans-25" d="M 4653 2053 
Q 4381 2053 4226 1822 
Q 4072 1591 4072 1178 
Q 4072 772 4226 539 
Q 4381 306 4653 306 
Q 4919 306 5073 539 
Q 5228 772 5228 1178 
Q 5228 1588 5073 1820 
Q 4919 2053 4653 2053 
z
M 4653 2450 
Q 5147 2450 5437 2106 
Q 5728 1763 5728 1178 
Q 5728 594 5436 251 
Q 5144 -91 4653 -91 
Q 4153 -91 3862 251 
Q 3572 594 3572 1178 
Q 3572 1766 3864 2108 
Q 4156 2450 4653 2450 
z
M 1428 4353 
Q 1159 4353 1004 4120 
Q 850 3888 850 3481 
Q 850 3069 1003 2837 
Q 1156 2606 1428 2606 
Q 1700 2606 1854 2837 
Q 2009 3069 2009 3481 
Q 2009 3884 1853 4118 
Q 1697 4353 1428 4353 
z
M 4250 4750 
L 4750 4750 
L 1831 -91 
L 1331 -91 
L 4250 4750 
z
M 1428 4750 
Q 1922 4750 2215 4408 
Q 2509 4066 2509 3481 
Q 2509 2891 2217 2550 
Q 1925 2209 1428 2209 
Q 931 2209 642 2551 
Q 353 2894 353 3481 
Q 353 4063 643 4406 
Q 934 4750 1428 4750 
z
" transform="scale(0.015625)"/>
     </defs>
     <use xlink:href="#DejaVuSans-39"/>
     <use xlink:href="#DejaVuSans-33" x="63.623047"/>
     <use xlink:href="#DejaVuSans-25" x="127.246094"/>
    </g>
   </g>
   <g id="text_3">
    <!-- No -->
    <g style="fill: #262626" transform="translate(142.244174 71.653795)scale(0.1 -0.1)">
     <defs>
      <path id="DejaVuSans-4e" d="M 628 4666 
L 1478 4666 
L 3547 763 
L 3547 4666 
L 4159 4666 
L 4159 0 
L 3309 0 
L 1241 3903 
L 1241 0 
L 628 0 
L 628 4666 
z
" transform="scale(0.015625)"/>
      <path id="DejaVuSans-6f" d="M 1959 3097 
Q 1497 3097 1228 2736 
Q 959 2375 959 1747 
Q 959 1119 1226 758 
Q 1494 397 1959 397 
Q 2419 397 2687 759 
Q 2956 1122 2956 1747 
Q 2956 2369 2687 2733 
Q 2419 3097 1959 3097 
z
M 1959 3584 
Q 2709 3584 3137 3096 
Q 3566 2609 3566 1747 
Q 3566 888 3137 398 
Q 2709 -91 1959 -91 
Q 1206 -91 779 398 
Q 353 888 353 1747 
Q 353 2609 779 3096 
Q 1206 3584 1959 3584 
z
" transform="scale(0.015625)"/>
     </defs>
     <use xlink:href="#DejaVuSans-4e"/>
     <use xlink:href="#DejaVuSans-6f" x="74.804688"/>
    </g>
   </g>
   <g id="text_4">
    <!-- 7% -->
    <g style="fill: #262626" transform="translate(112.495413 78.560877)scale(0.1 -0.1)">
     <defs>
      <path id="DejaVuSans-37" d="M 525 4666 
L 3525 4666 
L 3525 4397 
L 1831 0 
L 1172 0 
L 2766 4134 
L 525 4134 
L 525 4666 
z
" transform="scale(0.015625)"/>
     </defs>
     <use xlink:href="#DejaVuSans-37"/>
     <use xlink:href="#DejaVuSans-25" x="63.623047"/>
    </g>
   </g>
   <g id="text_5">
    <!-- Name -->
    <g style="fill: #262626" transform="translate(76.545494 20.88)scale(0.12 -0.12)">
     <defs>
      <path id="DejaVuSans-61" d="M 2194 1759 
Q 1497 1759 1228 1600 
Q 959 1441 959 1056 
Q 959 750 1161 570 
Q 1363 391 1709 391 
Q 2188 391 2477 730 
Q 2766 1069 2766 1631 
L 2766 1759 
L 2194 1759 
z
M 3341 1997 
L 3341 0 
L 2766 0 
L 2766 531 
Q 2569 213 2275 61 
Q 1981 -91 1556 -91 
Q 1019 -91 701 211 
Q 384 513 384 1019 
Q 384 1609 779 1909 
Q 1175 2209 1959 2209 
L 2766 2209 
L 2766 2266 
Q 2766 2663 2505 2880 
Q 2244 3097 1772 3097 
Q 1472 3097 1187 3025 
Q 903 2953 641 2809 
L 641 3341 
Q 956 3463 1253 3523 
Q 1550 3584 1831 3584 
Q 2591 3584 2966 3190 
Q 3341 2797 3341 1997 
z
" transform="scale(0.015625)"/>
      <path id="DejaVuSans-6d" d="M 3328 2828 
Q 3544 3216 3844 3400 
Q 4144 3584 4550 3584 
Q 5097 3584 5394 3201 
Q 5691 2819 5691 2113 
L 5691 0 
L 5113 0 
L 5113 2094 
Q 5113 2597 4934 2840 
Q 4756 3084 4391 3084 
Q 3944 3084 3684 2787 
Q 3425 2491 3425 1978 
L 3425 0 
L 2847 0 
L 2847 2094 
Q 2847 2600 2669 2842 
Q 2491 3084 2119 3084 
Q 1678 3084 1418 2786 
Q 1159 2488 1159 1978 
L 1159 0 
L 581 0 
L 581 3500 
L 1159 3500 
L 1159 2956 
Q 1356 3278 1631 3431 
Q 1906 3584 2284 3584 
Q 2666 3584 2933 3390 
Q 3200 3197 3328 2828 
z
" transform="scale(0.015625)"/>
     </defs>
     <use xlink:href="#DejaVuSans-4e"/>
     <use xlink:href="#DejaVuSans-61" x="74.804688"/>
     <use xlink:href="#DejaVuSans-6d" x="136.083984"/>
     <use xlink:href="#DejaVuSans-65" x="233.496094"/>
    </g>
   </g>
  </g>
  <g id="axes_2">
   <g id="matplotlib.axis_3"/>
   <g id="matplotlib.axis_4"/>
   <g id="patch_4">
    <path d="M 307.215013 62.587417 
C 304.41866 57.743992 300.758067 53.453892 296.415041 49.930189 
C 292.072015 46.406487 287.119666 43.7085 281.803958 41.970225 
C 276.488249 40.231951 270.898665 39.482653 265.312818 39.759544 
C 259.726972 40.036435 254.238894 41.334855 249.121155 43.590316 
C 244.003416 45.845778 239.342169 49.020312 235.368919 52.956254 
C 231.395668 56.892195 228.1773 61.523286 225.873657 66.619518 
C 223.570015 71.715751 222.219877 77.191335 221.890301 82.774321 
C 221.560724 88.357307 222.257257 93.953711 223.945304 99.285583 
C 225.633352 104.617454 228.284498 109.595035 231.767071 113.971111 
C 235.249644 118.347187 239.505018 122.048091 244.321846 124.890012 
C 249.138675 127.731934 254.435871 129.667034 259.950344 130.599202 
C 265.464817 131.531371 271.103737 131.444917 276.587042 130.344133 
C 282.070347 129.24335 287.30573 127.146768 292.033172 124.158516 
C 296.760614 121.170264 300.900532 117.340647 304.247314 112.859865 
C 307.594096 108.379083 310.091403 103.322567 311.615202 97.941453 
C 313.139001 92.560339 313.663641 86.945212 313.163067 81.374954 
L 267.578762 85.471417 
L 307.215013 62.587417 
z
" style="fill: #1f77b4; stroke: #ffffff; stroke-linejoin: miter"/>
   </g>
   <g id="patch_5">
    <path d="M 317.526412 79.993537 
C 317.229829 76.693241 316.57571 73.434891 315.575566 70.275836 
C 314.575423 67.116781 313.235158 64.075662 311.578361 61.206004 
L 271.942108 84.09 
L 317.526412 79.993537 
z
" style="fill: #ff7f0e; stroke: #ffffff; stroke-linejoin: miter"/>
   </g>
   <g id="text_6">
    <!-- Yes -->
    <g style="fill: #262626" transform="translate(203.436646 103.426374)scale(0.1 -0.1)">
     <use xlink:href="#DejaVuSans-59"/>
     <use xlink:href="#DejaVuSans-65" x="47.833984"/>
     <use xlink:href="#DejaVuSans-73" x="109.357422"/>
    </g>
   </g>
   <g id="text_7">
    <!-- 93% -->
    <g style="fill: #262626" transform="translate(230.285406 96.519291)scale(0.1 -0.1)">
     <use xlink:href="#DejaVuSans-39"/>
     <use xlink:href="#DejaVuSans-33" x="63.623047"/>
     <use xlink:href="#DejaVuSans-25" x="127.246094"/>
    </g>
   </g>
   <g id="text_8">
    <!-- No -->
    <g style="fill: #262626" transform="translate(319.938912 71.653795)scale(0.1 -0.1)">
     <use xlink:href="#DejaVuSans-4e"/>
     <use xlink:href="#DejaVuSans-6f" x="74.804688"/>
    </g>
   </g>
   <g id="text_9">
    <!-- 7% -->
    <g style="fill: #262626" transform="translate(290.190152 78.560877)scale(0.1 -0.1)">
     <use xlink:href="#DejaVuSans-37"/>
     <use xlink:href="#DejaVuSans-25" x="63.623047"/>
    </g>
   </g>
   <g id="text_10">
    <!-- Homepage -->
    <g style="fill: #262626" transform="translate(239.235545 20.88)scale(0.12 -0.12)">
     <defs>
      <path id="DejaVuSans-48" d="M 628 4666 
L 1259 4666 
L 1259 2753 
L 3553 2753 
L 3553 4666 
L 4184 4666 
L 4184 0 
L 3553 0 
L 3553 2222 
L 1259 2222 
L 1259 0 
L 628 0 
L 628 4666 
z
" transform="scale(0.015625)"/>
      <path id="DejaVuSans-70" d="M 1159 525 
L 1159 -1331 
L 581 -1331 
L 581 3500 
L 1159 3500 
L 1159 2969 
Q 1341 3281 1617 3432 
Q 1894 3584 2278 3584 
Q 2916 3584 3314 3078 
Q 3713 2572 3713 1747 
Q 3713 922 3314 415 
Q 2916 -91 2278 -91 
Q 1894 -91 1617 61 
Q 1341 213 1159 525 
z
M 3116 1747 
Q 3116 2381 2855 2742 
Q 2594 3103 2138 3103 
Q 1681 3103 1420 2742 
Q 1159 2381 1159 1747 
Q 1159 1113 1420 752 
Q 1681 391 2138 391 
Q 2594 391 2855 752 
Q 3116 1113 3116 1747 
z
" transform="scale(0.015625)"/>
      <path id="DejaVuSans-67" d="M 2906 1791 
Q 2906 2416 2648 2759 
Q 2391 3103 1925 3103 
Q 1463 3103 1205 2759 
Q 947 2416 947 1791 
Q 947 1169 1205 825 
Q 1463 481 1925 481 
Q 2391 481 2648 825 
Q 2906 1169 2906 1791 
z
M 3481 434 
Q 3481 -459 3084 -895 
Q 2688 -1331 1869 -1331 
Q 1566 -1331 1297 -1286 
Q 1028 -1241 775 -1147 
L 775 -588 
Q 1028 -725 1275 -790 
Q 1522 -856 1778 -856 
Q 2344 -856 2625 -561 
Q 2906 -266 2906 331 
L 2906 616 
Q 2728 306 2450 153 
Q 2172 0 1784 0 
Q 1141 0 747 490 
Q 353 981 353 1791 
Q 353 2603 747 3093 
Q 1141 3584 1784 3584 
Q 2172 3584 2450 3431 
Q 2728 3278 2906 2969 
L 2906 3500 
L 3481 3500 
L 3481 434 
z
" transform="scale(0.015625)"/>
     </defs>
     <use xlink:href="#DejaVuSans-48"/>
     <use xlink:href="#DejaVuSans-6f" x="75.195312"/>
     <use xlink:href="#DejaVuSans-6d" x="136.376953"/>
     <use xlink:href="#DejaVuSans-65" x="233.789062"/>
     <use xlink:href="#DejaVuSans-70" x="295.3125"/>
     <use xlink:href="#DejaVuSans-61" x="358.789062"/>
     <use xlink:href="#DejaVuSans-67" x="420.068359"/>
     <use xlink:href="#DejaVuSans-65" x="483.544922"/>
    </g>
   </g>
  </g>
  <g id="axes_3">
   <g id="matplotlib.axis_5"/>
   <g id="matplotlib.axis_6"/>
   <g id="patch_6">
    <path d="M 484.909751 62.587417 
C 482.113399 57.743992 478.452806 53.453892 474.10978 49.930189 
C 469.766754 46.406487 464.814405 43.7085 459.498696 41.970225 
C 454.182988 40.231951 448.593404 39.482653 443.007557 39.759544 
C 437.42171 40.036435 431.933632 41.334855 426.815894 43.590316 
C 421.698155 45.845778 417.036908 49.020312 413.063657 52.956254 
C 409.090407 56.892195 405.872039 61.523286 403.568396 66.619518 
C 401.264753 71.715751 399.914616 77.191335 399.585039 82.774321 
C 399.255463 88.357307 399.951995 93.953711 401.640043 99.285583 
C 403.328091 104.617454 405.979237 109.595035 409.46181 113.971111 
C 412.944383 118.347187 417.199757 122.048091 422.016585 124.890012 
C 426.833413 127.731934 432.130609 129.667034 437.645083 130.599202 
C 443.159556 131.531371 448.798476 131.444917 454.281781 130.344133 
C 459.765085 129.24335 465.000469 127.146768 469.727911 124.158516 
C 474.455352 121.170264 478.595271 117.340647 481.942053 112.859865 
C 485.288835 108.379083 487.786141 103.322567 489.30994 97.941453 
C 490.83374 92.560339 491.35838 86.945212 490.857805 81.374954 
L 445.273501 85.471417 
L 484.909751 62.587417 
z
" style="fill: #1f77b4; stroke: #ffffff; stroke-linejoin: miter"/>
   </g>
   <g id="patch_7">
    <path d="M 495.221151 79.993537 
C 494.924568 76.693241 494.270448 73.434891 493.270305 70.275836 
C 492.270162 67.116781 490.929897 64.075662 489.273099 61.206004 
L 449.636847 84.09 
L 495.221151 79.993537 
z
" style="fill: #ff7f0e; stroke: #ffffff; stroke-linejoin: miter"/>
   </g>
   <g id="text_11">
    <!-- Yes -->
    <g style="fill: #262626" transform="translate(381.131385 103.426374)scale(0.1 -0.1)">
     <use xlink:href="#DejaVuSans-59"/>
     <use xlink:href="#DejaVuSans-65" x="47.833984"/>
     <use xlink:href="#DejaVuSans-73" x="109.357422"/>
    </g>
   </g>
   <g id="text_12">
    <!-- 93% -->
    <g style="fill: #262626" transform="translate(407.980145 96.519291)scale(0.1 -0.1)">
     <use xlink:href="#DejaVuSans-39"/>
     <use xlink:href="#DejaVuSans-33" x="63.623047"/>
     <use xlink:href="#DejaVuSans-25" x="127.246094"/>
    </g>
   </g>
   <g id="text_13">
    <!-- No -->
    <g style="fill: #262626" transform="translate(497.633651 71.653795)scale(0.1 -0.1)">
     <use xlink:href="#DejaVuSans-4e"/>
     <use xlink:href="#DejaVuSans-6f" x="74.804688"/>
    </g>
   </g>
   <g id="text_14">
    <!-- 7% -->
    <g style="fill: #262626" transform="translate(467.88489 78.560877)scale(0.1 -0.1)">
     <use xlink:href="#DejaVuSans-37"/>
     <use xlink:href="#DejaVuSans-25" x="63.623047"/>
    </g>
   </g>
   <g id="text_15">
    <!-- Description -->
    <g style="fill: #262626" transform="translate(415.464972 20.88)scale(0.12 -0.12)">
     <defs>
      <path id="DejaVuSans-44" d="M 1259 4147 
L 1259 519 
L 2022 519 
Q 2988 519 3436 956 
Q 3884 1394 3884 2338 
Q 3884 3275 3436 3711 
Q 2988 4147 2022 4147 
L 1259 4147 
z
M 628 4666 
L 1925 4666 
Q 3281 4666 3915 4102 
Q 4550 3538 4550 2338 
Q 4550 1131 3912 565 
Q 3275 0 1925 0 
L 628 0 
L 628 4666 
z
" transform="scale(0.015625)"/>
      <path id="DejaVuSans-63" d="M 3122 3366 
L 3122 2828 
Q 2878 2963 2633 3030 
Q 2388 3097 2138 3097 
Q 1578 3097 1268 2742 
Q 959 2388 959 1747 
Q 959 1106 1268 751 
Q 1578 397 2138 397 
Q 2388 397 2633 464 
Q 2878 531 3122 666 
L 3122 134 
Q 2881 22 2623 -34 
Q 2366 -91 2075 -91 
Q 1284 -91 818 406 
Q 353 903 353 1747 
Q 353 2603 823 3093 
Q 1294 3584 2113 3584 
Q 2378 3584 2631 3529 
Q 2884 3475 3122 3366 
z
" transform="scale(0.015625)"/>
      <path id="DejaVuSans-72" d="M 2631 2963 
Q 2534 3019 2420 3045 
Q 2306 3072 2169 3072 
Q 1681 3072 1420 2755 
Q 1159 2438 1159 1844 
L 1159 0 
L 581 0 
L 581 3500 
L 1159 3500 
L 1159 2956 
Q 1341 3275 1631 3429 
Q 1922 3584 2338 3584 
Q 2397 3584 2469 3576 
Q 2541 3569 2628 3553 
L 2631 2963 
z
" transform="scale(0.015625)"/>
      <path id="DejaVuSans-69" d="M 603 3500 
L 1178 3500 
L 1178 0 
L 603 0 
L 603 3500 
z
M 603 4863 
L 1178 4863 
L 1178 4134 
L 603 4134 
L 603 4863 
z
" transform="scale(0.015625)"/>
      <path id="DejaVuSans-74" d="M 1172 4494 
L 1172 3500 
L 2356 3500 
L 2356 3053 
L 1172 3053 
L 1172 1153 
Q 1172 725 1289 603 
Q 1406 481 1766 481 
L 2356 481 
L 2356 0 
L 1766 0 
Q 1100 0 847 248 
Q 594 497 594 1153 
L 594 3053 
L 172 3053 
L 172 3500 
L 594 3500 
L 594 4494 
L 1172 4494 
z
" transform="scale(0.015625)"/>
      <path id="DejaVuSans-6e" d="M 3513 2113 
L 3513 0 
L 2938 0 
L 2938 2094 
Q 2938 2591 2744 2837 
Q 2550 3084 2163 3084 
Q 1697 3084 1428 2787 
Q 1159 2491 1159 1978 
L 1159 0 
L 581 0 
L 581 3500 
L 1159 3500 
L 1159 2956 
Q 1366 3272 1645 3428 
Q 1925 3584 2291 3584 
Q 2894 3584 3203 3211 
Q 3513 2838 3513 2113 
z
" transform="scale(0.015625)"/>
     </defs>
     <use xlink:href="#DejaVuSans-44"/>
     <use xlink:href="#DejaVuSans-65" x="77.001953"/>
     <use xlink:href="#DejaVuSans-73" x="138.525391"/>
     <use xlink:href="#DejaVuSans-63" x="190.625"/>
     <use xlink:href="#DejaVuSans-72" x="245.605469"/>
     <use xlink:href="#DejaVuSans-69" x="286.71875"/>
     <use xlink:href="#DejaVuSans-70" x="314.501953"/>
     <use xlink:href="#DejaVuSans-74" x="377.978516"/>
     <use xlink:href="#DejaVuSans-69" x="417.1875"/>
     <use xlink:href="#DejaVuSans-6f" x="444.970703"/>
     <use xlink:href="#DejaVuSans-6e" x="506.152344"/>
    </g>
   </g>
  </g>
  <g id="axes_4">
   <g id="matplotlib.axis_7"/>
   <g id="matplotlib.axis_8"/>
   <g id="patch_8">
    <path d="M 662.544205 62.380133 
C 659.793198 57.615248 656.205381 53.385247 651.953295 49.893552 
C 647.70121 46.401857 642.854128 43.705353 637.645148 41.933717 
C 632.436168 40.16208 626.950152 39.344174 621.450926 39.519331 
C 615.951701 39.694488 610.528855 40.859855 605.443176 42.959389 
C 600.357498 45.058923 595.69184 48.058419 591.670578 51.81363 
C 587.649315 55.568841 584.337959 60.01859 581.895755 64.948884 
C 579.453551 69.879179 577.920286 75.209698 577.369695 80.684095 
C 576.819104 86.158491 577.260158 91.687579 578.671645 97.005461 
C 580.083133 102.323343 582.442059 107.343383 585.634981 111.824165 
C 588.827904 116.304948 592.802806 120.173473 597.368532 123.243703 
C 601.934259 126.313933 607.016427 128.535848 612.370632 129.802596 
C 617.724838 131.069343 623.263853 131.360286 628.721304 130.661432 
C 634.178755 129.962579 639.465731 128.285314 644.32798 125.710299 
C 649.190229 123.135283 653.548536 119.704468 657.19331 115.582843 
C 660.838083 111.461218 663.709944 106.715931 665.670782 101.575184 
C 667.63162 96.434437 668.649491 90.981981 668.675445 85.480027 
L 622.907954 85.264133 
L 662.544205 62.380133 
z
" style="fill: #1f77b4; stroke: #ffffff; stroke-linejoin: miter"/>
   </g>
   <g id="patch_9">
    <path d="M 673.099076 84.305894 
C 673.118114 80.270096 672.60325 76.249451 671.567895 72.348673 
C 670.532539 68.447895 668.985758 64.701145 666.967837 61.206002 
L 627.331585 84.09 
L 673.099076 84.305894 
z
" style="fill: #ff7f0e; stroke: #ffffff; stroke-linejoin: miter"/>
   </g>
   <g id="text_16">
    <!-- Yes -->
    <g style="fill: #262626" transform="translate(558.102702 100.938968)scale(0.1 -0.1)">
     <use xlink:href="#DejaVuSans-59"/>
     <use xlink:href="#DejaVuSans-65" x="47.833984"/>
     <use xlink:href="#DejaVuSans-73" x="109.357422"/>
    </g>
   </g>
   <g id="text_17">
    <!-- 92% -->
    <g style="fill: #262626" transform="translate(585.252887 95.068304)scale(0.1 -0.1)">
     <defs>
      <path id="DejaVuSans-32" d="M 1228 531 
L 3431 531 
L 3431 0 
L 469 0 
L 469 531 
Q 828 903 1448 1529 
Q 2069 2156 2228 2338 
Q 2531 2678 2651 2914 
Q 2772 3150 2772 3378 
Q 2772 3750 2511 3984 
Q 2250 4219 1831 4219 
Q 1534 4219 1204 4116 
Q 875 4013 500 3803 
L 500 4441 
Q 881 4594 1212 4672 
Q 1544 4750 1819 4750 
Q 2544 4750 2975 4387 
Q 3406 4025 3406 3419 
Q 3406 3131 3298 2873 
Q 3191 2616 2906 2266 
Q 2828 2175 2409 1742 
Q 1991 1309 1228 531 
z
" transform="scale(0.015625)"/>
     </defs>
     <use xlink:href="#DejaVuSans-39"/>
     <use xlink:href="#DejaVuSans-32" x="63.623047"/>
     <use xlink:href="#DejaVuSans-25" x="127.246094"/>
    </g>
   </g>
   <g id="text_18">
    <!-- No -->
    <g style="fill: #262626" transform="translate(675.991525 73.933916)scale(0.1 -0.1)">
     <use xlink:href="#DejaVuSans-4e"/>
     <use xlink:href="#DejaVuSans-6f" x="74.804688"/>
    </g>
   </g>
   <g id="text_19">
    <!-- 8% -->
    <g style="fill: #262626" transform="translate(645.94134 79.804579)scale(0.1 -0.1)">
     <defs>
      <path id="DejaVuSans-38" d="M 2034 2216 
Q 1584 2216 1326 1975 
Q 1069 1734 1069 1313 
Q 1069 891 1326 650 
Q 1584 409 2034 409 
Q 2484 409 2743 651 
Q 3003 894 3003 1313 
Q 3003 1734 2745 1975 
Q 2488 2216 2034 2216 
z
M 1403 2484 
Q 997 2584 770 2862 
Q 544 3141 544 3541 
Q 544 4100 942 4425 
Q 1341 4750 2034 4750 
Q 2731 4750 3128 4425 
Q 3525 4100 3525 3541 
Q 3525 3141 3298 2862 
Q 3072 2584 2669 2484 
Q 3125 2378 3379 2068 
Q 3634 1759 3634 1313 
Q 3634 634 3220 271 
Q 2806 -91 2034 -91 
Q 1263 -91 848 271 
Q 434 634 434 1313 
Q 434 1759 690 2068 
Q 947 2378 1403 2484 
z
M 1172 3481 
Q 1172 3119 1398 2916 
Q 1625 2713 2034 2713 
Q 2441 2713 2670 2916 
Q 2900 3119 2900 3481 
Q 2900 3844 2670 4047 
Q 2441 4250 2034 4250 
Q 1625 4250 1398 4047 
Q 1172 3844 1172 3481 
z
" transform="scale(0.015625)"/>
     </defs>
     <use xlink:href="#DejaVuSans-38"/>
     <use xlink:href="#DejaVuSans-25" x="63.623047"/>
    </g>
   </g>
   <g id="text_20">
    <!-- Example -->
    <g style="fill: #262626" transform="translate(601.300023 20.88)scale(0.12 -0.12)">
     <defs>
      <path id="DejaVuSans-45" d="M 628 4666 
L 3578 4666 
L 3578 4134 
L 1259 4134 
L 1259 2753 
L 3481 2753 
L 3481 2222 
L 1259 2222 
L 1259 531 
L 3634 531 
L 3634 0 
L 628 0 
L 628 4666 
z
" transform="scale(0.015625)"/>
      <path id="DejaVuSans-78" d="M 3513 3500 
L 2247 1797 
L 3578 0 
L 2900 0 
L 1881 1375 
L 863 0 
L 184 0 
L 1544 1831 
L 300 3500 
L 978 3500 
L 1906 2253 
L 2834 3500 
L 3513 3500 
z
" transform="scale(0.015625)"/>
      <path id="DejaVuSans-6c" d="M 603 4863 
L 1178 4863 
L 1178 0 
L 603 0 
L 603 4863 
z
" transform="scale(0.015625)"/>
     </defs>
     <use xlink:href="#DejaVuSans-45"/>
     <use xlink:href="#DejaVuSans-78" x="63.183594"/>
     <use xlink:href="#DejaVuSans-61" x="122.363281"/>
     <use xlink:href="#DejaVuSans-6d" x="183.642578"/>
     <use xlink:href="#DejaVuSans-70" x="281.054688"/>
     <use xlink:href="#DejaVuSans-6c" x="344.53125"/>
     <use xlink:href="#DejaVuSans-65" x="372.314453"/>
    </g>
   </g>
  </g>
  <g id="axes_5">
   <g id="matplotlib.axis_9"/>
   <g id="matplotlib.axis_10"/>
   <g id="patch_10">
    <path d="M 129.888009 200.273918 
C 125.84388 193.269281 120.014289 187.460278 112.995388 183.440956 
C 105.976487 179.421633 98.015977 177.333834 89.927921 177.391064 
C 81.839865 177.448293 73.909696 179.648531 66.948374 183.766775 
C 59.987053 187.885019 54.240249 193.775934 50.295647 200.837098 
C 46.351045 207.898262 44.347851 215.880483 44.490919 223.967476 
C 44.633986 232.054469 46.918266 239.96084 51.110161 246.87806 
C 55.302055 253.795281 61.253631 259.479239 68.356263 263.348677 
C 75.458894 267.218115 83.461926 269.136477 91.546945 268.907588 
L 90.251758 223.157918 
L 129.888009 200.273918 
z
" style="fill: #1f77b4; stroke: #ffffff; stroke-linejoin: miter"/>
   </g>
   <g id="patch_11">
    <path d="M 95.542556 271.13967 
C 103.462995 270.91544 111.191101 268.638161 117.967514 264.531597 
C 124.743926 260.425033 130.339178 254.628242 134.203483 247.710816 
C 138.067787 240.793391 140.070289 232.98957 140.014224 225.066156 
C 139.958158 217.142743 137.845423 209.368041 133.883616 202.505993 
L 94.247369 225.39 
L 95.542556 271.13967 
z
" style="fill: #ff7f0e; stroke: #ffffff; stroke-linejoin: miter"/>
   </g>
   <g id="text_21">
    <!-- Yes -->
    <g style="fill: #262626" transform="translate(30.154723 201.364391)scale(0.1 -0.1)">
     <use xlink:href="#DejaVuSans-59"/>
     <use xlink:href="#DejaVuSans-65" x="47.833984"/>
     <use xlink:href="#DejaVuSans-73" x="109.357422"/>
    </g>
   </g>
   <g id="text_22">
    <!-- 67% -->
    <g style="fill: #262626" transform="translate(55.16481 212.524801)scale(0.1 -0.1)">
     <defs>
      <path id="DejaVuSans-36" d="M 2113 2584 
Q 1688 2584 1439 2293 
Q 1191 2003 1191 1497 
Q 1191 994 1439 701 
Q 1688 409 2113 409 
Q 2538 409 2786 701 
Q 3034 994 3034 1497 
Q 3034 2003 2786 2293 
Q 2538 2584 2113 2584 
z
M 3366 4563 
L 3366 3988 
Q 3128 4100 2886 4159 
Q 2644 4219 2406 4219 
Q 1781 4219 1451 3797 
Q 1122 3375 1075 2522 
Q 1259 2794 1537 2939 
Q 1816 3084 2150 3084 
Q 2853 3084 3261 2657 
Q 3669 2231 3669 1497 
Q 3669 778 3244 343 
Q 2819 -91 2113 -91 
Q 1303 -91 875 529 
Q 447 1150 447 2328 
Q 447 3434 972 4092 
Q 1497 4750 2381 4750 
Q 2619 4750 2861 4703 
Q 3103 4656 3366 4563 
z
" transform="scale(0.015625)"/>
     </defs>
     <use xlink:href="#DejaVuSans-36"/>
     <use xlink:href="#DejaVuSans-37" x="63.623047"/>
     <use xlink:href="#DejaVuSans-25" x="127.246094"/>
    </g>
   </g>
   <g id="text_23">
    <!-- No -->
    <g style="fill: #262626" transform="translate(138.199094 252.702273)scale(0.1 -0.1)">
     <use xlink:href="#DejaVuSans-4e"/>
     <use xlink:href="#DejaVuSans-6f" x="74.804688"/>
    </g>
   </g>
   <g id="text_24">
    <!-- 33% -->
    <g style="fill: #262626" transform="translate(107.107756 241.541865)scale(0.1 -0.1)">
     <use xlink:href="#DejaVuSans-33"/>
     <use xlink:href="#DejaVuSans-33" x="63.623047"/>
     <use xlink:href="#DejaVuSans-25" x="127.246094"/>
    </g>
   </g>
   <g id="text_25">
    <!-- Pattern -->
    <g style="fill: #262626" transform="translate(72.662369 162.18)scale(0.12 -0.12)">
     <defs>
      <path id="DejaVuSans-50" d="M 1259 4147 
L 1259 2394 
L 2053 2394 
Q 2494 2394 2734 2622 
Q 2975 2850 2975 3272 
Q 2975 3691 2734 3919 
Q 2494 4147 2053 4147 
L 1259 4147 
z
M 628 4666 
L 2053 4666 
Q 2838 4666 3239 4311 
Q 3641 3956 3641 3272 
Q 3641 2581 3239 2228 
Q 2838 1875 2053 1875 
L 1259 1875 
L 1259 0 
L 628 0 
L 628 4666 
z
" transform="scale(0.015625)"/>
     </defs>
     <use xlink:href="#DejaVuSans-50"/>
     <use xlink:href="#DejaVuSans-61" x="55.802734"/>
     <use xlink:href="#DejaVuSans-74" x="117.082031"/>
     <use xlink:href="#DejaVuSans-74" x="156.291016"/>
     <use xlink:href="#DejaVuSans-65" x="195.5"/>
     <use xlink:href="#DejaVuSans-72" x="257.023438"/>
     <use xlink:href="#DejaVuSans-6e" x="296.386719"/>
    </g>
   </g>
  </g>
  <g id="axes_6">
   <g id="matplotlib.axis_11"/>
   <g id="matplotlib.axis_12"/>
   <g id="patch_12">
    <path d="M 307.018975 202.904894 
C 304.43338 198.426512 301.107386 194.418555 297.182518 191.051564 
C 293.257651 187.684574 288.790378 185.006994 283.970788 183.132758 
C 279.151198 181.258522 274.048633 180.214596 268.880211 180.045399 
C 263.71179 179.876202 258.551873 180.58417 253.620021 182.139177 
C 248.688169 183.694184 244.05534 186.073857 239.918664 189.17694 
C 235.781988 192.280022 232.200983 196.061868 229.328023 200.361555 
C 226.455064 204.661243 224.331485 209.41691 223.047648 214.426198 
C 221.763811 219.435487 221.338186 224.626325 221.788885 229.777837 
C 222.239584 234.92935 223.560122 239.967418 225.694308 244.677669 
C 227.828495 249.387919 230.745624 253.702581 234.321569 257.438063 
C 237.897515 261.173545 242.080827 264.276101 246.693502 266.613714 
C 251.306177 268.951328 256.28185 270.490367 261.4088 271.165343 
C 266.53575 271.840318 271.740213 271.64152 276.800734 270.577408 
C 281.861255 269.513295 286.705025 267.599177 291.125937 264.916502 
C 295.546849 262.233827 299.481297 258.821192 302.761865 254.823808 
C 306.042434 250.826423 308.621924 246.301803 310.390575 241.442474 
L 267.382724 225.788894 
L 307.018975 202.904894 
z
" style="fill: #1f77b4; stroke: #ffffff; stroke-linejoin: miter"/>
   </g>
   <g id="patch_13">
    <path d="M 314.949959 241.04358 
C 317.235672 234.763636 318.118407 228.058603 317.535947 221.401057 
C 316.953487 214.743511 314.919847 208.293627 311.578359 202.506 
L 271.942108 225.39 
L 314.949959 241.04358 
z
" style="fill: #ff7f0e; stroke: #ffffff; stroke-linejoin: miter"/>
   </g>
   <g id="text_26">
    <!-- Yes -->
    <g style="fill: #262626" transform="translate(201.084189 232.936107)scale(0.1 -0.1)">
     <use xlink:href="#DejaVuSans-59"/>
     <use xlink:href="#DejaVuSans-65" x="47.833984"/>
     <use xlink:href="#DejaVuSans-73" x="109.357422"/>
    </g>
   </g>
   <g id="text_27">
    <!-- 86% -->
    <g style="fill: #262626" transform="translate(228.913139 230.941635)scale(0.1 -0.1)">
     <use xlink:href="#DejaVuSans-38"/>
     <use xlink:href="#DejaVuSans-36" x="63.623047"/>
     <use xlink:href="#DejaVuSans-25" x="127.246094"/>
    </g>
   </g>
   <g id="text_28">
    <!-- No -->
    <g style="fill: #262626" transform="translate(322.095331 223.761538)scale(0.1 -0.1)">
     <use xlink:href="#DejaVuSans-4e"/>
     <use xlink:href="#DejaVuSans-6f" x="74.804688"/>
    </g>
   </g>
   <g id="text_29">
    <!-- 14% -->
    <g style="fill: #262626" transform="translate(288.18513 225.756009)scale(0.1 -0.1)">
     <defs>
      <path id="DejaVuSans-31" d="M 794 531 
L 1825 531 
L 1825 4091 
L 703 3866 
L 703 4441 
L 1819 4666 
L 2450 4666 
L 2450 531 
L 3481 531 
L 3481 0 
L 794 0 
L 794 531 
z
" transform="scale(0.015625)"/>
      <path id="DejaVuSans-34" d="M 2419 4116 
L 825 1625 
L 2419 1625 
L 2419 4116 
z
M 2253 4666 
L 3047 4666 
L 3047 1625 
L 3713 1625 
L 3713 1100 
L 3047 1100 
L 3047 0 
L 2419 0 
L 2419 1100 
L 313 1100 
L 313 1709 
L 2253 4666 
z
" transform="scale(0.015625)"/>
     </defs>
     <use xlink:href="#DejaVuSans-31"/>
     <use xlink:href="#DejaVuSans-34" x="63.623047"/>
     <use xlink:href="#DejaVuSans-25" x="127.246094"/>
    </g>
   </g>
   <g id="text_30">
    <!-- Provider -->
    <g style="fill: #262626" transform="translate(247.240858 162.18)scale(0.12 -0.12)">
     <defs>
      <path id="DejaVuSans-76" d="M 191 3500 
L 800 3500 
L 1894 563 
L 2988 3500 
L 3597 3500 
L 2284 0 
L 1503 0 
L 191 3500 
z
" transform="scale(0.015625)"/>
      <path id="DejaVuSans-64" d="M 2906 2969 
L 2906 4863 
L 3481 4863 
L 3481 0 
L 2906 0 
L 2906 525 
Q 2725 213 2448 61 
Q 2172 -91 1784 -91 
Q 1150 -91 751 415 
Q 353 922 353 1747 
Q 353 2572 751 3078 
Q 1150 3584 1784 3584 
Q 2172 3584 2448 3432 
Q 2725 3281 2906 2969 
z
M 947 1747 
Q 947 1113 1208 752 
Q 1469 391 1925 391 
Q 2381 391 2643 752 
Q 2906 1113 2906 1747 
Q 2906 2381 2643 2742 
Q 2381 3103 1925 3103 
Q 1469 3103 1208 2742 
Q 947 2381 947 1747 
z
" transform="scale(0.015625)"/>
     </defs>
     <use xlink:href="#DejaVuSans-50"/>
     <use xlink:href="#DejaVuSans-72" x="58.552734"/>
     <use xlink:href="#DejaVuSans-6f" x="97.416016"/>
     <use xlink:href="#DejaVuSans-76" x="158.597656"/>
     <use xlink:href="#DejaVuSans-69" x="217.777344"/>
     <use xlink:href="#DejaVuSans-64" x="245.560547"/>
     <use xlink:href="#DejaVuSans-65" x="309.037109"/>
     <use xlink:href="#DejaVuSans-72" x="370.560547"/>
    </g>
   </g>
  </g>
  <g id="axes_7">
   <g id="matplotlib.axis_13"/>
   <g id="matplotlib.axis_14"/>
   <g id="patch_14">
    <path d="M 491.645111 198.59184 
C 487.792985 191.919763 482.317812 186.327116 475.729 182.334241 
C 469.140189 178.341366 461.648621 176.076057 453.951311 175.749079 
L 452.008861 221.47584 
L 491.645111 198.59184 
z
" style="fill: #1f77b4; stroke: #ffffff; stroke-linejoin: miter"/>
   </g>
   <g id="patch_15">
    <path d="M 451.579297 179.663239 
C 446.539464 179.449149 441.498733 180.069732 436.661323 181.499846 
C 431.823914 182.92996 427.256048 185.150027 423.142788 188.070103 
C 419.029528 190.99018 415.427182 194.570291 412.481696 198.665394 
C 409.536209 202.760496 407.287904 207.314529 405.827868 212.142992 
C 404.367832 216.971454 403.716053 222.008247 403.898935 227.049309 
C 404.081818 232.090371 405.09686 237.066693 406.902937 241.776666 
C 408.709014 246.486638 411.281403 250.865783 414.515885 254.736685 
C 417.750368 258.607586 421.602665 261.917254 425.916707 264.531599 
C 430.230748 267.145945 434.947476 269.029179 439.875797 270.105006 
C 444.804119 271.180832 449.876567 271.434523 454.887638 270.8558 
C 459.89871 270.277078 464.779804 268.873864 469.33317 266.703008 
C 473.886536 264.532153 478.04984 261.623374 481.65441 258.094517 
C 485.25898 254.56566 488.255472 250.465035 490.522485 245.958772 
C 492.789499 241.452509 494.296 236.602298 494.980954 231.604639 
C 495.665908 226.60698 495.519939 221.53029 494.548961 216.580244 
C 493.577982 211.630198 491.795286 206.87456 489.273097 202.506 
L 449.636847 225.39 
L 451.579297 179.663239 
z
" style="fill: #ff7f0e; stroke: #ffffff; stroke-linejoin: miter"/>
   </g>
   <g id="text_31">
    <!-- Yes -->
    <g style="fill: #262626" transform="translate(478.101014 181.179456)scale(0.1 -0.1)">
     <use xlink:href="#DejaVuSans-59"/>
     <use xlink:href="#DejaVuSans-65" x="47.833984"/>
     <use xlink:href="#DejaVuSans-73" x="109.357422"/>
    </g>
   </g>
   <g id="text_32">
    <!-- 16% -->
    <g style="fill: #262626" transform="translate(455.127663 200.750256)scale(0.1 -0.1)">
     <use xlink:href="#DejaVuSans-31"/>
     <use xlink:href="#DejaVuSans-36" x="63.623047"/>
     <use xlink:href="#DejaVuSans-25" x="127.246094"/>
    </g>
   </g>
   <g id="text_33">
    <!-- No -->
    <g style="fill: #262626" transform="translate(409.944693 271.205134)scale(0.1 -0.1)">
     <use xlink:href="#DejaVuSans-4e"/>
     <use xlink:href="#DejaVuSans-6f" x="74.804688"/>
    </g>
   </g>
   <g id="text_34">
    <!-- 84% -->
    <g style="fill: #262626" transform="translate(424.291481 251.634334)scale(0.1 -0.1)">
     <use xlink:href="#DejaVuSans-38"/>
     <use xlink:href="#DejaVuSans-34" x="63.623047"/>
     <use xlink:href="#DejaVuSans-25" x="127.246094"/>
    </g>
   </g>
   <g id="text_35">
    <!-- License -->
    <g style="fill: #262626" transform="translate(427.015909 162.18)scale(0.12 -0.12)">
     <defs>
      <path id="DejaVuSans-4c" d="M 628 4666 
L 1259 4666 
L 1259 531 
L 3531 531 
L 3531 0 
L 628 0 
L 628 4666 
z
" transform="scale(0.015625)"/>
     </defs>
     <use xlink:href="#DejaVuSans-4c"/>
     <use xlink:href="#DejaVuSans-69" x="55.712891"/>
     <use xlink:href="#DejaVuSans-63" x="83.496094"/>
     <use xlink:href="#DejaVuSans-65" x="138.476562"/>
     <use xlink:href="#DejaVuSans-6e" x="200"/>
     <use xlink:href="#DejaVuSans-73" x="263.378906"/>
     <use xlink:href="#DejaVuSans-65" x="315.478516"/>
    </g>
   </g>
  </g>
  <g id="axes_8">
   <g id="matplotlib.axis_15"/>
   <g id="matplotlib.axis_16"/>
   <g id="patch_16">
    <path d="M 666.967836 202.506 
C 662.158172 194.175418 654.842438 187.569447 646.065904 183.631945 
C 637.28937 179.694444 627.490933 178.62232 618.070591 180.568757 
C 608.650248 182.515194 600.079094 187.382855 593.581771 194.476251 
C 587.084448 201.569647 582.985875 210.534049 581.871655 220.088628 
L 627.331585 225.39 
L 666.967836 202.506 
z
" style="fill: #1f77b4; stroke: #ffffff; stroke-linejoin: miter"/>
   </g>
   <g id="patch_17">
    <path d="M 581.871655 220.088628 
C 580.872932 228.652797 582.314347 237.327357 586.029068 245.108313 
C 589.743789 252.88927 595.582752 259.464387 602.870156 264.072661 
C 610.157559 268.680935 618.600972 271.137444 627.223154 271.157872 
C 635.845336 271.178299 644.300294 268.761825 651.609451 264.188132 
L 627.331585 225.39 
L 581.871655 220.088628 
z
" style="fill: #ff7f0e; stroke: #ffffff; stroke-linejoin: miter"/>
   </g>
   <g id="patch_18">
    <path d="M 651.609451 264.188132 
C 659.012341 259.555786 664.937031 252.900029 668.680707 245.010397 
C 672.424383 237.120764 673.832921 228.322067 672.739234 219.658046 
L 627.331585 225.39 
L 651.609451 264.188132 
z
" style="fill: #2ca02c; stroke: #ffffff; stroke-linejoin: miter"/>
   </g>
   <g id="patch_19">
    <path d="M 672.739234 219.658046 
C 672.657749 219.012536 672.562508 218.368837 672.453578 217.727388 
C 672.344647 217.085939 672.22205 216.446885 672.085871 215.810663 
L 627.331585 225.39 
L 672.739234 219.658046 
z
" style="fill: #d62728; stroke: #ffffff; stroke-linejoin: miter"/>
   </g>
   <g id="patch_20">
    <path d="M 672.085871 215.810663 
C 671.949692 215.174441 671.799962 214.541195 671.636783 213.911357 
C 671.473604 213.281519 671.297013 212.655233 671.10713 212.032925 
L 627.331585 225.39 
L 672.085871 215.810663 
z
" style="fill: #9467bd; stroke: #ffffff; stroke-linejoin: miter"/>
   </g>
   <g id="patch_21">
    <path d="M 671.10713 212.032925 
C 670.980545 211.618061 670.848068 211.205018 670.70974 210.793921 
C 670.571412 210.382823 670.427247 209.973713 670.277289 209.566714 
L 627.331585 225.39 
L 671.10713 212.032925 
z
" style="fill: #8c564b; stroke: #ffffff; stroke-linejoin: miter"/>
   </g>
   <g id="patch_22">
    <path d="M 670.277289 209.566714 
C 670.20231 209.363217 670.125887 209.160255 670.048023 208.957845 
C 669.97016 208.755434 669.890859 208.55358 669.810127 208.352296 
L 627.331585 225.39 
L 670.277289 209.566714 
z
" style="fill: #e377c2; stroke: #ffffff; stroke-linejoin: miter"/>
   </g>
   <g id="patch_23">
    <path d="M 669.810127 208.352296 
C 669.729394 208.151013 669.647232 207.950306 669.563646 207.750191 
C 669.48006 207.550075 669.395053 207.350557 669.308631 207.15165 
L 627.331585 225.39 
L 669.810127 208.352296 
z
" style="fill: #7f7f7f; stroke: #ffffff; stroke-linejoin: miter"/>
   </g>
   <g id="patch_24">
    <path d="M 669.308631 207.15165 
C 669.222209 206.952743 669.134375 206.754452 669.045134 206.556794 
C 668.955894 206.359136 668.865249 206.162114 668.773208 205.965744 
L 627.331585 225.39 
L 669.308631 207.15165 
z
" style="fill: #bcbd22; stroke: #ffffff; stroke-linejoin: miter"/>
   </g>
   <g id="patch_25">
    <path d="M 668.773208 205.965744 
C 668.681167 205.769374 668.587731 205.573661 668.492907 205.378619 
C 668.398084 205.183577 668.301876 204.989212 668.204289 204.795538 
L 627.331585 225.39 
L 668.773208 205.965744 
z
" style="fill: #17becf; stroke: #ffffff; stroke-linejoin: miter"/>
   </g>
   <g id="patch_26">
    <path d="M 668.204289 204.795538 
C 668.106703 204.601864 668.007742 204.408886 667.907412 204.216618 
C 667.807083 204.024351 667.705388 203.832799 667.602336 203.641978 
L 627.331585 225.39 
L 668.204289 204.795538 
z
" style="fill: #1f77b4; stroke: #ffffff; stroke-linejoin: miter"/>
   </g>
   <g id="patch_27">
    <path d="M 667.602336 203.641978 
C 667.499283 203.451156 667.394876 203.261069 667.289121 203.071731 
C 667.183367 202.882394 667.076268 202.69381 666.967833 202.505995 
L 627.331585 225.39 
L 667.602336 203.641978 
z
" style="fill: #ff7f0e; stroke: #ffffff; stroke-linejoin: miter"/>
   </g>
   <g id="text_36">
    <!-- CC BY 4.0 -->
    <g style="fill: #262626" transform="translate(568.500741 178.846008)scale(0.1 -0.1)">
     <defs>
      <path id="DejaVuSans-43" d="M 4122 4306 
L 4122 3641 
Q 3803 3938 3442 4084 
Q 3081 4231 2675 4231 
Q 1875 4231 1450 3742 
Q 1025 3253 1025 2328 
Q 1025 1406 1450 917 
Q 1875 428 2675 428 
Q 3081 428 3442 575 
Q 3803 722 4122 1019 
L 4122 359 
Q 3791 134 3420 21 
Q 3050 -91 2638 -91 
Q 1578 -91 968 557 
Q 359 1206 359 2328 
Q 359 3453 968 4101 
Q 1578 4750 2638 4750 
Q 3056 4750 3426 4639 
Q 3797 4528 4122 4306 
z
" transform="scale(0.015625)"/>
      <path id="DejaVuSans-20" transform="scale(0.015625)"/>
      <path id="DejaVuSans-42" d="M 1259 2228 
L 1259 519 
L 2272 519 
Q 2781 519 3026 730 
Q 3272 941 3272 1375 
Q 3272 1813 3026 2020 
Q 2781 2228 2272 2228 
L 1259 2228 
z
M 1259 4147 
L 1259 2741 
L 2194 2741 
Q 2656 2741 2882 2914 
Q 3109 3088 3109 3444 
Q 3109 3797 2882 3972 
Q 2656 4147 2194 4147 
L 1259 4147 
z
M 628 4666 
L 2241 4666 
Q 2963 4666 3353 4366 
Q 3744 4066 3744 3513 
Q 3744 3084 3544 2831 
Q 3344 2578 2956 2516 
Q 3422 2416 3680 2098 
Q 3938 1781 3938 1306 
Q 3938 681 3513 340 
Q 3088 0 2303 0 
L 628 0 
L 628 4666 
z
" transform="scale(0.015625)"/>
      <path id="DejaVuSans-2e" d="M 684 794 
L 1344 794 
L 1344 0 
L 684 0 
L 684 794 
z
" transform="scale(0.015625)"/>
      <path id="DejaVuSans-30" d="M 2034 4250 
Q 1547 4250 1301 3770 
Q 1056 3291 1056 2328 
Q 1056 1369 1301 889 
Q 1547 409 2034 409 
Q 2525 409 2770 889 
Q 3016 1369 3016 2328 
Q 3016 3291 2770 3770 
Q 2525 4250 2034 4250 
z
M 2034 4750 
Q 2819 4750 3233 4129 
Q 3647 3509 3647 2328 
Q 3647 1150 3233 529 
Q 2819 -91 2034 -91 
Q 1250 -91 836 529 
Q 422 1150 422 2328 
Q 422 3509 836 4129 
Q 1250 4750 2034 4750 
z
" transform="scale(0.015625)"/>
     </defs>
     <use xlink:href="#DejaVuSans-43"/>
     <use xlink:href="#DejaVuSans-43" x="69.824219"/>
     <use xlink:href="#DejaVuSans-20" x="139.648438"/>
     <use xlink:href="#DejaVuSans-42" x="171.435547"/>
     <use xlink:href="#DejaVuSans-59" x="234.539062"/>
     <use xlink:href="#DejaVuSans-20" x="295.623047"/>
     <use xlink:href="#DejaVuSans-34" x="327.410156"/>
     <use xlink:href="#DejaVuSans-2e" x="391.033203"/>
     <use xlink:href="#DejaVuSans-30" x="422.820312"/>
    </g>
   </g>
   <g id="text_37">
    <!-- 40% -->
    <g style="fill: #262626" transform="translate(610.661707 201.256629)scale(0.1 -0.1)">
     <use xlink:href="#DejaVuSans-34"/>
     <use xlink:href="#DejaVuSans-30" x="63.623047"/>
     <use xlink:href="#DejaVuSans-25" x="127.246094"/>
    </g>
   </g>
   <g id="text_38">
    <!-- CC BY 3.0 -->
    <g style="fill: #262626" transform="translate(551.780263 270.700303)scale(0.1 -0.1)">
     <use xlink:href="#DejaVuSans-43"/>
     <use xlink:href="#DejaVuSans-43" x="69.824219"/>
     <use xlink:href="#DejaVuSans-20" x="139.648438"/>
     <use xlink:href="#DejaVuSans-42" x="171.435547"/>
     <use xlink:href="#DejaVuSans-59" x="234.539062"/>
     <use xlink:href="#DejaVuSans-20" x="295.623047"/>
     <use xlink:href="#DejaVuSans-33" x="327.410156"/>
     <use xlink:href="#DejaVuSans-2e" x="391.033203"/>
     <use xlink:href="#DejaVuSans-30" x="422.820312"/>
    </g>
   </g>
   <g id="text_39">
    <!-- 36% -->
    <g style="fill: #262626" transform="translate(601.541446 251.358972)scale(0.1 -0.1)">
     <use xlink:href="#DejaVuSans-33"/>
     <use xlink:href="#DejaVuSans-36" x="63.623047"/>
     <use xlink:href="#DejaVuSans-25" x="127.246094"/>
    </g>
   </g>
   <g id="text_40">
    <!-- CC0 1.0 -->
    <g style="fill: #262626" transform="translate(672.815619 249.731812)scale(0.1 -0.1)">
     <use xlink:href="#DejaVuSans-43"/>
     <use xlink:href="#DejaVuSans-43" x="69.824219"/>
     <use xlink:href="#DejaVuSans-30" x="139.648438"/>
     <use xlink:href="#DejaVuSans-20" x="203.271484"/>
     <use xlink:href="#DejaVuSans-31" x="235.058594"/>
     <use xlink:href="#DejaVuSans-2e" x="298.681641"/>
     <use xlink:href="#DejaVuSans-30" x="330.46875"/>
    </g>
   </g>
   <g id="text_41">
    <!-- 18% -->
    <g style="fill: #262626" transform="translate(641.027777 239.921613)scale(0.1 -0.1)">
     <use xlink:href="#DejaVuSans-31"/>
     <use xlink:href="#DejaVuSans-38" x="63.623047"/>
     <use xlink:href="#DejaVuSans-25" x="127.246094"/>
    </g>
   </g>
   <g id="text_42">
    <!-- Artistic License 2.0 -->
    <g style="fill: #262626" transform="translate(676.965777 219.720502)scale(0.1 -0.1)">
     <defs>
      <path id="DejaVuSans-41" d="M 2188 4044 
L 1331 1722 
L 3047 1722 
L 2188 4044 
z
M 1831 4666 
L 2547 4666 
L 4325 0 
L 3669 0 
L 3244 1197 
L 1141 1197 
L 716 0 
L 50 0 
L 1831 4666 
z
" transform="scale(0.015625)"/>
     </defs>
     <use xlink:href="#DejaVuSans-41"/>
     <use xlink:href="#DejaVuSans-72" x="68.408203"/>
     <use xlink:href="#DejaVuSans-74" x="109.521484"/>
     <use xlink:href="#DejaVuSans-69" x="148.730469"/>
     <use xlink:href="#DejaVuSans-73" x="176.513672"/>
     <use xlink:href="#DejaVuSans-74" x="228.613281"/>
     <use xlink:href="#DejaVuSans-69" x="267.822266"/>
     <use xlink:href="#DejaVuSans-63" x="295.605469"/>
     <use xlink:href="#DejaVuSans-20" x="350.585938"/>
     <use xlink:href="#DejaVuSans-4c" x="382.373047"/>
     <use xlink:href="#DejaVuSans-69" x="438.085938"/>
     <use xlink:href="#DejaVuSans-63" x="465.869141"/>
     <use xlink:href="#DejaVuSans-65" x="520.849609"/>
     <use xlink:href="#DejaVuSans-6e" x="582.373047"/>
     <use xlink:href="#DejaVuSans-73" x="645.751953"/>
     <use xlink:href="#DejaVuSans-65" x="697.851562"/>
     <use xlink:href="#DejaVuSans-20" x="759.375"/>
     <use xlink:href="#DejaVuSans-32" x="791.162109"/>
     <use xlink:href="#DejaVuSans-2e" x="854.785156"/>
     <use xlink:href="#DejaVuSans-30" x="886.572266"/>
    </g>
   </g>
   <g id="text_43">
    <!-- 1% -->
    <g style="fill: #262626" transform="translate(646.472749 223.551808)scale(0.1 -0.1)">
     <use xlink:href="#DejaVuSans-31"/>
     <use xlink:href="#DejaVuSans-25" x="63.623047"/>
    </g>
   </g>
   <g id="text_44">
    <!-- CC BY 2.0 -->
    <g style="fill: #262626" transform="translate(676.067303 215.522868)scale(0.1 -0.1)">
     <use xlink:href="#DejaVuSans-43"/>
     <use xlink:href="#DejaVuSans-43" x="69.824219"/>
     <use xlink:href="#DejaVuSans-20" x="139.648438"/>
     <use xlink:href="#DejaVuSans-42" x="171.435547"/>
     <use xlink:href="#DejaVuSans-59" x="234.539062"/>
     <use xlink:href="#DejaVuSans-20" x="295.623047"/>
     <use xlink:href="#DejaVuSans-32" x="327.410156"/>
     <use xlink:href="#DejaVuSans-2e" x="391.033203"/>
     <use xlink:href="#DejaVuSans-30" x="422.820312"/>
    </g>
   </g>
   <g id="text_45">
    <!-- 1% -->
    <g style="fill: #262626" transform="translate(645.982673 221.262189)scale(0.1 -0.1)">
     <use xlink:href="#DejaVuSans-31"/>
     <use xlink:href="#DejaVuSans-25" x="63.623047"/>
    </g>
   </g>
   <g id="text_46">
    <!-- Apache 2.0 License -->
    <g style="fill: #262626" transform="translate(675.047555 212.093688)scale(0.1 -0.1)">
     <defs>
      <path id="DejaVuSans-68" d="M 3513 2113 
L 3513 0 
L 2938 0 
L 2938 2094 
Q 2938 2591 2744 2837 
Q 2550 3084 2163 3084 
Q 1697 3084 1428 2787 
Q 1159 2491 1159 1978 
L 1159 0 
L 581 0 
L 581 4863 
L 1159 4863 
L 1159 2956 
Q 1366 3272 1645 3428 
Q 1925 3584 2291 3584 
Q 2894 3584 3203 3211 
Q 3513 2838 3513 2113 
z
" transform="scale(0.015625)"/>
     </defs>
     <use xlink:href="#DejaVuSans-41"/>
     <use xlink:href="#DejaVuSans-70" x="68.408203"/>
     <use xlink:href="#DejaVuSans-61" x="131.884766"/>
     <use xlink:href="#DejaVuSans-63" x="193.164062"/>
     <use xlink:href="#DejaVuSans-68" x="248.144531"/>
     <use xlink:href="#DejaVuSans-65" x="311.523438"/>
     <use xlink:href="#DejaVuSans-20" x="373.046875"/>
     <use xlink:href="#DejaVuSans-32" x="404.833984"/>
     <use xlink:href="#DejaVuSans-2e" x="468.457031"/>
     <use xlink:href="#DejaVuSans-30" x="500.244141"/>
     <use xlink:href="#DejaVuSans-20" x="563.867188"/>
     <use xlink:href="#DejaVuSans-4c" x="595.654297"/>
     <use xlink:href="#DejaVuSans-69" x="651.367188"/>
     <use xlink:href="#DejaVuSans-63" x="679.150391"/>
     <use xlink:href="#DejaVuSans-65" x="734.130859"/>
     <use xlink:href="#DejaVuSans-6e" x="795.654297"/>
     <use xlink:href="#DejaVuSans-73" x="859.033203"/>
     <use xlink:href="#DejaVuSans-65" x="911.132812"/>
    </g>
   </g>
   <g id="text_47">
    <!-- 1% -->
    <g style="fill: #262626" transform="translate(645.426447 219.391727)scale(0.1 -0.1)">
     <use xlink:href="#DejaVuSans-31"/>
     <use xlink:href="#DejaVuSans-25" x="63.623047"/>
    </g>
   </g>
   <g id="text_48">
    <!-- CC-BY -->
    <g style="fill: #262626" transform="translate(674.319667 210.074004)scale(0.1 -0.1)">
     <defs>
      <path id="DejaVuSans-2d" d="M 313 2009 
L 1997 2009 
L 1997 1497 
L 313 1497 
L 313 2009 
z
" transform="scale(0.015625)"/>
     </defs>
     <use xlink:href="#DejaVuSans-43"/>
     <use xlink:href="#DejaVuSans-43" x="69.824219"/>
     <use xlink:href="#DejaVuSans-2d" x="139.648438"/>
     <use xlink:href="#DejaVuSans-42" x="172.107422"/>
     <use xlink:href="#DejaVuSans-59" x="235.210938"/>
    </g>
   </g>
   <g id="text_49">
    <!-- 0% -->
    <g style="fill: #262626" transform="translate(645.029417 218.290082)scale(0.1 -0.1)">
     <use xlink:href="#DejaVuSans-30"/>
     <use xlink:href="#DejaVuSans-25" x="63.623047"/>
    </g>
   </g>
   <g id="text_50">
    <!-- CC BY-SA 4.0 -->
    <g style="fill: #262626" transform="translate(673.786852 208.745585)scale(0.1 -0.1)">
     <defs>
      <path id="DejaVuSans-53" d="M 3425 4513 
L 3425 3897 
Q 3066 4069 2747 4153 
Q 2428 4238 2131 4238 
Q 1616 4238 1336 4038 
Q 1056 3838 1056 3469 
Q 1056 3159 1242 3001 
Q 1428 2844 1947 2747 
L 2328 2669 
Q 3034 2534 3370 2195 
Q 3706 1856 3706 1288 
Q 3706 609 3251 259 
Q 2797 -91 1919 -91 
Q 1588 -91 1214 -16 
Q 841 59 441 206 
L 441 856 
Q 825 641 1194 531 
Q 1563 422 1919 422 
Q 2459 422 2753 634 
Q 3047 847 3047 1241 
Q 3047 1584 2836 1778 
Q 2625 1972 2144 2069 
L 1759 2144 
Q 1053 2284 737 2584 
Q 422 2884 422 3419 
Q 422 4038 858 4394 
Q 1294 4750 2059 4750 
Q 2388 4750 2728 4690 
Q 3069 4631 3425 4513 
z
" transform="scale(0.015625)"/>
     </defs>
     <use xlink:href="#DejaVuSans-43"/>
     <use xlink:href="#DejaVuSans-43" x="69.824219"/>
     <use xlink:href="#DejaVuSans-20" x="139.648438"/>
     <use xlink:href="#DejaVuSans-42" x="171.435547"/>
     <use xlink:href="#DejaVuSans-59" x="234.539062"/>
     <use xlink:href="#DejaVuSans-2d" x="283.748047"/>
     <use xlink:href="#DejaVuSans-53" x="319.832031"/>
     <use xlink:href="#DejaVuSans-41" x="385.183594"/>
     <use xlink:href="#DejaVuSans-20" x="453.591797"/>
     <use xlink:href="#DejaVuSans-34" x="485.378906"/>
     <use xlink:href="#DejaVuSans-2e" x="549.001953"/>
     <use xlink:href="#DejaVuSans-30" x="580.789062"/>
    </g>
   </g>
   <g id="text_51">
    <!-- 0% -->
    <g style="fill: #262626" transform="translate(644.73879 217.565489)scale(0.1 -0.1)">
     <use xlink:href="#DejaVuSans-30"/>
     <use xlink:href="#DejaVuSans-25" x="63.623047"/>
    </g>
   </g>
   <g id="text_52">
    <!-- CC BY-SA 2.0 -->
    <g style="fill: #262626" transform="translate(673.216489 207.432848)scale(0.1 -0.1)">
     <use xlink:href="#DejaVuSans-43"/>
     <use xlink:href="#DejaVuSans-43" x="69.824219"/>
     <use xlink:href="#DejaVuSans-20" x="139.648438"/>
     <use xlink:href="#DejaVuSans-42" x="171.435547"/>
     <use xlink:href="#DejaVuSans-59" x="234.539062"/>
     <use xlink:href="#DejaVuSans-2d" x="283.748047"/>
     <use xlink:href="#DejaVuSans-53" x="319.832031"/>
     <use xlink:href="#DejaVuSans-41" x="385.183594"/>
     <use xlink:href="#DejaVuSans-20" x="453.591797"/>
     <use xlink:href="#DejaVuSans-32" x="485.378906"/>
     <use xlink:href="#DejaVuSans-2e" x="549.001953"/>
     <use xlink:href="#DejaVuSans-30" x="580.789062"/>
    </g>
   </g>
   <g id="text_53">
    <!-- 0% -->
    <g style="fill: #262626" transform="translate(644.427683 216.849451)scale(0.1 -0.1)">
     <use xlink:href="#DejaVuSans-30"/>
     <use xlink:href="#DejaVuSans-25" x="63.623047"/>
    </g>
   </g>
   <g id="text_54">
    <!-- hpo -->
    <g style="fill: #262626" transform="translate(672.60904 206.136856)scale(0.1 -0.1)">
     <use xlink:href="#DejaVuSans-68"/>
     <use xlink:href="#DejaVuSans-70" x="63.378906"/>
     <use xlink:href="#DejaVuSans-6f" x="126.855469"/>
    </g>
   </g>
   <g id="text_55">
    <!-- 0% -->
    <g style="fill: #262626" transform="translate(644.096347 216.142546)scale(0.1 -0.1)">
     <use xlink:href="#DejaVuSans-30"/>
     <use xlink:href="#DejaVuSans-25" x="63.623047"/>
    </g>
   </g>
   <g id="text_56">
    <!-- CC BY-NC-SA 2.0 -->
    <g style="fill: #262626" transform="translate(671.964995 204.858655)scale(0.1 -0.1)">
     <use xlink:href="#DejaVuSans-43"/>
     <use xlink:href="#DejaVuSans-43" x="69.824219"/>
     <use xlink:href="#DejaVuSans-20" x="139.648438"/>
     <use xlink:href="#DejaVuSans-42" x="171.435547"/>
     <use xlink:href="#DejaVuSans-59" x="234.539062"/>
     <use xlink:href="#DejaVuSans-2d" x="283.748047"/>
     <use xlink:href="#DejaVuSans-4e" x="319.832031"/>
     <use xlink:href="#DejaVuSans-43" x="394.636719"/>
     <use xlink:href="#DejaVuSans-2d" x="464.460938"/>
     <use xlink:href="#DejaVuSans-53" x="500.544922"/>
     <use xlink:href="#DejaVuSans-41" x="565.896484"/>
     <use xlink:href="#DejaVuSans-20" x="634.304688"/>
     <use xlink:href="#DejaVuSans-32" x="666.091797"/>
     <use xlink:href="#DejaVuSans-2e" x="729.714844"/>
     <use xlink:href="#DejaVuSans-30" x="761.501953"/>
    </g>
   </g>
   <g id="text_57">
    <!-- 0% -->
    <g style="fill: #262626" transform="translate(643.74505 215.445346)scale(0.1 -0.1)">
     <use xlink:href="#DejaVuSans-30"/>
     <use xlink:href="#DejaVuSans-25" x="63.623047"/>
    </g>
   </g>
   <g id="text_58">
    <!-- GPL-3.0 -->
    <g style="fill: #262626" transform="translate(671.284875 203.599279)scale(0.1 -0.1)">
     <defs>
      <path id="DejaVuSans-47" d="M 3809 666 
L 3809 1919 
L 2778 1919 
L 2778 2438 
L 4434 2438 
L 4434 434 
Q 4069 175 3628 42 
Q 3188 -91 2688 -91 
Q 1594 -91 976 548 
Q 359 1188 359 2328 
Q 359 3472 976 4111 
Q 1594 4750 2688 4750 
Q 3144 4750 3555 4637 
Q 3966 4525 4313 4306 
L 4313 3634 
Q 3963 3931 3569 4081 
Q 3175 4231 2741 4231 
Q 1884 4231 1454 3753 
Q 1025 3275 1025 2328 
Q 1025 1384 1454 906 
Q 1884 428 2741 428 
Q 3075 428 3337 486 
Q 3600 544 3809 666 
z
" transform="scale(0.015625)"/>
     </defs>
     <use xlink:href="#DejaVuSans-47"/>
     <use xlink:href="#DejaVuSans-50" x="77.490234"/>
     <use xlink:href="#DejaVuSans-4c" x="137.792969"/>
     <use xlink:href="#DejaVuSans-2d" x="191.755859"/>
     <use xlink:href="#DejaVuSans-33" x="227.839844"/>
     <use xlink:href="#DejaVuSans-2e" x="291.462891"/>
     <use xlink:href="#DejaVuSans-30" x="323.25"/>
    </g>
   </g>
   <g id="text_59">
    <!-- 0% -->
    <g style="fill: #262626" transform="translate(643.374076 214.758414)scale(0.1 -0.1)">
     <use xlink:href="#DejaVuSans-30"/>
     <use xlink:href="#DejaVuSans-25" x="63.623047"/>
    </g>
   </g>
   <g id="text_60">
    <!-- License Type -->
    <g style="fill: #262626" transform="translate(589.024398 162.18)scale(0.12 -0.12)">
     <defs>
      <path id="DejaVuSans-54" d="M -19 4666 
L 3928 4666 
L 3928 4134 
L 2272 4134 
L 2272 0 
L 1638 0 
L 1638 4134 
L -19 4134 
L -19 4666 
z
" transform="scale(0.015625)"/>
      <path id="DejaVuSans-79" d="M 2059 -325 
Q 1816 -950 1584 -1140 
Q 1353 -1331 966 -1331 
L 506 -1331 
L 506 -850 
L 844 -850 
Q 1081 -850 1212 -737 
Q 1344 -625 1503 -206 
L 1606 56 
L 191 3500 
L 800 3500 
L 1894 763 
L 2988 3500 
L 3597 3500 
L 2059 -325 
z
" transform="scale(0.015625)"/>
     </defs>
     <use xlink:href="#DejaVuSans-4c"/>
     <use xlink:href="#DejaVuSans-69" x="55.712891"/>
     <use xlink:href="#DejaVuSans-63" x="83.496094"/>
     <use xlink:href="#DejaVuSans-65" x="138.476562"/>
     <use xlink:href="#DejaVuSans-6e" x="200"/>
     <use xlink:href="#DejaVuSans-73" x="263.378906"/>
     <use xlink:href="#DejaVuSans-65" x="315.478516"/>
     <use xlink:href="#DejaVuSans-20" x="377.001953"/>
     <use xlink:href="#DejaVuSans-54" x="408.789062"/>
     <use xlink:href="#DejaVuSans-79" x="454.248047"/>
     <use xlink:href="#DejaVuSans-70" x="513.427734"/>
     <use xlink:href="#DejaVuSans-65" x="576.904297"/>
    </g>
   </g>
  </g>
  <g id="axes_9">
   <g id="matplotlib.axis_17"/>
   <g id="matplotlib.axis_18"/>
   <g id="patch_28">
    <path d="M 136.0113 339.753831 
C 131.683183 332.257311 125.315838 326.140283 117.651852 322.116139 
C 109.987867 318.091996 101.337228 316.323502 92.70881 317.016909 
L 96.37505 362.637831 
L 136.0113 339.753831 
z
" style="fill: #1f77b4; stroke: #ffffff; stroke-linejoin: miter"/>
   </g>
   <g id="patch_29">
    <path d="M 90.58113 321.069078 
C 85.670299 321.463728 80.855251 322.648735 76.322166 324.57828 
C 71.789081 326.507826 67.597147 329.156715 63.90845 332.422526 
C 60.219753 335.688336 57.082456 339.528427 54.617867 343.794316 
C 52.153278 348.060204 50.393576 352.696191 49.406804 357.523021 
C 48.420031 362.349851 48.219071 367.304499 48.811695 372.195389 
C 49.404318 377.086279 50.782787 381.84955 52.893802 386.301024 
C 55.004816 390.752499 57.820812 394.834054 61.232906 398.387871 
C 64.645 401.941689 68.608641 404.921367 72.970569 407.211693 
C 77.332497 409.502018 82.035758 411.073087 86.898496 411.864151 
C 91.761235 412.655215 96.719957 412.655945 101.582928 411.866315 
C 106.445899 411.076684 111.149624 409.507002 115.512226 407.217962 
C 119.874829 404.928922 123.839347 401.950412 127.252489 398.3976 
C 130.66563 394.844788 133.482829 390.764063 135.595155 386.313211 
C 137.707481 381.862359 139.087354 377.099495 139.681419 372.20878 
C 140.275484 367.318065 140.075985 362.363358 139.090635 357.536237 
C 138.105285 352.709117 136.34695 348.072611 133.883618 343.805996 
L 94.247369 366.69 
L 90.58113 321.069078 
z
" style="fill: #ff7f0e; stroke: #ffffff; stroke-linejoin: miter"/>
   </g>
   <g id="text_61">
    <!-- Yes -->
    <g style="fill: #262626" transform="translate(119.779532 320.823345)scale(0.1 -0.1)">
     <use xlink:href="#DejaVuSans-59"/>
     <use xlink:href="#DejaVuSans-65" x="47.833984"/>
     <use xlink:href="#DejaVuSans-73" x="109.357422"/>
    </g>
   </g>
   <g id="text_62">
    <!-- 18% -->
    <g style="fill: #262626" transform="translate(98.02785 341.084191)scale(0.1 -0.1)">
     <use xlink:href="#DejaVuSans-31"/>
     <use xlink:href="#DejaVuSans-38" x="63.623047"/>
     <use xlink:href="#DejaVuSans-25" x="127.246094"/>
    </g>
   </g>
   <g id="text_63">
    <!-- No -->
    <g style="fill: #262626" transform="translate(57.242889 414.023237)scale(0.1 -0.1)">
     <use xlink:href="#DejaVuSans-4e"/>
     <use xlink:href="#DejaVuSans-6f" x="74.804688"/>
    </g>
   </g>
   <g id="text_64">
    <!-- 82% -->
    <g style="fill: #262626" transform="translate(70.368008 393.762391)scale(0.1 -0.1)">
     <use xlink:href="#DejaVuSans-38"/>
     <use xlink:href="#DejaVuSans-32" x="63.623047"/>
     <use xlink:href="#DejaVuSans-25" x="127.246094"/>
    </g>
   </g>
   <g id="text_65">
    <!-- Version -->
    <g style="fill: #262626" transform="translate(72.183307 303.48)scale(0.12 -0.12)">
     <defs>
      <path id="DejaVuSans-56" d="M 1831 0 
L 50 4666 
L 709 4666 
L 2188 738 
L 3669 4666 
L 4325 4666 
L 2547 0 
L 1831 0 
z
" transform="scale(0.015625)"/>
     </defs>
     <use xlink:href="#DejaVuSans-56"/>
     <use xlink:href="#DejaVuSans-65" x="60.658203"/>
     <use xlink:href="#DejaVuSans-72" x="122.181641"/>
     <use xlink:href="#DejaVuSans-73" x="163.294922"/>
     <use xlink:href="#DejaVuSans-69" x="215.394531"/>
     <use xlink:href="#DejaVuSans-6f" x="243.177734"/>
     <use xlink:href="#DejaVuSans-6e" x="304.359375"/>
    </g>
   </g>
  </g>
  <g id="axes_10">
   <g id="matplotlib.axis_19"/>
   <g id="matplotlib.axis_20"/>
   <g id="patch_30">
    <path d="M 313.414236 339.613548 
C 308.534437 331.161488 301.076776 324.48787 292.136764 320.573032 
C 283.196753 316.658194 273.234683 315.703698 263.713959 317.849758 
L 273.777986 362.497548 
L 313.414236 339.613548 
z
" style="fill: #1f77b4; stroke: #ffffff; stroke-linejoin: miter"/>
   </g>
   <g id="patch_31">
    <path d="M 261.878081 322.04221 
C 257.204461 323.095687 252.725104 324.876496 248.603896 327.319482 
C 244.482687 329.762468 240.770508 332.837471 237.603174 336.431985 
C 234.43584 340.0265 231.852455 344.096149 229.947538 348.492036 
C 228.04262 352.887924 226.839687 357.555779 226.382751 362.32482 
C 225.925814 367.09386 226.220516 371.905208 227.256073 376.582832 
C 228.29163 381.260455 230.055258 385.746604 232.482431 389.877145 
C 234.909604 394.007687 237.970356 397.731624 241.552705 400.912712 
C 245.135054 404.093799 249.194771 406.692763 253.583325 408.614515 
C 257.97188 410.536267 262.63509 411.757081 267.402344 412.232292 
C 272.169599 412.707503 276.982041 412.431244 281.663599 411.413623 
C 286.345157 410.396001 290.838032 408.649581 294.977846 406.238256 
C 299.11766 403.826932 302.853301 400.780475 306.048095 397.210345 
C 309.242889 393.640215 311.857393 389.590488 313.795951 385.209332 
C 315.734509 380.828175 316.973187 376.169678 317.466666 371.40428 
C 317.960145 366.638882 317.702333 361.825417 316.702662 357.139993 
C 315.702991 352.454568 313.973803 347.955033 311.578363 343.806007 
L 271.942108 366.69 
L 261.878081 322.04221 
z
" style="fill: #ff7f0e; stroke: #ffffff; stroke-linejoin: miter"/>
   </g>
   <g id="text_66">
    <!-- Yes -->
    <g style="fill: #262626" transform="translate(293.972642 319.139955)scale(0.1 -0.1)">
     <use xlink:href="#DejaVuSans-59"/>
     <use xlink:href="#DejaVuSans-65" x="47.833984"/>
     <use xlink:href="#DejaVuSans-73" x="109.357422"/>
    </g>
   </g>
   <g id="text_67">
    <!-- 20% -->
    <g style="fill: #262626" transform="translate(273.679972 340.102214)scale(0.1 -0.1)">
     <use xlink:href="#DejaVuSans-32"/>
     <use xlink:href="#DejaVuSans-30" x="63.623047"/>
     <use xlink:href="#DejaVuSans-25" x="127.246094"/>
    </g>
   </g>
   <g id="text_68">
    <!-- No -->
    <g style="fill: #262626" transform="translate(238.147447 415.566341)scale(0.1 -0.1)">
     <use xlink:href="#DejaVuSans-4e"/>
     <use xlink:href="#DejaVuSans-6f" x="74.804688"/>
    </g>
   </g>
   <g id="text_69">
    <!-- 80% -->
    <g style="fill: #262626" transform="translate(249.813557 394.604084)scale(0.1 -0.1)">
     <use xlink:href="#DejaVuSans-38"/>
     <use xlink:href="#DejaVuSans-30" x="63.623047"/>
     <use xlink:href="#DejaVuSans-25" x="127.246094"/>
    </g>
   </g>
   <g id="text_70">
    <!-- Contact Email -->
    <g style="fill: #262626" transform="translate(230.045233 303.48)scale(0.12 -0.12)">
     <use xlink:href="#DejaVuSans-43"/>
     <use xlink:href="#DejaVuSans-6f" x="69.824219"/>
     <use xlink:href="#DejaVuSans-6e" x="131.005859"/>
     <use xlink:href="#DejaVuSans-74" x="194.384766"/>
     <use xlink:href="#DejaVuSans-61" x="233.59375"/>
     <use xlink:href="#DejaVuSans-63" x="294.873047"/>
     <use xlink:href="#DejaVuSans-74" x="349.853516"/>
     <use xlink:href="#DejaVuSans-20" x="389.0625"/>
     <use xlink:href="#DejaVuSans-45" x="420.849609"/>
     <use xlink:href="#DejaVuSans-6d" x="484.033203"/>
     <use xlink:href="#DejaVuSans-61" x="581.445312"/>
     <use xlink:href="#DejaVuSans-69" x="642.724609"/>
     <use xlink:href="#DejaVuSans-6c" x="670.507812"/>
    </g>
   </g>
  </g>
  <g id="axes_11">
   <g id="matplotlib.axis_21"/>
   <g id="matplotlib.axis_22"/>
   <g id="patch_32">
    <path d="M 492.792968 340.880661 
C 491.496835 338.635693 490.012312 336.504896 488.355421 334.511267 
C 486.698531 332.517639 484.875255 330.668377 482.905272 328.983441 
L 453.156717 363.764661 
L 492.792968 340.880661 
z
" style="fill: #1f77b4; stroke: #ffffff; stroke-linejoin: miter"/>
   </g>
   <g id="patch_33">
    <path d="M 479.385402 331.90878 
C 475.066308 328.214637 470.096657 325.357117 464.731224 323.482713 
C 459.36579 321.60831 453.697855 320.749611 448.017991 320.950639 
C 442.338127 321.151667 436.745083 322.408926 431.52559 324.657962 
C 426.306097 326.906998 421.550901 330.10871 417.503781 334.098959 
C 413.456661 338.089208 410.18798 342.798621 407.865308 347.985765 
C 405.542637 353.172909 404.206357 358.747602 403.924974 364.424053 
C 403.643591 370.100503 404.421997 375.780022 406.220287 381.171443 
C 408.018577 386.562864 410.805486 391.572454 414.43814 395.943391 
C 418.070794 400.314328 422.486037 403.97062 427.457518 406.724825 
C 432.428999 409.47903 437.870285 411.283263 443.502423 412.045029 
C 449.134561 412.806795 454.859632 412.51285 460.384137 411.178263 
C 465.908641 409.843677 471.13653 407.491651 475.799791 404.242765 
C 480.463052 400.993879 484.480612 396.904617 487.646506 392.184619 
C 490.8124 387.464621 493.071587 382.195947 494.308248 376.648701 
C 495.544908 371.101456 495.737543 365.37208 494.876275 359.754297 
C 494.015007 354.136515 492.11481 348.727993 489.273101 343.806006 
L 449.636847 366.69 
L 479.385402 331.90878 
z
" style="fill: #ff7f0e; stroke: #ffffff; stroke-linejoin: miter"/>
   </g>
   <g id="text_71">
    <!-- Yes -->
    <g style="fill: #262626" transform="translate(491.875292 334.345303)scale(0.1 -0.1)">
     <use xlink:href="#DejaVuSans-59"/>
     <use xlink:href="#DejaVuSans-65" x="47.833984"/>
     <use xlink:href="#DejaVuSans-73" x="109.357422"/>
    </g>
   </g>
   <g id="text_72">
    <!-- 5% -->
    <g style="fill: #262626" transform="translate(466.343908 348.972)scale(0.1 -0.1)">
     <defs>
      <path id="DejaVuSans-35" d="M 691 4666 
L 3169 4666 
L 3169 4134 
L 1269 4134 
L 1269 2991 
Q 1406 3038 1543 3061 
Q 1681 3084 1819 3084 
Q 2600 3084 3056 2656 
Q 3513 2228 3513 1497 
Q 3513 744 3044 326 
Q 2575 -91 1722 -91 
Q 1428 -91 1123 -41 
Q 819 9 494 109 
L 494 744 
Q 775 591 1075 516 
Q 1375 441 1709 441 
Q 2250 441 2565 725 
Q 2881 1009 2881 1497 
Q 2881 1984 2565 2268 
Q 2250 2553 1709 2553 
Q 1456 2553 1204 2497 
Q 953 2441 691 2322 
L 691 4666 
z
" transform="scale(0.015625)"/>
     </defs>
     <use xlink:href="#DejaVuSans-35"/>
     <use xlink:href="#DejaVuSans-25" x="63.623047"/>
    </g>
   </g>
   <g id="text_73">
    <!-- No -->
    <g style="fill: #262626" transform="translate(397.318269 401.628105)scale(0.1 -0.1)">
     <use xlink:href="#DejaVuSans-4e"/>
     <use xlink:href="#DejaVuSans-6f" x="74.804688"/>
    </g>
   </g>
   <g id="text_74">
    <!-- 95% -->
    <g style="fill: #262626" transform="translate(417.404341 387.001409)scale(0.1 -0.1)">
     <use xlink:href="#DejaVuSans-39"/>
     <use xlink:href="#DejaVuSans-35" x="63.623047"/>
     <use xlink:href="#DejaVuSans-25" x="127.246094"/>
    </g>
   </g>
   <g id="text_75">
    <!-- Wikidata Database -->
    <g style="fill: #262626" transform="translate(392.979972 303.48)scale(0.12 -0.12)">
     <defs>
      <path id="DejaVuSans-57" d="M 213 4666 
L 850 4666 
L 1831 722 
L 2809 4666 
L 3519 4666 
L 4500 722 
L 5478 4666 
L 6119 4666 
L 4947 0 
L 4153 0 
L 3169 4050 
L 2175 0 
L 1381 0 
L 213 4666 
z
" transform="scale(0.015625)"/>
      <path id="DejaVuSans-6b" d="M 581 4863 
L 1159 4863 
L 1159 1991 
L 2875 3500 
L 3609 3500 
L 1753 1863 
L 3688 0 
L 2938 0 
L 1159 1709 
L 1159 0 
L 581 0 
L 581 4863 
z
" transform="scale(0.015625)"/>
      <path id="DejaVuSans-62" d="M 3116 1747 
Q 3116 2381 2855 2742 
Q 2594 3103 2138 3103 
Q 1681 3103 1420 2742 
Q 1159 2381 1159 1747 
Q 1159 1113 1420 752 
Q 1681 391 2138 391 
Q 2594 391 2855 752 
Q 3116 1113 3116 1747 
z
M 1159 2969 
Q 1341 3281 1617 3432 
Q 1894 3584 2278 3584 
Q 2916 3584 3314 3078 
Q 3713 2572 3713 1747 
Q 3713 922 3314 415 
Q 2916 -91 2278 -91 
Q 1894 -91 1617 61 
Q 1341 213 1159 525 
L 1159 0 
L 581 0 
L 581 4863 
L 1159 4863 
L 1159 2969 
z
" transform="scale(0.015625)"/>
     </defs>
     <use xlink:href="#DejaVuSans-57"/>
     <use xlink:href="#DejaVuSans-69" x="96.626953"/>
     <use xlink:href="#DejaVuSans-6b" x="124.410156"/>
     <use xlink:href="#DejaVuSans-69" x="182.320312"/>
     <use xlink:href="#DejaVuSans-64" x="210.103516"/>
     <use xlink:href="#DejaVuSans-61" x="273.580078"/>
     <use xlink:href="#DejaVuSans-74" x="334.859375"/>
     <use xlink:href="#DejaVuSans-61" x="374.068359"/>
     <use xlink:href="#DejaVuSans-20" x="435.347656"/>
     <use xlink:href="#DejaVuSans-44" x="467.134766"/>
     <use xlink:href="#DejaVuSans-61" x="544.136719"/>
     <use xlink:href="#DejaVuSans-74" x="605.416016"/>
     <use xlink:href="#DejaVuSans-61" x="644.625"/>
     <use xlink:href="#DejaVuSans-62" x="705.904297"/>
     <use xlink:href="#DejaVuSans-61" x="769.380859"/>
     <use xlink:href="#DejaVuSans-73" x="830.660156"/>
     <use xlink:href="#DejaVuSans-65" x="882.759766"/>
    </g>
   </g>
  </g>
  <g id="axes_12">
   <g id="matplotlib.axis_23"/>
   <g id="matplotlib.axis_24"/>
   <g id="patch_34">
    <path d="M 670.04792 340.420711 
C 667.686416 336.330466 664.705942 332.630301 661.212509 329.451822 
C 657.719075 326.273343 653.754597 323.654688 649.460082 321.688995 
L 630.411669 363.304711 
L 670.04792 340.420711 
z
" style="fill: #1f77b4; stroke: #ffffff; stroke-linejoin: miter"/>
   </g>
   <g id="patch_35">
    <path d="M 646.379998 325.074284 
C 641.455471 322.820222 636.169714 321.458053 630.769131 321.051276 
C 625.368548 320.6445 619.938385 321.199538 614.731779 322.690515 
C 609.525173 324.181492 604.624306 326.584875 600.257643 329.788625 
C 595.89098 332.992375 592.127445 336.945923 589.142483 341.464967 
C 586.15752 345.984011 583.998246 350.997221 582.765319 356.270897 
C 581.532391 361.544572 581.245272 366.995471 581.917345 372.36949 
C 582.589418 377.743509 584.210075 382.955822 586.703767 387.763448 
C 589.197458 392.571073 592.524823 396.898126 596.530749 400.542892 
C 600.536674 404.187658 605.157931 407.092607 610.179089 409.122319 
C 615.200247 411.152031 620.542051 412.274469 625.955483 412.437308 
C 631.368915 412.600146 636.768527 411.800816 641.902606 410.076578 
C 647.036685 408.352341 651.824193 405.730412 656.04195 402.333019 
C 660.259708 398.935625 663.841141 394.816392 666.619293 390.167347 
C 669.397446 385.518301 671.328468 380.412824 672.32234 375.088917 
C 673.316212 369.765011 673.357247 364.306709 672.443531 358.968462 
C 671.529816 353.630215 669.675773 348.496282 666.967832 343.805993 
L 627.331585 366.69 
L 646.379998 325.074284 
z
" style="fill: #ff7f0e; stroke: #ffffff; stroke-linejoin: miter"/>
   </g>
   <g id="text_76">
    <!-- Yes -->
    <g style="fill: #262626" transform="translate(664.292593 328.825908)scale(0.1 -0.1)">
     <use xlink:href="#DejaVuSans-59"/>
     <use xlink:href="#DejaVuSans-65" x="47.833984"/>
     <use xlink:href="#DejaVuSans-73" x="109.357422"/>
    </g>
   </g>
   <g id="text_77">
    <!-- 10% -->
    <g style="fill: #262626" transform="translate(637.778892 345.752353)scale(0.1 -0.1)">
     <use xlink:href="#DejaVuSans-31"/>
     <use xlink:href="#DejaVuSans-30" x="63.623047"/>
     <use xlink:href="#DejaVuSans-25" x="127.246094"/>
    </g>
   </g>
   <g id="text_78">
    <!-- No -->
    <g style="fill: #262626" transform="translate(579.850665 406.687556)scale(0.1 -0.1)">
     <use xlink:href="#DejaVuSans-4e"/>
     <use xlink:href="#DejaVuSans-6f" x="74.804688"/>
    </g>
   </g>
   <g id="text_79">
    <!-- 90% -->
    <g style="fill: #262626" transform="translate(597.737802 389.76111)scale(0.1 -0.1)">
     <use xlink:href="#DejaVuSans-39"/>
     <use xlink:href="#DejaVuSans-30" x="63.623047"/>
     <use xlink:href="#DejaVuSans-25" x="127.246094"/>
    </g>
   </g>
   <g id="text_80">
    <!-- OBO -->
    <g style="fill: #262626" transform="translate(613.873773 303.48)scale(0.12 -0.12)">
     <defs>
      <path id="DejaVuSans-4f" d="M 2522 4238 
Q 1834 4238 1429 3725 
Q 1025 3213 1025 2328 
Q 1025 1447 1429 934 
Q 1834 422 2522 422 
Q 3209 422 3611 934 
Q 4013 1447 4013 2328 
Q 4013 3213 3611 3725 
Q 3209 4238 2522 4238 
z
M 2522 4750 
Q 3503 4750 4090 4092 
Q 4678 3434 4678 2328 
Q 4678 1225 4090 567 
Q 3503 -91 2522 -91 
Q 1538 -91 948 565 
Q 359 1222 359 2328 
Q 359 3434 948 4092 
Q 1538 4750 2522 4750 
z
" transform="scale(0.015625)"/>
     </defs>
     <use xlink:href="#DejaVuSans-4f"/>
     <use xlink:href="#DejaVuSans-42" x="78.710938"/>
     <use xlink:href="#DejaVuSans-4f" x="145.564453"/>
    </g>
   </g>
  </g>
  <g id="axes_13">
   <g id="matplotlib.axis_25"/>
   <g id="matplotlib.axis_26"/>
   <g id="patch_36">
    <path d="M 135.709605 480.90923 
C 130.811367 472.425234 123.316235 465.733984 114.3332 461.82553 
C 105.350166 457.917076 95.345262 456.994185 85.798832 459.193409 
L 96.073354 503.79323 
L 135.709605 480.90923 
z
" style="fill: #1f77b4; stroke: #ffffff; stroke-linejoin: miter"/>
   </g>
   <g id="patch_37">
    <path d="M 83.972847 463.390179 
C 79.308658 464.464675 74.84176 466.264212 70.735278 468.723075 
C 66.628796 471.181938 62.933332 474.269827 59.783839 477.873976 
C 56.634345 481.478126 54.069633 485.554124 52.183361 489.953121 
C 50.297088 494.352119 49.112499 499.019908 48.672854 503.78603 
C 48.233208 508.552151 48.543923 513.357873 49.593653 518.027699 
C 50.643382 522.697525 52.419189 527.173909 54.856225 531.293382 
C 57.293262 535.412855 60.361496 539.124653 63.948882 542.293228 
C 67.536267 545.461803 71.598597 548.04811 75.987523 549.9577 
C 80.376449 551.86729 85.037886 553.076633 89.801607 553.541564 
C 94.565329 554.006496 99.372632 553.721288 104.047962 552.696355 
C 108.723293 551.671422 113.209038 549.919395 117.341385 547.504254 
C 121.473733 545.089113 125.201761 542.040619 128.389329 538.470099 
C 131.576897 534.899578 134.184724 530.85103 136.117578 526.4723 
C 138.050433 522.09357 139.284495 517.438616 139.7747 512.677429 
C 140.264905 507.916242 140.005212 503.107493 139.005104 498.426789 
C 138.004996 493.746085 136.276798 489.251106 133.88362 485.106 
L 94.247369 507.99 
L 83.972847 463.390179 
z
" style="fill: #ff7f0e; stroke: #ffffff; stroke-linejoin: miter"/>
   </g>
   <g id="text_81">
    <!-- Yes -->
    <g style="fill: #262626" transform="translate(116.159185 460.388135)scale(0.1 -0.1)">
     <use xlink:href="#DejaVuSans-59"/>
     <use xlink:href="#DejaVuSans-65" x="47.833984"/>
     <use xlink:href="#DejaVuSans-73" x="109.357422"/>
    </g>
   </g>
   <g id="text_82">
    <!-- 20% -->
    <g style="fill: #262626" transform="translate(95.915981 481.371985)scale(0.1 -0.1)">
     <use xlink:href="#DejaVuSans-32"/>
     <use xlink:href="#DejaVuSans-30" x="63.623047"/>
     <use xlink:href="#DejaVuSans-25" x="127.246094"/>
    </g>
   </g>
   <g id="text_83">
    <!-- No -->
    <g style="fill: #262626" transform="translate(60.561538 556.913845)scale(0.1 -0.1)">
     <use xlink:href="#DejaVuSans-4e"/>
     <use xlink:href="#DejaVuSans-6f" x="74.804688"/>
    </g>
   </g>
   <g id="text_84">
    <!-- 80% -->
    <g style="fill: #262626" transform="translate(72.17818 535.929995)scale(0.1 -0.1)">
     <use xlink:href="#DejaVuSans-38"/>
     <use xlink:href="#DejaVuSans-30" x="63.623047"/>
     <use xlink:href="#DejaVuSans-25" x="127.246094"/>
    </g>
   </g>
   <g id="text_85">
    <!-- OWL -->
    <g style="fill: #262626" transform="translate(80.248619 444.78)scale(0.12 -0.12)">
     <use xlink:href="#DejaVuSans-4f"/>
     <use xlink:href="#DejaVuSans-57" x="78.710938"/>
     <use xlink:href="#DejaVuSans-4c" x="177.587891"/>
    </g>
   </g>
  </g>
  <g id="axes_14">
   <g id="matplotlib.axis_27"/>
   <g id="matplotlib.axis_28"/>
   <g id="patch_38">
    <path d="M 315.429668 482.633246 
C 315.069831 482.00999 314.695343 481.395307 314.306517 480.789711 
C 313.917691 480.184115 313.514635 479.587774 313.097685 479.001186 
L 275.793418 505.517246 
L 315.429668 482.633246 
z
" style="fill: #1f77b4; stroke: #ffffff; stroke-linejoin: miter"/>
   </g>
   <g id="patch_39">
    <path d="M 309.246375 481.47394 
C 305.816926 476.6492 301.483812 472.535286 296.487699 469.360687 
C 291.491585 466.186089 285.926713 464.010688 280.102161 462.955309 
C 274.277609 461.899931 268.303245 461.984482 262.510892 463.204266 
C 256.718539 464.42405 251.217457 466.756059 246.313181 470.070771 
C 241.408906 473.385482 237.193946 477.620372 233.902406 482.540228 
C 230.610865 487.460085 228.304831 492.972106 227.112384 498.770149 
C 225.919936 504.568191 225.863568 510.542887 226.94641 516.362396 
C 228.029252 522.181905 230.230879 527.736454 233.42901 532.717537 
C 236.62714 537.69862 240.761449 542.01228 245.602312 545.418932 
C 250.443174 548.825584 255.899279 551.260968 261.667587 552.589821 
C 267.435895 553.918674 273.4076 554.11593 279.251027 553.170632 
C 285.094454 552.225335 290.69938 550.155315 295.7545 547.075545 
C 300.809621 543.995774 305.219582 539.964346 308.73945 535.205169 
C 312.259318 530.445993 314.822698 525.048841 316.287217 519.313476 
C 317.751737 513.578111 318.08977 507.612719 317.282543 501.748623 
C 316.475316 495.884528 314.538055 490.232343 311.578357 485.105998 
L 271.942108 507.99 
L 309.246375 481.47394 
z
" style="fill: #ff7f0e; stroke: #ffffff; stroke-linejoin: miter"/>
   </g>
   <g id="text_86">
    <!-- Yes -->
    <g style="fill: #262626" transform="translate(318.157827 481.076332)scale(0.1 -0.1)">
     <use xlink:href="#DejaVuSans-59"/>
     <use xlink:href="#DejaVuSans-65" x="47.833984"/>
     <use xlink:href="#DejaVuSans-73" x="109.357422"/>
    </g>
   </g>
   <g id="text_87">
    <!-- 2% -->
    <g style="fill: #262626" transform="translate(290.969246 493.4401)scale(0.1 -0.1)">
     <use xlink:href="#DejaVuSans-32"/>
     <use xlink:href="#DejaVuSans-25" x="63.623047"/>
    </g>
   </g>
   <g id="text_88">
    <!-- No -->
    <g style="fill: #262626" transform="translate(215.9777 537.949666)scale(0.1 -0.1)">
     <use xlink:href="#DejaVuSans-4e"/>
     <use xlink:href="#DejaVuSans-6f" x="74.804688"/>
    </g>
   </g>
   <g id="text_89">
    <!-- 98% -->
    <g style="fill: #262626" transform="translate(237.720968 525.585897)scale(0.1 -0.1)">
     <use xlink:href="#DejaVuSans-39"/>
     <use xlink:href="#DejaVuSans-38" x="63.623047"/>
     <use xlink:href="#DejaVuSans-25" x="127.246094"/>
    </g>
   </g>
   <g id="text_90">
    <!-- JSON -->
    <g style="fill: #262626" transform="translate(257.15117 444.78)scale(0.12 -0.12)">
     <defs>
      <path id="DejaVuSans-4a" d="M 628 4666 
L 1259 4666 
L 1259 325 
Q 1259 -519 939 -900 
Q 619 -1281 -91 -1281 
L -331 -1281 
L -331 -750 
L -134 -750 
Q 284 -750 456 -515 
Q 628 -281 628 325 
L 628 4666 
z
" transform="scale(0.015625)"/>
     </defs>
     <use xlink:href="#DejaVuSans-4a"/>
     <use xlink:href="#DejaVuSans-53" x="29.492188"/>
     <use xlink:href="#DejaVuSans-4f" x="92.96875"/>
     <use xlink:href="#DejaVuSans-4e" x="171.679688"/>
    </g>
   </g>
  </g>
  <g id="axes_15"/>
  <g id="axes_16"/>
  <g id="text_91">
   <!-- https://github.com/biopragmatics/bioregistry (2022-04-25) -->
   <g style="fill: #808080; opacity: 0.5" transform="translate(278.67625 574.33625)scale(0.08 -0.08)">
    <defs>
     <path id="DejaVuSans-3a" d="M 750 794 
L 1409 794 
L 1409 0 
L 750 0 
L 750 794 
z
M 750 3309 
L 1409 3309 
L 1409 2516 
L 750 2516 
L 750 3309 
z
" transform="scale(0.015625)"/>
     <path id="DejaVuSans-2f" d="M 1625 4666 
L 2156 4666 
L 531 -594 
L 0 -594 
L 1625 4666 
z
" transform="scale(0.015625)"/>
     <path id="DejaVuSans-75" d="M 544 1381 
L 544 3500 
L 1119 3500 
L 1119 1403 
Q 1119 906 1312 657 
Q 1506 409 1894 409 
Q 2359 409 2629 706 
Q 2900 1003 2900 1516 
L 2900 3500 
L 3475 3500 
L 3475 0 
L 2900 0 
L 2900 538 
Q 2691 219 2414 64 
Q 2138 -91 1772 -91 
Q 1169 -91 856 284 
Q 544 659 544 1381 
z
M 1991 3584 
L 1991 3584 
z
" transform="scale(0.015625)"/>
     <path id="DejaVuSans-28" d="M 1984 4856 
Q 1566 4138 1362 3434 
Q 1159 2731 1159 2009 
Q 1159 1288 1364 580 
Q 1569 -128 1984 -844 
L 1484 -844 
Q 1016 -109 783 600 
Q 550 1309 550 2009 
Q 550 2706 781 3412 
Q 1013 4119 1484 4856 
L 1984 4856 
z
" transform="scale(0.015625)"/>
     <path id="DejaVuSans-29" d="M 513 4856 
L 1013 4856 
Q 1481 4119 1714 3412 
Q 1947 2706 1947 2009 
Q 1947 1309 1714 600 
Q 1481 -109 1013 -844 
L 513 -844 
Q 928 -128 1133 580 
Q 1338 1288 1338 2009 
Q 1338 2731 1133 3434 
Q 928 4138 513 4856 
z
" transform="scale(0.015625)"/>
    </defs>
    <use xlink:href="#DejaVuSans-68"/>
    <use xlink:href="#DejaVuSans-74" x="63.378906"/>
    <use xlink:href="#DejaVuSans-74" x="102.587891"/>
    <use xlink:href="#DejaVuSans-70" x="141.796875"/>
    <use xlink:href="#DejaVuSans-73" x="205.273438"/>
    <use xlink:href="#DejaVuSans-3a" x="257.373047"/>
    <use xlink:href="#DejaVuSans-2f" x="291.064453"/>
    <use xlink:href="#DejaVuSans-2f" x="324.755859"/>
    <use xlink:href="#DejaVuSans-67" x="358.447266"/>
    <use xlink:href="#DejaVuSans-69" x="421.923828"/>
    <use xlink:href="#DejaVuSans-74" x="449.707031"/>
    <use xlink:href="#DejaVuSans-68" x="488.916016"/>
    <use xlink:href="#DejaVuSans-75" x="552.294922"/>
    <use xlink:href="#DejaVuSans-62" x="615.673828"/>
    <use xlink:href="#DejaVuSans-2e" x="679.150391"/>
    <use xlink:href="#DejaVuSans-63" x="710.9375"/>
    <use xlink:href="#DejaVuSans-6f" x="765.917969"/>
    <use xlink:href="#DejaVuSans-6d" x="827.099609"/>
    <use xlink:href="#DejaVuSans-2f" x="924.511719"/>
    <use xlink:href="#DejaVuSans-62" x="958.203125"/>
    <use xlink:href="#DejaVuSans-69" x="1021.679688"/>
    <use xlink:href="#DejaVuSans-6f" x="1049.462891"/>
    <use xlink:href="#DejaVuSans-70" x="1110.644531"/>
    <use xlink:href="#DejaVuSans-72" x="1174.121094"/>
    <use xlink:href="#DejaVuSans-61" x="1215.234375"/>
    <use xlink:href="#DejaVuSans-67" x="1276.513672"/>
    <use xlink:href="#DejaVuSans-6d" x="1339.990234"/>
    <use xlink:href="#DejaVuSans-61" x="1437.402344"/>
    <use xlink:href="#DejaVuSans-74" x="1498.681641"/>
    <use xlink:href="#DejaVuSans-69" x="1537.890625"/>
    <use xlink:href="#DejaVuSans-63" x="1565.673828"/>
    <use xlink:href="#DejaVuSans-73" x="1620.654297"/>
    <use xlink:href="#DejaVuSans-2f" x="1672.753906"/>
    <use xlink:href="#DejaVuSans-62" x="1706.445312"/>
    <use xlink:href="#DejaVuSans-69" x="1769.921875"/>
    <use xlink:href="#DejaVuSans-6f" x="1797.705078"/>
    <use xlink:href="#DejaVuSans-72" x="1858.886719"/>
    <use xlink:href="#DejaVuSans-65" x="1897.75"/>
    <use xlink:href="#DejaVuSans-67" x="1959.273438"/>
    <use xlink:href="#DejaVuSans-69" x="2022.75"/>
    <use xlink:href="#DejaVuSans-73" x="2050.533203"/>
    <use xlink:href="#DejaVuSans-74" x="2102.632812"/>
    <use xlink:href="#DejaVuSans-72" x="2141.841797"/>
    <use xlink:href="#DejaVuSans-79" x="2182.955078"/>
    <use xlink:href="#DejaVuSans-20" x="2242.134766"/>
    <use xlink:href="#DejaVuSans-28" x="2273.921875"/>
    <use xlink:href="#DejaVuSans-32" x="2312.935547"/>
    <use xlink:href="#DejaVuSans-30" x="2376.558594"/>
    <use xlink:href="#DejaVuSans-32" x="2440.181641"/>
    <use xlink:href="#DejaVuSans-32" x="2503.804688"/>
    <use xlink:href="#DejaVuSans-2d" x="2567.427734"/>
    <use xlink:href="#DejaVuSans-30" x="2603.511719"/>
    <use xlink:href="#DejaVuSans-34" x="2667.134766"/>
    <use xlink:href="#DejaVuSans-2d" x="2730.757812"/>
    <use xlink:href="#DejaVuSans-32" x="2766.841797"/>
    <use xlink:href="#DejaVuSans-35" x="2830.464844"/>
    <use xlink:href="#DejaVuSans-29" x="2894.087891"/>
   </g>
  </g>
 </g>
</svg>
