<?xml version="1.0" encoding="utf-8" standalone="no"?>
<!DOCTYPE svg PUBLIC "-//W3C//DTD SVG 1.1//EN"
  "http://www.w3.org/Graphics/SVG/1.1/DTD/svg11.dtd">
<svg height="576pt" version="1.1" viewBox="0 0 792 576" width="792pt" xmlns="http://www.w3.org/2000/svg" xmlns:xlink="http://www.w3.org/1999/xlink">
 <metadata>
  <rdf:RDF xmlns:cc="http://creativecommons.org/ns#" xmlns:dc="http://purl.org/dc/elements/1.1/" xmlns:rdf="http://www.w3.org/1999/02/22-rdf-syntax-ns#">
   <cc:Work>
    <dc:type rdf:resource="http://purl.org/dc/dcmitype/StillImage"/>
    <dc:date>2021-07-10T00:46:14.412235</dc:date>
    <dc:format>image/svg+xml</dc:format>
    <dc:creator>
     <cc:Agent>
      <dc:title>Matplotlib v3.4.2, https://matplotlib.org/</dc:title>
     </cc:Agent>
    </dc:creator>
   </cc:Work>
  </rdf:RDF>
 </metadata>
 <defs>
  <style type="text/css">*{stroke-linecap:butt;stroke-linejoin:round;}</style>
 </defs>
 <g id="figure_1">
  <g id="patch_1">
   <path d="M 0 576 
L 792 576 
L 792 0 
L 0 0 
z
" style="fill:#ffffff;"/>
  </g>
  <g id="axes_1">
   <g id="matplotlib.axis_1"/>
   <g id="matplotlib.axis_2"/>
   <g id="patch_2">
    <path d="M 141.931515 86.3784 
C 141.931515 80.368201 140.747637 74.416444 138.447634 68.863745 
C 136.14763 63.311045 132.776231 58.265389 128.526378 54.015537 
C 124.276526 49.765685 119.23087 46.394285 113.678171 44.094282 
C 108.125471 41.794278 102.173714 40.6104 96.163515 40.6104 
C 90.153317 40.6104 84.20156 41.794278 78.64886 44.094282 
C 73.09616 46.394285 68.050504 49.765685 63.800652 54.015537 
C 59.5508 58.265389 56.1794 63.311045 53.879397 68.863745 
C 51.579393 74.416444 50.395515 80.368201 50.395515 86.3784 
C 50.395515 92.388599 51.579393 98.340356 53.879397 103.893055 
C 56.1794 109.445755 59.5508 114.491411 63.800652 118.741263 
C 68.050504 122.991115 73.09616 126.362515 78.64886 128.662518 
C 84.20156 130.962522 90.153317 132.1464 96.163515 132.1464 
C 102.173714 132.1464 108.125471 130.962522 113.678171 128.662518 
C 119.23087 126.362515 124.276526 122.991115 128.526378 118.741263 
C 132.776231 114.491411 136.14763 109.445755 138.447634 103.893055 
C 140.747637 98.340356 141.931515 92.388599 141.931515 86.3784 
M 96.163515 86.3784 
M 141.931515 86.3784 
z
" style="fill:#1f77b4;stroke:#ffffff;stroke-linejoin:miter;"/>
   </g>
   <g id="patch_3">
    <path d="M 139.763391 61.206 
C 139.763391 61.206 139.763391 61.206 139.763391 61.206 
L 100.12714 84.09 
L 139.763391 61.206 
z
" style="fill:#ff7f0e;stroke:#ffffff;stroke-linejoin:miter;"/>
   </g>
   <g id="text_1">
    <!-- Yes -->
    <g style="fill:#262626;" transform="translate(36.418327 114.310175)scale(0.1 -0.1)">
     <defs>
      <path d="M -13 4666 
L 666 4666 
L 1959 2747 
L 3244 4666 
L 3922 4666 
L 2272 2222 
L 2272 0 
L 1638 0 
L 1638 2222 
L -13 4666 
z
" id="DejaVuSans-59" transform="scale(0.015625)"/>
      <path d="M 3597 1894 
L 3597 1613 
L 953 1613 
Q 991 1019 1311 708 
Q 1631 397 2203 397 
Q 2534 397 2845 478 
Q 3156 559 3463 722 
L 3463 178 
Q 3153 47 2828 -22 
Q 2503 -91 2169 -91 
Q 1331 -91 842 396 
Q 353 884 353 1716 
Q 353 2575 817 3079 
Q 1281 3584 2069 3584 
Q 2775 3584 3186 3129 
Q 3597 2675 3597 1894 
z
M 3022 2063 
Q 3016 2534 2758 2815 
Q 2500 3097 2075 3097 
Q 1594 3097 1305 2825 
Q 1016 2553 972 2059 
L 3022 2063 
z
" id="DejaVuSans-65" transform="scale(0.015625)"/>
      <path d="M 2834 3397 
L 2834 2853 
Q 2591 2978 2328 3040 
Q 2066 3103 1784 3103 
Q 1356 3103 1142 2972 
Q 928 2841 928 2578 
Q 928 2378 1081 2264 
Q 1234 2150 1697 2047 
L 1894 2003 
Q 2506 1872 2764 1633 
Q 3022 1394 3022 966 
Q 3022 478 2636 193 
Q 2250 -91 1575 -91 
Q 1294 -91 989 -36 
Q 684 19 347 128 
L 347 722 
Q 666 556 975 473 
Q 1284 391 1588 391 
Q 1994 391 2212 530 
Q 2431 669 2431 922 
Q 2431 1156 2273 1281 
Q 2116 1406 1581 1522 
L 1381 1569 
Q 847 1681 609 1914 
Q 372 2147 372 2553 
Q 372 3047 722 3315 
Q 1072 3584 1716 3584 
Q 2034 3584 2315 3537 
Q 2597 3491 2834 3397 
z
" id="DejaVuSans-73" transform="scale(0.015625)"/>
     </defs>
     <use xlink:href="#DejaVuSans-59"/>
     <use x="47.833984" xlink:href="#DejaVuSans-65"/>
     <use x="109.357422" xlink:href="#DejaVuSans-73"/>
    </g>
   </g>
   <g id="text_2">
    <!-- 100% -->
    <g style="fill:#262626;" transform="translate(58.087234 102.868175)scale(0.1 -0.1)">
     <defs>
      <path d="M 794 531 
L 1825 531 
L 1825 4091 
L 703 3866 
L 703 4441 
L 1819 4666 
L 2450 4666 
L 2450 531 
L 3481 531 
L 3481 0 
L 794 0 
L 794 531 
z
" id="DejaVuSans-31" transform="scale(0.015625)"/>
      <path d="M 2034 4250 
Q 1547 4250 1301 3770 
Q 1056 3291 1056 2328 
Q 1056 1369 1301 889 
Q 1547 409 2034 409 
Q 2525 409 2770 889 
Q 3016 1369 3016 2328 
Q 3016 3291 2770 3770 
Q 2525 4250 2034 4250 
z
M 2034 4750 
Q 2819 4750 3233 4129 
Q 3647 3509 3647 2328 
Q 3647 1150 3233 529 
Q 2819 -91 2034 -91 
Q 1250 -91 836 529 
Q 422 1150 422 2328 
Q 422 3509 836 4129 
Q 1250 4750 2034 4750 
z
" id="DejaVuSans-30" transform="scale(0.015625)"/>
      <path d="M 4653 2053 
Q 4381 2053 4226 1822 
Q 4072 1591 4072 1178 
Q 4072 772 4226 539 
Q 4381 306 4653 306 
Q 4919 306 5073 539 
Q 5228 772 5228 1178 
Q 5228 1588 5073 1820 
Q 4919 2053 4653 2053 
z
M 4653 2450 
Q 5147 2450 5437 2106 
Q 5728 1763 5728 1178 
Q 5728 594 5436 251 
Q 5144 -91 4653 -91 
Q 4153 -91 3862 251 
Q 3572 594 3572 1178 
Q 3572 1766 3864 2108 
Q 4156 2450 4653 2450 
z
M 1428 4353 
Q 1159 4353 1004 4120 
Q 850 3888 850 3481 
Q 850 3069 1003 2837 
Q 1156 2606 1428 2606 
Q 1700 2606 1854 2837 
Q 2009 3069 2009 3481 
Q 2009 3884 1853 4118 
Q 1697 4353 1428 4353 
z
M 4250 4750 
L 4750 4750 
L 1831 -91 
L 1331 -91 
L 4250 4750 
z
M 1428 4750 
Q 1922 4750 2215 4408 
Q 2509 4066 2509 3481 
Q 2509 2891 2217 2550 
Q 1925 2209 1428 2209 
Q 931 2209 642 2551 
Q 353 2894 353 3481 
Q 353 4063 643 4406 
Q 934 4750 1428 4750 
z
" id="DejaVuSans-25" transform="scale(0.015625)"/>
     </defs>
     <use xlink:href="#DejaVuSans-31"/>
     <use x="63.623047" xlink:href="#DejaVuSans-30"/>
     <use x="127.246094" xlink:href="#DejaVuSans-30"/>
     <use x="190.869141" xlink:href="#DejaVuSans-25"/>
    </g>
   </g>
   <g id="text_3">
    <!-- No -->
    <g style="fill:#262626;" transform="translate(143.727016 61.676975)scale(0.1 -0.1)">
     <defs>
      <path d="M 628 4666 
L 1478 4666 
L 3547 763 
L 3547 4666 
L 4159 4666 
L 4159 0 
L 3309 0 
L 1241 3903 
L 1241 0 
L 628 0 
L 628 4666 
z
" id="DejaVuSans-4e" transform="scale(0.015625)"/>
      <path d="M 1959 3097 
Q 1497 3097 1228 2736 
Q 959 2375 959 1747 
Q 959 1119 1226 758 
Q 1494 397 1959 397 
Q 2419 397 2687 759 
Q 2956 1122 2956 1747 
Q 2956 2369 2687 2733 
Q 2419 3097 1959 3097 
z
M 1959 3584 
Q 2709 3584 3137 3096 
Q 3566 2609 3566 1747 
Q 3566 888 3137 398 
Q 2709 -91 1959 -91 
Q 1206 -91 779 398 
Q 353 888 353 1747 
Q 353 2609 779 3096 
Q 1206 3584 1959 3584 
z
" id="DejaVuSans-6f" transform="scale(0.015625)"/>
     </defs>
     <use xlink:href="#DejaVuSans-4e"/>
     <use x="74.804688" xlink:href="#DejaVuSans-6f"/>
    </g>
   </g>
   <g id="text_4">
    <!-- 0% -->
    <g style="fill:#262626;" transform="translate(115.97686 73.118975)scale(0.1 -0.1)">
     <use xlink:href="#DejaVuSans-30"/>
     <use x="63.623047" xlink:href="#DejaVuSans-25"/>
    </g>
   </g>
   <g id="text_5">
    <!-- Name -->
    <g style="fill:#262626;" transform="translate(82.425265 20.88)scale(0.12 -0.12)">
     <defs>
      <path d="M 2194 1759 
Q 1497 1759 1228 1600 
Q 959 1441 959 1056 
Q 959 750 1161 570 
Q 1363 391 1709 391 
Q 2188 391 2477 730 
Q 2766 1069 2766 1631 
L 2766 1759 
L 2194 1759 
z
M 3341 1997 
L 3341 0 
L 2766 0 
L 2766 531 
Q 2569 213 2275 61 
Q 1981 -91 1556 -91 
Q 1019 -91 701 211 
Q 384 513 384 1019 
Q 384 1609 779 1909 
Q 1175 2209 1959 2209 
L 2766 2209 
L 2766 2266 
Q 2766 2663 2505 2880 
Q 2244 3097 1772 3097 
Q 1472 3097 1187 3025 
Q 903 2953 641 2809 
L 641 3341 
Q 956 3463 1253 3523 
Q 1550 3584 1831 3584 
Q 2591 3584 2966 3190 
Q 3341 2797 3341 1997 
z
" id="DejaVuSans-61" transform="scale(0.015625)"/>
      <path d="M 3328 2828 
Q 3544 3216 3844 3400 
Q 4144 3584 4550 3584 
Q 5097 3584 5394 3201 
Q 5691 2819 5691 2113 
L 5691 0 
L 5113 0 
L 5113 2094 
Q 5113 2597 4934 2840 
Q 4756 3084 4391 3084 
Q 3944 3084 3684 2787 
Q 3425 2491 3425 1978 
L 3425 0 
L 2847 0 
L 2847 2094 
Q 2847 2600 2669 2842 
Q 2491 3084 2119 3084 
Q 1678 3084 1418 2786 
Q 1159 2488 1159 1978 
L 1159 0 
L 581 0 
L 581 3500 
L 1159 3500 
L 1159 2956 
Q 1356 3278 1631 3431 
Q 1906 3584 2284 3584 
Q 2666 3584 2933 3390 
Q 3200 3197 3328 2828 
z
" id="DejaVuSans-6d" transform="scale(0.015625)"/>
     </defs>
     <use xlink:href="#DejaVuSans-4e"/>
     <use x="74.804688" xlink:href="#DejaVuSans-61"/>
     <use x="136.083984" xlink:href="#DejaVuSans-6d"/>
     <use x="233.496094" xlink:href="#DejaVuSans-65"/>
    </g>
   </g>
  </g>
  <g id="axes_2">
   <g id="matplotlib.axis_3"/>
   <g id="matplotlib.axis_4"/>
   <g id="patch_4">
    <path d="M 324.671345 61.733265 
C 322.058673 57.207986 318.690215 53.163381 314.712281 49.77513 
C 310.734347 46.386879 306.205377 43.704759 301.322089 41.845269 
C 296.438801 39.98578 291.272936 38.976238 286.048875 38.860494 
C 280.824815 38.744751 275.619306 39.524506 270.658453 41.16589 
C 265.6976 42.807274 261.054283 45.286174 256.930187 48.494917 
C 252.80609 51.703661 249.261802 55.595108 246.45127 60.000231 
C 243.640738 64.405355 241.605252 69.259439 240.433224 74.351644 
C 239.261195 79.44385 238.969844 84.699366 239.571824 89.889917 
C 240.173803 95.080469 241.660271 100.129801 243.966661 104.818593 
C 246.273051 109.507385 249.36548 113.766753 253.109627 117.411691 
C 256.853773 121.056628 261.194632 124.033587 265.943656 126.21326 
C 270.69268 128.392934 275.7801 129.743301 280.984943 130.205708 
C 286.189785 130.668114 291.435585 130.235767 296.494488 128.927446 
C 301.553391 127.619124 306.351076 125.454049 310.679155 122.526261 
C 315.007233 119.598473 318.80212 115.950985 321.898983 111.742227 
C 324.995846 107.533468 327.349188 102.825272 328.856791 97.822139 
L 285.035094 84.617265 
L 324.671345 61.733265 
z
" style="fill:#1f77b4;stroke:#ffffff;stroke-linejoin:miter;"/>
   </g>
   <g id="patch_5">
    <path d="M 333.403118 97.294874 
C 335.205802 91.312487 335.764496 85.023835 335.044691 78.817346 
C 334.324887 72.610857 332.341715 66.617 329.21767 61.205996 
L 289.581421 84.09 
L 333.403118 97.294874 
z
" style="fill:#ff7f0e;stroke:#ffffff;stroke-linejoin:miter;"/>
   </g>
   <g id="text_6">
    <!-- Yes -->
    <g style="fill:#262626;" transform="translate(218.880184 93.176558)scale(0.1 -0.1)">
     <use xlink:href="#DejaVuSans-59"/>
     <use x="47.833984" xlink:href="#DejaVuSans-65"/>
     <use x="109.357422" xlink:href="#DejaVuSans-73"/>
    </g>
   </g>
   <g id="text_7">
    <!-- 87% -->
    <g style="fill:#262626;" transform="translate(246.64385 90.540232)scale(0.1 -0.1)">
     <defs>
      <path d="M 2034 2216 
Q 1584 2216 1326 1975 
Q 1069 1734 1069 1313 
Q 1069 891 1326 650 
Q 1584 409 2034 409 
Q 2484 409 2743 651 
Q 3003 894 3003 1313 
Q 3003 1734 2745 1975 
Q 2488 2216 2034 2216 
z
M 1403 2484 
Q 997 2584 770 2862 
Q 544 3141 544 3541 
Q 544 4100 942 4425 
Q 1341 4750 2034 4750 
Q 2731 4750 3128 4425 
Q 3525 4100 3525 3541 
Q 3525 3141 3298 2862 
Q 3072 2584 2669 2484 
Q 3125 2378 3379 2068 
Q 3634 1759 3634 1313 
Q 3634 634 3220 271 
Q 2806 -91 2034 -91 
Q 1263 -91 848 271 
Q 434 634 434 1313 
Q 434 1759 690 2068 
Q 947 2378 1403 2484 
z
M 1172 3481 
Q 1172 3119 1398 2916 
Q 1625 2713 2034 2713 
Q 2441 2713 2670 2916 
Q 2900 3119 2900 3481 
Q 2900 3844 2670 4047 
Q 2441 4250 2034 4250 
Q 1625 4250 1398 4047 
Q 1172 3844 1172 3481 
z
" id="DejaVuSans-38" transform="scale(0.015625)"/>
      <path d="M 525 4666 
L 3525 4666 
L 3525 4397 
L 1831 0 
L 1172 0 
L 2766 4134 
L 525 4134 
L 525 4666 
z
" id="DejaVuSans-37" transform="scale(0.015625)"/>
     </defs>
     <use xlink:href="#DejaVuSans-38"/>
     <use x="63.623047" xlink:href="#DejaVuSans-37"/>
     <use x="127.246094" xlink:href="#DejaVuSans-25"/>
    </g>
   </g>
   <g id="text_8">
    <!-- No -->
    <g style="fill:#262626;" transform="translate(339.591018 81.049455)scale(0.1 -0.1)">
     <use xlink:href="#DejaVuSans-4e"/>
     <use x="74.804688" xlink:href="#DejaVuSans-6f"/>
    </g>
   </g>
   <g id="text_9">
    <!-- 13% -->
    <g style="fill:#262626;" transform="translate(305.746102 83.685782)scale(0.1 -0.1)">
     <defs>
      <path d="M 2597 2516 
Q 3050 2419 3304 2112 
Q 3559 1806 3559 1356 
Q 3559 666 3084 287 
Q 2609 -91 1734 -91 
Q 1441 -91 1130 -33 
Q 819 25 488 141 
L 488 750 
Q 750 597 1062 519 
Q 1375 441 1716 441 
Q 2309 441 2620 675 
Q 2931 909 2931 1356 
Q 2931 1769 2642 2001 
Q 2353 2234 1838 2234 
L 1294 2234 
L 1294 2753 
L 1863 2753 
Q 2328 2753 2575 2939 
Q 2822 3125 2822 3475 
Q 2822 3834 2567 4026 
Q 2313 4219 1838 4219 
Q 1578 4219 1281 4162 
Q 984 4106 628 3988 
L 628 4550 
Q 988 4650 1302 4700 
Q 1616 4750 1894 4750 
Q 2613 4750 3031 4423 
Q 3450 4097 3450 3541 
Q 3450 3153 3228 2886 
Q 3006 2619 2597 2516 
z
" id="DejaVuSans-33" transform="scale(0.015625)"/>
     </defs>
     <use xlink:href="#DejaVuSans-31"/>
     <use x="63.623047" xlink:href="#DejaVuSans-33"/>
     <use x="127.246094" xlink:href="#DejaVuSans-25"/>
    </g>
   </g>
   <g id="text_10">
    <!-- Homepage -->
    <g style="fill:#262626;" transform="translate(256.874859 20.88)scale(0.12 -0.12)">
     <defs>
      <path d="M 628 4666 
L 1259 4666 
L 1259 2753 
L 3553 2753 
L 3553 4666 
L 4184 4666 
L 4184 0 
L 3553 0 
L 3553 2222 
L 1259 2222 
L 1259 0 
L 628 0 
L 628 4666 
z
" id="DejaVuSans-48" transform="scale(0.015625)"/>
      <path d="M 1159 525 
L 1159 -1331 
L 581 -1331 
L 581 3500 
L 1159 3500 
L 1159 2969 
Q 1341 3281 1617 3432 
Q 1894 3584 2278 3584 
Q 2916 3584 3314 3078 
Q 3713 2572 3713 1747 
Q 3713 922 3314 415 
Q 2916 -91 2278 -91 
Q 1894 -91 1617 61 
Q 1341 213 1159 525 
z
M 3116 1747 
Q 3116 2381 2855 2742 
Q 2594 3103 2138 3103 
Q 1681 3103 1420 2742 
Q 1159 2381 1159 1747 
Q 1159 1113 1420 752 
Q 1681 391 2138 391 
Q 2594 391 2855 752 
Q 3116 1113 3116 1747 
z
" id="DejaVuSans-70" transform="scale(0.015625)"/>
      <path d="M 2906 1791 
Q 2906 2416 2648 2759 
Q 2391 3103 1925 3103 
Q 1463 3103 1205 2759 
Q 947 2416 947 1791 
Q 947 1169 1205 825 
Q 1463 481 1925 481 
Q 2391 481 2648 825 
Q 2906 1169 2906 1791 
z
M 3481 434 
Q 3481 -459 3084 -895 
Q 2688 -1331 1869 -1331 
Q 1566 -1331 1297 -1286 
Q 1028 -1241 775 -1147 
L 775 -588 
Q 1028 -725 1275 -790 
Q 1522 -856 1778 -856 
Q 2344 -856 2625 -561 
Q 2906 -266 2906 331 
L 2906 616 
Q 2728 306 2450 153 
Q 2172 0 1784 0 
Q 1141 0 747 490 
Q 353 981 353 1791 
Q 353 2603 747 3093 
Q 1141 3584 1784 3584 
Q 2172 3584 2450 3431 
Q 2728 3278 2906 2969 
L 2906 3500 
L 3481 3500 
L 3481 434 
z
" id="DejaVuSans-67" transform="scale(0.015625)"/>
     </defs>
     <use xlink:href="#DejaVuSans-48"/>
     <use x="75.195312" xlink:href="#DejaVuSans-6f"/>
     <use x="136.376953" xlink:href="#DejaVuSans-6d"/>
     <use x="233.789062" xlink:href="#DejaVuSans-65"/>
     <use x="295.3125" xlink:href="#DejaVuSans-70"/>
     <use x="358.789062" xlink:href="#DejaVuSans-61"/>
     <use x="420.068359" xlink:href="#DejaVuSans-67"/>
     <use x="483.544922" xlink:href="#DejaVuSans-65"/>
    </g>
   </g>
  </g>
  <g id="axes_3">
   <g id="matplotlib.axis_5"/>
   <g id="matplotlib.axis_6"/>
   <g id="patch_6">
    <path d="M 514.096802 61.328878 
C 511.569214 56.950966 508.333676 53.021916 504.521827 49.701582 
C 500.709978 46.381247 496.374225 43.715278 491.69097 41.812141 
C 487.007715 39.909003 482.041345 38.794861 476.993918 38.515045 
C 471.946492 38.235229 466.887403 38.793586 462.022482 40.167398 
C 457.157562 41.54121 452.553695 43.711591 448.398191 46.590236 
C 444.242687 49.468881 440.592678 53.016215 437.596665 57.087913 
C 434.600653 61.15961 432.299828 65.699693 430.7878 70.523444 
C 429.275772 75.347196 428.573329 80.388299 428.70905 85.441654 
C 428.844771 90.495008 429.81679 95.491139 431.58556 100.226776 
C 433.354331 104.962414 435.895535 109.372451 439.105783 113.277463 
C 442.31603 117.182475 446.151186 120.528776 450.455215 123.180218 
C 454.759243 125.83166 459.472972 127.751792 464.404621 128.862492 
C 469.336269 129.973192 474.418036 130.259189 479.443166 129.708849 
C 484.468296 129.158508 489.367704 127.779395 493.942054 125.62762 
C 498.516403 123.475845 502.702806 120.580991 506.330936 117.060837 
C 509.959065 113.540683 512.979041 109.443624 515.267995 104.936352 
L 474.460552 84.212878 
L 514.096802 61.328878 
z
" style="fill:#1f77b4;stroke:#ffffff;stroke-linejoin:miter;"/>
   </g>
   <g id="patch_7">
    <path d="M 519.843145 104.813475 
C 523.292132 98.021932 524.991707 90.475603 524.787204 82.861226 
C 524.5827 75.246849 522.480515 67.802626 518.671955 61.206004 
L 479.035702 84.09 
L 519.843145 104.813475 
z
" style="fill:#ff7f0e;stroke:#ffffff;stroke-linejoin:miter;"/>
   </g>
   <g id="text_11">
    <!-- Yes -->
    <g style="fill:#262626;" transform="translate(407.988587 88.323906)scale(0.1 -0.1)">
     <use xlink:href="#DejaVuSans-59"/>
     <use x="47.833984" xlink:href="#DejaVuSans-65"/>
     <use x="109.357422" xlink:href="#DejaVuSans-73"/>
    </g>
   </g>
   <g id="text_12">
    <!-- 84% -->
    <g style="fill:#262626;" transform="translate(435.896369 87.709518)scale(0.1 -0.1)">
     <defs>
      <path d="M 2419 4116 
L 825 1625 
L 2419 1625 
L 2419 4116 
z
M 2253 4666 
L 3047 4666 
L 3047 1625 
L 3713 1625 
L 3713 1100 
L 3047 1100 
L 3047 0 
L 2419 0 
L 2419 1100 
L 313 1100 
L 313 1709 
L 2253 4666 
z
" id="DejaVuSans-34" transform="scale(0.015625)"/>
     </defs>
     <use xlink:href="#DejaVuSans-38"/>
     <use x="63.623047" xlink:href="#DejaVuSans-34"/>
     <use x="127.246094" xlink:href="#DejaVuSans-25"/>
    </g>
   </g>
   <g id="text_13">
    <!-- No -->
    <g style="fill:#262626;" transform="translate(529.362354 85.497724)scale(0.1 -0.1)">
     <use xlink:href="#DejaVuSans-4e"/>
     <use x="74.804688" xlink:href="#DejaVuSans-6f"/>
    </g>
   </g>
   <g id="text_14">
    <!-- 16% -->
    <g style="fill:#262626;" transform="translate(495.373322 86.112111)scale(0.1 -0.1)">
     <defs>
      <path d="M 2113 2584 
Q 1688 2584 1439 2293 
Q 1191 2003 1191 1497 
Q 1191 994 1439 701 
Q 1688 409 2113 409 
Q 2538 409 2786 701 
Q 3034 994 3034 1497 
Q 3034 2003 2786 2293 
Q 2538 2584 2113 2584 
z
M 3366 4563 
L 3366 3988 
Q 3128 4100 2886 4159 
Q 2644 4219 2406 4219 
Q 1781 4219 1451 3797 
Q 1122 3375 1075 2522 
Q 1259 2794 1537 2939 
Q 1816 3084 2150 3084 
Q 2853 3084 3261 2657 
Q 3669 2231 3669 1497 
Q 3669 778 3244 343 
Q 2819 -91 2113 -91 
Q 1303 -91 875 529 
Q 447 1150 447 2328 
Q 447 3434 972 4092 
Q 1497 4750 2381 4750 
Q 2619 4750 2861 4703 
Q 3103 4656 3366 4563 
z
" id="DejaVuSans-36" transform="scale(0.015625)"/>
     </defs>
     <use xlink:href="#DejaVuSans-31"/>
     <use x="63.623047" xlink:href="#DejaVuSans-36"/>
     <use x="127.246094" xlink:href="#DejaVuSans-25"/>
    </g>
   </g>
   <g id="text_15">
    <!-- Description -->
    <g style="fill:#262626;" transform="translate(444.863827 20.88)scale(0.12 -0.12)">
     <defs>
      <path d="M 1259 4147 
L 1259 519 
L 2022 519 
Q 2988 519 3436 956 
Q 3884 1394 3884 2338 
Q 3884 3275 3436 3711 
Q 2988 4147 2022 4147 
L 1259 4147 
z
M 628 4666 
L 1925 4666 
Q 3281 4666 3915 4102 
Q 4550 3538 4550 2338 
Q 4550 1131 3912 565 
Q 3275 0 1925 0 
L 628 0 
L 628 4666 
z
" id="DejaVuSans-44" transform="scale(0.015625)"/>
      <path d="M 3122 3366 
L 3122 2828 
Q 2878 2963 2633 3030 
Q 2388 3097 2138 3097 
Q 1578 3097 1268 2742 
Q 959 2388 959 1747 
Q 959 1106 1268 751 
Q 1578 397 2138 397 
Q 2388 397 2633 464 
Q 2878 531 3122 666 
L 3122 134 
Q 2881 22 2623 -34 
Q 2366 -91 2075 -91 
Q 1284 -91 818 406 
Q 353 903 353 1747 
Q 353 2603 823 3093 
Q 1294 3584 2113 3584 
Q 2378 3584 2631 3529 
Q 2884 3475 3122 3366 
z
" id="DejaVuSans-63" transform="scale(0.015625)"/>
      <path d="M 2631 2963 
Q 2534 3019 2420 3045 
Q 2306 3072 2169 3072 
Q 1681 3072 1420 2755 
Q 1159 2438 1159 1844 
L 1159 0 
L 581 0 
L 581 3500 
L 1159 3500 
L 1159 2956 
Q 1341 3275 1631 3429 
Q 1922 3584 2338 3584 
Q 2397 3584 2469 3576 
Q 2541 3569 2628 3553 
L 2631 2963 
z
" id="DejaVuSans-72" transform="scale(0.015625)"/>
      <path d="M 603 3500 
L 1178 3500 
L 1178 0 
L 603 0 
L 603 3500 
z
M 603 4863 
L 1178 4863 
L 1178 4134 
L 603 4134 
L 603 4863 
z
" id="DejaVuSans-69" transform="scale(0.015625)"/>
      <path d="M 1172 4494 
L 1172 3500 
L 2356 3500 
L 2356 3053 
L 1172 3053 
L 1172 1153 
Q 1172 725 1289 603 
Q 1406 481 1766 481 
L 2356 481 
L 2356 0 
L 1766 0 
Q 1100 0 847 248 
Q 594 497 594 1153 
L 594 3053 
L 172 3053 
L 172 3500 
L 594 3500 
L 594 4494 
L 1172 4494 
z
" id="DejaVuSans-74" transform="scale(0.015625)"/>
      <path d="M 3513 2113 
L 3513 0 
L 2938 0 
L 2938 2094 
Q 2938 2591 2744 2837 
Q 2550 3084 2163 3084 
Q 1697 3084 1428 2787 
Q 1159 2491 1159 1978 
L 1159 0 
L 581 0 
L 581 3500 
L 1159 3500 
L 1159 2956 
Q 1366 3272 1645 3428 
Q 1925 3584 2291 3584 
Q 2894 3584 3203 3211 
Q 3513 2838 3513 2113 
z
" id="DejaVuSans-6e" transform="scale(0.015625)"/>
     </defs>
     <use xlink:href="#DejaVuSans-44"/>
     <use x="77.001953" xlink:href="#DejaVuSans-65"/>
     <use x="138.525391" xlink:href="#DejaVuSans-73"/>
     <use x="190.625" xlink:href="#DejaVuSans-63"/>
     <use x="245.605469" xlink:href="#DejaVuSans-72"/>
     <use x="286.71875" xlink:href="#DejaVuSans-69"/>
     <use x="314.501953" xlink:href="#DejaVuSans-70"/>
     <use x="377.978516" xlink:href="#DejaVuSans-74"/>
     <use x="417.1875" xlink:href="#DejaVuSans-69"/>
     <use x="444.970703" xlink:href="#DejaVuSans-6f"/>
     <use x="506.152344" xlink:href="#DejaVuSans-6e"/>
    </g>
   </g>
  </g>
  <g id="axes_4">
   <g id="matplotlib.axis_7"/>
   <g id="matplotlib.axis_8"/>
   <g id="patch_8">
    <path d="M 703.573237 60.739818 
C 701.169338 56.576141 698.124309 52.817134 694.550339 49.601288 
C 690.976368 46.385442 686.917893 43.752742 682.524439 41.800182 
C 678.130984 39.847623 673.457176 38.599483 668.675212 38.101745 
C 663.893247 37.604008 659.062581 37.862863 654.361191 38.868774 
C 649.6598 39.874684 645.146139 41.615142 640.986503 44.026026 
C 636.826867 46.436909 633.072975 49.488242 629.863131 53.067604 
C 626.653287 56.646966 624.027401 60.709853 622.082218 65.106579 
C 620.137034 69.503304 618.896739 74.179199 618.407027 78.961993 
C 617.917316 83.744786 618.184277 88.57501 619.198075 93.274706 
C 620.211874 97.974402 621.959905 102.485136 624.377765 106.640721 
C 626.795626 110.796305 629.853254 114.545071 633.437997 117.748903 
C 637.022741 120.952736 641.09003 123.5718 645.490013 125.509603 
C 649.889996 127.447405 654.567967 128.679852 659.351575 129.161536 
C 664.135184 129.643221 668.964953 129.368154 673.662941 128.34647 
C 678.360929 127.324786 682.868723 125.569188 687.020244 123.144357 
C 691.171765 120.719526 694.915395 117.655611 698.113207 114.065496 
L 663.936987 83.623818 
L 703.573237 60.739818 
z
" style="fill:#1f77b4;stroke:#ffffff;stroke-linejoin:miter;"/>
   </g>
   <g id="patch_9">
    <path d="M 702.666203 114.531679 
C 709.06595 107.34682 713.039887 98.323579 714.019942 88.751827 
C 714.999997 79.180074 712.937132 69.538724 708.126235 61.206004 
L 668.489983 84.09 
L 702.666203 114.531679 
z
" style="fill:#ff7f0e;stroke:#ffffff;stroke-linejoin:miter;"/>
   </g>
   <g id="text_16">
    <!-- Yes -->
    <g style="fill:#262626;" transform="translate(597.708719 81.255185)scale(0.1 -0.1)">
     <use xlink:href="#DejaVuSans-59"/>
     <use x="47.833984" xlink:href="#DejaVuSans-65"/>
     <use x="109.357422" xlink:href="#DejaVuSans-73"/>
    </g>
   </g>
   <g id="text_17">
    <!-- 80% -->
    <g style="fill:#262626;" transform="translate(625.50573 83.586098)scale(0.1 -0.1)">
     <use xlink:href="#DejaVuSans-38"/>
     <use x="63.623047" xlink:href="#DejaVuSans-30"/>
     <use x="127.246094" xlink:href="#DejaVuSans-25"/>
    </g>
   </g>
   <g id="text_18">
    <!-- No -->
    <g style="fill:#262626;" transform="translate(718.572938 91.977385)scale(0.1 -0.1)">
     <use xlink:href="#DejaVuSans-4e"/>
     <use x="74.804688" xlink:href="#DejaVuSans-6f"/>
    </g>
   </g>
   <g id="text_19">
    <!-- 20% -->
    <g style="fill:#262626;" transform="translate(684.694677 89.646471)scale(0.1 -0.1)">
     <defs>
      <path d="M 1228 531 
L 3431 531 
L 3431 0 
L 469 0 
L 469 531 
Q 828 903 1448 1529 
Q 2069 2156 2228 2338 
Q 2531 2678 2651 2914 
Q 2772 3150 2772 3378 
Q 2772 3750 2511 3984 
Q 2250 4219 1831 4219 
Q 1534 4219 1204 4116 
Q 875 4013 500 3803 
L 500 4441 
Q 881 4594 1212 4672 
Q 1544 4750 1819 4750 
Q 2544 4750 2975 4387 
Q 3406 4025 3406 3419 
Q 3406 3131 3298 2873 
Q 3191 2616 2906 2266 
Q 2828 2175 2409 1742 
Q 1991 1309 1228 531 
z
" id="DejaVuSans-32" transform="scale(0.015625)"/>
     </defs>
     <use xlink:href="#DejaVuSans-32"/>
     <use x="63.623047" xlink:href="#DejaVuSans-30"/>
     <use x="127.246094" xlink:href="#DejaVuSans-25"/>
    </g>
   </g>
   <g id="text_20">
    <!-- Example -->
    <g style="fill:#262626;" transform="translate(642.45842 20.88)scale(0.12 -0.12)">
     <defs>
      <path d="M 628 4666 
L 3578 4666 
L 3578 4134 
L 1259 4134 
L 1259 2753 
L 3481 2753 
L 3481 2222 
L 1259 2222 
L 1259 531 
L 3634 531 
L 3634 0 
L 628 0 
L 628 4666 
z
" id="DejaVuSans-45" transform="scale(0.015625)"/>
      <path d="M 3513 3500 
L 2247 1797 
L 3578 0 
L 2900 0 
L 1881 1375 
L 863 0 
L 184 0 
L 1544 1831 
L 300 3500 
L 978 3500 
L 1906 2253 
L 2834 3500 
L 3513 3500 
z
" id="DejaVuSans-78" transform="scale(0.015625)"/>
      <path d="M 603 4863 
L 1178 4863 
L 1178 0 
L 603 0 
L 603 4863 
z
" id="DejaVuSans-6c" transform="scale(0.015625)"/>
     </defs>
     <use xlink:href="#DejaVuSans-45"/>
     <use x="63.183594" xlink:href="#DejaVuSans-78"/>
     <use x="122.363281" xlink:href="#DejaVuSans-61"/>
     <use x="183.642578" xlink:href="#DejaVuSans-6d"/>
     <use x="281.054688" xlink:href="#DejaVuSans-70"/>
     <use x="344.53125" xlink:href="#DejaVuSans-6c"/>
     <use x="372.314453" xlink:href="#DejaVuSans-65"/>
    </g>
   </g>
  </g>
  <g id="axes_5">
   <g id="matplotlib.axis_9"/>
   <g id="matplotlib.axis_10"/>
   <g id="patch_10">
    <path d="M 135.538515 200.746023 
C 131.271622 193.355547 125.02157 187.303705 117.497468 183.277117 
C 109.973367 179.25053 101.470953 177.407463 92.95488 177.957025 
C 84.438807 178.506587 76.243803 181.427176 69.299644 186.387434 
C 62.355484 191.347692 56.935111 198.152654 53.653502 206.030252 
C 50.371893 213.90785 49.358032 222.548453 50.726948 230.971729 
C 52.095864 239.395006 55.793752 247.269875 61.401062 253.702882 
C 67.008372 260.13589 74.304707 264.874184 82.462251 267.380176 
C 90.619795 269.886167 99.317912 270.061356 107.569746 267.885867 
L 95.902264 223.630023 
L 135.538515 200.746023 
z
" style="fill:#1f77b4;stroke:#ffffff;stroke-linejoin:miter;"/>
   </g>
   <g id="patch_11">
    <path d="M 111.794622 269.645844 
C 118.597675 267.852307 124.896442 264.514031 130.200002 259.891201 
C 135.503561 255.26837 139.67045 249.484289 142.375904 242.989767 
C 145.081358 236.495245 146.253214 229.463508 145.800138 222.44261 
C 145.347062 215.421711 143.281139 208.598916 139.763387 202.505993 
L 100.12714 225.39 
L 111.794622 269.645844 
z
" style="fill:#ff7f0e;stroke:#ffffff;stroke-linejoin:miter;"/>
   </g>
   <g id="text_21">
    <!-- Yes -->
    <g style="fill:#262626;" transform="translate(33.283314 207.02965)scale(0.1 -0.1)">
     <use xlink:href="#DejaVuSans-59"/>
     <use x="47.833984" xlink:href="#DejaVuSans-65"/>
     <use x="109.357422" xlink:href="#DejaVuSans-73"/>
    </g>
   </g>
   <g id="text_22">
    <!-- 71% -->
    <g style="fill:#262626;" transform="translate(59.439726 215.829535)scale(0.1 -0.1)">
     <use xlink:href="#DejaVuSans-37"/>
     <use x="63.623047" xlink:href="#DejaVuSans-31"/>
     <use x="127.246094" xlink:href="#DejaVuSans-25"/>
    </g>
   </g>
   <g id="text_23">
    <!-- No -->
    <g style="fill:#262626;" transform="translate(146.60078 247.509119)scale(0.1 -0.1)">
     <use xlink:href="#DejaVuSans-4e"/>
     <use x="74.804688" xlink:href="#DejaVuSans-6f"/>
    </g>
   </g>
   <g id="text_24">
    <!-- 29% -->
    <g style="fill:#262626;" transform="translate(114.363117 238.709235)scale(0.1 -0.1)">
     <defs>
      <path d="M 703 97 
L 703 672 
Q 941 559 1184 500 
Q 1428 441 1663 441 
Q 2288 441 2617 861 
Q 2947 1281 2994 2138 
Q 2813 1869 2534 1725 
Q 2256 1581 1919 1581 
Q 1219 1581 811 2004 
Q 403 2428 403 3163 
Q 403 3881 828 4315 
Q 1253 4750 1959 4750 
Q 2769 4750 3195 4129 
Q 3622 3509 3622 2328 
Q 3622 1225 3098 567 
Q 2575 -91 1691 -91 
Q 1453 -91 1209 -44 
Q 966 3 703 97 
z
M 1959 2075 
Q 2384 2075 2632 2365 
Q 2881 2656 2881 3163 
Q 2881 3666 2632 3958 
Q 2384 4250 1959 4250 
Q 1534 4250 1286 3958 
Q 1038 3666 1038 3163 
Q 1038 2656 1286 2365 
Q 1534 2075 1959 2075 
z
" id="DejaVuSans-39" transform="scale(0.015625)"/>
     </defs>
     <use xlink:href="#DejaVuSans-32"/>
     <use x="63.623047" xlink:href="#DejaVuSans-39"/>
     <use x="127.246094" xlink:href="#DejaVuSans-25"/>
    </g>
   </g>
   <g id="text_25">
    <!-- Pattern -->
    <g style="fill:#262626;" transform="translate(78.54214 162.18)scale(0.12 -0.12)">
     <defs>
      <path d="M 1259 4147 
L 1259 2394 
L 2053 2394 
Q 2494 2394 2734 2622 
Q 2975 2850 2975 3272 
Q 2975 3691 2734 3919 
Q 2494 4147 2053 4147 
L 1259 4147 
z
M 628 4666 
L 2053 4666 
Q 2838 4666 3239 4311 
Q 3641 3956 3641 3272 
Q 3641 2581 3239 2228 
Q 2838 1875 2053 1875 
L 1259 1875 
L 1259 0 
L 628 0 
L 628 4666 
z
" id="DejaVuSans-50" transform="scale(0.015625)"/>
     </defs>
     <use xlink:href="#DejaVuSans-50"/>
     <use x="55.802734" xlink:href="#DejaVuSans-61"/>
     <use x="117.082031" xlink:href="#DejaVuSans-74"/>
     <use x="156.291016" xlink:href="#DejaVuSans-74"/>
     <use x="195.5" xlink:href="#DejaVuSans-65"/>
     <use x="257.023438" xlink:href="#DejaVuSans-72"/>
     <use x="296.386719" xlink:href="#DejaVuSans-6e"/>
    </g>
   </g>
  </g>
  <g id="axes_6">
   <g id="matplotlib.axis_11"/>
   <g id="matplotlib.axis_12"/>
   <g id="patch_12">
    <path d="M 324.70014 203.24017 
C 322.043623 198.638947 318.606073 194.535247 314.54179 191.113269 
C 310.477506 187.691291 305.848223 185.003012 300.861731 183.1691 
C 295.875239 181.335188 290.60728 180.383499 285.294313 180.35675 
C 279.981346 180.330001 274.704072 181.228599 269.699367 183.012208 
C 264.694662 184.795817 260.038545 187.437347 255.940011 190.818228 
C 251.841478 194.199109 248.362782 198.267988 245.660069 202.842229 
C 242.957356 207.41647 241.07168 212.426592 240.087679 217.647711 
C 239.103679 222.868829 239.036302 228.221638 239.888572 233.46587 
C 240.740843 238.710102 242.499815 243.766101 245.086535 248.406921 
C 247.673256 253.047741 251.048434 257.202892 255.06057 260.685864 
C 259.072707 264.168836 263.66086 266.926725 268.619085 268.83574 
C 273.57731 270.744756 278.830295 271.7759 284.142252 271.88289 
C 289.454209 271.989879 294.744453 271.171088 299.775526 269.46327 
C 304.806598 267.755452 309.50208 265.184546 313.651209 261.865952 
C 317.800337 258.547358 321.34009 254.531483 324.111581 249.998584 
C 326.883071 245.465685 328.844202 240.484614 329.906947 235.278952 
L 285.063889 226.12417 
L 324.70014 203.24017 
z
" style="fill:#1f77b4;stroke:#ffffff;stroke-linejoin:miter;"/>
   </g>
   <g id="patch_13">
    <path d="M 334.424478 234.544782 
C 335.533674 229.111584 335.646261 223.521758 334.756739 218.048303 
C 333.867216 212.574848 331.990306 207.308346 329.217675 202.506006 
L 289.581421 225.39 
L 334.424478 234.544782 
z
" style="fill:#ff7f0e;stroke:#ffffff;stroke-linejoin:miter;"/>
   </g>
   <g id="text_26">
    <!-- Yes -->
    <g style="fill:#262626;" transform="translate(219.225728 236.959415)scale(0.1 -0.1)">
     <use xlink:href="#DejaVuSans-59"/>
     <use x="47.833984" xlink:href="#DejaVuSans-65"/>
     <use x="109.357422" xlink:href="#DejaVuSans-73"/>
    </g>
   </g>
   <g id="text_27">
    <!-- 88% -->
    <g style="fill:#262626;" transform="translate(246.845418 233.288565)scale(0.1 -0.1)">
     <use xlink:href="#DejaVuSans-38"/>
     <use x="63.623047" xlink:href="#DejaVuSans-38"/>
     <use x="127.246094" xlink:href="#DejaVuSans-25"/>
    </g>
   </g>
   <g id="text_28">
    <!-- No -->
    <g style="fill:#262626;" transform="translate(339.27427 220.073508)scale(0.1 -0.1)">
     <use xlink:href="#DejaVuSans-4e"/>
     <use x="74.804688" xlink:href="#DejaVuSans-6f"/>
    </g>
   </g>
   <g id="text_29">
    <!-- 12% -->
    <g style="fill:#262626;" transform="translate(305.57333 223.744357)scale(0.1 -0.1)">
     <use xlink:href="#DejaVuSans-31"/>
     <use x="63.623047" xlink:href="#DejaVuSans-32"/>
     <use x="127.246094" xlink:href="#DejaVuSans-25"/>
    </g>
   </g>
   <g id="text_30">
    <!-- Provider -->
    <g style="fill:#262626;" transform="translate(264.880171 162.18)scale(0.12 -0.12)">
     <defs>
      <path d="M 191 3500 
L 800 3500 
L 1894 563 
L 2988 3500 
L 3597 3500 
L 2284 0 
L 1503 0 
L 191 3500 
z
" id="DejaVuSans-76" transform="scale(0.015625)"/>
      <path d="M 2906 2969 
L 2906 4863 
L 3481 4863 
L 3481 0 
L 2906 0 
L 2906 525 
Q 2725 213 2448 61 
Q 2172 -91 1784 -91 
Q 1150 -91 751 415 
Q 353 922 353 1747 
Q 353 2572 751 3078 
Q 1150 3584 1784 3584 
Q 2172 3584 2448 3432 
Q 2725 3281 2906 2969 
z
M 947 1747 
Q 947 1113 1208 752 
Q 1469 391 1925 391 
Q 2381 391 2643 752 
Q 2906 1113 2906 1747 
Q 2906 2381 2643 2742 
Q 2381 3103 1925 3103 
Q 1469 3103 1208 2742 
Q 947 2381 947 1747 
z
" id="DejaVuSans-64" transform="scale(0.015625)"/>
     </defs>
     <use xlink:href="#DejaVuSans-50"/>
     <use x="58.552734" xlink:href="#DejaVuSans-72"/>
     <use x="97.416016" xlink:href="#DejaVuSans-6f"/>
     <use x="158.597656" xlink:href="#DejaVuSans-76"/>
     <use x="217.777344" xlink:href="#DejaVuSans-69"/>
     <use x="245.560547" xlink:href="#DejaVuSans-64"/>
     <use x="309.037109" xlink:href="#DejaVuSans-65"/>
     <use x="370.560547" xlink:href="#DejaVuSans-72"/>
    </g>
   </g>
  </g>
  <g id="axes_7">
   <g id="matplotlib.axis_13"/>
   <g id="matplotlib.axis_14"/>
   <g id="patch_14">
    <path d="M 520.853112 198.482365 
C 516.627957 191.164182 510.45744 185.157165 503.028458 181.130012 
C 495.599476 177.102859 487.198316 175.210761 478.760188 175.664345 
L 481.216861 221.366365 
L 520.853112 198.482365 
z
" style="fill:#1f77b4;stroke:#ffffff;stroke-linejoin:miter;"/>
   </g>
   <g id="patch_15">
    <path d="M 476.579029 179.687981 
C 471.634084 179.953792 466.764899 181.020412 462.16167 182.846177 
C 457.558442 184.671942 453.281898 187.232765 449.499087 190.428618 
C 445.716277 193.62447 442.477104 197.413191 439.908095 201.646786 
C 437.339087 205.880381 435.474134 210.502999 434.386086 215.334073 
C 433.298038 220.165148 433.001248 225.140945 433.507309 230.067103 
C 434.01337 234.993261 435.315606 239.804792 437.36315 244.313749 
C 439.410694 248.822706 442.176533 252.969606 445.55263 256.592464 
C 448.928727 260.215321 452.870543 263.266344 457.224103 265.626352 
C 461.577664 267.98636 466.285536 269.62422 471.163822 270.475955 
C 476.042109 271.32769 481.026453 271.382063 485.922159 270.636951 
C 490.817865 269.891838 495.560347 268.35707 499.964355 266.092596 
C 504.368363 263.828122 508.375799 260.863817 511.830124 257.315471 
C 515.28445 253.767124 518.140096 249.681548 520.285515 245.218331 
C 522.430935 240.755114 523.837824 235.973137 524.451229 231.059191 
C 525.064634 226.145245 524.876461 221.164157 523.894062 216.310496 
C 522.911662 211.456836 521.147996 206.794634 518.671955 202.506004 
L 479.035702 225.39 
L 476.579029 179.687981 
z
" style="fill:#ff7f0e;stroke:#ffffff;stroke-linejoin:miter;"/>
   </g>
   <g id="text_31">
    <!-- Yes -->
    <g style="fill:#262626;" transform="translate(505.209618 179.865752)scale(0.1 -0.1)">
     <use xlink:href="#DejaVuSans-59"/>
     <use x="47.833984" xlink:href="#DejaVuSans-65"/>
     <use x="109.357422" xlink:href="#DejaVuSans-73"/>
    </g>
   </g>
   <g id="text_32">
    <!-- 18% -->
    <g style="fill:#262626;" transform="translate(483.190538 199.983928)scale(0.1 -0.1)">
     <use xlink:href="#DejaVuSans-31"/>
     <use x="63.623047" xlink:href="#DejaVuSans-38"/>
     <use x="127.246094" xlink:href="#DejaVuSans-25"/>
    </g>
   </g>
   <g id="text_33">
    <!-- No -->
    <g style="fill:#262626;" transform="translate(441.442943 272.409362)scale(0.1 -0.1)">
     <use xlink:href="#DejaVuSans-4e"/>
     <use x="74.804688" xlink:href="#DejaVuSans-6f"/>
    </g>
   </g>
   <g id="text_34">
    <!-- 82% -->
    <g style="fill:#262626;" transform="translate(454.835461 252.291186)scale(0.1 -0.1)">
     <use xlink:href="#DejaVuSans-38"/>
     <use x="63.623047" xlink:href="#DejaVuSans-32"/>
     <use x="127.246094" xlink:href="#DejaVuSans-25"/>
    </g>
   </g>
   <g id="text_35">
    <!-- License -->
    <g style="fill:#262626;" transform="translate(456.414764 162.18)scale(0.12 -0.12)">
     <defs>
      <path d="M 628 4666 
L 1259 4666 
L 1259 531 
L 3531 531 
L 3531 0 
L 628 0 
L 628 4666 
z
" id="DejaVuSans-4c" transform="scale(0.015625)"/>
     </defs>
     <use xlink:href="#DejaVuSans-4c"/>
     <use x="55.712891" xlink:href="#DejaVuSans-69"/>
     <use x="83.496094" xlink:href="#DejaVuSans-63"/>
     <use x="138.476562" xlink:href="#DejaVuSans-65"/>
     <use x="200" xlink:href="#DejaVuSans-6e"/>
     <use x="263.378906" xlink:href="#DejaVuSans-73"/>
     <use x="315.478516" xlink:href="#DejaVuSans-65"/>
    </g>
   </g>
  </g>
  <g id="axes_8">
   <g id="matplotlib.axis_15"/>
   <g id="matplotlib.axis_16"/>
   <g id="patch_16">
    <path d="M 708.126233 202.506 
C 702.39228 192.574501 693.129899 185.151993 682.187636 181.719826 
C 671.245373 178.287659 659.403039 179.09043 649.024073 183.967926 
C 638.645108 188.845422 630.469179 197.450043 626.128001 208.064517 
C 621.786823 218.678992 621.589775 230.546868 625.576183 241.299609 
L 668.489983 225.39 
L 708.126233 202.506 
z
" style="fill:#1f77b4;stroke:#ffffff;stroke-linejoin:miter;"/>
   </g>
   <g id="patch_17">
    <path d="M 625.576183 241.299609 
C 629.436693 251.712758 636.958432 260.372972 646.728469 265.653462 
C 656.498506 270.933951 667.86422 272.481989 678.690601 270.006782 
L 668.489983 225.39 
L 625.576183 241.299609 
z
" style="fill:#ff7f0e;stroke:#ffffff;stroke-linejoin:miter;"/>
   </g>
   <g id="patch_18">
    <path d="M 678.690601 270.006782 
C 687.644895 267.959585 695.778868 263.263433 702.02894 256.532386 
C 708.279011 249.801338 712.360353 241.342142 713.739298 232.260902 
L 668.489983 225.39 
L 678.690601 270.006782 
z
" style="fill:#2ca02c;stroke:#ffffff;stroke-linejoin:miter;"/>
   </g>
   <g id="patch_19">
    <path d="M 713.739298 232.260902 
C 714.160776 229.485195 714.325959 226.676584 714.232755 223.870607 
C 714.139552 221.06463 713.788357 218.273171 713.183615 215.531551 
L 668.489983 225.39 
L 713.739298 232.260902 
z
" style="fill:#d62728;stroke:#ffffff;stroke-linejoin:miter;"/>
   </g>
   <g id="patch_20">
    <path d="M 713.183615 215.531551 
C 712.679772 213.247358 712.001559 211.005148 711.15494 208.824637 
C 710.308321 206.644125 709.295784 204.531722 708.126234 202.506001 
L 668.489983 225.39 
L 713.183615 215.531551 
z
" style="fill:#9467bd;stroke:#ffffff;stroke-linejoin:miter;"/>
   </g>
   <g id="text_36">
    <!-- CC-BY -->
    <g style="fill:#262626;" transform="translate(617.447795 182.585094)scale(0.1 -0.1)">
     <defs>
      <path d="M 4122 4306 
L 4122 3641 
Q 3803 3938 3442 4084 
Q 3081 4231 2675 4231 
Q 1875 4231 1450 3742 
Q 1025 3253 1025 2328 
Q 1025 1406 1450 917 
Q 1875 428 2675 428 
Q 3081 428 3442 575 
Q 3803 722 4122 1019 
L 4122 359 
Q 3791 134 3420 21 
Q 3050 -91 2638 -91 
Q 1578 -91 968 557 
Q 359 1206 359 2328 
Q 359 3453 968 4101 
Q 1578 4750 2638 4750 
Q 3056 4750 3426 4639 
Q 3797 4528 4122 4306 
z
" id="DejaVuSans-43" transform="scale(0.015625)"/>
      <path d="M 313 2009 
L 1997 2009 
L 1997 1497 
L 313 1497 
L 313 2009 
z
" id="DejaVuSans-2d" transform="scale(0.015625)"/>
      <path d="M 1259 2228 
L 1259 519 
L 2272 519 
Q 2781 519 3026 730 
Q 3272 941 3272 1375 
Q 3272 1813 3026 2020 
Q 2781 2228 2272 2228 
L 1259 2228 
z
M 1259 4147 
L 1259 2741 
L 2194 2741 
Q 2656 2741 2882 2914 
Q 3109 3088 3109 3444 
Q 3109 3797 2882 3972 
Q 2656 4147 2194 4147 
L 1259 4147 
z
M 628 4666 
L 2241 4666 
Q 2963 4666 3353 4366 
Q 3744 4066 3744 3513 
Q 3744 3084 3544 2831 
Q 3344 2578 2956 2516 
Q 3422 2416 3680 2098 
Q 3938 1781 3938 1306 
Q 3938 681 3513 340 
Q 3088 0 2303 0 
L 628 0 
L 628 4666 
z
" id="DejaVuSans-42" transform="scale(0.015625)"/>
     </defs>
     <use xlink:href="#DejaVuSans-43"/>
     <use x="69.824219" xlink:href="#DejaVuSans-43"/>
     <use x="139.648438" xlink:href="#DejaVuSans-2d"/>
     <use x="172.107422" xlink:href="#DejaVuSans-42"/>
     <use x="235.210938" xlink:href="#DejaVuSans-59"/>
    </g>
   </g>
   <g id="text_37">
    <!-- 47% -->
    <g style="fill:#262626;" transform="translate(645.697156 203.296131)scale(0.1 -0.1)">
     <use xlink:href="#DejaVuSans-34"/>
     <use x="63.623047" xlink:href="#DejaVuSans-37"/>
     <use x="127.246094" xlink:href="#DejaVuSans-25"/>
    </g>
   </g>
   <g id="text_38">
    <!-- CC-BY-4.0 -->
    <g style="fill:#262626;" transform="translate(596.599192 272.439183)scale(0.1 -0.1)">
     <defs>
      <path d="M 684 794 
L 1344 794 
L 1344 0 
L 684 0 
L 684 794 
z
" id="DejaVuSans-2e" transform="scale(0.015625)"/>
     </defs>
     <use xlink:href="#DejaVuSans-43"/>
     <use x="69.824219" xlink:href="#DejaVuSans-43"/>
     <use x="139.648438" xlink:href="#DejaVuSans-2d"/>
     <use x="172.107422" xlink:href="#DejaVuSans-42"/>
     <use x="235.210938" xlink:href="#DejaVuSans-59"/>
     <use x="284.419922" xlink:href="#DejaVuSans-2d"/>
     <use x="320.503906" xlink:href="#DejaVuSans-34"/>
     <use x="384.126953" xlink:href="#DejaVuSans-2e"/>
     <use x="415.914062" xlink:href="#DejaVuSans-30"/>
    </g>
   </g>
   <g id="text_39">
    <!-- 23% -->
    <g style="fill:#262626;" transform="translate(644.319793 252.307452)scale(0.1 -0.1)">
     <use xlink:href="#DejaVuSans-32"/>
     <use x="63.623047" xlink:href="#DejaVuSans-33"/>
     <use x="127.246094" xlink:href="#DejaVuSans-25"/>
    </g>
   </g>
   <g id="text_40">
    <!-- CC-0 -->
    <g style="fill:#262626;" transform="translate(705.382835 262.405999)scale(0.1 -0.1)">
     <use xlink:href="#DejaVuSans-43"/>
     <use x="69.824219" xlink:href="#DejaVuSans-43"/>
     <use x="139.648438" xlink:href="#DejaVuSans-2d"/>
     <use x="175.732422" xlink:href="#DejaVuSans-30"/>
    </g>
   </g>
   <g id="text_41">
    <!-- 19% -->
    <g style="fill:#262626;" transform="translate(677.500075 246.834806)scale(0.1 -0.1)">
     <use xlink:href="#DejaVuSans-31"/>
     <use x="63.623047" xlink:href="#DejaVuSans-39"/>
     <use x="127.246094" xlink:href="#DejaVuSans-25"/>
    </g>
   </g>
   <g id="text_42">
    <!-- CC-BY-3.0 -->
    <g style="fill:#262626;" transform="translate(718.807033 226.478043)scale(0.1 -0.1)">
     <use xlink:href="#DejaVuSans-43"/>
     <use x="69.824219" xlink:href="#DejaVuSans-43"/>
     <use x="139.648438" xlink:href="#DejaVuSans-2d"/>
     <use x="172.107422" xlink:href="#DejaVuSans-42"/>
     <use x="235.210938" xlink:href="#DejaVuSans-59"/>
     <use x="284.419922" xlink:href="#DejaVuSans-2d"/>
     <use x="320.503906" xlink:href="#DejaVuSans-33"/>
     <use x="384.126953" xlink:href="#DejaVuSans-2e"/>
     <use x="415.914062" xlink:href="#DejaVuSans-30"/>
    </g>
   </g>
   <g id="text_43">
    <!-- 6% -->
    <g style="fill:#262626;" transform="translate(688.003615 227.237739)scale(0.1 -0.1)">
     <use xlink:href="#DejaVuSans-36"/>
     <use x="63.623047" xlink:href="#DejaVuSans-25"/>
    </g>
   </g>
   <g id="text_44">
    <!-- Other -->
    <g style="fill:#262626;" transform="translate(715.421435 209.927476)scale(0.1 -0.1)">
     <defs>
      <path d="M 2522 4238 
Q 1834 4238 1429 3725 
Q 1025 3213 1025 2328 
Q 1025 1447 1429 934 
Q 1834 422 2522 422 
Q 3209 422 3611 934 
Q 4013 1447 4013 2328 
Q 4013 3213 3611 3725 
Q 3209 4238 2522 4238 
z
M 2522 4750 
Q 3503 4750 4090 4092 
Q 4678 3434 4678 2328 
Q 4678 1225 4090 567 
Q 3503 -91 2522 -91 
Q 1538 -91 948 565 
Q 359 1222 359 2328 
Q 359 3434 948 4092 
Q 1538 4750 2522 4750 
z
" id="DejaVuSans-4f" transform="scale(0.015625)"/>
      <path d="M 3513 2113 
L 3513 0 
L 2938 0 
L 2938 2094 
Q 2938 2591 2744 2837 
Q 2550 3084 2163 3084 
Q 1697 3084 1428 2787 
Q 1159 2491 1159 1978 
L 1159 0 
L 581 0 
L 581 4863 
L 1159 4863 
L 1159 2956 
Q 1366 3272 1645 3428 
Q 1925 3584 2291 3584 
Q 2894 3584 3203 3211 
Q 3513 2838 3513 2113 
z
" id="DejaVuSans-68" transform="scale(0.015625)"/>
     </defs>
     <use xlink:href="#DejaVuSans-4f"/>
     <use x="78.710938" xlink:href="#DejaVuSans-74"/>
     <use x="117.919922" xlink:href="#DejaVuSans-68"/>
     <use x="181.298828" xlink:href="#DejaVuSans-65"/>
     <use x="242.822266" xlink:href="#DejaVuSans-72"/>
    </g>
   </g>
   <g id="text_45">
    <!-- 5% -->
    <g style="fill:#262626;" transform="translate(686.156926 218.210157)scale(0.1 -0.1)">
     <defs>
      <path d="M 691 4666 
L 3169 4666 
L 3169 4134 
L 1269 4134 
L 1269 2991 
Q 1406 3038 1543 3061 
Q 1681 3084 1819 3084 
Q 2600 3084 3056 2656 
Q 3513 2228 3513 1497 
Q 3513 744 3044 326 
Q 2575 -91 1722 -91 
Q 1428 -91 1123 -41 
Q 819 9 494 109 
L 494 744 
Q 775 591 1075 516 
Q 1375 441 1709 441 
Q 2250 441 2565 725 
Q 2881 1009 2881 1497 
Q 2881 1984 2565 2268 
Q 2250 2553 1709 2553 
Q 1456 2553 1204 2497 
Q 953 2441 691 2322 
L 691 4666 
z
" id="DejaVuSans-35" transform="scale(0.015625)"/>
     </defs>
     <use xlink:href="#DejaVuSans-35"/>
     <use x="63.623047" xlink:href="#DejaVuSans-25"/>
    </g>
   </g>
   <g id="text_46">
    <!-- License Type -->
    <g style="fill:#262626;" transform="translate(630.182795 162.18)scale(0.12 -0.12)">
     <defs>
      <path id="DejaVuSans-20" transform="scale(0.015625)"/>
      <path d="M -19 4666 
L 3928 4666 
L 3928 4134 
L 2272 4134 
L 2272 0 
L 1638 0 
L 1638 4134 
L -19 4134 
L -19 4666 
z
" id="DejaVuSans-54" transform="scale(0.015625)"/>
      <path d="M 2059 -325 
Q 1816 -950 1584 -1140 
Q 1353 -1331 966 -1331 
L 506 -1331 
L 506 -850 
L 844 -850 
Q 1081 -850 1212 -737 
Q 1344 -625 1503 -206 
L 1606 56 
L 191 3500 
L 800 3500 
L 1894 763 
L 2988 3500 
L 3597 3500 
L 2059 -325 
z
" id="DejaVuSans-79" transform="scale(0.015625)"/>
     </defs>
     <use xlink:href="#DejaVuSans-4c"/>
     <use x="55.712891" xlink:href="#DejaVuSans-69"/>
     <use x="83.496094" xlink:href="#DejaVuSans-63"/>
     <use x="138.476562" xlink:href="#DejaVuSans-65"/>
     <use x="200" xlink:href="#DejaVuSans-6e"/>
     <use x="263.378906" xlink:href="#DejaVuSans-73"/>
     <use x="315.478516" xlink:href="#DejaVuSans-65"/>
     <use x="377.001953" xlink:href="#DejaVuSans-20"/>
     <use x="408.789062" xlink:href="#DejaVuSans-54"/>
     <use x="454.248047" xlink:href="#DejaVuSans-79"/>
     <use x="513.427734" xlink:href="#DejaVuSans-70"/>
     <use x="576.904297" xlink:href="#DejaVuSans-65"/>
    </g>
   </g>
  </g>
  <g id="axes_9">
   <g id="matplotlib.axis_17"/>
   <g id="matplotlib.axis_18"/>
   <g id="patch_21">
    <path d="M 141.432215 339.544295 
C 136.243067 330.556427 128.147991 323.595455 118.484202 319.81125 
C 108.820413 316.027046 98.151032 315.64012 88.23852 318.71439 
L 101.795964 362.428295 
L 141.432215 339.544295 
z
" style="fill:#1f77b4;stroke:#ffffff;stroke-linejoin:miter;"/>
   </g>
   <g id="patch_22">
    <path d="M 86.569696 322.976094 
C 82.066239 324.372798 77.805543 326.457078 73.938648 329.155047 
C 70.071754 331.853016 66.644901 335.132412 63.779571 338.876981 
C 60.914242 342.62155 58.644698 346.786514 57.051397 351.224227 
C 55.458095 355.661941 54.560087 360.319337 54.389207 365.031312 
C 54.218327 369.743287 54.776618 374.453496 56.04429 378.994962 
C 57.311961 383.536429 59.273854 387.854847 61.86042 391.797129 
C 64.446985 395.739411 67.627294 399.258416 71.288604 402.229395 
C 74.949913 405.200375 79.048443 407.587803 83.438901 409.307044 
C 87.829358 411.026286 92.459243 412.056784 97.164426 412.362006 
C 101.869609 412.667228 106.593827 412.243526 111.169606 411.105918 
C 115.745386 409.96831 120.11801 408.130401 124.132472 405.657344 
C 128.146933 403.184287 131.755226 400.105654 134.829437 396.530583 
C 137.903649 392.955512 140.407018 388.926753 142.250801 384.587125 
C 144.094583 380.247496 145.256732 375.648891 145.696048 370.95433 
C 146.135364 366.259768 145.846595 361.525386 144.839977 356.919018 
C 143.833359 352.312649 142.120929 347.889377 139.763393 343.806004 
L 100.12714 366.69 
L 86.569696 322.976094 
z
" style="fill:#ff7f0e;stroke:#ffffff;stroke-linejoin:miter;"/>
   </g>
   <g id="text_47">
    <!-- Yes -->
    <g style="fill:#262626;" transform="translate(120.153026 318.308921)scale(0.1 -0.1)">
     <use xlink:href="#DejaVuSans-59"/>
     <use x="47.833984" xlink:href="#DejaVuSans-65"/>
     <use x="109.357422" xlink:href="#DejaVuSans-73"/>
    </g>
   </g>
   <g id="text_48">
    <!-- 21% -->
    <g style="fill:#262626;" transform="translate(100.695626 339.617443)scale(0.1 -0.1)">
     <use xlink:href="#DejaVuSans-32"/>
     <use x="63.623047" xlink:href="#DejaVuSans-31"/>
     <use x="127.246094" xlink:href="#DejaVuSans-25"/>
    </g>
   </g>
   <g id="text_49">
    <!-- No -->
    <g style="fill:#262626;" transform="translate(68.170077 416.328124)scale(0.1 -0.1)">
     <use xlink:href="#DejaVuSans-4e"/>
     <use x="74.804688" xlink:href="#DejaVuSans-6f"/>
    </g>
   </g>
   <g id="text_50">
    <!-- 79% -->
    <g style="fill:#262626;" transform="translate(79.000915 395.019602)scale(0.1 -0.1)">
     <use xlink:href="#DejaVuSans-37"/>
     <use x="63.623047" xlink:href="#DejaVuSans-39"/>
     <use x="127.246094" xlink:href="#DejaVuSans-25"/>
    </g>
   </g>
   <g id="text_51">
    <!-- Version -->
    <g style="fill:#262626;" transform="translate(78.063078 303.48)scale(0.12 -0.12)">
     <defs>
      <path d="M 1831 0 
L 50 4666 
L 709 4666 
L 2188 738 
L 3669 4666 
L 4325 4666 
L 2547 0 
L 1831 0 
z
" id="DejaVuSans-56" transform="scale(0.015625)"/>
     </defs>
     <use xlink:href="#DejaVuSans-56"/>
     <use x="60.658203" xlink:href="#DejaVuSans-65"/>
     <use x="122.181641" xlink:href="#DejaVuSans-72"/>
     <use x="163.294922" xlink:href="#DejaVuSans-73"/>
     <use x="215.394531" xlink:href="#DejaVuSans-69"/>
     <use x="243.177734" xlink:href="#DejaVuSans-6f"/>
     <use x="304.359375" xlink:href="#DejaVuSans-6e"/>
    </g>
   </g>
  </g>
  <g id="axes_10">
   <g id="matplotlib.axis_19"/>
   <g id="matplotlib.axis_20"/>
   <g id="patch_23">
    <path d="M 330.455564 339.399786 
C 324.48426 329.057184 314.695723 321.451779 303.198239 318.221648 
C 291.700755 314.991517 279.383627 316.386501 268.899756 322.106146 
L 290.819314 362.283786 
L 330.455564 339.399786 
z
" style="fill:#1f77b4;stroke:#ffffff;stroke-linejoin:miter;"/>
   </g>
   <g id="patch_24">
    <path d="M 267.661863 326.512359 
C 263.68998 328.679284 260.061288 331.423259 256.894335 334.654641 
C 253.727382 337.886022 251.057035 341.569233 248.970532 345.583947 
C 246.884029 349.59866 245.404341 353.900674 244.57981 358.349445 
C 243.755279 362.798217 243.594983 367.344765 244.104157 371.840559 
C 244.613331 376.336352 245.78637 380.731893 247.584952 384.883582 
C 249.383534 389.035271 251.787857 392.897399 254.719373 396.343793 
C 257.650889 399.790187 261.077323 402.782903 264.886736 405.224171 
C 268.696149 407.66544 272.846601 409.528383 277.202497 410.752139 
C 281.558394 411.975895 286.07178 412.546991 290.595205 412.446771 
C 295.11863 412.34655 299.602293 411.576116 303.899715 410.160637 
C 308.197137 408.745158 312.261006 406.70022 315.958556 404.092628 
C 319.656107 401.485036 322.946631 398.343499 325.722629 394.77065 
C 328.498628 391.1978 330.729537 387.232974 332.342475 383.0057 
C 333.955413 378.778426 334.932623 374.335244 335.242178 369.821311 
C 335.551733 365.307378 335.190227 360.77239 334.169468 356.364503 
C 333.14871 351.956616 331.479938 347.724358 329.21767 343.805996 
L 289.581421 366.69 
L 267.661863 326.512359 
z
" style="fill:#ff7f0e;stroke:#ffffff;stroke-linejoin:miter;"/>
   </g>
   <g id="text_52">
    <!-- Yes -->
    <g style="fill:#262626;" transform="translate(304.436132 316.574809)scale(0.1 -0.1)">
     <use xlink:href="#DejaVuSans-59"/>
     <use x="47.833984" xlink:href="#DejaVuSans-65"/>
     <use x="109.357422" xlink:href="#DejaVuSans-73"/>
    </g>
   </g>
   <g id="text_53">
    <!-- 25% -->
    <g style="fill:#262626;" transform="translate(287.133388 338.605878)scale(0.1 -0.1)">
     <use xlink:href="#DejaVuSans-32"/>
     <use x="63.623047" xlink:href="#DejaVuSans-35"/>
     <use x="127.246094" xlink:href="#DejaVuSans-25"/>
    </g>
   </g>
   <g id="text_54">
    <!-- No -->
    <g style="fill:#262626;" transform="translate(262.364605 417.917728)scale(0.1 -0.1)">
     <use xlink:href="#DejaVuSans-4e"/>
     <use x="74.804688" xlink:href="#DejaVuSans-6f"/>
    </g>
   </g>
   <g id="text_55">
    <!-- 75% -->
    <g style="fill:#262626;" transform="translate(271.040786 395.886658)scale(0.1 -0.1)">
     <use xlink:href="#DejaVuSans-37"/>
     <use x="63.623047" xlink:href="#DejaVuSans-35"/>
     <use x="127.246094" xlink:href="#DejaVuSans-25"/>
    </g>
   </g>
   <g id="text_56">
    <!-- Contact Email -->
    <g style="fill:#262626;" transform="translate(247.684546 303.48)scale(0.12 -0.12)">
     <use xlink:href="#DejaVuSans-43"/>
     <use x="69.824219" xlink:href="#DejaVuSans-6f"/>
     <use x="131.005859" xlink:href="#DejaVuSans-6e"/>
     <use x="194.384766" xlink:href="#DejaVuSans-74"/>
     <use x="233.59375" xlink:href="#DejaVuSans-61"/>
     <use x="294.873047" xlink:href="#DejaVuSans-63"/>
     <use x="349.853516" xlink:href="#DejaVuSans-74"/>
     <use x="389.0625" xlink:href="#DejaVuSans-20"/>
     <use x="420.849609" xlink:href="#DejaVuSans-45"/>
     <use x="484.033203" xlink:href="#DejaVuSans-6d"/>
     <use x="581.445312" xlink:href="#DejaVuSans-61"/>
     <use x="642.724609" xlink:href="#DejaVuSans-69"/>
     <use x="670.507812" xlink:href="#DejaVuSans-6c"/>
    </g>
   </g>
  </g>
  <g id="axes_11">
   <g id="matplotlib.axis_21"/>
   <g id="matplotlib.axis_22"/>
   <g id="patch_25">
    <path d="M 522.193733 340.88296 
C 520.902591 338.646637 519.424498 336.523592 517.775286 334.536563 
C 516.126073 332.549533 514.311649 330.70564 512.351446 329.02463 
L 482.557482 363.76696 
L 522.193733 340.88296 
z
" style="fill:#1f77b4;stroke:#ffffff;stroke-linejoin:miter;"/>
   </g>
   <g id="patch_26">
    <path d="M 508.829666 331.947669 
C 504.514448 328.24707 499.5473 325.382619 494.182981 323.501231 
C 488.818661 321.619843 483.150473 320.75424 477.469127 320.948819 
C 471.787782 321.143397 466.192097 322.394772 460.969066 324.638763 
C 455.746035 326.882754 450.986504 330.080331 446.934582 334.067494 
C 442.882659 338.054657 439.608821 342.762057 437.280978 347.948259 
C 434.953135 353.134461 433.611775 358.70926 433.325694 364.386733 
C 433.039614 370.064207 433.813789 375.745604 435.608513 381.139537 
C 437.403238 386.53347 440.187295 391.546119 443.817896 395.920395 
C 447.448497 400.29467 451.862493 403.954488 456.833497 406.712143 
C 461.804502 409.469798 467.246052 411.277325 472.879061 412.042019 
C 478.512071 412.806713 484.238561 412.515273 489.76483 411.182647 
C 495.2911 409.850021 500.521028 407.499388 505.186381 404.251307 
C 509.851734 401.003226 513.871366 396.914194 517.039116 392.193928 
C 520.206866 387.473662 522.467636 382.204265 523.705476 376.655995 
C 524.943316 371.107726 525.136696 365.377086 524.275696 359.757991 
C 523.414696 354.138896 521.514294 348.729081 518.671956 343.806006 
L 479.035702 366.69 
L 508.829666 331.947669 
z
" style="fill:#ff7f0e;stroke:#ffffff;stroke-linejoin:miter;"/>
   </g>
   <g id="text_57">
    <!-- Yes -->
    <g style="fill:#262626;" transform="translate(521.297066 334.372898)scale(0.1 -0.1)">
     <use xlink:href="#DejaVuSans-59"/>
     <use x="47.833984" xlink:href="#DejaVuSans-65"/>
     <use x="109.357422" xlink:href="#DejaVuSans-73"/>
    </g>
   </g>
   <g id="text_58">
    <!-- 5% -->
    <g style="fill:#262626;" transform="translate(495.756133 348.988097)scale(0.1 -0.1)">
     <use xlink:href="#DejaVuSans-35"/>
     <use x="63.623047" xlink:href="#DejaVuSans-25"/>
    </g>
   </g>
   <g id="text_59">
    <!-- No -->
    <g style="fill:#262626;" transform="translate(426.696115 401.602809)scale(0.1 -0.1)">
     <use xlink:href="#DejaVuSans-4e"/>
     <use x="74.804688" xlink:href="#DejaVuSans-6f"/>
    </g>
   </g>
   <g id="text_60">
    <!-- 95% -->
    <g style="fill:#262626;" transform="translate(446.791737 386.987612)scale(0.1 -0.1)">
     <use xlink:href="#DejaVuSans-39"/>
     <use x="63.623047" xlink:href="#DejaVuSans-35"/>
     <use x="127.246094" xlink:href="#DejaVuSans-25"/>
    </g>
   </g>
   <g id="text_61">
    <!-- Wikidata Database -->
    <g style="fill:#262626;" transform="translate(422.378827 303.48)scale(0.12 -0.12)">
     <defs>
      <path d="M 213 4666 
L 850 4666 
L 1831 722 
L 2809 4666 
L 3519 4666 
L 4500 722 
L 5478 4666 
L 6119 4666 
L 4947 0 
L 4153 0 
L 3169 4050 
L 2175 0 
L 1381 0 
L 213 4666 
z
" id="DejaVuSans-57" transform="scale(0.015625)"/>
      <path d="M 581 4863 
L 1159 4863 
L 1159 1991 
L 2875 3500 
L 3609 3500 
L 1753 1863 
L 3688 0 
L 2938 0 
L 1159 1709 
L 1159 0 
L 581 0 
L 581 4863 
z
" id="DejaVuSans-6b" transform="scale(0.015625)"/>
      <path d="M 3116 1747 
Q 3116 2381 2855 2742 
Q 2594 3103 2138 3103 
Q 1681 3103 1420 2742 
Q 1159 2381 1159 1747 
Q 1159 1113 1420 752 
Q 1681 391 2138 391 
Q 2594 391 2855 752 
Q 3116 1113 3116 1747 
z
M 1159 2969 
Q 1341 3281 1617 3432 
Q 1894 3584 2278 3584 
Q 2916 3584 3314 3078 
Q 3713 2572 3713 1747 
Q 3713 922 3314 415 
Q 2916 -91 2278 -91 
Q 1894 -91 1617 61 
Q 1341 213 1159 525 
L 1159 0 
L 581 0 
L 581 4863 
L 1159 4863 
L 1159 2969 
z
" id="DejaVuSans-62" transform="scale(0.015625)"/>
     </defs>
     <use xlink:href="#DejaVuSans-57"/>
     <use x="96.626953" xlink:href="#DejaVuSans-69"/>
     <use x="124.410156" xlink:href="#DejaVuSans-6b"/>
     <use x="182.320312" xlink:href="#DejaVuSans-69"/>
     <use x="210.103516" xlink:href="#DejaVuSans-64"/>
     <use x="273.580078" xlink:href="#DejaVuSans-61"/>
     <use x="334.859375" xlink:href="#DejaVuSans-74"/>
     <use x="374.068359" xlink:href="#DejaVuSans-61"/>
     <use x="435.347656" xlink:href="#DejaVuSans-20"/>
     <use x="467.134766" xlink:href="#DejaVuSans-44"/>
     <use x="544.136719" xlink:href="#DejaVuSans-61"/>
     <use x="605.416016" xlink:href="#DejaVuSans-74"/>
     <use x="644.625" xlink:href="#DejaVuSans-61"/>
     <use x="705.904297" xlink:href="#DejaVuSans-62"/>
     <use x="769.380859" xlink:href="#DejaVuSans-61"/>
     <use x="830.660156" xlink:href="#DejaVuSans-73"/>
     <use x="882.759766" xlink:href="#DejaVuSans-65"/>
    </g>
   </g>
  </g>
  <g id="axes_12">
   <g id="matplotlib.axis_23"/>
   <g id="matplotlib.axis_24"/>
   <g id="patch_27">
    <path d="M 711.197832 340.41301 
C 708.817115 336.289488 705.807434 332.562622 702.277567 329.367111 
C 698.7477 326.171601 694.740693 323.546414 690.40137 321.586434 
L 671.561581 363.29701 
L 711.197832 340.41301 
z
" style="fill:#1f77b4;stroke:#ffffff;stroke-linejoin:miter;"/>
   </g>
   <g id="patch_28">
    <path d="M 687.329771 324.979424 
C 682.398405 322.752029 677.110877 321.416722 671.713244 321.035642 
C 666.315611 320.654562 660.89292 321.233712 655.697516 322.746142 
C 650.502113 324.258573 645.615857 326.680453 641.266133 329.89908 
C 636.916408 333.117707 633.17175 337.082367 630.206417 341.608564 
C 627.241084 346.134762 625.101798 351.15118 623.888112 356.424379 
C 622.674426 361.697578 622.405463 367.144472 623.093739 372.511589 
C 623.782015 377.878705 625.416685 383.081479 627.921681 387.877796 
C 630.426676 392.674114 633.762526 396.988404 637.773997 400.619899 
C 641.785468 404.251395 646.409355 407.142878 651.430482 409.159792 
C 656.451609 411.176707 661.790864 412.287273 667.199782 412.439811 
C 672.6087 412.592349 678.002058 411.784455 683.128873 410.053726 
C 688.255689 408.322996 693.035183 405.6967 697.244941 402.297053 
C 701.454699 398.897406 705.028391 394.777973 707.799713 390.130454 
C 710.571036 385.482935 712.496325 380.380557 713.485984 375.06076 
C 714.475644 369.740964 714.514083 364.287569 713.599511 358.95435 
C 712.684939 353.621131 710.831767 348.492121 708.126232 343.805998 
L 668.489983 366.69 
L 687.329771 324.979424 
z
" style="fill:#ff7f0e;stroke:#ffffff;stroke-linejoin:miter;"/>
   </g>
   <g id="text_62">
    <!-- Yes -->
    <g style="fill:#262626;" transform="translate(705.349166 328.733496)scale(0.1 -0.1)">
     <use xlink:href="#DejaVuSans-59"/>
     <use x="47.833984" xlink:href="#DejaVuSans-65"/>
     <use x="109.357422" xlink:href="#DejaVuSans-73"/>
    </g>
   </g>
   <g id="text_63">
    <!-- 10% -->
    <g style="fill:#262626;" transform="translate(678.877891 345.698446)scale(0.1 -0.1)">
     <use xlink:href="#DejaVuSans-31"/>
     <use x="63.623047" xlink:href="#DejaVuSans-30"/>
     <use x="127.246094" xlink:href="#DejaVuSans-25"/>
    </g>
   </g>
   <g id="text_64">
    <!-- No -->
    <g style="fill:#262626;" transform="translate(621.102399 406.772264)scale(0.1 -0.1)">
     <use xlink:href="#DejaVuSans-4e"/>
     <use x="74.804688" xlink:href="#DejaVuSans-6f"/>
    </g>
   </g>
   <g id="text_65">
    <!-- 90% -->
    <g style="fill:#262626;" transform="translate(638.94711 389.807315)scale(0.1 -0.1)">
     <use xlink:href="#DejaVuSans-39"/>
     <use x="63.623047" xlink:href="#DejaVuSans-30"/>
     <use x="127.246094" xlink:href="#DejaVuSans-25"/>
    </g>
   </g>
   <g id="text_66">
    <!-- OBO -->
    <g style="fill:#262626;" transform="translate(655.03217 303.48)scale(0.12 -0.12)">
     <use xlink:href="#DejaVuSans-4f"/>
     <use x="78.710938" xlink:href="#DejaVuSans-42"/>
     <use x="145.564453" xlink:href="#DejaVuSans-4f"/>
    </g>
   </g>
  </g>
  <g id="axes_13">
   <g id="matplotlib.axis_25"/>
   <g id="matplotlib.axis_26"/>
   <g id="patch_29">
    <path d="M 141.107393 480.730985 
C 135.326949 470.718962 125.962344 463.25975 114.91116 459.864833 
C 103.859975 456.469917 91.922727 457.385214 81.518299 462.425255 
L 101.471142 503.614985 
L 141.107393 480.730985 
z
" style="fill:#1f77b4;stroke:#ffffff;stroke-linejoin:miter;"/>
   </g>
   <g id="patch_30">
    <path d="M 80.174297 466.80027 
C 76.060657 468.792971 72.268648 471.390723 68.924676 474.506929 
C 65.580704 477.623135 62.722346 481.22278 60.444886 485.185867 
C 58.167425 489.148954 56.496453 493.430953 55.487673 497.889119 
C 54.478893 502.347286 54.14364 506.931526 54.493089 511.489022 
C 54.842538 516.046519 55.872763 520.52606 57.549421 524.778319 
C 59.226079 529.030578 61.53033 533.007773 64.385361 536.577323 
C 67.240392 540.146873 70.614121 543.268668 74.394084 545.838641 
C 78.174048 548.408615 82.317771 550.397889 86.687121 551.740151 
C 91.056471 553.082413 95.602351 553.762579 100.173223 553.757977 
C 104.744094 553.753375 109.288596 553.064055 113.655234 551.712997 
C 118.021872 550.36194 122.161581 548.364325 125.936362 545.786745 
C 129.711142 543.209165 133.078578 540.080582 135.926415 536.50529 
C 138.774252 532.929998 141.070489 528.948171 142.738581 524.692544 
C 144.406672 520.436918 145.427875 515.955311 145.768146 511.39712 
C 146.108416 506.838929 145.763932 502.255374 144.746176 497.799247 
C 143.728421 493.343121 142.04883 489.064497 139.763393 485.106004 
L 100.12714 507.99 
L 80.174297 466.80027 
z
" style="fill:#ff7f0e;stroke:#ffffff;stroke-linejoin:miter;"/>
   </g>
   <g id="text_67">
    <!-- Yes -->
    <g style="fill:#262626;" transform="translate(116.255161 458.249193)scale(0.1 -0.1)">
     <use xlink:href="#DejaVuSans-59"/>
     <use x="47.833984" xlink:href="#DejaVuSans-65"/>
     <use x="109.357422" xlink:href="#DejaVuSans-73"/>
    </g>
   </g>
   <g id="text_68">
    <!-- 24% -->
    <g style="fill:#262626;" transform="translate(98.421871 480.124269)scale(0.1 -0.1)">
     <use xlink:href="#DejaVuSans-32"/>
     <use x="63.623047" xlink:href="#DejaVuSans-34"/>
     <use x="127.246094" xlink:href="#DejaVuSans-25"/>
    </g>
   </g>
   <g id="text_69">
    <!-- No -->
    <g style="fill:#262626;" transform="translate(71.743119 558.874541)scale(0.1 -0.1)">
     <use xlink:href="#DejaVuSans-4e"/>
     <use x="74.804688" xlink:href="#DejaVuSans-6f"/>
    </g>
   </g>
   <g id="text_70">
    <!-- 76% -->
    <g style="fill:#262626;" transform="translate(80.949847 536.999466)scale(0.1 -0.1)">
     <use xlink:href="#DejaVuSans-37"/>
     <use x="63.623047" xlink:href="#DejaVuSans-36"/>
     <use x="127.246094" xlink:href="#DejaVuSans-25"/>
    </g>
   </g>
   <g id="text_71">
    <!-- OWL -->
    <g style="fill:#262626;" transform="translate(86.12839 444.78)scale(0.12 -0.12)">
     <use xlink:href="#DejaVuSans-4f"/>
     <use x="78.710938" xlink:href="#DejaVuSans-57"/>
     <use x="177.587891" xlink:href="#DejaVuSans-4c"/>
    </g>
   </g>
  </g>
  <g id="axes_14">
   <g id="matplotlib.axis_27"/>
   <g id="matplotlib.axis_28"/>
   <g id="patch_31">
    <path d="M 333.066108 482.628776 
C 332.697412 481.990176 332.313337 481.36058 331.914218 480.740538 
C 331.5151 480.120497 331.101055 479.510192 330.672447 478.910157 
L 293.429857 505.512776 
L 333.066108 482.628776 
z
" style="fill:#1f77b4;stroke:#ffffff;stroke-linejoin:miter;"/>
   </g>
   <g id="patch_32">
    <path d="M 326.824011 481.387381 
C 323.384666 476.572437 319.043977 472.46986 314.042853 469.30734 
C 309.041729 466.144821 303.474432 463.981968 297.649948 462.938821 
C 291.825463 461.895674 285.853574 461.991894 280.065719 463.222141 
C 274.277863 464.452387 268.783135 466.793472 263.88649 470.115466 
C 258.989845 473.437459 254.783578 477.677747 251.501136 482.600993 
C 248.218694 487.524239 245.921946 493.037647 244.738362 498.835224 
C 243.554779 504.632802 243.506667 510.605272 244.596698 516.421165 
C 245.686729 522.237057 247.894358 527.786751 251.09706 532.762238 
C 254.299762 537.737725 258.437172 542.045225 263.279665 545.445673 
C 268.122157 548.846121 273.578457 551.275422 279.345742 552.598751 
C 285.113027 553.922081 291.082591 554.114496 296.923125 553.165316 
C 302.763659 552.216137 308.365076 550.143255 313.4165 547.061714 
C 318.467923 543.980173 322.874141 539.948057 326.390609 535.189146 
C 329.907076 530.430235 332.467513 525.034229 333.929815 519.300605 
C 335.392117 513.56698 335.728723 507.603809 334.92095 501.742045 
C 334.113177 495.880281 332.176251 490.23041 329.217672 485.106 
L 289.581421 507.99 
L 326.824011 481.387381 
z
" style="fill:#ff7f0e;stroke:#ffffff;stroke-linejoin:miter;"/>
   </g>
   <g id="text_72">
    <!-- Yes -->
    <g style="fill:#262626;" transform="translate(335.762654 481.02269)scale(0.1 -0.1)">
     <use xlink:href="#DejaVuSans-59"/>
     <use x="47.833984" xlink:href="#DejaVuSans-65"/>
     <use x="109.357422" xlink:href="#DejaVuSans-73"/>
    </g>
   </g>
   <g id="text_73">
    <!-- 2% -->
    <g style="fill:#262626;" transform="translate(308.588443 493.408808)scale(0.1 -0.1)">
     <use xlink:href="#DejaVuSans-32"/>
     <use x="63.623047" xlink:href="#DejaVuSans-25"/>
    </g>
   </g>
   <g id="text_74">
    <!-- No -->
    <g style="fill:#262626;" transform="translate(233.648624 537.998837)scale(0.1 -0.1)">
     <use xlink:href="#DejaVuSans-4e"/>
     <use x="74.804688" xlink:href="#DejaVuSans-6f"/>
    </g>
   </g>
   <g id="text_75">
    <!-- 98% -->
    <g style="fill:#262626;" transform="translate(255.377523 525.612718)scale(0.1 -0.1)">
     <use xlink:href="#DejaVuSans-39"/>
     <use x="63.623047" xlink:href="#DejaVuSans-38"/>
     <use x="127.246094" xlink:href="#DejaVuSans-25"/>
    </g>
   </g>
   <g id="text_76">
    <!-- JSON -->
    <g style="fill:#262626;" transform="translate(274.790484 444.78)scale(0.12 -0.12)">
     <defs>
      <path d="M 628 4666 
L 1259 4666 
L 1259 325 
Q 1259 -519 939 -900 
Q 619 -1281 -91 -1281 
L -331 -1281 
L -331 -750 
L -134 -750 
Q 284 -750 456 -515 
Q 628 -281 628 325 
L 628 4666 
z
" id="DejaVuSans-4a" transform="scale(0.015625)"/>
      <path d="M 3425 4513 
L 3425 3897 
Q 3066 4069 2747 4153 
Q 2428 4238 2131 4238 
Q 1616 4238 1336 4038 
Q 1056 3838 1056 3469 
Q 1056 3159 1242 3001 
Q 1428 2844 1947 2747 
L 2328 2669 
Q 3034 2534 3370 2195 
Q 3706 1856 3706 1288 
Q 3706 609 3251 259 
Q 2797 -91 1919 -91 
Q 1588 -91 1214 -16 
Q 841 59 441 206 
L 441 856 
Q 825 641 1194 531 
Q 1563 422 1919 422 
Q 2459 422 2753 634 
Q 3047 847 3047 1241 
Q 3047 1584 2836 1778 
Q 2625 1972 2144 2069 
L 1759 2144 
Q 1053 2284 737 2584 
Q 422 2884 422 3419 
Q 422 4038 858 4394 
Q 1294 4750 2059 4750 
Q 2388 4750 2728 4690 
Q 3069 4631 3425 4513 
z
" id="DejaVuSans-53" transform="scale(0.015625)"/>
     </defs>
     <use xlink:href="#DejaVuSans-4a"/>
     <use x="29.492188" xlink:href="#DejaVuSans-53"/>
     <use x="92.96875" xlink:href="#DejaVuSans-4f"/>
     <use x="171.679688" xlink:href="#DejaVuSans-4e"/>
    </g>
   </g>
  </g>
  <g id="axes_15"/>
  <g id="axes_16"/>
  <g id="text_77">
   <!-- https://github.com/bioregistry/bioregistry (2021-07-10) -->
   <g style="fill:#808080;opacity:0.5;" transform="translate(285.830625 574.33625)scale(0.08 -0.08)">
    <defs>
     <path d="M 750 794 
L 1409 794 
L 1409 0 
L 750 0 
L 750 794 
z
M 750 3309 
L 1409 3309 
L 1409 2516 
L 750 2516 
L 750 3309 
z
" id="DejaVuSans-3a" transform="scale(0.015625)"/>
     <path d="M 1625 4666 
L 2156 4666 
L 531 -594 
L 0 -594 
L 1625 4666 
z
" id="DejaVuSans-2f" transform="scale(0.015625)"/>
     <path d="M 544 1381 
L 544 3500 
L 1119 3500 
L 1119 1403 
Q 1119 906 1312 657 
Q 1506 409 1894 409 
Q 2359 409 2629 706 
Q 2900 1003 2900 1516 
L 2900 3500 
L 3475 3500 
L 3475 0 
L 2900 0 
L 2900 538 
Q 2691 219 2414 64 
Q 2138 -91 1772 -91 
Q 1169 -91 856 284 
Q 544 659 544 1381 
z
M 1991 3584 
L 1991 3584 
z
" id="DejaVuSans-75" transform="scale(0.015625)"/>
     <path d="M 1984 4856 
Q 1566 4138 1362 3434 
Q 1159 2731 1159 2009 
Q 1159 1288 1364 580 
Q 1569 -128 1984 -844 
L 1484 -844 
Q 1016 -109 783 600 
Q 550 1309 550 2009 
Q 550 2706 781 3412 
Q 1013 4119 1484 4856 
L 1984 4856 
z
" id="DejaVuSans-28" transform="scale(0.015625)"/>
     <path d="M 513 4856 
L 1013 4856 
Q 1481 4119 1714 3412 
Q 1947 2706 1947 2009 
Q 1947 1309 1714 600 
Q 1481 -109 1013 -844 
L 513 -844 
Q 928 -128 1133 580 
Q 1338 1288 1338 2009 
Q 1338 2731 1133 3434 
Q 928 4138 513 4856 
z
" id="DejaVuSans-29" transform="scale(0.015625)"/>
    </defs>
    <use xlink:href="#DejaVuSans-68"/>
    <use x="63.378906" xlink:href="#DejaVuSans-74"/>
    <use x="102.587891" xlink:href="#DejaVuSans-74"/>
    <use x="141.796875" xlink:href="#DejaVuSans-70"/>
    <use x="205.273438" xlink:href="#DejaVuSans-73"/>
    <use x="257.373047" xlink:href="#DejaVuSans-3a"/>
    <use x="291.064453" xlink:href="#DejaVuSans-2f"/>
    <use x="324.755859" xlink:href="#DejaVuSans-2f"/>
    <use x="358.447266" xlink:href="#DejaVuSans-67"/>
    <use x="421.923828" xlink:href="#DejaVuSans-69"/>
    <use x="449.707031" xlink:href="#DejaVuSans-74"/>
    <use x="488.916016" xlink:href="#DejaVuSans-68"/>
    <use x="552.294922" xlink:href="#DejaVuSans-75"/>
    <use x="615.673828" xlink:href="#DejaVuSans-62"/>
    <use x="679.150391" xlink:href="#DejaVuSans-2e"/>
    <use x="710.9375" xlink:href="#DejaVuSans-63"/>
    <use x="765.917969" xlink:href="#DejaVuSans-6f"/>
    <use x="827.099609" xlink:href="#DejaVuSans-6d"/>
    <use x="924.511719" xlink:href="#DejaVuSans-2f"/>
    <use x="958.203125" xlink:href="#DejaVuSans-62"/>
    <use x="1021.679688" xlink:href="#DejaVuSans-69"/>
    <use x="1049.462891" xlink:href="#DejaVuSans-6f"/>
    <use x="1110.644531" xlink:href="#DejaVuSans-72"/>
    <use x="1149.507812" xlink:href="#DejaVuSans-65"/>
    <use x="1211.03125" xlink:href="#DejaVuSans-67"/>
    <use x="1274.507812" xlink:href="#DejaVuSans-69"/>
    <use x="1302.291016" xlink:href="#DejaVuSans-73"/>
    <use x="1354.390625" xlink:href="#DejaVuSans-74"/>
    <use x="1393.599609" xlink:href="#DejaVuSans-72"/>
    <use x="1434.712891" xlink:href="#DejaVuSans-79"/>
    <use x="1493.892578" xlink:href="#DejaVuSans-2f"/>
    <use x="1527.583984" xlink:href="#DejaVuSans-62"/>
    <use x="1591.060547" xlink:href="#DejaVuSans-69"/>
    <use x="1618.84375" xlink:href="#DejaVuSans-6f"/>
    <use x="1680.025391" xlink:href="#DejaVuSans-72"/>
    <use x="1718.888672" xlink:href="#DejaVuSans-65"/>
    <use x="1780.412109" xlink:href="#DejaVuSans-67"/>
    <use x="1843.888672" xlink:href="#DejaVuSans-69"/>
    <use x="1871.671875" xlink:href="#DejaVuSans-73"/>
    <use x="1923.771484" xlink:href="#DejaVuSans-74"/>
    <use x="1962.980469" xlink:href="#DejaVuSans-72"/>
    <use x="2004.09375" xlink:href="#DejaVuSans-79"/>
    <use x="2063.273438" xlink:href="#DejaVuSans-20"/>
    <use x="2095.060547" xlink:href="#DejaVuSans-28"/>
    <use x="2134.074219" xlink:href="#DejaVuSans-32"/>
    <use x="2197.697266" xlink:href="#DejaVuSans-30"/>
    <use x="2261.320312" xlink:href="#DejaVuSans-32"/>
    <use x="2324.943359" xlink:href="#DejaVuSans-31"/>
    <use x="2388.566406" xlink:href="#DejaVuSans-2d"/>
    <use x="2424.650391" xlink:href="#DejaVuSans-30"/>
    <use x="2488.273438" xlink:href="#DejaVuSans-37"/>
    <use x="2551.896484" xlink:href="#DejaVuSans-2d"/>
    <use x="2587.980469" xlink:href="#DejaVuSans-31"/>
    <use x="2651.603516" xlink:href="#DejaVuSans-30"/>
    <use x="2715.226562" xlink:href="#DejaVuSans-29"/>
   </g>
  </g>
 </g>
</svg>
