<?xml version="1.0" encoding="utf-8" standalone="no"?>
<!DOCTYPE svg PUBLIC "-//W3C//DTD SVG 1.1//EN"
  "http://www.w3.org/Graphics/SVG/1.1/DTD/svg11.dtd">
<svg xmlns:xlink="http://www.w3.org/1999/xlink" width="792pt" height="576pt" viewBox="0 0 792 576" xmlns="http://www.w3.org/2000/svg" version="1.1">
 <metadata>
  <rdf:RDF xmlns:dc="http://purl.org/dc/elements/1.1/" xmlns:cc="http://creativecommons.org/ns#" xmlns:rdf="http://www.w3.org/1999/02/22-rdf-syntax-ns#">
   <cc:Work>
    <dc:type rdf:resource="http://purl.org/dc/dcmitype/StillImage"/>
    <dc:date>2026-08-22T02:03:52.064861</dc:date>
    <dc:format>image/svg+xml</dc:format>
    <dc:creator>
     <cc:Agent>
      <dc:title>Matplotlib v3.11.1, https://matplotlib.org/</dc:title>
     </cc:Agent>
    </dc:creator>
   </cc:Work>
  </rdf:RDF>
 </metadata>
 <defs>
  <style type="text/css">*{stroke-linejoin: round; stroke-linecap: butt}</style>
 </defs>
 <g id="figure_1">
  <g id="patch_1">
   <path d="M 0 576 
L 792 576 
L 792 0 
L 0 0 
z
" style="fill: #ffffff"/>
  </g>
  <g id="axes_1">
   <g id="matplotlib.axis_1"/>
   <g id="matplotlib.axis_2"/>
   <g id="patch_2">
    <path d="M 133.741889 61.780883 
C 130.995805 57.024526 127.420939 52.797496 123.186496 49.299867 
C 118.952053 45.802238 114.125913 43.090077 108.936504 41.291757 
C 103.747096 39.493436 98.277607 38.637784 92.786919 38.765298 
C 87.296231 38.892812 81.872361 40.00145 76.77203 42.038736 
C 71.671698 44.076023 66.976666 47.0093 62.909157 50.699732 
C 58.841647 54.390163 55.466864 58.77859 52.944542 63.657299 
C 50.42222 68.536009 48.792793 73.826795 48.133383 79.279234 
C 47.473974 84.731673 47.795153 90.258362 49.081719 95.597713 
C 50.368284 100.937063 52.599613 106.003484 55.670091 110.557173 
C 58.740569 115.110861 62.600977 119.07882 67.068594 122.27324 
C 71.53621 125.467659 76.53942 127.837331 81.84141 129.270095 
C 87.1434 130.702859 92.65918 131.175748 98.127677 130.666378 
C 103.596174 130.157008 108.929726 128.673545 113.875888 126.286204 
C 118.82205 123.898863 123.301534 120.645914 127.102316 116.681324 
C 130.903098 112.716734 133.964251 108.104058 136.140886 103.06162 
C 138.317522 98.019183 139.574746 92.627816 139.853054 87.142704 
L 93.856223 84.808883 
z
" style="fill: #1f77b4; stroke: #ffffff; stroke-linejoin: miter"/>
   </g>
   <g id="patch_3">
    <path d="M 144.330504 86.063821 
C 144.554271 81.653654 144.14261 77.23414 143.108179 72.94117 
C 142.073748 68.6482 140.42726 64.526229 138.21934 60.702 
L 98.333674 83.73 
z
" style="fill: #ff7f0e; stroke: #ffffff; stroke-linejoin: miter"/>
   </g>
   <g id="text_1">
    <!-- Yes -->
    <g style="fill: #262626" transform="translate(28.462081 99.274252) scale(0.1 -0.1)">
     <defs>
      <path id="DejaVuSans-3c" d="M -13 4666 
L 666 4666 
L 1959 2747 
L 3244 4666 
L 3922 4666 
L 2272 2222 
L 2272 0 
L 1638 0 
L 1638 2222 
L -13 4666 
z
" transform="scale(0.015625)"/>
      <path id="DejaVuSans-48" d="M 3597 1894 
L 3597 1613 
L 953 1613 
Q 991 1019 1311 708 
Q 1631 397 2203 397 
Q 2534 397 2845 478 
Q 3156 559 3463 722 
L 3463 178 
Q 3153 47 2828 -22 
Q 2503 -91 2169 -91 
Q 1331 -91 842 396 
Q 353 884 353 1716 
Q 353 2575 817 3079 
Q 1281 3584 2069 3584 
Q 2775 3584 3186 3129 
Q 3597 2675 3597 1894 
z
M 3022 2063 
Q 3016 2534 2758 2815 
Q 2500 3097 2075 3097 
Q 1594 3097 1305 2825 
Q 1016 2553 972 2059 
L 3022 2063 
z
" transform="scale(0.015625)"/>
      <path id="DejaVuSans-56" d="M 2834 3397 
L 2834 2853 
Q 2591 2978 2328 3040 
Q 2066 3103 1784 3103 
Q 1356 3103 1142 2972 
Q 928 2841 928 2578 
Q 928 2378 1081 2264 
Q 1234 2150 1697 2047 
L 1894 2003 
Q 2506 1872 2764 1633 
Q 3022 1394 3022 966 
Q 3022 478 2636 193 
Q 2250 -91 1575 -91 
Q 1294 -91 989 -36 
Q 684 19 347 128 
L 347 722 
Q 666 556 975 473 
Q 1284 391 1588 391 
Q 1994 391 2212 530 
Q 2431 669 2431 922 
Q 2431 1156 2273 1281 
Q 2116 1406 1581 1522 
L 1381 1569 
Q 847 1681 609 1914 
Q 372 2147 372 2553 
Q 372 3047 722 3315 
Q 1072 3584 1716 3584 
Q 2034 3584 2315 3537 
Q 2597 3491 2834 3397 
z
" transform="scale(0.015625)"/>
     </defs>
     <use xlink:href="#DejaVuSans-3c"/>
     <use xlink:href="#DejaVuSans-48" transform="translate(47.796875 0)"/>
     <use xlink:href="#DejaVuSans-56" transform="translate(109.328125 0)"/>
    </g>
   </g>
   <g id="text_2">
    <!-- No -->
    <g style="fill: #262626" transform="translate(147.585629 74.459944) scale(0.1 -0.1)">
     <defs>
      <path id="DejaVuSans-31" d="M 628 4666 
L 1478 4666 
L 3547 763 
L 3547 4666 
L 4159 4666 
L 4159 0 
L 3309 0 
L 1241 3903 
L 1241 0 
L 628 0 
L 628 4666 
z
" transform="scale(0.015625)"/>
      <path id="DejaVuSans-52" d="M 1959 3097 
Q 1497 3097 1228 2736 
Q 959 2375 959 1747 
Q 959 1119 1226 758 
Q 1494 397 1959 397 
Q 2419 397 2687 759 
Q 2956 1122 2956 1747 
Q 2956 2369 2687 2733 
Q 2419 3097 1959 3097 
z
M 1959 3584 
Q 2709 3584 3137 3096 
Q 3566 2609 3566 1747 
Q 3566 888 3137 398 
Q 2709 -91 1959 -91 
Q 1206 -91 779 398 
Q 353 888 353 1747 
Q 353 2609 779 3096 
Q 1206 3584 1959 3584 
z
" transform="scale(0.015625)"/>
     </defs>
     <use xlink:href="#DejaVuSans-31"/>
     <use xlink:href="#DejaVuSans-52" transform="translate(74.8125 0)"/>
    </g>
   </g>
   <g id="text_3">
    <!-- 91% -->
    <g style="fill: #262626" transform="translate(55.878239 93.879837) scale(0.1 -0.1)">
     <defs>
      <path id="DejaVuSans-1c" d="M 703 97 
L 703 672 
Q 941 559 1184 500 
Q 1428 441 1663 441 
Q 2288 441 2617 861 
Q 2947 1281 2994 2138 
Q 2813 1869 2534 1725 
Q 2256 1581 1919 1581 
Q 1219 1581 811 2004 
Q 403 2428 403 3163 
Q 403 3881 828 4315 
Q 1253 4750 1959 4750 
Q 2769 4750 3195 4129 
Q 3622 3509 3622 2328 
Q 3622 1225 3098 567 
Q 2575 -91 1691 -91 
Q 1453 -91 1209 -44 
Q 966 3 703 97 
z
M 1959 2075 
Q 2384 2075 2632 2365 
Q 2881 2656 2881 3163 
Q 2881 3666 2632 3958 
Q 2384 4250 1959 4250 
Q 1534 4250 1286 3958 
Q 1038 3666 1038 3163 
Q 1038 2656 1286 2365 
Q 1534 2075 1959 2075 
z
" transform="scale(0.015625)"/>
      <path id="DejaVuSans-14" d="M 794 531 
L 1825 531 
L 1825 4091 
L 703 3866 
L 703 4441 
L 1819 4666 
L 2450 4666 
L 2450 531 
L 3481 531 
L 3481 0 
L 794 0 
L 794 531 
z
" transform="scale(0.015625)"/>
      <path id="DejaVuSans-8" d="M 4653 2053 
Q 4381 2053 4226 1822 
Q 4072 1591 4072 1178 
Q 4072 772 4226 539 
Q 4381 306 4653 306 
Q 4919 306 5073 539 
Q 5228 772 5228 1178 
Q 5228 1588 5073 1820 
Q 4919 2053 4653 2053 
z
M 4653 2450 
Q 5147 2450 5437 2106 
Q 5728 1763 5728 1178 
Q 5728 594 5436 251 
Q 5144 -91 4653 -91 
Q 4153 -91 3862 251 
Q 3572 594 3572 1178 
Q 3572 1766 3864 2108 
Q 4156 2450 4653 2450 
z
M 1428 4353 
Q 1159 4353 1004 4120 
Q 850 3888 850 3481 
Q 850 3069 1003 2837 
Q 1156 2606 1428 2606 
Q 1700 2606 1854 2837 
Q 2009 3069 2009 3481 
Q 2009 3884 1853 4118 
Q 1697 4353 1428 4353 
z
M 4250 4750 
L 4750 4750 
L 1831 -91 
L 1331 -91 
L 4250 4750 
z
M 1428 4750 
Q 1922 4750 2215 4408 
Q 2509 4066 2509 3481 
Q 2509 2891 2217 2550 
Q 1925 2209 1428 2209 
Q 931 2209 642 2551 
Q 353 2894 353 3481 
Q 353 4063 643 4406 
Q 934 4750 1428 4750 
z
" transform="scale(0.015625)"/>
     </defs>
     <use xlink:href="#DejaVuSans-1c"/>
     <use xlink:href="#DejaVuSans-14" transform="translate(63.625 0)"/>
     <use xlink:href="#DejaVuSans-8" transform="translate(127.25 0)"/>
    </g>
   </g>
   <g id="text_4">
    <!-- 9% -->
    <g style="fill: #262626" transform="translate(117.266346 79.854358) scale(0.1 -0.1)">
     <use xlink:href="#DejaVuSans-1c"/>
     <use xlink:href="#DejaVuSans-8" transform="translate(63.625 0)"/>
    </g>
   </g>
   <g id="text_5">
    <!-- Name -->
    <g style="fill: #262626" transform="translate(80.631799 20.16) scale(0.12 -0.12)">
     <defs>
      <path id="DejaVuSans-44" d="M 2194 1759 
Q 1497 1759 1228 1600 
Q 959 1441 959 1056 
Q 959 750 1161 570 
Q 1363 391 1709 391 
Q 2188 391 2477 730 
Q 2766 1069 2766 1631 
L 2766 1759 
L 2194 1759 
z
M 3341 1997 
L 3341 0 
L 2766 0 
L 2766 531 
Q 2569 213 2275 61 
Q 1981 -91 1556 -91 
Q 1019 -91 701 211 
Q 384 513 384 1019 
Q 384 1609 779 1909 
Q 1175 2209 1959 2209 
L 2766 2209 
L 2766 2266 
Q 2766 2663 2505 2880 
Q 2244 3097 1772 3097 
Q 1472 3097 1187 3025 
Q 903 2953 641 2809 
L 641 3341 
Q 956 3463 1253 3523 
Q 1550 3584 1831 3584 
Q 2591 3584 2966 3190 
Q 3341 2797 3341 1997 
z
" transform="scale(0.015625)"/>
      <path id="DejaVuSans-50" d="M 3328 2828 
Q 3544 3216 3844 3400 
Q 4144 3584 4550 3584 
Q 5097 3584 5394 3201 
Q 5691 2819 5691 2113 
L 5691 0 
L 5113 0 
L 5113 2094 
Q 5113 2597 4934 2840 
Q 4756 3084 4391 3084 
Q 3944 3084 3684 2787 
Q 3425 2491 3425 1978 
L 3425 0 
L 2847 0 
L 2847 2094 
Q 2847 2600 2669 2842 
Q 2491 3084 2119 3084 
Q 1678 3084 1418 2786 
Q 1159 2488 1159 1978 
L 1159 0 
L 581 0 
L 581 3500 
L 1159 3500 
L 1159 2956 
Q 1356 3278 1631 3431 
Q 1906 3584 2284 3584 
Q 2666 3584 2933 3390 
Q 3200 3197 3328 2828 
z
" transform="scale(0.015625)"/>
     </defs>
     <use xlink:href="#DejaVuSans-31"/>
     <use xlink:href="#DejaVuSans-44" transform="translate(74.8125 0)"/>
     <use xlink:href="#DejaVuSans-50" transform="translate(136.09375 0)"/>
     <use xlink:href="#DejaVuSans-48" transform="translate(233.5 0)"/>
    </g>
   </g>
  </g>
  <g id="axes_2">
   <g id="matplotlib.axis_3"/>
   <g id="matplotlib.axis_4"/>
   <g id="patch_4">
    <path d="M 319.609237 61.780883 
C 316.863153 57.024526 313.288287 52.797496 309.053844 49.299867 
C 304.819401 45.802238 299.993261 43.090077 294.803852 41.291757 
C 289.614444 39.493436 284.144955 38.637784 278.654267 38.765298 
C 273.163579 38.892812 267.739709 40.00145 262.639378 42.038736 
C 257.539046 44.076023 252.844014 47.0093 248.776505 50.699732 
C 244.708995 54.390163 241.334212 58.77859 238.81189 63.657299 
C 236.289568 68.536009 234.660141 73.826795 234.000731 79.279234 
C 233.341322 84.731673 233.662501 90.258362 234.949066 95.597713 
C 236.235632 100.937063 238.466961 106.003484 241.537439 110.557173 
C 244.607917 115.110861 248.468325 119.07882 252.935942 122.27324 
C 257.403558 125.467659 262.406768 127.837331 267.708758 129.270095 
C 273.010748 130.702859 278.526528 131.175748 283.995025 130.666378 
C 289.463522 130.157008 294.797074 128.673545 299.743236 126.286204 
C 304.689398 123.898863 309.168881 120.645914 312.969663 116.681324 
C 316.770445 112.716734 319.831599 108.104058 322.008234 103.06162 
C 324.184869 98.019183 325.442094 92.627816 325.720402 87.142704 
L 279.723571 84.808883 
z
" style="fill: #1f77b4; stroke: #ffffff; stroke-linejoin: miter"/>
   </g>
   <g id="patch_5">
    <path d="M 330.197852 86.063821 
C 330.421619 81.653654 330.009958 77.23414 328.975527 72.94117 
C 327.941096 68.6482 326.294608 64.526229 324.086688 60.702 
L 284.201022 83.73 
z
" style="fill: #ff7f0e; stroke: #ffffff; stroke-linejoin: miter"/>
   </g>
   <g id="text_6">
    <!-- Yes -->
    <g style="fill: #262626" transform="translate(214.329428 99.274252) scale(0.1 -0.1)">
     <use xlink:href="#DejaVuSans-3c"/>
     <use xlink:href="#DejaVuSans-48" transform="translate(47.796875 0)"/>
     <use xlink:href="#DejaVuSans-56" transform="translate(109.328125 0)"/>
    </g>
   </g>
   <g id="text_7">
    <!-- No -->
    <g style="fill: #262626" transform="translate(333.452977 74.459944) scale(0.1 -0.1)">
     <use xlink:href="#DejaVuSans-31"/>
     <use xlink:href="#DejaVuSans-52" transform="translate(74.8125 0)"/>
    </g>
   </g>
   <g id="text_8">
    <!-- 91% -->
    <g style="fill: #262626" transform="translate(241.745587 93.879837) scale(0.1 -0.1)">
     <use xlink:href="#DejaVuSans-1c"/>
     <use xlink:href="#DejaVuSans-14" transform="translate(63.625 0)"/>
     <use xlink:href="#DejaVuSans-8" transform="translate(127.25 0)"/>
    </g>
   </g>
   <g id="text_9">
    <!-- 9% -->
    <g style="fill: #262626" transform="translate(303.133694 79.854358) scale(0.1 -0.1)">
     <use xlink:href="#DejaVuSans-1c"/>
     <use xlink:href="#DejaVuSans-8" transform="translate(63.625 0)"/>
    </g>
   </g>
   <g id="text_10">
    <!-- Homepage -->
    <g style="fill: #262626" transform="translate(251.494459 20.16) scale(0.12 -0.12)">
     <defs>
      <path id="DejaVuSans-2b" d="M 628 4666 
L 1259 4666 
L 1259 2753 
L 3553 2753 
L 3553 4666 
L 4184 4666 
L 4184 0 
L 3553 0 
L 3553 2222 
L 1259 2222 
L 1259 0 
L 628 0 
L 628 4666 
z
" transform="scale(0.015625)"/>
      <path id="DejaVuSans-53" d="M 1159 525 
L 1159 -1331 
L 581 -1331 
L 581 3500 
L 1159 3500 
L 1159 2969 
Q 1341 3281 1617 3432 
Q 1894 3584 2278 3584 
Q 2916 3584 3314 3078 
Q 3713 2572 3713 1747 
Q 3713 922 3314 415 
Q 2916 -91 2278 -91 
Q 1894 -91 1617 61 
Q 1341 213 1159 525 
z
M 3116 1747 
Q 3116 2381 2855 2742 
Q 2594 3103 2138 3103 
Q 1681 3103 1420 2742 
Q 1159 2381 1159 1747 
Q 1159 1113 1420 752 
Q 1681 391 2138 391 
Q 2594 391 2855 752 
Q 3116 1113 3116 1747 
z
" transform="scale(0.015625)"/>
      <path id="DejaVuSans-4a" d="M 2906 1791 
Q 2906 2416 2648 2759 
Q 2391 3103 1925 3103 
Q 1463 3103 1205 2759 
Q 947 2416 947 1791 
Q 947 1169 1205 825 
Q 1463 481 1925 481 
Q 2391 481 2648 825 
Q 2906 1169 2906 1791 
z
M 3481 434 
Q 3481 -459 3084 -895 
Q 2688 -1331 1869 -1331 
Q 1566 -1331 1297 -1286 
Q 1028 -1241 775 -1147 
L 775 -588 
Q 1028 -725 1275 -790 
Q 1522 -856 1778 -856 
Q 2344 -856 2625 -561 
Q 2906 -266 2906 331 
L 2906 616 
Q 2728 306 2450 153 
Q 2172 0 1784 0 
Q 1141 0 747 490 
Q 353 981 353 1791 
Q 353 2603 747 3093 
Q 1141 3584 1784 3584 
Q 2172 3584 2450 3431 
Q 2728 3278 2906 2969 
L 2906 3500 
L 3481 3500 
L 3481 434 
z
" transform="scale(0.015625)"/>
     </defs>
     <use xlink:href="#DejaVuSans-2b"/>
     <use xlink:href="#DejaVuSans-52" transform="translate(75.203125 0)"/>
     <use xlink:href="#DejaVuSans-50" transform="translate(136.390625 0)"/>
     <use xlink:href="#DejaVuSans-48" transform="translate(233.796875 0)"/>
     <use xlink:href="#DejaVuSans-53" transform="translate(295.328125 0)"/>
     <use xlink:href="#DejaVuSans-44" transform="translate(358.8125 0)"/>
     <use xlink:href="#DejaVuSans-4a" transform="translate(420.09375 0)"/>
     <use xlink:href="#DejaVuSans-48" transform="translate(483.578125 0)"/>
    </g>
   </g>
  </g>
  <g id="axes_3">
   <g id="matplotlib.axis_5"/>
   <g id="matplotlib.axis_6"/>
   <g id="patch_6">
    <path d="M 505.476585 61.780883 
C 502.730501 57.024526 499.155635 52.797496 494.921192 49.299867 
C 490.686749 45.802238 485.860609 43.090077 480.6712 41.291757 
C 475.481792 39.493436 470.012303 38.637784 464.521615 38.765298 
C 459.030927 38.892812 453.607057 40.00145 448.506725 42.038736 
C 443.406394 44.076023 438.711362 47.0093 434.643852 50.699732 
C 430.576343 54.390163 427.20156 58.77859 424.679238 63.657299 
C 422.156916 68.536009 420.527489 73.826795 419.868079 79.279234 
C 419.20867 84.731673 419.529849 90.258362 420.816414 95.597713 
C 422.10298 100.937063 424.334309 106.003484 427.404787 110.557173 
C 430.475265 115.110861 434.335673 119.07882 438.803289 122.27324 
C 443.270906 125.467659 448.274115 127.837331 453.576106 129.270095 
C 458.878096 130.702859 464.393876 131.175748 469.862373 130.666378 
C 475.330869 130.157008 480.664422 128.673545 485.610584 126.286204 
C 490.556746 123.898863 495.036229 120.645914 498.837011 116.681324 
C 502.637793 112.716734 505.698947 108.104058 507.875582 103.06162 
C 510.052217 98.019183 511.309442 92.627816 511.58775 87.142704 
L 465.590919 84.808883 
z
" style="fill: #1f77b4; stroke: #ffffff; stroke-linejoin: miter"/>
   </g>
   <g id="patch_7">
    <path d="M 516.0652 86.063821 
C 516.288967 81.653654 515.877305 77.23414 514.842875 72.94117 
C 513.808444 68.6482 512.161956 64.526229 509.954036 60.702 
L 470.06837 83.73 
z
" style="fill: #ff7f0e; stroke: #ffffff; stroke-linejoin: miter"/>
   </g>
   <g id="text_11">
    <!-- Yes -->
    <g style="fill: #262626" transform="translate(400.196776 99.274252) scale(0.1 -0.1)">
     <use xlink:href="#DejaVuSans-3c"/>
     <use xlink:href="#DejaVuSans-48" transform="translate(47.796875 0)"/>
     <use xlink:href="#DejaVuSans-56" transform="translate(109.328125 0)"/>
    </g>
   </g>
   <g id="text_12">
    <!-- No -->
    <g style="fill: #262626" transform="translate(519.320325 74.459944) scale(0.1 -0.1)">
     <use xlink:href="#DejaVuSans-31"/>
     <use xlink:href="#DejaVuSans-52" transform="translate(74.8125 0)"/>
    </g>
   </g>
   <g id="text_13">
    <!-- 91% -->
    <g style="fill: #262626" transform="translate(427.612935 93.879837) scale(0.1 -0.1)">
     <use xlink:href="#DejaVuSans-1c"/>
     <use xlink:href="#DejaVuSans-14" transform="translate(63.625 0)"/>
     <use xlink:href="#DejaVuSans-8" transform="translate(127.25 0)"/>
    </g>
   </g>
   <g id="text_14">
    <!-- 9% -->
    <g style="fill: #262626" transform="translate(489.001041 79.854358) scale(0.1 -0.1)">
     <use xlink:href="#DejaVuSans-1c"/>
     <use xlink:href="#DejaVuSans-8" transform="translate(63.625 0)"/>
    </g>
   </g>
   <g id="text_15">
    <!-- Description -->
    <g style="fill: #262626" transform="translate(435.896495 20.16) scale(0.12 -0.12)">
     <defs>
      <path id="DejaVuSans-27" d="M 1259 4147 
L 1259 519 
L 2022 519 
Q 2988 519 3436 956 
Q 3884 1394 3884 2338 
Q 3884 3275 3436 3711 
Q 2988 4147 2022 4147 
L 1259 4147 
z
M 628 4666 
L 1925 4666 
Q 3281 4666 3915 4102 
Q 4550 3538 4550 2338 
Q 4550 1131 3912 565 
Q 3275 0 1925 0 
L 628 0 
L 628 4666 
z
" transform="scale(0.015625)"/>
      <path id="DejaVuSans-46" d="M 3122 3366 
L 3122 2828 
Q 2878 2963 2633 3030 
Q 2388 3097 2138 3097 
Q 1578 3097 1268 2742 
Q 959 2388 959 1747 
Q 959 1106 1268 751 
Q 1578 397 2138 397 
Q 2388 397 2633 464 
Q 2878 531 3122 666 
L 3122 134 
Q 2881 22 2623 -34 
Q 2366 -91 2075 -91 
Q 1284 -91 818 406 
Q 353 903 353 1747 
Q 353 2603 823 3093 
Q 1294 3584 2113 3584 
Q 2378 3584 2631 3529 
Q 2884 3475 3122 3366 
z
" transform="scale(0.015625)"/>
      <path id="DejaVuSans-55" d="M 2631 2963 
Q 2534 3019 2420 3045 
Q 2306 3072 2169 3072 
Q 1681 3072 1420 2755 
Q 1159 2438 1159 1844 
L 1159 0 
L 581 0 
L 581 3500 
L 1159 3500 
L 1159 2956 
Q 1341 3275 1631 3429 
Q 1922 3584 2338 3584 
Q 2397 3584 2469 3576 
Q 2541 3569 2628 3553 
L 2631 2963 
z
" transform="scale(0.015625)"/>
      <path id="DejaVuSans-4c" d="M 603 3500 
L 1178 3500 
L 1178 0 
L 603 0 
L 603 3500 
z
M 603 4863 
L 1178 4863 
L 1178 4134 
L 603 4134 
L 603 4863 
z
" transform="scale(0.015625)"/>
      <path id="DejaVuSans-57" d="M 1172 4494 
L 1172 3500 
L 2356 3500 
L 2356 3053 
L 1172 3053 
L 1172 1153 
Q 1172 725 1289 603 
Q 1406 481 1766 481 
L 2356 481 
L 2356 0 
L 1766 0 
Q 1100 0 847 248 
Q 594 497 594 1153 
L 594 3053 
L 172 3053 
L 172 3500 
L 594 3500 
L 594 4494 
L 1172 4494 
z
" transform="scale(0.015625)"/>
      <path id="DejaVuSans-51" d="M 3513 2113 
L 3513 0 
L 2938 0 
L 2938 2094 
Q 2938 2591 2744 2837 
Q 2550 3084 2163 3084 
Q 1697 3084 1428 2787 
Q 1159 2491 1159 1978 
L 1159 0 
L 581 0 
L 581 3500 
L 1159 3500 
L 1159 2956 
Q 1366 3272 1645 3428 
Q 1925 3584 2291 3584 
Q 2894 3584 3203 3211 
Q 3513 2838 3513 2113 
z
" transform="scale(0.015625)"/>
     </defs>
     <use xlink:href="#DejaVuSans-27"/>
     <use xlink:href="#DejaVuSans-48" transform="translate(77 0)"/>
     <use xlink:href="#DejaVuSans-56" transform="translate(138.53125 0)"/>
     <use xlink:href="#DejaVuSans-46" transform="translate(190.625 0)"/>
     <use xlink:href="#DejaVuSans-55" transform="translate(245.609375 0)"/>
     <use xlink:href="#DejaVuSans-4c" transform="translate(286.71875 0)"/>
     <use xlink:href="#DejaVuSans-53" transform="translate(314.5 0)"/>
     <use xlink:href="#DejaVuSans-57" transform="translate(377.984375 0)"/>
     <use xlink:href="#DejaVuSans-4c" transform="translate(417.1875 0)"/>
     <use xlink:href="#DejaVuSans-52" transform="translate(444.96875 0)"/>
     <use xlink:href="#DejaVuSans-51" transform="translate(506.15625 0)"/>
    </g>
   </g>
  </g>
  <g id="axes_4">
   <g id="matplotlib.axis_7"/>
   <g id="matplotlib.axis_8"/>
   <g id="patch_8">
    <path d="M 691.318393 61.668759 
C 688.596455 56.954224 685.060055 52.759418 680.873686 49.279461 
C 676.687317 45.799503 671.916911 43.089199 666.78436 41.274617 
C 661.651809 39.460035 656.237946 38.569752 650.794592 38.645181 
C 645.351238 38.720609 639.964122 39.76056 634.883821 41.716661 
C 629.80352 43.672762 625.110044 46.514207 621.021708 50.108827 
C 616.933371 53.703447 613.514561 57.994631 610.924301 62.782777 
C 608.334042 67.570923 606.613126 72.780623 605.841602 78.16955 
C 605.070078 83.558478 605.260096 89.041763 606.402817 94.364354 
C 607.545539 99.686945 609.622967 104.765017 612.538473 109.362366 
C 615.453978 113.959715 619.161643 118.003938 623.48901 121.306919 
C 627.816376 124.609901 632.695291 127.119624 637.898816 128.719349 
C 643.102341 130.319074 648.548524 130.983607 653.984041 130.682039 
C 659.419558 130.38047 664.758805 129.117549 669.753429 126.95202 
C 674.748053 124.78649 679.319394 121.752457 683.25482 117.991046 
C 687.190246 114.229635 690.427777 109.800085 692.816822 104.908433 
C 695.205867 100.016782 696.708801 94.740068 697.255715 89.323734 
L 651.432727 84.696759 
z
" style="fill: #1f77b4; stroke: #ffffff; stroke-linejoin: miter"/>
   </g>
   <g id="patch_9">
    <path d="M 701.758706 88.356975 
C 702.241065 83.579952 701.973469 78.75675 700.965627 74.062406 
C 699.957786 69.368061 698.22204 64.860059 695.821384 60.702 
L 655.935718 83.73 
z
" style="fill: #ff7f0e; stroke: #ffffff; stroke-linejoin: miter"/>
   </g>
   <g id="text_16">
    <!-- Yes -->
    <g style="fill: #262626" transform="translate(585.757639 97.92877) scale(0.1 -0.1)">
     <use xlink:href="#DejaVuSans-3c"/>
     <use xlink:href="#DejaVuSans-48" transform="translate(47.796875 0)"/>
     <use xlink:href="#DejaVuSans-56" transform="translate(109.328125 0)"/>
    </g>
   </g>
   <g id="text_17">
    <!-- No -->
    <g style="fill: #262626" transform="translate(705.468618 75.693302) scale(0.1 -0.1)">
     <use xlink:href="#DejaVuSans-31"/>
     <use xlink:href="#DejaVuSans-52" transform="translate(74.8125 0)"/>
    </g>
   </g>
   <g id="text_18">
    <!-- 90% -->
    <g style="fill: #262626" transform="translate(613.3015 93.094972) scale(0.1 -0.1)">
     <defs>
      <path id="DejaVuSans-13" d="M 2034 4250 
Q 1547 4250 1301 3770 
Q 1056 3291 1056 2328 
Q 1056 1369 1301 889 
Q 1547 409 2034 409 
Q 2525 409 2770 889 
Q 3016 1369 3016 2328 
Q 3016 3291 2770 3770 
Q 2525 4250 2034 4250 
z
M 2034 4750 
Q 2819 4750 3233 4129 
Q 3647 3509 3647 2328 
Q 3647 1150 3233 529 
Q 2819 -91 2034 -91 
Q 1250 -91 836 529 
Q 422 1150 422 2328 
Q 422 3509 836 4129 
Q 1250 4750 2034 4750 
z
" transform="scale(0.015625)"/>
     </defs>
     <use xlink:href="#DejaVuSans-1c"/>
     <use xlink:href="#DejaVuSans-13" transform="translate(63.625 0)"/>
     <use xlink:href="#DejaVuSans-8" transform="translate(127.25 0)"/>
    </g>
   </g>
   <g id="text_19">
    <!-- 10% -->
    <g style="fill: #262626" transform="translate(671.840382 80.5271) scale(0.1 -0.1)">
     <use xlink:href="#DejaVuSans-14"/>
     <use xlink:href="#DejaVuSans-13" transform="translate(63.625 0)"/>
     <use xlink:href="#DejaVuSans-8" transform="translate(127.25 0)"/>
    </g>
   </g>
   <g id="text_20">
    <!-- Example -->
    <g style="fill: #262626" transform="translate(629.904155 20.16) scale(0.12 -0.12)">
     <defs>
      <path id="DejaVuSans-28" d="M 628 4666 
L 3578 4666 
L 3578 4134 
L 1259 4134 
L 1259 2753 
L 3481 2753 
L 3481 2222 
L 1259 2222 
L 1259 531 
L 3634 531 
L 3634 0 
L 628 0 
L 628 4666 
z
" transform="scale(0.015625)"/>
      <path id="DejaVuSans-5b" d="M 3513 3500 
L 2247 1797 
L 3578 0 
L 2900 0 
L 1881 1375 
L 863 0 
L 184 0 
L 1544 1831 
L 300 3500 
L 978 3500 
L 1906 2253 
L 2834 3500 
L 3513 3500 
z
" transform="scale(0.015625)"/>
      <path id="DejaVuSans-4f" d="M 603 4863 
L 1178 4863 
L 1178 0 
L 603 0 
L 603 4863 
z
" transform="scale(0.015625)"/>
     </defs>
     <use xlink:href="#DejaVuSans-28"/>
     <use xlink:href="#DejaVuSans-5b" transform="translate(63.1875 0)"/>
     <use xlink:href="#DejaVuSans-44" transform="translate(122.375 0)"/>
     <use xlink:href="#DejaVuSans-50" transform="translate(183.65625 0)"/>
     <use xlink:href="#DejaVuSans-53" transform="translate(281.0625 0)"/>
     <use xlink:href="#DejaVuSans-4f" transform="translate(344.546875 0)"/>
     <use xlink:href="#DejaVuSans-48" transform="translate(372.328125 0)"/>
    </g>
   </g>
  </g>
  <g id="axes_5">
   <g id="matplotlib.axis_9"/>
   <g id="matplotlib.axis_10"/>
   <g id="patch_10">
    <path d="M 135.238058 198.491514 
C 131.864035 192.647534 127.246503 187.615872 121.713097 183.753546 
C 116.179692 179.89122 109.864456 177.291793 103.215483 176.139707 
C 96.566511 174.98762 89.744869 175.310782 83.234584 177.086262 
C 76.7243 178.861743 70.683079 182.046533 65.539575 186.414656 
C 60.396071 190.782779 56.274881 196.228421 53.468422 202.36519 
C 50.661962 208.501958 49.238219 215.181193 49.298212 221.928974 
C 49.358206 228.676754 50.900482 235.329619 53.815611 241.415517 
C 56.73074 247.501416 60.948103 252.872922 66.168461 257.148902 
L 95.352392 221.519514 
z
" style="fill: #1f77b4; stroke: #ffffff; stroke-linejoin: miter"/>
   </g>
   <g id="patch_11">
    <path d="M 69.149742 260.659388 
C 77.48807 267.489288 87.965097 271.180005 98.743133 271.08418 
C 109.521169 270.988354 119.930919 267.111937 128.146491 260.134858 
C 136.362063 253.15778 141.873286 243.513304 143.713482 232.893091 
C 145.553677 222.272878 143.608571 211.336422 138.21934 202.002 
L 98.333674 225.03 
z
" style="fill: #ff7f0e; stroke: #ffffff; stroke-linejoin: miter"/>
   </g>
   <g id="text_21">
    <!-- Yes -->
    <g style="fill: #262626" transform="translate(46.416106 185.501826) scale(0.1 -0.1)">
     <use xlink:href="#DejaVuSans-3c"/>
     <use xlink:href="#DejaVuSans-48" transform="translate(47.796875 0)"/>
     <use xlink:href="#DejaVuSans-56" transform="translate(109.328125 0)"/>
    </g>
   </g>
   <g id="text_22">
    <!-- No -->
    <g style="fill: #262626" transform="translate(131.127773 266.243) scale(0.1 -0.1)">
     <use xlink:href="#DejaVuSans-31"/>
     <use xlink:href="#DejaVuSans-52" transform="translate(74.8125 0)"/>
    </g>
   </g>
   <g id="text_23">
    <!-- 56% -->
    <g style="fill: #262626" transform="translate(66.351421 203.054255) scale(0.1 -0.1)">
     <defs>
      <path id="DejaVuSans-18" d="M 691 4666 
L 3169 4666 
L 3169 4134 
L 1269 4134 
L 1269 2991 
Q 1406 3038 1543 3061 
Q 1681 3084 1819 3084 
Q 2600 3084 3056 2656 
Q 3513 2228 3513 1497 
Q 3513 744 3044 326 
Q 2575 -91 1722 -91 
Q 1428 -91 1123 -41 
Q 819 9 494 109 
L 494 744 
Q 775 591 1075 516 
Q 1375 441 1709 441 
Q 2250 441 2565 725 
Q 2881 1009 2881 1497 
Q 2881 1984 2565 2268 
Q 2250 2553 1709 2553 
Q 1456 2553 1204 2497 
Q 953 2441 691 2322 
L 691 4666 
z
" transform="scale(0.015625)"/>
      <path id="DejaVuSans-19" d="M 2113 2584 
Q 1688 2584 1439 2293 
Q 1191 2003 1191 1497 
Q 1191 994 1439 701 
Q 1688 409 2113 409 
Q 2538 409 2786 701 
Q 3034 994 3034 1497 
Q 3034 2003 2786 2293 
Q 2538 2584 2113 2584 
z
M 3366 4563 
L 3366 3988 
Q 3128 4100 2886 4159 
Q 2644 4219 2406 4219 
Q 1781 4219 1451 3797 
Q 1122 3375 1075 2522 
Q 1259 2794 1537 2939 
Q 1816 3084 2150 3084 
Q 2853 3084 3261 2657 
Q 3669 2231 3669 1497 
Q 3669 778 3244 343 
Q 2819 -91 2113 -91 
Q 1303 -91 875 529 
Q 447 1150 447 2328 
Q 447 3434 972 4092 
Q 1497 4750 2381 4750 
Q 2619 4750 2861 4703 
Q 3103 4656 3366 4563 
z
" transform="scale(0.015625)"/>
     </defs>
     <use xlink:href="#DejaVuSans-18"/>
     <use xlink:href="#DejaVuSans-19" transform="translate(63.625 0)"/>
     <use xlink:href="#DejaVuSans-8" transform="translate(127.25 0)"/>
    </g>
   </g>
   <g id="text_24">
    <!-- 44% -->
    <g style="fill: #262626" transform="translate(105.108083 248.690571) scale(0.1 -0.1)">
     <defs>
      <path id="DejaVuSans-17" d="M 2419 4116 
L 825 1625 
L 2419 1625 
L 2419 4116 
z
M 2253 4666 
L 3047 4666 
L 3047 1625 
L 3713 1625 
L 3713 1100 
L 3047 1100 
L 3047 0 
L 2419 0 
L 2419 1100 
L 313 1100 
L 313 1709 
L 2253 4666 
z
" transform="scale(0.015625)"/>
     </defs>
     <use xlink:href="#DejaVuSans-17"/>
     <use xlink:href="#DejaVuSans-17" transform="translate(63.625 0)"/>
     <use xlink:href="#DejaVuSans-8" transform="translate(127.25 0)"/>
    </g>
   </g>
   <g id="text_25">
    <!-- Pattern -->
    <g style="fill: #262626" transform="translate(76.747736 161.46) scale(0.12 -0.12)">
     <defs>
      <path id="DejaVuSans-33" d="M 1259 4147 
L 1259 2394 
L 2053 2394 
Q 2494 2394 2734 2622 
Q 2975 2850 2975 3272 
Q 2975 3691 2734 3919 
Q 2494 4147 2053 4147 
L 1259 4147 
z
M 628 4666 
L 2053 4666 
Q 2838 4666 3239 4311 
Q 3641 3956 3641 3272 
Q 3641 2581 3239 2228 
Q 2838 1875 2053 1875 
L 1259 1875 
L 1259 0 
L 628 0 
L 628 4666 
z
" transform="scale(0.015625)"/>
     </defs>
     <use xlink:href="#DejaVuSans-33"/>
     <use xlink:href="#DejaVuSans-44" transform="translate(55.8125 0)"/>
     <use xlink:href="#DejaVuSans-57" transform="translate(117.09375 0)"/>
     <use xlink:href="#DejaVuSans-57" transform="translate(156.296875 0)"/>
     <use xlink:href="#DejaVuSans-48" transform="translate(195.5 0)"/>
     <use xlink:href="#DejaVuSans-55" transform="translate(257.03125 0)"/>
     <use xlink:href="#DejaVuSans-51" transform="translate(296.390625 0)"/>
    </g>
   </g>
  </g>
  <g id="axes_6">
   <g id="matplotlib.axis_11"/>
   <g id="matplotlib.axis_12"/>
   <g id="patch_12">
    <path d="M 319.513961 202.551289 
C 316.880896 197.990687 313.48503 193.915292 309.474301 190.502644 
C 305.463572 187.089996 300.89708 184.390382 295.973762 182.521411 
C 291.050444 180.65244 285.842847 179.641651 280.577837 179.533078 
C 275.312828 179.424506 270.067988 180.21975 265.071806 181.884166 
C 260.075624 183.548582 255.401721 186.057644 251.253714 189.302047 
C 247.105706 192.546449 243.544717 196.478384 240.725878 200.926559 
C 237.907039 205.374734 235.871887 210.273603 234.709083 215.40975 
C 233.546279 220.545896 233.272957 225.843637 233.901024 231.072178 
C 234.529091 236.300719 236.049293 241.383017 238.395402 246.097663 
C 240.741511 250.812309 243.878957 255.089831 247.671058 258.743881 
C 251.463159 262.397931 255.854038 265.374665 260.652407 267.544403 
C 265.450777 269.714142 270.585931 271.044912 275.83416 271.478741 
C 281.082389 271.912569 286.366357 271.443063 291.455872 270.090676 
C 296.545387 268.738288 301.365452 266.522948 305.706084 263.541165 
C 310.046716 260.559382 313.843953 256.855094 316.932371 252.589676 
C 320.020789 248.324259 322.354879 243.560564 323.832957 238.506121 
L 279.628295 225.579289 
z
" style="fill: #1f77b4; stroke: #ffffff; stroke-linejoin: miter"/>
   </g>
   <g id="patch_13">
    <path d="M 328.405684 237.956832 
C 330.152607 231.983044 330.670598 225.716664 329.928293 219.537111 
C 329.185987 213.357558 327.198676 207.392122 324.086688 202.002 
L 284.201022 225.03 
z
" style="fill: #ff7f0e; stroke: #ffffff; stroke-linejoin: miter"/>
   </g>
   <g id="text_26">
    <!-- Yes -->
    <g style="fill: #262626" transform="translate(213.186109 234.219123) scale(0.1 -0.1)">
     <use xlink:href="#DejaVuSans-3c"/>
     <use xlink:href="#DejaVuSans-48" transform="translate(47.796875 0)"/>
     <use xlink:href="#DejaVuSans-56" transform="translate(109.328125 0)"/>
    </g>
   </g>
   <g id="text_27">
    <!-- No -->
    <g style="fill: #262626" transform="translate(334.50102 221.585478) scale(0.1 -0.1)">
     <use xlink:href="#DejaVuSans-31"/>
     <use xlink:href="#DejaVuSans-52" transform="translate(74.8125 0)"/>
    </g>
   </g>
   <g id="text_28">
    <!-- 87% -->
    <g style="fill: #262626" transform="translate(241.078651 231.472679) scale(0.1 -0.1)">
     <defs>
      <path id="DejaVuSans-1b" d="M 2034 2216 
Q 1584 2216 1326 1975 
Q 1069 1734 1069 1313 
Q 1069 891 1326 650 
Q 1584 409 2034 409 
Q 2484 409 2743 651 
Q 3003 894 3003 1313 
Q 3003 1734 2745 1975 
Q 2488 2216 2034 2216 
z
M 1403 2484 
Q 997 2584 770 2862 
Q 544 3141 544 3541 
Q 544 4100 942 4425 
Q 1341 4750 2034 4750 
Q 2731 4750 3128 4425 
Q 3525 4100 3525 3541 
Q 3525 3141 3298 2862 
Q 3072 2584 2669 2484 
Q 3125 2378 3379 2068 
Q 3634 1759 3634 1313 
Q 3634 634 3220 271 
Q 2806 -91 2034 -91 
Q 1263 -91 848 271 
Q 434 634 434 1313 
Q 434 1759 690 2068 
Q 947 2378 1403 2484 
z
M 1172 3481 
Q 1172 3119 1398 2916 
Q 1625 2713 2034 2713 
Q 2441 2713 2670 2916 
Q 2900 3119 2900 3481 
Q 2900 3844 2670 4047 
Q 2441 4250 2034 4250 
Q 1625 4250 1398 4047 
Q 1172 3844 1172 3481 
z
" transform="scale(0.015625)"/>
      <path id="DejaVuSans-1a" d="M 525 4666 
L 3525 4666 
L 3525 4397 
L 1831 0 
L 1172 0 
L 2766 4134 
L 525 4134 
L 525 4666 
z
" transform="scale(0.015625)"/>
     </defs>
     <use xlink:href="#DejaVuSans-1b"/>
     <use xlink:href="#DejaVuSans-1a" transform="translate(63.625 0)"/>
     <use xlink:href="#DejaVuSans-8" transform="translate(127.25 0)"/>
    </g>
   </g>
   <g id="text_29">
    <!-- 13% -->
    <g style="fill: #262626" transform="translate(300.524103 224.331923) scale(0.1 -0.1)">
     <defs>
      <path id="DejaVuSans-16" d="M 2597 2516 
Q 3050 2419 3304 2112 
Q 3559 1806 3559 1356 
Q 3559 666 3084 287 
Q 2609 -91 1734 -91 
Q 1441 -91 1130 -33 
Q 819 25 488 141 
L 488 750 
Q 750 597 1062 519 
Q 1375 441 1716 441 
Q 2309 441 2620 675 
Q 2931 909 2931 1356 
Q 2931 1769 2642 2001 
Q 2353 2234 1838 2234 
L 1294 2234 
L 1294 2753 
L 1863 2753 
Q 2328 2753 2575 2939 
Q 2822 3125 2822 3475 
Q 2822 3834 2567 4026 
Q 2313 4219 1838 4219 
Q 1578 4219 1281 4162 
Q 984 4106 628 3988 
L 628 4550 
Q 988 4650 1302 4700 
Q 1616 4750 1894 4750 
Q 2613 4750 3031 4423 
Q 3450 4097 3450 3541 
Q 3450 3153 3228 2886 
Q 3006 2619 2597 2516 
z
" transform="scale(0.015625)"/>
     </defs>
     <use xlink:href="#DejaVuSans-14"/>
     <use xlink:href="#DejaVuSans-16" transform="translate(63.625 0)"/>
     <use xlink:href="#DejaVuSans-8" transform="translate(127.25 0)"/>
    </g>
   </g>
   <g id="text_30">
    <!-- Provider -->
    <g style="fill: #262626" transform="translate(259.496959 161.46) scale(0.12 -0.12)">
     <defs>
      <path id="DejaVuSans-59" d="M 191 3500 
L 800 3500 
L 1894 563 
L 2988 3500 
L 3597 3500 
L 2284 0 
L 1503 0 
L 191 3500 
z
" transform="scale(0.015625)"/>
      <path id="DejaVuSans-47" d="M 2906 2969 
L 2906 4863 
L 3481 4863 
L 3481 0 
L 2906 0 
L 2906 525 
Q 2725 213 2448 61 
Q 2172 -91 1784 -91 
Q 1150 -91 751 415 
Q 353 922 353 1747 
Q 353 2572 751 3078 
Q 1150 3584 1784 3584 
Q 2172 3584 2448 3432 
Q 2725 3281 2906 2969 
z
M 947 1747 
Q 947 1113 1208 752 
Q 1469 391 1925 391 
Q 2381 391 2643 752 
Q 2906 1113 2906 1747 
Q 2906 2381 2643 2742 
Q 2381 3103 1925 3103 
Q 1469 3103 1208 2742 
Q 947 2381 947 1747 
z
" transform="scale(0.015625)"/>
     </defs>
     <use xlink:href="#DejaVuSans-33"/>
     <use xlink:href="#DejaVuSans-55" transform="translate(58.546875 0)"/>
     <use xlink:href="#DejaVuSans-52" transform="translate(97.453125 0)"/>
     <use xlink:href="#DejaVuSans-59" transform="translate(158.640625 0)"/>
     <use xlink:href="#DejaVuSans-4c" transform="translate(217.828125 0)"/>
     <use xlink:href="#DejaVuSans-47" transform="translate(245.609375 0)"/>
     <use xlink:href="#DejaVuSans-48" transform="translate(309.09375 0)"/>
     <use xlink:href="#DejaVuSans-55" transform="translate(370.625 0)"/>
    </g>
   </g>
  </g>
  <g id="axes_7">
   <g id="matplotlib.axis_13"/>
   <g id="matplotlib.axis_14"/>
   <g id="patch_14">
    <path d="M 509.151422 197.466875 
C 504.423804 189.2784 497.287316 182.741082 488.716702 178.747829 
C 480.146088 174.754575 470.550171 173.495865 461.239618 175.14362 
C 451.929065 176.791376 443.347994 181.266999 436.668459 187.959181 
C 429.988924 194.651363 425.529541 203.240885 423.899401 212.554538 
L 469.265756 220.494875 
z
" style="fill: #1f77b4; stroke: #ffffff; stroke-linejoin: miter"/>
   </g>
   <g id="patch_15">
    <path d="M 424.702014 217.089664 
C 423.42601 224.379995 423.925932 231.871618 426.159291 238.927766 
C 428.392649 245.983914 432.294321 252.398841 437.532676 257.627297 
C 442.771031 262.855753 449.193327 266.745283 456.253688 268.96529 
C 463.314048 271.185296 470.806603 271.671047 478.094508 270.381254 
C 485.382412 269.091461 492.253161 266.063733 498.122762 261.555419 
C 503.992363 257.047104 508.689667 251.189658 511.815416 244.480946 
C 514.941165 237.772235 516.404217 230.407874 516.080217 223.013812 
C 515.756218 215.619751 513.654614 208.411589 509.954036 202.002 
L 470.06837 225.03 
z
" style="fill: #ff7f0e; stroke: #ffffff; stroke-linejoin: miter"/>
   </g>
   <g id="text_31">
    <!-- Yes -->
    <g style="fill: #262626" transform="translate(444.294817 173.206151) scale(0.1 -0.1)">
     <use xlink:href="#DejaVuSans-3c"/>
     <use xlink:href="#DejaVuSans-48" transform="translate(47.796875 0)"/>
     <use xlink:href="#DejaVuSans-56" transform="translate(109.328125 0)"/>
    </g>
   </g>
   <g id="text_32">
    <!-- No -->
    <g style="fill: #262626" transform="translate(478.897121 277.514036) scale(0.1 -0.1)">
     <use xlink:href="#DejaVuSans-31"/>
     <use xlink:href="#DejaVuSans-52" transform="translate(74.8125 0)"/>
    </g>
   </g>
   <g id="text_33">
    <!-- 39% -->
    <g style="fill: #262626" transform="translate(453.336792 195.881778) scale(0.1 -0.1)">
     <use xlink:href="#DejaVuSans-16"/>
     <use xlink:href="#DejaVuSans-1c" transform="translate(63.625 0)"/>
     <use xlink:href="#DejaVuSans-8" transform="translate(127.25 0)"/>
    </g>
   </g>
   <g id="text_34">
    <!-- 61% -->
    <g style="fill: #262626" transform="translate(463.770771 254.838409) scale(0.1 -0.1)">
     <use xlink:href="#DejaVuSans-19"/>
     <use xlink:href="#DejaVuSans-14" transform="translate(63.625 0)"/>
     <use xlink:href="#DejaVuSans-8" transform="translate(127.25 0)"/>
    </g>
   </g>
   <g id="text_35">
    <!-- License -->
    <g style="fill: #262626" transform="translate(447.447432 161.46) scale(0.12 -0.12)">
     <defs>
      <path id="DejaVuSans-2f" d="M 628 4666 
L 1259 4666 
L 1259 531 
L 3531 531 
L 3531 0 
L 628 0 
L 628 4666 
z
" transform="scale(0.015625)"/>
     </defs>
     <use xlink:href="#DejaVuSans-2f"/>
     <use xlink:href="#DejaVuSans-4c" transform="translate(55.71875 0)"/>
     <use xlink:href="#DejaVuSans-46" transform="translate(83.5 0)"/>
     <use xlink:href="#DejaVuSans-48" transform="translate(138.484375 0)"/>
     <use xlink:href="#DejaVuSans-51" transform="translate(200.015625 0)"/>
     <use xlink:href="#DejaVuSans-56" transform="translate(263.390625 0)"/>
     <use xlink:href="#DejaVuSans-48" transform="translate(315.484375 0)"/>
    </g>
   </g>
  </g>
  <g id="axes_8">
   <g id="matplotlib.axis_15"/>
   <g id="matplotlib.axis_16"/>
   <g id="patch_16">
    <path d="M 695.821384 202.002 
C 691.702903 194.868581 685.745176 188.968956 678.57174 184.920579 
C 671.398303 180.872202 663.26846 178.821412 655.03308 178.982846 
C 646.7977 179.14428 638.754473 181.512101 631.745202 185.838495 
C 624.735932 190.164888 619.013988 196.293463 615.178228 203.582805 
L 655.935718 225.03 
z
" style="fill: #1f77b4; stroke: #ffffff; stroke-linejoin: miter"/>
   </g>
   <g id="patch_17">
    <path d="M 615.178228 203.582805 
C 611.545983 210.485394 609.726086 218.19889 609.889873 225.997103 
C 610.053659 233.795315 612.195821 241.425596 616.114686 248.169589 
C 620.033551 254.913583 625.602153 260.552795 632.296235 264.55632 
C 638.990317 268.559846 646.593001 270.797977 654.388531 271.060005 
L 655.935718 225.03 
z
" style="fill: #ff7f0e; stroke: #ffffff; stroke-linejoin: miter"/>
   </g>
   <g id="patch_18">
    <path d="M 654.388531 271.060005 
C 665.54724 271.435078 676.470361 267.739964 685.109701 260.667534 
C 693.749041 253.595104 699.528613 243.616879 701.364691 232.603874 
L 655.935718 225.03 
z
" style="fill: #2ca02c; stroke: #ffffff; stroke-linejoin: miter"/>
   </g>
   <g id="patch_19">
    <path d="M 701.364691 232.603874 
C 702.051429 228.484737 702.174752 224.291269 701.731266 220.138894 
C 701.287779 215.986519 700.28159 211.913686 698.740392 208.0325 
L 655.935718 225.03 
z
" style="fill: #d62728; stroke: #ffffff; stroke-linejoin: miter"/>
   </g>
   <g id="patch_20">
    <path d="M 698.740392 208.0325 
C 698.327875 206.993661 697.877676 205.970183 697.390691 204.964101 
C 696.903706 203.958018 696.380257 202.969997 695.821384 202.002 
L 655.935718 225.03 
z
" style="fill: #9467bd; stroke: #ffffff; stroke-linejoin: miter"/>
   </g>
   <g id="text_36">
    <!-- CC-BY-4.0 -->
    <g style="fill: #262626" transform="translate(606.978754 176.975787) scale(0.1 -0.1)">
     <defs>
      <path id="DejaVuSans-26" d="M 4122 4306 
L 4122 3641 
Q 3803 3938 3442 4084 
Q 3081 4231 2675 4231 
Q 1875 4231 1450 3742 
Q 1025 3253 1025 2328 
Q 1025 1406 1450 917 
Q 1875 428 2675 428 
Q 3081 428 3442 575 
Q 3803 722 4122 1019 
L 4122 359 
Q 3791 134 3420 21 
Q 3050 -91 2638 -91 
Q 1578 -91 968 557 
Q 359 1206 359 2328 
Q 359 3453 968 4101 
Q 1578 4750 2638 4750 
Q 3056 4750 3426 4639 
Q 3797 4528 4122 4306 
z
" transform="scale(0.015625)"/>
      <path id="DejaVuSans-10" d="M 313 2009 
L 1997 2009 
L 1997 1497 
L 313 1497 
L 313 2009 
z
" transform="scale(0.015625)"/>
      <path id="DejaVuSans-25" d="M 1259 2228 
L 1259 519 
L 2272 519 
Q 2781 519 3026 730 
Q 3272 941 3272 1375 
Q 3272 1813 3026 2020 
Q 2781 2228 2272 2228 
L 1259 2228 
z
M 1259 4147 
L 1259 2741 
L 2194 2741 
Q 2656 2741 2882 2914 
Q 3109 3088 3109 3444 
Q 3109 3797 2882 3972 
Q 2656 4147 2194 4147 
L 1259 4147 
z
M 628 4666 
L 2241 4666 
Q 2963 4666 3353 4366 
Q 3744 4066 3744 3513 
Q 3744 3084 3544 2831 
Q 3344 2578 2956 2516 
Q 3422 2416 3680 2098 
Q 3938 1781 3938 1306 
Q 3938 681 3513 340 
Q 3088 0 2303 0 
L 628 0 
L 628 4666 
z
" transform="scale(0.015625)"/>
      <path id="DejaVuSans-11" d="M 684 794 
L 1344 794 
L 1344 0 
L 684 0 
L 684 794 
z
" transform="scale(0.015625)"/>
     </defs>
     <use xlink:href="#DejaVuSans-26"/>
     <use xlink:href="#DejaVuSans-26" transform="translate(69.828125 0)"/>
     <use xlink:href="#DejaVuSans-10" transform="translate(139.65625 0)"/>
     <use xlink:href="#DejaVuSans-25" transform="translate(172.171875 0)"/>
     <use xlink:href="#DejaVuSans-3c" transform="translate(235.3125 0)"/>
     <use xlink:href="#DejaVuSans-10" transform="translate(284.53125 0)"/>
     <use xlink:href="#DejaVuSans-17" transform="translate(320.609375 0)"/>
     <use xlink:href="#DejaVuSans-11" transform="translate(384.234375 0)"/>
     <use xlink:href="#DejaVuSans-13" transform="translate(416.015625 0)"/>
    </g>
   </g>
   <g id="text_37">
    <!-- CC0-1.0 -->
    <g style="fill: #262626" transform="translate(572.293521 253.081204) scale(0.1 -0.1)">
     <use xlink:href="#DejaVuSans-26"/>
     <use xlink:href="#DejaVuSans-26" transform="translate(69.828125 0)"/>
     <use xlink:href="#DejaVuSans-13" transform="translate(139.65625 0)"/>
     <use xlink:href="#DejaVuSans-10" transform="translate(203.28125 0)"/>
     <use xlink:href="#DejaVuSans-14" transform="translate(239.359375 0)"/>
     <use xlink:href="#DejaVuSans-11" transform="translate(302.984375 0)"/>
     <use xlink:href="#DejaVuSans-13" transform="translate(334.765625 0)"/>
    </g>
   </g>
   <g id="text_38">
    <!-- Other -->
    <g style="fill: #262626" transform="translate(688.027099 266.829335) scale(0.1 -0.1)">
     <defs>
      <path id="DejaVuSans-32" d="M 2522 4238 
Q 1834 4238 1429 3725 
Q 1025 3213 1025 2328 
Q 1025 1447 1429 934 
Q 1834 422 2522 422 
Q 3209 422 3611 934 
Q 4013 1447 4013 2328 
Q 4013 3213 3611 3725 
Q 3209 4238 2522 4238 
z
M 2522 4750 
Q 3503 4750 4090 4092 
Q 4678 3434 4678 2328 
Q 4678 1225 4090 567 
Q 3503 -91 2522 -91 
Q 1538 -91 948 565 
Q 359 1222 359 2328 
Q 359 3434 948 4092 
Q 1538 4750 2522 4750 
z
" transform="scale(0.015625)"/>
      <path id="DejaVuSans-4b" d="M 3513 2113 
L 3513 0 
L 2938 0 
L 2938 2094 
Q 2938 2591 2744 2837 
Q 2550 3084 2163 3084 
Q 1697 3084 1428 2787 
Q 1159 2491 1159 1978 
L 1159 0 
L 581 0 
L 581 4863 
L 1159 4863 
L 1159 2956 
Q 1366 3272 1645 3428 
Q 1925 3584 2291 3584 
Q 2894 3584 3203 3211 
Q 3513 2838 3513 2113 
z
" transform="scale(0.015625)"/>
     </defs>
     <use xlink:href="#DejaVuSans-32"/>
     <use xlink:href="#DejaVuSans-57" transform="translate(78.71875 0)"/>
     <use xlink:href="#DejaVuSans-4b" transform="translate(117.921875 0)"/>
     <use xlink:href="#DejaVuSans-48" transform="translate(181.296875 0)"/>
     <use xlink:href="#DejaVuSans-55" transform="translate(242.828125 0)"/>
    </g>
   </g>
   <g id="text_39">
    <!-- CC-BY-3.0 -->
    <g style="fill: #262626" transform="translate(706.31082 222.24744) scale(0.1 -0.1)">
     <use xlink:href="#DejaVuSans-26"/>
     <use xlink:href="#DejaVuSans-26" transform="translate(69.828125 0)"/>
     <use xlink:href="#DejaVuSans-10" transform="translate(139.65625 0)"/>
     <use xlink:href="#DejaVuSans-25" transform="translate(172.171875 0)"/>
     <use xlink:href="#DejaVuSans-3c" transform="translate(235.3125 0)"/>
     <use xlink:href="#DejaVuSans-10" transform="translate(284.53125 0)"/>
     <use xlink:href="#DejaVuSans-16" transform="translate(320.609375 0)"/>
     <use xlink:href="#DejaVuSans-11" transform="translate(384.234375 0)"/>
     <use xlink:href="#DejaVuSans-13" transform="translate(416.015625 0)"/>
    </g>
   </g>
   <g id="text_40">
    <!-- CC-BY-SA-4.0 -->
    <g style="fill: #262626" transform="translate(701.536188 205.555167) scale(0.1 -0.1)">
     <defs>
      <path id="DejaVuSans-36" d="M 3425 4513 
L 3425 3897 
Q 3066 4069 2747 4153 
Q 2428 4238 2131 4238 
Q 1616 4238 1336 4038 
Q 1056 3838 1056 3469 
Q 1056 3159 1242 3001 
Q 1428 2844 1947 2747 
L 2328 2669 
Q 3034 2534 3370 2195 
Q 3706 1856 3706 1288 
Q 3706 609 3251 259 
Q 2797 -91 1919 -91 
Q 1588 -91 1214 -16 
Q 841 59 441 206 
L 441 856 
Q 825 641 1194 531 
Q 1563 422 1919 422 
Q 2459 422 2753 634 
Q 3047 847 3047 1241 
Q 3047 1584 2836 1778 
Q 2625 1972 2144 2069 
L 1759 2144 
Q 1053 2284 737 2584 
Q 422 2884 422 3419 
Q 422 4038 858 4394 
Q 1294 4750 2059 4750 
Q 2388 4750 2728 4690 
Q 3069 4631 3425 4513 
z
" transform="scale(0.015625)"/>
      <path id="DejaVuSans-24" d="M 2188 4044 
L 1331 1722 
L 3047 1722 
L 2188 4044 
z
M 1831 4666 
L 2547 4666 
L 4325 0 
L 3669 0 
L 3244 1197 
L 1141 1197 
L 716 0 
L 50 0 
L 1831 4666 
z
" transform="scale(0.015625)"/>
     </defs>
     <use xlink:href="#DejaVuSans-26"/>
     <use xlink:href="#DejaVuSans-26" transform="translate(69.828125 0)"/>
     <use xlink:href="#DejaVuSans-10" transform="translate(139.65625 0)"/>
     <use xlink:href="#DejaVuSans-25" transform="translate(172.171875 0)"/>
     <use xlink:href="#DejaVuSans-3c" transform="translate(235.3125 0)"/>
     <use xlink:href="#DejaVuSans-10" transform="translate(284.53125 0)"/>
     <use xlink:href="#DejaVuSans-36" transform="translate(320.609375 0)"/>
     <use xlink:href="#DejaVuSans-24" transform="translate(385.953125 0)"/>
     <use xlink:href="#DejaVuSans-10" transform="translate(452.15625 0)"/>
     <use xlink:href="#DejaVuSans-17" transform="translate(488.234375 0)"/>
     <use xlink:href="#DejaVuSans-11" transform="translate(551.859375 0)"/>
     <use xlink:href="#DejaVuSans-13" transform="translate(583.640625 0)"/>
    </g>
   </g>
   <g id="text_41">
    <!-- 34% -->
    <g style="fill: #262626" transform="translate(644.280854 199.999364) scale(0.1 -0.1)">
     <use xlink:href="#DejaVuSans-16"/>
     <use xlink:href="#DejaVuSans-17" transform="translate(63.625 0)"/>
     <use xlink:href="#DejaVuSans-8" transform="translate(127.25 0)"/>
    </g>
   </g>
   <g id="text_42">
    <!-- 32% -->
    <g style="fill: #262626" transform="translate(620.929818 241.51141) scale(0.1 -0.1)">
     <defs>
      <path id="DejaVuSans-15" d="M 1228 531 
L 3431 531 
L 3431 0 
L 469 0 
L 469 531 
Q 828 903 1448 1529 
Q 2069 2156 2228 2338 
Q 2531 2678 2651 2914 
Q 2772 3150 2772 3378 
Q 2772 3750 2511 3984 
Q 2250 4219 1831 4219 
Q 1534 4219 1204 4116 
Q 875 4013 500 3803 
L 500 4441 
Q 881 4594 1212 4672 
Q 1544 4750 1819 4750 
Q 2544 4750 2975 4387 
Q 3406 4025 3406 3419 
Q 3406 3131 3298 2873 
Q 3191 2616 2906 2266 
Q 2828 2175 2409 1742 
Q 1991 1309 1228 531 
z
" transform="scale(0.015625)"/>
     </defs>
     <use xlink:href="#DejaVuSans-16"/>
     <use xlink:href="#DejaVuSans-15" transform="translate(63.625 0)"/>
     <use xlink:href="#DejaVuSans-8" transform="translate(127.25 0)"/>
    </g>
   </g>
   <g id="text_43">
    <!-- 23% -->
    <g style="fill: #262626" transform="translate(662.326826 249.010177) scale(0.1 -0.1)">
     <use xlink:href="#DejaVuSans-15"/>
     <use xlink:href="#DejaVuSans-16" transform="translate(63.625 0)"/>
     <use xlink:href="#DejaVuSans-8" transform="translate(127.25 0)"/>
    </g>
   </g>
   <g id="text_44">
    <!-- 9% -->
    <g style="fill: #262626" transform="translate(675.481015 224.692993) scale(0.1 -0.1)">
     <use xlink:href="#DejaVuSans-1c"/>
     <use xlink:href="#DejaVuSans-8" transform="translate(63.625 0)"/>
    </g>
   </g>
   <g id="text_45">
    <!-- 2% -->
    <g style="fill: #262626" transform="translate(672.87667 215.588117) scale(0.1 -0.1)">
     <use xlink:href="#DejaVuSans-15"/>
     <use xlink:href="#DejaVuSans-8" transform="translate(63.625 0)"/>
    </g>
   </g>
   <g id="text_46">
    <!-- License Type -->
    <g style="fill: #262626" transform="translate(617.625718 161.46) scale(0.12 -0.12)">
     <defs>
      <path id="DejaVuSans-3" transform="scale(0.015625)"/>
      <path id="DejaVuSans-37" d="M -19 4666 
L 3928 4666 
L 3928 4134 
L 2272 4134 
L 2272 0 
L 1638 0 
L 1638 4134 
L -19 4134 
L -19 4666 
z
" transform="scale(0.015625)"/>
      <path id="DejaVuSans-5c" d="M 2059 -325 
Q 1816 -950 1584 -1140 
Q 1353 -1331 966 -1331 
L 506 -1331 
L 506 -850 
L 844 -850 
Q 1081 -850 1212 -737 
Q 1344 -625 1503 -206 
L 1606 56 
L 191 3500 
L 800 3500 
L 1894 763 
L 2988 3500 
L 3597 3500 
L 2059 -325 
z
" transform="scale(0.015625)"/>
     </defs>
     <use xlink:href="#DejaVuSans-2f"/>
     <use xlink:href="#DejaVuSans-4c" transform="translate(55.71875 0)"/>
     <use xlink:href="#DejaVuSans-46" transform="translate(83.5 0)"/>
     <use xlink:href="#DejaVuSans-48" transform="translate(138.484375 0)"/>
     <use xlink:href="#DejaVuSans-51" transform="translate(200.015625 0)"/>
     <use xlink:href="#DejaVuSans-56" transform="translate(263.390625 0)"/>
     <use xlink:href="#DejaVuSans-48" transform="translate(315.484375 0)"/>
     <use xlink:href="#DejaVuSans-3" transform="translate(377.015625 0)"/>
     <use xlink:href="#DejaVuSans-37" transform="translate(408.796875 0)"/>
     <use xlink:href="#DejaVuSans-5c" transform="translate(454.296875 0)"/>
     <use xlink:href="#DejaVuSans-53" transform="translate(513.484375 0)"/>
     <use xlink:href="#DejaVuSans-48" transform="translate(576.96875 0)"/>
    </g>
   </g>
  </g>
  <g id="axes_9">
   <g id="matplotlib.axis_17"/>
   <g id="matplotlib.axis_18"/>
   <g id="patch_21">
    <path d="M 141.422584 339.992803 
C 139.284707 336.289892 136.64155 332.90267 133.569354 329.928838 
C 130.497157 326.955006 127.025745 324.423435 123.255249 322.407145 
L 101.536918 363.020803 
z
" style="fill: #1f77b4; stroke: #ffffff; stroke-linejoin: miter"/>
   </g>
   <g id="patch_22">
    <path d="M 120.052005 325.716342 
C 115.193347 323.118153 109.907646 321.412794 104.446664 320.68149 
C 98.985681 319.950186 93.43752 320.204736 88.066443 321.433017 
C 82.695367 322.661297 77.588027 324.843491 72.987691 327.875659 
C 68.387356 330.907828 64.368241 334.741052 61.121782 339.192752 
C 57.875322 343.644453 55.453893 348.64281 53.97283 353.949747 
C 52.491766 359.256685 51.974962 364.786586 52.447033 370.276056 
C 52.919105 375.765526 54.372435 381.126004 56.737801 386.102165 
C 59.103167 391.078326 62.342409 395.589889 66.301238 399.421965 
C 70.260067 403.254042 74.874615 406.344808 79.925088 408.547047 
C 84.975561 410.749287 90.380478 412.027472 95.8824 412.320721 
C 101.384321 412.613969 106.894484 411.917551 112.150434 410.264637 
C 117.406384 408.611722 122.323326 406.028978 126.667063 402.639423 
C 131.0108 399.249868 134.711254 395.108186 137.592168 390.411648 
C 140.473083 385.71511 142.48798 380.539487 143.540889 375.131297 
C 144.593798 369.723107 144.667732 364.169601 143.759169 358.735298 
C 142.850607 353.300995 140.974205 348.073567 138.21934 343.302 
L 98.333674 366.33 
z
" style="fill: #ff7f0e; stroke: #ffffff; stroke-linejoin: miter"/>
   </g>
   <g id="text_47">
    <!-- Yes -->
    <g style="fill: #262626" transform="translate(136.772597 329.217298) scale(0.1 -0.1)">
     <use xlink:href="#DejaVuSans-3c"/>
     <use xlink:href="#DejaVuSans-48" transform="translate(47.796875 0)"/>
     <use xlink:href="#DejaVuSans-56" transform="translate(109.328125 0)"/>
    </g>
   </g>
   <g id="text_48">
    <!-- No -->
    <g style="fill: #262626" transform="translate(49.497994 405.328818) scale(0.1 -0.1)">
     <use xlink:href="#DejaVuSans-31"/>
     <use xlink:href="#DejaVuSans-52" transform="translate(74.8125 0)"/>
    </g>
   </g>
   <g id="text_49">
    <!-- 9% -->
    <g style="fill: #262626" transform="translate(112.824348 345.76328) scale(0.1 -0.1)">
     <use xlink:href="#DejaVuSans-1c"/>
     <use xlink:href="#DejaVuSans-8" transform="translate(63.625 0)"/>
    </g>
   </g>
   <g id="text_50">
    <!-- 91% -->
    <g style="fill: #262626" transform="translate(68.000931 388.782836) scale(0.1 -0.1)">
     <use xlink:href="#DejaVuSans-1c"/>
     <use xlink:href="#DejaVuSans-14" transform="translate(63.625 0)"/>
     <use xlink:href="#DejaVuSans-8" transform="translate(127.25 0)"/>
    </g>
   </g>
   <g id="text_51">
    <!-- Version -->
    <g style="fill: #262626" transform="translate(76.270549 302.76) scale(0.12 -0.12)">
     <defs>
      <path id="DejaVuSans-39" d="M 1831 0 
L 50 4666 
L 709 4666 
L 2188 738 
L 3669 4666 
L 4325 4666 
L 2547 0 
L 1831 0 
z
" transform="scale(0.015625)"/>
     </defs>
     <use xlink:href="#DejaVuSans-39"/>
     <use xlink:href="#DejaVuSans-48" transform="translate(60.640625 0)"/>
     <use xlink:href="#DejaVuSans-55" transform="translate(122.171875 0)"/>
     <use xlink:href="#DejaVuSans-56" transform="translate(163.28125 0)"/>
     <use xlink:href="#DejaVuSans-4c" transform="translate(215.375 0)"/>
     <use xlink:href="#DejaVuSans-52" transform="translate(243.15625 0)"/>
     <use xlink:href="#DejaVuSans-51" transform="translate(304.34375 0)"/>
    </g>
   </g>
  </g>
  <g id="axes_10">
   <g id="matplotlib.axis_19"/>
   <g id="matplotlib.axis_20"/>
   <g id="patch_23">
    <path d="M 323.537399 338.729273 
C 319.027919 330.918625 312.321951 324.601986 304.255859 320.567163 
C 296.189767 316.532341 287.11343 314.954352 278.158844 316.030002 
C 269.204258 317.105652 260.759842 320.788284 253.878778 326.618601 
C 246.997714 332.448918 241.97848 340.174021 239.447071 348.830441 
L 283.651733 361.757273 
z
" style="fill: #1f77b4; stroke: #ffffff; stroke-linejoin: miter"/>
   </g>
   <g id="patch_24">
    <path d="M 239.99636 353.403168 
C 237.858242 360.714687 237.567159 368.443728 239.149284 375.895355 
C 240.731408 383.346982 244.137857 390.290964 249.06235 396.102955 
C 253.986842 401.914946 260.277228 406.415372 267.367925 409.199593 
C 274.458621 411.983813 282.13055 412.965803 289.693911 412.057271 
C 297.257272 411.148739 304.478383 408.377754 310.707978 403.993463 
C 316.937572 399.609172 321.983177 393.747033 325.391132 386.934126 
C 328.799086 380.121218 330.464094 372.568037 330.236453 364.953706 
C 330.008812 357.339375 327.895555 349.899151 324.086688 343.302 
L 284.201022 366.33 
z
" style="fill: #ff7f0e; stroke: #ffffff; stroke-linejoin: miter"/>
   </g>
   <g id="text_52">
    <!-- Yes -->
    <g style="fill: #262626" transform="translate(261.467367 314.054931) scale(0.1 -0.1)">
     <use xlink:href="#DejaVuSans-3c"/>
     <use xlink:href="#DejaVuSans-48" transform="translate(47.796875 0)"/>
     <use xlink:href="#DejaVuSans-56" transform="translate(109.328125 0)"/>
    </g>
   </g>
   <g id="text_53">
    <!-- No -->
    <g style="fill: #262626" transform="translate(290.2432 419.227654) scale(0.1 -0.1)">
     <use xlink:href="#DejaVuSans-31"/>
     <use xlink:href="#DejaVuSans-52" transform="translate(74.8125 0)"/>
    </g>
   </g>
   <g id="text_54">
    <!-- 37% -->
    <g style="fill: #262626" transform="translate(269.242718 336.918567) scale(0.1 -0.1)">
     <use xlink:href="#DejaVuSans-16"/>
     <use xlink:href="#DejaVuSans-1a" transform="translate(63.625 0)"/>
     <use xlink:href="#DejaVuSans-8" transform="translate(127.25 0)"/>
    </g>
   </g>
   <g id="text_55">
    <!-- 63% -->
    <g style="fill: #262626" transform="translate(276.383474 396.364019) scale(0.1 -0.1)">
     <use xlink:href="#DejaVuSans-19"/>
     <use xlink:href="#DejaVuSans-16" transform="translate(63.625 0)"/>
     <use xlink:href="#DejaVuSans-8" transform="translate(127.25 0)"/>
    </g>
   </g>
   <g id="text_56">
    <!-- Contact Email -->
    <g style="fill: #262626" transform="translate(242.304147 302.76) scale(0.12 -0.12)">
     <use xlink:href="#DejaVuSans-26"/>
     <use xlink:href="#DejaVuSans-52" transform="translate(69.828125 0)"/>
     <use xlink:href="#DejaVuSans-51" transform="translate(131.015625 0)"/>
     <use xlink:href="#DejaVuSans-57" transform="translate(194.390625 0)"/>
     <use xlink:href="#DejaVuSans-44" transform="translate(233.59375 0)"/>
     <use xlink:href="#DejaVuSans-46" transform="translate(294.875 0)"/>
     <use xlink:href="#DejaVuSans-57" transform="translate(349.859375 0)"/>
     <use xlink:href="#DejaVuSans-3" transform="translate(389.0625 0)"/>
     <use xlink:href="#DejaVuSans-28" transform="translate(420.84375 0)"/>
     <use xlink:href="#DejaVuSans-50" transform="translate(484.03125 0)"/>
     <use xlink:href="#DejaVuSans-44" transform="translate(581.4375 0)"/>
     <use xlink:href="#DejaVuSans-4c" transform="translate(642.71875 0)"/>
     <use xlink:href="#DejaVuSans-4f" transform="translate(670.5 0)"/>
    </g>
   </g>
  </g>
  <g id="axes_11">
   <g id="matplotlib.axis_21"/>
   <g id="matplotlib.axis_22"/>
   <g id="patch_25">
    <path d="M 513.164783 340.000083 
C 511.044413 336.327495 508.426922 332.965302 505.386587 330.008914 
C 502.346252 327.052527 498.912107 324.530176 495.181604 322.513442 
L 473.279117 363.028083 
z
" style="fill: #1f77b4; stroke: #ffffff; stroke-linejoin: miter"/>
   </g>
   <g id="patch_26">
    <path d="M 491.970857 325.815358 
C 487.120183 323.193051 481.83776 321.463062 476.37559 320.707921 
C 470.91342 319.95278 465.359766 320.184689 459.979568 321.392586 
C 454.599371 322.600482 449.479568 324.764847 444.864404 327.782429 
C 440.24924 330.80001 436.21329 334.622047 432.949093 339.066207 
C 429.684895 343.510367 427.245196 348.504836 425.746383 353.81135 
C 424.247569 359.117865 423.71386 364.650677 424.170717 370.145841 
C 424.627574 375.641004 426.067615 381.009723 428.422141 385.995878 
C 430.776667 390.982033 434.007632 395.505055 437.9609 399.349169 
C 441.914168 403.193282 446.525859 406.296372 451.575969 408.510401 
C 456.626079 410.724431 462.033004 412.013625 467.538802 412.316481 
C 473.044601 412.619337 478.560305 411.930962 483.822785 410.284194 
C 489.085265 408.637427 494.009485 406.058877 498.360531 402.671557 
C 502.711576 399.284237 506.419141 395.142881 509.306351 390.445057 
C 512.193561 385.747232 514.213764 380.568851 515.270583 375.15695 
C 516.327403 369.745049 516.403762 364.187079 515.496018 358.748188 
C 514.588275 353.309296 512.711097 348.077369 509.954036 343.302 
L 470.06837 366.33 
z
" style="fill: #ff7f0e; stroke: #ffffff; stroke-linejoin: miter"/>
   </g>
   <g id="text_57">
    <!-- Yes -->
    <g style="fill: #262626" transform="translate(508.597334 329.304654) scale(0.1 -0.1)">
     <use xlink:href="#DejaVuSans-3c"/>
     <use xlink:href="#DejaVuSans-48" transform="translate(47.796875 0)"/>
     <use xlink:href="#DejaVuSans-56" transform="translate(109.328125 0)"/>
    </g>
   </g>
   <g id="text_58">
    <!-- No -->
    <g style="fill: #262626" transform="translate(421.150153 405.248742) scale(0.1 -0.1)">
     <use xlink:href="#DejaVuSans-31"/>
     <use xlink:href="#DejaVuSans-52" transform="translate(74.8125 0)"/>
    </g>
   </g>
   <g id="text_59">
    <!-- 9% -->
    <g style="fill: #262626" transform="translate(484.611568 345.814238) scale(0.1 -0.1)">
     <use xlink:href="#DejaVuSans-1c"/>
     <use xlink:href="#DejaVuSans-8" transform="translate(63.625 0)"/>
    </g>
   </g>
   <g id="text_60">
    <!-- 91% -->
    <g style="fill: #262626" transform="translate(439.690606 388.739157) scale(0.1 -0.1)">
     <use xlink:href="#DejaVuSans-1c"/>
     <use xlink:href="#DejaVuSans-14" transform="translate(63.625 0)"/>
     <use xlink:href="#DejaVuSans-8" transform="translate(127.25 0)"/>
    </g>
   </g>
   <g id="text_61">
    <!-- OBO -->
    <g style="fill: #262626" transform="translate(456.610557 302.76) scale(0.12 -0.12)">
     <use xlink:href="#DejaVuSans-32"/>
     <use xlink:href="#DejaVuSans-25" transform="translate(78.71875 0)"/>
     <use xlink:href="#DejaVuSans-32" transform="translate(145.578125 0)"/>
    </g>
   </g>
  </g>
  <g id="axes_12">
   <g id="matplotlib.axis_23"/>
   <g id="matplotlib.axis_24"/>
   <g id="patch_27">
    <path d="M 696.237251 338.715214 
C 692.547718 332.324755 687.375839 326.913609 681.158655 322.939034 
C 674.941471 318.964459 667.85918 316.541654 660.510257 315.875354 
C 653.161334 315.209054 645.758781 316.31857 638.928134 319.110146 
C 632.097488 321.901721 626.036729 326.294445 621.258008 331.917118 
L 656.351585 361.743214 
z
" style="fill: #1f77b4; stroke: #ffffff; stroke-linejoin: miter"/>
   </g>
   <g id="patch_28">
    <path d="M 620.842141 336.503904 
C 615.378244 342.93276 611.784552 350.741091 610.455087 359.07277 
C 609.125622 367.404449 610.110816 375.943422 613.302649 383.75345 
C 616.494483 391.563479 621.771877 398.348299 628.556202 403.364002 
C 635.340528 408.379705 643.374429 411.436025 651.777045 412.19786 
C 660.179661 412.959695 668.632248 411.398144 676.208039 407.684421 
C 683.78383 403.970698 690.195446 398.245678 694.739898 391.13707 
C 699.28435 384.028462 701.789249 375.805924 701.979951 367.370997 
C 702.170654 358.936071 700.039925 350.608727 695.821384 343.302 
L 655.935718 366.33 
z
" style="fill: #ff7f0e; stroke: #ffffff; stroke-linejoin: miter"/>
   </g>
   <g id="text_62">
    <!-- Yes -->
    <g style="fill: #262626" transform="translate(660.926125 313.886224) scale(0.1 -0.1)">
     <use xlink:href="#DejaVuSans-3c"/>
     <use xlink:href="#DejaVuSans-48" transform="translate(47.796875 0)"/>
     <use xlink:href="#DejaVuSans-56" transform="translate(109.328125 0)"/>
    </g>
   </g>
   <g id="text_63">
    <!-- No -->
    <g style="fill: #262626" transform="translate(637.761178 419.382302) scale(0.1 -0.1)">
     <use xlink:href="#DejaVuSans-31"/>
     <use xlink:href="#DejaVuSans-52" transform="translate(74.8125 0)"/>
    </g>
   </g>
   <g id="text_64">
    <!-- 30% -->
    <g style="fill: #262626" transform="translate(647.733507 336.820154) scale(0.1 -0.1)">
     <use xlink:href="#DejaVuSans-16"/>
     <use xlink:href="#DejaVuSans-13" transform="translate(63.625 0)"/>
     <use xlink:href="#DejaVuSans-8" transform="translate(127.25 0)"/>
    </g>
   </g>
   <g id="text_65">
    <!-- 70% -->
    <g style="fill: #262626" transform="translate(642.327233 396.448372) scale(0.1 -0.1)">
     <use xlink:href="#DejaVuSans-1a"/>
     <use xlink:href="#DejaVuSans-13" transform="translate(63.625 0)"/>
     <use xlink:href="#DejaVuSans-8" transform="translate(127.25 0)"/>
    </g>
   </g>
   <g id="text_66">
    <!-- OWL -->
    <g style="fill: #262626" transform="translate(641.936968 302.76) scale(0.12 -0.12)">
     <defs>
      <path id="DejaVuSans-3a" d="M 213 4666 
L 850 4666 
L 1831 722 
L 2809 4666 
L 3519 4666 
L 4500 722 
L 5478 4666 
L 6119 4666 
L 4947 0 
L 4153 0 
L 3169 4050 
L 2175 0 
L 1381 0 
L 213 4666 
z
" transform="scale(0.015625)"/>
     </defs>
     <use xlink:href="#DejaVuSans-32"/>
     <use xlink:href="#DejaVuSans-3a" transform="translate(78.71875 0)"/>
     <use xlink:href="#DejaVuSans-2f" transform="translate(177.59375 0)"/>
    </g>
   </g>
  </g>
  <g id="axes_13">
   <g id="matplotlib.axis_25"/>
   <g id="matplotlib.axis_26"/>
   <g id="patch_29">
    <path d="M 141.855101 481.774847 
C 140.800532 479.948281 139.621737 478.196312 138.327041 476.531314 
C 137.032345 474.866316 135.624804 473.292218 134.11436 471.82014 
L 101.969435 504.802847 
z
" style="fill: #1f77b4; stroke: #ffffff; stroke-linejoin: miter"/>
   </g>
   <g id="patch_30">
    <path d="M 130.478599 474.647294 
C 126.337812 470.611685 121.473848 467.391713 116.14149 465.156045 
C 110.809132 462.920378 105.103142 461.708745 99.322412 461.584614 
C 93.541682 461.460484 87.788941 462.426062 82.365529 464.43077 
C 76.942117 466.435478 71.944414 469.443689 67.634209 473.297828 
C 63.324005 477.151968 59.777896 481.783542 57.181635 486.949941 
C 54.585374 492.11634 52.985099 497.725752 52.464636 503.484342 
C 51.944173 509.242933 52.51277 515.048368 54.140645 520.596545 
C 55.768519 526.144723 58.426741 531.337047 61.976067 535.901533 
C 65.525394 540.466019 69.90275 544.321551 74.87884 547.266169 
C 79.85493 550.210787 85.341325 552.192162 91.050636 553.106505 
C 96.759946 554.020848 102.590712 553.85191 108.237506 552.608542 
C 113.884301 551.365173 119.246774 549.06947 124.044028 545.841684 
C 128.841283 542.613899 132.988067 538.511393 136.267163 533.749064 
C 139.54626 528.986735 141.899396 523.649215 143.20331 518.016093 
C 144.507223 512.382972 144.738742 506.554355 143.88574 500.835558 
C 143.032737 495.116761 141.110371 489.609413 138.21934 484.602 
L 98.333674 507.63 
z
" style="fill: #ff7f0e; stroke: #ffffff; stroke-linejoin: miter"/>
   </g>
   <g id="text_67">
    <!-- Yes -->
    <g style="fill: #262626" transform="translate(141.962802 476.301817) scale(0.1 -0.1)">
     <use xlink:href="#DejaVuSans-3c"/>
     <use xlink:href="#DejaVuSans-48" transform="translate(47.796875 0)"/>
     <use xlink:href="#DejaVuSans-56" transform="translate(109.328125 0)"/>
    </g>
   </g>
   <g id="text_68">
    <!-- No -->
    <g style="fill: #262626" transform="translate(44.740307 541.326343) scale(0.1 -0.1)">
     <use xlink:href="#DejaVuSans-31"/>
     <use xlink:href="#DejaVuSans-52" transform="translate(74.8125 0)"/>
    </g>
   </g>
   <g id="text_69">
    <!-- 4% -->
    <g style="fill: #262626" transform="translate(115.851967 490.437583) scale(0.1 -0.1)">
     <use xlink:href="#DejaVuSans-17"/>
     <use xlink:href="#DejaVuSans-8" transform="translate(63.625 0)"/>
    </g>
   </g>
   <g id="text_70">
    <!-- 96% -->
    <g style="fill: #262626" transform="translate(65.405829 527.190576) scale(0.1 -0.1)">
     <use xlink:href="#DejaVuSans-1c"/>
     <use xlink:href="#DejaVuSans-19" transform="translate(63.625 0)"/>
     <use xlink:href="#DejaVuSans-8" transform="translate(127.25 0)"/>
    </g>
   </g>
   <g id="text_71">
    <!-- JSON -->
    <g style="fill: #262626" transform="translate(83.542736 444.06) scale(0.12 -0.12)">
     <defs>
      <path id="DejaVuSans-2d" d="M 628 4666 
L 1259 4666 
L 1259 325 
Q 1259 -519 939 -900 
Q 619 -1281 -91 -1281 
L -331 -1281 
L -331 -750 
L -134 -750 
Q 284 -750 456 -515 
Q 628 -281 628 325 
L 628 4666 
z
" transform="scale(0.015625)"/>
     </defs>
     <use xlink:href="#DejaVuSans-2d"/>
     <use xlink:href="#DejaVuSans-36" transform="translate(29.5 0)"/>
     <use xlink:href="#DejaVuSans-32" transform="translate(92.984375 0)"/>
     <use xlink:href="#DejaVuSans-31" transform="translate(171.703125 0)"/>
    </g>
   </g>
  </g>
  <g id="axes_14"/>
  <g id="axes_15"/>
  <g id="axes_16"/>
  <g id="text_72">
   <!-- https://github.com/biopragmatics/bioregistry (2026-08-22) -->
   <g style="fill: #808080; opacity: 0.5" transform="translate(278.674375 574.078125) scale(0.08 -0.08)">
    <defs>
     <path id="DejaVuSans-1d" d="M 750 794 
L 1409 794 
L 1409 0 
L 750 0 
L 750 794 
z
M 750 3309 
L 1409 3309 
L 1409 2516 
L 750 2516 
L 750 3309 
z
" transform="scale(0.015625)"/>
     <path id="DejaVuSans-12" d="M 1625 4666 
L 2156 4666 
L 531 -594 
L 0 -594 
L 1625 4666 
z
" transform="scale(0.015625)"/>
     <path id="DejaVuSans-58" d="M 544 1381 
L 544 3500 
L 1119 3500 
L 1119 1403 
Q 1119 906 1312 657 
Q 1506 409 1894 409 
Q 2359 409 2629 706 
Q 2900 1003 2900 1516 
L 2900 3500 
L 3475 3500 
L 3475 0 
L 2900 0 
L 2900 538 
Q 2691 219 2414 64 
Q 2138 -91 1772 -91 
Q 1169 -91 856 284 
Q 544 659 544 1381 
z
M 1991 3584 
L 1991 3584 
z
" transform="scale(0.015625)"/>
     <path id="DejaVuSans-45" d="M 3116 1747 
Q 3116 2381 2855 2742 
Q 2594 3103 2138 3103 
Q 1681 3103 1420 2742 
Q 1159 2381 1159 1747 
Q 1159 1113 1420 752 
Q 1681 391 2138 391 
Q 2594 391 2855 752 
Q 3116 1113 3116 1747 
z
M 1159 2969 
Q 1341 3281 1617 3432 
Q 1894 3584 2278 3584 
Q 2916 3584 3314 3078 
Q 3713 2572 3713 1747 
Q 3713 922 3314 415 
Q 2916 -91 2278 -91 
Q 1894 -91 1617 61 
Q 1341 213 1159 525 
L 1159 0 
L 581 0 
L 581 4863 
L 1159 4863 
L 1159 2969 
z
" transform="scale(0.015625)"/>
     <path id="DejaVuSans-b" d="M 1984 4856 
Q 1566 4138 1362 3434 
Q 1159 2731 1159 2009 
Q 1159 1288 1364 580 
Q 1569 -128 1984 -844 
L 1484 -844 
Q 1016 -109 783 600 
Q 550 1309 550 2009 
Q 550 2706 781 3412 
Q 1013 4119 1484 4856 
L 1984 4856 
z
" transform="scale(0.015625)"/>
     <path id="DejaVuSans-c" d="M 513 4856 
L 1013 4856 
Q 1481 4119 1714 3412 
Q 1947 2706 1947 2009 
Q 1947 1309 1714 600 
Q 1481 -109 1013 -844 
L 513 -844 
Q 928 -128 1133 580 
Q 1338 1288 1338 2009 
Q 1338 2731 1133 3434 
Q 928 4138 513 4856 
z
" transform="scale(0.015625)"/>
    </defs>
    <use xlink:href="#DejaVuSans-4b"/>
    <use xlink:href="#DejaVuSans-57" transform="translate(63.375 0)"/>
    <use xlink:href="#DejaVuSans-57" transform="translate(102.578125 0)"/>
    <use xlink:href="#DejaVuSans-53" transform="translate(141.78125 0)"/>
    <use xlink:href="#DejaVuSans-56" transform="translate(205.265625 0)"/>
    <use xlink:href="#DejaVuSans-1d" transform="translate(257.359375 0)"/>
    <use xlink:href="#DejaVuSans-12" transform="translate(291.046875 0)"/>
    <use xlink:href="#DejaVuSans-12" transform="translate(324.734375 0)"/>
    <use xlink:href="#DejaVuSans-4a" transform="translate(358.421875 0)"/>
    <use xlink:href="#DejaVuSans-4c" transform="translate(421.90625 0)"/>
    <use xlink:href="#DejaVuSans-57" transform="translate(449.6875 0)"/>
    <use xlink:href="#DejaVuSans-4b" transform="translate(488.890625 0)"/>
    <use xlink:href="#DejaVuSans-58" transform="translate(552.265625 0)"/>
    <use xlink:href="#DejaVuSans-45" transform="translate(615.640625 0)"/>
    <use xlink:href="#DejaVuSans-11" transform="translate(679.125 0)"/>
    <use xlink:href="#DejaVuSans-46" transform="translate(710.90625 0)"/>
    <use xlink:href="#DejaVuSans-52" transform="translate(765.890625 0)"/>
    <use xlink:href="#DejaVuSans-50" transform="translate(827.078125 0)"/>
    <use xlink:href="#DejaVuSans-12" transform="translate(924.484375 0)"/>
    <use xlink:href="#DejaVuSans-45" transform="translate(958.171875 0)"/>
    <use xlink:href="#DejaVuSans-4c" transform="translate(1021.65625 0)"/>
    <use xlink:href="#DejaVuSans-52" transform="translate(1049.4375 0)"/>
    <use xlink:href="#DejaVuSans-53" transform="translate(1110.625 0)"/>
    <use xlink:href="#DejaVuSans-55" transform="translate(1174.109375 0)"/>
    <use xlink:href="#DejaVuSans-44" transform="translate(1215.21875 0)"/>
    <use xlink:href="#DejaVuSans-4a" transform="translate(1276.5 0)"/>
    <use xlink:href="#DejaVuSans-50" transform="translate(1339.984375 0)"/>
    <use xlink:href="#DejaVuSans-44" transform="translate(1437.390625 0)"/>
    <use xlink:href="#DejaVuSans-57" transform="translate(1498.671875 0)"/>
    <use xlink:href="#DejaVuSans-4c" transform="translate(1537.875 0)"/>
    <use xlink:href="#DejaVuSans-46" transform="translate(1565.65625 0)"/>
    <use xlink:href="#DejaVuSans-56" transform="translate(1620.640625 0)"/>
    <use xlink:href="#DejaVuSans-12" transform="translate(1672.734375 0)"/>
    <use xlink:href="#DejaVuSans-45" transform="translate(1706.421875 0)"/>
    <use xlink:href="#DejaVuSans-4c" transform="translate(1769.90625 0)"/>
    <use xlink:href="#DejaVuSans-52" transform="translate(1797.6875 0)"/>
    <use xlink:href="#DejaVuSans-55" transform="translate(1858.875 0)"/>
    <use xlink:href="#DejaVuSans-48" transform="translate(1897.78125 0)"/>
    <use xlink:href="#DejaVuSans-4a" transform="translate(1959.3125 0)"/>
    <use xlink:href="#DejaVuSans-4c" transform="translate(2022.796875 0)"/>
    <use xlink:href="#DejaVuSans-56" transform="translate(2050.578125 0)"/>
    <use xlink:href="#DejaVuSans-57" transform="translate(2102.671875 0)"/>
    <use xlink:href="#DejaVuSans-55" transform="translate(2141.875 0)"/>
    <use xlink:href="#DejaVuSans-5c" transform="translate(2182.984375 0)"/>
    <use xlink:href="#DejaVuSans-3" transform="translate(2242.171875 0)"/>
    <use xlink:href="#DejaVuSans-b" transform="translate(2273.953125 0)"/>
    <use xlink:href="#DejaVuSans-15" transform="translate(2312.96875 0)"/>
    <use xlink:href="#DejaVuSans-13" transform="translate(2376.59375 0)"/>
    <use xlink:href="#DejaVuSans-15" transform="translate(2440.21875 0)"/>
    <use xlink:href="#DejaVuSans-19" transform="translate(2503.84375 0)"/>
    <use xlink:href="#DejaVuSans-10" transform="translate(2567.46875 0)"/>
    <use xlink:href="#DejaVuSans-13" transform="translate(2603.546875 0)"/>
    <use xlink:href="#DejaVuSans-1b" transform="translate(2667.171875 0)"/>
    <use xlink:href="#DejaVuSans-10" transform="translate(2730.796875 0)"/>
    <use xlink:href="#DejaVuSans-15" transform="translate(2766.875 0)"/>
    <use xlink:href="#DejaVuSans-15" transform="translate(2830.5 0)"/>
    <use xlink:href="#DejaVuSans-c" transform="translate(2894.125 0)"/>
   </g>
  </g>
 </g>
</svg>
