<?xml version="1.0" encoding="utf-8" standalone="no"?>
<!DOCTYPE svg PUBLIC "-//W3C//DTD SVG 1.1//EN"
  "http://www.w3.org/Graphics/SVG/1.1/DTD/svg11.dtd">
<svg xmlns:xlink="http://www.w3.org/1999/xlink" width="792pt" height="576pt" viewBox="0 0 792 576" xmlns="http://www.w3.org/2000/svg" version="1.1">
 <metadata>
  <rdf:RDF xmlns:dc="http://purl.org/dc/elements/1.1/" xmlns:cc="http://creativecommons.org/ns#" xmlns:rdf="http://www.w3.org/1999/02/22-rdf-syntax-ns#">
   <cc:Work>
    <dc:type rdf:resource="http://purl.org/dc/dcmitype/StillImage"/>
    <dc:date>2021-11-23T00:51:49.555941</dc:date>
    <dc:format>image/svg+xml</dc:format>
    <dc:creator>
     <cc:Agent>
      <dc:title>Matplotlib v3.5.0, https://matplotlib.org/</dc:title>
     </cc:Agent>
    </dc:creator>
   </cc:Work>
  </rdf:RDF>
 </metadata>
 <defs>
  <style type="text/css">*{stroke-linejoin: round; stroke-linecap: butt}</style>
 </defs>
 <g id="figure_1">
  <g id="patch_1">
   <path d="M 0 576 
L 792 576 
L 792 0 
L 0 0 
z
" style="fill: #ffffff"/>
  </g>
  <g id="axes_1">
   <g id="matplotlib.axis_1"/>
   <g id="matplotlib.axis_2"/>
   <g id="patch_2">
    <path d="M 129.505626 62.565396 
C 126.714121 57.730368 123.06133 53.446678 118.728051 49.926352 
C 114.394773 46.406027 109.453701 43.708122 104.149401 41.966173 
C 98.8451 40.224224 93.266553 39.467454 87.689878 39.73332 
C 82.113202 39.999186 76.631951 41.283228 71.517424 43.52189 
C 66.402898 45.760553 61.740895 48.916281 57.76217 52.832879 
C 53.783444 56.749476 50.55474 61.361239 48.235867 66.439902 
C 45.916994 71.518565 44.546852 76.978931 44.193259 82.550732 
C 43.839666 88.122533 44.508552 93.712298 46.166811 99.043355 
C 47.82507 104.374412 50.444883 109.357329 53.89658 113.745471 
C 57.348276 118.133612 61.573952 121.853363 66.364451 124.720611 
C 71.15495 127.587859 76.429909 129.554504 81.928237 130.523204 
C 87.426565 131.491903 93.056025 131.446408 98.537979 130.388968 
C 104.019932 129.331528 109.262416 127.279884 114.005948 124.335585 
C 118.749479 121.391285 122.914483 117.603722 126.294805 113.160366 
C 129.675128 108.71701 132.214063 103.692401 133.785942 98.335239 
C 135.357822 92.978077 135.936276 87.378231 135.492675 81.812873 
L 89.869375 85.449396 
L 129.505626 62.565396 
z
" style="fill: #1f77b4; stroke: #ffffff; stroke-linejoin: miter"/>
   </g>
   <g id="patch_3">
    <path d="M 139.862932 80.453477 
C 139.593517 77.073437 138.949315 73.73378 137.942195 70.49604 
C 136.935075 67.258299 135.571261 64.142482 133.875881 61.205998 
L 94.239631 84.09 
L 139.862932 80.453477 
z
" style="fill: #ff7f0e; stroke: #ffffff; stroke-linejoin: miter"/>
   </g>
   <g id="text_1">
    <!-- Yes -->
    <g style="fill: #262626" transform="translate(25.651242 103.162126)scale(0.1 -0.1)">
     <defs>
      <path id="DejaVuSans-59" d="M -13 4666 
L 666 4666 
L 1959 2747 
L 3244 4666 
L 3922 4666 
L 2272 2222 
L 2272 0 
L 1638 0 
L 1638 2222 
L -13 4666 
z
" transform="scale(0.015625)"/>
      <path id="DejaVuSans-65" d="M 3597 1894 
L 3597 1613 
L 953 1613 
Q 991 1019 1311 708 
Q 1631 397 2203 397 
Q 2534 397 2845 478 
Q 3156 559 3463 722 
L 3463 178 
Q 3153 47 2828 -22 
Q 2503 -91 2169 -91 
Q 1331 -91 842 396 
Q 353 884 353 1716 
Q 353 2575 817 3079 
Q 1281 3584 2069 3584 
Q 2775 3584 3186 3129 
Q 3597 2675 3597 1894 
z
M 3022 2063 
Q 3016 2534 2758 2815 
Q 2500 3097 2075 3097 
Q 1594 3097 1305 2825 
Q 1016 2553 972 2059 
L 3022 2063 
z
" transform="scale(0.015625)"/>
      <path id="DejaVuSans-73" d="M 2834 3397 
L 2834 2853 
Q 2591 2978 2328 3040 
Q 2066 3103 1784 3103 
Q 1356 3103 1142 2972 
Q 928 2841 928 2578 
Q 928 2378 1081 2264 
Q 1234 2150 1697 2047 
L 1894 2003 
Q 2506 1872 2764 1633 
Q 3022 1394 3022 966 
Q 3022 478 2636 193 
Q 2250 -91 1575 -91 
Q 1294 -91 989 -36 
Q 684 19 347 128 
L 347 722 
Q 666 556 975 473 
Q 1284 391 1588 391 
Q 1994 391 2212 530 
Q 2431 669 2431 922 
Q 2431 1156 2273 1281 
Q 2116 1406 1581 1522 
L 1381 1569 
Q 847 1681 609 1914 
Q 372 2147 372 2553 
Q 372 3047 722 3315 
Q 1072 3584 1716 3584 
Q 2034 3584 2315 3537 
Q 2597 3491 2834 3397 
z
" transform="scale(0.015625)"/>
     </defs>
     <use xlink:href="#DejaVuSans-59"/>
     <use xlink:href="#DejaVuSans-65" x="47.833984"/>
     <use xlink:href="#DejaVuSans-73" x="109.357422"/>
    </g>
   </g>
   <g id="text_2">
    <!-- 93% -->
    <g style="fill: #262626" transform="translate(52.534555 96.365146)scale(0.1 -0.1)">
     <defs>
      <path id="DejaVuSans-39" d="M 703 97 
L 703 672 
Q 941 559 1184 500 
Q 1428 441 1663 441 
Q 2288 441 2617 861 
Q 2947 1281 2994 2138 
Q 2813 1869 2534 1725 
Q 2256 1581 1919 1581 
Q 1219 1581 811 2004 
Q 403 2428 403 3163 
Q 403 3881 828 4315 
Q 1253 4750 1959 4750 
Q 2769 4750 3195 4129 
Q 3622 3509 3622 2328 
Q 3622 1225 3098 567 
Q 2575 -91 1691 -91 
Q 1453 -91 1209 -44 
Q 966 3 703 97 
z
M 1959 2075 
Q 2384 2075 2632 2365 
Q 2881 2656 2881 3163 
Q 2881 3666 2632 3958 
Q 2384 4250 1959 4250 
Q 1534 4250 1286 3958 
Q 1038 3666 1038 3163 
Q 1038 2656 1286 2365 
Q 1534 2075 1959 2075 
z
" transform="scale(0.015625)"/>
      <path id="DejaVuSans-33" d="M 2597 2516 
Q 3050 2419 3304 2112 
Q 3559 1806 3559 1356 
Q 3559 666 3084 287 
Q 2609 -91 1734 -91 
Q 1441 -91 1130 -33 
Q 819 25 488 141 
L 488 750 
Q 750 597 1062 519 
Q 1375 441 1716 441 
Q 2309 441 2620 675 
Q 2931 909 2931 1356 
Q 2931 1769 2642 2001 
Q 2353 2234 1838 2234 
L 1294 2234 
L 1294 2753 
L 1863 2753 
Q 2328 2753 2575 2939 
Q 2822 3125 2822 3475 
Q 2822 3834 2567 4026 
Q 2313 4219 1838 4219 
Q 1578 4219 1281 4162 
Q 984 4106 628 3988 
L 628 4550 
Q 988 4650 1302 4700 
Q 1616 4750 1894 4750 
Q 2613 4750 3031 4423 
Q 3450 4097 3450 3541 
Q 3450 3153 3228 2886 
Q 3006 2619 2597 2516 
z
" transform="scale(0.015625)"/>
      <path id="DejaVuSans-25" d="M 4653 2053 
Q 4381 2053 4226 1822 
Q 4072 1591 4072 1178 
Q 4072 772 4226 539 
Q 4381 306 4653 306 
Q 4919 306 5073 539 
Q 5228 772 5228 1178 
Q 5228 1588 5073 1820 
Q 4919 2053 4653 2053 
z
M 4653 2450 
Q 5147 2450 5437 2106 
Q 5728 1763 5728 1178 
Q 5728 594 5436 251 
Q 5144 -91 4653 -91 
Q 4153 -91 3862 251 
Q 3572 594 3572 1178 
Q 3572 1766 3864 2108 
Q 4156 2450 4653 2450 
z
M 1428 4353 
Q 1159 4353 1004 4120 
Q 850 3888 850 3481 
Q 850 3069 1003 2837 
Q 1156 2606 1428 2606 
Q 1700 2606 1854 2837 
Q 2009 3069 2009 3481 
Q 2009 3884 1853 4118 
Q 1697 4353 1428 4353 
z
M 4250 4750 
L 4750 4750 
L 1831 -91 
L 1331 -91 
L 4250 4750 
z
M 1428 4750 
Q 1922 4750 2215 4408 
Q 2509 4066 2509 3481 
Q 2509 2891 2217 2550 
Q 1925 2209 1428 2209 
Q 931 2209 642 2551 
Q 353 2894 353 3481 
Q 353 4063 643 4406 
Q 934 4750 1428 4750 
z
" transform="scale(0.015625)"/>
     </defs>
     <use xlink:href="#DejaVuSans-39"/>
     <use xlink:href="#DejaVuSans-33" x="63.623047"/>
     <use xlink:href="#DejaVuSans-25" x="127.246094"/>
    </g>
   </g>
   <g id="text_3">
    <!-- No -->
    <g style="fill: #262626" transform="translate(142.312451 71.896019)scale(0.1 -0.1)">
     <defs>
      <path id="DejaVuSans-4e" d="M 628 4666 
L 1478 4666 
L 3547 763 
L 3547 4666 
L 4159 4666 
L 4159 0 
L 3309 0 
L 1241 3903 
L 1241 0 
L 628 0 
L 628 4666 
z
" transform="scale(0.015625)"/>
      <path id="DejaVuSans-6f" d="M 1959 3097 
Q 1497 3097 1228 2736 
Q 959 2375 959 1747 
Q 959 1119 1226 758 
Q 1494 397 1959 397 
Q 2419 397 2687 759 
Q 2956 1122 2956 1747 
Q 2956 2369 2687 2733 
Q 2419 3097 1959 3097 
z
M 1959 3584 
Q 2709 3584 3137 3096 
Q 3566 2609 3566 1747 
Q 3566 888 3137 398 
Q 2709 -91 1959 -91 
Q 1206 -91 779 398 
Q 353 888 353 1747 
Q 353 2609 779 3096 
Q 1206 3584 1959 3584 
z
" transform="scale(0.015625)"/>
     </defs>
     <use xlink:href="#DejaVuSans-4e"/>
     <use xlink:href="#DejaVuSans-6f" x="74.804688"/>
    </g>
   </g>
   <g id="text_4">
    <!-- 7% -->
    <g style="fill: #262626" transform="translate(112.529138 78.692999)scale(0.1 -0.1)">
     <defs>
      <path id="DejaVuSans-37" d="M 525 4666 
L 3525 4666 
L 3525 4397 
L 1831 0 
L 1172 0 
L 2766 4134 
L 525 4134 
L 525 4666 
z
" transform="scale(0.015625)"/>
     </defs>
     <use xlink:href="#DejaVuSans-37"/>
     <use xlink:href="#DejaVuSans-25" x="63.623047"/>
    </g>
   </g>
   <g id="text_5">
    <!-- Name -->
    <g style="fill: #262626" transform="translate(76.537756 20.88)scale(0.12 -0.12)">
     <defs>
      <path id="DejaVuSans-61" d="M 2194 1759 
Q 1497 1759 1228 1600 
Q 959 1441 959 1056 
Q 959 750 1161 570 
Q 1363 391 1709 391 
Q 2188 391 2477 730 
Q 2766 1069 2766 1631 
L 2766 1759 
L 2194 1759 
z
M 3341 1997 
L 3341 0 
L 2766 0 
L 2766 531 
Q 2569 213 2275 61 
Q 1981 -91 1556 -91 
Q 1019 -91 701 211 
Q 384 513 384 1019 
Q 384 1609 779 1909 
Q 1175 2209 1959 2209 
L 2766 2209 
L 2766 2266 
Q 2766 2663 2505 2880 
Q 2244 3097 1772 3097 
Q 1472 3097 1187 3025 
Q 903 2953 641 2809 
L 641 3341 
Q 956 3463 1253 3523 
Q 1550 3584 1831 3584 
Q 2591 3584 2966 3190 
Q 3341 2797 3341 1997 
z
" transform="scale(0.015625)"/>
      <path id="DejaVuSans-6d" d="M 3328 2828 
Q 3544 3216 3844 3400 
Q 4144 3584 4550 3584 
Q 5097 3584 5394 3201 
Q 5691 2819 5691 2113 
L 5691 0 
L 5113 0 
L 5113 2094 
Q 5113 2597 4934 2840 
Q 4756 3084 4391 3084 
Q 3944 3084 3684 2787 
Q 3425 2491 3425 1978 
L 3425 0 
L 2847 0 
L 2847 2094 
Q 2847 2600 2669 2842 
Q 2491 3084 2119 3084 
Q 1678 3084 1418 2786 
Q 1159 2488 1159 1978 
L 1159 0 
L 581 0 
L 581 3500 
L 1159 3500 
L 1159 2956 
Q 1356 3278 1631 3431 
Q 1906 3584 2284 3584 
Q 2666 3584 2933 3390 
Q 3200 3197 3328 2828 
z
" transform="scale(0.015625)"/>
     </defs>
     <use xlink:href="#DejaVuSans-4e"/>
     <use xlink:href="#DejaVuSans-61" x="74.804688"/>
     <use xlink:href="#DejaVuSans-6d" x="136.083984"/>
     <use xlink:href="#DejaVuSans-65" x="233.496094"/>
    </g>
   </g>
  </g>
  <g id="axes_2">
   <g id="matplotlib.axis_3"/>
   <g id="matplotlib.axis_4"/>
   <g id="patch_4">
    <path d="M 307.184888 62.565396 
C 304.393384 57.730368 300.740592 53.446678 296.407314 49.926352 
C 292.074036 46.406027 287.132964 43.708122 281.828663 41.966173 
C 276.524363 40.224224 270.945816 39.467454 265.36914 39.73332 
C 259.792465 39.999186 254.311213 41.283228 249.196687 43.52189 
C 244.08216 45.760553 239.420158 48.916281 235.441433 52.832879 
C 231.462707 56.749476 228.234003 61.361239 225.91513 66.439902 
C 223.596257 71.518565 222.226115 76.978931 221.872522 82.550732 
C 221.518928 88.122533 222.187815 93.712298 223.846074 99.043355 
C 225.504333 104.374412 228.124146 109.357329 231.575843 113.745471 
C 235.027539 118.133612 239.253215 121.853363 244.043714 124.720611 
C 248.834213 127.587859 254.109172 129.554504 259.6075 130.523204 
C 265.105828 131.491903 270.735288 131.446408 276.217241 130.388968 
C 281.699195 129.331528 286.941679 127.279884 291.685211 124.335585 
C 296.428742 121.391285 300.593745 117.603722 303.974068 113.160366 
C 307.35439 108.71701 309.893325 103.692401 311.465205 98.335239 
C 313.037084 92.978077 313.615539 87.378231 313.171938 81.812873 
L 267.548638 85.449396 
L 307.184888 62.565396 
z
" style="fill: #1f77b4; stroke: #ffffff; stroke-linejoin: miter"/>
   </g>
   <g id="patch_5">
    <path d="M 317.542194 80.453477 
C 317.27278 77.073437 316.628578 73.73378 315.621458 70.49604 
C 314.614338 67.258299 313.250524 64.142482 311.555144 61.205998 
L 271.918894 84.09 
L 317.542194 80.453477 
z
" style="fill: #ff7f0e; stroke: #ffffff; stroke-linejoin: miter"/>
   </g>
   <g id="text_6">
    <!-- Yes -->
    <g style="fill: #262626" transform="translate(203.330505 103.162126)scale(0.1 -0.1)">
     <use xlink:href="#DejaVuSans-59"/>
     <use xlink:href="#DejaVuSans-65" x="47.833984"/>
     <use xlink:href="#DejaVuSans-73" x="109.357422"/>
    </g>
   </g>
   <g id="text_7">
    <!-- 93% -->
    <g style="fill: #262626" transform="translate(230.213818 96.365146)scale(0.1 -0.1)">
     <use xlink:href="#DejaVuSans-39"/>
     <use xlink:href="#DejaVuSans-33" x="63.623047"/>
     <use xlink:href="#DejaVuSans-25" x="127.246094"/>
    </g>
   </g>
   <g id="text_8">
    <!-- No -->
    <g style="fill: #262626" transform="translate(319.991714 71.896019)scale(0.1 -0.1)">
     <use xlink:href="#DejaVuSans-4e"/>
     <use xlink:href="#DejaVuSans-6f" x="74.804688"/>
    </g>
   </g>
   <g id="text_9">
    <!-- 7% -->
    <g style="fill: #262626" transform="translate(290.208401 78.692999)scale(0.1 -0.1)">
     <use xlink:href="#DejaVuSans-37"/>
     <use xlink:href="#DejaVuSans-25" x="63.623047"/>
    </g>
   </g>
   <g id="text_10">
    <!-- Homepage -->
    <g style="fill: #262626" transform="translate(239.212332 20.88)scale(0.12 -0.12)">
     <defs>
      <path id="DejaVuSans-48" d="M 628 4666 
L 1259 4666 
L 1259 2753 
L 3553 2753 
L 3553 4666 
L 4184 4666 
L 4184 0 
L 3553 0 
L 3553 2222 
L 1259 2222 
L 1259 0 
L 628 0 
L 628 4666 
z
" transform="scale(0.015625)"/>
      <path id="DejaVuSans-70" d="M 1159 525 
L 1159 -1331 
L 581 -1331 
L 581 3500 
L 1159 3500 
L 1159 2969 
Q 1341 3281 1617 3432 
Q 1894 3584 2278 3584 
Q 2916 3584 3314 3078 
Q 3713 2572 3713 1747 
Q 3713 922 3314 415 
Q 2916 -91 2278 -91 
Q 1894 -91 1617 61 
Q 1341 213 1159 525 
z
M 3116 1747 
Q 3116 2381 2855 2742 
Q 2594 3103 2138 3103 
Q 1681 3103 1420 2742 
Q 1159 2381 1159 1747 
Q 1159 1113 1420 752 
Q 1681 391 2138 391 
Q 2594 391 2855 752 
Q 3116 1113 3116 1747 
z
" transform="scale(0.015625)"/>
      <path id="DejaVuSans-67" d="M 2906 1791 
Q 2906 2416 2648 2759 
Q 2391 3103 1925 3103 
Q 1463 3103 1205 2759 
Q 947 2416 947 1791 
Q 947 1169 1205 825 
Q 1463 481 1925 481 
Q 2391 481 2648 825 
Q 2906 1169 2906 1791 
z
M 3481 434 
Q 3481 -459 3084 -895 
Q 2688 -1331 1869 -1331 
Q 1566 -1331 1297 -1286 
Q 1028 -1241 775 -1147 
L 775 -588 
Q 1028 -725 1275 -790 
Q 1522 -856 1778 -856 
Q 2344 -856 2625 -561 
Q 2906 -266 2906 331 
L 2906 616 
Q 2728 306 2450 153 
Q 2172 0 1784 0 
Q 1141 0 747 490 
Q 353 981 353 1791 
Q 353 2603 747 3093 
Q 1141 3584 1784 3584 
Q 2172 3584 2450 3431 
Q 2728 3278 2906 2969 
L 2906 3500 
L 3481 3500 
L 3481 434 
z
" transform="scale(0.015625)"/>
     </defs>
     <use xlink:href="#DejaVuSans-48"/>
     <use xlink:href="#DejaVuSans-6f" x="75.195312"/>
     <use xlink:href="#DejaVuSans-6d" x="136.376953"/>
     <use xlink:href="#DejaVuSans-65" x="233.789062"/>
     <use xlink:href="#DejaVuSans-70" x="295.3125"/>
     <use xlink:href="#DejaVuSans-61" x="358.789062"/>
     <use xlink:href="#DejaVuSans-67" x="420.068359"/>
     <use xlink:href="#DejaVuSans-65" x="483.544922"/>
    </g>
   </g>
  </g>
  <g id="axes_3">
   <g id="matplotlib.axis_5"/>
   <g id="matplotlib.axis_6"/>
   <g id="patch_6">
    <path d="M 484.864151 62.565396 
C 482.072647 57.730368 478.419855 53.446678 474.086577 49.926352 
C 469.753299 46.406027 464.812227 43.708122 459.507926 41.966173 
C 454.203625 40.224224 448.625079 39.467454 443.048403 39.73332 
C 437.471728 39.999186 431.990476 41.283228 426.87595 43.52189 
C 421.761423 45.760553 417.099421 48.916281 413.120695 52.832879 
C 409.14197 56.749476 405.913266 61.361239 403.594393 66.439902 
C 401.27552 71.518565 399.905378 76.978931 399.551785 82.550732 
C 399.198191 88.122533 399.867078 93.712298 401.525337 99.043355 
C 403.183596 104.374412 405.803409 109.357329 409.255105 113.745471 
C 412.706802 118.133612 416.932477 121.853363 421.722976 124.720611 
C 426.513475 127.587859 431.788435 129.554504 437.286763 130.523204 
C 442.785091 131.491903 448.414551 131.446408 453.896504 130.388968 
C 459.378458 129.331528 464.620942 127.279884 469.364473 124.335585 
C 474.108005 121.391285 478.273008 117.603722 481.653331 113.160366 
C 485.033653 108.71701 487.572588 103.692401 489.144468 98.335239 
C 490.716347 92.978077 491.294802 87.378231 490.851201 81.812873 
L 445.227901 85.449396 
L 484.864151 62.565396 
z
" style="fill: #1f77b4; stroke: #ffffff; stroke-linejoin: miter"/>
   </g>
   <g id="patch_7">
    <path d="M 495.221457 80.453477 
C 494.952042 77.073437 494.30784 73.73378 493.300721 70.49604 
C 492.293601 67.258299 490.929787 64.142482 489.234407 61.205998 
L 449.598157 84.09 
L 495.221457 80.453477 
z
" style="fill: #ff7f0e; stroke: #ffffff; stroke-linejoin: miter"/>
   </g>
   <g id="text_11">
    <!-- Yes -->
    <g style="fill: #262626" transform="translate(381.009768 103.162126)scale(0.1 -0.1)">
     <use xlink:href="#DejaVuSans-59"/>
     <use xlink:href="#DejaVuSans-65" x="47.833984"/>
     <use xlink:href="#DejaVuSans-73" x="109.357422"/>
    </g>
   </g>
   <g id="text_12">
    <!-- 93% -->
    <g style="fill: #262626" transform="translate(407.893081 96.365146)scale(0.1 -0.1)">
     <use xlink:href="#DejaVuSans-39"/>
     <use xlink:href="#DejaVuSans-33" x="63.623047"/>
     <use xlink:href="#DejaVuSans-25" x="127.246094"/>
    </g>
   </g>
   <g id="text_13">
    <!-- No -->
    <g style="fill: #262626" transform="translate(497.670977 71.896019)scale(0.1 -0.1)">
     <use xlink:href="#DejaVuSans-4e"/>
     <use xlink:href="#DejaVuSans-6f" x="74.804688"/>
    </g>
   </g>
   <g id="text_14">
    <!-- 7% -->
    <g style="fill: #262626" transform="translate(467.887664 78.692999)scale(0.1 -0.1)">
     <use xlink:href="#DejaVuSans-37"/>
     <use xlink:href="#DejaVuSans-25" x="63.623047"/>
    </g>
   </g>
   <g id="text_15">
    <!-- Description -->
    <g style="fill: #262626" transform="translate(415.426282 20.88)scale(0.12 -0.12)">
     <defs>
      <path id="DejaVuSans-44" d="M 1259 4147 
L 1259 519 
L 2022 519 
Q 2988 519 3436 956 
Q 3884 1394 3884 2338 
Q 3884 3275 3436 3711 
Q 2988 4147 2022 4147 
L 1259 4147 
z
M 628 4666 
L 1925 4666 
Q 3281 4666 3915 4102 
Q 4550 3538 4550 2338 
Q 4550 1131 3912 565 
Q 3275 0 1925 0 
L 628 0 
L 628 4666 
z
" transform="scale(0.015625)"/>
      <path id="DejaVuSans-63" d="M 3122 3366 
L 3122 2828 
Q 2878 2963 2633 3030 
Q 2388 3097 2138 3097 
Q 1578 3097 1268 2742 
Q 959 2388 959 1747 
Q 959 1106 1268 751 
Q 1578 397 2138 397 
Q 2388 397 2633 464 
Q 2878 531 3122 666 
L 3122 134 
Q 2881 22 2623 -34 
Q 2366 -91 2075 -91 
Q 1284 -91 818 406 
Q 353 903 353 1747 
Q 353 2603 823 3093 
Q 1294 3584 2113 3584 
Q 2378 3584 2631 3529 
Q 2884 3475 3122 3366 
z
" transform="scale(0.015625)"/>
      <path id="DejaVuSans-72" d="M 2631 2963 
Q 2534 3019 2420 3045 
Q 2306 3072 2169 3072 
Q 1681 3072 1420 2755 
Q 1159 2438 1159 1844 
L 1159 0 
L 581 0 
L 581 3500 
L 1159 3500 
L 1159 2956 
Q 1341 3275 1631 3429 
Q 1922 3584 2338 3584 
Q 2397 3584 2469 3576 
Q 2541 3569 2628 3553 
L 2631 2963 
z
" transform="scale(0.015625)"/>
      <path id="DejaVuSans-69" d="M 603 3500 
L 1178 3500 
L 1178 0 
L 603 0 
L 603 3500 
z
M 603 4863 
L 1178 4863 
L 1178 4134 
L 603 4134 
L 603 4863 
z
" transform="scale(0.015625)"/>
      <path id="DejaVuSans-74" d="M 1172 4494 
L 1172 3500 
L 2356 3500 
L 2356 3053 
L 1172 3053 
L 1172 1153 
Q 1172 725 1289 603 
Q 1406 481 1766 481 
L 2356 481 
L 2356 0 
L 1766 0 
Q 1100 0 847 248 
Q 594 497 594 1153 
L 594 3053 
L 172 3053 
L 172 3500 
L 594 3500 
L 594 4494 
L 1172 4494 
z
" transform="scale(0.015625)"/>
      <path id="DejaVuSans-6e" d="M 3513 2113 
L 3513 0 
L 2938 0 
L 2938 2094 
Q 2938 2591 2744 2837 
Q 2550 3084 2163 3084 
Q 1697 3084 1428 2787 
Q 1159 2491 1159 1978 
L 1159 0 
L 581 0 
L 581 3500 
L 1159 3500 
L 1159 2956 
Q 1366 3272 1645 3428 
Q 1925 3584 2291 3584 
Q 2894 3584 3203 3211 
Q 3513 2838 3513 2113 
z
" transform="scale(0.015625)"/>
     </defs>
     <use xlink:href="#DejaVuSans-44"/>
     <use xlink:href="#DejaVuSans-65" x="77.001953"/>
     <use xlink:href="#DejaVuSans-73" x="138.525391"/>
     <use xlink:href="#DejaVuSans-63" x="190.625"/>
     <use xlink:href="#DejaVuSans-72" x="245.605469"/>
     <use xlink:href="#DejaVuSans-69" x="286.71875"/>
     <use xlink:href="#DejaVuSans-70" x="314.501953"/>
     <use xlink:href="#DejaVuSans-74" x="377.978516"/>
     <use xlink:href="#DejaVuSans-69" x="417.1875"/>
     <use xlink:href="#DejaVuSans-6f" x="444.970703"/>
     <use xlink:href="#DejaVuSans-6e" x="506.152344"/>
    </g>
   </g>
  </g>
  <g id="axes_4">
   <g id="matplotlib.axis_7"/>
   <g id="matplotlib.axis_8"/>
   <g id="patch_8">
    <path d="M 662.48266 62.35197 
C 659.737767 57.597676 656.15973 53.375803 651.919866 49.888496 
C 647.680002 46.401188 642.847076 43.705007 637.652491 41.929045 
C 632.457905 40.153083 626.98591 39.326145 621.498505 39.487823 
C 616.011099 39.649502 610.597283 40.797176 605.51627 42.875894 
C 600.435257 44.954612 595.769457 47.93066 591.742266 51.661544 
C 587.715076 55.392429 584.391813 59.817639 581.931596 64.725295 
C 579.471378 69.632951 577.914108 74.943457 577.334347 80.402544 
C 576.754587 85.861632 577.161739 91.380761 578.536309 96.695675 
C 579.91088 102.01059 582.230574 107.035088 585.384326 111.528595 
C 588.538078 116.022103 592.474736 119.91174 597.005813 123.011272 
C 601.536891 126.110804 606.588898 128.369958 611.919945 129.680567 
C 617.250992 130.991177 622.774615 131.331984 628.226343 130.686671 
C 633.67807 130.041358 638.969481 128.420391 643.847221 125.901382 
C 648.724962 123.382374 653.109922 120.006179 656.792148 115.934451 
C 660.474373 111.862722 663.394144 107.161499 665.411661 102.055876 
C 667.429177 96.950253 668.511718 91.523038 668.60745 86.034086 
L 622.84641 85.23597 
L 662.48266 62.35197 
z
" style="fill: #1f77b4; stroke: #ffffff; stroke-linejoin: miter"/>
   </g>
   <g id="patch_9">
    <path d="M 673.03846 84.888115 
C 673.110538 80.755425 672.622449 76.631952 671.58752 72.630296 
C 670.552592 68.62864 668.980331 64.785561 666.913671 61.206002 
L 627.27742 84.09 
L 673.03846 84.888115 
z
" style="fill: #ff7f0e; stroke: #ffffff; stroke-linejoin: miter"/>
   </g>
   <g id="text_16">
    <!-- Yes -->
    <g style="fill: #262626" transform="translate(557.959987 100.601021)scale(0.1 -0.1)">
     <use xlink:href="#DejaVuSans-59"/>
     <use xlink:href="#DejaVuSans-65" x="47.833984"/>
     <use xlink:href="#DejaVuSans-73" x="109.357422"/>
    </g>
   </g>
   <g id="text_17">
    <!-- 91% -->
    <g style="fill: #262626" transform="translate(585.147068 94.871168)scale(0.1 -0.1)">
     <defs>
      <path id="DejaVuSans-31" d="M 794 531 
L 1825 531 
L 1825 4091 
L 703 3866 
L 703 4441 
L 1819 4666 
L 2450 4666 
L 2450 531 
L 3481 531 
L 3481 0 
L 794 0 
L 794 531 
z
" transform="scale(0.015625)"/>
     </defs>
     <use xlink:href="#DejaVuSans-39"/>
     <use xlink:href="#DejaVuSans-31" x="63.623047"/>
     <use xlink:href="#DejaVuSans-25" x="127.246094"/>
    </g>
   </g>
   <g id="text_18">
    <!-- No -->
    <g style="fill: #262626" transform="translate(676.01853 74.243701)scale(0.1 -0.1)">
     <use xlink:href="#DejaVuSans-4e"/>
     <use xlink:href="#DejaVuSans-6f" x="74.804688"/>
    </g>
   </g>
   <g id="text_19">
    <!-- 9% -->
    <g style="fill: #262626" transform="translate(645.931449 79.973553)scale(0.1 -0.1)">
     <use xlink:href="#DejaVuSans-39"/>
     <use xlink:href="#DejaVuSans-25" x="63.623047"/>
    </g>
   </g>
   <g id="text_20">
    <!-- Example -->
    <g style="fill: #262626" transform="translate(601.245857 20.88)scale(0.12 -0.12)">
     <defs>
      <path id="DejaVuSans-45" d="M 628 4666 
L 3578 4666 
L 3578 4134 
L 1259 4134 
L 1259 2753 
L 3481 2753 
L 3481 2222 
L 1259 2222 
L 1259 531 
L 3634 531 
L 3634 0 
L 628 0 
L 628 4666 
z
" transform="scale(0.015625)"/>
      <path id="DejaVuSans-78" d="M 3513 3500 
L 2247 1797 
L 3578 0 
L 2900 0 
L 1881 1375 
L 863 0 
L 184 0 
L 1544 1831 
L 300 3500 
L 978 3500 
L 1906 2253 
L 2834 3500 
L 3513 3500 
z
" transform="scale(0.015625)"/>
      <path id="DejaVuSans-6c" d="M 603 4863 
L 1178 4863 
L 1178 0 
L 603 0 
L 603 4863 
z
" transform="scale(0.015625)"/>
     </defs>
     <use xlink:href="#DejaVuSans-45"/>
     <use xlink:href="#DejaVuSans-78" x="63.183594"/>
     <use xlink:href="#DejaVuSans-61" x="122.363281"/>
     <use xlink:href="#DejaVuSans-6d" x="183.642578"/>
     <use xlink:href="#DejaVuSans-70" x="281.054688"/>
     <use xlink:href="#DejaVuSans-6c" x="344.53125"/>
     <use xlink:href="#DejaVuSans-65" x="372.314453"/>
    </g>
   </g>
  </g>
  <g id="axes_5">
   <g id="matplotlib.axis_9"/>
   <g id="matplotlib.axis_10"/>
   <g id="patch_10">
    <path d="M 129.693343 200.64765 
C 125.471917 193.335925 119.308489 187.332929 111.887995 183.305769 
C 104.467502 179.278608 96.075395 177.382201 87.644284 177.827293 
C 79.213172 178.272386 71.067385 181.041856 64.112157 185.827934 
C 57.156929 190.614013 51.659814 197.232589 48.231703 204.948145 
C 44.803593 212.6637 43.576358 221.179434 44.686382 229.548997 
C 45.796406 237.918561 49.200988 245.819993 54.521778 252.375215 
C 59.842569 258.930437 66.874888 263.887281 74.83724 266.694897 
C 82.799591 269.502513 91.385678 270.052897 99.641336 268.284885 
L 90.057092 223.53165 
L 129.693343 200.64765 
z
" style="fill: #1f77b4; stroke: #ffffff; stroke-linejoin: miter"/>
   </g>
   <g id="patch_11">
    <path d="M 103.823875 270.143236 
C 110.880267 268.632056 117.480225 265.473176 123.083197 260.925314 
C 128.686169 256.377452 133.134897 250.568254 136.06502 243.973505 
C 138.995144 237.378756 140.324423 230.18355 139.943988 222.977191 
C 139.563552 215.770832 137.484079 208.75558 133.875882 202.506 
L 94.239631 225.39 
L 103.823875 270.143236 
z
" style="fill: #ff7f0e; stroke: #ffffff; stroke-linejoin: miter"/>
   </g>
   <g id="text_21">
    <!-- Yes -->
    <g style="fill: #262626" transform="translate(27.903852 205.849169)scale(0.1 -0.1)">
     <use xlink:href="#DejaVuSans-59"/>
     <use xlink:href="#DejaVuSans-65" x="47.833984"/>
     <use xlink:href="#DejaVuSans-73" x="109.357422"/>
    </g>
   </g>
   <g id="text_22">
    <!-- 70% -->
    <g style="fill: #262626" transform="translate(53.848578 215.140922)scale(0.1 -0.1)">
     <defs>
      <path id="DejaVuSans-30" d="M 2034 4250 
Q 1547 4250 1301 3770 
Q 1056 3291 1056 2328 
Q 1056 1369 1301 889 
Q 1547 409 2034 409 
Q 2525 409 2770 889 
Q 3016 1369 3016 2328 
Q 3016 3291 2770 3770 
Q 2525 4250 2034 4250 
z
M 2034 4750 
Q 2819 4750 3233 4129 
Q 3647 3509 3647 2328 
Q 3647 1150 3233 529 
Q 2819 -91 2034 -91 
Q 1250 -91 836 529 
Q 422 1150 422 2328 
Q 422 3509 836 4129 
Q 1250 4750 2034 4750 
z
" transform="scale(0.015625)"/>
     </defs>
     <use xlink:href="#DejaVuSans-37"/>
     <use xlink:href="#DejaVuSans-30" x="63.623047"/>
     <use xlink:href="#DejaVuSans-25" x="127.246094"/>
    </g>
   </g>
   <g id="text_23">
    <!-- No -->
    <g style="fill: #262626" transform="translate(140.247559 248.59123)scale(0.1 -0.1)">
     <use xlink:href="#DejaVuSans-4e"/>
     <use xlink:href="#DejaVuSans-6f" x="74.804688"/>
    </g>
   </g>
   <g id="text_24">
    <!-- 30% -->
    <g style="fill: #262626" transform="translate(108.221584 239.299478)scale(0.1 -0.1)">
     <use xlink:href="#DejaVuSans-33"/>
     <use xlink:href="#DejaVuSans-30" x="63.623047"/>
     <use xlink:href="#DejaVuSans-25" x="127.246094"/>
    </g>
   </g>
   <g id="text_25">
    <!-- Pattern -->
    <g style="fill: #262626" transform="translate(72.654631 162.18)scale(0.12 -0.12)">
     <defs>
      <path id="DejaVuSans-50" d="M 1259 4147 
L 1259 2394 
L 2053 2394 
Q 2494 2394 2734 2622 
Q 2975 2850 2975 3272 
Q 2975 3691 2734 3919 
Q 2494 4147 2053 4147 
L 1259 4147 
z
M 628 4666 
L 2053 4666 
Q 2838 4666 3239 4311 
Q 3641 3956 3641 3272 
Q 3641 2581 3239 2228 
Q 2838 1875 2053 1875 
L 1259 1875 
L 1259 0 
L 628 0 
L 628 4666 
z
" transform="scale(0.015625)"/>
     </defs>
     <use xlink:href="#DejaVuSans-50"/>
     <use xlink:href="#DejaVuSans-61" x="55.802734"/>
     <use xlink:href="#DejaVuSans-74" x="117.082031"/>
     <use xlink:href="#DejaVuSans-74" x="156.291016"/>
     <use xlink:href="#DejaVuSans-65" x="195.5"/>
     <use xlink:href="#DejaVuSans-72" x="257.023438"/>
     <use xlink:href="#DejaVuSans-6e" x="296.386719"/>
    </g>
   </g>
  </g>
  <g id="axes_6">
   <g id="matplotlib.axis_11"/>
   <g id="matplotlib.axis_12"/>
   <g id="patch_12">
    <path d="M 306.996765 202.916205 
C 304.408787 198.433696 301.079063 194.42251 297.149533 191.053635 
C 293.220004 187.684761 288.747311 185.006759 283.922117 183.133788 
C 279.096923 181.260818 273.98878 180.219876 268.81544 180.055337 
C 263.642101 179.890797 258.478134 180.605032 253.543672 182.167595 
C 248.60921 183.730157 243.97538 186.118524 239.839713 189.230883 
C 235.704047 192.343242 232.126157 196.13473 229.258563 200.443724 
C 226.39097 204.752717 224.275007 209.517104 223.000874 214.533786 
C 221.726742 219.550469 221.312806 224.747135 221.776712 229.902259 
C 222.240618 235.057384 223.575679 240.096659 225.724984 244.805269 
C 227.874288 249.513879 230.806855 253.823952 234.397674 257.551757 
C 237.988494 261.279562 242.185806 264.371366 246.810687 266.695369 
C 251.435568 269.019373 256.421353 270.542077 261.555507 271.198572 
C 266.68966 271.855067 271.898176 271.63589 276.959025 270.550383 
C 282.019874 269.464876 286.860107 267.528687 291.273392 264.824353 
C 295.686678 262.120018 299.609402 258.686518 302.874345 254.670218 
C 306.139288 250.653919 308.699388 246.112711 310.445512 241.240179 
L 267.360514 225.800205 
L 306.996765 202.916205 
z
" style="fill: #1f77b4; stroke: #ffffff; stroke-linejoin: miter"/>
   </g>
   <g id="patch_13">
    <path d="M 315.003892 240.829974 
C 317.245494 234.574818 318.098239 227.905887 317.502696 221.28795 
C 316.907153 214.670014 314.877487 208.260468 311.555149 202.506007 
L 271.918894 225.39 
L 315.003892 240.829974 
z
" style="fill: #ff7f0e; stroke: #ffffff; stroke-linejoin: miter"/>
   </g>
   <g id="text_26">
    <!-- Yes -->
    <g style="fill: #262626" transform="translate(201.07302 233.07184)scale(0.1 -0.1)">
     <use xlink:href="#DejaVuSans-59"/>
     <use xlink:href="#DejaVuSans-65" x="47.833984"/>
     <use xlink:href="#DejaVuSans-73" x="109.357422"/>
    </g>
   </g>
   <g id="text_27">
    <!-- 86% -->
    <g style="fill: #262626" transform="translate(228.896952 231.020813)scale(0.1 -0.1)">
     <defs>
      <path id="DejaVuSans-38" d="M 2034 2216 
Q 1584 2216 1326 1975 
Q 1069 1734 1069 1313 
Q 1069 891 1326 650 
Q 1584 409 2034 409 
Q 2484 409 2743 651 
Q 3003 894 3003 1313 
Q 3003 1734 2745 1975 
Q 2488 2216 2034 2216 
z
M 1403 2484 
Q 997 2584 770 2862 
Q 544 3141 544 3541 
Q 544 4100 942 4425 
Q 1341 4750 2034 4750 
Q 2731 4750 3128 4425 
Q 3525 4100 3525 3541 
Q 3525 3141 3298 2862 
Q 3072 2584 2669 2484 
Q 3125 2378 3379 2068 
Q 3634 1759 3634 1313 
Q 3634 634 3220 271 
Q 2806 -91 2034 -91 
Q 1263 -91 848 271 
Q 434 634 434 1313 
Q 434 1759 690 2068 
Q 947 2378 1403 2484 
z
M 1172 3481 
Q 1172 3119 1398 2916 
Q 1625 2713 2034 2713 
Q 2441 2713 2670 2916 
Q 2900 3119 2900 3481 
Q 2900 3844 2670 4047 
Q 2441 4250 2034 4250 
Q 1625 4250 1398 4047 
Q 1172 3844 1172 3481 
z
" transform="scale(0.015625)"/>
      <path id="DejaVuSans-36" d="M 2113 2584 
Q 1688 2584 1439 2293 
Q 1191 2003 1191 1497 
Q 1191 994 1439 701 
Q 1688 409 2113 409 
Q 2538 409 2786 701 
Q 3034 994 3034 1497 
Q 3034 2003 2786 2293 
Q 2538 2584 2113 2584 
z
M 3366 4563 
L 3366 3988 
Q 3128 4100 2886 4159 
Q 2644 4219 2406 4219 
Q 1781 4219 1451 3797 
Q 1122 3375 1075 2522 
Q 1259 2794 1537 2939 
Q 1816 3084 2150 3084 
Q 2853 3084 3261 2657 
Q 3669 2231 3669 1497 
Q 3669 778 3244 343 
Q 2819 -91 2113 -91 
Q 1303 -91 875 529 
Q 447 1150 447 2328 
Q 447 3434 972 4092 
Q 1497 4750 2381 4750 
Q 2619 4750 2861 4703 
Q 3103 4656 3366 4563 
z
" transform="scale(0.015625)"/>
     </defs>
     <use xlink:href="#DejaVuSans-38"/>
     <use xlink:href="#DejaVuSans-36" x="63.623047"/>
     <use xlink:href="#DejaVuSans-25" x="127.246094"/>
    </g>
   </g>
   <g id="text_28">
    <!-- No -->
    <g style="fill: #262626" transform="translate(322.061076 223.63712)scale(0.1 -0.1)">
     <use xlink:href="#DejaVuSans-4e"/>
     <use xlink:href="#DejaVuSans-6f" x="74.804688"/>
    </g>
   </g>
   <g id="text_29">
    <!-- 14% -->
    <g style="fill: #262626" transform="translate(288.155894 225.688145)scale(0.1 -0.1)">
     <defs>
      <path id="DejaVuSans-34" d="M 2419 4116 
L 825 1625 
L 2419 1625 
L 2419 4116 
z
M 2253 4666 
L 3047 4666 
L 3047 1625 
L 3713 1625 
L 3713 1100 
L 3047 1100 
L 3047 0 
L 2419 0 
L 2419 1100 
L 313 1100 
L 313 1709 
L 2253 4666 
z
" transform="scale(0.015625)"/>
     </defs>
     <use xlink:href="#DejaVuSans-31"/>
     <use xlink:href="#DejaVuSans-34" x="63.623047"/>
     <use xlink:href="#DejaVuSans-25" x="127.246094"/>
    </g>
   </g>
   <g id="text_30">
    <!-- Provider -->
    <g style="fill: #262626" transform="translate(247.217644 162.18)scale(0.12 -0.12)">
     <defs>
      <path id="DejaVuSans-76" d="M 191 3500 
L 800 3500 
L 1894 563 
L 2988 3500 
L 3597 3500 
L 2284 0 
L 1503 0 
L 191 3500 
z
" transform="scale(0.015625)"/>
      <path id="DejaVuSans-64" d="M 2906 2969 
L 2906 4863 
L 3481 4863 
L 3481 0 
L 2906 0 
L 2906 525 
Q 2725 213 2448 61 
Q 2172 -91 1784 -91 
Q 1150 -91 751 415 
Q 353 922 353 1747 
Q 353 2572 751 3078 
Q 1150 3584 1784 3584 
Q 2172 3584 2448 3432 
Q 2725 3281 2906 2969 
z
M 947 1747 
Q 947 1113 1208 752 
Q 1469 391 1925 391 
Q 2381 391 2643 752 
Q 2906 1113 2906 1747 
Q 2906 2381 2643 2742 
Q 2381 3103 1925 3103 
Q 1469 3103 1208 2742 
Q 947 2381 947 1747 
z
" transform="scale(0.015625)"/>
     </defs>
     <use xlink:href="#DejaVuSans-50"/>
     <use xlink:href="#DejaVuSans-72" x="58.552734"/>
     <use xlink:href="#DejaVuSans-6f" x="97.416016"/>
     <use xlink:href="#DejaVuSans-76" x="158.597656"/>
     <use xlink:href="#DejaVuSans-69" x="217.777344"/>
     <use xlink:href="#DejaVuSans-64" x="245.560547"/>
     <use xlink:href="#DejaVuSans-65" x="309.037109"/>
     <use xlink:href="#DejaVuSans-72" x="370.560547"/>
    </g>
   </g>
  </g>
  <g id="axes_7">
   <g id="matplotlib.axis_13"/>
   <g id="matplotlib.axis_14"/>
   <g id="patch_14">
    <path d="M 491.504238 198.531711 
C 487.451256 191.51174 481.605145 185.692919 474.566288 181.672826 
C 467.527431 177.652733 459.545326 175.573864 451.439717 175.649715 
L 451.867987 221.415711 
L 491.504238 198.531711 
z
" style="fill: #1f77b4; stroke: #ffffff; stroke-linejoin: miter"/>
   </g>
   <g id="patch_15">
    <path d="M 449.169886 179.624004 
C 444.17546 179.670741 439.222199 180.534724 434.506885 182.181629 
C 429.791572 183.828534 425.377488 186.236258 421.439998 189.309147 
C 417.502508 192.382037 414.094455 196.078852 411.351233 200.252724 
C 408.608011 204.426597 406.566437 209.021512 405.307618 213.854922 
C 404.0488 218.688332 403.58963 223.69537 403.948352 228.677116 
C 404.307074 233.658862 405.478873 238.548459 407.417195 243.151652 
C 409.355518 247.754845 412.03435 252.009856 415.347269 255.747643 
C 418.660187 259.48543 422.56273 262.655828 426.899856 265.132886 
C 431.236982 267.609943 435.950486 269.360415 440.853108 270.314759 
C 445.75573 271.269103 450.781676 271.414511 455.731272 270.745206 
C 460.680869 270.075901 465.487691 268.600867 469.960773 266.378702 
C 474.433855 264.156537 478.513165 261.217065 482.036641 257.677065 
C 485.560116 254.137066 488.48047 250.044047 490.681682 245.560617 
C 492.882894 241.077187 494.335423 236.263516 494.981562 231.310842 
C 495.627701 226.358168 495.45878 221.332958 494.481508 216.434855 
C 493.504236 211.536751 491.73173 206.831489 489.234408 202.506 
L 449.598157 225.39 
L 449.169886 179.624004 
z
" style="fill: #ff7f0e; stroke: #ffffff; stroke-linejoin: miter"/>
   </g>
   <g id="text_31">
    <!-- Yes -->
    <g style="fill: #262626" transform="translate(476.836118 180.457912)scale(0.1 -0.1)">
     <use xlink:href="#DejaVuSans-59"/>
     <use xlink:href="#DejaVuSans-65" x="47.833984"/>
     <use xlink:href="#DejaVuSans-73" x="109.357422"/>
    </g>
   </g>
   <g id="text_32">
    <!-- 17% -->
    <g style="fill: #262626" transform="translate(454.373686 200.329355)scale(0.1 -0.1)">
     <use xlink:href="#DejaVuSans-31"/>
     <use xlink:href="#DejaVuSans-37" x="63.623047"/>
     <use xlink:href="#DejaVuSans-25" x="127.246094"/>
    </g>
   </g>
   <g id="text_33">
    <!-- No -->
    <g style="fill: #262626" transform="translate(411.030026 271.866549)scale(0.1 -0.1)">
     <use xlink:href="#DejaVuSans-4e"/>
     <use xlink:href="#DejaVuSans-6f" x="74.804688"/>
    </g>
   </g>
   <g id="text_34">
    <!-- 83% -->
    <g style="fill: #262626" transform="translate(424.865895 251.995106)scale(0.1 -0.1)">
     <use xlink:href="#DejaVuSans-38"/>
     <use xlink:href="#DejaVuSans-33" x="63.623047"/>
     <use xlink:href="#DejaVuSans-25" x="127.246094"/>
    </g>
   </g>
   <g id="text_35">
    <!-- License -->
    <g style="fill: #262626" transform="translate(426.977219 162.18)scale(0.12 -0.12)">
     <defs>
      <path id="DejaVuSans-4c" d="M 628 4666 
L 1259 4666 
L 1259 531 
L 3531 531 
L 3531 0 
L 628 0 
L 628 4666 
z
" transform="scale(0.015625)"/>
     </defs>
     <use xlink:href="#DejaVuSans-4c"/>
     <use xlink:href="#DejaVuSans-69" x="55.712891"/>
     <use xlink:href="#DejaVuSans-63" x="83.496094"/>
     <use xlink:href="#DejaVuSans-65" x="138.476562"/>
     <use xlink:href="#DejaVuSans-6e" x="200"/>
     <use xlink:href="#DejaVuSans-73" x="263.378906"/>
     <use xlink:href="#DejaVuSans-65" x="315.478516"/>
    </g>
   </g>
  </g>
  <g id="axes_8">
   <g id="matplotlib.axis_15"/>
   <g id="matplotlib.axis_16"/>
   <g id="patch_16">
    <path d="M 666.91367 202.506 
C 662.274808 194.471255 655.300687 188.033843 646.920949 184.051863 
C 638.541211 180.069883 629.145504 178.728493 619.986264 180.206498 
C 610.827024 181.684503 602.330145 185.913178 595.628251 192.328845 
C 588.926357 198.744513 584.331078 207.048852 582.454958 216.134905 
L 627.27742 225.39 
L 666.91367 202.506 
z
" style="fill: #1f77b4; stroke: #ffffff; stroke-linejoin: miter"/>
   </g>
   <g id="patch_17">
    <path d="M 582.454958 216.134905 
C 580.670499 224.777047 581.422967 233.753606 584.621283 241.978063 
C 587.819599 250.20252 593.329297 257.329094 600.483485 262.495187 
C 607.637672 267.661279 616.135567 270.649693 624.948585 271.098712 
C 633.761604 271.547731 642.519222 269.438476 650.16142 265.026251 
L 627.27742 225.39 
L 582.454958 216.134905 
z
" style="fill: #ff7f0e; stroke: #ffffff; stroke-linejoin: miter"/>
   </g>
   <g id="patch_18">
    <path d="M 650.16142 265.026251 
C 657.901679 260.55741 664.165974 253.917646 668.177198 245.930642 
C 672.188422 237.943637 673.773554 228.95391 672.735953 220.076661 
L 627.27742 225.39 
L 650.16142 265.026251 
z
" style="fill: #2ca02c; stroke: #ffffff; stroke-linejoin: miter"/>
   </g>
   <g id="patch_19">
    <path d="M 672.735953 220.076661 
C 672.658671 219.415467 672.566972 218.756038 672.460922 218.098845 
C 672.354872 217.441651 672.234497 216.78685 672.099882 216.134908 
L 627.27742 225.39 
L 672.735953 220.076661 
z
" style="fill: #d62728; stroke: #ffffff; stroke-linejoin: miter"/>
   </g>
   <g id="patch_20">
    <path d="M 672.099882 216.134908 
C 671.965266 215.482966 671.816444 214.834038 671.653519 214.188588 
C 671.490595 213.543138 671.313608 212.90132 671.122684 212.263591 
L 627.27742 225.39 
L 672.099882 216.134908 
z
" style="fill: #9467bd; stroke: #ffffff; stroke-linejoin: miter"/>
   </g>
   <g id="patch_21">
    <path d="M 671.122684 212.263591 
C 670.995405 211.838448 670.861948 211.415179 670.722358 210.993917 
C 670.582767 210.572656 670.437056 210.153447 670.285272 209.736424 
L 627.27742 225.39 
L 671.122684 212.263591 
z
" style="fill: #8c564b; stroke: #ffffff; stroke-linejoin: miter"/>
   </g>
   <g id="patch_22">
    <path d="M 670.285272 209.736424 
C 670.209381 209.527915 670.131975 209.319961 670.053059 209.112577 
C 669.974144 208.905194 669.893721 208.698388 669.811798 208.492175 
L 627.27742 225.39 
L 670.285272 209.736424 
z
" style="fill: #e377c2; stroke: #ffffff; stroke-linejoin: miter"/>
   </g>
   <g id="patch_23">
    <path d="M 669.811798 208.492175 
C 669.729874 208.285961 669.646453 208.080346 669.561539 207.875346 
C 669.476625 207.670346 669.390221 207.465966 669.302335 207.262223 
L 627.27742 225.39 
L 669.811798 208.492175 
z
" style="fill: #7f7f7f; stroke: #ffffff; stroke-linejoin: miter"/>
   </g>
   <g id="patch_24">
    <path d="M 669.302335 207.262223 
C 669.214449 207.058479 669.125082 206.855378 669.034242 206.652934 
C 668.943401 206.45049 668.85109 206.24871 668.757315 206.047609 
L 627.27742 225.39 
L 669.302335 207.262223 
z
" style="fill: #bcbd22; stroke: #ffffff; stroke-linejoin: miter"/>
   </g>
   <g id="patch_25">
    <path d="M 668.757315 206.047609 
C 668.66354 205.846508 668.568304 205.646091 668.471614 205.446375 
C 668.374924 205.246659 668.276783 205.047649 668.177199 204.849361 
L 627.27742 225.39 
L 668.757315 206.047609 
z
" style="fill: #17becf; stroke: #ffffff; stroke-linejoin: miter"/>
   </g>
   <g id="patch_26">
    <path d="M 668.177199 204.849361 
C 668.077615 204.651072 667.97659 204.45351 667.874132 204.256691 
C 667.771675 204.059872 667.667787 203.8638 667.562478 203.668492 
L 627.27742 225.39 
L 668.177199 204.849361 
z
" style="fill: #1f77b4; stroke: #ffffff; stroke-linejoin: miter"/>
   </g>
   <g id="patch_27">
    <path d="M 667.562478 203.668492 
C 667.457168 203.473183 667.35044 203.278643 667.242301 203.084887 
C 667.134163 202.891131 667.024616 202.698164 666.913671 202.506001 
L 627.27742 225.39 
L 667.562478 203.668492 
z
" style="fill: #ff7f0e; stroke: #ffffff; stroke-linejoin: miter"/>
   </g>
   <g id="text_36">
    <!-- CC BY 4.0 -->
    <g style="fill: #262626" transform="translate(570.613398 178.447523)scale(0.1 -0.1)">
     <defs>
      <path id="DejaVuSans-43" d="M 4122 4306 
L 4122 3641 
Q 3803 3938 3442 4084 
Q 3081 4231 2675 4231 
Q 1875 4231 1450 3742 
Q 1025 3253 1025 2328 
Q 1025 1406 1450 917 
Q 1875 428 2675 428 
Q 3081 428 3442 575 
Q 3803 722 4122 1019 
L 4122 359 
Q 3791 134 3420 21 
Q 3050 -91 2638 -91 
Q 1578 -91 968 557 
Q 359 1206 359 2328 
Q 359 3453 968 4101 
Q 1578 4750 2638 4750 
Q 3056 4750 3426 4639 
Q 3797 4528 4122 4306 
z
" transform="scale(0.015625)"/>
      <path id="DejaVuSans-20" transform="scale(0.015625)"/>
      <path id="DejaVuSans-42" d="M 1259 2228 
L 1259 519 
L 2272 519 
Q 2781 519 3026 730 
Q 3272 941 3272 1375 
Q 3272 1813 3026 2020 
Q 2781 2228 2272 2228 
L 1259 2228 
z
M 1259 4147 
L 1259 2741 
L 2194 2741 
Q 2656 2741 2882 2914 
Q 3109 3088 3109 3444 
Q 3109 3797 2882 3972 
Q 2656 4147 2194 4147 
L 1259 4147 
z
M 628 4666 
L 2241 4666 
Q 2963 4666 3353 4366 
Q 3744 4066 3744 3513 
Q 3744 3084 3544 2831 
Q 3344 2578 2956 2516 
Q 3422 2416 3680 2098 
Q 3938 1781 3938 1306 
Q 3938 681 3513 340 
Q 3088 0 2303 0 
L 628 0 
L 628 4666 
z
" transform="scale(0.015625)"/>
      <path id="DejaVuSans-2e" d="M 684 794 
L 1344 794 
L 1344 0 
L 684 0 
L 684 794 
z
" transform="scale(0.015625)"/>
     </defs>
     <use xlink:href="#DejaVuSans-43"/>
     <use xlink:href="#DejaVuSans-43" x="69.824219"/>
     <use xlink:href="#DejaVuSans-20" x="139.648438"/>
     <use xlink:href="#DejaVuSans-42" x="171.435547"/>
     <use xlink:href="#DejaVuSans-59" x="234.539062"/>
     <use xlink:href="#DejaVuSans-20" x="295.623047"/>
     <use xlink:href="#DejaVuSans-34" x="327.410156"/>
     <use xlink:href="#DejaVuSans-2e" x="391.033203"/>
     <use xlink:href="#DejaVuSans-30" x="422.820312"/>
    </g>
   </g>
   <g id="text_37">
    <!-- 38% -->
    <g style="fill: #262626" transform="translate(611.789445 201.039274)scale(0.1 -0.1)">
     <use xlink:href="#DejaVuSans-33"/>
     <use xlink:href="#DejaVuSans-38" x="63.623047"/>
     <use xlink:href="#DejaVuSans-25" x="127.246094"/>
    </g>
   </g>
   <g id="text_38">
    <!-- CC BY 3.0 -->
    <g style="fill: #262626" transform="translate(549.160341 268.96508)scale(0.1 -0.1)">
     <use xlink:href="#DejaVuSans-43"/>
     <use xlink:href="#DejaVuSans-43" x="69.824219"/>
     <use xlink:href="#DejaVuSans-20" x="139.648438"/>
     <use xlink:href="#DejaVuSans-42" x="171.435547"/>
     <use xlink:href="#DejaVuSans-59" x="234.539062"/>
     <use xlink:href="#DejaVuSans-20" x="295.623047"/>
     <use xlink:href="#DejaVuSans-33" x="327.410156"/>
     <use xlink:href="#DejaVuSans-2e" x="391.033203"/>
     <use xlink:href="#DejaVuSans-30" x="422.820312"/>
    </g>
   </g>
   <g id="text_39">
    <!-- 37% -->
    <g style="fill: #262626" transform="translate(600.087777 250.412487)scale(0.1 -0.1)">
     <use xlink:href="#DejaVuSans-33"/>
     <use xlink:href="#DejaVuSans-37" x="63.623047"/>
     <use xlink:href="#DejaVuSans-25" x="127.246094"/>
    </g>
   </g>
   <g id="text_40">
    <!-- CC0 1.0 -->
    <g style="fill: #262626" transform="translate(672.267176 250.744081)scale(0.1 -0.1)">
     <use xlink:href="#DejaVuSans-43"/>
     <use xlink:href="#DejaVuSans-43" x="69.824219"/>
     <use xlink:href="#DejaVuSans-30" x="139.648438"/>
     <use xlink:href="#DejaVuSans-20" x="203.271484"/>
     <use xlink:href="#DejaVuSans-31" x="235.058594"/>
     <use xlink:href="#DejaVuSans-2e" x="298.681641"/>
     <use xlink:href="#DejaVuSans-30" x="330.46875"/>
    </g>
   </g>
   <g id="text_41">
    <!-- 19% -->
    <g style="fill: #262626" transform="translate(640.704005 240.47376)scale(0.1 -0.1)">
     <use xlink:href="#DejaVuSans-31"/>
     <use xlink:href="#DejaVuSans-39" x="63.623047"/>
     <use xlink:href="#DejaVuSans-25" x="127.246094"/>
    </g>
   </g>
   <g id="text_42">
    <!-- Artistic License 2.0 -->
    <g style="fill: #262626" transform="translate(676.979272 220.129104)scale(0.1 -0.1)">
     <defs>
      <path id="DejaVuSans-41" d="M 2188 4044 
L 1331 1722 
L 3047 1722 
L 2188 4044 
z
M 1831 4666 
L 2547 4666 
L 4325 0 
L 3669 0 
L 3244 1197 
L 1141 1197 
L 716 0 
L 50 0 
L 1831 4666 
z
" transform="scale(0.015625)"/>
      <path id="DejaVuSans-32" d="M 1228 531 
L 3431 531 
L 3431 0 
L 469 0 
L 469 531 
Q 828 903 1448 1529 
Q 2069 2156 2228 2338 
Q 2531 2678 2651 2914 
Q 2772 3150 2772 3378 
Q 2772 3750 2511 3984 
Q 2250 4219 1831 4219 
Q 1534 4219 1204 4116 
Q 875 4013 500 3803 
L 500 4441 
Q 881 4594 1212 4672 
Q 1544 4750 1819 4750 
Q 2544 4750 2975 4387 
Q 3406 4025 3406 3419 
Q 3406 3131 3298 2873 
Q 3191 2616 2906 2266 
Q 2828 2175 2409 1742 
Q 1991 1309 1228 531 
z
" transform="scale(0.015625)"/>
     </defs>
     <use xlink:href="#DejaVuSans-41"/>
     <use xlink:href="#DejaVuSans-72" x="68.408203"/>
     <use xlink:href="#DejaVuSans-74" x="109.521484"/>
     <use xlink:href="#DejaVuSans-69" x="148.730469"/>
     <use xlink:href="#DejaVuSans-73" x="176.513672"/>
     <use xlink:href="#DejaVuSans-74" x="228.613281"/>
     <use xlink:href="#DejaVuSans-69" x="267.822266"/>
     <use xlink:href="#DejaVuSans-63" x="295.605469"/>
     <use xlink:href="#DejaVuSans-20" x="350.585938"/>
     <use xlink:href="#DejaVuSans-4c" x="382.373047"/>
     <use xlink:href="#DejaVuSans-69" x="438.085938"/>
     <use xlink:href="#DejaVuSans-63" x="465.869141"/>
     <use xlink:href="#DejaVuSans-65" x="520.849609"/>
     <use xlink:href="#DejaVuSans-6e" x="582.373047"/>
     <use xlink:href="#DejaVuSans-73" x="645.751953"/>
     <use xlink:href="#DejaVuSans-65" x="697.851562"/>
     <use xlink:href="#DejaVuSans-20" x="759.375"/>
     <use xlink:href="#DejaVuSans-32" x="791.162109"/>
     <use xlink:href="#DejaVuSans-2e" x="854.785156"/>
     <use xlink:href="#DejaVuSans-30" x="886.572266"/>
    </g>
   </g>
   <g id="text_43">
    <!-- 1% -->
    <g style="fill: #262626" transform="translate(646.45549 223.774682)scale(0.1 -0.1)">
     <use xlink:href="#DejaVuSans-31"/>
     <use xlink:href="#DejaVuSans-25" x="63.623047"/>
    </g>
   </g>
   <g id="text_44">
    <!-- CC BY 2.0 -->
    <g style="fill: #262626" transform="translate(676.091129 215.827822)scale(0.1 -0.1)">
     <use xlink:href="#DejaVuSans-43"/>
     <use xlink:href="#DejaVuSans-43" x="69.824219"/>
     <use xlink:href="#DejaVuSans-20" x="139.648438"/>
     <use xlink:href="#DejaVuSans-42" x="171.435547"/>
     <use xlink:href="#DejaVuSans-59" x="234.539062"/>
     <use xlink:href="#DejaVuSans-20" x="295.623047"/>
     <use xlink:href="#DejaVuSans-32" x="327.410156"/>
     <use xlink:href="#DejaVuSans-2e" x="391.033203"/>
     <use xlink:href="#DejaVuSans-30" x="422.820312"/>
    </g>
   </g>
   <g id="text_45">
    <!-- 1% -->
    <g style="fill: #262626" transform="translate(645.971048 221.428528)scale(0.1 -0.1)">
     <use xlink:href="#DejaVuSans-31"/>
     <use xlink:href="#DejaVuSans-25" x="63.623047"/>
    </g>
   </g>
   <g id="text_46">
    <!-- Apache 2.0 License -->
    <g style="fill: #262626" transform="translate(675.066851 212.313684)scale(0.1 -0.1)">
     <defs>
      <path id="DejaVuSans-68" d="M 3513 2113 
L 3513 0 
L 2938 0 
L 2938 2094 
Q 2938 2591 2744 2837 
Q 2550 3084 2163 3084 
Q 1697 3084 1428 2787 
Q 1159 2491 1159 1978 
L 1159 0 
L 581 0 
L 581 4863 
L 1159 4863 
L 1159 2956 
Q 1366 3272 1645 3428 
Q 1925 3584 2291 3584 
Q 2894 3584 3203 3211 
Q 3513 2838 3513 2113 
z
" transform="scale(0.015625)"/>
     </defs>
     <use xlink:href="#DejaVuSans-41"/>
     <use xlink:href="#DejaVuSans-70" x="68.408203"/>
     <use xlink:href="#DejaVuSans-61" x="131.884766"/>
     <use xlink:href="#DejaVuSans-63" x="193.164062"/>
     <use xlink:href="#DejaVuSans-68" x="248.144531"/>
     <use xlink:href="#DejaVuSans-65" x="311.523438"/>
     <use xlink:href="#DejaVuSans-20" x="373.046875"/>
     <use xlink:href="#DejaVuSans-32" x="404.833984"/>
     <use xlink:href="#DejaVuSans-2e" x="468.457031"/>
     <use xlink:href="#DejaVuSans-30" x="500.244141"/>
     <use xlink:href="#DejaVuSans-20" x="563.867188"/>
     <use xlink:href="#DejaVuSans-4c" x="595.654297"/>
     <use xlink:href="#DejaVuSans-69" x="651.367188"/>
     <use xlink:href="#DejaVuSans-63" x="679.150391"/>
     <use xlink:href="#DejaVuSans-65" x="734.130859"/>
     <use xlink:href="#DejaVuSans-6e" x="795.654297"/>
     <use xlink:href="#DejaVuSans-73" x="859.033203"/>
     <use xlink:href="#DejaVuSans-65" x="911.132812"/>
    </g>
   </g>
   <g id="text_47">
    <!-- 1% -->
    <g style="fill: #262626" transform="translate(645.412351 219.511725)scale(0.1 -0.1)">
     <use xlink:href="#DejaVuSans-31"/>
     <use xlink:href="#DejaVuSans-25" x="63.623047"/>
    </g>
   </g>
   <g id="text_48">
    <!-- CC-BY -->
    <g style="fill: #262626" transform="translate(674.330623 210.24421)scale(0.1 -0.1)">
     <defs>
      <path id="DejaVuSans-2d" d="M 313 2009 
L 1997 2009 
L 1997 1497 
L 313 1497 
L 313 2009 
z
" transform="scale(0.015625)"/>
     </defs>
     <use xlink:href="#DejaVuSans-43"/>
     <use xlink:href="#DejaVuSans-43" x="69.824219"/>
     <use xlink:href="#DejaVuSans-2d" x="139.648438"/>
     <use xlink:href="#DejaVuSans-42" x="172.107422"/>
     <use xlink:href="#DejaVuSans-59" x="235.210938"/>
    </g>
   </g>
   <g id="text_49">
    <!-- 0% -->
    <g style="fill: #262626" transform="translate(645.010772 218.382921)scale(0.1 -0.1)">
     <use xlink:href="#DejaVuSans-30"/>
     <use xlink:href="#DejaVuSans-25" x="63.623047"/>
    </g>
   </g>
   <g id="text_50">
    <!-- CC BY-SA 4.0 -->
    <g style="fill: #262626" transform="translate(673.789951 208.883256)scale(0.1 -0.1)">
     <defs>
      <path id="DejaVuSans-53" d="M 3425 4513 
L 3425 3897 
Q 3066 4069 2747 4153 
Q 2428 4238 2131 4238 
Q 1616 4238 1336 4038 
Q 1056 3838 1056 3469 
Q 1056 3159 1242 3001 
Q 1428 2844 1947 2747 
L 2328 2669 
Q 3034 2534 3370 2195 
Q 3706 1856 3706 1288 
Q 3706 609 3251 259 
Q 2797 -91 1919 -91 
Q 1588 -91 1214 -16 
Q 841 59 441 206 
L 441 856 
Q 825 641 1194 531 
Q 1563 422 1919 422 
Q 2459 422 2753 634 
Q 3047 847 3047 1241 
Q 3047 1584 2836 1778 
Q 2625 1972 2144 2069 
L 1759 2144 
Q 1053 2284 737 2584 
Q 422 2884 422 3419 
Q 422 4038 858 4394 
Q 1294 4750 2059 4750 
Q 2388 4750 2728 4690 
Q 3069 4631 3425 4513 
z
" transform="scale(0.015625)"/>
     </defs>
     <use xlink:href="#DejaVuSans-43"/>
     <use xlink:href="#DejaVuSans-43" x="69.824219"/>
     <use xlink:href="#DejaVuSans-20" x="139.648438"/>
     <use xlink:href="#DejaVuSans-42" x="171.435547"/>
     <use xlink:href="#DejaVuSans-59" x="234.539062"/>
     <use xlink:href="#DejaVuSans-2d" x="283.748047"/>
     <use xlink:href="#DejaVuSans-53" x="319.832031"/>
     <use xlink:href="#DejaVuSans-41" x="385.183594"/>
     <use xlink:href="#DejaVuSans-20" x="453.591797"/>
     <use xlink:href="#DejaVuSans-34" x="485.378906"/>
     <use xlink:href="#DejaVuSans-2e" x="549.001953"/>
     <use xlink:href="#DejaVuSans-30" x="580.789062"/>
    </g>
   </g>
   <g id="text_51">
    <!-- 0% -->
    <g style="fill: #262626" transform="translate(644.71586 217.640583)scale(0.1 -0.1)">
     <use xlink:href="#DejaVuSans-30"/>
     <use xlink:href="#DejaVuSans-25" x="63.623047"/>
    </g>
   </g>
   <g id="text_52">
    <!-- CC BY-SA 2.0 -->
    <g style="fill: #262626" transform="translate(673.209924 207.538602)scale(0.1 -0.1)">
     <use xlink:href="#DejaVuSans-43"/>
     <use xlink:href="#DejaVuSans-43" x="69.824219"/>
     <use xlink:href="#DejaVuSans-20" x="139.648438"/>
     <use xlink:href="#DejaVuSans-42" x="171.435547"/>
     <use xlink:href="#DejaVuSans-59" x="234.539062"/>
     <use xlink:href="#DejaVuSans-2d" x="283.748047"/>
     <use xlink:href="#DejaVuSans-53" x="319.832031"/>
     <use xlink:href="#DejaVuSans-41" x="385.183594"/>
     <use xlink:href="#DejaVuSans-20" x="453.591797"/>
     <use xlink:href="#DejaVuSans-32" x="485.378906"/>
     <use xlink:href="#DejaVuSans-2e" x="549.001953"/>
     <use xlink:href="#DejaVuSans-30" x="580.789062"/>
    </g>
   </g>
   <g id="text_53">
    <!-- 0% -->
    <g style="fill: #262626" transform="translate(644.399482 216.907135)scale(0.1 -0.1)">
     <use xlink:href="#DejaVuSans-30"/>
     <use xlink:href="#DejaVuSans-25" x="63.623047"/>
    </g>
   </g>
   <g id="text_54">
    <!-- hpo -->
    <g style="fill: #262626" transform="translate(672.591034 206.211388)scale(0.1 -0.1)">
     <use xlink:href="#DejaVuSans-68"/>
     <use xlink:href="#DejaVuSans-70" x="63.378906"/>
     <use xlink:href="#DejaVuSans-6f" x="126.855469"/>
    </g>
   </g>
   <g id="text_55">
    <!-- 0% -->
    <g style="fill: #262626" transform="translate(644.061905 216.1832)scale(0.1 -0.1)">
     <use xlink:href="#DejaVuSans-30"/>
     <use xlink:href="#DejaVuSans-25" x="63.623047"/>
    </g>
   </g>
   <g id="text_56">
    <!-- CC BY-NC-SA 2.0 -->
    <g style="fill: #262626" transform="translate(671.933804 204.902735)scale(0.1 -0.1)">
     <use xlink:href="#DejaVuSans-43"/>
     <use xlink:href="#DejaVuSans-43" x="69.824219"/>
     <use xlink:href="#DejaVuSans-20" x="139.648438"/>
     <use xlink:href="#DejaVuSans-42" x="171.435547"/>
     <use xlink:href="#DejaVuSans-59" x="234.539062"/>
     <use xlink:href="#DejaVuSans-2d" x="283.748047"/>
     <use xlink:href="#DejaVuSans-4e" x="319.832031"/>
     <use xlink:href="#DejaVuSans-43" x="394.636719"/>
     <use xlink:href="#DejaVuSans-2d" x="464.460938"/>
     <use xlink:href="#DejaVuSans-53" x="500.544922"/>
     <use xlink:href="#DejaVuSans-41" x="565.896484"/>
     <use xlink:href="#DejaVuSans-20" x="634.304688"/>
     <use xlink:href="#DejaVuSans-32" x="666.091797"/>
     <use xlink:href="#DejaVuSans-2e" x="729.714844"/>
     <use xlink:href="#DejaVuSans-30" x="761.501953"/>
    </g>
   </g>
   <g id="text_57">
    <!-- 0% -->
    <g style="fill: #262626" transform="translate(643.703416 215.46939)scale(0.1 -0.1)">
     <use xlink:href="#DejaVuSans-30"/>
     <use xlink:href="#DejaVuSans-25" x="63.623047"/>
    </g>
   </g>
   <g id="text_58">
    <!-- GPL-3.0 -->
    <g style="fill: #262626" transform="translate(671.23879 203.613751)scale(0.1 -0.1)">
     <defs>
      <path id="DejaVuSans-47" d="M 3809 666 
L 3809 1919 
L 2778 1919 
L 2778 2438 
L 4434 2438 
L 4434 434 
Q 4069 175 3628 42 
Q 3188 -91 2688 -91 
Q 1594 -91 976 548 
Q 359 1188 359 2328 
Q 359 3472 976 4111 
Q 1594 4750 2688 4750 
Q 3144 4750 3555 4637 
Q 3966 4525 4313 4306 
L 4313 3634 
Q 3963 3931 3569 4081 
Q 3175 4231 2741 4231 
Q 1884 4231 1454 3753 
Q 1025 3275 1025 2328 
Q 1025 1384 1454 906 
Q 1884 428 2741 428 
Q 3075 428 3337 486 
Q 3600 544 3809 666 
z
" transform="scale(0.015625)"/>
     </defs>
     <use xlink:href="#DejaVuSans-47"/>
     <use xlink:href="#DejaVuSans-50" x="77.490234"/>
     <use xlink:href="#DejaVuSans-4c" x="137.792969"/>
     <use xlink:href="#DejaVuSans-2d" x="191.755859"/>
     <use xlink:href="#DejaVuSans-33" x="227.839844"/>
     <use xlink:href="#DejaVuSans-2e" x="291.462891"/>
     <use xlink:href="#DejaVuSans-30" x="323.25"/>
    </g>
   </g>
   <g id="text_59">
    <!-- 0% -->
    <g style="fill: #262626" transform="translate(643.324318 214.766307)scale(0.1 -0.1)">
     <use xlink:href="#DejaVuSans-30"/>
     <use xlink:href="#DejaVuSans-25" x="63.623047"/>
    </g>
   </g>
   <g id="text_60">
    <!-- License Type -->
    <g style="fill: #262626" transform="translate(588.970232 162.18)scale(0.12 -0.12)">
     <defs>
      <path id="DejaVuSans-54" d="M -19 4666 
L 3928 4666 
L 3928 4134 
L 2272 4134 
L 2272 0 
L 1638 0 
L 1638 4134 
L -19 4134 
L -19 4666 
z
" transform="scale(0.015625)"/>
      <path id="DejaVuSans-79" d="M 2059 -325 
Q 1816 -950 1584 -1140 
Q 1353 -1331 966 -1331 
L 506 -1331 
L 506 -850 
L 844 -850 
Q 1081 -850 1212 -737 
Q 1344 -625 1503 -206 
L 1606 56 
L 191 3500 
L 800 3500 
L 1894 763 
L 2988 3500 
L 3597 3500 
L 2059 -325 
z
" transform="scale(0.015625)"/>
     </defs>
     <use xlink:href="#DejaVuSans-4c"/>
     <use xlink:href="#DejaVuSans-69" x="55.712891"/>
     <use xlink:href="#DejaVuSans-63" x="83.496094"/>
     <use xlink:href="#DejaVuSans-65" x="138.476562"/>
     <use xlink:href="#DejaVuSans-6e" x="200"/>
     <use xlink:href="#DejaVuSans-73" x="263.378906"/>
     <use xlink:href="#DejaVuSans-65" x="315.478516"/>
     <use xlink:href="#DejaVuSans-20" x="377.001953"/>
     <use xlink:href="#DejaVuSans-54" x="408.789062"/>
     <use xlink:href="#DejaVuSans-79" x="454.248047"/>
     <use xlink:href="#DejaVuSans-70" x="513.427734"/>
     <use xlink:href="#DejaVuSans-65" x="576.904297"/>
    </g>
   </g>
  </g>
  <g id="axes_9">
   <g id="matplotlib.axis_17"/>
   <g id="matplotlib.axis_18"/>
   <g id="patch_28">
    <path d="M 135.6968 339.607029 
C 130.789124 331.106686 123.274787 324.406436 114.269723 320.501319 
C 105.26466 316.596201 95.237862 315.689596 85.678385 317.916143 
L 96.060549 362.491029 
L 135.6968 339.607029 
z
" style="fill: #1f77b4; stroke: #ffffff; stroke-linejoin: miter"/>
   </g>
   <g id="patch_29">
    <path d="M 83.857468 322.115114 
C 79.198141 323.200341 74.73765 325.009434 70.638728 327.47639 
C 66.539806 329.943347 62.852913 333.037797 59.71256 336.646844 
C 56.572208 340.255892 54.017055 344.335107 52.140324 348.735666 
C 50.263592 353.136225 49.088385 357.803953 48.657579 362.568556 
C 48.226772 367.333159 48.54567 372.135982 49.602636 376.8018 
C 50.659603 381.467618 52.441627 385.938993 54.883695 390.052792 
C 57.325762 394.166592 60.397808 397.872172 63.987756 401.034342 
C 67.577703 404.196512 71.641356 406.776342 76.030459 408.679711 
C 80.419562 410.583081 85.080081 411.786558 89.841986 412.246235 
C 94.60389 412.705912 99.408557 412.416131 104.080696 411.387464 
C 108.752835 410.358796 113.234928 408.603906 117.363454 406.186818 
C 121.49198 403.76973 125.216112 400.7202 128.399983 397.149485 
C 131.583854 393.578769 134.188266 389.530828 136.118204 385.153342 
C 138.048141 380.775856 139.279844 376.122717 139.768375 371.363686 
C 140.256906 366.604655 139.996252 361.79832 138.995922 357.120032 
C 137.995592 352.441744 136.2679 347.949096 133.87588 343.805996 
L 94.239631 366.69 
L 83.857468 322.115114 
z
" style="fill: #ff7f0e; stroke: #ffffff; stroke-linejoin: miter"/>
   </g>
   <g id="text_61">
    <!-- Yes -->
    <g style="fill: #262626" transform="translate(116.090641 319.061722)scale(0.1 -0.1)">
     <use xlink:href="#DejaVuSans-59"/>
     <use xlink:href="#DejaVuSans-65" x="47.833984"/>
     <use xlink:href="#DejaVuSans-73" x="109.357422"/>
    </g>
   </g>
   <g id="text_62">
    <!-- 20% -->
    <g style="fill: #262626" transform="translate(95.872772 340.056578)scale(0.1 -0.1)">
     <use xlink:href="#DejaVuSans-32"/>
     <use xlink:href="#DejaVuSans-30" x="63.623047"/>
     <use xlink:href="#DejaVuSans-25" x="127.246094"/>
    </g>
   </g>
   <g id="text_63">
    <!-- No -->
    <g style="fill: #262626" transform="translate(60.609541 415.638057)scale(0.1 -0.1)">
     <use xlink:href="#DejaVuSans-4e"/>
     <use xlink:href="#DejaVuSans-6f" x="74.804688"/>
    </g>
   </g>
   <g id="text_64">
    <!-- 80% -->
    <g style="fill: #262626" transform="translate(72.200847 394.643202)scale(0.1 -0.1)">
     <use xlink:href="#DejaVuSans-38"/>
     <use xlink:href="#DejaVuSans-30" x="63.623047"/>
     <use xlink:href="#DejaVuSans-25" x="127.246094"/>
    </g>
   </g>
   <g id="text_65">
    <!-- Version -->
    <g style="fill: #262626" transform="translate(72.175569 303.48)scale(0.12 -0.12)">
     <defs>
      <path id="DejaVuSans-56" d="M 1831 0 
L 50 4666 
L 709 4666 
L 2188 738 
L 3669 4666 
L 4325 4666 
L 2547 0 
L 1831 0 
z
" transform="scale(0.015625)"/>
     </defs>
     <use xlink:href="#DejaVuSans-56"/>
     <use xlink:href="#DejaVuSans-65" x="60.658203"/>
     <use xlink:href="#DejaVuSans-72" x="122.181641"/>
     <use xlink:href="#DejaVuSans-73" x="163.294922"/>
     <use xlink:href="#DejaVuSans-69" x="215.394531"/>
     <use xlink:href="#DejaVuSans-6f" x="243.177734"/>
     <use xlink:href="#DejaVuSans-6e" x="304.359375"/>
    </g>
   </g>
  </g>
  <g id="axes_10">
   <g id="matplotlib.axis_19"/>
   <g id="matplotlib.axis_20"/>
   <g id="patch_30">
    <path d="M 313.354607 339.59779 
C 308.407015 331.028309 300.811256 324.290177 291.712974 320.399685 
C 282.614693 316.509192 272.495524 315.672291 262.881711 318.015207 
L 273.718356 362.48179 
L 313.354607 339.59779 
z
" style="fill: #1f77b4; stroke: #ffffff; stroke-linejoin: miter"/>
   </g>
   <g id="patch_31">
    <path d="M 261.082249 322.223418 
C 256.443758 323.353832 252.010579 325.203107 247.943795 327.704048 
C 243.877011 330.204989 240.226482 333.326932 237.124853 336.956441 
C 234.023224 340.58595 231.508522 344.678524 229.67212 349.085458 
C 227.835718 353.492391 226.700132 358.159654 226.306623 362.917656 
C 225.913115 367.675659 226.266508 372.466066 227.353964 377.114816 
C 228.441419 381.763566 230.249603 386.213663 232.712814 390.30341 
C 235.176026 394.393156 238.264064 398.07241 241.864724 401.207484 
C 245.465384 404.342557 249.534519 406.895013 253.924276 408.772105 
C 258.314032 410.649197 262.970589 411.827912 267.724748 412.265421 
C 272.478906 412.702929 277.272378 412.393867 281.93099 411.349465 
C 286.589601 410.305062 291.056235 408.538124 295.168594 406.112852 
C 299.280953 403.687581 302.988617 400.633712 306.156867 397.062209 
C 309.325116 393.490706 311.915106 389.445358 313.832728 385.073154 
C 315.75035 380.700951 316.972093 376.055497 317.453564 371.30559 
C 317.935035 366.555682 317.670331 361.759556 316.669071 357.091482 
C 315.66781 352.423409 313.942268 347.940619 311.555145 343.806 
L 271.918894 366.69 
L 261.082249 322.223418 
z
" style="fill: #ff7f0e; stroke: #ffffff; stroke-linejoin: miter"/>
   </g>
   <g id="text_66">
    <!-- Yes -->
    <g style="fill: #262626" transform="translate(293.512436 318.950849)scale(0.1 -0.1)">
     <use xlink:href="#DejaVuSans-59"/>
     <use xlink:href="#DejaVuSans-65" x="47.833984"/>
     <use xlink:href="#DejaVuSans-73" x="109.357422"/>
    </g>
   </g>
   <g id="text_67">
    <!-- 20% -->
    <g style="fill: #262626" transform="translate(273.401846 339.991902)scale(0.1 -0.1)">
     <use xlink:href="#DejaVuSans-32"/>
     <use xlink:href="#DejaVuSans-30" x="63.623047"/>
     <use xlink:href="#DejaVuSans-25" x="127.246094"/>
    </g>
   </g>
   <g id="text_68">
    <!-- No -->
    <g style="fill: #262626" transform="translate(238.524814 415.73969)scale(0.1 -0.1)">
     <use xlink:href="#DejaVuSans-4e"/>
     <use xlink:href="#DejaVuSans-6f" x="74.804688"/>
    </g>
   </g>
   <g id="text_69">
    <!-- 80% -->
    <g style="fill: #262626" transform="translate(250.008842 394.698638)scale(0.1 -0.1)">
     <use xlink:href="#DejaVuSans-38"/>
     <use xlink:href="#DejaVuSans-30" x="63.623047"/>
     <use xlink:href="#DejaVuSans-25" x="127.246094"/>
    </g>
   </g>
   <g id="text_70">
    <!-- Contact Email -->
    <g style="fill: #262626" transform="translate(230.022019 303.48)scale(0.12 -0.12)">
     <use xlink:href="#DejaVuSans-43"/>
     <use xlink:href="#DejaVuSans-6f" x="69.824219"/>
     <use xlink:href="#DejaVuSans-6e" x="131.005859"/>
     <use xlink:href="#DejaVuSans-74" x="194.384766"/>
     <use xlink:href="#DejaVuSans-61" x="233.59375"/>
     <use xlink:href="#DejaVuSans-63" x="294.873047"/>
     <use xlink:href="#DejaVuSans-74" x="349.853516"/>
     <use xlink:href="#DejaVuSans-20" x="389.0625"/>
     <use xlink:href="#DejaVuSans-45" x="420.849609"/>
     <use xlink:href="#DejaVuSans-6d" x="484.033203"/>
     <use xlink:href="#DejaVuSans-61" x="581.445312"/>
     <use xlink:href="#DejaVuSans-69" x="642.724609"/>
     <use xlink:href="#DejaVuSans-6c" x="670.507812"/>
    </g>
   </g>
  </g>
  <g id="axes_11">
   <g id="matplotlib.axis_21"/>
   <g id="matplotlib.axis_22"/>
   <g id="patch_32">
    <path d="M 492.750845 340.876535 
C 491.445752 338.616047 489.949671 336.471343 488.278973 334.465889 
C 486.608275 332.460435 484.769077 330.601575 482.781502 328.909646 
L 453.114595 363.760535 
L 492.750845 340.876535 
z
" style="fill: #1f77b4; stroke: #ffffff; stroke-linejoin: miter"/>
   </g>
   <g id="patch_33">
    <path d="M 479.265064 331.839111 
C 474.939035 328.156569 469.964914 325.311495 464.597502 323.449632 
C 459.230091 321.587768 453.562632 320.741459 447.885446 320.954057 
C 442.20826 321.166656 436.61997 322.434468 431.406841 324.692549 
C 426.193713 326.950631 421.446308 330.159754 417.407816 334.15553 
C 413.369324 338.151305 410.109901 342.864319 407.796514 348.053141 
C 405.483128 353.241964 404.155965 358.816457 403.883012 364.491062 
C 403.610058 370.165666 404.396056 375.841804 406.200741 381.22871 
C 408.005425 386.615615 410.797447 391.619708 414.433781 395.98465 
C 418.070115 400.349591 422.487593 403.999553 427.459924 406.747564 
C 432.432255 409.495575 437.873061 411.293897 443.503632 412.050408 
C 449.134203 412.806919 454.856726 412.508478 460.378058 411.170373 
C 465.899391 409.832267 471.123618 407.477743 475.783123 404.227413 
C 480.442629 400.977082 484.456469 396.88741 487.61903 392.167892 
C 490.781592 387.448375 493.037936 382.181 494.272479 376.635592 
C 495.507021 371.090185 495.698317 365.363079 494.836566 359.747652 
C 493.974814 354.132224 492.074987 348.726026 489.234403 343.805993 
L 449.598157 366.69 
L 479.265064 331.839111 
z
" style="fill: #ff7f0e; stroke: #ffffff; stroke-linejoin: miter"/>
   </g>
   <g id="text_71">
    <!-- Yes -->
    <g style="fill: #262626" transform="translate(491.795411 334.295799)scale(0.1 -0.1)">
     <use xlink:href="#DejaVuSans-59"/>
     <use xlink:href="#DejaVuSans-65" x="47.833984"/>
     <use xlink:href="#DejaVuSans-73" x="109.357422"/>
    </g>
   </g>
   <g id="text_72">
    <!-- 5% -->
    <g style="fill: #262626" transform="translate(466.281191 348.943123)scale(0.1 -0.1)">
     <defs>
      <path id="DejaVuSans-35" d="M 691 4666 
L 3169 4666 
L 3169 4134 
L 1269 4134 
L 1269 2991 
Q 1406 3038 1543 3061 
Q 1681 3084 1819 3084 
Q 2600 3084 3056 2656 
Q 3513 2228 3513 1497 
Q 3513 744 3044 326 
Q 2575 -91 1722 -91 
Q 1428 -91 1123 -41 
Q 819 9 494 109 
L 494 744 
Q 775 591 1075 516 
Q 1375 441 1709 441 
Q 2250 441 2565 725 
Q 2881 1009 2881 1497 
Q 2881 1984 2565 2268 
Q 2250 2553 1709 2553 
Q 1456 2553 1204 2497 
Q 953 2441 691 2322 
L 691 4666 
z
" transform="scale(0.015625)"/>
     </defs>
     <use xlink:href="#DejaVuSans-35"/>
     <use xlink:href="#DejaVuSans-25" x="63.623047"/>
    </g>
   </g>
   <g id="text_73">
    <!-- No -->
    <g style="fill: #262626" transform="translate(397.317344 401.67349)scale(0.1 -0.1)">
     <use xlink:href="#DejaVuSans-4e"/>
     <use xlink:href="#DejaVuSans-6f" x="74.804688"/>
    </g>
   </g>
   <g id="text_74">
    <!-- 95% -->
    <g style="fill: #262626" transform="translate(417.38625 387.026165)scale(0.1 -0.1)">
     <use xlink:href="#DejaVuSans-39"/>
     <use xlink:href="#DejaVuSans-35" x="63.623047"/>
     <use xlink:href="#DejaVuSans-25" x="127.246094"/>
    </g>
   </g>
   <g id="text_75">
    <!-- Wikidata Database -->
    <g style="fill: #262626" transform="translate(392.941282 303.48)scale(0.12 -0.12)">
     <defs>
      <path id="DejaVuSans-57" d="M 213 4666 
L 850 4666 
L 1831 722 
L 2809 4666 
L 3519 4666 
L 4500 722 
L 5478 4666 
L 6119 4666 
L 4947 0 
L 4153 0 
L 3169 4050 
L 2175 0 
L 1381 0 
L 213 4666 
z
" transform="scale(0.015625)"/>
      <path id="DejaVuSans-6b" d="M 581 4863 
L 1159 4863 
L 1159 1991 
L 2875 3500 
L 3609 3500 
L 1753 1863 
L 3688 0 
L 2938 0 
L 1159 1709 
L 1159 0 
L 581 0 
L 581 4863 
z
" transform="scale(0.015625)"/>
      <path id="DejaVuSans-62" d="M 3116 1747 
Q 3116 2381 2855 2742 
Q 2594 3103 2138 3103 
Q 1681 3103 1420 2742 
Q 1159 2381 1159 1747 
Q 1159 1113 1420 752 
Q 1681 391 2138 391 
Q 2594 391 2855 752 
Q 3116 1113 3116 1747 
z
M 1159 2969 
Q 1341 3281 1617 3432 
Q 1894 3584 2278 3584 
Q 2916 3584 3314 3078 
Q 3713 2572 3713 1747 
Q 3713 922 3314 415 
Q 2916 -91 2278 -91 
Q 1894 -91 1617 61 
Q 1341 213 1159 525 
L 1159 0 
L 581 0 
L 581 4863 
L 1159 4863 
L 1159 2969 
z
" transform="scale(0.015625)"/>
     </defs>
     <use xlink:href="#DejaVuSans-57"/>
     <use xlink:href="#DejaVuSans-69" x="96.626953"/>
     <use xlink:href="#DejaVuSans-6b" x="124.410156"/>
     <use xlink:href="#DejaVuSans-69" x="182.320312"/>
     <use xlink:href="#DejaVuSans-64" x="210.103516"/>
     <use xlink:href="#DejaVuSans-61" x="273.580078"/>
     <use xlink:href="#DejaVuSans-74" x="334.859375"/>
     <use xlink:href="#DejaVuSans-61" x="374.068359"/>
     <use xlink:href="#DejaVuSans-20" x="435.347656"/>
     <use xlink:href="#DejaVuSans-44" x="467.134766"/>
     <use xlink:href="#DejaVuSans-61" x="544.136719"/>
     <use xlink:href="#DejaVuSans-74" x="605.416016"/>
     <use xlink:href="#DejaVuSans-61" x="644.625"/>
     <use xlink:href="#DejaVuSans-62" x="705.904297"/>
     <use xlink:href="#DejaVuSans-61" x="769.380859"/>
     <use xlink:href="#DejaVuSans-73" x="830.660156"/>
     <use xlink:href="#DejaVuSans-65" x="882.759766"/>
    </g>
   </g>
  </g>
  <g id="axes_12">
   <g id="matplotlib.axis_23"/>
   <g id="matplotlib.axis_24"/>
   <g id="patch_34">
    <path d="M 670.054304 340.476808 
C 667.831142 336.626178 665.05867 333.119986 661.824387 330.068886 
C 658.590104 327.017787 654.928396 324.454218 650.954827 322.459087 
L 630.418053 363.360808 
L 670.054304 340.476808 
z
" style="fill: #1f77b4; stroke: #ffffff; stroke-linejoin: miter"/>
   </g>
   <g id="patch_35">
    <path d="M 647.814194 325.78828 
C 642.943179 323.342541 637.674205 321.786491 632.256006 321.193588 
C 626.837807 320.600685 621.357005 320.980407 616.072335 322.314828 
C 610.787664 323.649249 605.783614 325.917036 601.296412 329.011133 
C 596.809209 332.105229 592.910593 335.976168 589.784607 340.441213 
C 586.65862 344.906259 584.35524 349.894025 582.983203 355.169055 
C 581.611166 360.444084 581.192406 365.922041 581.746693 371.344327 
C 582.30098 376.766613 583.819452 382.046539 586.230426 386.934854 
C 588.6414 391.823169 591.90633 396.241722 595.871088 399.981924 
C 599.835847 403.722126 604.437047 406.724181 609.457478 408.84637 
C 614.47791 410.968559 619.837309 412.176954 625.282673 412.41451 
C 630.728036 412.652066 636.172308 411.914984 641.358477 410.238062 
C 646.544645 408.561139 651.389799 405.971184 655.66521 402.590462 
C 659.940621 399.209741 663.577937 395.092301 666.40545 390.432516 
C 669.232963 385.772732 671.205468 380.645101 672.229848 375.291685 
C 673.254229 369.938269 673.314108 364.444655 672.406659 359.070183 
C 671.499209 353.69571 669.638939 348.526303 666.913667 343.805994 
L 627.27742 366.69 
L 647.814194 325.78828 
z
" style="fill: #ff7f0e; stroke: #ffffff; stroke-linejoin: miter"/>
   </g>
   <g id="text_76">
    <!-- Yes -->
    <g style="fill: #262626" transform="translate(664.96502 329.499069)scale(0.1 -0.1)">
     <use xlink:href="#DejaVuSans-59"/>
     <use xlink:href="#DejaVuSans-65" x="47.833984"/>
     <use xlink:href="#DejaVuSans-73" x="109.357422"/>
    </g>
   </g>
   <g id="text_77">
    <!-- 9% -->
    <g style="fill: #262626" transform="translate(641.329822 346.14503)scale(0.1 -0.1)">
     <use xlink:href="#DejaVuSans-39"/>
     <use xlink:href="#DejaVuSans-25" x="63.623047"/>
    </g>
   </g>
   <g id="text_78">
    <!-- No -->
    <g style="fill: #262626" transform="translate(579.130455 406.070491)scale(0.1 -0.1)">
     <use xlink:href="#DejaVuSans-4e"/>
     <use xlink:href="#DejaVuSans-6f" x="74.804688"/>
    </g>
   </g>
   <g id="text_79">
    <!-- 91% -->
    <g style="fill: #262626" transform="translate(597.32034 389.424529)scale(0.1 -0.1)">
     <use xlink:href="#DejaVuSans-39"/>
     <use xlink:href="#DejaVuSans-31" x="63.623047"/>
     <use xlink:href="#DejaVuSans-25" x="127.246094"/>
    </g>
   </g>
   <g id="text_80">
    <!-- OBO -->
    <g style="fill: #262626" transform="translate(613.819607 303.48)scale(0.12 -0.12)">
     <defs>
      <path id="DejaVuSans-4f" d="M 2522 4238 
Q 1834 4238 1429 3725 
Q 1025 3213 1025 2328 
Q 1025 1447 1429 934 
Q 1834 422 2522 422 
Q 3209 422 3611 934 
Q 4013 1447 4013 2328 
Q 4013 3213 3611 3725 
Q 3209 4238 2522 4238 
z
M 2522 4750 
Q 3503 4750 4090 4092 
Q 4678 3434 4678 2328 
Q 4678 1225 4090 567 
Q 3503 -91 2522 -91 
Q 1538 -91 948 565 
Q 359 1222 359 2328 
Q 359 3434 948 4092 
Q 1538 4750 2522 4750 
z
" transform="scale(0.015625)"/>
     </defs>
     <use xlink:href="#DejaVuSans-4f"/>
     <use xlink:href="#DejaVuSans-42" x="78.710938"/>
     <use xlink:href="#DejaVuSans-4f" x="145.564453"/>
    </g>
   </g>
  </g>
  <g id="axes_13">
   <g id="matplotlib.axis_25"/>
   <g id="matplotlib.axis_26"/>
   <g id="patch_36">
    <path d="M 135.578221 480.857572 
C 130.450811 471.976637 122.484427 465.071568 112.96536 461.257292 
C 103.446293 457.443016 92.916018 456.9365 83.074804 459.819529 
L 95.94197 503.741572 
L 135.578221 480.857572 
z
" style="fill: #1f77b4; stroke: #ffffff; stroke-linejoin: miter"/>
   </g>
   <g id="patch_37">
    <path d="M 81.372465 464.067957 
C 76.833065 465.397795 72.527141 467.423361 68.608306 470.072392 
C 64.689472 472.721423 61.20489 475.962039 58.278873 479.67863 
C 55.352856 483.395222 53.020617 487.54306 51.365361 491.974172 
C 49.710104 496.405284 48.751749 501.066342 48.524486 505.791062 
C 48.297223 510.515782 48.803786 515.247303 50.026105 519.816829 
C 51.248423 524.386355 53.171786 528.738891 55.727577 532.719163 
C 58.283368 536.699434 61.44083 540.259538 65.087319 543.272467 
C 68.733808 546.285397 72.82544 548.714892 77.216246 550.474281 
C 81.607052 552.233671 86.244189 553.301779 90.962229 553.640503 
C 95.680268 553.979227 100.422428 553.58449 105.019533 552.470373 
C 109.616637 551.356256 114.013361 549.536168 118.052851 547.07504 
C 122.092341 544.613913 125.725983 541.541365 128.824146 537.96701 
C 131.922309 534.392656 134.447708 530.35951 136.31025 526.011457 
C 138.172791 521.663404 139.350059 517.05277 139.800054 512.344041 
C 140.25005 507.635311 139.967358 502.885155 138.962064 498.263033 
C 137.956769 493.640911 136.24097 489.20245 133.875878 485.105993 
L 94.239631 507.99 
L 81.372465 464.067957 
z
" style="fill: #ff7f0e; stroke: #ffffff; stroke-linejoin: miter"/>
   </g>
   <g id="text_81">
    <!-- Yes -->
    <g style="fill: #262626" transform="translate(114.667699 459.768239)scale(0.1 -0.1)">
     <use xlink:href="#DejaVuSans-59"/>
     <use xlink:href="#DejaVuSans-65" x="47.833984"/>
     <use xlink:href="#DejaVuSans-73" x="109.357422"/>
    </g>
   </g>
   <g id="text_82">
    <!-- 21% -->
    <g style="fill: #262626" transform="translate(95.042723 481.010379)scale(0.1 -0.1)">
     <use xlink:href="#DejaVuSans-32"/>
     <use xlink:href="#DejaVuSans-31" x="63.623047"/>
     <use xlink:href="#DejaVuSans-25" x="127.246094"/>
    </g>
   </g>
   <g id="text_83">
    <!-- No -->
    <g style="fill: #262626" transform="translate(61.913907 557.482085)scale(0.1 -0.1)">
     <use xlink:href="#DejaVuSans-4e"/>
     <use xlink:href="#DejaVuSans-6f" x="74.804688"/>
    </g>
   </g>
   <g id="text_84">
    <!-- 79% -->
    <g style="fill: #262626" transform="translate(72.912319 536.239944)scale(0.1 -0.1)">
     <use xlink:href="#DejaVuSans-37"/>
     <use xlink:href="#DejaVuSans-39" x="63.623047"/>
     <use xlink:href="#DejaVuSans-25" x="127.246094"/>
    </g>
   </g>
   <g id="text_85">
    <!-- OWL -->
    <g style="fill: #262626" transform="translate(80.240881 444.78)scale(0.12 -0.12)">
     <use xlink:href="#DejaVuSans-4f"/>
     <use xlink:href="#DejaVuSans-57" x="78.710938"/>
     <use xlink:href="#DejaVuSans-4c" x="177.587891"/>
    </g>
   </g>
  </g>
  <g id="axes_14">
   <g id="matplotlib.axis_27"/>
   <g id="matplotlib.axis_28"/>
   <g id="patch_38">
    <path d="M 315.403192 482.628172 
C 315.033298 481.987497 314.647924 481.355884 314.247411 480.73389 
C 313.846898 480.111897 313.431363 479.499706 313.001173 478.897856 
L 275.766941 505.512172 
L 315.403192 482.628172 
z
" style="fill: #1f77b4; stroke: #ffffff; stroke-linejoin: miter"/>
   </g>
   <g id="patch_39">
    <path d="M 309.153126 481.375684 
C 305.712445 476.562067 301.370734 472.461024 296.368934 469.300139 
C 291.367135 466.139254 285.799513 463.978099 279.975039 462.936606 
C 274.150566 461.895112 268.179013 461.99291 262.391768 463.22457 
C 256.604523 464.456231 251.110655 466.798542 246.215043 470.121519 
C 241.31943 473.444496 237.114339 477.685512 233.833128 482.609215 
C 230.551917 487.532918 228.256425 493.046512 227.07404 498.844026 
C 225.891654 504.641539 225.844659 510.613708 226.935661 516.42911 
C 228.026664 522.244513 230.235103 527.793549 233.438423 532.76828 
C 236.641742 537.74301 240.779571 542.049677 245.622283 545.449285 
C 250.464995 548.848894 255.921321 551.277373 261.688467 552.599956 
C 267.455612 553.922539 273.424886 554.1143 279.265029 553.164596 
C 285.105171 552.214893 290.706114 550.141624 295.757038 547.059844 
C 300.807961 543.978065 305.213673 539.945856 308.729681 535.186981 
C 312.245689 530.428107 314.805728 525.032256 316.267731 519.298868 
C 317.729734 513.565479 318.066147 507.602608 317.258301 501.741159 
C 316.450455 495.879711 314.513575 490.230153 311.555147 485.106004 
L 271.918894 507.99 
L 309.153126 481.375684 
z
" style="fill: #ff7f0e; stroke: #ffffff; stroke-linejoin: miter"/>
   </g>
   <g id="text_86">
    <!-- Yes -->
    <g style="fill: #262626" transform="translate(318.095458 481.015437)scale(0.1 -0.1)">
     <use xlink:href="#DejaVuSans-59"/>
     <use xlink:href="#DejaVuSans-65" x="47.833984"/>
     <use xlink:href="#DejaVuSans-73" x="109.357422"/>
    </g>
   </g>
   <g id="text_87">
    <!-- 2% -->
    <g style="fill: #262626" transform="translate(290.923192 493.404578)scale(0.1 -0.1)">
     <use xlink:href="#DejaVuSans-32"/>
     <use xlink:href="#DejaVuSans-25" x="63.623047"/>
    </g>
   </g>
   <g id="text_88">
    <!-- No -->
    <g style="fill: #262626" transform="translate(215.990376 538.005482)scale(0.1 -0.1)">
     <use xlink:href="#DejaVuSans-4e"/>
     <use xlink:href="#DejaVuSans-6f" x="74.804688"/>
    </g>
   </g>
   <g id="text_89">
    <!-- 98% -->
    <g style="fill: #262626" transform="translate(237.71733 525.616343)scale(0.1 -0.1)">
     <use xlink:href="#DejaVuSans-39"/>
     <use xlink:href="#DejaVuSans-38" x="63.623047"/>
     <use xlink:href="#DejaVuSans-25" x="127.246094"/>
    </g>
   </g>
   <g id="text_90">
    <!-- JSON -->
    <g style="fill: #262626" transform="translate(257.127957 444.78)scale(0.12 -0.12)">
     <defs>
      <path id="DejaVuSans-4a" d="M 628 4666 
L 1259 4666 
L 1259 325 
Q 1259 -519 939 -900 
Q 619 -1281 -91 -1281 
L -331 -1281 
L -331 -750 
L -134 -750 
Q 284 -750 456 -515 
Q 628 -281 628 325 
L 628 4666 
z
" transform="scale(0.015625)"/>
     </defs>
     <use xlink:href="#DejaVuSans-4a"/>
     <use xlink:href="#DejaVuSans-53" x="29.492188"/>
     <use xlink:href="#DejaVuSans-4f" x="92.96875"/>
     <use xlink:href="#DejaVuSans-4e" x="171.679688"/>
    </g>
   </g>
  </g>
  <g id="axes_15"/>
  <g id="axes_16"/>
  <g id="text_91">
   <!-- https://github.com/biopragmatics/bioregistry (2021-11-23) -->
   <g style="fill: #808080; opacity: 0.5" transform="translate(278.67625 574.33625)scale(0.08 -0.08)">
    <defs>
     <path id="DejaVuSans-3a" d="M 750 794 
L 1409 794 
L 1409 0 
L 750 0 
L 750 794 
z
M 750 3309 
L 1409 3309 
L 1409 2516 
L 750 2516 
L 750 3309 
z
" transform="scale(0.015625)"/>
     <path id="DejaVuSans-2f" d="M 1625 4666 
L 2156 4666 
L 531 -594 
L 0 -594 
L 1625 4666 
z
" transform="scale(0.015625)"/>
     <path id="DejaVuSans-75" d="M 544 1381 
L 544 3500 
L 1119 3500 
L 1119 1403 
Q 1119 906 1312 657 
Q 1506 409 1894 409 
Q 2359 409 2629 706 
Q 2900 1003 2900 1516 
L 2900 3500 
L 3475 3500 
L 3475 0 
L 2900 0 
L 2900 538 
Q 2691 219 2414 64 
Q 2138 -91 1772 -91 
Q 1169 -91 856 284 
Q 544 659 544 1381 
z
M 1991 3584 
L 1991 3584 
z
" transform="scale(0.015625)"/>
     <path id="DejaVuSans-28" d="M 1984 4856 
Q 1566 4138 1362 3434 
Q 1159 2731 1159 2009 
Q 1159 1288 1364 580 
Q 1569 -128 1984 -844 
L 1484 -844 
Q 1016 -109 783 600 
Q 550 1309 550 2009 
Q 550 2706 781 3412 
Q 1013 4119 1484 4856 
L 1984 4856 
z
" transform="scale(0.015625)"/>
     <path id="DejaVuSans-29" d="M 513 4856 
L 1013 4856 
Q 1481 4119 1714 3412 
Q 1947 2706 1947 2009 
Q 1947 1309 1714 600 
Q 1481 -109 1013 -844 
L 513 -844 
Q 928 -128 1133 580 
Q 1338 1288 1338 2009 
Q 1338 2731 1133 3434 
Q 928 4138 513 4856 
z
" transform="scale(0.015625)"/>
    </defs>
    <use xlink:href="#DejaVuSans-68"/>
    <use xlink:href="#DejaVuSans-74" x="63.378906"/>
    <use xlink:href="#DejaVuSans-74" x="102.587891"/>
    <use xlink:href="#DejaVuSans-70" x="141.796875"/>
    <use xlink:href="#DejaVuSans-73" x="205.273438"/>
    <use xlink:href="#DejaVuSans-3a" x="257.373047"/>
    <use xlink:href="#DejaVuSans-2f" x="291.064453"/>
    <use xlink:href="#DejaVuSans-2f" x="324.755859"/>
    <use xlink:href="#DejaVuSans-67" x="358.447266"/>
    <use xlink:href="#DejaVuSans-69" x="421.923828"/>
    <use xlink:href="#DejaVuSans-74" x="449.707031"/>
    <use xlink:href="#DejaVuSans-68" x="488.916016"/>
    <use xlink:href="#DejaVuSans-75" x="552.294922"/>
    <use xlink:href="#DejaVuSans-62" x="615.673828"/>
    <use xlink:href="#DejaVuSans-2e" x="679.150391"/>
    <use xlink:href="#DejaVuSans-63" x="710.9375"/>
    <use xlink:href="#DejaVuSans-6f" x="765.917969"/>
    <use xlink:href="#DejaVuSans-6d" x="827.099609"/>
    <use xlink:href="#DejaVuSans-2f" x="924.511719"/>
    <use xlink:href="#DejaVuSans-62" x="958.203125"/>
    <use xlink:href="#DejaVuSans-69" x="1021.679688"/>
    <use xlink:href="#DejaVuSans-6f" x="1049.462891"/>
    <use xlink:href="#DejaVuSans-70" x="1110.644531"/>
    <use xlink:href="#DejaVuSans-72" x="1174.121094"/>
    <use xlink:href="#DejaVuSans-61" x="1215.234375"/>
    <use xlink:href="#DejaVuSans-67" x="1276.513672"/>
    <use xlink:href="#DejaVuSans-6d" x="1339.990234"/>
    <use xlink:href="#DejaVuSans-61" x="1437.402344"/>
    <use xlink:href="#DejaVuSans-74" x="1498.681641"/>
    <use xlink:href="#DejaVuSans-69" x="1537.890625"/>
    <use xlink:href="#DejaVuSans-63" x="1565.673828"/>
    <use xlink:href="#DejaVuSans-73" x="1620.654297"/>
    <use xlink:href="#DejaVuSans-2f" x="1672.753906"/>
    <use xlink:href="#DejaVuSans-62" x="1706.445312"/>
    <use xlink:href="#DejaVuSans-69" x="1769.921875"/>
    <use xlink:href="#DejaVuSans-6f" x="1797.705078"/>
    <use xlink:href="#DejaVuSans-72" x="1858.886719"/>
    <use xlink:href="#DejaVuSans-65" x="1897.75"/>
    <use xlink:href="#DejaVuSans-67" x="1959.273438"/>
    <use xlink:href="#DejaVuSans-69" x="2022.75"/>
    <use xlink:href="#DejaVuSans-73" x="2050.533203"/>
    <use xlink:href="#DejaVuSans-74" x="2102.632812"/>
    <use xlink:href="#DejaVuSans-72" x="2141.841797"/>
    <use xlink:href="#DejaVuSans-79" x="2182.955078"/>
    <use xlink:href="#DejaVuSans-20" x="2242.134766"/>
    <use xlink:href="#DejaVuSans-28" x="2273.921875"/>
    <use xlink:href="#DejaVuSans-32" x="2312.935547"/>
    <use xlink:href="#DejaVuSans-30" x="2376.558594"/>
    <use xlink:href="#DejaVuSans-32" x="2440.181641"/>
    <use xlink:href="#DejaVuSans-31" x="2503.804688"/>
    <use xlink:href="#DejaVuSans-2d" x="2567.427734"/>
    <use xlink:href="#DejaVuSans-31" x="2603.511719"/>
    <use xlink:href="#DejaVuSans-31" x="2667.134766"/>
    <use xlink:href="#DejaVuSans-2d" x="2730.757812"/>
    <use xlink:href="#DejaVuSans-32" x="2766.841797"/>
    <use xlink:href="#DejaVuSans-33" x="2830.464844"/>
    <use xlink:href="#DejaVuSans-29" x="2894.087891"/>
   </g>
  </g>
 </g>
</svg>
