<?xml version="1.0" encoding="utf-8" standalone="no"?>
<!DOCTYPE svg PUBLIC "-//W3C//DTD SVG 1.1//EN"
  "http://www.w3.org/Graphics/SVG/1.1/DTD/svg11.dtd">
<svg height="576pt" version="1.1" viewBox="0 0 792 576" width="792pt" xmlns="http://www.w3.org/2000/svg" xmlns:xlink="http://www.w3.org/1999/xlink">
 <metadata>
  <rdf:RDF xmlns:cc="http://creativecommons.org/ns#" xmlns:dc="http://purl.org/dc/elements/1.1/" xmlns:rdf="http://www.w3.org/1999/02/22-rdf-syntax-ns#">
   <cc:Work>
    <dc:type rdf:resource="http://purl.org/dc/dcmitype/StillImage"/>
    <dc:date>2021-07-07T00:49:01.822843</dc:date>
    <dc:format>image/svg+xml</dc:format>
    <dc:creator>
     <cc:Agent>
      <dc:title>Matplotlib v3.4.2, https://matplotlib.org/</dc:title>
     </cc:Agent>
    </dc:creator>
   </cc:Work>
  </rdf:RDF>
 </metadata>
 <defs>
  <style type="text/css">*{stroke-linecap:butt;stroke-linejoin:round;}</style>
 </defs>
 <g id="figure_1">
  <g id="patch_1">
   <path d="M 0 576 
L 792 576 
L 792 0 
L 0 0 
z
" style="fill:#ffffff;"/>
  </g>
  <g id="axes_1">
   <g id="matplotlib.axis_1"/>
   <g id="matplotlib.axis_2"/>
   <g id="patch_2">
    <path d="M 141.931515 86.3784 
C 141.931515 80.368201 140.747637 74.416444 138.447634 68.863745 
C 136.14763 63.311045 132.776231 58.265389 128.526378 54.015537 
C 124.276526 49.765685 119.23087 46.394285 113.678171 44.094282 
C 108.125471 41.794278 102.173714 40.6104 96.163515 40.6104 
C 90.153317 40.6104 84.20156 41.794278 78.64886 44.094282 
C 73.09616 46.394285 68.050504 49.765685 63.800652 54.015537 
C 59.5508 58.265389 56.1794 63.311045 53.879397 68.863745 
C 51.579393 74.416444 50.395515 80.368201 50.395515 86.3784 
C 50.395515 92.388599 51.579393 98.340356 53.879397 103.893055 
C 56.1794 109.445755 59.5508 114.491411 63.800652 118.741263 
C 68.050504 122.991115 73.09616 126.362515 78.64886 128.662518 
C 84.20156 130.962522 90.153317 132.1464 96.163515 132.1464 
C 102.173714 132.1464 108.125471 130.962522 113.678171 128.662518 
C 119.23087 126.362515 124.276526 122.991115 128.526378 118.741263 
C 132.776231 114.491411 136.14763 109.445755 138.447634 103.893055 
C 140.747637 98.340356 141.931515 92.388599 141.931515 86.3784 
M 96.163515 86.3784 
M 141.931515 86.3784 
z
" style="fill:#1f77b4;stroke:#ffffff;stroke-linejoin:miter;"/>
   </g>
   <g id="patch_3">
    <path d="M 139.763391 61.206 
C 139.763391 61.206 139.763391 61.206 139.763391 61.206 
L 100.12714 84.09 
L 139.763391 61.206 
z
" style="fill:#ff7f0e;stroke:#ffffff;stroke-linejoin:miter;"/>
   </g>
   <g id="text_1">
    <!-- Yes -->
    <g style="fill:#262626;" transform="translate(36.418327 114.310175)scale(0.1 -0.1)">
     <defs>
      <path d="M -13 4666 
L 666 4666 
L 1959 2747 
L 3244 4666 
L 3922 4666 
L 2272 2222 
L 2272 0 
L 1638 0 
L 1638 2222 
L -13 4666 
z
" id="DejaVuSans-59" transform="scale(0.015625)"/>
      <path d="M 3597 1894 
L 3597 1613 
L 953 1613 
Q 991 1019 1311 708 
Q 1631 397 2203 397 
Q 2534 397 2845 478 
Q 3156 559 3463 722 
L 3463 178 
Q 3153 47 2828 -22 
Q 2503 -91 2169 -91 
Q 1331 -91 842 396 
Q 353 884 353 1716 
Q 353 2575 817 3079 
Q 1281 3584 2069 3584 
Q 2775 3584 3186 3129 
Q 3597 2675 3597 1894 
z
M 3022 2063 
Q 3016 2534 2758 2815 
Q 2500 3097 2075 3097 
Q 1594 3097 1305 2825 
Q 1016 2553 972 2059 
L 3022 2063 
z
" id="DejaVuSans-65" transform="scale(0.015625)"/>
      <path d="M 2834 3397 
L 2834 2853 
Q 2591 2978 2328 3040 
Q 2066 3103 1784 3103 
Q 1356 3103 1142 2972 
Q 928 2841 928 2578 
Q 928 2378 1081 2264 
Q 1234 2150 1697 2047 
L 1894 2003 
Q 2506 1872 2764 1633 
Q 3022 1394 3022 966 
Q 3022 478 2636 193 
Q 2250 -91 1575 -91 
Q 1294 -91 989 -36 
Q 684 19 347 128 
L 347 722 
Q 666 556 975 473 
Q 1284 391 1588 391 
Q 1994 391 2212 530 
Q 2431 669 2431 922 
Q 2431 1156 2273 1281 
Q 2116 1406 1581 1522 
L 1381 1569 
Q 847 1681 609 1914 
Q 372 2147 372 2553 
Q 372 3047 722 3315 
Q 1072 3584 1716 3584 
Q 2034 3584 2315 3537 
Q 2597 3491 2834 3397 
z
" id="DejaVuSans-73" transform="scale(0.015625)"/>
     </defs>
     <use xlink:href="#DejaVuSans-59"/>
     <use x="47.833984" xlink:href="#DejaVuSans-65"/>
     <use x="109.357422" xlink:href="#DejaVuSans-73"/>
    </g>
   </g>
   <g id="text_2">
    <!-- 100% -->
    <g style="fill:#262626;" transform="translate(58.087234 102.868175)scale(0.1 -0.1)">
     <defs>
      <path d="M 794 531 
L 1825 531 
L 1825 4091 
L 703 3866 
L 703 4441 
L 1819 4666 
L 2450 4666 
L 2450 531 
L 3481 531 
L 3481 0 
L 794 0 
L 794 531 
z
" id="DejaVuSans-31" transform="scale(0.015625)"/>
      <path d="M 2034 4250 
Q 1547 4250 1301 3770 
Q 1056 3291 1056 2328 
Q 1056 1369 1301 889 
Q 1547 409 2034 409 
Q 2525 409 2770 889 
Q 3016 1369 3016 2328 
Q 3016 3291 2770 3770 
Q 2525 4250 2034 4250 
z
M 2034 4750 
Q 2819 4750 3233 4129 
Q 3647 3509 3647 2328 
Q 3647 1150 3233 529 
Q 2819 -91 2034 -91 
Q 1250 -91 836 529 
Q 422 1150 422 2328 
Q 422 3509 836 4129 
Q 1250 4750 2034 4750 
z
" id="DejaVuSans-30" transform="scale(0.015625)"/>
      <path d="M 4653 2053 
Q 4381 2053 4226 1822 
Q 4072 1591 4072 1178 
Q 4072 772 4226 539 
Q 4381 306 4653 306 
Q 4919 306 5073 539 
Q 5228 772 5228 1178 
Q 5228 1588 5073 1820 
Q 4919 2053 4653 2053 
z
M 4653 2450 
Q 5147 2450 5437 2106 
Q 5728 1763 5728 1178 
Q 5728 594 5436 251 
Q 5144 -91 4653 -91 
Q 4153 -91 3862 251 
Q 3572 594 3572 1178 
Q 3572 1766 3864 2108 
Q 4156 2450 4653 2450 
z
M 1428 4353 
Q 1159 4353 1004 4120 
Q 850 3888 850 3481 
Q 850 3069 1003 2837 
Q 1156 2606 1428 2606 
Q 1700 2606 1854 2837 
Q 2009 3069 2009 3481 
Q 2009 3884 1853 4118 
Q 1697 4353 1428 4353 
z
M 4250 4750 
L 4750 4750 
L 1831 -91 
L 1331 -91 
L 4250 4750 
z
M 1428 4750 
Q 1922 4750 2215 4408 
Q 2509 4066 2509 3481 
Q 2509 2891 2217 2550 
Q 1925 2209 1428 2209 
Q 931 2209 642 2551 
Q 353 2894 353 3481 
Q 353 4063 643 4406 
Q 934 4750 1428 4750 
z
" id="DejaVuSans-25" transform="scale(0.015625)"/>
     </defs>
     <use xlink:href="#DejaVuSans-31"/>
     <use x="63.623047" xlink:href="#DejaVuSans-30"/>
     <use x="127.246094" xlink:href="#DejaVuSans-30"/>
     <use x="190.869141" xlink:href="#DejaVuSans-25"/>
    </g>
   </g>
   <g id="text_3">
    <!-- No -->
    <g style="fill:#262626;" transform="translate(143.727016 61.676975)scale(0.1 -0.1)">
     <defs>
      <path d="M 628 4666 
L 1478 4666 
L 3547 763 
L 3547 4666 
L 4159 4666 
L 4159 0 
L 3309 0 
L 1241 3903 
L 1241 0 
L 628 0 
L 628 4666 
z
" id="DejaVuSans-4e" transform="scale(0.015625)"/>
      <path d="M 1959 3097 
Q 1497 3097 1228 2736 
Q 959 2375 959 1747 
Q 959 1119 1226 758 
Q 1494 397 1959 397 
Q 2419 397 2687 759 
Q 2956 1122 2956 1747 
Q 2956 2369 2687 2733 
Q 2419 3097 1959 3097 
z
M 1959 3584 
Q 2709 3584 3137 3096 
Q 3566 2609 3566 1747 
Q 3566 888 3137 398 
Q 2709 -91 1959 -91 
Q 1206 -91 779 398 
Q 353 888 353 1747 
Q 353 2609 779 3096 
Q 1206 3584 1959 3584 
z
" id="DejaVuSans-6f" transform="scale(0.015625)"/>
     </defs>
     <use xlink:href="#DejaVuSans-4e"/>
     <use x="74.804688" xlink:href="#DejaVuSans-6f"/>
    </g>
   </g>
   <g id="text_4">
    <!-- 0% -->
    <g style="fill:#262626;" transform="translate(115.97686 73.118975)scale(0.1 -0.1)">
     <use xlink:href="#DejaVuSans-30"/>
     <use x="63.623047" xlink:href="#DejaVuSans-25"/>
    </g>
   </g>
   <g id="text_5">
    <!-- Name -->
    <g style="fill:#262626;" transform="translate(82.425265 20.88)scale(0.12 -0.12)">
     <defs>
      <path d="M 2194 1759 
Q 1497 1759 1228 1600 
Q 959 1441 959 1056 
Q 959 750 1161 570 
Q 1363 391 1709 391 
Q 2188 391 2477 730 
Q 2766 1069 2766 1631 
L 2766 1759 
L 2194 1759 
z
M 3341 1997 
L 3341 0 
L 2766 0 
L 2766 531 
Q 2569 213 2275 61 
Q 1981 -91 1556 -91 
Q 1019 -91 701 211 
Q 384 513 384 1019 
Q 384 1609 779 1909 
Q 1175 2209 1959 2209 
L 2766 2209 
L 2766 2266 
Q 2766 2663 2505 2880 
Q 2244 3097 1772 3097 
Q 1472 3097 1187 3025 
Q 903 2953 641 2809 
L 641 3341 
Q 956 3463 1253 3523 
Q 1550 3584 1831 3584 
Q 2591 3584 2966 3190 
Q 3341 2797 3341 1997 
z
" id="DejaVuSans-61" transform="scale(0.015625)"/>
      <path d="M 3328 2828 
Q 3544 3216 3844 3400 
Q 4144 3584 4550 3584 
Q 5097 3584 5394 3201 
Q 5691 2819 5691 2113 
L 5691 0 
L 5113 0 
L 5113 2094 
Q 5113 2597 4934 2840 
Q 4756 3084 4391 3084 
Q 3944 3084 3684 2787 
Q 3425 2491 3425 1978 
L 3425 0 
L 2847 0 
L 2847 2094 
Q 2847 2600 2669 2842 
Q 2491 3084 2119 3084 
Q 1678 3084 1418 2786 
Q 1159 2488 1159 1978 
L 1159 0 
L 581 0 
L 581 3500 
L 1159 3500 
L 1159 2956 
Q 1356 3278 1631 3431 
Q 1906 3584 2284 3584 
Q 2666 3584 2933 3390 
Q 3200 3197 3328 2828 
z
" id="DejaVuSans-6d" transform="scale(0.015625)"/>
     </defs>
     <use xlink:href="#DejaVuSans-4e"/>
     <use x="74.804688" xlink:href="#DejaVuSans-61"/>
     <use x="136.083984" xlink:href="#DejaVuSans-6d"/>
     <use x="233.496094" xlink:href="#DejaVuSans-65"/>
    </g>
   </g>
  </g>
  <g id="axes_2">
   <g id="matplotlib.axis_3"/>
   <g id="matplotlib.axis_4"/>
   <g id="patch_4">
    <path d="M 324.670063 61.722095 
C 322.059751 57.200902 318.695 53.159486 314.721697 49.773075 
C 310.748395 46.386663 306.224809 43.704917 301.347072 41.84411 
C 296.469336 39.983304 291.308979 38.970725 286.089745 38.850278 
C 280.870511 38.729831 275.668937 39.503281 270.710553 41.137094 
C 265.752169 42.770907 261.109689 45.241123 256.984399 48.440639 
C 252.85911 51.640155 249.311507 55.52205 246.495409 59.918015 
C 243.679311 64.31398 241.636014 69.159548 240.454111 74.244626 
C 239.272208 79.329704 238.969032 84.579721 239.557727 89.767048 
C 240.146421 94.954374 241.618355 100.002939 243.909707 104.693847 
C 246.201059 109.384755 249.278228 113.649216 253.007793 117.302332 
C 256.737359 120.955448 261.064628 123.943647 265.801981 126.137366 
C 270.539333 128.331086 275.617297 129.698156 280.815702 130.179304 
C 286.014106 130.660452 291.256719 130.248621 296.316232 128.961668 
C 301.375744 127.674715 306.17796 125.531512 310.514665 122.624985 
C 314.851371 119.718457 318.658969 116.091228 321.772371 111.900567 
C 324.885772 107.709905 327.259321 103.017266 328.790103 98.026112 
L 285.033812 84.606095 
L 324.670063 61.722095 
z
" style="fill:#1f77b4;stroke:#ffffff;stroke-linejoin:miter;"/>
   </g>
   <g id="patch_5">
    <path d="M 333.337712 97.510016 
C 335.18087 91.500356 335.766332 85.174912 335.057507 78.929048 
C 334.348682 72.683184 332.36065 66.649798 329.217672 61.206 
L 289.581421 84.09 
L 333.337712 97.510016 
z
" style="fill:#ff7f0e;stroke:#ffffff;stroke-linejoin:miter;"/>
   </g>
   <g id="text_6">
    <!-- Yes -->
    <g style="fill:#262626;" transform="translate(218.864805 93.042518)scale(0.1 -0.1)">
     <use xlink:href="#DejaVuSans-59"/>
     <use x="47.833984" xlink:href="#DejaVuSans-65"/>
     <use x="109.357422" xlink:href="#DejaVuSans-73"/>
    </g>
   </g>
   <g id="text_7">
    <!-- 87% -->
    <g style="fill:#262626;" transform="translate(246.63488 90.462042)scale(0.1 -0.1)">
     <defs>
      <path d="M 2034 2216 
Q 1584 2216 1326 1975 
Q 1069 1734 1069 1313 
Q 1069 891 1326 650 
Q 1584 409 2034 409 
Q 2484 409 2743 651 
Q 3003 894 3003 1313 
Q 3003 1734 2745 1975 
Q 2488 2216 2034 2216 
z
M 1403 2484 
Q 997 2584 770 2862 
Q 544 3141 544 3541 
Q 544 4100 942 4425 
Q 1341 4750 2034 4750 
Q 2731 4750 3128 4425 
Q 3525 4100 3525 3541 
Q 3525 3141 3298 2862 
Q 3072 2584 2669 2484 
Q 3125 2378 3379 2068 
Q 3634 1759 3634 1313 
Q 3634 634 3220 271 
Q 2806 -91 2034 -91 
Q 1263 -91 848 271 
Q 434 634 434 1313 
Q 434 1759 690 2068 
Q 947 2378 1403 2484 
z
M 1172 3481 
Q 1172 3119 1398 2916 
Q 1625 2713 2034 2713 
Q 2441 2713 2670 2916 
Q 2900 3119 2900 3481 
Q 2900 3844 2670 4047 
Q 2441 4250 2034 4250 
Q 1625 4250 1398 4047 
Q 1172 3844 1172 3481 
z
" id="DejaVuSans-38" transform="scale(0.015625)"/>
      <path d="M 525 4666 
L 3525 4666 
L 3525 4397 
L 1831 0 
L 1172 0 
L 2766 4134 
L 525 4134 
L 525 4666 
z
" id="DejaVuSans-37" transform="scale(0.015625)"/>
     </defs>
     <use xlink:href="#DejaVuSans-38"/>
     <use x="63.623047" xlink:href="#DejaVuSans-37"/>
     <use x="127.246094" xlink:href="#DejaVuSans-25"/>
    </g>
   </g>
   <g id="text_8">
    <!-- No -->
    <g style="fill:#262626;" transform="translate(339.605116 81.172327)scale(0.1 -0.1)">
     <use xlink:href="#DejaVuSans-4e"/>
     <use x="74.804688" xlink:href="#DejaVuSans-6f"/>
    </g>
   </g>
   <g id="text_9">
    <!-- 13% -->
    <g style="fill:#262626;" transform="translate(305.753791 83.752804)scale(0.1 -0.1)">
     <defs>
      <path d="M 2597 2516 
Q 3050 2419 3304 2112 
Q 3559 1806 3559 1356 
Q 3559 666 3084 287 
Q 2609 -91 1734 -91 
Q 1441 -91 1130 -33 
Q 819 25 488 141 
L 488 750 
Q 750 597 1062 519 
Q 1375 441 1716 441 
Q 2309 441 2620 675 
Q 2931 909 2931 1356 
Q 2931 1769 2642 2001 
Q 2353 2234 1838 2234 
L 1294 2234 
L 1294 2753 
L 1863 2753 
Q 2328 2753 2575 2939 
Q 2822 3125 2822 3475 
Q 2822 3834 2567 4026 
Q 2313 4219 1838 4219 
Q 1578 4219 1281 4162 
Q 984 4106 628 3988 
L 628 4550 
Q 988 4650 1302 4700 
Q 1616 4750 1894 4750 
Q 2613 4750 3031 4423 
Q 3450 4097 3450 3541 
Q 3450 3153 3228 2886 
Q 3006 2619 2597 2516 
z
" id="DejaVuSans-33" transform="scale(0.015625)"/>
     </defs>
     <use xlink:href="#DejaVuSans-31"/>
     <use x="63.623047" xlink:href="#DejaVuSans-33"/>
     <use x="127.246094" xlink:href="#DejaVuSans-25"/>
    </g>
   </g>
   <g id="text_10">
    <!-- Homepage -->
    <g style="fill:#262626;" transform="translate(256.874859 20.88)scale(0.12 -0.12)">
     <defs>
      <path d="M 628 4666 
L 1259 4666 
L 1259 2753 
L 3553 2753 
L 3553 4666 
L 4184 4666 
L 4184 0 
L 3553 0 
L 3553 2222 
L 1259 2222 
L 1259 0 
L 628 0 
L 628 4666 
z
" id="DejaVuSans-48" transform="scale(0.015625)"/>
      <path d="M 1159 525 
L 1159 -1331 
L 581 -1331 
L 581 3500 
L 1159 3500 
L 1159 2969 
Q 1341 3281 1617 3432 
Q 1894 3584 2278 3584 
Q 2916 3584 3314 3078 
Q 3713 2572 3713 1747 
Q 3713 922 3314 415 
Q 2916 -91 2278 -91 
Q 1894 -91 1617 61 
Q 1341 213 1159 525 
z
M 3116 1747 
Q 3116 2381 2855 2742 
Q 2594 3103 2138 3103 
Q 1681 3103 1420 2742 
Q 1159 2381 1159 1747 
Q 1159 1113 1420 752 
Q 1681 391 2138 391 
Q 2594 391 2855 752 
Q 3116 1113 3116 1747 
z
" id="DejaVuSans-70" transform="scale(0.015625)"/>
      <path d="M 2906 1791 
Q 2906 2416 2648 2759 
Q 2391 3103 1925 3103 
Q 1463 3103 1205 2759 
Q 947 2416 947 1791 
Q 947 1169 1205 825 
Q 1463 481 1925 481 
Q 2391 481 2648 825 
Q 2906 1169 2906 1791 
z
M 3481 434 
Q 3481 -459 3084 -895 
Q 2688 -1331 1869 -1331 
Q 1566 -1331 1297 -1286 
Q 1028 -1241 775 -1147 
L 775 -588 
Q 1028 -725 1275 -790 
Q 1522 -856 1778 -856 
Q 2344 -856 2625 -561 
Q 2906 -266 2906 331 
L 2906 616 
Q 2728 306 2450 153 
Q 2172 0 1784 0 
Q 1141 0 747 490 
Q 353 981 353 1791 
Q 353 2603 747 3093 
Q 1141 3584 1784 3584 
Q 2172 3584 2450 3431 
Q 2728 3278 2906 2969 
L 2906 3500 
L 3481 3500 
L 3481 434 
z
" id="DejaVuSans-67" transform="scale(0.015625)"/>
     </defs>
     <use xlink:href="#DejaVuSans-48"/>
     <use x="75.195312" xlink:href="#DejaVuSans-6f"/>
     <use x="136.376953" xlink:href="#DejaVuSans-6d"/>
     <use x="233.789062" xlink:href="#DejaVuSans-65"/>
     <use x="295.3125" xlink:href="#DejaVuSans-70"/>
     <use x="358.789062" xlink:href="#DejaVuSans-61"/>
     <use x="420.068359" xlink:href="#DejaVuSans-67"/>
     <use x="483.544922" xlink:href="#DejaVuSans-65"/>
    </g>
   </g>
  </g>
  <g id="axes_3">
   <g id="matplotlib.axis_5"/>
   <g id="matplotlib.axis_6"/>
   <g id="patch_6">
    <path d="M 514.097902 61.36463 
C 511.562811 56.973723 508.315613 53.034437 504.489198 49.707983 
C 500.662782 46.381529 496.31007 43.713914 491.609193 41.814308 
C 486.908315 39.914703 481.924288 38.809378 476.861078 38.543569 
C 471.797868 38.277761 466.725501 38.855144 461.851561 40.252091 
C 456.977622 41.649038 452.369516 43.846228 448.21583 46.753742 
C 444.062144 49.661256 440.420322 53.238882 437.439405 57.340209 
C 434.458489 61.441536 432.179703 66.009842 430.696307 70.85817 
C 429.212911 75.706498 428.54542 80.767795 428.72115 85.834931 
C 428.896881 90.902067 429.913403 95.904962 431.729115 100.638876 
C 433.544828 105.372789 436.134619 109.77225 439.392504 113.657213 
C 442.650389 117.542175 446.53131 120.85891 450.876443 123.471681 
C 455.221575 126.084452 459.970825 127.957125 464.929832 129.013061 
C 469.888838 130.068996 474.989018 130.293591 480.021649 129.677655 
C 485.054279 129.061718 489.949758 127.613767 494.507741 125.39306 
C 499.065724 123.172353 503.223173 120.209601 506.809946 116.626055 
C 510.39672 113.042509 513.363212 108.887728 515.588021 104.331746 
L 474.461652 84.24863 
L 514.097902 61.36463 
z
" style="fill:#1f77b4;stroke:#ffffff;stroke-linejoin:miter;"/>
   </g>
   <g id="patch_7">
    <path d="M 520.162071 104.173116 
C 523.451379 97.437244 525.036016 89.995291 524.776203 82.503695 
C 524.51639 75.012098 522.419999 67.697805 518.671948 61.205993 
L 479.035702 84.09 
L 520.162071 104.173116 
z
" style="fill:#ff7f0e;stroke:#ffffff;stroke-linejoin:miter;"/>
   </g>
   <g id="text_11">
    <!-- Yes -->
    <g style="fill:#262626;" transform="translate(408.001788 88.752936)scale(0.1 -0.1)">
     <use xlink:href="#DejaVuSans-59"/>
     <use x="47.833984" xlink:href="#DejaVuSans-65"/>
     <use x="109.357422" xlink:href="#DejaVuSans-73"/>
    </g>
   </g>
   <g id="text_12">
    <!-- 84% -->
    <g style="fill:#262626;" transform="translate(435.90407 87.959786)scale(0.1 -0.1)">
     <defs>
      <path d="M 2419 4116 
L 825 1625 
L 2419 1625 
L 2419 4116 
z
M 2253 4666 
L 3047 4666 
L 3047 1625 
L 3713 1625 
L 3713 1100 
L 3047 1100 
L 3047 0 
L 2419 0 
L 2419 1100 
L 313 1100 
L 313 1709 
L 2253 4666 
z
" id="DejaVuSans-34" transform="scale(0.015625)"/>
     </defs>
     <use xlink:href="#DejaVuSans-38"/>
     <use x="63.623047" xlink:href="#DejaVuSans-34"/>
     <use x="127.246094" xlink:href="#DejaVuSans-25"/>
    </g>
   </g>
   <g id="text_13">
    <!-- No -->
    <g style="fill:#262626;" transform="translate(529.350253 85.104439)scale(0.1 -0.1)">
     <use xlink:href="#DejaVuSans-4e"/>
     <use x="74.804688" xlink:href="#DejaVuSans-6f"/>
    </g>
   </g>
   <g id="text_14">
    <!-- 16% -->
    <g style="fill:#262626;" transform="translate(495.366721 85.897592)scale(0.1 -0.1)">
     <defs>
      <path d="M 2113 2584 
Q 1688 2584 1439 2293 
Q 1191 2003 1191 1497 
Q 1191 994 1439 701 
Q 1688 409 2113 409 
Q 2538 409 2786 701 
Q 3034 994 3034 1497 
Q 3034 2003 2786 2293 
Q 2538 2584 2113 2584 
z
M 3366 4563 
L 3366 3988 
Q 3128 4100 2886 4159 
Q 2644 4219 2406 4219 
Q 1781 4219 1451 3797 
Q 1122 3375 1075 2522 
Q 1259 2794 1537 2939 
Q 1816 3084 2150 3084 
Q 2853 3084 3261 2657 
Q 3669 2231 3669 1497 
Q 3669 778 3244 343 
Q 2819 -91 2113 -91 
Q 1303 -91 875 529 
Q 447 1150 447 2328 
Q 447 3434 972 4092 
Q 1497 4750 2381 4750 
Q 2619 4750 2861 4703 
Q 3103 4656 3366 4563 
z
" id="DejaVuSans-36" transform="scale(0.015625)"/>
     </defs>
     <use xlink:href="#DejaVuSans-31"/>
     <use x="63.623047" xlink:href="#DejaVuSans-36"/>
     <use x="127.246094" xlink:href="#DejaVuSans-25"/>
    </g>
   </g>
   <g id="text_15">
    <!-- Description -->
    <g style="fill:#262626;" transform="translate(444.863827 20.88)scale(0.12 -0.12)">
     <defs>
      <path d="M 1259 4147 
L 1259 519 
L 2022 519 
Q 2988 519 3436 956 
Q 3884 1394 3884 2338 
Q 3884 3275 3436 3711 
Q 2988 4147 2022 4147 
L 1259 4147 
z
M 628 4666 
L 1925 4666 
Q 3281 4666 3915 4102 
Q 4550 3538 4550 2338 
Q 4550 1131 3912 565 
Q 3275 0 1925 0 
L 628 0 
L 628 4666 
z
" id="DejaVuSans-44" transform="scale(0.015625)"/>
      <path d="M 3122 3366 
L 3122 2828 
Q 2878 2963 2633 3030 
Q 2388 3097 2138 3097 
Q 1578 3097 1268 2742 
Q 959 2388 959 1747 
Q 959 1106 1268 751 
Q 1578 397 2138 397 
Q 2388 397 2633 464 
Q 2878 531 3122 666 
L 3122 134 
Q 2881 22 2623 -34 
Q 2366 -91 2075 -91 
Q 1284 -91 818 406 
Q 353 903 353 1747 
Q 353 2603 823 3093 
Q 1294 3584 2113 3584 
Q 2378 3584 2631 3529 
Q 2884 3475 3122 3366 
z
" id="DejaVuSans-63" transform="scale(0.015625)"/>
      <path d="M 2631 2963 
Q 2534 3019 2420 3045 
Q 2306 3072 2169 3072 
Q 1681 3072 1420 2755 
Q 1159 2438 1159 1844 
L 1159 0 
L 581 0 
L 581 3500 
L 1159 3500 
L 1159 2956 
Q 1341 3275 1631 3429 
Q 1922 3584 2338 3584 
Q 2397 3584 2469 3576 
Q 2541 3569 2628 3553 
L 2631 2963 
z
" id="DejaVuSans-72" transform="scale(0.015625)"/>
      <path d="M 603 3500 
L 1178 3500 
L 1178 0 
L 603 0 
L 603 3500 
z
M 603 4863 
L 1178 4863 
L 1178 4134 
L 603 4134 
L 603 4863 
z
" id="DejaVuSans-69" transform="scale(0.015625)"/>
      <path d="M 1172 4494 
L 1172 3500 
L 2356 3500 
L 2356 3053 
L 1172 3053 
L 1172 1153 
Q 1172 725 1289 603 
Q 1406 481 1766 481 
L 2356 481 
L 2356 0 
L 1766 0 
Q 1100 0 847 248 
Q 594 497 594 1153 
L 594 3053 
L 172 3053 
L 172 3500 
L 594 3500 
L 594 4494 
L 1172 4494 
z
" id="DejaVuSans-74" transform="scale(0.015625)"/>
      <path d="M 3513 2113 
L 3513 0 
L 2938 0 
L 2938 2094 
Q 2938 2591 2744 2837 
Q 2550 3084 2163 3084 
Q 1697 3084 1428 2787 
Q 1159 2491 1159 1978 
L 1159 0 
L 581 0 
L 581 3500 
L 1159 3500 
L 1159 2956 
Q 1366 3272 1645 3428 
Q 1925 3584 2291 3584 
Q 2894 3584 3203 3211 
Q 3513 2838 3513 2113 
z
" id="DejaVuSans-6e" transform="scale(0.015625)"/>
     </defs>
     <use xlink:href="#DejaVuSans-44"/>
     <use x="77.001953" xlink:href="#DejaVuSans-65"/>
     <use x="138.525391" xlink:href="#DejaVuSans-73"/>
     <use x="190.625" xlink:href="#DejaVuSans-63"/>
     <use x="245.605469" xlink:href="#DejaVuSans-72"/>
     <use x="286.71875" xlink:href="#DejaVuSans-69"/>
     <use x="314.501953" xlink:href="#DejaVuSans-70"/>
     <use x="377.978516" xlink:href="#DejaVuSans-74"/>
     <use x="417.1875" xlink:href="#DejaVuSans-69"/>
     <use x="444.970703" xlink:href="#DejaVuSans-6f"/>
     <use x="506.152344" xlink:href="#DejaVuSans-6e"/>
    </g>
   </g>
  </g>
  <g id="axes_4">
   <g id="matplotlib.axis_7"/>
   <g id="matplotlib.axis_8"/>
   <g id="patch_8">
    <path d="M 703.576347 60.710384 
C 701.178652 56.557454 698.143094 52.80704 694.580941 49.596612 
C 691.018788 46.386185 686.974102 43.755456 682.59514 41.800854 
C 678.216179 39.846252 673.557106 38.591954 668.788701 38.083936 
C 664.020295 37.575919 659.201538 37.820465 654.509061 38.808612 
C 649.816584 39.796759 645.30843 41.516283 641.149844 43.904156 
C 636.991258 46.292029 633.233679 49.318714 630.014842 52.873269 
C 626.796004 56.427824 624.155723 60.46628 622.190776 64.84061 
C 620.225829 69.214939 618.960523 73.871034 618.441236 78.638226 
C 617.921949 83.405417 618.155105 88.224739 619.132158 92.919538 
C 620.109211 97.614338 621.818075 102.126544 624.196113 106.290762 
C 626.57415 110.45498 629.591945 114.219702 633.138882 117.446932 
C 636.685819 120.674162 640.718023 123.323982 645.087697 125.299262 
C 649.45737 127.274542 654.110461 128.55085 658.876412 129.081403 
C 663.642363 129.611956 668.462221 129.390192 673.159317 128.424238 
C 677.856413 127.458284 682.372645 125.76009 686.542473 123.391902 
C 690.7123 121.023714 694.484144 118.014825 697.719749 114.475526 
L 663.940096 83.594384 
L 703.576347 60.710384 
z
" style="fill:#1f77b4;stroke:#ffffff;stroke-linejoin:miter;"/>
   </g>
   <g id="patch_9">
    <path d="M 702.269635 114.971142 
C 708.829958 107.795065 712.935968 98.711836 713.988843 89.046156 
C 715.041719 79.380476 712.98766 69.626236 708.126231 61.205996 
L 668.489983 84.09 
L 702.269635 114.971142 
z
" style="fill:#ff7f0e;stroke:#ffffff;stroke-linejoin:miter;"/>
   </g>
   <g id="text_16">
    <!-- Yes -->
    <g style="fill:#262626;" transform="translate(597.746037 80.901985)scale(0.1 -0.1)">
     <use xlink:href="#DejaVuSans-59"/>
     <use x="47.833984" xlink:href="#DejaVuSans-65"/>
     <use x="109.357422" xlink:href="#DejaVuSans-73"/>
    </g>
   </g>
   <g id="text_17">
    <!-- 80% -->
    <g style="fill:#262626;" transform="translate(625.527499 83.380064)scale(0.1 -0.1)">
     <use xlink:href="#DejaVuSans-38"/>
     <use x="63.623047" xlink:href="#DejaVuSans-30"/>
     <use x="127.246094" xlink:href="#DejaVuSans-25"/>
    </g>
   </g>
   <g id="text_18">
    <!-- No -->
    <g style="fill:#262626;" transform="translate(718.538729 92.301147)scale(0.1 -0.1)">
     <use xlink:href="#DejaVuSans-4e"/>
     <use x="74.804688" xlink:href="#DejaVuSans-6f"/>
    </g>
   </g>
   <g id="text_19">
    <!-- 20% -->
    <g style="fill:#262626;" transform="translate(684.676018 89.823069)scale(0.1 -0.1)">
     <defs>
      <path d="M 1228 531 
L 3431 531 
L 3431 0 
L 469 0 
L 469 531 
Q 828 903 1448 1529 
Q 2069 2156 2228 2338 
Q 2531 2678 2651 2914 
Q 2772 3150 2772 3378 
Q 2772 3750 2511 3984 
Q 2250 4219 1831 4219 
Q 1534 4219 1204 4116 
Q 875 4013 500 3803 
L 500 4441 
Q 881 4594 1212 4672 
Q 1544 4750 1819 4750 
Q 2544 4750 2975 4387 
Q 3406 4025 3406 3419 
Q 3406 3131 3298 2873 
Q 3191 2616 2906 2266 
Q 2828 2175 2409 1742 
Q 1991 1309 1228 531 
z
" id="DejaVuSans-32" transform="scale(0.015625)"/>
     </defs>
     <use xlink:href="#DejaVuSans-32"/>
     <use x="63.623047" xlink:href="#DejaVuSans-30"/>
     <use x="127.246094" xlink:href="#DejaVuSans-25"/>
    </g>
   </g>
   <g id="text_20">
    <!-- Example -->
    <g style="fill:#262626;" transform="translate(642.45842 20.88)scale(0.12 -0.12)">
     <defs>
      <path d="M 628 4666 
L 3578 4666 
L 3578 4134 
L 1259 4134 
L 1259 2753 
L 3481 2753 
L 3481 2222 
L 1259 2222 
L 1259 531 
L 3634 531 
L 3634 0 
L 628 0 
L 628 4666 
z
" id="DejaVuSans-45" transform="scale(0.015625)"/>
      <path d="M 3513 3500 
L 2247 1797 
L 3578 0 
L 2900 0 
L 1881 1375 
L 863 0 
L 184 0 
L 1544 1831 
L 300 3500 
L 978 3500 
L 1906 2253 
L 2834 3500 
L 3513 3500 
z
" id="DejaVuSans-78" transform="scale(0.015625)"/>
      <path d="M 603 4863 
L 1178 4863 
L 1178 0 
L 603 0 
L 603 4863 
z
" id="DejaVuSans-6c" transform="scale(0.015625)"/>
     </defs>
     <use xlink:href="#DejaVuSans-45"/>
     <use x="63.183594" xlink:href="#DejaVuSans-78"/>
     <use x="122.363281" xlink:href="#DejaVuSans-61"/>
     <use x="183.642578" xlink:href="#DejaVuSans-6d"/>
     <use x="281.054688" xlink:href="#DejaVuSans-70"/>
     <use x="344.53125" xlink:href="#DejaVuSans-6c"/>
     <use x="372.314453" xlink:href="#DejaVuSans-65"/>
    </g>
   </g>
  </g>
  <g id="axes_5">
   <g id="matplotlib.axis_9"/>
   <g id="matplotlib.axis_10"/>
   <g id="patch_10">
    <path d="M 135.529285 200.768346 
C 131.252134 193.360104 124.982483 187.297293 117.434974 183.270981 
C 109.887466 179.244669 101.360192 177.413876 92.825131 177.987285 
C 84.290069 178.560694 76.084316 181.515657 69.143199 186.515354 
C 62.202083 191.515051 56.799746 198.362018 53.551971 206.275805 
C 50.304196 214.189592 49.339255 222.857642 50.767137 231.291931 
C 52.195019 239.726219 55.959329 247.593631 61.630994 253.997402 
C 67.302659 260.401174 74.657674 265.088386 82.857681 267.524768 
C 91.057688 269.96115 99.778824 270.050477 108.027015 267.782566 
L 95.893034 223.652346 
L 135.529285 200.768346 
z
" style="fill:#1f77b4;stroke:#ffffff;stroke-linejoin:miter;"/>
   </g>
   <g id="patch_11">
    <path d="M 112.261121 269.52022 
C 119.005539 267.665785 125.235934 264.289671 130.472198 259.652038 
C 135.708463 255.014406 139.812551 249.237518 142.468205 242.766537 
C 145.12386 236.295556 146.261069 229.301078 145.792201 222.322091 
C 145.323333 215.343103 143.260748 208.563597 139.763387 202.505993 
L 100.12714 225.39 
L 112.261121 269.52022 
z
" style="fill:#ff7f0e;stroke:#ffffff;stroke-linejoin:miter;"/>
   </g>
   <g id="text_21">
    <!-- Yes -->
    <g style="fill:#262626;" transform="translate(33.172552 207.297526)scale(0.1 -0.1)">
     <use xlink:href="#DejaVuSans-59"/>
     <use x="47.833984" xlink:href="#DejaVuSans-65"/>
     <use x="109.357422" xlink:href="#DejaVuSans-73"/>
    </g>
   </g>
   <g id="text_22">
    <!-- 71% -->
    <g style="fill:#262626;" transform="translate(59.375115 215.985796)scale(0.1 -0.1)">
     <use xlink:href="#DejaVuSans-37"/>
     <use x="63.623047" xlink:href="#DejaVuSans-31"/>
     <use x="127.246094" xlink:href="#DejaVuSans-25"/>
    </g>
   </g>
   <g id="text_23">
    <!-- No -->
    <g style="fill:#262626;" transform="translate(146.702312 247.263566)scale(0.1 -0.1)">
     <use xlink:href="#DejaVuSans-4e"/>
     <use x="74.804688" xlink:href="#DejaVuSans-6f"/>
    </g>
   </g>
   <g id="text_24">
    <!-- 29% -->
    <g style="fill:#262626;" transform="translate(114.418498 238.575297)scale(0.1 -0.1)">
     <defs>
      <path d="M 703 97 
L 703 672 
Q 941 559 1184 500 
Q 1428 441 1663 441 
Q 2288 441 2617 861 
Q 2947 1281 2994 2138 
Q 2813 1869 2534 1725 
Q 2256 1581 1919 1581 
Q 1219 1581 811 2004 
Q 403 2428 403 3163 
Q 403 3881 828 4315 
Q 1253 4750 1959 4750 
Q 2769 4750 3195 4129 
Q 3622 3509 3622 2328 
Q 3622 1225 3098 567 
Q 2575 -91 1691 -91 
Q 1453 -91 1209 -44 
Q 966 3 703 97 
z
M 1959 2075 
Q 2384 2075 2632 2365 
Q 2881 2656 2881 3163 
Q 2881 3666 2632 3958 
Q 2384 4250 1959 4250 
Q 1534 4250 1286 3958 
Q 1038 3666 1038 3163 
Q 1038 2656 1286 2365 
Q 1534 2075 1959 2075 
z
" id="DejaVuSans-39" transform="scale(0.015625)"/>
     </defs>
     <use xlink:href="#DejaVuSans-32"/>
     <use x="63.623047" xlink:href="#DejaVuSans-39"/>
     <use x="127.246094" xlink:href="#DejaVuSans-25"/>
    </g>
   </g>
   <g id="text_25">
    <!-- Pattern -->
    <g style="fill:#262626;" transform="translate(78.54214 162.18)scale(0.12 -0.12)">
     <defs>
      <path d="M 1259 4147 
L 1259 2394 
L 2053 2394 
Q 2494 2394 2734 2622 
Q 2975 2850 2975 3272 
Q 2975 3691 2734 3919 
Q 2494 4147 2053 4147 
L 1259 4147 
z
M 628 4666 
L 2053 4666 
Q 2838 4666 3239 4311 
Q 3641 3956 3641 3272 
Q 3641 2581 3239 2228 
Q 2838 1875 2053 1875 
L 1259 1875 
L 1259 0 
L 628 0 
L 628 4666 
z
" id="DejaVuSans-50" transform="scale(0.015625)"/>
     </defs>
     <use xlink:href="#DejaVuSans-50"/>
     <use x="55.802734" xlink:href="#DejaVuSans-61"/>
     <use x="117.082031" xlink:href="#DejaVuSans-74"/>
     <use x="156.291016" xlink:href="#DejaVuSans-74"/>
     <use x="195.5" xlink:href="#DejaVuSans-65"/>
     <use x="257.023438" xlink:href="#DejaVuSans-72"/>
     <use x="296.386719" xlink:href="#DejaVuSans-6e"/>
    </g>
   </g>
  </g>
  <g id="axes_6">
   <g id="matplotlib.axis_11"/>
   <g id="matplotlib.axis_12"/>
   <g id="patch_12">
    <path d="M 324.700522 203.242517 
C 322.043506 198.64043 318.605167 194.536059 314.539898 191.113701 
C 310.474628 187.691344 305.8442 185.003004 300.856533 183.169396 
C 295.868866 181.335787 290.599748 180.384772 285.285777 180.359053 
C 279.971807 180.333335 274.69373 181.233304 269.688548 183.018549 
C 264.683367 184.803794 260.027134 187.447188 255.928929 190.830036 
C 251.830723 194.212883 248.352818 198.283781 245.651381 202.859935 
C 242.949943 207.436088 241.066023 212.447962 240.084212 217.670509 
C 239.102402 222.893055 239.03762 228.246917 239.892776 233.491691 
C 240.747931 238.736465 242.510031 243.792456 245.09995 248.432635 
C 247.68987 253.072813 251.068256 257.226673 255.083408 260.707692 
C 259.09856 264.188711 263.689469 266.943996 268.649989 268.849826 
C 273.610508 270.755657 278.865263 271.783073 284.1783 271.885941 
C 289.491337 271.98881 294.781924 271.165567 299.812498 269.453179 
C 304.843072 267.740792 309.537193 265.165279 313.684081 261.842289 
C 317.830969 258.519299 321.367612 254.499325 324.135205 249.962875 
C 326.902798 245.426426 328.859286 240.442433 329.916819 235.234691 
L 285.064271 226.126517 
L 324.700522 203.242517 
z
" style="fill:#1f77b4;stroke:#ffffff;stroke-linejoin:miter;"/>
   </g>
   <g id="patch_13">
    <path d="M 334.433968 234.498174 
C 335.535927 229.071656 335.643998 223.489929 334.752916 218.024823 
C 333.861835 212.559717 331.986306 207.301414 329.217669 202.505994 
L 289.581421 225.39 
L 334.433968 234.498174 
z
" style="fill:#ff7f0e;stroke:#ffffff;stroke-linejoin:miter;"/>
   </g>
   <g id="text_26">
    <!-- Yes -->
    <g style="fill:#262626;" transform="translate(219.230314 236.987583)scale(0.1 -0.1)">
     <use xlink:href="#DejaVuSans-59"/>
     <use x="47.833984" xlink:href="#DejaVuSans-65"/>
     <use x="109.357422" xlink:href="#DejaVuSans-73"/>
    </g>
   </g>
   <g id="text_27">
    <!-- 88% -->
    <g style="fill:#262626;" transform="translate(246.848093 233.304997)scale(0.1 -0.1)">
     <use xlink:href="#DejaVuSans-38"/>
     <use x="63.623047" xlink:href="#DejaVuSans-38"/>
     <use x="127.246094" xlink:href="#DejaVuSans-25"/>
    </g>
   </g>
   <g id="text_28">
    <!-- No -->
    <g style="fill:#262626;" transform="translate(339.270066 220.047681)scale(0.1 -0.1)">
     <use xlink:href="#DejaVuSans-4e"/>
     <use x="74.804688" xlink:href="#DejaVuSans-6f"/>
    </g>
   </g>
   <g id="text_29">
    <!-- 12% -->
    <g style="fill:#262626;" transform="translate(305.571037 223.730269)scale(0.1 -0.1)">
     <use xlink:href="#DejaVuSans-31"/>
     <use x="63.623047" xlink:href="#DejaVuSans-32"/>
     <use x="127.246094" xlink:href="#DejaVuSans-25"/>
    </g>
   </g>
   <g id="text_30">
    <!-- Provider -->
    <g style="fill:#262626;" transform="translate(264.880171 162.18)scale(0.12 -0.12)">
     <defs>
      <path d="M 191 3500 
L 800 3500 
L 1894 563 
L 2988 3500 
L 3597 3500 
L 2284 0 
L 1503 0 
L 191 3500 
z
" id="DejaVuSans-76" transform="scale(0.015625)"/>
      <path d="M 2906 2969 
L 2906 4863 
L 3481 4863 
L 3481 0 
L 2906 0 
L 2906 525 
Q 2725 213 2448 61 
Q 2172 -91 1784 -91 
Q 1150 -91 751 415 
Q 353 922 353 1747 
Q 353 2572 751 3078 
Q 1150 3584 1784 3584 
Q 2172 3584 2448 3432 
Q 2725 3281 2906 2969 
z
M 947 1747 
Q 947 1113 1208 752 
Q 1469 391 1925 391 
Q 2381 391 2643 752 
Q 2906 1113 2906 1747 
Q 2906 2381 2643 2742 
Q 2381 3103 1925 3103 
Q 1469 3103 1208 2742 
Q 947 2381 947 1747 
z
" id="DejaVuSans-64" transform="scale(0.015625)"/>
     </defs>
     <use xlink:href="#DejaVuSans-50"/>
     <use x="58.552734" xlink:href="#DejaVuSans-72"/>
     <use x="97.416016" xlink:href="#DejaVuSans-6f"/>
     <use x="158.597656" xlink:href="#DejaVuSans-76"/>
     <use x="217.777344" xlink:href="#DejaVuSans-69"/>
     <use x="245.560547" xlink:href="#DejaVuSans-64"/>
     <use x="309.037109" xlink:href="#DejaVuSans-65"/>
     <use x="370.560547" xlink:href="#DejaVuSans-72"/>
    </g>
   </g>
  </g>
  <g id="axes_7">
   <g id="matplotlib.axis_13"/>
   <g id="matplotlib.axis_14"/>
   <g id="patch_14">
    <path d="M 520.83977 198.47516 
C 516.588867 191.112381 510.369326 185.077675 502.88169 181.050765 
C 495.394053 177.023856 486.930412 175.161831 478.444073 175.674423 
L 481.203519 221.35916 
L 520.83977 198.47516 
z
" style="fill:#1f77b4;stroke:#ffffff;stroke-linejoin:miter;"/>
   </g>
   <g id="patch_15">
    <path d="M 476.276256 179.705262 
C 471.339529 180.00345 466.483616 181.099875 461.897715 182.951819 
C 457.311813 184.803762 453.056267 187.386856 449.296883 190.600454 
C 445.537499 193.814053 442.323744 197.615872 439.780835 201.857782 
C 437.237926 206.099692 435.399324 210.725877 434.336664 215.556088 
C 433.274004 220.386299 433.00127 225.356979 433.529088 230.274458 
C 434.056906 235.191936 435.378331 239.991507 437.441877 244.486166 
C 439.505423 248.980826 442.283937 253.111432 445.669161 256.717045 
C 449.054384 260.322658 453.001774 263.355835 457.357529 265.698394 
C 461.713284 268.040954 466.42009 269.662072 471.294557 270.498586 
C 476.169024 271.3351 481.147013 271.376002 486.034568 270.619699 
C 490.922122 269.863397 495.654931 268.319841 500.048592 266.049172 
C 504.442252 263.778504 508.43895 260.810601 511.882965 257.261102 
C 515.32698 253.711602 518.172994 249.627211 520.310118 245.167067 
C 522.447243 240.706923 523.847357 235.929714 524.455909 231.021573 
C 525.064461 226.113431 524.873443 221.138941 523.890298 216.29192 
C 522.907152 211.444899 521.144816 206.789127 518.671955 202.506004 
L 479.035702 225.39 
L 476.276256 179.705262 
z
" style="fill:#ff7f0e;stroke:#ffffff;stroke-linejoin:miter;"/>
   </g>
   <g id="text_31">
    <!-- Yes -->
    <g style="fill:#262626;" transform="translate(505.049507 179.779301)scale(0.1 -0.1)">
     <use xlink:href="#DejaVuSans-59"/>
     <use x="47.833984" xlink:href="#DejaVuSans-65"/>
     <use x="109.357422" xlink:href="#DejaVuSans-73"/>
    </g>
   </g>
   <g id="text_32">
    <!-- 18% -->
    <g style="fill:#262626;" transform="translate(483.09714 199.933498)scale(0.1 -0.1)">
     <use xlink:href="#DejaVuSans-31"/>
     <use x="63.623047" xlink:href="#DejaVuSans-38"/>
     <use x="127.246094" xlink:href="#DejaVuSans-25"/>
    </g>
   </g>
   <g id="text_33">
    <!-- No -->
    <g style="fill:#262626;" transform="translate(441.589712 272.488609)scale(0.1 -0.1)">
     <use xlink:href="#DejaVuSans-4e"/>
     <use x="74.804688" xlink:href="#DejaVuSans-6f"/>
    </g>
   </g>
   <g id="text_34">
    <!-- 82% -->
    <g style="fill:#262626;" transform="translate(454.915517 252.334412)scale(0.1 -0.1)">
     <use xlink:href="#DejaVuSans-38"/>
     <use x="63.623047" xlink:href="#DejaVuSans-32"/>
     <use x="127.246094" xlink:href="#DejaVuSans-25"/>
    </g>
   </g>
   <g id="text_35">
    <!-- License -->
    <g style="fill:#262626;" transform="translate(456.414764 162.18)scale(0.12 -0.12)">
     <defs>
      <path d="M 628 4666 
L 1259 4666 
L 1259 531 
L 3531 531 
L 3531 0 
L 628 0 
L 628 4666 
z
" id="DejaVuSans-4c" transform="scale(0.015625)"/>
     </defs>
     <use xlink:href="#DejaVuSans-4c"/>
     <use x="55.712891" xlink:href="#DejaVuSans-69"/>
     <use x="83.496094" xlink:href="#DejaVuSans-63"/>
     <use x="138.476562" xlink:href="#DejaVuSans-65"/>
     <use x="200" xlink:href="#DejaVuSans-6e"/>
     <use x="263.378906" xlink:href="#DejaVuSans-73"/>
     <use x="315.478516" xlink:href="#DejaVuSans-65"/>
    </g>
   </g>
  </g>
  <g id="axes_8">
   <g id="matplotlib.axis_15"/>
   <g id="matplotlib.axis_16"/>
   <g id="patch_16">
    <path d="M 708.126233 202.506 
C 702.39228 192.574501 693.129899 185.151993 682.187636 181.719826 
C 671.245373 178.287659 659.403039 179.09043 649.024073 183.967926 
C 638.645108 188.845422 630.469179 197.450043 626.128001 208.064517 
C 621.786823 218.678992 621.589775 230.546868 625.576183 241.299609 
L 668.489983 225.39 
L 708.126233 202.506 
z
" style="fill:#1f77b4;stroke:#ffffff;stroke-linejoin:miter;"/>
   </g>
   <g id="patch_17">
    <path d="M 625.576183 241.299609 
C 629.436693 251.712758 636.958432 260.372972 646.728469 265.653462 
C 656.498506 270.933951 667.86422 272.481989 678.690601 270.006782 
L 668.489983 225.39 
L 625.576183 241.299609 
z
" style="fill:#ff7f0e;stroke:#ffffff;stroke-linejoin:miter;"/>
   </g>
   <g id="patch_18">
    <path d="M 678.690601 270.006782 
C 687.644895 267.959585 695.778868 263.263433 702.02894 256.532386 
C 708.279011 249.801338 712.360353 241.342142 713.739298 232.260902 
L 668.489983 225.39 
L 678.690601 270.006782 
z
" style="fill:#2ca02c;stroke:#ffffff;stroke-linejoin:miter;"/>
   </g>
   <g id="patch_19">
    <path d="M 713.739298 232.260902 
C 714.160776 229.485195 714.325959 226.676584 714.232755 223.870607 
C 714.139552 221.06463 713.788357 218.273171 713.183615 215.531551 
L 668.489983 225.39 
L 713.739298 232.260902 
z
" style="fill:#d62728;stroke:#ffffff;stroke-linejoin:miter;"/>
   </g>
   <g id="patch_20">
    <path d="M 713.183615 215.531551 
C 712.679772 213.247358 712.001559 211.005148 711.15494 208.824637 
C 710.308321 206.644125 709.295784 204.531722 708.126234 202.506001 
L 668.489983 225.39 
L 713.183615 215.531551 
z
" style="fill:#9467bd;stroke:#ffffff;stroke-linejoin:miter;"/>
   </g>
   <g id="text_36">
    <!-- CC-BY -->
    <g style="fill:#262626;" transform="translate(617.447795 182.585094)scale(0.1 -0.1)">
     <defs>
      <path d="M 4122 4306 
L 4122 3641 
Q 3803 3938 3442 4084 
Q 3081 4231 2675 4231 
Q 1875 4231 1450 3742 
Q 1025 3253 1025 2328 
Q 1025 1406 1450 917 
Q 1875 428 2675 428 
Q 3081 428 3442 575 
Q 3803 722 4122 1019 
L 4122 359 
Q 3791 134 3420 21 
Q 3050 -91 2638 -91 
Q 1578 -91 968 557 
Q 359 1206 359 2328 
Q 359 3453 968 4101 
Q 1578 4750 2638 4750 
Q 3056 4750 3426 4639 
Q 3797 4528 4122 4306 
z
" id="DejaVuSans-43" transform="scale(0.015625)"/>
      <path d="M 313 2009 
L 1997 2009 
L 1997 1497 
L 313 1497 
L 313 2009 
z
" id="DejaVuSans-2d" transform="scale(0.015625)"/>
      <path d="M 1259 2228 
L 1259 519 
L 2272 519 
Q 2781 519 3026 730 
Q 3272 941 3272 1375 
Q 3272 1813 3026 2020 
Q 2781 2228 2272 2228 
L 1259 2228 
z
M 1259 4147 
L 1259 2741 
L 2194 2741 
Q 2656 2741 2882 2914 
Q 3109 3088 3109 3444 
Q 3109 3797 2882 3972 
Q 2656 4147 2194 4147 
L 1259 4147 
z
M 628 4666 
L 2241 4666 
Q 2963 4666 3353 4366 
Q 3744 4066 3744 3513 
Q 3744 3084 3544 2831 
Q 3344 2578 2956 2516 
Q 3422 2416 3680 2098 
Q 3938 1781 3938 1306 
Q 3938 681 3513 340 
Q 3088 0 2303 0 
L 628 0 
L 628 4666 
z
" id="DejaVuSans-42" transform="scale(0.015625)"/>
     </defs>
     <use xlink:href="#DejaVuSans-43"/>
     <use x="69.824219" xlink:href="#DejaVuSans-43"/>
     <use x="139.648438" xlink:href="#DejaVuSans-2d"/>
     <use x="172.107422" xlink:href="#DejaVuSans-42"/>
     <use x="235.210938" xlink:href="#DejaVuSans-59"/>
    </g>
   </g>
   <g id="text_37">
    <!-- 47% -->
    <g style="fill:#262626;" transform="translate(645.697156 203.296131)scale(0.1 -0.1)">
     <use xlink:href="#DejaVuSans-34"/>
     <use x="63.623047" xlink:href="#DejaVuSans-37"/>
     <use x="127.246094" xlink:href="#DejaVuSans-25"/>
    </g>
   </g>
   <g id="text_38">
    <!-- CC-BY-4.0 -->
    <g style="fill:#262626;" transform="translate(596.599192 272.439183)scale(0.1 -0.1)">
     <defs>
      <path d="M 684 794 
L 1344 794 
L 1344 0 
L 684 0 
L 684 794 
z
" id="DejaVuSans-2e" transform="scale(0.015625)"/>
     </defs>
     <use xlink:href="#DejaVuSans-43"/>
     <use x="69.824219" xlink:href="#DejaVuSans-43"/>
     <use x="139.648438" xlink:href="#DejaVuSans-2d"/>
     <use x="172.107422" xlink:href="#DejaVuSans-42"/>
     <use x="235.210938" xlink:href="#DejaVuSans-59"/>
     <use x="284.419922" xlink:href="#DejaVuSans-2d"/>
     <use x="320.503906" xlink:href="#DejaVuSans-34"/>
     <use x="384.126953" xlink:href="#DejaVuSans-2e"/>
     <use x="415.914062" xlink:href="#DejaVuSans-30"/>
    </g>
   </g>
   <g id="text_39">
    <!-- 23% -->
    <g style="fill:#262626;" transform="translate(644.319793 252.307452)scale(0.1 -0.1)">
     <use xlink:href="#DejaVuSans-32"/>
     <use x="63.623047" xlink:href="#DejaVuSans-33"/>
     <use x="127.246094" xlink:href="#DejaVuSans-25"/>
    </g>
   </g>
   <g id="text_40">
    <!-- CC-0 -->
    <g style="fill:#262626;" transform="translate(705.382835 262.405999)scale(0.1 -0.1)">
     <use xlink:href="#DejaVuSans-43"/>
     <use x="69.824219" xlink:href="#DejaVuSans-43"/>
     <use x="139.648438" xlink:href="#DejaVuSans-2d"/>
     <use x="175.732422" xlink:href="#DejaVuSans-30"/>
    </g>
   </g>
   <g id="text_41">
    <!-- 19% -->
    <g style="fill:#262626;" transform="translate(677.500075 246.834806)scale(0.1 -0.1)">
     <use xlink:href="#DejaVuSans-31"/>
     <use x="63.623047" xlink:href="#DejaVuSans-39"/>
     <use x="127.246094" xlink:href="#DejaVuSans-25"/>
    </g>
   </g>
   <g id="text_42">
    <!-- CC-BY-3.0 -->
    <g style="fill:#262626;" transform="translate(718.807033 226.478043)scale(0.1 -0.1)">
     <use xlink:href="#DejaVuSans-43"/>
     <use x="69.824219" xlink:href="#DejaVuSans-43"/>
     <use x="139.648438" xlink:href="#DejaVuSans-2d"/>
     <use x="172.107422" xlink:href="#DejaVuSans-42"/>
     <use x="235.210938" xlink:href="#DejaVuSans-59"/>
     <use x="284.419922" xlink:href="#DejaVuSans-2d"/>
     <use x="320.503906" xlink:href="#DejaVuSans-33"/>
     <use x="384.126953" xlink:href="#DejaVuSans-2e"/>
     <use x="415.914062" xlink:href="#DejaVuSans-30"/>
    </g>
   </g>
   <g id="text_43">
    <!-- 6% -->
    <g style="fill:#262626;" transform="translate(688.003615 227.237739)scale(0.1 -0.1)">
     <use xlink:href="#DejaVuSans-36"/>
     <use x="63.623047" xlink:href="#DejaVuSans-25"/>
    </g>
   </g>
   <g id="text_44">
    <!-- Other -->
    <g style="fill:#262626;" transform="translate(715.421435 209.927476)scale(0.1 -0.1)">
     <defs>
      <path d="M 2522 4238 
Q 1834 4238 1429 3725 
Q 1025 3213 1025 2328 
Q 1025 1447 1429 934 
Q 1834 422 2522 422 
Q 3209 422 3611 934 
Q 4013 1447 4013 2328 
Q 4013 3213 3611 3725 
Q 3209 4238 2522 4238 
z
M 2522 4750 
Q 3503 4750 4090 4092 
Q 4678 3434 4678 2328 
Q 4678 1225 4090 567 
Q 3503 -91 2522 -91 
Q 1538 -91 948 565 
Q 359 1222 359 2328 
Q 359 3434 948 4092 
Q 1538 4750 2522 4750 
z
" id="DejaVuSans-4f" transform="scale(0.015625)"/>
      <path d="M 3513 2113 
L 3513 0 
L 2938 0 
L 2938 2094 
Q 2938 2591 2744 2837 
Q 2550 3084 2163 3084 
Q 1697 3084 1428 2787 
Q 1159 2491 1159 1978 
L 1159 0 
L 581 0 
L 581 4863 
L 1159 4863 
L 1159 2956 
Q 1366 3272 1645 3428 
Q 1925 3584 2291 3584 
Q 2894 3584 3203 3211 
Q 3513 2838 3513 2113 
z
" id="DejaVuSans-68" transform="scale(0.015625)"/>
     </defs>
     <use xlink:href="#DejaVuSans-4f"/>
     <use x="78.710938" xlink:href="#DejaVuSans-74"/>
     <use x="117.919922" xlink:href="#DejaVuSans-68"/>
     <use x="181.298828" xlink:href="#DejaVuSans-65"/>
     <use x="242.822266" xlink:href="#DejaVuSans-72"/>
    </g>
   </g>
   <g id="text_45">
    <!-- 5% -->
    <g style="fill:#262626;" transform="translate(686.156926 218.210157)scale(0.1 -0.1)">
     <defs>
      <path d="M 691 4666 
L 3169 4666 
L 3169 4134 
L 1269 4134 
L 1269 2991 
Q 1406 3038 1543 3061 
Q 1681 3084 1819 3084 
Q 2600 3084 3056 2656 
Q 3513 2228 3513 1497 
Q 3513 744 3044 326 
Q 2575 -91 1722 -91 
Q 1428 -91 1123 -41 
Q 819 9 494 109 
L 494 744 
Q 775 591 1075 516 
Q 1375 441 1709 441 
Q 2250 441 2565 725 
Q 2881 1009 2881 1497 
Q 2881 1984 2565 2268 
Q 2250 2553 1709 2553 
Q 1456 2553 1204 2497 
Q 953 2441 691 2322 
L 691 4666 
z
" id="DejaVuSans-35" transform="scale(0.015625)"/>
     </defs>
     <use xlink:href="#DejaVuSans-35"/>
     <use x="63.623047" xlink:href="#DejaVuSans-25"/>
    </g>
   </g>
   <g id="text_46">
    <!-- License Type -->
    <g style="fill:#262626;" transform="translate(630.182795 162.18)scale(0.12 -0.12)">
     <defs>
      <path id="DejaVuSans-20" transform="scale(0.015625)"/>
      <path d="M -19 4666 
L 3928 4666 
L 3928 4134 
L 2272 4134 
L 2272 0 
L 1638 0 
L 1638 4134 
L -19 4134 
L -19 4666 
z
" id="DejaVuSans-54" transform="scale(0.015625)"/>
      <path d="M 2059 -325 
Q 1816 -950 1584 -1140 
Q 1353 -1331 966 -1331 
L 506 -1331 
L 506 -850 
L 844 -850 
Q 1081 -850 1212 -737 
Q 1344 -625 1503 -206 
L 1606 56 
L 191 3500 
L 800 3500 
L 1894 763 
L 2988 3500 
L 3597 3500 
L 2059 -325 
z
" id="DejaVuSans-79" transform="scale(0.015625)"/>
     </defs>
     <use xlink:href="#DejaVuSans-4c"/>
     <use x="55.712891" xlink:href="#DejaVuSans-69"/>
     <use x="83.496094" xlink:href="#DejaVuSans-63"/>
     <use x="138.476562" xlink:href="#DejaVuSans-65"/>
     <use x="200" xlink:href="#DejaVuSans-6e"/>
     <use x="263.378906" xlink:href="#DejaVuSans-73"/>
     <use x="315.478516" xlink:href="#DejaVuSans-65"/>
     <use x="377.001953" xlink:href="#DejaVuSans-20"/>
     <use x="408.789062" xlink:href="#DejaVuSans-54"/>
     <use x="454.248047" xlink:href="#DejaVuSans-79"/>
     <use x="513.427734" xlink:href="#DejaVuSans-70"/>
     <use x="576.904297" xlink:href="#DejaVuSans-65"/>
    </g>
   </g>
  </g>
  <g id="axes_9">
   <g id="matplotlib.axis_17"/>
   <g id="matplotlib.axis_18"/>
   <g id="patch_21">
    <path d="M 141.414913 339.537561 
C 136.193954 330.494595 128.032283 323.5051 118.293887 319.73717 
C 108.555491 315.969241 97.814872 315.645158 87.867016 318.819085 
L 101.778663 362.421561 
L 141.414913 339.537561 
z
" style="fill:#1f77b4;stroke:#ffffff;stroke-linejoin:miter;"/>
   </g>
   <g id="patch_22">
    <path d="M 86.215494 323.087524 
C 81.730929 324.518353 77.493833 326.632519 73.653918 329.35532 
C 69.814004 332.078121 66.417037 335.377106 63.583046 339.135708 
C 60.749056 342.89431 58.511819 347.067732 56.950385 351.508511 
C 55.388951 355.949289 54.521932 360.604497 54.379961 365.309647 
C 54.23799 370.014797 54.82276 374.71381 56.113609 379.240652 
C 57.404458 383.767494 59.386001 388.068212 61.988221 391.990844 
C 64.590442 395.913475 67.782326 399.411269 71.451092 402.360633 
C 75.119857 405.309997 79.221778 407.675781 83.611916 409.374391 
C 88.002055 411.073 92.628087 412.084191 97.326557 412.372235 
C 102.025027 412.660278 106.739937 412.22174 111.304688 411.072116 
C 115.869439 409.922493 120.229628 408.075485 124.231192 405.596356 
C 128.232755 403.117227 131.828 400.035523 134.889892 396.460134 
C 137.951785 392.884745 140.443831 388.858284 142.277978 384.523023 
C 144.112125 380.187761 145.266512 375.595367 145.700349 370.908111 
C 146.134187 366.220854 145.842304 361.494599 144.835016 356.896343 
C 143.827727 352.298087 142.117037 347.882634 139.763391 343.806 
L 100.12714 366.69 
L 86.215494 323.087524 
z
" style="fill:#ff7f0e;stroke:#ffffff;stroke-linejoin:miter;"/>
   </g>
   <g id="text_47">
    <!-- Yes -->
    <g style="fill:#262626;" transform="translate(119.945409 318.228106)scale(0.1 -0.1)">
     <use xlink:href="#DejaVuSans-59"/>
     <use x="47.833984" xlink:href="#DejaVuSans-65"/>
     <use x="109.357422" xlink:href="#DejaVuSans-73"/>
    </g>
   </g>
   <g id="text_48">
    <!-- 22% -->
    <g style="fill:#262626;" transform="translate(100.574516 339.570302)scale(0.1 -0.1)">
     <use xlink:href="#DejaVuSans-32"/>
     <use x="63.623047" xlink:href="#DejaVuSans-32"/>
     <use x="127.246094" xlink:href="#DejaVuSans-25"/>
    </g>
   </g>
   <g id="text_49">
    <!-- No -->
    <g style="fill:#262626;" transform="translate(68.360394 416.402205)scale(0.1 -0.1)">
     <use xlink:href="#DejaVuSans-4e"/>
     <use x="74.804688" xlink:href="#DejaVuSans-6f"/>
    </g>
   </g>
   <g id="text_50">
    <!-- 78% -->
    <g style="fill:#262626;" transform="translate(79.104725 395.060009)scale(0.1 -0.1)">
     <use xlink:href="#DejaVuSans-37"/>
     <use x="63.623047" xlink:href="#DejaVuSans-38"/>
     <use x="127.246094" xlink:href="#DejaVuSans-25"/>
    </g>
   </g>
   <g id="text_51">
    <!-- Version -->
    <g style="fill:#262626;" transform="translate(78.063078 303.48)scale(0.12 -0.12)">
     <defs>
      <path d="M 1831 0 
L 50 4666 
L 709 4666 
L 2188 738 
L 3669 4666 
L 4325 4666 
L 2547 0 
L 1831 0 
z
" id="DejaVuSans-56" transform="scale(0.015625)"/>
     </defs>
     <use xlink:href="#DejaVuSans-56"/>
     <use x="60.658203" xlink:href="#DejaVuSans-65"/>
     <use x="122.181641" xlink:href="#DejaVuSans-72"/>
     <use x="163.294922" xlink:href="#DejaVuSans-73"/>
     <use x="215.394531" xlink:href="#DejaVuSans-69"/>
     <use x="243.177734" xlink:href="#DejaVuSans-6f"/>
     <use x="304.359375" xlink:href="#DejaVuSans-6e"/>
    </g>
   </g>
  </g>
  <g id="axes_10">
   <g id="matplotlib.axis_19"/>
   <g id="matplotlib.axis_20"/>
   <g id="patch_23">
    <path d="M 330.435042 339.394072 
C 324.426931 328.987718 314.555853 321.354955 302.972496 318.158794 
C 291.38914 314.962632 279.000639 316.453373 268.506174 322.306219 
L 290.798792 362.278072 
L 330.435042 339.394072 
z
" style="fill:#1f77b4;stroke:#ffffff;stroke-linejoin:miter;"/>
   </g>
   <g id="patch_24">
    <path d="M 267.288803 326.718147 
C 263.345059 328.917605 259.748445 331.688655 256.616005 334.941124 
C 253.483564 338.193592 250.849646 341.891812 248.799964 345.915434 
C 246.750282 349.939057 245.307313 354.24396 244.518014 358.690053 
C 243.728715 363.136147 243.601741 367.674673 244.141225 372.157942 
C 244.680709 376.64121 245.880734 381.020055 247.702249 385.151982 
C 249.523765 389.283909 251.946795 393.123606 254.892491 396.546121 
C 257.838187 399.968637 261.274245 402.936439 265.08885 405.352951 
C 268.903455 407.769463 273.054774 409.608184 277.407717 410.809279 
C 281.760659 412.010373 286.26749 412.560671 290.781547 412.442262 
C 295.295605 412.323854 299.767388 411.538039 304.051376 410.11039 
C 308.335364 408.68274 312.384578 406.628911 316.067249 404.015738 
C 319.74992 401.402566 323.025664 398.258706 325.78788 394.686466 
C 328.550097 391.114227 330.768496 387.152781 332.370887 382.931042 
C 333.973278 378.709302 334.942088 374.273566 335.24579 369.768181 
C 335.549493 365.262795 335.184758 360.737166 334.163454 356.338567 
C 333.14215 351.939967 331.475477 347.716633 329.217672 343.806 
L 289.581421 366.69 
L 267.288803 326.718147 
z
" style="fill:#ff7f0e;stroke:#ffffff;stroke-linejoin:miter;"/>
   </g>
   <g id="text_52">
    <!-- Yes -->
    <g style="fill:#262626;" transform="translate(304.189866 316.506241)scale(0.1 -0.1)">
     <use xlink:href="#DejaVuSans-59"/>
     <use x="47.833984" xlink:href="#DejaVuSans-65"/>
     <use x="109.357422" xlink:href="#DejaVuSans-73"/>
    </g>
   </g>
   <g id="text_53">
    <!-- 25% -->
    <g style="fill:#262626;" transform="translate(286.989733 338.56588)scale(0.1 -0.1)">
     <use xlink:href="#DejaVuSans-32"/>
     <use x="63.623047" xlink:href="#DejaVuSans-35"/>
     <use x="127.246094" xlink:href="#DejaVuSans-25"/>
    </g>
   </g>
   <g id="text_54">
    <!-- No -->
    <g style="fill:#262626;" transform="translate(262.590346 417.980581)scale(0.1 -0.1)">
     <use xlink:href="#DejaVuSans-4e"/>
     <use x="74.804688" xlink:href="#DejaVuSans-6f"/>
    </g>
   </g>
   <g id="text_55">
    <!-- 75% -->
    <g style="fill:#262626;" transform="translate(271.163917 395.920942)scale(0.1 -0.1)">
     <use xlink:href="#DejaVuSans-37"/>
     <use x="63.623047" xlink:href="#DejaVuSans-35"/>
     <use x="127.246094" xlink:href="#DejaVuSans-25"/>
    </g>
   </g>
   <g id="text_56">
    <!-- Contact Email -->
    <g style="fill:#262626;" transform="translate(247.684546 303.48)scale(0.12 -0.12)">
     <use xlink:href="#DejaVuSans-43"/>
     <use x="69.824219" xlink:href="#DejaVuSans-6f"/>
     <use x="131.005859" xlink:href="#DejaVuSans-6e"/>
     <use x="194.384766" xlink:href="#DejaVuSans-74"/>
     <use x="233.59375" xlink:href="#DejaVuSans-61"/>
     <use x="294.873047" xlink:href="#DejaVuSans-63"/>
     <use x="349.853516" xlink:href="#DejaVuSans-74"/>
     <use x="389.0625" xlink:href="#DejaVuSans-20"/>
     <use x="420.849609" xlink:href="#DejaVuSans-45"/>
     <use x="484.033203" xlink:href="#DejaVuSans-6d"/>
     <use x="581.445312" xlink:href="#DejaVuSans-61"/>
     <use x="642.724609" xlink:href="#DejaVuSans-69"/>
     <use x="670.507812" xlink:href="#DejaVuSans-6c"/>
    </g>
   </g>
  </g>
  <g id="axes_11">
   <g id="matplotlib.axis_21"/>
   <g id="matplotlib.axis_22"/>
   <g id="patch_25">
    <path d="M 522.190755 340.879376 
C 520.891832 338.629576 519.403713 336.494448 517.742528 334.497135 
C 516.081342 332.499822 514.253113 330.647567 512.277659 328.960446 
L 482.554504 363.763376 
L 522.190755 340.879376 
z
" style="fill:#1f77b4;stroke:#ffffff;stroke-linejoin:miter;"/>
   </g>
   <g id="patch_26">
    <path d="M 508.758856 331.88707 
C 504.4376 328.196537 499.466554 325.342892 494.100502 323.472392 
C 488.734449 321.601893 483.066659 320.747052 477.387627 320.951683 
C 471.708594 321.156314 466.117027 322.41686 460.899514 324.668713 
C 455.682001 326.920567 450.929229 330.124589 446.884795 334.11656 
C 442.84036 338.108532 439.57456 342.819067 437.25478 348.006736 
C 434.934999 353.194404 433.601558 358.769037 433.3228 364.444914 
C 433.044042 370.120791 433.824812 375.799259 435.625094 381.189275 
C 437.425376 386.579291 440.213877 391.58717 443.847678 395.95624 
C 447.481479 400.325311 451.897419 403.979633 456.869166 406.731909 
C 461.840912 409.484186 467.282049 411.286578 472.9137 412.046708 
C 478.545351 412.806837 484.26963 412.511492 489.793147 411.175809 
C 495.316664 409.840126 500.543412 407.487322 505.205505 404.237986 
C 509.867597 400.98865 513.883998 396.89926 517.048854 392.179411 
C 520.213711 387.459562 522.472012 382.191292 523.708013 376.644618 
C 524.944014 371.097945 525.136231 365.369276 524.274812 359.752226 
C 523.413394 354.135177 521.513312 348.727379 518.671952 343.806 
L 479.035702 366.69 
L 508.758856 331.88707 
z
" style="fill:#ff7f0e;stroke:#ffffff;stroke-linejoin:miter;"/>
   </g>
   <g id="text_57">
    <!-- Yes -->
    <g style="fill:#262626;" transform="translate(521.26133 334.329886)scale(0.1 -0.1)">
     <use xlink:href="#DejaVuSans-59"/>
     <use x="47.833984" xlink:href="#DejaVuSans-65"/>
     <use x="109.357422" xlink:href="#DejaVuSans-73"/>
    </g>
   </g>
   <g id="text_58">
    <!-- 5% -->
    <g style="fill:#262626;" transform="translate(495.735287 348.963007)scale(0.1 -0.1)">
     <use xlink:href="#DejaVuSans-35"/>
     <use x="63.623047" xlink:href="#DejaVuSans-25"/>
    </g>
   </g>
   <g id="text_59">
    <!-- No -->
    <g style="fill:#262626;" transform="translate(426.728876 401.64224)scale(0.1 -0.1)">
     <use xlink:href="#DejaVuSans-4e"/>
     <use x="74.804688" xlink:href="#DejaVuSans-6f"/>
    </g>
   </g>
   <g id="text_60">
    <!-- 95% -->
    <g style="fill:#262626;" transform="translate(446.809606 387.009119)scale(0.1 -0.1)">
     <use xlink:href="#DejaVuSans-39"/>
     <use x="63.623047" xlink:href="#DejaVuSans-35"/>
     <use x="127.246094" xlink:href="#DejaVuSans-25"/>
    </g>
   </g>
   <g id="text_61">
    <!-- Wikidata Database -->
    <g style="fill:#262626;" transform="translate(422.378827 303.48)scale(0.12 -0.12)">
     <defs>
      <path d="M 213 4666 
L 850 4666 
L 1831 722 
L 2809 4666 
L 3519 4666 
L 4500 722 
L 5478 4666 
L 6119 4666 
L 4947 0 
L 4153 0 
L 3169 4050 
L 2175 0 
L 1381 0 
L 213 4666 
z
" id="DejaVuSans-57" transform="scale(0.015625)"/>
      <path d="M 581 4863 
L 1159 4863 
L 1159 1991 
L 2875 3500 
L 3609 3500 
L 1753 1863 
L 3688 0 
L 2938 0 
L 1159 1709 
L 1159 0 
L 581 0 
L 581 4863 
z
" id="DejaVuSans-6b" transform="scale(0.015625)"/>
      <path d="M 3116 1747 
Q 3116 2381 2855 2742 
Q 2594 3103 2138 3103 
Q 1681 3103 1420 2742 
Q 1159 2381 1159 1747 
Q 1159 1113 1420 752 
Q 1681 391 2138 391 
Q 2594 391 2855 752 
Q 3116 1113 3116 1747 
z
M 1159 2969 
Q 1341 3281 1617 3432 
Q 1894 3584 2278 3584 
Q 2916 3584 3314 3078 
Q 3713 2572 3713 1747 
Q 3713 922 3314 415 
Q 2916 -91 2278 -91 
Q 1894 -91 1617 61 
Q 1341 213 1159 525 
L 1159 0 
L 581 0 
L 581 4863 
L 1159 4863 
L 1159 2969 
z
" id="DejaVuSans-62" transform="scale(0.015625)"/>
     </defs>
     <use xlink:href="#DejaVuSans-57"/>
     <use x="96.626953" xlink:href="#DejaVuSans-69"/>
     <use x="124.410156" xlink:href="#DejaVuSans-6b"/>
     <use x="182.320312" xlink:href="#DejaVuSans-69"/>
     <use x="210.103516" xlink:href="#DejaVuSans-64"/>
     <use x="273.580078" xlink:href="#DejaVuSans-61"/>
     <use x="334.859375" xlink:href="#DejaVuSans-74"/>
     <use x="374.068359" xlink:href="#DejaVuSans-61"/>
     <use x="435.347656" xlink:href="#DejaVuSans-20"/>
     <use x="467.134766" xlink:href="#DejaVuSans-44"/>
     <use x="544.136719" xlink:href="#DejaVuSans-61"/>
     <use x="605.416016" xlink:href="#DejaVuSans-74"/>
     <use x="644.625" xlink:href="#DejaVuSans-61"/>
     <use x="705.904297" xlink:href="#DejaVuSans-62"/>
     <use x="769.380859" xlink:href="#DejaVuSans-61"/>
     <use x="830.660156" xlink:href="#DejaVuSans-73"/>
     <use x="882.759766" xlink:href="#DejaVuSans-65"/>
    </g>
   </g>
  </g>
  <g id="axes_12">
   <g id="matplotlib.axis_23"/>
   <g id="matplotlib.axis_24"/>
   <g id="patch_27">
    <path d="M 711.200635 340.41555 
C 708.826262 336.303014 705.826232 332.584957 702.308405 329.395052 
C 698.790578 326.205146 694.797624 323.582086 690.4731 321.620175 
L 671.564385 363.29955 
L 711.200635 340.41555 
z
" style="fill:#1f77b4;stroke:#ffffff;stroke-linejoin:miter;"/>
   </g>
   <g id="patch_28">
    <path d="M 687.398698 325.010625 
C 682.469574 322.774425 677.182615 321.430252 671.783995 321.040692 
C 666.385375 320.651133 660.960205 321.222329 655.761094 322.727684 
C 650.561982 324.23304 645.670895 326.648822 641.315574 329.862547 
C 636.960252 333.076271 633.209358 337.037273 630.237543 341.561118 
C 627.265729 346.084962 625.119844 351.10033 623.899808 356.373694 
C 622.679772 361.647058 622.404818 367.095281 623.087748 372.464682 
C 623.770679 377.834082 625.400728 383.040009 627.901996 387.840062 
C 630.403264 392.640116 633.736317 396.958621 637.745962 400.594499 
C 641.755607 404.230376 646.378629 407.126304 651.39977 409.147443 
C 656.42091 411.168581 661.761009 412.283065 667.17142 412.439002 
C 672.58183 412.594939 677.977254 411.789871 683.106468 410.061283 
C 688.235682 408.332695 693.017822 405.707839 697.230221 402.308934 
C 701.44262 398.91003 705.018868 394.790663 707.792445 390.142639 
C 710.566022 385.494615 712.493203 380.391214 713.484253 375.07006 
C 714.475304 369.748907 714.514599 364.293892 713.60031 358.959013 
C 712.686021 353.624134 710.832562 348.493498 708.126233 343.806 
L 668.489983 366.69 
L 687.398698 325.010625 
z
" style="fill:#ff7f0e;stroke:#ffffff;stroke-linejoin:miter;"/>
   </g>
   <g id="text_62">
    <!-- Yes -->
    <g style="fill:#262626;" transform="translate(705.382807 328.763977)scale(0.1 -0.1)">
     <use xlink:href="#DejaVuSans-59"/>
     <use x="47.833984" xlink:href="#DejaVuSans-65"/>
     <use x="109.357422" xlink:href="#DejaVuSans-73"/>
    </g>
   </g>
   <g id="text_63">
    <!-- 10% -->
    <g style="fill:#262626;" transform="translate(678.897516 345.716226)scale(0.1 -0.1)">
     <use xlink:href="#DejaVuSans-31"/>
     <use x="63.623047" xlink:href="#DejaVuSans-30"/>
     <use x="127.246094" xlink:href="#DejaVuSans-25"/>
    </g>
   </g>
   <g id="text_64">
    <!-- No -->
    <g style="fill:#262626;" transform="translate(621.07156 406.744323)scale(0.1 -0.1)">
     <use xlink:href="#DejaVuSans-4e"/>
     <use x="74.804688" xlink:href="#DejaVuSans-6f"/>
    </g>
   </g>
   <g id="text_65">
    <!-- 90% -->
    <g style="fill:#262626;" transform="translate(638.930289 389.792074)scale(0.1 -0.1)">
     <use xlink:href="#DejaVuSans-39"/>
     <use x="63.623047" xlink:href="#DejaVuSans-30"/>
     <use x="127.246094" xlink:href="#DejaVuSans-25"/>
    </g>
   </g>
   <g id="text_66">
    <!-- OBO -->
    <g style="fill:#262626;" transform="translate(655.03217 303.48)scale(0.12 -0.12)">
     <use xlink:href="#DejaVuSans-4f"/>
     <use x="78.710938" xlink:href="#DejaVuSans-42"/>
     <use x="145.564453" xlink:href="#DejaVuSans-4f"/>
    </g>
   </g>
  </g>
  <g id="axes_13">
   <g id="matplotlib.axis_25"/>
   <g id="matplotlib.axis_26"/>
   <g id="patch_29">
    <path d="M 141.087652 480.724969 
C 135.271626 470.651318 125.828509 463.164303 114.69401 459.798661 
C 103.559512 456.433019 91.550236 457.435586 81.12792 462.600849 
L 101.451401 503.608969 
L 141.087652 480.724969 
z
" style="fill:#1f77b4;stroke:#ffffff;stroke-linejoin:miter;"/>
   </g>
   <g id="patch_30">
    <path d="M 79.803659 466.98188 
C 75.715904 469.007757 71.953943 471.633506 68.642712 474.771924 
C 65.331481 477.910342 62.508047 481.526297 60.266179 485.499701 
C 58.02431 489.473105 56.389102 493.75948 55.414861 498.216471 
C 54.44062 502.673462 54.138252 507.251178 54.517798 511.79759 
C 54.897345 516.344002 55.954558 520.808217 57.654326 525.041975 
C 59.354094 529.275733 61.67739 533.23164 64.547055 536.77832 
C 67.416721 540.325 70.800633 543.422749 74.586409 545.96869 
C 78.372186 548.514631 82.517448 550.480263 86.884529 551.800308 
C 91.25161 553.120352 95.791625 553.780032 100.353796 553.757439 
C 104.915968 553.734845 109.449226 553.030232 113.803019 551.666998 
C 118.156811 550.303765 122.282402 548.297172 126.042776 545.71386 
C 129.803151 543.130548 133.156215 539.999435 135.990612 536.424507 
C 138.825009 532.849579 141.10901 528.870854 142.766762 524.620469 
C 144.424514 520.370083 145.437459 515.895617 145.771957 511.345669 
C 146.106456 506.79572 145.758763 502.221224 144.740426 497.7741 
C 143.722088 493.326977 142.044506 489.057009 139.763393 485.106004 
L 100.12714 507.99 
L 79.803659 466.98188 
z
" style="fill:#ff7f0e;stroke:#ffffff;stroke-linejoin:miter;"/>
   </g>
   <g id="text_67">
    <!-- Yes -->
    <g style="fill:#262626;" transform="translate(116.018271 458.177005)scale(0.1 -0.1)">
     <use xlink:href="#DejaVuSans-59"/>
     <use x="47.833984" xlink:href="#DejaVuSans-65"/>
     <use x="109.357422" xlink:href="#DejaVuSans-73"/>
    </g>
   </g>
   <g id="text_68">
    <!-- 24% -->
    <g style="fill:#262626;" transform="translate(98.283686 480.082159)scale(0.1 -0.1)">
     <use xlink:href="#DejaVuSans-32"/>
     <use x="63.623047" xlink:href="#DejaVuSans-34"/>
     <use x="127.246094" xlink:href="#DejaVuSans-25"/>
    </g>
   </g>
   <g id="text_69">
    <!-- No -->
    <g style="fill:#262626;" transform="translate(71.960268 558.940714)scale(0.1 -0.1)">
     <use xlink:href="#DejaVuSans-4e"/>
     <use x="74.804688" xlink:href="#DejaVuSans-6f"/>
    </g>
   </g>
   <g id="text_70">
    <!-- 76% -->
    <g style="fill:#262626;" transform="translate(81.068292 537.03556)scale(0.1 -0.1)">
     <use xlink:href="#DejaVuSans-37"/>
     <use x="63.623047" xlink:href="#DejaVuSans-36"/>
     <use x="127.246094" xlink:href="#DejaVuSans-25"/>
    </g>
   </g>
   <g id="text_71">
    <!-- OWL -->
    <g style="fill:#262626;" transform="translate(86.12839 444.78)scale(0.12 -0.12)">
     <use xlink:href="#DejaVuSans-4f"/>
     <use x="78.710938" xlink:href="#DejaVuSans-57"/>
     <use x="177.587891" xlink:href="#DejaVuSans-4c"/>
    </g>
   </g>
  </g>
  <g id="axes_14">
   <g id="matplotlib.axis_27"/>
   <g id="matplotlib.axis_28"/>
   <g id="patch_31">
    <path d="M 333.065387 482.627657 
C 332.694472 481.985213 332.307992 481.351881 331.906289 480.728225 
C 331.504587 480.104568 331.087782 479.490769 330.656242 478.887374 
L 293.429136 505.511657 
L 333.065387 482.627657 
z
" style="fill:#1f77b4;stroke:#ffffff;stroke-linejoin:miter;"/>
   </g>
   <g id="patch_32">
    <path d="M 326.808527 481.365717 
C 323.366707 476.553231 319.024125 472.453496 314.02175 469.294004 
C 309.019375 466.134512 303.451476 463.974803 297.627013 462.93472 
C 291.802549 461.894636 285.831284 461.993778 280.044558 463.226644 
C 274.257833 464.459509 268.764699 466.802865 263.869967 470.126681 
C 258.975235 473.450496 254.771147 477.692132 251.490985 482.616225 
C 248.210822 487.540317 245.916401 493.05407 244.735037 498.851528 
C 243.553673 504.648987 243.507629 510.620898 244.599459 516.435883 
C 245.69129 522.250868 247.90042 527.799344 251.104266 532.773429 
C 254.308112 537.747514 258.446297 542.053471 263.289196 545.452364 
C 268.132095 548.851258 273.588443 551.279036 279.35547 552.600982 
C 285.122498 553.922929 291.091525 554.114132 296.931333 553.163982 
C 302.771141 552.213831 308.37168 550.140233 313.422178 547.05825 
C 318.472675 543.976267 322.877956 539.943979 326.393572 535.185135 
C 329.909188 530.426292 332.468888 525.030574 333.930636 519.297386 
C 335.392384 513.564198 335.728632 507.601583 334.920724 501.740403 
C 334.112815 495.879223 332.175974 490.229932 329.217676 485.106006 
L 289.581421 507.99 
L 326.808527 481.365717 
z
" style="fill:#ff7f0e;stroke:#ffffff;stroke-linejoin:miter;"/>
   </g>
   <g id="text_72">
    <!-- Yes -->
    <g style="fill:#262626;" transform="translate(335.754005 481.009256)scale(0.1 -0.1)">
     <use xlink:href="#DejaVuSans-59"/>
     <use x="47.833984" xlink:href="#DejaVuSans-65"/>
     <use x="109.357422" xlink:href="#DejaVuSans-73"/>
    </g>
   </g>
   <g id="text_73">
    <!-- 2% -->
    <g style="fill:#262626;" transform="translate(308.583397 493.400972)scale(0.1 -0.1)">
     <use xlink:href="#DejaVuSans-32"/>
     <use x="63.623047" xlink:href="#DejaVuSans-25"/>
    </g>
   </g>
   <g id="text_74">
    <!-- No -->
    <g style="fill:#262626;" transform="translate(233.65655 538.011147)scale(0.1 -0.1)">
     <use xlink:href="#DejaVuSans-4e"/>
     <use x="74.804688" xlink:href="#DejaVuSans-6f"/>
    </g>
   </g>
   <g id="text_75">
    <!-- 98% -->
    <g style="fill:#262626;" transform="translate(255.381847 525.619432)scale(0.1 -0.1)">
     <use xlink:href="#DejaVuSans-39"/>
     <use x="63.623047" xlink:href="#DejaVuSans-38"/>
     <use x="127.246094" xlink:href="#DejaVuSans-25"/>
    </g>
   </g>
   <g id="text_76">
    <!-- JSON -->
    <g style="fill:#262626;" transform="translate(274.790484 444.78)scale(0.12 -0.12)">
     <defs>
      <path d="M 628 4666 
L 1259 4666 
L 1259 325 
Q 1259 -519 939 -900 
Q 619 -1281 -91 -1281 
L -331 -1281 
L -331 -750 
L -134 -750 
Q 284 -750 456 -515 
Q 628 -281 628 325 
L 628 4666 
z
" id="DejaVuSans-4a" transform="scale(0.015625)"/>
      <path d="M 3425 4513 
L 3425 3897 
Q 3066 4069 2747 4153 
Q 2428 4238 2131 4238 
Q 1616 4238 1336 4038 
Q 1056 3838 1056 3469 
Q 1056 3159 1242 3001 
Q 1428 2844 1947 2747 
L 2328 2669 
Q 3034 2534 3370 2195 
Q 3706 1856 3706 1288 
Q 3706 609 3251 259 
Q 2797 -91 1919 -91 
Q 1588 -91 1214 -16 
Q 841 59 441 206 
L 441 856 
Q 825 641 1194 531 
Q 1563 422 1919 422 
Q 2459 422 2753 634 
Q 3047 847 3047 1241 
Q 3047 1584 2836 1778 
Q 2625 1972 2144 2069 
L 1759 2144 
Q 1053 2284 737 2584 
Q 422 2884 422 3419 
Q 422 4038 858 4394 
Q 1294 4750 2059 4750 
Q 2388 4750 2728 4690 
Q 3069 4631 3425 4513 
z
" id="DejaVuSans-53" transform="scale(0.015625)"/>
     </defs>
     <use xlink:href="#DejaVuSans-4a"/>
     <use x="29.492188" xlink:href="#DejaVuSans-53"/>
     <use x="92.96875" xlink:href="#DejaVuSans-4f"/>
     <use x="171.679688" xlink:href="#DejaVuSans-4e"/>
    </g>
   </g>
  </g>
  <g id="axes_15"/>
  <g id="axes_16"/>
  <g id="text_77">
   <!-- https://github.com/bioregistry/bioregistry (2021-07-07) -->
   <g style="fill:#808080;opacity:0.5;" transform="translate(285.830625 574.33625)scale(0.08 -0.08)">
    <defs>
     <path d="M 750 794 
L 1409 794 
L 1409 0 
L 750 0 
L 750 794 
z
M 750 3309 
L 1409 3309 
L 1409 2516 
L 750 2516 
L 750 3309 
z
" id="DejaVuSans-3a" transform="scale(0.015625)"/>
     <path d="M 1625 4666 
L 2156 4666 
L 531 -594 
L 0 -594 
L 1625 4666 
z
" id="DejaVuSans-2f" transform="scale(0.015625)"/>
     <path d="M 544 1381 
L 544 3500 
L 1119 3500 
L 1119 1403 
Q 1119 906 1312 657 
Q 1506 409 1894 409 
Q 2359 409 2629 706 
Q 2900 1003 2900 1516 
L 2900 3500 
L 3475 3500 
L 3475 0 
L 2900 0 
L 2900 538 
Q 2691 219 2414 64 
Q 2138 -91 1772 -91 
Q 1169 -91 856 284 
Q 544 659 544 1381 
z
M 1991 3584 
L 1991 3584 
z
" id="DejaVuSans-75" transform="scale(0.015625)"/>
     <path d="M 1984 4856 
Q 1566 4138 1362 3434 
Q 1159 2731 1159 2009 
Q 1159 1288 1364 580 
Q 1569 -128 1984 -844 
L 1484 -844 
Q 1016 -109 783 600 
Q 550 1309 550 2009 
Q 550 2706 781 3412 
Q 1013 4119 1484 4856 
L 1984 4856 
z
" id="DejaVuSans-28" transform="scale(0.015625)"/>
     <path d="M 513 4856 
L 1013 4856 
Q 1481 4119 1714 3412 
Q 1947 2706 1947 2009 
Q 1947 1309 1714 600 
Q 1481 -109 1013 -844 
L 513 -844 
Q 928 -128 1133 580 
Q 1338 1288 1338 2009 
Q 1338 2731 1133 3434 
Q 928 4138 513 4856 
z
" id="DejaVuSans-29" transform="scale(0.015625)"/>
    </defs>
    <use xlink:href="#DejaVuSans-68"/>
    <use x="63.378906" xlink:href="#DejaVuSans-74"/>
    <use x="102.587891" xlink:href="#DejaVuSans-74"/>
    <use x="141.796875" xlink:href="#DejaVuSans-70"/>
    <use x="205.273438" xlink:href="#DejaVuSans-73"/>
    <use x="257.373047" xlink:href="#DejaVuSans-3a"/>
    <use x="291.064453" xlink:href="#DejaVuSans-2f"/>
    <use x="324.755859" xlink:href="#DejaVuSans-2f"/>
    <use x="358.447266" xlink:href="#DejaVuSans-67"/>
    <use x="421.923828" xlink:href="#DejaVuSans-69"/>
    <use x="449.707031" xlink:href="#DejaVuSans-74"/>
    <use x="488.916016" xlink:href="#DejaVuSans-68"/>
    <use x="552.294922" xlink:href="#DejaVuSans-75"/>
    <use x="615.673828" xlink:href="#DejaVuSans-62"/>
    <use x="679.150391" xlink:href="#DejaVuSans-2e"/>
    <use x="710.9375" xlink:href="#DejaVuSans-63"/>
    <use x="765.917969" xlink:href="#DejaVuSans-6f"/>
    <use x="827.099609" xlink:href="#DejaVuSans-6d"/>
    <use x="924.511719" xlink:href="#DejaVuSans-2f"/>
    <use x="958.203125" xlink:href="#DejaVuSans-62"/>
    <use x="1021.679688" xlink:href="#DejaVuSans-69"/>
    <use x="1049.462891" xlink:href="#DejaVuSans-6f"/>
    <use x="1110.644531" xlink:href="#DejaVuSans-72"/>
    <use x="1149.507812" xlink:href="#DejaVuSans-65"/>
    <use x="1211.03125" xlink:href="#DejaVuSans-67"/>
    <use x="1274.507812" xlink:href="#DejaVuSans-69"/>
    <use x="1302.291016" xlink:href="#DejaVuSans-73"/>
    <use x="1354.390625" xlink:href="#DejaVuSans-74"/>
    <use x="1393.599609" xlink:href="#DejaVuSans-72"/>
    <use x="1434.712891" xlink:href="#DejaVuSans-79"/>
    <use x="1493.892578" xlink:href="#DejaVuSans-2f"/>
    <use x="1527.583984" xlink:href="#DejaVuSans-62"/>
    <use x="1591.060547" xlink:href="#DejaVuSans-69"/>
    <use x="1618.84375" xlink:href="#DejaVuSans-6f"/>
    <use x="1680.025391" xlink:href="#DejaVuSans-72"/>
    <use x="1718.888672" xlink:href="#DejaVuSans-65"/>
    <use x="1780.412109" xlink:href="#DejaVuSans-67"/>
    <use x="1843.888672" xlink:href="#DejaVuSans-69"/>
    <use x="1871.671875" xlink:href="#DejaVuSans-73"/>
    <use x="1923.771484" xlink:href="#DejaVuSans-74"/>
    <use x="1962.980469" xlink:href="#DejaVuSans-72"/>
    <use x="2004.09375" xlink:href="#DejaVuSans-79"/>
    <use x="2063.273438" xlink:href="#DejaVuSans-20"/>
    <use x="2095.060547" xlink:href="#DejaVuSans-28"/>
    <use x="2134.074219" xlink:href="#DejaVuSans-32"/>
    <use x="2197.697266" xlink:href="#DejaVuSans-30"/>
    <use x="2261.320312" xlink:href="#DejaVuSans-32"/>
    <use x="2324.943359" xlink:href="#DejaVuSans-31"/>
    <use x="2388.566406" xlink:href="#DejaVuSans-2d"/>
    <use x="2424.650391" xlink:href="#DejaVuSans-30"/>
    <use x="2488.273438" xlink:href="#DejaVuSans-37"/>
    <use x="2551.896484" xlink:href="#DejaVuSans-2d"/>
    <use x="2587.980469" xlink:href="#DejaVuSans-30"/>
    <use x="2651.603516" xlink:href="#DejaVuSans-37"/>
    <use x="2715.226562" xlink:href="#DejaVuSans-29"/>
   </g>
  </g>
 </g>
</svg>
