<?xml version="1.0" encoding="utf-8" standalone="no"?>
<!DOCTYPE svg PUBLIC "-//W3C//DTD SVG 1.1//EN"
  "http://www.w3.org/Graphics/SVG/1.1/DTD/svg11.dtd">
<svg xmlns:xlink="http://www.w3.org/1999/xlink" width="792pt" height="576pt" viewBox="0 0 792 576" xmlns="http://www.w3.org/2000/svg" version="1.1">
 <metadata>
  <rdf:RDF xmlns:dc="http://purl.org/dc/elements/1.1/" xmlns:cc="http://creativecommons.org/ns#" xmlns:rdf="http://www.w3.org/1999/02/22-rdf-syntax-ns#">
   <cc:Work>
    <dc:type rdf:resource="http://purl.org/dc/dcmitype/StillImage"/>
    <dc:date>2024-10-26T02:07:59.873414</dc:date>
    <dc:format>image/svg+xml</dc:format>
    <dc:creator>
     <cc:Agent>
      <dc:title>Matplotlib v3.9.2, https://matplotlib.org/</dc:title>
     </cc:Agent>
    </dc:creator>
   </cc:Work>
  </rdf:RDF>
 </metadata>
 <defs>
  <style type="text/css">*{stroke-linejoin: round; stroke-linecap: butt}</style>
 </defs>
 <g id="figure_1">
  <g id="patch_1">
   <path d="M 0 576 
L 792 576 
L 792 0 
L 0 0 
z
" style="fill: #ffffff"/>
  </g>
  <g id="axes_1">
   <g id="matplotlib.axis_1"/>
   <g id="matplotlib.axis_2"/>
   <g id="patch_2">
    <path d="M 136.702985 62.325749 
C 133.963775 57.581298 130.394822 53.366987 126.166311 49.883774 
C 121.937799 46.400561 117.118026 43.704706 111.936822 41.924759 
C 106.755618 40.144813 101.296668 39.309525 95.820281 39.458725 
C 90.343893 39.607925 84.93852 40.739204 79.861917 42.798617 
C 74.785314 44.85803 70.119475 47.812314 66.08689 51.520595 
C 62.054306 55.228875 58.720109 59.631258 56.243289 64.517815 
C 53.766469 69.404373 52.187031 74.69618 51.580291 80.140898 
C 50.97355 85.585615 51.349307 91.095302 52.689643 96.40723 
C 54.029979 101.719159 56.313246 106.747532 59.430567 111.252573 
C 62.547887 115.757614 66.448911 119.66656 70.94762 122.793012 
C 75.446329 125.919464 80.47006 128.212926 85.779258 129.564035 
C 91.088457 130.915143 96.59737 131.302076 102.043307 130.706381 
C 107.489245 130.110686 112.784244 128.541986 117.675816 126.075083 
C 122.567388 123.608181 126.976525 120.28292 130.692978 116.257866 
C 134.409431 112.232812 137.373173 107.572975 139.442879 102.50056 
C 141.512586 97.428145 142.654827 92.025078 142.815136 86.549004 
L 97.066734 85.209749 
z
" style="fill: #1f77b4; stroke: #ffffff; stroke-linejoin: miter"/>
   </g>
   <g id="patch_3">
    <path d="M 147.252846 85.429263 
C 147.376445 81.207115 146.91496 76.988109 145.881536 72.89252 
C 144.848113 68.79693 143.252672 64.864051 141.140693 61.205997 
L 101.504443 84.09 
z
" style="fill: #ff7f0e; stroke: #ffffff; stroke-linejoin: miter"/>
   </g>
   <g id="text_1">
    <!-- Yes -->
    <g style="fill: #262626" transform="translate(32.106623 100.286359) scale(0.1 -0.1)">
     <defs>
      <path id="DejaVuSans-59" d="M -13 4666 
L 666 4666 
L 1959 2747 
L 3244 4666 
L 3922 4666 
L 2272 2222 
L 2272 0 
L 1638 0 
L 1638 2222 
L -13 4666 
z
" transform="scale(0.015625)"/>
      <path id="DejaVuSans-65" d="M 3597 1894 
L 3597 1613 
L 953 1613 
Q 991 1019 1311 708 
Q 1631 397 2203 397 
Q 2534 397 2845 478 
Q 3156 559 3463 722 
L 3463 178 
Q 3153 47 2828 -22 
Q 2503 -91 2169 -91 
Q 1331 -91 842 396 
Q 353 884 353 1716 
Q 353 2575 817 3079 
Q 1281 3584 2069 3584 
Q 2775 3584 3186 3129 
Q 3597 2675 3597 1894 
z
M 3022 2063 
Q 3016 2534 2758 2815 
Q 2500 3097 2075 3097 
Q 1594 3097 1305 2825 
Q 1016 2553 972 2059 
L 3022 2063 
z
" transform="scale(0.015625)"/>
      <path id="DejaVuSans-73" d="M 2834 3397 
L 2834 2853 
Q 2591 2978 2328 3040 
Q 2066 3103 1784 3103 
Q 1356 3103 1142 2972 
Q 928 2841 928 2578 
Q 928 2378 1081 2264 
Q 1234 2150 1697 2047 
L 1894 2003 
Q 2506 1872 2764 1633 
Q 3022 1394 3022 966 
Q 3022 478 2636 193 
Q 2250 -91 1575 -91 
Q 1294 -91 989 -36 
Q 684 19 347 128 
L 347 722 
Q 666 556 975 473 
Q 1284 391 1588 391 
Q 1994 391 2212 530 
Q 2431 669 2431 922 
Q 2431 1156 2273 1281 
Q 2116 1406 1581 1522 
L 1381 1569 
Q 847 1681 609 1914 
Q 372 2147 372 2553 
Q 372 3047 722 3315 
Q 1072 3584 1716 3584 
Q 2034 3584 2315 3537 
Q 2597 3491 2834 3397 
z
" transform="scale(0.015625)"/>
     </defs>
     <use xlink:href="#DejaVuSans-59"/>
     <use xlink:href="#DejaVuSans-65" x="47.833984"/>
     <use xlink:href="#DejaVuSans-73" x="109.357422"/>
    </g>
   </g>
   <g id="text_2">
    <!-- 91% -->
    <g style="fill: #262626" transform="translate(59.327199 94.687615) scale(0.1 -0.1)">
     <defs>
      <path id="DejaVuSans-39" d="M 703 97 
L 703 672 
Q 941 559 1184 500 
Q 1428 441 1663 441 
Q 2288 441 2617 861 
Q 2947 1281 2994 2138 
Q 2813 1869 2534 1725 
Q 2256 1581 1919 1581 
Q 1219 1581 811 2004 
Q 403 2428 403 3163 
Q 403 3881 828 4315 
Q 1253 4750 1959 4750 
Q 2769 4750 3195 4129 
Q 3622 3509 3622 2328 
Q 3622 1225 3098 567 
Q 2575 -91 1691 -91 
Q 1453 -91 1209 -44 
Q 966 3 703 97 
z
M 1959 2075 
Q 2384 2075 2632 2365 
Q 2881 2656 2881 3163 
Q 2881 3666 2632 3958 
Q 2384 4250 1959 4250 
Q 1534 4250 1286 3958 
Q 1038 3666 1038 3163 
Q 1038 2656 1286 2365 
Q 1534 2075 1959 2075 
z
" transform="scale(0.015625)"/>
      <path id="DejaVuSans-31" d="M 794 531 
L 1825 531 
L 1825 4091 
L 703 3866 
L 703 4441 
L 1819 4666 
L 2450 4666 
L 2450 531 
L 3481 531 
L 3481 0 
L 794 0 
L 794 531 
z
" transform="scale(0.015625)"/>
      <path id="DejaVuSans-25" d="M 4653 2053 
Q 4381 2053 4226 1822 
Q 4072 1591 4072 1178 
Q 4072 772 4226 539 
Q 4381 306 4653 306 
Q 4919 306 5073 539 
Q 5228 772 5228 1178 
Q 5228 1588 5073 1820 
Q 4919 2053 4653 2053 
z
M 4653 2450 
Q 5147 2450 5437 2106 
Q 5728 1763 5728 1178 
Q 5728 594 5436 251 
Q 5144 -91 4653 -91 
Q 4153 -91 3862 251 
Q 3572 594 3572 1178 
Q 3572 1766 3864 2108 
Q 4156 2450 4653 2450 
z
M 1428 4353 
Q 1159 4353 1004 4120 
Q 850 3888 850 3481 
Q 850 3069 1003 2837 
Q 1156 2606 1428 2606 
Q 1700 2606 1854 2837 
Q 2009 3069 2009 3481 
Q 2009 3884 1853 4118 
Q 1697 4353 1428 4353 
z
M 4250 4750 
L 4750 4750 
L 1831 -91 
L 1331 -91 
L 4250 4750 
z
M 1428 4750 
Q 1922 4750 2215 4408 
Q 2509 4066 2509 3481 
Q 2509 2891 2217 2550 
Q 1925 2209 1428 2209 
Q 931 2209 642 2551 
Q 353 2894 353 3481 
Q 353 4063 643 4406 
Q 934 4750 1428 4750 
z
" transform="scale(0.015625)"/>
     </defs>
     <use xlink:href="#DejaVuSans-39"/>
     <use xlink:href="#DejaVuSans-31" x="63.623047"/>
     <use xlink:href="#DejaVuSans-25" x="127.246094"/>
    </g>
   </g>
   <g id="text_3">
    <!-- No -->
    <g style="fill: #262626" transform="translate(150.319238 74.532124) scale(0.1 -0.1)">
     <defs>
      <path id="DejaVuSans-4e" d="M 628 4666 
L 1478 4666 
L 3547 763 
L 3547 4666 
L 4159 4666 
L 4159 0 
L 3309 0 
L 1241 3903 
L 1241 0 
L 628 0 
L 628 4666 
z
" transform="scale(0.015625)"/>
      <path id="DejaVuSans-6f" d="M 1959 3097 
Q 1497 3097 1228 2736 
Q 959 2375 959 1747 
Q 959 1119 1226 758 
Q 1494 397 1959 397 
Q 2419 397 2687 759 
Q 2956 1122 2956 1747 
Q 2956 2369 2687 2733 
Q 2419 3097 1959 3097 
z
M 1959 3584 
Q 2709 3584 3137 3096 
Q 3566 2609 3566 1747 
Q 3566 888 3137 398 
Q 2709 -91 1959 -91 
Q 1206 -91 779 398 
Q 353 888 353 1747 
Q 353 2609 779 3096 
Q 1206 3584 1959 3584 
z
" transform="scale(0.015625)"/>
     </defs>
     <use xlink:href="#DejaVuSans-4e"/>
     <use xlink:href="#DejaVuSans-6f" x="74.804688"/>
    </g>
   </g>
   <g id="text_4">
    <!-- 9% -->
    <g style="fill: #262626" transform="translate(120.198664 80.130875) scale(0.1 -0.1)">
     <use xlink:href="#DejaVuSans-39"/>
     <use xlink:href="#DejaVuSans-25" x="63.623047"/>
    </g>
   </g>
   <g id="text_5">
    <!-- Name -->
    <g style="fill: #262626" transform="translate(83.802568 20.88) scale(0.12 -0.12)">
     <defs>
      <path id="DejaVuSans-61" d="M 2194 1759 
Q 1497 1759 1228 1600 
Q 959 1441 959 1056 
Q 959 750 1161 570 
Q 1363 391 1709 391 
Q 2188 391 2477 730 
Q 2766 1069 2766 1631 
L 2766 1759 
L 2194 1759 
z
M 3341 1997 
L 3341 0 
L 2766 0 
L 2766 531 
Q 2569 213 2275 61 
Q 1981 -91 1556 -91 
Q 1019 -91 701 211 
Q 384 513 384 1019 
Q 384 1609 779 1909 
Q 1175 2209 1959 2209 
L 2766 2209 
L 2766 2266 
Q 2766 2663 2505 2880 
Q 2244 3097 1772 3097 
Q 1472 3097 1187 3025 
Q 903 2953 641 2809 
L 641 3341 
Q 956 3463 1253 3523 
Q 1550 3584 1831 3584 
Q 2591 3584 2966 3190 
Q 3341 2797 3341 1997 
z
" transform="scale(0.015625)"/>
      <path id="DejaVuSans-6d" d="M 3328 2828 
Q 3544 3216 3844 3400 
Q 4144 3584 4550 3584 
Q 5097 3584 5394 3201 
Q 5691 2819 5691 2113 
L 5691 0 
L 5113 0 
L 5113 2094 
Q 5113 2597 4934 2840 
Q 4756 3084 4391 3084 
Q 3944 3084 3684 2787 
Q 3425 2491 3425 1978 
L 3425 0 
L 2847 0 
L 2847 2094 
Q 2847 2600 2669 2842 
Q 2491 3084 2119 3084 
Q 1678 3084 1418 2786 
Q 1159 2488 1159 1978 
L 1159 0 
L 581 0 
L 581 3500 
L 1159 3500 
L 1159 2956 
Q 1356 3278 1631 3431 
Q 1906 3584 2284 3584 
Q 2666 3584 2933 3390 
Q 3200 3197 3328 2828 
z
" transform="scale(0.015625)"/>
     </defs>
     <use xlink:href="#DejaVuSans-4e"/>
     <use xlink:href="#DejaVuSans-61" x="74.804688"/>
     <use xlink:href="#DejaVuSans-6d" x="136.083984"/>
     <use xlink:href="#DejaVuSans-65" x="233.496094"/>
    </g>
   </g>
  </g>
  <g id="axes_2">
   <g id="matplotlib.axis_3"/>
   <g id="matplotlib.axis_4"/>
   <g id="patch_4">
    <path d="M 328.911872 62.325749 
C 326.172662 57.581298 322.603709 53.366987 318.375197 49.883774 
C 314.146686 46.400561 309.326913 43.704706 304.145709 41.924759 
C 298.964505 40.144813 293.505555 39.309525 288.029167 39.458725 
C 282.55278 39.607925 277.147407 40.739204 272.070804 42.798617 
C 266.9942 44.85803 262.328362 47.812314 258.295777 51.520595 
C 254.263193 55.228875 250.928995 59.631258 248.452175 64.517815 
C 245.975355 69.404373 244.395918 74.69618 243.789177 80.140898 
C 243.182437 85.585615 243.558194 91.095302 244.89853 96.40723 
C 246.238866 101.719159 248.522133 106.747532 251.639454 111.252573 
C 254.756774 115.757614 258.657798 119.66656 263.156507 122.793012 
C 267.655215 125.919464 272.678947 128.212926 277.988145 129.564035 
C 283.297344 130.915143 288.806257 131.302076 294.252194 130.706381 
C 299.698131 130.110686 304.993131 128.541986 309.884703 126.075083 
C 314.776275 123.608181 319.185411 120.28292 322.901864 116.257866 
C 326.618317 112.232812 329.58206 107.572975 331.651766 102.50056 
C 333.721473 97.428145 334.863714 92.025078 335.024022 86.549004 
L 289.275621 85.209749 
z
" style="fill: #1f77b4; stroke: #ffffff; stroke-linejoin: miter"/>
   </g>
   <g id="patch_5">
    <path d="M 339.461732 85.429263 
C 339.585332 81.207115 339.123847 76.988109 338.090423 72.89252 
C 337.057 68.79693 335.461559 64.864051 333.34958 61.205997 
L 293.71333 84.09 
z
" style="fill: #ff7f0e; stroke: #ffffff; stroke-linejoin: miter"/>
   </g>
   <g id="text_6">
    <!-- Yes -->
    <g style="fill: #262626" transform="translate(224.31551 100.286359) scale(0.1 -0.1)">
     <use xlink:href="#DejaVuSans-59"/>
     <use xlink:href="#DejaVuSans-65" x="47.833984"/>
     <use xlink:href="#DejaVuSans-73" x="109.357422"/>
    </g>
   </g>
   <g id="text_7">
    <!-- 91% -->
    <g style="fill: #262626" transform="translate(251.536086 94.687615) scale(0.1 -0.1)">
     <use xlink:href="#DejaVuSans-39"/>
     <use xlink:href="#DejaVuSans-31" x="63.623047"/>
     <use xlink:href="#DejaVuSans-25" x="127.246094"/>
    </g>
   </g>
   <g id="text_8">
    <!-- No -->
    <g style="fill: #262626" transform="translate(342.528125 74.532124) scale(0.1 -0.1)">
     <use xlink:href="#DejaVuSans-4e"/>
     <use xlink:href="#DejaVuSans-6f" x="74.804688"/>
    </g>
   </g>
   <g id="text_9">
    <!-- 9% -->
    <g style="fill: #262626" transform="translate(312.407551 80.130875) scale(0.1 -0.1)">
     <use xlink:href="#DejaVuSans-39"/>
     <use xlink:href="#DejaVuSans-25" x="63.623047"/>
    </g>
   </g>
   <g id="text_10">
    <!-- Homepage -->
    <g style="fill: #262626" transform="translate(261.006768 20.88) scale(0.12 -0.12)">
     <defs>
      <path id="DejaVuSans-48" d="M 628 4666 
L 1259 4666 
L 1259 2753 
L 3553 2753 
L 3553 4666 
L 4184 4666 
L 4184 0 
L 3553 0 
L 3553 2222 
L 1259 2222 
L 1259 0 
L 628 0 
L 628 4666 
z
" transform="scale(0.015625)"/>
      <path id="DejaVuSans-70" d="M 1159 525 
L 1159 -1331 
L 581 -1331 
L 581 3500 
L 1159 3500 
L 1159 2969 
Q 1341 3281 1617 3432 
Q 1894 3584 2278 3584 
Q 2916 3584 3314 3078 
Q 3713 2572 3713 1747 
Q 3713 922 3314 415 
Q 2916 -91 2278 -91 
Q 1894 -91 1617 61 
Q 1341 213 1159 525 
z
M 3116 1747 
Q 3116 2381 2855 2742 
Q 2594 3103 2138 3103 
Q 1681 3103 1420 2742 
Q 1159 2381 1159 1747 
Q 1159 1113 1420 752 
Q 1681 391 2138 391 
Q 2594 391 2855 752 
Q 3116 1113 3116 1747 
z
" transform="scale(0.015625)"/>
      <path id="DejaVuSans-67" d="M 2906 1791 
Q 2906 2416 2648 2759 
Q 2391 3103 1925 3103 
Q 1463 3103 1205 2759 
Q 947 2416 947 1791 
Q 947 1169 1205 825 
Q 1463 481 1925 481 
Q 2391 481 2648 825 
Q 2906 1169 2906 1791 
z
M 3481 434 
Q 3481 -459 3084 -895 
Q 2688 -1331 1869 -1331 
Q 1566 -1331 1297 -1286 
Q 1028 -1241 775 -1147 
L 775 -588 
Q 1028 -725 1275 -790 
Q 1522 -856 1778 -856 
Q 2344 -856 2625 -561 
Q 2906 -266 2906 331 
L 2906 616 
Q 2728 306 2450 153 
Q 2172 0 1784 0 
Q 1141 0 747 490 
Q 353 981 353 1791 
Q 353 2603 747 3093 
Q 1141 3584 1784 3584 
Q 2172 3584 2450 3431 
Q 2728 3278 2906 2969 
L 2906 3500 
L 3481 3500 
L 3481 434 
z
" transform="scale(0.015625)"/>
     </defs>
     <use xlink:href="#DejaVuSans-48"/>
     <use xlink:href="#DejaVuSans-6f" x="75.195312"/>
     <use xlink:href="#DejaVuSans-6d" x="136.376953"/>
     <use xlink:href="#DejaVuSans-65" x="233.789062"/>
     <use xlink:href="#DejaVuSans-70" x="295.3125"/>
     <use xlink:href="#DejaVuSans-61" x="358.789062"/>
     <use xlink:href="#DejaVuSans-67" x="420.068359"/>
     <use xlink:href="#DejaVuSans-65" x="483.544922"/>
    </g>
   </g>
  </g>
  <g id="axes_3">
   <g id="matplotlib.axis_5"/>
   <g id="matplotlib.axis_6"/>
   <g id="patch_6">
    <path d="M 521.120759 62.325749 
C 518.381549 57.581298 514.812596 53.366987 510.584084 49.883774 
C 506.355573 46.400561 501.5358 43.704706 496.354596 41.924759 
C 491.173392 40.144813 485.714442 39.309525 480.238054 39.458725 
C 474.761666 39.607925 469.356294 40.739204 464.279691 42.798617 
C 459.203087 44.85803 454.537249 47.812314 450.504664 51.520595 
C 446.47208 55.228875 443.137882 59.631258 440.661062 64.517815 
C 438.184242 69.404373 436.604805 74.69618 435.998064 80.140898 
C 435.391324 85.585615 435.767081 91.095302 437.107417 96.40723 
C 438.447753 101.719159 440.73102 106.747532 443.84834 111.252573 
C 446.965661 115.757614 450.866685 119.66656 455.365394 122.793012 
C 459.864102 125.919464 464.887833 128.212926 470.197032 129.564035 
C 475.506231 130.915143 481.015144 131.302076 486.461081 130.706381 
C 491.907018 130.110686 497.202018 128.541986 502.09359 126.075083 
C 506.985162 123.608181 511.394298 120.28292 515.110751 116.257866 
C 518.827204 112.232812 521.790947 107.572975 523.860653 102.50056 
C 525.930359 97.428145 527.072601 92.025078 527.232909 86.549004 
L 481.484508 85.209749 
z
" style="fill: #1f77b4; stroke: #ffffff; stroke-linejoin: miter"/>
   </g>
   <g id="patch_7">
    <path d="M 531.670619 85.429263 
C 531.794219 81.207115 531.332734 76.988109 530.29931 72.89252 
C 529.265886 68.79693 527.670446 64.864051 525.558467 61.205997 
L 485.922217 84.09 
z
" style="fill: #ff7f0e; stroke: #ffffff; stroke-linejoin: miter"/>
   </g>
   <g id="text_11">
    <!-- Yes -->
    <g style="fill: #262626" transform="translate(416.524396 100.286359) scale(0.1 -0.1)">
     <use xlink:href="#DejaVuSans-59"/>
     <use xlink:href="#DejaVuSans-65" x="47.833984"/>
     <use xlink:href="#DejaVuSans-73" x="109.357422"/>
    </g>
   </g>
   <g id="text_12">
    <!-- 91% -->
    <g style="fill: #262626" transform="translate(443.744973 94.687615) scale(0.1 -0.1)">
     <use xlink:href="#DejaVuSans-39"/>
     <use xlink:href="#DejaVuSans-31" x="63.623047"/>
     <use xlink:href="#DejaVuSans-25" x="127.246094"/>
    </g>
   </g>
   <g id="text_13">
    <!-- No -->
    <g style="fill: #262626" transform="translate(534.737012 74.532124) scale(0.1 -0.1)">
     <use xlink:href="#DejaVuSans-4e"/>
     <use xlink:href="#DejaVuSans-6f" x="74.804688"/>
    </g>
   </g>
   <g id="text_14">
    <!-- 9% -->
    <g style="fill: #262626" transform="translate(504.616438 80.130875) scale(0.1 -0.1)">
     <use xlink:href="#DejaVuSans-39"/>
     <use xlink:href="#DejaVuSans-25" x="63.623047"/>
    </g>
   </g>
   <g id="text_15">
    <!-- Description -->
    <g style="fill: #262626" transform="translate(451.750342 20.88) scale(0.12 -0.12)">
     <defs>
      <path id="DejaVuSans-44" d="M 1259 4147 
L 1259 519 
L 2022 519 
Q 2988 519 3436 956 
Q 3884 1394 3884 2338 
Q 3884 3275 3436 3711 
Q 2988 4147 2022 4147 
L 1259 4147 
z
M 628 4666 
L 1925 4666 
Q 3281 4666 3915 4102 
Q 4550 3538 4550 2338 
Q 4550 1131 3912 565 
Q 3275 0 1925 0 
L 628 0 
L 628 4666 
z
" transform="scale(0.015625)"/>
      <path id="DejaVuSans-63" d="M 3122 3366 
L 3122 2828 
Q 2878 2963 2633 3030 
Q 2388 3097 2138 3097 
Q 1578 3097 1268 2742 
Q 959 2388 959 1747 
Q 959 1106 1268 751 
Q 1578 397 2138 397 
Q 2388 397 2633 464 
Q 2878 531 3122 666 
L 3122 134 
Q 2881 22 2623 -34 
Q 2366 -91 2075 -91 
Q 1284 -91 818 406 
Q 353 903 353 1747 
Q 353 2603 823 3093 
Q 1294 3584 2113 3584 
Q 2378 3584 2631 3529 
Q 2884 3475 3122 3366 
z
" transform="scale(0.015625)"/>
      <path id="DejaVuSans-72" d="M 2631 2963 
Q 2534 3019 2420 3045 
Q 2306 3072 2169 3072 
Q 1681 3072 1420 2755 
Q 1159 2438 1159 1844 
L 1159 0 
L 581 0 
L 581 3500 
L 1159 3500 
L 1159 2956 
Q 1341 3275 1631 3429 
Q 1922 3584 2338 3584 
Q 2397 3584 2469 3576 
Q 2541 3569 2628 3553 
L 2631 2963 
z
" transform="scale(0.015625)"/>
      <path id="DejaVuSans-69" d="M 603 3500 
L 1178 3500 
L 1178 0 
L 603 0 
L 603 3500 
z
M 603 4863 
L 1178 4863 
L 1178 4134 
L 603 4134 
L 603 4863 
z
" transform="scale(0.015625)"/>
      <path id="DejaVuSans-74" d="M 1172 4494 
L 1172 3500 
L 2356 3500 
L 2356 3053 
L 1172 3053 
L 1172 1153 
Q 1172 725 1289 603 
Q 1406 481 1766 481 
L 2356 481 
L 2356 0 
L 1766 0 
Q 1100 0 847 248 
Q 594 497 594 1153 
L 594 3053 
L 172 3053 
L 172 3500 
L 594 3500 
L 594 4494 
L 1172 4494 
z
" transform="scale(0.015625)"/>
      <path id="DejaVuSans-6e" d="M 3513 2113 
L 3513 0 
L 2938 0 
L 2938 2094 
Q 2938 2591 2744 2837 
Q 2550 3084 2163 3084 
Q 1697 3084 1428 2787 
Q 1159 2491 1159 1978 
L 1159 0 
L 581 0 
L 581 3500 
L 1159 3500 
L 1159 2956 
Q 1366 3272 1645 3428 
Q 1925 3584 2291 3584 
Q 2894 3584 3203 3211 
Q 3513 2838 3513 2113 
z
" transform="scale(0.015625)"/>
     </defs>
     <use xlink:href="#DejaVuSans-44"/>
     <use xlink:href="#DejaVuSans-65" x="77.001953"/>
     <use xlink:href="#DejaVuSans-73" x="138.525391"/>
     <use xlink:href="#DejaVuSans-63" x="190.625"/>
     <use xlink:href="#DejaVuSans-72" x="245.605469"/>
     <use xlink:href="#DejaVuSans-69" x="286.71875"/>
     <use xlink:href="#DejaVuSans-70" x="314.501953"/>
     <use xlink:href="#DejaVuSans-74" x="377.978516"/>
     <use xlink:href="#DejaVuSans-69" x="417.1875"/>
     <use xlink:href="#DejaVuSans-6f" x="444.970703"/>
     <use xlink:href="#DejaVuSans-6e" x="506.152344"/>
    </g>
   </g>
  </g>
  <g id="axes_4">
   <g id="matplotlib.axis_7"/>
   <g id="matplotlib.axis_8"/>
   <g id="patch_8">
    <path d="M 713.296783 62.186349 
C 710.587647 57.493989 707.06665 53.319778 702.898073 49.858475 
C 698.729495 46.397173 693.979193 43.70346 688.868804 41.90302 
C 683.758416 40.10258 678.368675 39.223857 672.951056 39.307848 
C 667.533436 39.39184 662.173526 40.43722 657.121406 42.395214 
C 652.069286 44.353208 647.404771 47.192882 643.345495 50.781745 
C 639.286219 54.370608 635.896312 58.651961 633.333939 63.426048 
C 630.771567 68.200134 629.077209 73.391532 628.32992 78.758022 
C 627.582632 84.124512 627.794219 89.581314 628.954809 94.873826 
C 630.115399 100.166338 632.206657 105.210949 635.13101 109.772288 
C 638.055363 114.333627 641.766612 118.339634 646.091597 121.603398 
C 650.416583 124.867162 655.286979 127.337121 660.475544 128.898033 
C 665.66411 130.458946 671.088874 131.086151 676.496731 130.750386 
C 681.904588 130.414621 687.210103 129.12119 692.165734 126.930441 
C 697.121365 124.739692 701.648821 121.686236 705.536862 117.912538 
C 709.424903 114.138841 712.612105 109.70452 714.949761 104.816471 
C 717.287417 99.928423 718.738596 94.663868 719.235589 89.268439 
L 673.660532 85.070349 
z
" style="fill: #1f77b4; stroke: #ffffff; stroke-linejoin: miter"/>
   </g>
   <g id="patch_9">
    <path d="M 723.706162 88.288083 
C 724.137628 83.603997 723.844405 78.881267 722.836829 74.286528 
C 721.829253 69.69179 720.119322 65.279728 717.767365 61.206016 
L 678.131104 84.09 
z
" style="fill: #ff7f0e; stroke: #ffffff; stroke-linejoin: miter"/>
   </g>
   <g id="text_16">
    <!-- Yes -->
    <g style="fill: #262626" transform="translate(608.338927 98.613562) scale(0.1 -0.1)">
     <use xlink:href="#DejaVuSans-59"/>
     <use xlink:href="#DejaVuSans-65" x="47.833984"/>
     <use xlink:href="#DejaVuSans-73" x="109.357422"/>
    </g>
   </g>
   <g id="text_17">
    <!-- 90% -->
    <g style="fill: #262626" transform="translate(635.723818 93.711817) scale(0.1 -0.1)">
     <defs>
      <path id="DejaVuSans-30" d="M 2034 4250 
Q 1547 4250 1301 3770 
Q 1056 3291 1056 2328 
Q 1056 1369 1301 889 
Q 1547 409 2034 409 
Q 2525 409 2770 889 
Q 3016 1369 3016 2328 
Q 3016 3291 2770 3770 
Q 2525 4250 2034 4250 
z
M 2034 4750 
Q 2819 4750 3233 4129 
Q 3647 3509 3647 2328 
Q 3647 1150 3233 529 
Q 2819 -91 2034 -91 
Q 1250 -91 836 529 
Q 422 1150 422 2328 
Q 422 3509 836 4129 
Q 1250 4750 2034 4750 
z
" transform="scale(0.015625)"/>
     </defs>
     <use xlink:href="#DejaVuSans-39"/>
     <use xlink:href="#DejaVuSans-30" x="63.623047"/>
     <use xlink:href="#DejaVuSans-25" x="127.246094"/>
    </g>
   </g>
   <g id="text_18">
    <!-- No -->
    <g style="fill: #262626" transform="translate(727.3074 76.065556) scale(0.1 -0.1)">
     <use xlink:href="#DejaVuSans-4e"/>
     <use xlink:href="#DejaVuSans-6f" x="74.804688"/>
    </g>
   </g>
   <g id="text_19">
    <!-- 10% -->
    <g style="fill: #262626" transform="translate(693.841257 80.967292) scale(0.1 -0.1)">
     <use xlink:href="#DejaVuSans-31"/>
     <use xlink:href="#DejaVuSans-30" x="63.623047"/>
     <use xlink:href="#DejaVuSans-25" x="127.246094"/>
    </g>
   </g>
   <g id="text_20">
    <!-- Example -->
    <g style="fill: #262626" transform="translate(652.099541 20.88) scale(0.12 -0.12)">
     <defs>
      <path id="DejaVuSans-45" d="M 628 4666 
L 3578 4666 
L 3578 4134 
L 1259 4134 
L 1259 2753 
L 3481 2753 
L 3481 2222 
L 1259 2222 
L 1259 531 
L 3634 531 
L 3634 0 
L 628 0 
L 628 4666 
z
" transform="scale(0.015625)"/>
      <path id="DejaVuSans-78" d="M 3513 3500 
L 2247 1797 
L 3578 0 
L 2900 0 
L 1881 1375 
L 863 0 
L 184 0 
L 1544 1831 
L 300 3500 
L 978 3500 
L 1906 2253 
L 2834 3500 
L 3513 3500 
z
" transform="scale(0.015625)"/>
      <path id="DejaVuSans-6c" d="M 603 4863 
L 1178 4863 
L 1178 0 
L 603 0 
L 603 4863 
z
" transform="scale(0.015625)"/>
     </defs>
     <use xlink:href="#DejaVuSans-45"/>
     <use xlink:href="#DejaVuSans-78" x="63.183594"/>
     <use xlink:href="#DejaVuSans-61" x="122.363281"/>
     <use xlink:href="#DejaVuSans-6d" x="183.642578"/>
     <use xlink:href="#DejaVuSans-70" x="281.054688"/>
     <use xlink:href="#DejaVuSans-6c" x="344.53125"/>
     <use xlink:href="#DejaVuSans-65" x="372.314453"/>
    </g>
   </g>
  </g>
  <g id="axes_5">
   <g id="matplotlib.axis_9"/>
   <g id="matplotlib.axis_10"/>
   <g id="patch_10">
    <path d="M 136.714232 201.342587 
C 134.458964 197.43635 131.638583 193.884875 128.344664 190.803476 
C 125.050745 187.722077 121.319328 185.144471 117.271571 183.154349 
C 113.223814 181.164227 108.904005 179.783366 104.452406 179.056601 
C 100.000807 178.329835 95.466125 178.265118 90.995599 178.86455 
C 86.525073 179.463981 82.167617 180.721004 78.064716 182.594802 
C 73.961814 184.4686 70.158358 186.938671 66.777845 189.924815 
C 63.397332 192.910958 60.476749 196.3805 58.110926 200.220787 
C 55.745103 204.061074 53.959926 208.230087 52.813357 212.59246 
C 51.666789 216.954834 51.171376 221.462837 51.343202 225.970097 
C 51.515029 230.477358 52.352216 234.934559 53.82758 239.196979 
C 55.302944 243.459399 57.400343 247.480399 60.051675 251.129421 
C 62.703007 254.778443 65.879262 258.01556 69.47731 260.735665 
C 73.075358 263.455771 77.05583 265.629102 81.289483 267.185092 
C 85.523136 268.741083 89.963646 269.662707 94.466834 269.920041 
C 98.970022 270.177375 103.486615 269.767603 107.869963 268.70403 
C 112.25331 267.640457 116.455451 265.934721 120.339945 263.642204 
L 97.077981 224.226587 
z
" style="fill: #1f77b4; stroke: #ffffff; stroke-linejoin: miter"/>
   </g>
   <g id="patch_11">
    <path d="M 124.766409 264.805616 
C 135.150905 258.676984 142.703919 248.686158 145.769064 237.024135 
C 148.83421 225.362112 147.169746 212.948623 141.140693 202.505997 
L 101.504443 225.39 
z
" style="fill: #ff7f0e; stroke: #ffffff; stroke-linejoin: miter"/>
   </g>
   <g id="text_21">
    <!-- Yes -->
    <g style="fill: #262626" transform="translate(32.241583 214.188421) scale(0.1 -0.1)">
     <use xlink:href="#DejaVuSans-59"/>
     <use xlink:href="#DejaVuSans-65" x="47.833984"/>
     <use xlink:href="#DejaVuSans-73" x="109.357422"/>
    </g>
   </g>
   <g id="text_22">
    <!-- 75% -->
    <g style="fill: #262626" transform="translate(59.405926 220.005485) scale(0.1 -0.1)">
     <defs>
      <path id="DejaVuSans-37" d="M 525 4666 
L 3525 4666 
L 3525 4397 
L 1831 0 
L 1172 0 
L 2766 4134 
L 525 4134 
L 525 4666 
z
" transform="scale(0.015625)"/>
      <path id="DejaVuSans-35" d="M 691 4666 
L 3169 4666 
L 3169 4134 
L 1269 4134 
L 1269 2991 
Q 1406 3038 1543 3061 
Q 1681 3084 1819 3084 
Q 2600 3084 3056 2656 
Q 3513 2228 3513 1497 
Q 3513 744 3044 326 
Q 2575 -91 1722 -91 
Q 1428 -91 1123 -41 
Q 819 9 494 109 
L 494 744 
Q 775 591 1075 516 
Q 1375 441 1709 441 
Q 2250 441 2565 725 
Q 2881 1009 2881 1497 
Q 2881 1984 2565 2268 
Q 2250 2553 1709 2553 
Q 1456 2553 1204 2497 
Q 953 2441 691 2322 
L 691 4666 
z
" transform="scale(0.015625)"/>
     </defs>
     <use xlink:href="#DejaVuSans-37"/>
     <use xlink:href="#DejaVuSans-35" x="63.623047"/>
     <use xlink:href="#DejaVuSans-25" x="127.246094"/>
    </g>
   </g>
   <g id="text_23">
    <!-- No -->
    <g style="fill: #262626" transform="translate(150.195533 240.9469) scale(0.1 -0.1)">
     <use xlink:href="#DejaVuSans-4e"/>
     <use xlink:href="#DejaVuSans-6f" x="74.804688"/>
    </g>
   </g>
   <g id="text_24">
    <!-- 25% -->
    <g style="fill: #262626" transform="translate(116.949938 235.129843) scale(0.1 -0.1)">
     <defs>
      <path id="DejaVuSans-32" d="M 1228 531 
L 3431 531 
L 3431 0 
L 469 0 
L 469 531 
Q 828 903 1448 1529 
Q 2069 2156 2228 2338 
Q 2531 2678 2651 2914 
Q 2772 3150 2772 3378 
Q 2772 3750 2511 3984 
Q 2250 4219 1831 4219 
Q 1534 4219 1204 4116 
Q 875 4013 500 3803 
L 500 4441 
Q 881 4594 1212 4672 
Q 1544 4750 1819 4750 
Q 2544 4750 2975 4387 
Q 3406 4025 3406 3419 
Q 3406 3131 3298 2873 
Q 3191 2616 2906 2266 
Q 2828 2175 2409 1742 
Q 1991 1309 1228 531 
z
" transform="scale(0.015625)"/>
     </defs>
     <use xlink:href="#DejaVuSans-32"/>
     <use xlink:href="#DejaVuSans-35" x="63.623047"/>
     <use xlink:href="#DejaVuSans-25" x="127.246094"/>
    </g>
   </g>
   <g id="text_25">
    <!-- Pattern -->
    <g style="fill: #262626" transform="translate(79.919443 162.18) scale(0.12 -0.12)">
     <defs>
      <path id="DejaVuSans-50" d="M 1259 4147 
L 1259 2394 
L 2053 2394 
Q 2494 2394 2734 2622 
Q 2975 2850 2975 3272 
Q 2975 3691 2734 3919 
Q 2494 4147 2053 4147 
L 1259 4147 
z
M 628 4666 
L 2053 4666 
Q 2838 4666 3239 4311 
Q 3641 3956 3641 3272 
Q 3641 2581 3239 2228 
Q 2838 1875 2053 1875 
L 1259 1875 
L 1259 0 
L 628 0 
L 628 4666 
z
" transform="scale(0.015625)"/>
     </defs>
     <use xlink:href="#DejaVuSans-50"/>
     <use xlink:href="#DejaVuSans-61" x="55.802734"/>
     <use xlink:href="#DejaVuSans-74" x="117.082031"/>
     <use xlink:href="#DejaVuSans-74" x="156.291016"/>
     <use xlink:href="#DejaVuSans-65" x="195.5"/>
     <use xlink:href="#DejaVuSans-72" x="257.023438"/>
     <use xlink:href="#DejaVuSans-6e" x="296.386719"/>
    </g>
   </g>
  </g>
  <g id="axes_6">
   <g id="matplotlib.axis_11"/>
   <g id="matplotlib.axis_12"/>
   <g id="patch_12">
    <path d="M 328.805832 203.055039 
C 326.18856 198.521791 322.812871 194.47097 318.825899 191.079139 
C 314.838928 187.687308 310.299455 185.004473 305.40534 183.147569 
C 300.511224 181.290664 295.334622 180.287067 290.101162 180.180521 
C 284.867701 180.073975 279.654541 180.866051 274.688905 182.522224 
C 269.723268 184.178398 265.078364 186.674252 260.956647 189.901001 
C 256.834931 193.127751 253.297169 197.037823 250.497561 201.460791 
C 247.697952 205.88376 245.677772 210.754416 244.525072 215.860466 
C 243.372373 220.966515 243.104149 226.232679 243.732091 231.429423 
C 244.360033 236.626166 245.874884 241.676874 248.210616 246.361404 
C 250.546348 251.045933 253.668525 255.295219 257.441063 258.92405 
C 261.2136 262.552881 265.58088 265.507758 270.352546 267.659886 
C 275.124213 269.812014 280.229917 271.129666 285.44712 271.555408 
C 290.664322 271.981151 295.916105 271.508708 300.973561 270.158672 
C 306.031016 268.808636 310.819583 266.60091 315.130543 263.631722 
C 319.441503 260.662533 323.2113 256.975657 326.275622 252.731792 
C 329.339943 248.487927 331.653611 243.74964 333.115781 238.723457 
L 289.169581 225.939039 
z
" style="fill: #1f77b4; stroke: #ffffff; stroke-linejoin: miter"/>
   </g>
   <g id="patch_13">
    <path d="M 337.659532 238.174412 
C 339.384192 232.245924 339.891494 226.029301 339.150824 219.899634 
C 338.410157 213.769966 336.436716 207.853078 333.349591 202.506016 
L 293.71333 225.39 
z
" style="fill: #ff7f0e; stroke: #ffffff; stroke-linejoin: miter"/>
   </g>
   <g id="text_26">
    <!-- Yes -->
    <g style="fill: #262626" transform="translate(223.043031 234.737848) scale(0.1 -0.1)">
     <use xlink:href="#DejaVuSans-59"/>
     <use xlink:href="#DejaVuSans-65" x="47.833984"/>
     <use xlink:href="#DejaVuSans-73" x="109.357422"/>
    </g>
   </g>
   <g id="text_27">
    <!-- 87% -->
    <g style="fill: #262626" transform="translate(250.793807 231.992651) scale(0.1 -0.1)">
     <defs>
      <path id="DejaVuSans-38" d="M 2034 2216 
Q 1584 2216 1326 1975 
Q 1069 1734 1069 1313 
Q 1069 891 1326 650 
Q 1584 409 2034 409 
Q 2484 409 2743 651 
Q 3003 894 3003 1313 
Q 3003 1734 2745 1975 
Q 2488 2216 2034 2216 
z
M 1403 2484 
Q 997 2584 770 2862 
Q 544 3141 544 3541 
Q 544 4100 942 4425 
Q 1341 4750 2034 4750 
Q 2731 4750 3128 4425 
Q 3525 4100 3525 3541 
Q 3525 3141 3298 2862 
Q 3072 2584 2669 2484 
Q 3125 2378 3379 2068 
Q 3634 1759 3634 1313 
Q 3634 634 3220 271 
Q 2806 -91 2034 -91 
Q 1263 -91 848 271 
Q 434 634 434 1313 
Q 434 1759 690 2068 
Q 947 2378 1403 2484 
z
M 1172 3481 
Q 1172 3119 1398 2916 
Q 1625 2713 2034 2713 
Q 2441 2713 2670 2916 
Q 2900 3119 2900 3481 
Q 2900 3844 2670 4047 
Q 2441 4250 2034 4250 
Q 1625 4250 1398 4047 
Q 1172 3844 1172 3481 
z
" transform="scale(0.015625)"/>
     </defs>
     <use xlink:href="#DejaVuSans-38"/>
     <use xlink:href="#DejaVuSans-37" x="63.623047"/>
     <use xlink:href="#DejaVuSans-25" x="127.246094"/>
    </g>
   </g>
   <g id="text_28">
    <!-- No -->
    <g style="fill: #262626" transform="translate(343.694569 222.109949) scale(0.1 -0.1)">
     <use xlink:href="#DejaVuSans-4e"/>
     <use xlink:href="#DejaVuSans-6f" x="74.804688"/>
    </g>
   </g>
   <g id="text_29">
    <!-- 13% -->
    <g style="fill: #262626" transform="translate(309.862543 224.855142) scale(0.1 -0.1)">
     <defs>
      <path id="DejaVuSans-33" d="M 2597 2516 
Q 3050 2419 3304 2112 
Q 3559 1806 3559 1356 
Q 3559 666 3084 287 
Q 2609 -91 1734 -91 
Q 1441 -91 1130 -33 
Q 819 25 488 141 
L 488 750 
Q 750 597 1062 519 
Q 1375 441 1716 441 
Q 2309 441 2620 675 
Q 2931 909 2931 1356 
Q 2931 1769 2642 2001 
Q 2353 2234 1838 2234 
L 1294 2234 
L 1294 2753 
L 1863 2753 
Q 2328 2753 2575 2939 
Q 2822 3125 2822 3475 
Q 2822 3834 2567 4026 
Q 2313 4219 1838 4219 
Q 1578 4219 1281 4162 
Q 984 4106 628 3988 
L 628 4550 
Q 988 4650 1302 4700 
Q 1616 4750 1894 4750 
Q 2613 4750 3031 4423 
Q 3450 4097 3450 3541 
Q 3450 3153 3228 2886 
Q 3006 2619 2597 2516 
z
" transform="scale(0.015625)"/>
     </defs>
     <use xlink:href="#DejaVuSans-31"/>
     <use xlink:href="#DejaVuSans-33" x="63.623047"/>
     <use xlink:href="#DejaVuSans-25" x="127.246094"/>
    </g>
   </g>
   <g id="text_30">
    <!-- Provider -->
    <g style="fill: #262626" transform="translate(269.01208 162.18) scale(0.12 -0.12)">
     <defs>
      <path id="DejaVuSans-76" d="M 191 3500 
L 800 3500 
L 1894 563 
L 2988 3500 
L 3597 3500 
L 2284 0 
L 1503 0 
L 191 3500 
z
" transform="scale(0.015625)"/>
      <path id="DejaVuSans-64" d="M 2906 2969 
L 2906 4863 
L 3481 4863 
L 3481 0 
L 2906 0 
L 2906 525 
Q 2725 213 2448 61 
Q 2172 -91 1784 -91 
Q 1150 -91 751 415 
Q 353 922 353 1747 
Q 353 2572 751 3078 
Q 1150 3584 1784 3584 
Q 2172 3584 2448 3432 
Q 2725 3281 2906 2969 
z
M 947 1747 
Q 947 1113 1208 752 
Q 1469 391 1925 391 
Q 2381 391 2643 752 
Q 2906 1113 2906 1747 
Q 2906 2381 2643 2742 
Q 2381 3103 1925 3103 
Q 1469 3103 1208 2742 
Q 947 2381 947 1747 
z
" transform="scale(0.015625)"/>
     </defs>
     <use xlink:href="#DejaVuSans-50"/>
     <use xlink:href="#DejaVuSans-72" x="58.552734"/>
     <use xlink:href="#DejaVuSans-6f" x="97.416016"/>
     <use xlink:href="#DejaVuSans-76" x="158.597656"/>
     <use xlink:href="#DejaVuSans-69" x="217.777344"/>
     <use xlink:href="#DejaVuSans-64" x="245.560547"/>
     <use xlink:href="#DejaVuSans-65" x="309.037109"/>
     <use xlink:href="#DejaVuSans-72" x="370.560547"/>
    </g>
   </g>
  </g>
  <g id="axes_7">
   <g id="matplotlib.axis_13"/>
   <g id="matplotlib.axis_14"/>
   <g id="patch_14">
    <path d="M 527.666601 198.443627 
C 523.301008 190.882198 516.861499 184.725601 509.111689 180.703903 
C 501.361879 176.682204 492.620705 174.960914 483.924719 175.744148 
L 488.030351 221.327627 
z
" style="fill: #1f77b4; stroke: #ffffff; stroke-linejoin: miter"/>
   </g>
   <g id="patch_15">
    <path d="M 481.816586 179.806521 
C 476.918994 180.247639 472.124351 181.4752 467.617353 183.441916 
C 463.110356 185.408633 458.949635 188.088919 455.295474 191.379524 
C 451.641313 194.670129 448.541239 198.528254 446.114685 202.805264 
C 443.688131 207.082275 441.966658 211.722534 441.016577 216.547297 
C 440.066496 221.37206 439.900176 226.318555 440.524009 231.196241 
C 441.147845 236.073926 442.553728 240.819353 444.687499 245.249704 
C 446.821269 249.680055 449.655168 253.737699 453.080034 257.266337 
C 456.504899 260.794976 460.476189 263.748707 464.840894 266.013732 
C 469.2056 268.278756 473.906961 269.825622 478.763859 270.594731 
C 483.620757 271.363843 488.57 271.345194 493.420965 270.539514 
C 498.271931 269.733831 502.961482 268.151599 507.308999 265.853754 
C 511.656517 263.555909 515.605431 260.57235 519.003617 257.018009 
C 522.401803 253.463668 525.205054 249.384778 527.305387 244.938477 
C 529.40572 240.492176 530.77581 235.736294 531.362881 230.854047 
C 531.949949 225.971799 531.746359 221.026687 530.759958 216.20922 
C 529.773554 211.391752 528.017176 206.764605 525.558467 202.505997 
L 485.922217 225.39 
z
" style="fill: #ff7f0e; stroke: #ffffff; stroke-linejoin: miter"/>
   </g>
   <g id="text_31">
    <!-- Yes -->
    <g style="fill: #262626" transform="translate(511.21982 179.400904) scale(0.1 -0.1)">
     <use xlink:href="#DejaVuSans-59"/>
     <use xlink:href="#DejaVuSans-65" x="47.833984"/>
     <use xlink:href="#DejaVuSans-73" x="109.357422"/>
    </g>
   </g>
   <g id="text_32">
    <!-- 18% -->
    <g style="fill: #262626" transform="translate(489.565871 199.712767) scale(0.1 -0.1)">
     <use xlink:href="#DejaVuSans-31"/>
     <use xlink:href="#DejaVuSans-38" x="63.623047"/>
     <use xlink:href="#DejaVuSans-25" x="127.246094"/>
    </g>
   </g>
   <g id="text_33">
    <!-- No -->
    <g style="fill: #262626" transform="translate(449.132763 272.835481) scale(0.1 -0.1)">
     <use xlink:href="#DejaVuSans-4e"/>
     <use xlink:href="#DejaVuSans-6f" x="74.804688"/>
    </g>
   </g>
   <g id="text_34">
    <!-- 82% -->
    <g style="fill: #262626" transform="translate(462.160142 252.523615) scale(0.1 -0.1)">
     <use xlink:href="#DejaVuSans-38"/>
     <use xlink:href="#DejaVuSans-32" x="63.623047"/>
     <use xlink:href="#DejaVuSans-25" x="127.246094"/>
    </g>
   </g>
   <g id="text_35">
    <!-- License -->
    <g style="fill: #262626" transform="translate(463.30128 162.18) scale(0.12 -0.12)">
     <defs>
      <path id="DejaVuSans-4c" d="M 628 4666 
L 1259 4666 
L 1259 531 
L 3531 531 
L 3531 0 
L 628 0 
L 628 4666 
z
" transform="scale(0.015625)"/>
     </defs>
     <use xlink:href="#DejaVuSans-4c"/>
     <use xlink:href="#DejaVuSans-69" x="55.712891"/>
     <use xlink:href="#DejaVuSans-63" x="83.496094"/>
     <use xlink:href="#DejaVuSans-65" x="138.476562"/>
     <use xlink:href="#DejaVuSans-6e" x="200"/>
     <use xlink:href="#DejaVuSans-73" x="263.378906"/>
     <use xlink:href="#DejaVuSans-65" x="315.478516"/>
    </g>
   </g>
  </g>
  <g id="axes_8">
   <g id="matplotlib.axis_15"/>
   <g id="matplotlib.axis_16"/>
   <g id="patch_16">
    <path d="M 717.767355 202.506 
C 712.459662 193.312806 704.115423 186.246528 694.173511 182.525668 
C 684.2316 178.804807 673.298323 178.656281 663.259004 182.105702 
C 653.219686 185.555122 644.686575 192.392126 639.131112 201.437746 
C 633.57565 210.483366 631.336636 221.185956 632.800164 231.69997 
L 678.131104 225.39 
z
" style="fill: #1f77b4; stroke: #ffffff; stroke-linejoin: miter"/>
   </g>
   <g id="patch_17">
    <path d="M 632.800163 231.699968 
C 633.849649 239.239493 636.763721 246.399409 641.277524 252.528964 
C 645.791328 258.658518 651.763843 263.566213 658.652226 266.805977 
C 665.540607 270.04574 673.129646 271.516359 680.729585 271.084175 
C 688.329525 270.651991 695.702918 268.330506 702.17961 264.330715 
L 678.131104 225.39 
z
" style="fill: #ff7f0e; stroke: #ffffff; stroke-linejoin: miter"/>
   </g>
   <g id="patch_18">
    <path d="M 702.17961 264.330715 
C 710.520062 259.179926 716.989073 251.48333 720.628293 242.38114 
C 724.267513 233.27895 724.887906 223.243996 722.397563 213.762857 
L 678.131104 225.39 
z
" style="fill: #2ca02c; stroke: #ffffff; stroke-linejoin: miter"/>
   </g>
   <g id="patch_19">
    <path d="M 722.397563 213.762857 
C 721.880471 211.794201 721.232621 209.86222 720.45834 207.979806 
C 719.684058 206.097393 718.78507 204.268735 717.767354 202.505997 
L 678.131104 225.39 
z
" style="fill: #d62728; stroke: #ffffff; stroke-linejoin: miter"/>
   </g>
   <g id="text_36">
    <!-- CC-BY-4.0 -->
    <g style="fill: #262626" transform="translate(613.818667 180.536648) scale(0.1 -0.1)">
     <defs>
      <path id="DejaVuSans-43" d="M 4122 4306 
L 4122 3641 
Q 3803 3938 3442 4084 
Q 3081 4231 2675 4231 
Q 1875 4231 1450 3742 
Q 1025 3253 1025 2328 
Q 1025 1406 1450 917 
Q 1875 428 2675 428 
Q 3081 428 3442 575 
Q 3803 722 4122 1019 
L 4122 359 
Q 3791 134 3420 21 
Q 3050 -91 2638 -91 
Q 1578 -91 968 557 
Q 359 1206 359 2328 
Q 359 3453 968 4101 
Q 1578 4750 2638 4750 
Q 3056 4750 3426 4639 
Q 3797 4528 4122 4306 
z
" transform="scale(0.015625)"/>
      <path id="DejaVuSans-2d" d="M 313 2009 
L 1997 2009 
L 1997 1497 
L 313 1497 
L 313 2009 
z
" transform="scale(0.015625)"/>
      <path id="DejaVuSans-42" d="M 1259 2228 
L 1259 519 
L 2272 519 
Q 2781 519 3026 730 
Q 3272 941 3272 1375 
Q 3272 1813 3026 2020 
Q 2781 2228 2272 2228 
L 1259 2228 
z
M 1259 4147 
L 1259 2741 
L 2194 2741 
Q 2656 2741 2882 2914 
Q 3109 3088 3109 3444 
Q 3109 3797 2882 3972 
Q 2656 4147 2194 4147 
L 1259 4147 
z
M 628 4666 
L 2241 4666 
Q 2963 4666 3353 4366 
Q 3744 4066 3744 3513 
Q 3744 3084 3544 2831 
Q 3344 2578 2956 2516 
Q 3422 2416 3680 2098 
Q 3938 1781 3938 1306 
Q 3938 681 3513 340 
Q 3088 0 2303 0 
L 628 0 
L 628 4666 
z
" transform="scale(0.015625)"/>
      <path id="DejaVuSans-34" d="M 2419 4116 
L 825 1625 
L 2419 1625 
L 2419 4116 
z
M 2253 4666 
L 3047 4666 
L 3047 1625 
L 3713 1625 
L 3713 1100 
L 3047 1100 
L 3047 0 
L 2419 0 
L 2419 1100 
L 313 1100 
L 313 1709 
L 2253 4666 
z
" transform="scale(0.015625)"/>
      <path id="DejaVuSans-2e" d="M 684 794 
L 1344 794 
L 1344 0 
L 684 0 
L 684 794 
z
" transform="scale(0.015625)"/>
     </defs>
     <use xlink:href="#DejaVuSans-43"/>
     <use xlink:href="#DejaVuSans-43" x="69.824219"/>
     <use xlink:href="#DejaVuSans-2d" x="139.648438"/>
     <use xlink:href="#DejaVuSans-42" x="172.107422"/>
     <use xlink:href="#DejaVuSans-59" x="235.210938"/>
     <use xlink:href="#DejaVuSans-2d" x="284.419922"/>
     <use xlink:href="#DejaVuSans-34" x="320.503906"/>
     <use xlink:href="#DejaVuSans-2e" x="384.126953"/>
     <use xlink:href="#DejaVuSans-30" x="415.914062"/>
    </g>
   </g>
   <g id="text_37">
    <!-- 44% -->
    <g style="fill: #262626" transform="translate(658.094562 202.178796) scale(0.1 -0.1)">
     <use xlink:href="#DejaVuSans-34"/>
     <use xlink:href="#DejaVuSans-34" x="63.623047"/>
     <use xlink:href="#DejaVuSans-25" x="127.246094"/>
    </g>
   </g>
   <g id="text_38">
    <!-- CC-BY-3.0 -->
    <g style="fill: #262626" transform="translate(608.751213 273.706949) scale(0.1 -0.1)">
     <use xlink:href="#DejaVuSans-43"/>
     <use xlink:href="#DejaVuSans-43" x="69.824219"/>
     <use xlink:href="#DejaVuSans-2d" x="139.648438"/>
     <use xlink:href="#DejaVuSans-42" x="172.107422"/>
     <use xlink:href="#DejaVuSans-59" x="235.210938"/>
     <use xlink:href="#DejaVuSans-2d" x="284.419922"/>
     <use xlink:href="#DejaVuSans-33" x="320.503906"/>
     <use xlink:href="#DejaVuSans-2e" x="384.126953"/>
     <use xlink:href="#DejaVuSans-30" x="415.914062"/>
    </g>
   </g>
   <g id="text_39">
    <!-- 32% -->
    <g style="fill: #262626" transform="translate(655.330496 252.998961) scale(0.1 -0.1)">
     <use xlink:href="#DejaVuSans-33"/>
     <use xlink:href="#DejaVuSans-32" x="63.623047"/>
     <use xlink:href="#DejaVuSans-25" x="127.246094"/>
    </g>
   </g>
   <g id="text_40">
    <!-- CC0-1.0 -->
    <g style="fill: #262626" transform="translate(724.878011 246.839629) scale(0.1 -0.1)">
     <use xlink:href="#DejaVuSans-43"/>
     <use xlink:href="#DejaVuSans-43" x="69.824219"/>
     <use xlink:href="#DejaVuSans-30" x="139.648438"/>
     <use xlink:href="#DejaVuSans-2d" x="203.271484"/>
     <use xlink:href="#DejaVuSans-31" x="239.355469"/>
     <use xlink:href="#DejaVuSans-2e" x="302.978516"/>
     <use xlink:href="#DejaVuSans-30" x="334.765625"/>
    </g>
   </g>
   <g id="text_41">
    <!-- 20% -->
    <g style="fill: #262626" transform="translate(692.516135 238.344059) scale(0.1 -0.1)">
     <use xlink:href="#DejaVuSans-32"/>
     <use xlink:href="#DejaVuSans-30" x="63.623047"/>
     <use xlink:href="#DejaVuSans-25" x="127.246094"/>
    </g>
   </g>
   <g id="text_42">
    <!-- Other -->
    <g style="fill: #262626" transform="translate(724.691064 208.998162) scale(0.1 -0.1)">
     <defs>
      <path id="DejaVuSans-4f" d="M 2522 4238 
Q 1834 4238 1429 3725 
Q 1025 3213 1025 2328 
Q 1025 1447 1429 934 
Q 1834 422 2522 422 
Q 3209 422 3611 934 
Q 4013 1447 4013 2328 
Q 4013 3213 3611 3725 
Q 3209 4238 2522 4238 
z
M 2522 4750 
Q 3503 4750 4090 4092 
Q 4678 3434 4678 2328 
Q 4678 1225 4090 567 
Q 3503 -91 2522 -91 
Q 1538 -91 948 565 
Q 359 1222 359 2328 
Q 359 3434 948 4092 
Q 1538 4750 2522 4750 
z
" transform="scale(0.015625)"/>
      <path id="DejaVuSans-68" d="M 3513 2113 
L 3513 0 
L 2938 0 
L 2938 2094 
Q 2938 2591 2744 2837 
Q 2550 3084 2163 3084 
Q 1697 3084 1428 2787 
Q 1159 2491 1159 1978 
L 1159 0 
L 581 0 
L 581 4863 
L 1159 4863 
L 1159 2956 
Q 1366 3272 1645 3428 
Q 1925 3584 2291 3584 
Q 2894 3584 3203 3211 
Q 3513 2838 3513 2113 
z
" transform="scale(0.015625)"/>
     </defs>
     <use xlink:href="#DejaVuSans-4f"/>
     <use xlink:href="#DejaVuSans-74" x="78.710938"/>
     <use xlink:href="#DejaVuSans-68" x="117.919922"/>
     <use xlink:href="#DejaVuSans-65" x="181.298828"/>
     <use xlink:href="#DejaVuSans-72" x="242.822266"/>
    </g>
   </g>
   <g id="text_43">
    <!-- 4% -->
    <g style="fill: #262626" transform="translate(695.595415 217.703259) scale(0.1 -0.1)">
     <use xlink:href="#DejaVuSans-34"/>
     <use xlink:href="#DejaVuSans-25" x="63.623047"/>
    </g>
   </g>
   <g id="text_44">
    <!-- License Type -->
    <g style="fill: #262626" transform="translate(639.823916 162.18) scale(0.12 -0.12)">
     <defs>
      <path id="DejaVuSans-20" transform="scale(0.015625)"/>
      <path id="DejaVuSans-54" d="M -19 4666 
L 3928 4666 
L 3928 4134 
L 2272 4134 
L 2272 0 
L 1638 0 
L 1638 4134 
L -19 4134 
L -19 4666 
z
" transform="scale(0.015625)"/>
      <path id="DejaVuSans-79" d="M 2059 -325 
Q 1816 -950 1584 -1140 
Q 1353 -1331 966 -1331 
L 506 -1331 
L 506 -850 
L 844 -850 
Q 1081 -850 1212 -737 
Q 1344 -625 1503 -206 
L 1606 56 
L 191 3500 
L 800 3500 
L 1894 763 
L 2988 3500 
L 3597 3500 
L 2059 -325 
z
" transform="scale(0.015625)"/>
     </defs>
     <use xlink:href="#DejaVuSans-4c"/>
     <use xlink:href="#DejaVuSans-69" x="55.712891"/>
     <use xlink:href="#DejaVuSans-63" x="83.496094"/>
     <use xlink:href="#DejaVuSans-65" x="138.476562"/>
     <use xlink:href="#DejaVuSans-6e" x="200"/>
     <use xlink:href="#DejaVuSans-73" x="263.378906"/>
     <use xlink:href="#DejaVuSans-65" x="315.478516"/>
     <use xlink:href="#DejaVuSans-20" x="377.001953"/>
     <use xlink:href="#DejaVuSans-54" x="408.789062"/>
     <use xlink:href="#DejaVuSans-79" x="454.248047"/>
     <use xlink:href="#DejaVuSans-70" x="513.427734"/>
     <use xlink:href="#DejaVuSans-65" x="576.904297"/>
    </g>
   </g>
  </g>
  <g id="axes_9">
   <g id="matplotlib.axis_17"/>
   <g id="matplotlib.axis_18"/>
   <g id="patch_20">
    <path d="M 144.001238 340.233272 
C 141.155054 335.303537 137.413991 330.947779 132.970432 327.389994 
C 128.526873 323.832209 123.458317 321.134446 118.025414 319.435439 
L 104.364988 363.117272 
z
" style="fill: #1f77b4; stroke: #ffffff; stroke-linejoin: miter"/>
   </g>
   <g id="patch_21">
    <path d="M 115.164872 323.008167 
C 110.111548 321.427864 104.822109 320.736366 99.532364 320.964507 
C 94.242619 321.192646 89.032357 322.336979 84.133857 324.346492 
C 79.235357 326.356005 74.722507 329.200388 70.796491 332.752831 
C 66.870476 336.305273 63.590515 340.512195 61.102835 345.186048 
C 58.615155 349.8599 56.957277 354.930184 56.203112 360.17086 
C 55.448946 365.411535 55.60987 370.743555 56.678706 375.929212 
C 57.747542 381.114869 59.708172 386.075943 62.473184 390.591266 
C 65.238197 395.106589 68.765888 399.108055 72.898991 402.417271 
C 77.032093 405.726486 81.708264 408.293539 86.719034 410.003986 
C 91.729804 411.714433 96.999594 412.542475 102.293469 412.451199 
C 107.587345 412.359921 112.825453 411.3507 117.774279 409.468526 
C 122.723105 407.586353 127.307999 404.859617 131.324562 401.409883 
C 135.341125 397.960149 138.728772 393.839448 141.336481 389.231486 
C 143.944189 384.623525 145.732621 379.597808 146.622051 374.378386 
C 147.51148 369.158965 147.488489 363.824567 146.554105 358.613005 
C 145.619718 353.401444 143.788034 348.391329 141.140704 343.806016 
L 101.504443 366.69 
z
" style="fill: #ff7f0e; stroke: #ffffff; stroke-linejoin: miter"/>
   </g>
   <g id="text_45">
    <!-- Yes -->
    <g style="fill: #262626" transform="translate(135.830974 326.57664) scale(0.1 -0.1)">
     <use xlink:href="#DejaVuSans-59"/>
     <use xlink:href="#DejaVuSans-65" x="47.833984"/>
     <use xlink:href="#DejaVuSans-73" x="109.357422"/>
    </g>
   </g>
   <g id="text_46">
    <!-- 12% -->
    <g style="fill: #262626" transform="translate(110.414972 344.440279) scale(0.1 -0.1)">
     <use xlink:href="#DejaVuSans-31"/>
     <use xlink:href="#DejaVuSans-32" x="63.623047"/>
     <use xlink:href="#DejaVuSans-25" x="127.246094"/>
    </g>
   </g>
   <g id="text_47">
    <!-- No -->
    <g style="fill: #262626" transform="translate(56.438465 408.749389) scale(0.1 -0.1)">
     <use xlink:href="#DejaVuSans-4e"/>
     <use xlink:href="#DejaVuSans-6f" x="74.804688"/>
    </g>
   </g>
   <g id="text_48">
    <!-- 88% -->
    <g style="fill: #262626" transform="translate(73.227901 390.885746) scale(0.1 -0.1)">
     <use xlink:href="#DejaVuSans-38"/>
     <use xlink:href="#DejaVuSans-38" x="63.623047"/>
     <use xlink:href="#DejaVuSans-25" x="127.246094"/>
    </g>
   </g>
   <g id="text_49">
    <!-- Version -->
    <g style="fill: #262626" transform="translate(79.440381 303.48) scale(0.12 -0.12)">
     <defs>
      <path id="DejaVuSans-56" d="M 1831 0 
L 50 4666 
L 709 4666 
L 2188 738 
L 3669 4666 
L 4325 4666 
L 2547 0 
L 1831 0 
z
" transform="scale(0.015625)"/>
     </defs>
     <use xlink:href="#DejaVuSans-56"/>
     <use xlink:href="#DejaVuSans-65" x="60.658203"/>
     <use xlink:href="#DejaVuSans-72" x="122.181641"/>
     <use xlink:href="#DejaVuSans-73" x="163.294922"/>
     <use xlink:href="#DejaVuSans-69" x="215.394531"/>
     <use xlink:href="#DejaVuSans-6f" x="243.177734"/>
     <use xlink:href="#DejaVuSans-6e" x="304.359375"/>
    </g>
   </g>
  </g>
  <g id="axes_10">
   <g id="matplotlib.axis_19"/>
   <g id="matplotlib.axis_20"/>
   <g id="patch_22">
    <path d="M 331.489967 339.624022 
C 325.838368 329.835165 316.756068 322.47872 306.006897 318.983348 
C 295.257727 315.487975 283.585698 316.09561 273.257582 320.688247 
C 262.929466 325.280884 254.660131 333.54064 250.055525 343.863425 
C 245.45092 354.186211 244.829755 365.857527 248.312666 376.610742 
L 291.853717 362.508022 
z
" style="fill: #1f77b4; stroke: #ffffff; stroke-linejoin: miter"/>
   </g>
   <g id="patch_23">
    <path d="M 250.17228 380.792723 
C 252.149112 386.896036 255.387321 392.516056 259.67624 397.287163 
C 263.96516 402.05827 269.209714 405.8747 275.068723 408.488187 
C 280.927732 411.101673 287.271321 412.454271 293.686793 412.457992 
C 300.102265 412.46171 306.447416 411.11647 312.309453 408.509781 
C 318.17149 405.903093 323.420472 402.092739 327.714921 397.326607 
C 332.00937 392.560476 335.254093 386.944211 337.237999 380.843195 
C 339.221904 374.742177 339.90102 368.291641 339.231163 361.911235 
C 338.561306 355.530828 336.557325 349.361981 333.349591 343.806016 
L 293.71333 366.69 
z
" style="fill: #ff7f0e; stroke: #ffffff; stroke-linejoin: miter"/>
   </g>
   <g id="text_50">
    <!-- Yes -->
    <g style="fill: #262626" transform="translate(255.252657 319.265644) scale(0.1 -0.1)">
     <use xlink:href="#DejaVuSans-59"/>
     <use xlink:href="#DejaVuSans-65" x="47.833984"/>
     <use xlink:href="#DejaVuSans-73" x="109.357422"/>
    </g>
   </g>
   <g id="text_51">
    <!-- 47% -->
    <g style="fill: #262626" transform="translate(269.582755 340.175532) scale(0.1 -0.1)">
     <use xlink:href="#DejaVuSans-34"/>
     <use xlink:href="#DejaVuSans-37" x="63.623047"/>
     <use xlink:href="#DejaVuSans-25" x="127.246094"/>
    </g>
   </g>
   <g id="text_52">
    <!-- No -->
    <g style="fill: #262626" transform="translate(314.169065 415.451134) scale(0.1 -0.1)">
     <use xlink:href="#DejaVuSans-4e"/>
     <use xlink:href="#DejaVuSans-6f" x="74.804688"/>
    </g>
   </g>
   <g id="text_53">
    <!-- 53% -->
    <g style="fill: #262626" transform="translate(293.757723 394.541243) scale(0.1 -0.1)">
     <use xlink:href="#DejaVuSans-35"/>
     <use xlink:href="#DejaVuSans-33" x="63.623047"/>
     <use xlink:href="#DejaVuSans-25" x="127.246094"/>
    </g>
   </g>
   <g id="text_54">
    <!-- Contact Email -->
    <g style="fill: #262626" transform="translate(251.816455 303.48) scale(0.12 -0.12)">
     <use xlink:href="#DejaVuSans-43"/>
     <use xlink:href="#DejaVuSans-6f" x="69.824219"/>
     <use xlink:href="#DejaVuSans-6e" x="131.005859"/>
     <use xlink:href="#DejaVuSans-74" x="194.384766"/>
     <use xlink:href="#DejaVuSans-61" x="233.59375"/>
     <use xlink:href="#DejaVuSans-63" x="294.873047"/>
     <use xlink:href="#DejaVuSans-74" x="349.853516"/>
     <use xlink:href="#DejaVuSans-20" x="389.0625"/>
     <use xlink:href="#DejaVuSans-45" x="420.849609"/>
     <use xlink:href="#DejaVuSans-6d" x="484.033203"/>
     <use xlink:href="#DejaVuSans-61" x="581.445312"/>
     <use xlink:href="#DejaVuSans-69" x="642.724609"/>
     <use xlink:href="#DejaVuSans-6c" x="670.507812"/>
    </g>
   </g>
  </g>
  <g id="axes_11">
   <g id="matplotlib.axis_21"/>
   <g id="matplotlib.axis_22"/>
   <g id="patch_24">
    <path d="M 529.190899 341.021662 
C 528.195912 339.298294 527.089586 337.641651 525.878968 336.062284 
C 524.668349 334.482917 523.356012 332.984186 521.950315 331.575636 
L 489.554649 363.905662 
z
" style="fill: #1f77b4; stroke: #ffffff; stroke-linejoin: miter"/>
   </g>
   <g id="patch_25">
    <path d="M 518.317884 334.359974 
C 514.249609 330.283439 509.448188 327.011196 504.166286 324.715438 
C 498.884383 322.41968 493.216297 321.141395 487.460296 320.94785 
C 481.704295 320.754305 475.963146 321.648956 470.538957 323.584721 
C 465.114769 325.520486 460.104383 328.462806 455.771461 332.256853 
C 451.438539 336.0509 447.860432 340.628928 445.225435 345.750041 
C 442.590439 350.871155 440.945595 356.443917 440.377456 362.17508 
C 439.809318 367.906242 440.328028 373.693482 441.906293 379.232262 
C 443.484558 384.771042 446.094201 389.962473 449.597894 394.533374 
C 453.101588 399.104274 457.436771 402.973029 462.375333 405.936072 
C 467.313895 408.899114 472.767656 410.903531 478.449629 411.843851 
C 484.131601 412.784169 489.940339 412.643601 495.570177 411.429544 
C 501.200014 410.215484 506.550434 407.949611 511.339891 404.751158 
C 516.129346 401.552704 520.272332 397.478771 523.550825 392.743744 
C 526.829318 388.008717 529.184794 382.697132 530.493297 377.088494 
C 531.801803 371.479855 532.039972 365.674299 531.195276 359.977327 
C 530.35058 354.280354 528.438104 348.793678 525.558478 343.806016 
L 485.922217 366.69 
z
" style="fill: #ff7f0e; stroke: #ffffff; stroke-linejoin: miter"/>
   </g>
   <g id="text_55">
    <!-- Yes -->
    <g style="fill: #262626" transform="translate(529.511398 336.037319) scale(0.1 -0.1)">
     <use xlink:href="#DejaVuSans-59"/>
     <use xlink:href="#DejaVuSans-65" x="47.833984"/>
     <use xlink:href="#DejaVuSans-73" x="109.357422"/>
    </g>
   </g>
   <g id="text_56">
    <!-- 4% -->
    <g style="fill: #262626" transform="translate(503.417208 349.959009) scale(0.1 -0.1)">
     <use xlink:href="#DejaVuSans-34"/>
     <use xlink:href="#DejaVuSans-25" x="63.623047"/>
    </g>
   </g>
   <g id="text_57">
    <!-- No -->
    <g style="fill: #262626" transform="translate(432.365464 400.077087) scale(0.1 -0.1)">
     <use xlink:href="#DejaVuSans-4e"/>
     <use xlink:href="#DejaVuSans-6f" x="74.804688"/>
    </g>
   </g>
   <g id="text_58">
    <!-- 96% -->
    <g style="fill: #262626" transform="translate(453.014343 386.1554) scale(0.1 -0.1)">
     <defs>
      <path id="DejaVuSans-36" d="M 2113 2584 
Q 1688 2584 1439 2293 
Q 1191 2003 1191 1497 
Q 1191 994 1439 701 
Q 1688 409 2113 409 
Q 2538 409 2786 701 
Q 3034 994 3034 1497 
Q 3034 2003 2786 2293 
Q 2538 2584 2113 2584 
z
M 3366 4563 
L 3366 3988 
Q 3128 4100 2886 4159 
Q 2644 4219 2406 4219 
Q 1781 4219 1451 3797 
Q 1122 3375 1075 2522 
Q 1259 2794 1537 2939 
Q 1816 3084 2150 3084 
Q 2853 3084 3261 2657 
Q 3669 2231 3669 1497 
Q 3669 778 3244 343 
Q 2819 -91 2113 -91 
Q 1303 -91 875 529 
Q 447 1150 447 2328 
Q 447 3434 972 4092 
Q 1497 4750 2381 4750 
Q 2619 4750 2861 4703 
Q 3103 4656 3366 4563 
z
" transform="scale(0.015625)"/>
     </defs>
     <use xlink:href="#DejaVuSans-39"/>
     <use xlink:href="#DejaVuSans-36" x="63.623047"/>
     <use xlink:href="#DejaVuSans-25" x="127.246094"/>
    </g>
   </g>
   <g id="text_59">
    <!-- Wikidata Database -->
    <g style="fill: #262626" transform="translate(429.265342 303.48) scale(0.12 -0.12)">
     <defs>
      <path id="DejaVuSans-57" d="M 213 4666 
L 850 4666 
L 1831 722 
L 2809 4666 
L 3519 4666 
L 4500 722 
L 5478 4666 
L 6119 4666 
L 4947 0 
L 4153 0 
L 3169 4050 
L 2175 0 
L 1381 0 
L 213 4666 
z
" transform="scale(0.015625)"/>
      <path id="DejaVuSans-6b" d="M 581 4863 
L 1159 4863 
L 1159 1991 
L 2875 3500 
L 3609 3500 
L 1753 1863 
L 3688 0 
L 2938 0 
L 1159 1709 
L 1159 0 
L 581 0 
L 581 4863 
z
" transform="scale(0.015625)"/>
      <path id="DejaVuSans-62" d="M 3116 1747 
Q 3116 2381 2855 2742 
Q 2594 3103 2138 3103 
Q 1681 3103 1420 2742 
Q 1159 2381 1159 1747 
Q 1159 1113 1420 752 
Q 1681 391 2138 391 
Q 2594 391 2855 752 
Q 3116 1113 3116 1747 
z
M 1159 2969 
Q 1341 3281 1617 3432 
Q 1894 3584 2278 3584 
Q 2916 3584 3314 3078 
Q 3713 2572 3713 1747 
Q 3713 922 3314 415 
Q 2916 -91 2278 -91 
Q 1894 -91 1617 61 
Q 1341 213 1159 525 
L 1159 0 
L 581 0 
L 581 4863 
L 1159 4863 
L 1159 2969 
z
" transform="scale(0.015625)"/>
     </defs>
     <use xlink:href="#DejaVuSans-57"/>
     <use xlink:href="#DejaVuSans-69" x="96.626953"/>
     <use xlink:href="#DejaVuSans-6b" x="124.410156"/>
     <use xlink:href="#DejaVuSans-69" x="182.320312"/>
     <use xlink:href="#DejaVuSans-64" x="210.103516"/>
     <use xlink:href="#DejaVuSans-61" x="273.580078"/>
     <use xlink:href="#DejaVuSans-74" x="334.859375"/>
     <use xlink:href="#DejaVuSans-61" x="374.068359"/>
     <use xlink:href="#DejaVuSans-20" x="435.347656"/>
     <use xlink:href="#DejaVuSans-44" x="467.134766"/>
     <use xlink:href="#DejaVuSans-61" x="544.136719"/>
     <use xlink:href="#DejaVuSans-74" x="605.416016"/>
     <use xlink:href="#DejaVuSans-61" x="644.625"/>
     <use xlink:href="#DejaVuSans-62" x="705.904297"/>
     <use xlink:href="#DejaVuSans-61" x="769.380859"/>
     <use xlink:href="#DejaVuSans-73" x="830.660156"/>
     <use xlink:href="#DejaVuSans-65" x="882.759766"/>
    </g>
   </g>
  </g>
  <g id="axes_12">
   <g id="matplotlib.axis_23"/>
   <g id="matplotlib.axis_24"/>
   <g id="patch_26">
    <path d="M 720.98436 340.550547 
C 718.938998 337.007876 716.427873 333.755362 713.518163 330.880017 
C 710.608453 328.004671 707.326338 325.532364 703.759618 323.529232 
L 681.348109 363.434547 
z
" style="fill: #1f77b4; stroke: #ffffff; stroke-linejoin: miter"/>
   </g>
   <g id="patch_27">
    <path d="M 700.542613 326.784686 
C 695.751385 324.09385 690.51448 322.287769 685.083113 321.453076 
C 679.651747 320.618386 674.114189 320.768649 668.736082 321.89666 
C 663.357975 323.024671 658.226713 325.112101 653.588464 328.058811 
C 648.950215 331.005521 644.880356 334.763618 641.574108 339.152829 
C 638.267861 343.54204 635.778959 348.491039 634.226809 353.762403 
C 632.674659 359.033767 632.084478 364.541841 632.484581 370.022386 
C 632.884684 375.50293 634.268566 380.866879 636.56984 385.856928 
C 638.871114 390.846976 642.052387 395.382028 645.961042 399.244523 
C 649.869696 403.107017 654.44222 406.234191 659.459255 408.476025 
C 664.476289 410.717859 669.8563 412.03792 675.341211 412.37289 
C 680.826122 412.707856 686.326807 412.052283 691.57936 410.437619 
C 696.831913 408.822954 701.750983 406.275447 706.100609 402.917291 
C 710.450234 399.559136 714.159721 395.444914 717.051121 390.771987 
C 719.942521 386.099059 721.968844 380.943374 723.032889 375.552247 
C 724.096932 370.16112 724.181407 364.62215 723.282249 359.201083 
C 722.383094 353.780017 720.514929 348.564939 717.767365 343.806016 
L 678.131104 366.69 
z
" style="fill: #ff7f0e; stroke: #ffffff; stroke-linejoin: miter"/>
   </g>
   <g id="text_60">
    <!-- Yes -->
    <g style="fill: #262626" transform="translate(716.735167 330.383937) scale(0.1 -0.1)">
     <use xlink:href="#DejaVuSans-59"/>
     <use xlink:href="#DejaVuSans-65" x="47.833984"/>
     <use xlink:href="#DejaVuSans-73" x="109.357422"/>
    </g>
   </g>
   <g id="text_61">
    <!-- 9% -->
    <g style="fill: #262626" transform="translate(692.71811 346.661203) scale(0.1 -0.1)">
     <use xlink:href="#DejaVuSans-39"/>
     <use xlink:href="#DejaVuSans-25" x="63.623047"/>
    </g>
   </g>
   <g id="text_62">
    <!-- No -->
    <g style="fill: #262626" transform="translate(629.144036 405.25935) scale(0.1 -0.1)">
     <use xlink:href="#DejaVuSans-4e"/>
     <use xlink:href="#DejaVuSans-6f" x="74.804688"/>
    </g>
   </g>
   <g id="text_63">
    <!-- 91% -->
    <g style="fill: #262626" transform="translate(647.715786 388.982089) scale(0.1 -0.1)">
     <use xlink:href="#DejaVuSans-39"/>
     <use xlink:href="#DejaVuSans-31" x="63.623047"/>
     <use xlink:href="#DejaVuSans-25" x="127.246094"/>
    </g>
   </g>
   <g id="text_64">
    <!-- OBO -->
    <g style="fill: #262626" transform="translate(664.673291 303.48) scale(0.12 -0.12)">
     <use xlink:href="#DejaVuSans-4f"/>
     <use xlink:href="#DejaVuSans-42" x="78.710938"/>
     <use xlink:href="#DejaVuSans-4f" x="145.564453"/>
    </g>
   </g>
  </g>
  <g id="axes_13">
   <g id="matplotlib.axis_25"/>
   <g id="matplotlib.axis_26"/>
   <g id="patch_28">
    <path d="M 143.457746 481.159056 
C 139.497246 474.299268 133.822936 468.583704 126.992017 464.573615 
C 120.161099 460.563527 112.404729 458.394615 104.484559 458.279859 
L 103.821495 504.043056 
z
" style="fill: #1f77b4; stroke: #ffffff; stroke-linejoin: miter"/>
   </g>
   <g id="patch_29">
    <path d="M 102.16751 462.226804 
C 97.150503 462.154111 92.155515 462.906932 87.382794 464.455085 
C 82.610073 466.003239 78.124256 468.325755 74.105177 471.329529 
C 70.086099 474.333303 66.5882 477.977646 63.751693 482.116469 
C 60.915185 486.255292 58.778491 490.832541 57.427273 495.664708 
C 56.076056 500.496876 55.528609 505.518525 55.806888 510.528335 
C 56.085165 515.538146 57.185391 520.468261 59.063464 525.121054 
C 60.941538 529.773847 63.572017 534.086296 66.849454 537.885512 
C 70.126891 541.684728 74.006896 544.919262 78.33392 547.459439 
C 82.660944 549.999616 87.376378 551.811037 92.291197 552.821082 
C 97.206017 553.831126 102.253663 554.026117 107.231755 553.398233 
C 112.209848 552.770349 117.050967 551.328102 121.561058 549.129299 
C 126.071149 546.930496 130.189128 544.00492 133.749885 540.46986 
C 137.310643 536.934801 140.265965 532.838141 142.497378 528.344096 
C 144.728791 523.850051 146.206068 519.019506 146.869997 514.046093 
C 147.533926 509.072679 147.375507 504.023753 146.401089 499.101746 
C 145.426672 494.179738 143.649461 489.451308 141.140693 485.105997 
L 101.504443 507.99 
z
" style="fill: #ff7f0e; stroke: #ffffff; stroke-linejoin: miter"/>
   </g>
   <g id="text_65">
    <!-- Yes -->
    <g style="fill: #262626" transform="translate(129.309068 463.386045) scale(0.1 -0.1)">
     <use xlink:href="#DejaVuSans-59"/>
     <use xlink:href="#DejaVuSans-65" x="47.833984"/>
     <use xlink:href="#DejaVuSans-73" x="109.357422"/>
    </g>
   </g>
   <g id="text_66">
    <!-- 16% -->
    <g style="fill: #262626" transform="translate(106.610527 483.120766) scale(0.1 -0.1)">
     <use xlink:href="#DejaVuSans-31"/>
     <use xlink:href="#DejaVuSans-36" x="63.623047"/>
     <use xlink:href="#DejaVuSans-25" x="127.246094"/>
    </g>
   </g>
   <g id="text_67">
    <!-- No -->
    <g style="fill: #262626" transform="translate(62.416869 554.16576) scale(0.1 -0.1)">
     <use xlink:href="#DejaVuSans-4e"/>
     <use xlink:href="#DejaVuSans-6f" x="74.804688"/>
    </g>
   </g>
   <g id="text_68">
    <!-- 84% -->
    <g style="fill: #262626" transform="translate(76.488849 534.431039) scale(0.1 -0.1)">
     <use xlink:href="#DejaVuSans-38"/>
     <use xlink:href="#DejaVuSans-34" x="63.623047"/>
     <use xlink:href="#DejaVuSans-25" x="127.246094"/>
    </g>
   </g>
   <g id="text_69">
    <!-- OWL -->
    <g style="fill: #262626" transform="translate(87.505693 444.78) scale(0.12 -0.12)">
     <use xlink:href="#DejaVuSans-4f"/>
     <use xlink:href="#DejaVuSans-57" x="78.710938"/>
     <use xlink:href="#DejaVuSans-4c" x="177.587891"/>
    </g>
   </g>
  </g>
  <g id="axes_14">
   <g id="matplotlib.axis_27"/>
   <g id="matplotlib.axis_28"/>
   <g id="patch_30">
    <path d="M 337.12223 482.514819 
C 336.525373 481.481033 335.8883 480.470992 335.212472 479.487015 
C 334.536644 478.503038 333.822579 477.545878 333.071915 476.617731 
L 297.485979 505.398819 
z
" style="fill: #1f77b4; stroke: #ffffff; stroke-linejoin: miter"/>
   </g>
   <g id="patch_31">
    <path d="M 329.299267 479.208911 
C 325.614468 474.652897 321.088773 470.846629 315.968569 467.997325 
C 310.848367 465.148021 305.228292 463.308344 299.41432 462.578455 
C 293.600348 461.848566 287.699932 462.241952 282.034313 463.737199 
C 276.368694 465.232446 271.042585 467.801914 266.345952 471.305719 
C 261.649318 474.809525 257.668972 479.1829 254.621605 484.187755 
C 251.574238 489.192609 249.516178 494.736446 248.559476 500.517426 
C 247.602772 506.298406 247.765109 512.209687 249.03764 517.929448 
C 250.310172 523.649209 252.669383 529.071729 255.986831 533.901796 
C 259.304279 538.731864 263.518657 542.880207 268.400507 546.120969 
C 273.282357 549.361732 278.741447 551.635016 284.480589 552.817071 
C 290.219732 553.999127 296.13285 554.068096 301.898002 553.020222 
C 307.663154 551.972351 313.173797 549.827006 318.129907 546.700988 
C 323.086018 543.574971 327.395989 539.526065 330.825193 534.774689 
C 334.254396 530.023313 336.739443 524.657286 338.145038 518.968761 
C 339.550632 513.280236 339.850798 507.374361 339.029191 501.572639 
C 338.207585 495.770917 336.279393 490.180587 333.349591 485.106016 
L 293.71333 507.99 
z
" style="fill: #ff7f0e; stroke: #ffffff; stroke-linejoin: miter"/>
   </g>
   <g id="text_70">
    <!-- Yes -->
    <g style="fill: #262626" transform="translate(338.985119 479.655207) scale(0.1 -0.1)">
     <use xlink:href="#DejaVuSans-59"/>
     <use xlink:href="#DejaVuSans-65" x="47.833984"/>
     <use xlink:href="#DejaVuSans-73" x="109.357422"/>
    </g>
   </g>
   <g id="text_71">
    <!-- 2% -->
    <g style="fill: #262626" transform="translate(312.189843 492.611111) scale(0.1 -0.1)">
     <use xlink:href="#DejaVuSans-32"/>
     <use xlink:href="#DejaVuSans-25" x="63.623047"/>
    </g>
   </g>
   <g id="text_72">
    <!-- No -->
    <g style="fill: #262626" transform="translate(238.614189 539.252361) scale(0.1 -0.1)">
     <use xlink:href="#DejaVuSans-4e"/>
     <use xlink:href="#DejaVuSans-6f" x="74.804688"/>
    </g>
   </g>
   <g id="text_73">
    <!-- 98% -->
    <g style="fill: #262626" transform="translate(259.964154 526.296458) scale(0.1 -0.1)">
     <use xlink:href="#DejaVuSans-39"/>
     <use xlink:href="#DejaVuSans-38" x="63.623047"/>
     <use xlink:href="#DejaVuSans-25" x="127.246094"/>
    </g>
   </g>
   <g id="text_74">
    <!-- JSON -->
    <g style="fill: #262626" transform="translate(278.922393 444.78) scale(0.12 -0.12)">
     <defs>
      <path id="DejaVuSans-4a" d="M 628 4666 
L 1259 4666 
L 1259 325 
Q 1259 -519 939 -900 
Q 619 -1281 -91 -1281 
L -331 -1281 
L -331 -750 
L -134 -750 
Q 284 -750 456 -515 
Q 628 -281 628 325 
L 628 4666 
z
" transform="scale(0.015625)"/>
      <path id="DejaVuSans-53" d="M 3425 4513 
L 3425 3897 
Q 3066 4069 2747 4153 
Q 2428 4238 2131 4238 
Q 1616 4238 1336 4038 
Q 1056 3838 1056 3469 
Q 1056 3159 1242 3001 
Q 1428 2844 1947 2747 
L 2328 2669 
Q 3034 2534 3370 2195 
Q 3706 1856 3706 1288 
Q 3706 609 3251 259 
Q 2797 -91 1919 -91 
Q 1588 -91 1214 -16 
Q 841 59 441 206 
L 441 856 
Q 825 641 1194 531 
Q 1563 422 1919 422 
Q 2459 422 2753 634 
Q 3047 847 3047 1241 
Q 3047 1584 2836 1778 
Q 2625 1972 2144 2069 
L 1759 2144 
Q 1053 2284 737 2584 
Q 422 2884 422 3419 
Q 422 4038 858 4394 
Q 1294 4750 2059 4750 
Q 2388 4750 2728 4690 
Q 3069 4631 3425 4513 
z
" transform="scale(0.015625)"/>
     </defs>
     <use xlink:href="#DejaVuSans-4a"/>
     <use xlink:href="#DejaVuSans-53" x="29.492188"/>
     <use xlink:href="#DejaVuSans-4f" x="92.96875"/>
     <use xlink:href="#DejaVuSans-4e" x="171.679688"/>
    </g>
   </g>
  </g>
  <g id="axes_15"/>
  <g id="axes_16"/>
  <g id="text_75">
   <!-- https://github.com/biopragmatics/bioregistry (2024-10-26) -->
   <g style="fill: #808080; opacity: 0.5" transform="translate(278.67625 574.33625) scale(0.08 -0.08)">
    <defs>
     <path id="DejaVuSans-3a" d="M 750 794 
L 1409 794 
L 1409 0 
L 750 0 
L 750 794 
z
M 750 3309 
L 1409 3309 
L 1409 2516 
L 750 2516 
L 750 3309 
z
" transform="scale(0.015625)"/>
     <path id="DejaVuSans-2f" d="M 1625 4666 
L 2156 4666 
L 531 -594 
L 0 -594 
L 1625 4666 
z
" transform="scale(0.015625)"/>
     <path id="DejaVuSans-75" d="M 544 1381 
L 544 3500 
L 1119 3500 
L 1119 1403 
Q 1119 906 1312 657 
Q 1506 409 1894 409 
Q 2359 409 2629 706 
Q 2900 1003 2900 1516 
L 2900 3500 
L 3475 3500 
L 3475 0 
L 2900 0 
L 2900 538 
Q 2691 219 2414 64 
Q 2138 -91 1772 -91 
Q 1169 -91 856 284 
Q 544 659 544 1381 
z
M 1991 3584 
L 1991 3584 
z
" transform="scale(0.015625)"/>
     <path id="DejaVuSans-28" d="M 1984 4856 
Q 1566 4138 1362 3434 
Q 1159 2731 1159 2009 
Q 1159 1288 1364 580 
Q 1569 -128 1984 -844 
L 1484 -844 
Q 1016 -109 783 600 
Q 550 1309 550 2009 
Q 550 2706 781 3412 
Q 1013 4119 1484 4856 
L 1984 4856 
z
" transform="scale(0.015625)"/>
     <path id="DejaVuSans-29" d="M 513 4856 
L 1013 4856 
Q 1481 4119 1714 3412 
Q 1947 2706 1947 2009 
Q 1947 1309 1714 600 
Q 1481 -109 1013 -844 
L 513 -844 
Q 928 -128 1133 580 
Q 1338 1288 1338 2009 
Q 1338 2731 1133 3434 
Q 928 4138 513 4856 
z
" transform="scale(0.015625)"/>
    </defs>
    <use xlink:href="#DejaVuSans-68"/>
    <use xlink:href="#DejaVuSans-74" x="63.378906"/>
    <use xlink:href="#DejaVuSans-74" x="102.587891"/>
    <use xlink:href="#DejaVuSans-70" x="141.796875"/>
    <use xlink:href="#DejaVuSans-73" x="205.273438"/>
    <use xlink:href="#DejaVuSans-3a" x="257.373047"/>
    <use xlink:href="#DejaVuSans-2f" x="291.064453"/>
    <use xlink:href="#DejaVuSans-2f" x="324.755859"/>
    <use xlink:href="#DejaVuSans-67" x="358.447266"/>
    <use xlink:href="#DejaVuSans-69" x="421.923828"/>
    <use xlink:href="#DejaVuSans-74" x="449.707031"/>
    <use xlink:href="#DejaVuSans-68" x="488.916016"/>
    <use xlink:href="#DejaVuSans-75" x="552.294922"/>
    <use xlink:href="#DejaVuSans-62" x="615.673828"/>
    <use xlink:href="#DejaVuSans-2e" x="679.150391"/>
    <use xlink:href="#DejaVuSans-63" x="710.9375"/>
    <use xlink:href="#DejaVuSans-6f" x="765.917969"/>
    <use xlink:href="#DejaVuSans-6d" x="827.099609"/>
    <use xlink:href="#DejaVuSans-2f" x="924.511719"/>
    <use xlink:href="#DejaVuSans-62" x="958.203125"/>
    <use xlink:href="#DejaVuSans-69" x="1021.679688"/>
    <use xlink:href="#DejaVuSans-6f" x="1049.462891"/>
    <use xlink:href="#DejaVuSans-70" x="1110.644531"/>
    <use xlink:href="#DejaVuSans-72" x="1174.121094"/>
    <use xlink:href="#DejaVuSans-61" x="1215.234375"/>
    <use xlink:href="#DejaVuSans-67" x="1276.513672"/>
    <use xlink:href="#DejaVuSans-6d" x="1339.990234"/>
    <use xlink:href="#DejaVuSans-61" x="1437.402344"/>
    <use xlink:href="#DejaVuSans-74" x="1498.681641"/>
    <use xlink:href="#DejaVuSans-69" x="1537.890625"/>
    <use xlink:href="#DejaVuSans-63" x="1565.673828"/>
    <use xlink:href="#DejaVuSans-73" x="1620.654297"/>
    <use xlink:href="#DejaVuSans-2f" x="1672.753906"/>
    <use xlink:href="#DejaVuSans-62" x="1706.445312"/>
    <use xlink:href="#DejaVuSans-69" x="1769.921875"/>
    <use xlink:href="#DejaVuSans-6f" x="1797.705078"/>
    <use xlink:href="#DejaVuSans-72" x="1858.886719"/>
    <use xlink:href="#DejaVuSans-65" x="1897.75"/>
    <use xlink:href="#DejaVuSans-67" x="1959.273438"/>
    <use xlink:href="#DejaVuSans-69" x="2022.75"/>
    <use xlink:href="#DejaVuSans-73" x="2050.533203"/>
    <use xlink:href="#DejaVuSans-74" x="2102.632812"/>
    <use xlink:href="#DejaVuSans-72" x="2141.841797"/>
    <use xlink:href="#DejaVuSans-79" x="2182.955078"/>
    <use xlink:href="#DejaVuSans-20" x="2242.134766"/>
    <use xlink:href="#DejaVuSans-28" x="2273.921875"/>
    <use xlink:href="#DejaVuSans-32" x="2312.935547"/>
    <use xlink:href="#DejaVuSans-30" x="2376.558594"/>
    <use xlink:href="#DejaVuSans-32" x="2440.181641"/>
    <use xlink:href="#DejaVuSans-34" x="2503.804688"/>
    <use xlink:href="#DejaVuSans-2d" x="2567.427734"/>
    <use xlink:href="#DejaVuSans-31" x="2603.511719"/>
    <use xlink:href="#DejaVuSans-30" x="2667.134766"/>
    <use xlink:href="#DejaVuSans-2d" x="2730.757812"/>
    <use xlink:href="#DejaVuSans-32" x="2766.841797"/>
    <use xlink:href="#DejaVuSans-36" x="2830.464844"/>
    <use xlink:href="#DejaVuSans-29" x="2894.087891"/>
   </g>
  </g>
 </g>
</svg>
