<?xml version="1.0" encoding="utf-8" standalone="no"?>
<!DOCTYPE svg PUBLIC "-//W3C//DTD SVG 1.1//EN"
  "http://www.w3.org/Graphics/SVG/1.1/DTD/svg11.dtd">
<svg height="345.6pt" version="1.1" viewBox="0 0 460.8 345.6" width="460.8pt" xmlns="http://www.w3.org/2000/svg" xmlns:xlink="http://www.w3.org/1999/xlink">
 <metadata>
  <rdf:RDF xmlns:cc="http://creativecommons.org/ns#" xmlns:dc="http://purl.org/dc/elements/1.1/" xmlns:rdf="http://www.w3.org/1999/02/22-rdf-syntax-ns#">
   <cc:Work>
    <dc:type rdf:resource="http://purl.org/dc/dcmitype/StillImage"/>
    <dc:date>2021-04-14T12:47:52.178976</dc:date>
    <dc:format>image/svg+xml</dc:format>
    <dc:creator>
     <cc:Agent>
      <dc:title>Matplotlib v3.4.1, https://matplotlib.org/</dc:title>
     </cc:Agent>
    </dc:creator>
   </cc:Work>
  </rdf:RDF>
 </metadata>
 <defs>
  <style type="text/css">*{stroke-linecap:butt;stroke-linejoin:round;}</style>
 </defs>
 <g id="figure_1">
  <g id="patch_1">
   <path d="M 0 345.6 
L 460.8 345.6 
L 460.8 0 
L 0 0 
z
" style="fill:#ffffff;"/>
  </g>
  <g id="axes_1">
   <g id="matplotlib.axis_1"/>
   <g id="matplotlib.axis_2"/>
   <g id="patch_2">
    <path d="M 108.815053 55.653194 
C 108.815053 52.606907 108.215 49.590241 107.049237 46.775838 
C 105.883473 43.961436 104.174669 41.40403 102.020618 39.249979 
C 99.866568 37.095929 97.309162 35.387125 94.494759 34.221361 
C 91.680357 33.055597 88.66369 32.455545 85.617403 32.455545 
C 82.571116 32.455545 79.554449 33.055597 76.740047 34.221361 
C 73.925644 35.387125 71.368238 37.095929 69.214188 39.249979 
C 67.060137 41.40403 65.351333 43.961436 64.185569 46.775838 
C 63.019806 49.590241 62.419753 52.606907 62.419753 55.653194 
C 62.419753 58.699482 63.019806 61.716148 64.185569 64.530551 
C 65.351333 67.344953 67.060137 69.902359 69.214188 72.05641 
C 71.368238 74.21046 73.925644 75.919264 76.740047 77.085028 
C 79.554449 78.250792 82.571116 78.850844 85.617403 78.850844 
C 88.66369 78.850844 91.680357 78.250792 94.494759 77.085028 
C 97.309162 75.919264 99.866568 74.21046 102.020618 72.05641 
C 104.174669 69.902359 105.883473 67.344953 107.049237 64.530551 
C 108.215 61.716148 108.815053 58.699482 108.815053 55.653194 
M 85.617403 55.653194 
M 108.815053 55.653194 
z
" style="fill:#1f77b4;stroke:#ffffff;stroke-linejoin:miter;"/>
   </g>
   <g id="patch_3">
    <path d="M 107.716132 42.894487 
C 107.716132 42.894487 107.716132 42.894487 107.716132 42.894487 
L 87.626378 54.493312 
L 107.716132 42.894487 
z
" style="fill:#ff7f0e;stroke:#ffffff;stroke-linejoin:miter;"/>
   </g>
   <g id="text_1">
    <!-- Yes -->
    <g style="fill:#262626;" transform="translate(47.199924 70.997058)scale(0.1 -0.1)">
     <defs>
      <path d="M 1784 0 
L 1784 1941 
L 19 4581 
L 756 4581 
L 1659 3200 
Q 1909 2813 2125 2425 
Q 2331 2784 2625 3234 
L 3513 4581 
L 4219 4581 
L 2391 1941 
L 2391 0 
L 1784 0 
z
" id="ArialMT-59" transform="scale(0.015625)"/>
      <path d="M 2694 1069 
L 3275 997 
Q 3138 488 2766 206 
Q 2394 -75 1816 -75 
Q 1088 -75 661 373 
Q 234 822 234 1631 
Q 234 2469 665 2931 
Q 1097 3394 1784 3394 
Q 2450 3394 2872 2941 
Q 3294 2488 3294 1666 
Q 3294 1616 3291 1516 
L 816 1516 
Q 847 969 1125 678 
Q 1403 388 1819 388 
Q 2128 388 2347 550 
Q 2566 713 2694 1069 
z
M 847 1978 
L 2700 1978 
Q 2663 2397 2488 2606 
Q 2219 2931 1791 2931 
Q 1403 2931 1139 2672 
Q 875 2413 847 1978 
z
" id="ArialMT-65" transform="scale(0.015625)"/>
      <path d="M 197 991 
L 753 1078 
Q 800 744 1014 566 
Q 1228 388 1613 388 
Q 2000 388 2187 545 
Q 2375 703 2375 916 
Q 2375 1106 2209 1216 
Q 2094 1291 1634 1406 
Q 1016 1563 777 1677 
Q 538 1791 414 1992 
Q 291 2194 291 2438 
Q 291 2659 392 2848 
Q 494 3038 669 3163 
Q 800 3259 1026 3326 
Q 1253 3394 1513 3394 
Q 1903 3394 2198 3281 
Q 2494 3169 2634 2976 
Q 2775 2784 2828 2463 
L 2278 2388 
Q 2241 2644 2061 2787 
Q 1881 2931 1553 2931 
Q 1166 2931 1000 2803 
Q 834 2675 834 2503 
Q 834 2394 903 2306 
Q 972 2216 1119 2156 
Q 1203 2125 1616 2013 
Q 2213 1853 2448 1751 
Q 2684 1650 2818 1456 
Q 2953 1263 2953 975 
Q 2953 694 2789 445 
Q 2625 197 2315 61 
Q 2006 -75 1616 -75 
Q 969 -75 630 194 
Q 291 463 197 991 
z
" id="ArialMT-73" transform="scale(0.015625)"/>
     </defs>
     <use xlink:href="#ArialMT-59"/>
     <use x="57.574219" xlink:href="#ArialMT-65"/>
     <use x="113.189453" xlink:href="#ArialMT-73"/>
    </g>
   </g>
   <g id="text_2">
    <!-- 100% -->
    <g style="fill:#262626;" transform="translate(60.776051 65.197646)scale(0.1 -0.1)">
     <defs>
      <path d="M 2384 0 
L 1822 0 
L 1822 3584 
Q 1619 3391 1289 3197 
Q 959 3003 697 2906 
L 697 3450 
Q 1169 3672 1522 3987 
Q 1875 4303 2022 4600 
L 2384 4600 
L 2384 0 
z
" id="ArialMT-31" transform="scale(0.015625)"/>
      <path d="M 266 2259 
Q 266 3072 433 3567 
Q 600 4063 929 4331 
Q 1259 4600 1759 4600 
Q 2128 4600 2406 4451 
Q 2684 4303 2865 4023 
Q 3047 3744 3150 3342 
Q 3253 2941 3253 2259 
Q 3253 1453 3087 958 
Q 2922 463 2592 192 
Q 2263 -78 1759 -78 
Q 1097 -78 719 397 
Q 266 969 266 2259 
z
M 844 2259 
Q 844 1131 1108 757 
Q 1372 384 1759 384 
Q 2147 384 2411 759 
Q 2675 1134 2675 2259 
Q 2675 3391 2411 3762 
Q 2147 4134 1753 4134 
Q 1366 4134 1134 3806 
Q 844 3388 844 2259 
z
" id="ArialMT-30" transform="scale(0.015625)"/>
      <path d="M 372 3481 
Q 372 3972 619 4315 
Q 866 4659 1334 4659 
Q 1766 4659 2048 4351 
Q 2331 4044 2331 3447 
Q 2331 2866 2045 2552 
Q 1759 2238 1341 2238 
Q 925 2238 648 2547 
Q 372 2856 372 3481 
z
M 1350 4272 
Q 1141 4272 1002 4090 
Q 863 3909 863 3425 
Q 863 2984 1003 2804 
Q 1144 2625 1350 2625 
Q 1563 2625 1702 2806 
Q 1841 2988 1841 3469 
Q 1841 3913 1700 4092 
Q 1559 4272 1350 4272 
z
M 1353 -169 
L 3859 4659 
L 4316 4659 
L 1819 -169 
L 1353 -169 
z
M 3334 1075 
Q 3334 1569 3581 1911 
Q 3828 2253 4300 2253 
Q 4731 2253 5014 1945 
Q 5297 1638 5297 1041 
Q 5297 459 5011 145 
Q 4725 -169 4303 -169 
Q 3888 -169 3611 142 
Q 3334 453 3334 1075 
z
M 4316 1866 
Q 4103 1866 3964 1684 
Q 3825 1503 3825 1019 
Q 3825 581 3965 400 
Q 4106 219 4313 219 
Q 4528 219 4667 400 
Q 4806 581 4806 1063 
Q 4806 1506 4665 1686 
Q 4525 1866 4316 1866 
z
" id="ArialMT-25" transform="scale(0.015625)"/>
     </defs>
     <use xlink:href="#ArialMT-31"/>
     <use x="55.615234" xlink:href="#ArialMT-30"/>
     <use x="111.230469" xlink:href="#ArialMT-30"/>
     <use x="166.845703" xlink:href="#ArialMT-25"/>
    </g>
   </g>
   <g id="text_3">
    <!-- No -->
    <g style="fill:#262626;" transform="translate(109.725108 44.319761)scale(0.1 -0.1)">
     <defs>
      <path d="M 488 0 
L 488 4581 
L 1109 4581 
L 3516 984 
L 3516 4581 
L 4097 4581 
L 4097 0 
L 3475 0 
L 1069 3600 
L 1069 0 
L 488 0 
z
" id="ArialMT-4e" transform="scale(0.015625)"/>
      <path d="M 213 1659 
Q 213 2581 725 3025 
Q 1153 3394 1769 3394 
Q 2453 3394 2887 2945 
Q 3322 2497 3322 1706 
Q 3322 1066 3130 698 
Q 2938 331 2570 128 
Q 2203 -75 1769 -75 
Q 1072 -75 642 372 
Q 213 819 213 1659 
z
M 791 1659 
Q 791 1022 1069 705 
Q 1347 388 1769 388 
Q 2188 388 2466 706 
Q 2744 1025 2744 1678 
Q 2744 2294 2464 2611 
Q 2184 2928 1769 2928 
Q 1347 2928 1069 2612 
Q 791 2297 791 1659 
z
" id="ArialMT-6f" transform="scale(0.015625)"/>
     </defs>
     <use xlink:href="#ArialMT-4e"/>
     <use x="72.216797" xlink:href="#ArialMT-6f"/>
    </g>
   </g>
   <g id="text_4">
    <!-- 0% -->
    <g style="fill:#262626;" transform="translate(92.453668 50.119173)scale(0.1 -0.1)">
     <use xlink:href="#ArialMT-30"/>
     <use x="55.615234" xlink:href="#ArialMT-25"/>
    </g>
   </g>
   <g id="text_5">
    <!-- Name -->
    <g style="fill:#262626;" transform="translate(71.622316 19.49625)scale(0.12 -0.12)">
     <defs>
      <path d="M 2588 409 
Q 2275 144 1986 34 
Q 1697 -75 1366 -75 
Q 819 -75 525 192 
Q 231 459 231 875 
Q 231 1119 342 1320 
Q 453 1522 633 1644 
Q 813 1766 1038 1828 
Q 1203 1872 1538 1913 
Q 2219 1994 2541 2106 
Q 2544 2222 2544 2253 
Q 2544 2597 2384 2738 
Q 2169 2928 1744 2928 
Q 1347 2928 1158 2789 
Q 969 2650 878 2297 
L 328 2372 
Q 403 2725 575 2942 
Q 747 3159 1072 3276 
Q 1397 3394 1825 3394 
Q 2250 3394 2515 3294 
Q 2781 3194 2906 3042 
Q 3031 2891 3081 2659 
Q 3109 2516 3109 2141 
L 3109 1391 
Q 3109 606 3145 398 
Q 3181 191 3288 0 
L 2700 0 
Q 2613 175 2588 409 
z
M 2541 1666 
Q 2234 1541 1622 1453 
Q 1275 1403 1131 1340 
Q 988 1278 909 1158 
Q 831 1038 831 891 
Q 831 666 1001 516 
Q 1172 366 1500 366 
Q 1825 366 2078 508 
Q 2331 650 2450 897 
Q 2541 1088 2541 1459 
L 2541 1666 
z
" id="ArialMT-61" transform="scale(0.015625)"/>
      <path d="M 422 0 
L 422 3319 
L 925 3319 
L 925 2853 
Q 1081 3097 1340 3245 
Q 1600 3394 1931 3394 
Q 2300 3394 2536 3241 
Q 2772 3088 2869 2813 
Q 3263 3394 3894 3394 
Q 4388 3394 4653 3120 
Q 4919 2847 4919 2278 
L 4919 0 
L 4359 0 
L 4359 2091 
Q 4359 2428 4304 2576 
Q 4250 2725 4106 2815 
Q 3963 2906 3769 2906 
Q 3419 2906 3187 2673 
Q 2956 2441 2956 1928 
L 2956 0 
L 2394 0 
L 2394 2156 
Q 2394 2531 2256 2718 
Q 2119 2906 1806 2906 
Q 1569 2906 1367 2781 
Q 1166 2656 1075 2415 
Q 984 2175 984 1722 
L 984 0 
L 422 0 
z
" id="ArialMT-6d" transform="scale(0.015625)"/>
     </defs>
     <use xlink:href="#ArialMT-4e"/>
     <use x="72.216797" xlink:href="#ArialMT-61"/>
     <use x="127.832031" xlink:href="#ArialMT-6d"/>
     <use x="211.132812" xlink:href="#ArialMT-65"/>
    </g>
   </g>
  </g>
  <g id="axes_2">
   <g id="matplotlib.axis_3"/>
   <g id="matplotlib.axis_4"/>
   <g id="patch_4">
    <path d="M 248.176688 43.070652 
C 246.871648 40.810256 245.194425 38.78624 243.2158 37.084018 
C 241.237175 35.381796 238.985377 34.025654 236.555433 33.072822 
C 234.125488 32.11999 231.552067 31.584063 228.943768 31.487656 
C 226.335469 31.39125 223.729506 31.735739 221.235852 32.506588 
C 218.742198 33.277436 216.396431 34.463645 214.297543 36.015156 
C 212.198655 37.566667 210.376592 39.461345 208.908246 41.619232 
C 207.4399 43.777119 206.34622 46.167428 205.67336 48.689288 
C 205.0005 51.211148 204.75806 53.828578 204.956271 56.431121 
C 205.154482 59.033664 205.790516 61.584188 206.837533 63.975061 
C 207.884549 66.365934 209.32761 68.563044 211.105816 70.473672 
C 212.884023 72.3843 214.972005 73.981186 217.28165 75.196941 
C 219.591295 76.412695 222.089648 77.229973 224.67128 77.614285 
C 227.252912 77.998597 229.880988 77.944459 232.444603 77.454157 
C 235.008218 76.963854 237.470795 76.044383 239.728413 74.734543 
C 241.986031 73.424704 244.006479 71.743186 245.704493 69.760949 
C 247.402508 67.778712 248.753863 65.524037 249.70153 63.092074 
L 228.086934 54.669476 
L 248.176688 43.070652 
z
" style="fill:#1f77b4;stroke:#ffffff;stroke-linejoin:miter;"/>
   </g>
   <g id="patch_5">
    <path d="M 252.014597 62.91591 
C 253.276427 59.677723 253.794583 56.196986 253.530663 52.73167 
C 253.266743 49.266353 252.227431 45.904234 250.489756 42.894491 
L 230.4 54.493312 
L 252.014597 62.91591 
z
" style="fill:#ff7f0e;stroke:#ffffff;stroke-linejoin:miter;"/>
   </g>
   <g id="text_6">
    <!-- Yes -->
    <g style="fill:#262626;" transform="translate(186.324455 59.192441)scale(0.1 -0.1)">
     <use xlink:href="#ArialMT-59"/>
     <use x="57.574219" xlink:href="#ArialMT-65"/>
     <use x="113.189453" xlink:href="#ArialMT-73"/>
    </g>
   </g>
   <g id="text_7">
    <!-- 86% -->
    <g style="fill:#262626;" transform="translate(204.201505 58.311619)scale(0.1 -0.1)">
     <defs>
      <path d="M 1131 2484 
Q 781 2613 612 2850 
Q 444 3088 444 3419 
Q 444 3919 803 4259 
Q 1163 4600 1759 4600 
Q 2359 4600 2725 4251 
Q 3091 3903 3091 3403 
Q 3091 3084 2923 2848 
Q 2756 2613 2416 2484 
Q 2838 2347 3058 2040 
Q 3278 1734 3278 1309 
Q 3278 722 2862 322 
Q 2447 -78 1769 -78 
Q 1091 -78 675 323 
Q 259 725 259 1325 
Q 259 1772 486 2073 
Q 713 2375 1131 2484 
z
M 1019 3438 
Q 1019 3113 1228 2906 
Q 1438 2700 1772 2700 
Q 2097 2700 2305 2904 
Q 2513 3109 2513 3406 
Q 2513 3716 2298 3927 
Q 2084 4138 1766 4138 
Q 1444 4138 1231 3931 
Q 1019 3725 1019 3438 
z
M 838 1322 
Q 838 1081 952 856 
Q 1066 631 1291 507 
Q 1516 384 1775 384 
Q 2178 384 2440 643 
Q 2703 903 2703 1303 
Q 2703 1709 2433 1975 
Q 2163 2241 1756 2241 
Q 1359 2241 1098 1978 
Q 838 1716 838 1322 
z
" id="ArialMT-38" transform="scale(0.015625)"/>
      <path d="M 3184 3459 
L 2625 3416 
Q 2550 3747 2413 3897 
Q 2184 4138 1850 4138 
Q 1581 4138 1378 3988 
Q 1113 3794 959 3422 
Q 806 3050 800 2363 
Q 1003 2672 1297 2822 
Q 1591 2972 1913 2972 
Q 2475 2972 2870 2558 
Q 3266 2144 3266 1488 
Q 3266 1056 3080 686 
Q 2894 316 2569 119 
Q 2244 -78 1831 -78 
Q 1128 -78 684 439 
Q 241 956 241 2144 
Q 241 3472 731 4075 
Q 1159 4600 1884 4600 
Q 2425 4600 2770 4297 
Q 3116 3994 3184 3459 
z
M 888 1484 
Q 888 1194 1011 928 
Q 1134 663 1356 523 
Q 1578 384 1822 384 
Q 2178 384 2434 671 
Q 2691 959 2691 1453 
Q 2691 1928 2437 2201 
Q 2184 2475 1800 2475 
Q 1419 2475 1153 2201 
Q 888 1928 888 1484 
z
" id="ArialMT-36" transform="scale(0.015625)"/>
     </defs>
     <use xlink:href="#ArialMT-38"/>
     <use x="55.615234" xlink:href="#ArialMT-36"/>
     <use x="111.230469" xlink:href="#ArialMT-25"/>
    </g>
   </g>
   <g id="text_8">
    <!-- No -->
    <g style="fill:#262626;" transform="translate(255.843729 55.140662)scale(0.1 -0.1)">
     <use xlink:href="#ArialMT-4e"/>
     <use x="72.216797" xlink:href="#ArialMT-6f"/>
    </g>
   </g>
   <g id="text_9">
    <!-- 14% -->
    <g style="fill:#262626;" transform="translate(234.271366 56.021483)scale(0.1 -0.1)">
     <defs>
      <path d="M 2069 0 
L 2069 1097 
L 81 1097 
L 81 1613 
L 2172 4581 
L 2631 4581 
L 2631 1613 
L 3250 1613 
L 3250 1097 
L 2631 1097 
L 2631 0 
L 2069 0 
z
M 2069 1613 
L 2069 3678 
L 634 1613 
L 2069 1613 
z
" id="ArialMT-34" transform="scale(0.015625)"/>
     </defs>
     <use xlink:href="#ArialMT-31"/>
     <use x="55.615234" xlink:href="#ArialMT-34"/>
     <use x="111.230469" xlink:href="#ArialMT-25"/>
    </g>
   </g>
   <g id="text_10">
    <!-- Description -->
    <g style="fill:#262626;" transform="translate(200.389687 19.49625)scale(0.12 -0.12)">
     <defs>
      <path d="M 494 0 
L 494 4581 
L 2072 4581 
Q 2606 4581 2888 4516 
Q 3281 4425 3559 4188 
Q 3922 3881 4101 3404 
Q 4281 2928 4281 2316 
Q 4281 1794 4159 1391 
Q 4038 988 3847 723 
Q 3656 459 3429 307 
Q 3203 156 2883 78 
Q 2563 0 2147 0 
L 494 0 
z
M 1100 541 
L 2078 541 
Q 2531 541 2789 625 
Q 3047 709 3200 863 
Q 3416 1078 3536 1442 
Q 3656 1806 3656 2325 
Q 3656 3044 3420 3430 
Q 3184 3816 2847 3947 
Q 2603 4041 2063 4041 
L 1100 4041 
L 1100 541 
z
" id="ArialMT-44" transform="scale(0.015625)"/>
      <path d="M 2588 1216 
L 3141 1144 
Q 3050 572 2676 248 
Q 2303 -75 1759 -75 
Q 1078 -75 664 370 
Q 250 816 250 1647 
Q 250 2184 428 2587 
Q 606 2991 970 3192 
Q 1334 3394 1763 3394 
Q 2303 3394 2647 3120 
Q 2991 2847 3088 2344 
L 2541 2259 
Q 2463 2594 2264 2762 
Q 2066 2931 1784 2931 
Q 1359 2931 1093 2626 
Q 828 2322 828 1663 
Q 828 994 1084 691 
Q 1341 388 1753 388 
Q 2084 388 2306 591 
Q 2528 794 2588 1216 
z
" id="ArialMT-63" transform="scale(0.015625)"/>
      <path d="M 416 0 
L 416 3319 
L 922 3319 
L 922 2816 
Q 1116 3169 1280 3281 
Q 1444 3394 1641 3394 
Q 1925 3394 2219 3213 
L 2025 2691 
Q 1819 2813 1613 2813 
Q 1428 2813 1281 2702 
Q 1134 2591 1072 2394 
Q 978 2094 978 1738 
L 978 0 
L 416 0 
z
" id="ArialMT-72" transform="scale(0.015625)"/>
      <path d="M 425 3934 
L 425 4581 
L 988 4581 
L 988 3934 
L 425 3934 
z
M 425 0 
L 425 3319 
L 988 3319 
L 988 0 
L 425 0 
z
" id="ArialMT-69" transform="scale(0.015625)"/>
      <path d="M 422 -1272 
L 422 3319 
L 934 3319 
L 934 2888 
Q 1116 3141 1344 3267 
Q 1572 3394 1897 3394 
Q 2322 3394 2647 3175 
Q 2972 2956 3137 2557 
Q 3303 2159 3303 1684 
Q 3303 1175 3120 767 
Q 2938 359 2589 142 
Q 2241 -75 1856 -75 
Q 1575 -75 1351 44 
Q 1128 163 984 344 
L 984 -1272 
L 422 -1272 
z
M 931 1641 
Q 931 1000 1190 694 
Q 1450 388 1819 388 
Q 2194 388 2461 705 
Q 2728 1022 2728 1688 
Q 2728 2322 2467 2637 
Q 2206 2953 1844 2953 
Q 1484 2953 1207 2617 
Q 931 2281 931 1641 
z
" id="ArialMT-70" transform="scale(0.015625)"/>
      <path d="M 1650 503 
L 1731 6 
Q 1494 -44 1306 -44 
Q 1000 -44 831 53 
Q 663 150 594 308 
Q 525 466 525 972 
L 525 2881 
L 113 2881 
L 113 3319 
L 525 3319 
L 525 4141 
L 1084 4478 
L 1084 3319 
L 1650 3319 
L 1650 2881 
L 1084 2881 
L 1084 941 
Q 1084 700 1114 631 
Q 1144 563 1211 522 
Q 1278 481 1403 481 
Q 1497 481 1650 503 
z
" id="ArialMT-74" transform="scale(0.015625)"/>
      <path d="M 422 0 
L 422 3319 
L 928 3319 
L 928 2847 
Q 1294 3394 1984 3394 
Q 2284 3394 2536 3286 
Q 2788 3178 2913 3003 
Q 3038 2828 3088 2588 
Q 3119 2431 3119 2041 
L 3119 0 
L 2556 0 
L 2556 2019 
Q 2556 2363 2490 2533 
Q 2425 2703 2258 2804 
Q 2091 2906 1866 2906 
Q 1506 2906 1245 2678 
Q 984 2450 984 1813 
L 984 0 
L 422 0 
z
" id="ArialMT-6e" transform="scale(0.015625)"/>
     </defs>
     <use xlink:href="#ArialMT-44"/>
     <use x="72.216797" xlink:href="#ArialMT-65"/>
     <use x="127.832031" xlink:href="#ArialMT-73"/>
     <use x="177.832031" xlink:href="#ArialMT-63"/>
     <use x="227.832031" xlink:href="#ArialMT-72"/>
     <use x="261.132812" xlink:href="#ArialMT-69"/>
     <use x="283.349609" xlink:href="#ArialMT-70"/>
     <use x="338.964844" xlink:href="#ArialMT-74"/>
     <use x="366.748047" xlink:href="#ArialMT-69"/>
     <use x="388.964844" xlink:href="#ArialMT-6f"/>
     <use x="444.580078" xlink:href="#ArialMT-6e"/>
    </g>
   </g>
  </g>
  <g id="axes_3">
   <g id="matplotlib.axis_5"/>
   <g id="matplotlib.axis_6"/>
   <g id="patch_6">
    <path d="M 394.034786 40.70674 
C 391.268398 35.915217 386.877039 32.267957 381.659135 30.428099 
C 376.441232 28.58824 370.733421 28.674482 365.573486 30.671145 
L 373.945032 52.305565 
L 394.034786 40.70674 
z
" style="fill:#1f77b4;stroke:#ffffff;stroke-linejoin:miter;"/>
   </g>
   <g id="patch_7">
    <path d="M 364.802075 32.858891 
C 362.604316 33.709325 360.548922 34.889708 358.70676 36.359342 
C 356.864599 37.828976 355.257088 39.570774 353.939653 41.52468 
C 352.622219 43.478586 351.610178 45.621884 350.938425 47.880673 
C 350.266672 50.139463 349.943017 52.487483 349.97862 54.843776 
C 350.014222 57.200068 350.408667 59.537238 351.148356 61.774702 
C 351.888045 64.012165 352.964377 66.123909 354.340242 68.037121 
C 355.716106 69.950333 357.375506 71.642769 359.261228 73.056077 
C 361.146949 74.469384 363.237067 75.587131 365.459516 76.370778 
C 367.681965 77.154425 370.010906 77.594861 372.36604 77.6769 
C 374.721173 77.758939 377.075116 77.481628 379.346707 76.854527 
C 381.618299 76.227427 383.781128 75.257828 385.760622 73.979162 
C 387.740116 72.700497 389.51326 71.12763 391.018919 69.314794 
C 392.524577 67.501957 393.745244 65.470228 394.638831 63.289658 
C 395.532419 61.109089 396.088538 58.805031 396.288015 56.456927 
C 396.487491 54.108823 396.328005 51.743973 395.815056 49.443915 
C 395.302107 47.143858 394.441658 44.935333 393.263378 42.894491 
L 373.173622 54.493312 
L 364.802075 32.858891 
z
" style="fill:#ff7f0e;stroke:#ffffff;stroke-linejoin:miter;"/>
   </g>
   <g id="text_11">
    <!-- Yes -->
    <g style="fill:#262626;" transform="translate(382.430546 30.825508)scale(0.1 -0.1)">
     <use xlink:href="#ArialMT-59"/>
     <use x="57.574219" xlink:href="#ArialMT-65"/>
     <use x="113.189453" xlink:href="#ArialMT-73"/>
    </g>
   </g>
   <g id="text_12">
    <!-- 23% -->
    <g style="fill:#262626;" transform="translate(368.566463 41.764241)scale(0.1 -0.1)">
     <defs>
      <path d="M 3222 541 
L 3222 0 
L 194 0 
Q 188 203 259 391 
Q 375 700 629 1000 
Q 884 1300 1366 1694 
Q 2113 2306 2375 2664 
Q 2638 3022 2638 3341 
Q 2638 3675 2398 3904 
Q 2159 4134 1775 4134 
Q 1369 4134 1125 3890 
Q 881 3647 878 3216 
L 300 3275 
Q 359 3922 746 4261 
Q 1134 4600 1788 4600 
Q 2447 4600 2831 4234 
Q 3216 3869 3216 3328 
Q 3216 3053 3103 2787 
Q 2991 2522 2730 2228 
Q 2469 1934 1863 1422 
Q 1356 997 1212 845 
Q 1069 694 975 541 
L 3222 541 
z
" id="ArialMT-32" transform="scale(0.015625)"/>
      <path d="M 269 1209 
L 831 1284 
Q 928 806 1161 595 
Q 1394 384 1728 384 
Q 2125 384 2398 659 
Q 2672 934 2672 1341 
Q 2672 1728 2419 1979 
Q 2166 2231 1775 2231 
Q 1616 2231 1378 2169 
L 1441 2663 
Q 1497 2656 1531 2656 
Q 1891 2656 2178 2843 
Q 2466 3031 2466 3422 
Q 2466 3731 2256 3934 
Q 2047 4138 1716 4138 
Q 1388 4138 1169 3931 
Q 950 3725 888 3313 
L 325 3413 
Q 428 3978 793 4289 
Q 1159 4600 1703 4600 
Q 2078 4600 2393 4439 
Q 2709 4278 2876 4000 
Q 3044 3722 3044 3409 
Q 3044 3113 2884 2869 
Q 2725 2625 2413 2481 
Q 2819 2388 3044 2092 
Q 3269 1797 3269 1353 
Q 3269 753 2831 336 
Q 2394 -81 1725 -81 
Q 1122 -81 723 278 
Q 325 638 269 1209 
z
" id="ArialMT-33" transform="scale(0.015625)"/>
     </defs>
     <use xlink:href="#ArialMT-32"/>
     <use x="55.615234" xlink:href="#ArialMT-33"/>
     <use x="111.230469" xlink:href="#ArialMT-25"/>
    </g>
   </g>
   <g id="text_13">
    <!-- No -->
    <g style="fill:#262626;" transform="translate(351.905293 81.143681)scale(0.1 -0.1)">
     <use xlink:href="#ArialMT-4e"/>
     <use x="72.216797" xlink:href="#ArialMT-6f"/>
    </g>
   </g>
   <g id="text_14">
    <!-- 77% -->
    <g style="fill:#262626;" transform="translate(358.538127 70.204948)scale(0.1 -0.1)">
     <defs>
      <path d="M 303 3981 
L 303 4522 
L 3269 4522 
L 3269 4084 
Q 2831 3619 2401 2847 
Q 1972 2075 1738 1259 
Q 1569 684 1522 0 
L 944 0 
Q 953 541 1156 1306 
Q 1359 2072 1739 2783 
Q 2119 3494 2547 3981 
L 303 3981 
z
" id="ArialMT-37" transform="scale(0.015625)"/>
     </defs>
     <use xlink:href="#ArialMT-37"/>
     <use x="55.615234" xlink:href="#ArialMT-37"/>
     <use x="111.230469" xlink:href="#ArialMT-25"/>
    </g>
   </g>
   <g id="text_15">
    <!-- Version -->
    <g style="fill:#262626;" transform="translate(353.160809 19.49625)scale(0.12 -0.12)">
     <defs>
      <path d="M 1803 0 
L 28 4581 
L 684 4581 
L 1875 1253 
Q 2019 853 2116 503 
Q 2222 878 2363 1253 
L 3600 4581 
L 4219 4581 
L 2425 0 
L 1803 0 
z
" id="ArialMT-56" transform="scale(0.015625)"/>
     </defs>
     <use xlink:href="#ArialMT-56"/>
     <use x="61.199219" xlink:href="#ArialMT-65"/>
     <use x="116.814453" xlink:href="#ArialMT-72"/>
     <use x="150.115234" xlink:href="#ArialMT-73"/>
     <use x="200.115234" xlink:href="#ArialMT-69"/>
     <use x="222.332031" xlink:href="#ArialMT-6f"/>
     <use x="277.947266" xlink:href="#ArialMT-6e"/>
    </g>
   </g>
  </g>
  <g id="axes_4">
   <g id="matplotlib.axis_7"/>
   <g id="matplotlib.axis_8"/>
   <g id="patch_8">
    <path d="M 107.002828 124.456987 
C 104.349199 119.860768 100.19697 116.311546 95.243747 114.40562 
C 90.290525 112.499693 84.830157 112.350129 79.78003 113.982058 
C 74.729903 115.613986 70.389614 118.930591 67.488366 123.374658 
C 64.587118 127.818726 63.297027 133.126611 63.834838 138.406548 
L 86.913074 136.055812 
L 107.002828 124.456987 
z
" style="fill:#1f77b4;stroke:#ffffff;stroke-linejoin:miter;"/>
   </g>
   <g id="patch_9">
    <path d="M 64.548142 140.613923 
C 64.898632 144.054839 66.014275 147.374207 67.81316 150.328316 
C 69.612045 153.282425 72.049043 155.797163 74.945226 157.687896 
C 77.841409 159.578629 81.124119 160.797923 84.552337 161.256256 
C 87.980555 161.714589 91.468274 161.400463 94.759424 160.336941 
C 98.050574 159.273419 101.062587 157.487182 103.574319 155.109378 
C 106.08605 152.731574 108.034487 149.821856 109.276572 146.593858 
C 110.518657 143.36586 111.023231 139.900565 110.753246 136.452398 
C 110.483261 133.004231 109.445491 129.659698 107.71613 126.664359 
L 87.626378 138.263187 
L 64.548142 140.613923 
z
" style="fill:#ff7f0e;stroke:#ffffff;stroke-linejoin:miter;"/>
   </g>
   <g id="text_16">
    <!-- Yes -->
    <g style="fill:#262626;" transform="translate(62.747976 114.359838)scale(0.1 -0.1)">
     <use xlink:href="#ArialMT-59"/>
     <use x="57.574219" xlink:href="#ArialMT-65"/>
     <use x="113.189453" xlink:href="#ArialMT-73"/>
    </g>
   </g>
   <g id="text_17">
    <!-- 43% -->
    <g style="fill:#262626;" transform="translate(72.626216 125.396716)scale(0.1 -0.1)">
     <use xlink:href="#ArialMT-34"/>
     <use x="55.615234" xlink:href="#ArialMT-33"/>
     <use x="111.230469" xlink:href="#ArialMT-25"/>
    </g>
   </g>
   <g id="text_18">
    <!-- No -->
    <g style="fill:#262626;" transform="translate(95.472729 165.129473)scale(0.1 -0.1)">
     <use xlink:href="#ArialMT-4e"/>
     <use x="72.216797" xlink:href="#ArialMT-6f"/>
    </g>
   </g>
   <g id="text_19">
    <!-- 57% -->
    <g style="fill:#262626;" transform="translate(81.899175 154.092596)scale(0.1 -0.1)">
     <defs>
      <path d="M 266 1200 
L 856 1250 
Q 922 819 1161 601 
Q 1400 384 1738 384 
Q 2144 384 2425 690 
Q 2706 997 2706 1503 
Q 2706 1984 2436 2262 
Q 2166 2541 1728 2541 
Q 1456 2541 1237 2417 
Q 1019 2294 894 2097 
L 366 2166 
L 809 4519 
L 3088 4519 
L 3088 3981 
L 1259 3981 
L 1013 2750 
Q 1425 3038 1878 3038 
Q 2478 3038 2890 2622 
Q 3303 2206 3303 1553 
Q 3303 931 2941 478 
Q 2500 -78 1738 -78 
Q 1113 -78 717 272 
Q 322 622 266 1200 
z
" id="ArialMT-35" transform="scale(0.015625)"/>
     </defs>
     <use xlink:href="#ArialMT-35"/>
     <use x="55.615234" xlink:href="#ArialMT-37"/>
     <use x="111.230469" xlink:href="#ArialMT-25"/>
    </g>
   </g>
   <g id="text_20">
    <!-- Homepage -->
    <g style="fill:#262626;" transform="translate(58.276066 103.266125)scale(0.12 -0.12)">
     <defs>
      <path d="M 513 0 
L 513 4581 
L 1119 4581 
L 1119 2700 
L 3500 2700 
L 3500 4581 
L 4106 4581 
L 4106 0 
L 3500 0 
L 3500 2159 
L 1119 2159 
L 1119 0 
L 513 0 
z
" id="ArialMT-48" transform="scale(0.015625)"/>
      <path d="M 319 -275 
L 866 -356 
Q 900 -609 1056 -725 
Q 1266 -881 1628 -881 
Q 2019 -881 2231 -725 
Q 2444 -569 2519 -288 
Q 2563 -116 2559 434 
Q 2191 0 1641 0 
Q 956 0 581 494 
Q 206 988 206 1678 
Q 206 2153 378 2554 
Q 550 2956 876 3175 
Q 1203 3394 1644 3394 
Q 2231 3394 2613 2919 
L 2613 3319 
L 3131 3319 
L 3131 450 
Q 3131 -325 2973 -648 
Q 2816 -972 2473 -1159 
Q 2131 -1347 1631 -1347 
Q 1038 -1347 672 -1080 
Q 306 -813 319 -275 
z
M 784 1719 
Q 784 1066 1043 766 
Q 1303 466 1694 466 
Q 2081 466 2343 764 
Q 2606 1063 2606 1700 
Q 2606 2309 2336 2618 
Q 2066 2928 1684 2928 
Q 1309 2928 1046 2623 
Q 784 2319 784 1719 
z
" id="ArialMT-67" transform="scale(0.015625)"/>
     </defs>
     <use xlink:href="#ArialMT-48"/>
     <use x="72.216797" xlink:href="#ArialMT-6f"/>
     <use x="127.832031" xlink:href="#ArialMT-6d"/>
     <use x="211.132812" xlink:href="#ArialMT-65"/>
     <use x="266.748047" xlink:href="#ArialMT-70"/>
     <use x="322.363281" xlink:href="#ArialMT-61"/>
     <use x="377.978516" xlink:href="#ArialMT-67"/>
     <use x="433.59375" xlink:href="#ArialMT-65"/>
    </g>
   </g>
  </g>
  <g id="axes_5">
   <g id="matplotlib.axis_9"/>
   <g id="matplotlib.axis_10"/>
   <g id="patch_10">
    <path d="M 251.242544 124.470139 
C 248.442278 119.619936 243.978134 115.944167 238.680693 114.12673 
C 233.383251 112.309293 227.602774 112.470356 222.414753 114.579952 
L 231.15279 136.068964 
L 251.242544 124.470139 
z
" style="fill:#1f77b4;stroke:#ffffff;stroke-linejoin:miter;"/>
   </g>
   <g id="patch_11">
    <path d="M 221.661962 116.774175 
C 219.486628 117.658728 217.458165 118.868488 215.64603 120.362034 
C 213.833894 121.85558 212.259007 123.615668 210.975292 125.582033 
C 209.691578 127.548398 208.713857 129.698338 208.075606 131.958238 
C 207.437355 134.218139 207.145944 136.561909 207.21135 138.909299 
C 207.276756 141.256688 207.698224 143.580595 208.461323 145.80145 
C 209.224422 148.022304 210.320342 150.114466 211.711558 152.006298 
C 213.102775 153.898131 214.773226 155.567794 216.665716 156.958117 
C 218.558205 158.348439 220.650884 159.443371 222.872098 160.205422 
C 225.093313 160.967472 227.417419 161.387842 229.764839 161.45214 
C 232.112259 161.516437 234.455891 161.223919 236.71549 160.584601 
C 238.975089 159.945284 241.124567 158.966547 243.090326 157.681904 
C 245.056084 156.397262 246.815429 154.821543 248.308119 153.008703 
C 249.800809 151.195862 251.009611 149.166829 251.893136 146.991076 
C 252.776661 144.815324 253.324709 142.517973 253.518513 140.177683 
C 253.712318 137.837394 253.549642 135.481186 253.036056 133.189736 
C 252.52247 130.898285 251.663903 128.698048 250.489753 126.664361 
L 230.4 138.263187 
L 221.661962 116.774175 
z
" style="fill:#ff7f0e;stroke:#ffffff;stroke-linejoin:miter;"/>
   </g>
   <g id="text_21">
    <!-- Yes -->
    <g style="fill:#262626;" transform="translate(239.433483 114.517663)scale(0.1 -0.1)">
     <use xlink:href="#ArialMT-59"/>
     <use x="57.574219" xlink:href="#ArialMT-65"/>
     <use x="113.189453" xlink:href="#ArialMT-73"/>
    </g>
   </g>
   <g id="text_22">
    <!-- 23% -->
    <g style="fill:#262626;" transform="translate(225.662501 125.48878)scale(0.1 -0.1)">
     <use xlink:href="#ArialMT-32"/>
     <use x="55.615234" xlink:href="#ArialMT-33"/>
     <use x="111.230469" xlink:href="#ArialMT-25"/>
    </g>
   </g>
   <g id="text_23">
    <!-- No -->
    <g style="fill:#262626;" transform="translate(209.336496 164.984801)scale(0.1 -0.1)">
     <use xlink:href="#ArialMT-4e"/>
     <use x="72.216797" xlink:href="#ArialMT-6f"/>
    </g>
   </g>
   <g id="text_24">
    <!-- 77% -->
    <g style="fill:#262626;" transform="translate(215.876228 154.013684)scale(0.1 -0.1)">
     <use xlink:href="#ArialMT-37"/>
     <use x="55.615234" xlink:href="#ArialMT-37"/>
     <use x="111.230469" xlink:href="#ArialMT-25"/>
    </g>
   </g>
   <g id="text_25">
    <!-- Contact Email -->
    <g style="fill:#262626;" transform="translate(193.05375 103.266125)scale(0.12 -0.12)">
     <defs>
      <path d="M 3763 1606 
L 4369 1453 
Q 4178 706 3683 314 
Q 3188 -78 2472 -78 
Q 1731 -78 1267 223 
Q 803 525 561 1097 
Q 319 1669 319 2325 
Q 319 3041 592 3573 
Q 866 4106 1370 4382 
Q 1875 4659 2481 4659 
Q 3169 4659 3637 4309 
Q 4106 3959 4291 3325 
L 3694 3184 
Q 3534 3684 3231 3912 
Q 2928 4141 2469 4141 
Q 1941 4141 1586 3887 
Q 1231 3634 1087 3207 
Q 944 2781 944 2328 
Q 944 1744 1114 1308 
Q 1284 872 1643 656 
Q 2003 441 2422 441 
Q 2931 441 3284 734 
Q 3638 1028 3763 1606 
z
" id="ArialMT-43" transform="scale(0.015625)"/>
      <path id="ArialMT-20" transform="scale(0.015625)"/>
      <path d="M 506 0 
L 506 4581 
L 3819 4581 
L 3819 4041 
L 1113 4041 
L 1113 2638 
L 3647 2638 
L 3647 2100 
L 1113 2100 
L 1113 541 
L 3925 541 
L 3925 0 
L 506 0 
z
" id="ArialMT-45" transform="scale(0.015625)"/>
      <path d="M 409 0 
L 409 4581 
L 972 4581 
L 972 0 
L 409 0 
z
" id="ArialMT-6c" transform="scale(0.015625)"/>
     </defs>
     <use xlink:href="#ArialMT-43"/>
     <use x="72.216797" xlink:href="#ArialMT-6f"/>
     <use x="127.832031" xlink:href="#ArialMT-6e"/>
     <use x="183.447266" xlink:href="#ArialMT-74"/>
     <use x="211.230469" xlink:href="#ArialMT-61"/>
     <use x="266.845703" xlink:href="#ArialMT-63"/>
     <use x="316.845703" xlink:href="#ArialMT-74"/>
     <use x="344.628906" xlink:href="#ArialMT-20"/>
     <use x="372.412109" xlink:href="#ArialMT-45"/>
     <use x="439.111328" xlink:href="#ArialMT-6d"/>
     <use x="522.412109" xlink:href="#ArialMT-61"/>
     <use x="578.027344" xlink:href="#ArialMT-69"/>
     <use x="600.244141" xlink:href="#ArialMT-6c"/>
    </g>
   </g>
  </g>
  <g id="axes_6">
   <g id="matplotlib.axis_11"/>
   <g id="matplotlib.axis_12"/>
   <g id="patch_12">
    <path d="M 391.055663 125.952101 
C 388.811527 122.065142 385.486825 118.911758 381.486686 116.876201 
C 377.486547 114.840645 372.980329 114.009098 368.517132 114.482886 
C 364.053936 114.956675 359.822723 116.71574 356.339084 119.545734 
C 352.855446 122.375727 350.266871 126.156832 348.888789 130.428306 
C 347.510707 134.69978 347.401463 139.280778 348.574367 143.613086 
C 349.747272 147.945394 352.152668 151.845592 355.497448 154.838425 
C 358.842227 157.831257 362.98478 159.790015 367.420319 160.476015 
C 371.855857 161.162015 376.396591 160.546213 380.489213 158.703647 
L 370.96591 137.550925 
L 391.055663 125.952101 
z
" style="fill:#1f77b4;stroke:#ffffff;stroke-linejoin:miter;"/>
   </g>
   <g id="patch_13">
    <path d="M 382.696925 159.415909 
C 385.653752 158.084697 388.298866 156.148178 390.461121 153.731649 
C 392.623376 151.315121 394.255108 148.471851 395.250742 145.385807 
C 396.246375 142.299763 396.583962 139.03897 396.241661 135.81441 
C 395.899359 132.589851 394.884714 129.472603 393.263375 126.664363 
L 373.173622 138.263187 
L 382.696925 159.415909 
z
" style="fill:#ff7f0e;stroke:#ffffff;stroke-linejoin:miter;"/>
   </g>
   <g id="text_26">
    <!-- Yes -->
    <g style="fill:#262626;" transform="translate(330.362327 132.3012)scale(0.1 -0.1)">
     <use xlink:href="#ArialMT-59"/>
     <use x="57.574219" xlink:href="#ArialMT-65"/>
     <use x="113.189453" xlink:href="#ArialMT-73"/>
    </g>
   </g>
   <g id="text_27">
    <!-- 73% -->
    <g style="fill:#262626;" transform="translate(347.712606 135.86251)scale(0.1 -0.1)">
     <use xlink:href="#ArialMT-37"/>
     <use x="55.615234" xlink:href="#ArialMT-33"/>
     <use x="111.230469" xlink:href="#ArialMT-25"/>
    </g>
   </g>
   <g id="text_28">
    <!-- No -->
    <g style="fill:#262626;" transform="translate(397.458454 148.683225)scale(0.1 -0.1)">
     <use xlink:href="#ArialMT-4e"/>
     <use x="72.216797" xlink:href="#ArialMT-6f"/>
    </g>
   </g>
   <g id="text_29">
    <!-- 27% -->
    <g style="fill:#262626;" transform="translate(376.412862 145.121915)scale(0.1 -0.1)">
     <use xlink:href="#ArialMT-32"/>
     <use x="55.615234" xlink:href="#ArialMT-37"/>
     <use x="111.230469" xlink:href="#ArialMT-25"/>
    </g>
   </g>
   <g id="text_30">
    <!-- Pattern -->
    <g style="fill:#262626;" transform="translate(353.830184 103.266125)scale(0.12 -0.12)">
     <defs>
      <path d="M 494 0 
L 494 4581 
L 2222 4581 
Q 2678 4581 2919 4538 
Q 3256 4481 3484 4323 
Q 3713 4166 3852 3881 
Q 3991 3597 3991 3256 
Q 3991 2672 3619 2267 
Q 3247 1863 2275 1863 
L 1100 1863 
L 1100 0 
L 494 0 
z
M 1100 2403 
L 2284 2403 
Q 2872 2403 3119 2622 
Q 3366 2841 3366 3238 
Q 3366 3525 3220 3729 
Q 3075 3934 2838 4000 
Q 2684 4041 2272 4041 
L 1100 4041 
L 1100 2403 
z
" id="ArialMT-50" transform="scale(0.015625)"/>
     </defs>
     <use xlink:href="#ArialMT-50"/>
     <use x="66.699219" xlink:href="#ArialMT-61"/>
     <use x="122.314453" xlink:href="#ArialMT-74"/>
     <use x="150.097656" xlink:href="#ArialMT-74"/>
     <use x="177.880859" xlink:href="#ArialMT-65"/>
     <use x="233.496094" xlink:href="#ArialMT-72"/>
     <use x="266.796875" xlink:href="#ArialMT-6e"/>
    </g>
   </g>
  </g>
  <g id="axes_7">
   <g id="matplotlib.axis_13"/>
   <g id="matplotlib.axis_14"/>
   <g id="patch_14">
    <path d="M 105.467805 211.005495 
C 104.078625 208.599364 102.268406 206.462258 100.123568 204.696202 
C 97.97873 202.930145 95.533954 201.563695 92.905954 200.662085 
C 90.277953 199.760476 87.509223 199.338285 84.73194 199.415669 
C 81.954658 199.493053 79.213732 200.068761 76.640014 201.115307 
C 74.066295 202.161854 71.701401 203.662316 69.65823 205.545064 
C 67.61506 207.427813 65.926651 209.662401 64.673607 212.142153 
C 63.420563 214.621905 62.623147 217.306721 62.319426 220.068431 
C 62.015705 222.83014 62.21059 225.624086 62.894779 228.316886 
C 63.578968 231.009686 64.741396 233.557798 66.32657 235.839576 
C 67.911744 238.121353 69.894031 240.099901 72.178799 241.680762 
C 74.463566 243.261624 77.013869 244.419238 79.707956 245.09834 
C 82.402044 245.777442 85.196352 245.967051 87.957484 245.658115 
C 90.718615 245.349178 93.40192 244.546693 95.879301 243.288968 
C 98.356682 242.031243 100.588078 240.338617 102.466964 238.291894 
C 104.34585 236.245171 105.841844 233.877448 106.883528 231.301758 
C 107.925212 228.726067 108.495741 225.984059 108.56788 223.206635 
L 85.378051 222.604319 
L 105.467805 211.005495 
z
" style="fill:#1f77b4;stroke:#ffffff;stroke-linejoin:miter;"/>
   </g>
   <g id="patch_15">
    <path d="M 110.816207 222.635379 
C 110.871463 220.507985 110.633711 218.383071 110.10965 216.320496 
C 109.58559 214.25792 108.780187 212.277235 107.716132 210.434237 
L 87.626378 222.033063 
L 110.816207 222.635379 
z
" style="fill:#ff7f0e;stroke:#ffffff;stroke-linejoin:miter;"/>
   </g>
   <g id="text_31">
    <!-- Yes -->
    <g style="fill:#262626;" transform="translate(44.327702 231.473299)scale(0.1 -0.1)">
     <use xlink:href="#ArialMT-59"/>
     <use x="57.574219" xlink:href="#ArialMT-65"/>
     <use x="113.189453" xlink:href="#ArialMT-73"/>
    </g>
   </g>
   <g id="text_32">
    <!-- 91% -->
    <g style="fill:#262626;" transform="translate(61.881057 228.617016)scale(0.1 -0.1)">
     <defs>
      <path d="M 350 1059 
L 891 1109 
Q 959 728 1153 556 
Q 1347 384 1650 384 
Q 1909 384 2104 503 
Q 2300 622 2425 820 
Q 2550 1019 2634 1356 
Q 2719 1694 2719 2044 
Q 2719 2081 2716 2156 
Q 2547 1888 2255 1720 
Q 1963 1553 1622 1553 
Q 1053 1553 659 1965 
Q 266 2378 266 3053 
Q 266 3750 677 4175 
Q 1088 4600 1706 4600 
Q 2153 4600 2523 4359 
Q 2894 4119 3086 3673 
Q 3278 3228 3278 2384 
Q 3278 1506 3087 986 
Q 2897 466 2520 194 
Q 2144 -78 1638 -78 
Q 1100 -78 759 220 
Q 419 519 350 1059 
z
M 2653 3081 
Q 2653 3566 2395 3850 
Q 2138 4134 1775 4134 
Q 1400 4134 1122 3828 
Q 844 3522 844 3034 
Q 844 2597 1108 2323 
Q 1372 2050 1759 2050 
Q 2150 2050 2401 2323 
Q 2653 2597 2653 3081 
z
" id="ArialMT-39" transform="scale(0.015625)"/>
     </defs>
     <use xlink:href="#ArialMT-39"/>
     <use x="55.615234" xlink:href="#ArialMT-31"/>
     <use x="111.230469" xlink:href="#ArialMT-25"/>
    </g>
   </g>
   <g id="text_33">
    <!-- No -->
    <g style="fill:#262626;" transform="translate(112.357978 218.334395)scale(0.1 -0.1)">
     <use xlink:href="#ArialMT-4e"/>
     <use x="72.216797" xlink:href="#ArialMT-6f"/>
    </g>
   </g>
   <g id="text_34">
    <!-- 9% -->
    <g style="fill:#262626;" transform="translate(93.889779 221.190679)scale(0.1 -0.1)">
     <use xlink:href="#ArialMT-39"/>
     <use x="55.615234" xlink:href="#ArialMT-25"/>
    </g>
   </g>
   <g id="text_35">
    <!-- Format URL -->
    <g style="fill:#262626;" transform="translate(54.956378 187.036001)scale(0.12 -0.12)">
     <defs>
      <path d="M 525 0 
L 525 4581 
L 3616 4581 
L 3616 4041 
L 1131 4041 
L 1131 2622 
L 3281 2622 
L 3281 2081 
L 1131 2081 
L 1131 0 
L 525 0 
z
" id="ArialMT-46" transform="scale(0.015625)"/>
      <path d="M 3500 4581 
L 4106 4581 
L 4106 1934 
Q 4106 1244 3950 837 
Q 3794 431 3386 176 
Q 2978 -78 2316 -78 
Q 1672 -78 1262 144 
Q 853 366 678 786 
Q 503 1206 503 1934 
L 503 4581 
L 1109 4581 
L 1109 1938 
Q 1109 1341 1220 1058 
Q 1331 775 1601 622 
Q 1872 469 2263 469 
Q 2931 469 3215 772 
Q 3500 1075 3500 1938 
L 3500 4581 
z
" id="ArialMT-55" transform="scale(0.015625)"/>
      <path d="M 503 0 
L 503 4581 
L 2534 4581 
Q 3147 4581 3465 4457 
Q 3784 4334 3975 4021 
Q 4166 3709 4166 3331 
Q 4166 2844 3850 2509 
Q 3534 2175 2875 2084 
Q 3116 1969 3241 1856 
Q 3506 1613 3744 1247 
L 4541 0 
L 3778 0 
L 3172 953 
Q 2906 1366 2734 1584 
Q 2563 1803 2427 1890 
Q 2291 1978 2150 2013 
Q 2047 2034 1813 2034 
L 1109 2034 
L 1109 0 
L 503 0 
z
M 1109 2559 
L 2413 2559 
Q 2828 2559 3062 2645 
Q 3297 2731 3419 2920 
Q 3541 3109 3541 3331 
Q 3541 3656 3305 3865 
Q 3069 4075 2559 4075 
L 1109 4075 
L 1109 2559 
z
" id="ArialMT-52" transform="scale(0.015625)"/>
      <path d="M 469 0 
L 469 4581 
L 1075 4581 
L 1075 541 
L 3331 541 
L 3331 0 
L 469 0 
z
" id="ArialMT-4c" transform="scale(0.015625)"/>
     </defs>
     <use xlink:href="#ArialMT-46"/>
     <use x="61.083984" xlink:href="#ArialMT-6f"/>
     <use x="116.699219" xlink:href="#ArialMT-72"/>
     <use x="150" xlink:href="#ArialMT-6d"/>
     <use x="233.300781" xlink:href="#ArialMT-61"/>
     <use x="288.916016" xlink:href="#ArialMT-74"/>
     <use x="316.699219" xlink:href="#ArialMT-20"/>
     <use x="344.482422" xlink:href="#ArialMT-55"/>
     <use x="416.699219" xlink:href="#ArialMT-52"/>
     <use x="488.916016" xlink:href="#ArialMT-4c"/>
    </g>
   </g>
  </g>
  <g id="axes_8">
   <g id="matplotlib.axis_15"/>
   <g id="matplotlib.axis_16"/>
   <g id="patch_16">
    <path d="M 248.172421 210.328036 
C 246.926648 208.170293 245.341342 206.227278 243.477533 204.57379 
C 241.613723 202.920302 239.495638 201.577835 237.204816 200.598069 
C 234.913994 199.618304 232.480213 199.013975 229.997165 198.808348 
C 227.514118 198.602721 225.014081 198.798469 222.593297 199.388055 
C 220.172513 199.977642 217.86245 200.953404 215.752037 202.277777 
C 213.641624 203.60215 211.758295 205.25792 210.17455 207.181344 
C 208.590805 209.104768 207.327233 211.270844 206.432475 213.596187 
C 205.537718 215.921529 205.023407 218.37591 204.909341 220.864845 
C 204.795275 223.353779 205.082937 225.844914 205.761253 228.242349 
C 206.439569 230.639784 207.499721 232.912355 208.900898 234.972576 
C 210.302075 237.032797 212.026063 238.853887 214.006494 240.365741 
C 215.986924 241.877594 218.198055 243.060559 220.554764 243.869095 
C 222.911473 244.67763 225.383126 245.101227 227.874573 245.123577 
C 230.36602 245.145928 232.844874 244.766741 235.215709 244.000616 
C 237.586544 243.234491 239.818541 242.091385 241.825777 240.615304 
C 243.833012 239.139223 245.589393 237.349355 247.027305 235.314603 
L 228.082667 221.926861 
L 248.172421 210.328036 
z
" style="fill:#1f77b4;stroke:#ffffff;stroke-linejoin:miter;"/>
   </g>
   <g id="patch_17">
    <path d="M 249.344638 235.420805 
C 251.902649 231.801031 253.370406 227.522835 253.573327 223.09508 
C 253.776247 218.667326 252.705955 214.272812 250.489755 210.43424 
L 230.4 222.033063 
L 249.344638 235.420805 
z
" style="fill:#ff7f0e;stroke:#ffffff;stroke-linejoin:miter;"/>
   </g>
   <g id="text_36">
    <!-- Yes -->
    <g style="fill:#262626;" transform="translate(186.273258 223.343799)scale(0.1 -0.1)">
     <use xlink:href="#ArialMT-59"/>
     <use x="57.574219" xlink:href="#ArialMT-65"/>
     <use x="113.189453" xlink:href="#ArialMT-73"/>
    </g>
   </g>
   <g id="text_37">
    <!-- 82% -->
    <g style="fill:#262626;" transform="translate(204.17164 223.874807)scale(0.1 -0.1)">
     <use xlink:href="#ArialMT-38"/>
     <use x="55.615234" xlink:href="#ArialMT-32"/>
     <use x="111.230469" xlink:href="#ArialMT-25"/>
    </g>
   </g>
   <g id="text_38">
    <!-- No -->
    <g style="fill:#262626;" transform="translate(255.890659 225.786438)scale(0.1 -0.1)">
     <use xlink:href="#ArialMT-4e"/>
     <use x="72.216797" xlink:href="#ArialMT-6f"/>
    </g>
   </g>
   <g id="text_39">
    <!-- 18% -->
    <g style="fill:#262626;" transform="translate(234.296965 225.255429)scale(0.1 -0.1)">
     <use xlink:href="#ArialMT-31"/>
     <use x="55.615234" xlink:href="#ArialMT-38"/>
     <use x="111.230469" xlink:href="#ArialMT-25"/>
    </g>
   </g>
   <g id="text_40">
    <!-- Example -->
    <g style="fill:#262626;" transform="translate(207.057187 187.036001)scale(0.12 -0.12)">
     <defs>
      <path d="M 47 0 
L 1259 1725 
L 138 3319 
L 841 3319 
L 1350 2541 
Q 1494 2319 1581 2169 
Q 1719 2375 1834 2534 
L 2394 3319 
L 3066 3319 
L 1919 1756 
L 3153 0 
L 2463 0 
L 1781 1031 
L 1600 1309 
L 728 0 
L 47 0 
z
" id="ArialMT-78" transform="scale(0.015625)"/>
     </defs>
     <use xlink:href="#ArialMT-45"/>
     <use x="66.699219" xlink:href="#ArialMT-78"/>
     <use x="116.699219" xlink:href="#ArialMT-61"/>
     <use x="172.314453" xlink:href="#ArialMT-6d"/>
     <use x="255.615234" xlink:href="#ArialMT-70"/>
     <use x="311.230469" xlink:href="#ArialMT-6c"/>
     <use x="333.447266" xlink:href="#ArialMT-65"/>
    </g>
   </g>
  </g>
  <g id="axes_9">
   <g id="matplotlib.axis_17"/>
   <g id="matplotlib.axis_18"/>
   <g id="patch_18">
    <path d="M 395.120473 209.044094 
C 394.660334 208.247112 394.153178 207.478216 393.601692 206.741484 
C 393.050207 206.004753 392.45537 205.301491 391.820335 204.635429 
L 375.030719 220.642919 
L 395.120473 209.044094 
z
" style="fill:#1f77b4;stroke:#ffffff;stroke-linejoin:miter;"/>
   </g>
   <g id="patch_19">
    <path d="M 389.963237 206.025572 
C 387.941241 203.904781 385.5356 202.186182 382.873855 200.960891 
C 380.21211 199.7356 377.342149 199.025661 374.416129 198.868712 
C 371.49011 198.711764 368.560673 199.110631 365.783132 200.044165 
C 363.00559 200.9777 360.429913 202.429107 358.192658 204.321437 
C 355.955403 206.213767 354.096819 208.512975 352.715444 211.097163 
C 351.334069 213.68135 350.454754 216.504026 350.12412 219.415539 
C 349.793486 222.327051 350.01748 225.27502 350.784227 228.10315 
C 351.550974 230.931281 352.84668 233.588693 354.602648 235.934497 
C 356.358617 238.280302 358.543257 240.272295 361.040745 241.804867 
C 363.538233 243.337439 366.303637 244.383018 369.190342 244.886168 
C 372.077046 245.389319 375.033117 245.340989 377.901831 244.743743 
C 380.770545 244.146496 383.500292 243.011076 385.946346 241.397682 
C 388.3924 239.784287 390.510755 237.721943 392.189102 235.31999 
C 393.867449 232.918038 395.075592 230.21969 395.749479 227.368006 
C 396.423365 224.516322 396.550872 221.562607 396.125238 218.663459 
C 395.699605 215.764311 394.728488 212.971888 393.263375 210.434238 
L 373.173622 222.033063 
L 389.963237 206.025572 
z
" style="fill:#ff7f0e;stroke:#ffffff;stroke-linejoin:miter;"/>
   </g>
   <g id="text_41">
    <!-- Yes -->
    <g style="fill:#262626;" transform="translate(395.45879 207.936497)scale(0.1 -0.1)">
     <use xlink:href="#ArialMT-59"/>
     <use x="57.574219" xlink:href="#ArialMT-65"/>
     <use x="113.189453" xlink:href="#ArialMT-73"/>
    </g>
   </g>
   <g id="text_42">
    <!-- 4% -->
    <g style="fill:#262626;" transform="translate(378.946741 214.887215)scale(0.1 -0.1)">
     <use xlink:href="#ArialMT-34"/>
     <use x="55.615234" xlink:href="#ArialMT-25"/>
    </g>
   </g>
   <g id="text_43">
    <!-- No -->
    <g style="fill:#262626;" transform="translate(339.962738 239.909797)scale(0.1 -0.1)">
     <use xlink:href="#ArialMT-4e"/>
     <use x="72.216797" xlink:href="#ArialMT-6f"/>
    </g>
   </g>
   <g id="text_44">
    <!-- 96% -->
    <g style="fill:#262626;" transform="translate(352.024006 232.95908)scale(0.1 -0.1)">
     <use xlink:href="#ArialMT-39"/>
     <use x="55.615234" xlink:href="#ArialMT-36"/>
     <use x="111.230469" xlink:href="#ArialMT-25"/>
    </g>
   </g>
   <g id="text_45">
    <!-- Wikidata Database -->
    <g style="fill:#262626;" transform="translate(322.817684 187.036001)scale(0.12 -0.12)">
     <defs>
      <path d="M 1294 0 
L 78 4581 
L 700 4581 
L 1397 1578 
Q 1509 1106 1591 641 
Q 1766 1375 1797 1488 
L 2669 4581 
L 3400 4581 
L 4056 2263 
Q 4303 1400 4413 641 
Q 4500 1075 4641 1638 
L 5359 4581 
L 5969 4581 
L 4713 0 
L 4128 0 
L 3163 3491 
Q 3041 3928 3019 4028 
Q 2947 3713 2884 3491 
L 1913 0 
L 1294 0 
z
" id="ArialMT-57" transform="scale(0.015625)"/>
      <path d="M 425 0 
L 425 4581 
L 988 4581 
L 988 1969 
L 2319 3319 
L 3047 3319 
L 1778 2088 
L 3175 0 
L 2481 0 
L 1384 1697 
L 988 1316 
L 988 0 
L 425 0 
z
" id="ArialMT-6b" transform="scale(0.015625)"/>
      <path d="M 2575 0 
L 2575 419 
Q 2259 -75 1647 -75 
Q 1250 -75 917 144 
Q 584 363 401 755 
Q 219 1147 219 1656 
Q 219 2153 384 2558 
Q 550 2963 881 3178 
Q 1213 3394 1622 3394 
Q 1922 3394 2156 3267 
Q 2391 3141 2538 2938 
L 2538 4581 
L 3097 4581 
L 3097 0 
L 2575 0 
z
M 797 1656 
Q 797 1019 1065 703 
Q 1334 388 1700 388 
Q 2069 388 2326 689 
Q 2584 991 2584 1609 
Q 2584 2291 2321 2609 
Q 2059 2928 1675 2928 
Q 1300 2928 1048 2622 
Q 797 2316 797 1656 
z
" id="ArialMT-64" transform="scale(0.015625)"/>
      <path d="M 941 0 
L 419 0 
L 419 4581 
L 981 4581 
L 981 2947 
Q 1338 3394 1891 3394 
Q 2197 3394 2470 3270 
Q 2744 3147 2920 2923 
Q 3097 2700 3197 2384 
Q 3297 2069 3297 1709 
Q 3297 856 2875 390 
Q 2453 -75 1863 -75 
Q 1275 -75 941 416 
L 941 0 
z
M 934 1684 
Q 934 1088 1097 822 
Q 1363 388 1816 388 
Q 2184 388 2453 708 
Q 2722 1028 2722 1663 
Q 2722 2313 2464 2622 
Q 2206 2931 1841 2931 
Q 1472 2931 1203 2611 
Q 934 2291 934 1684 
z
" id="ArialMT-62" transform="scale(0.015625)"/>
     </defs>
     <use xlink:href="#ArialMT-57"/>
     <use x="94.384766" xlink:href="#ArialMT-69"/>
     <use x="116.601562" xlink:href="#ArialMT-6b"/>
     <use x="166.601562" xlink:href="#ArialMT-69"/>
     <use x="188.818359" xlink:href="#ArialMT-64"/>
     <use x="244.433594" xlink:href="#ArialMT-61"/>
     <use x="300.048828" xlink:href="#ArialMT-74"/>
     <use x="327.832031" xlink:href="#ArialMT-61"/>
     <use x="383.447266" xlink:href="#ArialMT-20"/>
     <use x="411.230469" xlink:href="#ArialMT-44"/>
     <use x="483.447266" xlink:href="#ArialMT-61"/>
     <use x="539.0625" xlink:href="#ArialMT-74"/>
     <use x="566.845703" xlink:href="#ArialMT-61"/>
     <use x="622.460938" xlink:href="#ArialMT-62"/>
     <use x="678.076172" xlink:href="#ArialMT-61"/>
     <use x="733.691406" xlink:href="#ArialMT-73"/>
     <use x="783.691406" xlink:href="#ArialMT-65"/>
    </g>
   </g>
  </g>
  <g id="axes_10">
   <g id="matplotlib.axis_19"/>
   <g id="matplotlib.axis_20"/>
   <g id="patch_20">
    <path d="M 109.34908 292.556451 
C 108.318032 290.770623 107.053451 289.13022 105.588804 287.678652 
C 104.124156 286.227085 102.472475 284.97727 100.67747 283.962283 
L 89.259326 304.155276 
L 109.34908 292.556451 
z
" style="fill:#1f77b4;stroke:#ffffff;stroke-linejoin:miter;"/>
   </g>
   <g id="patch_21">
    <path d="M 99.044522 285.609946 
C 96.618819 284.23833 93.965695 283.314955 91.212554 282.884162 
C 88.459414 282.453369 85.651041 282.522166 82.922297 283.087248 
C 80.193552 283.652331 77.588823 284.704507 75.23319 286.193251 
C 72.877557 287.681995 70.809339 289.58309 69.127852 291.805244 
C 67.446365 294.027398 66.178962 296.534463 65.386504 299.20605 
C 64.594046 301.877637 64.289425 304.670287 64.487267 307.449895 
C 64.685109 310.229504 65.382198 312.950856 66.545057 315.483271 
C 67.707917 318.015685 69.317631 320.317968 71.296902 322.279562 
C 73.276173 324.241157 75.592803 325.830154 78.135548 326.97025 
C 80.678292 328.110345 83.405787 328.782993 86.187059 328.955893 
C 88.968331 329.128792 91.758135 328.799131 94.422506 327.98274 
C 97.086877 327.166348 99.582472 325.876506 101.789453 324.175153 
C 103.996433 322.473799 105.878898 320.38861 107.346451 318.019717 
C 108.814003 315.650824 109.842771 313.036761 110.383353 310.303057 
C 110.923934 307.569353 110.967535 304.760477 110.512062 302.011311 
C 110.056589 299.262146 109.109451 296.617412 107.716131 294.20411 
L 87.626378 305.802938 
L 99.044522 285.609946 
z
" style="fill:#ff7f0e;stroke:#ffffff;stroke-linejoin:miter;"/>
   </g>
   <g id="text_46">
    <!-- Yes -->
    <g style="fill:#262626;" transform="translate(107.221751 288.616146)scale(0.1 -0.1)">
     <use xlink:href="#ArialMT-59"/>
     <use x="57.574219" xlink:href="#ArialMT-65"/>
     <use x="113.189453" xlink:href="#ArialMT-73"/>
    </g>
   </g>
   <g id="text_47">
    <!-- 8% -->
    <g style="fill:#262626;" transform="translate(91.83045 296.854458)scale(0.1 -0.1)">
     <use xlink:href="#ArialMT-38"/>
     <use x="55.615234" xlink:href="#ArialMT-25"/>
    </g>
   </g>
   <g id="text_48">
    <!-- No -->
    <g style="fill:#262626;" transform="translate(56.881142 326.512381)scale(0.1 -0.1)">
     <use xlink:href="#ArialMT-4e"/>
     <use x="72.216797" xlink:href="#ArialMT-6f"/>
    </g>
   </g>
   <g id="text_49">
    <!-- 92% -->
    <g style="fill:#262626;" transform="translate(67.821661 318.274069)scale(0.1 -0.1)">
     <use xlink:href="#ArialMT-39"/>
     <use x="55.615234" xlink:href="#ArialMT-32"/>
     <use x="111.230469" xlink:href="#ArialMT-25"/>
    </g>
   </g>
   <g id="text_50">
    <!-- OBO -->
    <g style="fill:#262626;" transform="translate(74.290441 270.805876)scale(0.12 -0.12)">
     <defs>
      <path d="M 309 2231 
Q 309 3372 921 4017 
Q 1534 4663 2503 4663 
Q 3138 4663 3647 4359 
Q 4156 4056 4423 3514 
Q 4691 2972 4691 2284 
Q 4691 1588 4409 1038 
Q 4128 488 3612 205 
Q 3097 -78 2500 -78 
Q 1853 -78 1343 234 
Q 834 547 571 1087 
Q 309 1628 309 2231 
z
M 934 2222 
Q 934 1394 1379 917 
Q 1825 441 2497 441 
Q 3181 441 3623 922 
Q 4066 1403 4066 2288 
Q 4066 2847 3877 3264 
Q 3688 3681 3323 3911 
Q 2959 4141 2506 4141 
Q 1863 4141 1398 3698 
Q 934 3256 934 2222 
z
" id="ArialMT-4f" transform="scale(0.015625)"/>
      <path d="M 469 0 
L 469 4581 
L 2188 4581 
Q 2713 4581 3030 4442 
Q 3347 4303 3526 4014 
Q 3706 3725 3706 3409 
Q 3706 3116 3547 2856 
Q 3388 2597 3066 2438 
Q 3481 2316 3704 2022 
Q 3928 1728 3928 1328 
Q 3928 1006 3792 729 
Q 3656 453 3456 303 
Q 3256 153 2954 76 
Q 2653 0 2216 0 
L 469 0 
z
M 1075 2656 
L 2066 2656 
Q 2469 2656 2644 2709 
Q 2875 2778 2992 2937 
Q 3109 3097 3109 3338 
Q 3109 3566 3000 3739 
Q 2891 3913 2687 3977 
Q 2484 4041 1991 4041 
L 1075 4041 
L 1075 2656 
z
M 1075 541 
L 2216 541 
Q 2509 541 2628 563 
Q 2838 600 2978 687 
Q 3119 775 3209 942 
Q 3300 1109 3300 1328 
Q 3300 1584 3169 1773 
Q 3038 1963 2805 2039 
Q 2572 2116 2134 2116 
L 1075 2116 
L 1075 541 
z
" id="ArialMT-42" transform="scale(0.015625)"/>
     </defs>
     <use xlink:href="#ArialMT-4f"/>
     <use x="77.783203" xlink:href="#ArialMT-42"/>
     <use x="144.482422" xlink:href="#ArialMT-4f"/>
    </g>
   </g>
  </g>
  <g id="axes_11">
   <g id="matplotlib.axis_21"/>
   <g id="matplotlib.axis_22"/>
   <g id="patch_22">
    <path d="M 251.705141 292.228223 
C 249.778704 288.891536 247.050996 286.086767 243.76926 284.068143 
C 240.487524 282.049519 236.754002 280.87993 232.907106 280.665389 
L 231.615387 303.827048 
L 251.705141 292.228223 
z
" style="fill:#1f77b4;stroke:#ffffff;stroke-linejoin:miter;"/>
   </g>
   <g id="patch_23">
    <path d="M 231.691719 282.64128 
C 229.132487 282.498552 226.567204 282.780978 224.10032 283.477057 
C 221.633436 284.173136 219.298892 285.273291 217.191742 286.732729 
C 215.084591 288.192167 213.233826 289.990808 211.714803 292.055417 
C 210.195779 294.120026 209.029397 296.422197 208.263147 298.868194 
C 207.496897 301.314191 207.141321 303.870361 207.210898 306.432626 
C 207.280475 308.994891 207.774247 311.527997 208.67211 313.928807 
C 209.569973 316.329616 210.859572 318.565096 212.488402 320.544227 
C 214.117231 322.523357 216.062879 324.218908 218.246126 325.561842 
C 220.429374 326.904777 222.820182 327.876618 225.321206 328.437796 
C 227.82223 328.998974 230.399059 329.141768 232.946775 328.860364 
C 235.49449 328.57896 237.978038 327.877229 240.296299 326.783744 
C 242.61456 325.690259 244.735636 324.220064 246.573167 322.43302 
C 248.410697 320.645976 249.939399 318.566671 251.097029 316.279767 
C 252.254659 313.992862 253.025291 311.529822 253.377546 308.990932 
C 253.729802 306.452043 253.658834 303.872237 253.167534 301.356553 
C 252.676233 298.840869 251.771359 296.42392 250.489755 294.204115 
L 230.4 305.802938 
L 231.691719 282.64128 
z
" style="fill:#ff7f0e;stroke:#ffffff;stroke-linejoin:miter;"/>
   </g>
   <g id="text_51">
    <!-- Yes -->
    <g style="fill:#262626;" transform="translate(244.984647 284.677409)scale(0.1 -0.1)">
     <use xlink:href="#ArialMT-59"/>
     <use x="57.574219" xlink:href="#ArialMT-65"/>
     <use x="113.189453" xlink:href="#ArialMT-73"/>
    </g>
   </g>
   <g id="text_52">
    <!-- 16% -->
    <g style="fill:#262626;" transform="translate(228.90068 294.556861)scale(0.1 -0.1)">
     <use xlink:href="#ArialMT-31"/>
     <use x="55.615234" xlink:href="#ArialMT-36"/>
     <use x="111.230469" xlink:href="#ArialMT-25"/>
    </g>
   </g>
   <g id="text_53">
    <!-- No -->
    <g style="fill:#262626;" transform="translate(204.247926 330.122889)scale(0.1 -0.1)">
     <use xlink:href="#ArialMT-4e"/>
     <use x="72.216797" xlink:href="#ArialMT-6f"/>
    </g>
   </g>
   <g id="text_54">
    <!-- 84% -->
    <g style="fill:#262626;" transform="translate(213.100644 320.243437)scale(0.1 -0.1)">
     <use xlink:href="#ArialMT-38"/>
     <use x="55.615234" xlink:href="#ArialMT-34"/>
     <use x="111.230469" xlink:href="#ArialMT-25"/>
    </g>
   </g>
   <g id="text_55">
    <!-- OWL -->
    <g style="fill:#262626;" transform="translate(216.733125 270.805876)scale(0.12 -0.12)">
     <use xlink:href="#ArialMT-4f"/>
     <use x="77.783203" xlink:href="#ArialMT-57"/>
     <use x="172.167969" xlink:href="#ArialMT-4c"/>
    </g>
   </g>
  </g>
  <g id="axes_12"/>
  <g id="text_56">
   <!-- https://github.com/bioregistry/bioregistry (2021-04-14) -->
   <g style="fill:#808080;opacity:0.5;" transform="translate(135.47375 343.91625)scale(0.08 -0.08)">
    <defs>
     <path d="M 422 0 
L 422 4581 
L 984 4581 
L 984 2938 
Q 1378 3394 1978 3394 
Q 2347 3394 2619 3248 
Q 2891 3103 3008 2847 
Q 3125 2591 3125 2103 
L 3125 0 
L 2563 0 
L 2563 2103 
Q 2563 2525 2380 2717 
Q 2197 2909 1863 2909 
Q 1613 2909 1392 2779 
Q 1172 2650 1078 2428 
Q 984 2206 984 1816 
L 984 0 
L 422 0 
z
" id="ArialMT-68" transform="scale(0.015625)"/>
     <path d="M 578 2678 
L 578 3319 
L 1219 3319 
L 1219 2678 
L 578 2678 
z
M 578 0 
L 578 641 
L 1219 641 
L 1219 0 
L 578 0 
z
" id="ArialMT-3a" transform="scale(0.015625)"/>
     <path d="M 0 -78 
L 1328 4659 
L 1778 4659 
L 453 -78 
L 0 -78 
z
" id="ArialMT-2f" transform="scale(0.015625)"/>
     <path d="M 2597 0 
L 2597 488 
Q 2209 -75 1544 -75 
Q 1250 -75 995 37 
Q 741 150 617 320 
Q 494 491 444 738 
Q 409 903 409 1263 
L 409 3319 
L 972 3319 
L 972 1478 
Q 972 1038 1006 884 
Q 1059 663 1231 536 
Q 1403 409 1656 409 
Q 1909 409 2131 539 
Q 2353 669 2445 892 
Q 2538 1116 2538 1541 
L 2538 3319 
L 3100 3319 
L 3100 0 
L 2597 0 
z
" id="ArialMT-75" transform="scale(0.015625)"/>
     <path d="M 581 0 
L 581 641 
L 1222 641 
L 1222 0 
L 581 0 
z
" id="ArialMT-2e" transform="scale(0.015625)"/>
     <path d="M 397 -1278 
L 334 -750 
Q 519 -800 656 -800 
Q 844 -800 956 -737 
Q 1069 -675 1141 -563 
Q 1194 -478 1313 -144 
Q 1328 -97 1363 -6 
L 103 3319 
L 709 3319 
L 1400 1397 
Q 1534 1031 1641 628 
Q 1738 1016 1872 1384 
L 2581 3319 
L 3144 3319 
L 1881 -56 
Q 1678 -603 1566 -809 
Q 1416 -1088 1222 -1217 
Q 1028 -1347 759 -1347 
Q 597 -1347 397 -1278 
z
" id="ArialMT-79" transform="scale(0.015625)"/>
     <path d="M 1497 -1347 
Q 1031 -759 709 28 
Q 388 816 388 1659 
Q 388 2403 628 3084 
Q 909 3875 1497 4659 
L 1900 4659 
Q 1522 4009 1400 3731 
Q 1209 3300 1100 2831 
Q 966 2247 966 1656 
Q 966 153 1900 -1347 
L 1497 -1347 
z
" id="ArialMT-28" transform="scale(0.015625)"/>
     <path d="M 203 1375 
L 203 1941 
L 1931 1941 
L 1931 1375 
L 203 1375 
z
" id="ArialMT-2d" transform="scale(0.015625)"/>
     <path d="M 791 -1347 
L 388 -1347 
Q 1322 153 1322 1656 
Q 1322 2244 1188 2822 
Q 1081 3291 891 3722 
Q 769 4003 388 4659 
L 791 4659 
Q 1378 3875 1659 3084 
Q 1900 2403 1900 1659 
Q 1900 816 1576 28 
Q 1253 -759 791 -1347 
z
" id="ArialMT-29" transform="scale(0.015625)"/>
    </defs>
    <use xlink:href="#ArialMT-68"/>
    <use x="55.615234" xlink:href="#ArialMT-74"/>
    <use x="83.398438" xlink:href="#ArialMT-74"/>
    <use x="111.181641" xlink:href="#ArialMT-70"/>
    <use x="166.796875" xlink:href="#ArialMT-73"/>
    <use x="216.796875" xlink:href="#ArialMT-3a"/>
    <use x="244.580078" xlink:href="#ArialMT-2f"/>
    <use x="272.363281" xlink:href="#ArialMT-2f"/>
    <use x="300.146484" xlink:href="#ArialMT-67"/>
    <use x="355.761719" xlink:href="#ArialMT-69"/>
    <use x="377.978516" xlink:href="#ArialMT-74"/>
    <use x="405.761719" xlink:href="#ArialMT-68"/>
    <use x="461.376953" xlink:href="#ArialMT-75"/>
    <use x="516.992188" xlink:href="#ArialMT-62"/>
    <use x="572.607422" xlink:href="#ArialMT-2e"/>
    <use x="600.390625" xlink:href="#ArialMT-63"/>
    <use x="650.390625" xlink:href="#ArialMT-6f"/>
    <use x="706.005859" xlink:href="#ArialMT-6d"/>
    <use x="789.306641" xlink:href="#ArialMT-2f"/>
    <use x="817.089844" xlink:href="#ArialMT-62"/>
    <use x="872.705078" xlink:href="#ArialMT-69"/>
    <use x="894.921875" xlink:href="#ArialMT-6f"/>
    <use x="950.537109" xlink:href="#ArialMT-72"/>
    <use x="983.837891" xlink:href="#ArialMT-65"/>
    <use x="1039.453125" xlink:href="#ArialMT-67"/>
    <use x="1095.068359" xlink:href="#ArialMT-69"/>
    <use x="1117.285156" xlink:href="#ArialMT-73"/>
    <use x="1167.285156" xlink:href="#ArialMT-74"/>
    <use x="1195.068359" xlink:href="#ArialMT-72"/>
    <use x="1228.369141" xlink:href="#ArialMT-79"/>
    <use x="1278.369141" xlink:href="#ArialMT-2f"/>
    <use x="1306.152344" xlink:href="#ArialMT-62"/>
    <use x="1361.767578" xlink:href="#ArialMT-69"/>
    <use x="1383.984375" xlink:href="#ArialMT-6f"/>
    <use x="1439.599609" xlink:href="#ArialMT-72"/>
    <use x="1472.900391" xlink:href="#ArialMT-65"/>
    <use x="1528.515625" xlink:href="#ArialMT-67"/>
    <use x="1584.130859" xlink:href="#ArialMT-69"/>
    <use x="1606.347656" xlink:href="#ArialMT-73"/>
    <use x="1656.347656" xlink:href="#ArialMT-74"/>
    <use x="1684.130859" xlink:href="#ArialMT-72"/>
    <use x="1717.431641" xlink:href="#ArialMT-79"/>
    <use x="1767.431641" xlink:href="#ArialMT-20"/>
    <use x="1795.214844" xlink:href="#ArialMT-28"/>
    <use x="1828.515625" xlink:href="#ArialMT-32"/>
    <use x="1884.130859" xlink:href="#ArialMT-30"/>
    <use x="1939.746094" xlink:href="#ArialMT-32"/>
    <use x="1995.361328" xlink:href="#ArialMT-31"/>
    <use x="2050.976562" xlink:href="#ArialMT-2d"/>
    <use x="2084.277344" xlink:href="#ArialMT-30"/>
    <use x="2139.892578" xlink:href="#ArialMT-34"/>
    <use x="2195.507812" xlink:href="#ArialMT-2d"/>
    <use x="2228.808594" xlink:href="#ArialMT-31"/>
    <use x="2284.423828" xlink:href="#ArialMT-34"/>
    <use x="2340.039062" xlink:href="#ArialMT-29"/>
   </g>
  </g>
 </g>
</svg>
