<?xml version="1.0" encoding="UTF-8" standalone="no"?>
<!DOCTYPE svg PUBLIC "-//W3C//DTD SVG 1.1//EN"
 "http://www.w3.org/Graphics/SVG/1.1/DTD/svg11.dtd">
<!-- Generated by graphviz version 2.50.0 (20211204.2007)
 -->
<!-- Pages: 1 -->
<svg width="472pt" height="257pt"
 viewBox="0.00 0.00 471.50 257.00" xmlns="http://www.w3.org/2000/svg" xmlns:xlink="http://www.w3.org/1999/xlink">
<g id="graph0" class="graph" transform="scale(1 1) rotate(0) translate(4 253)">
<polygon fill="white" stroke="transparent" points="-4,4 -4,-253 467.5,-253 467.5,4 -4,4"/>
<!-- 0000001 -->
<g id="node1" class="node">
<title>0000001</title>
<ellipse fill="none" stroke="black" cx="229.5" cy="-211.5" rx="43.59" ry="18"/>
<text text-anchor="middle" x="229.5" y="-207.8" font-family="Times,serif" font-size="14.00">Resource</text>
</g>
<!-- 0000001&#45;&gt;0000001 -->
<g id="edge1" class="edge">
<title>0000001&#45;&gt;0000001</title>
<path fill="none" stroke="black" d="M263.36,-222.97C278.24,-223.98 291.04,-220.16 291.04,-211.5 291.04,-204.94 283.69,-201.15 273.65,-200.15"/>
<polygon fill="black" stroke="black" points="273.4,-196.65 263.36,-200.03 273.32,-203.65 273.4,-196.65"/>
<text text-anchor="middle" x="328.04" y="-237.8" font-family="Times,serif" font-size="14.00">appears in,</text>
<text text-anchor="middle" x="328.04" y="-222.8" font-family="Times,serif" font-size="14.00">exact match,</text>
<text text-anchor="middle" x="328.04" y="-207.8" font-family="Times,serif" font-size="14.00">provides for,</text>
<text text-anchor="middle" x="328.04" y="-192.8" font-family="Times,serif" font-size="14.00">depends on,</text>
<text text-anchor="middle" x="328.04" y="-177.8" font-family="Times,serif" font-size="14.00">has canonical</text>
</g>
<!-- 0000002 -->
<g id="node2" class="node">
<title>0000002</title>
<ellipse fill="none" stroke="black" cx="40.5" cy="-105" rx="40.5" ry="18"/>
<text text-anchor="middle" x="40.5" y="-101.3" font-family="Times,serif" font-size="14.00">Registry</text>
</g>
<!-- 0000001&#45;&gt;0000002 -->
<g id="edge2" class="edge">
<title>0000001&#45;&gt;0000002</title>
<path fill="none" stroke="black" d="M203.38,-196.83C182.7,-185.94 153.13,-170.21 127.5,-156 109.24,-145.88 89.02,-134.28 72.67,-124.8"/>
<polygon fill="black" stroke="black" points="74.43,-121.77 64.02,-119.78 70.91,-127.83 74.43,-121.77"/>
<text text-anchor="middle" x="146" y="-144.8" font-family="Times,serif" font-size="14.00">part of</text>
</g>
<!-- 0000003 -->
<g id="node3" class="node">
<title>0000003</title>
<ellipse fill="none" stroke="black" cx="146.5" cy="-105" rx="47.5" ry="18"/>
<text text-anchor="middle" x="146.5" y="-101.3" font-family="Times,serif" font-size="14.00">Collection</text>
</g>
<!-- 0000001&#45;&gt;0000003 -->
<g id="edge3" class="edge">
<title>0000001&#45;&gt;0000003</title>
<path fill="none" stroke="black" d="M213.05,-194.51C202.63,-184 189.15,-169.71 178.5,-156 172.52,-148.31 166.6,-139.49 161.51,-131.42"/>
<polygon fill="black" stroke="black" points="164.38,-129.4 156.15,-122.73 158.42,-133.08 164.38,-129.4"/>
<text text-anchor="middle" x="197" y="-144.8" font-family="Times,serif" font-size="14.00">part of</text>
</g>
<!-- 0000020 -->
<g id="node4" class="node">
<title>0000020</title>
<ellipse fill="none" stroke="black" cx="229.5" cy="-18" rx="34.5" ry="18"/>
<text text-anchor="middle" x="229.5" y="-14.3" font-family="Times,serif" font-size="14.00">Person</text>
</g>
<!-- 0000001&#45;&gt;0000020 -->
<g id="edge4" class="edge">
<title>0000001&#45;&gt;0000020</title>
<path fill="none" stroke="black" d="M229.5,-193.17C229.5,-159.77 229.5,-86.27 229.5,-46.26"/>
<polygon fill="black" stroke="black" points="233,-46.15 229.5,-36.16 226,-46.16 233,-46.15"/>
<text text-anchor="middle" x="271.5" y="-101.3" font-family="Times,serif" font-size="14.00">has responsible</text>
</g>
<!-- 0000001&#45;&gt;0000020 -->
<g id="edge5" class="edge">
<title>0000001&#45;&gt;0000020</title>
<path fill="none" stroke="black" d="M252.16,-195.96C273.58,-180.72 304.34,-154.63 317.5,-123 323.64,-108.23 324.55,-101.36 317.5,-87 306.28,-64.16 283.28,-46.81 263.61,-35.35"/>
<polygon fill="black" stroke="black" points="265.31,-32.29 254.86,-30.51 261.92,-38.41 265.31,-32.29"/>
<text text-anchor="middle" x="356.5" y="-101.3" font-family="Times,serif" font-size="14.00">has reviewer</text>
</g>
<!-- 0000001&#45;&gt;0000020 -->
<g id="edge6" class="edge">
<title>0000001&#45;&gt;0000020</title>
<path fill="none" stroke="black" d="M265.43,-201.13C324.82,-183.82 433.32,-143.37 395.5,-87 368.36,-46.56 312.43,-30.15 273.01,-23.5"/>
<polygon fill="black" stroke="black" points="273.54,-20.04 263.12,-21.98 272.48,-26.96 273.54,-20.04"/>
<text text-anchor="middle" x="433" y="-101.3" font-family="Times,serif" font-size="14.00">contributor</text>
</g>
<!-- 0000002&#45;&gt;0000020 -->
<g id="edge7" class="edge">
<title>0000002&#45;&gt;0000020</title>
<path fill="none" stroke="black" d="M43.14,-86.72C45.72,-75.77 50.75,-62.16 60.5,-54 79.16,-38.37 142.2,-28.48 185.78,-23.34"/>
<polygon fill="black" stroke="black" points="186.31,-26.81 195.85,-22.2 185.52,-19.85 186.31,-26.81"/>
<text text-anchor="middle" x="102.5" y="-57.8" font-family="Times,serif" font-size="14.00">has responsible</text>
</g>
<!-- 0000003&#45;&gt;0000020 -->
<g id="edge8" class="edge">
<title>0000003&#45;&gt;0000020</title>
<path fill="none" stroke="black" d="M145.39,-86.69C145.6,-76.27 147.51,-63.26 154.5,-54 162.98,-42.76 175.96,-34.99 188.75,-29.69"/>
<polygon fill="black" stroke="black" points="190.27,-32.86 198.42,-26.1 187.83,-26.3 190.27,-32.86"/>
<text text-anchor="middle" x="185" y="-57.8" font-family="Times,serif" font-size="14.00">contributor</text>
</g>
</g>
</svg>
