<?xml version="1.0" encoding="UTF-8" standalone="no"?>
<!DOCTYPE svg PUBLIC "-//W3C//DTD SVG 1.1//EN"
 "http://www.w3.org/Graphics/SVG/1.1/DTD/svg11.dtd">
<!-- Generated by graphviz version 2.50.0 (20211204.2007)
 -->
<!-- Pages: 1 -->
<svg width="530pt" height="257pt"
 viewBox="0.00 0.00 529.50 257.00" xmlns="http://www.w3.org/2000/svg" xmlns:xlink="http://www.w3.org/1999/xlink">
<g id="graph0" class="graph" transform="scale(1 1) rotate(0) translate(4 253)">
<polygon fill="white" stroke="transparent" points="-4,4 -4,-253 525.5,-253 525.5,4 -4,4"/>
<!-- 0000001 -->
<g id="node1" class="node">
<title>0000001</title>
<ellipse fill="none" stroke="black" cx="289.5" cy="-211.5" rx="43.59" ry="18"/>
<text text-anchor="middle" x="289.5" y="-207.8" font-family="Times,serif" font-size="14.00">Resource</text>
</g>
<!-- 0000001&#45;&gt;0000001 -->
<g id="edge1" class="edge">
<title>0000001&#45;&gt;0000001</title>
<path fill="none" stroke="black" d="M323.36,-222.97C338.24,-223.98 351.04,-220.16 351.04,-211.5 351.04,-204.94 343.69,-201.15 333.65,-200.15"/>
<polygon fill="black" stroke="black" points="333.4,-196.65 323.36,-200.03 333.32,-203.65 333.4,-196.65"/>
<text text-anchor="middle" x="390.04" y="-237.8" font-family="Times,serif" font-size="14.00">has canonical,</text>
<text text-anchor="middle" x="390.04" y="-222.8" font-family="Times,serif" font-size="14.00">exact match,</text>
<text text-anchor="middle" x="390.04" y="-207.8" font-family="Times,serif" font-size="14.00">provides for,</text>
<text text-anchor="middle" x="390.04" y="-192.8" font-family="Times,serif" font-size="14.00">appears in,</text>
<text text-anchor="middle" x="390.04" y="-177.8" font-family="Times,serif" font-size="14.00">depends on</text>
</g>
<!-- 0000002 -->
<g id="node2" class="node">
<title>0000002</title>
<ellipse fill="none" stroke="black" cx="40.5" cy="-105" rx="40.5" ry="18"/>
<text text-anchor="middle" x="40.5" y="-101.3" font-family="Times,serif" font-size="14.00">Registry</text>
</g>
<!-- 0000001&#45;&gt;0000002 -->
<g id="edge2" class="edge">
<title>0000001&#45;&gt;0000002</title>
<path fill="none" stroke="black" d="M253.56,-201.08C219.55,-191.6 167.45,-175.59 124.5,-156 105.91,-147.52 86.23,-135.96 70.6,-126.09"/>
<polygon fill="black" stroke="black" points="72.21,-122.96 61.9,-120.51 68.43,-128.85 72.21,-122.96"/>
<text text-anchor="middle" x="143" y="-144.8" font-family="Times,serif" font-size="14.00">part of</text>
</g>
<!-- 0000003 -->
<g id="node3" class="node">
<title>0000003</title>
<ellipse fill="none" stroke="black" cx="146.5" cy="-105" rx="47.5" ry="18"/>
<text text-anchor="middle" x="146.5" y="-101.3" font-family="Times,serif" font-size="14.00">Collection</text>
</g>
<!-- 0000001&#45;&gt;0000003 -->
<g id="edge3" class="edge">
<title>0000001&#45;&gt;0000003</title>
<path fill="none" stroke="black" d="M256.34,-199.69C232.68,-190.75 201.15,-176.23 178.5,-156 170.93,-149.24 164.45,-140.29 159.35,-131.84"/>
<polygon fill="black" stroke="black" points="162.32,-129.97 154.35,-122.98 156.22,-133.41 162.32,-129.97"/>
<text text-anchor="middle" x="197" y="-144.8" font-family="Times,serif" font-size="14.00">part of</text>
</g>
<!-- 0000020 -->
<g id="node4" class="node">
<title>0000020</title>
<ellipse fill="none" stroke="black" cx="256.5" cy="-18" rx="34.5" ry="18"/>
<text text-anchor="middle" x="256.5" y="-14.3" font-family="Times,serif" font-size="14.00">Person</text>
</g>
<!-- 0000001&#45;&gt;0000020 -->
<g id="edge4" class="edge">
<title>0000001&#45;&gt;0000020</title>
<path fill="none" stroke="black" d="M277.72,-194.06C266.4,-177.17 250.08,-149.66 243.5,-123 237.12,-97.16 242.27,-66.89 247.86,-45.69"/>
<polygon fill="black" stroke="black" points="251.31,-46.37 250.68,-35.79 244.58,-44.45 251.31,-46.37"/>
<text text-anchor="middle" x="285.5" y="-101.3" font-family="Times,serif" font-size="14.00">has responsible</text>
</g>
<!-- 0000001&#45;&gt;0000020 -->
<g id="edge5" class="edge">
<title>0000001&#45;&gt;0000020</title>
<path fill="none" stroke="black" d="M301.75,-194.13C318.12,-170.11 343.35,-124.14 327.5,-87 319.02,-67.13 301.57,-50.29 286.09,-38.34"/>
<polygon fill="black" stroke="black" points="287.89,-35.31 277.76,-32.21 283.75,-40.95 287.89,-35.31"/>
<text text-anchor="middle" x="367.5" y="-101.3" font-family="Times,serif" font-size="14.00">has reviewer</text>
</g>
<!-- 0000001&#45;&gt;0000020 -->
<g id="edge6" class="edge">
<title>0000001&#45;&gt;0000020</title>
<path fill="none" stroke="black" d="M318.33,-197.87C361.82,-176.97 436.1,-132.92 406.5,-87 383.09,-50.69 335.07,-33.55 299.63,-25.61"/>
<polygon fill="black" stroke="black" points="300.05,-22.12 289.54,-23.51 298.62,-28.97 300.05,-22.12"/>
<text text-anchor="middle" x="431.5" y="-101.3" font-family="Times,serif" font-size="14.00">creator</text>
</g>
<!-- 0000001&#45;&gt;0000020 -->
<g id="edge7" class="edge">
<title>0000001&#45;&gt;0000020</title>
<path fill="none" stroke="black" d="M325.44,-201.27C383.59,-184.43 488.53,-145.03 454.5,-87 424.01,-35.01 349.93,-21.84 301.54,-19.02"/>
<polygon fill="black" stroke="black" points="301.47,-15.51 291.32,-18.55 301.15,-22.5 301.47,-15.51"/>
<text text-anchor="middle" x="491" y="-101.3" font-family="Times,serif" font-size="14.00">contributor</text>
</g>
<!-- 0000002&#45;&gt;0000020 -->
<g id="edge8" class="edge">
<title>0000002&#45;&gt;0000020</title>
<path fill="none" stroke="black" d="M29.85,-87.41C24.48,-76.75 20.59,-63.21 28.5,-54 51.63,-27.05 152.13,-20.64 211.71,-19.25"/>
<polygon fill="black" stroke="black" points="212.04,-22.74 221.97,-19.05 211.91,-15.75 212.04,-22.74"/>
<text text-anchor="middle" x="70.5" y="-57.8" font-family="Times,serif" font-size="14.00">has responsible</text>
</g>
<!-- 0000003&#45;&gt;0000020 -->
<g id="edge9" class="edge">
<title>0000003&#45;&gt;0000020</title>
<path fill="none" stroke="black" d="M128.94,-87.82C119.96,-77.58 112.46,-64.36 120.5,-54 131.85,-39.36 177.66,-29.76 213.02,-24.39"/>
<polygon fill="black" stroke="black" points="213.75,-27.82 223.14,-22.92 212.74,-20.89 213.75,-27.82"/>
<text text-anchor="middle" x="139.5" y="-57.8" font-family="Times,serif" font-size="14.00">creator</text>
</g>
<!-- 0000003&#45;&gt;0000020 -->
<g id="edge10" class="edge">
<title>0000003&#45;&gt;0000020</title>
<path fill="none" stroke="black" d="M155.36,-86.98C161.54,-76.4 170.62,-63.13 181.5,-54 192.28,-44.95 205.8,-37.69 218.39,-32.19"/>
<polygon fill="black" stroke="black" points="219.86,-35.37 227.76,-28.32 217.19,-28.9 219.86,-35.37"/>
<text text-anchor="middle" x="212" y="-57.8" font-family="Times,serif" font-size="14.00">contributor</text>
</g>
</g>
</svg>
